<?xml version="1.0" encoding="UTF-8" standalone="no"?>
<!DOCTYPE svg PUBLIC "-//W3C//DTD SVG 1.1//EN"
 "http://www.w3.org/Graphics/SVG/1.1/DTD/svg11.dtd">
<!-- Generated by graphviz version 2.47.1 (20210417.1919)
 -->
<!-- Title: TensorProductMatrixSymmetricSum&lt; dim, Number, n_rows_1d &gt; Pages: 1 -->
<svg width="181pt" height="196pt"
 viewBox="0.00 0.00 181.00 196.00" xmlns="http://www.w3.org/2000/svg" xmlns:xlink="http://www.w3.org/1999/xlink">
<g id="graph0" class="graph" transform="scale(1 1) rotate(0) translate(4 192)">
<title>TensorProductMatrixSymmetricSum&lt; dim, Number, n_rows_1d &gt;</title>
<polygon fill="white" stroke="transparent" points="-4,4 -4,-192 177,-192 177,4 -4,4"/>
<!-- Node1 -->
<g id="node1" class="node">
<title>Node1</title>
<g id="a_node1"><a xlink:title=" ">
<polygon fill="#bfbfbf" stroke="black" points="0,-0.5 0,-30.5 164,-30.5 164,-0.5 0,-0.5"/>
<text text-anchor="start" x="8" y="-18.5" font-family="Helvetica,sans-Serif" font-size="10.00">TensorProductMatrixSymmetric</text>
<text text-anchor="middle" x="82" y="-7.5" font-family="Helvetica,sans-Serif" font-size="10.00">Sum&lt; dim, Number, n_rows_1d &gt;</text>
</a>
</g>
</g>
<!-- Node2 -->
<g id="node2" class="node">
<title>Node2</title>
<g id="a_node2"><a xlink:href="classTensorProductMatrixSymmetricSumBase.html" target="_top" xlink:title=" ">
<polygon fill="white" stroke="black" points="5,-68.5 5,-98.5 159,-98.5 159,-68.5 5,-68.5"/>
<text text-anchor="start" x="13" y="-86.5" font-family="Helvetica,sans-Serif" font-size="10.00">TensorProductMatrixSymmetric</text>
<text text-anchor="middle" x="82" y="-75.5" font-family="Helvetica,sans-Serif" font-size="10.00">SumBase&lt; dim, Number, &#45;1 &gt;</text>
</a>
</g>
</g>
<!-- Node2&#45;&gt;Node1 -->
<g id="edge1" class="edge">
<title>Node2&#45;&gt;Node1</title>
<path fill="none" stroke="midnightblue" d="M82,-58.03C82,-48.86 82,-38.74 82,-30.79"/>
<polygon fill="midnightblue" stroke="midnightblue" points="78.5,-58.18 82,-68.18 85.5,-58.18 78.5,-58.18"/>
</g>
<!-- Node3 -->
<g id="node3" class="node">
<title>Node3</title>
<g id="a_node3"><a xlink:href="classTensorProductMatrixSymmetricSumBase.html" target="_top" xlink:title=" ">
<polygon fill="white" stroke="black" points="5,-146.5 5,-187.5 159,-187.5 159,-146.5 5,-146.5"/>
<text text-anchor="start" x="13" y="-175.5" font-family="Helvetica,sans-Serif" font-size="10.00">TensorProductMatrixSymmetric</text>
<text text-anchor="start" x="13" y="-164.5" font-family="Helvetica,sans-Serif" font-size="10.00">SumBase&lt; dim, Number, n</text>
<text text-anchor="middle" x="82" y="-153.5" font-family="Helvetica,sans-Serif" font-size="10.00">_rows_1d &gt;</text>
</a>
</g>
</g>
<!-- Node3&#45;&gt;Node2 -->
<g id="edge2" class="edge">
<title>Node3&#45;&gt;Node2</title>
<path fill="none" stroke="orange" stroke-dasharray="5,2" d="M82,-136.03C82,-123.26 82,-108.97 82,-98.68"/>
<polygon fill="orange" stroke="orange" points="78.5,-136.27 82,-146.27 85.5,-136.27 78.5,-136.27"/>
<text text-anchor="middle" x="127.5" y="-120" font-family="Helvetica,sans-Serif" font-size="10.00"> &lt; dim, Number, &#45;1 &gt;</text>
</g>
</g>
</svg>
