<?xml version="1.0" encoding="UTF-8" standalone="no"?>
<!DOCTYPE svg PUBLIC "-//W3C//DTD SVG 1.1//EN"
 "http://www.w3.org/Graphics/SVG/1.1/DTD/svg11.dtd">
<!-- Generated by graphviz version 2.47.1 (20210417.1919)
 -->
<!-- Title: DataPostprocessor&lt; dim &gt; Pages: 1 -->
<svg width="383pt" height="137pt"
 viewBox="0.00 0.00 383.00 137.00" xmlns="http://www.w3.org/2000/svg" xmlns:xlink="http://www.w3.org/1999/xlink">
<g id="graph0" class="graph" transform="scale(1 1) rotate(0) translate(4 133)">
<title>DataPostprocessor&lt; dim &gt;</title>
<polygon fill="white" stroke="transparent" points="-4,4 -4,-133 379,-133 379,4 -4,4"/>
<!-- Node1 -->
<g id="node1" class="node">
<title>Node1</title>
<g id="a_node1"><a xlink:title=" ">
<polygon fill="#bfbfbf" stroke="black" points="102,-49.5 102,-79.5 209,-79.5 209,-49.5 102,-49.5"/>
<text text-anchor="start" x="110" y="-67.5" font-family="Helvetica,sans-Serif" font-size="10.00">DataPostprocessor&lt;</text>
<text text-anchor="middle" x="155.5" y="-56.5" font-family="Helvetica,sans-Serif" font-size="10.00"> dim &gt;</text>
</a>
</g>
</g>
<!-- Node3 -->
<g id="node3" class="node">
<title>Node3</title>
<g id="a_node3"><a xlink:href="classDataPostprocessorScalar.html" target="_top" xlink:title=" ">
<polygon fill="white" stroke="black" points="246,-98.5 246,-128.5 374,-128.5 374,-98.5 246,-98.5"/>
<text text-anchor="start" x="254" y="-116.5" font-family="Helvetica,sans-Serif" font-size="10.00">DataPostprocessorScalar</text>
<text text-anchor="middle" x="310" y="-105.5" font-family="Helvetica,sans-Serif" font-size="10.00">&lt; dim &gt;</text>
</a>
</g>
</g>
<!-- Node1&#45;&gt;Node3 -->
<g id="edge2" class="edge">
<title>Node1&#45;&gt;Node3</title>
<path fill="none" stroke="midnightblue" d="M213.33,-82.76C229.41,-87.93 246.73,-93.49 262.16,-98.45"/>
<polygon fill="midnightblue" stroke="midnightblue" points="214.09,-79.33 203.5,-79.6 211.95,-85.99 214.09,-79.33"/>
</g>
<!-- Node4 -->
<g id="node4" class="node">
<title>Node4</title>
<g id="a_node4"><a xlink:href="classDataPostprocessorTensor.html" target="_top" xlink:title=" ">
<polygon fill="white" stroke="black" points="245,-49.5 245,-79.5 375,-79.5 375,-49.5 245,-49.5"/>
<text text-anchor="start" x="253" y="-67.5" font-family="Helvetica,sans-Serif" font-size="10.00">DataPostprocessorTensor</text>
<text text-anchor="middle" x="310" y="-56.5" font-family="Helvetica,sans-Serif" font-size="10.00">&lt; dim &gt;</text>
</a>
</g>
</g>
<!-- Node1&#45;&gt;Node4 -->
<g id="edge3" class="edge">
<title>Node1&#45;&gt;Node4</title>
<path fill="none" stroke="midnightblue" d="M219.5,-64.5C227.88,-64.5 236.48,-64.5 244.89,-64.5"/>
<polygon fill="midnightblue" stroke="midnightblue" points="219.41,-61 209.41,-64.5 219.41,-68 219.41,-61"/>
</g>
<!-- Node5 -->
<g id="node5" class="node">
<title>Node5</title>
<g id="a_node5"><a xlink:href="classDataPostprocessorVector.html" target="_top" xlink:title=" ">
<polygon fill="white" stroke="black" points="245.5,-0.5 245.5,-30.5 374.5,-30.5 374.5,-0.5 245.5,-0.5"/>
<text text-anchor="start" x="253.5" y="-18.5" font-family="Helvetica,sans-Serif" font-size="10.00">DataPostprocessorVector</text>
<text text-anchor="middle" x="310" y="-7.5" font-family="Helvetica,sans-Serif" font-size="10.00">&lt; dim &gt;</text>
</a>
</g>
</g>
<!-- Node1&#45;&gt;Node5 -->
<g id="edge4" class="edge">
<title>Node1&#45;&gt;Node5</title>
<path fill="none" stroke="midnightblue" d="M213.33,-46.24C229.41,-41.07 246.73,-35.51 262.16,-30.55"/>
<polygon fill="midnightblue" stroke="midnightblue" points="211.95,-43.01 203.5,-49.4 214.09,-49.67 211.95,-43.01"/>
</g>
<!-- Node2 -->
<g id="node2" class="node">
<title>Node2</title>
<g id="a_node2"><a xlink:href="classSubscriptor.html" target="_top" xlink:title=" ">
<polygon fill="white" stroke="black" points="0,-55 0,-74 66,-74 66,-55 0,-55"/>
<text text-anchor="middle" x="33" y="-62" font-family="Helvetica,sans-Serif" font-size="10.00">Subscriptor</text>
</a>
</g>
</g>
<!-- Node2&#45;&gt;Node1 -->
<g id="edge1" class="edge">
<title>Node2&#45;&gt;Node1</title>
<path fill="none" stroke="midnightblue" d="M76.34,-64.5C84.52,-64.5 93.18,-64.5 101.64,-64.5"/>
<polygon fill="midnightblue" stroke="midnightblue" points="76.29,-61 66.29,-64.5 76.29,-68 76.29,-61"/>
</g>
</g>
</svg>
