<?xml version="1.0" encoding="UTF-8" standalone="no"?>
<!DOCTYPE svg PUBLIC "-//W3C//DTD SVG 1.1//EN"
 "http://www.w3.org/Graphics/SVG/1.1/DTD/svg11.dtd">
<!-- Generated by graphviz version 2.47.1 (20210417.1919)
 -->
<!-- Title: PersistentTriangulation&lt; dim, spacedim &gt; Pages: 1 -->
<svg width="178pt" height="242pt"
 viewBox="0.00 0.00 178.00 242.00" xmlns="http://www.w3.org/2000/svg" xmlns:xlink="http://www.w3.org/1999/xlink">
<g id="graph0" class="graph" transform="scale(1 1) rotate(0) translate(4 238)">
<title>PersistentTriangulation&lt; dim, spacedim &gt;</title>
<polygon fill="white" stroke="transparent" points="-4,4 -4,-238 174,-238 174,4 -4,4"/>
<!-- Node1 -->
<g id="node1" class="node">
<title>Node1</title>
<g id="a_node1"><a xlink:title=" ">
<polygon fill="#bfbfbf" stroke="black" points="0,-0.5 0,-30.5 116,-30.5 116,-0.5 0,-0.5"/>
<text text-anchor="start" x="8" y="-18.5" font-family="Helvetica,sans-Serif" font-size="10.00">PersistentTriangulation</text>
<text text-anchor="middle" x="58" y="-7.5" font-family="Helvetica,sans-Serif" font-size="10.00">&lt; dim, spacedim &gt;</text>
</a>
</g>
</g>
<!-- Node2 -->
<g id="node2" class="node">
<title>Node2</title>
<g id="a_node2"><a xlink:href="classTriangulation.html" target="_top" xlink:title=" ">
<polygon fill="white" stroke="black" points="8,-68.5 8,-98.5 108,-98.5 108,-68.5 8,-68.5"/>
<text text-anchor="start" x="16" y="-86.5" font-family="Helvetica,sans-Serif" font-size="10.00">Triangulation&lt; dim,</text>
<text text-anchor="middle" x="58" y="-75.5" font-family="Helvetica,sans-Serif" font-size="10.00"> dim &gt;</text>
</a>
</g>
</g>
<!-- Node2&#45;&gt;Node1 -->
<g id="edge1" class="edge">
<title>Node2&#45;&gt;Node1</title>
<path fill="none" stroke="midnightblue" d="M58,-58.03C58,-48.86 58,-38.74 58,-30.79"/>
<polygon fill="midnightblue" stroke="midnightblue" points="54.5,-58.18 58,-68.18 61.5,-58.18 54.5,-58.18"/>
</g>
<!-- Node3 -->
<g id="node3" class="node">
<title>Node3</title>
<g id="a_node3"><a xlink:href="classSubscriptor.html" target="_top" xlink:title=" ">
<polygon fill="white" stroke="black" points="21,-214.5 21,-233.5 87,-233.5 87,-214.5 21,-214.5"/>
<text text-anchor="middle" x="54" y="-221.5" font-family="Helvetica,sans-Serif" font-size="10.00">Subscriptor</text>
</a>
</g>
</g>
<!-- Node3&#45;&gt;Node2 -->
<g id="edge2" class="edge">
<title>Node3&#45;&gt;Node2</title>
<path fill="none" stroke="midnightblue" d="M54.54,-204.25C55.35,-176.19 56.86,-123.88 57.59,-98.73"/>
<polygon fill="midnightblue" stroke="midnightblue" points="51.04,-204.24 54.25,-214.34 58.04,-204.44 51.04,-204.24"/>
</g>
<!-- Node4 -->
<g id="node4" class="node">
<title>Node4</title>
<g id="a_node4"><a xlink:href="classTriangulation.html" target="_top" xlink:title=" ">
<polygon fill="white" stroke="black" points="70,-146.5 70,-176.5 170,-176.5 170,-146.5 70,-146.5"/>
<text text-anchor="start" x="78" y="-164.5" font-family="Helvetica,sans-Serif" font-size="10.00">Triangulation&lt; dim,</text>
<text text-anchor="middle" x="120" y="-153.5" font-family="Helvetica,sans-Serif" font-size="10.00"> spacedim &gt;</text>
</a>
</g>
</g>
<!-- Node3&#45;&gt;Node4 -->
<g id="edge4" class="edge">
<title>Node3&#45;&gt;Node4</title>
<path fill="none" stroke="midnightblue" d="M71.09,-207.34C81.48,-197.81 94.65,-185.74 104.7,-176.53"/>
<polygon fill="midnightblue" stroke="midnightblue" points="68.46,-204.99 63.46,-214.33 73.19,-210.15 68.46,-204.99"/>
</g>
<!-- Node4&#45;&gt;Node2 -->
<g id="edge3" class="edge">
<title>Node4&#45;&gt;Node2</title>
<path fill="none" stroke="orange" stroke-dasharray="5,2" d="M101.89,-138.31C91.47,-125.53 78.69,-109.86 69.61,-98.73"/>
<polygon fill="orange" stroke="orange" points="99.3,-140.67 108.34,-146.2 104.73,-136.24 99.3,-140.67"/>
<text text-anchor="middle" x="121.5" y="-120" font-family="Helvetica,sans-Serif" font-size="10.00"> &lt; dim, dim &gt;</text>
</g>
</g>
</svg>
