<?xml version="1.0" encoding="UTF-8" standalone="no"?>
<!DOCTYPE svg PUBLIC "-//W3C//DTD SVG 1.1//EN"
 "http://www.w3.org/Graphics/SVG/1.1/DTD/svg11.dtd">
<!-- Generated by graphviz version 2.47.1 (20210417.1919)
 -->
<!-- Title: MeshWorker::VectorSelector Pages: 1 -->
<svg width="1363pt" height="78pt"
 viewBox="0.00 0.00 1363.00 77.50" xmlns="http://www.w3.org/2000/svg" xmlns:xlink="http://www.w3.org/1999/xlink">
<g id="graph0" class="graph" transform="scale(1 1) rotate(0) translate(4 73.5)">
<title>MeshWorker::VectorSelector</title>
<polygon fill="white" stroke="transparent" points="-4,4 -4,-73.5 1359,-73.5 1359,4 -4,4"/>
<!-- Node1 -->
<g id="node1" class="node">
<title>Node1</title>
<g id="a_node1"><a xlink:title=" ">
<polygon fill="#bfbfbf" stroke="black" points="103,-38 103,-57 245,-57 245,-38 103,-38"/>
<text text-anchor="middle" x="174" y="-45" font-family="Helvetica,sans-Serif" font-size="10.00">MeshWorker::VectorSelector</text>
</a>
</g>
</g>
<!-- Node3 -->
<g id="node3" class="node">
<title>Node3</title>
<g id="a_node3"><a xlink:href="classMeshWorker_1_1VectorDataBase.html" target="_top" xlink:title=" ">
<polygon fill="white" stroke="black" points="573,-28 573,-69 722,-69 722,-28 573,-28"/>
<text text-anchor="start" x="581" y="-57" font-family="Helvetica,sans-Serif" font-size="10.00">MeshWorker::VectorDataBase</text>
<text text-anchor="start" x="581" y="-46" font-family="Helvetica,sans-Serif" font-size="10.00">&lt; dim, dim, VectorType::</text>
<text text-anchor="middle" x="647.5" y="-35" font-family="Helvetica,sans-Serif" font-size="10.00">value_type &gt;</text>
</a>
</g>
</g>
<!-- Node1&#45;&gt;Node3 -->
<g id="edge2" class="edge">
<title>Node1&#45;&gt;Node3</title>
<path fill="none" stroke="midnightblue" d="M255.16,-51.94C332.08,-55.55 451.51,-59.45 555,-55.5 560.73,-55.28 566.66,-54.99 572.62,-54.64"/>
<polygon fill="midnightblue" stroke="midnightblue" points="255.21,-48.44 245.06,-51.46 254.88,-55.43 255.21,-48.44"/>
</g>
<!-- Node7 -->
<g id="node7" class="node">
<title>Node7</title>
<g id="a_node7"><a xlink:href="classMeshWorker_1_1VectorDataBase.html" target="_top" xlink:title=" ">
<polygon fill="white" stroke="black" points="282,-10.5 282,-40.5 431,-40.5 431,-10.5 282,-10.5"/>
<text text-anchor="start" x="290" y="-28.5" font-family="Helvetica,sans-Serif" font-size="10.00">MeshWorker::VectorDataBase</text>
<text text-anchor="middle" x="356.5" y="-17.5" font-family="Helvetica,sans-Serif" font-size="10.00">&lt; dim, spacedim, Number &gt;</text>
</a>
</g>
</g>
<!-- Node1&#45;&gt;Node7 -->
<g id="edge6" class="edge">
<title>Node1&#45;&gt;Node7</title>
<path fill="none" stroke="midnightblue" d="M255.06,-37.74C263.99,-36.65 273.06,-35.55 281.91,-34.47"/>
<polygon fill="midnightblue" stroke="midnightblue" points="254.55,-34.28 245.04,-38.96 255.39,-41.23 254.55,-34.28"/>
</g>
<!-- Node2 -->
<g id="node2" class="node">
<title>Node2</title>
<g id="a_node2"><a xlink:href="classSubscriptor.html" target="_top" xlink:title=" ">
<polygon fill="white" stroke="black" points="0,-38 0,-57 66,-57 66,-38 0,-38"/>
<text text-anchor="middle" x="33" y="-45" font-family="Helvetica,sans-Serif" font-size="10.00">Subscriptor</text>
</a>
</g>
</g>
<!-- Node2&#45;&gt;Node1 -->
<g id="edge1" class="edge">
<title>Node2&#45;&gt;Node1</title>
<path fill="none" stroke="midnightblue" d="M76.45,-47.5C84.8,-47.5 93.77,-47.5 102.76,-47.5"/>
<polygon fill="midnightblue" stroke="midnightblue" points="76.24,-44 66.24,-47.5 76.24,-51 76.24,-44"/>
</g>
<!-- Node4 -->
<g id="node4" class="node">
<title>Node4</title>
<g id="a_node4"><a xlink:href="classMeshWorker_1_1VectorData.html" target="_top" xlink:title=" ">
<polygon fill="white" stroke="black" points="759,-30.5 759,-60.5 913,-60.5 913,-30.5 759,-30.5"/>
<text text-anchor="start" x="767" y="-48.5" font-family="Helvetica,sans-Serif" font-size="10.00">MeshWorker::VectorData</text>
<text text-anchor="middle" x="836" y="-37.5" font-family="Helvetica,sans-Serif" font-size="10.00">&lt; VectorType, dim, spacedim &gt;</text>
</a>
</g>
</g>
<!-- Node3&#45;&gt;Node4 -->
<g id="edge3" class="edge">
<title>Node3&#45;&gt;Node4</title>
<path fill="none" stroke="midnightblue" d="M732.44,-47.15C741.21,-47.01 750.09,-46.87 758.77,-46.73"/>
<polygon fill="midnightblue" stroke="midnightblue" points="732.15,-43.65 722.21,-47.31 732.26,-50.65 732.15,-43.65"/>
</g>
<!-- Node5 -->
<g id="node5" class="node">
<title>Node5</title>
<g id="a_node5"><a xlink:href="classMeshWorker_1_1VectorData.html" target="_top" xlink:title=" ">
<polygon fill="white" stroke="black" points="1036,-0.5 1036,-30.5 1164,-30.5 1164,-0.5 1036,-0.5"/>
<text text-anchor="start" x="1044" y="-18.5" font-family="Helvetica,sans-Serif" font-size="10.00">MeshWorker::VectorData</text>
<text text-anchor="middle" x="1100" y="-7.5" font-family="Helvetica,sans-Serif" font-size="10.00">&lt; VectorType, dim, dim &gt;</text>
</a>
</g>
</g>
<!-- Node4&#45;&gt;Node5 -->
<g id="edge4" class="edge">
<title>Node4&#45;&gt;Node5</title>
<path fill="none" stroke="orange" stroke-dasharray="5,2" d="M923.35,-35.61C960.1,-31.4 1002.18,-26.59 1035.94,-22.72"/>
<polygon fill="orange" stroke="orange" points="922.67,-32.17 913.13,-36.78 923.47,-39.12 922.67,-32.17"/>
<text text-anchor="start" x="931" y="-48.5" font-family="Helvetica,sans-Serif" font-size="10.00"> &lt; VectorType, dim,</text>
<text text-anchor="middle" x="974.5" y="-37.5" font-family="Helvetica,sans-Serif" font-size="10.00"> dim &gt;</text>
</g>
<!-- Node6 -->
<g id="node6" class="node">
<title>Node6</title>
<g id="a_node6"><a xlink:href="classMeshWorker_1_1MGVectorData.html" target="_top" xlink:title=" ">
<polygon fill="white" stroke="black" points="1201,-0.5 1201,-30.5 1355,-30.5 1355,-0.5 1201,-0.5"/>
<text text-anchor="start" x="1209" y="-18.5" font-family="Helvetica,sans-Serif" font-size="10.00">MeshWorker::MGVectorData</text>
<text text-anchor="middle" x="1278" y="-7.5" font-family="Helvetica,sans-Serif" font-size="10.00">&lt; VectorType, dim, spacedim &gt;</text>
</a>
</g>
</g>
<!-- Node5&#45;&gt;Node6 -->
<g id="edge5" class="edge">
<title>Node5&#45;&gt;Node6</title>
<path fill="none" stroke="midnightblue" d="M1174.25,-15.5C1183.04,-15.5 1192.04,-15.5 1200.87,-15.5"/>
<polygon fill="midnightblue" stroke="midnightblue" points="1174.04,-12 1164.04,-15.5 1174.04,-19 1174.04,-12"/>
</g>
<!-- Node7&#45;&gt;Node3 -->
<g id="edge8" class="edge">
<title>Node7&#45;&gt;Node3</title>
<path fill="none" stroke="orange" stroke-dasharray="5,2" d="M441.5,-26.64C476.64,-27.71 517.87,-29.72 555,-33.5 560.77,-34.09 566.72,-34.81 572.69,-35.61"/>
<polygon fill="orange" stroke="orange" points="441.37,-23.14 431.28,-26.35 441.17,-30.13 441.37,-23.14"/>
<text text-anchor="start" x="449" y="-47.5" font-family="Helvetica,sans-Serif" font-size="10.00"> &lt; dim, dim, VectorType</text>
<text text-anchor="middle" x="502" y="-36.5" font-family="Helvetica,sans-Serif" font-size="10.00">::value_type &gt;</text>
</g>
<!-- Node7&#45;&gt;Node5 -->
<g id="edge7" class="edge">
<title>Node7&#45;&gt;Node5</title>
<path fill="none" stroke="midnightblue" d="M441.5,-22.25C481.34,-20.84 529.62,-19.33 573,-18.5 740.09,-15.31 937.08,-15.15 1035.84,-15.31"/>
<polygon fill="midnightblue" stroke="midnightblue" points="441.16,-18.76 431.29,-22.61 441.41,-25.75 441.16,-18.76"/>
</g>
</g>
</svg>
