<?xml version="1.0" encoding="UTF-8" standalone="no"?>
<!DOCTYPE svg PUBLIC "-//W3C//DTD SVG 1.1//EN"
 "http://www.w3.org/Graphics/SVG/1.1/DTD/svg11.dtd">
<!-- Generated by graphviz version 2.47.1 (20210417.1919)
 -->
<!-- Title: Manifold&lt; dim, spacedim &gt; Pages: 1 -->
<svg width="1195pt" height="614pt"
 viewBox="0.00 0.00 1195.00 613.50" xmlns="http://www.w3.org/2000/svg" xmlns:xlink="http://www.w3.org/1999/xlink">
<g id="graph0" class="graph" transform="scale(1 1) rotate(0) translate(4 609.5)">
<title>Manifold&lt; dim, spacedim &gt;</title>
<polygon fill="white" stroke="transparent" points="-4,4 -4,-609.5 1191,-609.5 1191,4 -4,4"/>
<!-- Node1 -->
<g id="node1" class="node">
<title>Node1</title>
<g id="a_node1"><a xlink:title=" ">
<polygon fill="#bfbfbf" stroke="black" points="103,-302.5 103,-321.5 238,-321.5 238,-302.5 103,-302.5"/>
<text text-anchor="middle" x="170.5" y="-309.5" font-family="Helvetica,sans-Serif" font-size="10.00">Manifold&lt; dim, spacedim &gt;</text>
</a>
</g>
</g>
<!-- Node3 -->
<g id="node3" class="node">
<title>Node3</title>
<g id="a_node3"><a xlink:href="classChartManifold.html" target="_top" xlink:title=" ">
<polygon fill="white" stroke="black" points="818.5,-495 818.5,-525 923.5,-525 923.5,-495 818.5,-495"/>
<text text-anchor="start" x="826.5" y="-513" font-family="Helvetica,sans-Serif" font-size="10.00">ChartManifold&lt; dim,</text>
<text text-anchor="middle" x="871" y="-502" font-family="Helvetica,sans-Serif" font-size="10.00"> spacedim, 2 &gt;</text>
</a>
</g>
</g>
<!-- Node1&#45;&gt;Node3 -->
<g id="edge2" class="edge">
<title>Node1&#45;&gt;Node3</title>
<path fill="none" stroke="midnightblue" d="M189.34,-328.67C205.68,-343.24 231.04,-364.17 256,-378 287.85,-395.65 298.51,-394.31 333,-406 464.93,-450.7 494.79,-475.98 632,-500 695.35,-511.09 769.55,-512.4 818.05,-511.71"/>
<polygon fill="midnightblue" stroke="midnightblue" points="191.43,-325.84 181.67,-321.7 186.72,-331.02 191.43,-325.84"/>
</g>
<!-- Node5 -->
<g id="node5" class="node">
<title>Node5</title>
<g id="a_node5"><a xlink:href="classChartManifold.html" target="_top" xlink:title=" ">
<polygon fill="white" stroke="black" points="818.5,-439 818.5,-469 923.5,-469 923.5,-439 818.5,-439"/>
<text text-anchor="start" x="826.5" y="-457" font-family="Helvetica,sans-Serif" font-size="10.00">ChartManifold&lt; dim,</text>
<text text-anchor="middle" x="871" y="-446" font-family="Helvetica,sans-Serif" font-size="10.00"> spacedim, 1 &gt;</text>
</a>
</g>
</g>
<!-- Node1&#45;&gt;Node5 -->
<g id="edge4" class="edge">
<title>Node1&#45;&gt;Node5</title>
<path fill="none" stroke="midnightblue" d="M196.54,-326.74C213.03,-336.02 235.32,-347.76 256,-356 289.06,-369.17 298.5,-369.27 333,-378 464.93,-411.38 497.05,-426.41 632,-444 695.77,-452.31 769.88,-454.22 818.24,-454.43"/>
<polygon fill="midnightblue" stroke="midnightblue" points="197.97,-323.53 187.55,-321.61 194.5,-329.61 197.97,-323.53"/>
</g>
<!-- Node7 -->
<g id="node7" class="node">
<title>Node7</title>
<g id="a_node7"><a xlink:href="classChartManifold.html" target="_top" xlink:title=" ">
<polygon fill="white" stroke="black" points="818.5,-171 818.5,-201 923.5,-201 923.5,-171 818.5,-171"/>
<text text-anchor="start" x="826.5" y="-189" font-family="Helvetica,sans-Serif" font-size="10.00">ChartManifold&lt; dim,</text>
<text text-anchor="middle" x="871" y="-178" font-family="Helvetica,sans-Serif" font-size="10.00"> dim, 3 &gt;</text>
</a>
</g>
</g>
<!-- Node1&#45;&gt;Node7 -->
<g id="edge6" class="edge">
<title>Node1&#45;&gt;Node7</title>
<path fill="none" stroke="midnightblue" d="M198.11,-297.87C250.22,-271.09 370.17,-213.85 479,-194 598.89,-172.13 742.89,-176.99 818.24,-181.86"/>
<polygon fill="midnightblue" stroke="midnightblue" points="196.45,-294.79 189.18,-302.5 199.67,-301 196.45,-294.79"/>
</g>
<!-- Node9 -->
<g id="node9" class="node">
<title>Node9</title>
<g id="a_node9"><a xlink:href="classChartManifold.html" target="_top" xlink:title=" ">
<polygon fill="white" stroke="black" points="818.5,-278 818.5,-308 923.5,-308 923.5,-278 818.5,-278"/>
<text text-anchor="start" x="826.5" y="-296" font-family="Helvetica,sans-Serif" font-size="10.00">ChartManifold&lt; dim,</text>
<text text-anchor="middle" x="871" y="-285" font-family="Helvetica,sans-Serif" font-size="10.00"> dim, dim &gt;</text>
</a>
</g>
</g>
<!-- Node1&#45;&gt;Node9 -->
<g id="edge8" class="edge">
<title>Node1&#45;&gt;Node9</title>
<path fill="none" stroke="midnightblue" d="M248.56,-313.76C337.27,-314.57 487.07,-312.23 614,-292 622.2,-290.69 623.77,-288.12 632,-287 691.89,-278.84 707.58,-285.22 768,-287 784.4,-287.48 802.27,-288.4 818.4,-289.37"/>
<polygon fill="midnightblue" stroke="midnightblue" points="248.36,-310.25 238.32,-313.65 248.28,-317.25 248.36,-310.25"/>
</g>
<!-- Node14 -->
<g id="node14" class="node">
<title>Node14</title>
<g id="a_node14"><a xlink:href="classChartManifold.html" target="_top" xlink:title=" ">
<polygon fill="white" stroke="black" points="818.5,-385 818.5,-415 923.5,-415 923.5,-385 818.5,-385"/>
<text text-anchor="start" x="826.5" y="-403" font-family="Helvetica,sans-Serif" font-size="10.00">ChartManifold&lt; dim,</text>
<text text-anchor="middle" x="871" y="-392" font-family="Helvetica,sans-Serif" font-size="10.00"> 3, 3 &gt;</text>
</a>
</g>
</g>
<!-- Node1&#45;&gt;Node14 -->
<g id="edge13" class="edge">
<title>Node1&#45;&gt;Node14</title>
<path fill="none" stroke="midnightblue" d="M215.04,-324.26C274.23,-340.36 383.67,-368.09 479,-381 599.72,-397.35 743.08,-400.12 818.19,-400.31"/>
<polygon fill="midnightblue" stroke="midnightblue" points="215.85,-320.86 205.28,-321.59 214,-327.61 215.85,-320.86"/>
</g>
<!-- Node16 -->
<g id="node16" class="node">
<title>Node16</title>
<g id="a_node16"><a xlink:href="classChartManifold.html" target="_top" xlink:title=" ">
<polygon fill="white" stroke="black" points="796.5,-558.5 796.5,-599.5 945.5,-599.5 945.5,-558.5 796.5,-558.5"/>
<text text-anchor="start" x="804.5" y="-587.5" font-family="Helvetica,sans-Serif" font-size="10.00">ChartManifold&lt; dim,</text>
<text text-anchor="start" x="804.5" y="-576.5" font-family="Helvetica,sans-Serif" font-size="10.00"> spacedim_A+spacedim</text>
<text text-anchor="middle" x="871" y="-565.5" font-family="Helvetica,sans-Serif" font-size="10.00">_B, chartdim_A+chartdim_B &gt;</text>
</a>
</g>
</g>
<!-- Node1&#45;&gt;Node16 -->
<g id="edge15" class="edge">
<title>Node1&#45;&gt;Node16</title>
<path fill="none" stroke="midnightblue" d="M184.67,-329.78C200.05,-349.61 227.1,-381.7 256,-403 323.51,-452.76 427.03,-527.91 632,-574 686.13,-586.17 748.94,-586.95 796.44,-584.94"/>
<polygon fill="midnightblue" stroke="midnightblue" points="187.3,-327.45 178.46,-321.61 181.72,-331.69 187.3,-327.45"/>
</g>
<!-- Node18 -->
<g id="node18" class="node">
<title>Node18</title>
<g id="a_node18"><a xlink:href="classFlatManifold.html" target="_top" xlink:title=" ">
<polygon fill="white" stroke="black" points="497.5,-72 497.5,-102 595.5,-102 595.5,-72 497.5,-72"/>
<text text-anchor="start" x="505.5" y="-90" font-family="Helvetica,sans-Serif" font-size="10.00">FlatManifold&lt; dim,</text>
<text text-anchor="middle" x="546.5" y="-79" font-family="Helvetica,sans-Serif" font-size="10.00"> spacedim &gt;</text>
</a>
</g>
</g>
<!-- Node1&#45;&gt;Node18 -->
<g id="edge17" class="edge">
<title>Node1&#45;&gt;Node18</title>
<path fill="none" stroke="midnightblue" d="M175.58,-292.55C184.15,-256.33 207.39,-178.23 256,-134 322.1,-73.86 433.63,-74.09 497.23,-80.18"/>
<polygon fill="midnightblue" stroke="midnightblue" points="172.15,-291.83 173.38,-302.36 178.98,-293.37 172.15,-291.83"/>
</g>
<!-- Node22 -->
<g id="node22" class="node">
<title>Node22</title>
<g id="a_node22"><a xlink:href="classFlatManifold.html" target="_top" xlink:title=" ">
<polygon fill="white" stroke="black" points="338.5,-116 338.5,-146 436.5,-146 436.5,-116 338.5,-116"/>
<text text-anchor="start" x="346.5" y="-134" font-family="Helvetica,sans-Serif" font-size="10.00">FlatManifold&lt; dim,</text>
<text text-anchor="middle" x="387.5" y="-123" font-family="Helvetica,sans-Serif" font-size="10.00"> dim &gt;</text>
</a>
</g>
</g>
<!-- Node1&#45;&gt;Node22 -->
<g id="edge21" class="edge">
<title>Node1&#45;&gt;Node22</title>
<path fill="none" stroke="midnightblue" d="M176.69,-292.75C186.48,-260.27 210.87,-194.84 256,-161 279.62,-143.29 311.92,-135.77 338.48,-132.69"/>
<polygon fill="midnightblue" stroke="midnightblue" points="173.31,-291.83 173.92,-302.41 180.04,-293.76 173.31,-291.83"/>
</g>
<!-- Node23 -->
<g id="node23" class="node">
<title>Node23</title>
<g id="a_node23"><a xlink:href="classManifold.html" target="_top" xlink:title=" ">
<polygon fill="white" stroke="black" points="333,-258.5 333,-277.5 442,-277.5 442,-258.5 333,-258.5"/>
<text text-anchor="middle" x="387.5" y="-265.5" font-family="Helvetica,sans-Serif" font-size="10.00">Manifold&lt; dim, dim &gt;</text>
</a>
</g>
</g>
<!-- Node1&#45;&gt;Node23 -->
<g id="edge22" class="edge">
<title>Node1&#45;&gt;Node23</title>
<path fill="none" stroke="orange" stroke-dasharray="5,2" d="M209.74,-299.42C224.13,-295.03 240.7,-290.36 256,-287 281.05,-281.5 309.16,-277.18 332.85,-274.05"/>
<polygon fill="orange" stroke="orange" points="208.68,-296.09 200.17,-302.4 210.76,-302.77 208.68,-296.09"/>
<text text-anchor="middle" x="285.5" y="-290" font-family="Helvetica,sans-Serif" font-size="10.00"> &lt; dim, dim &gt;</text>
</g>
<!-- Node2 -->
<g id="node2" class="node">
<title>Node2</title>
<g id="a_node2"><a xlink:href="classSubscriptor.html" target="_top" xlink:title=" ">
<polygon fill="white" stroke="black" points="0,-302.5 0,-321.5 66,-321.5 66,-302.5 0,-302.5"/>
<text text-anchor="middle" x="33" y="-309.5" font-family="Helvetica,sans-Serif" font-size="10.00">Subscriptor</text>
</a>
</g>
</g>
<!-- Node2&#45;&gt;Node1 -->
<g id="edge1" class="edge">
<title>Node2&#45;&gt;Node1</title>
<path fill="none" stroke="midnightblue" d="M76.15,-312C84.68,-312 93.84,-312 102.97,-312"/>
<polygon fill="midnightblue" stroke="midnightblue" points="76.11,-308.5 66.11,-312 76.11,-315.5 76.11,-308.5"/>
</g>
<!-- Node4 -->
<g id="node4" class="node">
<title>Node4</title>
<g id="a_node4"><a xlink:href="classOpenCASCADE_1_1NURBSPatchManifold.html" target="_top" xlink:title=" ">
<polygon fill="white" stroke="black" points="993,-495 993,-525 1187,-525 1187,-495 993,-495"/>
<text text-anchor="start" x="1001" y="-513" font-family="Helvetica,sans-Serif" font-size="10.00">OpenCASCADE::NURBSPatchManifold</text>
<text text-anchor="middle" x="1090" y="-502" font-family="Helvetica,sans-Serif" font-size="10.00">&lt; dim, spacedim &gt;</text>
</a>
</g>
</g>
<!-- Node3&#45;&gt;Node4 -->
<g id="edge3" class="edge">
<title>Node3&#45;&gt;Node4</title>
<path fill="none" stroke="midnightblue" d="M933.92,-510C952.22,-510 972.71,-510 992.64,-510"/>
<polygon fill="midnightblue" stroke="midnightblue" points="933.7,-506.5 923.7,-510 933.7,-513.5 933.7,-506.5"/>
</g>
<!-- Node6 -->
<g id="node6" class="node">
<title>Node6</title>
<g id="a_node6"><a xlink:href="classOpenCASCADE_1_1ArclengthProjectionLineManifold.html" target="_top" xlink:title=" ">
<polygon fill="white" stroke="black" points="1000,-439 1000,-469 1180,-469 1180,-439 1000,-439"/>
<text text-anchor="start" x="1008" y="-457" font-family="Helvetica,sans-Serif" font-size="10.00">OpenCASCADE::ArclengthProjection</text>
<text text-anchor="middle" x="1090" y="-446" font-family="Helvetica,sans-Serif" font-size="10.00">LineManifold&lt; dim, spacedim &gt;</text>
</a>
</g>
</g>
<!-- Node5&#45;&gt;Node6 -->
<g id="edge5" class="edge">
<title>Node5&#45;&gt;Node6</title>
<path fill="none" stroke="midnightblue" d="M933.87,-454C954.43,-454 977.75,-454 999.95,-454"/>
<polygon fill="midnightblue" stroke="midnightblue" points="933.7,-450.5 923.7,-454 933.7,-457.5 933.7,-450.5"/>
</g>
<!-- Node8 -->
<g id="node8" class="node">
<title>Node8</title>
<g id="a_node8"><a xlink:href="classCylindricalManifold.html" target="_top" xlink:title=" ">
<polygon fill="white" stroke="black" points="1040.5,-128 1040.5,-158 1139.5,-158 1139.5,-128 1040.5,-128"/>
<text text-anchor="start" x="1048.5" y="-146" font-family="Helvetica,sans-Serif" font-size="10.00">CylindricalManifold</text>
<text text-anchor="middle" x="1090" y="-135" font-family="Helvetica,sans-Serif" font-size="10.00">&lt; dim, spacedim &gt;</text>
</a>
</g>
</g>
<!-- Node7&#45;&gt;Node8 -->
<g id="edge7" class="edge">
<title>Node7&#45;&gt;Node8</title>
<path fill="none" stroke="midnightblue" d="M933.92,-173.73C967.68,-167.04 1008.86,-158.88 1040.3,-152.65"/>
<polygon fill="midnightblue" stroke="midnightblue" points="932.83,-170.38 923.7,-175.76 934.19,-177.24 932.83,-170.38"/>
</g>
<!-- Node10 -->
<g id="node10" class="node">
<title>Node10</title>
<g id="a_node10"><a xlink:href="classCompositionManifold.html" target="_top" xlink:title=" ">
<polygon fill="white" stroke="black" points="1022,-177 1022,-229 1158,-229 1158,-177 1022,-177"/>
<text text-anchor="start" x="1030" y="-217" font-family="Helvetica,sans-Serif" font-size="10.00">CompositionManifold</text>
<text text-anchor="start" x="1030" y="-206" font-family="Helvetica,sans-Serif" font-size="10.00">&lt; dim, spacedim, chartdim,</text>
<text text-anchor="start" x="1030" y="-195" font-family="Helvetica,sans-Serif" font-size="10.00"> intermediate_dim, dim1,</text>
<text text-anchor="middle" x="1090" y="-184" font-family="Helvetica,sans-Serif" font-size="10.00"> dim2 &gt;</text>
</a>
</g>
</g>
<!-- Node9&#45;&gt;Node10 -->
<g id="edge9" class="edge">
<title>Node9&#45;&gt;Node10</title>
<path fill="none" stroke="midnightblue" d="M912.54,-273.63C935.88,-262.71 965.87,-249.09 993,-238 1002.28,-234.21 1012.14,-230.38 1021.87,-226.73"/>
<polygon fill="midnightblue" stroke="midnightblue" points="910.86,-270.55 903.3,-277.97 913.84,-276.88 910.86,-270.55"/>
</g>
<!-- Node11 -->
<g id="node11" class="node">
<title>Node11</title>
<g id="a_node11"><a xlink:href="classEllipticalManifold.html" target="_top" xlink:title=" ">
<polygon fill="white" stroke="black" points="1041,-346 1041,-376 1139,-376 1139,-346 1041,-346"/>
<text text-anchor="start" x="1049" y="-364" font-family="Helvetica,sans-Serif" font-size="10.00">EllipticalManifold</text>
<text text-anchor="middle" x="1090" y="-353" font-family="Helvetica,sans-Serif" font-size="10.00">&lt; dim, spacedim &gt;</text>
</a>
</g>
</g>
<!-- Node9&#45;&gt;Node11 -->
<g id="edge10" class="edge">
<title>Node9&#45;&gt;Node11</title>
<path fill="none" stroke="midnightblue" d="M919.83,-311.69C941.92,-319.99 968.61,-329.54 993,-337 1008.44,-341.72 1025.49,-346.21 1040.88,-350.01"/>
<polygon fill="midnightblue" stroke="midnightblue" points="920.94,-308.37 910.35,-308.1 918.46,-314.91 920.94,-308.37"/>
</g>
<!-- Node12 -->
<g id="node12" class="node">
<title>Node12</title>
<g id="a_node12"><a xlink:href="classFunctionManifold.html" target="_top" xlink:title=" ">
<polygon fill="white" stroke="black" points="1030.5,-297 1030.5,-327 1149.5,-327 1149.5,-297 1030.5,-297"/>
<text text-anchor="start" x="1038.5" y="-315" font-family="Helvetica,sans-Serif" font-size="10.00">FunctionManifold&lt; dim,</text>
<text text-anchor="middle" x="1090" y="-304" font-family="Helvetica,sans-Serif" font-size="10.00"> spacedim, chartdim &gt;</text>
</a>
</g>
</g>
<!-- Node9&#45;&gt;Node12 -->
<g id="edge11" class="edge">
<title>Node9&#45;&gt;Node12</title>
<path fill="none" stroke="midnightblue" d="M933.75,-298.41C964.1,-301.06 1000.5,-304.25 1030.42,-306.87"/>
<polygon fill="midnightblue" stroke="midnightblue" points="933.97,-294.91 923.7,-297.53 933.36,-301.89 933.97,-294.91"/>
</g>
<!-- Node13 -->
<g id="node13" class="node">
<title>Node13</title>
<g id="a_node13"><a xlink:href="classPolarManifold.html" target="_top" xlink:title=" ">
<polygon fill="white" stroke="black" points="1038,-248 1038,-278 1142,-278 1142,-248 1038,-248"/>
<text text-anchor="start" x="1046" y="-266" font-family="Helvetica,sans-Serif" font-size="10.00">PolarManifold&lt; dim,</text>
<text text-anchor="middle" x="1090" y="-255" font-family="Helvetica,sans-Serif" font-size="10.00"> spacedim &gt;</text>
</a>
</g>
</g>
<!-- Node9&#45;&gt;Node13 -->
<g id="edge12" class="edge">
<title>Node9&#45;&gt;Node13</title>
<path fill="none" stroke="midnightblue" d="M933.66,-284.48C966.54,-279.93 1006.53,-274.4 1037.69,-270.09"/>
<polygon fill="midnightblue" stroke="midnightblue" points="933.13,-281.02 923.7,-285.85 934.09,-287.95 933.13,-281.02"/>
</g>
<!-- Node15 -->
<g id="node15" class="node">
<title>Node15</title>
<g id="a_node15"><a xlink:href="classTorusManifold.html" target="_top" xlink:title=" ">
<polygon fill="white" stroke="black" points="1034.5,-395.5 1034.5,-414.5 1145.5,-414.5 1145.5,-395.5 1034.5,-395.5"/>
<text text-anchor="middle" x="1090" y="-402.5" font-family="Helvetica,sans-Serif" font-size="10.00">TorusManifold&lt; dim &gt;</text>
</a>
</g>
</g>
<!-- Node14&#45;&gt;Node15 -->
<g id="edge14" class="edge">
<title>Node14&#45;&gt;Node15</title>
<path fill="none" stroke="midnightblue" d="M933.74,-401.42C965.42,-402.15 1003.67,-403.03 1034.28,-403.74"/>
<polygon fill="midnightblue" stroke="midnightblue" points="933.78,-397.92 923.7,-401.19 933.62,-404.92 933.78,-397.92"/>
</g>
<!-- Node17 -->
<g id="node17" class="node">
<title>Node17</title>
<g id="a_node17"><a xlink:href="classTensorProductManifold.html" target="_top" xlink:title="Tensor product manifold of two ChartManifolds.">
<polygon fill="white" stroke="black" points="1021,-553 1021,-605 1159,-605 1159,-553 1021,-553"/>
<text text-anchor="start" x="1029" y="-593" font-family="Helvetica,sans-Serif" font-size="10.00">TensorProductManifold</text>
<text text-anchor="start" x="1029" y="-582" font-family="Helvetica,sans-Serif" font-size="10.00">&lt; dim, dim_A, spacedim</text>
<text text-anchor="start" x="1029" y="-571" font-family="Helvetica,sans-Serif" font-size="10.00">_A, chartdim_A, dim_B,</text>
<text text-anchor="middle" x="1090" y="-560" font-family="Helvetica,sans-Serif" font-size="10.00"> spacedim_B, chartdim_B &gt;</text>
</a>
</g>
</g>
<!-- Node16&#45;&gt;Node17 -->
<g id="edge16" class="edge">
<title>Node16&#45;&gt;Node17</title>
<path fill="none" stroke="midnightblue" d="M955.88,-579C977.4,-579 1000.29,-579 1020.91,-579"/>
<polygon fill="midnightblue" stroke="midnightblue" points="955.77,-575.5 945.77,-579 955.77,-582.5 955.77,-575.5"/>
</g>
<!-- Node19 -->
<g id="node19" class="node">
<title>Node19</title>
<g id="a_node19"><a xlink:href="classOpenCASCADE_1_1DirectionalProjectionManifold.html" target="_top" xlink:title=" ">
<polygon fill="white" stroke="black" points="800,-110.5 800,-151.5 942,-151.5 942,-110.5 800,-110.5"/>
<text text-anchor="start" x="808" y="-139.5" font-family="Helvetica,sans-Serif" font-size="10.00">OpenCASCADE::Directional</text>
<text text-anchor="start" x="808" y="-128.5" font-family="Helvetica,sans-Serif" font-size="10.00">ProjectionManifold&lt; dim,</text>
<text text-anchor="middle" x="871" y="-117.5" font-family="Helvetica,sans-Serif" font-size="10.00"> spacedim &gt;</text>
</a>
</g>
</g>
<!-- Node18&#45;&gt;Node19 -->
<g id="edge18" class="edge">
<title>Node18&#45;&gt;Node19</title>
<path fill="none" stroke="midnightblue" d="M605.97,-94.98C660.49,-102.42 741.88,-113.52 799.87,-121.43"/>
<polygon fill="midnightblue" stroke="midnightblue" points="606.16,-91.47 595.78,-93.59 605.22,-98.41 606.16,-91.47"/>
</g>
<!-- Node20 -->
<g id="node20" class="node">
<title>Node20</title>
<g id="a_node20"><a xlink:href="classOpenCASCADE_1_1NormalProjectionManifold.html" target="_top" xlink:title=" ">
<polygon fill="white" stroke="black" points="786,-61 786,-91 956,-91 956,-61 786,-61"/>
<text text-anchor="start" x="794" y="-79" font-family="Helvetica,sans-Serif" font-size="10.00">OpenCASCADE::NormalProjection</text>
<text text-anchor="middle" x="871" y="-68" font-family="Helvetica,sans-Serif" font-size="10.00">Manifold&lt; dim, spacedim &gt;</text>
</a>
</g>
</g>
<!-- Node18&#45;&gt;Node20 -->
<g id="edge19" class="edge">
<title>Node18&#45;&gt;Node20</title>
<path fill="none" stroke="midnightblue" d="M605.83,-85.01C656.12,-83.3 729.33,-80.8 785.94,-78.87"/>
<polygon fill="midnightblue" stroke="midnightblue" points="605.66,-81.51 595.78,-85.35 605.9,-88.51 605.66,-81.51"/>
</g>
<!-- Node21 -->
<g id="node21" class="node">
<title>Node21</title>
<g id="a_node21"><a xlink:href="classOpenCASCADE_1_1NormalToMeshProjectionManifold.html" target="_top" xlink:title=" ">
<polygon fill="white" stroke="black" points="790.5,-0.5 790.5,-41.5 951.5,-41.5 951.5,-0.5 790.5,-0.5"/>
<text text-anchor="start" x="798.5" y="-29.5" font-family="Helvetica,sans-Serif" font-size="10.00">OpenCASCADE::NormalToMesh</text>
<text text-anchor="start" x="798.5" y="-18.5" font-family="Helvetica,sans-Serif" font-size="10.00">ProjectionManifold&lt; dim,</text>
<text text-anchor="middle" x="871" y="-7.5" font-family="Helvetica,sans-Serif" font-size="10.00"> spacedim &gt;</text>
</a>
</g>
</g>
<!-- Node18&#45;&gt;Node21 -->
<g id="edge20" class="edge">
<title>Node18&#45;&gt;Node21</title>
<path fill="none" stroke="midnightblue" d="M605.77,-75.08C657.37,-64.52 733.16,-49 790.35,-37.3"/>
<polygon fill="midnightblue" stroke="midnightblue" points="604.88,-71.69 595.78,-77.12 606.28,-78.54 604.88,-71.69"/>
</g>
<!-- Node23&#45;&gt;Node18 -->
<g id="edge30" class="edge">
<title>Node23&#45;&gt;Node18</title>
<path fill="none" stroke="midnightblue" d="M403.52,-250.68C434.16,-215.36 503.38,-135.55 532.36,-102.15"/>
<polygon fill="midnightblue" stroke="midnightblue" points="400.85,-248.42 396.94,-258.27 406.14,-253.01 400.85,-248.42"/>
</g>
<!-- Node24 -->
<g id="node24" class="node">
<title>Node24</title>
<g id="a_node24"><a xlink:href="classChartManifold.html" target="_top" xlink:title=" ">
<polygon fill="white" stroke="black" points="489.5,-341 489.5,-371 603.5,-371 603.5,-341 489.5,-341"/>
<text text-anchor="start" x="497.5" y="-359" font-family="Helvetica,sans-Serif" font-size="10.00">ChartManifold&lt; dim,</text>
<text text-anchor="middle" x="546.5" y="-348" font-family="Helvetica,sans-Serif" font-size="10.00"> spacedim, chartdim &gt;</text>
</a>
</g>
</g>
<!-- Node23&#45;&gt;Node24 -->
<g id="edge23" class="edge">
<title>Node23&#45;&gt;Node24</title>
<path fill="none" stroke="midnightblue" d="M414.64,-282.65C443.39,-298.77 489.36,-324.53 518.46,-340.84"/>
<polygon fill="midnightblue" stroke="midnightblue" points="416.04,-279.42 405.6,-277.59 412.61,-285.53 416.04,-279.42"/>
</g>
<!-- Node25 -->
<g id="node25" class="node">
<title>Node25</title>
<g id="a_node25"><a xlink:href="classSphericalManifold.html" target="_top" xlink:title=" ">
<polygon fill="white" stroke="black" points="496.5,-253 496.5,-283 596.5,-283 596.5,-253 496.5,-253"/>
<text text-anchor="start" x="504.5" y="-271" font-family="Helvetica,sans-Serif" font-size="10.00">SphericalManifold&lt;</text>
<text text-anchor="middle" x="546.5" y="-260" font-family="Helvetica,sans-Serif" font-size="10.00"> dim, spacedim &gt;</text>
</a>
</g>
</g>
<!-- Node23&#45;&gt;Node25 -->
<g id="edge31" class="edge">
<title>Node23&#45;&gt;Node25</title>
<path fill="none" stroke="midnightblue" d="M452.15,-268C466.9,-268 482.36,-268 496.37,-268"/>
<polygon fill="midnightblue" stroke="midnightblue" points="452.09,-264.5 442.09,-268 452.09,-271.5 452.09,-264.5"/>
</g>
<!-- Node26 -->
<g id="node26" class="node">
<title>Node26</title>
<g id="a_node26"><a xlink:href="classTransfiniteInterpolationManifold.html" target="_top" xlink:title=" ">
<polygon fill="white" stroke="black" points="479,-204 479,-234 614,-234 614,-204 479,-204"/>
<text text-anchor="start" x="487" y="-222" font-family="Helvetica,sans-Serif" font-size="10.00">TransfiniteInterpolation</text>
<text text-anchor="middle" x="546.5" y="-211" font-family="Helvetica,sans-Serif" font-size="10.00">Manifold&lt; dim, spacedim &gt;</text>
</a>
</g>
</g>
<!-- Node23&#45;&gt;Node26 -->
<g id="edge32" class="edge">
<title>Node23&#45;&gt;Node26</title>
<path fill="none" stroke="midnightblue" d="M428.97,-255.37C449.84,-248.86 475.44,-240.87 497.32,-234.04"/>
<polygon fill="midnightblue" stroke="midnightblue" points="427.65,-252.12 419.14,-258.44 429.73,-258.8 427.65,-252.12"/>
</g>
<!-- Node24&#45;&gt;Node3 -->
<g id="edge24" class="edge">
<title>Node24&#45;&gt;Node3</title>
<path fill="none" stroke="orange" stroke-dasharray="5,2" d="M563.98,-379.16C579.38,-399.16 604.15,-427.38 632,-444 663.34,-462.71 758.26,-485.72 818.33,-499.04"/>
<polygon fill="orange" stroke="orange" points="566.77,-377.05 557.97,-371.15 561.17,-381.25 566.77,-377.05"/>
<text text-anchor="middle" x="700" y="-488" font-family="Helvetica,sans-Serif" font-size="10.00"> &lt; dim, spacedim, 2 &gt;</text>
</g>
<!-- Node24&#45;&gt;Node5 -->
<g id="edge25" class="edge">
<title>Node24&#45;&gt;Node5</title>
<path fill="none" stroke="orange" stroke-dasharray="5,2" d="M591.66,-374.93C604.55,-380.14 618.73,-385.57 632,-390 695.3,-411.16 769.84,-430.3 818.4,-442.02"/>
<polygon fill="orange" stroke="orange" points="592.68,-371.56 582.1,-371.01 590.02,-378.04 592.68,-371.56"/>
<text text-anchor="middle" x="700" y="-432" font-family="Helvetica,sans-Serif" font-size="10.00"> &lt; dim, spacedim, 1 &gt;</text>
</g>
<!-- Node24&#45;&gt;Node7 -->
<g id="edge26" class="edge">
<title>Node24&#45;&gt;Node7</title>
<path fill="none" stroke="orange" stroke-dasharray="5,2" d="M579.97,-335.57C595.54,-326 614.56,-314.6 632,-305 704.23,-265.22 791.45,-223.06 837.63,-201.18"/>
<polygon fill="orange" stroke="orange" points="577.9,-332.74 571.24,-340.98 581.59,-338.69 577.9,-332.74"/>
<text text-anchor="middle" x="700" y="-308" font-family="Helvetica,sans-Serif" font-size="10.00"> &lt; dim, dim, 3 &gt;</text>
</g>
<!-- Node24&#45;&gt;Node9 -->
<g id="edge27" class="edge">
<title>Node24&#45;&gt;Node9</title>
<path fill="none" stroke="orange" stroke-dasharray="5,2" d="M613.87,-345.8C657.76,-338.75 716.49,-328.74 768,-318 784.42,-314.58 802.21,-310.39 818.27,-306.42"/>
<polygon fill="orange" stroke="orange" points="613.22,-342.36 603.89,-347.39 614.32,-349.27 613.22,-342.36"/>
<text text-anchor="middle" x="700" y="-344" font-family="Helvetica,sans-Serif" font-size="10.00"> &lt; dim, dim, dim &gt;</text>
</g>
<!-- Node24&#45;&gt;Node14 -->
<g id="edge28" class="edge">
<title>Node24&#45;&gt;Node14</title>
<path fill="none" stroke="orange" stroke-dasharray="5,2" d="M613.52,-359.02C657.51,-361.69 716.47,-366.52 768,-375 784.55,-377.72 802.38,-381.72 818.43,-385.72"/>
<polygon fill="orange" stroke="orange" points="613.72,-355.53 603.53,-358.44 613.31,-362.51 613.72,-355.53"/>
<text text-anchor="middle" x="700" y="-378" font-family="Helvetica,sans-Serif" font-size="10.00"> &lt; dim, 3, 3 &gt;</text>
</g>
<!-- Node24&#45;&gt;Node16 -->
<g id="edge29" class="edge">
<title>Node24&#45;&gt;Node16</title>
<path fill="none" stroke="orange" stroke-dasharray="5,2" d="M555.67,-380.51C567.54,-412.48 592.55,-468.08 632,-500 645.5,-510.92 734.56,-538.9 799.79,-558.44"/>
<polygon fill="orange" stroke="orange" points="558.94,-379.26 552.28,-371.02 552.35,-381.62 558.94,-379.26"/>
<text text-anchor="start" x="632" y="-562" font-family="Helvetica,sans-Serif" font-size="10.00"> &lt; dim, spacedim_A+spacedim</text>
<text text-anchor="middle" x="700" y="-551" font-family="Helvetica,sans-Serif" font-size="10.00">_B, chartdim_A+chartdim_B &gt;</text>
</g>
</g>
</svg>
