<?xml version="1.0" encoding="UTF-8" standalone="no"?>
<!DOCTYPE svg PUBLIC "-//W3C//DTD SVG 1.1//EN"
 "http://www.w3.org/Graphics/SVG/1.1/DTD/svg11.dtd">
<!-- Generated by graphviz version 2.47.1 (20210417.1919)
 -->
<!-- Title: SolverBase&lt; VectorType &gt; Pages: 1 -->
<svg width="959pt" height="719pt"
 viewBox="0.00 0.00 959.00 718.64" xmlns="http://www.w3.org/2000/svg" xmlns:xlink="http://www.w3.org/1999/xlink">
<g id="graph0" class="graph" transform="scale(1 1) rotate(0) translate(4 714.64)">
<title>SolverBase&lt; VectorType &gt;</title>
<polygon fill="white" stroke="transparent" points="-4,4 -4,-714.64 955,-714.64 955,4 -4,4"/>
<!-- Node1 -->
<g id="node1" class="node">
<title>Node1</title>
<g id="a_node1"><a xlink:title=" ">
<polygon fill="#bfbfbf" stroke="black" points="103,-356.8 103,-375.8 237,-375.8 237,-356.8 103,-356.8"/>
<text text-anchor="middle" x="170" y="-363.8" font-family="Helvetica,sans-Serif" font-size="10.00">SolverBase&lt; VectorType &gt;</text>
</a>
</g>
</g>
<!-- Node1&#45;&gt;Node1 -->
<g id="edge2" class="edge">
<title>Node1&#45;&gt;Node1</title>
<path fill="none" stroke="orange" stroke-dasharray="5,2" d="M162.27,-386.07C162.87,-390.8 165.45,-394.3 170,-394.3 177.46,-394.3 179.62,-384.86 176.47,-376.06"/>
<polygon fill="orange" stroke="orange" points="165.75,-386.42 163.53,-376.06 158.8,-385.54 165.75,-386.42"/>
<text text-anchor="middle" x="170" y="-397.3" font-family="Helvetica,sans-Serif" font-size="10.00"> &lt; VectorType &gt;</text>
</g>
<!-- Node1&#45;&gt;Node1 -->
<g id="edge28" class="edge">
<title>Node1&#45;&gt;Node1</title>
<path fill="none" stroke="orange" stroke-dasharray="5,2" d="M155.87,-385.44C151.43,-398.93 156.14,-412.3 170,-412.3 187.06,-412.3 190.26,-392.05 179.6,-376.24"/>
<polygon fill="orange" stroke="orange" points="159.12,-386.76 160.4,-376.24 152.84,-383.66 159.12,-386.76"/>
<text text-anchor="middle" x="170" y="-415.3" font-family="Helvetica,sans-Serif" font-size="10.00"> &lt; VectorType &gt;</text>
</g>
<!-- Node3 -->
<g id="node3" class="node">
<title>Node3</title>
<g id="a_node3"><a xlink:href="classSolverBase.html" target="_top" xlink:title=" ">
<polygon fill="white" stroke="black" points="370,-351.3 370,-381.3 474,-381.3 474,-351.3 370,-351.3"/>
<text text-anchor="start" x="378" y="-369.3" font-family="Helvetica,sans-Serif" font-size="10.00">SolverBase&lt; Vector</text>
<text text-anchor="middle" x="422" y="-358.3" font-family="Helvetica,sans-Serif" font-size="10.00">&lt; double &gt; &gt;</text>
</a>
</g>
</g>
<!-- Node1&#45;&gt;Node3 -->
<g id="edge3" class="edge">
<title>Node1&#45;&gt;Node3</title>
<path fill="none" stroke="orange" stroke-dasharray="5,2" d="M247.19,-366.3C286.89,-366.3 334.39,-366.3 369.69,-366.3"/>
<polygon fill="orange" stroke="orange" points="247.01,-362.8 237.01,-366.3 247.01,-369.8 247.01,-362.8"/>
<text text-anchor="middle" x="303.5" y="-369.3" font-family="Helvetica,sans-Serif" font-size="10.00"> &lt; Vector&lt; double &gt; &gt;</text>
</g>
<!-- Node2 -->
<g id="node2" class="node">
<title>Node2</title>
<g id="a_node2"><a xlink:href="classSubscriptor.html" target="_top" xlink:title=" ">
<polygon fill="white" stroke="black" points="0,-356.8 0,-375.8 66,-375.8 66,-356.8 0,-356.8"/>
<text text-anchor="middle" x="33" y="-363.8" font-family="Helvetica,sans-Serif" font-size="10.00">Subscriptor</text>
</a>
</g>
</g>
<!-- Node2&#45;&gt;Node1 -->
<g id="edge1" class="edge">
<title>Node2&#45;&gt;Node1</title>
<path fill="none" stroke="midnightblue" d="M76.54,-366.3C84.89,-366.3 93.82,-366.3 102.73,-366.3"/>
<polygon fill="midnightblue" stroke="midnightblue" points="76.34,-362.8 66.34,-366.3 76.34,-369.8 76.34,-362.8"/>
</g>
<!-- Node4 -->
<g id="node4" class="node">
<title>Node4</title>
<g id="a_node4"><a xlink:href="classSolverBicgstab.html" target="_top" xlink:title=" ">
<polygon fill="white" stroke="black" points="815,-648.3 815,-678.3 935,-678.3 935,-648.3 815,-648.3"/>
<text text-anchor="start" x="823" y="-666.3" font-family="Helvetica,sans-Serif" font-size="10.00">SolverBicgstab&lt; Vector</text>
<text text-anchor="middle" x="875" y="-655.3" font-family="Helvetica,sans-Serif" font-size="10.00">&lt; double &gt; &gt;</text>
</a>
</g>
</g>
<!-- Node3&#45;&gt;Node4 -->
<g id="edge4" class="edge">
<title>Node3&#45;&gt;Node4</title>
<path fill="none" stroke="midnightblue" d="M426.3,-391.37C435.64,-458.08 464.68,-637.09 511,-670.3 608.34,-740.08 761.14,-702.42 833.47,-678.37"/>
<polygon fill="midnightblue" stroke="midnightblue" points="429.74,-390.75 424.92,-381.32 422.81,-391.7 429.74,-390.75"/>
</g>
<!-- Node5 -->
<g id="node5" class="node">
<title>Node5</title>
<g id="a_node5"><a xlink:href="classSolverCG.html" target="_top" xlink:title=" ">
<polygon fill="white" stroke="black" points="799,-596.8 799,-615.8 951,-615.8 951,-596.8 799,-596.8"/>
<text text-anchor="middle" x="875" y="-603.8" font-family="Helvetica,sans-Serif" font-size="10.00">SolverCG&lt; Vector&lt; double &gt; &gt;</text>
</a>
</g>
</g>
<!-- Node3&#45;&gt;Node5 -->
<g id="edge5" class="edge">
<title>Node3&#45;&gt;Node5</title>
<path fill="none" stroke="midnightblue" d="M426.85,-391.55C434.62,-432.71 456.32,-513.37 511,-550.3 556.71,-581.17 706.41,-595.89 798.68,-602.19"/>
<polygon fill="midnightblue" stroke="midnightblue" points="430.27,-390.76 425.09,-381.52 423.38,-391.97 430.27,-390.76"/>
</g>
<!-- Node6 -->
<g id="node6" class="node">
<title>Node6</title>
<g id="a_node6"><a xlink:href="classSolverFGMRES.html" target="_top" xlink:title=" ">
<polygon fill="white" stroke="black" points="812.5,-503.3 812.5,-533.3 937.5,-533.3 937.5,-503.3 812.5,-503.3"/>
<text text-anchor="start" x="820.5" y="-521.3" font-family="Helvetica,sans-Serif" font-size="10.00">SolverFGMRES&lt; Vector</text>
<text text-anchor="middle" x="875" y="-510.3" font-family="Helvetica,sans-Serif" font-size="10.00">&lt; double &gt; &gt;</text>
</a>
</g>
</g>
<!-- Node3&#45;&gt;Node6 -->
<g id="edge6" class="edge">
<title>Node3&#45;&gt;Node6</title>
<path fill="none" stroke="midnightblue" d="M429.29,-391.44C439.65,-426.87 464,-490.29 511,-518.3 608.99,-576.7 749.88,-552.52 824.02,-533.34"/>
<polygon fill="midnightblue" stroke="midnightblue" points="432.56,-390.11 426.52,-381.41 425.81,-391.98 432.56,-390.11"/>
</g>
<!-- Node7 -->
<g id="node7" class="node">
<title>Node7</title>
<g id="a_node7"><a xlink:href="classSolverGMRES.html" target="_top" xlink:title=" ">
<polygon fill="white" stroke="black" points="815.5,-349.3 815.5,-379.3 934.5,-379.3 934.5,-349.3 815.5,-349.3"/>
<text text-anchor="start" x="823.5" y="-367.3" font-family="Helvetica,sans-Serif" font-size="10.00">SolverGMRES&lt; Vector</text>
<text text-anchor="middle" x="875" y="-356.3" font-family="Helvetica,sans-Serif" font-size="10.00">&lt; double &gt; &gt;</text>
</a>
</g>
</g>
<!-- Node3&#45;&gt;Node7 -->
<g id="edge7" class="edge">
<title>Node3&#45;&gt;Node7</title>
<path fill="none" stroke="midnightblue" d="M484.56,-366.03C571.65,-365.64 729.75,-364.94 815.28,-364.56"/>
<polygon fill="midnightblue" stroke="midnightblue" points="484.28,-362.53 474.3,-366.07 484.31,-369.53 484.28,-362.53"/>
</g>
<!-- Node8 -->
<g id="node8" class="node">
<title>Node8</title>
<g id="a_node8"><a xlink:href="classSolverMinRes.html" target="_top" xlink:title=" ">
<polygon fill="white" stroke="black" points="817,-281.3 817,-311.3 933,-311.3 933,-281.3 817,-281.3"/>
<text text-anchor="start" x="825" y="-299.3" font-family="Helvetica,sans-Serif" font-size="10.00">SolverMinRes&lt; Vector</text>
<text text-anchor="middle" x="875" y="-288.3" font-family="Helvetica,sans-Serif" font-size="10.00">&lt; double &gt; &gt;</text>
</a>
</g>
</g>
<!-- Node3&#45;&gt;Node8 -->
<g id="edge8" class="edge">
<title>Node3&#45;&gt;Node8</title>
<path fill="none" stroke="midnightblue" d="M484.35,-356.78C571.9,-343.19 731.49,-318.42 816.73,-305.19"/>
<polygon fill="midnightblue" stroke="midnightblue" points="483.64,-353.35 474.3,-358.34 484.71,-360.26 483.64,-353.35"/>
</g>
<!-- Node9 -->
<g id="node9" class="node">
<title>Node9</title>
<g id="a_node9"><a xlink:href="classSolverRichardson.html" target="_top" xlink:title=" ">
<polygon fill="white" stroke="black" points="809.5,-45.3 809.5,-75.3 940.5,-75.3 940.5,-45.3 809.5,-45.3"/>
<text text-anchor="start" x="817.5" y="-63.3" font-family="Helvetica,sans-Serif" font-size="10.00">SolverRichardson&lt; Vector</text>
<text text-anchor="middle" x="875" y="-52.3" font-family="Helvetica,sans-Serif" font-size="10.00">&lt; double &gt; &gt;</text>
</a>
</g>
</g>
<!-- Node3&#45;&gt;Node9 -->
<g id="edge9" class="edge">
<title>Node3&#45;&gt;Node9</title>
<path fill="none" stroke="midnightblue" d="M425.86,-340.77C434.34,-270.24 461.89,-75.42 511,-38.3 610.1,36.6 771.29,-16.62 840.59,-45.27"/>
<polygon fill="midnightblue" stroke="midnightblue" points="422.35,-340.64 424.66,-350.98 429.3,-341.46 422.35,-340.64"/>
</g>
<!-- Node10 -->
<g id="node10" class="node">
<title>Node10</title>
<g id="a_node10"><a xlink:href="classEigenInverse.html" target="_top" xlink:title=" ">
<polygon fill="white" stroke="black" points="518,-451.8 518,-470.8 659,-470.8 659,-451.8 518,-451.8"/>
<text text-anchor="middle" x="588.5" y="-458.8" font-family="Helvetica,sans-Serif" font-size="10.00">EigenInverse&lt; VectorType &gt;</text>
</a>
</g>
</g>
<!-- Node3&#45;&gt;Node10 -->
<g id="edge10" class="edge">
<title>Node3&#45;&gt;Node10</title>
<path fill="none" stroke="#8b1a1a" d="M443.39,-388.94C459.99,-406.03 484.89,-428.77 511,-442.3 518.41,-446.14 526.64,-449.23 534.86,-451.7"/>
<polygon fill="#8b1a1a" stroke="#8b1a1a" points="445.79,-386.38 436.37,-381.54 440.71,-391.2 445.79,-386.38"/>
</g>
<!-- Node11 -->
<g id="node11" class="node">
<title>Node11</title>
<g id="a_node11"><a xlink:href="classEigenPower.html" target="_top" xlink:title=" ">
<polygon fill="white" stroke="black" points="520,-413.8 520,-432.8 657,-432.8 657,-413.8 520,-413.8"/>
<text text-anchor="middle" x="588.5" y="-420.8" font-family="Helvetica,sans-Serif" font-size="10.00">EigenPower&lt; VectorType &gt;</text>
</a>
</g>
</g>
<!-- Node3&#45;&gt;Node11 -->
<g id="edge11" class="edge">
<title>Node3&#45;&gt;Node11</title>
<path fill="none" stroke="#8b1a1a" d="M463.97,-385.65C478.61,-392.12 495.35,-399.02 511,-404.3 521.5,-407.84 533.02,-411.05 543.85,-413.77"/>
<polygon fill="#8b1a1a" stroke="#8b1a1a" points="465.25,-382.39 454.69,-381.48 462.38,-388.77 465.25,-382.39"/>
</g>
<!-- Node12 -->
<g id="node12" class="node">
<title>Node12</title>
<g id="a_node12"><a xlink:href="classSolverBicgstab.html" target="_top" xlink:title=" ">
<polygon fill="white" stroke="black" points="513.5,-641.8 513.5,-660.8 663.5,-660.8 663.5,-641.8 513.5,-641.8"/>
<text text-anchor="middle" x="588.5" y="-648.8" font-family="Helvetica,sans-Serif" font-size="10.00">SolverBicgstab&lt; VectorType &gt;</text>
</a>
</g>
</g>
<!-- Node3&#45;&gt;Node12 -->
<g id="edge12" class="edge">
<title>Node3&#45;&gt;Node12</title>
<path fill="none" stroke="midnightblue" d="M427.75,-391.44C436.67,-435.69 458.13,-529.76 492,-603.3 498.45,-617.29 498.43,-623.38 511,-632.3 516.47,-636.18 522.65,-639.27 529.06,-641.73"/>
<polygon fill="midnightblue" stroke="midnightblue" points="431.17,-390.68 425.8,-381.55 424.3,-392.04 431.17,-390.68"/>
</g>
<!-- Node13 -->
<g id="node13" class="node">
<title>Node13</title>
<g id="a_node13"><a xlink:href="classSolverCG.html" target="_top" xlink:title=" ">
<polygon fill="white" stroke="black" points="525,-603.8 525,-622.8 652,-622.8 652,-603.8 525,-603.8"/>
<text text-anchor="middle" x="588.5" y="-610.8" font-family="Helvetica,sans-Serif" font-size="10.00">SolverCG&lt; VectorType &gt;</text>
</a>
</g>
</g>
<!-- Node3&#45;&gt;Node13 -->
<g id="edge14" class="edge">
<title>Node3&#45;&gt;Node13</title>
<path fill="none" stroke="midnightblue" d="M423.2,-391.37C424.99,-437.48 435.63,-535.88 492,-589.3 501.06,-597.88 512.72,-603.52 524.76,-607.2"/>
<polygon fill="midnightblue" stroke="midnightblue" points="426.7,-391.24 422.92,-381.34 419.7,-391.43 426.7,-391.24"/>
</g>
<!-- Node14 -->
<g id="node14" class="node">
<title>Node14</title>
<g id="a_node14"><a xlink:href="classSolverFGMRES.html" target="_top" xlink:title=" ">
<polygon fill="white" stroke="black" points="511,-489.8 511,-508.8 666,-508.8 666,-489.8 511,-489.8"/>
<text text-anchor="middle" x="588.5" y="-496.8" font-family="Helvetica,sans-Serif" font-size="10.00">SolverFGMRES&lt; VectorType &gt;</text>
</a>
</g>
</g>
<!-- Node3&#45;&gt;Node14 -->
<g id="edge16" class="edge">
<title>Node3&#45;&gt;Node14</title>
<path fill="none" stroke="midnightblue" d="M435.19,-390.41C449.67,-416.58 476.32,-457.66 511,-480.3 516.96,-484.19 523.65,-487.28 530.54,-489.74"/>
<polygon fill="midnightblue" stroke="midnightblue" points="438.22,-388.66 430.41,-381.51 432.05,-391.97 438.22,-388.66"/>
</g>
<!-- Node15 -->
<g id="node15" class="node">
<title>Node15</title>
<g id="a_node15"><a xlink:href="classSolverFIRE.html" target="_top" xlink:title=" ">
<polygon fill="white" stroke="black" points="521,-261.8 521,-280.8 656,-280.8 656,-261.8 521,-261.8"/>
<text text-anchor="middle" x="588.5" y="-268.8" font-family="Helvetica,sans-Serif" font-size="10.00">SolverFIRE&lt; VectorType &gt;</text>
</a>
</g>
</g>
<!-- Node3&#45;&gt;Node15 -->
<g id="edge18" class="edge">
<title>Node3&#45;&gt;Node15</title>
<path fill="none" stroke="midnightblue" d="M440.03,-342.92C452.68,-327.2 471.27,-307.25 492,-295.3 502.96,-288.98 515.56,-284.31 527.94,-280.86"/>
<polygon fill="midnightblue" stroke="midnightblue" points="437.02,-341.09 433.64,-351.13 442.55,-345.39 437.02,-341.09"/>
</g>
<!-- Node16 -->
<g id="node16" class="node">
<title>Node16</title>
<g id="a_node16"><a xlink:href="classSolverGMRES.html" target="_top" xlink:title=" ">
<polygon fill="white" stroke="black" points="514,-375.8 514,-394.8 663,-394.8 663,-375.8 514,-375.8"/>
<text text-anchor="middle" x="588.5" y="-382.8" font-family="Helvetica,sans-Serif" font-size="10.00">SolverGMRES&lt; VectorType &gt;</text>
</a>
</g>
</g>
<!-- Node3&#45;&gt;Node16 -->
<g id="edge19" class="edge">
<title>Node3&#45;&gt;Node16</title>
<path fill="none" stroke="midnightblue" d="M484.36,-373.39C493.93,-374.49 503.92,-375.65 513.74,-376.78"/>
<polygon fill="midnightblue" stroke="midnightblue" points="484.48,-369.88 474.15,-372.21 483.68,-376.83 484.48,-369.88"/>
</g>
<!-- Node17 -->
<g id="node17" class="node">
<title>Node17</title>
<g id="a_node17"><a xlink:href="classSolverIDR.html" target="_top" xlink:title=" ">
<polygon fill="white" stroke="black" points="523.5,-185.8 523.5,-204.8 653.5,-204.8 653.5,-185.8 523.5,-185.8"/>
<text text-anchor="middle" x="588.5" y="-192.8" font-family="Helvetica,sans-Serif" font-size="10.00">SolverIDR&lt; VectorType &gt;</text>
</a>
</g>
</g>
<!-- Node3&#45;&gt;Node17 -->
<g id="edge21" class="edge">
<title>Node3&#45;&gt;Node17</title>
<path fill="none" stroke="midnightblue" d="M430.52,-341.43C442.13,-307.41 467.71,-246.85 511,-214.3 516.14,-210.43 521.97,-207.35 528.07,-204.88"/>
<polygon fill="midnightblue" stroke="midnightblue" points="427.15,-340.49 427.36,-351.08 433.8,-342.67 427.15,-340.49"/>
</g>
<!-- Node18 -->
<g id="node18" class="node">
<title>Node18</title>
<g id="a_node18"><a xlink:href="classSolverMinRes.html" target="_top" xlink:title=" ">
<polygon fill="white" stroke="black" points="515.5,-223.8 515.5,-242.8 661.5,-242.8 661.5,-223.8 515.5,-223.8"/>
<text text-anchor="middle" x="588.5" y="-230.8" font-family="Helvetica,sans-Serif" font-size="10.00">SolverMinRes&lt; VectorType &gt;</text>
</a>
</g>
</g>
<!-- Node3&#45;&gt;Node18 -->
<g id="edge22" class="edge">
<title>Node3&#45;&gt;Node18</title>
<path fill="none" stroke="midnightblue" d="M435.19,-342.19C449.67,-316.02 476.32,-274.94 511,-252.3 516.96,-248.41 523.65,-245.32 530.54,-242.85"/>
<polygon fill="midnightblue" stroke="midnightblue" points="432.05,-340.63 430.41,-351.09 438.22,-343.94 432.05,-340.63"/>
</g>
<!-- Node19 -->
<g id="node19" class="node">
<title>Node19</title>
<g id="a_node19"><a xlink:href="classSolverQMRS.html" target="_top" xlink:title=" ">
<polygon fill="white" stroke="black" points="517.5,-97.8 517.5,-116.8 659.5,-116.8 659.5,-97.8 517.5,-97.8"/>
<text text-anchor="middle" x="588.5" y="-104.8" font-family="Helvetica,sans-Serif" font-size="10.00">SolverQMRS&lt; VectorType &gt;</text>
</a>
</g>
</g>
<!-- Node3&#45;&gt;Node19 -->
<g id="edge24" class="edge">
<title>Node3&#45;&gt;Node19</title>
<path fill="none" stroke="midnightblue" d="M424.69,-341.24C429.37,-292.32 446.82,-183.89 511,-126.3 515.28,-122.46 520.21,-119.37 525.47,-116.89"/>
<polygon fill="midnightblue" stroke="midnightblue" points="421.19,-341 423.83,-351.27 428.17,-341.6 421.19,-341"/>
</g>
<!-- Node20 -->
<g id="node20" class="node">
<title>Node20</title>
<g id="a_node20"><a xlink:href="classSolverRelaxation.html" target="_top" xlink:title=" ">
<polygon fill="white" stroke="black" points="524.5,-48.3 524.5,-78.3 652.5,-78.3 652.5,-48.3 524.5,-48.3"/>
<text text-anchor="start" x="532.5" y="-66.3" font-family="Helvetica,sans-Serif" font-size="10.00">SolverRelaxation&lt; Vector</text>
<text text-anchor="middle" x="588.5" y="-55.3" font-family="Helvetica,sans-Serif" font-size="10.00">Type &gt;</text>
</a>
</g>
</g>
<!-- Node3&#45;&gt;Node20 -->
<g id="edge25" class="edge">
<title>Node3&#45;&gt;Node20</title>
<path fill="none" stroke="midnightblue" d="M423.46,-341.02C425.84,-286.79 439.21,-158.5 511,-88.3 515,-84.39 519.61,-81.1 524.55,-78.31"/>
<polygon fill="midnightblue" stroke="midnightblue" points="419.95,-341.02 423.1,-351.13 426.95,-341.26 419.95,-341.02"/>
</g>
<!-- Node21 -->
<g id="node21" class="node">
<title>Node21</title>
<g id="a_node21"><a xlink:href="classSolverRichardson.html" target="_top" xlink:title=" ">
<polygon fill="white" stroke="black" points="523,-136.3 523,-166.3 654,-166.3 654,-136.3 523,-136.3"/>
<text text-anchor="start" x="531" y="-154.3" font-family="Helvetica,sans-Serif" font-size="10.00">SolverRichardson&lt; Vector</text>
<text text-anchor="middle" x="588.5" y="-143.3" font-family="Helvetica,sans-Serif" font-size="10.00">Type &gt;</text>
</a>
</g>
</g>
<!-- Node3&#45;&gt;Node21 -->
<g id="edge26" class="edge">
<title>Node3&#45;&gt;Node21</title>
<path fill="none" stroke="midnightblue" d="M427.82,-341.45C436.93,-301.06 460.49,-221.18 511,-176.3 515.39,-172.4 520.39,-169.11 525.7,-166.33"/>
<polygon fill="midnightblue" stroke="midnightblue" points="424.39,-340.77 425.71,-351.28 431.23,-342.24 424.39,-340.77"/>
</g>
<!-- Node12&#45;&gt;Node4 -->
<g id="edge13" class="edge">
<title>Node12&#45;&gt;Node4</title>
<path fill="none" stroke="orange" stroke-dasharray="5,2" d="M673.62,-654.85C718.97,-656.76 773.84,-659.07 814.69,-660.8"/>
<polygon fill="orange" stroke="orange" points="673.64,-651.35 663.51,-654.42 673.35,-658.34 673.64,-651.35"/>
<text text-anchor="middle" x="732.5" y="-661.3" font-family="Helvetica,sans-Serif" font-size="10.00"> &lt; Vector&lt; double &gt; &gt;</text>
</g>
<!-- Node13&#45;&gt;Node5 -->
<g id="edge15" class="edge">
<title>Node13&#45;&gt;Node5</title>
<path fill="none" stroke="orange" stroke-dasharray="5,2" d="M662.4,-611.51C704.19,-610.48 756.56,-609.19 798.74,-608.15"/>
<polygon fill="orange" stroke="orange" points="662.2,-608.01 652.29,-611.75 662.37,-615.01 662.2,-608.01"/>
<text text-anchor="middle" x="732.5" y="-613.3" font-family="Helvetica,sans-Serif" font-size="10.00"> &lt; Vector&lt; double &gt; &gt;</text>
</g>
<!-- Node14&#45;&gt;Node6 -->
<g id="edge17" class="edge">
<title>Node14&#45;&gt;Node6</title>
<path fill="none" stroke="orange" stroke-dasharray="5,2" d="M676.21,-505.09C720.08,-508.02 772.32,-511.51 812.09,-514.17"/>
<polygon fill="orange" stroke="orange" points="676.33,-501.59 666.12,-504.42 675.86,-508.57 676.33,-501.59"/>
<text text-anchor="middle" x="732.5" y="-514.3" font-family="Helvetica,sans-Serif" font-size="10.00"> &lt; Vector&lt; double &gt; &gt;</text>
</g>
<!-- Node16&#45;&gt;Node7 -->
<g id="edge20" class="edge">
<title>Node16&#45;&gt;Node7</title>
<path fill="none" stroke="orange" stroke-dasharray="5,2" d="M673.33,-379.11C719.02,-375.74 774.45,-371.65 815.46,-368.62"/>
<polygon fill="orange" stroke="orange" points="672.85,-375.64 663.14,-379.86 673.37,-382.62 672.85,-375.64"/>
<text text-anchor="middle" x="732.5" y="-381.3" font-family="Helvetica,sans-Serif" font-size="10.00"> &lt; Vector&lt; double &gt; &gt;</text>
</g>
<!-- Node18&#45;&gt;Node8 -->
<g id="edge23" class="edge">
<title>Node18&#45;&gt;Node8</title>
<path fill="none" stroke="orange" stroke-dasharray="5,2" d="M642.6,-245.06C692.19,-256.04 765.99,-272.38 816.85,-283.64"/>
<polygon fill="orange" stroke="orange" points="643.23,-241.61 632.71,-242.87 641.72,-248.45 643.23,-241.61"/>
<text text-anchor="middle" x="732.5" y="-277.3" font-family="Helvetica,sans-Serif" font-size="10.00"> &lt; Vector&lt; double &gt; &gt;</text>
</g>
<!-- Node21&#45;&gt;Node9 -->
<g id="edge27" class="edge">
<title>Node21&#45;&gt;Node9</title>
<path fill="none" stroke="orange" stroke-dasharray="5,2" d="M646.07,-133.21C699.04,-116.26 777.3,-91.23 826.95,-75.35"/>
<polygon fill="orange" stroke="orange" points="644.94,-129.89 636.48,-136.27 647.07,-136.56 644.94,-129.89"/>
<text text-anchor="middle" x="732.5" y="-122.3" font-family="Helvetica,sans-Serif" font-size="10.00"> &lt; Vector&lt; double &gt; &gt;</text>
</g>
</g>
</svg>
