<?xml version="1.0" encoding="UTF-8" standalone="no"?>
<!DOCTYPE svg PUBLIC "-//W3C//DTD SVG 1.1//EN"
 "http://www.w3.org/Graphics/SVG/1.1/DTD/svg11.dtd">
<!-- Generated by graphviz version 2.47.1 (20210417.1919)
 -->
<!-- Title: PreconditionBlock&lt; MatrixType, inverse_type &gt; Pages: 1 -->
<svg width="1411pt" height="190pt"
 viewBox="0.00 0.00 1411.00 190.00" xmlns="http://www.w3.org/2000/svg" xmlns:xlink="http://www.w3.org/1999/xlink">
<g id="graph0" class="graph" transform="scale(1 1) rotate(0) translate(4 186)">
<title>PreconditionBlock&lt; MatrixType, inverse_type &gt;</title>
<polygon fill="white" stroke="transparent" points="-4,4 -4,-186 1407,-186 1407,4 -4,4"/>
<!-- Node1 -->
<g id="node1" class="node">
<title>Node1</title>
<g id="a_node1"><a xlink:title=" ">
<polygon fill="#bfbfbf" stroke="black" points="416,-60.5 416,-101.5 521,-101.5 521,-60.5 416,-60.5"/>
<text text-anchor="start" x="424" y="-89.5" font-family="Helvetica,sans-Serif" font-size="10.00">PreconditionBlock&lt;</text>
<text text-anchor="start" x="424" y="-78.5" font-family="Helvetica,sans-Serif" font-size="10.00"> MatrixType, inverse</text>
<text text-anchor="middle" x="468.5" y="-67.5" font-family="Helvetica,sans-Serif" font-size="10.00">_type &gt;</text>
</a>
</g>
</g>
<!-- Node1&#45;&gt;Node1 -->
<g id="edge4" class="edge">
<title>Node1&#45;&gt;Node1</title>
<path fill="none" stroke="orange" stroke-dasharray="5,2" d="M462.48,-111.86C463.37,-116.7 465.38,-120 468.5,-120 473.49,-120 475.63,-111.54 474.93,-101.86"/>
<polygon fill="orange" stroke="orange" points="465.98,-111.71 462.07,-101.86 458.98,-112 465.98,-111.71"/>
<text text-anchor="start" x="419.5" y="-134" font-family="Helvetica,sans-Serif" font-size="10.00"> &lt; MatrixType, inverse</text>
<text text-anchor="middle" x="468.5" y="-123" font-family="Helvetica,sans-Serif" font-size="10.00">_type &gt;</text>
</g>
<!-- Node1&#45;&gt;Node1 -->
<g id="edge5" class="edge">
<title>Node1&#45;&gt;Node1</title>
<path fill="none" stroke="orange" stroke-dasharray="5,2" d="M455.79,-111.59C453.96,-127.44 458.2,-142 468.5,-142 480.94,-142 484.54,-120.77 479.29,-101.67"/>
<polygon fill="orange" stroke="orange" points="459.24,-112.16 457.71,-101.67 452.37,-110.82 459.24,-112.16"/>
<text text-anchor="start" x="419.5" y="-156" font-family="Helvetica,sans-Serif" font-size="10.00"> &lt; MatrixType, inverse</text>
<text text-anchor="middle" x="468.5" y="-145" font-family="Helvetica,sans-Serif" font-size="10.00">_type &gt;</text>
</g>
<!-- Node5 -->
<g id="node5" class="node">
<title>Node5</title>
<g id="a_node5"><a xlink:href="classPreconditionBlock.html" target="_top" xlink:title=" ">
<polygon fill="white" stroke="black" points="671,-60.5 671,-101.5 801,-101.5 801,-60.5 671,-60.5"/>
<text text-anchor="start" x="679" y="-89.5" font-family="Helvetica,sans-Serif" font-size="10.00">PreconditionBlock&lt;</text>
<text text-anchor="start" x="679" y="-78.5" font-family="Helvetica,sans-Serif" font-size="10.00"> MatrixType, typename</text>
<text text-anchor="middle" x="736" y="-67.5" font-family="Helvetica,sans-Serif" font-size="10.00"> MatrixType::value_type &gt;</text>
</a>
</g>
</g>
<!-- Node1&#45;&gt;Node5 -->
<g id="edge6" class="edge">
<title>Node1&#45;&gt;Node5</title>
<path fill="none" stroke="orange" stroke-dasharray="5,2" d="M531.1,-81C573.06,-81 628.49,-81 670.97,-81"/>
<polygon fill="orange" stroke="orange" points="531.01,-77.5 521.01,-81 531.01,-84.5 531.01,-77.5"/>
<text text-anchor="start" x="539" y="-95" font-family="Helvetica,sans-Serif" font-size="10.00"> &lt; MatrixType, typename</text>
<text text-anchor="middle" x="596" y="-84" font-family="Helvetica,sans-Serif" font-size="10.00"> MatrixType::value_type &gt;</text>
</g>
<!-- Node2 -->
<g id="node2" class="node">
<title>Node2</title>
<g id="a_node2"><a xlink:href="classSubscriptor.html" target="_top" xlink:title=" ">
<polygon fill="white" stroke="black" points="286.5,-96.5 286.5,-115.5 352.5,-115.5 352.5,-96.5 286.5,-96.5"/>
<text text-anchor="middle" x="319.5" y="-103.5" font-family="Helvetica,sans-Serif" font-size="10.00">Subscriptor</text>
</a>
</g>
</g>
<!-- Node2&#45;&gt;Node1 -->
<g id="edge1" class="edge">
<title>Node2&#45;&gt;Node1</title>
<path fill="none" stroke="midnightblue" d="M362.72,-98.82C379.33,-96 398.55,-92.73 415.96,-89.76"/>
<polygon fill="midnightblue" stroke="midnightblue" points="362.03,-95.39 352.76,-100.51 363.21,-102.29 362.03,-95.39"/>
</g>
<!-- Node3 -->
<g id="node3" class="node">
<title>Node3</title>
<g id="a_node3"><a xlink:href="classPreconditionBlockBase.html" target="_top" xlink:title=" ">
<polygon fill="white" stroke="black" points="260,-36.5 260,-77.5 379,-77.5 379,-36.5 260,-36.5"/>
<text text-anchor="start" x="268" y="-65.5" font-family="Helvetica,sans-Serif" font-size="10.00">PreconditionBlockBase</text>
<text text-anchor="start" x="268" y="-54.5" font-family="Helvetica,sans-Serif" font-size="10.00">&lt; typename MatrixType</text>
<text text-anchor="middle" x="319.5" y="-43.5" font-family="Helvetica,sans-Serif" font-size="10.00">::value_type &gt;</text>
</a>
</g>
</g>
<!-- Node3&#45;&gt;Node1 -->
<g id="edge2" class="edge">
<title>Node3&#45;&gt;Node1</title>
<path fill="none" stroke="darkgreen" d="M389.1,-68.2C398.1,-69.67 407.19,-71.15 415.83,-72.56"/>
<polygon fill="darkgreen" stroke="darkgreen" points="389.45,-64.71 379.02,-66.55 388.33,-71.62 389.45,-64.71"/>
</g>
<!-- Node4 -->
<g id="node4" class="node">
<title>Node4</title>
<g id="a_node4"><a xlink:href="classPreconditionBlockBase.html" target="_top" xlink:title=" ">
<polygon fill="white" stroke="black" points="0,-42 0,-72 118,-72 118,-42 0,-42"/>
<text text-anchor="start" x="8" y="-60" font-family="Helvetica,sans-Serif" font-size="10.00">PreconditionBlockBase</text>
<text text-anchor="middle" x="59" y="-49" font-family="Helvetica,sans-Serif" font-size="10.00">&lt; number &gt;</text>
</a>
</g>
</g>
<!-- Node4&#45;&gt;Node3 -->
<g id="edge3" class="edge">
<title>Node4&#45;&gt;Node3</title>
<path fill="none" stroke="orange" stroke-dasharray="5,2" d="M128.18,-57C169.11,-57 220.66,-57 259.79,-57"/>
<polygon fill="orange" stroke="orange" points="128.01,-53.5 118.01,-57 128.01,-60.5 128.01,-53.5"/>
<text text-anchor="start" x="136" y="-71" font-family="Helvetica,sans-Serif" font-size="10.00"> &lt; typename MatrixType</text>
<text text-anchor="middle" x="189" y="-60" font-family="Helvetica,sans-Serif" font-size="10.00">::value_type &gt;</text>
</g>
<!-- Node6 -->
<g id="node6" class="node">
<title>Node6</title>
<g id="a_node6"><a xlink:href="classPreconditionBlockSOR.html" target="_top" xlink:title=" ">
<polygon fill="white" stroke="black" points="1112,-74.5 1112,-115.5 1242,-115.5 1242,-74.5 1112,-74.5"/>
<text text-anchor="start" x="1120" y="-103.5" font-family="Helvetica,sans-Serif" font-size="10.00">PreconditionBlockSOR</text>
<text text-anchor="start" x="1120" y="-92.5" font-family="Helvetica,sans-Serif" font-size="10.00">&lt; MatrixType, typename</text>
<text text-anchor="middle" x="1177" y="-81.5" font-family="Helvetica,sans-Serif" font-size="10.00"> MatrixType::value_type &gt;</text>
</a>
</g>
</g>
<!-- Node5&#45;&gt;Node6 -->
<g id="edge7" class="edge">
<title>Node5&#45;&gt;Node6</title>
<path fill="none" stroke="darkgreen" d="M766.16,-108.4C785.06,-124.21 811.1,-142.59 838,-151 939.9,-182.86 1065.08,-142.51 1130.79,-115.55"/>
<polygon fill="darkgreen" stroke="darkgreen" points="768.38,-105.69 758.52,-101.82 763.81,-110.99 768.38,-105.69"/>
</g>
<!-- Node8 -->
<g id="node8" class="node">
<title>Node8</title>
<g id="a_node8"><a xlink:href="classPreconditionBlockJacobi.html" target="_top" xlink:title=" ">
<polygon fill="white" stroke="black" points="838,-60.5 838,-101.5 962,-101.5 962,-60.5 838,-60.5"/>
<text text-anchor="start" x="846" y="-89.5" font-family="Helvetica,sans-Serif" font-size="10.00">PreconditionBlockJacobi</text>
<text text-anchor="start" x="846" y="-78.5" font-family="Helvetica,sans-Serif" font-size="10.00">&lt; MatrixType, inverse</text>
<text text-anchor="middle" x="900" y="-67.5" font-family="Helvetica,sans-Serif" font-size="10.00">_type &gt;</text>
</a>
</g>
</g>
<!-- Node5&#45;&gt;Node8 -->
<g id="edge9" class="edge">
<title>Node5&#45;&gt;Node8</title>
<path fill="none" stroke="#8b1a1a" d="M811.06,-81C820.01,-81 829.08,-81 837.82,-81"/>
<polygon fill="#8b1a1a" stroke="#8b1a1a" points="811.03,-77.5 801.03,-81 811.03,-84.5 811.03,-77.5"/>
</g>
<!-- Node9 -->
<g id="node9" class="node">
<title>Node9</title>
<g id="a_node9"><a xlink:href="classPreconditionBlockSOR.html" target="_top" xlink:title=" ">
<polygon fill="white" stroke="black" points="841.5,-0.5 841.5,-41.5 958.5,-41.5 958.5,-0.5 841.5,-0.5"/>
<text text-anchor="start" x="849.5" y="-29.5" font-family="Helvetica,sans-Serif" font-size="10.00">PreconditionBlockSOR</text>
<text text-anchor="start" x="849.5" y="-18.5" font-family="Helvetica,sans-Serif" font-size="10.00">&lt; MatrixType, inverse</text>
<text text-anchor="middle" x="900" y="-7.5" font-family="Helvetica,sans-Serif" font-size="10.00">_type &gt;</text>
</a>
</g>
</g>
<!-- Node5&#45;&gt;Node9 -->
<g id="edge11" class="edge">
<title>Node5&#45;&gt;Node9</title>
<path fill="none" stroke="darkgreen" d="M802.5,-56.74C816.07,-51.71 830.25,-46.46 843.42,-41.58"/>
<polygon fill="darkgreen" stroke="darkgreen" points="800.91,-53.6 792.75,-60.35 803.34,-60.16 800.91,-53.6"/>
</g>
<!-- Node7 -->
<g id="node7" class="node">
<title>Node7</title>
<g id="a_node7"><a xlink:href="classPreconditionBlockSSOR.html" target="_top" xlink:title=" ">
<polygon fill="white" stroke="black" points="1279,-74.5 1279,-115.5 1403,-115.5 1403,-74.5 1279,-74.5"/>
<text text-anchor="start" x="1287" y="-103.5" font-family="Helvetica,sans-Serif" font-size="10.00">PreconditionBlockSSOR</text>
<text text-anchor="start" x="1287" y="-92.5" font-family="Helvetica,sans-Serif" font-size="10.00">&lt; MatrixType, inverse</text>
<text text-anchor="middle" x="1341" y="-81.5" font-family="Helvetica,sans-Serif" font-size="10.00">_type &gt;</text>
</a>
</g>
</g>
<!-- Node6&#45;&gt;Node7 -->
<g id="edge8" class="edge">
<title>Node6&#45;&gt;Node7</title>
<path fill="none" stroke="#8b1a1a" d="M1252.06,-95C1261.01,-95 1270.08,-95 1278.82,-95"/>
<polygon fill="#8b1a1a" stroke="#8b1a1a" points="1252.03,-91.5 1242.03,-95 1252.03,-98.5 1252.03,-91.5"/>
</g>
<!-- Node8&#45;&gt;Node8 -->
<g id="edge10" class="edge">
<title>Node8&#45;&gt;Node8</title>
<path fill="none" stroke="orange" stroke-dasharray="5,2" d="M886.24,-111.86C888.28,-116.7 892.87,-120 900,-120 911.41,-120 916.31,-111.54 914.7,-101.86"/>
<polygon fill="orange" stroke="orange" points="889.72,-111.49 885.3,-101.86 882.75,-112.15 889.72,-111.49"/>
<text text-anchor="start" x="851" y="-134" font-family="Helvetica,sans-Serif" font-size="10.00"> &lt; MatrixType, inverse</text>
<text text-anchor="middle" x="900" y="-123" font-family="Helvetica,sans-Serif" font-size="10.00">_type &gt;</text>
</g>
<!-- Node9&#45;&gt;Node6 -->
<g id="edge12" class="edge">
<title>Node9&#45;&gt;Node6</title>
<path fill="none" stroke="orange" stroke-dasharray="5,2" d="M968.33,-39.12C1012.02,-50.87 1068.62,-66.1 1111.69,-77.7"/>
<polygon fill="orange" stroke="orange" points="969.22,-35.73 958.65,-36.51 967.4,-42.49 969.22,-35.73"/>
<text text-anchor="start" x="980" y="-85" font-family="Helvetica,sans-Serif" font-size="10.00"> &lt; MatrixType, typename</text>
<text text-anchor="middle" x="1037" y="-74" font-family="Helvetica,sans-Serif" font-size="10.00"> MatrixType::value_type &gt;</text>
</g>
</g>
</svg>
