<?xml version="1.0" encoding="UTF-8" standalone="no"?>
<!DOCTYPE svg PUBLIC "-//W3C//DTD SVG 1.1//EN"
 "http://www.w3.org/Graphics/SVG/1.1/DTD/svg11.dtd">
<!-- Generated by graphviz version 2.47.1 (20210417.1919)
 -->
<!-- Title: FE_DGQ&lt; dim, spacedim &gt; Pages: 1 -->
<svg width="1376pt" height="177pt"
 viewBox="0.00 0.00 1376.00 177.00" xmlns="http://www.w3.org/2000/svg" xmlns:xlink="http://www.w3.org/1999/xlink">
<g id="graph0" class="graph" transform="scale(1 1) rotate(0) translate(4 173)">
<title>FE_DGQ&lt; dim, spacedim &gt;</title>
<polygon fill="white" stroke="transparent" points="-4,4 -4,-173 1372,-173 1372,4 -4,4"/>
<!-- Node1 -->
<g id="node1" class="node">
<title>Node1</title>
<g id="a_node1"><a xlink:title=" ">
<polygon fill="#bfbfbf" stroke="black" points="859,-55 859,-74 998,-74 998,-55 859,-55"/>
<text text-anchor="middle" x="928.5" y="-62" font-family="Helvetica,sans-Serif" font-size="10.00">FE_DGQ&lt; dim, spacedim &gt;</text>
</a>
</g>
</g>
<!-- Node8 -->
<g id="node8" class="node">
<title>Node8</title>
<g id="a_node8"><a xlink:href="classFE__DGQ.html" target="_top" xlink:title=" ">
<polygon fill="white" stroke="black" points="1093,-55 1093,-74 1206,-74 1206,-55 1093,-55"/>
<text text-anchor="middle" x="1149.5" y="-62" font-family="Helvetica,sans-Serif" font-size="10.00">FE_DGQ&lt; dim, dim &gt;</text>
</a>
</g>
</g>
<!-- Node1&#45;&gt;Node8 -->
<g id="edge11" class="edge">
<title>Node1&#45;&gt;Node8</title>
<path fill="none" stroke="orange" stroke-dasharray="5,2" d="M1008.36,-64.5C1036.34,-64.5 1067.23,-64.5 1092.87,-64.5"/>
<polygon fill="orange" stroke="orange" points="1008.19,-61 998.19,-64.5 1008.19,-68 1008.19,-61"/>
<text text-anchor="middle" x="1045.5" y="-67.5" font-family="Helvetica,sans-Serif" font-size="10.00"> &lt; dim, dim &gt;</text>
</g>
<!-- Node2 -->
<g id="node2" class="node">
<title>Node2</title>
<g id="a_node2"><a xlink:href="classFE__Poly.html" target="_top" xlink:title=" ">
<polygon fill="white" stroke="black" points="712,-55 712,-74 822,-74 822,-55 712,-55"/>
<text text-anchor="middle" x="767" y="-62" font-family="Helvetica,sans-Serif" font-size="10.00">FE_Poly&lt; dim, dim &gt;</text>
</a>
</g>
</g>
<!-- Node2&#45;&gt;Node1 -->
<g id="edge1" class="edge">
<title>Node2&#45;&gt;Node1</title>
<path fill="none" stroke="midnightblue" d="M832.51,-64.5C841.21,-64.5 850.15,-64.5 858.92,-64.5"/>
<polygon fill="midnightblue" stroke="midnightblue" points="832.44,-61 822.44,-64.5 832.44,-68 832.44,-61"/>
</g>
<!-- Node3 -->
<g id="node3" class="node">
<title>Node3</title>
<g id="a_node3"><a xlink:href="classFiniteElement.html" target="_top" xlink:title=" ">
<polygon fill="white" stroke="black" points="141,-29.5 141,-59.5 245,-59.5 245,-29.5 141,-29.5"/>
<text text-anchor="start" x="149" y="-47.5" font-family="Helvetica,sans-Serif" font-size="10.00">FiniteElement&lt; dim,</text>
<text text-anchor="middle" x="193" y="-36.5" font-family="Helvetica,sans-Serif" font-size="10.00"> spacedim &gt;</text>
</a>
</g>
</g>
<!-- Node3&#45;&gt;Node2 -->
<g id="edge2" class="edge">
<title>Node3&#45;&gt;Node2</title>
<path fill="none" stroke="midnightblue" d="M255.15,-46.64C367.43,-50.56 604.69,-58.86 711.67,-62.6"/>
<polygon fill="midnightblue" stroke="midnightblue" points="255.13,-43.14 245.01,-46.28 254.88,-50.13 255.13,-43.14"/>
</g>
<!-- Node3&#45;&gt;Node3 -->
<g id="edge5" class="edge">
<title>Node3&#45;&gt;Node3</title>
<path fill="none" stroke="orange" stroke-dasharray="5,2" d="M180.56,-69.96C182.11,-74.68 186.25,-78 193,-78 204.07,-78 208.14,-69.06 205.2,-59.66"/>
<polygon fill="orange" stroke="orange" points="184.07,-69.74 180.8,-59.66 177.07,-69.57 184.07,-69.74"/>
<text text-anchor="middle" x="193" y="-81" font-family="Helvetica,sans-Serif" font-size="10.00"> &lt; dim, spacedim &gt;</text>
</g>
<!-- Node7 -->
<g id="node7" class="node">
<title>Node7</title>
<g id="a_node7"><a xlink:href="classFiniteElement.html" target="_top" xlink:title=" ">
<polygon fill="white" stroke="black" points="340,-84.5 340,-114.5 444,-114.5 444,-84.5 340,-84.5"/>
<text text-anchor="start" x="348" y="-102.5" font-family="Helvetica,sans-Serif" font-size="10.00">FiniteElement&lt; dim,</text>
<text text-anchor="middle" x="392" y="-91.5" font-family="Helvetica,sans-Serif" font-size="10.00"> dim &gt;</text>
</a>
</g>
</g>
<!-- Node3&#45;&gt;Node7 -->
<g id="edge10" class="edge">
<title>Node3&#45;&gt;Node7</title>
<path fill="none" stroke="orange" stroke-dasharray="5,2" d="M255.02,-61.54C282.16,-69.11 313.77,-77.94 339.67,-85.17"/>
<polygon fill="orange" stroke="orange" points="255.82,-58.13 245.25,-58.81 253.94,-64.87 255.82,-58.13"/>
<text text-anchor="middle" x="292.5" y="-83.5" font-family="Helvetica,sans-Serif" font-size="10.00"> &lt; dim, dim &gt;</text>
</g>
<!-- Node4 -->
<g id="node4" class="node">
<title>Node4</title>
<g id="a_node4"><a xlink:href="classSubscriptor.html" target="_top" xlink:title=" ">
<polygon fill="white" stroke="black" points="19,-97 19,-116 85,-116 85,-97 19,-97"/>
<text text-anchor="middle" x="52" y="-104" font-family="Helvetica,sans-Serif" font-size="10.00">Subscriptor</text>
</a>
</g>
</g>
<!-- Node4&#45;&gt;Node3 -->
<g id="edge3" class="edge">
<title>Node4&#45;&gt;Node3</title>
<path fill="none" stroke="midnightblue" d="M83.64,-92.83C105.67,-83.01 135.37,-69.76 158.11,-59.62"/>
<polygon fill="midnightblue" stroke="midnightblue" points="82.12,-89.68 74.41,-96.95 84.97,-96.07 82.12,-89.68"/>
</g>
<!-- Node4&#45;&gt;Node7 -->
<g id="edge8" class="edge">
<title>Node4&#45;&gt;Node7</title>
<path fill="none" stroke="midnightblue" d="M95.32,-105.62C157.38,-104.34 272.96,-101.94 339.75,-100.56"/>
<polygon fill="midnightblue" stroke="midnightblue" points="95.03,-102.13 85.1,-105.84 95.17,-109.13 95.03,-102.13"/>
</g>
<!-- Node5 -->
<g id="node5" class="node">
<title>Node5</title>
<g id="a_node5"><a xlink:href="classFiniteElementData.html" target="_top" xlink:title=" ">
<polygon fill="white" stroke="black" points="0,-138.5 0,-168.5 104,-168.5 104,-138.5 0,-138.5"/>
<text text-anchor="start" x="8" y="-156.5" font-family="Helvetica,sans-Serif" font-size="10.00">FiniteElementData&lt;</text>
<text text-anchor="middle" x="52" y="-145.5" font-family="Helvetica,sans-Serif" font-size="10.00"> dim &gt;</text>
</a>
</g>
</g>
<!-- Node5&#45;&gt;Node3 -->
<g id="edge4" class="edge">
<title>Node5&#45;&gt;Node3</title>
<path fill="none" stroke="midnightblue" d="M92.28,-133.21C96.32,-130.75 100.3,-128.16 104,-125.5 132.16,-105.27 161.03,-76.96 177.7,-59.73"/>
<polygon fill="midnightblue" stroke="midnightblue" points="90.28,-130.32 83.4,-138.38 93.8,-136.37 90.28,-130.32"/>
</g>
<!-- Node5&#45;&gt;Node7 -->
<g id="edge9" class="edge">
<title>Node5&#45;&gt;Node7</title>
<path fill="none" stroke="midnightblue" d="M114.26,-146.4C168.94,-139.69 251.11,-128.7 322,-115.5 327.8,-114.42 333.86,-113.18 339.86,-111.88"/>
<polygon fill="midnightblue" stroke="midnightblue" points="113.54,-142.96 104.04,-147.64 114.38,-149.91 113.54,-142.96"/>
</g>
<!-- Node6 -->
<g id="node6" class="node">
<title>Node6</title>
<g id="a_node6"><a xlink:href="classFE__Poly.html" target="_top" xlink:title=" ">
<polygon fill="white" stroke="black" points="481,-80 481,-99 617,-99 617,-80 481,-80"/>
<text text-anchor="middle" x="549" y="-87" font-family="Helvetica,sans-Serif" font-size="10.00">FE_Poly&lt; dim, spacedim &gt;</text>
</a>
</g>
</g>
<!-- Node6&#45;&gt;Node2 -->
<g id="edge6" class="edge">
<title>Node6&#45;&gt;Node2</title>
<path fill="none" stroke="orange" stroke-dasharray="5,2" d="M627.32,-80.55C655.32,-77.31 686.32,-73.72 711.89,-70.76"/>
<polygon fill="orange" stroke="orange" points="626.69,-77.1 617.16,-81.73 627.5,-84.05 626.69,-77.1"/>
<text text-anchor="middle" x="664.5" y="-82.5" font-family="Helvetica,sans-Serif" font-size="10.00"> &lt; dim, dim &gt;</text>
</g>
<!-- Node7&#45;&gt;Node6 -->
<g id="edge7" class="edge">
<title>Node7&#45;&gt;Node6</title>
<path fill="none" stroke="midnightblue" d="M454.27,-95.55C462.99,-94.98 472.01,-94.4 480.84,-93.83"/>
<polygon fill="midnightblue" stroke="midnightblue" points="453.94,-92.06 444.18,-96.2 454.39,-99.05 453.94,-92.06"/>
</g>
<!-- Node9 -->
<g id="node9" class="node">
<title>Node9</title>
<g id="a_node9"><a xlink:href="classFE__DGQArbitraryNodes.html" target="_top" xlink:title=" ">
<polygon fill="white" stroke="black" points="1244.5,-98.5 1244.5,-128.5 1366.5,-128.5 1366.5,-98.5 1244.5,-98.5"/>
<text text-anchor="start" x="1252.5" y="-116.5" font-family="Helvetica,sans-Serif" font-size="10.00">FE_DGQArbitraryNodes</text>
<text text-anchor="middle" x="1305.5" y="-105.5" font-family="Helvetica,sans-Serif" font-size="10.00">&lt; dim, spacedim &gt;</text>
</a>
</g>
</g>
<!-- Node8&#45;&gt;Node9 -->
<g id="edge12" class="edge">
<title>Node8&#45;&gt;Node9</title>
<path fill="none" stroke="midnightblue" d="M1190.2,-77.13C1210.67,-83.64 1235.78,-91.63 1257.24,-98.46"/>
<polygon fill="midnightblue" stroke="midnightblue" points="1191.15,-73.76 1180.56,-74.06 1189.03,-80.43 1191.15,-73.76"/>
</g>
<!-- Node10 -->
<g id="node10" class="node">
<title>Node10</title>
<g id="a_node10"><a xlink:href="classFE__DGQHermite.html" target="_top" xlink:title=" ">
<polygon fill="white" stroke="black" points="1246,-49.5 1246,-79.5 1365,-79.5 1365,-49.5 1246,-49.5"/>
<text text-anchor="start" x="1254" y="-67.5" font-family="Helvetica,sans-Serif" font-size="10.00">FE_DGQHermite&lt; dim,</text>
<text text-anchor="middle" x="1305.5" y="-56.5" font-family="Helvetica,sans-Serif" font-size="10.00"> spacedim &gt;</text>
</a>
</g>
</g>
<!-- Node8&#45;&gt;Node10 -->
<g id="edge13" class="edge">
<title>Node8&#45;&gt;Node10</title>
<path fill="none" stroke="midnightblue" d="M1216.24,-64.5C1226.09,-64.5 1236.18,-64.5 1245.87,-64.5"/>
<polygon fill="midnightblue" stroke="midnightblue" points="1216.1,-61 1206.1,-64.5 1216.1,-68 1216.1,-61"/>
</g>
<!-- Node11 -->
<g id="node11" class="node">
<title>Node11</title>
<g id="a_node11"><a xlink:href="classFE__DGQLegendre.html" target="_top" xlink:title=" ">
<polygon fill="white" stroke="black" points="1243,-0.5 1243,-30.5 1368,-30.5 1368,-0.5 1243,-0.5"/>
<text text-anchor="start" x="1251" y="-18.5" font-family="Helvetica,sans-Serif" font-size="10.00">FE_DGQLegendre&lt; dim,</text>
<text text-anchor="middle" x="1305.5" y="-7.5" font-family="Helvetica,sans-Serif" font-size="10.00"> spacedim &gt;</text>
</a>
</g>
</g>
<!-- Node8&#45;&gt;Node11 -->
<g id="edge14" class="edge">
<title>Node8&#45;&gt;Node11</title>
<path fill="none" stroke="midnightblue" d="M1190.2,-51.87C1210.67,-45.36 1235.78,-37.37 1257.24,-30.54"/>
<polygon fill="midnightblue" stroke="midnightblue" points="1189.03,-48.57 1180.56,-54.94 1191.15,-55.24 1189.03,-48.57"/>
</g>
</g>
</svg>
