<?xml version="1.0" encoding="UTF-8" standalone="no"?>
<!DOCTYPE svg PUBLIC "-//W3C//DTD SVG 1.1//EN"
 "http://www.w3.org/Graphics/SVG/1.1/DTD/svg11.dtd">
<!-- Generated by graphviz version 2.47.1 (20210417.1919)
 -->
<!-- Title: SphericalManifold&lt; dim, spacedim &gt; Pages: 1 -->
<svg width="210pt" height="220pt"
 viewBox="0.00 0.00 210.00 220.00" xmlns="http://www.w3.org/2000/svg" xmlns:xlink="http://www.w3.org/1999/xlink">
<g id="graph0" class="graph" transform="scale(1 1) rotate(0) translate(4 216)">
<title>SphericalManifold&lt; dim, spacedim &gt;</title>
<polygon fill="white" stroke="transparent" points="-4,4 -4,-216 206,-216 206,4 -4,4"/>
<!-- Node1 -->
<g id="node1" class="node">
<title>Node1</title>
<g id="a_node1"><a xlink:title=" ">
<polygon fill="#bfbfbf" stroke="black" points="4.5,-0.5 4.5,-30.5 104.5,-30.5 104.5,-0.5 4.5,-0.5"/>
<text text-anchor="start" x="12.5" y="-18.5" font-family="Helvetica,sans-Serif" font-size="10.00">SphericalManifold&lt;</text>
<text text-anchor="middle" x="54.5" y="-7.5" font-family="Helvetica,sans-Serif" font-size="10.00"> dim, spacedim &gt;</text>
</a>
</g>
</g>
<!-- Node2 -->
<g id="node2" class="node">
<title>Node2</title>
<g id="a_node2"><a xlink:href="classManifold.html" target="_top" xlink:title=" ">
<polygon fill="white" stroke="black" points="0,-68.5 0,-87.5 109,-87.5 109,-68.5 0,-68.5"/>
<text text-anchor="middle" x="54.5" y="-75.5" font-family="Helvetica,sans-Serif" font-size="10.00">Manifold&lt; dim, dim &gt;</text>
</a>
</g>
</g>
<!-- Node2&#45;&gt;Node1 -->
<g id="edge1" class="edge">
<title>Node2&#45;&gt;Node1</title>
<path fill="none" stroke="midnightblue" d="M54.5,-58.22C54.5,-49.36 54.5,-38.96 54.5,-30.76"/>
<polygon fill="midnightblue" stroke="midnightblue" points="51,-58.33 54.5,-68.33 58,-58.33 51,-58.33"/>
</g>
<!-- Node3 -->
<g id="node3" class="node">
<title>Node3</title>
<g id="a_node3"><a xlink:href="classSubscriptor.html" target="_top" xlink:title=" ">
<polygon fill="white" stroke="black" points="17.5,-192.5 17.5,-211.5 83.5,-211.5 83.5,-192.5 17.5,-192.5"/>
<text text-anchor="middle" x="50.5" y="-199.5" font-family="Helvetica,sans-Serif" font-size="10.00">Subscriptor</text>
</a>
</g>
</g>
<!-- Node3&#45;&gt;Node2 -->
<g id="edge2" class="edge">
<title>Node3&#45;&gt;Node2</title>
<path fill="none" stroke="midnightblue" d="M51.12,-182.19C52,-155.4 53.57,-107.31 54.21,-87.69"/>
<polygon fill="midnightblue" stroke="midnightblue" points="47.62,-182.12 50.79,-192.23 54.61,-182.35 47.62,-182.12"/>
</g>
<!-- Node4 -->
<g id="node4" class="node">
<title>Node4</title>
<g id="a_node4"><a xlink:href="classManifold.html" target="_top" xlink:title=" ">
<polygon fill="white" stroke="black" points="67,-135.5 67,-154.5 202,-154.5 202,-135.5 67,-135.5"/>
<text text-anchor="middle" x="134.5" y="-142.5" font-family="Helvetica,sans-Serif" font-size="10.00">Manifold&lt; dim, spacedim &gt;</text>
</a>
</g>
</g>
<!-- Node3&#45;&gt;Node4 -->
<g id="edge4" class="edge">
<title>Node3&#45;&gt;Node4</title>
<path fill="none" stroke="midnightblue" d="M72.15,-186.82C87.76,-176.61 108.31,-163.15 121.47,-154.53"/>
<polygon fill="midnightblue" stroke="midnightblue" points="70.07,-184 63.62,-192.41 73.91,-189.86 70.07,-184"/>
</g>
<!-- Node4&#45;&gt;Node2 -->
<g id="edge3" class="edge">
<title>Node4&#45;&gt;Node2</title>
<path fill="none" stroke="orange" stroke-dasharray="5,2" d="M115.69,-128.71C99.92,-115.91 77.99,-98.09 65.12,-87.63"/>
<polygon fill="orange" stroke="orange" points="113.74,-131.64 123.71,-135.23 118.16,-126.21 113.74,-131.64"/>
<text text-anchor="middle" x="128" y="-109" font-family="Helvetica,sans-Serif" font-size="10.00"> &lt; dim, dim &gt;</text>
</g>
</g>
</svg>
