<?xml version="1.0" encoding="UTF-8" standalone="no"?>
<!DOCTYPE svg PUBLIC "-//W3C//DTD SVG 1.1//EN"
 "http://www.w3.org/Graphics/SVG/1.1/DTD/svg11.dtd">
<!-- Generated by graphviz version 2.47.1 (20210417.1919)
 -->
<!-- Title: FE_TraceQ&lt; dim, spacedim &gt; Pages: 1 -->
<svg width="1313pt" height="148pt"
 viewBox="0.00 0.00 1313.00 148.00" xmlns="http://www.w3.org/2000/svg" xmlns:xlink="http://www.w3.org/1999/xlink">
<g id="graph0" class="graph" transform="scale(1 1) rotate(0) translate(4 144)">
<title>FE_TraceQ&lt; dim, spacedim &gt;</title>
<polygon fill="white" stroke="transparent" points="-4,4 -4,-144 1309,-144 1309,4 -4,4"/>
<!-- Node1 -->
<g id="node1" class="node">
<title>Node1</title>
<g id="a_node1"><a xlink:title=" ">
<polygon fill="#bfbfbf" stroke="black" points="1156,-23 1156,-42 1305,-42 1305,-23 1156,-23"/>
<text text-anchor="middle" x="1230.5" y="-30" font-family="Helvetica,sans-Serif" font-size="10.00">FE_TraceQ&lt; dim, spacedim &gt;</text>
</a>
</g>
</g>
<!-- Node2 -->
<g id="node2" class="node">
<title>Node2</title>
<g id="a_node2"><a xlink:href="classFE__PolyFace.html" target="_top" xlink:title=" ">
<polygon fill="white" stroke="black" points="971,-12 971,-53 1119,-53 1119,-12 971,-12"/>
<text text-anchor="start" x="979" y="-41" font-family="Helvetica,sans-Serif" font-size="10.00">FE_PolyFace&lt; TensorProduct</text>
<text text-anchor="start" x="979" y="-30" font-family="Helvetica,sans-Serif" font-size="10.00">Polynomials&lt; dim &#45; 1 &gt;,</text>
<text text-anchor="middle" x="1045" y="-19" font-family="Helvetica,sans-Serif" font-size="10.00"> dim, dim &gt;</text>
</a>
</g>
</g>
<!-- Node2&#45;&gt;Node1 -->
<g id="edge1" class="edge">
<title>Node2&#45;&gt;Node1</title>
<path fill="none" stroke="midnightblue" d="M1129.06,-32.5C1137.97,-32.5 1147,-32.5 1155.8,-32.5"/>
<polygon fill="midnightblue" stroke="midnightblue" points="1129.05,-29 1119.05,-32.5 1129.05,-36 1129.05,-29"/>
</g>
<!-- Node3 -->
<g id="node3" class="node">
<title>Node3</title>
<g id="a_node3"><a xlink:href="classFiniteElement.html" target="_top" xlink:title=" ">
<polygon fill="white" stroke="black" points="141,-0.5 141,-30.5 245,-30.5 245,-0.5 141,-0.5"/>
<text text-anchor="start" x="149" y="-18.5" font-family="Helvetica,sans-Serif" font-size="10.00">FiniteElement&lt; dim,</text>
<text text-anchor="middle" x="193" y="-7.5" font-family="Helvetica,sans-Serif" font-size="10.00"> spacedim &gt;</text>
</a>
</g>
</g>
<!-- Node3&#45;&gt;Node2 -->
<g id="edge2" class="edge">
<title>Node3&#45;&gt;Node2</title>
<path fill="none" stroke="midnightblue" d="M255.41,-16.73C408.39,-19.79 806,-27.74 970.79,-31.04"/>
<polygon fill="midnightblue" stroke="midnightblue" points="255.33,-13.23 245.26,-16.53 255.19,-20.22 255.33,-13.23"/>
</g>
<!-- Node3&#45;&gt;Node3 -->
<g id="edge5" class="edge">
<title>Node3&#45;&gt;Node3</title>
<path fill="none" stroke="orange" stroke-dasharray="5,2" d="M180.56,-40.96C182.11,-45.68 186.25,-49 193,-49 204.07,-49 208.14,-40.06 205.2,-30.66"/>
<polygon fill="orange" stroke="orange" points="184.07,-40.74 180.8,-30.66 177.07,-40.57 184.07,-40.74"/>
<text text-anchor="middle" x="193" y="-52" font-family="Helvetica,sans-Serif" font-size="10.00"> &lt; dim, spacedim &gt;</text>
</g>
<!-- Node7 -->
<g id="node7" class="node">
<title>Node7</title>
<g id="a_node7"><a xlink:href="classFiniteElement.html" target="_top" xlink:title=" ">
<polygon fill="white" stroke="black" points="438,-55 438,-96 612,-96 612,-55 438,-55"/>
<text text-anchor="start" x="446" y="-84" font-family="Helvetica,sans-Serif" font-size="10.00">FiniteElement&lt; Polynomial</text>
<text text-anchor="start" x="446" y="-73" font-family="Helvetica,sans-Serif" font-size="10.00">Type::dimension+1, PolynomialType</text>
<text text-anchor="middle" x="525" y="-62" font-family="Helvetica,sans-Serif" font-size="10.00">::dimension+1 &gt;</text>
</a>
</g>
</g>
<!-- Node3&#45;&gt;Node7 -->
<g id="edge10" class="edge">
<title>Node3&#45;&gt;Node7</title>
<path fill="none" stroke="orange" stroke-dasharray="5,2" d="M255.3,-27.16C257.9,-27.62 260.48,-28.07 263,-28.5 332.58,-40.37 350.61,-39.54 420,-52.5 425.82,-53.59 431.8,-54.76 437.83,-55.98"/>
<polygon fill="orange" stroke="orange" points="255.67,-23.67 245.21,-25.35 254.43,-30.56 255.67,-23.67"/>
<text text-anchor="start" x="263" y="-66.5" font-family="Helvetica,sans-Serif" font-size="10.00"> &lt; PolynomialType::dimension</text>
<text text-anchor="middle" x="341.5" y="-55.5" font-family="Helvetica,sans-Serif" font-size="10.00">+1, PolynomialType::dimension+1 &gt;</text>
</g>
<!-- Node4 -->
<g id="node4" class="node">
<title>Node4</title>
<g id="a_node4"><a xlink:href="classSubscriptor.html" target="_top" xlink:title=" ">
<polygon fill="white" stroke="black" points="19,-68 19,-87 85,-87 85,-68 19,-68"/>
<text text-anchor="middle" x="52" y="-75" font-family="Helvetica,sans-Serif" font-size="10.00">Subscriptor</text>
</a>
</g>
</g>
<!-- Node4&#45;&gt;Node3 -->
<g id="edge3" class="edge">
<title>Node4&#45;&gt;Node3</title>
<path fill="none" stroke="midnightblue" d="M83.64,-63.83C105.67,-54.01 135.37,-40.76 158.11,-30.62"/>
<polygon fill="midnightblue" stroke="midnightblue" points="82.12,-60.68 74.41,-67.95 84.97,-67.07 82.12,-60.68"/>
</g>
<!-- Node4&#45;&gt;Node7 -->
<g id="edge8" class="edge">
<title>Node4&#45;&gt;Node7</title>
<path fill="none" stroke="midnightblue" d="M95.25,-77.32C172.11,-76.99 336.2,-76.3 437.62,-75.87"/>
<polygon fill="midnightblue" stroke="midnightblue" points="94.99,-73.82 85,-77.36 95.02,-80.82 94.99,-73.82"/>
</g>
<!-- Node5 -->
<g id="node5" class="node">
<title>Node5</title>
<g id="a_node5"><a xlink:href="classFiniteElementData.html" target="_top" xlink:title=" ">
<polygon fill="white" stroke="black" points="0,-109.5 0,-139.5 104,-139.5 104,-109.5 0,-109.5"/>
<text text-anchor="start" x="8" y="-127.5" font-family="Helvetica,sans-Serif" font-size="10.00">FiniteElementData&lt;</text>
<text text-anchor="middle" x="52" y="-116.5" font-family="Helvetica,sans-Serif" font-size="10.00"> dim &gt;</text>
</a>
</g>
</g>
<!-- Node5&#45;&gt;Node3 -->
<g id="edge4" class="edge">
<title>Node5&#45;&gt;Node3</title>
<path fill="none" stroke="midnightblue" d="M92.28,-104.21C96.32,-101.75 100.3,-99.16 104,-96.5 132.16,-76.27 161.03,-47.96 177.7,-30.73"/>
<polygon fill="midnightblue" stroke="midnightblue" points="90.28,-101.32 83.4,-109.38 93.8,-107.37 90.28,-101.32"/>
</g>
<!-- Node5&#45;&gt;Node7 -->
<g id="edge9" class="edge">
<title>Node5&#45;&gt;Node7</title>
<path fill="none" stroke="midnightblue" d="M114.5,-119.37C187.46,-113.11 312.73,-101.83 420,-89.5 425.79,-88.83 431.76,-88.12 437.77,-87.37"/>
<polygon fill="midnightblue" stroke="midnightblue" points="113.79,-115.92 104.12,-120.25 114.39,-122.89 113.79,-115.92"/>
</g>
<!-- Node6 -->
<g id="node6" class="node">
<title>Node6</title>
<g id="a_node6"><a xlink:href="classFE__PolyFace.html" target="_top" xlink:title=" ">
<polygon fill="white" stroke="black" points="649,-47.5 649,-77.5 806,-77.5 806,-47.5 649,-47.5"/>
<text text-anchor="start" x="657" y="-65.5" font-family="Helvetica,sans-Serif" font-size="10.00">FE_PolyFace&lt; PolynomialType,</text>
<text text-anchor="middle" x="727.5" y="-54.5" font-family="Helvetica,sans-Serif" font-size="10.00"> dim, spacedim &gt;</text>
</a>
</g>
</g>
<!-- Node6&#45;&gt;Node2 -->
<g id="edge6" class="edge">
<title>Node6&#45;&gt;Node2</title>
<path fill="none" stroke="orange" stroke-dasharray="5,2" d="M816.28,-54.15C864.92,-49.53 924.69,-43.85 970.78,-39.46"/>
<polygon fill="orange" stroke="orange" points="815.71,-50.69 806.08,-55.12 816.37,-57.66 815.71,-50.69"/>
<text text-anchor="start" x="824" y="-67.5" font-family="Helvetica,sans-Serif" font-size="10.00"> &lt; TensorProductPolynomials</text>
<text text-anchor="middle" x="888.5" y="-56.5" font-family="Helvetica,sans-Serif" font-size="10.00">&lt; dim &#45; 1 &gt;, dim, dim &gt;</text>
</g>
<!-- Node7&#45;&gt;Node6 -->
<g id="edge7" class="edge">
<title>Node7&#45;&gt;Node6</title>
<path fill="none" stroke="midnightblue" d="M622.25,-69.26C631.2,-68.68 640.18,-68.1 648.92,-67.53"/>
<polygon fill="midnightblue" stroke="midnightblue" points="621.95,-65.77 612.19,-69.91 622.4,-72.76 621.95,-65.77"/>
</g>
</g>
</svg>
