<?xml version="1.0" encoding="UTF-8" standalone="no"?>
<!DOCTYPE svg PUBLIC "-//W3C//DTD SVG 1.1//EN"
 "http://www.w3.org/Graphics/SVG/1.1/DTD/svg11.dtd">
<!-- Generated by graphviz version 2.47.1 (20210417.1919)
 -->
<!-- Title: MatrixBlock&lt; MatrixType &gt; Pages: 1 -->
<svg width="190pt" height="163pt"
 viewBox="0.00 0.00 190.00 163.00" xmlns="http://www.w3.org/2000/svg" xmlns:xlink="http://www.w3.org/1999/xlink">
<g id="graph0" class="graph" transform="scale(1 1) rotate(0) translate(4 159)">
<title>MatrixBlock&lt; MatrixType &gt;</title>
<polygon fill="white" stroke="transparent" points="-4,4 -4,-159 186,-159 186,4 -4,4"/>
<!-- Node1 -->
<g id="node1" class="node">
<title>Node1</title>
<g id="a_node1"><a xlink:title=" ">
<polygon fill="#bfbfbf" stroke="black" points="0,-78.5 0,-97.5 134,-97.5 134,-78.5 0,-78.5"/>
<text text-anchor="middle" x="67" y="-85.5" font-family="Helvetica,sans-Serif" font-size="10.00">MatrixBlock&lt; MatrixType &gt;</text>
</a>
</g>
</g>
<!-- Node3 -->
<g id="node3" class="node">
<title>Node3</title>
<g id="a_node3"><a xlink:href="classMatrixBlock.html" target="_top" xlink:title=" ">
<polygon fill="white" stroke="black" points="7,-0.5 7,-30.5 127,-30.5 127,-0.5 7,-0.5"/>
<text text-anchor="start" x="15" y="-18.5" font-family="Helvetica,sans-Serif" font-size="10.00">MatrixBlock&lt; FullMatrix</text>
<text text-anchor="middle" x="67" y="-7.5" font-family="Helvetica,sans-Serif" font-size="10.00">&lt; number &gt; &gt;</text>
</a>
</g>
</g>
<!-- Node1&#45;&gt;Node3 -->
<g id="edge2" class="edge">
<title>Node1&#45;&gt;Node3</title>
<path fill="none" stroke="orange" stroke-dasharray="5,2" d="M67,-68.24C67,-56.41 67,-41.38 67,-30.58"/>
<polygon fill="orange" stroke="orange" points="63.5,-68.36 67,-78.36 70.5,-68.36 63.5,-68.36"/>
<text text-anchor="middle" x="124.5" y="-52" font-family="Helvetica,sans-Serif" font-size="10.00"> &lt; FullMatrix&lt; number &gt; &gt;</text>
</g>
<!-- Node2 -->
<g id="node2" class="node">
<title>Node2</title>
<g id="a_node2"><a xlink:href="classSubscriptor.html" target="_top" xlink:title=" ">
<polygon fill="white" stroke="black" points="34,-135.5 34,-154.5 100,-154.5 100,-135.5 34,-135.5"/>
<text text-anchor="middle" x="67" y="-142.5" font-family="Helvetica,sans-Serif" font-size="10.00">Subscriptor</text>
</a>
</g>
</g>
<!-- Node2&#45;&gt;Node1 -->
<g id="edge1" class="edge">
<title>Node2&#45;&gt;Node1</title>
<path fill="none" stroke="midnightblue" d="M67,-125.12C67,-115.82 67,-105.06 67,-97.71"/>
<polygon fill="midnightblue" stroke="midnightblue" points="63.5,-125.41 67,-135.41 70.5,-125.41 63.5,-125.41"/>
</g>
</g>
</svg>
