<?xml version="1.0" encoding="UTF-8" standalone="no"?>
<!DOCTYPE svg PUBLIC "-//W3C//DTD SVG 1.1//EN"
 "http://www.w3.org/Graphics/SVG/1.1/DTD/svg11.dtd">
<!-- Generated by graphviz version 2.47.1 (20210417.1919)
 -->
<!-- Title: TensorProductMatrixSymmetricSum&lt; dim, VectorizedArray&lt; Number &gt;, n_rows_1d &gt; Pages: 1 -->
<svg width="203pt" height="229pt"
 viewBox="0.00 0.00 203.00 229.00" xmlns="http://www.w3.org/2000/svg" xmlns:xlink="http://www.w3.org/1999/xlink">
<g id="graph0" class="graph" transform="scale(1 1) rotate(0) translate(4 225)">
<title>TensorProductMatrixSymmetricSum&lt; dim, VectorizedArray&lt; Number &gt;, n_rows_1d &gt;</title>
<polygon fill="white" stroke="transparent" points="-4,4 -4,-225 199,-225 199,4 -4,4"/>
<!-- Node1 -->
<g id="node1" class="node">
<title>Node1</title>
<g id="a_node1"><a xlink:title=" ">
<polygon fill="#bfbfbf" stroke="black" points="3,-0.5 3,-41.5 157,-41.5 157,-0.5 3,-0.5"/>
<text text-anchor="start" x="11" y="-29.5" font-family="Helvetica,sans-Serif" font-size="10.00">TensorProductMatrixSymmetric</text>
<text text-anchor="start" x="11" y="-18.5" font-family="Helvetica,sans-Serif" font-size="10.00">Sum&lt; dim, VectorizedArray</text>
<text text-anchor="middle" x="80" y="-7.5" font-family="Helvetica,sans-Serif" font-size="10.00">&lt; Number &gt;, n_rows_1d &gt;</text>
</a>
</g>
</g>
<!-- Node2 -->
<g id="node2" class="node">
<title>Node2</title>
<g id="a_node2"><a xlink:href="classTensorProductMatrixSymmetricSumBase.html" target="_top" xlink:title=" ">
<polygon fill="white" stroke="black" points="0,-79.5 0,-120.5 160,-120.5 160,-79.5 0,-79.5"/>
<text text-anchor="start" x="8" y="-108.5" font-family="Helvetica,sans-Serif" font-size="10.00">TensorProductMatrixSymmetric</text>
<text text-anchor="start" x="8" y="-97.5" font-family="Helvetica,sans-Serif" font-size="10.00">SumBase&lt; dim, VectorizedArray</text>
<text text-anchor="middle" x="80" y="-86.5" font-family="Helvetica,sans-Serif" font-size="10.00">&lt; Number &gt;, n_rows_1d &gt;</text>
</a>
</g>
</g>
<!-- Node2&#45;&gt;Node1 -->
<g id="edge1" class="edge">
<title>Node2&#45;&gt;Node1</title>
<path fill="none" stroke="midnightblue" d="M80,-68.91C80,-59.79 80,-50.02 80,-41.76"/>
<polygon fill="midnightblue" stroke="midnightblue" points="76.5,-69.17 80,-79.17 83.5,-69.17 76.5,-69.17"/>
</g>
<!-- Node3 -->
<g id="node3" class="node">
<title>Node3</title>
<g id="a_node3"><a xlink:href="classTensorProductMatrixSymmetricSumBase.html" target="_top" xlink:title=" ">
<polygon fill="white" stroke="black" points="3,-179.5 3,-220.5 157,-220.5 157,-179.5 3,-179.5"/>
<text text-anchor="start" x="11" y="-208.5" font-family="Helvetica,sans-Serif" font-size="10.00">TensorProductMatrixSymmetric</text>
<text text-anchor="start" x="11" y="-197.5" font-family="Helvetica,sans-Serif" font-size="10.00">SumBase&lt; dim, Number, n</text>
<text text-anchor="middle" x="80" y="-186.5" font-family="Helvetica,sans-Serif" font-size="10.00">_rows_1d &gt;</text>
</a>
</g>
</g>
<!-- Node3&#45;&gt;Node2 -->
<g id="edge2" class="edge">
<title>Node3&#45;&gt;Node2</title>
<path fill="none" stroke="orange" stroke-dasharray="5,2" d="M80,-168.92C80,-153.29 80,-134.61 80,-120.8"/>
<polygon fill="orange" stroke="orange" points="76.5,-169.17 80,-179.17 83.5,-169.17 76.5,-169.17"/>
<text text-anchor="start" x="80" y="-153" font-family="Helvetica,sans-Serif" font-size="10.00"> &lt; dim, VectorizedArray</text>
<text text-anchor="middle" x="137.5" y="-142" font-family="Helvetica,sans-Serif" font-size="10.00">&lt; Number &gt;, n_rows_1d &gt;</text>
</g>
</g>
</svg>
