<?xml version="1.0" encoding="UTF-8" standalone="no"?>
<!DOCTYPE svg PUBLIC "-//W3C//DTD SVG 1.1//EN"
 "http://www.w3.org/Graphics/SVG/1.1/DTD/svg11.dtd">
<!-- Generated by graphviz version 2.47.1 (20210417.1919)
 -->
<!-- Title: internal::SolverBicgstabData Pages: 1 -->
<svg width="230pt" height="163pt"
 viewBox="0.00 0.00 230.00 163.00" xmlns="http://www.w3.org/2000/svg" xmlns:xlink="http://www.w3.org/1999/xlink">
<g id="graph0" class="graph" transform="scale(1 1) rotate(0) translate(4 159)">
<title>internal::SolverBicgstabData</title>
<polygon fill="white" stroke="transparent" points="-4,4 -4,-159 226,-159 226,4 -4,4"/>
<!-- Node1 -->
<g id="node1" class="node">
<title>Node1</title>
<g id="a_node1"><a xlink:title=" ">
<polygon fill="#bfbfbf" stroke="black" points="5.5,-135.5 5.5,-154.5 146.5,-154.5 146.5,-135.5 5.5,-135.5"/>
<text text-anchor="middle" x="76" y="-142.5" font-family="Helvetica,sans-Serif" font-size="10.00">internal::SolverBicgstabData</text>
</a>
</g>
</g>
<!-- Node2 -->
<g id="node2" class="node">
<title>Node2</title>
<g id="a_node2"><a xlink:href="classSolverBicgstab.html" target="_top" xlink:title=" ">
<polygon fill="white" stroke="black" points="0,-0.5 0,-30.5 120,-30.5 120,-0.5 0,-0.5"/>
<text text-anchor="start" x="8" y="-18.5" font-family="Helvetica,sans-Serif" font-size="10.00">SolverBicgstab&lt; Vector</text>
<text text-anchor="middle" x="60" y="-7.5" font-family="Helvetica,sans-Serif" font-size="10.00">&lt; double &gt; &gt;</text>
</a>
</g>
</g>
<!-- Node1&#45;&gt;Node2 -->
<g id="edge1" class="edge">
<title>Node1&#45;&gt;Node2</title>
<path fill="none" stroke="darkgreen" d="M69.7,-125.57C67.14,-117.25 64.45,-107.23 63,-98 59.32,-74.64 59.17,-47.08 59.5,-30.73"/>
<polygon fill="darkgreen" stroke="darkgreen" points="66.45,-126.89 72.87,-135.32 73.11,-124.73 66.45,-126.89"/>
</g>
<!-- Node3 -->
<g id="node3" class="node">
<title>Node3</title>
<g id="a_node3"><a xlink:href="classSolverBicgstab.html" target="_top" xlink:title=" ">
<polygon fill="white" stroke="black" points="72,-78.5 72,-97.5 222,-97.5 222,-78.5 72,-78.5"/>
<text text-anchor="middle" x="147" y="-85.5" font-family="Helvetica,sans-Serif" font-size="10.00">SolverBicgstab&lt; VectorType &gt;</text>
</a>
</g>
</g>
<!-- Node1&#45;&gt;Node3 -->
<g id="edge2" class="edge">
<title>Node1&#45;&gt;Node3</title>
<path fill="none" stroke="darkgreen" d="M95.37,-129C108.32,-118.96 124.92,-106.1 135.75,-97.71"/>
<polygon fill="darkgreen" stroke="darkgreen" points="92.86,-126.52 87.09,-135.41 97.14,-132.05 92.86,-126.52"/>
</g>
<!-- Node3&#45;&gt;Node2 -->
<g id="edge3" class="edge">
<title>Node3&#45;&gt;Node2</title>
<path fill="none" stroke="orange" stroke-dasharray="5,2" d="M128.22,-71.78C113.13,-59.55 92.08,-42.5 77.37,-30.58"/>
<polygon fill="orange" stroke="orange" points="126.36,-74.78 136.33,-78.36 130.77,-69.34 126.36,-74.78"/>
<text text-anchor="middle" x="159.5" y="-52" font-family="Helvetica,sans-Serif" font-size="10.00"> &lt; Vector&lt; double &gt; &gt;</text>
</g>
</g>
</svg>
