<?xml version="1.0" encoding="UTF-8" standalone="no"?>
<!DOCTYPE svg PUBLIC "-//W3C//DTD SVG 1.1//EN"
 "http://www.w3.org/Graphics/SVG/1.1/DTD/svg11.dtd">
<!-- Generated by graphviz version 2.47.1 (20210417.1919)
 -->
<!-- Title: Utilities::MPI::ConsensusAlgorithms::Process&lt; T1, T2 &gt; Pages: 1 -->
<svg width="670pt" height="233pt"
 viewBox="0.00 0.00 670.00 233.00" xmlns="http://www.w3.org/2000/svg" xmlns:xlink="http://www.w3.org/1999/xlink">
<g id="graph0" class="graph" transform="scale(1 1) rotate(0) translate(4 229)">
<title>Utilities::MPI::ConsensusAlgorithms::Process&lt; T1, T2 &gt;</title>
<polygon fill="white" stroke="transparent" points="-4,4 -4,-229 666,-229 666,4 -4,4"/>
<!-- Node1 -->
<g id="node1" class="node">
<title>Node1</title>
<g id="a_node1"><a xlink:title=" ">
<polygon fill="#bfbfbf" stroke="black" points="0,-129 0,-159 152,-159 152,-129 0,-129"/>
<text text-anchor="start" x="8" y="-147" font-family="Helvetica,sans-Serif" font-size="10.00">Utilities::MPI::Consensus</text>
<text text-anchor="middle" x="76" y="-136" font-family="Helvetica,sans-Serif" font-size="10.00">Algorithms::Process&lt; T1, T2 &gt;</text>
</a>
</g>
</g>
<!-- Node2 -->
<g id="node2" class="node">
<title>Node2</title>
<g id="a_node2"><a xlink:href="classUtilities_1_1MPI_1_1ConsensusAlgorithms_1_1AnonymousProcess.html" target="_top" xlink:title=" ">
<polygon fill="white" stroke="black" points="298,-183.5 298,-224.5 455,-224.5 455,-183.5 298,-183.5"/>
<text text-anchor="start" x="306" y="-212.5" font-family="Helvetica,sans-Serif" font-size="10.00">Utilities::MPI::Consensus</text>
<text text-anchor="start" x="306" y="-201.5" font-family="Helvetica,sans-Serif" font-size="10.00">Algorithms::AnonymousProcess</text>
<text text-anchor="middle" x="376.5" y="-190.5" font-family="Helvetica,sans-Serif" font-size="10.00">&lt; T1, T2 &gt;</text>
</a>
</g>
</g>
<!-- Node1&#45;&gt;Node2 -->
<g id="edge1" class="edge">
<title>Node1&#45;&gt;Node2</title>
<path fill="none" stroke="midnightblue" d="M136.87,-161.77C147.84,-164.73 159.22,-167.61 170,-170 211.84,-179.28 258.97,-187.25 297.54,-193.14"/>
<polygon fill="midnightblue" stroke="midnightblue" points="137.51,-158.32 126.94,-159.04 135.66,-165.06 137.51,-158.32"/>
</g>
<!-- Node3 -->
<g id="node3" class="node">
<title>Node3</title>
<g id="a_node3"><a xlink:href="classUtilities_1_1MPI_1_1ConsensusAlgorithms_1_1Process.html" target="_top" xlink:title=" ">
<polygon fill="white" stroke="black" points="300,-123.5 300,-164.5 453,-164.5 453,-123.5 300,-123.5"/>
<text text-anchor="start" x="308" y="-152.5" font-family="Helvetica,sans-Serif" font-size="10.00">Utilities::MPI::Consensus</text>
<text text-anchor="start" x="308" y="-141.5" font-family="Helvetica,sans-Serif" font-size="10.00">Algorithms::Process&lt; unsigned</text>
<text text-anchor="middle" x="376.5" y="-130.5" font-family="Helvetica,sans-Serif" font-size="10.00"> int, unsigned int &gt;</text>
</a>
</g>
</g>
<!-- Node1&#45;&gt;Node3 -->
<g id="edge2" class="edge">
<title>Node1&#45;&gt;Node3</title>
<path fill="none" stroke="orange" stroke-dasharray="5,2" d="M162.57,-144C205.92,-144 258.09,-144 299.94,-144"/>
<polygon fill="orange" stroke="orange" points="162.32,-140.5 152.32,-144 162.32,-147.5 162.32,-140.5"/>
<text text-anchor="start" x="170" y="-158" font-family="Helvetica,sans-Serif" font-size="10.00"> &lt; unsigned int, unsigned</text>
<text text-anchor="middle" x="225" y="-147" font-family="Helvetica,sans-Serif" font-size="10.00"> int &gt;</text>
</g>
<!-- Node5 -->
<g id="node5" class="node">
<title>Node5</title>
<g id="a_node5"><a xlink:href="classUtilities_1_1MPI_1_1ConsensusAlgorithms_1_1Process.html" target="_top" xlink:title=" ">
<polygon fill="white" stroke="black" points="312,-41.5 312,-104.5 441,-104.5 441,-41.5 312,-41.5"/>
<text text-anchor="start" x="320" y="-92.5" font-family="Helvetica,sans-Serif" font-size="10.00">Utilities::MPI::Consensus</text>
<text text-anchor="start" x="320" y="-81.5" font-family="Helvetica,sans-Serif" font-size="10.00">Algorithms::Process&lt; std</text>
<text text-anchor="start" x="320" y="-70.5" font-family="Helvetica,sans-Serif" font-size="10.00">::pair&lt; types::global_dof</text>
<text text-anchor="start" x="320" y="-59.5" font-family="Helvetica,sans-Serif" font-size="10.00">_index, types::global_dof</text>
<text text-anchor="middle" x="376.5" y="-48.5" font-family="Helvetica,sans-Serif" font-size="10.00">_index &gt;, unsigned int &gt;</text>
</a>
</g>
</g>
<!-- Node1&#45;&gt;Node5 -->
<g id="edge4" class="edge">
<title>Node1&#45;&gt;Node5</title>
<path fill="none" stroke="orange" stroke-dasharray="5,2" d="M109.06,-123.75C126.44,-113.74 148.68,-102.46 170,-96 216.21,-82.01 270.59,-76.37 311.8,-74.17"/>
<polygon fill="orange" stroke="orange" points="107.28,-120.73 100.45,-128.83 110.84,-126.76 107.28,-120.73"/>
<text text-anchor="start" x="172" y="-132" font-family="Helvetica,sans-Serif" font-size="10.00"> &lt; std::pair&lt; types</text>
<text text-anchor="start" x="172" y="-121" font-family="Helvetica,sans-Serif" font-size="10.00">::global_dof_index,</text>
<text text-anchor="start" x="172" y="-110" font-family="Helvetica,sans-Serif" font-size="10.00"> types::global_dof_index</text>
<text text-anchor="middle" x="225" y="-99" font-family="Helvetica,sans-Serif" font-size="10.00"> &gt;, unsigned int &gt;</text>
</g>
<!-- Node4 -->
<g id="node4" class="node">
<title>Node4</title>
<g id="a_node4"><a xlink:href="classUtilities_1_1MPI_1_1ConsensusAlgorithmsProcessTargets.html" target="_top" xlink:title=" ">
<polygon fill="white" stroke="black" points="511.5,-129 511.5,-159 642.5,-159 642.5,-129 511.5,-129"/>
<text text-anchor="start" x="519.5" y="-147" font-family="Helvetica,sans-Serif" font-size="10.00">Utilities::MPI::Consensus</text>
<text text-anchor="middle" x="577" y="-136" font-family="Helvetica,sans-Serif" font-size="10.00">AlgorithmsProcessTargets</text>
</a>
</g>
</g>
<!-- Node3&#45;&gt;Node4 -->
<g id="edge3" class="edge">
<title>Node3&#45;&gt;Node4</title>
<path fill="none" stroke="midnightblue" d="M463.55,-144C479.56,-144 496.05,-144 511.29,-144"/>
<polygon fill="midnightblue" stroke="midnightblue" points="463.11,-140.5 453.11,-144 463.11,-147.5 463.11,-140.5"/>
</g>
<!-- Node6 -->
<g id="node6" class="node">
<title>Node6</title>
<g id="a_node6"><a xlink:href="classUtilities_1_1MPI_1_1internal_1_1ComputeIndexOwner_1_1ConsensusAlgorithmsPayload.html" target="_top" xlink:title=" ">
<polygon fill="white" stroke="black" points="492,-60.5 492,-101.5 662,-101.5 662,-60.5 492,-60.5"/>
<text text-anchor="start" x="500" y="-89.5" font-family="Helvetica,sans-Serif" font-size="10.00">Utilities::MPI::internal</text>
<text text-anchor="start" x="500" y="-78.5" font-family="Helvetica,sans-Serif" font-size="10.00">::ComputeIndexOwner::Consensus</text>
<text text-anchor="middle" x="577" y="-67.5" font-family="Helvetica,sans-Serif" font-size="10.00">AlgorithmsPayload</text>
</a>
</g>
</g>
<!-- Node5&#45;&gt;Node6 -->
<g id="edge5" class="edge">
<title>Node5&#45;&gt;Node6</title>
<path fill="none" stroke="midnightblue" d="M451.49,-75.98C464.6,-76.51 478.35,-77.06 491.72,-77.6"/>
<polygon fill="midnightblue" stroke="midnightblue" points="451.26,-72.47 441.13,-75.56 450.98,-79.46 451.26,-72.47"/>
</g>
<!-- Node7 -->
<g id="node7" class="node">
<title>Node7</title>
<g id="a_node7"><a xlink:href="classUtilities_1_1MPI_1_1internal_1_1ComputeIndexOwner_1_1DictionaryPayLoad.html" target="_top" xlink:title=" ">
<polygon fill="white" stroke="black" points="494.5,-0.5 494.5,-41.5 659.5,-41.5 659.5,-0.5 494.5,-0.5"/>
<text text-anchor="start" x="502.5" y="-29.5" font-family="Helvetica,sans-Serif" font-size="10.00">Utilities::MPI::internal</text>
<text text-anchor="start" x="502.5" y="-18.5" font-family="Helvetica,sans-Serif" font-size="10.00">::ComputeIndexOwner::Dictionary</text>
<text text-anchor="middle" x="577" y="-7.5" font-family="Helvetica,sans-Serif" font-size="10.00">PayLoad</text>
</a>
</g>
</g>
<!-- Node5&#45;&gt;Node7 -->
<g id="edge6" class="edge">
<title>Node5&#45;&gt;Node7</title>
<path fill="none" stroke="midnightblue" d="M450.94,-53.76C466.09,-49.79 482.1,-45.6 497.43,-41.58"/>
<polygon fill="midnightblue" stroke="midnightblue" points="449.91,-50.41 441.13,-56.33 451.69,-57.18 449.91,-50.41"/>
</g>
</g>
</svg>
