<?xml version="1.0" encoding="UTF-8" standalone="no"?>
<!DOCTYPE svg PUBLIC "-//W3C//DTD SVG 1.1//EN"
 "http://www.w3.org/Graphics/SVG/1.1/DTD/svg11.dtd">
<!-- Generated by graphviz version 2.47.1 (20210417.1919)
 -->
<!-- Title: FiniteElementData&lt; dim &gt; Pages: 1 -->
<svg width="1357pt" height="873pt"
 viewBox="0.00 0.00 1357.00 872.50" xmlns="http://www.w3.org/2000/svg" xmlns:xlink="http://www.w3.org/1999/xlink">
<g id="graph0" class="graph" transform="scale(1 1) rotate(0) translate(4 868.5)">
<title>FiniteElementData&lt; dim &gt;</title>
<polygon fill="white" stroke="transparent" points="-4,4 -4,-868.5 1353,-868.5 1353,4 -4,4"/>
<!-- Node1 -->
<g id="node1" class="node">
<title>Node1</title>
<g id="a_node1"><a xlink:title=" ">
<polygon fill="#bfbfbf" stroke="black" points="0,-484 0,-514 104,-514 104,-484 0,-484"/>
<text text-anchor="start" x="8" y="-502" font-family="Helvetica,sans-Serif" font-size="10.00">FiniteElementData&lt;</text>
<text text-anchor="middle" x="52" y="-491" font-family="Helvetica,sans-Serif" font-size="10.00"> dim &gt;</text>
</a>
</g>
</g>
<!-- Node2 -->
<g id="node2" class="node">
<title>Node2</title>
<g id="a_node2"><a xlink:href="classFiniteElement.html" target="_top" xlink:title=" ">
<polygon fill="white" stroke="black" points="172.5,-773.5 172.5,-792.5 283.5,-792.5 283.5,-773.5 172.5,-773.5"/>
<text text-anchor="middle" x="228" y="-780.5" font-family="Helvetica,sans-Serif" font-size="10.00">FiniteElement&lt; 2, 2 &gt;</text>
</a>
</g>
</g>
<!-- Node1&#45;&gt;Node2 -->
<g id="edge1" class="edge">
<title>Node1&#45;&gt;Node2</title>
<path fill="none" stroke="midnightblue" d="M60,-524.09C72.07,-564.54 99.57,-645.55 141,-704 161.75,-733.28 194.92,-759.83 213.41,-773.44"/>
<polygon fill="midnightblue" stroke="midnightblue" points="63.29,-522.88 57.13,-514.26 56.57,-524.84 63.29,-522.88"/>
</g>
<!-- Node4 -->
<g id="node4" class="node">
<title>Node4</title>
<g id="a_node4"><a xlink:href="classFiniteElement.html" target="_top" xlink:title=" ">
<polygon fill="white" stroke="black" points="141,-653.5 141,-694.5 315,-694.5 315,-653.5 141,-653.5"/>
<text text-anchor="start" x="149" y="-682.5" font-family="Helvetica,sans-Serif" font-size="10.00">FiniteElement&lt; Polynomial</text>
<text text-anchor="start" x="149" y="-671.5" font-family="Helvetica,sans-Serif" font-size="10.00">Type::dimension+1, PolynomialType</text>
<text text-anchor="middle" x="228" y="-660.5" font-family="Helvetica,sans-Serif" font-size="10.00">::dimension+1 &gt;</text>
</a>
</g>
</g>
<!-- Node1&#45;&gt;Node4 -->
<g id="edge3" class="edge">
<title>Node1&#45;&gt;Node4</title>
<path fill="none" stroke="midnightblue" d="M75.3,-521.43C109.29,-555.62 173.57,-620.27 206.47,-653.36"/>
<polygon fill="midnightblue" stroke="midnightblue" points="77.67,-518.85 68.14,-514.22 72.71,-523.78 77.67,-518.85"/>
</g>
<!-- Node11 -->
<g id="node11" class="node">
<title>Node11</title>
<g id="a_node11"><a xlink:href="classFiniteElement.html" target="_top" xlink:title=" ">
<polygon fill="white" stroke="black" points="176,-484 176,-514 280,-514 280,-484 176,-484"/>
<text text-anchor="start" x="184" y="-502" font-family="Helvetica,sans-Serif" font-size="10.00">FiniteElement&lt; dim,</text>
<text text-anchor="middle" x="228" y="-491" font-family="Helvetica,sans-Serif" font-size="10.00"> spacedim &gt;</text>
</a>
</g>
</g>
<!-- Node1&#45;&gt;Node11 -->
<g id="edge10" class="edge">
<title>Node1&#45;&gt;Node11</title>
<path fill="none" stroke="midnightblue" d="M114.26,-492.52C134.38,-492.09 156.51,-492.18 175.8,-492.79"/>
<polygon fill="midnightblue" stroke="midnightblue" points="114.17,-489.02 104.26,-492.78 114.35,-496.02 114.17,-489.02"/>
</g>
<!-- Node1&#45;&gt;Node11 -->
<g id="edge62" class="edge">
<title>Node1&#45;&gt;Node11</title>
<path fill="none" stroke="midnightblue" d="M114.26,-505.48C134.38,-505.91 156.51,-505.82 175.8,-505.21"/>
<polygon fill="midnightblue" stroke="midnightblue" points="114.35,-501.98 104.26,-505.22 114.17,-508.98 114.35,-501.98"/>
</g>
<!-- Node51 -->
<g id="node40" class="node">
<title>Node51</title>
<g id="a_node40"><a xlink:href="classFiniteElement.html" target="_top" xlink:title=" ">
<polygon fill="white" stroke="black" points="154,-156.5 154,-175.5 302,-175.5 302,-156.5 154,-156.5"/>
<text text-anchor="middle" x="228" y="-163.5" font-family="Helvetica,sans-Serif" font-size="10.00">FiniteElement&lt; 1, spacedim &gt;</text>
</a>
</g>
</g>
<!-- Node1&#45;&gt;Node51 -->
<g id="edge49" class="edge">
<title>Node1&#45;&gt;Node51</title>
<path fill="none" stroke="midnightblue" d="M53.88,-473.67C56.77,-423.87 69.13,-311.55 122,-237 142.88,-207.56 180.1,-186.7 204.15,-175.51"/>
<polygon fill="midnightblue" stroke="midnightblue" points="50.37,-473.7 53.37,-483.86 57.36,-474.04 50.37,-473.7"/>
</g>
<!-- Node55 -->
<g id="node44" class="node">
<title>Node55</title>
<g id="a_node44"><a xlink:href="classFiniteElement.html" target="_top" xlink:title=" ">
<polygon fill="white" stroke="black" points="378.5,-219 378.5,-249 482.5,-249 482.5,-219 378.5,-219"/>
<text text-anchor="start" x="386.5" y="-237" font-family="Helvetica,sans-Serif" font-size="10.00">FiniteElement&lt; dim,</text>
<text text-anchor="middle" x="430.5" y="-226" font-family="Helvetica,sans-Serif" font-size="10.00"> dim &gt;</text>
</a>
</g>
</g>
<!-- Node1&#45;&gt;Node55 -->
<g id="edge53" class="edge">
<title>Node1&#45;&gt;Node55</title>
<path fill="none" stroke="midnightblue" d="M78.7,-477.27C126.86,-437.04 234.71,-349.32 333,-286 354.12,-272.4 379.11,-259 398.38,-249.21"/>
<polygon fill="midnightblue" stroke="midnightblue" points="76.37,-474.65 70.95,-483.76 80.86,-480.02 76.37,-474.65"/>
</g>
<!-- Node3 -->
<g id="node3" class="node">
<title>Node3</title>
<g id="a_node3"><a xlink:href="classFE__P1NC.html" target="_top" xlink:title=" ">
<polygon fill="white" stroke="black" points="399.5,-828.5 399.5,-847.5 461.5,-847.5 461.5,-828.5 399.5,-828.5"/>
<text text-anchor="middle" x="430.5" y="-835.5" font-family="Helvetica,sans-Serif" font-size="10.00">FE_P1NC</text>
</a>
</g>
</g>
<!-- Node2&#45;&gt;Node3 -->
<g id="edge2" class="edge">
<title>Node2&#45;&gt;Node3</title>
<path fill="none" stroke="midnightblue" d="M270.01,-795.5C293.87,-802.64 324.55,-811.62 352,-819 367.52,-823.17 384.89,-827.46 399.24,-830.91"/>
<polygon fill="midnightblue" stroke="midnightblue" points="270.82,-792.09 260.24,-792.56 268.8,-798.79 270.82,-792.09"/>
</g>
<!-- Node5 -->
<g id="node5" class="node">
<title>Node5</title>
<g id="a_node5"><a xlink:href="classFE__PolyFace.html" target="_top" xlink:title=" ">
<polygon fill="white" stroke="black" points="352,-779 352,-809 509,-809 509,-779 352,-779"/>
<text text-anchor="start" x="360" y="-797" font-family="Helvetica,sans-Serif" font-size="10.00">FE_PolyFace&lt; PolynomialType,</text>
<text text-anchor="middle" x="430.5" y="-786" font-family="Helvetica,sans-Serif" font-size="10.00"> dim, spacedim &gt;</text>
</a>
</g>
</g>
<!-- Node4&#45;&gt;Node5 -->
<g id="edge4" class="edge">
<title>Node4&#45;&gt;Node5</title>
<path fill="none" stroke="midnightblue" d="M254.92,-701.9C274.66,-721.68 303.39,-747.54 333,-764 343.73,-769.97 355.81,-774.91 367.7,-778.95"/>
<polygon fill="midnightblue" stroke="midnightblue" points="257.32,-699.34 247.82,-694.65 252.32,-704.24 257.32,-699.34"/>
</g>
<!-- Node6 -->
<g id="node6" class="node">
<title>Node6</title>
<g id="a_node6"><a xlink:href="classFE__PolyFace.html" target="_top" xlink:title=" ">
<polygon fill="white" stroke="black" points="674,-834 674,-864 835,-864 835,-834 674,-834"/>
<text text-anchor="start" x="682" y="-852" font-family="Helvetica,sans-Serif" font-size="10.00">FE_PolyFace&lt; PolynomialSpace</text>
<text text-anchor="middle" x="754.5" y="-841" font-family="Helvetica,sans-Serif" font-size="10.00">&lt; dim &#45; 1 &gt;, dim, dim &gt;</text>
</a>
</g>
</g>
<!-- Node5&#45;&gt;Node6 -->
<g id="edge5" class="edge">
<title>Node5&#45;&gt;Node6</title>
<path fill="none" stroke="orange" stroke-dasharray="5,2" d="M491.44,-811.68C503.16,-814.75 515.41,-817.69 527,-820 575.41,-829.64 630.3,-836.76 673.92,-841.54"/>
<polygon fill="orange" stroke="orange" points="492.31,-808.29 481.74,-809.08 490.5,-815.05 492.31,-808.29"/>
<text text-anchor="start" x="544" y="-853" font-family="Helvetica,sans-Serif" font-size="10.00"> &lt; PolynomialSpace&lt;</text>
<text text-anchor="middle" x="591.5" y="-842" font-family="Helvetica,sans-Serif" font-size="10.00"> dim &#45; 1 &gt;, dim, dim &gt;</text>
</g>
<!-- Node8 -->
<g id="node8" class="node">
<title>Node8</title>
<g id="a_node8"><a xlink:href="classFE__PolyFace.html" target="_top" xlink:title=" ">
<polygon fill="white" stroke="black" points="680.5,-773.5 680.5,-814.5 828.5,-814.5 828.5,-773.5 680.5,-773.5"/>
<text text-anchor="start" x="688.5" y="-802.5" font-family="Helvetica,sans-Serif" font-size="10.00">FE_PolyFace&lt; TensorProduct</text>
<text text-anchor="start" x="688.5" y="-791.5" font-family="Helvetica,sans-Serif" font-size="10.00">Polynomials&lt; dim &#45; 1 &gt;,</text>
<text text-anchor="middle" x="754.5" y="-780.5" font-family="Helvetica,sans-Serif" font-size="10.00"> dim, dim &gt;</text>
</a>
</g>
</g>
<!-- Node5&#45;&gt;Node8 -->
<g id="edge7" class="edge">
<title>Node5&#45;&gt;Node8</title>
<path fill="none" stroke="orange" stroke-dasharray="5,2" d="M519.29,-794C569.75,-794 632.42,-794 680.23,-794"/>
<polygon fill="orange" stroke="orange" points="519.04,-790.5 509.04,-794 519.04,-797.5 519.04,-790.5"/>
<text text-anchor="start" x="527" y="-808" font-family="Helvetica,sans-Serif" font-size="10.00"> &lt; TensorProductPolynomials</text>
<text text-anchor="middle" x="591.5" y="-797" font-family="Helvetica,sans-Serif" font-size="10.00">&lt; dim &#45; 1 &gt;, dim, dim &gt;</text>
</g>
<!-- Node7 -->
<g id="node7" class="node">
<title>Node7</title>
<g id="a_node7"><a xlink:href="classFE__FaceP.html" target="_top" xlink:title=" ">
<polygon fill="white" stroke="black" points="1006,-839.5 1006,-858.5 1151,-858.5 1151,-839.5 1006,-839.5"/>
<text text-anchor="middle" x="1078.5" y="-846.5" font-family="Helvetica,sans-Serif" font-size="10.00">FE_FaceP&lt; dim, spacedim &gt;</text>
</a>
</g>
</g>
<!-- Node6&#45;&gt;Node7 -->
<g id="edge6" class="edge">
<title>Node6&#45;&gt;Node7</title>
<path fill="none" stroke="midnightblue" d="M845.4,-849C896.11,-849 958.6,-849 1005.95,-849"/>
<polygon fill="midnightblue" stroke="midnightblue" points="845.1,-845.5 835.1,-849 845.1,-852.5 845.1,-845.5"/>
</g>
<!-- Node9 -->
<g id="node9" class="node">
<title>Node9</title>
<g id="a_node9"><a xlink:href="classFE__FaceQ.html" target="_top" xlink:title=" ">
<polygon fill="white" stroke="black" points="1005.5,-800.5 1005.5,-819.5 1151.5,-819.5 1151.5,-800.5 1005.5,-800.5"/>
<text text-anchor="middle" x="1078.5" y="-807.5" font-family="Helvetica,sans-Serif" font-size="10.00">FE_FaceQ&lt; dim, spacedim &gt;</text>
</a>
</g>
</g>
<!-- Node8&#45;&gt;Node9 -->
<g id="edge8" class="edge">
<title>Node8&#45;&gt;Node9</title>
<path fill="none" stroke="midnightblue" d="M838.69,-798.13C890.27,-800.7 955.88,-803.96 1005.28,-806.41"/>
<polygon fill="midnightblue" stroke="midnightblue" points="838.73,-794.63 828.57,-797.63 838.38,-801.62 838.73,-794.63"/>
</g>
<!-- Node10 -->
<g id="node10" class="node">
<title>Node10</title>
<g id="a_node10"><a xlink:href="classFE__TraceQ.html" target="_top" xlink:title=" ">
<polygon fill="white" stroke="black" points="1004,-762.5 1004,-781.5 1153,-781.5 1153,-762.5 1004,-762.5"/>
<text text-anchor="middle" x="1078.5" y="-769.5" font-family="Helvetica,sans-Serif" font-size="10.00">FE_TraceQ&lt; dim, spacedim &gt;</text>
</a>
</g>
</g>
<!-- Node8&#45;&gt;Node10 -->
<g id="edge9" class="edge">
<title>Node8&#45;&gt;Node10</title>
<path fill="none" stroke="midnightblue" d="M838.6,-788.32C889.71,-784.83 954.63,-780.39 1003.89,-777.03"/>
<polygon fill="midnightblue" stroke="midnightblue" points="838.3,-784.83 828.57,-789.01 838.78,-791.82 838.3,-784.83"/>
</g>
<!-- Node11&#45;&gt;Node6 -->
<g id="edge38" class="edge">
<title>Node11&#45;&gt;Node6</title>
<path fill="none" stroke="midnightblue" d="M241.25,-523.3C260.39,-559.07 300.58,-625.96 352,-666 409.56,-710.83 601.91,-741.04 656,-790 668.68,-801.47 660.86,-813.06 674,-824 678.67,-827.89 683.95,-831.17 689.51,-833.95"/>
<polygon fill="midnightblue" stroke="midnightblue" points="244.16,-521.32 236.42,-514.09 237.96,-524.57 244.16,-521.32"/>
</g>
<!-- Node11&#45;&gt;Node8 -->
<g id="edge39" class="edge">
<title>Node11&#45;&gt;Node8</title>
<path fill="none" stroke="midnightblue" d="M248.99,-521.72C271.98,-546.88 311.76,-587.5 352,-615 423.07,-663.57 446.58,-667.3 527,-698 582.84,-719.32 608.17,-700.16 656,-736 667.84,-744.87 662.5,-754.7 674,-764 678.36,-767.53 683.17,-770.67 688.22,-773.46"/>
<polygon fill="midnightblue" stroke="midnightblue" points="251.43,-519.21 242.13,-514.13 246.24,-523.9 251.43,-519.21"/>
</g>
<!-- Node12 -->
<g id="node12" class="node">
<title>Node12</title>
<g id="a_node12"><a xlink:href="classFE__Nothing.html" target="_top" xlink:title=" ">
<polygon fill="white" stroke="black" points="1016.5,-201.5 1016.5,-220.5 1140.5,-220.5 1140.5,-201.5 1016.5,-201.5"/>
<text text-anchor="middle" x="1078.5" y="-208.5" font-family="Helvetica,sans-Serif" font-size="10.00">FE_Nothing&lt; dim, dim &gt;</text>
</a>
</g>
</g>
<!-- Node11&#45;&gt;Node12 -->
<g id="edge11" class="edge">
<title>Node11&#45;&gt;Node12</title>
<path fill="none" stroke="midnightblue" d="M242.84,-475.28C262.68,-443.62 302.36,-388.34 352,-361 399.65,-334.75 792.34,-314.75 835,-281 851.25,-268.15 836.47,-250.49 853,-238 899.36,-202.98 967.15,-199.42 1016.1,-202.66"/>
<polygon fill="midnightblue" stroke="midnightblue" points="239.79,-473.57 237.55,-483.92 245.76,-477.22 239.79,-473.57"/>
</g>
<!-- Node13 -->
<g id="node13" class="node">
<title>Node13</title>
<g id="a_node13"><a xlink:href="classFE__Poly.html" target="_top" xlink:title=" ">
<polygon fill="white" stroke="black" points="686.5,-495.5 686.5,-514.5 822.5,-514.5 822.5,-495.5 686.5,-495.5"/>
<text text-anchor="middle" x="754.5" y="-502.5" font-family="Helvetica,sans-Serif" font-size="10.00">FE_Poly&lt; dim, spacedim &gt;</text>
</a>
</g>
</g>
<!-- Node11&#45;&gt;Node13 -->
<g id="edge12" class="edge">
<title>Node11&#45;&gt;Node13</title>
<path fill="none" stroke="midnightblue" d="M290.4,-499.7C389.5,-500.84 583.93,-503.06 686.49,-504.23"/>
<polygon fill="midnightblue" stroke="midnightblue" points="290.29,-496.2 280.25,-499.59 290.21,-503.2 290.29,-496.2"/>
</g>
<!-- Node34 -->
<g id="node26" class="node">
<title>Node34</title>
<g id="a_node26"><a xlink:href="classFE__Poly.html" target="_top" xlink:title=" ">
<polygon fill="white" stroke="black" points="375.5,-586.5 375.5,-605.5 485.5,-605.5 485.5,-586.5 375.5,-586.5"/>
<text text-anchor="middle" x="430.5" y="-593.5" font-family="Helvetica,sans-Serif" font-size="10.00">FE_Poly&lt; dim, dim &gt;</text>
</a>
</g>
</g>
<!-- Node11&#45;&gt;Node34 -->
<g id="edge25" class="edge">
<title>Node11&#45;&gt;Node34</title>
<path fill="none" stroke="midnightblue" d="M269.57,-518.63C312.1,-539.2 377.17,-570.68 409.63,-586.39"/>
<polygon fill="midnightblue" stroke="midnightblue" points="270.85,-515.36 260.33,-514.16 267.81,-521.66 270.85,-515.36"/>
</g>
<!-- Node42 -->
<g id="node34" class="node">
<title>Node42</title>
<g id="a_node34"><a xlink:href="classFE__PolyTensor.html" target="_top" xlink:title=" ">
<polygon fill="white" stroke="black" points="699,-329 699,-359 810,-359 810,-329 699,-329"/>
<text text-anchor="start" x="707" y="-347" font-family="Helvetica,sans-Serif" font-size="10.00">FE_PolyTensor&lt; dim,</text>
<text text-anchor="middle" x="754.5" y="-336" font-family="Helvetica,sans-Serif" font-size="10.00"> spacedim &gt;</text>
</a>
</g>
</g>
<!-- Node11&#45;&gt;Node42 -->
<g id="edge40" class="edge">
<title>Node11&#45;&gt;Node42</title>
<path fill="none" stroke="midnightblue" d="M252.17,-476.75C275.46,-455.76 313.35,-425.16 352,-409 468.94,-360.1 619.28,-347.82 698.69,-344.84"/>
<polygon fill="midnightblue" stroke="midnightblue" points="249.56,-474.4 244.57,-483.74 254.3,-479.55 249.56,-474.4"/>
</g>
<!-- Node49 -->
<g id="node38" class="node">
<title>Node49</title>
<g id="a_node38"><a xlink:href="classFE__PolyTensor.html" target="_top" xlink:title=" ">
<polygon fill="white" stroke="black" points="375,-418 375,-448 486,-448 486,-418 375,-418"/>
<text text-anchor="start" x="383" y="-436" font-family="Helvetica,sans-Serif" font-size="10.00">FE_PolyTensor&lt; dim,</text>
<text text-anchor="middle" x="430.5" y="-425" font-family="Helvetica,sans-Serif" font-size="10.00"> dim &gt;</text>
</a>
</g>
</g>
<!-- Node11&#45;&gt;Node49 -->
<g id="edge44" class="edge">
<title>Node11&#45;&gt;Node49</title>
<path fill="none" stroke="midnightblue" d="M284.59,-480.7C315.76,-470.44 354.16,-457.8 383.6,-448.11"/>
<polygon fill="midnightblue" stroke="midnightblue" points="283.15,-477.49 274.75,-483.94 285.34,-484.14 283.15,-477.49"/>
</g>
<!-- Node14 -->
<g id="node14" class="node">
<title>Node14</title>
<g id="a_node14"><a xlink:href="classFE__DGQ.html" target="_top" xlink:title=" ">
<polygon fill="white" stroke="black" points="1022,-510.5 1022,-529.5 1135,-529.5 1135,-510.5 1022,-510.5"/>
<text text-anchor="middle" x="1078.5" y="-517.5" font-family="Helvetica,sans-Serif" font-size="10.00">FE_DGQ&lt; dim, dim &gt;</text>
</a>
</g>
</g>
<!-- Node13&#45;&gt;Node14 -->
<g id="edge13" class="edge">
<title>Node13&#45;&gt;Node14</title>
<path fill="none" stroke="midnightblue" d="M832.89,-508.6C891.22,-511.32 969.81,-514.98 1021.99,-517.41"/>
<polygon fill="midnightblue" stroke="midnightblue" points="832.76,-505.1 822.61,-508.13 832.44,-512.09 832.76,-505.1"/>
</g>
<!-- Node18 -->
<g id="node18" class="node">
<title>Node18</title>
<g id="a_node18"><a xlink:href="classFE__Pyramid.html" target="_top" xlink:title=" ">
<polygon fill="white" stroke="black" points="1015.5,-643.5 1015.5,-662.5 1141.5,-662.5 1141.5,-643.5 1015.5,-643.5"/>
<text text-anchor="middle" x="1078.5" y="-650.5" font-family="Helvetica,sans-Serif" font-size="10.00">FE_Pyramid&lt; dim, dim &gt;</text>
</a>
</g>
</g>
<!-- Node13&#45;&gt;Node18 -->
<g id="edge17" class="edge">
<title>Node13&#45;&gt;Node18</title>
<path fill="none" stroke="midnightblue" d="M829.58,-519.71C831.48,-521.02 833.29,-522.45 835,-524 853.13,-540.42 835.35,-559.07 853,-576 897.53,-618.74 927.77,-595.52 986,-616 1010.08,-624.47 1037.13,-635.62 1055.53,-643.45"/>
<polygon fill="midnightblue" stroke="midnightblue" points="831.21,-516.6 820.8,-514.61 827.7,-522.66 831.21,-516.6"/>
</g>
<!-- Node21 -->
<g id="node21" class="node">
<title>Node21</title>
<g id="a_node21"><a xlink:href="classFE__Q__Base.html" target="_top" xlink:title=" ">
<polygon fill="white" stroke="red" points="1016,-717.5 1016,-736.5 1141,-736.5 1141,-717.5 1016,-717.5"/>
<text text-anchor="middle" x="1078.5" y="-724.5" font-family="Helvetica,sans-Serif" font-size="10.00">FE_Q_Base&lt; dim, dim &gt;</text>
</a>
</g>
</g>
<!-- Node13&#45;&gt;Node21 -->
<g id="edge20" class="edge">
<title>Node13&#45;&gt;Node21</title>
<path fill="none" stroke="midnightblue" d="M831.08,-520.31C832.45,-521.46 833.76,-522.69 835,-524 866.29,-557.17 823.84,-589.94 853,-625 893.38,-673.55 928.82,-648.21 986,-675 1013.8,-688.02 1044.52,-706.35 1062.35,-717.41"/>
<polygon fill="midnightblue" stroke="midnightblue" points="832.83,-517.26 822.59,-514.54 828.89,-523.05 832.83,-517.26"/>
</g>
<!-- Node28 -->
<g id="node24" class="node">
<title>Node28</title>
<g id="a_node24"><a xlink:href="classFE__SimplexPoly.html" target="_top" xlink:title=" ">
<polygon fill="white" stroke="red" points="1020,-456 1020,-486 1137,-486 1137,-456 1020,-456"/>
<text text-anchor="start" x="1028" y="-474" font-family="Helvetica,sans-Serif" font-size="10.00">FE_SimplexPoly&lt; dim,</text>
<text text-anchor="middle" x="1078.5" y="-463" font-family="Helvetica,sans-Serif" font-size="10.00"> dim &gt;</text>
</a>
</g>
</g>
<!-- Node13&#45;&gt;Node28 -->
<g id="edge23" class="edge">
<title>Node13&#45;&gt;Node28</title>
<path fill="none" stroke="midnightblue" d="M832.76,-496.84C890.33,-490.76 967.69,-482.59 1019.91,-477.08"/>
<polygon fill="midnightblue" stroke="midnightblue" points="832.19,-493.38 822.61,-497.91 832.92,-500.34 832.19,-493.38"/>
</g>
<!-- Node31 -->
<g id="node25" class="node">
<title>Node31</title>
<g id="a_node25"><a xlink:href="classFE__Wedge.html" target="_top" xlink:title=" ">
<polygon fill="white" stroke="red" points="1018.5,-584.5 1018.5,-603.5 1138.5,-603.5 1138.5,-584.5 1018.5,-584.5"/>
<text text-anchor="middle" x="1078.5" y="-591.5" font-family="Helvetica,sans-Serif" font-size="10.00">FE_Wedge&lt; dim, dim &gt;</text>
</a>
</g>
</g>
<!-- Node13&#45;&gt;Node31 -->
<g id="edge24" class="edge">
<title>Node13&#45;&gt;Node31</title>
<path fill="none" stroke="midnightblue" d="M809.6,-516.72C872.33,-530.39 969.29,-551.77 986,-557 1010.86,-564.77 1038.45,-576.36 1056.77,-584.49"/>
<polygon fill="midnightblue" stroke="midnightblue" points="809.98,-513.22 799.47,-514.52 808.49,-520.06 809.98,-513.22"/>
</g>
<!-- Node15 -->
<g id="node15" class="node">
<title>Node15</title>
<g id="a_node15"><a xlink:href="classFE__DGQArbitraryNodes.html" target="_top" xlink:title=" ">
<polygon fill="white" stroke="black" points="1208.5,-456 1208.5,-486 1330.5,-486 1330.5,-456 1208.5,-456"/>
<text text-anchor="start" x="1216.5" y="-474" font-family="Helvetica,sans-Serif" font-size="10.00">FE_DGQArbitraryNodes</text>
<text text-anchor="middle" x="1269.5" y="-463" font-family="Helvetica,sans-Serif" font-size="10.00">&lt; dim, spacedim &gt;</text>
</a>
</g>
</g>
<!-- Node14&#45;&gt;Node15 -->
<g id="edge14" class="edge">
<title>Node14&#45;&gt;Node15</title>
<path fill="none" stroke="midnightblue" d="M1126.18,-507.9C1151.66,-501.29 1183.44,-493.05 1210.5,-486.04"/>
<polygon fill="midnightblue" stroke="midnightblue" points="1125.19,-504.54 1116.39,-510.44 1126.95,-511.31 1125.19,-504.54"/>
</g>
<!-- Node16 -->
<g id="node16" class="node">
<title>Node16</title>
<g id="a_node16"><a xlink:href="classFE__DGQHermite.html" target="_top" xlink:title=" ">
<polygon fill="white" stroke="black" points="1210,-554 1210,-584 1329,-584 1329,-554 1210,-554"/>
<text text-anchor="start" x="1218" y="-572" font-family="Helvetica,sans-Serif" font-size="10.00">FE_DGQHermite&lt; dim,</text>
<text text-anchor="middle" x="1269.5" y="-561" font-family="Helvetica,sans-Serif" font-size="10.00"> spacedim &gt;</text>
</a>
</g>
</g>
<!-- Node14&#45;&gt;Node16 -->
<g id="edge15" class="edge">
<title>Node14&#45;&gt;Node16</title>
<path fill="none" stroke="midnightblue" d="M1126.18,-532.1C1151.66,-538.71 1183.44,-546.95 1210.5,-553.96"/>
<polygon fill="midnightblue" stroke="midnightblue" points="1126.95,-528.69 1116.39,-529.56 1125.19,-535.46 1126.95,-528.69"/>
</g>
<!-- Node17 -->
<g id="node17" class="node">
<title>Node17</title>
<g id="a_node17"><a xlink:href="classFE__DGQLegendre.html" target="_top" xlink:title=" ">
<polygon fill="white" stroke="black" points="1207,-505 1207,-535 1332,-535 1332,-505 1207,-505"/>
<text text-anchor="start" x="1215" y="-523" font-family="Helvetica,sans-Serif" font-size="10.00">FE_DGQLegendre&lt; dim,</text>
<text text-anchor="middle" x="1269.5" y="-512" font-family="Helvetica,sans-Serif" font-size="10.00"> spacedim &gt;</text>
</a>
</g>
</g>
<!-- Node14&#45;&gt;Node17 -->
<g id="edge16" class="edge">
<title>Node14&#45;&gt;Node17</title>
<path fill="none" stroke="midnightblue" d="M1145.44,-520C1165.41,-520 1187.26,-520 1206.93,-520"/>
<polygon fill="midnightblue" stroke="midnightblue" points="1145.18,-516.5 1135.18,-520 1145.18,-523.5 1145.18,-516.5"/>
</g>
<!-- Node19 -->
<g id="node19" class="node">
<title>Node19</title>
<g id="a_node19"><a xlink:href="classFE__PyramidDGP.html" target="_top" xlink:title=" ">
<polygon fill="white" stroke="black" points="1209.5,-615 1209.5,-645 1329.5,-645 1329.5,-615 1209.5,-615"/>
<text text-anchor="start" x="1217.5" y="-633" font-family="Helvetica,sans-Serif" font-size="10.00">FE_PyramidDGP&lt; dim,</text>
<text text-anchor="middle" x="1269.5" y="-622" font-family="Helvetica,sans-Serif" font-size="10.00"> spacedim &gt;</text>
</a>
</g>
</g>
<!-- Node18&#45;&gt;Node19 -->
<g id="edge18" class="edge">
<title>Node18&#45;&gt;Node19</title>
<path fill="none" stroke="midnightblue" d="M1151.74,-644.21C1170.73,-641.9 1190.98,-639.43 1209.2,-637.22"/>
<polygon fill="midnightblue" stroke="midnightblue" points="1151.15,-640.75 1141.65,-645.44 1152,-647.7 1151.15,-640.75"/>
</g>
<!-- Node20 -->
<g id="node20" class="node">
<title>Node20</title>
<g id="a_node20"><a xlink:href="classFE__PyramidP.html" target="_top" xlink:title=" ">
<polygon fill="white" stroke="black" points="1190,-664.5 1190,-683.5 1349,-683.5 1349,-664.5 1190,-664.5"/>
<text text-anchor="middle" x="1269.5" y="-671.5" font-family="Helvetica,sans-Serif" font-size="10.00">FE_PyramidP&lt; dim, spacedim &gt;</text>
</a>
</g>
</g>
<!-- Node18&#45;&gt;Node20 -->
<g id="edge19" class="edge">
<title>Node18&#45;&gt;Node20</title>
<path fill="none" stroke="midnightblue" d="M1151.91,-661.05C1164.3,-662.42 1177.23,-663.86 1189.78,-665.25"/>
<polygon fill="midnightblue" stroke="midnightblue" points="1151.97,-657.53 1141.65,-659.91 1151.2,-664.49 1151.97,-657.53"/>
</g>
<!-- Node22 -->
<g id="node22" class="node">
<title>Node22</title>
<g id="a_node22"><a xlink:href="classFE__Bernstein.html" target="_top" xlink:title=" ">
<polygon fill="white" stroke="black" points="1217.5,-709 1217.5,-739 1321.5,-739 1321.5,-709 1217.5,-709"/>
<text text-anchor="start" x="1225.5" y="-727" font-family="Helvetica,sans-Serif" font-size="10.00">FE_Bernstein&lt; dim,</text>
<text text-anchor="middle" x="1269.5" y="-716" font-family="Helvetica,sans-Serif" font-size="10.00"> spacedim &gt;</text>
</a>
</g>
</g>
<!-- Node21&#45;&gt;Node22 -->
<g id="edge21" class="edge">
<title>Node21&#45;&gt;Node22</title>
<path fill="none" stroke="midnightblue" d="M1151.41,-725.86C1173.39,-725.51 1197.09,-725.13 1217.38,-724.81"/>
<polygon fill="midnightblue" stroke="midnightblue" points="1151.07,-722.36 1141.12,-726.02 1151.18,-729.36 1151.07,-722.36"/>
</g>
<!-- Node23 -->
<g id="node23" class="node">
<title>Node23</title>
<g id="a_node23"><a xlink:href="classFE__Q.html" target="_top" xlink:title=" ">
<polygon fill="white" stroke="red" points="1207.5,-758.5 1207.5,-777.5 1331.5,-777.5 1331.5,-758.5 1207.5,-758.5"/>
<text text-anchor="middle" x="1269.5" y="-765.5" font-family="Helvetica,sans-Serif" font-size="10.00">FE_Q&lt; dim, spacedim &gt;</text>
</a>
</g>
</g>
<!-- Node21&#45;&gt;Node23 -->
<g id="edge22" class="edge">
<title>Node21&#45;&gt;Node23</title>
<path fill="none" stroke="midnightblue" d="M1133.27,-738.66C1162.17,-744.93 1197.34,-752.56 1224.58,-758.47"/>
<polygon fill="midnightblue" stroke="midnightblue" points="1133.85,-735.21 1123.34,-736.51 1132.37,-742.05 1133.85,-735.21"/>
</g>
<!-- Node35 -->
<g id="node27" class="node">
<title>Node35</title>
<g id="a_node27"><a xlink:href="classFE__DGP.html" target="_top" xlink:title=" ">
<polygon fill="white" stroke="black" points="685.5,-533.5 685.5,-552.5 823.5,-552.5 823.5,-533.5 685.5,-533.5"/>
<text text-anchor="middle" x="754.5" y="-540.5" font-family="Helvetica,sans-Serif" font-size="10.00">FE_DGP&lt; dim, spacedim &gt;</text>
</a>
</g>
</g>
<!-- Node34&#45;&gt;Node35 -->
<g id="edge26" class="edge">
<title>Node34&#45;&gt;Node35</title>
<path fill="none" stroke="midnightblue" d="M495.97,-585.39C554.35,-575.78 639.56,-561.75 695.75,-552.5"/>
<polygon fill="midnightblue" stroke="midnightblue" points="495.06,-581.99 485.76,-587.07 496.19,-588.9 495.06,-581.99"/>
</g>
<!-- Node36 -->
<g id="node28" class="node">
<title>Node36</title>
<g id="a_node28"><a xlink:href="classFE__DGQ.html" target="_top" xlink:title=" ">
<polygon fill="white" stroke="black" points="685,-571.5 685,-590.5 824,-590.5 824,-571.5 685,-571.5"/>
<text text-anchor="middle" x="754.5" y="-578.5" font-family="Helvetica,sans-Serif" font-size="10.00">FE_DGQ&lt; dim, spacedim &gt;</text>
</a>
</g>
</g>
<!-- Node34&#45;&gt;Node36 -->
<g id="edge27" class="edge">
<title>Node34&#45;&gt;Node36</title>
<path fill="none" stroke="midnightblue" d="M496.04,-592.99C550.79,-590.44 629.13,-586.79 684.99,-584.19"/>
<polygon fill="midnightblue" stroke="midnightblue" points="495.59,-589.51 485.76,-593.47 495.91,-596.5 495.59,-589.51"/>
</g>
<!-- Node37 -->
<g id="node29" class="node">
<title>Node37</title>
<g id="a_node29"><a xlink:href="classFE__Pyramid.html" target="_top" xlink:title=" ">
<polygon fill="white" stroke="black" points="678.5,-647.5 678.5,-666.5 830.5,-666.5 830.5,-647.5 678.5,-647.5"/>
<text text-anchor="middle" x="754.5" y="-654.5" font-family="Helvetica,sans-Serif" font-size="10.00">FE_Pyramid&lt; dim, spacedim &gt;</text>
</a>
</g>
</g>
<!-- Node34&#45;&gt;Node37 -->
<g id="edge29" class="edge">
<title>Node34&#45;&gt;Node37</title>
<path fill="none" stroke="midnightblue" d="M474.7,-608.27C491,-612.65 509.78,-617.39 527,-621 578.54,-631.81 637.27,-641.06 682.02,-647.48"/>
<polygon fill="midnightblue" stroke="midnightblue" points="475.47,-604.85 464.9,-605.6 473.63,-611.61 475.47,-604.85"/>
</g>
<!-- Node38 -->
<g id="node30" class="node">
<title>Node38</title>
<g id="a_node30"><a xlink:href="classFE__Q__Base.html" target="_top" xlink:title=" ">
<polygon fill="white" stroke="red" points="678.5,-685.5 678.5,-704.5 830.5,-704.5 830.5,-685.5 678.5,-685.5"/>
<text text-anchor="middle" x="754.5" y="-692.5" font-family="Helvetica,sans-Serif" font-size="10.00">FE_Q_Base&lt; dim, spacedim &gt;</text>
</a>
</g>
</g>
<!-- Node34&#45;&gt;Node38 -->
<g id="edge31" class="edge">
<title>Node34&#45;&gt;Node38</title>
<path fill="none" stroke="midnightblue" d="M455.57,-610.93C474.4,-622.03 501.56,-636.78 527,-646 543.67,-652.04 644.75,-672.99 706.1,-685.46"/>
<polygon fill="midnightblue" stroke="midnightblue" points="457.17,-607.81 446.79,-605.67 453.56,-613.81 457.17,-607.81"/>
</g>
<!-- Node39 -->
<g id="node31" class="node">
<title>Node39</title>
<g id="a_node31"><a xlink:href="classFE__SimplexP__Bubbles.html" target="_top" xlink:title="Enriched version of FE_P that can be used with nodal quadrature.">
<polygon fill="white" stroke="black" points="696,-724 696,-754 813,-754 813,-724 696,-724"/>
<text text-anchor="start" x="704" y="-742" font-family="Helvetica,sans-Serif" font-size="10.00">FE_SimplexP_Bubbles</text>
<text text-anchor="middle" x="754.5" y="-731" font-family="Helvetica,sans-Serif" font-size="10.00">&lt; dim, spacedim &gt;</text>
</a>
</g>
</g>
<!-- Node34&#45;&gt;Node39 -->
<g id="edge33" class="edge">
<title>Node34&#45;&gt;Node39</title>
<path fill="none" stroke="midnightblue" d="M447.74,-613.16C465.52,-630.89 495.68,-658.02 527,-673 579.93,-698.32 602.42,-677.1 656,-701 665.01,-705.02 665.18,-709.57 674,-714 681.37,-717.7 689.4,-720.99 697.43,-723.87"/>
<polygon fill="midnightblue" stroke="midnightblue" points="449.99,-610.45 440.49,-605.76 444.99,-615.35 449.99,-610.45"/>
</g>
<!-- Node40 -->
<g id="node32" class="node">
<title>Node40</title>
<g id="a_node32"><a xlink:href="classFE__SimplexPoly.html" target="_top" xlink:title=" ">
<polygon fill="white" stroke="black" points="696,-446 696,-476 813,-476 813,-446 696,-446"/>
<text text-anchor="start" x="704" y="-464" font-family="Helvetica,sans-Serif" font-size="10.00">FE_SimplexPoly&lt; dim,</text>
<text text-anchor="middle" x="754.5" y="-453" font-family="Helvetica,sans-Serif" font-size="10.00"> spacedim &gt;</text>
</a>
</g>
</g>
<!-- Node34&#45;&gt;Node40 -->
<g id="edge34" class="edge">
<title>Node34&#45;&gt;Node40</title>
<path fill="none" stroke="midnightblue" d="M459.74,-581.83C504.49,-559.7 594.75,-516.31 674,-486 683.05,-482.54 692.81,-479.17 702.29,-476.1"/>
<polygon fill="midnightblue" stroke="midnightblue" points="458.05,-578.77 450.65,-586.35 461.16,-585.04 458.05,-578.77"/>
</g>
<!-- Node41 -->
<g id="node33" class="node">
<title>Node41</title>
<g id="a_node33"><a xlink:href="classFE__Wedge.html" target="_top" xlink:title=" ">
<polygon fill="white" stroke="black" points="681.5,-609.5 681.5,-628.5 827.5,-628.5 827.5,-609.5 681.5,-609.5"/>
<text text-anchor="middle" x="754.5" y="-616.5" font-family="Helvetica,sans-Serif" font-size="10.00">FE_Wedge&lt; dim, spacedim &gt;</text>
</a>
</g>
</g>
<!-- Node34&#45;&gt;Node41 -->
<g id="edge36" class="edge">
<title>Node34&#45;&gt;Node41</title>
<path fill="none" stroke="midnightblue" d="M495.83,-600.6C549.45,-604.43 625.8,-609.88 681.46,-613.85"/>
<polygon fill="midnightblue" stroke="midnightblue" points="495.98,-597.1 485.76,-599.88 495.48,-604.08 495.98,-597.1"/>
</g>
<!-- Node36&#45;&gt;Node14 -->
<g id="edge28" class="edge">
<title>Node36&#45;&gt;Node14</title>
<path fill="none" stroke="orange" stroke-dasharray="5,2" d="M815.69,-569.6C876.72,-558.04 970.09,-540.35 1027.28,-529.51"/>
<polygon fill="orange" stroke="orange" points="814.99,-566.17 805.81,-571.47 816.29,-573.05 814.99,-566.17"/>
<text text-anchor="middle" x="919.5" y="-564" font-family="Helvetica,sans-Serif" font-size="10.00"> &lt; dim, dim &gt;</text>
</g>
<!-- Node37&#45;&gt;Node18 -->
<g id="edge30" class="edge">
<title>Node37&#45;&gt;Node18</title>
<path fill="none" stroke="orange" stroke-dasharray="5,2" d="M840.65,-655.94C895.52,-655.26 965.62,-654.39 1015.29,-653.77"/>
<polygon fill="orange" stroke="orange" points="840.54,-652.44 830.59,-656.07 840.63,-659.44 840.54,-652.44"/>
<text text-anchor="middle" x="919.5" y="-658" font-family="Helvetica,sans-Serif" font-size="10.00"> &lt; dim, dim &gt;</text>
</g>
<!-- Node38&#45;&gt;Node21 -->
<g id="edge32" class="edge">
<title>Node38&#45;&gt;Node21</title>
<path fill="none" stroke="orange" stroke-dasharray="5,2" d="M840.68,-703.47C895.74,-708.94 966.13,-715.93 1015.81,-720.87"/>
<polygon fill="orange" stroke="orange" points="840.89,-699.97 830.59,-702.46 840.19,-706.93 840.89,-699.97"/>
<text text-anchor="middle" x="919.5" y="-720" font-family="Helvetica,sans-Serif" font-size="10.00"> &lt; dim, dim &gt;</text>
</g>
<!-- Node40&#45;&gt;Node28 -->
<g id="edge35" class="edge">
<title>Node40&#45;&gt;Node28</title>
<path fill="none" stroke="orange" stroke-dasharray="5,2" d="M823.42,-463.02C869.32,-464.4 931.31,-466.27 986,-468 996.96,-468.35 1008.66,-468.72 1019.9,-469.09"/>
<polygon fill="orange" stroke="orange" points="823.39,-459.52 813.29,-462.72 823.18,-466.51 823.39,-459.52"/>
<text text-anchor="middle" x="919.5" y="-471" font-family="Helvetica,sans-Serif" font-size="10.00"> &lt; dim, dim &gt;</text>
</g>
<!-- Node41&#45;&gt;Node31 -->
<g id="edge37" class="edge">
<title>Node41&#45;&gt;Node31</title>
<path fill="none" stroke="orange" stroke-dasharray="5,2" d="M838.08,-612.59C894.46,-608.21 967.82,-602.52 1018.4,-598.59"/>
<polygon fill="orange" stroke="orange" points="837.46,-609.13 827.76,-613.39 838,-616.1 837.46,-609.13"/>
<text text-anchor="middle" x="919.5" y="-613" font-family="Helvetica,sans-Serif" font-size="10.00"> &lt; dim, dim &gt;</text>
</g>
<!-- Node43 -->
<g id="node35" class="node">
<title>Node43</title>
<g id="a_node35"><a xlink:href="classFE__DGVector.html" target="_top" xlink:title=" ">
<polygon fill="white" stroke="red" points="1008.5,-302.5 1008.5,-343.5 1148.5,-343.5 1148.5,-302.5 1008.5,-302.5"/>
<text text-anchor="start" x="1016.5" y="-331.5" font-family="Helvetica,sans-Serif" font-size="10.00">FE_DGVector&lt; Polynomials</text>
<text text-anchor="start" x="1016.5" y="-320.5" font-family="Helvetica,sans-Serif" font-size="10.00">RaviartThomas&lt; dim &gt;,</text>
<text text-anchor="middle" x="1078.5" y="-309.5" font-family="Helvetica,sans-Serif" font-size="10.00"> dim, dim &gt;</text>
</a>
</g>
</g>
<!-- Node42&#45;&gt;Node43 -->
<g id="edge41" class="edge">
<title>Node42&#45;&gt;Node43</title>
<path fill="none" stroke="midnightblue" d="M818.52,-324.43C824.36,-321.39 829.96,-317.93 835,-314 846.08,-305.35 840.55,-294.52 853,-288 911.53,-257.34 989.57,-281.78 1036.54,-302.35"/>
<polygon fill="midnightblue" stroke="midnightblue" points="816.72,-321.41 809.19,-328.86 819.73,-327.73 816.72,-321.41"/>
</g>
<!-- Node45 -->
<g id="node36" class="node">
<title>Node45</title>
<g id="a_node36"><a xlink:href="classFE__DGVector.html" target="_top" xlink:title=" ">
<polygon fill="white" stroke="red" points="1008.5,-392 1008.5,-422 1148.5,-422 1148.5,-392 1008.5,-392"/>
<text text-anchor="start" x="1016.5" y="-410" font-family="Helvetica,sans-Serif" font-size="10.00">FE_DGVector&lt; Polynomials</text>
<text text-anchor="middle" x="1078.5" y="-399" font-family="Helvetica,sans-Serif" font-size="10.00">BDM&lt; dim &gt;, dim, dim &gt;</text>
</a>
</g>
</g>
<!-- Node42&#45;&gt;Node45 -->
<g id="edge42" class="edge">
<title>Node42&#45;&gt;Node45</title>
<path fill="none" stroke="midnightblue" d="M820.18,-340.61C867.08,-339.9 931.56,-342.57 986,-358 1011.49,-365.22 1037.87,-380.31 1055.72,-391.84"/>
<polygon fill="midnightblue" stroke="midnightblue" points="820.08,-337.11 810.16,-340.82 820.23,-344.11 820.08,-337.11"/>
</g>
<!-- Node47 -->
<g id="node37" class="node">
<title>Node47</title>
<g id="a_node37"><a xlink:href="classFE__DGVector.html" target="_top" xlink:title=" ">
<polygon fill="white" stroke="red" points="1008.5,-243 1008.5,-273 1148.5,-273 1148.5,-243 1008.5,-243"/>
<text text-anchor="start" x="1016.5" y="-261" font-family="Helvetica,sans-Serif" font-size="10.00">FE_DGVector&lt; Polynomials</text>
<text text-anchor="middle" x="1078.5" y="-250" font-family="Helvetica,sans-Serif" font-size="10.00">Nedelec&lt; dim &gt;, dim, dim &gt;</text>
</a>
</g>
</g>
<!-- Node42&#45;&gt;Node47 -->
<g id="edge43" class="edge">
<title>Node42&#45;&gt;Node47</title>
<path fill="none" stroke="midnightblue" d="M819.5,-325.55C825.14,-322.29 830.44,-318.47 835,-314 850.38,-298.92 835.46,-281.51 853,-269 897.48,-237.27 960.45,-236.96 1008.38,-243.19"/>
<polygon fill="midnightblue" stroke="midnightblue" points="817.69,-322.54 810.38,-330.22 820.88,-328.77 817.69,-322.54"/>
</g>
<!-- Node50 -->
<g id="node39" class="node">
<title>Node50</title>
<g id="a_node39"><a xlink:href="classFE__DGVector.html" target="_top" xlink:title=" ">
<polygon fill="white" stroke="black" points="675,-390 675,-420 834,-420 834,-390 675,-390"/>
<text text-anchor="start" x="683" y="-408" font-family="Helvetica,sans-Serif" font-size="10.00">FE_DGVector&lt; PolynomialType,</text>
<text text-anchor="middle" x="754.5" y="-397" font-family="Helvetica,sans-Serif" font-size="10.00"> dim, spacedim &gt;</text>
</a>
</g>
</g>
<!-- Node49&#45;&gt;Node50 -->
<g id="edge45" class="edge">
<title>Node49&#45;&gt;Node50</title>
<path fill="none" stroke="midnightblue" d="M496.13,-427.38C547.6,-422.9 619.87,-416.62 674.73,-411.85"/>
<polygon fill="midnightblue" stroke="midnightblue" points="495.78,-423.9 486.12,-428.25 496.39,-430.87 495.78,-423.9"/>
</g>
<!-- Node50&#45;&gt;Node43 -->
<g id="edge46" class="edge">
<title>Node50&#45;&gt;Node43</title>
<path fill="none" stroke="orange" stroke-dasharray="5,2" d="M820.89,-387.41C831.61,-384.57 842.61,-381.68 853,-379 904.93,-365.6 963.75,-350.95 1008.15,-339.99"/>
<polygon fill="orange" stroke="orange" points="819.91,-384.05 811.14,-390 821.71,-390.81 819.91,-384.05"/>
<text text-anchor="start" x="853" y="-393" font-family="Helvetica,sans-Serif" font-size="10.00"> &lt; PolynomialsRaviartThomas</text>
<text text-anchor="middle" x="919.5" y="-382" font-family="Helvetica,sans-Serif" font-size="10.00">&lt; dim &gt;, dim, dim &gt;</text>
</g>
<!-- Node50&#45;&gt;Node45 -->
<g id="edge47" class="edge">
<title>Node50&#45;&gt;Node45</title>
<path fill="none" stroke="orange" stroke-dasharray="5,2" d="M844.44,-405.55C896.15,-405.87 960.37,-406.27 1008.29,-406.57"/>
<polygon fill="orange" stroke="orange" points="844.29,-402.05 834.27,-405.49 844.25,-409.05 844.29,-402.05"/>
<text text-anchor="start" x="863" y="-420" font-family="Helvetica,sans-Serif" font-size="10.00"> &lt; PolynomialsBDM&lt; dim</text>
<text text-anchor="middle" x="919.5" y="-409" font-family="Helvetica,sans-Serif" font-size="10.00"> &gt;, dim, dim &gt;</text>
</g>
<!-- Node50&#45;&gt;Node47 -->
<g id="edge48" class="edge">
<title>Node50&#45;&gt;Node47</title>
<path fill="none" stroke="orange" stroke-dasharray="5,2" d="M813.82,-385.29C821.63,-380.83 829,-375.45 835,-369 850.79,-352.01 835.93,-335.71 853,-320 875.72,-299.08 951.25,-281.05 1008.49,-269.91"/>
<polygon fill="orange" stroke="orange" points="812.12,-382.22 804.86,-389.94 815.35,-388.44 812.12,-382.22"/>
<text text-anchor="start" x="868.5" y="-334" font-family="Helvetica,sans-Serif" font-size="10.00"> &lt; PolynomialsNedelec</text>
<text text-anchor="middle" x="919.5" y="-323" font-family="Helvetica,sans-Serif" font-size="10.00">&lt; dim &gt;, dim, dim &gt;</text>
</g>
<!-- Node52 -->
<g id="node41" class="node">
<title>Node52</title>
<g id="a_node41"><a xlink:href="classFE__FaceQ_3_011_00_01spacedim_01_4.html" target="_top" xlink:title=" ">
<polygon fill="white" stroke="black" points="363,-38.5 363,-57.5 498,-57.5 498,-38.5 363,-38.5"/>
<text text-anchor="middle" x="430.5" y="-45.5" font-family="Helvetica,sans-Serif" font-size="10.00">FE_FaceQ&lt; 1, spacedim &gt;</text>
</a>
</g>
</g>
<!-- Node51&#45;&gt;Node52 -->
<g id="edge50" class="edge">
<title>Node51&#45;&gt;Node52</title>
<path fill="none" stroke="midnightblue" d="M254.13,-151.21C295.82,-126.67 378.16,-78.22 413.15,-57.62"/>
<polygon fill="midnightblue" stroke="midnightblue" points="252.25,-148.26 245.41,-156.34 255.8,-154.29 252.25,-148.26"/>
</g>
<!-- Node53 -->
<g id="node42" class="node">
<title>Node53</title>
<g id="a_node42"><a xlink:href="classFE__FaceP_3_011_00_01spacedim_01_4.html" target="_top" xlink:title=" ">
<polygon fill="white" stroke="black" points="687.5,-38.5 687.5,-57.5 821.5,-57.5 821.5,-38.5 687.5,-38.5"/>
<text text-anchor="middle" x="754.5" y="-45.5" font-family="Helvetica,sans-Serif" font-size="10.00">FE_FaceP&lt; 1, spacedim &gt;</text>
</a>
</g>
</g>
<!-- Node52&#45;&gt;Node53 -->
<g id="edge51" class="edge">
<title>Node52&#45;&gt;Node53</title>
<path fill="none" stroke="midnightblue" d="M508.53,-48C563.08,-48 635.49,-48 687.42,-48"/>
<polygon fill="midnightblue" stroke="midnightblue" points="508.22,-44.5 498.22,-48 508.22,-51.5 508.22,-44.5"/>
</g>
<!-- Node54 -->
<g id="node43" class="node">
<title>Node54</title>
<g id="a_node43"><a xlink:href="classFE__TraceQ_3_011_00_01spacedim_01_4.html" target="_top" xlink:title=" ">
<polygon fill="white" stroke="black" points="685.5,-0.5 685.5,-19.5 823.5,-19.5 823.5,-0.5 685.5,-0.5"/>
<text text-anchor="middle" x="754.5" y="-7.5" font-family="Helvetica,sans-Serif" font-size="10.00">FE_TraceQ&lt; 1, spacedim &gt;</text>
</a>
</g>
</g>
<!-- Node52&#45;&gt;Node54 -->
<g id="edge52" class="edge">
<title>Node52&#45;&gt;Node54</title>
<path fill="none" stroke="midnightblue" d="M508.41,-38.92C562.3,-32.56 633.67,-24.14 685.48,-18.03"/>
<polygon fill="midnightblue" stroke="midnightblue" points="507.74,-35.48 498.22,-40.13 508.56,-42.43 507.74,-35.48"/>
</g>
<!-- Node55&#45;&gt;Node13 -->
<g id="edge60" class="edge">
<title>Node55&#45;&gt;Node13</title>
<path fill="none" stroke="midnightblue" d="M447.05,-257.63C481.5,-308.01 569.56,-426.26 674,-486 680.77,-489.88 688.31,-492.96 695.96,-495.42"/>
<polygon fill="midnightblue" stroke="midnightblue" points="449.74,-255.36 441.24,-249.04 443.94,-259.28 449.74,-255.36"/>
</g>
<!-- Node55&#45;&gt;Node42 -->
<g id="edge61" class="edge">
<title>Node55&#45;&gt;Node42</title>
<path fill="none" stroke="midnightblue" d="M485.33,-252.39C548.22,-273.87 651.06,-309.01 709.42,-328.94"/>
<polygon fill="midnightblue" stroke="midnightblue" points="486.19,-248.99 475.6,-249.06 483.93,-255.61 486.19,-248.99"/>
</g>
<!-- Node56 -->
<g id="node45" class="node">
<title>Node56</title>
<g id="a_node45"><a xlink:href="classFESystem.html" target="_top" xlink:title=" ">
<polygon fill="white" stroke="black" points="682,-252.5 682,-271.5 827,-271.5 827,-252.5 682,-252.5"/>
<text text-anchor="middle" x="754.5" y="-259.5" font-family="Helvetica,sans-Serif" font-size="10.00">FESystem&lt; dim, spacedim &gt;</text>
</a>
</g>
</g>
<!-- Node55&#45;&gt;Node56 -->
<g id="edge54" class="edge">
<title>Node55&#45;&gt;Node56</title>
<path fill="none" stroke="midnightblue" d="M492.61,-239.31C546.46,-244 624.95,-250.82 681.76,-255.76"/>
<polygon fill="midnightblue" stroke="midnightblue" points="492.79,-235.82 482.52,-238.44 492.18,-242.79 492.79,-235.82"/>
</g>
<!-- Node57 -->
<g id="node46" class="node">
<title>Node57</title>
<g id="a_node46"><a xlink:href="classFE__DGPNonparametric.html" target="_top" xlink:title=" ">
<polygon fill="white" stroke="black" points="694.5,-203 694.5,-233 814.5,-233 814.5,-203 694.5,-203"/>
<text text-anchor="start" x="702.5" y="-221" font-family="Helvetica,sans-Serif" font-size="10.00">FE_DGPNonparametric</text>
<text text-anchor="middle" x="754.5" y="-210" font-family="Helvetica,sans-Serif" font-size="10.00">&lt; dim, spacedim &gt;</text>
</a>
</g>
</g>
<!-- Node55&#45;&gt;Node57 -->
<g id="edge55" class="edge">
<title>Node55&#45;&gt;Node57</title>
<path fill="none" stroke="midnightblue" d="M492.63,-230.96C550.55,-228.08 636.96,-223.79 694.25,-220.94"/>
<polygon fill="midnightblue" stroke="midnightblue" points="492.34,-227.47 482.52,-231.46 492.68,-234.46 492.34,-227.47"/>
</g>
<!-- Node58 -->
<g id="node47" class="node">
<title>Node58</title>
<g id="a_node47"><a xlink:href="classFE__Enriched.html" target="_top" xlink:title=" ">
<polygon fill="white" stroke="black" points="677,-164.5 677,-183.5 832,-183.5 832,-164.5 677,-164.5"/>
<text text-anchor="middle" x="754.5" y="-171.5" font-family="Helvetica,sans-Serif" font-size="10.00">FE_Enriched&lt; dim, spacedim &gt;</text>
</a>
</g>
</g>
<!-- Node55&#45;&gt;Node58 -->
<g id="edge56" class="edge">
<title>Node55&#45;&gt;Node58</title>
<path fill="none" stroke="midnightblue" d="M492.36,-222.66C553.11,-211.34 645.41,-194.14 702.45,-183.51"/>
<polygon fill="midnightblue" stroke="midnightblue" points="491.71,-219.22 482.52,-224.49 492.99,-226.1 491.71,-219.22"/>
</g>
<!-- Node59 -->
<g id="node48" class="node">
<title>Node59</title>
<g id="a_node48"><a xlink:href="classFE__NedelecSZ.html" target="_top" xlink:title=" ">
<polygon fill="white" stroke="black" points="699,-115 699,-145 810,-145 810,-115 699,-115"/>
<text text-anchor="start" x="707" y="-133" font-family="Helvetica,sans-Serif" font-size="10.00">FE_NedelecSZ&lt; dim,</text>
<text text-anchor="middle" x="754.5" y="-122" font-family="Helvetica,sans-Serif" font-size="10.00"> spacedim &gt;</text>
</a>
</g>
</g>
<!-- Node55&#45;&gt;Node59 -->
<g id="edge57" class="edge">
<title>Node55&#45;&gt;Node59</title>
<path fill="none" stroke="midnightblue" d="M468.96,-214.37C486.3,-205.8 507.37,-196.11 527,-189 584.31,-168.24 652.22,-151.55 698.64,-141.29"/>
<polygon fill="midnightblue" stroke="midnightblue" points="467.12,-211.38 459.75,-218.99 470.25,-217.64 467.12,-211.38"/>
</g>
<!-- Node60 -->
<g id="node49" class="node">
<title>Node60</title>
<g id="a_node49"><a xlink:href="classFE__Nothing.html" target="_top" xlink:title=" ">
<polygon fill="white" stroke="black" points="679.5,-76.5 679.5,-95.5 829.5,-95.5 829.5,-76.5 679.5,-76.5"/>
<text text-anchor="middle" x="754.5" y="-83.5" font-family="Helvetica,sans-Serif" font-size="10.00">FE_Nothing&lt; dim, spacedim &gt;</text>
</a>
</g>
</g>
<!-- Node55&#45;&gt;Node60 -->
<g id="edge58" class="edge">
<title>Node55&#45;&gt;Node60</title>
<path fill="none" stroke="midnightblue" d="M450.88,-211.12C468.75,-191.42 496.99,-163.61 527,-147 576.26,-119.74 638.37,-104.13 685.09,-95.54"/>
<polygon fill="midnightblue" stroke="midnightblue" points="448.13,-208.95 444.11,-218.76 453.36,-213.6 448.13,-208.95"/>
</g>
<!-- Node60&#45;&gt;Node12 -->
<g id="edge59" class="edge">
<title>Node60&#45;&gt;Node12</title>
<path fill="none" stroke="orange" stroke-dasharray="5,2" d="M808.67,-98.1C817.53,-100.48 826.58,-103.14 835,-106 920.57,-135.08 1018.05,-181.58 1058.43,-201.47"/>
<polygon fill="orange" stroke="orange" points="809.34,-94.66 798.78,-95.54 807.58,-101.44 809.34,-94.66"/>
<text text-anchor="middle" x="919.5" y="-167" font-family="Helvetica,sans-Serif" font-size="10.00"> &lt; dim, dim &gt;</text>
</g>
</g>
</svg>
