<?xml version="1.0" encoding="UTF-8" standalone="no"?>
<!DOCTYPE svg PUBLIC "-//W3C//DTD SVG 1.1//EN"
 "http://www.w3.org/Graphics/SVG/1.1/DTD/svg11.dtd">
<!-- Generated by graphviz version 2.47.1 (20210417.1919)
 -->
<!-- Title: MGLevelGlobalTransfer&lt; LinearAlgebra::distributed::Vector&lt; Number &gt; &gt; Pages: 1 -->
<svg width="271pt" height="321pt"
 viewBox="0.00 0.00 271.00 321.00" xmlns="http://www.w3.org/2000/svg" xmlns:xlink="http://www.w3.org/1999/xlink">
<g id="graph0" class="graph" transform="scale(1 1) rotate(0) translate(4 317)">
<title>MGLevelGlobalTransfer&lt; LinearAlgebra::distributed::Vector&lt; Number &gt; &gt;</title>
<polygon fill="white" stroke="transparent" points="-4,4 -4,-317 267,-317 267,4 -4,4"/>
<!-- Node1 -->
<g id="node1" class="node">
<title>Node1</title>
<g id="a_node1"><a xlink:title=" ">
<polygon fill="#bfbfbf" stroke="black" points="14,-68.5 14,-109.5 150,-109.5 150,-68.5 14,-68.5"/>
<text text-anchor="start" x="22" y="-97.5" font-family="Helvetica,sans-Serif" font-size="10.00">MGLevelGlobalTransfer</text>
<text text-anchor="start" x="22" y="-86.5" font-family="Helvetica,sans-Serif" font-size="10.00">&lt; LinearAlgebra::distributed</text>
<text text-anchor="middle" x="82" y="-75.5" font-family="Helvetica,sans-Serif" font-size="10.00">::Vector&lt; Number &gt; &gt;</text>
</a>
</g>
</g>
<!-- Node5 -->
<g id="node5" class="node">
<title>Node5</title>
<g id="a_node5"><a xlink:href="classMGTransferMatrixFree.html" target="_top" xlink:title=" ">
<polygon fill="white" stroke="black" points="24.5,-0.5 24.5,-30.5 139.5,-30.5 139.5,-0.5 24.5,-0.5"/>
<text text-anchor="start" x="32.5" y="-18.5" font-family="Helvetica,sans-Serif" font-size="10.00">MGTransferMatrixFree</text>
<text text-anchor="middle" x="82" y="-7.5" font-family="Helvetica,sans-Serif" font-size="10.00">&lt; dim, Number &gt;</text>
</a>
</g>
</g>
<!-- Node1&#45;&gt;Node5 -->
<g id="edge5" class="edge">
<title>Node1&#45;&gt;Node5</title>
<path fill="none" stroke="midnightblue" d="M82,-58.16C82,-48.69 82,-38.65 82,-30.8"/>
<polygon fill="midnightblue" stroke="midnightblue" points="78.5,-58.46 82,-68.46 85.5,-58.46 78.5,-58.46"/>
</g>
<!-- Node2 -->
<g id="node2" class="node">
<title>Node2</title>
<g id="a_node2"><a xlink:href="classMGTransferBase.html" target="_top" xlink:title=" ">
<polygon fill="white" stroke="black" points="0,-147.5 0,-177.5 164,-177.5 164,-147.5 0,-147.5"/>
<text text-anchor="start" x="8" y="-165.5" font-family="Helvetica,sans-Serif" font-size="10.00">MGTransferBase&lt; LinearAlgebra</text>
<text text-anchor="middle" x="82" y="-154.5" font-family="Helvetica,sans-Serif" font-size="10.00">::distributed::Vector&lt; Number &gt; &gt;</text>
</a>
</g>
</g>
<!-- Node2&#45;&gt;Node1 -->
<g id="edge1" class="edge">
<title>Node2&#45;&gt;Node1</title>
<path fill="none" stroke="midnightblue" d="M82,-137.1C82,-128.1 82,-118.02 82,-109.51"/>
<polygon fill="midnightblue" stroke="midnightblue" points="78.5,-137.37 82,-147.37 85.5,-137.37 78.5,-137.37"/>
</g>
<!-- Node3 -->
<g id="node3" class="node">
<title>Node3</title>
<g id="a_node3"><a xlink:href="classSubscriptor.html" target="_top" xlink:title=" ">
<polygon fill="white" stroke="black" points="45,-293.5 45,-312.5 111,-312.5 111,-293.5 45,-293.5"/>
<text text-anchor="middle" x="78" y="-300.5" font-family="Helvetica,sans-Serif" font-size="10.00">Subscriptor</text>
</a>
</g>
</g>
<!-- Node3&#45;&gt;Node2 -->
<g id="edge2" class="edge">
<title>Node3&#45;&gt;Node2</title>
<path fill="none" stroke="midnightblue" d="M78.54,-283.25C79.35,-255.19 80.86,-202.88 81.59,-177.73"/>
<polygon fill="midnightblue" stroke="midnightblue" points="75.04,-283.24 78.25,-293.34 82.04,-283.44 75.04,-283.24"/>
</g>
<!-- Node4 -->
<g id="node4" class="node">
<title>Node4</title>
<g id="a_node4"><a xlink:href="classMGTransferBase.html" target="_top" xlink:title=" ">
<polygon fill="white" stroke="black" points="94,-236.5 94,-255.5 252,-255.5 252,-236.5 94,-236.5"/>
<text text-anchor="middle" x="173" y="-243.5" font-family="Helvetica,sans-Serif" font-size="10.00">MGTransferBase&lt; VectorType &gt;</text>
</a>
</g>
</g>
<!-- Node3&#45;&gt;Node4 -->
<g id="edge4" class="edge">
<title>Node3&#45;&gt;Node4</title>
<path fill="none" stroke="midnightblue" d="M101.5,-288.39C119.26,-278.11 143.1,-264.31 158.26,-255.53"/>
<polygon fill="midnightblue" stroke="midnightblue" points="99.74,-285.37 92.84,-293.41 103.25,-291.42 99.74,-285.37"/>
</g>
<!-- Node4&#45;&gt;Node2 -->
<g id="edge3" class="edge">
<title>Node4&#45;&gt;Node2</title>
<path fill="none" stroke="orange" stroke-dasharray="5,2" d="M155.36,-229.2C138.65,-214.23 113.79,-191.97 97.74,-177.6"/>
<polygon fill="orange" stroke="orange" points="153.48,-232.21 163.26,-236.28 158.15,-227 153.48,-232.21"/>
<text text-anchor="start" x="140" y="-210" font-family="Helvetica,sans-Serif" font-size="10.00"> &lt; LinearAlgebra::distributed</text>
<text text-anchor="middle" x="201.5" y="-199" font-family="Helvetica,sans-Serif" font-size="10.00">::Vector&lt; Number &gt; &gt;</text>
</g>
</g>
</svg>
