<?xml version="1.0" encoding="UTF-8" standalone="no"?>
<!DOCTYPE svg PUBLIC "-//W3C//DTD SVG 1.1//EN"
 "http://www.w3.org/Graphics/SVG/1.1/DTD/svg11.dtd">
<!-- Generated by graphviz version 2.47.1 (20210417.1919)
 -->
<!-- Title: FEEvaluationAccess&lt; 1, 1, Number, is_face, VectorizedArrayType &gt; Pages: 1 -->
<svg width="1090pt" height="77pt"
 viewBox="0.00 0.00 1090.00 77.46" xmlns="http://www.w3.org/2000/svg" xmlns:xlink="http://www.w3.org/1999/xlink">
<g id="graph0" class="graph" transform="scale(1 1) rotate(0) translate(4 73.46)">
<title>FEEvaluationAccess&lt; 1, 1, Number, is_face, VectorizedArrayType &gt;</title>
<polygon fill="white" stroke="transparent" points="-4,4 -4,-73.46 1086,-73.46 1086,4 -4,4"/>
<!-- Node1 -->
<g id="node1" class="node">
<title>Node1</title>
<g id="a_node1"><a xlink:title=" ">
<polygon fill="#bfbfbf" stroke="black" points="960,-27.5 960,-68.5 1082,-68.5 1082,-27.5 960,-27.5"/>
<text text-anchor="start" x="968" y="-56.5" font-family="Helvetica,sans-Serif" font-size="10.00">FEEvaluationAccess</text>
<text text-anchor="start" x="968" y="-45.5" font-family="Helvetica,sans-Serif" font-size="10.00">&lt; 1, 1, Number, is_face,</text>
<text text-anchor="middle" x="1021" y="-34.5" font-family="Helvetica,sans-Serif" font-size="10.00"> VectorizedArrayType &gt;</text>
</a>
</g>
</g>
<!-- Node2 -->
<g id="node2" class="node">
<title>Node2</title>
<g id="a_node2"><a xlink:href="classFEEvaluationBase.html" target="_top" xlink:title=" ">
<polygon fill="white" stroke="black" points="804,-27.5 804,-68.5 923,-68.5 923,-27.5 804,-27.5"/>
<text text-anchor="start" x="812" y="-56.5" font-family="Helvetica,sans-Serif" font-size="10.00">FEEvaluationBase&lt; 1,</text>
<text text-anchor="start" x="812" y="-45.5" font-family="Helvetica,sans-Serif" font-size="10.00"> 1, Number, is_face,</text>
<text text-anchor="middle" x="863.5" y="-34.5" font-family="Helvetica,sans-Serif" font-size="10.00"> VectorizedArrayType &gt;</text>
</a>
</g>
</g>
<!-- Node2&#45;&gt;Node1 -->
<g id="edge1" class="edge">
<title>Node2&#45;&gt;Node1</title>
<path fill="none" stroke="midnightblue" d="M933.5,-48C942.28,-48 951.21,-48 959.84,-48"/>
<polygon fill="midnightblue" stroke="midnightblue" points="933.29,-44.5 923.29,-48 933.29,-51.5 933.29,-44.5"/>
</g>
<!-- Node3 -->
<g id="node3" class="node">
<title>Node3</title>
<g id="a_node3"><a xlink:href="classFEEvaluationBaseData.html" target="_top" xlink:title=" ">
<polygon fill="white" stroke="black" points="0,-24.5 0,-65.5 122,-65.5 122,-24.5 0,-24.5"/>
<text text-anchor="start" x="8" y="-53.5" font-family="Helvetica,sans-Serif" font-size="10.00">FEEvaluationBaseData</text>
<text text-anchor="start" x="8" y="-42.5" font-family="Helvetica,sans-Serif" font-size="10.00">&lt; dim, Number, is_face,</text>
<text text-anchor="middle" x="61" y="-31.5" font-family="Helvetica,sans-Serif" font-size="10.00"> VectorizedArrayType &gt;</text>
</a>
</g>
</g>
<!-- Node3&#45;&gt;Node2 -->
<g id="edge2" class="edge">
<title>Node3&#45;&gt;Node2</title>
<path fill="none" stroke="midnightblue" d="M132.37,-55.38C134.94,-55.62 137.49,-55.82 140,-56 426.41,-76.1 499.28,-70.95 786,-56 791.73,-55.7 797.7,-55.28 803.66,-54.78"/>
<polygon fill="midnightblue" stroke="midnightblue" points="132.68,-51.9 122.38,-54.37 131.97,-58.86 132.68,-51.9"/>
</g>
<!-- Node5 -->
<g id="node5" class="node">
<title>Node5</title>
<g id="a_node5"><a xlink:href="classFEEvaluationBaseData.html" target="_top" xlink:title=" ">
<polygon fill="white" stroke="black" points="293,-0.5 293,-41.5 444,-41.5 444,-0.5 293,-0.5"/>
<text text-anchor="start" x="301" y="-29.5" font-family="Helvetica,sans-Serif" font-size="10.00">FEEvaluationBaseData</text>
<text text-anchor="start" x="301" y="-18.5" font-family="Helvetica,sans-Serif" font-size="10.00">&lt; dim, Number, false,</text>
<text text-anchor="middle" x="368.5" y="-7.5" font-family="Helvetica,sans-Serif" font-size="10.00"> VectorizedArray&lt; Number &gt; &gt;</text>
</a>
</g>
</g>
<!-- Node3&#45;&gt;Node5 -->
<g id="edge5" class="edge">
<title>Node3&#45;&gt;Node5</title>
<path fill="none" stroke="orange" stroke-dasharray="5,2" d="M132.39,-34.8C134.96,-34.52 137.5,-34.25 140,-34 190.88,-28.97 248.38,-25.7 292.84,-23.7"/>
<polygon fill="orange" stroke="orange" points="131.93,-31.33 122.41,-35.98 132.75,-38.28 131.93,-31.33"/>
<text text-anchor="start" x="140" y="-48" font-family="Helvetica,sans-Serif" font-size="10.00"> &lt; dim, Number, false,</text>
<text text-anchor="middle" x="207.5" y="-37" font-family="Helvetica,sans-Serif" font-size="10.00"> VectorizedArray&lt; Number &gt; &gt;</text>
</g>
<!-- Node4 -->
<g id="node4" class="node">
<title>Node4</title>
<g id="a_node4"><a xlink:href="classFEEvaluationBase.html" target="_top" xlink:title=" ">
<polygon fill="white" stroke="black" points="481,-0.5 481,-41.5 638,-41.5 638,-0.5 481,-0.5"/>
<text text-anchor="start" x="489" y="-29.5" font-family="Helvetica,sans-Serif" font-size="10.00">FEEvaluationBase&lt; dim,</text>
<text text-anchor="start" x="489" y="-18.5" font-family="Helvetica,sans-Serif" font-size="10.00"> n_components_, Number,</text>
<text text-anchor="middle" x="559.5" y="-7.5" font-family="Helvetica,sans-Serif" font-size="10.00"> is_face, VectorizedArrayType &gt;</text>
</a>
</g>
</g>
<!-- Node4&#45;&gt;Node2 -->
<g id="edge3" class="edge">
<title>Node4&#45;&gt;Node2</title>
<path fill="none" stroke="orange" stroke-dasharray="5,2" d="M648.35,-23.55C690.15,-25.4 740.77,-28.58 786,-34 791.76,-34.69 797.75,-35.54 803.72,-36.49"/>
<polygon fill="orange" stroke="orange" points="648.34,-20.04 638.2,-23.11 648.04,-27.04 648.34,-20.04"/>
<text text-anchor="start" x="656" y="-48" font-family="Helvetica,sans-Serif" font-size="10.00"> &lt; 1, 1, Number, is</text>
<text text-anchor="middle" x="721" y="-37" font-family="Helvetica,sans-Serif" font-size="10.00">_face, VectorizedArrayType &gt;</text>
</g>
<!-- Node5&#45;&gt;Node4 -->
<g id="edge4" class="edge">
<title>Node5&#45;&gt;Node4</title>
<path fill="none" stroke="midnightblue" d="M454.47,-21C463.28,-21 472.21,-21 480.93,-21"/>
<polygon fill="midnightblue" stroke="midnightblue" points="454.2,-17.5 444.2,-21 454.2,-24.5 454.2,-17.5"/>
</g>
</g>
</svg>
