<?xml version="1.0" encoding="UTF-8" standalone="no"?>
<!DOCTYPE svg PUBLIC "-//W3C//DTD SVG 1.1//EN"
 "http://www.w3.org/Graphics/SVG/1.1/DTD/svg11.dtd">
<!-- Generated by graphviz version 2.47.1 (20210417.1919)
 -->
<!-- Title: MappingCartesian&lt; dim, spacedim &gt; Pages: 1 -->
<svg width="217pt" height="220pt"
 viewBox="0.00 0.00 217.00 220.00" xmlns="http://www.w3.org/2000/svg" xmlns:xlink="http://www.w3.org/1999/xlink">
<g id="graph0" class="graph" transform="scale(1 1) rotate(0) translate(4 216)">
<title>MappingCartesian&lt; dim, spacedim &gt;</title>
<polygon fill="white" stroke="transparent" points="-4,4 -4,-216 213,-216 213,4 -4,4"/>
<!-- Node1 -->
<g id="node1" class="node">
<title>Node1</title>
<g id="a_node1"><a xlink:title=" ">
<polygon fill="#bfbfbf" stroke="black" points="0,-0.5 0,-30.5 123,-30.5 123,-0.5 0,-0.5"/>
<text text-anchor="start" x="8" y="-18.5" font-family="Helvetica,sans-Serif" font-size="10.00">MappingCartesian&lt; dim,</text>
<text text-anchor="middle" x="61.5" y="-7.5" font-family="Helvetica,sans-Serif" font-size="10.00"> spacedim &gt;</text>
</a>
</g>
</g>
<!-- Node2 -->
<g id="node2" class="node">
<title>Node2</title>
<g id="a_node2"><a xlink:href="classMapping.html" target="_top" xlink:title=" ">
<polygon fill="white" stroke="black" points="7,-68.5 7,-87.5 116,-87.5 116,-68.5 7,-68.5"/>
<text text-anchor="middle" x="61.5" y="-75.5" font-family="Helvetica,sans-Serif" font-size="10.00">Mapping&lt; dim, dim &gt;</text>
</a>
</g>
</g>
<!-- Node2&#45;&gt;Node1 -->
<g id="edge1" class="edge">
<title>Node2&#45;&gt;Node1</title>
<path fill="none" stroke="midnightblue" d="M61.5,-58.22C61.5,-49.36 61.5,-38.96 61.5,-30.76"/>
<polygon fill="midnightblue" stroke="midnightblue" points="58,-58.33 61.5,-68.33 65,-58.33 58,-58.33"/>
</g>
<!-- Node3 -->
<g id="node3" class="node">
<title>Node3</title>
<g id="a_node3"><a xlink:href="classSubscriptor.html" target="_top" xlink:title=" ">
<polygon fill="white" stroke="black" points="24.5,-192.5 24.5,-211.5 90.5,-211.5 90.5,-192.5 24.5,-192.5"/>
<text text-anchor="middle" x="57.5" y="-199.5" font-family="Helvetica,sans-Serif" font-size="10.00">Subscriptor</text>
</a>
</g>
</g>
<!-- Node3&#45;&gt;Node2 -->
<g id="edge2" class="edge">
<title>Node3&#45;&gt;Node2</title>
<path fill="none" stroke="midnightblue" d="M58.12,-182.19C59,-155.4 60.57,-107.31 61.21,-87.69"/>
<polygon fill="midnightblue" stroke="midnightblue" points="54.62,-182.12 57.79,-192.23 61.61,-182.35 54.62,-182.12"/>
</g>
<!-- Node4 -->
<g id="node4" class="node">
<title>Node4</title>
<g id="a_node4"><a xlink:href="classMapping.html" target="_top" xlink:title="Abstract base class for mapping classes.">
<polygon fill="white" stroke="black" points="74,-135.5 74,-154.5 209,-154.5 209,-135.5 74,-135.5"/>
<text text-anchor="middle" x="141.5" y="-142.5" font-family="Helvetica,sans-Serif" font-size="10.00">Mapping&lt; dim, spacedim &gt;</text>
</a>
</g>
</g>
<!-- Node3&#45;&gt;Node4 -->
<g id="edge4" class="edge">
<title>Node3&#45;&gt;Node4</title>
<path fill="none" stroke="midnightblue" d="M79.15,-186.82C94.76,-176.61 115.31,-163.15 128.47,-154.53"/>
<polygon fill="midnightblue" stroke="midnightblue" points="77.07,-184 70.62,-192.41 80.91,-189.86 77.07,-184"/>
</g>
<!-- Node4&#45;&gt;Node2 -->
<g id="edge3" class="edge">
<title>Node4&#45;&gt;Node2</title>
<path fill="none" stroke="orange" stroke-dasharray="5,2" d="M122.69,-128.71C106.92,-115.91 84.99,-98.09 72.12,-87.63"/>
<polygon fill="orange" stroke="orange" points="120.74,-131.64 130.71,-135.23 125.16,-126.21 120.74,-131.64"/>
<text text-anchor="middle" x="135" y="-109" font-family="Helvetica,sans-Serif" font-size="10.00"> &lt; dim, dim &gt;</text>
</g>
</g>
</svg>
