<?xml version="1.0" encoding="UTF-8" standalone="no"?>
<!DOCTYPE svg PUBLIC "-//W3C//DTD SVG 1.1//EN"
 "http://www.w3.org/Graphics/SVG/1.1/DTD/svg11.dtd">
<!-- Generated by graphviz version 2.47.1 (20210417.1919)
 -->
<!-- Title: SLEPcWrappers::SolverBase Pages: 1 -->
<svg width="363pt" height="290pt"
 viewBox="0.00 0.00 363.00 290.00" xmlns="http://www.w3.org/2000/svg" xmlns:xlink="http://www.w3.org/1999/xlink">
<g id="graph0" class="graph" transform="scale(1 1) rotate(0) translate(4 286)">
<title>SLEPcWrappers::SolverBase</title>
<polygon fill="white" stroke="transparent" points="-4,4 -4,-286 359,-286 359,4 -4,4"/>
<!-- Node1 -->
<g id="node1" class="node">
<title>Node1</title>
<g id="a_node1"><a xlink:title=" ">
<polygon fill="#bfbfbf" stroke="black" points="0,-120.5 0,-139.5 145,-139.5 145,-120.5 0,-120.5"/>
<text text-anchor="middle" x="72.5" y="-127.5" font-family="Helvetica,sans-Serif" font-size="10.00">SLEPcWrappers::SolverBase</text>
</a>
</g>
</g>
<!-- Node2 -->
<g id="node2" class="node">
<title>Node2</title>
<g id="a_node2"><a xlink:href="classSLEPcWrappers_1_1SolverArnoldi.html" target="_top" xlink:title=" ">
<polygon fill="white" stroke="black" points="192,-262.5 192,-281.5 344,-281.5 344,-262.5 192,-262.5"/>
<text text-anchor="middle" x="268" y="-269.5" font-family="Helvetica,sans-Serif" font-size="10.00">SLEPcWrappers::SolverArnoldi</text>
</a>
</g>
</g>
<!-- Node1&#45;&gt;Node2 -->
<g id="edge1" class="edge">
<title>Node1&#45;&gt;Node2</title>
<path fill="none" stroke="midnightblue" d="M84.21,-148.44C101.12,-175.79 136.67,-226.73 181,-253 187.58,-256.9 194.87,-260 202.34,-262.46"/>
<polygon fill="midnightblue" stroke="midnightblue" points="87,-146.28 78.84,-139.51 81,-149.89 87,-146.28"/>
</g>
<!-- Node3 -->
<g id="node3" class="node">
<title>Node3</title>
<g id="a_node3"><a xlink:href="classSLEPcWrappers_1_1SolverGeneralizedDavidson.html" target="_top" xlink:title=" ">
<polygon fill="white" stroke="black" points="181,-213 181,-243 355,-243 355,-213 181,-213"/>
<text text-anchor="start" x="189" y="-231" font-family="Helvetica,sans-Serif" font-size="10.00">SLEPcWrappers::SolverGeneralized</text>
<text text-anchor="middle" x="268" y="-220" font-family="Helvetica,sans-Serif" font-size="10.00">Davidson</text>
</a>
</g>
</g>
<!-- Node1&#45;&gt;Node3 -->
<g id="edge2" class="edge">
<title>Node1&#45;&gt;Node3</title>
<path fill="none" stroke="midnightblue" d="M92.6,-146.08C113.22,-162.71 147.6,-188.38 181,-204 188.16,-207.35 195.88,-210.32 203.66,-212.92"/>
<polygon fill="midnightblue" stroke="midnightblue" points="94.61,-143.2 84.65,-139.57 90.17,-148.61 94.61,-143.2"/>
</g>
<!-- Node4 -->
<g id="node4" class="node">
<title>Node4</title>
<g id="a_node4"><a xlink:href="classSLEPcWrappers_1_1SolverJacobiDavidson.html" target="_top" xlink:title=" ">
<polygon fill="white" stroke="black" points="192.5,-164 192.5,-194 343.5,-194 343.5,-164 192.5,-164"/>
<text text-anchor="start" x="200.5" y="-182" font-family="Helvetica,sans-Serif" font-size="10.00">SLEPcWrappers::SolverJacobi</text>
<text text-anchor="middle" x="268" y="-171" font-family="Helvetica,sans-Serif" font-size="10.00">Davidson</text>
</a>
</g>
</g>
<!-- Node1&#45;&gt;Node4 -->
<g id="edge3" class="edge">
<title>Node1&#45;&gt;Node4</title>
<path fill="none" stroke="midnightblue" d="M121.29,-142.1C147.38,-148.71 179.91,-156.95 207.62,-163.96"/>
<polygon fill="midnightblue" stroke="midnightblue" points="121.82,-138.63 111.27,-139.56 120.1,-145.41 121.82,-138.63"/>
</g>
<!-- Node5 -->
<g id="node5" class="node">
<title>Node5</title>
<g id="a_node5"><a xlink:href="classSLEPcWrappers_1_1SolverKrylovSchur.html" target="_top" xlink:title=" ">
<polygon fill="white" stroke="black" points="193,-115 193,-145 343,-145 343,-115 193,-115"/>
<text text-anchor="start" x="201" y="-133" font-family="Helvetica,sans-Serif" font-size="10.00">SLEPcWrappers::SolverKrylov</text>
<text text-anchor="middle" x="268" y="-122" font-family="Helvetica,sans-Serif" font-size="10.00">Schur</text>
</a>
</g>
</g>
<!-- Node1&#45;&gt;Node5 -->
<g id="edge4" class="edge">
<title>Node1&#45;&gt;Node5</title>
<path fill="none" stroke="midnightblue" d="M155.36,-130C167.81,-130 180.6,-130 192.88,-130"/>
<polygon fill="midnightblue" stroke="midnightblue" points="155,-126.5 145,-130 155,-133.5 155,-126.5"/>
</g>
<!-- Node6 -->
<g id="node6" class="node">
<title>Node6</title>
<g id="a_node6"><a xlink:href="classSLEPcWrappers_1_1SolverLAPACK.html" target="_top" xlink:title=" ">
<polygon fill="white" stroke="black" points="187.5,-76.5 187.5,-95.5 348.5,-95.5 348.5,-76.5 187.5,-76.5"/>
<text text-anchor="middle" x="268" y="-83.5" font-family="Helvetica,sans-Serif" font-size="10.00">SLEPcWrappers::SolverLAPACK</text>
</a>
</g>
</g>
<!-- Node1&#45;&gt;Node6 -->
<g id="edge5" class="edge">
<title>Node1&#45;&gt;Node6</title>
<path fill="none" stroke="midnightblue" d="M125.32,-118.22C156.56,-111.11 195.83,-102.18 225.1,-95.53"/>
<polygon fill="midnightblue" stroke="midnightblue" points="124.46,-114.82 115.49,-120.45 126.01,-121.65 124.46,-114.82"/>
</g>
<!-- Node7 -->
<g id="node7" class="node">
<title>Node7</title>
<g id="a_node7"><a xlink:href="classSLEPcWrappers_1_1SolverLanczos.html" target="_top" xlink:title=" ">
<polygon fill="white" stroke="black" points="188.5,-38.5 188.5,-57.5 347.5,-57.5 347.5,-38.5 188.5,-38.5"/>
<text text-anchor="middle" x="268" y="-45.5" font-family="Helvetica,sans-Serif" font-size="10.00">SLEPcWrappers::SolverLanczos</text>
</a>
</g>
</g>
<!-- Node1&#45;&gt;Node7 -->
<g id="edge6" class="edge">
<title>Node1&#45;&gt;Node7</title>
<path fill="none" stroke="midnightblue" d="M95.19,-114.53C116.2,-100.23 149.42,-79.38 181,-67 190.68,-63.2 201.28,-60.08 211.64,-57.55"/>
<polygon fill="midnightblue" stroke="midnightblue" points="92.94,-111.83 86.71,-120.4 96.93,-117.59 92.94,-111.83"/>
</g>
<!-- Node8 -->
<g id="node8" class="node">
<title>Node8</title>
<g id="a_node8"><a xlink:href="classSLEPcWrappers_1_1SolverPower.html" target="_top" xlink:title=" ">
<polygon fill="white" stroke="black" points="193,-0.5 193,-19.5 343,-19.5 343,-0.5 193,-0.5"/>
<text text-anchor="middle" x="268" y="-7.5" font-family="Helvetica,sans-Serif" font-size="10.00">SLEPcWrappers::SolverPower</text>
</a>
</g>
</g>
<!-- Node1&#45;&gt;Node8 -->
<g id="edge7" class="edge">
<title>Node1&#45;&gt;Node8</title>
<path fill="none" stroke="midnightblue" d="M86.89,-112.57C105.46,-89.7 141.24,-49.99 181,-29 188.3,-25.14 196.35,-22.07 204.5,-19.62"/>
<polygon fill="midnightblue" stroke="midnightblue" points="84.12,-110.43 80.65,-120.44 89.61,-114.78 84.12,-110.43"/>
</g>
</g>
</svg>
