<?xml version="1.0" encoding="UTF-8" standalone="no"?>
<!DOCTYPE svg PUBLIC "-//W3C//DTD SVG 1.1//EN"
 "http://www.w3.org/Graphics/SVG/1.1/DTD/svg11.dtd">
<!-- Generated by graphviz version 2.47.1 (20210417.1919)
 -->
<!-- Title: MGSmootherBlock&lt; MatrixType, RelaxationType, number &gt; Pages: 1 -->
<svg width="267pt" height="288pt"
 viewBox="0.00 0.00 267.00 288.00" xmlns="http://www.w3.org/2000/svg" xmlns:xlink="http://www.w3.org/1999/xlink">
<g id="graph0" class="graph" transform="scale(1 1) rotate(0) translate(4 284)">
<title>MGSmootherBlock&lt; MatrixType, RelaxationType, number &gt;</title>
<polygon fill="white" stroke="transparent" points="-4,4 -4,-284 263,-284 263,4 -4,4"/>
<!-- Node1 -->
<g id="node1" class="node">
<title>Node1</title>
<g id="a_node1"><a xlink:title=" ">
<polygon fill="#bfbfbf" stroke="black" points="6.5,-0.5 6.5,-30.5 165.5,-30.5 165.5,-0.5 6.5,-0.5"/>
<text text-anchor="start" x="14.5" y="-18.5" font-family="Helvetica,sans-Serif" font-size="10.00">MGSmootherBlock&lt; MatrixType,</text>
<text text-anchor="middle" x="86" y="-7.5" font-family="Helvetica,sans-Serif" font-size="10.00"> RelaxationType, number &gt;</text>
</a>
</g>
</g>
<!-- Node2 -->
<g id="node2" class="node">
<title>Node2</title>
<g id="a_node2"><a xlink:href="classMGSmoother.html" target="_top" xlink:title=" ">
<polygon fill="white" stroke="black" points="17.5,-68.5 17.5,-98.5 154.5,-98.5 154.5,-68.5 17.5,-68.5"/>
<text text-anchor="start" x="25.5" y="-86.5" font-family="Helvetica,sans-Serif" font-size="10.00">MGSmoother&lt; BlockVector</text>
<text text-anchor="middle" x="86" y="-75.5" font-family="Helvetica,sans-Serif" font-size="10.00">&lt; number &gt; &gt;</text>
</a>
</g>
</g>
<!-- Node2&#45;&gt;Node1 -->
<g id="edge1" class="edge">
<title>Node2&#45;&gt;Node1</title>
<path fill="none" stroke="midnightblue" d="M86,-58.03C86,-48.86 86,-38.74 86,-30.79"/>
<polygon fill="midnightblue" stroke="midnightblue" points="82.5,-58.18 86,-68.18 89.5,-58.18 82.5,-58.18"/>
</g>
<!-- Node3 -->
<g id="node3" class="node">
<title>Node3</title>
<g id="a_node3"><a xlink:href="classMGSmootherBase.html" target="_top" xlink:title=" ">
<polygon fill="white" stroke="black" points="0,-203.5 0,-222.5 164,-222.5 164,-203.5 0,-203.5"/>
<text text-anchor="middle" x="82" y="-210.5" font-family="Helvetica,sans-Serif" font-size="10.00">MGSmootherBase&lt; VectorType &gt;</text>
</a>
</g>
</g>
<!-- Node3&#45;&gt;Node2 -->
<g id="edge2" class="edge">
<title>Node3&#45;&gt;Node2</title>
<path fill="none" stroke="midnightblue" d="M82.6,-192.9C83.41,-167.05 84.84,-121.54 85.56,-98.59"/>
<polygon fill="midnightblue" stroke="midnightblue" points="79.09,-193.13 82.27,-203.24 86.09,-193.35 79.09,-193.13"/>
</g>
<!-- Node5 -->
<g id="node5" class="node">
<title>Node5</title>
<g id="a_node5"><a xlink:href="classMGSmoother.html" target="_top" xlink:title=" ">
<polygon fill="white" stroke="black" points="98,-146.5 98,-165.5 240,-165.5 240,-146.5 98,-146.5"/>
<text text-anchor="middle" x="169" y="-153.5" font-family="Helvetica,sans-Serif" font-size="10.00">MGSmoother&lt; VectorType &gt;</text>
</a>
</g>
</g>
<!-- Node3&#45;&gt;Node5 -->
<g id="edge5" class="edge">
<title>Node3&#45;&gt;Node5</title>
<path fill="none" stroke="midnightblue" d="M104.42,-197.82C120.59,-187.61 141.87,-174.15 155.5,-165.53"/>
<polygon fill="midnightblue" stroke="midnightblue" points="102.18,-195.1 95.59,-203.41 105.92,-201.02 102.18,-195.1"/>
</g>
<!-- Node4 -->
<g id="node4" class="node">
<title>Node4</title>
<g id="a_node4"><a xlink:href="classSubscriptor.html" target="_top" xlink:title=" ">
<polygon fill="white" stroke="black" points="49,-260.5 49,-279.5 115,-279.5 115,-260.5 49,-260.5"/>
<text text-anchor="middle" x="82" y="-267.5" font-family="Helvetica,sans-Serif" font-size="10.00">Subscriptor</text>
</a>
</g>
</g>
<!-- Node4&#45;&gt;Node3 -->
<g id="edge3" class="edge">
<title>Node4&#45;&gt;Node3</title>
<path fill="none" stroke="midnightblue" d="M82,-250.12C82,-240.82 82,-230.06 82,-222.71"/>
<polygon fill="midnightblue" stroke="midnightblue" points="78.5,-250.41 82,-260.41 85.5,-250.41 78.5,-250.41"/>
</g>
<!-- Node5&#45;&gt;Node2 -->
<g id="edge4" class="edge">
<title>Node5&#45;&gt;Node2</title>
<path fill="none" stroke="orange" stroke-dasharray="5,2" d="M151.09,-139.78C136.68,-127.55 116.61,-110.5 102.57,-98.58"/>
<polygon fill="orange" stroke="orange" points="148.94,-142.55 158.82,-146.36 153.47,-137.21 148.94,-142.55"/>
<text text-anchor="middle" x="196.5" y="-120" font-family="Helvetica,sans-Serif" font-size="10.00"> &lt; BlockVector&lt; number &gt; &gt;</text>
</g>
</g>
</svg>
