<?xml version="1.0" encoding="UTF-8" standalone="no"?>
<!DOCTYPE svg PUBLIC "-//W3C//DTD SVG 1.1//EN"
 "http://www.w3.org/Graphics/SVG/1.1/DTD/svg11.dtd">
<!-- Generated by graphviz version 2.47.1 (20210417.1919)
 -->
<!-- Title: hp::Collection&lt; T &gt; Pages: 1 -->
<svg width="904pt" height="395pt"
 viewBox="0.00 0.00 904.00 394.94" xmlns="http://www.w3.org/2000/svg" xmlns:xlink="http://www.w3.org/1999/xlink">
<g id="graph0" class="graph" transform="scale(1 1) rotate(0) translate(4 390.94)">
<title>hp::Collection&lt; T &gt;</title>
<polygon fill="white" stroke="transparent" points="-4,4 -4,-390.94 900,-390.94 900,4 -4,4"/>
<!-- Node1 -->
<g id="node1" class="node">
<title>Node1</title>
<g id="a_node1"><a xlink:title=" ">
<polygon fill="#bfbfbf" stroke="black" points="103,-270 103,-289 204,-289 204,-270 103,-270"/>
<text text-anchor="middle" x="153.5" y="-277" font-family="Helvetica,sans-Serif" font-size="10.00">hp::Collection&lt; T &gt;</text>
</a>
</g>
</g>
<!-- Node3 -->
<g id="node3" class="node">
<title>Node3</title>
<g id="a_node3"><a xlink:href="classhp_1_1MappingCollection.html" target="_top" xlink:title=" ">
<polygon fill="white" stroke="black" points="539.5,-354.5 539.5,-384.5 652.5,-384.5 652.5,-354.5 539.5,-354.5"/>
<text text-anchor="start" x="547.5" y="-372.5" font-family="Helvetica,sans-Serif" font-size="10.00">hp::MappingCollection</text>
<text text-anchor="middle" x="596" y="-361.5" font-family="Helvetica,sans-Serif" font-size="10.00">&lt; dim, spacedim &gt;</text>
</a>
</g>
</g>
<!-- Node1&#45;&gt;Node3 -->
<g id="edge2" class="edge">
<title>Node1&#45;&gt;Node3</title>
<path fill="none" stroke="midnightblue" d="M168.1,-296.87C180.55,-311.56 200.29,-331.99 222,-343.5 323.51,-397.32 462.96,-389.15 539.36,-378.98"/>
<polygon fill="midnightblue" stroke="midnightblue" points="170.69,-294.52 161.65,-289 165.28,-298.95 170.69,-294.52"/>
</g>
<!-- Node4 -->
<g id="node4" class="node">
<title>Node4</title>
<g id="a_node4"><a xlink:href="classhp_1_1MappingCollection.html" target="_top" xlink:title=" ">
<polygon fill="white" stroke="black" points="370.5,-283.5 370.5,-313.5 483.5,-313.5 483.5,-283.5 370.5,-283.5"/>
<text text-anchor="start" x="378.5" y="-301.5" font-family="Helvetica,sans-Serif" font-size="10.00">hp::MappingCollection</text>
<text text-anchor="middle" x="427" y="-290.5" font-family="Helvetica,sans-Serif" font-size="10.00">&lt; dim, dim &gt;</text>
</a>
</g>
</g>
<!-- Node1&#45;&gt;Node4 -->
<g id="edge3" class="edge">
<title>Node1&#45;&gt;Node4</title>
<path fill="none" stroke="midnightblue" d="M214.54,-283.7C261.08,-286.96 325.07,-291.44 370.44,-294.61"/>
<polygon fill="midnightblue" stroke="midnightblue" points="214.52,-280.19 204.3,-282.98 214.03,-287.17 214.52,-280.19"/>
</g>
<!-- Node5 -->
<g id="node5" class="node">
<title>Node5</title>
<g id="a_node5"><a xlink:href="classhp_1_1Collection.html" target="_top" xlink:title=" ">
<polygon fill="white" stroke="black" points="366,-332.5 366,-362.5 488,-362.5 488,-332.5 366,-332.5"/>
<text text-anchor="start" x="374" y="-350.5" font-family="Helvetica,sans-Serif" font-size="10.00">hp::Collection&lt; Mapping</text>
<text text-anchor="middle" x="427" y="-339.5" font-family="Helvetica,sans-Serif" font-size="10.00">&lt; dim, dim &gt; &gt;</text>
</a>
</g>
</g>
<!-- Node1&#45;&gt;Node5 -->
<g id="edge4" class="edge">
<title>Node1&#45;&gt;Node5</title>
<path fill="none" stroke="orange" stroke-dasharray="5,2" d="M189.77,-292.34C200.08,-295.88 211.43,-299.54 222,-302.5 269.85,-315.89 324.91,-327.83 365.76,-336.05"/>
<polygon fill="orange" stroke="orange" points="190.85,-289.01 180.25,-289.03 188.54,-295.62 190.85,-289.01"/>
<text text-anchor="middle" x="279" y="-331.5" font-family="Helvetica,sans-Serif" font-size="10.00"> &lt; Mapping&lt; dim, dim &gt; &gt;</text>
</g>
<!-- Node6 -->
<g id="node6" class="node">
<title>Node6</title>
<g id="a_node6"><a xlink:href="classhp_1_1Collection.html" target="_top" xlink:title=" ">
<polygon fill="white" stroke="black" points="354,-185.5 354,-215.5 500,-215.5 500,-185.5 354,-185.5"/>
<text text-anchor="start" x="362" y="-203.5" font-family="Helvetica,sans-Serif" font-size="10.00">hp::Collection&lt; FiniteElement</text>
<text text-anchor="middle" x="427" y="-192.5" font-family="Helvetica,sans-Serif" font-size="10.00">&lt; dim, spacedim &gt; &gt;</text>
</a>
</g>
</g>
<!-- Node1&#45;&gt;Node6 -->
<g id="edge6" class="edge">
<title>Node1&#45;&gt;Node6</title>
<path fill="none" stroke="orange" stroke-dasharray="5,2" d="M169.91,-262.12C182.53,-249.14 201.58,-232.19 222,-223.5 263.32,-205.91 313.38,-200.07 353.58,-198.66"/>
<polygon fill="orange" stroke="orange" points="167.21,-259.89 162.93,-269.59 172.32,-264.67 167.21,-259.89"/>
<text text-anchor="start" x="229" y="-237.5" font-family="Helvetica,sans-Serif" font-size="10.00"> &lt; FiniteElement&lt; dim,</text>
<text text-anchor="middle" x="279" y="-226.5" font-family="Helvetica,sans-Serif" font-size="10.00"> spacedim &gt; &gt;</text>
</g>
<!-- Node9 -->
<g id="node9" class="node">
<title>Node9</title>
<g id="a_node9"><a xlink:href="classhp_1_1Collection.html" target="_top" xlink:title=" ">
<polygon fill="white" stroke="black" points="360,-81.5 360,-111.5 494,-111.5 494,-81.5 360,-81.5"/>
<text text-anchor="start" x="368" y="-99.5" font-family="Helvetica,sans-Serif" font-size="10.00">hp::Collection&lt; Quadrature</text>
<text text-anchor="middle" x="427" y="-88.5" font-family="Helvetica,sans-Serif" font-size="10.00">&lt; dim &gt; &gt;</text>
</a>
</g>
</g>
<!-- Node1&#45;&gt;Node9 -->
<g id="edge9" class="edge">
<title>Node1&#45;&gt;Node9</title>
<path fill="none" stroke="orange" stroke-dasharray="5,2" d="M163.9,-260.86C175.2,-240.05 195.95,-206.55 222,-185.5 266.33,-149.68 327.3,-125.59 371.02,-111.6"/>
<polygon fill="orange" stroke="orange" points="160.68,-259.46 159.13,-269.94 166.87,-262.72 160.68,-259.46"/>
<text text-anchor="middle" x="279" y="-188.5" font-family="Helvetica,sans-Serif" font-size="10.00"> &lt; Quadrature&lt; dim &gt; &gt;</text>
</g>
<!-- Node14 -->
<g id="node14" class="node">
<title>Node14</title>
<g id="a_node14"><a xlink:href="classhp_1_1Collection.html" target="_top" xlink:title=" ">
<polygon fill="white" stroke="black" points="354,-234.5 354,-264.5 500,-264.5 500,-234.5 354,-234.5"/>
<text text-anchor="start" x="362" y="-252.5" font-family="Helvetica,sans-Serif" font-size="10.00">hp::Collection&lt; FiniteElement</text>
<text text-anchor="middle" x="427" y="-241.5" font-family="Helvetica,sans-Serif" font-size="10.00">&lt; dim, dim &gt; &gt;</text>
</a>
</g>
</g>
<!-- Node1&#45;&gt;Node14 -->
<g id="edge17" class="edge">
<title>Node1&#45;&gt;Node14</title>
<path fill="none" stroke="orange" stroke-dasharray="5,2" d="M191,-266.96C200.94,-264.02 211.79,-261.24 222,-259.5 265.35,-252.13 314.56,-249.55 353.79,-248.85"/>
<polygon fill="orange" stroke="orange" points="189.93,-263.62 181.41,-269.92 192,-270.31 189.93,-263.62"/>
<text text-anchor="start" x="229" y="-273.5" font-family="Helvetica,sans-Serif" font-size="10.00"> &lt; FiniteElement&lt; dim,</text>
<text text-anchor="middle" x="279" y="-262.5" font-family="Helvetica,sans-Serif" font-size="10.00"> dim &gt; &gt;</text>
</g>
<!-- Node2 -->
<g id="node2" class="node">
<title>Node2</title>
<g id="a_node2"><a xlink:href="classSubscriptor.html" target="_top" xlink:title=" ">
<polygon fill="white" stroke="black" points="0,-270 0,-289 66,-289 66,-270 0,-270"/>
<text text-anchor="middle" x="33" y="-277" font-family="Helvetica,sans-Serif" font-size="10.00">Subscriptor</text>
</a>
</g>
</g>
<!-- Node2&#45;&gt;Node1 -->
<g id="edge1" class="edge">
<title>Node2&#45;&gt;Node1</title>
<path fill="none" stroke="midnightblue" d="M76.18,-279.5C84.72,-279.5 93.79,-279.5 102.57,-279.5"/>
<polygon fill="midnightblue" stroke="midnightblue" points="76.07,-276 66.07,-279.5 76.07,-283 76.07,-276"/>
</g>
<!-- Node5&#45;&gt;Node3 -->
<g id="edge5" class="edge">
<title>Node5&#45;&gt;Node3</title>
<path fill="none" stroke="midnightblue" d="M498.57,-356.8C512.15,-358.59 526.21,-360.44 539.25,-362.16"/>
<polygon fill="midnightblue" stroke="midnightblue" points="498.66,-353.28 488.29,-355.44 497.75,-360.22 498.66,-353.28"/>
</g>
<!-- Node7 -->
<g id="node7" class="node">
<title>Node7</title>
<g id="a_node7"><a xlink:href="classhp_1_1FECollection.html" target="_top" xlink:title=" ">
<polygon fill="white" stroke="black" points="537.5,-235.5 537.5,-265.5 654.5,-265.5 654.5,-235.5 537.5,-235.5"/>
<text text-anchor="start" x="545.5" y="-253.5" font-family="Helvetica,sans-Serif" font-size="10.00">hp::FECollection&lt; dim,</text>
<text text-anchor="middle" x="596" y="-242.5" font-family="Helvetica,sans-Serif" font-size="10.00"> spacedim &gt;</text>
</a>
</g>
</g>
<!-- Node6&#45;&gt;Node7 -->
<g id="edge7" class="edge">
<title>Node6&#45;&gt;Node7</title>
<path fill="none" stroke="midnightblue" d="M487.93,-218.44C506.51,-224.01 526.78,-230.08 544.64,-235.42"/>
<polygon fill="midnightblue" stroke="midnightblue" points="488.69,-215.02 478.11,-215.5 486.68,-221.72 488.69,-215.02"/>
</g>
<!-- Node8 -->
<g id="node8" class="node">
<title>Node8</title>
<g id="a_node8"><a xlink:href="classhp_1_1FECollection.html" target="_top" xlink:title=" ">
<polygon fill="white" stroke="black" points="537.5,-185.5 537.5,-215.5 654.5,-215.5 654.5,-185.5 537.5,-185.5"/>
<text text-anchor="start" x="545.5" y="-203.5" font-family="Helvetica,sans-Serif" font-size="10.00">hp::FECollection&lt; dim,</text>
<text text-anchor="middle" x="596" y="-192.5" font-family="Helvetica,sans-Serif" font-size="10.00"> dim &gt;</text>
</a>
</g>
</g>
<!-- Node6&#45;&gt;Node8 -->
<g id="edge8" class="edge">
<title>Node6&#45;&gt;Node8</title>
<path fill="none" stroke="midnightblue" d="M510.53,-200.5C519.63,-200.5 528.75,-200.5 537.45,-200.5"/>
<polygon fill="midnightblue" stroke="midnightblue" points="510.28,-197 500.28,-200.5 510.28,-204 510.28,-197"/>
</g>
<!-- Node10 -->
<g id="node10" class="node">
<title>Node10</title>
<g id="a_node10"><a xlink:href="classhp_1_1QCollection.html" target="_top" xlink:title=" ">
<polygon fill="white" stroke="black" points="770,-0.5 770,-30.5 879,-30.5 879,-0.5 770,-0.5"/>
<text text-anchor="start" x="778" y="-18.5" font-family="Helvetica,sans-Serif" font-size="10.00">hp::QCollection&lt; dim</text>
<text text-anchor="middle" x="824.5" y="-7.5" font-family="Helvetica,sans-Serif" font-size="10.00"> &#45; 1 &gt;</text>
</a>
</g>
</g>
<!-- Node9&#45;&gt;Node10 -->
<g id="edge10" class="edge">
<title>Node9&#45;&gt;Node10</title>
<path fill="none" stroke="midnightblue" d="M457.4,-75.74C478.5,-62.02 508.19,-45.04 537,-36.5 615.54,-13.22 711.23,-11.17 769.74,-12.69"/>
<polygon fill="midnightblue" stroke="midnightblue" points="455.29,-72.94 448.91,-81.39 459.17,-78.77 455.29,-72.94"/>
</g>
<!-- Node11 -->
<g id="node11" class="node">
<title>Node11</title>
<g id="a_node11"><a xlink:href="classhp_1_1QCollection.html" target="_top" xlink:title=" ">
<polygon fill="white" stroke="black" points="775.5,-126.5 775.5,-156.5 873.5,-156.5 873.5,-126.5 775.5,-126.5"/>
<text text-anchor="start" x="783.5" y="-144.5" font-family="Helvetica,sans-Serif" font-size="10.00">hp::QCollection&lt; q</text>
<text text-anchor="middle" x="824.5" y="-133.5" font-family="Helvetica,sans-Serif" font-size="10.00">_dim &gt;</text>
</a>
</g>
</g>
<!-- Node9&#45;&gt;Node11 -->
<g id="edge11" class="edge">
<title>Node9&#45;&gt;Node11</title>
<path fill="none" stroke="midnightblue" d="M504.29,-109.85C515.26,-111.75 526.42,-113.68 537,-115.5 597.42,-125.87 611.97,-132.76 673,-138.5 707.08,-141.7 745.7,-142.41 775.27,-142.34"/>
<polygon fill="midnightblue" stroke="midnightblue" points="504.73,-106.37 494.28,-108.11 503.53,-113.27 504.73,-106.37"/>
</g>
<!-- Node12 -->
<g id="node12" class="node">
<title>Node12</title>
<g id="a_node12"><a xlink:href="classhp_1_1QCollection.html" target="_top" xlink:title=" ">
<polygon fill="white" stroke="black" points="753,-75 753,-94 896,-94 896,-75 753,-75"/>
<text text-anchor="middle" x="824.5" y="-82" font-family="Helvetica,sans-Serif" font-size="10.00">hp::QCollection&lt; structdim &gt;</text>
</a>
</g>
</g>
<!-- Node9&#45;&gt;Node12 -->
<g id="edge12" class="edge">
<title>Node9&#45;&gt;Node12</title>
<path fill="none" stroke="midnightblue" d="M474.68,-77.95C535.05,-56.42 643.35,-26.2 735,-45.5 761.62,-51.1 789.99,-65.23 807.23,-74.85"/>
<polygon fill="midnightblue" stroke="midnightblue" points="473.25,-74.74 465.05,-81.45 475.65,-81.32 473.25,-74.74"/>
</g>
<!-- Node13 -->
<g id="node13" class="node">
<title>Node13</title>
<g id="a_node13"><a xlink:href="classhp_1_1QCollection.html" target="_top" xlink:title=" ">
<polygon fill="white" stroke="black" points="537,-87 537,-106 655,-106 655,-87 537,-87"/>
<text text-anchor="middle" x="596" y="-94" font-family="Helvetica,sans-Serif" font-size="10.00">hp::QCollection&lt; dim &gt;</text>
</a>
</g>
</g>
<!-- Node9&#45;&gt;Node13 -->
<g id="edge13" class="edge">
<title>Node9&#45;&gt;Node13</title>
<path fill="none" stroke="midnightblue" d="M504.03,-96.5C515.03,-96.5 526.2,-96.5 536.78,-96.5"/>
<polygon fill="midnightblue" stroke="midnightblue" points="504,-93 494,-96.5 504,-100 504,-93"/>
</g>
<!-- Node13&#45;&gt;Node10 -->
<g id="edge14" class="edge">
<title>Node13&#45;&gt;Node10</title>
<path fill="none" stroke="orange" stroke-dasharray="5,2" d="M633.32,-83.51C673.65,-69.09 738.68,-45.83 781.25,-30.61"/>
<polygon fill="orange" stroke="orange" points="632.11,-80.23 623.87,-86.89 634.47,-86.82 632.11,-80.23"/>
<text text-anchor="middle" x="704" y="-71.5" font-family="Helvetica,sans-Serif" font-size="10.00"> &lt; dim &#45; 1 &gt;</text>
</g>
<!-- Node13&#45;&gt;Node11 -->
<g id="edge15" class="edge">
<title>Node13&#45;&gt;Node11</title>
<path fill="none" stroke="orange" stroke-dasharray="5,2" d="M655.23,-108.07C692.41,-115.46 740.05,-124.92 775.14,-131.89"/>
<polygon fill="orange" stroke="orange" points="655.53,-104.56 645.03,-106.04 654.16,-111.42 655.53,-104.56"/>
<text text-anchor="middle" x="704" y="-126.5" font-family="Helvetica,sans-Serif" font-size="10.00"> &lt; q_dim &gt;</text>
</g>
<!-- Node13&#45;&gt;Node12 -->
<g id="edge16" class="edge">
<title>Node13&#45;&gt;Node12</title>
<path fill="none" stroke="orange" stroke-dasharray="5,2" d="M665.02,-92.9C692.71,-91.43 724.71,-89.73 752.67,-88.25"/>
<polygon fill="orange" stroke="orange" points="664.84,-89.4 655.04,-93.43 665.21,-96.39 664.84,-89.4"/>
<text text-anchor="middle" x="704" y="-95.5" font-family="Helvetica,sans-Serif" font-size="10.00"> &lt; structdim &gt;</text>
</g>
<!-- Node14&#45;&gt;Node7 -->
<g id="edge18" class="edge">
<title>Node14&#45;&gt;Node7</title>
<path fill="none" stroke="midnightblue" d="M510.53,-249.99C519.63,-250.05 528.75,-250.1 537.45,-250.16"/>
<polygon fill="midnightblue" stroke="midnightblue" points="510.3,-246.49 500.28,-249.93 510.26,-253.49 510.3,-246.49"/>
</g>
</g>
</svg>
