<?xml version="1.0" encoding="UTF-8" standalone="no"?>
<!DOCTYPE svg PUBLIC "-//W3C//DTD SVG 1.1//EN"
 "http://www.w3.org/Graphics/SVG/1.1/DTD/svg11.dtd">
<!-- Generated by graphviz version 2.47.1 (20210417.1919)
 -->
<!-- Title: EigenInverse&lt; VectorType &gt; Pages: 1 -->
<svg width="225pt" height="220pt"
 viewBox="0.00 0.00 224.50 220.00" xmlns="http://www.w3.org/2000/svg" xmlns:xlink="http://www.w3.org/1999/xlink">
<g id="graph0" class="graph" transform="scale(1 1) rotate(0) translate(4 216)">
<title>EigenInverse&lt; VectorType &gt;</title>
<polygon fill="white" stroke="transparent" points="-4,4 -4,-216 220.5,-216 220.5,4 -4,4"/>
<!-- Node1 -->
<g id="node1" class="node">
<title>Node1</title>
<g id="a_node1"><a xlink:title=" ">
<polygon fill="#bfbfbf" stroke="black" points="0,-0.5 0,-19.5 141,-19.5 141,-0.5 0,-0.5"/>
<text text-anchor="middle" x="70.5" y="-7.5" font-family="Helvetica,sans-Serif" font-size="10.00">EigenInverse&lt; VectorType &gt;</text>
</a>
</g>
</g>
<!-- Node2 -->
<g id="node2" class="node">
<title>Node2</title>
<g id="a_node2"><a xlink:href="classSolverBase.html" target="_top" xlink:title=" ">
<polygon fill="white" stroke="black" points="18.5,-57.5 18.5,-87.5 122.5,-87.5 122.5,-57.5 18.5,-57.5"/>
<text text-anchor="start" x="26.5" y="-75.5" font-family="Helvetica,sans-Serif" font-size="10.00">SolverBase&lt; Vector</text>
<text text-anchor="middle" x="70.5" y="-64.5" font-family="Helvetica,sans-Serif" font-size="10.00">&lt; double &gt; &gt;</text>
</a>
</g>
</g>
<!-- Node2&#45;&gt;Node1 -->
<g id="edge1" class="edge">
<title>Node2&#45;&gt;Node1</title>
<path fill="none" stroke="#8b1a1a" d="M70.5,-47.35C70.5,-37.51 70.5,-26.78 70.5,-19.54"/>
<polygon fill="#8b1a1a" stroke="#8b1a1a" points="67,-47.47 70.5,-57.47 74,-47.47 67,-47.47"/>
</g>
<!-- Node3 -->
<g id="node3" class="node">
<title>Node3</title>
<g id="a_node3"><a xlink:href="classSubscriptor.html" target="_top" xlink:title=" ">
<polygon fill="white" stroke="black" points="33.5,-192.5 33.5,-211.5 99.5,-211.5 99.5,-192.5 33.5,-192.5"/>
<text text-anchor="middle" x="66.5" y="-199.5" font-family="Helvetica,sans-Serif" font-size="10.00">Subscriptor</text>
</a>
</g>
</g>
<!-- Node3&#45;&gt;Node2 -->
<g id="edge2" class="edge">
<title>Node3&#45;&gt;Node2</title>
<path fill="none" stroke="midnightblue" d="M67.1,-181.9C67.91,-156.05 69.34,-110.54 70.06,-87.59"/>
<polygon fill="midnightblue" stroke="midnightblue" points="63.59,-182.13 66.77,-192.24 70.59,-182.35 63.59,-182.13"/>
</g>
<!-- Node4 -->
<g id="node4" class="node">
<title>Node4</title>
<g id="a_node4"><a xlink:href="classSolverBase.html" target="_top" xlink:title=" ">
<polygon fill="white" stroke="black" points="82.5,-135.5 82.5,-154.5 216.5,-154.5 216.5,-135.5 82.5,-135.5"/>
<text text-anchor="middle" x="149.5" y="-142.5" font-family="Helvetica,sans-Serif" font-size="10.00">SolverBase&lt; VectorType &gt;</text>
</a>
</g>
</g>
<!-- Node3&#45;&gt;Node4 -->
<g id="edge4" class="edge">
<title>Node3&#45;&gt;Node4</title>
<path fill="none" stroke="midnightblue" d="M87.89,-186.82C103.31,-176.61 123.62,-163.15 136.62,-154.53"/>
<polygon fill="midnightblue" stroke="midnightblue" points="85.87,-183.96 79.47,-192.41 89.74,-189.8 85.87,-183.96"/>
</g>
<!-- Node4&#45;&gt;Node2 -->
<g id="edge3" class="edge">
<title>Node4&#45;&gt;Node2</title>
<path fill="none" stroke="orange" stroke-dasharray="5,2" d="M132.06,-128.44C118.38,-116.23 99.51,-99.39 86.27,-87.58"/>
<polygon fill="orange" stroke="orange" points="130.02,-131.31 139.81,-135.36 134.68,-126.09 130.02,-131.31"/>
<text text-anchor="middle" x="165" y="-109" font-family="Helvetica,sans-Serif" font-size="10.00"> &lt; Vector&lt; double &gt; &gt;</text>
</g>
</g>
</svg>
