<?xml version="1.0" encoding="UTF-8" standalone="no"?>
<!DOCTYPE svg PUBLIC "-//W3C//DTD SVG 1.1//EN"
 "http://www.w3.org/Graphics/SVG/1.1/DTD/svg11.dtd">
<!-- Generated by graphviz version 2.47.1 (20210417.1919)
 -->
<!-- Title: MGCoarseGridIterativeSolver&lt; VectorType, SolverType, MatrixType, PreconditionerType &gt; Pages: 1 -->
<svg width="174pt" height="173pt"
 viewBox="0.00 0.00 174.00 173.00" xmlns="http://www.w3.org/2000/svg" xmlns:xlink="http://www.w3.org/1999/xlink">
<g id="graph0" class="graph" transform="scale(1 1) rotate(0) translate(4 169)">
<title>MGCoarseGridIterativeSolver&lt; VectorType, SolverType, MatrixType, PreconditionerType &gt;</title>
<polygon fill="white" stroke="transparent" points="-4,4 -4,-169 170,-169 170,4 -4,4"/>
<!-- Node1 -->
<g id="node1" class="node">
<title>Node1</title>
<g id="a_node1"><a xlink:title=" ">
<polygon fill="#bfbfbf" stroke="black" points="0,-0.5 0,-41.5 166,-41.5 166,-0.5 0,-0.5"/>
<text text-anchor="start" x="8" y="-29.5" font-family="Helvetica,sans-Serif" font-size="10.00">MGCoarseGridIterativeSolver</text>
<text text-anchor="start" x="8" y="-18.5" font-family="Helvetica,sans-Serif" font-size="10.00">&lt; VectorType, SolverType,</text>
<text text-anchor="middle" x="83" y="-7.5" font-family="Helvetica,sans-Serif" font-size="10.00"> MatrixType, PreconditionerType &gt;</text>
</a>
</g>
</g>
<!-- Node2 -->
<g id="node2" class="node">
<title>Node2</title>
<g id="a_node2"><a xlink:href="classMGCoarseGridBase.html" target="_top" xlink:title=" ">
<polygon fill="white" stroke="black" points="12,-78.5 12,-108.5 154,-108.5 154,-78.5 12,-78.5"/>
<text text-anchor="start" x="20" y="-96.5" font-family="Helvetica,sans-Serif" font-size="10.00">MGCoarseGridBase&lt; Vector</text>
<text text-anchor="middle" x="83" y="-85.5" font-family="Helvetica,sans-Serif" font-size="10.00">Type &gt;</text>
</a>
</g>
</g>
<!-- Node2&#45;&gt;Node1 -->
<g id="edge1" class="edge">
<title>Node2&#45;&gt;Node1</title>
<path fill="none" stroke="midnightblue" d="M83,-67.98C83,-59.35 83,-49.76 83,-41.59"/>
<polygon fill="midnightblue" stroke="midnightblue" points="79.5,-68.23 83,-78.23 86.5,-68.23 79.5,-68.23"/>
</g>
<!-- Node3 -->
<g id="node3" class="node">
<title>Node3</title>
<g id="a_node3"><a xlink:href="classSubscriptor.html" target="_top" xlink:title=" ">
<polygon fill="white" stroke="black" points="50,-145.5 50,-164.5 116,-164.5 116,-145.5 50,-145.5"/>
<text text-anchor="middle" x="83" y="-152.5" font-family="Helvetica,sans-Serif" font-size="10.00">Subscriptor</text>
</a>
</g>
</g>
<!-- Node3&#45;&gt;Node2 -->
<g id="edge2" class="edge">
<title>Node3&#45;&gt;Node2</title>
<path fill="none" stroke="midnightblue" d="M83,-135.23C83,-126.59 83,-116.5 83,-108.52"/>
<polygon fill="midnightblue" stroke="midnightblue" points="79.5,-135.48 83,-145.48 86.5,-135.48 79.5,-135.48"/>
</g>
</g>
</svg>
