<?xml version="1.0" encoding="UTF-8" standalone="no"?>
<!DOCTYPE svg PUBLIC "-//W3C//DTD SVG 1.1//EN"
 "http://www.w3.org/Graphics/SVG/1.1/DTD/svg11.dtd">
<!-- Generated by graphviz version 2.47.1 (20210417.1919)
 -->
<!-- Title: DoFInvalidAccessor&lt; structdim, dim, spacedim &gt; Pages: 1 -->
<svg width="1087pt" height="90pt"
 viewBox="0.00 0.00 1087.00 90.00" xmlns="http://www.w3.org/2000/svg" xmlns:xlink="http://www.w3.org/1999/xlink">
<g id="graph0" class="graph" transform="scale(1 1) rotate(0) translate(4 86)">
<title>DoFInvalidAccessor&lt; structdim, dim, spacedim &gt;</title>
<polygon fill="white" stroke="transparent" points="-4,4 -4,-86 1083,-86 1083,4 -4,4"/>
<!-- Node1 -->
<g id="node1" class="node">
<title>Node1</title>
<g id="a_node1"><a xlink:title=" ">
<polygon fill="#bfbfbf" stroke="black" points="934,-26.5 934,-56.5 1079,-56.5 1079,-26.5 934,-26.5"/>
<text text-anchor="start" x="942" y="-44.5" font-family="Helvetica,sans-Serif" font-size="10.00">DoFInvalidAccessor</text>
<text text-anchor="middle" x="1006.5" y="-33.5" font-family="Helvetica,sans-Serif" font-size="10.00">&lt; structdim, dim, spacedim &gt;</text>
</a>
</g>
</g>
<!-- Node2 -->
<g id="node2" class="node">
<title>Node2</title>
<g id="a_node2"><a xlink:href="classInvalidAccessor.html" target="_top" xlink:title=" ">
<polygon fill="white" stroke="black" points="758,-26.5 758,-56.5 897,-56.5 897,-26.5 758,-26.5"/>
<text text-anchor="start" x="766" y="-44.5" font-family="Helvetica,sans-Serif" font-size="10.00">InvalidAccessor&lt; structdim,</text>
<text text-anchor="middle" x="827.5" y="-33.5" font-family="Helvetica,sans-Serif" font-size="10.00"> dim, dim &gt;</text>
</a>
</g>
</g>
<!-- Node2&#45;&gt;Node1 -->
<g id="edge1" class="edge">
<title>Node2&#45;&gt;Node1</title>
<path fill="none" stroke="midnightblue" d="M907.45,-41.5C916.27,-41.5 925.21,-41.5 933.93,-41.5"/>
<polygon fill="midnightblue" stroke="midnightblue" points="907.19,-38 897.19,-41.5 907.19,-45 907.19,-38"/>
</g>
<!-- Node3 -->
<g id="node3" class="node">
<title>Node3</title>
<g id="a_node3"><a xlink:href="classTriaAccessorBase.html" target="_top" xlink:title=" ">
<polygon fill="white" stroke="black" points="0,-22.5 0,-52.5 149,-52.5 149,-22.5 0,-22.5"/>
<text text-anchor="start" x="8" y="-40.5" font-family="Helvetica,sans-Serif" font-size="10.00">TriaAccessorBase&lt; structdim,</text>
<text text-anchor="middle" x="74.5" y="-29.5" font-family="Helvetica,sans-Serif" font-size="10.00"> dim, spacedim &gt;</text>
</a>
</g>
</g>
<!-- Node3&#45;&gt;Node2 -->
<g id="edge2" class="edge">
<title>Node3&#45;&gt;Node2</title>
<path fill="none" stroke="midnightblue" d="M159.37,-45.12C161.94,-45.26 164.49,-45.39 167,-45.5 421.42,-56.6 485.4,-51.38 740,-45.5 745.71,-45.37 751.63,-45.19 757.58,-44.97"/>
<polygon fill="midnightblue" stroke="midnightblue" points="159.57,-41.63 149.37,-44.52 159.14,-48.62 159.57,-41.63"/>
</g>
<!-- Node3&#45;&gt;Node3 -->
<g id="edge3" class="edge">
<title>Node3&#45;&gt;Node3</title>
<path fill="none" stroke="orange" stroke-dasharray="5,2" d="M48.91,-62.96C52.09,-67.68 60.62,-71 74.5,-71 97.28,-71 105.65,-62.06 99.59,-52.66"/>
<polygon fill="orange" stroke="orange" points="52.42,-62.81 49.41,-52.66 45.43,-62.48 52.42,-62.81"/>
<text text-anchor="middle" x="74.5" y="-74" font-family="Helvetica,sans-Serif" font-size="10.00"> &lt; structdim, dim, spacedim &gt;</text>
</g>
<!-- Node5 -->
<g id="node5" class="node">
<title>Node5</title>
<g id="a_node5"><a xlink:href="classTriaAccessorBase.html" target="_top" xlink:title=" ">
<polygon fill="white" stroke="black" points="291,-0.5 291,-30.5 440,-30.5 440,-0.5 291,-0.5"/>
<text text-anchor="start" x="299" y="-18.5" font-family="Helvetica,sans-Serif" font-size="10.00">TriaAccessorBase&lt; structdim,</text>
<text text-anchor="middle" x="365.5" y="-7.5" font-family="Helvetica,sans-Serif" font-size="10.00"> dim, dim &gt;</text>
</a>
</g>
</g>
<!-- Node3&#45;&gt;Node5 -->
<g id="edge6" class="edge">
<title>Node3&#45;&gt;Node5</title>
<path fill="none" stroke="orange" stroke-dasharray="5,2" d="M159.3,-31.12C200.94,-27.95 250.81,-24.15 290.96,-21.1"/>
<polygon fill="orange" stroke="orange" points="158.88,-27.64 149.17,-31.89 159.41,-34.62 158.88,-27.64"/>
<text text-anchor="middle" x="220" y="-33.5" font-family="Helvetica,sans-Serif" font-size="10.00"> &lt; structdim, dim, dim &gt;</text>
</g>
<!-- Node4 -->
<g id="node4" class="node">
<title>Node4</title>
<g id="a_node4"><a xlink:href="classInvalidAccessor.html" target="_top" xlink:title=" ">
<polygon fill="white" stroke="black" points="477,-0.5 477,-30.5 616,-30.5 616,-0.5 477,-0.5"/>
<text text-anchor="start" x="485" y="-18.5" font-family="Helvetica,sans-Serif" font-size="10.00">InvalidAccessor&lt; structdim,</text>
<text text-anchor="middle" x="546.5" y="-7.5" font-family="Helvetica,sans-Serif" font-size="10.00"> dim, spacedim &gt;</text>
</a>
</g>
</g>
<!-- Node4&#45;&gt;Node2 -->
<g id="edge4" class="edge">
<title>Node4&#45;&gt;Node2</title>
<path fill="none" stroke="orange" stroke-dasharray="5,2" d="M626.16,-22.83C667.55,-26.69 717.84,-31.37 757.67,-35.09"/>
<polygon fill="orange" stroke="orange" points="626.39,-19.34 616.11,-21.89 625.74,-26.31 626.39,-19.34"/>
<text text-anchor="middle" x="687" y="-36.5" font-family="Helvetica,sans-Serif" font-size="10.00"> &lt; structdim, dim, dim &gt;</text>
</g>
<!-- Node5&#45;&gt;Node4 -->
<g id="edge5" class="edge">
<title>Node5&#45;&gt;Node4</title>
<path fill="none" stroke="midnightblue" d="M450.12,-15.5C459.06,-15.5 468.07,-15.5 476.81,-15.5"/>
<polygon fill="midnightblue" stroke="midnightblue" points="450.08,-12 440.08,-15.5 450.08,-19 450.08,-12"/>
</g>
</g>
</svg>
