<?xml version="1.0" encoding="UTF-8" standalone="no"?>
<!DOCTYPE svg PUBLIC "-//W3C//DTD SVG 1.1//EN"
 "http://www.w3.org/Graphics/SVG/1.1/DTD/svg11.dtd">
<!-- Generated by graphviz version 2.47.1 (20210417.1919)
 -->
<!-- Title: PreconditionBlockSOR&lt; MatrixType, inverse_type &gt; Pages: 1 -->
<svg width="1404pt" height="146pt"
 viewBox="0.00 0.00 1404.00 146.00" xmlns="http://www.w3.org/2000/svg" xmlns:xlink="http://www.w3.org/1999/xlink">
<g id="graph0" class="graph" transform="scale(1 1) rotate(0) translate(4 142)">
<title>PreconditionBlockSOR&lt; MatrixType, inverse_type &gt;</title>
<polygon fill="white" stroke="transparent" points="-4,4 -4,-142 1400,-142 1400,4 -4,4"/>
<!-- Node1 -->
<g id="node1" class="node">
<title>Node1</title>
<g id="a_node1"><a xlink:title=" ">
<polygon fill="#bfbfbf" stroke="black" points="838,-95.5 838,-136.5 955,-136.5 955,-95.5 838,-95.5"/>
<text text-anchor="start" x="846" y="-124.5" font-family="Helvetica,sans-Serif" font-size="10.00">PreconditionBlockSOR</text>
<text text-anchor="start" x="846" y="-113.5" font-family="Helvetica,sans-Serif" font-size="10.00">&lt; MatrixType, inverse</text>
<text text-anchor="middle" x="896.5" y="-102.5" font-family="Helvetica,sans-Serif" font-size="10.00">_type &gt;</text>
</a>
</g>
</g>
<!-- Node7 -->
<g id="node7" class="node">
<title>Node7</title>
<g id="a_node7"><a xlink:href="classPreconditionBlockSOR.html" target="_top" xlink:title=" ">
<polygon fill="white" stroke="black" points="1105,-95.5 1105,-136.5 1235,-136.5 1235,-95.5 1105,-95.5"/>
<text text-anchor="start" x="1113" y="-124.5" font-family="Helvetica,sans-Serif" font-size="10.00">PreconditionBlockSOR</text>
<text text-anchor="start" x="1113" y="-113.5" font-family="Helvetica,sans-Serif" font-size="10.00">&lt; MatrixType, typename</text>
<text text-anchor="middle" x="1170" y="-102.5" font-family="Helvetica,sans-Serif" font-size="10.00"> MatrixType::value_type &gt;</text>
</a>
</g>
</g>
<!-- Node1&#45;&gt;Node7 -->
<g id="edge9" class="edge">
<title>Node1&#45;&gt;Node7</title>
<path fill="none" stroke="orange" stroke-dasharray="5,2" d="M965.11,-116C1007.86,-116 1062.78,-116 1104.85,-116"/>
<polygon fill="orange" stroke="orange" points="965.08,-112.5 955.08,-116 965.08,-119.5 965.08,-112.5"/>
<text text-anchor="start" x="973" y="-130" font-family="Helvetica,sans-Serif" font-size="10.00"> &lt; MatrixType, typename</text>
<text text-anchor="middle" x="1030" y="-119" font-family="Helvetica,sans-Serif" font-size="10.00"> MatrixType::value_type &gt;</text>
</g>
<!-- Node2 -->
<g id="node2" class="node">
<title>Node2</title>
<g id="a_node2"><a xlink:href="classSubscriptor.html" target="_top" xlink:title=" ">
<polygon fill="white" stroke="black" points="286.5,-93.5 286.5,-112.5 352.5,-112.5 352.5,-93.5 286.5,-93.5"/>
<text text-anchor="middle" x="319.5" y="-100.5" font-family="Helvetica,sans-Serif" font-size="10.00">Subscriptor</text>
</a>
</g>
</g>
<!-- Node2&#45;&gt;Node1 -->
<g id="edge1" class="edge">
<title>Node2&#45;&gt;Node1</title>
<path fill="none" stroke="midnightblue" d="M362.62,-112.12C373.74,-114.14 385.78,-115.98 397,-117 397.44,-117.04 397.56,-117 398,-117 557.14,-116.84 744.91,-116.39 837.67,-116.15"/>
<polygon fill="midnightblue" stroke="midnightblue" points="363.18,-108.66 352.71,-110.23 361.87,-115.54 363.18,-108.66"/>
</g>
<!-- Node3 -->
<g id="node3" class="node">
<title>Node3</title>
<g id="a_node3"><a xlink:href="classPreconditionBlock.html" target="_top" xlink:title=" ">
<polygon fill="white" stroke="black" points="671,-52.5 671,-93.5 801,-93.5 801,-52.5 671,-52.5"/>
<text text-anchor="start" x="679" y="-81.5" font-family="Helvetica,sans-Serif" font-size="10.00">PreconditionBlock&lt;</text>
<text text-anchor="start" x="679" y="-70.5" font-family="Helvetica,sans-Serif" font-size="10.00"> MatrixType, typename</text>
<text text-anchor="middle" x="736" y="-59.5" font-family="Helvetica,sans-Serif" font-size="10.00"> MatrixType::value_type &gt;</text>
</a>
</g>
</g>
<!-- Node2&#45;&gt;Node3 -->
<g id="edge3" class="edge">
<title>Node2&#45;&gt;Node3</title>
<path fill="none" stroke="midnightblue" d="M362.73,-103.25C426.03,-103.17 549.19,-101.24 653,-89 658.76,-88.32 664.73,-87.46 670.69,-86.5"/>
<polygon fill="midnightblue" stroke="midnightblue" points="362.73,-99.75 352.73,-103.25 362.72,-106.75 362.73,-99.75"/>
</g>
<!-- Node6 -->
<g id="node6" class="node">
<title>Node6</title>
<g id="a_node6"><a xlink:href="classPreconditionBlock.html" target="_top" xlink:title=" ">
<polygon fill="white" stroke="black" points="416,-33.5 416,-74.5 521,-74.5 521,-33.5 416,-33.5"/>
<text text-anchor="start" x="424" y="-62.5" font-family="Helvetica,sans-Serif" font-size="10.00">PreconditionBlock&lt;</text>
<text text-anchor="start" x="424" y="-51.5" font-family="Helvetica,sans-Serif" font-size="10.00"> MatrixType, inverse</text>
<text text-anchor="middle" x="468.5" y="-40.5" font-family="Helvetica,sans-Serif" font-size="10.00">_type &gt;</text>
</a>
</g>
</g>
<!-- Node2&#45;&gt;Node6 -->
<g id="edge7" class="edge">
<title>Node2&#45;&gt;Node6</title>
<path fill="none" stroke="midnightblue" d="M359.01,-90.16C376.41,-84.36 397.24,-77.42 415.97,-71.18"/>
<polygon fill="midnightblue" stroke="midnightblue" points="357.57,-86.95 349.19,-93.44 359.79,-93.59 357.57,-86.95"/>
</g>
<!-- Node3&#45;&gt;Node1 -->
<g id="edge2" class="edge">
<title>Node3&#45;&gt;Node1</title>
<path fill="none" stroke="darkgreen" d="M810.82,-93.03C819.91,-95.49 829.1,-97.99 837.9,-100.37"/>
<polygon fill="darkgreen" stroke="darkgreen" points="811.58,-89.61 801.01,-90.37 809.75,-96.36 811.58,-89.61"/>
</g>
<!-- Node4 -->
<g id="node4" class="node">
<title>Node4</title>
<g id="a_node4"><a xlink:href="classPreconditionBlockBase.html" target="_top" xlink:title=" ">
<polygon fill="white" stroke="black" points="260,-0.5 260,-41.5 379,-41.5 379,-0.5 260,-0.5"/>
<text text-anchor="start" x="268" y="-29.5" font-family="Helvetica,sans-Serif" font-size="10.00">PreconditionBlockBase</text>
<text text-anchor="start" x="268" y="-18.5" font-family="Helvetica,sans-Serif" font-size="10.00">&lt; typename MatrixType</text>
<text text-anchor="middle" x="319.5" y="-7.5" font-family="Helvetica,sans-Serif" font-size="10.00">::value_type &gt;</text>
</a>
</g>
</g>
<!-- Node4&#45;&gt;Node3 -->
<g id="edge4" class="edge">
<title>Node4&#45;&gt;Node3</title>
<path fill="none" stroke="darkgreen" d="M389.2,-18.5C428.02,-17.97 477.37,-18.77 521,-24 580.74,-31.16 594.36,-40.54 653,-54 658.84,-55.34 664.91,-56.74 670.99,-58.14"/>
<polygon fill="darkgreen" stroke="darkgreen" points="389,-15 379.06,-18.67 389.12,-22 389,-15"/>
</g>
<!-- Node4&#45;&gt;Node6 -->
<g id="edge8" class="edge">
<title>Node4&#45;&gt;Node6</title>
<path fill="none" stroke="darkgreen" d="M388.81,-36.34C397.9,-38.38 407.09,-40.44 415.83,-42.4"/>
<polygon fill="darkgreen" stroke="darkgreen" points="389.54,-32.91 379.02,-34.14 388.01,-39.74 389.54,-32.91"/>
</g>
<!-- Node5 -->
<g id="node5" class="node">
<title>Node5</title>
<g id="a_node5"><a xlink:href="classPreconditionBlockBase.html" target="_top" xlink:title=" ">
<polygon fill="white" stroke="black" points="0,-6 0,-36 118,-36 118,-6 0,-6"/>
<text text-anchor="start" x="8" y="-24" font-family="Helvetica,sans-Serif" font-size="10.00">PreconditionBlockBase</text>
<text text-anchor="middle" x="59" y="-13" font-family="Helvetica,sans-Serif" font-size="10.00">&lt; number &gt;</text>
</a>
</g>
</g>
<!-- Node5&#45;&gt;Node4 -->
<g id="edge5" class="edge">
<title>Node5&#45;&gt;Node4</title>
<path fill="none" stroke="orange" stroke-dasharray="5,2" d="M128.18,-21C169.11,-21 220.66,-21 259.79,-21"/>
<polygon fill="orange" stroke="orange" points="128.01,-17.5 118.01,-21 128.01,-24.5 128.01,-17.5"/>
<text text-anchor="start" x="136" y="-35" font-family="Helvetica,sans-Serif" font-size="10.00"> &lt; typename MatrixType</text>
<text text-anchor="middle" x="189" y="-24" font-family="Helvetica,sans-Serif" font-size="10.00">::value_type &gt;</text>
</g>
<!-- Node6&#45;&gt;Node3 -->
<g id="edge6" class="edge">
<title>Node6&#45;&gt;Node3</title>
<path fill="none" stroke="orange" stroke-dasharray="5,2" d="M531.54,-58.36C567.09,-60.87 612.55,-64.09 653,-67 658.84,-67.42 664.91,-67.86 670.99,-68.3"/>
<polygon fill="orange" stroke="orange" points="531.53,-54.85 521.31,-57.64 531.04,-61.83 531.53,-54.85"/>
<text text-anchor="start" x="539" y="-81" font-family="Helvetica,sans-Serif" font-size="10.00"> &lt; MatrixType, typename</text>
<text text-anchor="middle" x="596" y="-70" font-family="Helvetica,sans-Serif" font-size="10.00"> MatrixType::value_type &gt;</text>
</g>
<!-- Node8 -->
<g id="node8" class="node">
<title>Node8</title>
<g id="a_node8"><a xlink:href="classPreconditionBlockSSOR.html" target="_top" xlink:title=" ">
<polygon fill="white" stroke="black" points="1272,-95.5 1272,-136.5 1396,-136.5 1396,-95.5 1272,-95.5"/>
<text text-anchor="start" x="1280" y="-124.5" font-family="Helvetica,sans-Serif" font-size="10.00">PreconditionBlockSSOR</text>
<text text-anchor="start" x="1280" y="-113.5" font-family="Helvetica,sans-Serif" font-size="10.00">&lt; MatrixType, inverse</text>
<text text-anchor="middle" x="1334" y="-102.5" font-family="Helvetica,sans-Serif" font-size="10.00">_type &gt;</text>
</a>
</g>
</g>
<!-- Node7&#45;&gt;Node8 -->
<g id="edge10" class="edge">
<title>Node7&#45;&gt;Node8</title>
<path fill="none" stroke="#8b1a1a" d="M1245.06,-116C1254.01,-116 1263.08,-116 1271.82,-116"/>
<polygon fill="#8b1a1a" stroke="#8b1a1a" points="1245.03,-112.5 1235.03,-116 1245.03,-119.5 1245.03,-112.5"/>
</g>
</g>
</svg>
