<?xml version="1.0" encoding="UTF-8" standalone="no"?>
<!DOCTYPE svg PUBLIC "-//W3C//DTD SVG 1.1//EN"
 "http://www.w3.org/Graphics/SVG/1.1/DTD/svg11.dtd">
<!-- Generated by graphviz version 2.47.1 (20210417.1919)
 -->
<!-- Title: MGLevelObject&lt; Object &gt; Pages: 1 -->
<svg width="782pt" height="541pt"
 viewBox="0.00 0.00 782.00 540.87" xmlns="http://www.w3.org/2000/svg" xmlns:xlink="http://www.w3.org/1999/xlink">
<g id="graph0" class="graph" transform="scale(1 1) rotate(0) translate(4 536.87)">
<title>MGLevelObject&lt; Object &gt;</title>
<polygon fill="white" stroke="transparent" points="-4,4 -4,-536.87 778,-536.87 778,4 -4,4"/>
<!-- Node1 -->
<g id="node1" class="node">
<title>Node1</title>
<g id="a_node1"><a xlink:title=" ">
<polygon fill="#bfbfbf" stroke="black" points="103,-261.37 103,-280.37 234,-280.37 234,-261.37 103,-261.37"/>
<text text-anchor="middle" x="168.5" y="-268.37" font-family="Helvetica,sans-Serif" font-size="10.00">MGLevelObject&lt; Object &gt;</text>
</a>
</g>
</g>
<!-- Node3 -->
<g id="node3" class="node">
<title>Node3</title>
<g id="a_node3"><a xlink:href="classMGLevelObject.html" target="_top" xlink:title=" ">
<polygon fill="white" stroke="black" points="415.5,-483.87 415.5,-513.87 572.5,-513.87 572.5,-483.87 415.5,-483.87"/>
<text text-anchor="start" x="423.5" y="-501.87" font-family="Helvetica,sans-Serif" font-size="10.00">MGLevelObject&lt; LinearOperator</text>
<text text-anchor="middle" x="494" y="-490.87" font-family="Helvetica,sans-Serif" font-size="10.00">&lt; BlockVector&lt; number &gt; &gt; &gt;</text>
</a>
</g>
</g>
<!-- Node1&#45;&gt;Node3 -->
<g id="edge2" class="edge">
<title>Node1&#45;&gt;Node3</title>
<path fill="none" stroke="orange" stroke-dasharray="5,2" d="M171.05,-290.8C175.45,-332.49 191.94,-428.77 252,-473.87 298.17,-508.54 364.1,-513.22 415.34,-510.11"/>
<polygon fill="orange" stroke="orange" points="174.51,-290.21 170.1,-280.58 167.54,-290.86 174.51,-290.21"/>
<text text-anchor="start" x="252" y="-524.87" font-family="Helvetica,sans-Serif" font-size="10.00"> &lt; LinearOperator&lt; BlockVector</text>
<text text-anchor="middle" x="321.5" y="-513.87" font-family="Helvetica,sans-Serif" font-size="10.00">&lt; number &gt; &gt; &gt;</text>
</g>
<!-- Node4 -->
<g id="node4" class="node">
<title>Node4</title>
<g id="a_node4"><a xlink:href="classMGLevelObject.html" target="_top" xlink:title=" ">
<polygon fill="white" stroke="black" points="415.5,-434.87 415.5,-464.87 572.5,-464.87 572.5,-434.87 415.5,-434.87"/>
<text text-anchor="start" x="423.5" y="-452.87" font-family="Helvetica,sans-Serif" font-size="10.00">MGLevelObject&lt; LinearOperator</text>
<text text-anchor="middle" x="494" y="-441.87" font-family="Helvetica,sans-Serif" font-size="10.00">&lt; VectorType &gt; &gt;</text>
</a>
</g>
</g>
<!-- Node1&#45;&gt;Node4 -->
<g id="edge3" class="edge">
<title>Node1&#45;&gt;Node4</title>
<path fill="none" stroke="orange" stroke-dasharray="5,2" d="M173.76,-290.61C182.2,-324.45 204.49,-392.98 252,-424.87 277.98,-442.31 355.13,-447.93 415.22,-449.57"/>
<polygon fill="orange" stroke="orange" points="177.1,-289.51 171.41,-280.57 170.28,-291.1 177.1,-289.51"/>
<text text-anchor="start" x="264.5" y="-461.87" font-family="Helvetica,sans-Serif" font-size="10.00"> &lt; LinearOperator&lt; Vector</text>
<text text-anchor="middle" x="321.5" y="-450.87" font-family="Helvetica,sans-Serif" font-size="10.00">Type &gt; &gt;</text>
</g>
<!-- Node5 -->
<g id="node5" class="node">
<title>Node5</title>
<g id="a_node5"><a xlink:href="classMGLevelObject.html" target="_top" xlink:title=" ">
<polygon fill="white" stroke="black" points="412,-385.87 412,-415.87 576,-415.87 576,-385.87 412,-385.87"/>
<text text-anchor="start" x="420" y="-403.87" font-family="Helvetica,sans-Serif" font-size="10.00">MGLevelObject&lt; LinearAlgebra</text>
<text text-anchor="middle" x="494" y="-392.87" font-family="Helvetica,sans-Serif" font-size="10.00">::distributed::Vector&lt; Number &gt; &gt;</text>
</a>
</g>
</g>
<!-- Node1&#45;&gt;Node5 -->
<g id="edge4" class="edge">
<title>Node1&#45;&gt;Node5</title>
<path fill="none" stroke="orange" stroke-dasharray="5,2" d="M180.95,-289.14C195,-309.87 220.82,-343.01 252,-359.87 300.99,-386.38 363.1,-396.48 411.99,-400.04"/>
<polygon fill="orange" stroke="orange" points="183.75,-287.03 175.35,-280.58 177.9,-290.87 183.75,-287.03"/>
<text text-anchor="start" x="260" y="-412.87" font-family="Helvetica,sans-Serif" font-size="10.00"> &lt; LinearAlgebra::distributed</text>
<text text-anchor="middle" x="321.5" y="-401.87" font-family="Helvetica,sans-Serif" font-size="10.00">::Vector&lt; Number &gt; &gt;</text>
</g>
<!-- Node6 -->
<g id="node6" class="node">
<title>Node6</title>
<g id="a_node6"><a xlink:href="classMGLevelObject.html" target="_top" xlink:title=" ">
<polygon fill="white" stroke="black" points="418.5,-336.87 418.5,-366.87 569.5,-366.87 569.5,-336.87 418.5,-336.87"/>
<text text-anchor="start" x="426.5" y="-354.87" font-family="Helvetica,sans-Serif" font-size="10.00">MGLevelObject&lt; SparseMatrix</text>
<text text-anchor="middle" x="494" y="-343.87" font-family="Helvetica,sans-Serif" font-size="10.00">&lt; number &gt; &gt;</text>
</a>
</g>
</g>
<!-- Node1&#45;&gt;Node6 -->
<g id="edge5" class="edge">
<title>Node1&#45;&gt;Node6</title>
<path fill="none" stroke="orange" stroke-dasharray="5,2" d="M192.05,-286.01C208.1,-296.06 230.54,-308.67 252,-315.87 306.04,-334.01 369.96,-343.03 418.39,-347.5"/>
<polygon fill="orange" stroke="orange" points="193.71,-282.91 183.4,-280.45 189.92,-288.8 193.71,-282.91"/>
<text text-anchor="middle" x="321.5" y="-347.87" font-family="Helvetica,sans-Serif" font-size="10.00"> &lt; SparseMatrix&lt; number &gt; &gt;</text>
</g>
<!-- Node7 -->
<g id="node7" class="node">
<title>Node7</title>
<g id="a_node7"><a xlink:href="classMGLevelObject.html" target="_top" xlink:title=" ">
<polygon fill="white" stroke="black" points="418,-298.37 418,-317.37 570,-317.37 570,-298.37 418,-298.37"/>
<text text-anchor="middle" x="494" y="-305.37" font-family="Helvetica,sans-Serif" font-size="10.00">MGLevelObject&lt; VectorType &gt;</text>
</a>
</g>
</g>
<!-- Node1&#45;&gt;Node7 -->
<g id="edge6" class="edge">
<title>Node1&#45;&gt;Node7</title>
<path fill="none" stroke="orange" stroke-dasharray="5,2" d="M227.92,-282.16C235.99,-283.53 244.19,-284.81 252,-285.87 307.37,-293.42 370.25,-299.06 417.9,-302.74"/>
<polygon fill="orange" stroke="orange" points="228.26,-278.67 217.81,-280.4 227.06,-285.56 228.26,-278.67"/>
<text text-anchor="middle" x="321.5" y="-303.87" font-family="Helvetica,sans-Serif" font-size="10.00"> &lt; VectorType &gt;</text>
</g>
<!-- Node8 -->
<g id="node8" class="node">
<title>Node8</title>
<g id="a_node8"><a xlink:href="classMGLevelObject.html" target="_top" xlink:title=" ">
<polygon fill="white" stroke="black" points="409,-260.37 409,-279.37 579,-279.37 579,-260.37 409,-260.37"/>
<text text-anchor="middle" x="494" y="-267.37" font-family="Helvetica,sans-Serif" font-size="10.00">MGLevelObject&lt; SparsityPattern &gt;</text>
</a>
</g>
</g>
<!-- Node1&#45;&gt;Node8 -->
<g id="edge7" class="edge">
<title>Node1&#45;&gt;Node8</title>
<path fill="none" stroke="orange" stroke-dasharray="5,2" d="M244.43,-270.64C293.56,-270.49 357.87,-270.29 408.77,-270.14"/>
<polygon fill="orange" stroke="orange" points="244.18,-267.14 234.19,-270.67 244.2,-274.14 244.18,-267.14"/>
<text text-anchor="middle" x="321.5" y="-273.87" font-family="Helvetica,sans-Serif" font-size="10.00"> &lt; SparsityPattern &gt;</text>
</g>
<!-- Node9 -->
<g id="node9" class="node">
<title>Node9</title>
<g id="a_node9"><a xlink:href="classMGLevelObject.html" target="_top" xlink:title=" ">
<polygon fill="white" stroke="black" points="415.5,-210.87 415.5,-240.87 572.5,-240.87 572.5,-210.87 415.5,-210.87"/>
<text text-anchor="start" x="423.5" y="-228.87" font-family="Helvetica,sans-Serif" font-size="10.00">MGLevelObject&lt; LinearOperator</text>
<text text-anchor="middle" x="494" y="-217.87" font-family="Helvetica,sans-Serif" font-size="10.00">&lt; Vector&lt; double &gt; &gt; &gt;</text>
</a>
</g>
</g>
<!-- Node1&#45;&gt;Node9 -->
<g id="edge8" class="edge">
<title>Node1&#45;&gt;Node9</title>
<path fill="none" stroke="orange" stroke-dasharray="5,2" d="M204.35,-257.96C218.89,-253.09 236.07,-247.97 252,-244.87 305.97,-234.38 367.81,-229.65 415.34,-227.54"/>
<polygon fill="orange" stroke="orange" points="203.07,-254.7 194.76,-261.28 205.35,-261.32 203.07,-254.7"/>
<text text-anchor="start" x="264.5" y="-258.87" font-family="Helvetica,sans-Serif" font-size="10.00"> &lt; LinearOperator&lt; Vector</text>
<text text-anchor="middle" x="321.5" y="-247.87" font-family="Helvetica,sans-Serif" font-size="10.00">&lt; double &gt; &gt; &gt;</text>
</g>
<!-- Node10 -->
<g id="node10" class="node">
<title>Node10</title>
<g id="a_node10"><a xlink:href="classMGLevelObject.html" target="_top" xlink:title=" ">
<polygon fill="white" stroke="black" points="424,-161.87 424,-191.87 564,-191.87 564,-161.87 424,-161.87"/>
<text text-anchor="start" x="432" y="-179.87" font-family="Helvetica,sans-Serif" font-size="10.00">MGLevelObject&lt; Relaxation</text>
<text text-anchor="middle" x="494" y="-168.87" font-family="Helvetica,sans-Serif" font-size="10.00">Type &gt;</text>
</a>
</g>
</g>
<!-- Node1&#45;&gt;Node10 -->
<g id="edge9" class="edge">
<title>Node1&#45;&gt;Node10</title>
<path fill="none" stroke="orange" stroke-dasharray="5,2" d="M188.28,-254.54C204.16,-241.65 228.09,-224.32 252,-214.87 307.35,-193 374.53,-183.69 423.89,-179.74"/>
<polygon fill="orange" stroke="orange" points="185.77,-252.07 180.33,-261.17 190.25,-257.45 185.77,-252.07"/>
<text text-anchor="middle" x="321.5" y="-217.87" font-family="Helvetica,sans-Serif" font-size="10.00"> &lt; RelaxationType &gt;</text>
</g>
<!-- Node12 -->
<g id="node12" class="node">
<title>Node12</title>
<g id="a_node12"><a xlink:href="classMGLevelObject.html" target="_top" xlink:title=" ">
<polygon fill="white" stroke="black" points="416.5,-112.87 416.5,-142.87 571.5,-142.87 571.5,-112.87 416.5,-112.87"/>
<text text-anchor="start" x="424.5" y="-130.87" font-family="Helvetica,sans-Serif" font-size="10.00">MGLevelObject&lt; Preconditioner</text>
<text text-anchor="middle" x="494" y="-119.87" font-family="Helvetica,sans-Serif" font-size="10.00">Type &gt;</text>
</a>
</g>
</g>
<!-- Node1&#45;&gt;Node12 -->
<g id="edge11" class="edge">
<title>Node1&#45;&gt;Node12</title>
<path fill="none" stroke="orange" stroke-dasharray="5,2" d="M178.92,-252.4C191.94,-228.88 217.77,-188.91 252,-168.87 301.72,-139.77 366.48,-130 416.34,-127.25"/>
<polygon fill="orange" stroke="orange" points="175.75,-250.89 174.13,-261.36 181.93,-254.19 175.75,-250.89"/>
<text text-anchor="middle" x="321.5" y="-171.87" font-family="Helvetica,sans-Serif" font-size="10.00"> &lt; PreconditionerType &gt;</text>
</g>
<!-- Node13 -->
<g id="node13" class="node">
<title>Node13</title>
<g id="a_node13"><a xlink:href="classMGLevelObject.html" target="_top" xlink:title=" ">
<polygon fill="white" stroke="black" points="421.5,-52.37 421.5,-93.37 566.5,-93.37 566.5,-52.37 421.5,-52.37"/>
<text text-anchor="start" x="429.5" y="-81.37" font-family="Helvetica,sans-Serif" font-size="10.00">MGLevelObject&lt; std</text>
<text text-anchor="start" x="429.5" y="-70.37" font-family="Helvetica,sans-Serif" font-size="10.00">::shared_ptr&lt; const</text>
<text text-anchor="middle" x="494" y="-59.37" font-family="Helvetica,sans-Serif" font-size="10.00"> Utilities::MPI::Partitioner &gt; &gt;</text>
</a>
</g>
</g>
<!-- Node1&#45;&gt;Node13 -->
<g id="edge12" class="edge">
<title>Node1&#45;&gt;Node13</title>
<path fill="none" stroke="orange" stroke-dasharray="5,2" d="M172.24,-250.7C178.58,-212.6 198.1,-130.53 252,-92.87 300.87,-58.73 369.68,-56.31 421.27,-60.93"/>
<polygon fill="orange" stroke="orange" points="168.71,-250.6 170.67,-261.01 175.63,-251.65 168.71,-250.6"/>
<text text-anchor="start" x="277.5" y="-117.87" font-family="Helvetica,sans-Serif" font-size="10.00"> &lt; std::shared_ptr&lt;</text>
<text text-anchor="start" x="277.5" y="-106.87" font-family="Helvetica,sans-Serif" font-size="10.00"> const Utilities::MPI</text>
<text text-anchor="middle" x="321.5" y="-95.87" font-family="Helvetica,sans-Serif" font-size="10.00">::Partitioner &gt; &gt;</text>
</g>
<!-- Node14 -->
<g id="node14" class="node">
<title>Node14</title>
<g id="a_node14"><a xlink:href="classMGLevelObject.html" target="_top" xlink:title=" ">
<polygon fill="white" stroke="black" points="418.5,-2.87 418.5,-32.87 569.5,-32.87 569.5,-2.87 418.5,-2.87"/>
<text text-anchor="start" x="426.5" y="-20.87" font-family="Helvetica,sans-Serif" font-size="10.00">MGLevelObject&lt; MGTwoLevel</text>
<text text-anchor="middle" x="494" y="-9.87" font-family="Helvetica,sans-Serif" font-size="10.00">Transfer&lt; dim, VectorType &gt; &gt;</text>
</a>
</g>
</g>
<!-- Node1&#45;&gt;Node14 -->
<g id="edge13" class="edge">
<title>Node1&#45;&gt;Node14</title>
<path fill="none" stroke="orange" stroke-dasharray="5,2" d="M169.61,-251.05C171.06,-204.34 181.87,-87.3 252,-33.87 298.78,1.77 366.64,3.16 418.44,-2.87"/>
<polygon fill="orange" stroke="orange" points="166.11,-251.26 169.41,-261.33 173.11,-251.4 166.11,-251.26"/>
<text text-anchor="start" x="268.5" y="-47.87" font-family="Helvetica,sans-Serif" font-size="10.00"> &lt; MGTwoLevelTransfer</text>
<text text-anchor="middle" x="321.5" y="-36.87" font-family="Helvetica,sans-Serif" font-size="10.00">&lt; dim, VectorType &gt; &gt;</text>
</g>
<!-- Node2 -->
<g id="node2" class="node">
<title>Node2</title>
<g id="a_node2"><a xlink:href="classSubscriptor.html" target="_top" xlink:title=" ">
<polygon fill="white" stroke="black" points="0,-261.37 0,-280.37 66,-280.37 66,-261.37 0,-261.37"/>
<text text-anchor="middle" x="33" y="-268.37" font-family="Helvetica,sans-Serif" font-size="10.00">Subscriptor</text>
</a>
</g>
</g>
<!-- Node2&#45;&gt;Node1 -->
<g id="edge1" class="edge">
<title>Node2&#45;&gt;Node1</title>
<path fill="none" stroke="midnightblue" d="M76.55,-270.87C84.92,-270.87 93.88,-270.87 102.78,-270.87"/>
<polygon fill="midnightblue" stroke="midnightblue" points="76.32,-267.37 66.32,-270.87 76.32,-274.37 76.32,-267.37"/>
</g>
<!-- Node11 -->
<g id="node11" class="node">
<title>Node11</title>
<g id="a_node11"><a xlink:href="classmg_1_1SmootherRelaxation.html" target="_top" xlink:title=" ">
<polygon fill="white" stroke="black" points="616,-161.87 616,-191.87 774,-191.87 774,-161.87 616,-161.87"/>
<text text-anchor="start" x="624" y="-179.87" font-family="Helvetica,sans-Serif" font-size="10.00">mg::SmootherRelaxation</text>
<text text-anchor="middle" x="695" y="-168.87" font-family="Helvetica,sans-Serif" font-size="10.00">&lt; RelaxationType, VectorType &gt;</text>
</a>
</g>
</g>
<!-- Node10&#45;&gt;Node11 -->
<g id="edge10" class="edge">
<title>Node10&#45;&gt;Node11</title>
<path fill="none" stroke="midnightblue" d="M574.37,-176.87C588.04,-176.87 602.24,-176.87 615.88,-176.87"/>
<polygon fill="midnightblue" stroke="midnightblue" points="574.04,-173.37 564.04,-176.87 574.04,-180.37 574.04,-173.37"/>
</g>
</g>
</svg>
