<?xml version="1.0" encoding="UTF-8" standalone="no"?>
<!DOCTYPE svg PUBLIC "-//W3C//DTD SVG 1.1//EN"
 "http://www.w3.org/Graphics/SVG/1.1/DTD/svg11.dtd">
<!-- Generated by graphviz version 2.47.1 (20210417.1919)
 -->
<!-- Title: internal::MatrixFreeFunctions::VectorDataExchange::Base Pages: 1 -->
<svg width="354pt" height="100pt"
 viewBox="0.00 0.00 354.00 99.50" xmlns="http://www.w3.org/2000/svg" xmlns:xlink="http://www.w3.org/1999/xlink">
<g id="graph0" class="graph" transform="scale(1 1) rotate(0) translate(4 95.5)">
<title>internal::MatrixFreeFunctions::VectorDataExchange::Base</title>
<polygon fill="white" stroke="transparent" points="-4,4 -4,-95.5 350,-95.5 350,4 -4,4"/>
<!-- Node1 -->
<g id="node1" class="node">
<title>Node1</title>
<g id="a_node1"><a xlink:title=" ">
<polygon fill="#bfbfbf" stroke="black" points="0,-33 0,-63 144,-63 144,-33 0,-33"/>
<text text-anchor="start" x="8" y="-51" font-family="Helvetica,sans-Serif" font-size="10.00">internal::MatrixFreeFunctions</text>
<text text-anchor="middle" x="72" y="-40" font-family="Helvetica,sans-Serif" font-size="10.00">::VectorDataExchange::Base</text>
</a>
</g>
</g>
<!-- Node2 -->
<g id="node2" class="node">
<title>Node2</title>
<g id="a_node2"><a xlink:href="classinternal_1_1MatrixFreeFunctions_1_1VectorDataExchange_1_1Full.html" target="_top" xlink:title=" ">
<polygon fill="white" stroke="black" points="191.5,-61 191.5,-91 334.5,-91 334.5,-61 191.5,-61"/>
<text text-anchor="start" x="199.5" y="-79" font-family="Helvetica,sans-Serif" font-size="10.00">internal::MatrixFreeFunctions</text>
<text text-anchor="middle" x="263" y="-68" font-family="Helvetica,sans-Serif" font-size="10.00">::VectorDataExchange::Full</text>
</a>
</g>
</g>
<!-- Node1&#45;&gt;Node2 -->
<g id="edge1" class="edge">
<title>Node1&#45;&gt;Node2</title>
<path fill="none" stroke="midnightblue" d="M154.39,-60.06C166.64,-61.87 179.19,-63.73 191.19,-65.51"/>
<polygon fill="midnightblue" stroke="midnightblue" points="154.59,-56.55 144.18,-58.55 153.56,-63.47 154.59,-56.55"/>
</g>
<!-- Node3 -->
<g id="node3" class="node">
<title>Node3</title>
<g id="a_node3"><a xlink:href="classinternal_1_1MatrixFreeFunctions_1_1VectorDataExchange_1_1PartitionerWrapper.html" target="_top" xlink:title=" ">
<polygon fill="white" stroke="black" points="180,-0.5 180,-41.5 346,-41.5 346,-0.5 180,-0.5"/>
<text text-anchor="start" x="188" y="-29.5" font-family="Helvetica,sans-Serif" font-size="10.00">internal::MatrixFreeFunctions</text>
<text text-anchor="start" x="188" y="-18.5" font-family="Helvetica,sans-Serif" font-size="10.00">::VectorDataExchange::Partitioner</text>
<text text-anchor="middle" x="263" y="-7.5" font-family="Helvetica,sans-Serif" font-size="10.00">Wrapper</text>
</a>
</g>
</g>
<!-- Node1&#45;&gt;Node3 -->
<g id="edge2" class="edge">
<title>Node1&#45;&gt;Node3</title>
<path fill="none" stroke="midnightblue" d="M154.09,-36.42C162.59,-35.2 171.25,-33.96 179.77,-32.75"/>
<polygon fill="midnightblue" stroke="midnightblue" points="153.59,-32.95 144.18,-37.83 154.58,-39.88 153.59,-32.95"/>
</g>
</g>
</svg>
