<?xml version="1.0" encoding="UTF-8" standalone="no"?>
<!DOCTYPE svg PUBLIC "-//W3C//DTD SVG 1.1//EN"
 "http://www.w3.org/Graphics/SVG/1.1/DTD/svg11.dtd">
<!-- Generated by graphviz version 2.47.1 (20210417.1919)
 -->
<!-- Title: SolverQMRS&lt; VectorType &gt; Pages: 1 -->
<svg width="225pt" height="220pt"
 viewBox="0.00 0.00 225.00 220.00" xmlns="http://www.w3.org/2000/svg" xmlns:xlink="http://www.w3.org/1999/xlink">
<g id="graph0" class="graph" transform="scale(1 1) rotate(0) translate(4 216)">
<title>SolverQMRS&lt; VectorType &gt;</title>
<polygon fill="white" stroke="transparent" points="-4,4 -4,-216 221,-216 221,4 -4,4"/>
<!-- Node1 -->
<g id="node1" class="node">
<title>Node1</title>
<g id="a_node1"><a xlink:title=" ">
<polygon fill="#bfbfbf" stroke="black" points="0,-0.5 0,-19.5 142,-19.5 142,-0.5 0,-0.5"/>
<text text-anchor="middle" x="71" y="-7.5" font-family="Helvetica,sans-Serif" font-size="10.00">SolverQMRS&lt; VectorType &gt;</text>
</a>
</g>
</g>
<!-- Node2 -->
<g id="node2" class="node">
<title>Node2</title>
<g id="a_node2"><a xlink:href="classSolverBase.html" target="_top" xlink:title=" ">
<polygon fill="white" stroke="black" points="19,-57.5 19,-87.5 123,-87.5 123,-57.5 19,-57.5"/>
<text text-anchor="start" x="27" y="-75.5" font-family="Helvetica,sans-Serif" font-size="10.00">SolverBase&lt; Vector</text>
<text text-anchor="middle" x="71" y="-64.5" font-family="Helvetica,sans-Serif" font-size="10.00">&lt; double &gt; &gt;</text>
</a>
</g>
</g>
<!-- Node2&#45;&gt;Node1 -->
<g id="edge1" class="edge">
<title>Node2&#45;&gt;Node1</title>
<path fill="none" stroke="midnightblue" d="M71,-47.35C71,-37.51 71,-26.78 71,-19.54"/>
<polygon fill="midnightblue" stroke="midnightblue" points="67.5,-47.47 71,-57.47 74.5,-47.47 67.5,-47.47"/>
</g>
<!-- Node3 -->
<g id="node3" class="node">
<title>Node3</title>
<g id="a_node3"><a xlink:href="classSubscriptor.html" target="_top" xlink:title=" ">
<polygon fill="white" stroke="black" points="34,-192.5 34,-211.5 100,-211.5 100,-192.5 34,-192.5"/>
<text text-anchor="middle" x="67" y="-199.5" font-family="Helvetica,sans-Serif" font-size="10.00">Subscriptor</text>
</a>
</g>
</g>
<!-- Node3&#45;&gt;Node2 -->
<g id="edge2" class="edge">
<title>Node3&#45;&gt;Node2</title>
<path fill="none" stroke="midnightblue" d="M67.6,-181.9C68.41,-156.05 69.84,-110.54 70.56,-87.59"/>
<polygon fill="midnightblue" stroke="midnightblue" points="64.09,-182.13 67.27,-192.24 71.09,-182.35 64.09,-182.13"/>
</g>
<!-- Node4 -->
<g id="node4" class="node">
<title>Node4</title>
<g id="a_node4"><a xlink:href="classSolverBase.html" target="_top" xlink:title=" ">
<polygon fill="white" stroke="black" points="83,-135.5 83,-154.5 217,-154.5 217,-135.5 83,-135.5"/>
<text text-anchor="middle" x="150" y="-142.5" font-family="Helvetica,sans-Serif" font-size="10.00">SolverBase&lt; VectorType &gt;</text>
</a>
</g>
</g>
<!-- Node3&#45;&gt;Node4 -->
<g id="edge4" class="edge">
<title>Node3&#45;&gt;Node4</title>
<path fill="none" stroke="midnightblue" d="M88.39,-186.82C103.81,-176.61 124.12,-163.15 137.12,-154.53"/>
<polygon fill="midnightblue" stroke="midnightblue" points="86.37,-183.96 79.97,-192.41 90.24,-189.8 86.37,-183.96"/>
</g>
<!-- Node4&#45;&gt;Node2 -->
<g id="edge3" class="edge">
<title>Node4&#45;&gt;Node2</title>
<path fill="none" stroke="orange" stroke-dasharray="5,2" d="M132.56,-128.44C118.88,-116.23 100.01,-99.39 86.77,-87.58"/>
<polygon fill="orange" stroke="orange" points="130.52,-131.31 140.31,-135.36 135.18,-126.09 130.52,-131.31"/>
<text text-anchor="middle" x="165.5" y="-109" font-family="Helvetica,sans-Serif" font-size="10.00"> &lt; Vector&lt; double &gt; &gt;</text>
</g>
</g>
</svg>
