<?xml version="1.0" encoding="UTF-8" standalone="no"?>
<!DOCTYPE svg PUBLIC "-//W3C//DTD SVG 1.1//EN"
 "http://www.w3.org/Graphics/SVG/1.1/DTD/svg11.dtd">
<!-- Generated by graphviz version 2.47.1 (20210417.1919)
 -->
<!-- Title: PreconditionBlockBase&lt; number &gt; Pages: 1 -->
<svg width="1352pt" height="327pt"
 viewBox="0.00 0.00 1352.00 326.50" xmlns="http://www.w3.org/2000/svg" xmlns:xlink="http://www.w3.org/1999/xlink">
<g id="graph0" class="graph" transform="scale(1 1) rotate(0) translate(4 322.5)">
<title>PreconditionBlockBase&lt; number &gt;</title>
<polygon fill="white" stroke="transparent" points="-4,4 -4,-322.5 1348,-322.5 1348,4 -4,4"/>
<!-- Node1 -->
<g id="node1" class="node">
<title>Node1</title>
<g id="a_node1"><a xlink:title=" ">
<polygon fill="#bfbfbf" stroke="black" points="0,-239 0,-269 118,-269 118,-239 0,-239"/>
<text text-anchor="start" x="8" y="-257" font-family="Helvetica,sans-Serif" font-size="10.00">PreconditionBlockBase</text>
<text text-anchor="middle" x="59" y="-246" font-family="Helvetica,sans-Serif" font-size="10.00">&lt; number &gt;</text>
</a>
</g>
</g>
<!-- Node2 -->
<g id="node2" class="node">
<title>Node2</title>
<g id="a_node2"><a xlink:href="classPreconditionBlockBase.html" target="_top" xlink:title=" ">
<polygon fill="white" stroke="black" points="263,-288 263,-318 385,-318 385,-288 263,-288"/>
<text text-anchor="start" x="271" y="-306" font-family="Helvetica,sans-Serif" font-size="10.00">PreconditionBlockBase</text>
<text text-anchor="middle" x="324" y="-295" font-family="Helvetica,sans-Serif" font-size="10.00">&lt; InverseNumberType &gt;</text>
</a>
</g>
</g>
<!-- Node1&#45;&gt;Node2 -->
<g id="edge1" class="edge">
<title>Node1&#45;&gt;Node2</title>
<path fill="none" stroke="orange" stroke-dasharray="5,2" d="M127.97,-267.47C130.68,-267.99 133.37,-268.5 136,-269 178.31,-277.02 226.08,-285.7 262.74,-292.28"/>
<polygon fill="orange" stroke="orange" points="128.56,-264.02 118.07,-265.56 127.23,-270.89 128.56,-264.02"/>
<text text-anchor="middle" x="190.5" y="-291" font-family="Helvetica,sans-Serif" font-size="10.00"> &lt; InverseNumberType &gt;</text>
</g>
<!-- Node3 -->
<g id="node3" class="node">
<title>Node3</title>
<g id="a_node3"><a xlink:href="classPreconditionBlockBase.html" target="_top" xlink:title=" ">
<polygon fill="white" stroke="black" points="265,-239 265,-269 383,-269 383,-239 265,-239"/>
<text text-anchor="start" x="273" y="-257" font-family="Helvetica,sans-Serif" font-size="10.00">PreconditionBlockBase</text>
<text text-anchor="middle" x="324" y="-246" font-family="Helvetica,sans-Serif" font-size="10.00">&lt; inverse_type &gt;</text>
</a>
</g>
</g>
<!-- Node1&#45;&gt;Node3 -->
<g id="edge2" class="edge">
<title>Node1&#45;&gt;Node3</title>
<path fill="none" stroke="orange" stroke-dasharray="5,2" d="M128.26,-254C170.57,-254 224.34,-254 264.65,-254"/>
<polygon fill="orange" stroke="orange" points="128.04,-250.5 118.04,-254 128.04,-257.5 128.04,-250.5"/>
<text text-anchor="middle" x="190.5" y="-257" font-family="Helvetica,sans-Serif" font-size="10.00"> &lt; inverse_type &gt;</text>
</g>
<!-- Node6 -->
<g id="node6" class="node">
<title>Node6</title>
<g id="a_node6"><a xlink:href="classPreconditionBlockBase.html" target="_top" xlink:title=" ">
<polygon fill="white" stroke="black" points="264.5,-177.5 264.5,-218.5 383.5,-218.5 383.5,-177.5 264.5,-177.5"/>
<text text-anchor="start" x="272.5" y="-206.5" font-family="Helvetica,sans-Serif" font-size="10.00">PreconditionBlockBase</text>
<text text-anchor="start" x="272.5" y="-195.5" font-family="Helvetica,sans-Serif" font-size="10.00">&lt; typename MatrixType</text>
<text text-anchor="middle" x="324" y="-184.5" font-family="Helvetica,sans-Serif" font-size="10.00">::value_type &gt;</text>
</a>
</g>
</g>
<!-- Node1&#45;&gt;Node6 -->
<g id="edge5" class="edge">
<title>Node1&#45;&gt;Node6</title>
<path fill="none" stroke="orange" stroke-dasharray="5,2" d="M109.54,-235.7C118.28,-232.86 127.35,-230.16 136,-228 178.43,-217.42 227.25,-209.74 264.36,-204.79"/>
<polygon fill="orange" stroke="orange" points="108.22,-232.45 99.85,-238.94 110.44,-239.09 108.22,-232.45"/>
<text text-anchor="start" x="137.5" y="-242" font-family="Helvetica,sans-Serif" font-size="10.00"> &lt; typename MatrixType</text>
<text text-anchor="middle" x="190.5" y="-231" font-family="Helvetica,sans-Serif" font-size="10.00">::value_type &gt;</text>
</g>
<!-- Node4 -->
<g id="node4" class="node">
<title>Node4</title>
<g id="a_node4"><a xlink:href="classPreconditionBlock.html" target="_top" xlink:title=" ">
<polygon fill="white" stroke="black" points="455.5,-237.5 455.5,-278.5 560.5,-278.5 560.5,-237.5 455.5,-237.5"/>
<text text-anchor="start" x="463.5" y="-266.5" font-family="Helvetica,sans-Serif" font-size="10.00">PreconditionBlock&lt;</text>
<text text-anchor="start" x="463.5" y="-255.5" font-family="Helvetica,sans-Serif" font-size="10.00"> MatrixType, inverse</text>
<text text-anchor="middle" x="508" y="-244.5" font-family="Helvetica,sans-Serif" font-size="10.00">_type &gt;</text>
</a>
</g>
</g>
<!-- Node3&#45;&gt;Node4 -->
<g id="edge3" class="edge">
<title>Node3&#45;&gt;Node4</title>
<path fill="none" stroke="darkgreen" d="M393.33,-255.5C413.86,-255.95 436.04,-256.44 455.3,-256.86"/>
<polygon fill="darkgreen" stroke="darkgreen" points="393.16,-252 383.09,-255.28 393.01,-259 393.16,-252"/>
</g>
<!-- Node5 -->
<g id="node5" class="node">
<title>Node5</title>
<g id="a_node5"><a xlink:href="classPreconditionBlockJacobi.html" target="_top" xlink:title=" ">
<polygon fill="white" stroke="black" points="751,-237.5 751,-278.5 875,-278.5 875,-237.5 751,-237.5"/>
<text text-anchor="start" x="759" y="-266.5" font-family="Helvetica,sans-Serif" font-size="10.00">PreconditionBlockJacobi</text>
<text text-anchor="start" x="759" y="-255.5" font-family="Helvetica,sans-Serif" font-size="10.00">&lt; MatrixType, inverse</text>
<text text-anchor="middle" x="813" y="-244.5" font-family="Helvetica,sans-Serif" font-size="10.00">_type &gt;</text>
</a>
</g>
</g>
<!-- Node4&#45;&gt;Node5 -->
<g id="edge4" class="edge">
<title>Node4&#45;&gt;Node5</title>
<path fill="none" stroke="#8b1a1a" d="M570.94,-258C623.49,-258 698.47,-258 750.81,-258"/>
<polygon fill="#8b1a1a" stroke="#8b1a1a" points="570.74,-254.5 560.74,-258 570.74,-261.5 570.74,-254.5"/>
</g>
<!-- Node6&#45;&gt;Node4 -->
<g id="edge16" class="edge">
<title>Node6&#45;&gt;Node4</title>
<path fill="none" stroke="darkgreen" d="M393.21,-220.49C413.77,-227.26 435.98,-234.59 455.28,-240.95"/>
<polygon fill="darkgreen" stroke="darkgreen" points="394.18,-217.12 383.59,-217.31 391.99,-223.77 394.18,-217.12"/>
</g>
<!-- Node7 -->
<g id="node7" class="node">
<title>Node7</title>
<g id="a_node7"><a xlink:href="classPreconditionBlock.html" target="_top" xlink:title=" ">
<polygon fill="white" stroke="black" points="443,-177.5 443,-218.5 573,-218.5 573,-177.5 443,-177.5"/>
<text text-anchor="start" x="451" y="-206.5" font-family="Helvetica,sans-Serif" font-size="10.00">PreconditionBlock&lt;</text>
<text text-anchor="start" x="451" y="-195.5" font-family="Helvetica,sans-Serif" font-size="10.00"> MatrixType, typename</text>
<text text-anchor="middle" x="508" y="-184.5" font-family="Helvetica,sans-Serif" font-size="10.00"> MatrixType::value_type &gt;</text>
</a>
</g>
</g>
<!-- Node6&#45;&gt;Node7 -->
<g id="edge6" class="edge">
<title>Node6&#45;&gt;Node7</title>
<path fill="none" stroke="darkgreen" d="M393.97,-198C410.01,-198 427.03,-198 442.85,-198"/>
<polygon fill="darkgreen" stroke="darkgreen" points="393.59,-194.5 383.59,-198 393.59,-201.5 393.59,-194.5"/>
</g>
<!-- Node11 -->
<g id="node11" class="node">
<title>Node11</title>
<g id="a_node11"><a xlink:href="classRelaxationBlock.html" target="_top" xlink:title=" ">
<polygon fill="white" stroke="black" points="739,-78.5 739,-119.5 887,-119.5 887,-78.5 739,-78.5"/>
<text text-anchor="start" x="747" y="-107.5" font-family="Helvetica,sans-Serif" font-size="10.00">RelaxationBlock&lt; MatrixType,</text>
<text text-anchor="start" x="747" y="-96.5" font-family="Helvetica,sans-Serif" font-size="10.00"> typename MatrixType::value</text>
<text text-anchor="middle" x="813" y="-85.5" font-family="Helvetica,sans-Serif" font-size="10.00">_type, Vector&lt; double &gt; &gt;</text>
</a>
</g>
</g>
<!-- Node6&#45;&gt;Node11 -->
<g id="edge12" class="edge">
<title>Node6&#45;&gt;Node11</title>
<path fill="none" stroke="darkgreen" d="M393.37,-175.09C402.91,-172.41 412.65,-169.94 422,-168 552.9,-140.79 591.24,-167.21 721,-135 725.56,-133.87 743.13,-127.01 761.64,-119.57"/>
<polygon fill="darkgreen" stroke="darkgreen" points="392.15,-171.8 383.52,-177.94 394.1,-178.52 392.15,-171.8"/>
</g>
<!-- Node15 -->
<g id="node15" class="node">
<title>Node15</title>
<g id="a_node15"><a xlink:href="classRelaxationBlock.html" target="_top" xlink:title=" ">
<polygon fill="white" stroke="black" points="422,-88 422,-118 594,-118 594,-88 422,-88"/>
<text text-anchor="start" x="430" y="-106" font-family="Helvetica,sans-Serif" font-size="10.00">RelaxationBlock&lt; MatrixType,</text>
<text text-anchor="middle" x="508" y="-95" font-family="Helvetica,sans-Serif" font-size="10.00"> InverseNumberType, VectorType &gt;</text>
</a>
</g>
</g>
<!-- Node6&#45;&gt;Node15 -->
<g id="edge17" class="edge">
<title>Node6&#45;&gt;Node15</title>
<path fill="none" stroke="darkgreen" d="M353.71,-170.39C367.68,-158.16 385.27,-144.43 403,-135 415.84,-128.17 430.37,-122.55 444.4,-118.04"/>
<polygon fill="darkgreen" stroke="darkgreen" points="351.03,-168.09 345.92,-177.38 355.7,-173.3 351.03,-168.09"/>
</g>
<!-- Node7&#45;&gt;Node5 -->
<g id="edge9" class="edge">
<title>Node7&#45;&gt;Node5</title>
<path fill="none" stroke="#8b1a1a" d="M583.27,-213.22C592.94,-215.18 602.7,-217.15 612,-219 658.49,-228.27 711.11,-238.52 750.7,-246.19"/>
<polygon fill="#8b1a1a" stroke="#8b1a1a" points="583.76,-209.75 573.27,-211.19 582.37,-216.61 583.76,-209.75"/>
</g>
<!-- Node8 -->
<g id="node8" class="node">
<title>Node8</title>
<g id="a_node8"><a xlink:href="classPreconditionBlockSOR.html" target="_top" xlink:title=" ">
<polygon fill="white" stroke="black" points="1045,-185.5 1045,-226.5 1175,-226.5 1175,-185.5 1045,-185.5"/>
<text text-anchor="start" x="1053" y="-214.5" font-family="Helvetica,sans-Serif" font-size="10.00">PreconditionBlockSOR</text>
<text text-anchor="start" x="1053" y="-203.5" font-family="Helvetica,sans-Serif" font-size="10.00">&lt; MatrixType, typename</text>
<text text-anchor="middle" x="1110" y="-192.5" font-family="Helvetica,sans-Serif" font-size="10.00"> MatrixType::value_type &gt;</text>
</a>
</g>
</g>
<!-- Node7&#45;&gt;Node8 -->
<g id="edge7" class="edge">
<title>Node7&#45;&gt;Node8</title>
<path fill="none" stroke="darkgreen" d="M583.31,-198.99C702.09,-200.57 932.74,-203.65 1044.8,-205.14"/>
<polygon fill="darkgreen" stroke="darkgreen" points="583.26,-195.49 573.21,-198.86 583.16,-202.49 583.26,-195.49"/>
</g>
<!-- Node10 -->
<g id="node10" class="node">
<title>Node10</title>
<g id="a_node10"><a xlink:href="classPreconditionBlockSOR.html" target="_top" xlink:title=" ">
<polygon fill="white" stroke="black" points="754.5,-138.5 754.5,-179.5 871.5,-179.5 871.5,-138.5 754.5,-138.5"/>
<text text-anchor="start" x="762.5" y="-167.5" font-family="Helvetica,sans-Serif" font-size="10.00">PreconditionBlockSOR</text>
<text text-anchor="start" x="762.5" y="-156.5" font-family="Helvetica,sans-Serif" font-size="10.00">&lt; MatrixType, inverse</text>
<text text-anchor="middle" x="813" y="-145.5" font-family="Helvetica,sans-Serif" font-size="10.00">_type &gt;</text>
</a>
</g>
</g>
<!-- Node7&#45;&gt;Node10 -->
<g id="edge10" class="edge">
<title>Node7&#45;&gt;Node10</title>
<path fill="none" stroke="darkgreen" d="M583.24,-188.44C636.03,-181.65 705.91,-172.65 754.48,-166.4"/>
<polygon fill="darkgreen" stroke="darkgreen" points="582.73,-184.98 573.26,-189.73 583.62,-191.92 582.73,-184.98"/>
</g>
<!-- Node9 -->
<g id="node9" class="node">
<title>Node9</title>
<g id="a_node9"><a xlink:href="classPreconditionBlockSSOR.html" target="_top" xlink:title=" ">
<polygon fill="white" stroke="black" points="1220,-185.5 1220,-226.5 1344,-226.5 1344,-185.5 1220,-185.5"/>
<text text-anchor="start" x="1228" y="-214.5" font-family="Helvetica,sans-Serif" font-size="10.00">PreconditionBlockSSOR</text>
<text text-anchor="start" x="1228" y="-203.5" font-family="Helvetica,sans-Serif" font-size="10.00">&lt; MatrixType, inverse</text>
<text text-anchor="middle" x="1282" y="-192.5" font-family="Helvetica,sans-Serif" font-size="10.00">_type &gt;</text>
</a>
</g>
</g>
<!-- Node8&#45;&gt;Node9 -->
<g id="edge8" class="edge">
<title>Node8&#45;&gt;Node9</title>
<path fill="none" stroke="#8b1a1a" d="M1185.29,-206C1196.79,-206 1208.56,-206 1219.73,-206"/>
<polygon fill="#8b1a1a" stroke="#8b1a1a" points="1185.27,-202.5 1175.27,-206 1185.27,-209.5 1185.27,-202.5"/>
</g>
<!-- Node10&#45;&gt;Node8 -->
<g id="edge11" class="edge">
<title>Node10&#45;&gt;Node8</title>
<path fill="none" stroke="orange" stroke-dasharray="5,2" d="M881.86,-158.26C922.13,-159.07 973.94,-162.29 1019,-172 1033.53,-175.13 1048.84,-180.2 1062.62,-185.47"/>
<polygon fill="orange" stroke="orange" points="881.68,-154.76 871.62,-158.1 881.57,-161.76 881.68,-154.76"/>
<text text-anchor="start" x="905" y="-186" font-family="Helvetica,sans-Serif" font-size="10.00"> &lt; MatrixType, typename</text>
<text text-anchor="middle" x="962" y="-175" font-family="Helvetica,sans-Serif" font-size="10.00"> MatrixType::value_type &gt;</text>
</g>
<!-- Node12 -->
<g id="node12" class="node">
<title>Node12</title>
<g id="a_node12"><a xlink:href="classRelaxationBlockJacobi.html" target="_top" xlink:title=" ">
<polygon fill="white" stroke="black" points="1037,-120.5 1037,-161.5 1183,-161.5 1183,-120.5 1037,-120.5"/>
<text text-anchor="start" x="1045" y="-149.5" font-family="Helvetica,sans-Serif" font-size="10.00">RelaxationBlockJacobi</text>
<text text-anchor="start" x="1045" y="-138.5" font-family="Helvetica,sans-Serif" font-size="10.00">&lt; MatrixType, InverseNumber</text>
<text text-anchor="middle" x="1110" y="-127.5" font-family="Helvetica,sans-Serif" font-size="10.00">Type, VectorType &gt;</text>
</a>
</g>
</g>
<!-- Node11&#45;&gt;Node12 -->
<g id="edge13" class="edge">
<title>Node11&#45;&gt;Node12</title>
<path fill="none" stroke="darkgreen" d="M897.39,-110.87C941.33,-117.13 994.7,-124.73 1036.84,-130.73"/>
<polygon fill="darkgreen" stroke="darkgreen" points="897.69,-107.38 887.3,-109.44 896.71,-114.31 897.69,-107.38"/>
</g>
<!-- Node13 -->
<g id="node13" class="node">
<title>Node13</title>
<g id="a_node13"><a xlink:href="classRelaxationBlockSOR.html" target="_top" xlink:title=" ">
<polygon fill="white" stroke="black" points="1037,-60.5 1037,-101.5 1183,-101.5 1183,-60.5 1037,-60.5"/>
<text text-anchor="start" x="1045" y="-89.5" font-family="Helvetica,sans-Serif" font-size="10.00">RelaxationBlockSOR</text>
<text text-anchor="start" x="1045" y="-78.5" font-family="Helvetica,sans-Serif" font-size="10.00">&lt; MatrixType, InverseNumber</text>
<text text-anchor="middle" x="1110" y="-67.5" font-family="Helvetica,sans-Serif" font-size="10.00">Type, VectorType &gt;</text>
</a>
</g>
</g>
<!-- Node11&#45;&gt;Node13 -->
<g id="edge14" class="edge">
<title>Node11&#45;&gt;Node13</title>
<path fill="none" stroke="darkgreen" d="M897.39,-93.91C941.33,-91.23 994.7,-87.97 1036.84,-85.4"/>
<polygon fill="darkgreen" stroke="darkgreen" points="897.07,-90.42 887.3,-94.53 897.5,-97.41 897.07,-90.42"/>
</g>
<!-- Node14 -->
<g id="node14" class="node">
<title>Node14</title>
<g id="a_node14"><a xlink:href="classRelaxationBlockSSOR.html" target="_top" xlink:title=" ">
<polygon fill="white" stroke="black" points="1037,-0.5 1037,-41.5 1183,-41.5 1183,-0.5 1037,-0.5"/>
<text text-anchor="start" x="1045" y="-29.5" font-family="Helvetica,sans-Serif" font-size="10.00">RelaxationBlockSSOR</text>
<text text-anchor="start" x="1045" y="-18.5" font-family="Helvetica,sans-Serif" font-size="10.00">&lt; MatrixType, InverseNumber</text>
<text text-anchor="middle" x="1110" y="-7.5" font-family="Helvetica,sans-Serif" font-size="10.00">Type, VectorType &gt;</text>
</a>
</g>
</g>
<!-- Node11&#45;&gt;Node14 -->
<g id="edge15" class="edge">
<title>Node11&#45;&gt;Node14</title>
<path fill="none" stroke="darkgreen" d="M897.11,-77.03C941.1,-65.39 994.61,-51.25 1036.84,-40.08"/>
<polygon fill="darkgreen" stroke="darkgreen" points="896.07,-73.68 887.3,-79.62 897.86,-80.45 896.07,-73.68"/>
</g>
<!-- Node15&#45;&gt;Node11 -->
<g id="edge18" class="edge">
<title>Node15&#45;&gt;Node11</title>
<path fill="none" stroke="orange" stroke-dasharray="5,2" d="M604.24,-101.74C647.78,-101.17 698.53,-100.5 738.98,-99.96"/>
<polygon fill="orange" stroke="orange" points="604.16,-98.24 594.21,-101.88 604.25,-105.24 604.16,-98.24"/>
<text text-anchor="start" x="612" y="-127" font-family="Helvetica,sans-Serif" font-size="10.00"> &lt; MatrixType, typename</text>
<text text-anchor="start" x="612" y="-116" font-family="Helvetica,sans-Serif" font-size="10.00"> MatrixType::value_type,</text>
<text text-anchor="middle" x="666.5" y="-105" font-family="Helvetica,sans-Serif" font-size="10.00"> Vector&lt; double &gt; &gt;</text>
</g>
</g>
</svg>
