<?xml version="1.0" encoding="UTF-8" standalone="no"?>
<!DOCTYPE svg PUBLIC "-//W3C//DTD SVG 1.1//EN"
 "http://www.w3.org/Graphics/SVG/1.1/DTD/svg11.dtd">
<!-- Generated by graphviz version 2.47.1 (20210417.1919)
 -->
<!-- Title: AlignedVector&lt; T &gt; Pages: 1 -->
<svg width="487pt" height="505pt"
 viewBox="0.00 0.00 487.00 505.00" xmlns="http://www.w3.org/2000/svg" xmlns:xlink="http://www.w3.org/1999/xlink">
<g id="graph0" class="graph" transform="scale(1 1) rotate(0) translate(4 501)">
<title>AlignedVector&lt; T &gt;</title>
<polygon fill="white" stroke="transparent" points="-4,4 -4,-501 483,-501 483,4 -4,4"/>
<!-- Node1 -->
<g id="node1" class="node">
<title>Node1</title>
<g id="a_node1"><a xlink:title=" ">
<polygon fill="#bfbfbf" stroke="black" points="0,-216.5 0,-235.5 101,-235.5 101,-216.5 0,-216.5"/>
<text text-anchor="middle" x="50.5" y="-223.5" font-family="Helvetica,sans-Serif" font-size="10.00">AlignedVector&lt; T &gt;</text>
</a>
</g>
</g>
<!-- Node2 -->
<g id="node2" class="node">
<title>Node2</title>
<g id="a_node2"><a xlink:href="classAlignedVector.html" target="_top" xlink:title=" ">
<polygon fill="white" stroke="black" points="335,-441 335,-471 468,-471 468,-441 335,-441"/>
<text text-anchor="start" x="343" y="-459" font-family="Helvetica,sans-Serif" font-size="10.00">AlignedVector&lt; Vectorized</text>
<text text-anchor="middle" x="401.5" y="-448" font-family="Helvetica,sans-Serif" font-size="10.00">Array&lt; double &gt; &gt;</text>
</a>
</g>
</g>
<!-- Node1&#45;&gt;Node2 -->
<g id="edge1" class="edge">
<title>Node1&#45;&gt;Node2</title>
<path fill="none" stroke="orange" stroke-dasharray="5,2" d="M51.23,-246.12C51.88,-288.63 60,-387.5 119,-434 179.73,-481.87 272.51,-479.1 334.77,-469.92"/>
<polygon fill="orange" stroke="orange" points="54.73,-245.92 51.21,-235.93 47.73,-245.94 54.73,-245.92"/>
<text text-anchor="start" x="168.5" y="-489" font-family="Helvetica,sans-Serif" font-size="10.00"> &lt; VectorizedArray&lt;</text>
<text text-anchor="middle" x="212.5" y="-478" font-family="Helvetica,sans-Serif" font-size="10.00"> double &gt; &gt;</text>
</g>
<!-- Node3 -->
<g id="node3" class="node">
<title>Node3</title>
<g id="a_node3"><a xlink:href="classAlignedVector.html" target="_top" xlink:title=" ">
<polygon fill="white" stroke="black" points="335,-392 335,-422 468,-422 468,-392 335,-392"/>
<text text-anchor="start" x="343" y="-410" font-family="Helvetica,sans-Serif" font-size="10.00">AlignedVector&lt; Vectorized</text>
<text text-anchor="middle" x="401.5" y="-399" font-family="Helvetica,sans-Serif" font-size="10.00">ArrayType &gt;</text>
</a>
</g>
</g>
<!-- Node1&#45;&gt;Node3 -->
<g id="edge2" class="edge">
<title>Node1&#45;&gt;Node3</title>
<path fill="none" stroke="orange" stroke-dasharray="5,2" d="M53.85,-245.51C59.01,-278.99 74.65,-346.85 119,-379 181.43,-424.26 273.16,-424.53 334.77,-417.98"/>
<polygon fill="orange" stroke="orange" points="57.31,-245.01 52.47,-235.58 50.38,-245.97 57.31,-245.01"/>
<text text-anchor="middle" x="212.5" y="-424" font-family="Helvetica,sans-Serif" font-size="10.00"> &lt; VectorizedArrayType &gt;</text>
</g>
<!-- Node4 -->
<g id="node4" class="node">
<title>Node4</title>
<g id="a_node4"><a xlink:href="classAlignedVector.html" target="_top" xlink:title=" ">
<polygon fill="white" stroke="black" points="331.5,-321 331.5,-373 471.5,-373 471.5,-321 331.5,-321"/>
<text text-anchor="start" x="339.5" y="-361" font-family="Helvetica,sans-Serif" font-size="10.00">AlignedVector&lt; Tensor</text>
<text text-anchor="start" x="339.5" y="-350" font-family="Helvetica,sans-Serif" font-size="10.00">&lt; 1, spacedim *(spacedim</text>
<text text-anchor="start" x="339.5" y="-339" font-family="Helvetica,sans-Serif" font-size="10.00">+1)/2, Tensor&lt; 1, spacedim,</text>
<text text-anchor="middle" x="401.5" y="-328" font-family="Helvetica,sans-Serif" font-size="10.00"> VectorizedArrayType &gt; &gt; &gt;</text>
</a>
</g>
</g>
<!-- Node1&#45;&gt;Node4 -->
<g id="edge3" class="edge">
<title>Node1&#45;&gt;Node4</title>
<path fill="none" stroke="orange" stroke-dasharray="5,2" d="M64.37,-244.13C76.59,-259.88 96.4,-282.01 119,-294 185.56,-329.3 271.93,-341.38 331.35,-345.36"/>
<polygon fill="orange" stroke="orange" points="66.88,-241.63 58.1,-235.71 61.27,-245.82 66.88,-241.63"/>
<text text-anchor="start" x="119" y="-367" font-family="Helvetica,sans-Serif" font-size="10.00"> &lt; Tensor&lt; 1, spacedim</text>
<text text-anchor="start" x="119" y="-356" font-family="Helvetica,sans-Serif" font-size="10.00"> *(spacedim+1)/2, Tensor</text>
<text text-anchor="middle" x="212.5" y="-345" font-family="Helvetica,sans-Serif" font-size="10.00">&lt; 1, spacedim, VectorizedArrayType &gt; &gt; &gt;</text>
</g>
<!-- Node5 -->
<g id="node5" class="node">
<title>Node5</title>
<g id="a_node5"><a xlink:href="classAlignedVector.html" target="_top" xlink:title=" ">
<polygon fill="white" stroke="black" points="330,-260.5 330,-301.5 473,-301.5 473,-260.5 330,-260.5"/>
<text text-anchor="start" x="338" y="-289.5" font-family="Helvetica,sans-Serif" font-size="10.00">AlignedVector&lt; Point</text>
<text text-anchor="start" x="338" y="-278.5" font-family="Helvetica,sans-Serif" font-size="10.00">&lt; spacedim, VectorizedArray</text>
<text text-anchor="middle" x="401.5" y="-267.5" font-family="Helvetica,sans-Serif" font-size="10.00">Type &gt; &gt;</text>
</a>
</g>
</g>
<!-- Node1&#45;&gt;Node5 -->
<g id="edge4" class="edge">
<title>Node1&#45;&gt;Node5</title>
<path fill="none" stroke="orange" stroke-dasharray="5,2" d="M102.19,-237.71C107.85,-238.88 113.54,-240.01 119,-241 190.51,-254.01 272.89,-265.29 329.98,-272.52"/>
<polygon fill="orange" stroke="orange" points="102.6,-234.22 92.09,-235.56 101.14,-241.06 102.6,-234.22"/>
<text text-anchor="start" x="156.5" y="-282" font-family="Helvetica,sans-Serif" font-size="10.00"> &lt; Point&lt; spacedim,</text>
<text text-anchor="middle" x="212.5" y="-271" font-family="Helvetica,sans-Serif" font-size="10.00"> VectorizedArrayType &gt; &gt;</text>
</g>
<!-- Node6 -->
<g id="node6" class="node">
<title>Node6</title>
<g id="a_node6"><a xlink:href="classAlignedVector.html" target="_top" xlink:title=" ">
<polygon fill="white" stroke="black" points="339,-211 339,-241 464,-241 464,-211 339,-211"/>
<text text-anchor="start" x="347" y="-229" font-family="Helvetica,sans-Serif" font-size="10.00">AlignedVector&lt; unsigned</text>
<text text-anchor="middle" x="401.5" y="-218" font-family="Helvetica,sans-Serif" font-size="10.00"> int &gt;</text>
</a>
</g>
</g>
<!-- Node1&#45;&gt;Node6 -->
<g id="edge5" class="edge">
<title>Node1&#45;&gt;Node6</title>
<path fill="none" stroke="orange" stroke-dasharray="5,2" d="M111.39,-226C174.94,-226 274.83,-226 338.99,-226"/>
<polygon fill="orange" stroke="orange" points="111.13,-222.5 101.13,-226 111.13,-229.5 111.13,-222.5"/>
<text text-anchor="middle" x="212.5" y="-229" font-family="Helvetica,sans-Serif" font-size="10.00"> &lt; unsigned int &gt;</text>
</g>
<!-- Node7 -->
<g id="node7" class="node">
<title>Node7</title>
<g id="a_node7"><a xlink:href="classAlignedVector.html" target="_top" xlink:title=" ">
<polygon fill="white" stroke="black" points="336.5,-172.5 336.5,-191.5 466.5,-191.5 466.5,-172.5 336.5,-172.5"/>
<text text-anchor="middle" x="401.5" y="-179.5" font-family="Helvetica,sans-Serif" font-size="10.00">AlignedVector&lt; Number &gt;</text>
</a>
</g>
</g>
<!-- Node1&#45;&gt;Node7 -->
<g id="edge6" class="edge">
<title>Node1&#45;&gt;Node7</title>
<path fill="none" stroke="orange" stroke-dasharray="5,2" d="M101.02,-214.31C107.06,-213.09 113.15,-211.95 119,-211 193.2,-198.98 279.26,-190.97 336.5,-186.47"/>
<polygon fill="orange" stroke="orange" points="100.03,-210.94 90.97,-216.42 101.48,-217.79 100.03,-210.94"/>
<text text-anchor="middle" x="212.5" y="-214" font-family="Helvetica,sans-Serif" font-size="10.00"> &lt; Number &gt;</text>
</g>
<!-- Node8 -->
<g id="node8" class="node">
<title>Node8</title>
<g id="a_node8"><a xlink:href="classAlignedVector.html" target="_top" xlink:title=" ">
<polygon fill="white" stroke="black" points="324,-112.5 324,-153.5 479,-153.5 479,-112.5 324,-112.5"/>
<text text-anchor="start" x="332" y="-141.5" font-family="Helvetica,sans-Serif" font-size="10.00">AlignedVector&lt; Tensor</text>
<text text-anchor="start" x="332" y="-130.5" font-family="Helvetica,sans-Serif" font-size="10.00">&lt; 1, spacedim, VectorizedArray</text>
<text text-anchor="middle" x="401.5" y="-119.5" font-family="Helvetica,sans-Serif" font-size="10.00">Type &gt; &gt;</text>
</a>
</g>
</g>
<!-- Node1&#45;&gt;Node8 -->
<g id="edge7" class="edge">
<title>Node1&#45;&gt;Node8</title>
<path fill="none" stroke="orange" stroke-dasharray="5,2" d="M64.86,-208.31C77.16,-193.48 96.82,-173.14 119,-163 183.71,-133.44 265.24,-127.72 323.88,-128.32"/>
<polygon fill="orange" stroke="orange" points="62,-206.29 58.51,-216.29 67.47,-210.65 62,-206.29"/>
<text text-anchor="start" x="156.5" y="-177" font-family="Helvetica,sans-Serif" font-size="10.00"> &lt; Tensor&lt; 1, spacedim,</text>
<text text-anchor="middle" x="212.5" y="-166" font-family="Helvetica,sans-Serif" font-size="10.00"> VectorizedArrayType &gt; &gt;</text>
</g>
<!-- Node9 -->
<g id="node9" class="node">
<title>Node9</title>
<g id="a_node9"><a xlink:href="classAlignedVector.html" target="_top" xlink:title=" ">
<polygon fill="white" stroke="black" points="335,-63 335,-93 468,-93 468,-63 335,-63"/>
<text text-anchor="start" x="343" y="-81" font-family="Helvetica,sans-Serif" font-size="10.00">AlignedVector&lt; Vectorized</text>
<text text-anchor="middle" x="401.5" y="-70" font-family="Helvetica,sans-Serif" font-size="10.00">Array&lt; Number &gt; &gt;</text>
</a>
</g>
</g>
<!-- Node1&#45;&gt;Node9 -->
<g id="edge8" class="edge">
<title>Node1&#45;&gt;Node9</title>
<path fill="none" stroke="orange" stroke-dasharray="5,2" d="M55.93,-206.54C63.5,-178.19 81.86,-126.26 119,-102 183.16,-60.09 273.87,-60.4 334.81,-67"/>
<polygon fill="orange" stroke="orange" points="52.47,-205.92 53.46,-216.47 59.27,-207.61 52.47,-205.92"/>
<text text-anchor="start" x="168.5" y="-116" font-family="Helvetica,sans-Serif" font-size="10.00"> &lt; VectorizedArray&lt;</text>
<text text-anchor="middle" x="212.5" y="-105" font-family="Helvetica,sans-Serif" font-size="10.00"> Number &gt; &gt;</text>
</g>
<!-- Node10 -->
<g id="node10" class="node">
<title>Node10</title>
<g id="a_node10"><a xlink:href="classAlignedVector.html" target="_top" xlink:title=" ">
<polygon fill="white" stroke="black" points="324,-2.5 324,-43.5 479,-43.5 479,-2.5 324,-2.5"/>
<text text-anchor="start" x="332" y="-31.5" font-family="Helvetica,sans-Serif" font-size="10.00">AlignedVector&lt; Tensor</text>
<text text-anchor="start" x="332" y="-20.5" font-family="Helvetica,sans-Serif" font-size="10.00">&lt; 2, spacedim, VectorizedArray</text>
<text text-anchor="middle" x="401.5" y="-9.5" font-family="Helvetica,sans-Serif" font-size="10.00">Type &gt; &gt;</text>
</a>
</g>
</g>
<!-- Node1&#45;&gt;Node10 -->
<g id="edge9" class="edge">
<title>Node1&#45;&gt;Node10</title>
<path fill="none" stroke="orange" stroke-dasharray="5,2" d="M51.92,-206.06C53.96,-166.49 64.69,-78.41 119,-38 177.21,5.31 262.4,3.49 323.81,-5.72"/>
<polygon fill="orange" stroke="orange" points="48.43,-205.93 51.55,-216.06 55.42,-206.2 48.43,-205.93"/>
<text text-anchor="start" x="156.5" y="-52" font-family="Helvetica,sans-Serif" font-size="10.00"> &lt; Tensor&lt; 2, spacedim,</text>
<text text-anchor="middle" x="212.5" y="-41" font-family="Helvetica,sans-Serif" font-size="10.00"> VectorizedArrayType &gt; &gt;</text>
</g>
</g>
</svg>
