<?xml version="1.0" encoding="UTF-8" standalone="no"?>
<!DOCTYPE svg PUBLIC "-//W3C//DTD SVG 1.1//EN"
 "http://www.w3.org/Graphics/SVG/1.1/DTD/svg11.dtd">
<!-- Generated by graphviz version 2.47.1 (20210417.1919)
 -->
<!-- Title: FE_BernardiRaugel&lt; dim &gt; Pages: 1 -->
<svg width="224pt" height="321pt"
 viewBox="0.00 0.00 224.00 321.00" xmlns="http://www.w3.org/2000/svg" xmlns:xlink="http://www.w3.org/1999/xlink">
<g id="graph0" class="graph" transform="scale(1 1) rotate(0) translate(4 317)">
<title>FE_BernardiRaugel&lt; dim &gt;</title>
<polygon fill="white" stroke="transparent" points="-4,4 -4,-317 220,-317 220,4 -4,4"/>
<!-- Node1 -->
<g id="node1" class="node">
<title>Node1</title>
<g id="a_node1"><a xlink:title=" ">
<polygon fill="#bfbfbf" stroke="black" points="44.5,-0.5 44.5,-30.5 151.5,-30.5 151.5,-0.5 44.5,-0.5"/>
<text text-anchor="start" x="52.5" y="-18.5" font-family="Helvetica,sans-Serif" font-size="10.00">FE_BernardiRaugel&lt;</text>
<text text-anchor="middle" x="98" y="-7.5" font-family="Helvetica,sans-Serif" font-size="10.00"> dim &gt;</text>
</a>
</g>
</g>
<!-- Node2 -->
<g id="node2" class="node">
<title>Node2</title>
<g id="a_node2"><a xlink:href="classFE__PolyTensor.html" target="_top" xlink:title=" ">
<polygon fill="white" stroke="black" points="42.5,-68.5 42.5,-98.5 153.5,-98.5 153.5,-68.5 42.5,-68.5"/>
<text text-anchor="start" x="50.5" y="-86.5" font-family="Helvetica,sans-Serif" font-size="10.00">FE_PolyTensor&lt; dim,</text>
<text text-anchor="middle" x="98" y="-75.5" font-family="Helvetica,sans-Serif" font-size="10.00"> spacedim &gt;</text>
</a>
</g>
</g>
<!-- Node2&#45;&gt;Node1 -->
<g id="edge1" class="edge">
<title>Node2&#45;&gt;Node1</title>
<path fill="none" stroke="midnightblue" d="M98,-58.03C98,-48.86 98,-38.74 98,-30.79"/>
<polygon fill="midnightblue" stroke="midnightblue" points="94.5,-58.18 98,-68.18 101.5,-58.18 94.5,-58.18"/>
</g>
<!-- Node3 -->
<g id="node3" class="node">
<title>Node3</title>
<g id="a_node3"><a xlink:href="classFiniteElement.html" target="_top" xlink:title=" ">
<polygon fill="white" stroke="black" points="46,-136.5 46,-166.5 150,-166.5 150,-136.5 46,-136.5"/>
<text text-anchor="start" x="54" y="-154.5" font-family="Helvetica,sans-Serif" font-size="10.00">FiniteElement&lt; dim,</text>
<text text-anchor="middle" x="98" y="-143.5" font-family="Helvetica,sans-Serif" font-size="10.00"> dim &gt;</text>
</a>
</g>
</g>
<!-- Node3&#45;&gt;Node2 -->
<g id="edge2" class="edge">
<title>Node3&#45;&gt;Node2</title>
<path fill="none" stroke="midnightblue" d="M98,-126.03C98,-116.86 98,-106.74 98,-98.79"/>
<polygon fill="midnightblue" stroke="midnightblue" points="94.5,-126.18 98,-136.18 101.5,-126.18 94.5,-126.18"/>
</g>
<!-- Node4 -->
<g id="node4" class="node">
<title>Node4</title>
<g id="a_node4"><a xlink:href="classSubscriptor.html" target="_top" xlink:title=" ">
<polygon fill="white" stroke="black" points="0,-288 0,-307 66,-307 66,-288 0,-288"/>
<text text-anchor="middle" x="33" y="-295" font-family="Helvetica,sans-Serif" font-size="10.00">Subscriptor</text>
</a>
</g>
</g>
<!-- Node4&#45;&gt;Node3 -->
<g id="edge3" class="edge">
<title>Node4&#45;&gt;Node3</title>
<path fill="none" stroke="midnightblue" d="M30.22,-277.89C28.47,-260.58 27.99,-234.45 37,-214 45.61,-194.46 63.43,-177.67 77.6,-166.6"/>
<polygon fill="midnightblue" stroke="midnightblue" points="26.75,-278.36 31.47,-287.85 33.7,-277.49 26.75,-278.36"/>
</g>
<!-- Node6 -->
<g id="node6" class="node">
<title>Node6</title>
<g id="a_node6"><a xlink:href="classFiniteElement.html" target="_top" xlink:title=" ">
<polygon fill="white" stroke="black" points="46,-214.5 46,-244.5 150,-244.5 150,-214.5 46,-214.5"/>
<text text-anchor="start" x="54" y="-232.5" font-family="Helvetica,sans-Serif" font-size="10.00">FiniteElement&lt; dim,</text>
<text text-anchor="middle" x="98" y="-221.5" font-family="Helvetica,sans-Serif" font-size="10.00"> spacedim &gt;</text>
</a>
</g>
</g>
<!-- Node4&#45;&gt;Node6 -->
<g id="edge6" class="edge">
<title>Node4&#45;&gt;Node6</title>
<path fill="none" stroke="midnightblue" d="M48.64,-280.62C59.42,-269.67 73.63,-255.24 84.03,-244.68"/>
<polygon fill="midnightblue" stroke="midnightblue" points="46.02,-278.29 41.5,-287.87 51.01,-283.2 46.02,-278.29"/>
</g>
<!-- Node5 -->
<g id="node5" class="node">
<title>Node5</title>
<g id="a_node5"><a xlink:href="classFiniteElementData.html" target="_top" xlink:title=" ">
<polygon fill="white" stroke="black" points="112,-282.5 112,-312.5 216,-312.5 216,-282.5 112,-282.5"/>
<text text-anchor="start" x="120" y="-300.5" font-family="Helvetica,sans-Serif" font-size="10.00">FiniteElementData&lt;</text>
<text text-anchor="middle" x="164" y="-289.5" font-family="Helvetica,sans-Serif" font-size="10.00"> dim &gt;</text>
</a>
</g>
</g>
<!-- Node5&#45;&gt;Node3 -->
<g id="edge4" class="edge">
<title>Node5&#45;&gt;Node3</title>
<path fill="none" stroke="midnightblue" d="M170.04,-272.09C174.55,-248.03 177.43,-211.17 161,-185 156.09,-177.18 148.65,-171.16 140.59,-166.54"/>
<polygon fill="midnightblue" stroke="midnightblue" points="166.55,-271.66 167.92,-282.16 173.4,-273.1 166.55,-271.66"/>
</g>
<!-- Node5&#45;&gt;Node6 -->
<g id="edge7" class="edge">
<title>Node5&#45;&gt;Node6</title>
<path fill="none" stroke="midnightblue" d="M142.49,-274.99C132.59,-265.09 121.11,-253.61 112.29,-244.79"/>
<polygon fill="midnightblue" stroke="midnightblue" points="140.13,-277.58 149.68,-282.18 145.08,-272.63 140.13,-277.58"/>
</g>
<!-- Node6&#45;&gt;Node3 -->
<g id="edge5" class="edge">
<title>Node6&#45;&gt;Node3</title>
<path fill="none" stroke="orange" stroke-dasharray="5,2" d="M98,-204.09C98,-191.76 98,-177.22 98,-166.73"/>
<polygon fill="orange" stroke="orange" points="94.5,-204.2 98,-214.2 101.5,-204.21 94.5,-204.2"/>
<text text-anchor="middle" x="127.5" y="-188" font-family="Helvetica,sans-Serif" font-size="10.00"> &lt; dim, dim &gt;</text>
</g>
</g>
</svg>
