<?xml version="1.0" encoding="UTF-8" standalone="no"?>
<!DOCTYPE svg PUBLIC "-//W3C//DTD SVG 1.1//EN"
 "http://www.w3.org/Graphics/SVG/1.1/DTD/svg11.dtd">
<!-- Generated by graphviz version 2.47.1 (20210417.1919)
 -->
<!-- Title: FEValues&lt; dim, spacedim &gt; Pages: 1 -->
<svg width="354pt" height="231pt"
 viewBox="0.00 0.00 354.00 231.00" xmlns="http://www.w3.org/2000/svg" xmlns:xlink="http://www.w3.org/1999/xlink">
<g id="graph0" class="graph" transform="scale(1 1) rotate(0) translate(4 227)">
<title>FEValues&lt; dim, spacedim &gt;</title>
<polygon fill="white" stroke="transparent" points="-4,4 -4,-227 350,-227 350,4 -4,4"/>
<!-- Node1 -->
<g id="node1" class="node">
<title>Node1</title>
<g id="a_node1"><a xlink:title=" ">
<polygon fill="#bfbfbf" stroke="black" points="0,-0.5 0,-19.5 140,-19.5 140,-0.5 0,-0.5"/>
<text text-anchor="middle" x="70" y="-7.5" font-family="Helvetica,sans-Serif" font-size="10.00">FEValues&lt; dim, spacedim &gt;</text>
</a>
</g>
</g>
<!-- Node1&#45;&gt;Node1 -->
<g id="edge5" class="edge">
<title>Node1&#45;&gt;Node1</title>
<path fill="none" stroke="orange" stroke-dasharray="5,2" d="M150.08,-11.83C155.02,-11.4 158,-10.79 158,-10 158,-8.77 150.75,-7.97 140.07,-7.61"/>
<polygon fill="orange" stroke="orange" points="149.86,-8.34 140.07,-12.39 150.25,-15.33 149.86,-8.34"/>
<text text-anchor="middle" x="200.5" y="-7.5" font-family="Helvetica,sans-Serif" font-size="10.00"> &lt; dim, spacedim &gt;</text>
</g>
<!-- Node1&#45;&gt;Node1 -->
<g id="edge6" class="edge">
<title>Node1&#45;&gt;Node1</title>
<path fill="none" stroke="orange" stroke-dasharray="5,2" d="M150.35,-15.11C196.32,-15.78 243,-14.08 243,-10 243,-5.62 189.22,-3.98 140.27,-5.08"/>
<polygon fill="orange" stroke="orange" points="150.33,-11.61 140.27,-14.92 150.2,-18.61 150.33,-11.61"/>
<text text-anchor="middle" x="285.5" y="-7.5" font-family="Helvetica,sans-Serif" font-size="10.00"> &lt; dim, spacedim &gt;</text>
</g>
<!-- Node2 -->
<g id="node2" class="node">
<title>Node2</title>
<g id="a_node2"><a xlink:href="classFEValuesBase.html" target="_top" xlink:title=" ">
<polygon fill="white" stroke="black" points="15.5,-57.5 15.5,-87.5 124.5,-87.5 124.5,-57.5 15.5,-57.5"/>
<text text-anchor="start" x="23.5" y="-75.5" font-family="Helvetica,sans-Serif" font-size="10.00">FEValuesBase&lt; dim,</text>
<text text-anchor="middle" x="70" y="-64.5" font-family="Helvetica,sans-Serif" font-size="10.00"> dim &gt;</text>
</a>
</g>
</g>
<!-- Node2&#45;&gt;Node1 -->
<g id="edge1" class="edge">
<title>Node2&#45;&gt;Node1</title>
<path fill="none" stroke="midnightblue" d="M70,-47.35C70,-37.51 70,-26.78 70,-19.54"/>
<polygon fill="midnightblue" stroke="midnightblue" points="66.5,-47.47 70,-57.47 73.5,-47.47 66.5,-47.47"/>
</g>
<!-- Node3 -->
<g id="node3" class="node">
<title>Node3</title>
<g id="a_node3"><a xlink:href="classSubscriptor.html" target="_top" xlink:title=" ">
<polygon fill="white" stroke="black" points="33,-203.5 33,-222.5 99,-222.5 99,-203.5 33,-203.5"/>
<text text-anchor="middle" x="66" y="-210.5" font-family="Helvetica,sans-Serif" font-size="10.00">Subscriptor</text>
</a>
</g>
</g>
<!-- Node3&#45;&gt;Node2 -->
<g id="edge2" class="edge">
<title>Node3&#45;&gt;Node2</title>
<path fill="none" stroke="midnightblue" d="M66.54,-193.25C67.35,-165.19 68.86,-112.88 69.59,-87.73"/>
<polygon fill="midnightblue" stroke="midnightblue" points="63.04,-193.24 66.25,-203.34 70.04,-193.44 63.04,-193.24"/>
</g>
<!-- Node4 -->
<g id="node4" class="node">
<title>Node4</title>
<g id="a_node4"><a xlink:href="classFEValuesBase.html" target="_top" xlink:title=" ">
<polygon fill="white" stroke="black" points="82.5,-135.5 82.5,-165.5 191.5,-165.5 191.5,-135.5 82.5,-135.5"/>
<text text-anchor="start" x="90.5" y="-153.5" font-family="Helvetica,sans-Serif" font-size="10.00">FEValuesBase&lt; dim,</text>
<text text-anchor="middle" x="137" y="-142.5" font-family="Helvetica,sans-Serif" font-size="10.00"> spacedim &gt;</text>
</a>
</g>
</g>
<!-- Node3&#45;&gt;Node4 -->
<g id="edge4" class="edge">
<title>Node3&#45;&gt;Node4</title>
<path fill="none" stroke="midnightblue" d="M84.05,-196.62C95.28,-187.05 109.62,-174.83 120.54,-165.53"/>
<polygon fill="midnightblue" stroke="midnightblue" points="81.51,-194.18 76.17,-203.33 86.05,-199.51 81.51,-194.18"/>
</g>
<!-- Node4&#45;&gt;Node2 -->
<g id="edge3" class="edge">
<title>Node4&#45;&gt;Node2</title>
<path fill="none" stroke="orange" stroke-dasharray="5,2" d="M117.76,-127.67C106.44,-114.83 92.45,-98.97 82.55,-87.73"/>
<polygon fill="orange" stroke="orange" points="115.16,-130.02 124.4,-135.2 120.41,-125.39 115.16,-130.02"/>
<text text-anchor="middle" x="136.5" y="-109" font-family="Helvetica,sans-Serif" font-size="10.00"> &lt; dim, dim &gt;</text>
</g>
</g>
</svg>
