<?xml version="1.0" encoding="UTF-8" standalone="no"?>
<!DOCTYPE svg PUBLIC "-//W3C//DTD SVG 1.1//EN"
 "http://www.w3.org/Graphics/SVG/1.1/DTD/svg11.dtd">
<!-- Generated by graphviz version 2.47.1 (20210417.1919)
 -->
<!-- Title: Functions::FEFieldFunction&lt; dim, DoFHandlerType, VectorType &gt; Pages: 1 -->
<svg width="292pt" height="353pt"
 viewBox="0.00 0.00 292.00 353.00" xmlns="http://www.w3.org/2000/svg" xmlns:xlink="http://www.w3.org/1999/xlink">
<g id="graph0" class="graph" transform="scale(1 1) rotate(0) translate(4 349)">
<title>Functions::FEFieldFunction&lt; dim, DoFHandlerType, VectorType &gt;</title>
<polygon fill="white" stroke="transparent" points="-4,4 -4,-349 288,-349 288,4 -4,4"/>
<!-- Node1 -->
<g id="node1" class="node">
<title>Node1</title>
<g id="a_node1"><a xlink:title=" ">
<polygon fill="#bfbfbf" stroke="black" points="54.5,-0.5 54.5,-30.5 239.5,-30.5 239.5,-0.5 54.5,-0.5"/>
<text text-anchor="start" x="62.5" y="-18.5" font-family="Helvetica,sans-Serif" font-size="10.00">Functions::FEFieldFunction</text>
<text text-anchor="middle" x="147" y="-7.5" font-family="Helvetica,sans-Serif" font-size="10.00">&lt; dim, DoFHandlerType, VectorType &gt;</text>
</a>
</g>
</g>
<!-- Node2 -->
<g id="node2" class="node">
<title>Node2</title>
<g id="a_node2"><a xlink:href="classFunction.html" target="_top" xlink:title=" ">
<polygon fill="white" stroke="black" points="80,-68.5 80,-98.5 214,-98.5 214,-68.5 80,-68.5"/>
<text text-anchor="start" x="88" y="-86.5" font-family="Helvetica,sans-Serif" font-size="10.00">Function&lt; dim, VectorType</text>
<text text-anchor="middle" x="147" y="-75.5" font-family="Helvetica,sans-Serif" font-size="10.00">::value_type &gt;</text>
</a>
</g>
</g>
<!-- Node2&#45;&gt;Node1 -->
<g id="edge1" class="edge">
<title>Node2&#45;&gt;Node1</title>
<path fill="none" stroke="midnightblue" d="M147,-58.03C147,-48.86 147,-38.74 147,-30.79"/>
<polygon fill="midnightblue" stroke="midnightblue" points="143.5,-58.18 147,-68.18 150.5,-58.18 143.5,-58.18"/>
</g>
<!-- Node3 -->
<g id="node3" class="node">
<title>Node3</title>
<g id="a_node3"><a xlink:href="classFunctionTime.html" target="_top" xlink:title=" ">
<polygon fill="white" stroke="black" points="0,-325.5 0,-344.5 128,-344.5 128,-325.5 0,-325.5"/>
<text text-anchor="middle" x="64" y="-332.5" font-family="Helvetica,sans-Serif" font-size="10.00">FunctionTime&lt; Number &gt;</text>
</a>
</g>
</g>
<!-- Node3&#45;&gt;Node2 -->
<g id="edge2" class="edge">
<title>Node3&#45;&gt;Node2</title>
<path fill="none" stroke="midnightblue" d="M59.65,-315.19C52.87,-281.65 42.93,-210.08 67,-157 78.53,-131.56 103.74,-111.18 122.8,-98.58"/>
<polygon fill="midnightblue" stroke="midnightblue" points="56.32,-316.34 61.85,-325.37 63.16,-314.86 56.32,-316.34"/>
</g>
<!-- Node6 -->
<g id="node6" class="node">
<title>Node6</title>
<g id="a_node6"><a xlink:href="classFunctionTime.html" target="_top" xlink:title=" ">
<polygon fill="white" stroke="black" points="77,-225.5 77,-266.5 199,-266.5 199,-225.5 77,-225.5"/>
<text text-anchor="start" x="85" y="-254.5" font-family="Helvetica,sans-Serif" font-size="10.00">FunctionTime&lt; numbers</text>
<text text-anchor="start" x="85" y="-243.5" font-family="Helvetica,sans-Serif" font-size="10.00">::NumberTraits&lt; double</text>
<text text-anchor="middle" x="138" y="-232.5" font-family="Helvetica,sans-Serif" font-size="10.00"> &gt;::real_type &gt;</text>
</a>
</g>
</g>
<!-- Node3&#45;&gt;Node6 -->
<g id="edge6" class="edge">
<title>Node3&#45;&gt;Node6</title>
<path fill="none" stroke="orange" stroke-dasharray="5,2" d="M77.87,-317.69C90.17,-303.23 108.16,-282.08 121.26,-266.68"/>
<polygon fill="orange" stroke="orange" points="75.18,-315.46 71.37,-325.34 80.51,-319.99 75.18,-315.46"/>
<text text-anchor="start" x="106" y="-299" font-family="Helvetica,sans-Serif" font-size="10.00"> &lt; numbers::NumberTraits</text>
<text text-anchor="middle" x="163.5" y="-288" font-family="Helvetica,sans-Serif" font-size="10.00">&lt; double &gt;::real_type &gt;</text>
</g>
<!-- Node4 -->
<g id="node4" class="node">
<title>Node4</title>
<g id="a_node4"><a xlink:href="classSubscriptor.html" target="_top" xlink:title=" ">
<polygon fill="white" stroke="black" points="218,-236.5 218,-255.5 284,-255.5 284,-236.5 218,-236.5"/>
<text text-anchor="middle" x="251" y="-243.5" font-family="Helvetica,sans-Serif" font-size="10.00">Subscriptor</text>
</a>
</g>
</g>
<!-- Node4&#45;&gt;Node2 -->
<g id="edge3" class="edge">
<title>Node4&#45;&gt;Node2</title>
<path fill="none" stroke="midnightblue" d="M254.78,-226.34C259.14,-199.21 262.83,-148.7 238,-117 231.79,-109.08 223.5,-103.08 214.43,-98.55"/>
<polygon fill="midnightblue" stroke="midnightblue" points="251.3,-225.94 252.95,-236.4 258.18,-227.19 251.3,-225.94"/>
</g>
<!-- Node5 -->
<g id="node5" class="node">
<title>Node5</title>
<g id="a_node5"><a xlink:href="classFunction.html" target="_top" xlink:title=" ">
<polygon fill="white" stroke="black" points="76,-157.5 76,-187.5 224,-187.5 224,-157.5 76,-157.5"/>
<text text-anchor="start" x="84" y="-175.5" font-family="Helvetica,sans-Serif" font-size="10.00">Function&lt; dim, RangeNumber</text>
<text text-anchor="middle" x="150" y="-164.5" font-family="Helvetica,sans-Serif" font-size="10.00">Type &gt;</text>
</a>
</g>
</g>
<!-- Node4&#45;&gt;Node5 -->
<g id="edge7" class="edge">
<title>Node4&#45;&gt;Node5</title>
<path fill="none" stroke="midnightblue" d="M230.12,-230.22C212.41,-217.68 187.18,-199.82 169.79,-187.51"/>
<polygon fill="midnightblue" stroke="midnightblue" points="228.43,-233.31 238.62,-236.23 232.48,-227.6 228.43,-233.31"/>
</g>
<!-- Node5&#45;&gt;Node2 -->
<g id="edge4" class="edge">
<title>Node5&#45;&gt;Node2</title>
<path fill="none" stroke="orange" stroke-dasharray="5,2" d="M148.38,-147.08C148.24,-144.36 148.1,-141.62 148,-139 147.46,-125.38 147.21,-109.84 147.09,-98.85"/>
<polygon fill="orange" stroke="orange" points="144.9,-147.49 148.99,-157.27 151.89,-147.08 144.9,-147.49"/>
<text text-anchor="start" x="148" y="-131" font-family="Helvetica,sans-Serif" font-size="10.00"> &lt; dim, VectorType::</text>
<text text-anchor="middle" x="193" y="-120" font-family="Helvetica,sans-Serif" font-size="10.00">value_type &gt;</text>
</g>
<!-- Node6&#45;&gt;Node5 -->
<g id="edge5" class="edge">
<title>Node6&#45;&gt;Node5</title>
<path fill="none" stroke="midnightblue" d="M142.96,-215.46C144.56,-205.9 146.27,-195.73 147.6,-187.8"/>
<polygon fill="midnightblue" stroke="midnightblue" points="139.48,-215.02 141.28,-225.46 146.39,-216.18 139.48,-215.02"/>
</g>
</g>
</svg>
