<?xml version="1.0" encoding="UTF-8" standalone="no"?>
<!DOCTYPE svg PUBLIC "-//W3C//DTD SVG 1.1//EN"
 "http://www.w3.org/Graphics/SVG/1.1/DTD/svg11.dtd">
<!-- Generated by graphviz version 2.47.1 (20210417.1919)
 -->
<!-- Title: Tensor&lt; rank_, dim, Number &gt; Pages: 1 -->
<svg width="562pt" height="688pt"
 viewBox="0.00 0.00 562.00 688.26" xmlns="http://www.w3.org/2000/svg" xmlns:xlink="http://www.w3.org/1999/xlink">
<g id="graph0" class="graph" transform="scale(1 1) rotate(0) translate(4 684.26)">
<title>Tensor&lt; rank_, dim, Number &gt;</title>
<polygon fill="white" stroke="transparent" points="-4,4 -4,-684.26 558,-684.26 558,4 -4,4"/>
<!-- Node1 -->
<g id="node1" class="node">
<title>Node1</title>
<g id="a_node1"><a xlink:title=" ">
<polygon fill="#bfbfbf" stroke="black" points="0,-355.54 0,-385.54 104,-385.54 104,-355.54 0,-355.54"/>
<text text-anchor="start" x="8" y="-373.54" font-family="Helvetica,sans-Serif" font-size="10.00">Tensor&lt; rank_, dim,</text>
<text text-anchor="middle" x="52" y="-362.54" font-family="Helvetica,sans-Serif" font-size="10.00"> Number &gt;</text>
</a>
</g>
</g>
<!-- Node2 -->
<g id="node2" class="node">
<title>Node2</title>
<g id="a_node2"><a xlink:href="classPoint.html" target="_top" xlink:title=" ">
<polygon fill="white" stroke="black" points="441,-594.04 441,-613.04 554,-613.04 554,-594.04 441,-594.04"/>
<text text-anchor="middle" x="497.5" y="-601.04" font-family="Helvetica,sans-Serif" font-size="10.00">Point&lt; dim, Number &gt;</text>
</a>
</g>
</g>
<!-- Node1&#45;&gt;Node2 -->
<g id="edge1" class="edge">
<title>Node1&#45;&gt;Node2</title>
<path fill="none" stroke="midnightblue" d="M54.87,-395.8C60.34,-462.19 78.76,-638.94 122,-674.54 132.22,-682.96 400.55,-679.76 404,-678.54 441.02,-665.42 474.04,-630.46 488.61,-613.31"/>
<polygon fill="midnightblue" stroke="midnightblue" points="58.35,-395.47 54.07,-385.78 51.37,-396.03 58.35,-395.47"/>
</g>
<!-- Node3 -->
<g id="node3" class="node">
<title>Node3</title>
<g id="a_node3"><a xlink:href="classPoint.html" target="_top" xlink:title=" ">
<polygon fill="white" stroke="black" points="286,-650.04 286,-669.04 373,-669.04 373,-650.04 286,-650.04"/>
<text text-anchor="middle" x="329.5" y="-657.04" font-family="Helvetica,sans-Serif" font-size="10.00">Point&lt; 3, float &gt;</text>
</a>
</g>
</g>
<!-- Node1&#45;&gt;Node3 -->
<g id="edge2" class="edge">
<title>Node1&#45;&gt;Node3</title>
<path fill="none" stroke="midnightblue" d="M55.59,-395.77C62.49,-457.47 83.44,-613.3 122,-645.54 169,-684.84 245,-678 290.51,-669.05"/>
<polygon fill="midnightblue" stroke="midnightblue" points="59.06,-395.29 54.5,-385.72 52.1,-396.04 59.06,-395.29"/>
</g>
<!-- Node4 -->
<g id="node4" class="node">
<title>Node4</title>
<g id="a_node4"><a xlink:href="classTensor.html" target="_top" xlink:title=" ">
<polygon fill="white" stroke="black" points="284,-612.04 284,-631.04 375,-631.04 375,-612.04 284,-612.04"/>
<text text-anchor="middle" x="329.5" y="-619.04" font-family="Helvetica,sans-Serif" font-size="10.00">Tensor&lt; 2, dim &gt;</text>
</a>
</g>
</g>
<!-- Node1&#45;&gt;Node4 -->
<g id="edge3" class="edge">
<title>Node1&#45;&gt;Node4</title>
<path fill="none" stroke="orange" stroke-dasharray="5,2" d="M52.52,-395.86C53.12,-443.2 61.8,-544.92 122,-595.54 166.94,-633.33 238.03,-633.62 283.97,-628.79"/>
<polygon fill="orange" stroke="orange" points="56.02,-395.83 52.5,-385.83 49.02,-395.84 56.02,-395.83"/>
<text text-anchor="middle" x="179.5" y="-633.54" font-family="Helvetica,sans-Serif" font-size="10.00"> &lt; 2, dim &gt;</text>
</g>
<!-- Node5 -->
<g id="node5" class="node">
<title>Node5</title>
<g id="a_node5"><a xlink:href="classTensor.html" target="_top" xlink:title=" ">
<polygon fill="white" stroke="black" points="284,-574.04 284,-593.04 375,-593.04 375,-574.04 284,-574.04"/>
<text text-anchor="middle" x="329.5" y="-581.04" font-family="Helvetica,sans-Serif" font-size="10.00">Tensor&lt; 3, dim &gt;</text>
</a>
</g>
</g>
<!-- Node1&#45;&gt;Node5 -->
<g id="edge4" class="edge">
<title>Node1&#45;&gt;Node5</title>
<path fill="none" stroke="orange" stroke-dasharray="5,2" d="M54.26,-395.79C57.8,-437.04 71.21,-518.32 122,-558.54 146.28,-577.77 230.7,-582.45 283.79,-583.45"/>
<polygon fill="orange" stroke="orange" points="57.75,-395.46 53.53,-385.75 50.77,-395.97 57.75,-395.46"/>
<text text-anchor="middle" x="179.5" y="-583.54" font-family="Helvetica,sans-Serif" font-size="10.00"> &lt; 3, dim &gt;</text>
</g>
<!-- Node6 -->
<g id="node6" class="node">
<title>Node6</title>
<g id="a_node6"><a xlink:href="classTensor.html" target="_top" xlink:title=" ">
<polygon fill="white" stroke="black" points="284,-536.04 284,-555.04 375,-555.04 375,-536.04 284,-536.04"/>
<text text-anchor="middle" x="329.5" y="-543.04" font-family="Helvetica,sans-Serif" font-size="10.00">Tensor&lt; 4, dim &gt;</text>
</a>
</g>
</g>
<!-- Node1&#45;&gt;Node6 -->
<g id="edge5" class="edge">
<title>Node1&#45;&gt;Node6</title>
<path fill="none" stroke="orange" stroke-dasharray="5,2" d="M56.56,-395.71C62.94,-430.67 79.86,-493.03 122,-523.54 146.97,-541.62 230.72,-545.36 283.58,-545.85"/>
<polygon fill="orange" stroke="orange" points="60,-395.1 54.9,-385.81 53.1,-396.25 60,-395.1"/>
<text text-anchor="middle" x="179.5" y="-546.54" font-family="Helvetica,sans-Serif" font-size="10.00"> &lt; 4, dim &gt;</text>
</g>
<!-- Node7 -->
<g id="node7" class="node">
<title>Node7</title>
<g id="a_node7"><a xlink:href="classTensor.html" target="_top" xlink:title=" ">
<polygon fill="white" stroke="black" points="284,-498.04 284,-517.04 375,-517.04 375,-498.04 284,-498.04"/>
<text text-anchor="middle" x="329.5" y="-505.04" font-family="Helvetica,sans-Serif" font-size="10.00">Tensor&lt; 5, dim &gt;</text>
</a>
</g>
</g>
<!-- Node1&#45;&gt;Node7 -->
<g id="edge6" class="edge">
<title>Node1&#45;&gt;Node7</title>
<path fill="none" stroke="orange" stroke-dasharray="5,2" d="M62.11,-395.01C72.61,-419.58 92.33,-456.46 122,-475.54 170.82,-506.94 239.28,-511.59 283.76,-510.66"/>
<polygon fill="orange" stroke="orange" points="65.31,-393.58 58.29,-385.63 58.82,-396.22 65.31,-393.58"/>
<text text-anchor="middle" x="179.5" y="-511.54" font-family="Helvetica,sans-Serif" font-size="10.00"> &lt; 5, dim &gt;</text>
</g>
<!-- Node8 -->
<g id="node8" class="node">
<title>Node8</title>
<g id="a_node8"><a xlink:href="classTensor.html" target="_top" xlink:title=" ">
<polygon fill="white" stroke="black" points="255,-448.54 255,-478.54 404,-478.54 404,-448.54 255,-448.54"/>
<text text-anchor="start" x="263" y="-466.54" font-family="Helvetica,sans-Serif" font-size="10.00">Tensor&lt; 1, dim, Differentiation</text>
<text text-anchor="middle" x="329.5" y="-455.54" font-family="Helvetica,sans-Serif" font-size="10.00">::SD::Expression &gt;</text>
</a>
</g>
</g>
<!-- Node1&#45;&gt;Node8 -->
<g id="edge7" class="edge">
<title>Node1&#45;&gt;Node8</title>
<path fill="none" stroke="orange" stroke-dasharray="5,2" d="M78.96,-391.69C91.34,-400.84 106.76,-410.94 122,-417.54 164.13,-435.78 214.35,-447.18 254.72,-454.06"/>
<polygon fill="orange" stroke="orange" points="80.99,-388.83 70.91,-385.56 76.74,-394.4 80.99,-388.83"/>
<text text-anchor="start" x="126.5" y="-463.54" font-family="Helvetica,sans-Serif" font-size="10.00"> &lt; 1, dim, Differentiation</text>
<text text-anchor="middle" x="179.5" y="-452.54" font-family="Helvetica,sans-Serif" font-size="10.00">::SD::Expression &gt;</text>
</g>
<!-- Node9 -->
<g id="node9" class="node">
<title>Node9</title>
<g id="a_node9"><a xlink:href="classTensor.html" target="_top" xlink:title=" ">
<polygon fill="white" stroke="black" points="279,-399.54 279,-429.54 380,-429.54 380,-399.54 279,-399.54"/>
<text text-anchor="start" x="287" y="-417.54" font-family="Helvetica,sans-Serif" font-size="10.00">Tensor&lt; order, dim,</text>
<text text-anchor="middle" x="329.5" y="-406.54" font-family="Helvetica,sans-Serif" font-size="10.00"> double &gt;</text>
</a>
</g>
</g>
<!-- Node1&#45;&gt;Node9 -->
<g id="edge8" class="edge">
<title>Node1&#45;&gt;Node9</title>
<path fill="none" stroke="orange" stroke-dasharray="5,2" d="M114,-384.06C116.7,-384.58 119.38,-385.07 122,-385.54 175.28,-395.06 236.75,-403.35 278.68,-408.6"/>
<polygon fill="orange" stroke="orange" points="114.65,-380.62 104.16,-382.11 113.29,-387.48 114.65,-380.62"/>
<text text-anchor="middle" x="179.5" y="-405.54" font-family="Helvetica,sans-Serif" font-size="10.00"> &lt; order, dim, double &gt;</text>
</g>
<!-- Node10 -->
<g id="node10" class="node">
<title>Node10</title>
<g id="a_node10"><a xlink:href="classTensor.html" target="_top" xlink:title=" ">
<polygon fill="white" stroke="black" points="284,-361.04 284,-380.04 375,-380.04 375,-361.04 284,-361.04"/>
<text text-anchor="middle" x="329.5" y="-368.04" font-family="Helvetica,sans-Serif" font-size="10.00">Tensor&lt; 1, dim &gt;</text>
</a>
</g>
</g>
<!-- Node1&#45;&gt;Node10 -->
<g id="edge9" class="edge">
<title>Node1&#45;&gt;Node10</title>
<path fill="none" stroke="orange" stroke-dasharray="5,2" d="M114.49,-370.54C165.89,-370.54 237.99,-370.54 283.97,-370.54"/>
<polygon fill="orange" stroke="orange" points="114.17,-367.04 104.17,-370.54 114.17,-374.04 114.17,-367.04"/>
<text text-anchor="middle" x="179.5" y="-373.54" font-family="Helvetica,sans-Serif" font-size="10.00"> &lt; 1, dim &gt;</text>
</g>
<!-- Node11 -->
<g id="node11" class="node">
<title>Node11</title>
<g id="a_node11"><a xlink:href="classTensor.html" target="_top" xlink:title=" ">
<polygon fill="white" stroke="black" points="271,-323.04 271,-342.04 388,-342.04 388,-323.04 271,-323.04"/>
<text text-anchor="middle" x="329.5" y="-330.04" font-family="Helvetica,sans-Serif" font-size="10.00">Tensor&lt; 1, spacedim &gt;</text>
</a>
</g>
</g>
<!-- Node1&#45;&gt;Node11 -->
<g id="edge10" class="edge">
<title>Node1&#45;&gt;Node11</title>
<path fill="none" stroke="orange" stroke-dasharray="5,2" d="M113.98,-356.93C116.69,-356.44 119.37,-355.97 122,-355.54 172.01,-347.34 229.33,-341.22 270.87,-337.36"/>
<polygon fill="orange" stroke="orange" points="113.3,-353.5 104.13,-358.81 114.61,-360.37 113.3,-353.5"/>
<text text-anchor="middle" x="179.5" y="-358.54" font-family="Helvetica,sans-Serif" font-size="10.00"> &lt; 1, spacedim &gt;</text>
</g>
<!-- Node12 -->
<g id="node12" class="node">
<title>Node12</title>
<g id="a_node12"><a xlink:href="classTensor.html" target="_top" xlink:title=" ">
<polygon fill="white" stroke="black" points="262.5,-273.54 262.5,-303.54 396.5,-303.54 396.5,-273.54 262.5,-273.54"/>
<text text-anchor="start" x="270.5" y="-291.54" font-family="Helvetica,sans-Serif" font-size="10.00">Tensor&lt; 1, dim, Vectorized</text>
<text text-anchor="middle" x="329.5" y="-280.54" font-family="Helvetica,sans-Serif" font-size="10.00">ArrayType &gt;</text>
</a>
</g>
</g>
<!-- Node1&#45;&gt;Node12 -->
<g id="edge11" class="edge">
<title>Node1&#45;&gt;Node12</title>
<path fill="none" stroke="orange" stroke-dasharray="5,2" d="M74.02,-348.22C86.71,-336.19 103.9,-322.27 122,-314.54 166.36,-295.6 220.61,-289.34 262.38,-287.69"/>
<polygon fill="orange" stroke="orange" points="71.4,-345.89 66.73,-355.4 76.31,-350.88 71.4,-345.89"/>
<text text-anchor="start" x="122" y="-328.54" font-family="Helvetica,sans-Serif" font-size="10.00"> &lt; 1, dim, VectorizedArray</text>
<text text-anchor="middle" x="179.5" y="-317.54" font-family="Helvetica,sans-Serif" font-size="10.00">Type &gt;</text>
</g>
<!-- Node13 -->
<g id="node13" class="node">
<title>Node13</title>
<g id="a_node13"><a xlink:href="classTensor.html" target="_top" xlink:title=" ">
<polygon fill="white" stroke="black" points="267,-235.04 267,-254.04 392,-254.04 392,-235.04 267,-235.04"/>
<text text-anchor="middle" x="329.5" y="-242.04" font-family="Helvetica,sans-Serif" font-size="10.00">Tensor&lt; 1, dim, double &gt;</text>
</a>
</g>
</g>
<!-- Node1&#45;&gt;Node13 -->
<g id="edge12" class="edge">
<title>Node1&#45;&gt;Node13</title>
<path fill="none" stroke="orange" stroke-dasharray="5,2" d="M63.39,-346.09C74.43,-323.33 94.15,-290.46 122,-273.54 165.47,-247.13 223.42,-240.97 266.87,-240.79"/>
<polygon fill="orange" stroke="orange" points="60.09,-344.9 59.07,-355.44 66.44,-347.84 60.09,-344.9"/>
<text text-anchor="middle" x="179.5" y="-276.54" font-family="Helvetica,sans-Serif" font-size="10.00"> &lt; 1, dim, double &gt;</text>
</g>
<!-- Node20 -->
<g id="node20" class="node">
<title>Node20</title>
<g id="a_node20"><a xlink:href="classTensor.html" target="_top" xlink:title=" ">
<polygon fill="white" stroke="black" points="271,-197.04 271,-216.04 388,-216.04 388,-197.04 271,-197.04"/>
<text text-anchor="middle" x="329.5" y="-204.04" font-family="Helvetica,sans-Serif" font-size="10.00">Tensor&lt; 3, spacedim &gt;</text>
</a>
</g>
</g>
<!-- Node1&#45;&gt;Node20 -->
<g id="edge20" class="edge">
<title>Node1&#45;&gt;Node20</title>
<path fill="none" stroke="orange" stroke-dasharray="5,2" d="M57.29,-345.31C64.41,-312.05 82.03,-254.5 122,-226.54 165.1,-196.41 226.2,-194.14 270.76,-197.75"/>
<polygon fill="orange" stroke="orange" points="53.85,-344.7 55.34,-355.19 60.71,-346.06 53.85,-344.7"/>
<text text-anchor="middle" x="179.5" y="-229.54" font-family="Helvetica,sans-Serif" font-size="10.00"> &lt; 3, spacedim &gt;</text>
</g>
<!-- Node21 -->
<g id="node21" class="node">
<title>Node21</title>
<g id="a_node21"><a xlink:href="classTensor.html" target="_top" xlink:title=" ">
<polygon fill="white" stroke="black" points="262.5,-147.54 262.5,-177.54 396.5,-177.54 396.5,-147.54 262.5,-147.54"/>
<text text-anchor="start" x="270.5" y="-165.54" font-family="Helvetica,sans-Serif" font-size="10.00">Tensor&lt; 2, dim, Vectorized</text>
<text text-anchor="middle" x="329.5" y="-154.54" font-family="Helvetica,sans-Serif" font-size="10.00">ArrayType &gt;</text>
</a>
</g>
</g>
<!-- Node1&#45;&gt;Node21 -->
<g id="edge21" class="edge">
<title>Node1&#45;&gt;Node21</title>
<path fill="none" stroke="orange" stroke-dasharray="5,2" d="M53.17,-345.28C55,-301.23 65.81,-211.11 122,-169.54 163.09,-139.14 222.42,-140.41 266.95,-147.52"/>
<polygon fill="orange" stroke="orange" points="49.67,-345.33 52.88,-355.43 56.67,-345.53 49.67,-345.33"/>
<text text-anchor="start" x="122" y="-183.54" font-family="Helvetica,sans-Serif" font-size="10.00"> &lt; 2, dim, VectorizedArray</text>
<text text-anchor="middle" x="179.5" y="-172.54" font-family="Helvetica,sans-Serif" font-size="10.00">Type &gt;</text>
</g>
<!-- Node22 -->
<g id="node22" class="node">
<title>Node22</title>
<g id="a_node22"><a xlink:href="classTensor.html" target="_top" xlink:title=" ">
<polygon fill="white" stroke="black" points="280.5,-98.54 280.5,-128.54 378.5,-128.54 378.5,-98.54 280.5,-98.54"/>
<text text-anchor="start" x="288.5" y="-116.54" font-family="Helvetica,sans-Serif" font-size="10.00">Tensor&lt; rank, dim,</text>
<text text-anchor="middle" x="329.5" y="-105.54" font-family="Helvetica,sans-Serif" font-size="10.00"> double &gt;</text>
</a>
</g>
</g>
<!-- Node1&#45;&gt;Node22 -->
<g id="edge22" class="edge">
<title>Node1&#45;&gt;Node22</title>
<path fill="none" stroke="orange" stroke-dasharray="5,2" d="M56.49,-345.24C64.83,-288.77 87.82,-155.23 122,-127.54 166.11,-91.8 234.43,-94.85 280.28,-102.41"/>
<polygon fill="orange" stroke="orange" points="52.98,-345.05 55.02,-355.45 59.91,-346.05 52.98,-345.05"/>
<text text-anchor="middle" x="179.5" y="-130.54" font-family="Helvetica,sans-Serif" font-size="10.00"> &lt; rank, dim, double &gt;</text>
</g>
<!-- Node23 -->
<g id="node23" class="node">
<title>Node23</title>
<g id="a_node23"><a xlink:href="classTensor.html" target="_top" xlink:title=" ">
<polygon fill="white" stroke="black" points="271,-60.04 271,-79.04 388,-79.04 388,-60.04 271,-60.04"/>
<text text-anchor="middle" x="329.5" y="-67.04" font-family="Helvetica,sans-Serif" font-size="10.00">Tensor&lt; 2, spacedim &gt;</text>
</a>
</g>
</g>
<!-- Node1&#45;&gt;Node23 -->
<g id="edge23" class="edge">
<title>Node1&#45;&gt;Node23</title>
<path fill="none" stroke="orange" stroke-dasharray="5,2" d="M55.27,-345.41C61.57,-281.71 81.55,-116.56 122,-82.54 169.29,-42.77 246.25,-50.58 291.66,-59.98"/>
<polygon fill="orange" stroke="orange" points="51.78,-345.11 54.31,-355.4 58.75,-345.78 51.78,-345.11"/>
<text text-anchor="middle" x="179.5" y="-85.54" font-family="Helvetica,sans-Serif" font-size="10.00"> &lt; 2, spacedim &gt;</text>
</g>
<!-- Node24 -->
<g id="node24" class="node">
<title>Node24</title>
<g id="a_node24"><a xlink:href="classTensor.html" target="_top" xlink:title=" ">
<polygon fill="white" stroke="black" points="255,-10.54 255,-40.54 404,-40.54 404,-10.54 255,-10.54"/>
<text text-anchor="start" x="263" y="-28.54" font-family="Helvetica,sans-Serif" font-size="10.00">Tensor&lt; 2, dim, Differentiation</text>
<text text-anchor="middle" x="329.5" y="-17.54" font-family="Helvetica,sans-Serif" font-size="10.00">::SD::Expression &gt;</text>
</a>
</g>
</g>
<!-- Node1&#45;&gt;Node24 -->
<g id="edge24" class="edge">
<title>Node1&#45;&gt;Node24</title>
<path fill="none" stroke="orange" stroke-dasharray="5,2" d="M54.09,-345.37C57.8,-273.04 72.58,-67.24 122,-26.54 166.28,9.92 235.88,1.2 281.84,-10.48"/>
<polygon fill="orange" stroke="orange" points="50.59,-345.25 53.6,-355.41 57.58,-345.59 50.59,-345.25"/>
<text text-anchor="start" x="126.5" y="-40.54" font-family="Helvetica,sans-Serif" font-size="10.00"> &lt; 2, dim, Differentiation</text>
<text text-anchor="middle" x="179.5" y="-29.54" font-family="Helvetica,sans-Serif" font-size="10.00">::SD::Expression &gt;</text>
</g>
<!-- Node13&#45;&gt;Node2 -->
<g id="edge19" class="edge">
<title>Node13&#45;&gt;Node2</title>
<path fill="none" stroke="midnightblue" d="M397.91,-259.4C400.08,-260.95 402.12,-262.66 404,-264.54 416.38,-276.91 480.9,-539.55 494.13,-593.79"/>
<polygon fill="midnightblue" stroke="midnightblue" points="399.44,-256.23 389.05,-254.16 395.87,-262.26 399.44,-256.23"/>
</g>
<!-- Node14 -->
<g id="node14" class="node">
<title>Node14</title>
<g id="a_node14"><a xlink:href="classPoint.html" target="_top" xlink:title=" ">
<polygon fill="white" stroke="black" points="466.5,-330.04 466.5,-349.04 528.5,-349.04 528.5,-330.04 466.5,-330.04"/>
<text text-anchor="middle" x="497.5" y="-337.04" font-family="Helvetica,sans-Serif" font-size="10.00">Point&lt; 1 &gt;</text>
</a>
</g>
</g>
<!-- Node13&#45;&gt;Node14 -->
<g id="edge13" class="edge">
<title>Node13&#45;&gt;Node14</title>
<path fill="none" stroke="midnightblue" d="M393.47,-258.23C397.17,-260.08 400.72,-262.17 404,-264.54 428.17,-282.03 417.4,-302.29 441,-320.54 448.41,-326.27 457.66,-330.34 466.48,-333.2"/>
<polygon fill="midnightblue" stroke="midnightblue" points="394.57,-254.9 384,-254.14 391.79,-261.32 394.57,-254.9"/>
</g>
<!-- Node15 -->
<g id="node15" class="node">
<title>Node15</title>
<g id="a_node15"><a xlink:href="classPoint.html" target="_top" xlink:title=" ">
<polygon fill="white" stroke="black" points="466.5,-292.04 466.5,-311.04 528.5,-311.04 528.5,-292.04 466.5,-292.04"/>
<text text-anchor="middle" x="497.5" y="-299.04" font-family="Helvetica,sans-Serif" font-size="10.00">Point&lt; 2 &gt;</text>
</a>
</g>
</g>
<!-- Node13&#45;&gt;Node15 -->
<g id="edge14" class="edge">
<title>Node13&#45;&gt;Node15</title>
<path fill="none" stroke="midnightblue" d="M380.81,-256.88C388.65,-259.19 396.6,-261.76 404,-264.54 421.12,-270.97 424.1,-275.57 441,-282.54 449.1,-285.88 458.02,-289.12 466.29,-291.95"/>
<polygon fill="midnightblue" stroke="midnightblue" points="381.56,-253.46 370.99,-254.1 379.65,-260.19 381.56,-253.46"/>
</g>
<!-- Node16 -->
<g id="node16" class="node">
<title>Node16</title>
<g id="a_node16"><a xlink:href="classPoint.html" target="_top" xlink:title=" ">
<polygon fill="white" stroke="black" points="449,-254.04 449,-273.04 546,-273.04 546,-254.04 449,-254.04"/>
<text text-anchor="middle" x="497.5" y="-261.04" font-family="Helvetica,sans-Serif" font-size="10.00">Point&lt; 2, double &gt;</text>
</a>
</g>
</g>
<!-- Node13&#45;&gt;Node16 -->
<g id="edge15" class="edge">
<title>Node13&#45;&gt;Node16</title>
<path fill="none" stroke="midnightblue" d="M402.52,-252.79C418.22,-254.58 434.44,-256.44 448.91,-258.09"/>
<polygon fill="midnightblue" stroke="midnightblue" points="402.65,-249.28 392.31,-251.62 401.85,-256.23 402.65,-249.28"/>
</g>
<!-- Node17 -->
<g id="node17" class="node">
<title>Node17</title>
<g id="a_node17"><a xlink:href="classPoint.html" target="_top" xlink:title=" ">
<polygon fill="white" stroke="black" points="466.5,-216.04 466.5,-235.04 528.5,-235.04 528.5,-216.04 466.5,-216.04"/>
<text text-anchor="middle" x="497.5" y="-223.04" font-family="Helvetica,sans-Serif" font-size="10.00">Point&lt; 3 &gt;</text>
</a>
</g>
</g>
<!-- Node13&#45;&gt;Node17 -->
<g id="edge16" class="edge">
<title>Node13&#45;&gt;Node17</title>
<path fill="none" stroke="midnightblue" d="M402.5,-236.3C424.89,-233.74 448.37,-231.05 466.26,-229"/>
<polygon fill="midnightblue" stroke="midnightblue" points="401.85,-232.85 392.31,-237.47 402.65,-239.81 401.85,-232.85"/>
</g>
<!-- Node18 -->
<g id="node18" class="node">
<title>Node18</title>
<g id="a_node18"><a xlink:href="classPoint.html" target="_top" xlink:title=" ">
<polygon fill="white" stroke="black" points="448,-178.04 448,-197.04 547,-197.04 547,-178.04 448,-178.04"/>
<text text-anchor="middle" x="497.5" y="-185.04" font-family="Helvetica,sans-Serif" font-size="10.00">Point&lt; spacedim &gt;</text>
</a>
</g>
</g>
<!-- Node13&#45;&gt;Node18 -->
<g id="edge17" class="edge">
<title>Node13&#45;&gt;Node18</title>
<path fill="none" stroke="midnightblue" d="M384.04,-232.19C390.83,-230.19 397.63,-227.97 404,-225.54 421.28,-218.97 423.99,-213.78 441,-206.54 448.97,-203.15 457.76,-199.92 465.96,-197.11"/>
<polygon fill="midnightblue" stroke="midnightblue" points="382.83,-228.89 374.14,-234.96 384.71,-235.63 382.83,-228.89"/>
</g>
<!-- Node19 -->
<g id="node19" class="node">
<title>Node19</title>
<g id="a_node19"><a xlink:href="classPoint.html" target="_top" xlink:title=" ">
<polygon fill="white" stroke="black" points="444,-140.04 444,-159.04 551,-159.04 551,-140.04 444,-140.04"/>
<text text-anchor="middle" x="497.5" y="-147.04" font-family="Helvetica,sans-Serif" font-size="10.00">Point&lt; dim, double &gt;</text>
</a>
</g>
</g>
<!-- Node13&#45;&gt;Node19 -->
<g id="edge18" class="edge">
<title>Node13&#45;&gt;Node19</title>
<path fill="none" stroke="midnightblue" d="M395.5,-230.75C398.47,-229.2 401.33,-227.47 404,-225.54 428.51,-207.89 417.19,-187.12 441,-168.54 445.98,-164.66 451.8,-161.54 457.77,-159.05"/>
<polygon fill="midnightblue" stroke="midnightblue" points="393.97,-227.61 386.29,-234.91 396.85,-233.98 393.97,-227.61"/>
</g>
</g>
</svg>
