<?xml version="1.0" encoding="UTF-8" standalone="no"?>
<!DOCTYPE svg PUBLIC "-//W3C//DTD SVG 1.1//EN"
 "http://www.w3.org/Graphics/SVG/1.1/DTD/svg11.dtd">
<!-- Generated by graphviz version 2.47.1 (20210417.1919)
 -->
<!-- Title: TrilinosWrappers::SparseMatrixIterators::Accessor&lt; true &gt; Pages: 1 -->
<svg width="157pt" height="117pt"
 viewBox="0.00 0.00 157.00 117.00" xmlns="http://www.w3.org/2000/svg" xmlns:xlink="http://www.w3.org/1999/xlink">
<g id="graph0" class="graph" transform="scale(1 1) rotate(0) translate(4 113)">
<title>TrilinosWrappers::SparseMatrixIterators::Accessor&lt; true &gt;</title>
<polygon fill="white" stroke="transparent" points="-4,4 -4,-113 153,-113 153,4 -4,4"/>
<!-- Node1 -->
<g id="node1" class="node">
<title>Node1</title>
<g id="a_node1"><a xlink:title=" ">
<polygon fill="#bfbfbf" stroke="black" points="11,-0.5 11,-41.5 138,-41.5 138,-0.5 11,-0.5"/>
<text text-anchor="start" x="19" y="-29.5" font-family="Helvetica,sans-Serif" font-size="10.00">TrilinosWrappers::Sparse</text>
<text text-anchor="start" x="19" y="-18.5" font-family="Helvetica,sans-Serif" font-size="10.00">MatrixIterators::Accessor</text>
<text text-anchor="middle" x="74.5" y="-7.5" font-family="Helvetica,sans-Serif" font-size="10.00">&lt; true &gt;</text>
</a>
</g>
</g>
<!-- Node2 -->
<g id="node2" class="node">
<title>Node2</title>
<g id="a_node2"><a xlink:href="classTrilinosWrappers_1_1SparseMatrixIterators_1_1AccessorBase.html" target="_top" xlink:title=" ">
<polygon fill="white" stroke="black" points="0,-78.5 0,-108.5 149,-108.5 149,-78.5 0,-78.5"/>
<text text-anchor="start" x="8" y="-96.5" font-family="Helvetica,sans-Serif" font-size="10.00">TrilinosWrappers::Sparse</text>
<text text-anchor="middle" x="74.5" y="-85.5" font-family="Helvetica,sans-Serif" font-size="10.00">MatrixIterators::AccessorBase</text>
</a>
</g>
</g>
<!-- Node2&#45;&gt;Node1 -->
<g id="edge1" class="edge">
<title>Node2&#45;&gt;Node1</title>
<path fill="none" stroke="midnightblue" d="M74.5,-67.98C74.5,-59.35 74.5,-49.76 74.5,-41.59"/>
<polygon fill="midnightblue" stroke="midnightblue" points="71,-68.23 74.5,-78.23 78,-68.23 71,-68.23"/>
</g>
</g>
</svg>
