<?xml version="1.0" encoding="UTF-8" standalone="no"?>
<!DOCTYPE svg PUBLIC "-//W3C//DTD SVG 1.1//EN"
 "http://www.w3.org/Graphics/SVG/1.1/DTD/svg11.dtd">
<!-- Generated by graphviz version 2.47.1 (20210417.1919)
 -->
<!-- Title: Utilities::MPI::CommunicationPatternBase Pages: 1 -->
<svg width="344pt" height="176pt"
 viewBox="0.00 0.00 344.00 175.50" xmlns="http://www.w3.org/2000/svg" xmlns:xlink="http://www.w3.org/1999/xlink">
<g id="graph0" class="graph" transform="scale(1 1) rotate(0) translate(4 171.5)">
<title>Utilities::MPI::CommunicationPatternBase</title>
<polygon fill="white" stroke="transparent" points="-4,4 -4,-171.5 340,-171.5 340,4 -4,4"/>
<!-- Node1 -->
<g id="node1" class="node">
<title>Node1</title>
<g id="a_node1"><a xlink:title=" ">
<polygon fill="#bfbfbf" stroke="black" points="0,-63 0,-93 148,-93 148,-63 0,-63"/>
<text text-anchor="start" x="8" y="-81" font-family="Helvetica,sans-Serif" font-size="10.00">Utilities::MPI::Communication</text>
<text text-anchor="middle" x="74" y="-70" font-family="Helvetica,sans-Serif" font-size="10.00">PatternBase</text>
</a>
</g>
</g>
<!-- Node2 -->
<g id="node2" class="node">
<title>Node2</title>
<g id="a_node2"><a xlink:href="classLinearAlgebra_1_1EpetraWrappers_1_1CommunicationPattern.html" target="_top" xlink:title=" ">
<polygon fill="white" stroke="black" points="184,-137 184,-167 336,-167 336,-137 184,-137"/>
<text text-anchor="start" x="192" y="-155" font-family="Helvetica,sans-Serif" font-size="10.00">LinearAlgebra::EpetraWrappers</text>
<text text-anchor="middle" x="260" y="-144" font-family="Helvetica,sans-Serif" font-size="10.00">::CommunicationPattern</text>
</a>
</g>
</g>
<!-- Node1&#45;&gt;Node2 -->
<g id="edge1" class="edge">
<title>Node1&#45;&gt;Node2</title>
<path fill="none" stroke="midnightblue" d="M114.16,-97.35C134.7,-107.15 160.43,-118.86 184,-128 192.03,-131.11 200.65,-134.15 209.08,-136.95"/>
<polygon fill="midnightblue" stroke="midnightblue" points="115.65,-94.18 105.12,-93 112.62,-100.49 115.65,-94.18"/>
</g>
<!-- Node3 -->
<g id="node3" class="node">
<title>Node3</title>
<g id="a_node3"><a xlink:href="classLinearAlgebra_1_1TpetraWrappers_1_1CommunicationPattern.html" target="_top" xlink:title=" ">
<polygon fill="white" stroke="black" points="184.5,-88 184.5,-118 335.5,-118 335.5,-88 184.5,-88"/>
<text text-anchor="start" x="192.5" y="-106" font-family="Helvetica,sans-Serif" font-size="10.00">LinearAlgebra::TpetraWrappers</text>
<text text-anchor="middle" x="260" y="-95" font-family="Helvetica,sans-Serif" font-size="10.00">::CommunicationPattern</text>
</a>
</g>
</g>
<!-- Node1&#45;&gt;Node3 -->
<g id="edge2" class="edge">
<title>Node1&#45;&gt;Node3</title>
<path fill="none" stroke="midnightblue" d="M158.4,-89.33C167.1,-90.51 175.9,-91.71 184.5,-92.88"/>
<polygon fill="midnightblue" stroke="midnightblue" points="158.63,-85.83 148.25,-87.95 157.69,-92.77 158.63,-85.83"/>
</g>
<!-- Node4 -->
<g id="node4" class="node">
<title>Node4</title>
<g id="a_node4"><a xlink:href="classUtilities_1_1MPI_1_1NoncontiguousPartitioner.html" target="_top" xlink:title=" ">
<polygon fill="white" stroke="black" points="187.5,-39 187.5,-69 332.5,-69 332.5,-39 187.5,-39"/>
<text text-anchor="start" x="195.5" y="-57" font-family="Helvetica,sans-Serif" font-size="10.00">Utilities::MPI::Noncontiguous</text>
<text text-anchor="middle" x="260" y="-46" font-family="Helvetica,sans-Serif" font-size="10.00">Partitioner</text>
</a>
</g>
</g>
<!-- Node1&#45;&gt;Node4 -->
<g id="edge3" class="edge">
<title>Node1&#45;&gt;Node4</title>
<path fill="none" stroke="midnightblue" d="M158.26,-67.14C167.92,-65.88 177.71,-64.6 187.2,-63.36"/>
<polygon fill="midnightblue" stroke="midnightblue" points="157.71,-63.68 148.25,-68.45 158.62,-70.62 157.71,-63.68"/>
</g>
<!-- Node5 -->
<g id="node5" class="node">
<title>Node5</title>
<g id="a_node5"><a xlink:href="classUtilities_1_1MPI_1_1Partitioner.html" target="_top" xlink:title=" ">
<polygon fill="white" stroke="black" points="198,-0.5 198,-19.5 322,-19.5 322,-0.5 198,-0.5"/>
<text text-anchor="middle" x="260" y="-7.5" font-family="Helvetica,sans-Serif" font-size="10.00">Utilities::MPI::Partitioner</text>
</a>
</g>
</g>
<!-- Node1&#45;&gt;Node5 -->
<g id="edge4" class="edge">
<title>Node1&#45;&gt;Node5</title>
<path fill="none" stroke="midnightblue" d="M115.22,-58.51C135.54,-49.12 160.76,-38.16 184,-30 195.06,-26.12 207.27,-22.56 218.56,-19.56"/>
<polygon fill="midnightblue" stroke="midnightblue" points="113.55,-55.43 105.97,-62.83 116.51,-61.77 113.55,-55.43"/>
</g>
</g>
</svg>
