<?xml version="1.0" encoding="UTF-8" standalone="no"?>
<!DOCTYPE svg PUBLIC "-//W3C//DTD SVG 1.1//EN"
 "http://www.w3.org/Graphics/SVG/1.1/DTD/svg11.dtd">
<!-- Generated by graphviz version 2.47.1 (20210417.1919)
 -->
<!-- Title: hp::MappingCollection&lt; dim, spacedim &gt; Pages: 1 -->
<svg width="332pt" height="309pt"
 viewBox="0.00 0.00 331.50 309.00" xmlns="http://www.w3.org/2000/svg" xmlns:xlink="http://www.w3.org/1999/xlink">
<g id="graph0" class="graph" transform="scale(1 1) rotate(0) translate(4 305)">
<title>hp::MappingCollection&lt; dim, spacedim &gt;</title>
<polygon fill="white" stroke="transparent" points="-4,4 -4,-305 327.5,-305 327.5,4 -4,4"/>
<!-- Node1 -->
<g id="node1" class="node">
<title>Node1</title>
<g id="a_node1"><a xlink:title=" ">
<polygon fill="#bfbfbf" stroke="black" points="4.5,-78.5 4.5,-108.5 117.5,-108.5 117.5,-78.5 4.5,-78.5"/>
<text text-anchor="start" x="12.5" y="-96.5" font-family="Helvetica,sans-Serif" font-size="10.00">hp::MappingCollection</text>
<text text-anchor="middle" x="61" y="-85.5" font-family="Helvetica,sans-Serif" font-size="10.00">&lt; dim, spacedim &gt;</text>
</a>
</g>
</g>
<!-- Node1&#45;&gt;Node1 -->
<g id="edge5" class="edge">
<title>Node1&#45;&gt;Node1</title>
<path fill="none" stroke="orange" stroke-dasharray="5,2" d="M127.85,-95.84C132.6,-95.31 135.5,-94.53 135.5,-93.5 135.5,-91.86 128.07,-90.85 117.53,-90.48"/>
<polygon fill="orange" stroke="orange" points="127.27,-92.37 117.53,-96.52 127.74,-99.35 127.27,-92.37"/>
<text text-anchor="middle" x="178" y="-91" font-family="Helvetica,sans-Serif" font-size="10.00"> &lt; dim, spacedim &gt;</text>
</g>
<!-- Node1&#45;&gt;Node1 -->
<g id="edge6" class="edge">
<title>Node1&#45;&gt;Node1</title>
<path fill="none" stroke="orange" stroke-dasharray="5,2" d="M127.86,-99.56C172.32,-100.72 220.5,-98.7 220.5,-93.5 220.5,-87.91 164.76,-85.99 117.86,-87.76"/>
<polygon fill="orange" stroke="orange" points="127.97,-96.06 117.86,-99.24 127.74,-103.05 127.97,-96.06"/>
<text text-anchor="middle" x="263" y="-91" font-family="Helvetica,sans-Serif" font-size="10.00"> &lt; dim, spacedim &gt;</text>
</g>
<!-- Node5 -->
<g id="node5" class="node">
<title>Node5</title>
<g id="a_node5"><a xlink:href="classhp_1_1MappingCollection.html" target="_top" xlink:title=" ">
<polygon fill="white" stroke="black" points="4.5,-0.5 4.5,-30.5 117.5,-30.5 117.5,-0.5 4.5,-0.5"/>
<text text-anchor="start" x="12.5" y="-18.5" font-family="Helvetica,sans-Serif" font-size="10.00">hp::MappingCollection</text>
<text text-anchor="middle" x="61" y="-7.5" font-family="Helvetica,sans-Serif" font-size="10.00">&lt; dim, dim &gt;</text>
</a>
</g>
</g>
<!-- Node1&#45;&gt;Node5 -->
<g id="edge7" class="edge">
<title>Node1&#45;&gt;Node5</title>
<path fill="none" stroke="orange" stroke-dasharray="5,2" d="M61,-68.09C61,-55.76 61,-41.22 61,-30.73"/>
<polygon fill="orange" stroke="orange" points="57.5,-68.2 61,-78.2 64.5,-68.21 57.5,-68.2"/>
<text text-anchor="middle" x="90.5" y="-52" font-family="Helvetica,sans-Serif" font-size="10.00"> &lt; dim, dim &gt;</text>
</g>
<!-- Node2 -->
<g id="node2" class="node">
<title>Node2</title>
<g id="a_node2"><a xlink:href="classhp_1_1Collection.html" target="_top" xlink:title=" ">
<polygon fill="white" stroke="black" points="0,-146.5 0,-176.5 122,-176.5 122,-146.5 0,-146.5"/>
<text text-anchor="start" x="8" y="-164.5" font-family="Helvetica,sans-Serif" font-size="10.00">hp::Collection&lt; Mapping</text>
<text text-anchor="middle" x="61" y="-153.5" font-family="Helvetica,sans-Serif" font-size="10.00">&lt; dim, dim &gt; &gt;</text>
</a>
</g>
</g>
<!-- Node2&#45;&gt;Node1 -->
<g id="edge1" class="edge">
<title>Node2&#45;&gt;Node1</title>
<path fill="none" stroke="midnightblue" d="M61,-136.03C61,-126.86 61,-116.74 61,-108.79"/>
<polygon fill="midnightblue" stroke="midnightblue" points="57.5,-136.18 61,-146.18 64.5,-136.18 57.5,-136.18"/>
</g>
<!-- Node3 -->
<g id="node3" class="node">
<title>Node3</title>
<g id="a_node3"><a xlink:href="classSubscriptor.html" target="_top" xlink:title=" ">
<polygon fill="white" stroke="black" points="24,-281.5 24,-300.5 90,-300.5 90,-281.5 24,-281.5"/>
<text text-anchor="middle" x="57" y="-288.5" font-family="Helvetica,sans-Serif" font-size="10.00">Subscriptor</text>
</a>
</g>
</g>
<!-- Node3&#45;&gt;Node2 -->
<g id="edge2" class="edge">
<title>Node3&#45;&gt;Node2</title>
<path fill="none" stroke="midnightblue" d="M57.6,-270.9C58.41,-245.05 59.84,-199.54 60.56,-176.59"/>
<polygon fill="midnightblue" stroke="midnightblue" points="54.09,-271.13 57.27,-281.24 61.09,-271.35 54.09,-271.13"/>
</g>
<!-- Node4 -->
<g id="node4" class="node">
<title>Node4</title>
<g id="a_node4"><a xlink:href="classhp_1_1Collection.html" target="_top" xlink:title=" ">
<polygon fill="white" stroke="black" points="73.5,-224.5 73.5,-243.5 174.5,-243.5 174.5,-224.5 73.5,-224.5"/>
<text text-anchor="middle" x="124" y="-231.5" font-family="Helvetica,sans-Serif" font-size="10.00">hp::Collection&lt; T &gt;</text>
</a>
</g>
</g>
<!-- Node3&#45;&gt;Node4 -->
<g id="edge4" class="edge">
<title>Node3&#45;&gt;Node4</title>
<path fill="none" stroke="midnightblue" d="M75.27,-275C87.5,-264.96 103.16,-252.1 113.38,-243.71"/>
<polygon fill="midnightblue" stroke="midnightblue" points="72.98,-272.36 67.47,-281.41 77.42,-277.77 72.98,-272.36"/>
</g>
<!-- Node4&#45;&gt;Node2 -->
<g id="edge3" class="edge">
<title>Node4&#45;&gt;Node2</title>
<path fill="none" stroke="orange" stroke-dasharray="5,2" d="M109.47,-216.74C98.62,-204.6 83.93,-188.16 73.58,-176.58"/>
<polygon fill="orange" stroke="orange" points="107,-219.23 116.27,-224.36 112.22,-214.57 107,-219.23"/>
<text text-anchor="middle" x="155" y="-198" font-family="Helvetica,sans-Serif" font-size="10.00"> &lt; Mapping&lt; dim, dim &gt; &gt;</text>
</g>
</g>
</svg>
