<?xml version="1.0" encoding="UTF-8" standalone="no"?>
<!DOCTYPE svg PUBLIC "-//W3C//DTD SVG 1.1//EN"
 "http://www.w3.org/Graphics/SVG/1.1/DTD/svg11.dtd">
<!-- Generated by graphviz version 2.47.1 (20210417.1919)
 -->
<!-- Title: MGSmootherBase&lt; VectorType &gt; Pages: 1 -->
<svg width="969pt" height="211pt"
 viewBox="0.00 0.00 969.00 211.00" xmlns="http://www.w3.org/2000/svg" xmlns:xlink="http://www.w3.org/1999/xlink">
<g id="graph0" class="graph" transform="scale(1 1) rotate(0) translate(4 207)">
<title>MGSmootherBase&lt; VectorType &gt;</title>
<polygon fill="white" stroke="transparent" points="-4,4 -4,-207 965,-207 965,4 -4,4"/>
<!-- Node1 -->
<g id="node1" class="node">
<title>Node1</title>
<g id="a_node1"><a xlink:title=" ">
<polygon fill="#bfbfbf" stroke="black" points="103,-120 103,-139 267,-139 267,-120 103,-120"/>
<text text-anchor="middle" x="185" y="-127" font-family="Helvetica,sans-Serif" font-size="10.00">MGSmootherBase&lt; VectorType &gt;</text>
</a>
</g>
</g>
<!-- Node3 -->
<g id="node3" class="node">
<title>Node3</title>
<g id="a_node3"><a xlink:href="classMGSmoother.html" target="_top" xlink:title=" ">
<polygon fill="white" stroke="black" points="617.5,-172.5 617.5,-202.5 754.5,-202.5 754.5,-172.5 617.5,-172.5"/>
<text text-anchor="start" x="625.5" y="-190.5" font-family="Helvetica,sans-Serif" font-size="10.00">MGSmoother&lt; BlockVector</text>
<text text-anchor="middle" x="686" y="-179.5" font-family="Helvetica,sans-Serif" font-size="10.00">&lt; number &gt; &gt;</text>
</a>
</g>
</g>
<!-- Node1&#45;&gt;Node3 -->
<g id="edge2" class="edge">
<title>Node1&#45;&gt;Node3</title>
<path fill="none" stroke="midnightblue" d="M245.37,-140.91C301.5,-151.26 388.17,-166.15 464,-174.5 515.19,-180.13 573.34,-183.43 617.14,-185.3"/>
<polygon fill="midnightblue" stroke="midnightblue" points="245.73,-137.41 235.26,-139.03 244.45,-144.3 245.73,-137.41"/>
</g>
<!-- Node5 -->
<g id="node5" class="node">
<title>Node5</title>
<g id="a_node5"><a xlink:href="classMGSmoother.html" target="_top" xlink:title=" ">
<polygon fill="white" stroke="black" points="304,-120 304,-139 446,-139 446,-120 304,-120"/>
<text text-anchor="middle" x="375" y="-127" font-family="Helvetica,sans-Serif" font-size="10.00">MGSmoother&lt; VectorType &gt;</text>
</a>
</g>
</g>
<!-- Node1&#45;&gt;Node5 -->
<g id="edge4" class="edge">
<title>Node1&#45;&gt;Node5</title>
<path fill="none" stroke="midnightblue" d="M277.17,-129.5C286.12,-129.5 295.11,-129.5 303.81,-129.5"/>
<polygon fill="midnightblue" stroke="midnightblue" points="277.09,-126 267.09,-129.5 277.09,-133 277.09,-126"/>
</g>
<!-- Node9 -->
<g id="node9" class="node">
<title>Node9</title>
<g id="a_node9"><a xlink:href="classMGSmootherIdentity.html" target="_top" xlink:title=" ">
<polygon fill="white" stroke="black" points="321.5,-70.5 321.5,-100.5 428.5,-100.5 428.5,-70.5 321.5,-70.5"/>
<text text-anchor="start" x="329.5" y="-88.5" font-family="Helvetica,sans-Serif" font-size="10.00">MGSmootherIdentity</text>
<text text-anchor="middle" x="375" y="-77.5" font-family="Helvetica,sans-Serif" font-size="10.00">&lt; VectorType &gt;</text>
</a>
</g>
</g>
<!-- Node1&#45;&gt;Node9 -->
<g id="edge9" class="edge">
<title>Node1&#45;&gt;Node9</title>
<path fill="none" stroke="midnightblue" d="M236.56,-117.67C262.84,-111.52 294.92,-104.01 321.48,-97.79"/>
<polygon fill="midnightblue" stroke="midnightblue" points="235.73,-114.27 226.79,-119.95 237.33,-121.08 235.73,-114.27"/>
</g>
<!-- Node2 -->
<g id="node2" class="node">
<title>Node2</title>
<g id="a_node2"><a xlink:href="classSubscriptor.html" target="_top" xlink:title=" ">
<polygon fill="white" stroke="black" points="0,-120 0,-139 66,-139 66,-120 0,-120"/>
<text text-anchor="middle" x="33" y="-127" font-family="Helvetica,sans-Serif" font-size="10.00">Subscriptor</text>
</a>
</g>
</g>
<!-- Node2&#45;&gt;Node1 -->
<g id="edge1" class="edge">
<title>Node2&#45;&gt;Node1</title>
<path fill="none" stroke="midnightblue" d="M76.36,-129.5C84.71,-129.5 93.73,-129.5 102.88,-129.5"/>
<polygon fill="midnightblue" stroke="midnightblue" points="76.18,-126 66.18,-129.5 76.18,-133 76.18,-126"/>
</g>
<!-- Node4 -->
<g id="node4" class="node">
<title>Node4</title>
<g id="a_node4"><a xlink:href="classMGSmootherBlock.html" target="_top" xlink:title=" ">
<polygon fill="white" stroke="black" points="802,-172.5 802,-202.5 961,-202.5 961,-172.5 802,-172.5"/>
<text text-anchor="start" x="810" y="-190.5" font-family="Helvetica,sans-Serif" font-size="10.00">MGSmootherBlock&lt; MatrixType,</text>
<text text-anchor="middle" x="881.5" y="-179.5" font-family="Helvetica,sans-Serif" font-size="10.00"> RelaxationType, number &gt;</text>
</a>
</g>
</g>
<!-- Node3&#45;&gt;Node4 -->
<g id="edge3" class="edge">
<title>Node3&#45;&gt;Node4</title>
<path fill="none" stroke="midnightblue" d="M764.82,-187.5C777.04,-187.5 789.68,-187.5 801.92,-187.5"/>
<polygon fill="midnightblue" stroke="midnightblue" points="764.68,-184 754.68,-187.5 764.68,-191 764.68,-184"/>
</g>
<!-- Node5&#45;&gt;Node3 -->
<g id="edge8" class="edge">
<title>Node5&#45;&gt;Node3</title>
<path fill="none" stroke="orange" stroke-dasharray="5,2" d="M455.35,-140.5C495.55,-146.49 545.03,-154.51 589,-163.5 601.79,-166.11 615.45,-169.29 628.33,-172.47"/>
<polygon fill="orange" stroke="orange" points="455.75,-137.02 445.34,-139.02 454.72,-143.94 455.75,-137.02"/>
<text text-anchor="middle" x="526.5" y="-166.5" font-family="Helvetica,sans-Serif" font-size="10.00"> &lt; BlockVector&lt; number &gt; &gt;</text>
</g>
<!-- Node6 -->
<g id="node6" class="node">
<title>Node6</title>
<g id="a_node6"><a xlink:href="classMGSmootherPrecondition.html" target="_top" xlink:title=" ">
<polygon fill="white" stroke="black" points="615,-110 615,-151 757,-151 757,-110 615,-110"/>
<text text-anchor="start" x="623" y="-139" font-family="Helvetica,sans-Serif" font-size="10.00">MGSmootherPrecondition</text>
<text text-anchor="start" x="623" y="-128" font-family="Helvetica,sans-Serif" font-size="10.00">&lt; MatrixType, Preconditioner</text>
<text text-anchor="middle" x="686" y="-117" font-family="Helvetica,sans-Serif" font-size="10.00">Type, VectorType &gt;</text>
</a>
</g>
</g>
<!-- Node5&#45;&gt;Node6 -->
<g id="edge5" class="edge">
<title>Node5&#45;&gt;Node6</title>
<path fill="none" stroke="midnightblue" d="M456.39,-129.76C505.53,-129.92 567.77,-130.12 614.89,-130.27"/>
<polygon fill="midnightblue" stroke="midnightblue" points="456.13,-126.26 446.12,-129.73 456.11,-133.26 456.13,-126.26"/>
</g>
<!-- Node7 -->
<g id="node7" class="node">
<title>Node7</title>
<g id="a_node7"><a xlink:href="classMGSmootherRelaxation.html" target="_top" xlink:title=" ">
<polygon fill="white" stroke="black" points="611,-50 611,-91 761,-91 761,-50 611,-50"/>
<text text-anchor="start" x="619" y="-79" font-family="Helvetica,sans-Serif" font-size="10.00">MGSmootherRelaxation</text>
<text text-anchor="start" x="619" y="-68" font-family="Helvetica,sans-Serif" font-size="10.00">&lt; MatrixType, RelaxationType,</text>
<text text-anchor="middle" x="686" y="-57" font-family="Helvetica,sans-Serif" font-size="10.00"> VectorType &gt;</text>
</a>
</g>
</g>
<!-- Node5&#45;&gt;Node7 -->
<g id="edge6" class="edge">
<title>Node5&#45;&gt;Node7</title>
<path fill="none" stroke="midnightblue" d="M436,-118.04C485.95,-108.51 557.31,-94.88 610.84,-84.66"/>
<polygon fill="midnightblue" stroke="midnightblue" points="435.16,-114.64 425.99,-119.96 436.47,-121.52 435.16,-114.64"/>
</g>
<!-- Node8 -->
<g id="node8" class="node">
<title>Node8</title>
<g id="a_node8"><a xlink:href="classmg_1_1SmootherRelaxation.html" target="_top" xlink:title=" ">
<polygon fill="white" stroke="black" points="607,-0.5 607,-30.5 765,-30.5 765,-0.5 607,-0.5"/>
<text text-anchor="start" x="615" y="-18.5" font-family="Helvetica,sans-Serif" font-size="10.00">mg::SmootherRelaxation</text>
<text text-anchor="middle" x="686" y="-7.5" font-family="Helvetica,sans-Serif" font-size="10.00">&lt; RelaxationType, VectorType &gt;</text>
</a>
</g>
</g>
<!-- Node5&#45;&gt;Node8 -->
<g id="edge7" class="edge">
<title>Node5&#45;&gt;Node8</title>
<path fill="none" stroke="midnightblue" d="M433.93,-116.18C438.16,-114.24 442.24,-112.03 446,-109.5 456.77,-102.25 453.35,-93.93 464,-86.5 518.76,-48.31 543.43,-60.91 607,-40.5 617.02,-37.28 627.76,-33.84 637.98,-30.56"/>
<polygon fill="midnightblue" stroke="midnightblue" points="432.44,-113.01 424.47,-119.99 435.06,-119.5 432.44,-113.01"/>
</g>
</g>
</svg>
