<?xml version="1.0" encoding="UTF-8" standalone="no"?>
<!DOCTYPE svg PUBLIC "-//W3C//DTD SVG 1.1//EN"
 "http://www.w3.org/Graphics/SVG/1.1/DTD/svg11.dtd">
<!-- Generated by graphviz version 2.47.1 (20210417.1919)
 -->
<!-- Title: Vector&lt; Number &gt; Pages: 1 -->
<svg width="279pt" height="174pt"
 viewBox="0.00 0.00 279.00 174.00" xmlns="http://www.w3.org/2000/svg" xmlns:xlink="http://www.w3.org/1999/xlink">
<g id="graph0" class="graph" transform="scale(1 1) rotate(0) translate(4 170)">
<title>Vector&lt; Number &gt;</title>
<polygon fill="white" stroke="transparent" points="-4,4 -4,-170 275,-170 275,4 -4,4"/>
<!-- Node1 -->
<g id="node1" class="node">
<title>Node1</title>
<g id="a_node1"><a xlink:title=" ">
<polygon fill="#bfbfbf" stroke="black" points="66,-89.5 66,-108.5 164,-108.5 164,-89.5 66,-89.5"/>
<text text-anchor="middle" x="115" y="-96.5" font-family="Helvetica,sans-Serif" font-size="10.00">Vector&lt; Number &gt;</text>
</a>
</g>
</g>
<!-- Node3 -->
<g id="node3" class="node">
<title>Node3</title>
<g id="a_node3"><a xlink:href="classVector.html" target="_top" xlink:title=" ">
<polygon fill="white" stroke="black" points="0,-6 0,-25 92,-25 92,-6 0,-6"/>
<text text-anchor="middle" x="46" y="-13" font-family="Helvetica,sans-Serif" font-size="10.00">Vector&lt; double &gt;</text>
</a>
</g>
</g>
<!-- Node1&#45;&gt;Node3 -->
<g id="edge2" class="edge">
<title>Node1&#45;&gt;Node3</title>
<path fill="none" stroke="orange" stroke-dasharray="5,2" d="M100.84,-81.27C86.41,-64.23 64.61,-38.48 53.33,-25.16"/>
<polygon fill="orange" stroke="orange" points="98.48,-83.91 107.62,-89.28 103.83,-79.38 98.48,-83.91"/>
<text text-anchor="middle" x="116" y="-57.5" font-family="Helvetica,sans-Serif" font-size="10.00"> &lt; double &gt;</text>
</g>
<!-- Node4 -->
<g id="node4" class="node">
<title>Node4</title>
<g id="a_node4"><a xlink:href="classVector.html" target="_top" xlink:title=" ">
<polygon fill="white" stroke="black" points="110.5,-0.5 110.5,-30.5 259.5,-30.5 259.5,-0.5 110.5,-0.5"/>
<text text-anchor="start" x="118.5" y="-18.5" font-family="Helvetica,sans-Serif" font-size="10.00">Vector&lt; typename VectorType</text>
<text text-anchor="middle" x="185" y="-7.5" font-family="Helvetica,sans-Serif" font-size="10.00">::value_type &gt;</text>
</a>
</g>
</g>
<!-- Node1&#45;&gt;Node4 -->
<g id="edge3" class="edge">
<title>Node1&#45;&gt;Node4</title>
<path fill="none" stroke="orange" stroke-dasharray="5,2" d="M133.02,-82.87C137.11,-79.14 141.33,-75.05 145,-71 156.66,-58.12 168.2,-41.92 175.87,-30.54"/>
<polygon fill="orange" stroke="orange" points="130.69,-80.26 125.49,-89.49 135.31,-85.52 130.69,-80.26"/>
<text text-anchor="start" x="163" y="-63" font-family="Helvetica,sans-Serif" font-size="10.00"> &lt; typename VectorType</text>
<text text-anchor="middle" x="217" y="-52" font-family="Helvetica,sans-Serif" font-size="10.00">::value_type &gt;</text>
</g>
<!-- Node2 -->
<g id="node2" class="node">
<title>Node2</title>
<g id="a_node2"><a xlink:href="classSubscriptor.html" target="_top" xlink:title=" ">
<polygon fill="white" stroke="black" points="82,-146.5 82,-165.5 148,-165.5 148,-146.5 82,-146.5"/>
<text text-anchor="middle" x="115" y="-153.5" font-family="Helvetica,sans-Serif" font-size="10.00">Subscriptor</text>
</a>
</g>
</g>
<!-- Node2&#45;&gt;Node1 -->
<g id="edge1" class="edge">
<title>Node2&#45;&gt;Node1</title>
<path fill="none" stroke="midnightblue" d="M115,-136.12C115,-126.82 115,-116.06 115,-108.71"/>
<polygon fill="midnightblue" stroke="midnightblue" points="111.5,-136.41 115,-146.41 118.5,-136.41 111.5,-136.41"/>
</g>
</g>
</svg>
