<?xml version="1.0" encoding="UTF-8" standalone="no"?>
<!DOCTYPE svg PUBLIC "-//W3C//DTD SVG 1.1//EN"
 "http://www.w3.org/Graphics/SVG/1.1/DTD/svg11.dtd">
<!-- Generated by graphviz version 2.47.1 (20210417.1919)
 -->
<!-- Title: Utilities::MPI::ConsensusAlgorithmsProcessTargets Pages: 1 -->
<svg width="195pt" height="207pt"
 viewBox="0.00 0.00 194.50 207.00" xmlns="http://www.w3.org/2000/svg" xmlns:xlink="http://www.w3.org/1999/xlink">
<g id="graph0" class="graph" transform="scale(1 1) rotate(0) translate(4 203)">
<title>Utilities::MPI::ConsensusAlgorithmsProcessTargets</title>
<polygon fill="white" stroke="transparent" points="-4,4 -4,-203 190.5,-203 190.5,4 -4,4"/>
<!-- Node1 -->
<g id="node1" class="node">
<title>Node1</title>
<g id="a_node1"><a xlink:title=" ">
<polygon fill="#bfbfbf" stroke="black" points="11,-0.5 11,-30.5 142,-30.5 142,-0.5 11,-0.5"/>
<text text-anchor="start" x="19" y="-18.5" font-family="Helvetica,sans-Serif" font-size="10.00">Utilities::MPI::Consensus</text>
<text text-anchor="middle" x="76.5" y="-7.5" font-family="Helvetica,sans-Serif" font-size="10.00">AlgorithmsProcessTargets</text>
</a>
</g>
</g>
<!-- Node2 -->
<g id="node2" class="node">
<title>Node2</title>
<g id="a_node2"><a xlink:href="classUtilities_1_1MPI_1_1ConsensusAlgorithms_1_1Process.html" target="_top" xlink:title=" ">
<polygon fill="white" stroke="black" points="0,-68.5 0,-109.5 153,-109.5 153,-68.5 0,-68.5"/>
<text text-anchor="start" x="8" y="-97.5" font-family="Helvetica,sans-Serif" font-size="10.00">Utilities::MPI::Consensus</text>
<text text-anchor="start" x="8" y="-86.5" font-family="Helvetica,sans-Serif" font-size="10.00">Algorithms::Process&lt; unsigned</text>
<text text-anchor="middle" x="76.5" y="-75.5" font-family="Helvetica,sans-Serif" font-size="10.00"> int, unsigned int &gt;</text>
</a>
</g>
</g>
<!-- Node2&#45;&gt;Node1 -->
<g id="edge1" class="edge">
<title>Node2&#45;&gt;Node1</title>
<path fill="none" stroke="midnightblue" d="M76.5,-58.16C76.5,-48.69 76.5,-38.65 76.5,-30.8"/>
<polygon fill="midnightblue" stroke="midnightblue" points="73,-58.46 76.5,-68.46 80,-58.46 73,-58.46"/>
</g>
<!-- Node3 -->
<g id="node3" class="node">
<title>Node3</title>
<g id="a_node3"><a xlink:href="classUtilities_1_1MPI_1_1ConsensusAlgorithms_1_1Process.html" target="_top" xlink:title=" ">
<polygon fill="white" stroke="black" points="0.5,-168.5 0.5,-198.5 152.5,-198.5 152.5,-168.5 0.5,-168.5"/>
<text text-anchor="start" x="8.5" y="-186.5" font-family="Helvetica,sans-Serif" font-size="10.00">Utilities::MPI::Consensus</text>
<text text-anchor="middle" x="76.5" y="-175.5" font-family="Helvetica,sans-Serif" font-size="10.00">Algorithms::Process&lt; T1, T2 &gt;</text>
</a>
</g>
</g>
<!-- Node3&#45;&gt;Node2 -->
<g id="edge2" class="edge">
<title>Node3&#45;&gt;Node2</title>
<path fill="none" stroke="orange" stroke-dasharray="5,2" d="M76.5,-158.28C76.5,-143.14 76.5,-123.88 76.5,-109.68"/>
<polygon fill="orange" stroke="orange" points="73,-158.45 76.5,-168.45 80,-158.45 73,-158.45"/>
<text text-anchor="start" x="76.5" y="-142" font-family="Helvetica,sans-Serif" font-size="10.00"> &lt; unsigned int, unsigned</text>
<text text-anchor="middle" x="131.5" y="-131" font-family="Helvetica,sans-Serif" font-size="10.00"> int &gt;</text>
</g>
</g>
</svg>
