<?xml version="1.0" encoding="UTF-8" standalone="no"?>
<!DOCTYPE svg PUBLIC "-//W3C//DTD SVG 1.1//EN"
 "http://www.w3.org/Graphics/SVG/1.1/DTD/svg11.dtd">
<!-- Generated by graphviz version 2.47.1 (20210417.1919)
 -->
<!-- Title: FEEvaluation&lt; dim, fe_degree, n_q_points_1d, n_components_, Number, VectorizedArrayType &gt; Pages: 1 -->
<svg width="1626pt" height="97pt"
 viewBox="0.00 0.00 1626.00 97.44" xmlns="http://www.w3.org/2000/svg" xmlns:xlink="http://www.w3.org/1999/xlink">
<g id="graph0" class="graph" transform="scale(1 1) rotate(0) translate(4 93.44)">
<title>FEEvaluation&lt; dim, fe_degree, n_q_points_1d, n_components_, Number, VectorizedArrayType &gt;</title>
<polygon fill="white" stroke="transparent" points="-4,4 -4,-93.44 1622,-93.44 1622,4 -4,4"/>
<!-- Node1 -->
<g id="node1" class="node">
<title>Node1</title>
<g id="a_node1"><a xlink:title=" ">
<polygon fill="#bfbfbf" stroke="black" points="1468,-33 1468,-85 1618,-85 1618,-33 1468,-33"/>
<text text-anchor="start" x="1476" y="-73" font-family="Helvetica,sans-Serif" font-size="10.00">FEEvaluation&lt; dim,</text>
<text text-anchor="start" x="1476" y="-62" font-family="Helvetica,sans-Serif" font-size="10.00"> fe_degree, n_q_points</text>
<text text-anchor="start" x="1476" y="-51" font-family="Helvetica,sans-Serif" font-size="10.00">_1d, n_components_, Number,</text>
<text text-anchor="middle" x="1543" y="-40" font-family="Helvetica,sans-Serif" font-size="10.00"> VectorizedArrayType &gt;</text>
</a>
</g>
</g>
<!-- Node2 -->
<g id="node2" class="node">
<title>Node2</title>
<g id="a_node2"><a xlink:href="classFEEvaluationAccess.html" target="_top" xlink:title=" ">
<polygon fill="white" stroke="black" points="1290,-33 1290,-85 1431,-85 1431,-33 1290,-33"/>
<text text-anchor="start" x="1298" y="-73" font-family="Helvetica,sans-Serif" font-size="10.00">FEEvaluationAccess</text>
<text text-anchor="start" x="1298" y="-62" font-family="Helvetica,sans-Serif" font-size="10.00">&lt; dim, n_components</text>
<text text-anchor="start" x="1298" y="-51" font-family="Helvetica,sans-Serif" font-size="10.00">_, Number, false, Vectorized</text>
<text text-anchor="middle" x="1360.5" y="-40" font-family="Helvetica,sans-Serif" font-size="10.00">ArrayType &gt;</text>
</a>
</g>
</g>
<!-- Node2&#45;&gt;Node1 -->
<g id="edge1" class="edge">
<title>Node2&#45;&gt;Node1</title>
<path fill="none" stroke="midnightblue" d="M1441.27,-59C1450.06,-59 1458.99,-59 1467.72,-59"/>
<polygon fill="midnightblue" stroke="midnightblue" points="1441.03,-55.5 1431.03,-59 1441.03,-62.5 1441.03,-55.5"/>
</g>
<!-- Node3 -->
<g id="node3" class="node">
<title>Node3</title>
<g id="a_node3"><a xlink:href="classFEEvaluationBase.html" target="_top" xlink:title=" ">
<polygon fill="white" stroke="black" points="481,-33.5 481,-74.5 638,-74.5 638,-33.5 481,-33.5"/>
<text text-anchor="start" x="489" y="-62.5" font-family="Helvetica,sans-Serif" font-size="10.00">FEEvaluationBase&lt; dim,</text>
<text text-anchor="start" x="489" y="-51.5" font-family="Helvetica,sans-Serif" font-size="10.00"> n_components_, Number,</text>
<text text-anchor="middle" x="559.5" y="-40.5" font-family="Helvetica,sans-Serif" font-size="10.00"> is_face, VectorizedArrayType &gt;</text>
</a>
</g>
</g>
<!-- Node3&#45;&gt;Node2 -->
<g id="edge2" class="edge">
<title>Node3&#45;&gt;Node2</title>
<path fill="none" stroke="midnightblue" d="M648.31,-71.19C650.9,-71.49 653.46,-71.76 656,-72 928.59,-97.47 998.97,-92.17 1272,-72 1277.82,-71.57 1283.84,-70.98 1289.87,-70.29"/>
<polygon fill="midnightblue" stroke="midnightblue" points="648.61,-67.7 638.25,-69.89 647.72,-74.64 648.61,-67.7"/>
</g>
<!-- Node7 -->
<g id="node7" class="node">
<title>Node7</title>
<g id="a_node7"><a xlink:href="classFEEvaluationBase.html" target="_top" xlink:title=" ">
<polygon fill="white" stroke="black" points="809,-5 809,-57 940,-57 940,-5 809,-5"/>
<text text-anchor="start" x="817" y="-45" font-family="Helvetica,sans-Serif" font-size="10.00">FEEvaluationBase&lt; dim,</text>
<text text-anchor="start" x="817" y="-34" font-family="Helvetica,sans-Serif" font-size="10.00"> n_components_, Number,</text>
<text text-anchor="start" x="817" y="-23" font-family="Helvetica,sans-Serif" font-size="10.00"> is_face, VectorizedArray</text>
<text text-anchor="middle" x="874.5" y="-12" font-family="Helvetica,sans-Serif" font-size="10.00">&lt; Number &gt; &gt;</text>
</a>
</g>
</g>
<!-- Node3&#45;&gt;Node7 -->
<g id="edge8" class="edge">
<title>Node3&#45;&gt;Node7</title>
<path fill="none" stroke="orange" stroke-dasharray="5,2" d="M648.23,-39.81C650.85,-39.52 653.44,-39.25 656,-39 707.15,-34.06 765.34,-32.11 808.65,-31.37"/>
<polygon fill="orange" stroke="orange" points="647.57,-36.36 638.06,-41.03 648.41,-43.31 647.57,-36.36"/>
<text text-anchor="start" x="656" y="-64" font-family="Helvetica,sans-Serif" font-size="10.00"> &lt; dim, n_components</text>
<text text-anchor="start" x="656" y="-53" font-family="Helvetica,sans-Serif" font-size="10.00">_, Number, is_face,</text>
<text text-anchor="middle" x="723.5" y="-42" font-family="Helvetica,sans-Serif" font-size="10.00"> VectorizedArray&lt; Number &gt; &gt;</text>
</g>
<!-- Node4 -->
<g id="node4" class="node">
<title>Node4</title>
<g id="a_node4"><a xlink:href="classFEEvaluationBaseData.html" target="_top" xlink:title=" ">
<polygon fill="white" stroke="black" points="293,-33.5 293,-74.5 444,-74.5 444,-33.5 293,-33.5"/>
<text text-anchor="start" x="301" y="-62.5" font-family="Helvetica,sans-Serif" font-size="10.00">FEEvaluationBaseData</text>
<text text-anchor="start" x="301" y="-51.5" font-family="Helvetica,sans-Serif" font-size="10.00">&lt; dim, Number, false,</text>
<text text-anchor="middle" x="368.5" y="-40.5" font-family="Helvetica,sans-Serif" font-size="10.00"> VectorizedArray&lt; Number &gt; &gt;</text>
</a>
</g>
</g>
<!-- Node4&#45;&gt;Node3 -->
<g id="edge3" class="edge">
<title>Node4&#45;&gt;Node3</title>
<path fill="none" stroke="midnightblue" d="M454.47,-54C463.28,-54 472.21,-54 480.93,-54"/>
<polygon fill="midnightblue" stroke="midnightblue" points="454.2,-50.5 444.2,-54 454.2,-57.5 454.2,-50.5"/>
</g>
<!-- Node5 -->
<g id="node5" class="node">
<title>Node5</title>
<g id="a_node5"><a xlink:href="classFEEvaluationBaseData.html" target="_top" xlink:title=" ">
<polygon fill="white" stroke="black" points="0,-0.5 0,-41.5 122,-41.5 122,-0.5 0,-0.5"/>
<text text-anchor="start" x="8" y="-29.5" font-family="Helvetica,sans-Serif" font-size="10.00">FEEvaluationBaseData</text>
<text text-anchor="start" x="8" y="-18.5" font-family="Helvetica,sans-Serif" font-size="10.00">&lt; dim, Number, is_face,</text>
<text text-anchor="middle" x="61" y="-7.5" font-family="Helvetica,sans-Serif" font-size="10.00"> VectorizedArrayType &gt;</text>
</a>
</g>
</g>
<!-- Node5&#45;&gt;Node4 -->
<g id="edge4" class="edge">
<title>Node5&#45;&gt;Node4</title>
<path fill="none" stroke="orange" stroke-dasharray="5,2" d="M132.37,-28.6C180.43,-33.79 244.01,-40.66 292.94,-45.95"/>
<polygon fill="orange" stroke="orange" points="132.68,-25.11 122.36,-27.52 131.92,-32.07 132.68,-25.11"/>
<text text-anchor="start" x="140" y="-58" font-family="Helvetica,sans-Serif" font-size="10.00"> &lt; dim, Number, false,</text>
<text text-anchor="middle" x="207.5" y="-47" font-family="Helvetica,sans-Serif" font-size="10.00"> VectorizedArray&lt; Number &gt; &gt;</text>
</g>
<!-- Node5&#45;&gt;Node7 -->
<g id="edge7" class="edge">
<title>Node5&#45;&gt;Node7</title>
<path fill="none" stroke="midnightblue" d="M132.29,-20.89C240.8,-20.83 455.65,-21.14 638,-24 695.77,-24.91 761.48,-26.94 808.79,-28.59"/>
<polygon fill="midnightblue" stroke="midnightblue" points="132.12,-17.39 122.12,-20.9 132.13,-24.39 132.12,-17.39"/>
</g>
<!-- Node6 -->
<g id="node6" class="node">
<title>Node6</title>
<g id="a_node6"><a xlink:href="classFEEvaluationAccess.html" target="_top" xlink:title=" ">
<polygon fill="white" stroke="black" points="977,-5 977,-57 1129,-57 1129,-5 977,-5"/>
<text text-anchor="start" x="985" y="-45" font-family="Helvetica,sans-Serif" font-size="10.00">FEEvaluationAccess</text>
<text text-anchor="start" x="985" y="-34" font-family="Helvetica,sans-Serif" font-size="10.00">&lt; dim, n_components</text>
<text text-anchor="start" x="985" y="-23" font-family="Helvetica,sans-Serif" font-size="10.00">_, Number, is_face, Vectorized</text>
<text text-anchor="middle" x="1053" y="-12" font-family="Helvetica,sans-Serif" font-size="10.00">ArrayType &gt;</text>
</a>
</g>
</g>
<!-- Node6&#45;&gt;Node2 -->
<g id="edge5" class="edge">
<title>Node6&#45;&gt;Node2</title>
<path fill="none" stroke="orange" stroke-dasharray="5,2" d="M1139.28,-30.43C1179.66,-31.1 1228.47,-33.28 1272,-39 1277.87,-39.77 1283.93,-40.75 1289.98,-41.87"/>
<polygon fill="orange" stroke="orange" points="1139.25,-26.92 1129.2,-30.29 1139.15,-33.92 1139.25,-26.92"/>
<text text-anchor="start" x="1147" y="-64" font-family="Helvetica,sans-Serif" font-size="10.00"> &lt; dim, n_components</text>
<text text-anchor="start" x="1147" y="-53" font-family="Helvetica,sans-Serif" font-size="10.00">_, Number, false, Vectorized</text>
<text text-anchor="middle" x="1209.5" y="-42" font-family="Helvetica,sans-Serif" font-size="10.00">ArrayType &gt;</text>
</g>
<!-- Node7&#45;&gt;Node6 -->
<g id="edge6" class="edge">
<title>Node7&#45;&gt;Node6</title>
<path fill="none" stroke="midnightblue" d="M950.39,-31C959.14,-31 968.07,-31 976.83,-31"/>
<polygon fill="midnightblue" stroke="midnightblue" points="950.22,-27.5 940.22,-31 950.22,-34.5 950.22,-27.5"/>
</g>
</g>
</svg>
