<?xml version="1.0" encoding="UTF-8" standalone="no"?>
<!DOCTYPE svg PUBLIC "-//W3C//DTD SVG 1.1//EN"
 "http://www.w3.org/Graphics/SVG/1.1/DTD/svg11.dtd">
<!-- Generated by graphviz version 2.47.1 (20210417.1919)
 -->
<!-- Title: TrilinosWrappers::SparseMatrixIterators::Accessor&lt; Constess &gt; Pages: 1 -->
<svg width="157pt" height="207pt"
 viewBox="0.00 0.00 157.00 207.00" xmlns="http://www.w3.org/2000/svg" xmlns:xlink="http://www.w3.org/1999/xlink">
<g id="graph0" class="graph" transform="scale(1 1) rotate(0) translate(4 203)">
<title>TrilinosWrappers::SparseMatrixIterators::Accessor&lt; Constess &gt;</title>
<polygon fill="white" stroke="transparent" points="-4,4 -4,-203 153,-203 153,4 -4,4"/>
<!-- Node1 -->
<g id="node1" class="node">
<title>Node1</title>
<g id="a_node1"><a xlink:title=" ">
<polygon fill="#bfbfbf" stroke="black" points="11,-89.5 11,-130.5 138,-130.5 138,-89.5 11,-89.5"/>
<text text-anchor="start" x="19" y="-118.5" font-family="Helvetica,sans-Serif" font-size="10.00">TrilinosWrappers::Sparse</text>
<text text-anchor="start" x="19" y="-107.5" font-family="Helvetica,sans-Serif" font-size="10.00">MatrixIterators::Accessor</text>
<text text-anchor="middle" x="74.5" y="-96.5" font-family="Helvetica,sans-Serif" font-size="10.00">&lt; Constess &gt;</text>
</a>
</g>
</g>
<!-- Node3 -->
<g id="node3" class="node">
<title>Node3</title>
<g id="a_node3"><a xlink:href="classTrilinosWrappers_1_1SparseMatrixIterators_1_1Accessor.html" target="_top" xlink:title=" ">
<polygon fill="white" stroke="black" points="11,-0.5 11,-41.5 138,-41.5 138,-0.5 11,-0.5"/>
<text text-anchor="start" x="19" y="-29.5" font-family="Helvetica,sans-Serif" font-size="10.00">TrilinosWrappers::Sparse</text>
<text text-anchor="start" x="19" y="-18.5" font-family="Helvetica,sans-Serif" font-size="10.00">MatrixIterators::Accessor</text>
<text text-anchor="middle" x="74.5" y="-7.5" font-family="Helvetica,sans-Serif" font-size="10.00">&lt; Constness &gt;</text>
</a>
</g>
</g>
<!-- Node1&#45;&gt;Node3 -->
<g id="edge2" class="edge">
<title>Node1&#45;&gt;Node3</title>
<path fill="none" stroke="orange" stroke-dasharray="5,2" d="M74.5,-78.94C74.5,-66.6 74.5,-52.66 74.5,-41.66"/>
<polygon fill="orange" stroke="orange" points="71,-79.26 74.5,-89.26 78,-79.26 71,-79.26"/>
<text text-anchor="middle" x="109" y="-63" font-family="Helvetica,sans-Serif" font-size="10.00"> &lt; Constness &gt;</text>
</g>
<!-- Node2 -->
<g id="node2" class="node">
<title>Node2</title>
<g id="a_node2"><a xlink:href="classTrilinosWrappers_1_1SparseMatrixIterators_1_1AccessorBase.html" target="_top" xlink:title=" ">
<polygon fill="white" stroke="black" points="0,-168.5 0,-198.5 149,-198.5 149,-168.5 0,-168.5"/>
<text text-anchor="start" x="8" y="-186.5" font-family="Helvetica,sans-Serif" font-size="10.00">TrilinosWrappers::Sparse</text>
<text text-anchor="middle" x="74.5" y="-175.5" font-family="Helvetica,sans-Serif" font-size="10.00">MatrixIterators::AccessorBase</text>
</a>
</g>
</g>
<!-- Node2&#45;&gt;Node1 -->
<g id="edge1" class="edge">
<title>Node2&#45;&gt;Node1</title>
<path fill="none" stroke="midnightblue" d="M74.5,-158.1C74.5,-149.1 74.5,-139.02 74.5,-130.51"/>
<polygon fill="midnightblue" stroke="midnightblue" points="71,-158.37 74.5,-168.37 78,-158.37 71,-158.37"/>
</g>
</g>
</svg>
