<?xml version="1.0" encoding="UTF-8" standalone="no"?>
<!DOCTYPE svg PUBLIC "-//W3C//DTD SVG 1.1//EN"
 "http://www.w3.org/Graphics/SVG/1.1/DTD/svg11.dtd">
<!-- Generated by graphviz version 2.47.1 (20210417.1919)
 -->
<!-- Title: FE_Nothing&lt; dim, spacedim &gt; Pages: 1 -->
<svg width="224pt" height="309pt"
 viewBox="0.00 0.00 224.00 309.00" xmlns="http://www.w3.org/2000/svg" xmlns:xlink="http://www.w3.org/1999/xlink">
<g id="graph0" class="graph" transform="scale(1 1) rotate(0) translate(4 305)">
<title>FE_Nothing&lt; dim, spacedim &gt;</title>
<polygon fill="white" stroke="transparent" points="-4,4 -4,-305 220,-305 220,4 -4,4"/>
<!-- Node1 -->
<g id="node1" class="node">
<title>Node1</title>
<g id="a_node1"><a xlink:title=" ">
<polygon fill="#bfbfbf" stroke="black" points="23,-67.5 23,-86.5 173,-86.5 173,-67.5 23,-67.5"/>
<text text-anchor="middle" x="98" y="-74.5" font-family="Helvetica,sans-Serif" font-size="10.00">FE_Nothing&lt; dim, spacedim &gt;</text>
</a>
</g>
</g>
<!-- Node6 -->
<g id="node6" class="node">
<title>Node6</title>
<g id="a_node6"><a xlink:href="classFE__Nothing.html" target="_top" xlink:title=" ">
<polygon fill="white" stroke="black" points="36,-0.5 36,-19.5 160,-19.5 160,-0.5 36,-0.5"/>
<text text-anchor="middle" x="98" y="-7.5" font-family="Helvetica,sans-Serif" font-size="10.00">FE_Nothing&lt; dim, dim &gt;</text>
</a>
</g>
</g>
<!-- Node1&#45;&gt;Node6 -->
<g id="edge7" class="edge">
<title>Node1&#45;&gt;Node6</title>
<path fill="none" stroke="orange" stroke-dasharray="5,2" d="M98,-57.04C98,-44.67 98,-29.12 98,-19.63"/>
<polygon fill="orange" stroke="orange" points="94.5,-57.23 98,-67.23 101.5,-57.23 94.5,-57.23"/>
<text text-anchor="middle" x="127.5" y="-41" font-family="Helvetica,sans-Serif" font-size="10.00"> &lt; dim, dim &gt;</text>
</g>
<!-- Node2 -->
<g id="node2" class="node">
<title>Node2</title>
<g id="a_node2"><a xlink:href="classFiniteElement.html" target="_top" xlink:title=" ">
<polygon fill="white" stroke="black" points="46,-124.5 46,-154.5 150,-154.5 150,-124.5 46,-124.5"/>
<text text-anchor="start" x="54" y="-142.5" font-family="Helvetica,sans-Serif" font-size="10.00">FiniteElement&lt; dim,</text>
<text text-anchor="middle" x="98" y="-131.5" font-family="Helvetica,sans-Serif" font-size="10.00"> dim &gt;</text>
</a>
</g>
</g>
<!-- Node2&#45;&gt;Node1 -->
<g id="edge1" class="edge">
<title>Node2&#45;&gt;Node1</title>
<path fill="none" stroke="midnightblue" d="M98,-114.35C98,-104.51 98,-93.78 98,-86.54"/>
<polygon fill="midnightblue" stroke="midnightblue" points="94.5,-114.47 98,-124.47 101.5,-114.47 94.5,-114.47"/>
</g>
<!-- Node3 -->
<g id="node3" class="node">
<title>Node3</title>
<g id="a_node3"><a xlink:href="classSubscriptor.html" target="_top" xlink:title=" ">
<polygon fill="white" stroke="black" points="0,-276 0,-295 66,-295 66,-276 0,-276"/>
<text text-anchor="middle" x="33" y="-283" font-family="Helvetica,sans-Serif" font-size="10.00">Subscriptor</text>
</a>
</g>
</g>
<!-- Node3&#45;&gt;Node2 -->
<g id="edge2" class="edge">
<title>Node3&#45;&gt;Node2</title>
<path fill="none" stroke="midnightblue" d="M30.22,-265.89C28.47,-248.58 27.99,-222.45 37,-202 45.61,-182.46 63.43,-165.67 77.6,-154.6"/>
<polygon fill="midnightblue" stroke="midnightblue" points="26.75,-266.36 31.47,-275.85 33.7,-265.49 26.75,-266.36"/>
</g>
<!-- Node5 -->
<g id="node5" class="node">
<title>Node5</title>
<g id="a_node5"><a xlink:href="classFiniteElement.html" target="_top" xlink:title=" ">
<polygon fill="white" stroke="black" points="46,-202.5 46,-232.5 150,-232.5 150,-202.5 46,-202.5"/>
<text text-anchor="start" x="54" y="-220.5" font-family="Helvetica,sans-Serif" font-size="10.00">FiniteElement&lt; dim,</text>
<text text-anchor="middle" x="98" y="-209.5" font-family="Helvetica,sans-Serif" font-size="10.00"> spacedim &gt;</text>
</a>
</g>
</g>
<!-- Node3&#45;&gt;Node5 -->
<g id="edge5" class="edge">
<title>Node3&#45;&gt;Node5</title>
<path fill="none" stroke="midnightblue" d="M48.64,-268.62C59.42,-257.67 73.63,-243.24 84.03,-232.68"/>
<polygon fill="midnightblue" stroke="midnightblue" points="46.02,-266.29 41.5,-275.87 51.01,-271.2 46.02,-266.29"/>
</g>
<!-- Node4 -->
<g id="node4" class="node">
<title>Node4</title>
<g id="a_node4"><a xlink:href="classFiniteElementData.html" target="_top" xlink:title=" ">
<polygon fill="white" stroke="black" points="112,-270.5 112,-300.5 216,-300.5 216,-270.5 112,-270.5"/>
<text text-anchor="start" x="120" y="-288.5" font-family="Helvetica,sans-Serif" font-size="10.00">FiniteElementData&lt;</text>
<text text-anchor="middle" x="164" y="-277.5" font-family="Helvetica,sans-Serif" font-size="10.00"> dim &gt;</text>
</a>
</g>
</g>
<!-- Node4&#45;&gt;Node2 -->
<g id="edge3" class="edge">
<title>Node4&#45;&gt;Node2</title>
<path fill="none" stroke="midnightblue" d="M170.04,-260.09C174.55,-236.03 177.43,-199.17 161,-173 156.09,-165.18 148.65,-159.16 140.59,-154.54"/>
<polygon fill="midnightblue" stroke="midnightblue" points="166.55,-259.66 167.92,-270.16 173.4,-261.1 166.55,-259.66"/>
</g>
<!-- Node4&#45;&gt;Node5 -->
<g id="edge6" class="edge">
<title>Node4&#45;&gt;Node5</title>
<path fill="none" stroke="midnightblue" d="M142.49,-262.99C132.59,-253.09 121.11,-241.61 112.29,-232.79"/>
<polygon fill="midnightblue" stroke="midnightblue" points="140.13,-265.58 149.68,-270.18 145.08,-260.63 140.13,-265.58"/>
</g>
<!-- Node5&#45;&gt;Node2 -->
<g id="edge4" class="edge">
<title>Node5&#45;&gt;Node2</title>
<path fill="none" stroke="orange" stroke-dasharray="5,2" d="M98,-192.09C98,-179.76 98,-165.22 98,-154.73"/>
<polygon fill="orange" stroke="orange" points="94.5,-192.2 98,-202.2 101.5,-192.21 94.5,-192.2"/>
<text text-anchor="middle" x="127.5" y="-176" font-family="Helvetica,sans-Serif" font-size="10.00"> &lt; dim, dim &gt;</text>
</g>
</g>
</svg>
