<?xml version="1.0" encoding="UTF-8" standalone="no"?>
<!DOCTYPE svg PUBLIC "-//W3C//DTD SVG 1.1//EN"
 "http://www.w3.org/Graphics/SVG/1.1/DTD/svg11.dtd">
<!-- Generated by graphviz version 2.47.1 (20210417.1919)
 -->
<!-- Title: VectorizedArray&lt; Number, width &gt; Pages: 1 -->
<svg width="175pt" height="274pt"
 viewBox="0.00 0.00 174.50 274.00" xmlns="http://www.w3.org/2000/svg" xmlns:xlink="http://www.w3.org/1999/xlink">
<g id="graph0" class="graph" transform="scale(1 1) rotate(0) translate(4 270)">
<title>VectorizedArray&lt; Number, width &gt;</title>
<polygon fill="white" stroke="transparent" points="-4,4 -4,-270 170.5,-270 170.5,4 -4,4"/>
<!-- Node1 -->
<g id="node1" class="node">
<title>Node1</title>
<g id="a_node1"><a xlink:title=" ">
<polygon fill="#bfbfbf" stroke="black" points="4.5,-67.5 4.5,-97.5 136.5,-97.5 136.5,-67.5 4.5,-67.5"/>
<text text-anchor="start" x="12.5" y="-85.5" font-family="Helvetica,sans-Serif" font-size="10.00">VectorizedArray&lt; Number,</text>
<text text-anchor="middle" x="70.5" y="-74.5" font-family="Helvetica,sans-Serif" font-size="10.00"> width &gt;</text>
</a>
</g>
</g>
<!-- Node4 -->
<g id="node4" class="node">
<title>Node4</title>
<g id="a_node4"><a xlink:href="classVectorizedArray.html" target="_top" xlink:title=" ">
<polygon fill="white" stroke="black" points="1,-0.5 1,-19.5 140,-19.5 140,-0.5 1,-0.5"/>
<text text-anchor="middle" x="70.5" y="-7.5" font-family="Helvetica,sans-Serif" font-size="10.00">VectorizedArray&lt; Number &gt;</text>
</a>
</g>
</g>
<!-- Node1&#45;&gt;Node4 -->
<g id="edge3" class="edge">
<title>Node1&#45;&gt;Node4</title>
<path fill="none" stroke="orange" stroke-dasharray="5,2" d="M70.5,-57.09C70.5,-44.21 70.5,-29.2 70.5,-19.89"/>
<polygon fill="orange" stroke="orange" points="67,-57.23 70.5,-67.23 74,-57.23 67,-57.23"/>
<text text-anchor="middle" x="98.5" y="-41" font-family="Helvetica,sans-Serif" font-size="10.00"> &lt; Number &gt;</text>
</g>
<!-- Node2 -->
<g id="node2" class="node">
<title>Node2</title>
<g id="a_node2"><a xlink:href="classVectorizedArrayBase.html" target="_top" xlink:title=" ">
<polygon fill="white" stroke="black" points="0,-135.5 0,-176.5 141,-176.5 141,-135.5 0,-135.5"/>
<text text-anchor="start" x="8" y="-164.5" font-family="Helvetica,sans-Serif" font-size="10.00">VectorizedArrayBase</text>
<text text-anchor="start" x="8" y="-153.5" font-family="Helvetica,sans-Serif" font-size="10.00">&lt; VectorizedArray&lt; Number,</text>
<text text-anchor="middle" x="70.5" y="-142.5" font-family="Helvetica,sans-Serif" font-size="10.00"> width &gt;, 1 &gt;</text>
</a>
</g>
</g>
<!-- Node2&#45;&gt;Node1 -->
<g id="edge1" class="edge">
<title>Node2&#45;&gt;Node1</title>
<path fill="none" stroke="midnightblue" d="M70.5,-125.16C70.5,-115.69 70.5,-105.65 70.5,-97.8"/>
<polygon fill="midnightblue" stroke="midnightblue" points="67,-125.46 70.5,-135.46 74,-125.46 67,-125.46"/>
</g>
<!-- Node3 -->
<g id="node3" class="node">
<title>Node3</title>
<g id="a_node3"><a xlink:href="classVectorizedArrayBase.html" target="_top" xlink:title=" ">
<polygon fill="white" stroke="black" points="16,-235.5 16,-265.5 125,-265.5 125,-235.5 16,-235.5"/>
<text text-anchor="start" x="24" y="-253.5" font-family="Helvetica,sans-Serif" font-size="10.00">VectorizedArrayBase</text>
<text text-anchor="middle" x="70.5" y="-242.5" font-family="Helvetica,sans-Serif" font-size="10.00">&lt; T, width &gt;</text>
</a>
</g>
</g>
<!-- Node3&#45;&gt;Node2 -->
<g id="edge2" class="edge">
<title>Node3&#45;&gt;Node2</title>
<path fill="none" stroke="orange" stroke-dasharray="5,2" d="M70.5,-225.28C70.5,-210.14 70.5,-190.88 70.5,-176.68"/>
<polygon fill="orange" stroke="orange" points="67,-225.45 70.5,-235.45 74,-225.45 67,-225.45"/>
<text text-anchor="start" x="70.5" y="-209" font-family="Helvetica,sans-Serif" font-size="10.00"> &lt; VectorizedArray&lt;</text>
<text text-anchor="middle" x="118.5" y="-198" font-family="Helvetica,sans-Serif" font-size="10.00"> Number, width &gt;, 1 &gt;</text>
</g>
</g>
</svg>
