<?xml version="1.0" encoding="UTF-8" standalone="no"?>
<!DOCTYPE svg PUBLIC "-//W3C//DTD SVG 1.1//EN"
 "http://www.w3.org/Graphics/SVG/1.1/DTD/svg11.dtd">
<!-- Generated by graphviz version 2.47.1 (20210417.1919)
 -->
<!-- Title: ArborXWrappers::PointPredicate Pages: 1 -->
<svg width="332pt" height="95pt"
 viewBox="0.00 0.00 332.00 95.00" xmlns="http://www.w3.org/2000/svg" xmlns:xlink="http://www.w3.org/1999/xlink">
<g id="graph0" class="graph" transform="scale(1 1) rotate(0) translate(4 91)">
<title>ArborXWrappers::PointPredicate</title>
<polygon fill="white" stroke="transparent" points="-4,4 -4,-91 328,-91 328,4 -4,4"/>
<!-- Node1 -->
<g id="node1" class="node">
<title>Node1</title>
<g id="a_node1"><a xlink:title=" ">
<polygon fill="#bfbfbf" stroke="black" points="83.5,-67.5 83.5,-86.5 241.5,-86.5 241.5,-67.5 83.5,-67.5"/>
<text text-anchor="middle" x="162.5" y="-74.5" font-family="Helvetica,sans-Serif" font-size="10.00">ArborXWrappers::PointPredicate</text>
</a>
</g>
</g>
<!-- Node2 -->
<g id="node2" class="node">
<title>Node2</title>
<g id="a_node2"><a xlink:href="classArborXWrappers_1_1PointIntersectPredicate.html" target="_top" xlink:title=" ">
<polygon fill="white" stroke="black" points="0,-0.5 0,-30.5 155,-30.5 155,-0.5 0,-0.5"/>
<text text-anchor="start" x="8" y="-18.5" font-family="Helvetica,sans-Serif" font-size="10.00">ArborXWrappers::PointIntersect</text>
<text text-anchor="middle" x="77.5" y="-7.5" font-family="Helvetica,sans-Serif" font-size="10.00">Predicate</text>
</a>
</g>
</g>
<!-- Node1&#45;&gt;Node2 -->
<g id="edge1" class="edge">
<title>Node1&#45;&gt;Node2</title>
<path fill="none" stroke="#8b1a1a" d="M142.13,-61.74C128.62,-52.28 110.97,-39.93 97.53,-30.52"/>
<polygon fill="#8b1a1a" stroke="#8b1a1a" points="140.12,-64.61 150.32,-67.48 144.14,-58.87 140.12,-64.61"/>
</g>
<!-- Node3 -->
<g id="node3" class="node">
<title>Node3</title>
<g id="a_node3"><a xlink:href="classArborXWrappers_1_1PointNearestPredicate.html" target="_top" xlink:title=" ">
<polygon fill="white" stroke="black" points="173,-0.5 173,-30.5 324,-30.5 324,-0.5 173,-0.5"/>
<text text-anchor="start" x="181" y="-18.5" font-family="Helvetica,sans-Serif" font-size="10.00">ArborXWrappers::PointNearest</text>
<text text-anchor="middle" x="248.5" y="-7.5" font-family="Helvetica,sans-Serif" font-size="10.00">Predicate</text>
</a>
</g>
</g>
<!-- Node1&#45;&gt;Node3 -->
<g id="edge2" class="edge">
<title>Node1&#45;&gt;Node3</title>
<path fill="none" stroke="#8b1a1a" d="M183.11,-61.74C196.78,-52.28 214.63,-39.93 228.23,-30.52"/>
<polygon fill="#8b1a1a" stroke="#8b1a1a" points="181.05,-58.91 174.82,-67.48 185.04,-64.66 181.05,-58.91"/>
</g>
</g>
</svg>
