<?xml version="1.0" encoding="UTF-8" standalone="no"?>
<!DOCTYPE svg PUBLIC "-//W3C//DTD SVG 1.1//EN"
 "http://www.w3.org/Graphics/SVG/1.1/DTD/svg11.dtd">
<!-- Generated by graphviz version 2.47.1 (20210417.1919)
 -->
<!-- Title: MappingC1&lt; dim, spacedim &gt; Pages: 1 -->
<svg width="259pt" height="333pt"
 viewBox="0.00 0.00 259.50 333.00" xmlns="http://www.w3.org/2000/svg" xmlns:xlink="http://www.w3.org/1999/xlink">
<g id="graph0" class="graph" transform="scale(1 1) rotate(0) translate(4 329)">
<title>MappingC1&lt; dim, spacedim &gt;</title>
<polygon fill="white" stroke="transparent" points="-4,4 -4,-329 255.5,-329 255.5,4 -4,4"/>
<!-- Node1 -->
<g id="node1" class="node">
<title>Node1</title>
<g id="a_node1"><a xlink:title=" ">
<polygon fill="#bfbfbf" stroke="black" points="9.5,-0.5 9.5,-19.5 157.5,-19.5 157.5,-0.5 9.5,-0.5"/>
<text text-anchor="middle" x="83.5" y="-7.5" font-family="Helvetica,sans-Serif" font-size="10.00">MappingC1&lt; dim, spacedim &gt;</text>
</a>
</g>
</g>
<!-- Node2 -->
<g id="node2" class="node">
<title>Node2</title>
<g id="a_node2"><a xlink:href="classMappingQ.html" target="_top" xlink:title=" ">
<polygon fill="white" stroke="black" points="25.5,-57.5 25.5,-76.5 141.5,-76.5 141.5,-57.5 25.5,-57.5"/>
<text text-anchor="middle" x="83.5" y="-64.5" font-family="Helvetica,sans-Serif" font-size="10.00">MappingQ&lt; dim, dim &gt;</text>
</a>
</g>
</g>
<!-- Node2&#45;&gt;Node1 -->
<g id="edge1" class="edge">
<title>Node2&#45;&gt;Node1</title>
<path fill="none" stroke="midnightblue" d="M83.5,-47.12C83.5,-37.82 83.5,-27.06 83.5,-19.71"/>
<polygon fill="midnightblue" stroke="midnightblue" points="80,-47.41 83.5,-57.41 87,-47.41 80,-47.41"/>
</g>
<!-- Node3 -->
<g id="node3" class="node">
<title>Node3</title>
<g id="a_node3"><a xlink:href="classMapping.html" target="_top" xlink:title=" ">
<polygon fill="white" stroke="black" points="0,-248.5 0,-267.5 135,-267.5 135,-248.5 0,-248.5"/>
<text text-anchor="middle" x="67.5" y="-255.5" font-family="Helvetica,sans-Serif" font-size="10.00">Mapping&lt; dim, spacedim &gt;</text>
</a>
</g>
</g>
<!-- Node3&#45;&gt;Node2 -->
<g id="edge2" class="edge">
<title>Node3&#45;&gt;Node2</title>
<path fill="none" stroke="midnightblue" d="M69.07,-238.4C72.46,-198.4 80.33,-105.46 82.77,-76.66"/>
<polygon fill="midnightblue" stroke="midnightblue" points="65.59,-238.13 68.23,-248.39 72.56,-238.72 65.59,-238.13"/>
</g>
<!-- Node3&#45;&gt;Node3 -->
<g id="edge4" class="edge">
<title>Node3&#45;&gt;Node3</title>
<path fill="none" stroke="orange" stroke-dasharray="5,2" d="M145.5,-261.63C150.19,-260.76 153,-259.56 153,-258 153,-255.51 145.8,-253.91 135.23,-253.19"/>
<polygon fill="orange" stroke="orange" points="144.77,-258.19 135.23,-262.81 145.57,-265.14 144.77,-258.19"/>
<text text-anchor="middle" x="195.5" y="-255.5" font-family="Helvetica,sans-Serif" font-size="10.00"> &lt; dim, spacedim &gt;</text>
</g>
<!-- Node6 -->
<g id="node6" class="node">
<title>Node6</title>
<g id="a_node6"><a xlink:href="classMapping.html" target="_top" xlink:title=" ">
<polygon fill="white" stroke="black" points="113,-181.5 113,-200.5 222,-200.5 222,-181.5 113,-181.5"/>
<text text-anchor="middle" x="167.5" y="-188.5" font-family="Helvetica,sans-Serif" font-size="10.00">Mapping&lt; dim, dim &gt;</text>
</a>
</g>
</g>
<!-- Node3&#45;&gt;Node6 -->
<g id="edge8" class="edge">
<title>Node3&#45;&gt;Node6</title>
<path fill="none" stroke="orange" stroke-dasharray="5,2" d="M89.39,-242.77C109.19,-229.9 137.69,-211.38 154.23,-200.63"/>
<polygon fill="orange" stroke="orange" points="87.46,-239.85 80.99,-248.23 91.28,-245.72 87.46,-239.85"/>
<text text-anchor="middle" x="152" y="-222" font-family="Helvetica,sans-Serif" font-size="10.00"> &lt; dim, dim &gt;</text>
</g>
<!-- Node4 -->
<g id="node4" class="node">
<title>Node4</title>
<g id="a_node4"><a xlink:href="classSubscriptor.html" target="_top" xlink:title=" ">
<polygon fill="white" stroke="black" points="133.5,-305.5 133.5,-324.5 199.5,-324.5 199.5,-305.5 133.5,-305.5"/>
<text text-anchor="middle" x="166.5" y="-312.5" font-family="Helvetica,sans-Serif" font-size="10.00">Subscriptor</text>
</a>
</g>
</g>
<!-- Node4&#45;&gt;Node3 -->
<g id="edge3" class="edge">
<title>Node4&#45;&gt;Node3</title>
<path fill="none" stroke="midnightblue" d="M142.26,-300.54C123.73,-290.24 98.73,-276.35 82.86,-267.53"/>
<polygon fill="midnightblue" stroke="midnightblue" points="140.59,-303.61 151.03,-305.41 143.99,-297.49 140.59,-303.61"/>
</g>
<!-- Node4&#45;&gt;Node6 -->
<g id="edge7" class="edge">
<title>Node4&#45;&gt;Node6</title>
<path fill="none" stroke="midnightblue" d="M206.34,-301.37C222.05,-294.22 238.47,-283.51 247.5,-268 264.65,-238.53 219.28,-213.3 190.03,-200.66"/>
<polygon fill="midnightblue" stroke="midnightblue" points="204.61,-298.3 196.73,-305.38 207.3,-304.76 204.61,-298.3"/>
</g>
<!-- Node5 -->
<g id="node5" class="node">
<title>Node5</title>
<g id="a_node5"><a xlink:href="classMappingQ.html" target="_top" xlink:title=" ">
<polygon fill="white" stroke="black" points="96,-124.5 96,-143.5 239,-143.5 239,-124.5 96,-124.5"/>
<text text-anchor="middle" x="167.5" y="-131.5" font-family="Helvetica,sans-Serif" font-size="10.00">MappingQ&lt; dim, spacedim &gt;</text>
</a>
</g>
</g>
<!-- Node5&#45;&gt;Node2 -->
<g id="edge5" class="edge">
<title>Node5&#45;&gt;Node2</title>
<path fill="none" stroke="orange" stroke-dasharray="5,2" d="M148.2,-118.07C131.62,-105.24 108.29,-87.19 94.65,-76.63"/>
<polygon fill="orange" stroke="orange" points="146.12,-120.88 156.17,-124.23 150.4,-115.35 146.12,-120.88"/>
<text text-anchor="middle" x="160" y="-98" font-family="Helvetica,sans-Serif" font-size="10.00"> &lt; dim, dim &gt;</text>
</g>
<!-- Node6&#45;&gt;Node5 -->
<g id="edge6" class="edge">
<title>Node6&#45;&gt;Node5</title>
<path fill="none" stroke="midnightblue" d="M167.5,-171.12C167.5,-161.82 167.5,-151.06 167.5,-143.71"/>
<polygon fill="midnightblue" stroke="midnightblue" points="164,-171.41 167.5,-181.41 171,-171.41 164,-171.41"/>
</g>
</g>
</svg>
