<?xml version="1.0" encoding="UTF-8" standalone="no"?>
<!DOCTYPE svg PUBLIC "-//W3C//DTD SVG 1.1//EN"
 "http://www.w3.org/Graphics/SVG/1.1/DTD/svg11.dtd">
<!-- Generated by graphviz version 2.47.1 (20210417.1919)
 -->
<!-- Title: TransposeTable&lt; T &gt; Pages: 1 -->
<svg width="1255pt" height="100pt"
 viewBox="0.00 0.00 1255.00 100.23" xmlns="http://www.w3.org/2000/svg" xmlns:xlink="http://www.w3.org/1999/xlink">
<g id="graph0" class="graph" transform="scale(1 1) rotate(0) translate(4 96.23)">
<title>TransposeTable&lt; T &gt;</title>
<polygon fill="white" stroke="transparent" points="-4,4 -4,-96.23 1251,-96.23 1251,4 -4,4"/>
<!-- Node1 -->
<g id="node1" class="node">
<title>Node1</title>
<g id="a_node1"><a xlink:title=" ">
<polygon fill="#bfbfbf" stroke="black" points="413,-36.73 413,-55.73 523,-55.73 523,-36.73 413,-36.73"/>
<text text-anchor="middle" x="468" y="-43.73" font-family="Helvetica,sans-Serif" font-size="10.00">TransposeTable&lt; T &gt;</text>
</a>
</g>
</g>
<!-- Node5 -->
<g id="node5" class="node">
<title>Node5</title>
<g id="a_node5"><a xlink:href="classLAPACKFullMatrix.html" target="_top" xlink:title=" ">
<polygon fill="white" stroke="black" points="1100,-72.73 1100,-91.73 1244,-91.73 1244,-72.73 1100,-72.73"/>
<text text-anchor="middle" x="1172" y="-79.73" font-family="Helvetica,sans-Serif" font-size="10.00">LAPACKFullMatrix&lt; double &gt;</text>
</a>
</g>
</g>
<!-- Node1&#45;&gt;Node5 -->
<g id="edge5" class="edge">
<title>Node1&#45;&gt;Node5</title>
<path fill="none" stroke="midnightblue" d="M500.74,-59.4C513.12,-64.08 527.54,-68.99 541,-72.23 582.38,-82.18 593.54,-81.28 636,-84.23 807.6,-96.13 850.99,-88.12 1023,-89.23 1047.89,-89.39 1054.13,-90.17 1079,-89.23 1085.72,-88.97 1092.72,-88.61 1099.71,-88.19"/>
<polygon fill="midnightblue" stroke="midnightblue" points="501.9,-56.09 491.31,-55.73 499.36,-62.62 501.9,-56.09"/>
</g>
<!-- Node6 -->
<g id="node6" class="node">
<title>Node6</title>
<g id="a_node6"><a xlink:href="classLAPACKFullMatrix.html" target="_top" xlink:title=" ">
<polygon fill="white" stroke="black" points="1097,-15.73 1097,-34.73 1247,-34.73 1247,-15.73 1097,-15.73"/>
<text text-anchor="middle" x="1172" y="-22.73" font-family="Helvetica,sans-Serif" font-size="10.00">LAPACKFullMatrix&lt; Number &gt;</text>
</a>
</g>
</g>
<!-- Node1&#45;&gt;Node6 -->
<g id="edge6" class="edge">
<title>Node1&#45;&gt;Node6</title>
<path fill="none" stroke="midnightblue" d="M505.31,-33.44C516.64,-29.77 529.25,-26.01 541,-23.23 582.59,-13.36 593.39,-11.57 636,-8.23 799.5,4.6 841.21,0.14 1005,-8.23 1035.09,-9.76 1068.13,-12.86 1096.75,-15.99"/>
<polygon fill="midnightblue" stroke="midnightblue" points="504.13,-30.14 495.74,-36.61 506.33,-36.79 504.13,-30.14"/>
</g>
<!-- Node7 -->
<g id="node7" class="node">
<title>Node7</title>
<g id="a_node7"><a xlink:href="classTransposeTable.html" target="_top" xlink:title=" ">
<polygon fill="white" stroke="black" points="636,-17.73 636,-36.73 795,-36.73 795,-17.73 636,-17.73"/>
<text text-anchor="middle" x="715.5" y="-24.73" font-family="Helvetica,sans-Serif" font-size="10.00">TransposeTable&lt; NumberType &gt;</text>
</a>
</g>
</g>
<!-- Node1&#45;&gt;Node7 -->
<g id="edge7" class="edge">
<title>Node1&#45;&gt;Node7</title>
<path fill="none" stroke="orange" stroke-dasharray="5,2" d="M518.23,-34.73C525.82,-33.32 533.59,-32.08 541,-31.23 571.83,-27.69 605.94,-26.35 635.7,-26.01"/>
<polygon fill="orange" stroke="orange" points="517.54,-31.3 508.4,-36.67 518.89,-38.17 517.54,-31.3"/>
<text text-anchor="middle" x="579.5" y="-34.23" font-family="Helvetica,sans-Serif" font-size="10.00"> &lt; NumberType &gt;</text>
</g>
<!-- Node9 -->
<g id="node9" class="node">
<title>Node9</title>
<g id="a_node9"><a xlink:href="classTransposeTable.html" target="_top" xlink:title=" ">
<polygon fill="white" stroke="black" points="647.5,-55.73 647.5,-74.73 783.5,-74.73 783.5,-55.73 647.5,-55.73"/>
<text text-anchor="middle" x="715.5" y="-62.73" font-family="Helvetica,sans-Serif" font-size="10.00">TransposeTable&lt; number &gt;</text>
</a>
</g>
</g>
<!-- Node1&#45;&gt;Node9 -->
<g id="edge9" class="edge">
<title>Node1&#45;&gt;Node9</title>
<path fill="none" stroke="orange" stroke-dasharray="5,2" d="M533.31,-51.2C568.4,-53.92 611.79,-57.28 647.31,-60.03"/>
<polygon fill="orange" stroke="orange" points="533.42,-47.7 523.18,-50.42 532.88,-54.68 533.42,-47.7"/>
<text text-anchor="middle" x="579.5" y="-60.23" font-family="Helvetica,sans-Serif" font-size="10.00"> &lt; number &gt;</text>
</g>
<!-- Node2 -->
<g id="node2" class="node">
<title>Node2</title>
<g id="a_node2"><a xlink:href="classTableBase.html" target="_top" xlink:title=" ">
<polygon fill="white" stroke="black" points="278,-36.73 278,-55.73 376,-55.73 376,-36.73 278,-36.73"/>
<text text-anchor="middle" x="327" y="-43.73" font-family="Helvetica,sans-Serif" font-size="10.00">TableBase&lt; 2, T &gt;</text>
</a>
</g>
</g>
<!-- Node2&#45;&gt;Node1 -->
<g id="edge1" class="edge">
<title>Node2&#45;&gt;Node1</title>
<path fill="none" stroke="midnightblue" d="M386.33,-46.23C395.06,-46.23 404.03,-46.23 412.67,-46.23"/>
<polygon fill="midnightblue" stroke="midnightblue" points="386.23,-42.73 376.23,-46.23 386.23,-49.73 386.23,-42.73"/>
</g>
<!-- Node3 -->
<g id="node3" class="node">
<title>Node3</title>
<g id="a_node3"><a xlink:href="classSubscriptor.html" target="_top" xlink:title=" ">
<polygon fill="white" stroke="black" points="0,-33.73 0,-52.73 66,-52.73 66,-33.73 0,-33.73"/>
<text text-anchor="middle" x="33" y="-40.73" font-family="Helvetica,sans-Serif" font-size="10.00">Subscriptor</text>
</a>
</g>
</g>
<!-- Node3&#45;&gt;Node2 -->
<g id="edge2" class="edge">
<title>Node3&#45;&gt;Node2</title>
<path fill="none" stroke="midnightblue" d="M76.29,-47.75C78.9,-47.94 81.48,-48.1 84,-48.23 162.13,-52.12 181.79,-49.41 260,-48.23 265.73,-48.14 271.74,-48.01 277.7,-47.86"/>
<polygon fill="midnightblue" stroke="midnightblue" points="76.49,-44.26 66.24,-46.93 75.92,-51.23 76.49,-44.26"/>
</g>
<!-- Node4 -->
<g id="node4" class="node">
<title>Node4</title>
<g id="a_node4"><a xlink:href="classTableBase.html" target="_top" xlink:title=" ">
<polygon fill="white" stroke="black" points="103,-14.73 103,-33.73 203,-33.73 203,-14.73 103,-14.73"/>
<text text-anchor="middle" x="153" y="-21.73" font-family="Helvetica,sans-Serif" font-size="10.00">TableBase&lt; N, T &gt;</text>
</a>
</g>
</g>
<!-- Node3&#45;&gt;Node4 -->
<g id="edge4" class="edge">
<title>Node3&#45;&gt;Node4</title>
<path fill="none" stroke="midnightblue" d="M76.15,-36.44C84.83,-35.04 94.05,-33.56 102.96,-32.12"/>
<polygon fill="midnightblue" stroke="midnightblue" points="75.56,-32.99 66.24,-38.03 76.67,-39.9 75.56,-32.99"/>
</g>
<!-- Node4&#45;&gt;Node2 -->
<g id="edge3" class="edge">
<title>Node4&#45;&gt;Node2</title>
<path fill="none" stroke="orange" stroke-dasharray="5,2" d="M213.41,-31.37C228.6,-33.24 244.91,-35.27 260,-37.23 265.73,-37.97 271.75,-38.76 277.71,-39.56"/>
<polygon fill="orange" stroke="orange" points="213.45,-27.85 203.1,-30.11 212.6,-34.8 213.45,-27.85"/>
<text text-anchor="middle" x="240.5" y="-40.23" font-family="Helvetica,sans-Serif" font-size="10.00"> &lt; 2, T &gt;</text>
</g>
<!-- Node8 -->
<g id="node8" class="node">
<title>Node8</title>
<g id="a_node8"><a xlink:href="classScaLAPACKMatrix.html" target="_top" xlink:title=" ">
<polygon fill="white" stroke="black" points="832,-17.73 832,-36.73 1005,-36.73 1005,-17.73 832,-17.73"/>
<text text-anchor="middle" x="918.5" y="-24.73" font-family="Helvetica,sans-Serif" font-size="10.00">ScaLAPACKMatrix&lt; NumberType &gt;</text>
</a>
</g>
</g>
<!-- Node7&#45;&gt;Node8 -->
<g id="edge8" class="edge">
<title>Node7&#45;&gt;Node8</title>
<path fill="none" stroke="darkgreen" d="M805.1,-27.23C814.03,-27.23 823.1,-27.23 832,-27.23"/>
<polygon fill="darkgreen" stroke="darkgreen" points="805.08,-23.73 795.08,-27.23 805.08,-30.73 805.08,-23.73"/>
</g>
<!-- Node10 -->
<g id="node10" class="node">
<title>Node10</title>
<g id="a_node10"><a xlink:href="classLAPACKFullMatrix.html" target="_top" xlink:title=" ">
<polygon fill="white" stroke="black" points="844.5,-55.73 844.5,-74.73 992.5,-74.73 992.5,-55.73 844.5,-55.73"/>
<text text-anchor="middle" x="918.5" y="-62.73" font-family="Helvetica,sans-Serif" font-size="10.00">LAPACKFullMatrix&lt; number &gt;</text>
</a>
</g>
</g>
<!-- Node9&#45;&gt;Node10 -->
<g id="edge10" class="edge">
<title>Node9&#45;&gt;Node10</title>
<path fill="none" stroke="midnightblue" d="M793.92,-65.23C810.54,-65.23 828.04,-65.23 844.48,-65.23"/>
<polygon fill="midnightblue" stroke="midnightblue" points="793.71,-61.73 783.71,-65.23 793.71,-68.73 793.71,-61.73"/>
</g>
<!-- Node10&#45;&gt;Node5 -->
<g id="edge11" class="edge">
<title>Node10&#45;&gt;Node5</title>
<path fill="none" stroke="orange" stroke-dasharray="5,2" d="M1002.65,-70.85C1034.12,-72.97 1069.64,-75.37 1099.9,-77.42"/>
<polygon fill="orange" stroke="orange" points="1002.8,-67.35 992.58,-70.17 1002.32,-74.33 1002.8,-67.35"/>
<text text-anchor="middle" x="1051" y="-78.23" font-family="Helvetica,sans-Serif" font-size="10.00"> &lt; double &gt;</text>
</g>
<!-- Node10&#45;&gt;Node6 -->
<g id="edge12" class="edge">
<title>Node10&#45;&gt;Node6</title>
<path fill="none" stroke="orange" stroke-dasharray="5,2" d="M989.45,-54.1C1027.69,-48.02 1074.56,-40.56 1111.1,-34.75"/>
<polygon fill="orange" stroke="orange" points="988.75,-50.67 979.42,-55.7 989.85,-57.58 988.75,-50.67"/>
<text text-anchor="middle" x="1051" y="-50.23" font-family="Helvetica,sans-Serif" font-size="10.00"> &lt; Number &gt;</text>
</g>
</g>
</svg>
