<?xml version="1.0" encoding="UTF-8" standalone="no"?>
<!DOCTYPE svg PUBLIC "-//W3C//DTD SVG 1.1//EN"
 "http://www.w3.org/Graphics/SVG/1.1/DTD/svg11.dtd">
<!-- Generated by graphviz version 2.47.1 (20210417.1919)
 -->
<!-- Title: TorusManifold&lt; dim &gt; Pages: 1 -->
<svg width="207pt" height="355pt"
 viewBox="0.00 0.00 206.50 355.00" xmlns="http://www.w3.org/2000/svg" xmlns:xlink="http://www.w3.org/1999/xlink">
<g id="graph0" class="graph" transform="scale(1 1) rotate(0) translate(4 351)">
<title>TorusManifold&lt; dim &gt;</title>
<polygon fill="white" stroke="transparent" points="-4,4 -4,-351 202.5,-351 202.5,4 -4,4"/>
<!-- Node1 -->
<g id="node1" class="node">
<title>Node1</title>
<g id="a_node1"><a xlink:title=" ">
<polygon fill="#bfbfbf" stroke="black" points="17,-0.5 17,-19.5 128,-19.5 128,-0.5 17,-0.5"/>
<text text-anchor="middle" x="72.5" y="-7.5" font-family="Helvetica,sans-Serif" font-size="10.00">TorusManifold&lt; dim &gt;</text>
</a>
</g>
</g>
<!-- Node2 -->
<g id="node2" class="node">
<title>Node2</title>
<g id="a_node2"><a xlink:href="classChartManifold.html" target="_top" xlink:title=" ">
<polygon fill="white" stroke="black" points="20,-57.5 20,-87.5 125,-87.5 125,-57.5 20,-57.5"/>
<text text-anchor="start" x="28" y="-75.5" font-family="Helvetica,sans-Serif" font-size="10.00">ChartManifold&lt; dim,</text>
<text text-anchor="middle" x="72.5" y="-64.5" font-family="Helvetica,sans-Serif" font-size="10.00"> 3, 3 &gt;</text>
</a>
</g>
</g>
<!-- Node2&#45;&gt;Node1 -->
<g id="edge1" class="edge">
<title>Node2&#45;&gt;Node1</title>
<path fill="none" stroke="midnightblue" d="M72.5,-47.35C72.5,-37.51 72.5,-26.78 72.5,-19.54"/>
<polygon fill="midnightblue" stroke="midnightblue" points="69,-47.47 72.5,-57.47 76,-47.47 69,-47.47"/>
</g>
<!-- Node3 -->
<g id="node3" class="node">
<title>Node3</title>
<g id="a_node3"><a xlink:href="classManifold.html" target="_top" xlink:title=" ">
<polygon fill="white" stroke="black" points="0,-270.5 0,-289.5 135,-289.5 135,-270.5 0,-270.5"/>
<text text-anchor="middle" x="67.5" y="-277.5" font-family="Helvetica,sans-Serif" font-size="10.00">Manifold&lt; dim, spacedim &gt;</text>
</a>
</g>
</g>
<!-- Node3&#45;&gt;Node2 -->
<g id="edge2" class="edge">
<title>Node3&#45;&gt;Node2</title>
<path fill="none" stroke="midnightblue" d="M67.95,-260.32C68.94,-219.69 71.27,-124.02 72.15,-87.77"/>
<polygon fill="midnightblue" stroke="midnightblue" points="64.45,-260.35 67.71,-270.43 71.45,-260.52 64.45,-260.35"/>
</g>
<!-- Node6 -->
<g id="node6" class="node">
<title>Node6</title>
<g id="a_node6"><a xlink:href="classManifold.html" target="_top" xlink:title=" ">
<polygon fill="white" stroke="black" points="87,-203.5 87,-222.5 196,-222.5 196,-203.5 87,-203.5"/>
<text text-anchor="middle" x="141.5" y="-210.5" font-family="Helvetica,sans-Serif" font-size="10.00">Manifold&lt; dim, dim &gt;</text>
</a>
</g>
</g>
<!-- Node3&#45;&gt;Node6 -->
<g id="edge7" class="edge">
<title>Node3&#45;&gt;Node6</title>
<path fill="none" stroke="orange" stroke-dasharray="5,2" d="M75.8,-260.96C79.58,-254.11 84.55,-246.62 90.5,-241 98.73,-233.23 109.63,-227.06 119.24,-222.59"/>
<polygon fill="orange" stroke="orange" points="72.5,-259.73 71.14,-270.23 78.75,-262.87 72.5,-259.73"/>
<text text-anchor="middle" x="120" y="-244" font-family="Helvetica,sans-Serif" font-size="10.00"> &lt; dim, dim &gt;</text>
</g>
<!-- Node4 -->
<g id="node4" class="node">
<title>Node4</title>
<g id="a_node4"><a xlink:href="classSubscriptor.html" target="_top" xlink:title=" ">
<polygon fill="white" stroke="black" points="82.5,-327.5 82.5,-346.5 148.5,-346.5 148.5,-327.5 82.5,-327.5"/>
<text text-anchor="middle" x="115.5" y="-334.5" font-family="Helvetica,sans-Serif" font-size="10.00">Subscriptor</text>
</a>
</g>
</g>
<!-- Node4&#45;&gt;Node3 -->
<g id="edge3" class="edge">
<title>Node4&#45;&gt;Node3</title>
<path fill="none" stroke="midnightblue" d="M101.39,-319.83C92.79,-309.98 82.15,-297.78 75.11,-289.71"/>
<polygon fill="midnightblue" stroke="midnightblue" points="98.79,-322.17 108,-327.41 104.06,-317.57 98.79,-322.17"/>
</g>
<!-- Node4&#45;&gt;Node6 -->
<g id="edge6" class="edge">
<title>Node4&#45;&gt;Node6</title>
<path fill="none" stroke="midnightblue" d="M128.47,-319.34C134.31,-310.98 140.73,-300.43 144.5,-290 151.94,-269.41 152.64,-262.66 149.5,-241 148.6,-234.81 146.6,-228.06 144.83,-222.86"/>
<polygon fill="midnightblue" stroke="midnightblue" points="125.62,-317.31 122.51,-327.44 131.26,-321.46 125.62,-317.31"/>
</g>
<!-- Node5 -->
<g id="node5" class="node">
<title>Node5</title>
<g id="a_node5"><a xlink:href="classChartManifold.html" target="_top" xlink:title=" ">
<polygon fill="white" stroke="black" points="84.5,-135.5 84.5,-165.5 198.5,-165.5 198.5,-135.5 84.5,-135.5"/>
<text text-anchor="start" x="92.5" y="-153.5" font-family="Helvetica,sans-Serif" font-size="10.00">ChartManifold&lt; dim,</text>
<text text-anchor="middle" x="141.5" y="-142.5" font-family="Helvetica,sans-Serif" font-size="10.00"> spacedim, chartdim &gt;</text>
</a>
</g>
</g>
<!-- Node5&#45;&gt;Node2 -->
<g id="edge4" class="edge">
<title>Node5&#45;&gt;Node2</title>
<path fill="none" stroke="orange" stroke-dasharray="5,2" d="M121.68,-127.67C110.02,-114.83 95.62,-98.97 85.42,-87.73"/>
<polygon fill="orange" stroke="orange" points="119.21,-130.15 128.52,-135.2 124.39,-125.45 119.21,-130.15"/>
<text text-anchor="middle" x="140.5" y="-109" font-family="Helvetica,sans-Serif" font-size="10.00"> &lt; dim, 3, 3 &gt;</text>
</g>
<!-- Node6&#45;&gt;Node5 -->
<g id="edge5" class="edge">
<title>Node6&#45;&gt;Node5</title>
<path fill="none" stroke="midnightblue" d="M141.5,-193.22C141.5,-184.36 141.5,-173.96 141.5,-165.76"/>
<polygon fill="midnightblue" stroke="midnightblue" points="138,-193.33 141.5,-203.33 145,-193.33 138,-193.33"/>
</g>
</g>
</svg>
