<?xml version="1.0" encoding="UTF-8" standalone="no"?>
<!DOCTYPE svg PUBLIC "-//W3C//DTD SVG 1.1//EN"
 "http://www.w3.org/Graphics/SVG/1.1/DTD/svg11.dtd">
<!-- Generated by graphviz version 2.47.1 (20210417.1919)
 -->
<!-- Title: CylindricalManifold&lt; dim, spacedim &gt; Pages: 1 -->
<svg width="207pt" height="366pt"
 viewBox="0.00 0.00 206.50 366.00" xmlns="http://www.w3.org/2000/svg" xmlns:xlink="http://www.w3.org/1999/xlink">
<g id="graph0" class="graph" transform="scale(1 1) rotate(0) translate(4 362)">
<title>CylindricalManifold&lt; dim, spacedim &gt;</title>
<polygon fill="white" stroke="transparent" points="-4,4 -4,-362 202.5,-362 202.5,4 -4,4"/>
<!-- Node1 -->
<g id="node1" class="node">
<title>Node1</title>
<g id="a_node1"><a xlink:title=" ">
<polygon fill="#bfbfbf" stroke="black" points="23,-0.5 23,-30.5 122,-30.5 122,-0.5 23,-0.5"/>
<text text-anchor="start" x="31" y="-18.5" font-family="Helvetica,sans-Serif" font-size="10.00">CylindricalManifold</text>
<text text-anchor="middle" x="72.5" y="-7.5" font-family="Helvetica,sans-Serif" font-size="10.00">&lt; dim, spacedim &gt;</text>
</a>
</g>
</g>
<!-- Node2 -->
<g id="node2" class="node">
<title>Node2</title>
<g id="a_node2"><a xlink:href="classChartManifold.html" target="_top" xlink:title=" ">
<polygon fill="white" stroke="black" points="20,-68.5 20,-98.5 125,-98.5 125,-68.5 20,-68.5"/>
<text text-anchor="start" x="28" y="-86.5" font-family="Helvetica,sans-Serif" font-size="10.00">ChartManifold&lt; dim,</text>
<text text-anchor="middle" x="72.5" y="-75.5" font-family="Helvetica,sans-Serif" font-size="10.00"> dim, 3 &gt;</text>
</a>
</g>
</g>
<!-- Node2&#45;&gt;Node1 -->
<g id="edge1" class="edge">
<title>Node2&#45;&gt;Node1</title>
<path fill="none" stroke="midnightblue" d="M72.5,-58.03C72.5,-48.86 72.5,-38.74 72.5,-30.79"/>
<polygon fill="midnightblue" stroke="midnightblue" points="69,-58.18 72.5,-68.18 76,-58.18 69,-58.18"/>
</g>
<!-- Node3 -->
<g id="node3" class="node">
<title>Node3</title>
<g id="a_node3"><a xlink:href="classManifold.html" target="_top" xlink:title=" ">
<polygon fill="white" stroke="black" points="0,-281.5 0,-300.5 135,-300.5 135,-281.5 0,-281.5"/>
<text text-anchor="middle" x="67.5" y="-288.5" font-family="Helvetica,sans-Serif" font-size="10.00">Manifold&lt; dim, spacedim &gt;</text>
</a>
</g>
</g>
<!-- Node3&#45;&gt;Node2 -->
<g id="edge2" class="edge">
<title>Node3&#45;&gt;Node2</title>
<path fill="none" stroke="midnightblue" d="M67.95,-271.32C68.94,-230.69 71.27,-135.02 72.15,-98.77"/>
<polygon fill="midnightblue" stroke="midnightblue" points="64.45,-271.35 67.71,-281.43 71.45,-271.52 64.45,-271.35"/>
</g>
<!-- Node6 -->
<g id="node6" class="node">
<title>Node6</title>
<g id="a_node6"><a xlink:href="classManifold.html" target="_top" xlink:title=" ">
<polygon fill="white" stroke="black" points="87,-214.5 87,-233.5 196,-233.5 196,-214.5 87,-214.5"/>
<text text-anchor="middle" x="141.5" y="-221.5" font-family="Helvetica,sans-Serif" font-size="10.00">Manifold&lt; dim, dim &gt;</text>
</a>
</g>
</g>
<!-- Node3&#45;&gt;Node6 -->
<g id="edge7" class="edge">
<title>Node3&#45;&gt;Node6</title>
<path fill="none" stroke="orange" stroke-dasharray="5,2" d="M75.8,-271.96C79.58,-265.11 84.55,-257.62 90.5,-252 98.73,-244.23 109.63,-238.06 119.24,-233.59"/>
<polygon fill="orange" stroke="orange" points="72.5,-270.73 71.14,-281.23 78.75,-273.87 72.5,-270.73"/>
<text text-anchor="middle" x="120" y="-255" font-family="Helvetica,sans-Serif" font-size="10.00"> &lt; dim, dim &gt;</text>
</g>
<!-- Node4 -->
<g id="node4" class="node">
<title>Node4</title>
<g id="a_node4"><a xlink:href="classSubscriptor.html" target="_top" xlink:title=" ">
<polygon fill="white" stroke="black" points="82.5,-338.5 82.5,-357.5 148.5,-357.5 148.5,-338.5 82.5,-338.5"/>
<text text-anchor="middle" x="115.5" y="-345.5" font-family="Helvetica,sans-Serif" font-size="10.00">Subscriptor</text>
</a>
</g>
</g>
<!-- Node4&#45;&gt;Node3 -->
<g id="edge3" class="edge">
<title>Node4&#45;&gt;Node3</title>
<path fill="none" stroke="midnightblue" d="M101.39,-330.83C92.79,-320.98 82.15,-308.78 75.11,-300.71"/>
<polygon fill="midnightblue" stroke="midnightblue" points="98.79,-333.17 108,-338.41 104.06,-328.57 98.79,-333.17"/>
</g>
<!-- Node4&#45;&gt;Node6 -->
<g id="edge6" class="edge">
<title>Node4&#45;&gt;Node6</title>
<path fill="none" stroke="midnightblue" d="M128.47,-330.34C134.31,-321.98 140.73,-311.43 144.5,-301 151.94,-280.41 152.64,-273.66 149.5,-252 148.6,-245.81 146.6,-239.06 144.83,-233.86"/>
<polygon fill="midnightblue" stroke="midnightblue" points="125.62,-328.31 122.51,-338.44 131.26,-332.46 125.62,-328.31"/>
</g>
<!-- Node5 -->
<g id="node5" class="node">
<title>Node5</title>
<g id="a_node5"><a xlink:href="classChartManifold.html" target="_top" xlink:title=" ">
<polygon fill="white" stroke="black" points="84.5,-146.5 84.5,-176.5 198.5,-176.5 198.5,-146.5 84.5,-146.5"/>
<text text-anchor="start" x="92.5" y="-164.5" font-family="Helvetica,sans-Serif" font-size="10.00">ChartManifold&lt; dim,</text>
<text text-anchor="middle" x="141.5" y="-153.5" font-family="Helvetica,sans-Serif" font-size="10.00"> spacedim, chartdim &gt;</text>
</a>
</g>
</g>
<!-- Node5&#45;&gt;Node2 -->
<g id="edge4" class="edge">
<title>Node5&#45;&gt;Node2</title>
<path fill="none" stroke="orange" stroke-dasharray="5,2" d="M121.68,-138.67C110.02,-125.83 95.62,-109.97 85.42,-98.73"/>
<polygon fill="orange" stroke="orange" points="119.21,-141.15 128.52,-146.2 124.39,-136.45 119.21,-141.15"/>
<text text-anchor="middle" x="145.5" y="-120" font-family="Helvetica,sans-Serif" font-size="10.00"> &lt; dim, dim, 3 &gt;</text>
</g>
<!-- Node6&#45;&gt;Node5 -->
<g id="edge5" class="edge">
<title>Node6&#45;&gt;Node5</title>
<path fill="none" stroke="midnightblue" d="M141.5,-204.22C141.5,-195.36 141.5,-184.96 141.5,-176.76"/>
<polygon fill="midnightblue" stroke="midnightblue" points="138,-204.33 141.5,-214.33 145,-204.33 138,-204.33"/>
</g>
</g>
</svg>
