<?xml version="1.0" encoding="UTF-8" standalone="no"?>
<!DOCTYPE svg PUBLIC "-//W3C//DTD SVG 1.1//EN"
 "http://www.w3.org/Graphics/SVG/1.1/DTD/svg11.dtd">
<!-- Generated by graphviz version 2.47.1 (20210417.1919)
 -->
<!-- Title: PreconditionBlockJacobi&lt; MatrixType, inverse_type &gt; Pages: 1 -->
<svg width="970pt" height="225pt"
 viewBox="0.00 0.00 970.00 225.00" xmlns="http://www.w3.org/2000/svg" xmlns:xlink="http://www.w3.org/1999/xlink">
<g id="graph0" class="graph" transform="scale(1 1) rotate(0) translate(4 221)">
<title>PreconditionBlockJacobi&lt; MatrixType, inverse_type &gt;</title>
<polygon fill="white" stroke="transparent" points="-4,4 -4,-221 966,-221 966,4 -4,4"/>
<!-- Node1 -->
<g id="node1" class="node">
<title>Node1</title>
<g id="a_node1"><a xlink:title=" ">
<polygon fill="#bfbfbf" stroke="black" points="838,-95.5 838,-136.5 962,-136.5 962,-95.5 838,-95.5"/>
<text text-anchor="start" x="846" y="-124.5" font-family="Helvetica,sans-Serif" font-size="10.00">PreconditionBlockJacobi</text>
<text text-anchor="start" x="846" y="-113.5" font-family="Helvetica,sans-Serif" font-size="10.00">&lt; MatrixType, inverse</text>
<text text-anchor="middle" x="900" y="-102.5" font-family="Helvetica,sans-Serif" font-size="10.00">_type &gt;</text>
</a>
</g>
</g>
<!-- Node1&#45;&gt;Node1 -->
<g id="edge9" class="edge">
<title>Node1&#45;&gt;Node1</title>
<path fill="none" stroke="orange" stroke-dasharray="5,2" d="M893.12,-146.86C894.14,-151.7 896.44,-155 900,-155 905.7,-155 908.15,-146.54 907.35,-136.86"/>
<polygon fill="orange" stroke="orange" points="896.61,-146.69 892.65,-136.86 889.62,-147.02 896.61,-146.69"/>
<text text-anchor="start" x="851" y="-169" font-family="Helvetica,sans-Serif" font-size="10.00"> &lt; MatrixType, inverse</text>
<text text-anchor="middle" x="900" y="-158" font-family="Helvetica,sans-Serif" font-size="10.00">_type &gt;</text>
</g>
<!-- Node1&#45;&gt;Node1 -->
<g id="edge10" class="edge">
<title>Node1&#45;&gt;Node1</title>
<path fill="none" stroke="orange" stroke-dasharray="5,2" d="M885.47,-146.59C883.38,-162.44 888.23,-177 900,-177 914.22,-177 918.33,-155.77 912.33,-136.67"/>
<polygon fill="orange" stroke="orange" points="888.92,-147.19 887.67,-136.67 882.09,-145.68 888.92,-147.19"/>
<text text-anchor="start" x="851" y="-191" font-family="Helvetica,sans-Serif" font-size="10.00"> &lt; MatrixType, inverse</text>
<text text-anchor="middle" x="900" y="-180" font-family="Helvetica,sans-Serif" font-size="10.00">_type &gt;</text>
</g>
<!-- Node2 -->
<g id="node2" class="node">
<title>Node2</title>
<g id="a_node2"><a xlink:href="classSubscriptor.html" target="_top" xlink:title=" ">
<polygon fill="white" stroke="black" points="286.5,-93.5 286.5,-112.5 352.5,-112.5 352.5,-93.5 286.5,-93.5"/>
<text text-anchor="middle" x="319.5" y="-100.5" font-family="Helvetica,sans-Serif" font-size="10.00">Subscriptor</text>
</a>
</g>
</g>
<!-- Node2&#45;&gt;Node1 -->
<g id="edge1" class="edge">
<title>Node2&#45;&gt;Node1</title>
<path fill="none" stroke="midnightblue" d="M362.62,-112.12C373.74,-114.14 385.78,-115.98 397,-117 397.44,-117.04 397.56,-117 398,-117 556.52,-116.84 743.25,-116.4 837.69,-116.16"/>
<polygon fill="midnightblue" stroke="midnightblue" points="363.18,-108.66 352.71,-110.23 361.87,-115.54 363.18,-108.66"/>
</g>
<!-- Node3 -->
<g id="node3" class="node">
<title>Node3</title>
<g id="a_node3"><a xlink:href="classPreconditionBlock.html" target="_top" xlink:title=" ">
<polygon fill="white" stroke="black" points="671,-52.5 671,-93.5 801,-93.5 801,-52.5 671,-52.5"/>
<text text-anchor="start" x="679" y="-81.5" font-family="Helvetica,sans-Serif" font-size="10.00">PreconditionBlock&lt;</text>
<text text-anchor="start" x="679" y="-70.5" font-family="Helvetica,sans-Serif" font-size="10.00"> MatrixType, typename</text>
<text text-anchor="middle" x="736" y="-59.5" font-family="Helvetica,sans-Serif" font-size="10.00"> MatrixType::value_type &gt;</text>
</a>
</g>
</g>
<!-- Node2&#45;&gt;Node3 -->
<g id="edge3" class="edge">
<title>Node2&#45;&gt;Node3</title>
<path fill="none" stroke="midnightblue" d="M362.73,-103.25C426.03,-103.17 549.19,-101.24 653,-89 658.76,-88.32 664.73,-87.46 670.69,-86.5"/>
<polygon fill="midnightblue" stroke="midnightblue" points="362.73,-99.75 352.73,-103.25 362.72,-106.75 362.73,-99.75"/>
</g>
<!-- Node6 -->
<g id="node6" class="node">
<title>Node6</title>
<g id="a_node6"><a xlink:href="classPreconditionBlock.html" target="_top" xlink:title=" ">
<polygon fill="white" stroke="black" points="416,-33.5 416,-74.5 521,-74.5 521,-33.5 416,-33.5"/>
<text text-anchor="start" x="424" y="-62.5" font-family="Helvetica,sans-Serif" font-size="10.00">PreconditionBlock&lt;</text>
<text text-anchor="start" x="424" y="-51.5" font-family="Helvetica,sans-Serif" font-size="10.00"> MatrixType, inverse</text>
<text text-anchor="middle" x="468.5" y="-40.5" font-family="Helvetica,sans-Serif" font-size="10.00">_type &gt;</text>
</a>
</g>
</g>
<!-- Node2&#45;&gt;Node6 -->
<g id="edge7" class="edge">
<title>Node2&#45;&gt;Node6</title>
<path fill="none" stroke="midnightblue" d="M359.01,-90.16C376.41,-84.36 397.24,-77.42 415.97,-71.18"/>
<polygon fill="midnightblue" stroke="midnightblue" points="357.57,-86.95 349.19,-93.44 359.79,-93.59 357.57,-86.95"/>
</g>
<!-- Node3&#45;&gt;Node1 -->
<g id="edge2" class="edge">
<title>Node3&#45;&gt;Node1</title>
<path fill="none" stroke="#8b1a1a" d="M810.77,-92.58C819.82,-94.98 828.98,-97.42 837.82,-99.76"/>
<polygon fill="#8b1a1a" stroke="#8b1a1a" points="811.59,-89.18 801.03,-89.99 809.79,-95.94 811.59,-89.18"/>
</g>
<!-- Node4 -->
<g id="node4" class="node">
<title>Node4</title>
<g id="a_node4"><a xlink:href="classPreconditionBlockBase.html" target="_top" xlink:title=" ">
<polygon fill="white" stroke="black" points="260,-0.5 260,-41.5 379,-41.5 379,-0.5 260,-0.5"/>
<text text-anchor="start" x="268" y="-29.5" font-family="Helvetica,sans-Serif" font-size="10.00">PreconditionBlockBase</text>
<text text-anchor="start" x="268" y="-18.5" font-family="Helvetica,sans-Serif" font-size="10.00">&lt; typename MatrixType</text>
<text text-anchor="middle" x="319.5" y="-7.5" font-family="Helvetica,sans-Serif" font-size="10.00">::value_type &gt;</text>
</a>
</g>
</g>
<!-- Node4&#45;&gt;Node3 -->
<g id="edge4" class="edge">
<title>Node4&#45;&gt;Node3</title>
<path fill="none" stroke="darkgreen" d="M389.2,-18.5C428.02,-17.97 477.37,-18.77 521,-24 580.74,-31.16 594.36,-40.54 653,-54 658.84,-55.34 664.91,-56.74 670.99,-58.14"/>
<polygon fill="darkgreen" stroke="darkgreen" points="389,-15 379.06,-18.67 389.12,-22 389,-15"/>
</g>
<!-- Node4&#45;&gt;Node6 -->
<g id="edge8" class="edge">
<title>Node4&#45;&gt;Node6</title>
<path fill="none" stroke="darkgreen" d="M388.81,-36.34C397.9,-38.38 407.09,-40.44 415.83,-42.4"/>
<polygon fill="darkgreen" stroke="darkgreen" points="389.54,-32.91 379.02,-34.14 388.01,-39.74 389.54,-32.91"/>
</g>
<!-- Node5 -->
<g id="node5" class="node">
<title>Node5</title>
<g id="a_node5"><a xlink:href="classPreconditionBlockBase.html" target="_top" xlink:title=" ">
<polygon fill="white" stroke="black" points="0,-6 0,-36 118,-36 118,-6 0,-6"/>
<text text-anchor="start" x="8" y="-24" font-family="Helvetica,sans-Serif" font-size="10.00">PreconditionBlockBase</text>
<text text-anchor="middle" x="59" y="-13" font-family="Helvetica,sans-Serif" font-size="10.00">&lt; number &gt;</text>
</a>
</g>
</g>
<!-- Node5&#45;&gt;Node4 -->
<g id="edge5" class="edge">
<title>Node5&#45;&gt;Node4</title>
<path fill="none" stroke="orange" stroke-dasharray="5,2" d="M128.18,-21C169.11,-21 220.66,-21 259.79,-21"/>
<polygon fill="orange" stroke="orange" points="128.01,-17.5 118.01,-21 128.01,-24.5 128.01,-17.5"/>
<text text-anchor="start" x="136" y="-35" font-family="Helvetica,sans-Serif" font-size="10.00"> &lt; typename MatrixType</text>
<text text-anchor="middle" x="189" y="-24" font-family="Helvetica,sans-Serif" font-size="10.00">::value_type &gt;</text>
</g>
<!-- Node6&#45;&gt;Node3 -->
<g id="edge6" class="edge">
<title>Node6&#45;&gt;Node3</title>
<path fill="none" stroke="orange" stroke-dasharray="5,2" d="M531.54,-58.36C567.09,-60.87 612.55,-64.09 653,-67 658.84,-67.42 664.91,-67.86 670.99,-68.3"/>
<polygon fill="orange" stroke="orange" points="531.53,-54.85 521.31,-57.64 531.04,-61.83 531.53,-54.85"/>
<text text-anchor="start" x="539" y="-81" font-family="Helvetica,sans-Serif" font-size="10.00"> &lt; MatrixType, typename</text>
<text text-anchor="middle" x="596" y="-70" font-family="Helvetica,sans-Serif" font-size="10.00"> MatrixType::value_type &gt;</text>
</g>
</g>
</svg>
