<?xml version="1.0" encoding="UTF-8" standalone="no"?>
<!DOCTYPE svg PUBLIC "-//W3C//DTD SVG 1.1//EN"
 "http://www.w3.org/Graphics/SVG/1.1/DTD/svg11.dtd">
<!-- Generated by graphviz version 2.47.1 (20210417.1919)
 -->
<!-- Title: ChartManifold&lt; dim, spacedim, chartdim &gt; Pages: 1 -->
<svg width="1153pt" height="465pt"
 viewBox="0.00 0.00 1153.00 465.00" xmlns="http://www.w3.org/2000/svg" xmlns:xlink="http://www.w3.org/1999/xlink">
<g id="graph0" class="graph" transform="scale(1 1) rotate(0) translate(4 461)">
<title>ChartManifold&lt; dim, spacedim, chartdim &gt;</title>
<polygon fill="white" stroke="transparent" points="-4,4 -4,-461 1149,-461 1149,4 -4,4"/>
<!-- Node1 -->
<g id="node1" class="node">
<title>Node1</title>
<g id="a_node1"><a xlink:title=" ">
<polygon fill="#bfbfbf" stroke="black" points="479,-235.5 479,-265.5 593,-265.5 593,-235.5 479,-235.5"/>
<text text-anchor="start" x="487" y="-253.5" font-family="Helvetica,sans-Serif" font-size="10.00">ChartManifold&lt; dim,</text>
<text text-anchor="middle" x="536" y="-242.5" font-family="Helvetica,sans-Serif" font-size="10.00"> spacedim, chartdim &gt;</text>
</a>
</g>
</g>
<!-- Node5 -->
<g id="node5" class="node">
<title>Node5</title>
<g id="a_node5"><a xlink:href="classChartManifold.html" target="_top" xlink:title=" ">
<polygon fill="white" stroke="black" points="787,-417.5 787,-447.5 892,-447.5 892,-417.5 787,-417.5"/>
<text text-anchor="start" x="795" y="-435.5" font-family="Helvetica,sans-Serif" font-size="10.00">ChartManifold&lt; dim,</text>
<text text-anchor="middle" x="839.5" y="-424.5" font-family="Helvetica,sans-Serif" font-size="10.00"> spacedim, 2 &gt;</text>
</a>
</g>
</g>
<!-- Node1&#45;&gt;Node5 -->
<g id="edge5" class="edge">
<title>Node1&#45;&gt;Node5</title>
<path fill="none" stroke="orange" stroke-dasharray="5,2" d="M547.02,-275.18C558.68,-300.89 580.34,-340.54 611,-363.5 663.2,-402.59 737.62,-419.71 786.96,-427.09"/>
<polygon fill="orange" stroke="orange" points="550.11,-273.52 542.91,-265.75 543.7,-276.32 550.11,-273.52"/>
<text text-anchor="middle" x="679" y="-421.5" font-family="Helvetica,sans-Serif" font-size="10.00"> &lt; dim, spacedim, 2 &gt;</text>
</g>
<!-- Node7 -->
<g id="node7" class="node">
<title>Node7</title>
<g id="a_node7"><a xlink:href="classChartManifold.html" target="_top" xlink:title=" ">
<polygon fill="white" stroke="black" points="787,-351.5 787,-381.5 892,-381.5 892,-351.5 787,-351.5"/>
<text text-anchor="start" x="795" y="-369.5" font-family="Helvetica,sans-Serif" font-size="10.00">ChartManifold&lt; dim,</text>
<text text-anchor="middle" x="839.5" y="-358.5" font-family="Helvetica,sans-Serif" font-size="10.00"> spacedim, 1 &gt;</text>
</a>
</g>
</g>
<!-- Node1&#45;&gt;Node7 -->
<g id="edge7" class="edge">
<title>Node1&#45;&gt;Node7</title>
<path fill="none" stroke="orange" stroke-dasharray="5,2" d="M561.76,-272.11C575.49,-283.14 593.31,-296 611,-304.5 668.18,-332 739.52,-348.93 786.91,-358"/>
<polygon fill="orange" stroke="orange" points="563.73,-269.19 553.78,-265.53 559.27,-274.6 563.73,-269.19"/>
<text text-anchor="middle" x="679" y="-351.5" font-family="Helvetica,sans-Serif" font-size="10.00"> &lt; dim, spacedim, 1 &gt;</text>
</g>
<!-- Node9 -->
<g id="node9" class="node">
<title>Node9</title>
<g id="a_node9"><a xlink:href="classChartManifold.html" target="_top" xlink:title=" ">
<polygon fill="white" stroke="black" points="787,-293.5 787,-323.5 892,-323.5 892,-293.5 787,-293.5"/>
<text text-anchor="start" x="795" y="-311.5" font-family="Helvetica,sans-Serif" font-size="10.00">ChartManifold&lt; dim,</text>
<text text-anchor="middle" x="839.5" y="-300.5" font-family="Helvetica,sans-Serif" font-size="10.00"> dim, 3 &gt;</text>
</a>
</g>
</g>
<!-- Node1&#45;&gt;Node9 -->
<g id="edge9" class="edge">
<title>Node1&#45;&gt;Node9</title>
<path fill="none" stroke="orange" stroke-dasharray="5,2" d="M603.05,-263.21C658.3,-273.83 736.03,-288.79 786.82,-298.56"/>
<polygon fill="orange" stroke="orange" points="603.48,-259.73 593,-261.27 602.16,-266.6 603.48,-259.73"/>
<text text-anchor="middle" x="679" y="-292.5" font-family="Helvetica,sans-Serif" font-size="10.00"> &lt; dim, dim, 3 &gt;</text>
</g>
<!-- Node11 -->
<g id="node11" class="node">
<title>Node11</title>
<g id="a_node11"><a xlink:href="classChartManifold.html" target="_top" xlink:title=" ">
<polygon fill="white" stroke="black" points="787,-208.5 787,-238.5 892,-238.5 892,-208.5 787,-208.5"/>
<text text-anchor="start" x="795" y="-226.5" font-family="Helvetica,sans-Serif" font-size="10.00">ChartManifold&lt; dim,</text>
<text text-anchor="middle" x="839.5" y="-215.5" font-family="Helvetica,sans-Serif" font-size="10.00"> dim, dim &gt;</text>
</a>
</g>
</g>
<!-- Node1&#45;&gt;Node11 -->
<g id="edge11" class="edge">
<title>Node1&#45;&gt;Node11</title>
<path fill="none" stroke="orange" stroke-dasharray="5,2" d="M603.05,-244.59C658.3,-239.64 736.03,-232.68 786.82,-228.13"/>
<polygon fill="orange" stroke="orange" points="602.65,-241.11 593,-245.48 603.28,-248.08 602.65,-241.11"/>
<text text-anchor="middle" x="679" y="-246.5" font-family="Helvetica,sans-Serif" font-size="10.00"> &lt; dim, dim, dim &gt;</text>
</g>
<!-- Node16 -->
<g id="node16" class="node">
<title>Node16</title>
<g id="a_node16"><a xlink:href="classChartManifold.html" target="_top" xlink:title=" ">
<polygon fill="white" stroke="black" points="787,-136.5 787,-166.5 892,-166.5 892,-136.5 787,-136.5"/>
<text text-anchor="start" x="795" y="-154.5" font-family="Helvetica,sans-Serif" font-size="10.00">ChartManifold&lt; dim,</text>
<text text-anchor="middle" x="839.5" y="-143.5" font-family="Helvetica,sans-Serif" font-size="10.00"> 3, 3 &gt;</text>
</a>
</g>
</g>
<!-- Node1&#45;&gt;Node16 -->
<g id="edge16" class="edge">
<title>Node1&#45;&gt;Node16</title>
<path fill="none" stroke="orange" stroke-dasharray="5,2" d="M577.48,-231.25C588.25,-226.46 599.97,-221.54 611,-217.5 670.28,-195.8 740.26,-176.39 786.8,-164.33"/>
<polygon fill="orange" stroke="orange" points="575.97,-228.09 568.3,-235.4 578.85,-234.47 575.97,-228.09"/>
<text text-anchor="middle" x="679" y="-220.5" font-family="Helvetica,sans-Serif" font-size="10.00"> &lt; dim, 3, 3 &gt;</text>
</g>
<!-- Node18 -->
<g id="node18" class="node">
<title>Node18</title>
<g id="a_node18"><a xlink:href="classChartManifold.html" target="_top" xlink:title=" ">
<polygon fill="white" stroke="black" points="765,-30 765,-71 914,-71 914,-30 765,-30"/>
<text text-anchor="start" x="773" y="-59" font-family="Helvetica,sans-Serif" font-size="10.00">ChartManifold&lt; dim,</text>
<text text-anchor="start" x="773" y="-48" font-family="Helvetica,sans-Serif" font-size="10.00"> spacedim_A+spacedim</text>
<text text-anchor="middle" x="839.5" y="-37" font-family="Helvetica,sans-Serif" font-size="10.00">_B, chartdim_A+chartdim_B &gt;</text>
</a>
</g>
</g>
<!-- Node1&#45;&gt;Node18 -->
<g id="edge18" class="edge">
<title>Node1&#45;&gt;Node18</title>
<path fill="none" stroke="orange" stroke-dasharray="5,2" d="M549.77,-226.27C562.66,-203.81 584.41,-170.76 611,-149.5 656.92,-112.78 718.55,-87.08 766.08,-71.07"/>
<polygon fill="orange" stroke="orange" points="546.62,-224.74 544.81,-235.18 552.73,-228.15 546.62,-224.74"/>
<text text-anchor="start" x="611" y="-163.5" font-family="Helvetica,sans-Serif" font-size="10.00"> &lt; dim, spacedim_A+spacedim</text>
<text text-anchor="middle" x="679" y="-152.5" font-family="Helvetica,sans-Serif" font-size="10.00">_B, chartdim_A+chartdim_B &gt;</text>
</g>
<!-- Node2 -->
<g id="node2" class="node">
<title>Node2</title>
<g id="a_node2"><a xlink:href="classManifold.html" target="_top" xlink:title=" ">
<polygon fill="white" stroke="black" points="333,-241 333,-260 442,-260 442,-241 333,-241"/>
<text text-anchor="middle" x="387.5" y="-248" font-family="Helvetica,sans-Serif" font-size="10.00">Manifold&lt; dim, dim &gt;</text>
</a>
</g>
</g>
<!-- Node2&#45;&gt;Node1 -->
<g id="edge1" class="edge">
<title>Node2&#45;&gt;Node1</title>
<path fill="none" stroke="midnightblue" d="M452.42,-250.5C461.22,-250.5 470.19,-250.5 478.83,-250.5"/>
<polygon fill="midnightblue" stroke="midnightblue" points="452.22,-247 442.22,-250.5 452.22,-254 452.22,-247"/>
</g>
<!-- Node3 -->
<g id="node3" class="node">
<title>Node3</title>
<g id="a_node3"><a xlink:href="classSubscriptor.html" target="_top" xlink:title=" ">
<polygon fill="white" stroke="black" points="0,-238 0,-257 66,-257 66,-238 0,-238"/>
<text text-anchor="middle" x="33" y="-245" font-family="Helvetica,sans-Serif" font-size="10.00">Subscriptor</text>
</a>
</g>
</g>
<!-- Node3&#45;&gt;Node2 -->
<g id="edge2" class="edge">
<title>Node3&#45;&gt;Node2</title>
<path fill="none" stroke="midnightblue" d="M76.29,-252.03C78.9,-252.21 81.48,-252.37 84,-252.5 186.54,-257.61 212.34,-253.94 315,-252.5 320.71,-252.42 326.68,-252.3 332.63,-252.17"/>
<polygon fill="midnightblue" stroke="midnightblue" points="76.49,-248.53 66.24,-251.2 75.92,-255.51 76.49,-248.53"/>
</g>
<!-- Node4 -->
<g id="node4" class="node">
<title>Node4</title>
<g id="a_node4"><a xlink:href="classManifold.html" target="_top" xlink:title=" ">
<polygon fill="white" stroke="black" points="103,-219 103,-238 238,-238 238,-219 103,-219"/>
<text text-anchor="middle" x="170.5" y="-226" font-family="Helvetica,sans-Serif" font-size="10.00">Manifold&lt; dim, spacedim &gt;</text>
</a>
</g>
</g>
<!-- Node3&#45;&gt;Node4 -->
<g id="edge4" class="edge">
<title>Node3&#45;&gt;Node4</title>
<path fill="none" stroke="midnightblue" d="M76.15,-241.59C84.68,-240.39 93.84,-239.11 102.97,-237.83"/>
<polygon fill="midnightblue" stroke="midnightblue" points="75.53,-238.14 66.11,-243 76.5,-245.07 75.53,-238.14"/>
</g>
<!-- Node4&#45;&gt;Node2 -->
<g id="edge3" class="edge">
<title>Node4&#45;&gt;Node2</title>
<path fill="none" stroke="orange" stroke-dasharray="5,2" d="M248.44,-234.97C269.99,-236.92 293.42,-239.17 315,-241.5 320.72,-242.12 326.7,-242.81 332.65,-243.52"/>
<polygon fill="orange" stroke="orange" points="248.62,-231.47 238.35,-234.07 248,-238.45 248.62,-231.47"/>
<text text-anchor="middle" x="285.5" y="-244.5" font-family="Helvetica,sans-Serif" font-size="10.00"> &lt; dim, dim &gt;</text>
</g>
<!-- Node6 -->
<g id="node6" class="node">
<title>Node6</title>
<g id="a_node6"><a xlink:href="classOpenCASCADE_1_1NURBSPatchManifold.html" target="_top" xlink:title=" ">
<polygon fill="white" stroke="black" points="951,-426.5 951,-456.5 1145,-456.5 1145,-426.5 951,-426.5"/>
<text text-anchor="start" x="959" y="-444.5" font-family="Helvetica,sans-Serif" font-size="10.00">OpenCASCADE::NURBSPatchManifold</text>
<text text-anchor="middle" x="1048" y="-433.5" font-family="Helvetica,sans-Serif" font-size="10.00">&lt; dim, spacedim &gt;</text>
</a>
</g>
</g>
<!-- Node5&#45;&gt;Node6 -->
<g id="edge6" class="edge">
<title>Node5&#45;&gt;Node6</title>
<path fill="none" stroke="midnightblue" d="M902.36,-435.2C917.57,-435.86 934.22,-436.58 950.64,-437.3"/>
<polygon fill="midnightblue" stroke="midnightblue" points="902.22,-431.69 892.08,-434.75 901.91,-438.68 902.22,-431.69"/>
</g>
<!-- Node8 -->
<g id="node8" class="node">
<title>Node8</title>
<g id="a_node8"><a xlink:href="classOpenCASCADE_1_1ArclengthProjectionLineManifold.html" target="_top" xlink:title=" ">
<polygon fill="white" stroke="black" points="958,-377.5 958,-407.5 1138,-407.5 1138,-377.5 958,-377.5"/>
<text text-anchor="start" x="966" y="-395.5" font-family="Helvetica,sans-Serif" font-size="10.00">OpenCASCADE::ArclengthProjection</text>
<text text-anchor="middle" x="1048" y="-384.5" font-family="Helvetica,sans-Serif" font-size="10.00">LineManifold&lt; dim, spacedim &gt;</text>
</a>
</g>
</g>
<!-- Node7&#45;&gt;Node8 -->
<g id="edge8" class="edge">
<title>Node7&#45;&gt;Node8</title>
<path fill="none" stroke="midnightblue" d="M902.16,-374.26C919.69,-376.47 939.14,-378.92 957.94,-381.29"/>
<polygon fill="midnightblue" stroke="midnightblue" points="902.43,-370.77 892.08,-372.99 901.56,-377.72 902.43,-370.77"/>
</g>
<!-- Node10 -->
<g id="node10" class="node">
<title>Node10</title>
<g id="a_node10"><a xlink:href="classCylindricalManifold.html" target="_top" xlink:title=" ">
<polygon fill="white" stroke="black" points="998.5,-328.5 998.5,-358.5 1097.5,-358.5 1097.5,-328.5 998.5,-328.5"/>
<text text-anchor="start" x="1006.5" y="-346.5" font-family="Helvetica,sans-Serif" font-size="10.00">CylindricalManifold</text>
<text text-anchor="middle" x="1048" y="-335.5" font-family="Helvetica,sans-Serif" font-size="10.00">&lt; dim, spacedim &gt;</text>
</a>
</g>
</g>
<!-- Node9&#45;&gt;Node10 -->
<g id="edge10" class="edge">
<title>Node9&#45;&gt;Node10</title>
<path fill="none" stroke="midnightblue" d="M902.24,-318.96C932.94,-324.17 969.51,-330.37 998.21,-335.23"/>
<polygon fill="midnightblue" stroke="midnightblue" points="902.52,-315.46 892.08,-317.24 901.35,-322.36 902.52,-315.46"/>
</g>
<!-- Node12 -->
<g id="node12" class="node">
<title>Node12</title>
<g id="a_node12"><a xlink:href="classCompositionManifold.html" target="_top" xlink:title=" ">
<polygon fill="white" stroke="black" points="980,-257.5 980,-309.5 1116,-309.5 1116,-257.5 980,-257.5"/>
<text text-anchor="start" x="988" y="-297.5" font-family="Helvetica,sans-Serif" font-size="10.00">CompositionManifold</text>
<text text-anchor="start" x="988" y="-286.5" font-family="Helvetica,sans-Serif" font-size="10.00">&lt; dim, spacedim, chartdim,</text>
<text text-anchor="start" x="988" y="-275.5" font-family="Helvetica,sans-Serif" font-size="10.00"> intermediate_dim, dim1,</text>
<text text-anchor="middle" x="1048" y="-264.5" font-family="Helvetica,sans-Serif" font-size="10.00"> dim2 &gt;</text>
</a>
</g>
</g>
<!-- Node11&#45;&gt;Node12 -->
<g id="edge12" class="edge">
<title>Node11&#45;&gt;Node12</title>
<path fill="none" stroke="midnightblue" d="M901.96,-241.36C926.44,-248.47 954.69,-256.68 979.72,-263.95"/>
<polygon fill="midnightblue" stroke="midnightblue" points="902.66,-237.92 892.08,-238.49 900.7,-244.64 902.66,-237.92"/>
</g>
<!-- Node13 -->
<g id="node13" class="node">
<title>Node13</title>
<g id="a_node13"><a xlink:href="classEllipticalManifold.html" target="_top" xlink:title=" ">
<polygon fill="white" stroke="black" points="999,-208.5 999,-238.5 1097,-238.5 1097,-208.5 999,-208.5"/>
<text text-anchor="start" x="1007" y="-226.5" font-family="Helvetica,sans-Serif" font-size="10.00">EllipticalManifold</text>
<text text-anchor="middle" x="1048" y="-215.5" font-family="Helvetica,sans-Serif" font-size="10.00">&lt; dim, spacedim &gt;</text>
</a>
</g>
</g>
<!-- Node11&#45;&gt;Node13 -->
<g id="edge13" class="edge">
<title>Node11&#45;&gt;Node13</title>
<path fill="none" stroke="midnightblue" d="M902.32,-223.5C933.25,-223.5 970.13,-223.5 998.91,-223.5"/>
<polygon fill="midnightblue" stroke="midnightblue" points="902.08,-220 892.08,-223.5 902.08,-227 902.08,-220"/>
</g>
<!-- Node14 -->
<g id="node14" class="node">
<title>Node14</title>
<g id="a_node14"><a xlink:href="classFunctionManifold.html" target="_top" xlink:title=" ">
<polygon fill="white" stroke="black" points="988.5,-159.5 988.5,-189.5 1107.5,-189.5 1107.5,-159.5 988.5,-159.5"/>
<text text-anchor="start" x="996.5" y="-177.5" font-family="Helvetica,sans-Serif" font-size="10.00">FunctionManifold&lt; dim,</text>
<text text-anchor="middle" x="1048" y="-166.5" font-family="Helvetica,sans-Serif" font-size="10.00"> spacedim, chartdim &gt;</text>
</a>
</g>
</g>
<!-- Node11&#45;&gt;Node14 -->
<g id="edge14" class="edge">
<title>Node11&#45;&gt;Node14</title>
<path fill="none" stroke="midnightblue" d="M901.93,-208.92C929.3,-202.43 961.4,-194.81 988.43,-188.4"/>
<polygon fill="midnightblue" stroke="midnightblue" points="901,-205.55 892.08,-211.26 902.61,-212.36 901,-205.55"/>
</g>
<!-- Node15 -->
<g id="node15" class="node">
<title>Node15</title>
<g id="a_node15"><a xlink:href="classPolarManifold.html" target="_top" xlink:title=" ">
<polygon fill="white" stroke="black" points="996,-110.5 996,-140.5 1100,-140.5 1100,-110.5 996,-110.5"/>
<text text-anchor="start" x="1004" y="-128.5" font-family="Helvetica,sans-Serif" font-size="10.00">PolarManifold&lt; dim,</text>
<text text-anchor="middle" x="1048" y="-117.5" font-family="Helvetica,sans-Serif" font-size="10.00"> spacedim &gt;</text>
</a>
</g>
</g>
<!-- Node11&#45;&gt;Node15 -->
<g id="edge15" class="edge">
<title>Node11&#45;&gt;Node15</title>
<path fill="none" stroke="midnightblue" d="M872.7,-202.81C885.6,-194.43 900.57,-184.6 914,-175.5 930.64,-164.23 932.72,-157.86 951,-149.5 965.06,-143.07 981.1,-138.2 995.99,-134.58"/>
<polygon fill="midnightblue" stroke="midnightblue" points="870.63,-199.98 864.14,-208.35 874.43,-205.86 870.63,-199.98"/>
</g>
<!-- Node17 -->
<g id="node17" class="node">
<title>Node17</title>
<g id="a_node17"><a xlink:href="classTorusManifold.html" target="_top" xlink:title=" ">
<polygon fill="white" stroke="black" points="992.5,-72 992.5,-91 1103.5,-91 1103.5,-72 992.5,-72"/>
<text text-anchor="middle" x="1048" y="-79" font-family="Helvetica,sans-Serif" font-size="10.00">TorusManifold&lt; dim &gt;</text>
</a>
</g>
</g>
<!-- Node16&#45;&gt;Node17 -->
<g id="edge17" class="edge">
<title>Node16&#45;&gt;Node17</title>
<path fill="none" stroke="midnightblue" d="M877.3,-131.84C898.38,-121.26 925.62,-108.74 951,-100.5 964.17,-96.22 978.68,-92.75 992.35,-89.99"/>
<polygon fill="midnightblue" stroke="midnightblue" points="875.7,-128.73 868.37,-136.39 878.87,-134.97 875.7,-128.73"/>
</g>
<!-- Node19 -->
<g id="node19" class="node">
<title>Node19</title>
<g id="a_node19"><a xlink:href="classTensorProductManifold.html" target="_top" xlink:title="Tensor product manifold of two ChartManifolds.">
<polygon fill="white" stroke="black" points="979,-0.5 979,-52.5 1117,-52.5 1117,-0.5 979,-0.5"/>
<text text-anchor="start" x="987" y="-40.5" font-family="Helvetica,sans-Serif" font-size="10.00">TensorProductManifold</text>
<text text-anchor="start" x="987" y="-29.5" font-family="Helvetica,sans-Serif" font-size="10.00">&lt; dim, dim_A, spacedim</text>
<text text-anchor="start" x="987" y="-18.5" font-family="Helvetica,sans-Serif" font-size="10.00">_A, chartdim_A, dim_B,</text>
<text text-anchor="middle" x="1048" y="-7.5" font-family="Helvetica,sans-Serif" font-size="10.00"> spacedim_B, chartdim_B &gt;</text>
</a>
</g>
</g>
<!-- Node18&#45;&gt;Node19 -->
<g id="edge19" class="edge">
<title>Node18&#45;&gt;Node19</title>
<path fill="none" stroke="midnightblue" d="M924.17,-40.78C942.35,-38.66 961.37,-36.45 978.87,-34.42"/>
<polygon fill="midnightblue" stroke="midnightblue" points="923.71,-37.31 914.18,-41.94 924.51,-44.26 923.71,-37.31"/>
</g>
</g>
</svg>
