<?xml version="1.0" encoding="UTF-8" standalone="no"?>
<!DOCTYPE svg PUBLIC "-//W3C//DTD SVG 1.1//EN"
 "http://www.w3.org/Graphics/SVG/1.1/DTD/svg11.dtd">
<!-- Generated by graphviz version 2.47.1 (20210417.1919)
 -->
<!-- Title: BlockMatrixBase&lt; MatrixType &gt; Pages: 1 -->
<svg width="789pt" height="137pt"
 viewBox="0.00 0.00 789.00 137.00" xmlns="http://www.w3.org/2000/svg" xmlns:xlink="http://www.w3.org/1999/xlink">
<g id="graph0" class="graph" transform="scale(1 1) rotate(0) translate(4 133)">
<title>BlockMatrixBase&lt; MatrixType &gt;</title>
<polygon fill="white" stroke="transparent" points="-4,4 -4,-133 785,-133 785,4 -4,4"/>
<!-- Node1 -->
<g id="node1" class="node">
<title>Node1</title>
<g id="a_node1"><a xlink:title=" ">
<polygon fill="#bfbfbf" stroke="black" points="103,-31 103,-50 260,-50 260,-31 103,-31"/>
<text text-anchor="middle" x="181.5" y="-38" font-family="Helvetica,sans-Serif" font-size="10.00">BlockMatrixBase&lt; MatrixType &gt;</text>
</a>
</g>
</g>
<!-- Node3 -->
<g id="node3" class="node">
<title>Node3</title>
<g id="a_node3"><a xlink:href="classBlockMatrixBase.html" target="_top" xlink:title=" ">
<polygon fill="white" stroke="black" points="426,-55 426,-74 593,-74 593,-55 426,-55"/>
<text text-anchor="middle" x="509.5" y="-62" font-family="Helvetica,sans-Serif" font-size="10.00">BlockMatrixBase&lt; SparseMatrix &gt;</text>
</a>
</g>
</g>
<!-- Node1&#45;&gt;Node3 -->
<g id="edge2" class="edge">
<title>Node1&#45;&gt;Node3</title>
<path fill="none" stroke="orange" stroke-dasharray="5,2" d="M270.3,-46.96C318.62,-50.52 378.23,-54.91 425.73,-58.41"/>
<polygon fill="orange" stroke="orange" points="270.4,-43.46 260.17,-46.22 269.89,-50.44 270.4,-43.46"/>
<text text-anchor="middle" x="343" y="-60.5" font-family="Helvetica,sans-Serif" font-size="10.00"> &lt; SparseMatrix &gt;</text>
</g>
<!-- Node6 -->
<g id="node6" class="node">
<title>Node6</title>
<g id="a_node6"><a xlink:href="classBlockMatrixBase.html" target="_top" xlink:title=" ">
<polygon fill="white" stroke="black" points="430.5,-3.5 430.5,-33.5 588.5,-33.5 588.5,-3.5 430.5,-3.5"/>
<text text-anchor="start" x="438.5" y="-21.5" font-family="Helvetica,sans-Serif" font-size="10.00">BlockMatrixBase&lt; SparseMatrix</text>
<text text-anchor="middle" x="509.5" y="-10.5" font-family="Helvetica,sans-Serif" font-size="10.00">&lt; number &gt; &gt;</text>
</a>
</g>
</g>
<!-- Node1&#45;&gt;Node6 -->
<g id="edge5" class="edge">
<title>Node1&#45;&gt;Node6</title>
<path fill="none" stroke="orange" stroke-dasharray="5,2" d="M256.13,-29.76C263.51,-28.9 270.89,-28.12 278,-27.5 328.67,-23.07 385.79,-20.82 430.5,-19.68"/>
<polygon fill="orange" stroke="orange" points="255.61,-26.29 246.1,-30.97 256.45,-33.24 255.61,-26.29"/>
<text text-anchor="middle" x="343" y="-30.5" font-family="Helvetica,sans-Serif" font-size="10.00"> &lt; SparseMatrix&lt; number &gt; &gt;</text>
</g>
<!-- Node2 -->
<g id="node2" class="node">
<title>Node2</title>
<g id="a_node2"><a xlink:href="classSubscriptor.html" target="_top" xlink:title=" ">
<polygon fill="white" stroke="black" points="0,-31 0,-50 66,-50 66,-31 0,-31"/>
<text text-anchor="middle" x="33" y="-38" font-family="Helvetica,sans-Serif" font-size="10.00">Subscriptor</text>
</a>
</g>
</g>
<!-- Node2&#45;&gt;Node1 -->
<g id="edge1" class="edge">
<title>Node2&#45;&gt;Node1</title>
<path fill="none" stroke="midnightblue" d="M76.34,-40.5C84.69,-40.5 93.7,-40.5 102.81,-40.5"/>
<polygon fill="midnightblue" stroke="midnightblue" points="76.15,-37 66.15,-40.5 76.15,-44 76.15,-37"/>
</g>
<!-- Node4 -->
<g id="node4" class="node">
<title>Node4</title>
<g id="a_node4"><a xlink:href="classPETScWrappers_1_1MPI_1_1BlockSparseMatrix.html" target="_top" xlink:title=" ">
<polygon fill="white" stroke="black" points="649,-98.5 649,-128.5 762,-128.5 762,-98.5 649,-98.5"/>
<text text-anchor="start" x="657" y="-116.5" font-family="Helvetica,sans-Serif" font-size="10.00">PETScWrappers::MPI</text>
<text text-anchor="middle" x="705.5" y="-105.5" font-family="Helvetica,sans-Serif" font-size="10.00">::BlockSparseMatrix</text>
</a>
</g>
</g>
<!-- Node3&#45;&gt;Node4 -->
<g id="edge3" class="edge">
<title>Node3&#45;&gt;Node4</title>
<path fill="none" stroke="midnightblue" d="M558.11,-76.53C585.5,-83.44 620.06,-92.17 648.73,-99.41"/>
<polygon fill="midnightblue" stroke="midnightblue" points="558.92,-73.12 548.37,-74.06 557.2,-79.91 558.92,-73.12"/>
</g>
<!-- Node5 -->
<g id="node5" class="node">
<title>Node5</title>
<g id="a_node5"><a xlink:href="classTrilinosWrappers_1_1BlockSparseMatrix.html" target="_top" xlink:title=" ">
<polygon fill="white" stroke="black" points="630,-49.5 630,-79.5 781,-79.5 781,-49.5 630,-49.5"/>
<text text-anchor="start" x="638" y="-67.5" font-family="Helvetica,sans-Serif" font-size="10.00">TrilinosWrappers::BlockSparse</text>
<text text-anchor="middle" x="705.5" y="-56.5" font-family="Helvetica,sans-Serif" font-size="10.00">Matrix</text>
</a>
</g>
</g>
<!-- Node3&#45;&gt;Node5 -->
<g id="edge4" class="edge">
<title>Node3&#45;&gt;Node5</title>
<path fill="none" stroke="midnightblue" d="M603.09,-64.5C612.01,-64.5 620.98,-64.5 629.7,-64.5"/>
<polygon fill="midnightblue" stroke="midnightblue" points="603.05,-61 593.05,-64.5 603.05,-68 603.05,-61"/>
</g>
<!-- Node7 -->
<g id="node7" class="node">
<title>Node7</title>
<g id="a_node7"><a xlink:href="classBlockSparseMatrix.html" target="_top" xlink:title=" ">
<polygon fill="white" stroke="black" points="653,-0.5 653,-30.5 758,-30.5 758,-0.5 653,-0.5"/>
<text text-anchor="start" x="661" y="-18.5" font-family="Helvetica,sans-Serif" font-size="10.00">BlockSparseMatrix&lt;</text>
<text text-anchor="middle" x="705.5" y="-7.5" font-family="Helvetica,sans-Serif" font-size="10.00"> number &gt;</text>
</a>
</g>
</g>
<!-- Node6&#45;&gt;Node7 -->
<g id="edge6" class="edge">
<title>Node6&#45;&gt;Node7</title>
<path fill="none" stroke="midnightblue" d="M598.76,-17.14C617.23,-16.85 636.11,-16.56 652.72,-16.3"/>
<polygon fill="midnightblue" stroke="midnightblue" points="598.51,-13.64 588.57,-17.29 598.62,-20.64 598.51,-13.64"/>
</g>
</g>
</svg>
