<?xml version="1.0" encoding="UTF-8" standalone="no"?>
<!DOCTYPE svg PUBLIC "-//W3C//DTD SVG 1.1//EN"
 "http://www.w3.org/Graphics/SVG/1.1/DTD/svg11.dtd">
<!-- Generated by graphviz version 2.47.1 (20210417.1919)
 -->
<!-- Title: ExceptionBase Pages: 1 -->
<svg width="402pt" height="214pt"
 viewBox="0.00 0.00 402.00 213.50" xmlns="http://www.w3.org/2000/svg" xmlns:xlink="http://www.w3.org/1999/xlink">
<g id="graph0" class="graph" transform="scale(1 1) rotate(0) translate(4 209.5)">
<title>ExceptionBase</title>
<polygon fill="white" stroke="transparent" points="-4,4 -4,-209.5 398,-209.5 398,4 -4,4"/>
<!-- Node1 -->
<g id="node1" class="node">
<title>Node1</title>
<g id="a_node1"><a xlink:title=" ">
<polygon fill="#bfbfbf" stroke="black" points="114,-104 114,-123 197,-123 197,-104 114,-104"/>
<text text-anchor="middle" x="155.5" y="-111" font-family="Helvetica,sans-Serif" font-size="10.00">ExceptionBase</text>
</a>
</g>
</g>
<!-- Node3 -->
<g id="node3" class="node">
<title>Node3</title>
<g id="a_node3"><a xlink:href="classLACExceptions_1_1ExcPETScError.html" target="_top" xlink:title=" ">
<polygon fill="white" stroke="black" points="233,-186 233,-205 394,-205 394,-186 233,-186"/>
<text text-anchor="middle" x="313.5" y="-193" font-family="Helvetica,sans-Serif" font-size="10.00">LACExceptions::ExcPETScError</text>
</a>
</g>
</g>
<!-- Node1&#45;&gt;Node3 -->
<g id="edge2" class="edge">
<title>Node1&#45;&gt;Node3</title>
<path fill="none" stroke="midnightblue" d="M172.56,-130.51C187.04,-144.86 209.61,-164.86 233,-176.5 240.75,-180.36 249.32,-183.45 257.88,-185.94"/>
<polygon fill="midnightblue" stroke="midnightblue" points="174.9,-127.89 165.39,-123.21 169.9,-132.8 174.9,-127.89"/>
</g>
<!-- Node4 -->
<g id="node4" class="node">
<title>Node4</title>
<g id="a_node4"><a xlink:href="classSolverControl_1_1NoConvergence.html" target="_top" xlink:title=" ">
<polygon fill="white" stroke="black" points="237.5,-148 237.5,-167 389.5,-167 389.5,-148 237.5,-148"/>
<text text-anchor="middle" x="313.5" y="-155" font-family="Helvetica,sans-Serif" font-size="10.00">SolverControl::NoConvergence</text>
</a>
</g>
</g>
<!-- Node1&#45;&gt;Node4 -->
<g id="edge3" class="edge">
<title>Node1&#45;&gt;Node4</title>
<path fill="none" stroke="midnightblue" d="M193.56,-126.28C206.03,-130.4 220.06,-134.84 233,-138.5 244.88,-141.86 257.87,-145.12 269.84,-147.98"/>
<polygon fill="midnightblue" stroke="midnightblue" points="194.55,-122.92 183.95,-123.07 192.33,-129.56 194.55,-122.92"/>
</g>
<!-- Node5 -->
<g id="node5" class="node">
<title>Node5</title>
<g id="a_node5"><a xlink:href="classStandardExceptions_1_1ExcMPI.html" target="_top" xlink:title=" ">
<polygon fill="white" stroke="black" points="261.5,-98.5 261.5,-128.5 365.5,-128.5 365.5,-98.5 261.5,-98.5"/>
<text text-anchor="start" x="269.5" y="-116.5" font-family="Helvetica,sans-Serif" font-size="10.00">StandardExceptions</text>
<text text-anchor="middle" x="313.5" y="-105.5" font-family="Helvetica,sans-Serif" font-size="10.00">::ExcMPI</text>
</a>
</g>
</g>
<!-- Node1&#45;&gt;Node5 -->
<g id="edge4" class="edge">
<title>Node1&#45;&gt;Node5</title>
<path fill="none" stroke="midnightblue" d="M207.51,-113.5C224.74,-113.5 243.97,-113.5 261.21,-113.5"/>
<polygon fill="midnightblue" stroke="midnightblue" points="207.08,-110 197.08,-113.5 207.08,-117 207.08,-110"/>
</g>
<!-- Node6 -->
<g id="node6" class="node">
<title>Node6</title>
<g id="a_node6"><a xlink:href="structTriangulation_1_1DistortedCellList.html" target="_top" xlink:title=" ">
<polygon fill="white" stroke="black" points="239,-49.5 239,-79.5 388,-79.5 388,-49.5 239,-49.5"/>
<text text-anchor="start" x="247" y="-67.5" font-family="Helvetica,sans-Serif" font-size="10.00">Triangulation&lt; dim,</text>
<text text-anchor="middle" x="313.5" y="-56.5" font-family="Helvetica,sans-Serif" font-size="10.00"> spacedim &gt;::DistortedCellList</text>
</a>
</g>
</g>
<!-- Node1&#45;&gt;Node6 -->
<g id="edge5" class="edge">
<title>Node1&#45;&gt;Node6</title>
<path fill="none" stroke="midnightblue" d="M194.98,-100.74C207.13,-96.76 220.61,-92.39 233,-88.5 242.35,-85.56 252.35,-82.49 261.98,-79.56"/>
<polygon fill="midnightblue" stroke="midnightblue" points="193.56,-97.52 185.15,-103.97 195.74,-104.17 193.56,-97.52"/>
</g>
<!-- Node7 -->
<g id="node7" class="node">
<title>Node7</title>
<g id="a_node7"><a xlink:href="classinternal_1_1NoPermutation.html" target="_top" xlink:title=" ">
<polygon fill="white" stroke="black" points="254,-0.5 254,-30.5 373,-30.5 373,-0.5 254,-0.5"/>
<text text-anchor="start" x="262" y="-18.5" font-family="Helvetica,sans-Serif" font-size="10.00">internal::NoPermutation</text>
<text text-anchor="middle" x="313.5" y="-7.5" font-family="Helvetica,sans-Serif" font-size="10.00">&lt; T, N &gt;</text>
</a>
</g>
</g>
<!-- Node1&#45;&gt;Node7 -->
<g id="edge6" class="edge">
<title>Node1&#45;&gt;Node7</title>
<path fill="none" stroke="midnightblue" d="M170.38,-95.89C184.47,-79.13 207.76,-54.32 233,-39.5 239.46,-35.7 246.58,-32.46 253.82,-29.7"/>
<polygon fill="midnightblue" stroke="midnightblue" points="167.51,-93.87 163.88,-103.83 172.92,-98.31 167.51,-93.87"/>
</g>
<!-- Node2 -->
<g id="node2" class="node">
<title>Node2</title>
<g id="a_node2"><a xlink:title=" ">
<polygon fill="white" stroke="#bfbfbf" points="0,-104 0,-123 78,-123 78,-104 0,-104"/>
<text text-anchor="middle" x="39" y="-111" font-family="Helvetica,sans-Serif" font-size="10.00">std::exception</text>
</a>
</g>
</g>
<!-- Node2&#45;&gt;Node1 -->
<g id="edge1" class="edge">
<title>Node2&#45;&gt;Node1</title>
<path fill="none" stroke="midnightblue" d="M88.29,-113.5C96.78,-113.5 105.54,-113.5 113.79,-113.5"/>
<polygon fill="midnightblue" stroke="midnightblue" points="88.13,-110 78.13,-113.5 88.13,-117 88.13,-110"/>
</g>
</g>
</svg>
