<?xml version="1.0" encoding="UTF-8" standalone="no"?>
<!DOCTYPE svg PUBLIC "-//W3C//DTD SVG 1.1//EN"
 "http://www.w3.org/Graphics/SVG/1.1/DTD/svg11.dtd">
<!-- Generated by graphviz version 2.47.1 (20210417.1919)
 -->
<!-- Title: hp::FEValuesBase&lt; dim, q_dim, FEValuesType &gt; Pages: 1 -->
<svg width="567pt" height="110pt"
 viewBox="0.00 0.00 567.00 110.00" xmlns="http://www.w3.org/2000/svg" xmlns:xlink="http://www.w3.org/1999/xlink">
<g id="graph0" class="graph" transform="scale(1 1) rotate(0) translate(4 106)">
<title>hp::FEValuesBase&lt; dim, q_dim, FEValuesType &gt;</title>
<polygon fill="white" stroke="transparent" points="-4,4 -4,-106 563,-106 563,4 -4,4"/>
<!-- Node1 -->
<g id="node1" class="node">
<title>Node1</title>
<g id="a_node1"><a xlink:title=" ">
<polygon fill="#bfbfbf" stroke="black" points="0,-35 0,-65 125,-65 125,-35 0,-35"/>
<text text-anchor="start" x="8" y="-53" font-family="Helvetica,sans-Serif" font-size="10.00">hp::FEValuesBase&lt; dim,</text>
<text text-anchor="middle" x="62.5" y="-42" font-family="Helvetica,sans-Serif" font-size="10.00"> q_dim, FEValuesType &gt;</text>
</a>
</g>
</g>
<!-- Node2 -->
<g id="node2" class="node">
<title>Node2</title>
<g id="a_node2"><a xlink:href="classhp_1_1FEValuesBase.html" target="_top" xlink:title=" ">
<polygon fill="white" stroke="black" points="272,-60.5 272,-101.5 397,-101.5 397,-60.5 272,-60.5"/>
<text text-anchor="start" x="280" y="-89.5" font-family="Helvetica,sans-Serif" font-size="10.00">hp::FEValuesBase&lt; dim,</text>
<text text-anchor="start" x="280" y="-78.5" font-family="Helvetica,sans-Serif" font-size="10.00"> dim, ::FEValues&lt; dim,</text>
<text text-anchor="middle" x="334.5" y="-67.5" font-family="Helvetica,sans-Serif" font-size="10.00"> dim &gt; &gt;</text>
</a>
</g>
</g>
<!-- Node1&#45;&gt;Node2 -->
<g id="edge1" class="edge">
<title>Node1&#45;&gt;Node2</title>
<path fill="none" stroke="orange" stroke-dasharray="5,2" d="M135.11,-58.22C177.64,-63.1 231.02,-69.23 271.69,-73.9"/>
<polygon fill="orange" stroke="orange" points="135.44,-54.74 125.11,-57.07 134.64,-61.69 135.44,-54.74"/>
<text text-anchor="start" x="146.5" y="-85" font-family="Helvetica,sans-Serif" font-size="10.00"> &lt; dim, dim, ::FEValues</text>
<text text-anchor="middle" x="198.5" y="-74" font-family="Helvetica,sans-Serif" font-size="10.00">&lt; dim, dim &gt; &gt;</text>
</g>
<!-- Node4 -->
<g id="node4" class="node">
<title>Node4</title>
<g id="a_node4"><a xlink:href="classhp_1_1FEValuesBase.html" target="_top" xlink:title=" ">
<polygon fill="white" stroke="black" points="272,-0.5 272,-41.5 397,-41.5 397,-0.5 272,-0.5"/>
<text text-anchor="start" x="280" y="-29.5" font-family="Helvetica,sans-Serif" font-size="10.00">hp::FEValuesBase&lt; dim,</text>
<text text-anchor="start" x="280" y="-18.5" font-family="Helvetica,sans-Serif" font-size="10.00"> dim &#45; 1, ::FEFaceValues</text>
<text text-anchor="middle" x="334.5" y="-7.5" font-family="Helvetica,sans-Serif" font-size="10.00">&lt; dim, dim &gt; &gt;</text>
</a>
</g>
</g>
<!-- Node1&#45;&gt;Node4 -->
<g id="edge3" class="edge">
<title>Node1&#45;&gt;Node4</title>
<path fill="none" stroke="orange" stroke-dasharray="5,2" d="M135.38,-34.13C137.95,-33.73 140.49,-33.35 143,-33 185.84,-27.1 234.51,-24.1 271.93,-22.57"/>
<polygon fill="orange" stroke="orange" points="134.67,-30.7 125.41,-35.84 135.85,-37.6 134.67,-30.7"/>
<text text-anchor="start" x="143" y="-47" font-family="Helvetica,sans-Serif" font-size="10.00"> &lt; dim, dim &#45; 1, ::FEFace</text>
<text text-anchor="middle" x="198.5" y="-36" font-family="Helvetica,sans-Serif" font-size="10.00">Values&lt; dim, dim &gt; &gt;</text>
</g>
<!-- Node3 -->
<g id="node3" class="node">
<title>Node3</title>
<g id="a_node3"><a xlink:href="classhp_1_1FEValues.html" target="_top" xlink:title=" ">
<polygon fill="white" stroke="black" points="445,-66 445,-96 548,-96 548,-66 445,-66"/>
<text text-anchor="start" x="453" y="-84" font-family="Helvetica,sans-Serif" font-size="10.00">hp::FEValues&lt; dim,</text>
<text text-anchor="middle" x="496.5" y="-73" font-family="Helvetica,sans-Serif" font-size="10.00"> spacedim &gt;</text>
</a>
</g>
</g>
<!-- Node2&#45;&gt;Node3 -->
<g id="edge2" class="edge">
<title>Node2&#45;&gt;Node3</title>
<path fill="none" stroke="midnightblue" d="M407.43,-81C420.09,-81 433.02,-81 444.93,-81"/>
<polygon fill="midnightblue" stroke="midnightblue" points="407.36,-77.5 397.36,-81 407.36,-84.5 407.36,-77.5"/>
</g>
<!-- Node5 -->
<g id="node5" class="node">
<title>Node5</title>
<g id="a_node5"><a xlink:href="classhp_1_1FEFaceValues.html" target="_top" xlink:title=" ">
<polygon fill="white" stroke="black" points="434,-6 434,-36 559,-36 559,-6 434,-6"/>
<text text-anchor="start" x="442" y="-24" font-family="Helvetica,sans-Serif" font-size="10.00">hp::FEFaceValues&lt; dim,</text>
<text text-anchor="middle" x="496.5" y="-13" font-family="Helvetica,sans-Serif" font-size="10.00"> spacedim &gt;</text>
</a>
</g>
</g>
<!-- Node4&#45;&gt;Node5 -->
<g id="edge4" class="edge">
<title>Node4&#45;&gt;Node5</title>
<path fill="none" stroke="midnightblue" d="M407.56,-21C416.32,-21 425.21,-21 433.8,-21"/>
<polygon fill="midnightblue" stroke="midnightblue" points="407.36,-17.5 397.36,-21 407.36,-24.5 407.36,-17.5"/>
</g>
</g>
</svg>
