<?xml version="1.0" encoding="UTF-8" standalone="no"?>
<!DOCTYPE svg PUBLIC "-//W3C//DTD SVG 1.1//EN"
 "http://www.w3.org/Graphics/SVG/1.1/DTD/svg11.dtd">
<!-- Generated by graphviz version 2.47.1 (20210417.1919)
 -->
<!-- Title: FEEvaluationBase&lt; dim, n_components_, Number, is_face, VectorizedArrayType &gt; Pages: 1 -->
<svg width="1653pt" height="407pt"
 viewBox="0.00 0.00 1653.00 407.16" xmlns="http://www.w3.org/2000/svg" xmlns:xlink="http://www.w3.org/1999/xlink">
<g id="graph0" class="graph" transform="scale(1 1) rotate(0) translate(4 403.16)">
<title>FEEvaluationBase&lt; dim, n_components_, Number, is_face, VectorizedArrayType &gt;</title>
<polygon fill="white" stroke="transparent" points="-4,4 -4,-403.16 1649,-403.16 1649,4 -4,4"/>
<!-- Node1 -->
<g id="node1" class="node">
<title>Node1</title>
<g id="a_node1"><a xlink:title=" ">
<polygon fill="#bfbfbf" stroke="black" points="481,-169.5 481,-210.5 638,-210.5 638,-169.5 481,-169.5"/>
<text text-anchor="start" x="489" y="-198.5" font-family="Helvetica,sans-Serif" font-size="10.00">FEEvaluationBase&lt; dim,</text>
<text text-anchor="start" x="489" y="-187.5" font-family="Helvetica,sans-Serif" font-size="10.00"> n_components_, Number,</text>
<text text-anchor="middle" x="559.5" y="-176.5" font-family="Helvetica,sans-Serif" font-size="10.00"> is_face, VectorizedArrayType &gt;</text>
</a>
</g>
</g>
<!-- Node4 -->
<g id="node4" class="node">
<title>Node4</title>
<g id="a_node4"><a xlink:href="classFEEvaluationAccess.html" target="_top" xlink:title=" ">
<polygon fill="white" stroke="black" points="1315,-297 1315,-349 1456,-349 1456,-297 1315,-297"/>
<text text-anchor="start" x="1323" y="-337" font-family="Helvetica,sans-Serif" font-size="10.00">FEEvaluationAccess</text>
<text text-anchor="start" x="1323" y="-326" font-family="Helvetica,sans-Serif" font-size="10.00">&lt; dim, n_components</text>
<text text-anchor="start" x="1323" y="-315" font-family="Helvetica,sans-Serif" font-size="10.00">_, Number, false, Vectorized</text>
<text text-anchor="middle" x="1385.5" y="-304" font-family="Helvetica,sans-Serif" font-size="10.00">ArrayType &gt;</text>
</a>
</g>
</g>
<!-- Node1&#45;&gt;Node4 -->
<g id="edge3" class="edge">
<title>Node1&#45;&gt;Node4</title>
<path fill="none" stroke="midnightblue" d="M572,-220.04C586.29,-252.79 614.04,-303.78 656,-328 868.78,-450.82 1178.09,-384.37 1314.93,-345.17"/>
<polygon fill="midnightblue" stroke="midnightblue" points="575.1,-218.37 568,-210.5 568.65,-221.08 575.1,-218.37"/>
</g>
<!-- Node6 -->
<g id="node6" class="node">
<title>Node6</title>
<g id="a_node6"><a xlink:href="classFEEvaluationAccess.html" target="_top" xlink:title=" ">
<polygon fill="white" stroke="black" points="1313,-209.5 1313,-250.5 1458,-250.5 1458,-209.5 1313,-209.5"/>
<text text-anchor="start" x="1321" y="-238.5" font-family="Helvetica,sans-Serif" font-size="10.00">FEEvaluationAccess</text>
<text text-anchor="start" x="1321" y="-227.5" font-family="Helvetica,sans-Serif" font-size="10.00">&lt; dim, 1, double, true,</text>
<text text-anchor="middle" x="1385.5" y="-216.5" font-family="Helvetica,sans-Serif" font-size="10.00"> VectorizedArray&lt; double &gt; &gt;</text>
</a>
</g>
</g>
<!-- Node1&#45;&gt;Node6 -->
<g id="edge5" class="edge">
<title>Node1&#45;&gt;Node6</title>
<path fill="none" stroke="midnightblue" d="M648.16,-191.3C763.05,-193.35 970.76,-198.27 1148,-209 1203.44,-212.36 1266.04,-218 1312.91,-222.59"/>
<polygon fill="midnightblue" stroke="midnightblue" points="648.08,-187.8 638.02,-191.12 647.96,-194.79 648.08,-187.8"/>
</g>
<!-- Node8 -->
<g id="node8" class="node">
<title>Node8</title>
<g id="a_node8"><a xlink:href="classFEEvaluationBase.html" target="_top" xlink:title=" ">
<polygon fill="white" stroke="black" points="825,-218.5 825,-259.5 944,-259.5 944,-218.5 825,-218.5"/>
<text text-anchor="start" x="833" y="-247.5" font-family="Helvetica,sans-Serif" font-size="10.00">FEEvaluationBase&lt; 1,</text>
<text text-anchor="start" x="833" y="-236.5" font-family="Helvetica,sans-Serif" font-size="10.00"> 1, Number, is_face,</text>
<text text-anchor="middle" x="884.5" y="-225.5" font-family="Helvetica,sans-Serif" font-size="10.00"> VectorizedArrayType &gt;</text>
</a>
</g>
</g>
<!-- Node1&#45;&gt;Node8 -->
<g id="edge7" class="edge">
<title>Node1&#45;&gt;Node8</title>
<path fill="none" stroke="orange" stroke-dasharray="5,2" d="M648.21,-203.31C704.31,-211.82 775.54,-222.62 824.86,-230.1"/>
<polygon fill="orange" stroke="orange" points="648.69,-199.84 638.28,-201.8 647.64,-206.76 648.69,-199.84"/>
<text text-anchor="start" x="661.5" y="-240" font-family="Helvetica,sans-Serif" font-size="10.00"> &lt; 1, 1, Number, is</text>
<text text-anchor="middle" x="726.5" y="-229" font-family="Helvetica,sans-Serif" font-size="10.00">_face, VectorizedArrayType &gt;</text>
</g>
<!-- Node10 -->
<g id="node10" class="node">
<title>Node10</title>
<g id="a_node10"><a xlink:href="classFEEvaluationBase.html" target="_top" xlink:title=" ">
<polygon fill="white" stroke="black" points="819,-279 819,-331 950,-331 950,-279 819,-279"/>
<text text-anchor="start" x="827" y="-319" font-family="Helvetica,sans-Serif" font-size="10.00">FEEvaluationBase&lt; dim,</text>
<text text-anchor="start" x="827" y="-308" font-family="Helvetica,sans-Serif" font-size="10.00"> n_components_, Number,</text>
<text text-anchor="start" x="827" y="-297" font-family="Helvetica,sans-Serif" font-size="10.00"> is_face, VectorizedArray</text>
<text text-anchor="middle" x="884.5" y="-286" font-family="Helvetica,sans-Serif" font-size="10.00">&lt; Number &gt; &gt;</text>
</a>
</g>
</g>
<!-- Node1&#45;&gt;Node10 -->
<g id="edge9" class="edge">
<title>Node1&#45;&gt;Node10</title>
<path fill="none" stroke="orange" stroke-dasharray="5,2" d="M594.86,-216.48C612.35,-228.84 634.43,-242.82 656,-252 708.61,-274.39 772.29,-288.2 818.87,-296.08"/>
<polygon fill="orange" stroke="orange" points="596.82,-213.58 586.67,-210.57 592.73,-219.25 596.82,-213.58"/>
<text text-anchor="start" x="659" y="-316" font-family="Helvetica,sans-Serif" font-size="10.00"> &lt; dim, n_components</text>
<text text-anchor="start" x="659" y="-305" font-family="Helvetica,sans-Serif" font-size="10.00">_, Number, is_face,</text>
<text text-anchor="middle" x="726.5" y="-294" font-family="Helvetica,sans-Serif" font-size="10.00"> VectorizedArray&lt; Number &gt; &gt;</text>
</g>
<!-- Node12 -->
<g id="node12" class="node">
<title>Node12</title>
<g id="a_node12"><a xlink:href="classFEEvaluationBase.html" target="_top" xlink:title=" ">
<polygon fill="white" stroke="black" points="822,-120.5 822,-161.5 947,-161.5 947,-120.5 822,-120.5"/>
<text text-anchor="start" x="830" y="-149.5" font-family="Helvetica,sans-Serif" font-size="10.00">FEEvaluationBase&lt; dim,</text>
<text text-anchor="start" x="830" y="-138.5" font-family="Helvetica,sans-Serif" font-size="10.00"> 1, Number, is_face,</text>
<text text-anchor="middle" x="884.5" y="-127.5" font-family="Helvetica,sans-Serif" font-size="10.00"> VectorizedArrayType &gt;</text>
</a>
</g>
</g>
<!-- Node1&#45;&gt;Node12 -->
<g id="edge13" class="edge">
<title>Node1&#45;&gt;Node12</title>
<path fill="none" stroke="orange" stroke-dasharray="5,2" d="M616.36,-165.72C629.17,-161.06 642.88,-156.78 656,-154 711.15,-142.32 775.39,-139.61 821.52,-139.51"/>
<polygon fill="orange" stroke="orange" points="614.89,-162.53 606.77,-169.33 617.36,-169.08 614.89,-162.53"/>
<text text-anchor="start" x="661.5" y="-168" font-family="Helvetica,sans-Serif" font-size="10.00"> &lt; dim, 1, Number, is</text>
<text text-anchor="middle" x="726.5" y="-157" font-family="Helvetica,sans-Serif" font-size="10.00">_face, VectorizedArrayType &gt;</text>
</g>
<!-- Node14 -->
<g id="node14" class="node">
<title>Node14</title>
<g id="a_node14"><a xlink:href="classFEEvaluationBase.html" target="_top" xlink:title=" ">
<polygon fill="white" stroke="black" points="815,-60.5 815,-101.5 954,-101.5 954,-60.5 815,-60.5"/>
<text text-anchor="start" x="823" y="-89.5" font-family="Helvetica,sans-Serif" font-size="10.00">FEEvaluationBase&lt; dim,</text>
<text text-anchor="start" x="823" y="-78.5" font-family="Helvetica,sans-Serif" font-size="10.00"> 1, double, false, Vectorized</text>
<text text-anchor="middle" x="884.5" y="-67.5" font-family="Helvetica,sans-Serif" font-size="10.00">Array&lt; double &gt; &gt;</text>
</a>
</g>
</g>
<!-- Node1&#45;&gt;Node14 -->
<g id="edge15" class="edge">
<title>Node1&#45;&gt;Node14</title>
<path fill="none" stroke="orange" stroke-dasharray="5,2" d="M587.19,-162.3C605.04,-145.53 629.96,-125.26 656,-114 706.37,-92.22 768.26,-84.32 814.77,-81.67"/>
<polygon fill="orange" stroke="orange" points="584.76,-159.78 579.99,-169.24 589.62,-164.82 584.76,-159.78"/>
<text text-anchor="start" x="662" y="-128" font-family="Helvetica,sans-Serif" font-size="10.00"> &lt; dim, 1, double, false,</text>
<text text-anchor="middle" x="726.5" y="-117" font-family="Helvetica,sans-Serif" font-size="10.00"> VectorizedArray&lt; double &gt; &gt;</text>
</g>
<!-- Node15 -->
<g id="node15" class="node">
<title>Node15</title>
<g id="a_node15"><a xlink:href="classFEEvaluationBase.html" target="_top" xlink:title=" ">
<polygon fill="white" stroke="black" points="822,-0.5 822,-41.5 947,-41.5 947,-0.5 822,-0.5"/>
<text text-anchor="start" x="830" y="-29.5" font-family="Helvetica,sans-Serif" font-size="10.00">FEEvaluationBase&lt; dim,</text>
<text text-anchor="start" x="830" y="-18.5" font-family="Helvetica,sans-Serif" font-size="10.00"> dim, Number, is_face,</text>
<text text-anchor="middle" x="884.5" y="-7.5" font-family="Helvetica,sans-Serif" font-size="10.00"> VectorizedArrayType &gt;</text>
</a>
</g>
</g>
<!-- Node1&#45;&gt;Node15 -->
<g id="edge16" class="edge">
<title>Node1&#45;&gt;Node15</title>
<path fill="none" stroke="orange" stroke-dasharray="5,2" d="M573.78,-159.65C588.97,-128.77 616.9,-82.12 656,-58 705.89,-27.22 773.18,-19.55 821.62,-18.62"/>
<polygon fill="orange" stroke="orange" points="570.43,-158.54 569.3,-169.08 576.75,-161.55 570.43,-158.54"/>
<text text-anchor="start" x="656" y="-72" font-family="Helvetica,sans-Serif" font-size="10.00"> &lt; dim, dim, Number,</text>
<text text-anchor="middle" x="726.5" y="-61" font-family="Helvetica,sans-Serif" font-size="10.00"> is_face, VectorizedArrayType &gt;</text>
</g>
<!-- Node2 -->
<g id="node2" class="node">
<title>Node2</title>
<g id="a_node2"><a xlink:href="classFEEvaluationBaseData.html" target="_top" xlink:title=" ">
<polygon fill="white" stroke="black" points="293,-169.5 293,-210.5 444,-210.5 444,-169.5 293,-169.5"/>
<text text-anchor="start" x="301" y="-198.5" font-family="Helvetica,sans-Serif" font-size="10.00">FEEvaluationBaseData</text>
<text text-anchor="start" x="301" y="-187.5" font-family="Helvetica,sans-Serif" font-size="10.00">&lt; dim, Number, false,</text>
<text text-anchor="middle" x="368.5" y="-176.5" font-family="Helvetica,sans-Serif" font-size="10.00"> VectorizedArray&lt; Number &gt; &gt;</text>
</a>
</g>
</g>
<!-- Node2&#45;&gt;Node1 -->
<g id="edge1" class="edge">
<title>Node2&#45;&gt;Node1</title>
<path fill="none" stroke="midnightblue" d="M454.47,-190C463.28,-190 472.21,-190 480.93,-190"/>
<polygon fill="midnightblue" stroke="midnightblue" points="454.2,-186.5 444.2,-190 454.2,-193.5 454.2,-186.5"/>
</g>
<!-- Node3 -->
<g id="node3" class="node">
<title>Node3</title>
<g id="a_node3"><a xlink:href="classFEEvaluationBaseData.html" target="_top" xlink:title=" ">
<polygon fill="white" stroke="black" points="0,-169.5 0,-210.5 122,-210.5 122,-169.5 0,-169.5"/>
<text text-anchor="start" x="8" y="-198.5" font-family="Helvetica,sans-Serif" font-size="10.00">FEEvaluationBaseData</text>
<text text-anchor="start" x="8" y="-187.5" font-family="Helvetica,sans-Serif" font-size="10.00">&lt; dim, Number, is_face,</text>
<text text-anchor="middle" x="61" y="-176.5" font-family="Helvetica,sans-Serif" font-size="10.00"> VectorizedArrayType &gt;</text>
</a>
</g>
</g>
<!-- Node3&#45;&gt;Node2 -->
<g id="edge2" class="edge">
<title>Node3&#45;&gt;Node2</title>
<path fill="none" stroke="orange" stroke-dasharray="5,2" d="M132.37,-190C180.43,-190 244.01,-190 292.94,-190"/>
<polygon fill="orange" stroke="orange" points="132.36,-186.5 122.36,-190 132.36,-193.5 132.36,-186.5"/>
<text text-anchor="start" x="140" y="-204" font-family="Helvetica,sans-Serif" font-size="10.00"> &lt; dim, Number, false,</text>
<text text-anchor="middle" x="207.5" y="-193" font-family="Helvetica,sans-Serif" font-size="10.00"> VectorizedArray&lt; Number &gt; &gt;</text>
</g>
<!-- Node5 -->
<g id="node5" class="node">
<title>Node5</title>
<g id="a_node5"><a xlink:href="classFEEvaluation.html" target="_top" xlink:title=" ">
<polygon fill="white" stroke="black" points="1495,-297 1495,-349 1645,-349 1645,-297 1495,-297"/>
<text text-anchor="start" x="1503" y="-337" font-family="Helvetica,sans-Serif" font-size="10.00">FEEvaluation&lt; dim,</text>
<text text-anchor="start" x="1503" y="-326" font-family="Helvetica,sans-Serif" font-size="10.00"> fe_degree, n_q_points</text>
<text text-anchor="start" x="1503" y="-315" font-family="Helvetica,sans-Serif" font-size="10.00">_1d, n_components_, Number,</text>
<text text-anchor="middle" x="1570" y="-304" font-family="Helvetica,sans-Serif" font-size="10.00"> VectorizedArrayType &gt;</text>
</a>
</g>
</g>
<!-- Node4&#45;&gt;Node5 -->
<g id="edge4" class="edge">
<title>Node4&#45;&gt;Node5</title>
<path fill="none" stroke="midnightblue" d="M1466.24,-323C1475.73,-323 1485.4,-323 1494.82,-323"/>
<polygon fill="midnightblue" stroke="midnightblue" points="1466.02,-319.5 1456.02,-323 1466.02,-326.5 1466.02,-319.5"/>
</g>
<!-- Node7 -->
<g id="node7" class="node">
<title>Node7</title>
<g id="a_node7"><a xlink:href="classFEFaceEvaluation.html" target="_top" xlink:title=" ">
<polygon fill="white" stroke="black" points="1495,-204 1495,-256 1645,-256 1645,-204 1495,-204"/>
<text text-anchor="start" x="1503" y="-244" font-family="Helvetica,sans-Serif" font-size="10.00">FEFaceEvaluation&lt; dim,</text>
<text text-anchor="start" x="1503" y="-233" font-family="Helvetica,sans-Serif" font-size="10.00"> fe_degree, n_q_points</text>
<text text-anchor="start" x="1503" y="-222" font-family="Helvetica,sans-Serif" font-size="10.00">_1d, n_components_, Number,</text>
<text text-anchor="middle" x="1570" y="-211" font-family="Helvetica,sans-Serif" font-size="10.00"> VectorizedArrayType &gt;</text>
</a>
</g>
</g>
<!-- Node6&#45;&gt;Node7 -->
<g id="edge6" class="edge">
<title>Node6&#45;&gt;Node7</title>
<path fill="none" stroke="midnightblue" d="M1468.11,-230C1477.03,-230 1486.07,-230 1494.9,-230"/>
<polygon fill="midnightblue" stroke="midnightblue" points="1468.11,-226.5 1458.11,-230 1468.1,-233.5 1468.11,-226.5"/>
</g>
<!-- Node9 -->
<g id="node9" class="node">
<title>Node9</title>
<g id="a_node9"><a xlink:href="classFEEvaluationAccess_3_011_00_011_00_01Number_00_01is__face_00_01VectorizedArrayType_01_4.html" target="_top" xlink:title=" ">
<polygon fill="white" stroke="black" points="1008.5,-218.5 1008.5,-259.5 1130.5,-259.5 1130.5,-218.5 1008.5,-218.5"/>
<text text-anchor="start" x="1016.5" y="-247.5" font-family="Helvetica,sans-Serif" font-size="10.00">FEEvaluationAccess</text>
<text text-anchor="start" x="1016.5" y="-236.5" font-family="Helvetica,sans-Serif" font-size="10.00">&lt; 1, 1, Number, is_face,</text>
<text text-anchor="middle" x="1069.5" y="-225.5" font-family="Helvetica,sans-Serif" font-size="10.00"> VectorizedArrayType &gt;</text>
</a>
</g>
</g>
<!-- Node8&#45;&gt;Node9 -->
<g id="edge8" class="edge">
<title>Node8&#45;&gt;Node9</title>
<path fill="none" stroke="midnightblue" d="M954.43,-239C972.14,-239 991.05,-239 1008.29,-239"/>
<polygon fill="midnightblue" stroke="midnightblue" points="954.16,-235.5 944.16,-239 954.16,-242.5 954.16,-235.5"/>
</g>
<!-- Node11 -->
<g id="node11" class="node">
<title>Node11</title>
<g id="a_node11"><a xlink:href="classFEEvaluationAccess.html" target="_top" xlink:title=" ">
<polygon fill="white" stroke="black" points="993.5,-279 993.5,-331 1145.5,-331 1145.5,-279 993.5,-279"/>
<text text-anchor="start" x="1001.5" y="-319" font-family="Helvetica,sans-Serif" font-size="10.00">FEEvaluationAccess</text>
<text text-anchor="start" x="1001.5" y="-308" font-family="Helvetica,sans-Serif" font-size="10.00">&lt; dim, n_components</text>
<text text-anchor="start" x="1001.5" y="-297" font-family="Helvetica,sans-Serif" font-size="10.00">_, Number, is_face, Vectorized</text>
<text text-anchor="middle" x="1069.5" y="-286" font-family="Helvetica,sans-Serif" font-size="10.00">ArrayType &gt;</text>
</a>
</g>
</g>
<!-- Node10&#45;&gt;Node11 -->
<g id="edge10" class="edge">
<title>Node10&#45;&gt;Node11</title>
<path fill="none" stroke="midnightblue" d="M960.33,-305C971.21,-305 982.41,-305 993.3,-305"/>
<polygon fill="midnightblue" stroke="midnightblue" points="960.02,-301.5 950.02,-305 960.02,-308.5 960.02,-301.5"/>
</g>
<!-- Node11&#45;&gt;Node4 -->
<g id="edge11" class="edge">
<title>Node11&#45;&gt;Node4</title>
<path fill="none" stroke="orange" stroke-dasharray="5,2" d="M1155.85,-306.52C1197.8,-307.66 1249.1,-309.62 1295,-313 1301.39,-313.47 1308.03,-314.05 1314.68,-314.68"/>
<polygon fill="orange" stroke="orange" points="1155.75,-303.02 1145.67,-306.26 1155.57,-310.02 1155.75,-303.02"/>
<text text-anchor="start" x="1168" y="-338" font-family="Helvetica,sans-Serif" font-size="10.00"> &lt; dim, n_components</text>
<text text-anchor="start" x="1168" y="-327" font-family="Helvetica,sans-Serif" font-size="10.00">_, Number, false, Vectorized</text>
<text text-anchor="middle" x="1230.5" y="-316" font-family="Helvetica,sans-Serif" font-size="10.00">ArrayType &gt;</text>
</g>
<!-- Node11&#45;&gt;Node6 -->
<g id="edge12" class="edge">
<title>Node11&#45;&gt;Node6</title>
<path fill="none" stroke="orange" stroke-dasharray="5,2" d="M1155.21,-282.68C1158.85,-281.76 1162.46,-280.87 1166,-280 1214.76,-268.04 1269.86,-255.44 1312.53,-245.88"/>
<polygon fill="orange" stroke="orange" points="1154.35,-279.28 1145.51,-285.13 1156.07,-286.07 1154.35,-279.28"/>
<text text-anchor="start" x="1166" y="-294" font-family="Helvetica,sans-Serif" font-size="10.00"> &lt; dim, 1, double, true,</text>
<text text-anchor="middle" x="1230.5" y="-283" font-family="Helvetica,sans-Serif" font-size="10.00"> VectorizedArray&lt; double &gt; &gt;</text>
</g>
<!-- Node13 -->
<g id="node13" class="node">
<title>Node13</title>
<g id="a_node13"><a xlink:href="classFEEvaluationAccess_3_01dim_00_011_00_01Number_00_01is__face_00_01VectorizedArrayType_01_4.html" target="_top" xlink:title=" ">
<polygon fill="white" stroke="black" points="996.5,-120.5 996.5,-161.5 1142.5,-161.5 1142.5,-120.5 996.5,-120.5"/>
<text text-anchor="start" x="1004.5" y="-149.5" font-family="Helvetica,sans-Serif" font-size="10.00">FEEvaluationAccess</text>
<text text-anchor="start" x="1004.5" y="-138.5" font-family="Helvetica,sans-Serif" font-size="10.00">&lt; dim, 1, Number, is</text>
<text text-anchor="middle" x="1069.5" y="-127.5" font-family="Helvetica,sans-Serif" font-size="10.00">_face, VectorizedArrayType &gt;</text>
</a>
</g>
</g>
<!-- Node12&#45;&gt;Node13 -->
<g id="edge14" class="edge">
<title>Node12&#45;&gt;Node13</title>
<path fill="none" stroke="midnightblue" d="M957.34,-141C970.15,-141 983.5,-141 996.32,-141"/>
<polygon fill="midnightblue" stroke="midnightblue" points="957.2,-137.5 947.2,-141 957.2,-144.5 957.2,-137.5"/>
</g>
<!-- Node16 -->
<g id="node16" class="node">
<title>Node16</title>
<g id="a_node16"><a xlink:href="classFEEvaluationAccess_3_01dim_00_01dim_00_01Number_00_01is__face_00_01VectorizedArrayType_01_4.html" target="_top" xlink:title=" ">
<polygon fill="white" stroke="black" points="991,-0.5 991,-41.5 1148,-41.5 1148,-0.5 991,-0.5"/>
<text text-anchor="start" x="999" y="-29.5" font-family="Helvetica,sans-Serif" font-size="10.00">FEEvaluationAccess</text>
<text text-anchor="start" x="999" y="-18.5" font-family="Helvetica,sans-Serif" font-size="10.00">&lt; dim, dim, Number,</text>
<text text-anchor="middle" x="1069.5" y="-7.5" font-family="Helvetica,sans-Serif" font-size="10.00"> is_face, VectorizedArrayType &gt;</text>
</a>
</g>
</g>
<!-- Node15&#45;&gt;Node16 -->
<g id="edge17" class="edge">
<title>Node15&#45;&gt;Node16</title>
<path fill="none" stroke="midnightblue" d="M957.2,-21C968.24,-21 979.68,-21 990.84,-21"/>
<polygon fill="midnightblue" stroke="midnightblue" points="957.2,-17.5 947.2,-21 957.2,-24.5 957.2,-17.5"/>
</g>
</g>
</svg>
