<?xml version="1.0" encoding="UTF-8" standalone="no"?>
<!DOCTYPE svg PUBLIC "-//W3C//DTD SVG 1.1//EN"
 "http://www.w3.org/Graphics/SVG/1.1/DTD/svg11.dtd">
<!-- Generated by graphviz version 2.47.1 (20210417.1919)
 -->
<!-- Title: FEEvaluationBaseData&lt; dim, Number, is_face, VectorizedArrayType &gt; Pages: 1 -->
<svg width="1653pt" height="427pt"
 viewBox="0.00 0.00 1653.00 427.00" xmlns="http://www.w3.org/2000/svg" xmlns:xlink="http://www.w3.org/1999/xlink">
<g id="graph0" class="graph" transform="scale(1 1) rotate(0) translate(4 423)">
<title>FEEvaluationBaseData&lt; dim, Number, is_face, VectorizedArrayType &gt;</title>
<polygon fill="white" stroke="transparent" points="-4,4 -4,-423 1649,-423 1649,4 -4,4"/>
<!-- Node1 -->
<g id="node1" class="node">
<title>Node1</title>
<g id="a_node1"><a xlink:title=" ">
<polygon fill="#bfbfbf" stroke="black" points="0,-285.5 0,-326.5 122,-326.5 122,-285.5 0,-285.5"/>
<text text-anchor="start" x="8" y="-314.5" font-family="Helvetica,sans-Serif" font-size="10.00">FEEvaluationBaseData</text>
<text text-anchor="start" x="8" y="-303.5" font-family="Helvetica,sans-Serif" font-size="10.00">&lt; dim, Number, is_face,</text>
<text text-anchor="middle" x="61" y="-292.5" font-family="Helvetica,sans-Serif" font-size="10.00"> VectorizedArrayType &gt;</text>
</a>
</g>
</g>
<!-- Node2 -->
<g id="node2" class="node">
<title>Node2</title>
<g id="a_node2"><a xlink:href="classFEEvaluationBase.html" target="_top" xlink:title=" ">
<polygon fill="white" stroke="black" points="825,-377.5 825,-418.5 944,-418.5 944,-377.5 825,-377.5"/>
<text text-anchor="start" x="833" y="-406.5" font-family="Helvetica,sans-Serif" font-size="10.00">FEEvaluationBase&lt; 1,</text>
<text text-anchor="start" x="833" y="-395.5" font-family="Helvetica,sans-Serif" font-size="10.00"> 1, Number, is_face,</text>
<text text-anchor="middle" x="884.5" y="-384.5" font-family="Helvetica,sans-Serif" font-size="10.00"> VectorizedArrayType &gt;</text>
</a>
</g>
</g>
<!-- Node1&#45;&gt;Node2 -->
<g id="edge1" class="edge">
<title>Node1&#45;&gt;Node2</title>
<path fill="none" stroke="midnightblue" d="M103.52,-331.41C114.98,-337.42 127.66,-343.18 140,-347 205.4,-367.27 224.79,-359 293,-365 487.34,-382.1 718.48,-392 824.74,-395.96"/>
<polygon fill="midnightblue" stroke="midnightblue" points="105.08,-328.27 94.62,-326.58 101.74,-334.43 105.08,-328.27"/>
</g>
<!-- Node4 -->
<g id="node4" class="node">
<title>Node4</title>
<g id="a_node4"><a xlink:href="classFEEvaluationBase.html" target="_top" xlink:title=" ">
<polygon fill="white" stroke="black" points="819,-290 819,-342 950,-342 950,-290 819,-290"/>
<text text-anchor="start" x="827" y="-330" font-family="Helvetica,sans-Serif" font-size="10.00">FEEvaluationBase&lt; dim,</text>
<text text-anchor="start" x="827" y="-319" font-family="Helvetica,sans-Serif" font-size="10.00"> n_components_, Number,</text>
<text text-anchor="start" x="827" y="-308" font-family="Helvetica,sans-Serif" font-size="10.00"> is_face, VectorizedArray</text>
<text text-anchor="middle" x="884.5" y="-297" font-family="Helvetica,sans-Serif" font-size="10.00">&lt; Number &gt; &gt;</text>
</a>
</g>
</g>
<!-- Node1&#45;&gt;Node4 -->
<g id="edge3" class="edge">
<title>Node1&#45;&gt;Node4</title>
<path fill="none" stroke="midnightblue" d="M132.33,-322.72C134.91,-323.18 137.48,-323.61 140,-324 367.37,-359.3 426.1,-356.66 656,-366 718.62,-368.54 736.47,-382.23 797,-366 814.93,-361.19 832.98,-351.67 847.92,-342.21"/>
<polygon fill="midnightblue" stroke="midnightblue" points="132.77,-319.24 122.3,-320.83 131.48,-326.12 132.77,-319.24"/>
</g>
<!-- Node10 -->
<g id="node10" class="node">
<title>Node10</title>
<g id="a_node10"><a xlink:href="classFEEvaluationBase.html" target="_top" xlink:title=" ">
<polygon fill="white" stroke="black" points="822,-179.5 822,-220.5 947,-220.5 947,-179.5 822,-179.5"/>
<text text-anchor="start" x="830" y="-208.5" font-family="Helvetica,sans-Serif" font-size="10.00">FEEvaluationBase&lt; dim,</text>
<text text-anchor="start" x="830" y="-197.5" font-family="Helvetica,sans-Serif" font-size="10.00"> 1, Number, is_face,</text>
<text text-anchor="middle" x="884.5" y="-186.5" font-family="Helvetica,sans-Serif" font-size="10.00"> VectorizedArrayType &gt;</text>
</a>
</g>
</g>
<!-- Node1&#45;&gt;Node10 -->
<g id="edge9" class="edge">
<title>Node1&#45;&gt;Node10</title>
<path fill="none" stroke="midnightblue" d="M132.24,-312.08C292.43,-324.83 679.99,-349.03 797,-296 806.04,-291.9 843.93,-247.58 866.46,-220.61"/>
<polygon fill="midnightblue" stroke="midnightblue" points="132.27,-308.57 122.02,-311.26 131.7,-315.55 132.27,-308.57"/>
</g>
<!-- Node12 -->
<g id="node12" class="node">
<title>Node12</title>
<g id="a_node12"><a xlink:href="classFEEvaluationBase.html" target="_top" xlink:title=" ">
<polygon fill="white" stroke="black" points="815,-74.5 815,-115.5 954,-115.5 954,-74.5 815,-74.5"/>
<text text-anchor="start" x="823" y="-103.5" font-family="Helvetica,sans-Serif" font-size="10.00">FEEvaluationBase&lt; dim,</text>
<text text-anchor="start" x="823" y="-92.5" font-family="Helvetica,sans-Serif" font-size="10.00"> 1, double, false, Vectorized</text>
<text text-anchor="middle" x="884.5" y="-81.5" font-family="Helvetica,sans-Serif" font-size="10.00">Array&lt; double &gt; &gt;</text>
</a>
</g>
</g>
<!-- Node1&#45;&gt;Node12 -->
<g id="edge11" class="edge">
<title>Node1&#45;&gt;Node12</title>
<path fill="none" stroke="midnightblue" d="M89.69,-278.26C103.81,-265.28 121.82,-250.42 140,-240 350.96,-119.03 416.31,-99.03 656,-58 717.77,-47.43 735.61,-45.42 797,-58 813.16,-61.31 830.03,-67.77 844.54,-74.38"/>
<polygon fill="midnightblue" stroke="midnightblue" points="87.15,-275.84 82.26,-285.24 91.95,-280.94 87.15,-275.84"/>
</g>
<!-- Node13 -->
<g id="node13" class="node">
<title>Node13</title>
<g id="a_node13"><a xlink:href="classFEEvaluationBase.html" target="_top" xlink:title=" ">
<polygon fill="white" stroke="black" points="822,-0.5 822,-41.5 947,-41.5 947,-0.5 822,-0.5"/>
<text text-anchor="start" x="830" y="-29.5" font-family="Helvetica,sans-Serif" font-size="10.00">FEEvaluationBase&lt; dim,</text>
<text text-anchor="start" x="830" y="-18.5" font-family="Helvetica,sans-Serif" font-size="10.00"> dim, Number, is_face,</text>
<text text-anchor="middle" x="884.5" y="-7.5" font-family="Helvetica,sans-Serif" font-size="10.00"> VectorizedArrayType &gt;</text>
</a>
</g>
</g>
<!-- Node1&#45;&gt;Node13 -->
<g id="edge12" class="edge">
<title>Node1&#45;&gt;Node13</title>
<path fill="none" stroke="midnightblue" d="M71.9,-275.79C83.64,-244.17 106.01,-194.9 140,-164 194.79,-114.18 222.44,-120.48 293,-98 479.18,-38.68 712.31,-24.98 821.59,-21.87"/>
<polygon fill="midnightblue" stroke="midnightblue" points="68.54,-274.8 68.46,-285.4 75.13,-277.16 68.54,-274.8"/>
</g>
<!-- Node15 -->
<g id="node15" class="node">
<title>Node15</title>
<g id="a_node15"><a xlink:href="classFEEvaluationBaseData.html" target="_top" xlink:title=" ">
<polygon fill="white" stroke="black" points="293,-211.5 293,-252.5 444,-252.5 444,-211.5 293,-211.5"/>
<text text-anchor="start" x="301" y="-240.5" font-family="Helvetica,sans-Serif" font-size="10.00">FEEvaluationBaseData</text>
<text text-anchor="start" x="301" y="-229.5" font-family="Helvetica,sans-Serif" font-size="10.00">&lt; dim, Number, false,</text>
<text text-anchor="middle" x="368.5" y="-218.5" font-family="Helvetica,sans-Serif" font-size="10.00"> VectorizedArray&lt; Number &gt; &gt;</text>
</a>
</g>
</g>
<!-- Node1&#45;&gt;Node15 -->
<g id="edge14" class="edge">
<title>Node1&#45;&gt;Node15</title>
<path fill="none" stroke="orange" stroke-dasharray="5,2" d="M117.13,-281.74C124.73,-278.89 132.5,-276.21 140,-274 190.09,-259.27 247.98,-248.67 292.82,-241.8"/>
<polygon fill="orange" stroke="orange" points="115.68,-278.55 107.63,-285.44 118.22,-285.08 115.68,-278.55"/>
<text text-anchor="start" x="140" y="-288" font-family="Helvetica,sans-Serif" font-size="10.00"> &lt; dim, Number, false,</text>
<text text-anchor="middle" x="207.5" y="-277" font-family="Helvetica,sans-Serif" font-size="10.00"> VectorizedArray&lt; Number &gt; &gt;</text>
</g>
<!-- Node3 -->
<g id="node3" class="node">
<title>Node3</title>
<g id="a_node3"><a xlink:href="classFEEvaluationAccess_3_011_00_011_00_01Number_00_01is__face_00_01VectorizedArrayType_01_4.html" target="_top" xlink:title=" ">
<polygon fill="white" stroke="black" points="1008.5,-377.5 1008.5,-418.5 1130.5,-418.5 1130.5,-377.5 1008.5,-377.5"/>
<text text-anchor="start" x="1016.5" y="-406.5" font-family="Helvetica,sans-Serif" font-size="10.00">FEEvaluationAccess</text>
<text text-anchor="start" x="1016.5" y="-395.5" font-family="Helvetica,sans-Serif" font-size="10.00">&lt; 1, 1, Number, is_face,</text>
<text text-anchor="middle" x="1069.5" y="-384.5" font-family="Helvetica,sans-Serif" font-size="10.00"> VectorizedArrayType &gt;</text>
</a>
</g>
</g>
<!-- Node2&#45;&gt;Node3 -->
<g id="edge2" class="edge">
<title>Node2&#45;&gt;Node3</title>
<path fill="none" stroke="midnightblue" d="M954.43,-398C972.14,-398 991.05,-398 1008.29,-398"/>
<polygon fill="midnightblue" stroke="midnightblue" points="954.16,-394.5 944.16,-398 954.16,-401.5 954.16,-394.5"/>
</g>
<!-- Node5 -->
<g id="node5" class="node">
<title>Node5</title>
<g id="a_node5"><a xlink:href="classFEEvaluationAccess.html" target="_top" xlink:title=" ">
<polygon fill="white" stroke="black" points="993.5,-290 993.5,-342 1145.5,-342 1145.5,-290 993.5,-290"/>
<text text-anchor="start" x="1001.5" y="-330" font-family="Helvetica,sans-Serif" font-size="10.00">FEEvaluationAccess</text>
<text text-anchor="start" x="1001.5" y="-319" font-family="Helvetica,sans-Serif" font-size="10.00">&lt; dim, n_components</text>
<text text-anchor="start" x="1001.5" y="-308" font-family="Helvetica,sans-Serif" font-size="10.00">_, Number, is_face, Vectorized</text>
<text text-anchor="middle" x="1069.5" y="-297" font-family="Helvetica,sans-Serif" font-size="10.00">ArrayType &gt;</text>
</a>
</g>
</g>
<!-- Node4&#45;&gt;Node5 -->
<g id="edge4" class="edge">
<title>Node4&#45;&gt;Node5</title>
<path fill="none" stroke="midnightblue" d="M960.33,-316C971.21,-316 982.41,-316 993.3,-316"/>
<polygon fill="midnightblue" stroke="midnightblue" points="960.02,-312.5 950.02,-316 960.02,-319.5 960.02,-312.5"/>
</g>
<!-- Node6 -->
<g id="node6" class="node">
<title>Node6</title>
<g id="a_node6"><a xlink:href="classFEEvaluationAccess.html" target="_top" xlink:title=" ">
<polygon fill="white" stroke="black" points="1315,-262 1315,-314 1456,-314 1456,-262 1315,-262"/>
<text text-anchor="start" x="1323" y="-302" font-family="Helvetica,sans-Serif" font-size="10.00">FEEvaluationAccess</text>
<text text-anchor="start" x="1323" y="-291" font-family="Helvetica,sans-Serif" font-size="10.00">&lt; dim, n_components</text>
<text text-anchor="start" x="1323" y="-280" font-family="Helvetica,sans-Serif" font-size="10.00">_, Number, false, Vectorized</text>
<text text-anchor="middle" x="1385.5" y="-269" font-family="Helvetica,sans-Serif" font-size="10.00">ArrayType &gt;</text>
</a>
</g>
</g>
<!-- Node5&#45;&gt;Node6 -->
<g id="edge5" class="edge">
<title>Node5&#45;&gt;Node6</title>
<path fill="none" stroke="orange" stroke-dasharray="5,2" d="M1155.75,-314.6C1197.79,-313.21 1249.18,-310.45 1295,-305 1301.44,-304.23 1308.11,-303.28 1314.78,-302.21"/>
<polygon fill="orange" stroke="orange" points="1155.44,-311.11 1145.55,-314.92 1155.65,-318.11 1155.44,-311.11"/>
<text text-anchor="start" x="1168" y="-339" font-family="Helvetica,sans-Serif" font-size="10.00"> &lt; dim, n_components</text>
<text text-anchor="start" x="1168" y="-328" font-family="Helvetica,sans-Serif" font-size="10.00">_, Number, false, Vectorized</text>
<text text-anchor="middle" x="1230.5" y="-317" font-family="Helvetica,sans-Serif" font-size="10.00">ArrayType &gt;</text>
</g>
<!-- Node8 -->
<g id="node8" class="node">
<title>Node8</title>
<g id="a_node8"><a xlink:href="classFEEvaluationAccess.html" target="_top" xlink:title=" ">
<polygon fill="white" stroke="black" points="1313,-183.5 1313,-224.5 1458,-224.5 1458,-183.5 1313,-183.5"/>
<text text-anchor="start" x="1321" y="-212.5" font-family="Helvetica,sans-Serif" font-size="10.00">FEEvaluationAccess</text>
<text text-anchor="start" x="1321" y="-201.5" font-family="Helvetica,sans-Serif" font-size="10.00">&lt; dim, 1, double, true,</text>
<text text-anchor="middle" x="1385.5" y="-190.5" font-family="Helvetica,sans-Serif" font-size="10.00"> VectorizedArray&lt; double &gt; &gt;</text>
</a>
</g>
</g>
<!-- Node5&#45;&gt;Node8 -->
<g id="edge7" class="edge">
<title>Node5&#45;&gt;Node8</title>
<path fill="none" stroke="orange" stroke-dasharray="5,2" d="M1146.35,-286.3C1152.98,-283.8 1159.6,-281.34 1166,-279 1218.55,-259.81 1278.71,-239.26 1322.58,-224.54"/>
<polygon fill="orange" stroke="orange" points="1144.75,-283.17 1136.65,-289.99 1147.24,-289.71 1144.75,-283.17"/>
<text text-anchor="start" x="1166" y="-293" font-family="Helvetica,sans-Serif" font-size="10.00"> &lt; dim, 1, double, true,</text>
<text text-anchor="middle" x="1230.5" y="-282" font-family="Helvetica,sans-Serif" font-size="10.00"> VectorizedArray&lt; double &gt; &gt;</text>
</g>
<!-- Node7 -->
<g id="node7" class="node">
<title>Node7</title>
<g id="a_node7"><a xlink:href="classFEEvaluation.html" target="_top" xlink:title=" ">
<polygon fill="white" stroke="black" points="1495,-262 1495,-314 1645,-314 1645,-262 1495,-262"/>
<text text-anchor="start" x="1503" y="-302" font-family="Helvetica,sans-Serif" font-size="10.00">FEEvaluation&lt; dim,</text>
<text text-anchor="start" x="1503" y="-291" font-family="Helvetica,sans-Serif" font-size="10.00"> fe_degree, n_q_points</text>
<text text-anchor="start" x="1503" y="-280" font-family="Helvetica,sans-Serif" font-size="10.00">_1d, n_components_, Number,</text>
<text text-anchor="middle" x="1570" y="-269" font-family="Helvetica,sans-Serif" font-size="10.00"> VectorizedArrayType &gt;</text>
</a>
</g>
</g>
<!-- Node6&#45;&gt;Node7 -->
<g id="edge6" class="edge">
<title>Node6&#45;&gt;Node7</title>
<path fill="none" stroke="midnightblue" d="M1466.24,-288C1475.73,-288 1485.4,-288 1494.82,-288"/>
<polygon fill="midnightblue" stroke="midnightblue" points="1466.02,-284.5 1456.02,-288 1466.02,-291.5 1466.02,-284.5"/>
</g>
<!-- Node9 -->
<g id="node9" class="node">
<title>Node9</title>
<g id="a_node9"><a xlink:href="classFEFaceEvaluation.html" target="_top" xlink:title=" ">
<polygon fill="white" stroke="black" points="1495,-178 1495,-230 1645,-230 1645,-178 1495,-178"/>
<text text-anchor="start" x="1503" y="-218" font-family="Helvetica,sans-Serif" font-size="10.00">FEFaceEvaluation&lt; dim,</text>
<text text-anchor="start" x="1503" y="-207" font-family="Helvetica,sans-Serif" font-size="10.00"> fe_degree, n_q_points</text>
<text text-anchor="start" x="1503" y="-196" font-family="Helvetica,sans-Serif" font-size="10.00">_1d, n_components_, Number,</text>
<text text-anchor="middle" x="1570" y="-185" font-family="Helvetica,sans-Serif" font-size="10.00"> VectorizedArrayType &gt;</text>
</a>
</g>
</g>
<!-- Node8&#45;&gt;Node9 -->
<g id="edge8" class="edge">
<title>Node8&#45;&gt;Node9</title>
<path fill="none" stroke="midnightblue" d="M1468.11,-204C1477.03,-204 1486.07,-204 1494.9,-204"/>
<polygon fill="midnightblue" stroke="midnightblue" points="1468.11,-200.5 1458.11,-204 1468.1,-207.5 1468.11,-200.5"/>
</g>
<!-- Node11 -->
<g id="node11" class="node">
<title>Node11</title>
<g id="a_node11"><a xlink:href="classFEEvaluationAccess_3_01dim_00_011_00_01Number_00_01is__face_00_01VectorizedArrayType_01_4.html" target="_top" xlink:title=" ">
<polygon fill="white" stroke="black" points="996.5,-179.5 996.5,-220.5 1142.5,-220.5 1142.5,-179.5 996.5,-179.5"/>
<text text-anchor="start" x="1004.5" y="-208.5" font-family="Helvetica,sans-Serif" font-size="10.00">FEEvaluationAccess</text>
<text text-anchor="start" x="1004.5" y="-197.5" font-family="Helvetica,sans-Serif" font-size="10.00">&lt; dim, 1, Number, is</text>
<text text-anchor="middle" x="1069.5" y="-186.5" font-family="Helvetica,sans-Serif" font-size="10.00">_face, VectorizedArrayType &gt;</text>
</a>
</g>
</g>
<!-- Node10&#45;&gt;Node11 -->
<g id="edge10" class="edge">
<title>Node10&#45;&gt;Node11</title>
<path fill="none" stroke="midnightblue" d="M957.34,-200C970.15,-200 983.5,-200 996.32,-200"/>
<polygon fill="midnightblue" stroke="midnightblue" points="957.2,-196.5 947.2,-200 957.2,-203.5 957.2,-196.5"/>
</g>
<!-- Node14 -->
<g id="node14" class="node">
<title>Node14</title>
<g id="a_node14"><a xlink:href="classFEEvaluationAccess_3_01dim_00_01dim_00_01Number_00_01is__face_00_01VectorizedArrayType_01_4.html" target="_top" xlink:title=" ">
<polygon fill="white" stroke="black" points="991,-0.5 991,-41.5 1148,-41.5 1148,-0.5 991,-0.5"/>
<text text-anchor="start" x="999" y="-29.5" font-family="Helvetica,sans-Serif" font-size="10.00">FEEvaluationAccess</text>
<text text-anchor="start" x="999" y="-18.5" font-family="Helvetica,sans-Serif" font-size="10.00">&lt; dim, dim, Number,</text>
<text text-anchor="middle" x="1069.5" y="-7.5" font-family="Helvetica,sans-Serif" font-size="10.00"> is_face, VectorizedArrayType &gt;</text>
</a>
</g>
</g>
<!-- Node13&#45;&gt;Node14 -->
<g id="edge13" class="edge">
<title>Node13&#45;&gt;Node14</title>
<path fill="none" stroke="midnightblue" d="M957.2,-21C968.24,-21 979.68,-21 990.84,-21"/>
<polygon fill="midnightblue" stroke="midnightblue" points="957.2,-17.5 947.2,-21 957.2,-24.5 957.2,-17.5"/>
</g>
<!-- Node16 -->
<g id="node16" class="node">
<title>Node16</title>
<g id="a_node16"><a xlink:href="classFEEvaluationBase.html" target="_top" xlink:title=" ">
<polygon fill="white" stroke="black" points="481,-178.5 481,-219.5 638,-219.5 638,-178.5 481,-178.5"/>
<text text-anchor="start" x="489" y="-207.5" font-family="Helvetica,sans-Serif" font-size="10.00">FEEvaluationBase&lt; dim,</text>
<text text-anchor="start" x="489" y="-196.5" font-family="Helvetica,sans-Serif" font-size="10.00"> n_components_, Number,</text>
<text text-anchor="middle" x="559.5" y="-185.5" font-family="Helvetica,sans-Serif" font-size="10.00"> is_face, VectorizedArrayType &gt;</text>
</a>
</g>
</g>
<!-- Node15&#45;&gt;Node16 -->
<g id="edge15" class="edge">
<title>Node15&#45;&gt;Node16</title>
<path fill="none" stroke="midnightblue" d="M454.18,-217.21C463.09,-215.66 472.11,-214.08 480.93,-212.54"/>
<polygon fill="midnightblue" stroke="midnightblue" points="453.45,-213.79 444.2,-218.96 454.65,-220.69 453.45,-213.79"/>
</g>
<!-- Node16&#45;&gt;Node2 -->
<g id="edge18" class="edge">
<title>Node16&#45;&gt;Node2</title>
<path fill="none" stroke="orange" stroke-dasharray="5,2" d="M576.77,-228.55C593.35,-256.11 621.49,-296.55 656,-321 706.86,-357.04 775.9,-377.25 824.55,-387.82"/>
<polygon fill="orange" stroke="orange" points="579.68,-226.59 571.6,-219.74 573.64,-230.13 579.68,-226.59"/>
<text text-anchor="start" x="661.5" y="-395" font-family="Helvetica,sans-Serif" font-size="10.00"> &lt; 1, 1, Number, is</text>
<text text-anchor="middle" x="726.5" y="-384" font-family="Helvetica,sans-Serif" font-size="10.00">_face, VectorizedArrayType &gt;</text>
</g>
<!-- Node16&#45;&gt;Node4 -->
<g id="edge19" class="edge">
<title>Node16&#45;&gt;Node4</title>
<path fill="none" stroke="orange" stroke-dasharray="5,2" d="M615.7,-223.62C628.83,-229.22 642.84,-234.99 656,-240 686.06,-251.45 762.7,-276.76 818.75,-295.03"/>
<polygon fill="orange" stroke="orange" points="616.9,-220.33 606.33,-219.59 614.13,-226.76 616.9,-220.33"/>
<text text-anchor="start" x="659" y="-312" font-family="Helvetica,sans-Serif" font-size="10.00"> &lt; dim, n_components</text>
<text text-anchor="start" x="659" y="-301" font-family="Helvetica,sans-Serif" font-size="10.00">_, Number, is_face,</text>
<text text-anchor="middle" x="726.5" y="-290" font-family="Helvetica,sans-Serif" font-size="10.00"> VectorizedArray&lt; Number &gt; &gt;</text>
</g>
<!-- Node16&#45;&gt;Node6 -->
<g id="edge16" class="edge">
<title>Node16&#45;&gt;Node6</title>
<path fill="none" stroke="midnightblue" d="M648.25,-213.95C650.86,-214.32 653.45,-214.67 656,-215 726.38,-224.2 744.25,-224.23 815,-230 1028.13,-247.38 1084.26,-226.71 1295,-263 1301.52,-264.12 1308.24,-265.53 1314.95,-267.09"/>
<polygon fill="midnightblue" stroke="midnightblue" points="648.49,-210.45 638.09,-212.48 647.48,-217.38 648.49,-210.45"/>
</g>
<!-- Node16&#45;&gt;Node8 -->
<g id="edge17" class="edge">
<title>Node16&#45;&gt;Node8</title>
<path fill="none" stroke="midnightblue" d="M648.28,-188.88C650.88,-188.58 653.46,-188.29 656,-188 726.66,-179.93 743.99,-174.01 815,-170 962.76,-161.66 1000.38,-159.44 1148,-170 1203.65,-173.98 1266.11,-183.16 1312.86,-190.98"/>
<polygon fill="midnightblue" stroke="midnightblue" points="647.69,-185.43 638.16,-190.04 648.49,-192.38 647.69,-185.43"/>
</g>
<!-- Node16&#45;&gt;Node10 -->
<g id="edge20" class="edge">
<title>Node16&#45;&gt;Node10</title>
<path fill="none" stroke="orange" stroke-dasharray="5,2" d="M648.27,-193.27C650.88,-193.17 653.46,-193.08 656,-193 718.64,-191.03 734.38,-190.47 797,-193 804.98,-193.32 813.36,-193.81 821.64,-194.38"/>
<polygon fill="orange" stroke="orange" points="647.98,-189.78 638.14,-193.71 648.28,-196.78 647.98,-189.78"/>
<text text-anchor="start" x="661.5" y="-207" font-family="Helvetica,sans-Serif" font-size="10.00"> &lt; dim, 1, Number, is</text>
<text text-anchor="middle" x="726.5" y="-196" font-family="Helvetica,sans-Serif" font-size="10.00">_face, VectorizedArrayType &gt;</text>
</g>
<!-- Node16&#45;&gt;Node12 -->
<g id="edge21" class="edge">
<title>Node16&#45;&gt;Node12</title>
<path fill="none" stroke="orange" stroke-dasharray="5,2" d="M586.76,-171.44C604.6,-154.52 629.67,-134.05 656,-123 683.84,-111.32 758.62,-103.65 814.9,-99.34"/>
<polygon fill="orange" stroke="orange" points="584.3,-168.95 579.57,-178.43 589.18,-173.97 584.3,-168.95"/>
<text text-anchor="start" x="662" y="-137" font-family="Helvetica,sans-Serif" font-size="10.00"> &lt; dim, 1, double, false,</text>
<text text-anchor="middle" x="726.5" y="-126" font-family="Helvetica,sans-Serif" font-size="10.00"> VectorizedArray&lt; double &gt; &gt;</text>
</g>
<!-- Node16&#45;&gt;Node13 -->
<g id="edge22" class="edge">
<title>Node16&#45;&gt;Node13</title>
<path fill="none" stroke="orange" stroke-dasharray="5,2" d="M575.96,-168.99C592.11,-140.67 620.1,-99.21 656,-76 705.99,-43.68 773.27,-30.34 821.68,-24.84"/>
<polygon fill="orange" stroke="orange" points="572.73,-167.6 570.94,-178.04 578.85,-170.99 572.73,-167.6"/>
<text text-anchor="start" x="656" y="-90" font-family="Helvetica,sans-Serif" font-size="10.00"> &lt; dim, dim, Number,</text>
<text text-anchor="middle" x="726.5" y="-79" font-family="Helvetica,sans-Serif" font-size="10.00"> is_face, VectorizedArrayType &gt;</text>
</g>
</g>
</svg>
