<?xml version="1.0" encoding="UTF-8" standalone="no"?>
<!DOCTYPE svg PUBLIC "-//W3C//DTD SVG 1.1//EN"
 "http://www.w3.org/Graphics/SVG/1.1/DTD/svg11.dtd">
<!-- Generated by graphviz version 2.47.1 (20210417.1919)
 -->
<!-- Title: FE_Q&lt; dim, spacedim &gt; Pages: 1 -->
<svg width="330pt" height="479pt"
 viewBox="0.00 0.00 330.00 479.00" xmlns="http://www.w3.org/2000/svg" xmlns:xlink="http://www.w3.org/1999/xlink">
<g id="graph0" class="graph" transform="scale(1 1) rotate(0) translate(4 475)">
<title>FE_Q&lt; dim, spacedim &gt;</title>
<polygon fill="white" stroke="transparent" points="-4,4 -4,-475 326,-475 326,4 -4,4"/>
<!-- Node1 -->
<g id="node1" class="node">
<title>Node1</title>
<g id="a_node1"><a xlink:title=" ">
<polygon fill="#bfbfbf" stroke="black" points="22,-67.5 22,-86.5 146,-86.5 146,-67.5 22,-67.5"/>
<text text-anchor="middle" x="84" y="-74.5" font-family="Helvetica,sans-Serif" font-size="10.00">FE_Q&lt; dim, spacedim &gt;</text>
</a>
</g>
</g>
<!-- Node9 -->
<g id="node9" class="node">
<title>Node9</title>
<g id="a_node9"><a xlink:href="classFE__Q.html" target="_top" xlink:title=" ">
<polygon fill="white" stroke="black" points="35,-0.5 35,-19.5 133,-19.5 133,-0.5 35,-0.5"/>
<text text-anchor="middle" x="84" y="-7.5" font-family="Helvetica,sans-Serif" font-size="10.00">FE_Q&lt; dim, dim &gt;</text>
</a>
</g>
</g>
<!-- Node1&#45;&gt;Node9 -->
<g id="edge12" class="edge">
<title>Node1&#45;&gt;Node9</title>
<path fill="none" stroke="orange" stroke-dasharray="5,2" d="M84,-57.04C84,-44.67 84,-29.12 84,-19.63"/>
<polygon fill="orange" stroke="orange" points="80.5,-57.23 84,-67.23 87.5,-57.23 80.5,-57.23"/>
<text text-anchor="middle" x="113.5" y="-41" font-family="Helvetica,sans-Serif" font-size="10.00"> &lt; dim, dim &gt;</text>
</g>
<!-- Node2 -->
<g id="node2" class="node">
<title>Node2</title>
<g id="a_node2"><a xlink:href="classFE__Q__Base.html" target="_top" xlink:title=" ">
<polygon fill="white" stroke="black" points="21.5,-124.5 21.5,-143.5 146.5,-143.5 146.5,-124.5 21.5,-124.5"/>
<text text-anchor="middle" x="84" y="-131.5" font-family="Helvetica,sans-Serif" font-size="10.00">FE_Q_Base&lt; dim, dim &gt;</text>
</a>
</g>
</g>
<!-- Node2&#45;&gt;Node1 -->
<g id="edge1" class="edge">
<title>Node2&#45;&gt;Node1</title>
<path fill="none" stroke="midnightblue" d="M84,-114.12C84,-104.82 84,-94.06 84,-86.71"/>
<polygon fill="midnightblue" stroke="midnightblue" points="80.5,-114.41 84,-124.41 87.5,-114.41 80.5,-114.41"/>
</g>
<!-- Node3 -->
<g id="node3" class="node">
<title>Node3</title>
<g id="a_node3"><a xlink:href="classFE__Poly.html" target="_top" xlink:title=" ">
<polygon fill="white" stroke="black" points="0,-315.5 0,-334.5 136,-334.5 136,-315.5 0,-315.5"/>
<text text-anchor="middle" x="68" y="-322.5" font-family="Helvetica,sans-Serif" font-size="10.00">FE_Poly&lt; dim, spacedim &gt;</text>
</a>
</g>
</g>
<!-- Node3&#45;&gt;Node2 -->
<g id="edge2" class="edge">
<title>Node3&#45;&gt;Node2</title>
<path fill="none" stroke="midnightblue" d="M69.57,-305.4C72.96,-265.4 80.83,-172.46 83.27,-143.66"/>
<polygon fill="midnightblue" stroke="midnightblue" points="66.09,-305.13 68.73,-315.39 73.06,-305.72 66.09,-305.13"/>
</g>
<!-- Node3&#45;&gt;Node3 -->
<g id="edge7" class="edge">
<title>Node3&#45;&gt;Node3</title>
<path fill="none" stroke="orange" stroke-dasharray="5,2" d="M146.1,-328.69C151.03,-327.83 154,-326.59 154,-325 154,-322.51 146.76,-320.91 136.13,-320.19"/>
<polygon fill="orange" stroke="orange" points="145.68,-325.22 136.13,-329.81 146.46,-332.17 145.68,-325.22"/>
<text text-anchor="middle" x="196.5" y="-322.5" font-family="Helvetica,sans-Serif" font-size="10.00"> &lt; dim, spacedim &gt;</text>
</g>
<!-- Node8 -->
<g id="node8" class="node">
<title>Node8</title>
<g id="a_node8"><a xlink:href="classFE__Poly.html" target="_top" xlink:title=" ">
<polygon fill="white" stroke="black" points="117,-248.5 117,-267.5 227,-267.5 227,-248.5 117,-248.5"/>
<text text-anchor="middle" x="172" y="-255.5" font-family="Helvetica,sans-Serif" font-size="10.00">FE_Poly&lt; dim, dim &gt;</text>
</a>
</g>
</g>
<!-- Node3&#45;&gt;Node8 -->
<g id="edge11" class="edge">
<title>Node3&#45;&gt;Node8</title>
<path fill="none" stroke="orange" stroke-dasharray="5,2" d="M90.77,-309.77C111.36,-296.9 140.99,-278.38 158.2,-267.63"/>
<polygon fill="orange" stroke="orange" points="88.65,-306.97 82.03,-315.23 92.36,-312.9 88.65,-306.97"/>
<text text-anchor="middle" x="156.5" y="-289" font-family="Helvetica,sans-Serif" font-size="10.00"> &lt; dim, dim &gt;</text>
</g>
<!-- Node4 -->
<g id="node4" class="node">
<title>Node4</title>
<g id="a_node4"><a xlink:href="classFiniteElement.html" target="_top" xlink:title=" ">
<polygon fill="white" stroke="black" points="115,-372.5 115,-402.5 219,-402.5 219,-372.5 115,-372.5"/>
<text text-anchor="start" x="123" y="-390.5" font-family="Helvetica,sans-Serif" font-size="10.00">FiniteElement&lt; dim,</text>
<text text-anchor="middle" x="167" y="-379.5" font-family="Helvetica,sans-Serif" font-size="10.00"> spacedim &gt;</text>
</a>
</g>
</g>
<!-- Node4&#45;&gt;Node3 -->
<g id="edge3" class="edge">
<title>Node4&#45;&gt;Node3</title>
<path fill="none" stroke="midnightblue" d="M135.05,-366.98C117.14,-356.03 95.7,-342.93 81.97,-334.54"/>
<polygon fill="midnightblue" stroke="midnightblue" points="133.68,-370.24 144.04,-372.47 137.33,-364.27 133.68,-370.24"/>
</g>
<!-- Node4&#45;&gt;Node4 -->
<g id="edge6" class="edge">
<title>Node4&#45;&gt;Node4</title>
<path fill="none" stroke="orange" stroke-dasharray="5,2" d="M229.4,-392.27C234.11,-391.21 237,-389.62 237,-387.5 237,-384.11 229.59,-382.08 219.2,-381.39"/>
<polygon fill="orange" stroke="orange" points="228.66,-388.84 219.2,-393.61 229.57,-395.78 228.66,-388.84"/>
<text text-anchor="middle" x="279.5" y="-385" font-family="Helvetica,sans-Serif" font-size="10.00"> &lt; dim, spacedim &gt;</text>
</g>
<!-- Node4&#45;&gt;Node8 -->
<g id="edge10" class="edge">
<title>Node4&#45;&gt;Node8</title>
<path fill="none" stroke="midnightblue" d="M213.71,-367.52C227.22,-359.58 240.37,-348.9 248,-335 264.08,-305.72 220.52,-280.23 192.85,-267.55"/>
<polygon fill="midnightblue" stroke="midnightblue" points="211.94,-364.49 204.83,-372.34 215.29,-370.64 211.94,-364.49"/>
</g>
<!-- Node5 -->
<g id="node5" class="node">
<title>Node5</title>
<g id="a_node5"><a xlink:href="classSubscriptor.html" target="_top" xlink:title=" ">
<polygon fill="white" stroke="black" points="83,-446 83,-465 149,-465 149,-446 83,-446"/>
<text text-anchor="middle" x="116" y="-453" font-family="Helvetica,sans-Serif" font-size="10.00">Subscriptor</text>
</a>
</g>
</g>
<!-- Node5&#45;&gt;Node4 -->
<g id="edge4" class="edge">
<title>Node5&#45;&gt;Node4</title>
<path fill="none" stroke="midnightblue" d="M129.02,-437.65C137.38,-426.83 148.12,-412.94 156.04,-402.68"/>
<polygon fill="midnightblue" stroke="midnightblue" points="126.01,-435.82 122.67,-445.87 131.55,-440.1 126.01,-435.82"/>
</g>
<!-- Node6 -->
<g id="node6" class="node">
<title>Node6</title>
<g id="a_node6"><a xlink:href="classFiniteElementData.html" target="_top" xlink:title=" ">
<polygon fill="white" stroke="black" points="167,-440.5 167,-470.5 271,-470.5 271,-440.5 167,-440.5"/>
<text text-anchor="start" x="175" y="-458.5" font-family="Helvetica,sans-Serif" font-size="10.00">FiniteElementData&lt;</text>
<text text-anchor="middle" x="219" y="-447.5" font-family="Helvetica,sans-Serif" font-size="10.00"> dim &gt;</text>
</a>
</g>
</g>
<!-- Node6&#45;&gt;Node4 -->
<g id="edge5" class="edge">
<title>Node6&#45;&gt;Node4</title>
<path fill="none" stroke="midnightblue" d="M201.36,-432.11C193.72,-422.41 185,-411.35 178.26,-402.79"/>
<polygon fill="midnightblue" stroke="midnightblue" points="198.78,-434.49 207.72,-440.18 204.28,-430.16 198.78,-434.49"/>
</g>
<!-- Node7 -->
<g id="node7" class="node">
<title>Node7</title>
<g id="a_node7"><a xlink:href="classFE__Q__Base.html" target="_top" xlink:title=" ">
<polygon fill="white" stroke="black" points="96,-191.5 96,-210.5 248,-210.5 248,-191.5 96,-191.5"/>
<text text-anchor="middle" x="172" y="-198.5" font-family="Helvetica,sans-Serif" font-size="10.00">FE_Q_Base&lt; dim, spacedim &gt;</text>
</a>
</g>
</g>
<!-- Node7&#45;&gt;Node2 -->
<g id="edge8" class="edge">
<title>Node7&#45;&gt;Node2</title>
<path fill="none" stroke="orange" stroke-dasharray="5,2" d="M151.78,-185.07C134.41,-172.24 109.97,-154.19 95.68,-143.63"/>
<polygon fill="orange" stroke="orange" points="150.01,-188.11 160.13,-191.23 154.17,-182.48 150.01,-188.11"/>
<text text-anchor="middle" x="163.5" y="-165" font-family="Helvetica,sans-Serif" font-size="10.00"> &lt; dim, dim &gt;</text>
</g>
<!-- Node8&#45;&gt;Node7 -->
<g id="edge9" class="edge">
<title>Node8&#45;&gt;Node7</title>
<path fill="none" stroke="midnightblue" d="M172,-238.12C172,-228.82 172,-218.06 172,-210.71"/>
<polygon fill="midnightblue" stroke="midnightblue" points="168.5,-238.41 172,-248.41 175.5,-238.41 168.5,-238.41"/>
</g>
</g>
</svg>
