<?xml version="1.0" encoding="UTF-8" standalone="no"?>
<!DOCTYPE svg PUBLIC "-//W3C//DTD SVG 1.1//EN"
 "http://www.w3.org/Graphics/SVG/1.1/DTD/svg11.dtd">
<!-- Generated by graphviz version 2.47.1 (20210417.1919)
 -->
<!-- Title: TrilinosWrappers::BlockSparsityPattern Pages: 1 -->
<svg width="230pt" height="242pt"
 viewBox="0.00 0.00 229.50 242.00" xmlns="http://www.w3.org/2000/svg" xmlns:xlink="http://www.w3.org/1999/xlink">
<g id="graph0" class="graph" transform="scale(1 1) rotate(0) translate(4 238)">
<title>TrilinosWrappers::BlockSparsityPattern</title>
<polygon fill="white" stroke="transparent" points="-4,4 -4,-238 225.5,-238 225.5,4 -4,4"/>
<!-- Node1 -->
<g id="node1" class="node">
<title>Node1</title>
<g id="a_node1"><a xlink:title=" ">
<polygon fill="#bfbfbf" stroke="black" points="0,-0.5 0,-30.5 156,-30.5 156,-0.5 0,-0.5"/>
<text text-anchor="start" x="8" y="-18.5" font-family="Helvetica,sans-Serif" font-size="10.00">TrilinosWrappers::BlockSparsity</text>
<text text-anchor="middle" x="78" y="-7.5" font-family="Helvetica,sans-Serif" font-size="10.00">Pattern</text>
</a>
</g>
</g>
<!-- Node2 -->
<g id="node2" class="node">
<title>Node2</title>
<g id="a_node2"><a xlink:href="classBlockSparsityPatternBase.html" target="_top" xlink:title=" ">
<polygon fill="white" stroke="black" points="12.5,-68.5 12.5,-98.5 143.5,-98.5 143.5,-68.5 12.5,-68.5"/>
<text text-anchor="start" x="20.5" y="-86.5" font-family="Helvetica,sans-Serif" font-size="10.00">BlockSparsityPatternBase</text>
<text text-anchor="middle" x="78" y="-75.5" font-family="Helvetica,sans-Serif" font-size="10.00">&lt; SparsityPattern &gt;</text>
</a>
</g>
</g>
<!-- Node2&#45;&gt;Node1 -->
<g id="edge1" class="edge">
<title>Node2&#45;&gt;Node1</title>
<path fill="none" stroke="midnightblue" d="M78,-58.03C78,-48.86 78,-38.74 78,-30.79"/>
<polygon fill="midnightblue" stroke="midnightblue" points="74.5,-58.18 78,-68.18 81.5,-58.18 74.5,-58.18"/>
</g>
<!-- Node3 -->
<g id="node3" class="node">
<title>Node3</title>
<g id="a_node3"><a xlink:href="classSubscriptor.html" target="_top" xlink:title=" ">
<polygon fill="white" stroke="black" points="41,-214.5 41,-233.5 107,-233.5 107,-214.5 41,-214.5"/>
<text text-anchor="middle" x="74" y="-221.5" font-family="Helvetica,sans-Serif" font-size="10.00">Subscriptor</text>
</a>
</g>
</g>
<!-- Node3&#45;&gt;Node2 -->
<g id="edge2" class="edge">
<title>Node3&#45;&gt;Node2</title>
<path fill="none" stroke="midnightblue" d="M74.54,-204.25C75.35,-176.19 76.86,-123.88 77.59,-98.73"/>
<polygon fill="midnightblue" stroke="midnightblue" points="71.04,-204.24 74.25,-214.34 78.04,-204.44 71.04,-204.24"/>
</g>
<!-- Node4 -->
<g id="node4" class="node">
<title>Node4</title>
<g id="a_node4"><a xlink:href="classBlockSparsityPatternBase.html" target="_top" xlink:title=" ">
<polygon fill="white" stroke="black" points="90.5,-146.5 90.5,-176.5 221.5,-176.5 221.5,-146.5 90.5,-146.5"/>
<text text-anchor="start" x="98.5" y="-164.5" font-family="Helvetica,sans-Serif" font-size="10.00">BlockSparsityPatternBase</text>
<text text-anchor="middle" x="156" y="-153.5" font-family="Helvetica,sans-Serif" font-size="10.00">&lt; SparsityPatternType &gt;</text>
</a>
</g>
</g>
<!-- Node3&#45;&gt;Node4 -->
<g id="edge4" class="edge">
<title>Node3&#45;&gt;Node4</title>
<path fill="none" stroke="midnightblue" d="M94.09,-208.18C107.17,-198.53 124.13,-186.01 136.99,-176.53"/>
<polygon fill="midnightblue" stroke="midnightblue" points="91.72,-205.58 85.75,-214.33 95.87,-211.21 91.72,-205.58"/>
</g>
<!-- Node4&#45;&gt;Node2 -->
<g id="edge3" class="edge">
<title>Node4&#45;&gt;Node2</title>
<path fill="none" stroke="orange" stroke-dasharray="5,2" d="M133.97,-139.03C120.73,-126.13 104.24,-110.07 92.61,-98.73"/>
<polygon fill="orange" stroke="orange" points="131.72,-141.73 141.33,-146.2 136.61,-136.72 131.72,-141.73"/>
<text text-anchor="middle" x="165.5" y="-120" font-family="Helvetica,sans-Serif" font-size="10.00"> &lt; SparsityPattern &gt;</text>
</g>
</g>
</svg>
