<?xml version="1.0" encoding="UTF-8" standalone="no"?>
<!DOCTYPE svg PUBLIC "-//W3C//DTD SVG 1.1//EN"
 "http://www.w3.org/Graphics/SVG/1.1/DTD/svg11.dtd">
<!-- Generated by graphviz version 2.47.1 (20210417.1919)
 -->
<!-- Title: ZeroTensorFunction&lt; rank, dim, Number &gt; Pages: 1 -->
<svg width="1376pt" height="93pt"
 viewBox="0.00 0.00 1376.00 93.00" xmlns="http://www.w3.org/2000/svg" xmlns:xlink="http://www.w3.org/1999/xlink">
<g id="graph0" class="graph" transform="scale(1 1) rotate(0) translate(4 89)">
<title>ZeroTensorFunction&lt; rank, dim, Number &gt;</title>
<polygon fill="white" stroke="transparent" points="-4,4 -4,-89 1372,-89 1372,4 -4,4"/>
<!-- Node1 -->
<g id="node1" class="node">
<title>Node1</title>
<g id="a_node1"><a xlink:title=" ">
<polygon fill="#bfbfbf" stroke="black" points="1252,-32 1252,-62 1368,-62 1368,-32 1252,-32"/>
<text text-anchor="start" x="1260" y="-50" font-family="Helvetica,sans-Serif" font-size="10.00">ZeroTensorFunction</text>
<text text-anchor="middle" x="1310" y="-39" font-family="Helvetica,sans-Serif" font-size="10.00">&lt; rank, dim, Number &gt;</text>
</a>
</g>
</g>
<!-- Node2 -->
<g id="node2" class="node">
<title>Node2</title>
<g id="a_node2"><a xlink:href="classConstantTensorFunction.html" target="_top" xlink:title=" ">
<polygon fill="white" stroke="black" points="1092,-32 1092,-62 1215,-62 1215,-32 1092,-32"/>
<text text-anchor="start" x="1100" y="-50" font-family="Helvetica,sans-Serif" font-size="10.00">ConstantTensorFunction</text>
<text text-anchor="middle" x="1153.5" y="-39" font-family="Helvetica,sans-Serif" font-size="10.00">&lt; rank, dim, double &gt;</text>
</a>
</g>
</g>
<!-- Node2&#45;&gt;Node1 -->
<g id="edge1" class="edge">
<title>Node2&#45;&gt;Node1</title>
<path fill="none" stroke="midnightblue" d="M1225.14,-47C1234.08,-47 1243.14,-47 1251.84,-47"/>
<polygon fill="midnightblue" stroke="midnightblue" points="1225.12,-43.5 1215.12,-47 1225.12,-50.5 1225.12,-43.5"/>
</g>
<!-- Node3 -->
<g id="node3" class="node">
<title>Node3</title>
<g id="a_node3"><a xlink:href="classTensorFunction.html" target="_top" xlink:title=" ">
<polygon fill="white" stroke="black" points="685,-32 685,-62 799,-62 799,-32 685,-32"/>
<text text-anchor="start" x="693" y="-50" font-family="Helvetica,sans-Serif" font-size="10.00">TensorFunction&lt; rank,</text>
<text text-anchor="middle" x="742" y="-39" font-family="Helvetica,sans-Serif" font-size="10.00"> dim, double &gt;</text>
</a>
</g>
</g>
<!-- Node3&#45;&gt;Node2 -->
<g id="edge2" class="edge">
<title>Node3&#45;&gt;Node2</title>
<path fill="none" stroke="midnightblue" d="M809.65,-51.54C876.52,-55.4 982.45,-59.65 1074,-55 1079.75,-54.71 1085.72,-54.3 1091.69,-53.81"/>
<polygon fill="midnightblue" stroke="midnightblue" points="809.45,-48.02 799.26,-50.92 809.03,-55.01 809.45,-48.02"/>
</g>
<!-- Node8 -->
<g id="node8" class="node">
<title>Node8</title>
<g id="a_node8"><a xlink:href="classConstantTensorFunction.html" target="_top" xlink:title=" ">
<polygon fill="white" stroke="black" points="836,-10 836,-40 959,-40 959,-10 836,-10"/>
<text text-anchor="start" x="844" y="-28" font-family="Helvetica,sans-Serif" font-size="10.00">ConstantTensorFunction</text>
<text text-anchor="middle" x="897.5" y="-17" font-family="Helvetica,sans-Serif" font-size="10.00">&lt; rank, dim, Number &gt;</text>
</a>
</g>
</g>
<!-- Node3&#45;&gt;Node8 -->
<g id="edge10" class="edge">
<title>Node3&#45;&gt;Node8</title>
<path fill="none" stroke="midnightblue" d="M809.46,-37.47C818.22,-36.22 827.17,-34.94 835.83,-33.7"/>
<polygon fill="midnightblue" stroke="midnightblue" points="808.69,-34.05 799.29,-38.93 809.68,-40.98 808.69,-34.05"/>
</g>
<!-- Node4 -->
<g id="node4" class="node">
<title>Node4</title>
<g id="a_node4"><a xlink:href="classFunctionTime.html" target="_top" xlink:title=" ">
<polygon fill="white" stroke="black" points="279,-0.5 279,-41.5 401,-41.5 401,-0.5 279,-0.5"/>
<text text-anchor="start" x="287" y="-29.5" font-family="Helvetica,sans-Serif" font-size="10.00">FunctionTime&lt; numbers</text>
<text text-anchor="start" x="287" y="-18.5" font-family="Helvetica,sans-Serif" font-size="10.00">::NumberTraits&lt; double</text>
<text text-anchor="middle" x="340" y="-7.5" font-family="Helvetica,sans-Serif" font-size="10.00"> &gt;::real_type &gt;</text>
</a>
</g>
</g>
<!-- Node4&#45;&gt;Node3 -->
<g id="edge3" class="edge">
<title>Node4&#45;&gt;Node3</title>
<path fill="none" stroke="midnightblue" d="M411.28,-19.11C452.35,-18.56 505.17,-18.8 552,-22 596.91,-25.06 647.44,-31.93 684.95,-37.69"/>
<polygon fill="midnightblue" stroke="midnightblue" points="411.05,-15.61 401.1,-19.26 411.15,-22.61 411.05,-15.61"/>
</g>
<!-- Node7 -->
<g id="node7" class="node">
<title>Node7</title>
<g id="a_node7"><a xlink:href="classTensorFunction.html" target="_top" xlink:title=" ">
<polygon fill="white" stroke="black" points="438,-32 438,-62 552,-62 552,-32 438,-32"/>
<text text-anchor="start" x="446" y="-50" font-family="Helvetica,sans-Serif" font-size="10.00">TensorFunction&lt; rank,</text>
<text text-anchor="middle" x="495" y="-39" font-family="Helvetica,sans-Serif" font-size="10.00"> dim, Number &gt;</text>
</a>
</g>
</g>
<!-- Node4&#45;&gt;Node7 -->
<g id="edge7" class="edge">
<title>Node4&#45;&gt;Node7</title>
<path fill="none" stroke="midnightblue" d="M411.02,-32.9C419.94,-34.41 428.98,-35.95 437.64,-37.42"/>
<polygon fill="midnightblue" stroke="midnightblue" points="411.48,-29.43 401.03,-31.2 410.3,-36.33 411.48,-29.43"/>
</g>
<!-- Node5 -->
<g id="node5" class="node">
<title>Node5</title>
<g id="a_node5"><a xlink:href="classFunctionTime.html" target="_top" xlink:title=" ">
<polygon fill="white" stroke="black" points="0,-11.5 0,-30.5 128,-30.5 128,-11.5 0,-11.5"/>
<text text-anchor="middle" x="64" y="-18.5" font-family="Helvetica,sans-Serif" font-size="10.00">FunctionTime&lt; Number &gt;</text>
</a>
</g>
</g>
<!-- Node5&#45;&gt;Node4 -->
<g id="edge4" class="edge">
<title>Node5&#45;&gt;Node4</title>
<path fill="none" stroke="orange" stroke-dasharray="5,2" d="M138.27,-21C182.26,-21 237.53,-21 278.93,-21"/>
<polygon fill="orange" stroke="orange" points="138.21,-17.5 128.21,-21 138.21,-24.5 138.21,-17.5"/>
<text text-anchor="start" x="146" y="-35" font-family="Helvetica,sans-Serif" font-size="10.00"> &lt; numbers::NumberTraits</text>
<text text-anchor="middle" x="203.5" y="-24" font-family="Helvetica,sans-Serif" font-size="10.00">&lt; double &gt;::real_type &gt;</text>
</g>
<!-- Node6 -->
<g id="node6" class="node">
<title>Node6</title>
<g id="a_node6"><a xlink:href="classSubscriptor.html" target="_top" xlink:title=" ">
<polygon fill="white" stroke="black" points="307,-65.5 307,-84.5 373,-84.5 373,-65.5 307,-65.5"/>
<text text-anchor="middle" x="340" y="-72.5" font-family="Helvetica,sans-Serif" font-size="10.00">Subscriptor</text>
</a>
</g>
</g>
<!-- Node6&#45;&gt;Node3 -->
<g id="edge5" class="edge">
<title>Node6&#45;&gt;Node3</title>
<path fill="none" stroke="midnightblue" d="M383.35,-75.98C445.77,-76.82 565.98,-76.14 667,-62 672.84,-61.18 678.92,-60.19 684.96,-59.11"/>
<polygon fill="midnightblue" stroke="midnightblue" points="383.17,-72.48 373.12,-75.82 383.06,-79.47 383.17,-72.48"/>
</g>
<!-- Node6&#45;&gt;Node7 -->
<g id="edge8" class="edge">
<title>Node6&#45;&gt;Node7</title>
<path fill="none" stroke="midnightblue" d="M383.19,-67.28C400.07,-64.19 419.78,-60.58 437.85,-57.28"/>
<polygon fill="midnightblue" stroke="midnightblue" points="382.28,-63.89 373.07,-69.13 383.54,-70.77 382.28,-63.89"/>
</g>
<!-- Node7&#45;&gt;Node3 -->
<g id="edge6" class="edge">
<title>Node7&#45;&gt;Node3</title>
<path fill="none" stroke="orange" stroke-dasharray="5,2" d="M562.23,-47C600.51,-47 648.16,-47 684.63,-47"/>
<polygon fill="orange" stroke="orange" points="562.21,-43.5 552.21,-47 562.21,-50.5 562.21,-43.5"/>
<text text-anchor="middle" x="618.5" y="-50" font-family="Helvetica,sans-Serif" font-size="10.00"> &lt; rank, dim, double &gt;</text>
</g>
<!-- Node8&#45;&gt;Node2 -->
<g id="edge9" class="edge">
<title>Node8&#45;&gt;Node2</title>
<path fill="none" stroke="orange" stroke-dasharray="5,2" d="M969.11,-31.12C1007.58,-34.45 1054.72,-38.53 1091.57,-41.72"/>
<polygon fill="orange" stroke="orange" points="969.28,-27.62 959.02,-30.24 968.68,-34.59 969.28,-27.62"/>
<text text-anchor="middle" x="1025.5" y="-43" font-family="Helvetica,sans-Serif" font-size="10.00"> &lt; rank, dim, double &gt;</text>
</g>
</g>
</svg>
