<?xml version="1.0" encoding="UTF-8" standalone="no"?>
<!DOCTYPE svg PUBLIC "-//W3C//DTD SVG 1.1//EN"
 "http://www.w3.org/Graphics/SVG/1.1/DTD/svg11.dtd">
<!-- Generated by graphviz version 2.47.1 (20210417.1919)
 -->
<!-- Title: FE_DGPMonomial&lt; dim &gt; Pages: 1 -->
<svg width="224pt" height="299pt"
 viewBox="0.00 0.00 224.00 299.00" xmlns="http://www.w3.org/2000/svg" xmlns:xlink="http://www.w3.org/1999/xlink">
<g id="graph0" class="graph" transform="scale(1 1) rotate(0) translate(4 295)">
<title>FE_DGPMonomial&lt; dim &gt;</title>
<polygon fill="white" stroke="transparent" points="-4,4 -4,-295 220,-295 220,4 -4,4"/>
<!-- Node1 -->
<g id="node1" class="node">
<title>Node1</title>
<g id="a_node1"><a xlink:title=" ">
<polygon fill="#bfbfbf" stroke="black" points="32,-0.5 32,-19.5 164,-19.5 164,-0.5 32,-0.5"/>
<text text-anchor="middle" x="98" y="-7.5" font-family="Helvetica,sans-Serif" font-size="10.00">FE_DGPMonomial&lt; dim &gt;</text>
</a>
</g>
</g>
<!-- Node2 -->
<g id="node2" class="node">
<title>Node2</title>
<g id="a_node2"><a xlink:href="classFE__Poly.html" target="_top" xlink:title=" ">
<polygon fill="white" stroke="black" points="30,-57.5 30,-76.5 166,-76.5 166,-57.5 30,-57.5"/>
<text text-anchor="middle" x="98" y="-64.5" font-family="Helvetica,sans-Serif" font-size="10.00">FE_Poly&lt; dim, spacedim &gt;</text>
</a>
</g>
</g>
<!-- Node2&#45;&gt;Node1 -->
<g id="edge1" class="edge">
<title>Node2&#45;&gt;Node1</title>
<path fill="none" stroke="midnightblue" d="M98,-47.12C98,-37.82 98,-27.06 98,-19.71"/>
<polygon fill="midnightblue" stroke="midnightblue" points="94.5,-47.41 98,-57.41 101.5,-47.41 94.5,-47.41"/>
</g>
<!-- Node3 -->
<g id="node3" class="node">
<title>Node3</title>
<g id="a_node3"><a xlink:href="classFiniteElement.html" target="_top" xlink:title=" ">
<polygon fill="white" stroke="black" points="46,-114.5 46,-144.5 150,-144.5 150,-114.5 46,-114.5"/>
<text text-anchor="start" x="54" y="-132.5" font-family="Helvetica,sans-Serif" font-size="10.00">FiniteElement&lt; dim,</text>
<text text-anchor="middle" x="98" y="-121.5" font-family="Helvetica,sans-Serif" font-size="10.00"> dim &gt;</text>
</a>
</g>
</g>
<!-- Node3&#45;&gt;Node2 -->
<g id="edge2" class="edge">
<title>Node3&#45;&gt;Node2</title>
<path fill="none" stroke="midnightblue" d="M98,-104.35C98,-94.51 98,-83.78 98,-76.54"/>
<polygon fill="midnightblue" stroke="midnightblue" points="94.5,-104.47 98,-114.47 101.5,-104.47 94.5,-104.47"/>
</g>
<!-- Node4 -->
<g id="node4" class="node">
<title>Node4</title>
<g id="a_node4"><a xlink:href="classSubscriptor.html" target="_top" xlink:title=" ">
<polygon fill="white" stroke="black" points="0,-266 0,-285 66,-285 66,-266 0,-266"/>
<text text-anchor="middle" x="33" y="-273" font-family="Helvetica,sans-Serif" font-size="10.00">Subscriptor</text>
</a>
</g>
</g>
<!-- Node4&#45;&gt;Node3 -->
<g id="edge3" class="edge">
<title>Node4&#45;&gt;Node3</title>
<path fill="none" stroke="midnightblue" d="M30.22,-255.89C28.47,-238.58 27.99,-212.45 37,-192 45.61,-172.46 63.43,-155.67 77.6,-144.6"/>
<polygon fill="midnightblue" stroke="midnightblue" points="26.75,-256.36 31.47,-265.85 33.7,-255.49 26.75,-256.36"/>
</g>
<!-- Node6 -->
<g id="node6" class="node">
<title>Node6</title>
<g id="a_node6"><a xlink:href="classFiniteElement.html" target="_top" xlink:title=" ">
<polygon fill="white" stroke="black" points="46,-192.5 46,-222.5 150,-222.5 150,-192.5 46,-192.5"/>
<text text-anchor="start" x="54" y="-210.5" font-family="Helvetica,sans-Serif" font-size="10.00">FiniteElement&lt; dim,</text>
<text text-anchor="middle" x="98" y="-199.5" font-family="Helvetica,sans-Serif" font-size="10.00"> spacedim &gt;</text>
</a>
</g>
</g>
<!-- Node4&#45;&gt;Node6 -->
<g id="edge6" class="edge">
<title>Node4&#45;&gt;Node6</title>
<path fill="none" stroke="midnightblue" d="M48.64,-258.62C59.42,-247.67 73.63,-233.24 84.03,-222.68"/>
<polygon fill="midnightblue" stroke="midnightblue" points="46.02,-256.29 41.5,-265.87 51.01,-261.2 46.02,-256.29"/>
</g>
<!-- Node5 -->
<g id="node5" class="node">
<title>Node5</title>
<g id="a_node5"><a xlink:href="classFiniteElementData.html" target="_top" xlink:title=" ">
<polygon fill="white" stroke="black" points="112,-260.5 112,-290.5 216,-290.5 216,-260.5 112,-260.5"/>
<text text-anchor="start" x="120" y="-278.5" font-family="Helvetica,sans-Serif" font-size="10.00">FiniteElementData&lt;</text>
<text text-anchor="middle" x="164" y="-267.5" font-family="Helvetica,sans-Serif" font-size="10.00"> dim &gt;</text>
</a>
</g>
</g>
<!-- Node5&#45;&gt;Node3 -->
<g id="edge4" class="edge">
<title>Node5&#45;&gt;Node3</title>
<path fill="none" stroke="midnightblue" d="M170.04,-250.09C174.55,-226.03 177.43,-189.17 161,-163 156.09,-155.18 148.65,-149.16 140.59,-144.54"/>
<polygon fill="midnightblue" stroke="midnightblue" points="166.55,-249.66 167.92,-260.16 173.4,-251.1 166.55,-249.66"/>
</g>
<!-- Node5&#45;&gt;Node6 -->
<g id="edge7" class="edge">
<title>Node5&#45;&gt;Node6</title>
<path fill="none" stroke="midnightblue" d="M142.49,-252.99C132.59,-243.09 121.11,-231.61 112.29,-222.79"/>
<polygon fill="midnightblue" stroke="midnightblue" points="140.13,-255.58 149.68,-260.18 145.08,-250.63 140.13,-255.58"/>
</g>
<!-- Node6&#45;&gt;Node3 -->
<g id="edge5" class="edge">
<title>Node6&#45;&gt;Node3</title>
<path fill="none" stroke="orange" stroke-dasharray="5,2" d="M98,-182.09C98,-169.76 98,-155.22 98,-144.73"/>
<polygon fill="orange" stroke="orange" points="94.5,-182.2 98,-192.2 101.5,-182.21 94.5,-182.2"/>
<text text-anchor="middle" x="127.5" y="-166" font-family="Helvetica,sans-Serif" font-size="10.00"> &lt; dim, dim &gt;</text>
</g>
</g>
</svg>
