<?xml version="1.0" encoding="UTF-8" standalone="no"?>
<!DOCTYPE svg PUBLIC "-//W3C//DTD SVG 1.1//EN"
 "http://www.w3.org/Graphics/SVG/1.1/DTD/svg11.dtd">
<!-- Generated by graphviz version 2.47.1 (20210417.1919)
 -->
<!-- Title: SparseMatrix&lt; number &gt; Pages: 1 -->
<svg width="332pt" height="220pt"
 viewBox="0.00 0.00 332.00 220.00" xmlns="http://www.w3.org/2000/svg" xmlns:xlink="http://www.w3.org/1999/xlink">
<g id="graph0" class="graph" transform="scale(1 1) rotate(0) translate(4 216)">
<title>SparseMatrix&lt; number &gt;</title>
<polygon fill="white" stroke="transparent" points="-4,4 -4,-216 328,-216 328,4 -4,4"/>
<!-- Node1 -->
<g id="node1" class="node">
<title>Node1</title>
<g id="a_node1"><a xlink:title=" ">
<polygon fill="#bfbfbf" stroke="black" points="130,-135.5 130,-154.5 255,-154.5 255,-135.5 130,-135.5"/>
<text text-anchor="middle" x="192.5" y="-142.5" font-family="Helvetica,sans-Serif" font-size="10.00">SparseMatrix&lt; number &gt;</text>
</a>
</g>
</g>
<!-- Node3 -->
<g id="node3" class="node">
<title>Node3</title>
<g id="a_node3"><a xlink:href="classSparseLUDecomposition.html" target="_top" xlink:title=" ">
<polygon fill="white" stroke="black" points="60,-57.5 60,-87.5 185,-87.5 185,-57.5 60,-57.5"/>
<text text-anchor="start" x="68" y="-75.5" font-family="Helvetica,sans-Serif" font-size="10.00">SparseLUDecomposition</text>
<text text-anchor="middle" x="122.5" y="-64.5" font-family="Helvetica,sans-Serif" font-size="10.00">&lt; number &gt;</text>
</a>
</g>
</g>
<!-- Node1&#45;&gt;Node3 -->
<g id="edge2" class="edge">
<title>Node1&#45;&gt;Node3</title>
<path fill="none" stroke="darkgreen" d="M176.71,-128.09C164.61,-115.91 148.09,-99.27 136.48,-87.58"/>
<polygon fill="darkgreen" stroke="darkgreen" points="174.39,-130.73 183.92,-135.36 179.35,-125.79 174.39,-130.73"/>
</g>
<!-- Node6 -->
<g id="node6" class="node">
<title>Node6</title>
<g id="a_node6"><a xlink:href="classSparseMatrix.html" target="_top" xlink:title=" ">
<polygon fill="white" stroke="black" points="203,-63 203,-82 324,-82 324,-63 203,-63"/>
<text text-anchor="middle" x="263.5" y="-70" font-family="Helvetica,sans-Serif" font-size="10.00">SparseMatrix&lt; double &gt;</text>
</a>
</g>
</g>
<!-- Node1&#45;&gt;Node6 -->
<g id="edge5" class="edge">
<title>Node1&#45;&gt;Node6</title>
<path fill="none" stroke="orange" stroke-dasharray="5,2" d="M208.42,-128.19C222.72,-113.99 243.19,-93.67 254.72,-82.22"/>
<polygon fill="orange" stroke="orange" points="205.84,-125.83 201.21,-135.36 210.77,-130.79 205.84,-125.83"/>
<text text-anchor="middle" x="254.5" y="-109" font-family="Helvetica,sans-Serif" font-size="10.00"> &lt; double &gt;</text>
</g>
<!-- Node2 -->
<g id="node2" class="node">
<title>Node2</title>
<g id="a_node2"><a xlink:href="classSubscriptor.html" target="_top" xlink:title=" ">
<polygon fill="white" stroke="black" points="159.5,-192.5 159.5,-211.5 225.5,-211.5 225.5,-192.5 159.5,-192.5"/>
<text text-anchor="middle" x="192.5" y="-199.5" font-family="Helvetica,sans-Serif" font-size="10.00">Subscriptor</text>
</a>
</g>
</g>
<!-- Node2&#45;&gt;Node1 -->
<g id="edge1" class="edge">
<title>Node2&#45;&gt;Node1</title>
<path fill="none" stroke="midnightblue" d="M192.5,-182.12C192.5,-172.82 192.5,-162.06 192.5,-154.71"/>
<polygon fill="midnightblue" stroke="midnightblue" points="189,-182.41 192.5,-192.41 196,-182.41 189,-182.41"/>
</g>
<!-- Node4 -->
<g id="node4" class="node">
<title>Node4</title>
<g id="a_node4"><a xlink:href="classSparseILU.html" target="_top" xlink:title=" ">
<polygon fill="white" stroke="black" points="0,-0.5 0,-19.5 113,-19.5 113,-0.5 0,-0.5"/>
<text text-anchor="middle" x="56.5" y="-7.5" font-family="Helvetica,sans-Serif" font-size="10.00">SparseILU&lt; number &gt;</text>
</a>
</g>
</g>
<!-- Node3&#45;&gt;Node4 -->
<g id="edge3" class="edge">
<title>Node3&#45;&gt;Node4</title>
<path fill="none" stroke="midnightblue" d="M99.54,-50.46C87.96,-39.84 74.55,-27.55 65.82,-19.54"/>
<polygon fill="midnightblue" stroke="midnightblue" points="97.46,-53.29 107.19,-57.47 102.19,-48.13 97.46,-53.29"/>
</g>
<!-- Node5 -->
<g id="node5" class="node">
<title>Node5</title>
<g id="a_node5"><a xlink:href="classSparseMIC.html" target="_top" xlink:title=" ">
<polygon fill="white" stroke="black" points="131.5,-0.5 131.5,-19.5 247.5,-19.5 247.5,-0.5 131.5,-0.5"/>
<text text-anchor="middle" x="189.5" y="-7.5" font-family="Helvetica,sans-Serif" font-size="10.00">SparseMIC&lt; number &gt;</text>
</a>
</g>
</g>
<!-- Node3&#45;&gt;Node5 -->
<g id="edge4" class="edge">
<title>Node3&#45;&gt;Node5</title>
<path fill="none" stroke="midnightblue" d="M145.47,-50.76C157.3,-40.07 171.09,-27.62 180.04,-19.54"/>
<polygon fill="midnightblue" stroke="midnightblue" points="143.12,-48.17 138.04,-57.47 147.81,-53.36 143.12,-48.17"/>
</g>
</g>
</svg>
