<?xml version="1.0" encoding="UTF-8" standalone="no"?>
<!DOCTYPE svg PUBLIC "-//W3C//DTD SVG 1.1//EN"
 "http://www.w3.org/Graphics/SVG/1.1/DTD/svg11.dtd">
<!-- Generated by graphviz version 2.47.1 (20210417.1919)
 -->
<!-- Title: FE_PolyFace&lt; PolynomialType, dim, spacedim &gt; Pages: 1 -->
<svg width="1326pt" height="118pt"
 viewBox="0.00 0.00 1326.00 117.50" xmlns="http://www.w3.org/2000/svg" xmlns:xlink="http://www.w3.org/1999/xlink">
<g id="graph0" class="graph" transform="scale(1 1) rotate(0) translate(4 113.5)">
<title>FE_PolyFace&lt; PolynomialType, dim, spacedim &gt;</title>
<polygon fill="white" stroke="transparent" points="-4,4 -4,-113.5 1322,-113.5 1322,4 -4,4"/>
<!-- Node1 -->
<g id="node1" class="node">
<title>Node1</title>
<g id="a_node1"><a xlink:title=" ">
<polygon fill="#bfbfbf" stroke="black" points="649,-51 649,-81 806,-81 806,-51 649,-51"/>
<text text-anchor="start" x="657" y="-69" font-family="Helvetica,sans-Serif" font-size="10.00">FE_PolyFace&lt; PolynomialType,</text>
<text text-anchor="middle" x="727.5" y="-58" font-family="Helvetica,sans-Serif" font-size="10.00"> dim, spacedim &gt;</text>
</a>
</g>
</g>
<!-- Node6 -->
<g id="node6" class="node">
<title>Node6</title>
<g id="a_node6"><a xlink:href="classFE__PolyFace.html" target="_top" xlink:title=" ">
<polygon fill="white" stroke="black" points="971,-79 971,-109 1132,-109 1132,-79 971,-79"/>
<text text-anchor="start" x="979" y="-97" font-family="Helvetica,sans-Serif" font-size="10.00">FE_PolyFace&lt; PolynomialSpace</text>
<text text-anchor="middle" x="1051.5" y="-86" font-family="Helvetica,sans-Serif" font-size="10.00">&lt; dim &#45; 1 &gt;, dim, dim &gt;</text>
</a>
</g>
</g>
<!-- Node1&#45;&gt;Node6 -->
<g id="edge7" class="edge">
<title>Node1&#45;&gt;Node6</title>
<path fill="none" stroke="orange" stroke-dasharray="5,2" d="M816.16,-73.62C864.43,-77.82 923.89,-82.99 970.84,-87.07"/>
<polygon fill="orange" stroke="orange" points="816.3,-70.12 806.04,-72.74 815.7,-77.1 816.3,-70.12"/>
<text text-anchor="start" x="841" y="-98" font-family="Helvetica,sans-Serif" font-size="10.00"> &lt; PolynomialSpace&lt;</text>
<text text-anchor="middle" x="888.5" y="-87" font-family="Helvetica,sans-Serif" font-size="10.00"> dim &#45; 1 &gt;, dim, dim &gt;</text>
</g>
<!-- Node8 -->
<g id="node8" class="node">
<title>Node8</title>
<g id="a_node8"><a xlink:href="classFE__PolyFace.html" target="_top" xlink:title=" ">
<polygon fill="white" stroke="black" points="977.5,-18.5 977.5,-59.5 1125.5,-59.5 1125.5,-18.5 977.5,-18.5"/>
<text text-anchor="start" x="985.5" y="-47.5" font-family="Helvetica,sans-Serif" font-size="10.00">FE_PolyFace&lt; TensorProduct</text>
<text text-anchor="start" x="985.5" y="-36.5" font-family="Helvetica,sans-Serif" font-size="10.00">Polynomials&lt; dim &#45; 1 &gt;,</text>
<text text-anchor="middle" x="1051.5" y="-25.5" font-family="Helvetica,sans-Serif" font-size="10.00"> dim, dim &gt;</text>
</a>
</g>
</g>
<!-- Node1&#45;&gt;Node8 -->
<g id="edge9" class="edge">
<title>Node1&#45;&gt;Node8</title>
<path fill="none" stroke="orange" stroke-dasharray="5,2" d="M807.29,-49.29C812.93,-48.42 818.54,-47.64 824,-47 875,-41.06 932.87,-39.1 977.34,-38.6"/>
<polygon fill="orange" stroke="orange" points="806.44,-45.89 797.15,-50.97 807.58,-52.79 806.44,-45.89"/>
<text text-anchor="start" x="824" y="-61" font-family="Helvetica,sans-Serif" font-size="10.00"> &lt; TensorProductPolynomials</text>
<text text-anchor="middle" x="888.5" y="-50" font-family="Helvetica,sans-Serif" font-size="10.00">&lt; dim &#45; 1 &gt;, dim, dim &gt;</text>
</g>
<!-- Node2 -->
<g id="node2" class="node">
<title>Node2</title>
<g id="a_node2"><a xlink:href="classFiniteElement.html" target="_top" xlink:title=" ">
<polygon fill="white" stroke="black" points="438,-45.5 438,-86.5 612,-86.5 612,-45.5 438,-45.5"/>
<text text-anchor="start" x="446" y="-74.5" font-family="Helvetica,sans-Serif" font-size="10.00">FiniteElement&lt; Polynomial</text>
<text text-anchor="start" x="446" y="-63.5" font-family="Helvetica,sans-Serif" font-size="10.00">Type::dimension+1, PolynomialType</text>
<text text-anchor="middle" x="525" y="-52.5" font-family="Helvetica,sans-Serif" font-size="10.00">::dimension+1 &gt;</text>
</a>
</g>
</g>
<!-- Node2&#45;&gt;Node1 -->
<g id="edge1" class="edge">
<title>Node2&#45;&gt;Node1</title>
<path fill="none" stroke="midnightblue" d="M622.25,-66C631.2,-66 640.18,-66 648.92,-66"/>
<polygon fill="midnightblue" stroke="midnightblue" points="622.19,-62.5 612.19,-66 622.19,-69.5 622.19,-62.5"/>
</g>
<!-- Node3 -->
<g id="node3" class="node">
<title>Node3</title>
<g id="a_node3"><a xlink:href="classSubscriptor.html" target="_top" xlink:title=" ">
<polygon fill="white" stroke="black" points="19,-80.5 19,-99.5 85,-99.5 85,-80.5 19,-80.5"/>
<text text-anchor="middle" x="52" y="-87.5" font-family="Helvetica,sans-Serif" font-size="10.00">Subscriptor</text>
</a>
</g>
</g>
<!-- Node3&#45;&gt;Node2 -->
<g id="edge2" class="edge">
<title>Node3&#45;&gt;Node2</title>
<path fill="none" stroke="midnightblue" d="M95.45,-93.73C164.02,-98.97 303.25,-106.37 420,-92 430.25,-90.74 440.95,-88.8 451.41,-86.54"/>
<polygon fill="midnightblue" stroke="midnightblue" points="95.31,-90.21 85.07,-92.91 94.76,-97.19 95.31,-90.21"/>
</g>
<!-- Node5 -->
<g id="node5" class="node">
<title>Node5</title>
<g id="a_node5"><a xlink:href="classFiniteElement.html" target="_top" xlink:title=" ">
<polygon fill="white" stroke="black" points="141,-51 141,-81 245,-81 245,-51 141,-51"/>
<text text-anchor="start" x="149" y="-69" font-family="Helvetica,sans-Serif" font-size="10.00">FiniteElement&lt; dim,</text>
<text text-anchor="middle" x="193" y="-58" font-family="Helvetica,sans-Serif" font-size="10.00"> spacedim &gt;</text>
</a>
</g>
</g>
<!-- Node3&#45;&gt;Node5 -->
<g id="edge5" class="edge">
<title>Node3&#45;&gt;Node5</title>
<path fill="none" stroke="midnightblue" d="M95.33,-82.69C109.7,-80.21 125.9,-77.41 140.88,-74.83"/>
<polygon fill="midnightblue" stroke="midnightblue" points="94.5,-79.28 85.24,-84.43 95.69,-86.18 94.5,-79.28"/>
</g>
<!-- Node4 -->
<g id="node4" class="node">
<title>Node4</title>
<g id="a_node4"><a xlink:href="classFiniteElementData.html" target="_top" xlink:title=" ">
<polygon fill="white" stroke="black" points="0,-28 0,-58 104,-58 104,-28 0,-28"/>
<text text-anchor="start" x="8" y="-46" font-family="Helvetica,sans-Serif" font-size="10.00">FiniteElementData&lt;</text>
<text text-anchor="middle" x="52" y="-35" font-family="Helvetica,sans-Serif" font-size="10.00"> dim &gt;</text>
</a>
</g>
</g>
<!-- Node4&#45;&gt;Node2 -->
<g id="edge3" class="edge">
<title>Node4&#45;&gt;Node2</title>
<path fill="none" stroke="midnightblue" d="M114.22,-41.43C123.2,-41.25 132.34,-41.1 141,-41 187.22,-40.47 198.82,-38.94 245,-41 309.74,-43.89 382.67,-50.55 437.73,-56.27"/>
<polygon fill="midnightblue" stroke="midnightblue" points="114.11,-37.93 104.18,-41.64 114.25,-44.93 114.11,-37.93"/>
</g>
<!-- Node4&#45;&gt;Node5 -->
<g id="edge6" class="edge">
<title>Node4&#45;&gt;Node5</title>
<path fill="none" stroke="midnightblue" d="M114.27,-53.14C123.15,-54.61 132.2,-56.11 140.85,-57.54"/>
<polygon fill="midnightblue" stroke="midnightblue" points="114.8,-49.68 104.36,-51.5 113.66,-56.58 114.8,-49.68"/>
</g>
<!-- Node5&#45;&gt;Node2 -->
<g id="edge4" class="edge">
<title>Node5&#45;&gt;Node2</title>
<path fill="none" stroke="orange" stroke-dasharray="5,2" d="M255.49,-66C306.87,-66 380.72,-66 437.97,-66"/>
<polygon fill="orange" stroke="orange" points="255.2,-62.5 245.2,-66 255.2,-69.5 255.2,-62.5"/>
<text text-anchor="start" x="263" y="-80" font-family="Helvetica,sans-Serif" font-size="10.00"> &lt; PolynomialType::dimension</text>
<text text-anchor="middle" x="341.5" y="-69" font-family="Helvetica,sans-Serif" font-size="10.00">+1, PolynomialType::dimension+1 &gt;</text>
</g>
<!-- Node7 -->
<g id="node7" class="node">
<title>Node7</title>
<g id="a_node7"><a xlink:href="classFE__FaceP.html" target="_top" xlink:title=" ">
<polygon fill="white" stroke="black" points="1171,-84.5 1171,-103.5 1316,-103.5 1316,-84.5 1171,-84.5"/>
<text text-anchor="middle" x="1243.5" y="-91.5" font-family="Helvetica,sans-Serif" font-size="10.00">FE_FaceP&lt; dim, spacedim &gt;</text>
</a>
</g>
</g>
<!-- Node6&#45;&gt;Node7 -->
<g id="edge8" class="edge">
<title>Node6&#45;&gt;Node7</title>
<path fill="none" stroke="midnightblue" d="M1142.51,-94C1152.01,-94 1161.57,-94 1170.81,-94"/>
<polygon fill="midnightblue" stroke="midnightblue" points="1142.25,-90.5 1132.25,-94 1142.25,-97.5 1142.25,-90.5"/>
</g>
<!-- Node9 -->
<g id="node9" class="node">
<title>Node9</title>
<g id="a_node9"><a xlink:href="classFE__FaceQ.html" target="_top" xlink:title=" ">
<polygon fill="white" stroke="black" points="1170.5,-38.5 1170.5,-57.5 1316.5,-57.5 1316.5,-38.5 1170.5,-38.5"/>
<text text-anchor="middle" x="1243.5" y="-45.5" font-family="Helvetica,sans-Serif" font-size="10.00">FE_FaceQ&lt; dim, spacedim &gt;</text>
</a>
</g>
</g>
<!-- Node8&#45;&gt;Node9 -->
<g id="edge10" class="edge">
<title>Node8&#45;&gt;Node9</title>
<path fill="none" stroke="midnightblue" d="M1135.73,-42.94C1147.25,-43.49 1159,-44.04 1170.29,-44.58"/>
<polygon fill="midnightblue" stroke="midnightblue" points="1135.84,-39.44 1125.69,-42.47 1135.51,-46.44 1135.84,-39.44"/>
</g>
<!-- Node10 -->
<g id="node10" class="node">
<title>Node10</title>
<g id="a_node10"><a xlink:href="classFE__TraceQ.html" target="_top" xlink:title=" ">
<polygon fill="white" stroke="black" points="1169,-0.5 1169,-19.5 1318,-19.5 1318,-0.5 1169,-0.5"/>
<text text-anchor="middle" x="1243.5" y="-7.5" font-family="Helvetica,sans-Serif" font-size="10.00">FE_TraceQ&lt; dim, spacedim &gt;</text>
</a>
</g>
</g>
<!-- Node8&#45;&gt;Node10 -->
<g id="edge11" class="edge">
<title>Node8&#45;&gt;Node10</title>
<path fill="none" stroke="midnightblue" d="M1135.9,-26.27C1150.77,-24 1166.02,-21.67 1180.17,-19.51"/>
<polygon fill="midnightblue" stroke="midnightblue" points="1135.04,-22.86 1125.69,-27.83 1136.1,-29.78 1135.04,-22.86"/>
</g>
</g>
</svg>
