<?xml version="1.0" encoding="UTF-8" standalone="no"?>
<!DOCTYPE svg PUBLIC "-//W3C//DTD SVG 1.1//EN"
 "http://www.w3.org/Graphics/SVG/1.1/DTD/svg11.dtd">
<!-- Generated by graphviz version 2.47.1 (20210417.1919)
 -->
<!-- Title: PETScWrappers::PreconditionBase Pages: 1 -->
<svg width="496pt" height="466pt"
 viewBox="0.00 0.00 496.00 465.50" xmlns="http://www.w3.org/2000/svg" xmlns:xlink="http://www.w3.org/1999/xlink">
<g id="graph0" class="graph" transform="scale(1 1) rotate(0) translate(4 461.5)">
<title>PETScWrappers::PreconditionBase</title>
<polygon fill="white" stroke="transparent" points="-4,4 -4,-461.5 492,-461.5 492,4 -4,4"/>
<!-- Node1 -->
<g id="node1" class="node">
<title>Node1</title>
<g id="a_node1"><a xlink:title=" ">
<polygon fill="#bfbfbf" stroke="black" points="102,-208.5 102,-227.5 274,-227.5 274,-208.5 102,-208.5"/>
<text text-anchor="middle" x="188" y="-215.5" font-family="Helvetica,sans-Serif" font-size="10.00">PETScWrappers::PreconditionBase</text>
</a>
</g>
</g>
<!-- Node3 -->
<g id="node3" class="node">
<title>Node3</title>
<g id="a_node3"><a xlink:href="classPETScWrappers_1_1PreconditionBlockJacobi.html" target="_top" xlink:title=" ">
<polygon fill="white" stroke="black" points="324.5,-427 324.5,-457 473.5,-457 473.5,-427 324.5,-427"/>
<text text-anchor="start" x="332.5" y="-445" font-family="Helvetica,sans-Serif" font-size="10.00">PETScWrappers::Precondition</text>
<text text-anchor="middle" x="399" y="-434" font-family="Helvetica,sans-Serif" font-size="10.00">BlockJacobi</text>
</a>
</g>
</g>
<!-- Node1&#45;&gt;Node3 -->
<g id="edge2" class="edge">
<title>Node1&#45;&gt;Node3</title>
<path fill="none" stroke="midnightblue" d="M195.16,-237.33C208.95,-277.42 246.2,-369.86 310,-418 314.55,-421.43 319.56,-424.38 324.81,-426.9"/>
<polygon fill="midnightblue" stroke="midnightblue" points="198.44,-236.09 191.96,-227.7 191.79,-238.3 198.44,-236.09"/>
</g>
<!-- Node4 -->
<g id="node4" class="node">
<title>Node4</title>
<g id="a_node4"><a xlink:href="classPETScWrappers_1_1PreconditionBoomerAMG.html" target="_top" xlink:title=" ">
<polygon fill="white" stroke="black" points="324.5,-378 324.5,-408 473.5,-408 473.5,-378 324.5,-378"/>
<text text-anchor="start" x="332.5" y="-396" font-family="Helvetica,sans-Serif" font-size="10.00">PETScWrappers::Precondition</text>
<text text-anchor="middle" x="399" y="-385" font-family="Helvetica,sans-Serif" font-size="10.00">BoomerAMG</text>
</a>
</g>
</g>
<!-- Node1&#45;&gt;Node4 -->
<g id="edge3" class="edge">
<title>Node1&#45;&gt;Node4</title>
<path fill="none" stroke="midnightblue" d="M198.73,-236.67C216.44,-268.75 257.03,-334.24 310,-369 315.3,-372.48 321.09,-375.45 327.08,-378"/>
<polygon fill="midnightblue" stroke="midnightblue" points="201.62,-234.65 193.8,-227.5 195.46,-237.97 201.62,-234.65"/>
</g>
<!-- Node5 -->
<g id="node5" class="node">
<title>Node5</title>
<g id="a_node5"><a xlink:href="classPETScWrappers_1_1PreconditionEisenstat.html" target="_top" xlink:title=" ">
<polygon fill="white" stroke="black" points="324.5,-329 324.5,-359 473.5,-359 473.5,-329 324.5,-329"/>
<text text-anchor="start" x="332.5" y="-347" font-family="Helvetica,sans-Serif" font-size="10.00">PETScWrappers::Precondition</text>
<text text-anchor="middle" x="399" y="-336" font-family="Helvetica,sans-Serif" font-size="10.00">Eisenstat</text>
</a>
</g>
</g>
<!-- Node1&#45;&gt;Node5 -->
<g id="edge4" class="edge">
<title>Node1&#45;&gt;Node5</title>
<path fill="none" stroke="midnightblue" d="M204.79,-235.04C226.45,-257.44 267.55,-296.57 310,-319 317.16,-322.78 324.96,-326.05 332.86,-328.86"/>
<polygon fill="midnightblue" stroke="midnightblue" points="207.15,-232.44 197.72,-227.61 202.08,-237.27 207.15,-232.44"/>
</g>
<!-- Node6 -->
<g id="node6" class="node">
<title>Node6</title>
<g id="a_node6"><a xlink:href="classPETScWrappers_1_1PreconditionICC.html" target="_top" xlink:title=" ">
<polygon fill="white" stroke="black" points="315.5,-290.5 315.5,-309.5 482.5,-309.5 482.5,-290.5 315.5,-290.5"/>
<text text-anchor="middle" x="399" y="-297.5" font-family="Helvetica,sans-Serif" font-size="10.00">PETScWrappers::PreconditionICC</text>
</a>
</g>
</g>
<!-- Node1&#45;&gt;Node6 -->
<g id="edge5" class="edge">
<title>Node1&#45;&gt;Node6</title>
<path fill="none" stroke="midnightblue" d="M212.74,-232.8C236.53,-247.04 274.6,-268.22 310,-281 320.44,-284.77 331.86,-287.91 342.91,-290.48"/>
<polygon fill="midnightblue" stroke="midnightblue" points="214.42,-229.73 204.06,-227.53 210.79,-235.71 214.42,-229.73"/>
</g>
<!-- Node7 -->
<g id="node7" class="node">
<title>Node7</title>
<g id="a_node7"><a xlink:href="classPETScWrappers_1_1PreconditionILU.html" target="_top" xlink:title=" ">
<polygon fill="white" stroke="black" points="316.5,-252.5 316.5,-271.5 481.5,-271.5 481.5,-252.5 316.5,-252.5"/>
<text text-anchor="middle" x="399" y="-259.5" font-family="Helvetica,sans-Serif" font-size="10.00">PETScWrappers::PreconditionILU</text>
</a>
</g>
</g>
<!-- Node1&#45;&gt;Node7 -->
<g id="edge6" class="edge">
<title>Node1&#45;&gt;Node7</title>
<path fill="none" stroke="midnightblue" d="M244.54,-229.69C278.35,-236.81 320.99,-245.79 352.74,-252.47"/>
<polygon fill="midnightblue" stroke="midnightblue" points="244.86,-226.18 234.35,-227.55 243.41,-233.03 244.86,-226.18"/>
</g>
<!-- Node8 -->
<g id="node8" class="node">
<title>Node8</title>
<g id="a_node8"><a xlink:href="classPETScWrappers_1_1PreconditionJacobi.html" target="_top" xlink:title=" ">
<polygon fill="white" stroke="black" points="324.5,-203 324.5,-233 473.5,-233 473.5,-203 324.5,-203"/>
<text text-anchor="start" x="332.5" y="-221" font-family="Helvetica,sans-Serif" font-size="10.00">PETScWrappers::Precondition</text>
<text text-anchor="middle" x="399" y="-210" font-family="Helvetica,sans-Serif" font-size="10.00">Jacobi</text>
</a>
</g>
</g>
<!-- Node1&#45;&gt;Node8 -->
<g id="edge7" class="edge">
<title>Node1&#45;&gt;Node8</title>
<path fill="none" stroke="midnightblue" d="M284.27,-218C297.76,-218 311.46,-218 324.46,-218"/>
<polygon fill="midnightblue" stroke="midnightblue" points="284.01,-214.5 274.01,-218 284.01,-221.5 284.01,-214.5"/>
</g>
<!-- Node9 -->
<g id="node9" class="node">
<title>Node9</title>
<g id="a_node9"><a xlink:href="classPETScWrappers_1_1PreconditionLU.html" target="_top" xlink:title=" ">
<polygon fill="white" stroke="black" points="318,-164.5 318,-183.5 480,-183.5 480,-164.5 318,-164.5"/>
<text text-anchor="middle" x="399" y="-171.5" font-family="Helvetica,sans-Serif" font-size="10.00">PETScWrappers::PreconditionLU</text>
</a>
</g>
</g>
<!-- Node1&#45;&gt;Node9 -->
<g id="edge8" class="edge">
<title>Node1&#45;&gt;Node9</title>
<path fill="none" stroke="midnightblue" d="M244.54,-206.31C278.35,-199.19 320.99,-190.21 352.74,-183.53"/>
<polygon fill="midnightblue" stroke="midnightblue" points="243.41,-202.97 234.35,-208.45 244.86,-209.82 243.41,-202.97"/>
</g>
<!-- Node10 -->
<g id="node10" class="node">
<title>Node10</title>
<g id="a_node10"><a xlink:href="classPETScWrappers_1_1PreconditionNone.html" target="_top" xlink:title=" ">
<polygon fill="white" stroke="black" points="312.5,-126.5 312.5,-145.5 485.5,-145.5 485.5,-126.5 312.5,-126.5"/>
<text text-anchor="middle" x="399" y="-133.5" font-family="Helvetica,sans-Serif" font-size="10.00">PETScWrappers::PreconditionNone</text>
</a>
</g>
</g>
<!-- Node1&#45;&gt;Node10 -->
<g id="edge9" class="edge">
<title>Node1&#45;&gt;Node10</title>
<path fill="none" stroke="midnightblue" d="M212.74,-203.2C236.53,-188.96 274.6,-167.78 310,-155 320.44,-151.23 331.86,-148.09 342.91,-145.52"/>
<polygon fill="midnightblue" stroke="midnightblue" points="210.79,-200.29 204.06,-208.47 214.42,-206.27 210.79,-200.29"/>
</g>
<!-- Node11 -->
<g id="node11" class="node">
<title>Node11</title>
<g id="a_node11"><a xlink:href="classPETScWrappers_1_1PreconditionParaSails.html" target="_top" xlink:title=" ">
<polygon fill="white" stroke="black" points="324.5,-77 324.5,-107 473.5,-107 473.5,-77 324.5,-77"/>
<text text-anchor="start" x="332.5" y="-95" font-family="Helvetica,sans-Serif" font-size="10.00">PETScWrappers::Precondition</text>
<text text-anchor="middle" x="399" y="-84" font-family="Helvetica,sans-Serif" font-size="10.00">ParaSails</text>
</a>
</g>
</g>
<!-- Node1&#45;&gt;Node11 -->
<g id="edge10" class="edge">
<title>Node1&#45;&gt;Node11</title>
<path fill="none" stroke="midnightblue" d="M204.79,-200.96C226.45,-178.56 267.55,-139.43 310,-117 317.16,-113.22 324.96,-109.95 332.86,-107.14"/>
<polygon fill="midnightblue" stroke="midnightblue" points="202.08,-198.73 197.72,-208.39 207.15,-203.56 202.08,-198.73"/>
</g>
<!-- Node12 -->
<g id="node12" class="node">
<title>Node12</title>
<g id="a_node12"><a xlink:href="classPETScWrappers_1_1PreconditionSOR.html" target="_top" xlink:title=" ">
<polygon fill="white" stroke="black" points="313.5,-38.5 313.5,-57.5 484.5,-57.5 484.5,-38.5 313.5,-38.5"/>
<text text-anchor="middle" x="399" y="-45.5" font-family="Helvetica,sans-Serif" font-size="10.00">PETScWrappers::PreconditionSOR</text>
</a>
</g>
</g>
<!-- Node1&#45;&gt;Node12 -->
<g id="edge11" class="edge">
<title>Node1&#45;&gt;Node12</title>
<path fill="none" stroke="midnightblue" d="M198.32,-199.46C215.61,-167.07 255.89,-100.47 310,-67 316.25,-63.14 323.17,-60.05 330.3,-57.59"/>
<polygon fill="midnightblue" stroke="midnightblue" points="195.21,-197.85 193.7,-208.33 201.42,-201.08 195.21,-197.85"/>
</g>
<!-- Node13 -->
<g id="node13" class="node">
<title>Node13</title>
<g id="a_node13"><a xlink:href="classPETScWrappers_1_1PreconditionSSOR.html" target="_top" xlink:title=" ">
<polygon fill="white" stroke="black" points="310,-0.5 310,-19.5 488,-19.5 488,-0.5 310,-0.5"/>
<text text-anchor="middle" x="399" y="-7.5" font-family="Helvetica,sans-Serif" font-size="10.00">PETScWrappers::PreconditionSSOR</text>
</a>
</g>
</g>
<!-- Node1&#45;&gt;Node13 -->
<g id="edge12" class="edge">
<title>Node1&#45;&gt;Node13</title>
<path fill="none" stroke="midnightblue" d="M195.57,-198.67C209.82,-159.86 247.4,-72.47 310,-29 315.52,-25.17 321.67,-22.08 328.08,-19.61"/>
<polygon fill="midnightblue" stroke="midnightblue" points="192.22,-197.65 192.17,-208.25 198.82,-199.99 192.22,-197.65"/>
</g>
<!-- Node2 -->
<g id="node2" class="node">
<title>Node2</title>
<g id="a_node2"><a xlink:href="classSubscriptor.html" target="_top" xlink:title=" ">
<polygon fill="white" stroke="black" points="0,-208.5 0,-227.5 66,-227.5 66,-208.5 0,-208.5"/>
<text text-anchor="middle" x="33" y="-215.5" font-family="Helvetica,sans-Serif" font-size="10.00">Subscriptor</text>
</a>
</g>
</g>
<!-- Node2&#45;&gt;Node1 -->
<g id="edge1" class="edge">
<title>Node2&#45;&gt;Node1</title>
<path fill="none" stroke="midnightblue" d="M76.21,-218C84.23,-218 92.88,-218 101.69,-218"/>
<polygon fill="midnightblue" stroke="midnightblue" points="76.07,-214.5 66.07,-218 76.07,-221.5 76.07,-214.5"/>
</g>
</g>
</svg>
