<?xml version="1.0" encoding="UTF-8" standalone="no"?>
<!DOCTYPE svg PUBLIC "-//W3C//DTD SVG 1.1//EN"
 "http://www.w3.org/Graphics/SVG/1.1/DTD/svg11.dtd">
<!-- Generated by graphviz version 2.47.1 (20210417.1919)
 -->
<!-- Title: DataOutFaces&lt; dim, DoFHandlerType &gt; Pages: 1 -->
<svg width="1089pt" height="73pt"
 viewBox="0.00 0.00 1089.00 73.00" xmlns="http://www.w3.org/2000/svg" xmlns:xlink="http://www.w3.org/1999/xlink">
<g id="graph0" class="graph" transform="scale(1 1) rotate(0) translate(4 69)">
<title>DataOutFaces&lt; dim, DoFHandlerType &gt;</title>
<polygon fill="white" stroke="transparent" points="-4,4 -4,-69 1085,-69 1085,4 -4,4"/>
<!-- Node1 -->
<g id="node1" class="node">
<title>Node1</title>
<g id="a_node1"><a xlink:title=" ">
<polygon fill="#bfbfbf" stroke="black" points="973,-23.5 973,-53.5 1081,-53.5 1081,-23.5 973,-23.5"/>
<text text-anchor="start" x="981" y="-41.5" font-family="Helvetica,sans-Serif" font-size="10.00">DataOutFaces&lt; dim,</text>
<text text-anchor="middle" x="1027" y="-30.5" font-family="Helvetica,sans-Serif" font-size="10.00"> DoFHandlerType &gt;</text>
</a>
</g>
</g>
<!-- Node2 -->
<g id="node2" class="node">
<title>Node2</title>
<g id="a_node2"><a xlink:href="classDataOut__DoFData.html" target="_top" xlink:title=" ">
<polygon fill="white" stroke="black" points="775,-12.5 775,-64.5 936,-64.5 936,-12.5 775,-12.5"/>
<text text-anchor="start" x="783" y="-52.5" font-family="Helvetica,sans-Serif" font-size="10.00">DataOut_DoFData&lt; DoFHandler</text>
<text text-anchor="start" x="783" y="-41.5" font-family="Helvetica,sans-Serif" font-size="10.00">&lt; dim &gt;, DoFHandlerType</text>
<text text-anchor="start" x="783" y="-30.5" font-family="Helvetica,sans-Serif" font-size="10.00">::dimension &#45; 1, DoFHandlerType</text>
<text text-anchor="middle" x="855.5" y="-19.5" font-family="Helvetica,sans-Serif" font-size="10.00">::dimension &gt;</text>
</a>
</g>
</g>
<!-- Node2&#45;&gt;Node1 -->
<g id="edge1" class="edge">
<title>Node2&#45;&gt;Node1</title>
<path fill="none" stroke="midnightblue" d="M946.44,-38.5C955.42,-38.5 964.33,-38.5 972.75,-38.5"/>
<polygon fill="midnightblue" stroke="midnightblue" points="946.29,-35 936.29,-38.5 946.29,-42 946.29,-35"/>
</g>
<!-- Node3 -->
<g id="node3" class="node">
<title>Node3</title>
<g id="a_node3"><a xlink:href="classDataOutInterface.html" target="_top" xlink:title=" ">
<polygon fill="white" stroke="black" points="0,-25.5 0,-55.5 119,-55.5 119,-25.5 0,-25.5"/>
<text text-anchor="start" x="8" y="-43.5" font-family="Helvetica,sans-Serif" font-size="10.00">DataOutInterface&lt; dim,</text>
<text text-anchor="middle" x="59.5" y="-32.5" font-family="Helvetica,sans-Serif" font-size="10.00"> spacedim &gt;</text>
</a>
</g>
</g>
<!-- Node3&#45;&gt;Node2 -->
<g id="edge2" class="edge">
<title>Node3&#45;&gt;Node2</title>
<path fill="none" stroke="midnightblue" d="M129.36,-48.04C131.94,-48.21 134.49,-48.37 137,-48.5 412.18,-62.85 481.8,-62.58 757,-48.5 762.78,-48.2 768.74,-47.81 774.74,-47.35"/>
<polygon fill="midnightblue" stroke="midnightblue" points="129.58,-44.55 119.34,-47.28 129.05,-51.53 129.58,-44.55"/>
</g>
<!-- Node5 -->
<g id="node5" class="node">
<title>Node5</title>
<g id="a_node5"><a xlink:href="classDataOutInterface.html" target="_top" xlink:title=" ">
<polygon fill="white" stroke="black" points="243,-3.5 243,-33.5 368,-33.5 368,-3.5 243,-3.5"/>
<text text-anchor="start" x="251" y="-21.5" font-family="Helvetica,sans-Serif" font-size="10.00">DataOutInterface&lt; patch</text>
<text text-anchor="middle" x="305.5" y="-10.5" font-family="Helvetica,sans-Serif" font-size="10.00">_dim, patch_dim &gt;</text>
</a>
</g>
</g>
<!-- Node3&#45;&gt;Node5 -->
<g id="edge5" class="edge">
<title>Node3&#45;&gt;Node5</title>
<path fill="none" stroke="orange" stroke-dasharray="5,2" d="M129.32,-27.46C131.91,-27.11 134.48,-26.79 137,-26.5 171.85,-22.5 211.01,-20.49 242.69,-19.49"/>
<polygon fill="orange" stroke="orange" points="128.66,-24.02 119.27,-28.93 129.67,-30.95 128.66,-24.02"/>
<text text-anchor="start" x="137" y="-40.5" font-family="Helvetica,sans-Serif" font-size="10.00"> &lt; patch_dim, patch</text>
<text text-anchor="middle" x="181" y="-29.5" font-family="Helvetica,sans-Serif" font-size="10.00">_dim &gt;</text>
</g>
<!-- Node4 -->
<g id="node4" class="node">
<title>Node4</title>
<g id="a_node4"><a xlink:href="classDataOut__DoFData.html" target="_top" xlink:title=" ">
<polygon fill="white" stroke="black" points="405,-0.5 405,-30.5 585,-30.5 585,-0.5 405,-0.5"/>
<text text-anchor="start" x="413" y="-18.5" font-family="Helvetica,sans-Serif" font-size="10.00">DataOut_DoFData&lt; DoFHandler</text>
<text text-anchor="middle" x="495" y="-7.5" font-family="Helvetica,sans-Serif" font-size="10.00">Type, patch_dim, patch_space_dim &gt;</text>
</a>
</g>
</g>
<!-- Node4&#45;&gt;Node2 -->
<g id="edge3" class="edge">
<title>Node4&#45;&gt;Node2</title>
<path fill="none" stroke="orange" stroke-dasharray="5,2" d="M595.34,-10.12C644.19,-8.84 703.84,-9.32 757,-15.5 762.87,-16.18 768.91,-17.09 774.95,-18.15"/>
<polygon fill="orange" stroke="orange" points="594.98,-6.63 585.08,-10.41 595.18,-13.62 594.98,-6.63"/>
<text text-anchor="start" x="603" y="-40.5" font-family="Helvetica,sans-Serif" font-size="10.00"> &lt; DoFHandler&lt; dim &gt;</text>
<text text-anchor="start" x="603" y="-29.5" font-family="Helvetica,sans-Serif" font-size="10.00">, DoFHandlerType::dimension</text>
<text text-anchor="middle" x="680" y="-18.5" font-family="Helvetica,sans-Serif" font-size="10.00"> &#45; 1, DoFHandlerType::dimension &gt;</text>
</g>
<!-- Node5&#45;&gt;Node4 -->
<g id="edge4" class="edge">
<title>Node5&#45;&gt;Node4</title>
<path fill="none" stroke="midnightblue" d="M378.22,-17.35C386.92,-17.21 395.89,-17.07 404.8,-16.93"/>
<polygon fill="midnightblue" stroke="midnightblue" points="378.1,-13.85 368.15,-17.51 378.21,-20.85 378.1,-13.85"/>
</g>
</g>
</svg>
