<?xml version="1.0" encoding="UTF-8" standalone="no"?>
<!DOCTYPE svg PUBLIC "-//W3C//DTD SVG 1.1//EN"
 "http://www.w3.org/Graphics/SVG/1.1/DTD/svg11.dtd">
<!-- Generated by graphviz version 2.47.1 (20210417.1919)
 -->
<!-- Title: MappingC1&lt; dim, spacedim &gt;::MappingC1Generic Pages: 1 -->
<svg width="248pt" height="221pt"
 viewBox="0.00 0.00 248.00 221.00" xmlns="http://www.w3.org/2000/svg" xmlns:xlink="http://www.w3.org/1999/xlink">
<g id="graph0" class="graph" transform="scale(1 1) rotate(0) translate(4 217)">
<title>MappingC1&lt; dim, spacedim &gt;::MappingC1Generic</title>
<polygon fill="white" stroke="transparent" points="-4,4 -4,-217 244,-217 244,4 -4,4"/>
<!-- Node1 -->
<g id="node1" class="node">
<title>Node1</title>
<g id="a_node1"><a xlink:title=" ">
<polygon fill="#bfbfbf" stroke="black" points="0,-0.5 0,-30.5 139,-30.5 139,-0.5 0,-0.5"/>
<text text-anchor="start" x="8" y="-18.5" font-family="Helvetica,sans-Serif" font-size="10.00">MappingC1&lt; dim, spacedim</text>
<text text-anchor="middle" x="69.5" y="-7.5" font-family="Helvetica,sans-Serif" font-size="10.00"> &gt;::MappingC1Generic</text>
</a>
</g>
</g>
<!-- Node2 -->
<g id="node2" class="node">
<title>Node2</title>
<g id="a_node2"><a xlink:href="classMappingQGeneric.html" target="_top" xlink:title=" ">
<polygon fill="white" stroke="black" points="8.5,-68.5 8.5,-98.5 130.5,-98.5 130.5,-68.5 8.5,-68.5"/>
<text text-anchor="start" x="16.5" y="-86.5" font-family="Helvetica,sans-Serif" font-size="10.00">MappingQGeneric&lt; dim,</text>
<text text-anchor="middle" x="69.5" y="-75.5" font-family="Helvetica,sans-Serif" font-size="10.00"> spacedim &gt;</text>
</a>
</g>
</g>
<!-- Node2&#45;&gt;Node1 -->
<g id="edge1" class="edge">
<title>Node2&#45;&gt;Node1</title>
<path fill="none" stroke="midnightblue" d="M69.5,-58.03C69.5,-48.86 69.5,-38.74 69.5,-30.79"/>
<polygon fill="midnightblue" stroke="midnightblue" points="66,-58.18 69.5,-68.18 73,-58.18 66,-58.18"/>
</g>
<!-- Node2&#45;&gt;Node2 -->
<g id="edge5" class="edge">
<title>Node2&#45;&gt;Node2</title>
<path fill="none" stroke="orange" stroke-dasharray="5,2" d="M140.99,-88.04C145.67,-86.99 148.5,-85.47 148.5,-83.5 148.5,-80.35 141.25,-78.36 130.78,-77.55"/>
<polygon fill="orange" stroke="orange" points="140.21,-84.62 130.78,-89.45 141.16,-91.55 140.21,-84.62"/>
<text text-anchor="middle" x="191" y="-81" font-family="Helvetica,sans-Serif" font-size="10.00"> &lt; dim, spacedim &gt;</text>
</g>
<!-- Node3 -->
<g id="node3" class="node">
<title>Node3</title>
<g id="a_node3"><a xlink:href="classMapping.html" target="_top" xlink:title=" ">
<polygon fill="white" stroke="black" points="2,-136.5 2,-155.5 137,-155.5 137,-136.5 2,-136.5"/>
<text text-anchor="middle" x="69.5" y="-143.5" font-family="Helvetica,sans-Serif" font-size="10.00">Mapping&lt; dim, spacedim &gt;</text>
</a>
</g>
</g>
<!-- Node3&#45;&gt;Node2 -->
<g id="edge2" class="edge">
<title>Node3&#45;&gt;Node2</title>
<path fill="none" stroke="midnightblue" d="M69.5,-126.22C69.5,-117.36 69.5,-106.96 69.5,-98.76"/>
<polygon fill="midnightblue" stroke="midnightblue" points="66,-126.33 69.5,-136.33 73,-126.33 66,-126.33"/>
</g>
<!-- Node3&#45;&gt;Node3 -->
<g id="edge4" class="edge">
<title>Node3&#45;&gt;Node3</title>
<path fill="none" stroke="orange" stroke-dasharray="5,2" d="M147.5,-149.63C152.19,-148.76 155,-147.56 155,-146 155,-143.51 147.8,-141.91 137.23,-141.19"/>
<polygon fill="orange" stroke="orange" points="146.77,-146.19 137.23,-150.81 147.57,-153.14 146.77,-146.19"/>
<text text-anchor="middle" x="197.5" y="-143.5" font-family="Helvetica,sans-Serif" font-size="10.00"> &lt; dim, spacedim &gt;</text>
</g>
<!-- Node4 -->
<g id="node4" class="node">
<title>Node4</title>
<g id="a_node4"><a xlink:href="classSubscriptor.html" target="_top" xlink:title=" ">
<polygon fill="white" stroke="black" points="36.5,-193.5 36.5,-212.5 102.5,-212.5 102.5,-193.5 36.5,-193.5"/>
<text text-anchor="middle" x="69.5" y="-200.5" font-family="Helvetica,sans-Serif" font-size="10.00">Subscriptor</text>
</a>
</g>
</g>
<!-- Node4&#45;&gt;Node3 -->
<g id="edge3" class="edge">
<title>Node4&#45;&gt;Node3</title>
<path fill="none" stroke="midnightblue" d="M69.5,-183.12C69.5,-173.82 69.5,-163.06 69.5,-155.71"/>
<polygon fill="midnightblue" stroke="midnightblue" points="66,-183.41 69.5,-193.41 73,-183.41 66,-183.41"/>
</g>
</g>
</svg>
