<?xml version="1.0" encoding="UTF-8" standalone="no"?>
<!DOCTYPE svg PUBLIC "-//W3C//DTD SVG 1.1//EN"
 "http://www.w3.org/Graphics/SVG/1.1/DTD/svg11.dtd">
<!-- Generated by graphviz version 2.47.1 (20210417.1919)
 -->
<!-- Title: BlockVector&lt; Number &gt; Pages: 1 -->
<svg width="245pt" height="287pt"
 viewBox="0.00 0.00 245.00 287.00" xmlns="http://www.w3.org/2000/svg" xmlns:xlink="http://www.w3.org/1999/xlink">
<g id="graph0" class="graph" transform="scale(1 1) rotate(0) translate(4 283)">
<title>BlockVector&lt; Number &gt;</title>
<polygon fill="white" stroke="transparent" points="-4,4 -4,-283 241,-283 241,4 -4,4"/>
<!-- Node1 -->
<g id="node1" class="node">
<title>Node1</title>
<g id="a_node1"><a xlink:title=" ">
<polygon fill="#bfbfbf" stroke="black" points="4,-67.5 4,-86.5 126,-86.5 126,-67.5 4,-67.5"/>
<text text-anchor="middle" x="65" y="-74.5" font-family="Helvetica,sans-Serif" font-size="10.00">BlockVector&lt; Number &gt;</text>
</a>
</g>
</g>
<!-- Node5 -->
<g id="node5" class="node">
<title>Node5</title>
<g id="a_node5"><a xlink:href="classBlockVector.html" target="_top" xlink:title=" ">
<polygon fill="white" stroke="black" points="5,-0.5 5,-19.5 125,-19.5 125,-0.5 5,-0.5"/>
<text text-anchor="middle" x="65" y="-7.5" font-family="Helvetica,sans-Serif" font-size="10.00">BlockVector&lt; number &gt;</text>
</a>
</g>
</g>
<!-- Node1&#45;&gt;Node5 -->
<g id="edge5" class="edge">
<title>Node1&#45;&gt;Node5</title>
<path fill="none" stroke="orange" stroke-dasharray="5,2" d="M65,-57.04C65,-44.67 65,-29.12 65,-19.63"/>
<polygon fill="orange" stroke="orange" points="61.5,-57.23 65,-67.23 68.5,-57.23 61.5,-57.23"/>
<text text-anchor="middle" x="92" y="-41" font-family="Helvetica,sans-Serif" font-size="10.00"> &lt; number &gt;</text>
</g>
<!-- Node2 -->
<g id="node2" class="node">
<title>Node2</title>
<g id="a_node2"><a xlink:href="classBlockVectorBase.html" target="_top" xlink:title=" ">
<polygon fill="white" stroke="black" points="0,-124.5 0,-154.5 130,-154.5 130,-124.5 0,-124.5"/>
<text text-anchor="start" x="8" y="-142.5" font-family="Helvetica,sans-Serif" font-size="10.00">BlockVectorBase&lt; Vector</text>
<text text-anchor="middle" x="65" y="-131.5" font-family="Helvetica,sans-Serif" font-size="10.00">&lt; Number &gt; &gt;</text>
</a>
</g>
</g>
<!-- Node2&#45;&gt;Node1 -->
<g id="edge1" class="edge">
<title>Node2&#45;&gt;Node1</title>
<path fill="none" stroke="midnightblue" d="M65,-114.35C65,-104.51 65,-93.78 65,-86.54"/>
<polygon fill="midnightblue" stroke="midnightblue" points="61.5,-114.47 65,-124.47 68.5,-114.47 61.5,-114.47"/>
</g>
<!-- Node3 -->
<g id="node3" class="node">
<title>Node3</title>
<g id="a_node3"><a xlink:href="classSubscriptor.html" target="_top" xlink:title=" ">
<polygon fill="white" stroke="black" points="28,-259.5 28,-278.5 94,-278.5 94,-259.5 28,-259.5"/>
<text text-anchor="middle" x="61" y="-266.5" font-family="Helvetica,sans-Serif" font-size="10.00">Subscriptor</text>
</a>
</g>
</g>
<!-- Node3&#45;&gt;Node2 -->
<g id="edge2" class="edge">
<title>Node3&#45;&gt;Node2</title>
<path fill="none" stroke="midnightblue" d="M61.6,-248.9C62.41,-223.05 63.84,-177.54 64.56,-154.59"/>
<polygon fill="midnightblue" stroke="midnightblue" points="58.09,-249.13 61.27,-259.24 65.09,-249.35 58.09,-249.13"/>
</g>
<!-- Node4 -->
<g id="node4" class="node">
<title>Node4</title>
<g id="a_node4"><a xlink:href="classBlockVectorBase.html" target="_top" xlink:title=" ">
<polygon fill="white" stroke="black" points="77,-202.5 77,-221.5 237,-221.5 237,-202.5 77,-202.5"/>
<text text-anchor="middle" x="157" y="-209.5" font-family="Helvetica,sans-Serif" font-size="10.00">BlockVectorBase&lt; VectorType &gt;</text>
</a>
</g>
</g>
<!-- Node3&#45;&gt;Node4 -->
<g id="edge4" class="edge">
<title>Node3&#45;&gt;Node4</title>
<path fill="none" stroke="midnightblue" d="M84.75,-254.39C102.7,-244.11 126.79,-230.31 142.11,-221.53"/>
<polygon fill="midnightblue" stroke="midnightblue" points="82.94,-251.4 76,-259.41 86.42,-257.47 82.94,-251.4"/>
</g>
<!-- Node4&#45;&gt;Node2 -->
<g id="edge3" class="edge">
<title>Node4&#45;&gt;Node2</title>
<path fill="none" stroke="orange" stroke-dasharray="5,2" d="M137.59,-196.13C121.6,-183.87 99.07,-166.61 83.37,-154.58"/>
<polygon fill="orange" stroke="orange" points="135.65,-199.05 145.72,-202.36 139.91,-193.49 135.65,-199.05"/>
<text text-anchor="middle" x="170.5" y="-176" font-family="Helvetica,sans-Serif" font-size="10.00"> &lt; Vector&lt; Number &gt; &gt;</text>
</g>
</g>
</svg>
