<?xml version="1.0" encoding="UTF-8" standalone="no"?>
<!DOCTYPE svg PUBLIC "-//W3C//DTD SVG 1.1//EN"
 "http://www.w3.org/Graphics/SVG/1.1/DTD/svg11.dtd">
<!-- Generated by graphviz version 2.47.1 (20210417.1919)
 -->
<!-- Title: MGSmoother&lt; VectorType &gt; Pages: 1 -->
<svg width="969pt" height="209pt"
 viewBox="0.00 0.00 969.00 208.50" xmlns="http://www.w3.org/2000/svg" xmlns:xlink="http://www.w3.org/1999/xlink">
<g id="graph0" class="graph" transform="scale(1 1) rotate(0) translate(4 204.5)">
<title>MGSmoother&lt; VectorType &gt;</title>
<polygon fill="white" stroke="transparent" points="-4,4 -4,-204.5 965,-204.5 965,4 -4,4"/>
<!-- Node1 -->
<g id="node1" class="node">
<title>Node1</title>
<g id="a_node1"><a xlink:title=" ">
<polygon fill="#bfbfbf" stroke="black" points="304,-82 304,-101 446,-101 446,-82 304,-82"/>
<text text-anchor="middle" x="375" y="-89" font-family="Helvetica,sans-Serif" font-size="10.00">MGSmoother&lt; VectorType &gt;</text>
</a>
</g>
</g>
<!-- Node4 -->
<g id="node4" class="node">
<title>Node4</title>
<g id="a_node4"><a xlink:href="classMGSmootherPrecondition.html" target="_top" xlink:title=" ">
<polygon fill="white" stroke="black" points="615,-159 615,-200 757,-200 757,-159 615,-159"/>
<text text-anchor="start" x="623" y="-188" font-family="Helvetica,sans-Serif" font-size="10.00">MGSmootherPrecondition</text>
<text text-anchor="start" x="623" y="-177" font-family="Helvetica,sans-Serif" font-size="10.00">&lt; MatrixType, Preconditioner</text>
<text text-anchor="middle" x="686" y="-166" font-family="Helvetica,sans-Serif" font-size="10.00">Type, VectorType &gt;</text>
</a>
</g>
</g>
<!-- Node1&#45;&gt;Node4 -->
<g id="edge3" class="edge">
<title>Node1&#45;&gt;Node4</title>
<path fill="none" stroke="midnightblue" d="M414.52,-104.15C429.87,-109.09 447.73,-114.7 464,-119.5 514.15,-134.28 571.09,-149.71 614.61,-161.22"/>
<polygon fill="midnightblue" stroke="midnightblue" points="415.43,-100.77 404.84,-101.02 413.27,-107.43 415.43,-100.77"/>
</g>
<!-- Node5 -->
<g id="node5" class="node">
<title>Node5</title>
<g id="a_node5"><a xlink:href="classMGSmootherRelaxation.html" target="_top" xlink:title=" ">
<polygon fill="white" stroke="black" points="611,-99 611,-140 761,-140 761,-99 611,-99"/>
<text text-anchor="start" x="619" y="-128" font-family="Helvetica,sans-Serif" font-size="10.00">MGSmootherRelaxation</text>
<text text-anchor="start" x="619" y="-117" font-family="Helvetica,sans-Serif" font-size="10.00">&lt; MatrixType, RelaxationType,</text>
<text text-anchor="middle" x="686" y="-106" font-family="Helvetica,sans-Serif" font-size="10.00"> VectorType &gt;</text>
</a>
</g>
</g>
<!-- Node1&#45;&gt;Node5 -->
<g id="edge4" class="edge">
<title>Node1&#45;&gt;Node5</title>
<path fill="none" stroke="midnightblue" d="M456.12,-98.76C503.9,-103.09 564.16,-108.55 610.85,-112.78"/>
<polygon fill="midnightblue" stroke="midnightblue" points="456.39,-95.27 446.12,-97.85 455.76,-102.24 456.39,-95.27"/>
</g>
<!-- Node6 -->
<g id="node6" class="node">
<title>Node6</title>
<g id="a_node6"><a xlink:href="classmg_1_1SmootherRelaxation.html" target="_top" xlink:title=" ">
<polygon fill="white" stroke="black" points="607,-49.5 607,-79.5 765,-79.5 765,-49.5 607,-49.5"/>
<text text-anchor="start" x="615" y="-67.5" font-family="Helvetica,sans-Serif" font-size="10.00">mg::SmootherRelaxation</text>
<text text-anchor="middle" x="686" y="-56.5" font-family="Helvetica,sans-Serif" font-size="10.00">&lt; RelaxationType, VectorType &gt;</text>
</a>
</g>
</g>
<!-- Node1&#45;&gt;Node6 -->
<g id="edge5" class="edge">
<title>Node1&#45;&gt;Node6</title>
<path fill="none" stroke="midnightblue" d="M456.13,-84.5C502.52,-80.44 560.67,-75.36 606.74,-71.34"/>
<polygon fill="midnightblue" stroke="midnightblue" points="455.77,-81.02 446.12,-85.37 456.38,-87.99 455.77,-81.02"/>
</g>
<!-- Node7 -->
<g id="node7" class="node">
<title>Node7</title>
<g id="a_node7"><a xlink:href="classMGSmoother.html" target="_top" xlink:title=" ">
<polygon fill="white" stroke="black" points="617.5,-0.5 617.5,-30.5 754.5,-30.5 754.5,-0.5 617.5,-0.5"/>
<text text-anchor="start" x="625.5" y="-18.5" font-family="Helvetica,sans-Serif" font-size="10.00">MGSmoother&lt; BlockVector</text>
<text text-anchor="middle" x="686" y="-7.5" font-family="Helvetica,sans-Serif" font-size="10.00">&lt; number &gt; &gt;</text>
</a>
</g>
</g>
<!-- Node1&#45;&gt;Node7 -->
<g id="edge6" class="edge">
<title>Node1&#45;&gt;Node7</title>
<path fill="none" stroke="orange" stroke-dasharray="5,2" d="M408.13,-77.98C424.62,-71.42 445.15,-63.83 464,-58.5 514.59,-44.2 573.03,-33.06 617.1,-25.7"/>
<polygon fill="orange" stroke="orange" points="406.4,-74.9 398.44,-81.9 409.03,-81.39 406.4,-74.9"/>
<text text-anchor="middle" x="526.5" y="-61.5" font-family="Helvetica,sans-Serif" font-size="10.00"> &lt; BlockVector&lt; number &gt; &gt;</text>
</g>
<!-- Node2 -->
<g id="node2" class="node">
<title>Node2</title>
<g id="a_node2"><a xlink:href="classMGSmootherBase.html" target="_top" xlink:title=" ">
<polygon fill="white" stroke="black" points="103,-82 103,-101 267,-101 267,-82 103,-82"/>
<text text-anchor="middle" x="185" y="-89" font-family="Helvetica,sans-Serif" font-size="10.00">MGSmootherBase&lt; VectorType &gt;</text>
</a>
</g>
</g>
<!-- Node2&#45;&gt;Node1 -->
<g id="edge1" class="edge">
<title>Node2&#45;&gt;Node1</title>
<path fill="none" stroke="midnightblue" d="M277.17,-91.5C286.12,-91.5 295.11,-91.5 303.81,-91.5"/>
<polygon fill="midnightblue" stroke="midnightblue" points="277.09,-88 267.09,-91.5 277.09,-95 277.09,-88"/>
</g>
<!-- Node3 -->
<g id="node3" class="node">
<title>Node3</title>
<g id="a_node3"><a xlink:href="classSubscriptor.html" target="_top" xlink:title=" ">
<polygon fill="white" stroke="black" points="0,-82 0,-101 66,-101 66,-82 0,-82"/>
<text text-anchor="middle" x="33" y="-89" font-family="Helvetica,sans-Serif" font-size="10.00">Subscriptor</text>
</a>
</g>
</g>
<!-- Node3&#45;&gt;Node2 -->
<g id="edge2" class="edge">
<title>Node3&#45;&gt;Node2</title>
<path fill="none" stroke="midnightblue" d="M76.36,-91.5C84.71,-91.5 93.73,-91.5 102.88,-91.5"/>
<polygon fill="midnightblue" stroke="midnightblue" points="76.18,-88 66.18,-91.5 76.18,-95 76.18,-88"/>
</g>
<!-- Node8 -->
<g id="node8" class="node">
<title>Node8</title>
<g id="a_node8"><a xlink:href="classMGSmootherBlock.html" target="_top" xlink:title=" ">
<polygon fill="white" stroke="black" points="802,-0.5 802,-30.5 961,-30.5 961,-0.5 802,-0.5"/>
<text text-anchor="start" x="810" y="-18.5" font-family="Helvetica,sans-Serif" font-size="10.00">MGSmootherBlock&lt; MatrixType,</text>
<text text-anchor="middle" x="881.5" y="-7.5" font-family="Helvetica,sans-Serif" font-size="10.00"> RelaxationType, number &gt;</text>
</a>
</g>
</g>
<!-- Node7&#45;&gt;Node8 -->
<g id="edge7" class="edge">
<title>Node7&#45;&gt;Node8</title>
<path fill="none" stroke="midnightblue" d="M764.82,-15.5C777.04,-15.5 789.68,-15.5 801.92,-15.5"/>
<polygon fill="midnightblue" stroke="midnightblue" points="764.68,-12 754.68,-15.5 764.68,-19 764.68,-12"/>
</g>
</g>
</svg>
