<?xml version="1.0" encoding="UTF-8" standalone="no"?>
<!DOCTYPE svg PUBLIC "-//W3C//DTD SVG 1.1//EN"
 "http://www.w3.org/Graphics/SVG/1.1/DTD/svg11.dtd">
<!-- Generated by graphviz version 2.47.1 (20210417.1919)
 -->
<!-- Title: SolverRelaxation&lt; VectorType &gt; Pages: 1 -->
<svg width="218pt" height="231pt"
 viewBox="0.00 0.00 218.00 231.00" xmlns="http://www.w3.org/2000/svg" xmlns:xlink="http://www.w3.org/1999/xlink">
<g id="graph0" class="graph" transform="scale(1 1) rotate(0) translate(4 227)">
<title>SolverRelaxation&lt; VectorType &gt;</title>
<polygon fill="white" stroke="transparent" points="-4,4 -4,-227 214,-227 214,4 -4,4"/>
<!-- Node1 -->
<g id="node1" class="node">
<title>Node1</title>
<g id="a_node1"><a xlink:title=" ">
<polygon fill="#bfbfbf" stroke="black" points="0,-0.5 0,-30.5 128,-30.5 128,-0.5 0,-0.5"/>
<text text-anchor="start" x="8" y="-18.5" font-family="Helvetica,sans-Serif" font-size="10.00">SolverRelaxation&lt; Vector</text>
<text text-anchor="middle" x="64" y="-7.5" font-family="Helvetica,sans-Serif" font-size="10.00">Type &gt;</text>
</a>
</g>
</g>
<!-- Node2 -->
<g id="node2" class="node">
<title>Node2</title>
<g id="a_node2"><a xlink:href="classSolverBase.html" target="_top" xlink:title=" ">
<polygon fill="white" stroke="black" points="12,-68.5 12,-98.5 116,-98.5 116,-68.5 12,-68.5"/>
<text text-anchor="start" x="20" y="-86.5" font-family="Helvetica,sans-Serif" font-size="10.00">SolverBase&lt; Vector</text>
<text text-anchor="middle" x="64" y="-75.5" font-family="Helvetica,sans-Serif" font-size="10.00">&lt; double &gt; &gt;</text>
</a>
</g>
</g>
<!-- Node2&#45;&gt;Node1 -->
<g id="edge1" class="edge">
<title>Node2&#45;&gt;Node1</title>
<path fill="none" stroke="midnightblue" d="M64,-58.03C64,-48.86 64,-38.74 64,-30.79"/>
<polygon fill="midnightblue" stroke="midnightblue" points="60.5,-58.18 64,-68.18 67.5,-58.18 60.5,-58.18"/>
</g>
<!-- Node3 -->
<g id="node3" class="node">
<title>Node3</title>
<g id="a_node3"><a xlink:href="classSubscriptor.html" target="_top" xlink:title=" ">
<polygon fill="white" stroke="black" points="27,-203.5 27,-222.5 93,-222.5 93,-203.5 27,-203.5"/>
<text text-anchor="middle" x="60" y="-210.5" font-family="Helvetica,sans-Serif" font-size="10.00">Subscriptor</text>
</a>
</g>
</g>
<!-- Node3&#45;&gt;Node2 -->
<g id="edge2" class="edge">
<title>Node3&#45;&gt;Node2</title>
<path fill="none" stroke="midnightblue" d="M60.6,-192.9C61.41,-167.05 62.84,-121.54 63.56,-98.59"/>
<polygon fill="midnightblue" stroke="midnightblue" points="57.09,-193.13 60.27,-203.24 64.09,-193.35 57.09,-193.13"/>
</g>
<!-- Node4 -->
<g id="node4" class="node">
<title>Node4</title>
<g id="a_node4"><a xlink:href="classSolverBase.html" target="_top" xlink:title=" ">
<polygon fill="white" stroke="black" points="76,-146.5 76,-165.5 210,-165.5 210,-146.5 76,-146.5"/>
<text text-anchor="middle" x="143" y="-153.5" font-family="Helvetica,sans-Serif" font-size="10.00">SolverBase&lt; VectorType &gt;</text>
</a>
</g>
</g>
<!-- Node3&#45;&gt;Node4 -->
<g id="edge4" class="edge">
<title>Node3&#45;&gt;Node4</title>
<path fill="none" stroke="midnightblue" d="M81.39,-197.82C96.81,-187.61 117.12,-174.15 130.12,-165.53"/>
<polygon fill="midnightblue" stroke="midnightblue" points="79.37,-194.96 72.97,-203.41 83.24,-200.8 79.37,-194.96"/>
</g>
<!-- Node4&#45;&gt;Node2 -->
<g id="edge3" class="edge">
<title>Node4&#45;&gt;Node2</title>
<path fill="none" stroke="orange" stroke-dasharray="5,2" d="M125.56,-139.44C111.88,-127.23 93.01,-110.39 79.77,-98.58"/>
<polygon fill="orange" stroke="orange" points="123.52,-142.31 133.31,-146.36 128.18,-137.09 123.52,-142.31"/>
<text text-anchor="middle" x="158.5" y="-120" font-family="Helvetica,sans-Serif" font-size="10.00"> &lt; Vector&lt; double &gt; &gt;</text>
</g>
</g>
</svg>
