<?xml version="1.0" encoding="UTF-8" standalone="no"?>
<!DOCTYPE svg PUBLIC "-//W3C//DTD SVG 1.1//EN"
 "http://www.w3.org/Graphics/SVG/1.1/DTD/svg11.dtd">
<!-- Generated by graphviz version 2.47.1 (20210417.1919)
 -->
<!-- Title: DataOutStack&lt; dim, spacedim, void &gt; Pages: 1 -->
<svg width="145pt" height="174pt"
 viewBox="0.00 0.00 145.00 174.00" xmlns="http://www.w3.org/2000/svg" xmlns:xlink="http://www.w3.org/1999/xlink">
<g id="graph0" class="graph" transform="scale(1 1) rotate(0) translate(4 170)">
<title>DataOutStack&lt; dim, spacedim, void &gt;</title>
<polygon fill="white" stroke="transparent" points="-4,4 -4,-170 141,-170 141,4 -4,4"/>
<!-- Node1 -->
<g id="node1" class="node">
<title>Node1</title>
<g id="a_node1"><a xlink:title=" ">
<polygon fill="#bfbfbf" stroke="black" points="15,-0.5 15,-30.5 122,-30.5 122,-0.5 15,-0.5"/>
<text text-anchor="start" x="23" y="-18.5" font-family="Helvetica,sans-Serif" font-size="10.00">DataOutStack&lt; dim,</text>
<text text-anchor="middle" x="68.5" y="-7.5" font-family="Helvetica,sans-Serif" font-size="10.00"> spacedim, void &gt;</text>
</a>
</g>
</g>
<!-- Node2 -->
<g id="node2" class="node">
<title>Node2</title>
<g id="a_node2"><a xlink:href="classDataOutInterface.html" target="_top" xlink:title=" ">
<polygon fill="white" stroke="black" points="0,-68.5 0,-87.5 137,-87.5 137,-68.5 0,-68.5"/>
<text text-anchor="middle" x="68.5" y="-75.5" font-family="Helvetica,sans-Serif" font-size="10.00">DataOutInterface&lt; dim+1 &gt;</text>
</a>
</g>
</g>
<!-- Node2&#45;&gt;Node1 -->
<g id="edge1" class="edge">
<title>Node2&#45;&gt;Node1</title>
<path fill="none" stroke="midnightblue" d="M68.5,-58.22C68.5,-49.36 68.5,-38.96 68.5,-30.76"/>
<polygon fill="midnightblue" stroke="midnightblue" points="65,-58.33 68.5,-68.33 72,-58.33 65,-58.33"/>
</g>
<!-- Node3 -->
<g id="node3" class="node">
<title>Node3</title>
<g id="a_node3"><a xlink:href="classDataOutInterface.html" target="_top" xlink:title=" ">
<polygon fill="white" stroke="black" points="9,-135.5 9,-165.5 128,-165.5 128,-135.5 9,-135.5"/>
<text text-anchor="start" x="17" y="-153.5" font-family="Helvetica,sans-Serif" font-size="10.00">DataOutInterface&lt; dim,</text>
<text text-anchor="middle" x="68.5" y="-142.5" font-family="Helvetica,sans-Serif" font-size="10.00"> spacedim &gt;</text>
</a>
</g>
</g>
<!-- Node3&#45;&gt;Node2 -->
<g id="edge2" class="edge">
<title>Node3&#45;&gt;Node2</title>
<path fill="none" stroke="orange" stroke-dasharray="5,2" d="M68.5,-125.09C68.5,-112.21 68.5,-97.2 68.5,-87.89"/>
<polygon fill="orange" stroke="orange" points="65,-125.23 68.5,-135.23 72,-125.23 65,-125.23"/>
<text text-anchor="middle" x="93" y="-109" font-family="Helvetica,sans-Serif" font-size="10.00"> &lt; dim+1 &gt;</text>
</g>
</g>
</svg>
