<?xml version="1.0" encoding="UTF-8" standalone="no"?>
<!DOCTYPE svg PUBLIC "-//W3C//DTD SVG 1.1//EN"
 "http://www.w3.org/Graphics/SVG/1.1/DTD/svg11.dtd">
<!-- Generated by graphviz version 2.47.1 (20210417.1919)
 -->
<!-- Title: PreconditionSOR&lt; MatrixType &gt; Pages: 1 -->
<svg width="252pt" height="231pt"
 viewBox="0.00 0.00 252.00 231.00" xmlns="http://www.w3.org/2000/svg" xmlns:xlink="http://www.w3.org/1999/xlink">
<g id="graph0" class="graph" transform="scale(1 1) rotate(0) translate(4 227)">
<title>PreconditionSOR&lt; MatrixType &gt;</title>
<polygon fill="white" stroke="transparent" points="-4,4 -4,-227 248,-227 248,4 -4,4"/>
<!-- Node1 -->
<g id="node1" class="node">
<title>Node1</title>
<g id="a_node1"><a xlink:title=" ">
<polygon fill="#bfbfbf" stroke="black" points="0,-0.5 0,-19.5 158,-19.5 158,-0.5 0,-0.5"/>
<text text-anchor="middle" x="79" y="-7.5" font-family="Helvetica,sans-Serif" font-size="10.00">PreconditionSOR&lt; MatrixType &gt;</text>
</a>
</g>
</g>
<!-- Node2 -->
<g id="node2" class="node">
<title>Node2</title>
<g id="a_node2"><a xlink:href="classPreconditionRelaxation.html" target="_top" xlink:title=" ">
<polygon fill="white" stroke="black" points="9.5,-57.5 9.5,-87.5 148.5,-87.5 148.5,-57.5 9.5,-57.5"/>
<text text-anchor="start" x="17.5" y="-75.5" font-family="Helvetica,sans-Serif" font-size="10.00">PreconditionRelaxation</text>
<text text-anchor="middle" x="79" y="-64.5" font-family="Helvetica,sans-Serif" font-size="10.00">&lt; SparseMatrix&lt; double &gt; &gt;</text>
</a>
</g>
</g>
<!-- Node2&#45;&gt;Node1 -->
<g id="edge1" class="edge">
<title>Node2&#45;&gt;Node1</title>
<path fill="none" stroke="midnightblue" d="M79,-47.35C79,-37.51 79,-26.78 79,-19.54"/>
<polygon fill="midnightblue" stroke="midnightblue" points="75.5,-47.47 79,-57.47 82.5,-47.47 75.5,-47.47"/>
</g>
<!-- Node3 -->
<g id="node3" class="node">
<title>Node3</title>
<g id="a_node3"><a xlink:href="classSubscriptor.html" target="_top" xlink:title=" ">
<polygon fill="white" stroke="black" points="42,-203.5 42,-222.5 108,-222.5 108,-203.5 42,-203.5"/>
<text text-anchor="middle" x="75" y="-210.5" font-family="Helvetica,sans-Serif" font-size="10.00">Subscriptor</text>
</a>
</g>
</g>
<!-- Node3&#45;&gt;Node2 -->
<g id="edge2" class="edge">
<title>Node3&#45;&gt;Node2</title>
<path fill="none" stroke="midnightblue" d="M75.54,-193.25C76.35,-165.19 77.86,-112.88 78.59,-87.73"/>
<polygon fill="midnightblue" stroke="midnightblue" points="72.04,-193.24 75.25,-203.34 79.04,-193.44 72.04,-193.24"/>
</g>
<!-- Node4 -->
<g id="node4" class="node">
<title>Node4</title>
<g id="a_node4"><a xlink:href="classPreconditionRelaxation.html" target="_top" xlink:title=" ">
<polygon fill="white" stroke="black" points="91.5,-135.5 91.5,-165.5 208.5,-165.5 208.5,-135.5 91.5,-135.5"/>
<text text-anchor="start" x="99.5" y="-153.5" font-family="Helvetica,sans-Serif" font-size="10.00">PreconditionRelaxation</text>
<text text-anchor="middle" x="150" y="-142.5" font-family="Helvetica,sans-Serif" font-size="10.00">&lt; MatrixType &gt;</text>
</a>
</g>
</g>
<!-- Node3&#45;&gt;Node4 -->
<g id="edge4" class="edge">
<title>Node3&#45;&gt;Node4</title>
<path fill="none" stroke="midnightblue" d="M93.72,-196.9C105.64,-187.29 120.96,-174.92 132.61,-165.53"/>
<polygon fill="midnightblue" stroke="midnightblue" points="91.33,-194.33 85.75,-203.33 95.73,-199.78 91.33,-194.33"/>
</g>
<!-- Node4&#45;&gt;Node2 -->
<g id="edge3" class="edge">
<title>Node4&#45;&gt;Node2</title>
<path fill="none" stroke="orange" stroke-dasharray="5,2" d="M129.61,-127.67C117.61,-114.83 102.79,-98.97 92.29,-87.73"/>
<polygon fill="orange" stroke="orange" points="127.26,-130.29 136.65,-135.2 132.38,-125.51 127.26,-130.29"/>
<text text-anchor="middle" x="181" y="-109" font-family="Helvetica,sans-Serif" font-size="10.00"> &lt; SparseMatrix&lt; double &gt; &gt;</text>
</g>
</g>
</svg>
