<?xml version="1.0" encoding="UTF-8" standalone="no"?>
<!DOCTYPE svg PUBLIC "-//W3C//DTD SVG 1.1//EN"
 "http://www.w3.org/Graphics/SVG/1.1/DTD/svg11.dtd">
<!-- Generated by graphviz version 2.47.1 (20210417.1919)
 -->
<!-- Title: LinearAlgebra::Vector&lt; Number &gt; Pages: 1 -->
<svg width="394pt" height="88pt"
 viewBox="0.00 0.00 394.00 88.00" xmlns="http://www.w3.org/2000/svg" xmlns:xlink="http://www.w3.org/1999/xlink">
<g id="graph0" class="graph" transform="scale(1 1) rotate(0) translate(4 84)">
<title>LinearAlgebra::Vector&lt; Number &gt;</title>
<polygon fill="white" stroke="transparent" points="-4,4 -4,-84 390,-84 390,4 -4,4"/>
<!-- Node1 -->
<g id="node1" class="node">
<title>Node1</title>
<g id="a_node1"><a xlink:title=" ">
<polygon fill="#bfbfbf" stroke="black" points="276,-24.5 276,-54.5 386,-54.5 386,-24.5 276,-24.5"/>
<text text-anchor="start" x="284" y="-42.5" font-family="Helvetica,sans-Serif" font-size="10.00">LinearAlgebra::Vector</text>
<text text-anchor="middle" x="331" y="-31.5" font-family="Helvetica,sans-Serif" font-size="10.00">&lt; Number &gt;</text>
</a>
</g>
</g>
<!-- Node2 -->
<g id="node2" class="node">
<title>Node2</title>
<g id="a_node2"><a xlink:href="classLinearAlgebra_1_1ReadWriteVector.html" target="_top" xlink:title=" ">
<polygon fill="white" stroke="black" points="107,-49.5 107,-79.5 235,-79.5 235,-49.5 107,-49.5"/>
<text text-anchor="start" x="115" y="-67.5" font-family="Helvetica,sans-Serif" font-size="10.00">LinearAlgebra::ReadWrite</text>
<text text-anchor="middle" x="171" y="-56.5" font-family="Helvetica,sans-Serif" font-size="10.00">Vector&lt; Number &gt;</text>
</a>
</g>
</g>
<!-- Node2&#45;&gt;Node1 -->
<g id="edge1" class="edge">
<title>Node2&#45;&gt;Node1</title>
<path fill="none" stroke="midnightblue" d="M245.49,-52.87C255.69,-51.26 266.02,-49.62 275.78,-48.08"/>
<polygon fill="midnightblue" stroke="midnightblue" points="244.68,-49.46 235.35,-54.48 245.78,-56.37 244.68,-49.46"/>
</g>
<!-- Node3 -->
<g id="node3" class="node">
<title>Node3</title>
<g id="a_node3"><a xlink:href="classSubscriptor.html" target="_top" xlink:title=" ">
<polygon fill="white" stroke="black" points="0,-55 0,-74 66,-74 66,-55 0,-55"/>
<text text-anchor="middle" x="33" y="-62" font-family="Helvetica,sans-Serif" font-size="10.00">Subscriptor</text>
</a>
</g>
</g>
<!-- Node3&#45;&gt;Node2 -->
<g id="edge2" class="edge">
<title>Node3&#45;&gt;Node2</title>
<path fill="none" stroke="midnightblue" d="M76.34,-64.5C85.99,-64.5 96.45,-64.5 106.76,-64.5"/>
<polygon fill="midnightblue" stroke="midnightblue" points="76.23,-61 66.23,-64.5 76.23,-68 76.23,-61"/>
</g>
<!-- Node4 -->
<g id="node4" class="node">
<title>Node4</title>
<g id="a_node4"><a xlink:href="classLinearAlgebra_1_1VectorSpaceVector.html" target="_top" xlink:title=" ">
<polygon fill="white" stroke="black" points="102,-0.5 102,-30.5 240,-30.5 240,-0.5 102,-0.5"/>
<text text-anchor="start" x="110" y="-18.5" font-family="Helvetica,sans-Serif" font-size="10.00">LinearAlgebra::VectorSpace</text>
<text text-anchor="middle" x="171" y="-7.5" font-family="Helvetica,sans-Serif" font-size="10.00">Vector&lt; Number &gt;</text>
</a>
</g>
</g>
<!-- Node4&#45;&gt;Node1 -->
<g id="edge3" class="edge">
<title>Node4&#45;&gt;Node1</title>
<path fill="none" stroke="midnightblue" d="M250.43,-27.41C259.01,-28.72 267.6,-30.02 275.79,-31.27"/>
<polygon fill="midnightblue" stroke="midnightblue" points="250.79,-23.93 240.38,-25.89 249.74,-30.85 250.79,-23.93"/>
</g>
</g>
</svg>
