<?xml version="1.0" encoding="UTF-8" standalone="no"?>
<!DOCTYPE svg PUBLIC "-//W3C//DTD SVG 1.1//EN"
 "http://www.w3.org/Graphics/SVG/1.1/DTD/svg11.dtd">
<!-- Generated by graphviz version 2.47.1 (20210417.1919)
 -->
<!-- Title: MGTransferBlock&lt; number &gt; Pages: 1 -->
<svg width="296pt" height="220pt"
 viewBox="0.00 0.00 295.50 220.00" xmlns="http://www.w3.org/2000/svg" xmlns:xlink="http://www.w3.org/1999/xlink">
<g id="graph0" class="graph" transform="scale(1 1) rotate(0) translate(4 216)">
<title>MGTransferBlock&lt; number &gt;</title>
<polygon fill="white" stroke="transparent" points="-4,4 -4,-216 291.5,-216 291.5,4 -4,4"/>
<!-- Node1 -->
<g id="node1" class="node">
<title>Node1</title>
<g id="a_node1"><a xlink:title=" ">
<polygon fill="#bfbfbf" stroke="black" points="81,-0.5 81,-19.5 224,-19.5 224,-0.5 81,-0.5"/>
<text text-anchor="middle" x="152.5" y="-7.5" font-family="Helvetica,sans-Serif" font-size="10.00">MGTransferBlock&lt; number &gt;</text>
</a>
</g>
</g>
<!-- Node2 -->
<g id="node2" class="node">
<title>Node2</title>
<g id="a_node2"><a xlink:href="classMGTransferBase.html" target="_top" xlink:title=" ">
<polygon fill="white" stroke="black" points="0,-57.5 0,-87.5 153,-87.5 153,-57.5 0,-57.5"/>
<text text-anchor="start" x="8" y="-75.5" font-family="Helvetica,sans-Serif" font-size="10.00">MGTransferBase&lt; BlockVector</text>
<text text-anchor="middle" x="76.5" y="-64.5" font-family="Helvetica,sans-Serif" font-size="10.00">&lt; number &gt; &gt;</text>
</a>
</g>
</g>
<!-- Node2&#45;&gt;Node1 -->
<g id="edge1" class="edge">
<title>Node2&#45;&gt;Node1</title>
<path fill="none" stroke="midnightblue" d="M102.17,-51.07C115.68,-40.31 131.52,-27.7 141.77,-19.54"/>
<polygon fill="midnightblue" stroke="midnightblue" points="99.77,-48.5 94.13,-57.47 104.13,-53.98 99.77,-48.5"/>
</g>
<!-- Node3 -->
<g id="node3" class="node">
<title>Node3</title>
<g id="a_node3"><a xlink:href="classSubscriptor.html" target="_top" xlink:title=" ">
<polygon fill="white" stroke="black" points="39.5,-192.5 39.5,-211.5 105.5,-211.5 105.5,-192.5 39.5,-192.5"/>
<text text-anchor="middle" x="72.5" y="-199.5" font-family="Helvetica,sans-Serif" font-size="10.00">Subscriptor</text>
</a>
</g>
</g>
<!-- Node3&#45;&gt;Node2 -->
<g id="edge2" class="edge">
<title>Node3&#45;&gt;Node2</title>
<path fill="none" stroke="midnightblue" d="M73.1,-181.9C73.91,-156.05 75.34,-110.54 76.06,-87.59"/>
<polygon fill="midnightblue" stroke="midnightblue" points="69.59,-182.13 72.77,-192.24 76.59,-182.35 69.59,-182.13"/>
</g>
<!-- Node4 -->
<g id="node4" class="node">
<title>Node4</title>
<g id="a_node4"><a xlink:href="classMGTransferBase.html" target="_top" xlink:title=" ">
<polygon fill="white" stroke="black" points="88.5,-135.5 88.5,-154.5 246.5,-154.5 246.5,-135.5 88.5,-135.5"/>
<text text-anchor="middle" x="167.5" y="-142.5" font-family="Helvetica,sans-Serif" font-size="10.00">MGTransferBase&lt; VectorType &gt;</text>
</a>
</g>
</g>
<!-- Node3&#45;&gt;Node4 -->
<g id="edge4" class="edge">
<title>Node3&#45;&gt;Node4</title>
<path fill="none" stroke="midnightblue" d="M96,-187.39C113.76,-177.11 137.6,-163.31 152.76,-154.53"/>
<polygon fill="midnightblue" stroke="midnightblue" points="94.24,-184.37 87.34,-192.41 97.75,-190.42 94.24,-184.37"/>
</g>
<!-- Node4&#45;&gt;Node2 -->
<g id="edge3" class="edge">
<title>Node4&#45;&gt;Node2</title>
<path fill="none" stroke="orange" stroke-dasharray="5,2" d="M148.3,-129.13C132.48,-116.87 110.2,-99.61 94.67,-87.58"/>
<polygon fill="orange" stroke="orange" points="146.29,-132 156.34,-135.36 150.58,-126.46 146.29,-132"/>
<text text-anchor="middle" x="193" y="-109" font-family="Helvetica,sans-Serif" font-size="10.00"> &lt; BlockVector&lt; number &gt; &gt;</text>
</g>
<!-- Node5 -->
<g id="node5" class="node">
<title>Node5</title>
<g id="a_node5"><a xlink:href="classMGTransferBlockBase.html" target="_top" xlink:title=" ">
<polygon fill="white" stroke="black" points="171.5,-63 171.5,-82 287.5,-82 287.5,-63 171.5,-63"/>
<text text-anchor="middle" x="229.5" y="-70" font-family="Helvetica,sans-Serif" font-size="10.00">MGTransferBlockBase</text>
</a>
</g>
</g>
<!-- Node5&#45;&gt;Node1 -->
<g id="edge5" class="edge">
<title>Node5&#45;&gt;Node1</title>
<path fill="none" stroke="#8b1a1a" d="M210.47,-56.55C195.7,-44.94 175.74,-29.26 163.51,-19.65"/>
<polygon fill="#8b1a1a" stroke="#8b1a1a" points="208.44,-59.41 218.47,-62.83 212.77,-53.9 208.44,-59.41"/>
</g>
</g>
</svg>
