<?xml version="1.0" encoding="UTF-8" standalone="no"?>
<!DOCTYPE svg PUBLIC "-//W3C//DTD SVG 1.1//EN"
 "http://www.w3.org/Graphics/SVG/1.1/DTD/svg11.dtd">
<!-- Generated by graphviz version 2.47.1 (20210417.1919)
 -->
<!-- Title: DerivativeForm&lt; order, dim, spacedim, Number &gt; Pages: 1 -->
<svg width="375pt" height="235pt"
 viewBox="0.00 0.00 375.00 235.00" xmlns="http://www.w3.org/2000/svg" xmlns:xlink="http://www.w3.org/1999/xlink">
<g id="graph0" class="graph" transform="scale(1 1) rotate(0) translate(4 231)">
<title>DerivativeForm&lt; order, dim, spacedim, Number &gt;</title>
<polygon fill="white" stroke="transparent" points="-4,4 -4,-231 371,-231 371,4 -4,4"/>
<!-- Node1 -->
<g id="node1" class="node">
<title>Node1</title>
<g id="a_node1"><a xlink:title=" ">
<polygon fill="#bfbfbf" stroke="black" points="0,-98.5 0,-128.5 133,-128.5 133,-98.5 0,-98.5"/>
<text text-anchor="start" x="8" y="-116.5" font-family="Helvetica,sans-Serif" font-size="10.00">DerivativeForm&lt; order,</text>
<text text-anchor="middle" x="66.5" y="-105.5" font-family="Helvetica,sans-Serif" font-size="10.00"> dim, spacedim, Number &gt;</text>
</a>
</g>
</g>
<!-- Node2 -->
<g id="node2" class="node">
<title>Node2</title>
<g id="a_node2"><a xlink:href="classDerivativeForm.html" target="_top" xlink:title=" ">
<polygon fill="white" stroke="black" points="266,-196.5 266,-226.5 367,-226.5 367,-196.5 266,-196.5"/>
<text text-anchor="start" x="274" y="-214.5" font-family="Helvetica,sans-Serif" font-size="10.00">DerivativeForm&lt; 4,</text>
<text text-anchor="middle" x="316.5" y="-203.5" font-family="Helvetica,sans-Serif" font-size="10.00"> dim, dim &gt;</text>
</a>
</g>
</g>
<!-- Node1&#45;&gt;Node2 -->
<g id="edge1" class="edge">
<title>Node1&#45;&gt;Node2</title>
<path fill="none" stroke="orange" stroke-dasharray="5,2" d="M98.33,-134C113.69,-143.59 132.83,-154.6 151,-162.5 188.3,-178.72 232.59,-191.57 265.82,-200.04"/>
<polygon fill="orange" stroke="orange" points="100.07,-130.97 89.75,-128.56 96.32,-136.88 100.07,-130.97"/>
<text text-anchor="middle" x="199.5" y="-197.5" font-family="Helvetica,sans-Serif" font-size="10.00"> &lt; 4, dim, dim &gt;</text>
</g>
<!-- Node3 -->
<g id="node3" class="node">
<title>Node3</title>
<g id="a_node3"><a xlink:href="classDerivativeForm.html" target="_top" xlink:title=" ">
<polygon fill="white" stroke="black" points="266,-147.5 266,-177.5 367,-177.5 367,-147.5 266,-147.5"/>
<text text-anchor="start" x="274" y="-165.5" font-family="Helvetica,sans-Serif" font-size="10.00">DerivativeForm&lt; 2,</text>
<text text-anchor="middle" x="316.5" y="-154.5" font-family="Helvetica,sans-Serif" font-size="10.00"> dim, dim &gt;</text>
</a>
</g>
</g>
<!-- Node1&#45;&gt;Node3 -->
<g id="edge2" class="edge">
<title>Node1&#45;&gt;Node3</title>
<path fill="none" stroke="orange" stroke-dasharray="5,2" d="M143.26,-128.47C183.1,-136.34 230.82,-145.77 265.92,-152.7"/>
<polygon fill="orange" stroke="orange" points="143.8,-125.01 133.31,-126.5 142.44,-131.87 143.8,-125.01"/>
<text text-anchor="middle" x="199.5" y="-150.5" font-family="Helvetica,sans-Serif" font-size="10.00"> &lt; 2, dim, dim &gt;</text>
</g>
<!-- Node4 -->
<g id="node4" class="node">
<title>Node4</title>
<g id="a_node4"><a xlink:href="classDerivativeForm.html" target="_top" xlink:title=" ">
<polygon fill="white" stroke="black" points="266,-98.5 266,-128.5 367,-128.5 367,-98.5 266,-98.5"/>
<text text-anchor="start" x="274" y="-116.5" font-family="Helvetica,sans-Serif" font-size="10.00">DerivativeForm&lt; 3,</text>
<text text-anchor="middle" x="316.5" y="-105.5" font-family="Helvetica,sans-Serif" font-size="10.00"> dim, dim &gt;</text>
</a>
</g>
</g>
<!-- Node1&#45;&gt;Node4 -->
<g id="edge3" class="edge">
<title>Node1&#45;&gt;Node4</title>
<path fill="none" stroke="orange" stroke-dasharray="5,2" d="M143.51,-113.5C183.3,-113.5 230.89,-113.5 265.92,-113.5"/>
<polygon fill="orange" stroke="orange" points="143.31,-110 133.31,-113.5 143.31,-117 143.31,-110"/>
<text text-anchor="middle" x="199.5" y="-116.5" font-family="Helvetica,sans-Serif" font-size="10.00"> &lt; 3, dim, dim &gt;</text>
</g>
<!-- Node5 -->
<g id="node5" class="node">
<title>Node5</title>
<g id="a_node5"><a xlink:href="classDerivativeForm.html" target="_top" xlink:title=" ">
<polygon fill="white" stroke="black" points="266,-49.5 266,-79.5 367,-79.5 367,-49.5 266,-49.5"/>
<text text-anchor="start" x="274" y="-67.5" font-family="Helvetica,sans-Serif" font-size="10.00">DerivativeForm&lt; 1,</text>
<text text-anchor="middle" x="316.5" y="-56.5" font-family="Helvetica,sans-Serif" font-size="10.00"> dim, dim &gt;</text>
</a>
</g>
</g>
<!-- Node1&#45;&gt;Node5 -->
<g id="edge4" class="edge">
<title>Node1&#45;&gt;Node5</title>
<path fill="none" stroke="orange" stroke-dasharray="5,2" d="M143.26,-98.53C183.1,-90.66 230.82,-81.23 265.92,-74.3"/>
<polygon fill="orange" stroke="orange" points="142.44,-95.13 133.31,-100.5 143.8,-101.99 142.44,-95.13"/>
<text text-anchor="middle" x="199.5" y="-98.5" font-family="Helvetica,sans-Serif" font-size="10.00"> &lt; 1, dim, dim &gt;</text>
</g>
<!-- Node6 -->
<g id="node6" class="node">
<title>Node6</title>
<g id="a_node6"><a xlink:href="classDerivativeForm.html" target="_top" xlink:title=" ">
<polygon fill="white" stroke="black" points="266,-0.5 266,-30.5 367,-30.5 367,-0.5 266,-0.5"/>
<text text-anchor="start" x="274" y="-18.5" font-family="Helvetica,sans-Serif" font-size="10.00">DerivativeForm&lt; 1,</text>
<text text-anchor="middle" x="316.5" y="-7.5" font-family="Helvetica,sans-Serif" font-size="10.00"> dim, spacedim &gt;</text>
</a>
</g>
</g>
<!-- Node1&#45;&gt;Node6 -->
<g id="edge5" class="edge">
<title>Node1&#45;&gt;Node6</title>
<path fill="none" stroke="orange" stroke-dasharray="5,2" d="M97.93,-92.71C113.33,-82.86 132.62,-71.53 151,-63.5 188.22,-47.25 232.51,-34.68 265.76,-26.49"/>
<polygon fill="orange" stroke="orange" points="95.82,-89.91 89.35,-98.3 99.64,-95.77 95.82,-89.91"/>
<text text-anchor="middle" x="199.5" y="-66.5" font-family="Helvetica,sans-Serif" font-size="10.00"> &lt; 1, dim, spacedim &gt;</text>
</g>
</g>
</svg>
