<?xml version="1.0" encoding="UTF-8" standalone="no"?>
<!DOCTYPE svg PUBLIC "-//W3C//DTD SVG 1.1//EN"
 "http://www.w3.org/Graphics/SVG/1.1/DTD/svg11.dtd">
<!-- Generated by graphviz version 2.47.1 (20210417.1919)
 -->
<!-- Title: MatrixFree&lt; dim, Number, VectorizedArrayType &gt; Pages: 1 -->
<svg width="417pt" height="96pt"
 viewBox="0.00 0.00 417.00 96.00" xmlns="http://www.w3.org/2000/svg" xmlns:xlink="http://www.w3.org/1999/xlink">
<g id="graph0" class="graph" transform="scale(1 1) rotate(0) translate(4 92)">
<title>MatrixFree&lt; dim, Number, VectorizedArrayType &gt;</title>
<polygon fill="white" stroke="transparent" points="-4,4 -4,-92 413,-92 413,4 -4,4"/>
<!-- Node1 -->
<g id="node1" class="node">
<title>Node1</title>
<g id="a_node1"><a xlink:title=" ">
<polygon fill="#bfbfbf" stroke="black" points="0,-0.5 0,-30.5 131,-30.5 131,-0.5 0,-0.5"/>
<text text-anchor="start" x="8" y="-18.5" font-family="Helvetica,sans-Serif" font-size="10.00">MatrixFree&lt; dim, Number,</text>
<text text-anchor="middle" x="65.5" y="-7.5" font-family="Helvetica,sans-Serif" font-size="10.00"> VectorizedArrayType &gt;</text>
</a>
</g>
</g>
<!-- Node1&#45;&gt;Node1 -->
<g id="edge2" class="edge">
<title>Node1&#45;&gt;Node1</title>
<path fill="none" stroke="orange" stroke-dasharray="5,2" d="M141.52,-17.72C146.19,-17.19 149,-16.45 149,-15.5 149,-13.97 141.81,-12.99 131.31,-12.56"/>
<polygon fill="orange" stroke="orange" points="141.04,-14.25 131.31,-18.44 141.53,-21.23 141.04,-14.25"/>
<text text-anchor="start" x="149" y="-18.5" font-family="Helvetica,sans-Serif" font-size="10.00"> &lt; dim, Number, Vectorized</text>
<text text-anchor="middle" x="209.5" y="-7.5" font-family="Helvetica,sans-Serif" font-size="10.00">ArrayType &gt;</text>
</g>
<!-- Node1&#45;&gt;Node1 -->
<g id="edge3" class="edge">
<title>Node1&#45;&gt;Node1</title>
<path fill="none" stroke="orange" stroke-dasharray="5,2" d="M141.22,-21.38C200.35,-22.89 270,-20.93 270,-15.5 270,-9.76 192.06,-7.89 131.08,-9.91"/>
<polygon fill="orange" stroke="orange" points="141.18,-17.88 131.08,-21.09 140.97,-24.88 141.18,-17.88"/>
<text text-anchor="start" x="270" y="-18.5" font-family="Helvetica,sans-Serif" font-size="10.00"> &lt; dim, Number, Vectorized</text>
<text text-anchor="middle" x="330.5" y="-7.5" font-family="Helvetica,sans-Serif" font-size="10.00">ArrayType &gt;</text>
</g>
<!-- Node2 -->
<g id="node2" class="node">
<title>Node2</title>
<g id="a_node2"><a xlink:href="classSubscriptor.html" target="_top" xlink:title=" ">
<polygon fill="white" stroke="black" points="32.5,-68.5 32.5,-87.5 98.5,-87.5 98.5,-68.5 32.5,-68.5"/>
<text text-anchor="middle" x="65.5" y="-75.5" font-family="Helvetica,sans-Serif" font-size="10.00">Subscriptor</text>
</a>
</g>
</g>
<!-- Node2&#45;&gt;Node1 -->
<g id="edge1" class="edge">
<title>Node2&#45;&gt;Node1</title>
<path fill="none" stroke="midnightblue" d="M65.5,-58.22C65.5,-49.36 65.5,-38.96 65.5,-30.76"/>
<polygon fill="midnightblue" stroke="midnightblue" points="62,-58.33 65.5,-68.33 69,-58.33 62,-58.33"/>
</g>
</g>
</svg>
