<?xml version="1.0" encoding="UTF-8" standalone="no"?>
<!DOCTYPE svg PUBLIC "-//W3C//DTD SVG 1.1//EN"
 "http://www.w3.org/Graphics/SVG/1.1/DTD/svg11.dtd">
<!-- Generated by graphviz version 2.47.1 (20210417.1919)
 -->
<!-- Title: MGTransferSelect&lt; number &gt; Pages: 1 -->
<svg width="296pt" height="220pt"
 viewBox="0.00 0.00 295.50 220.00" xmlns="http://www.w3.org/2000/svg" xmlns:xlink="http://www.w3.org/1999/xlink">
<g id="graph0" class="graph" transform="scale(1 1) rotate(0) translate(4 216)">
<title>MGTransferSelect&lt; number &gt;</title>
<polygon fill="white" stroke="transparent" points="-4,4 -4,-216 291.5,-216 291.5,4 -4,4"/>
<!-- Node1 -->
<g id="node1" class="node">
<title>Node1</title>
<g id="a_node1"><a xlink:title=" ">
<polygon fill="#bfbfbf" stroke="black" points="67,-0.5 67,-19.5 213,-19.5 213,-0.5 67,-0.5"/>
<text text-anchor="middle" x="140" y="-7.5" font-family="Helvetica,sans-Serif" font-size="10.00">MGTransferSelect&lt; number &gt;</text>
</a>
</g>
</g>
<!-- Node2 -->
<g id="node2" class="node">
<title>Node2</title>
<g id="a_node2"><a xlink:href="classMGTransferBase.html" target="_top" xlink:title=" ">
<polygon fill="white" stroke="black" points="0,-57.5 0,-87.5 128,-87.5 128,-57.5 0,-57.5"/>
<text text-anchor="start" x="8" y="-75.5" font-family="Helvetica,sans-Serif" font-size="10.00">MGTransferBase&lt; Vector</text>
<text text-anchor="middle" x="64" y="-64.5" font-family="Helvetica,sans-Serif" font-size="10.00">&lt; number &gt; &gt;</text>
</a>
</g>
</g>
<!-- Node2&#45;&gt;Node1 -->
<g id="edge1" class="edge">
<title>Node2&#45;&gt;Node1</title>
<path fill="none" stroke="midnightblue" d="M89.67,-51.07C103.18,-40.31 119.02,-27.7 129.27,-19.54"/>
<polygon fill="midnightblue" stroke="midnightblue" points="87.27,-48.5 81.63,-57.47 91.63,-53.98 87.27,-48.5"/>
</g>
<!-- Node3 -->
<g id="node3" class="node">
<title>Node3</title>
<g id="a_node3"><a xlink:href="classSubscriptor.html" target="_top" xlink:title=" ">
<polygon fill="white" stroke="black" points="27,-192.5 27,-211.5 93,-211.5 93,-192.5 27,-192.5"/>
<text text-anchor="middle" x="60" y="-199.5" font-family="Helvetica,sans-Serif" font-size="10.00">Subscriptor</text>
</a>
</g>
</g>
<!-- Node3&#45;&gt;Node2 -->
<g id="edge2" class="edge">
<title>Node3&#45;&gt;Node2</title>
<path fill="none" stroke="midnightblue" d="M60.6,-181.9C61.41,-156.05 62.84,-110.54 63.56,-87.59"/>
<polygon fill="midnightblue" stroke="midnightblue" points="57.09,-182.13 60.27,-192.24 64.09,-182.35 57.09,-182.13"/>
</g>
<!-- Node4 -->
<g id="node4" class="node">
<title>Node4</title>
<g id="a_node4"><a xlink:href="classMGTransferBase.html" target="_top" xlink:title=" ">
<polygon fill="white" stroke="black" points="76,-135.5 76,-154.5 234,-154.5 234,-135.5 76,-135.5"/>
<text text-anchor="middle" x="155" y="-142.5" font-family="Helvetica,sans-Serif" font-size="10.00">MGTransferBase&lt; VectorType &gt;</text>
</a>
</g>
</g>
<!-- Node3&#45;&gt;Node4 -->
<g id="edge4" class="edge">
<title>Node3&#45;&gt;Node4</title>
<path fill="none" stroke="midnightblue" d="M83.5,-187.39C101.26,-177.11 125.1,-163.31 140.26,-154.53"/>
<polygon fill="midnightblue" stroke="midnightblue" points="81.74,-184.37 74.84,-192.41 85.25,-190.42 81.74,-184.37"/>
</g>
<!-- Node4&#45;&gt;Node2 -->
<g id="edge3" class="edge">
<title>Node4&#45;&gt;Node2</title>
<path fill="none" stroke="orange" stroke-dasharray="5,2" d="M135.8,-129.13C119.98,-116.87 97.7,-99.61 82.17,-87.58"/>
<polygon fill="orange" stroke="orange" points="133.79,-132 143.84,-135.36 138.08,-126.46 133.79,-132"/>
<text text-anchor="middle" x="168" y="-109" font-family="Helvetica,sans-Serif" font-size="10.00"> &lt; Vector&lt; number &gt; &gt;</text>
</g>
<!-- Node5 -->
<g id="node5" class="node">
<title>Node5</title>
<g id="a_node5"><a xlink:href="classMGTransferComponentBase.html" target="_top" xlink:title=" ">
<polygon fill="white" stroke="black" points="146.5,-63 146.5,-82 287.5,-82 287.5,-63 146.5,-63"/>
<text text-anchor="middle" x="217" y="-70" font-family="Helvetica,sans-Serif" font-size="10.00">MGTransferComponentBase</text>
</a>
</g>
</g>
<!-- Node5&#45;&gt;Node1 -->
<g id="edge5" class="edge">
<title>Node5&#45;&gt;Node1</title>
<path fill="none" stroke="#8b1a1a" d="M197.97,-56.55C183.2,-44.94 163.24,-29.26 151.01,-19.65"/>
<polygon fill="#8b1a1a" stroke="#8b1a1a" points="195.94,-59.41 205.97,-62.83 200.27,-53.9 195.94,-59.41"/>
</g>
</g>
</svg>
