<?xml version="1.0" encoding="UTF-8" standalone="no"?>
<!DOCTYPE svg PUBLIC "-//W3C//DTD SVG 1.1//EN"
 "http://www.w3.org/Graphics/SVG/1.1/DTD/svg11.dtd">
<!-- Generated by graphviz version 2.47.1 (20210417.1919)
 -->
<!-- Title: RelaxationBlockSSOR&lt; MatrixType, InverseNumberType, VectorType &gt; Pages: 1 -->
<svg width="1072pt" height="105pt"
 viewBox="0.00 0.00 1072.00 104.50" xmlns="http://www.w3.org/2000/svg" xmlns:xlink="http://www.w3.org/1999/xlink">
<g id="graph0" class="graph" transform="scale(1 1) rotate(0) translate(4 100.5)">
<title>RelaxationBlockSSOR&lt; MatrixType, InverseNumberType, VectorType &gt;</title>
<polygon fill="white" stroke="transparent" points="-4,4 -4,-100.5 1068,-100.5 1068,4 -4,4"/>
<!-- Node1 -->
<g id="node1" class="node">
<title>Node1</title>
<g id="a_node1"><a xlink:title=" ">
<polygon fill="#bfbfbf" stroke="black" points="918,-41 918,-82 1064,-82 1064,-41 918,-41"/>
<text text-anchor="start" x="926" y="-70" font-family="Helvetica,sans-Serif" font-size="10.00">RelaxationBlockSSOR</text>
<text text-anchor="start" x="926" y="-59" font-family="Helvetica,sans-Serif" font-size="10.00">&lt; MatrixType, InverseNumber</text>
<text text-anchor="middle" x="991" y="-48" font-family="Helvetica,sans-Serif" font-size="10.00">Type, VectorType &gt;</text>
</a>
</g>
</g>
<!-- Node2 -->
<g id="node2" class="node">
<title>Node2</title>
<g id="a_node2"><a xlink:href="classSubscriptor.html" target="_top" xlink:title=" ">
<polygon fill="white" stroke="black" points="774,-77 774,-96 840,-96 840,-77 774,-77"/>
<text text-anchor="middle" x="807" y="-84" font-family="Helvetica,sans-Serif" font-size="10.00">Subscriptor</text>
</a>
</g>
</g>
<!-- Node2&#45;&gt;Node1 -->
<g id="edge1" class="edge">
<title>Node2&#45;&gt;Node1</title>
<path fill="none" stroke="midnightblue" d="M850.18,-80.71C870.28,-77.94 894.89,-74.56 917.83,-71.41"/>
<polygon fill="midnightblue" stroke="midnightblue" points="849.55,-77.26 840.12,-82.09 850.5,-84.19 849.55,-77.26"/>
</g>
<!-- Node3 -->
<g id="node3" class="node">
<title>Node3</title>
<g id="a_node3"><a xlink:href="classRelaxationBlock.html" target="_top" xlink:title=" ">
<polygon fill="white" stroke="black" points="733,-17 733,-58 881,-58 881,-17 733,-17"/>
<text text-anchor="start" x="741" y="-46" font-family="Helvetica,sans-Serif" font-size="10.00">RelaxationBlock&lt; MatrixType,</text>
<text text-anchor="start" x="741" y="-35" font-family="Helvetica,sans-Serif" font-size="10.00"> typename MatrixType::value</text>
<text text-anchor="middle" x="807" y="-24" font-family="Helvetica,sans-Serif" font-size="10.00">_type, Vector&lt; double &gt; &gt;</text>
</a>
</g>
</g>
<!-- Node3&#45;&gt;Node1 -->
<g id="edge2" class="edge">
<title>Node3&#45;&gt;Node1</title>
<path fill="none" stroke="darkgreen" d="M891.2,-48.47C900.08,-49.64 909.06,-50.83 917.8,-51.98"/>
<polygon fill="darkgreen" stroke="darkgreen" points="891.61,-45 881.24,-47.16 890.7,-51.94 891.61,-45"/>
</g>
<!-- Node4 -->
<g id="node4" class="node">
<title>Node4</title>
<g id="a_node4"><a xlink:href="classPreconditionBlockBase.html" target="_top" xlink:title=" ">
<polygon fill="white" stroke="black" points="260,-18 260,-59 379,-59 379,-18 260,-18"/>
<text text-anchor="start" x="268" y="-47" font-family="Helvetica,sans-Serif" font-size="10.00">PreconditionBlockBase</text>
<text text-anchor="start" x="268" y="-36" font-family="Helvetica,sans-Serif" font-size="10.00">&lt; typename MatrixType</text>
<text text-anchor="middle" x="319.5" y="-25" font-family="Helvetica,sans-Serif" font-size="10.00">::value_type &gt;</text>
</a>
</g>
</g>
<!-- Node4&#45;&gt;Node3 -->
<g id="edge3" class="edge">
<title>Node4&#45;&gt;Node3</title>
<path fill="none" stroke="darkgreen" d="M389.3,-43.3C468.07,-48.04 600.93,-53.75 715,-47.5 720.71,-47.19 726.62,-46.76 732.55,-46.27"/>
<polygon fill="darkgreen" stroke="darkgreen" points="389.23,-39.78 379.03,-42.66 388.8,-46.77 389.23,-39.78"/>
</g>
<!-- Node6 -->
<g id="node6" class="node">
<title>Node6</title>
<g id="a_node6"><a xlink:href="classRelaxationBlock.html" target="_top" xlink:title=" ">
<polygon fill="white" stroke="black" points="416,-0.5 416,-30.5 588,-30.5 588,-0.5 416,-0.5"/>
<text text-anchor="start" x="424" y="-18.5" font-family="Helvetica,sans-Serif" font-size="10.00">RelaxationBlock&lt; MatrixType,</text>
<text text-anchor="middle" x="502" y="-7.5" font-family="Helvetica,sans-Serif" font-size="10.00"> InverseNumberType, VectorType &gt;</text>
</a>
</g>
</g>
<!-- Node4&#45;&gt;Node6 -->
<g id="edge6" class="edge">
<title>Node4&#45;&gt;Node6</title>
<path fill="none" stroke="darkgreen" d="M389.18,-29.75C397.89,-28.64 406.88,-27.49 415.81,-26.35"/>
<polygon fill="darkgreen" stroke="darkgreen" points="388.58,-26.3 379.1,-31.03 389.47,-33.24 388.58,-26.3"/>
</g>
<!-- Node5 -->
<g id="node5" class="node">
<title>Node5</title>
<g id="a_node5"><a xlink:href="classPreconditionBlockBase.html" target="_top" xlink:title=" ">
<polygon fill="white" stroke="black" points="0,-23.5 0,-53.5 118,-53.5 118,-23.5 0,-23.5"/>
<text text-anchor="start" x="8" y="-41.5" font-family="Helvetica,sans-Serif" font-size="10.00">PreconditionBlockBase</text>
<text text-anchor="middle" x="59" y="-30.5" font-family="Helvetica,sans-Serif" font-size="10.00">&lt; number &gt;</text>
</a>
</g>
</g>
<!-- Node5&#45;&gt;Node4 -->
<g id="edge4" class="edge">
<title>Node5&#45;&gt;Node4</title>
<path fill="none" stroke="orange" stroke-dasharray="5,2" d="M128.18,-38.5C169.11,-38.5 220.66,-38.5 259.79,-38.5"/>
<polygon fill="orange" stroke="orange" points="128.01,-35 118.01,-38.5 128.01,-42 128.01,-35"/>
<text text-anchor="start" x="136" y="-52.5" font-family="Helvetica,sans-Serif" font-size="10.00"> &lt; typename MatrixType</text>
<text text-anchor="middle" x="189" y="-41.5" font-family="Helvetica,sans-Serif" font-size="10.00">::value_type &gt;</text>
</g>
<!-- Node6&#45;&gt;Node3 -->
<g id="edge5" class="edge">
<title>Node6&#45;&gt;Node3</title>
<path fill="none" stroke="orange" stroke-dasharray="5,2" d="M598.32,-9.86C634.92,-9.05 677.02,-9.78 715,-14.5 720.82,-15.22 726.81,-16.2 732.79,-17.34"/>
<polygon fill="orange" stroke="orange" points="598.05,-6.37 588.14,-10.13 598.23,-13.37 598.05,-6.37"/>
<text text-anchor="start" x="606" y="-39.5" font-family="Helvetica,sans-Serif" font-size="10.00"> &lt; MatrixType, typename</text>
<text text-anchor="start" x="606" y="-28.5" font-family="Helvetica,sans-Serif" font-size="10.00"> MatrixType::value_type,</text>
<text text-anchor="middle" x="660.5" y="-17.5" font-family="Helvetica,sans-Serif" font-size="10.00"> Vector&lt; double &gt; &gt;</text>
</g>
</g>
</svg>
