<?xml version="1.0" encoding="UTF-8" standalone="no"?>
<!DOCTYPE svg PUBLIC "-//W3C//DTD SVG 1.1//EN"
 "http://www.w3.org/Graphics/SVG/1.1/DTD/svg11.dtd">
<!-- Generated by graphviz version 2.47.1 (20210417.1919)
 -->
<!-- Title: BlockSparseMatrix&lt; number &gt; Pages: 1 -->
<svg width="270pt" height="231pt"
 viewBox="0.00 0.00 270.00 231.00" xmlns="http://www.w3.org/2000/svg" xmlns:xlink="http://www.w3.org/1999/xlink">
<g id="graph0" class="graph" transform="scale(1 1) rotate(0) translate(4 227)">
<title>BlockSparseMatrix&lt; number &gt;</title>
<polygon fill="white" stroke="transparent" points="-4,4 -4,-227 266,-227 266,4 -4,4"/>
<!-- Node1 -->
<g id="node1" class="node">
<title>Node1</title>
<g id="a_node1"><a xlink:title=" ">
<polygon fill="#bfbfbf" stroke="black" points="26.5,-0.5 26.5,-30.5 131.5,-30.5 131.5,-0.5 26.5,-0.5"/>
<text text-anchor="start" x="34.5" y="-18.5" font-family="Helvetica,sans-Serif" font-size="10.00">BlockSparseMatrix&lt;</text>
<text text-anchor="middle" x="79" y="-7.5" font-family="Helvetica,sans-Serif" font-size="10.00"> number &gt;</text>
</a>
</g>
</g>
<!-- Node2 -->
<g id="node2" class="node">
<title>Node2</title>
<g id="a_node2"><a xlink:href="classBlockMatrixBase.html" target="_top" xlink:title=" ">
<polygon fill="white" stroke="black" points="0,-68.5 0,-98.5 158,-98.5 158,-68.5 0,-68.5"/>
<text text-anchor="start" x="8" y="-86.5" font-family="Helvetica,sans-Serif" font-size="10.00">BlockMatrixBase&lt; SparseMatrix</text>
<text text-anchor="middle" x="79" y="-75.5" font-family="Helvetica,sans-Serif" font-size="10.00">&lt; number &gt; &gt;</text>
</a>
</g>
</g>
<!-- Node2&#45;&gt;Node1 -->
<g id="edge1" class="edge">
<title>Node2&#45;&gt;Node1</title>
<path fill="none" stroke="midnightblue" d="M79,-58.03C79,-48.86 79,-38.74 79,-30.79"/>
<polygon fill="midnightblue" stroke="midnightblue" points="75.5,-58.18 79,-68.18 82.5,-58.18 75.5,-58.18"/>
</g>
<!-- Node3 -->
<g id="node3" class="node">
<title>Node3</title>
<g id="a_node3"><a xlink:href="classSubscriptor.html" target="_top" xlink:title=" ">
<polygon fill="white" stroke="black" points="42,-203.5 42,-222.5 108,-222.5 108,-203.5 42,-203.5"/>
<text text-anchor="middle" x="75" y="-210.5" font-family="Helvetica,sans-Serif" font-size="10.00">Subscriptor</text>
</a>
</g>
</g>
<!-- Node3&#45;&gt;Node2 -->
<g id="edge2" class="edge">
<title>Node3&#45;&gt;Node2</title>
<path fill="none" stroke="midnightblue" d="M75.6,-192.9C76.41,-167.05 77.84,-121.54 78.56,-98.59"/>
<polygon fill="midnightblue" stroke="midnightblue" points="72.09,-193.13 75.27,-203.24 79.09,-193.35 72.09,-193.13"/>
</g>
<!-- Node4 -->
<g id="node4" class="node">
<title>Node4</title>
<g id="a_node4"><a xlink:href="classBlockMatrixBase.html" target="_top" xlink:title=" ">
<polygon fill="white" stroke="black" points="91.5,-146.5 91.5,-165.5 248.5,-165.5 248.5,-146.5 91.5,-146.5"/>
<text text-anchor="middle" x="170" y="-153.5" font-family="Helvetica,sans-Serif" font-size="10.00">BlockMatrixBase&lt; MatrixType &gt;</text>
</a>
</g>
</g>
<!-- Node3&#45;&gt;Node4 -->
<g id="edge4" class="edge">
<title>Node3&#45;&gt;Node4</title>
<path fill="none" stroke="midnightblue" d="M98.5,-198.39C116.26,-188.11 140.1,-174.31 155.26,-165.53"/>
<polygon fill="midnightblue" stroke="midnightblue" points="96.74,-195.37 89.84,-203.41 100.25,-201.42 96.74,-195.37"/>
</g>
<!-- Node4&#45;&gt;Node2 -->
<g id="edge3" class="edge">
<title>Node4&#45;&gt;Node2</title>
<path fill="none" stroke="orange" stroke-dasharray="5,2" d="M150.8,-140.13C134.98,-127.87 112.7,-110.61 97.17,-98.58"/>
<polygon fill="orange" stroke="orange" points="148.79,-143 158.84,-146.36 153.08,-137.46 148.79,-143"/>
<text text-anchor="middle" x="197" y="-120" font-family="Helvetica,sans-Serif" font-size="10.00"> &lt; SparseMatrix&lt; number &gt; &gt;</text>
</g>
</g>
</svg>
