<?xml version="1.0" encoding="UTF-8" standalone="no"?>
<!DOCTYPE svg PUBLIC "-//W3C//DTD SVG 1.1//EN"
 "http://www.w3.org/Graphics/SVG/1.1/DTD/svg11.dtd">
<!-- Generated by graphviz version 2.47.1 (20210417.1919)
 -->
<!-- Title: QTrianglePolar Pages: 1 -->
<svg width="167pt" height="266pt"
 viewBox="0.00 0.00 166.50 266.00" xmlns="http://www.w3.org/2000/svg" xmlns:xlink="http://www.w3.org/1999/xlink">
<g id="graph0" class="graph" transform="scale(1 1) rotate(0) translate(4 262)">
<title>QTrianglePolar</title>
<polygon fill="white" stroke="transparent" points="-4,4 -4,-262 162.5,-262 162.5,4 -4,4"/>
<!-- Node1 -->
<g id="node1" class="node">
<title>Node1</title>
<g id="a_node1"><a xlink:title=" ">
<polygon fill="#bfbfbf" stroke="black" points="12.5,-0.5 12.5,-19.5 93.5,-19.5 93.5,-0.5 12.5,-0.5"/>
<text text-anchor="middle" x="53" y="-7.5" font-family="Helvetica,sans-Serif" font-size="10.00">QTrianglePolar</text>
</a>
</g>
</g>
<!-- Node2 -->
<g id="node2" class="node">
<title>Node2</title>
<g id="a_node2"><a xlink:href="classQSimplex.html" target="_top" xlink:title=" ">
<polygon fill="white" stroke="black" points="11.5,-57.5 11.5,-76.5 94.5,-76.5 94.5,-57.5 11.5,-57.5"/>
<text text-anchor="middle" x="53" y="-64.5" font-family="Helvetica,sans-Serif" font-size="10.00">QSimplex&lt; 2 &gt;</text>
</a>
</g>
</g>
<!-- Node2&#45;&gt;Node1 -->
<g id="edge1" class="edge">
<title>Node2&#45;&gt;Node1</title>
<path fill="none" stroke="midnightblue" d="M53,-47.12C53,-37.82 53,-27.06 53,-19.71"/>
<polygon fill="midnightblue" stroke="midnightblue" points="49.5,-47.41 53,-57.41 56.5,-47.41 49.5,-47.41"/>
</g>
<!-- Node3 -->
<g id="node3" class="node">
<title>Node3</title>
<g id="a_node3"><a xlink:href="classQuadrature.html" target="_top" xlink:title=" ">
<polygon fill="white" stroke="black" points="0,-181.5 0,-200.5 98,-200.5 98,-181.5 0,-181.5"/>
<text text-anchor="middle" x="49" y="-188.5" font-family="Helvetica,sans-Serif" font-size="10.00">Quadrature&lt; dim &gt;</text>
</a>
</g>
</g>
<!-- Node3&#45;&gt;Node2 -->
<g id="edge2" class="edge">
<title>Node3&#45;&gt;Node2</title>
<path fill="none" stroke="midnightblue" d="M49.62,-171.19C50.5,-144.4 52.07,-96.31 52.71,-76.69"/>
<polygon fill="midnightblue" stroke="midnightblue" points="46.12,-171.12 49.29,-181.23 53.11,-171.35 46.12,-171.12"/>
</g>
<!-- Node5 -->
<g id="node5" class="node">
<title>Node5</title>
<g id="a_node5"><a xlink:href="classQSimplex.html" target="_top" xlink:title=" ">
<polygon fill="white" stroke="black" points="65.5,-124.5 65.5,-143.5 158.5,-143.5 158.5,-124.5 65.5,-124.5"/>
<text text-anchor="middle" x="112" y="-131.5" font-family="Helvetica,sans-Serif" font-size="10.00">QSimplex&lt; dim &gt;</text>
</a>
</g>
</g>
<!-- Node3&#45;&gt;Node5 -->
<g id="edge5" class="edge">
<title>Node3&#45;&gt;Node5</title>
<path fill="none" stroke="midnightblue" d="M66.52,-174.71C77.96,-164.72 92.5,-152.02 102.02,-143.71"/>
<polygon fill="midnightblue" stroke="midnightblue" points="64.08,-172.19 58.84,-181.41 68.68,-177.47 64.08,-172.19"/>
</g>
<!-- Node4 -->
<g id="node4" class="node">
<title>Node4</title>
<g id="a_node4"><a xlink:href="classSubscriptor.html" target="_top" xlink:title=" ">
<polygon fill="white" stroke="black" points="16,-238.5 16,-257.5 82,-257.5 82,-238.5 16,-238.5"/>
<text text-anchor="middle" x="49" y="-245.5" font-family="Helvetica,sans-Serif" font-size="10.00">Subscriptor</text>
</a>
</g>
</g>
<!-- Node4&#45;&gt;Node3 -->
<g id="edge3" class="edge">
<title>Node4&#45;&gt;Node3</title>
<path fill="none" stroke="midnightblue" d="M49,-228.12C49,-218.82 49,-208.06 49,-200.71"/>
<polygon fill="midnightblue" stroke="midnightblue" points="45.5,-228.41 49,-238.41 52.5,-228.41 45.5,-228.41"/>
</g>
<!-- Node5&#45;&gt;Node2 -->
<g id="edge4" class="edge">
<title>Node5&#45;&gt;Node2</title>
<path fill="none" stroke="orange" stroke-dasharray="5,2" d="M97.15,-116.63C85.61,-103.92 70.06,-86.8 60.83,-76.63"/>
<polygon fill="orange" stroke="orange" points="94.73,-119.18 104.04,-124.23 99.91,-114.48 94.73,-119.18"/>
<text text-anchor="middle" x="99.5" y="-98" font-family="Helvetica,sans-Serif" font-size="10.00"> &lt; 2 &gt;</text>
</g>
</g>
</svg>
