<?xml version="1.0" encoding="UTF-8" standalone="no"?>
<!DOCTYPE svg PUBLIC "-//W3C//DTD SVG 1.1//EN"
 "http://www.w3.org/Graphics/SVG/1.1/DTD/svg11.dtd">
<!-- Generated by graphviz version 2.47.1 (20210417.1919)
 -->
<!-- Title: FE_DGVector&lt; PolynomialType, dim, spacedim &gt; Pages: 1 -->
<svg width="1502pt" height="177pt"
 viewBox="0.00 0.00 1502.00 177.00" xmlns="http://www.w3.org/2000/svg" xmlns:xlink="http://www.w3.org/1999/xlink">
<g id="graph0" class="graph" transform="scale(1 1) rotate(0) translate(4 173)">
<title>FE_DGVector&lt; PolynomialType, dim, spacedim &gt;</title>
<polygon fill="white" stroke="transparent" points="-4,4 -4,-173 1498,-173 1498,4 -4,4"/>
<!-- Node1 -->
<g id="node1" class="node">
<title>Node1</title>
<g id="a_node1"><a xlink:title=" ">
<polygon fill="#bfbfbf" stroke="black" points="835,-49.5 835,-79.5 994,-79.5 994,-49.5 835,-49.5"/>
<text text-anchor="start" x="843" y="-67.5" font-family="Helvetica,sans-Serif" font-size="10.00">FE_DGVector&lt; PolynomialType,</text>
<text text-anchor="middle" x="914.5" y="-56.5" font-family="Helvetica,sans-Serif" font-size="10.00"> dim, spacedim &gt;</text>
</a>
</g>
</g>
<!-- Node8 -->
<g id="node8" class="node">
<title>Node8</title>
<g id="a_node8"><a xlink:href="classFE__DGVector.html" target="_top" xlink:title=" ">
<polygon fill="white" stroke="black" points="1163,-99 1163,-140 1303,-140 1303,-99 1163,-99"/>
<text text-anchor="start" x="1171" y="-128" font-family="Helvetica,sans-Serif" font-size="10.00">FE_DGVector&lt; Polynomials</text>
<text text-anchor="start" x="1171" y="-117" font-family="Helvetica,sans-Serif" font-size="10.00">RaviartThomas&lt; dim &gt;,</text>
<text text-anchor="middle" x="1233" y="-106" font-family="Helvetica,sans-Serif" font-size="10.00"> dim, dim &gt;</text>
</a>
</g>
</g>
<!-- Node1&#45;&gt;Node8 -->
<g id="edge11" class="edge">
<title>Node1&#45;&gt;Node8</title>
<path fill="none" stroke="orange" stroke-dasharray="5,2" d="M976.08,-82.13C987.93,-85.21 1000.3,-88.16 1012,-90.5 1062.06,-100.5 1119.23,-107.91 1162.75,-112.74"/>
<polygon fill="orange" stroke="orange" points="976.85,-78.71 966.29,-79.53 975.05,-85.48 976.85,-78.71"/>
<text text-anchor="start" x="1012" y="-123.5" font-family="Helvetica,sans-Serif" font-size="10.00"> &lt; PolynomialsRaviartThomas</text>
<text text-anchor="middle" x="1078.5" y="-112.5" font-family="Helvetica,sans-Serif" font-size="10.00">&lt; dim &gt;, dim, dim &gt;</text>
</g>
<!-- Node10 -->
<g id="node10" class="node">
<title>Node10</title>
<g id="a_node10"><a xlink:href="classFE__DGVector.html" target="_top" xlink:title=" ">
<polygon fill="white" stroke="black" points="1163,-49.5 1163,-79.5 1303,-79.5 1303,-49.5 1163,-49.5"/>
<text text-anchor="start" x="1171" y="-67.5" font-family="Helvetica,sans-Serif" font-size="10.00">FE_DGVector&lt; Polynomials</text>
<text text-anchor="middle" x="1233" y="-56.5" font-family="Helvetica,sans-Serif" font-size="10.00">BDM&lt; dim &gt;, dim, dim &gt;</text>
</a>
</g>
</g>
<!-- Node1&#45;&gt;Node10 -->
<g id="edge13" class="edge">
<title>Node1&#45;&gt;Node10</title>
<path fill="none" stroke="orange" stroke-dasharray="5,2" d="M1004.34,-64.5C1054.54,-64.5 1116.36,-64.5 1162.91,-64.5"/>
<polygon fill="orange" stroke="orange" points="1004.14,-61 994.14,-64.5 1004.14,-68 1004.14,-61"/>
<text text-anchor="start" x="1022" y="-78.5" font-family="Helvetica,sans-Serif" font-size="10.00"> &lt; PolynomialsBDM&lt; dim</text>
<text text-anchor="middle" x="1078.5" y="-67.5" font-family="Helvetica,sans-Serif" font-size="10.00"> &gt;, dim, dim &gt;</text>
</g>
<!-- Node12 -->
<g id="node12" class="node">
<title>Node12</title>
<g id="a_node12"><a xlink:href="classFE__DGVector.html" target="_top" xlink:title=" ">
<polygon fill="white" stroke="black" points="1163,-0.5 1163,-30.5 1303,-30.5 1303,-0.5 1163,-0.5"/>
<text text-anchor="start" x="1171" y="-18.5" font-family="Helvetica,sans-Serif" font-size="10.00">FE_DGVector&lt; Polynomials</text>
<text text-anchor="middle" x="1233" y="-7.5" font-family="Helvetica,sans-Serif" font-size="10.00">Nedelec&lt; dim &gt;, dim, dim &gt;</text>
</a>
</g>
</g>
<!-- Node1&#45;&gt;Node12 -->
<g id="edge15" class="edge">
<title>Node1&#45;&gt;Node12</title>
<path fill="none" stroke="orange" stroke-dasharray="5,2" d="M975.23,-46.82C987.32,-43.69 1000.01,-40.73 1012,-38.5 1062.03,-29.21 1119.2,-23.37 1162.73,-19.91"/>
<polygon fill="orange" stroke="orange" points="974,-43.53 965.24,-49.48 975.8,-50.29 974,-43.53"/>
<text text-anchor="start" x="1027.5" y="-52.5" font-family="Helvetica,sans-Serif" font-size="10.00"> &lt; PolynomialsNedelec</text>
<text text-anchor="middle" x="1078.5" y="-41.5" font-family="Helvetica,sans-Serif" font-size="10.00">&lt; dim &gt;, dim, dim &gt;</text>
</g>
<!-- Node2 -->
<g id="node2" class="node">
<title>Node2</title>
<g id="a_node2"><a xlink:href="classFE__PolyTensor.html" target="_top" xlink:title=" ">
<polygon fill="white" stroke="black" points="687,-49.5 687,-79.5 798,-79.5 798,-49.5 687,-49.5"/>
<text text-anchor="start" x="695" y="-67.5" font-family="Helvetica,sans-Serif" font-size="10.00">FE_PolyTensor&lt; dim,</text>
<text text-anchor="middle" x="742.5" y="-56.5" font-family="Helvetica,sans-Serif" font-size="10.00"> dim &gt;</text>
</a>
</g>
</g>
<!-- Node2&#45;&gt;Node1 -->
<g id="edge1" class="edge">
<title>Node2&#45;&gt;Node1</title>
<path fill="none" stroke="midnightblue" d="M808.24,-64.5C816.9,-64.5 825.86,-64.5 834.74,-64.5"/>
<polygon fill="midnightblue" stroke="midnightblue" points="808.22,-61 798.22,-64.5 808.22,-68 808.22,-61"/>
</g>
<!-- Node3 -->
<g id="node3" class="node">
<title>Node3</title>
<g id="a_node3"><a xlink:href="classFiniteElement.html" target="_top" xlink:title=" ">
<polygon fill="white" stroke="black" points="141,-29.5 141,-59.5 245,-59.5 245,-29.5 141,-29.5"/>
<text text-anchor="start" x="149" y="-47.5" font-family="Helvetica,sans-Serif" font-size="10.00">FiniteElement&lt; dim,</text>
<text text-anchor="middle" x="193" y="-36.5" font-family="Helvetica,sans-Serif" font-size="10.00"> spacedim &gt;</text>
</a>
</g>
</g>
<!-- Node3&#45;&gt;Node2 -->
<g id="edge2" class="edge">
<title>Node3&#45;&gt;Node2</title>
<path fill="none" stroke="midnightblue" d="M255.06,-46.73C362.55,-50.66 583.94,-58.74 686.78,-62.5"/>
<polygon fill="midnightblue" stroke="midnightblue" points="255.14,-43.23 245.02,-46.36 254.88,-50.23 255.14,-43.23"/>
</g>
<!-- Node3&#45;&gt;Node3 -->
<g id="edge5" class="edge">
<title>Node3&#45;&gt;Node3</title>
<path fill="none" stroke="orange" stroke-dasharray="5,2" d="M180.56,-69.96C182.11,-74.68 186.25,-78 193,-78 204.07,-78 208.14,-69.06 205.2,-59.66"/>
<polygon fill="orange" stroke="orange" points="184.07,-69.74 180.8,-59.66 177.07,-69.57 184.07,-69.74"/>
<text text-anchor="middle" x="193" y="-81" font-family="Helvetica,sans-Serif" font-size="10.00"> &lt; dim, spacedim &gt;</text>
</g>
<!-- Node7 -->
<g id="node7" class="node">
<title>Node7</title>
<g id="a_node7"><a xlink:href="classFiniteElement.html" target="_top" xlink:title=" ">
<polygon fill="white" stroke="black" points="340,-95.5 340,-125.5 444,-125.5 444,-95.5 340,-95.5"/>
<text text-anchor="start" x="348" y="-113.5" font-family="Helvetica,sans-Serif" font-size="10.00">FiniteElement&lt; dim,</text>
<text text-anchor="middle" x="392" y="-102.5" font-family="Helvetica,sans-Serif" font-size="10.00"> dim &gt;</text>
</a>
</g>
</g>
<!-- Node3&#45;&gt;Node7 -->
<g id="edge10" class="edge">
<title>Node3&#45;&gt;Node7</title>
<path fill="none" stroke="orange" stroke-dasharray="5,2" d="M248.87,-62.88C279.49,-73.14 317.15,-85.76 346.01,-95.43"/>
<polygon fill="orange" stroke="orange" points="249.79,-59.5 239.2,-59.64 247.57,-66.14 249.79,-59.5"/>
<text text-anchor="middle" x="292.5" y="-90.5" font-family="Helvetica,sans-Serif" font-size="10.00"> &lt; dim, dim &gt;</text>
</g>
<!-- Node4 -->
<g id="node4" class="node">
<title>Node4</title>
<g id="a_node4"><a xlink:href="classSubscriptor.html" target="_top" xlink:title=" ">
<polygon fill="white" stroke="black" points="19,-97 19,-116 85,-116 85,-97 19,-97"/>
<text text-anchor="middle" x="52" y="-104" font-family="Helvetica,sans-Serif" font-size="10.00">Subscriptor</text>
</a>
</g>
</g>
<!-- Node4&#45;&gt;Node3 -->
<g id="edge3" class="edge">
<title>Node4&#45;&gt;Node3</title>
<path fill="none" stroke="midnightblue" d="M83.64,-92.83C105.67,-83.01 135.37,-69.76 158.11,-59.62"/>
<polygon fill="midnightblue" stroke="midnightblue" points="82.12,-89.68 74.41,-96.95 84.97,-96.07 82.12,-89.68"/>
</g>
<!-- Node4&#45;&gt;Node7 -->
<g id="edge8" class="edge">
<title>Node4&#45;&gt;Node7</title>
<path fill="none" stroke="midnightblue" d="M95.32,-107C157.38,-107.74 272.96,-109.1 339.75,-109.89"/>
<polygon fill="midnightblue" stroke="midnightblue" points="95.14,-103.5 85.1,-106.88 95.06,-110.5 95.14,-103.5"/>
</g>
<!-- Node5 -->
<g id="node5" class="node">
<title>Node5</title>
<g id="a_node5"><a xlink:href="classFiniteElementData.html" target="_top" xlink:title=" ">
<polygon fill="white" stroke="black" points="0,-138.5 0,-168.5 104,-168.5 104,-138.5 0,-138.5"/>
<text text-anchor="start" x="8" y="-156.5" font-family="Helvetica,sans-Serif" font-size="10.00">FiniteElementData&lt;</text>
<text text-anchor="middle" x="52" y="-145.5" font-family="Helvetica,sans-Serif" font-size="10.00"> dim &gt;</text>
</a>
</g>
</g>
<!-- Node5&#45;&gt;Node3 -->
<g id="edge4" class="edge">
<title>Node5&#45;&gt;Node3</title>
<path fill="none" stroke="midnightblue" d="M92.28,-133.21C96.32,-130.75 100.3,-128.16 104,-125.5 132.16,-105.27 161.03,-76.96 177.7,-59.73"/>
<polygon fill="midnightblue" stroke="midnightblue" points="90.28,-130.32 83.4,-138.38 93.8,-136.37 90.28,-130.32"/>
</g>
<!-- Node5&#45;&gt;Node7 -->
<g id="edge9" class="edge">
<title>Node5&#45;&gt;Node7</title>
<path fill="none" stroke="midnightblue" d="M114.39,-147.44C169,-141.81 250.97,-132.76 322,-122.5 327.78,-121.67 333.81,-120.72 339.81,-119.74"/>
<polygon fill="midnightblue" stroke="midnightblue" points="113.77,-143.98 104.18,-148.49 114.49,-150.95 113.77,-143.98"/>
</g>
<!-- Node6 -->
<g id="node6" class="node">
<title>Node6</title>
<g id="a_node6"><a xlink:href="classFE__PolyTensor.html" target="_top" xlink:title=" ">
<polygon fill="white" stroke="black" points="481,-84.5 481,-114.5 592,-114.5 592,-84.5 481,-84.5"/>
<text text-anchor="start" x="489" y="-102.5" font-family="Helvetica,sans-Serif" font-size="10.00">FE_PolyTensor&lt; dim,</text>
<text text-anchor="middle" x="536.5" y="-91.5" font-family="Helvetica,sans-Serif" font-size="10.00"> spacedim &gt;</text>
</a>
</g>
</g>
<!-- Node6&#45;&gt;Node2 -->
<g id="edge6" class="edge">
<title>Node6&#45;&gt;Node2</title>
<path fill="none" stroke="orange" stroke-dasharray="5,2" d="M602.35,-88.37C629.5,-83.72 660.71,-78.36 686.68,-73.91"/>
<polygon fill="orange" stroke="orange" points="601.43,-84.98 592.17,-90.12 602.62,-91.88 601.43,-84.98"/>
<text text-anchor="middle" x="639.5" y="-89.5" font-family="Helvetica,sans-Serif" font-size="10.00"> &lt; dim, dim &gt;</text>
</g>
<!-- Node7&#45;&gt;Node6 -->
<g id="edge7" class="edge">
<title>Node7&#45;&gt;Node6</title>
<path fill="none" stroke="midnightblue" d="M454.03,-105.79C462.98,-105.1 472.15,-104.39 480.96,-103.71"/>
<polygon fill="midnightblue" stroke="midnightblue" points="453.74,-102.3 444.04,-106.56 454.28,-109.28 453.74,-102.3"/>
</g>
<!-- Node9 -->
<g id="node9" class="node">
<title>Node9</title>
<g id="a_node9"><a xlink:href="classFE__DGRaviartThomas.html" target="_top" xlink:title=" ">
<polygon fill="white" stroke="black" points="1359,-104.5 1359,-134.5 1475,-134.5 1475,-104.5 1359,-104.5"/>
<text text-anchor="start" x="1367" y="-122.5" font-family="Helvetica,sans-Serif" font-size="10.00">FE_DGRaviartThomas</text>
<text text-anchor="middle" x="1417" y="-111.5" font-family="Helvetica,sans-Serif" font-size="10.00">&lt; dim, spacedim &gt;</text>
</a>
</g>
</g>
<!-- Node8&#45;&gt;Node9 -->
<g id="edge12" class="edge">
<title>Node8&#45;&gt;Node9</title>
<path fill="none" stroke="midnightblue" d="M1313.09,-119.5C1328.47,-119.5 1344.32,-119.5 1358.83,-119.5"/>
<polygon fill="midnightblue" stroke="midnightblue" points="1313.07,-116 1303.07,-119.5 1313.07,-123 1313.07,-116"/>
</g>
<!-- Node11 -->
<g id="node11" class="node">
<title>Node11</title>
<g id="a_node11"><a xlink:href="classFE__DGBDM.html" target="_top" xlink:title=" ">
<polygon fill="white" stroke="black" points="1340,-55 1340,-74 1494,-74 1494,-55 1340,-55"/>
<text text-anchor="middle" x="1417" y="-62" font-family="Helvetica,sans-Serif" font-size="10.00">FE_DGBDM&lt; dim, spacedim &gt;</text>
</a>
</g>
</g>
<!-- Node10&#45;&gt;Node11 -->
<g id="edge14" class="edge">
<title>Node10&#45;&gt;Node11</title>
<path fill="none" stroke="midnightblue" d="M1313.07,-64.5C1322,-64.5 1331.09,-64.5 1339.99,-64.5"/>
<polygon fill="midnightblue" stroke="midnightblue" points="1313.07,-61 1303.07,-64.5 1313.07,-68 1313.07,-61"/>
</g>
<!-- Node13 -->
<g id="node13" class="node">
<title>Node13</title>
<g id="a_node13"><a xlink:href="classFE__DGNedelec.html" target="_top" xlink:title=" ">
<polygon fill="white" stroke="black" points="1360.5,-0.5 1360.5,-30.5 1473.5,-30.5 1473.5,-0.5 1360.5,-0.5"/>
<text text-anchor="start" x="1368.5" y="-18.5" font-family="Helvetica,sans-Serif" font-size="10.00">FE_DGNedelec&lt; dim,</text>
<text text-anchor="middle" x="1417" y="-7.5" font-family="Helvetica,sans-Serif" font-size="10.00"> spacedim &gt;</text>
</a>
</g>
</g>
<!-- Node12&#45;&gt;Node13 -->
<g id="edge16" class="edge">
<title>Node12&#45;&gt;Node13</title>
<path fill="none" stroke="midnightblue" d="M1313.37,-15.5C1329.18,-15.5 1345.46,-15.5 1360.28,-15.5"/>
<polygon fill="midnightblue" stroke="midnightblue" points="1313.07,-12 1303.07,-15.5 1313.07,-19 1313.07,-12"/>
</g>
</g>
</svg>
