<?xml version="1.0" encoding="UTF-8" standalone="no"?>
<!DOCTYPE svg PUBLIC "-//W3C//DTD SVG 1.1//EN"
 "http://www.w3.org/Graphics/SVG/1.1/DTD/svg11.dtd">
<!-- Generated by graphviz version 2.47.1 (20210417.1919)
 -->
<!-- Title: Functions::Bessel1&lt; dim &gt; Pages: 1 -->
<svg width="230pt" height="264pt"
 viewBox="0.00 0.00 230.00 264.00" xmlns="http://www.w3.org/2000/svg" xmlns:xlink="http://www.w3.org/1999/xlink">
<g id="graph0" class="graph" transform="scale(1 1) rotate(0) translate(4 260)">
<title>Functions::Bessel1&lt; dim &gt;</title>
<polygon fill="white" stroke="transparent" points="-4,4 -4,-260 226,-260 226,4 -4,4"/>
<!-- Node1 -->
<g id="node1" class="node">
<title>Node1</title>
<g id="a_node1"><a xlink:title=" ">
<polygon fill="#bfbfbf" stroke="black" points="97.5,-0.5 97.5,-30.5 198.5,-30.5 198.5,-0.5 97.5,-0.5"/>
<text text-anchor="start" x="105.5" y="-18.5" font-family="Helvetica,sans-Serif" font-size="10.00">Functions::Bessel1</text>
<text text-anchor="middle" x="148" y="-7.5" font-family="Helvetica,sans-Serif" font-size="10.00">&lt; dim &gt;</text>
</a>
</g>
</g>
<!-- Node2 -->
<g id="node2" class="node">
<title>Node2</title>
<g id="a_node2"><a xlink:href="classFunction.html" target="_top" xlink:title=" ">
<polygon fill="white" stroke="black" points="74,-68.5 74,-98.5 222,-98.5 222,-68.5 74,-68.5"/>
<text text-anchor="start" x="82" y="-86.5" font-family="Helvetica,sans-Serif" font-size="10.00">Function&lt; dim, RangeNumber</text>
<text text-anchor="middle" x="148" y="-75.5" font-family="Helvetica,sans-Serif" font-size="10.00">Type &gt;</text>
</a>
</g>
</g>
<!-- Node2&#45;&gt;Node1 -->
<g id="edge1" class="edge">
<title>Node2&#45;&gt;Node1</title>
<path fill="none" stroke="midnightblue" d="M148,-58.03C148,-48.86 148,-38.74 148,-30.79"/>
<polygon fill="midnightblue" stroke="midnightblue" points="144.5,-58.18 148,-68.18 151.5,-58.18 144.5,-58.18"/>
</g>
<!-- Node3 -->
<g id="node3" class="node">
<title>Node3</title>
<g id="a_node3"><a xlink:href="classFunctionTime.html" target="_top" xlink:title=" ">
<polygon fill="white" stroke="black" points="3,-136.5 3,-177.5 125,-177.5 125,-136.5 3,-136.5"/>
<text text-anchor="start" x="11" y="-165.5" font-family="Helvetica,sans-Serif" font-size="10.00">FunctionTime&lt; numbers</text>
<text text-anchor="start" x="11" y="-154.5" font-family="Helvetica,sans-Serif" font-size="10.00">::NumberTraits&lt; double</text>
<text text-anchor="middle" x="64" y="-143.5" font-family="Helvetica,sans-Serif" font-size="10.00"> &gt;::real_type &gt;</text>
</a>
</g>
</g>
<!-- Node3&#45;&gt;Node2 -->
<g id="edge2" class="edge">
<title>Node3&#45;&gt;Node2</title>
<path fill="none" stroke="midnightblue" d="M94.85,-129.74C107.24,-119.19 121.04,-107.45 131.47,-98.57"/>
<polygon fill="midnightblue" stroke="midnightblue" points="92.3,-127.32 86.95,-136.46 96.84,-132.65 92.3,-127.32"/>
</g>
<!-- Node4 -->
<g id="node4" class="node">
<title>Node4</title>
<g id="a_node4"><a xlink:href="classFunctionTime.html" target="_top" xlink:title=" ">
<polygon fill="white" stroke="black" points="0,-236.5 0,-255.5 128,-255.5 128,-236.5 0,-236.5"/>
<text text-anchor="middle" x="64" y="-243.5" font-family="Helvetica,sans-Serif" font-size="10.00">FunctionTime&lt; Number &gt;</text>
</a>
</g>
</g>
<!-- Node4&#45;&gt;Node3 -->
<g id="edge3" class="edge">
<title>Node4&#45;&gt;Node3</title>
<path fill="none" stroke="orange" stroke-dasharray="5,2" d="M64,-226.2C64,-211.88 64,-192.21 64,-177.68"/>
<polygon fill="orange" stroke="orange" points="60.5,-226.34 64,-236.34 67.5,-226.34 60.5,-226.34"/>
<text text-anchor="start" x="64" y="-210" font-family="Helvetica,sans-Serif" font-size="10.00"> &lt; numbers::NumberTraits</text>
<text text-anchor="middle" x="121.5" y="-199" font-family="Helvetica,sans-Serif" font-size="10.00">&lt; double &gt;::real_type &gt;</text>
</g>
<!-- Node5 -->
<g id="node5" class="node">
<title>Node5</title>
<g id="a_node5"><a xlink:href="classSubscriptor.html" target="_top" xlink:title=" ">
<polygon fill="white" stroke="black" points="143,-147.5 143,-166.5 209,-166.5 209,-147.5 143,-147.5"/>
<text text-anchor="middle" x="176" y="-154.5" font-family="Helvetica,sans-Serif" font-size="10.00">Subscriptor</text>
</a>
</g>
</g>
<!-- Node5&#45;&gt;Node2 -->
<g id="edge4" class="edge">
<title>Node5&#45;&gt;Node2</title>
<path fill="none" stroke="midnightblue" d="M168.81,-137.64C164.04,-125.45 157.87,-109.69 153.49,-98.51"/>
<polygon fill="midnightblue" stroke="midnightblue" points="165.66,-139.2 172.57,-147.23 172.18,-136.64 165.66,-139.2"/>
</g>
</g>
</svg>
