<?xml version="1.0" encoding="UTF-8" standalone="no"?>
<!DOCTYPE svg PUBLIC "-//W3C//DTD SVG 1.1//EN"
 "http://www.w3.org/Graphics/SVG/1.1/DTD/svg11.dtd">
<!-- Generated by graphviz version 2.47.1 (20210417.1919)
 -->
<!-- Title: SymmetricTensor&lt; rank_, dim, Number &gt; Pages: 1 -->
<svg width="374pt" height="117pt"
 viewBox="0.00 0.00 374.00 117.00" xmlns="http://www.w3.org/2000/svg" xmlns:xlink="http://www.w3.org/1999/xlink">
<g id="graph0" class="graph" transform="scale(1 1) rotate(0) translate(4 113)">
<title>SymmetricTensor&lt; rank_, dim, Number &gt;</title>
<polygon fill="white" stroke="transparent" points="-4,4 -4,-113 370,-113 370,4 -4,4"/>
<!-- Node1 -->
<g id="node1" class="node">
<title>Node1</title>
<g id="a_node1"><a xlink:title=" ">
<polygon fill="#bfbfbf" stroke="black" points="122.5,-78.5 122.5,-108.5 243.5,-108.5 243.5,-78.5 122.5,-78.5"/>
<text text-anchor="start" x="130.5" y="-96.5" font-family="Helvetica,sans-Serif" font-size="10.00">SymmetricTensor&lt; rank</text>
<text text-anchor="middle" x="183" y="-85.5" font-family="Helvetica,sans-Serif" font-size="10.00">_, dim, Number &gt;</text>
</a>
</g>
</g>
<!-- Node2 -->
<g id="node2" class="node">
<title>Node2</title>
<g id="a_node2"><a xlink:href="classSymmetricTensor.html" target="_top" xlink:title=" ">
<polygon fill="white" stroke="black" points="0,-0.5 0,-30.5 110,-30.5 110,-0.5 0,-0.5"/>
<text text-anchor="start" x="8" y="-18.5" font-family="Helvetica,sans-Serif" font-size="10.00">SymmetricTensor&lt; 2,</text>
<text text-anchor="middle" x="55" y="-7.5" font-family="Helvetica,sans-Serif" font-size="10.00"> dim &gt;</text>
</a>
</g>
</g>
<!-- Node1&#45;&gt;Node2 -->
<g id="edge1" class="edge">
<title>Node1&#45;&gt;Node2</title>
<path fill="none" stroke="orange" stroke-dasharray="5,2" d="M150.4,-73.14C128.02,-59.85 98.82,-42.52 78.65,-30.54"/>
<polygon fill="orange" stroke="orange" points="148.84,-76.29 159.22,-78.38 152.41,-70.27 148.84,-76.29"/>
<text text-anchor="middle" x="151.5" y="-52" font-family="Helvetica,sans-Serif" font-size="10.00"> &lt; 2, dim &gt;</text>
</g>
<!-- Node3 -->
<g id="node3" class="node">
<title>Node3</title>
<g id="a_node3"><a xlink:href="classSymmetricTensor.html" target="_top" xlink:title=" ">
<polygon fill="white" stroke="black" points="128,-0.5 128,-30.5 238,-30.5 238,-0.5 128,-0.5"/>
<text text-anchor="start" x="136" y="-18.5" font-family="Helvetica,sans-Serif" font-size="10.00">SymmetricTensor&lt; 4,</text>
<text text-anchor="middle" x="183" y="-7.5" font-family="Helvetica,sans-Serif" font-size="10.00"> dim &gt;</text>
</a>
</g>
</g>
<!-- Node1&#45;&gt;Node3 -->
<g id="edge2" class="edge">
<title>Node1&#45;&gt;Node3</title>
<path fill="none" stroke="orange" stroke-dasharray="5,2" d="M183,-68.09C183,-55.76 183,-41.22 183,-30.73"/>
<polygon fill="orange" stroke="orange" points="179.5,-68.2 183,-78.2 186.5,-68.21 179.5,-68.2"/>
<text text-anchor="middle" x="207.5" y="-52" font-family="Helvetica,sans-Serif" font-size="10.00"> &lt; 4, dim &gt;</text>
</g>
<!-- Node4 -->
<g id="node4" class="node">
<title>Node4</title>
<g id="a_node4"><a xlink:href="classSymmetricTensor.html" target="_top" xlink:title=" ">
<polygon fill="white" stroke="black" points="256,-0.5 256,-30.5 366,-30.5 366,-0.5 256,-0.5"/>
<text text-anchor="start" x="264" y="-18.5" font-family="Helvetica,sans-Serif" font-size="10.00">SymmetricTensor&lt; 2,</text>
<text text-anchor="middle" x="311" y="-7.5" font-family="Helvetica,sans-Serif" font-size="10.00"> spacedim &gt;</text>
</a>
</g>
</g>
<!-- Node1&#45;&gt;Node4 -->
<g id="edge3" class="edge">
<title>Node1&#45;&gt;Node4</title>
<path fill="none" stroke="orange" stroke-dasharray="5,2" d="M215.6,-73.14C237.98,-59.85 267.18,-42.52 287.35,-30.54"/>
<polygon fill="orange" stroke="orange" points="213.59,-70.27 206.78,-78.38 217.16,-76.29 213.59,-70.27"/>
<text text-anchor="middle" x="291.5" y="-52" font-family="Helvetica,sans-Serif" font-size="10.00"> &lt; 2, spacedim &gt;</text>
</g>
</g>
</svg>
