<?xml version="1.0" encoding="UTF-8" standalone="no"?>
<!DOCTYPE svg PUBLIC "-//W3C//DTD SVG 1.1//EN"
 "http://www.w3.org/Graphics/SVG/1.1/DTD/svg11.dtd">
<!-- Generated by graphviz version 2.47.1 (20210417.1919)
 -->
<!-- Title: SparseLUDecomposition&lt; number &gt; Pages: 1 -->
<svg width="256pt" height="207pt"
 viewBox="0.00 0.00 255.50 207.00" xmlns="http://www.w3.org/2000/svg" xmlns:xlink="http://www.w3.org/1999/xlink">
<g id="graph0" class="graph" transform="scale(1 1) rotate(0) translate(4 203)">
<title>SparseLUDecomposition&lt; number &gt;</title>
<polygon fill="white" stroke="transparent" points="-4,4 -4,-203 251.5,-203 251.5,4 -4,4"/>
<!-- Node1 -->
<g id="node1" class="node">
<title>Node1</title>
<g id="a_node1"><a xlink:title=" ">
<polygon fill="#bfbfbf" stroke="black" points="60,-56.5 60,-86.5 185,-86.5 185,-56.5 60,-56.5"/>
<text text-anchor="start" x="68" y="-74.5" font-family="Helvetica,sans-Serif" font-size="10.00">SparseLUDecomposition</text>
<text text-anchor="middle" x="122.5" y="-63.5" font-family="Helvetica,sans-Serif" font-size="10.00">&lt; number &gt;</text>
</a>
</g>
</g>
<!-- Node4 -->
<g id="node4" class="node">
<title>Node4</title>
<g id="a_node4"><a xlink:href="classSparseILU.html" target="_top" xlink:title=" ">
<polygon fill="white" stroke="black" points="0,-0.5 0,-19.5 113,-19.5 113,-0.5 0,-0.5"/>
<text text-anchor="middle" x="56.5" y="-7.5" font-family="Helvetica,sans-Serif" font-size="10.00">SparseILU&lt; number &gt;</text>
</a>
</g>
</g>
<!-- Node1&#45;&gt;Node4 -->
<g id="edge4" class="edge">
<title>Node1&#45;&gt;Node4</title>
<path fill="none" stroke="midnightblue" d="M99.31,-49.6C87.91,-39.32 74.78,-27.48 66.1,-19.66"/>
<polygon fill="midnightblue" stroke="midnightblue" points="97.09,-52.3 106.86,-56.4 101.78,-47.1 97.09,-52.3"/>
</g>
<!-- Node5 -->
<g id="node5" class="node">
<title>Node5</title>
<g id="a_node5"><a xlink:href="classSparseMIC.html" target="_top" xlink:title=" ">
<polygon fill="white" stroke="black" points="131.5,-0.5 131.5,-19.5 247.5,-19.5 247.5,-0.5 131.5,-0.5"/>
<text text-anchor="middle" x="189.5" y="-7.5" font-family="Helvetica,sans-Serif" font-size="10.00">SparseMIC&lt; number &gt;</text>
</a>
</g>
</g>
<!-- Node1&#45;&gt;Node5 -->
<g id="edge5" class="edge">
<title>Node1&#45;&gt;Node5</title>
<path fill="none" stroke="midnightblue" d="M146.04,-49.6C157.62,-39.32 170.94,-27.48 179.75,-19.66"/>
<polygon fill="midnightblue" stroke="midnightblue" points="143.53,-47.14 138.38,-56.4 148.18,-52.38 143.53,-47.14"/>
</g>
<!-- Node2 -->
<g id="node2" class="node">
<title>Node2</title>
<g id="a_node2"><a xlink:href="classSparseMatrix.html" target="_top" xlink:title=" ">
<polygon fill="white" stroke="black" points="106,-123.5 106,-142.5 231,-142.5 231,-123.5 106,-123.5"/>
<text text-anchor="middle" x="168.5" y="-130.5" font-family="Helvetica,sans-Serif" font-size="10.00">SparseMatrix&lt; number &gt;</text>
</a>
</g>
</g>
<!-- Node2&#45;&gt;Node1 -->
<g id="edge1" class="edge">
<title>Node2&#45;&gt;Node1</title>
<path fill="none" stroke="darkgreen" d="M155.77,-115.53C148.72,-106.42 140.06,-95.21 133.34,-86.52"/>
<polygon fill="darkgreen" stroke="darkgreen" points="153.02,-117.7 161.91,-123.48 158.56,-113.42 153.02,-117.7"/>
</g>
<!-- Node3 -->
<g id="node3" class="node">
<title>Node3</title>
<g id="a_node3"><a xlink:href="classSubscriptor.html" target="_top" xlink:title=" ">
<polygon fill="white" stroke="black" points="89.5,-179.5 89.5,-198.5 155.5,-198.5 155.5,-179.5 89.5,-179.5"/>
<text text-anchor="middle" x="122.5" y="-186.5" font-family="Helvetica,sans-Serif" font-size="10.00">Subscriptor</text>
</a>
</g>
</g>
<!-- Node3&#45;&gt;Node1 -->
<g id="edge3" class="edge">
<title>Node3&#45;&gt;Node1</title>
<path fill="none" stroke="midnightblue" d="M110.26,-170.83C105.25,-162.79 100.05,-152.82 97.5,-143 92.32,-123.01 103.22,-100.66 112.22,-86.59"/>
<polygon fill="midnightblue" stroke="midnightblue" points="107.42,-172.89 115.87,-179.27 113.25,-169.01 107.42,-172.89"/>
</g>
<!-- Node3&#45;&gt;Node2 -->
<g id="edge2" class="edge">
<title>Node3&#45;&gt;Node2</title>
<path fill="none" stroke="midnightblue" d="M136.61,-171.43C144.68,-161.97 154.46,-150.48 161.05,-142.75"/>
<polygon fill="midnightblue" stroke="midnightblue" points="133.92,-169.2 130.1,-179.08 139.25,-173.74 133.92,-169.2"/>
</g>
</g>
</svg>
