<?xml version="1.0" encoding="UTF-8" standalone="no"?>
<!DOCTYPE svg PUBLIC "-//W3C//DTD SVG 1.1//EN"
 "http://www.w3.org/Graphics/SVG/1.1/DTD/svg11.dtd">
<!-- Generated by graphviz version 2.47.1 (20210417.1919)
 -->
<!-- Title: Differentiation::AD::HelperBase&lt; ADNumberTypeCode, ScalarType &gt; Pages: 1 -->
<svg width="1206pt" height="244pt"
 viewBox="0.00 0.00 1206.00 244.00" xmlns="http://www.w3.org/2000/svg" xmlns:xlink="http://www.w3.org/1999/xlink">
<g id="graph0" class="graph" transform="scale(1 1) rotate(0) translate(4 240)">
<title>Differentiation::AD::HelperBase&lt; ADNumberTypeCode, ScalarType &gt;</title>
<polygon fill="white" stroke="transparent" points="-4,4 -4,-240 1202,-240 1202,4 -4,4"/>
<!-- Node1 -->
<g id="node1" class="node">
<title>Node1</title>
<g id="a_node1"><a xlink:title=" ">
<polygon fill="#bfbfbf" stroke="black" points="0,-92.5 0,-133.5 152,-133.5 152,-92.5 0,-92.5"/>
<text text-anchor="start" x="8" y="-121.5" font-family="Helvetica,sans-Serif" font-size="10.00">Differentiation::AD</text>
<text text-anchor="start" x="8" y="-110.5" font-family="Helvetica,sans-Serif" font-size="10.00">::HelperBase&lt; ADNumberType</text>
<text text-anchor="middle" x="76" y="-99.5" font-family="Helvetica,sans-Serif" font-size="10.00">Code, ScalarType &gt;</text>
</a>
</g>
</g>
<!-- Node2 -->
<g id="node2" class="node">
<title>Node2</title>
<g id="a_node2"><a xlink:href="classDifferentiation_1_1AD_1_1HelperBase.html" target="_top" xlink:title=" ">
<polygon fill="white" stroke="black" points="296,-92.5 296,-133.5 448,-133.5 448,-92.5 296,-92.5"/>
<text text-anchor="start" x="304" y="-121.5" font-family="Helvetica,sans-Serif" font-size="10.00">Differentiation::AD</text>
<text text-anchor="start" x="304" y="-110.5" font-family="Helvetica,sans-Serif" font-size="10.00">::HelperBase&lt; ADNumberType</text>
<text text-anchor="middle" x="372" y="-99.5" font-family="Helvetica,sans-Serif" font-size="10.00">Code, double &gt;</text>
</a>
</g>
</g>
<!-- Node1&#45;&gt;Node2 -->
<g id="edge1" class="edge">
<title>Node1&#45;&gt;Node2</title>
<path fill="none" stroke="orange" stroke-dasharray="5,2" d="M162.59,-113C204.77,-113 255.19,-113 295.87,-113"/>
<polygon fill="orange" stroke="orange" points="162.33,-109.5 152.33,-113 162.33,-116.5 162.33,-109.5"/>
<text text-anchor="start" x="170" y="-127" font-family="Helvetica,sans-Serif" font-size="10.00"> &lt; ADNumberTypeCode,</text>
<text text-anchor="middle" x="224" y="-116" font-family="Helvetica,sans-Serif" font-size="10.00"> double &gt;</text>
</g>
<!-- Node3 -->
<g id="node3" class="node">
<title>Node3</title>
<g id="a_node3"><a xlink:href="classDifferentiation_1_1AD_1_1CellLevelBase.html" target="_top" xlink:title=" ">
<polygon fill="white" stroke="black" points="815,-141.5 815,-182.5 979,-182.5 979,-141.5 815,-141.5"/>
<text text-anchor="start" x="823" y="-170.5" font-family="Helvetica,sans-Serif" font-size="10.00">Differentiation::AD</text>
<text text-anchor="start" x="823" y="-159.5" font-family="Helvetica,sans-Serif" font-size="10.00">::CellLevelBase&lt; ADNumberType</text>
<text text-anchor="middle" x="897" y="-148.5" font-family="Helvetica,sans-Serif" font-size="10.00">Code, double &gt;</text>
</a>
</g>
</g>
<!-- Node2&#45;&gt;Node3 -->
<g id="edge2" class="edge">
<title>Node2&#45;&gt;Node3</title>
<path fill="none" stroke="midnightblue" d="M414.12,-138.49C434.62,-149.79 460.27,-161.9 485,-168 596.72,-195.57 730.76,-186.03 814.68,-175.19"/>
<polygon fill="midnightblue" stroke="midnightblue" points="415.81,-135.42 405.38,-133.55 412.36,-141.52 415.81,-135.42"/>
</g>
<!-- Node6 -->
<g id="node6" class="node">
<title>Node6</title>
<g id="a_node6"><a xlink:href="classDifferentiation_1_1AD_1_1PointLevelFunctionsBase.html" target="_top" xlink:title=" ">
<polygon fill="white" stroke="black" points="825.5,-22 825.5,-74 968.5,-74 968.5,-22 825.5,-22"/>
<text text-anchor="start" x="833.5" y="-62" font-family="Helvetica,sans-Serif" font-size="10.00">Differentiation::AD</text>
<text text-anchor="start" x="833.5" y="-51" font-family="Helvetica,sans-Serif" font-size="10.00">::PointLevelFunctionsBase</text>
<text text-anchor="start" x="833.5" y="-40" font-family="Helvetica,sans-Serif" font-size="10.00">&lt; dim, ADNumberTypeCode,</text>
<text text-anchor="middle" x="897" y="-29" font-family="Helvetica,sans-Serif" font-size="10.00"> double &gt;</text>
</a>
</g>
</g>
<!-- Node2&#45;&gt;Node6 -->
<g id="edge5" class="edge">
<title>Node2&#45;&gt;Node6</title>
<path fill="none" stroke="midnightblue" d="M402.07,-85.63C423.26,-67.66 453.63,-45.74 485,-36 600.04,-0.27 742,-16.86 825.41,-32.32"/>
<polygon fill="midnightblue" stroke="midnightblue" points="399.67,-83.08 394.42,-92.29 404.26,-88.36 399.67,-83.08"/>
</g>
<!-- Node9 -->
<g id="node9" class="node">
<title>Node9</title>
<g id="a_node9"><a xlink:href="classDifferentiation_1_1AD_1_1CellLevelBase.html" target="_top" xlink:title=" ">
<polygon fill="white" stroke="black" points="485,-117.5 485,-158.5 649,-158.5 649,-117.5 485,-117.5"/>
<text text-anchor="start" x="493" y="-146.5" font-family="Helvetica,sans-Serif" font-size="10.00">Differentiation::AD</text>
<text text-anchor="start" x="493" y="-135.5" font-family="Helvetica,sans-Serif" font-size="10.00">::CellLevelBase&lt; ADNumberType</text>
<text text-anchor="middle" x="567" y="-124.5" font-family="Helvetica,sans-Serif" font-size="10.00">Code, ScalarType &gt;</text>
</a>
</g>
</g>
<!-- Node2&#45;&gt;Node9 -->
<g id="edge8" class="edge">
<title>Node2&#45;&gt;Node9</title>
<path fill="none" stroke="midnightblue" d="M458.16,-124.03C467.07,-125.18 476.11,-126.36 484.97,-127.5"/>
<polygon fill="midnightblue" stroke="midnightblue" points="458.54,-120.55 448.17,-122.74 457.64,-127.49 458.54,-120.55"/>
</g>
<!-- Node10 -->
<g id="node10" class="node">
<title>Node10</title>
<g id="a_node10"><a xlink:href="classDifferentiation_1_1AD_1_1PointLevelFunctionsBase.html" target="_top" xlink:title=" ">
<polygon fill="white" stroke="black" points="495.5,-46 495.5,-98 638.5,-98 638.5,-46 495.5,-46"/>
<text text-anchor="start" x="503.5" y="-86" font-family="Helvetica,sans-Serif" font-size="10.00">Differentiation::AD</text>
<text text-anchor="start" x="503.5" y="-75" font-family="Helvetica,sans-Serif" font-size="10.00">::PointLevelFunctionsBase</text>
<text text-anchor="start" x="503.5" y="-64" font-family="Helvetica,sans-Serif" font-size="10.00">&lt; dim, ADNumberTypeCode,</text>
<text text-anchor="middle" x="567" y="-53" font-family="Helvetica,sans-Serif" font-size="10.00"> ScalarType &gt;</text>
</a>
</g>
</g>
<!-- Node2&#45;&gt;Node10 -->
<g id="edge10" class="edge">
<title>Node2&#45;&gt;Node10</title>
<path fill="none" stroke="midnightblue" d="M458.1,-94.92C470.58,-92.27 483.31,-89.57 495.45,-86.99"/>
<polygon fill="midnightblue" stroke="midnightblue" points="457.23,-91.53 448.17,-97.03 458.68,-98.38 457.23,-91.53"/>
</g>
<!-- Node4 -->
<g id="node4" class="node">
<title>Node4</title>
<g id="a_node4"><a xlink:href="classDifferentiation_1_1AD_1_1EnergyFunctional.html" target="_top" xlink:title=" ">
<polygon fill="white" stroke="black" points="1019,-194.5 1019,-235.5 1195,-235.5 1195,-194.5 1019,-194.5"/>
<text text-anchor="start" x="1027" y="-223.5" font-family="Helvetica,sans-Serif" font-size="10.00">Differentiation::AD</text>
<text text-anchor="start" x="1027" y="-212.5" font-family="Helvetica,sans-Serif" font-size="10.00">::EnergyFunctional&lt;</text>
<text text-anchor="middle" x="1107" y="-201.5" font-family="Helvetica,sans-Serif" font-size="10.00"> ADNumberTypeCode, ScalarType &gt;</text>
</a>
</g>
</g>
<!-- Node3&#45;&gt;Node4 -->
<g id="edge3" class="edge">
<title>Node3&#45;&gt;Node4</title>
<path fill="none" stroke="midnightblue" d="M988.48,-185.06C1000.74,-188.18 1013.26,-191.37 1025.33,-194.44"/>
<polygon fill="midnightblue" stroke="midnightblue" points="989.27,-181.64 978.72,-182.57 987.54,-188.43 989.27,-181.64"/>
</g>
<!-- Node5 -->
<g id="node5" class="node">
<title>Node5</title>
<g id="a_node5"><a xlink:href="classDifferentiation_1_1AD_1_1ResidualLinearization.html" target="_top" xlink:title=" ">
<polygon fill="white" stroke="black" points="1016,-134.5 1016,-175.5 1198,-175.5 1198,-134.5 1016,-134.5"/>
<text text-anchor="start" x="1024" y="-163.5" font-family="Helvetica,sans-Serif" font-size="10.00">Differentiation::AD</text>
<text text-anchor="start" x="1024" y="-152.5" font-family="Helvetica,sans-Serif" font-size="10.00">::ResidualLinearization</text>
<text text-anchor="middle" x="1107" y="-141.5" font-family="Helvetica,sans-Serif" font-size="10.00">&lt; ADNumberTypeCode, ScalarType &gt;</text>
</a>
</g>
</g>
<!-- Node3&#45;&gt;Node5 -->
<g id="edge4" class="edge">
<title>Node3&#45;&gt;Node5</title>
<path fill="none" stroke="midnightblue" d="M989.02,-158.94C997.94,-158.64 1006.99,-158.33 1015.9,-158.03"/>
<polygon fill="midnightblue" stroke="midnightblue" points="988.89,-155.44 979.01,-159.27 989.13,-162.44 988.89,-155.44"/>
</g>
<!-- Node7 -->
<g id="node7" class="node">
<title>Node7</title>
<g id="a_node7"><a xlink:href="classDifferentiation_1_1AD_1_1ScalarFunction.html" target="_top" xlink:title=" ">
<polygon fill="white" stroke="black" points="1019,-60.5 1019,-101.5 1195,-101.5 1195,-60.5 1019,-60.5"/>
<text text-anchor="start" x="1027" y="-89.5" font-family="Helvetica,sans-Serif" font-size="10.00">Differentiation::AD</text>
<text text-anchor="start" x="1027" y="-78.5" font-family="Helvetica,sans-Serif" font-size="10.00">::ScalarFunction&lt; dim,</text>
<text text-anchor="middle" x="1107" y="-67.5" font-family="Helvetica,sans-Serif" font-size="10.00"> ADNumberTypeCode, ScalarType &gt;</text>
</a>
</g>
</g>
<!-- Node6&#45;&gt;Node7 -->
<g id="edge6" class="edge">
<title>Node6&#45;&gt;Node7</title>
<path fill="none" stroke="midnightblue" d="M978.67,-60.8C991.86,-62.89 1005.57,-65.07 1018.9,-67.18"/>
<polygon fill="midnightblue" stroke="midnightblue" points="979.13,-57.33 968.71,-59.22 978.04,-64.24 979.13,-57.33"/>
</g>
<!-- Node8 -->
<g id="node8" class="node">
<title>Node8</title>
<g id="a_node8"><a xlink:href="classDifferentiation_1_1AD_1_1VectorFunction.html" target="_top" xlink:title=" ">
<polygon fill="white" stroke="black" points="1019,-0.5 1019,-41.5 1195,-41.5 1195,-0.5 1019,-0.5"/>
<text text-anchor="start" x="1027" y="-29.5" font-family="Helvetica,sans-Serif" font-size="10.00">Differentiation::AD</text>
<text text-anchor="start" x="1027" y="-18.5" font-family="Helvetica,sans-Serif" font-size="10.00">::VectorFunction&lt; dim,</text>
<text text-anchor="middle" x="1107" y="-7.5" font-family="Helvetica,sans-Serif" font-size="10.00"> ADNumberTypeCode, ScalarType &gt;</text>
</a>
</g>
</g>
<!-- Node6&#45;&gt;Node8 -->
<g id="edge7" class="edge">
<title>Node6&#45;&gt;Node8</title>
<path fill="none" stroke="midnightblue" d="M978.67,-37.53C991.86,-35.82 1005.57,-34.04 1018.9,-32.31"/>
<polygon fill="midnightblue" stroke="midnightblue" points="978.18,-34.06 968.71,-38.82 979.08,-41 978.18,-34.06"/>
</g>
<!-- Node9&#45;&gt;Node3 -->
<g id="edge9" class="edge">
<title>Node9&#45;&gt;Node3</title>
<path fill="none" stroke="orange" stroke-dasharray="5,2" d="M659.35,-142.05C701.32,-144.21 751.73,-147.2 797,-151 802.86,-151.49 808.91,-152.05 814.99,-152.64"/>
<polygon fill="orange" stroke="orange" points="659.31,-138.55 649.15,-141.54 658.96,-145.54 659.31,-138.55"/>
<text text-anchor="start" x="678" y="-165" font-family="Helvetica,sans-Serif" font-size="10.00"> &lt; ADNumberTypeCode,</text>
<text text-anchor="middle" x="732" y="-154" font-family="Helvetica,sans-Serif" font-size="10.00"> double &gt;</text>
</g>
<!-- Node10&#45;&gt;Node6 -->
<g id="edge11" class="edge">
<title>Node10&#45;&gt;Node6</title>
<path fill="none" stroke="orange" stroke-dasharray="5,2" d="M649.01,-66.07C703.1,-62.11 773.55,-56.96 825.36,-53.17"/>
<polygon fill="orange" stroke="orange" points="648.49,-62.6 638.77,-66.82 649,-69.58 648.49,-62.6"/>
<text text-anchor="start" x="667" y="-79" font-family="Helvetica,sans-Serif" font-size="10.00"> &lt; dim, ADNumberTypeCode,</text>
<text text-anchor="middle" x="732" y="-68" font-family="Helvetica,sans-Serif" font-size="10.00"> double &gt;</text>
</g>
</g>
</svg>
