<?xml version="1.0" encoding="UTF-8" standalone="no"?>
<!DOCTYPE svg PUBLIC "-//W3C//DTD SVG 1.1//EN"
 "http://www.w3.org/Graphics/SVG/1.1/DTD/svg11.dtd">
<!-- Generated by graphviz version 2.47.1 (20210417.1919)
 -->
<!-- Title: Differentiation::AD::CellLevelBase&lt; ADNumberTypeCode, ScalarType &gt; Pages: 1 -->
<svg width="1184pt" height="110pt"
 viewBox="0.00 0.00 1184.00 110.00" xmlns="http://www.w3.org/2000/svg" xmlns:xlink="http://www.w3.org/1999/xlink">
<g id="graph0" class="graph" transform="scale(1 1) rotate(0) translate(4 106)">
<title>Differentiation::AD::CellLevelBase&lt; ADNumberTypeCode, ScalarType &gt;</title>
<polygon fill="white" stroke="transparent" points="-4,4 -4,-106 1180,-106 1180,4 -4,4"/>
<!-- Node1 -->
<g id="node1" class="node">
<title>Node1</title>
<g id="a_node1"><a xlink:title=" ">
<polygon fill="#bfbfbf" stroke="black" points="485,-30.5 485,-71.5 649,-71.5 649,-30.5 485,-30.5"/>
<text text-anchor="start" x="493" y="-59.5" font-family="Helvetica,sans-Serif" font-size="10.00">Differentiation::AD</text>
<text text-anchor="start" x="493" y="-48.5" font-family="Helvetica,sans-Serif" font-size="10.00">::CellLevelBase&lt; ADNumberType</text>
<text text-anchor="middle" x="567" y="-37.5" font-family="Helvetica,sans-Serif" font-size="10.00">Code, ScalarType &gt;</text>
</a>
</g>
</g>
<!-- Node4 -->
<g id="node4" class="node">
<title>Node4</title>
<g id="a_node4"><a xlink:href="classDifferentiation_1_1AD_1_1CellLevelBase.html" target="_top" xlink:title=" ">
<polygon fill="white" stroke="black" points="793,-30.5 793,-71.5 957,-71.5 957,-30.5 793,-30.5"/>
<text text-anchor="start" x="801" y="-59.5" font-family="Helvetica,sans-Serif" font-size="10.00">Differentiation::AD</text>
<text text-anchor="start" x="801" y="-48.5" font-family="Helvetica,sans-Serif" font-size="10.00">::CellLevelBase&lt; ADNumberType</text>
<text text-anchor="middle" x="875" y="-37.5" font-family="Helvetica,sans-Serif" font-size="10.00">Code, double &gt;</text>
</a>
</g>
</g>
<!-- Node1&#45;&gt;Node4 -->
<g id="edge3" class="edge">
<title>Node1&#45;&gt;Node4</title>
<path fill="none" stroke="orange" stroke-dasharray="5,2" d="M659.26,-51C701.73,-51 751.83,-51 792.95,-51"/>
<polygon fill="orange" stroke="orange" points="659.2,-47.5 649.2,-51 659.2,-54.5 659.2,-47.5"/>
<text text-anchor="start" x="667" y="-65" font-family="Helvetica,sans-Serif" font-size="10.00"> &lt; ADNumberTypeCode,</text>
<text text-anchor="middle" x="721" y="-54" font-family="Helvetica,sans-Serif" font-size="10.00"> double &gt;</text>
</g>
<!-- Node2 -->
<g id="node2" class="node">
<title>Node2</title>
<g id="a_node2"><a xlink:href="classDifferentiation_1_1AD_1_1HelperBase.html" target="_top" xlink:title=" ">
<polygon fill="white" stroke="black" points="296,-30.5 296,-71.5 448,-71.5 448,-30.5 296,-30.5"/>
<text text-anchor="start" x="304" y="-59.5" font-family="Helvetica,sans-Serif" font-size="10.00">Differentiation::AD</text>
<text text-anchor="start" x="304" y="-48.5" font-family="Helvetica,sans-Serif" font-size="10.00">::HelperBase&lt; ADNumberType</text>
<text text-anchor="middle" x="372" y="-37.5" font-family="Helvetica,sans-Serif" font-size="10.00">Code, double &gt;</text>
</a>
</g>
</g>
<!-- Node2&#45;&gt;Node1 -->
<g id="edge1" class="edge">
<title>Node2&#45;&gt;Node1</title>
<path fill="none" stroke="midnightblue" d="M458.45,-51C467.26,-51 476.2,-51 484.97,-51"/>
<polygon fill="midnightblue" stroke="midnightblue" points="458.17,-47.5 448.17,-51 458.17,-54.5 458.17,-47.5"/>
</g>
<!-- Node3 -->
<g id="node3" class="node">
<title>Node3</title>
<g id="a_node3"><a xlink:href="classDifferentiation_1_1AD_1_1HelperBase.html" target="_top" xlink:title=" ">
<polygon fill="white" stroke="black" points="0,-30.5 0,-71.5 152,-71.5 152,-30.5 0,-30.5"/>
<text text-anchor="start" x="8" y="-59.5" font-family="Helvetica,sans-Serif" font-size="10.00">Differentiation::AD</text>
<text text-anchor="start" x="8" y="-48.5" font-family="Helvetica,sans-Serif" font-size="10.00">::HelperBase&lt; ADNumberType</text>
<text text-anchor="middle" x="76" y="-37.5" font-family="Helvetica,sans-Serif" font-size="10.00">Code, ScalarType &gt;</text>
</a>
</g>
</g>
<!-- Node3&#45;&gt;Node2 -->
<g id="edge2" class="edge">
<title>Node3&#45;&gt;Node2</title>
<path fill="none" stroke="orange" stroke-dasharray="5,2" d="M162.59,-51C204.77,-51 255.19,-51 295.87,-51"/>
<polygon fill="orange" stroke="orange" points="162.33,-47.5 152.33,-51 162.33,-54.5 162.33,-47.5"/>
<text text-anchor="start" x="170" y="-65" font-family="Helvetica,sans-Serif" font-size="10.00"> &lt; ADNumberTypeCode,</text>
<text text-anchor="middle" x="224" y="-54" font-family="Helvetica,sans-Serif" font-size="10.00"> double &gt;</text>
</g>
<!-- Node5 -->
<g id="node5" class="node">
<title>Node5</title>
<g id="a_node5"><a xlink:href="classDifferentiation_1_1AD_1_1EnergyFunctional.html" target="_top" xlink:title=" ">
<polygon fill="white" stroke="black" points="997,-60.5 997,-101.5 1173,-101.5 1173,-60.5 997,-60.5"/>
<text text-anchor="start" x="1005" y="-89.5" font-family="Helvetica,sans-Serif" font-size="10.00">Differentiation::AD</text>
<text text-anchor="start" x="1005" y="-78.5" font-family="Helvetica,sans-Serif" font-size="10.00">::EnergyFunctional&lt;</text>
<text text-anchor="middle" x="1085" y="-67.5" font-family="Helvetica,sans-Serif" font-size="10.00"> ADNumberTypeCode, ScalarType &gt;</text>
</a>
</g>
</g>
<!-- Node4&#45;&gt;Node5 -->
<g id="edge4" class="edge">
<title>Node4&#45;&gt;Node5</title>
<path fill="none" stroke="midnightblue" d="M967.16,-64.15C976.96,-65.56 986.91,-67 996.67,-68.4"/>
<polygon fill="midnightblue" stroke="midnightblue" points="967.41,-60.65 957.01,-62.68 966.41,-67.58 967.41,-60.65"/>
</g>
<!-- Node6 -->
<g id="node6" class="node">
<title>Node6</title>
<g id="a_node6"><a xlink:href="classDifferentiation_1_1AD_1_1ResidualLinearization.html" target="_top" xlink:title=" ">
<polygon fill="white" stroke="black" points="994,-0.5 994,-41.5 1176,-41.5 1176,-0.5 994,-0.5"/>
<text text-anchor="start" x="1002" y="-29.5" font-family="Helvetica,sans-Serif" font-size="10.00">Differentiation::AD</text>
<text text-anchor="start" x="1002" y="-18.5" font-family="Helvetica,sans-Serif" font-size="10.00">::ResidualLinearization</text>
<text text-anchor="middle" x="1085" y="-7.5" font-family="Helvetica,sans-Serif" font-size="10.00">&lt; ADNumberTypeCode, ScalarType &gt;</text>
</a>
</g>
</g>
<!-- Node4&#45;&gt;Node6 -->
<g id="edge5" class="edge">
<title>Node4&#45;&gt;Node6</title>
<path fill="none" stroke="midnightblue" d="M967.02,-37.87C975.94,-36.59 984.99,-35.28 993.9,-34"/>
<polygon fill="midnightblue" stroke="midnightblue" points="966.41,-34.42 957.01,-39.32 967.41,-41.35 966.41,-34.42"/>
</g>
</g>
</svg>
