<?xml version="1.0" encoding="UTF-8" standalone="no"?>
<!DOCTYPE svg PUBLIC "-//W3C//DTD SVG 1.1//EN"
 "http://www.w3.org/Graphics/SVG/1.1/DTD/svg11.dtd">
<!-- Generated by graphviz version 2.47.1 (20210417.1919)
 -->
<!-- Title: FunctionParser&lt; dim &gt; Pages: 1 -->
<svg width="230pt" height="321pt"
 viewBox="0.00 0.00 230.00 321.00" xmlns="http://www.w3.org/2000/svg" xmlns:xlink="http://www.w3.org/1999/xlink">
<g id="graph0" class="graph" transform="scale(1 1) rotate(0) translate(4 317)">
<title>FunctionParser&lt; dim &gt;</title>
<polygon fill="white" stroke="transparent" points="-4,4 -4,-317 226,-317 226,4 -4,4"/>
<!-- Node1 -->
<g id="node1" class="node">
<title>Node1</title>
<g id="a_node1"><a xlink:title=" ">
<polygon fill="#bfbfbf" stroke="black" points="90,-0.5 90,-19.5 206,-19.5 206,-0.5 90,-0.5"/>
<text text-anchor="middle" x="148" y="-7.5" font-family="Helvetica,sans-Serif" font-size="10.00">FunctionParser&lt; dim &gt;</text>
</a>
</g>
</g>
<!-- Node2 -->
<g id="node2" class="node">
<title>Node2</title>
<g id="a_node2"><a xlink:href="classAutoDerivativeFunction.html" target="_top" xlink:title=" ">
<polygon fill="white" stroke="black" points="88.5,-57.5 88.5,-87.5 207.5,-87.5 207.5,-57.5 88.5,-57.5"/>
<text text-anchor="start" x="96.5" y="-75.5" font-family="Helvetica,sans-Serif" font-size="10.00">AutoDerivativeFunction</text>
<text text-anchor="middle" x="148" y="-64.5" font-family="Helvetica,sans-Serif" font-size="10.00">&lt; dim &gt;</text>
</a>
</g>
</g>
<!-- Node2&#45;&gt;Node1 -->
<g id="edge1" class="edge">
<title>Node2&#45;&gt;Node1</title>
<path fill="none" stroke="midnightblue" d="M148,-47.35C148,-37.51 148,-26.78 148,-19.54"/>
<polygon fill="midnightblue" stroke="midnightblue" points="144.5,-47.47 148,-57.47 151.5,-47.47 144.5,-47.47"/>
</g>
<!-- Node3 -->
<g id="node3" class="node">
<title>Node3</title>
<g id="a_node3"><a xlink:href="classFunction.html" target="_top" xlink:title=" ">
<polygon fill="white" stroke="black" points="74,-125.5 74,-155.5 222,-155.5 222,-125.5 74,-125.5"/>
<text text-anchor="start" x="82" y="-143.5" font-family="Helvetica,sans-Serif" font-size="10.00">Function&lt; dim, RangeNumber</text>
<text text-anchor="middle" x="148" y="-132.5" font-family="Helvetica,sans-Serif" font-size="10.00">Type &gt;</text>
</a>
</g>
</g>
<!-- Node3&#45;&gt;Node2 -->
<g id="edge2" class="edge">
<title>Node3&#45;&gt;Node2</title>
<path fill="none" stroke="midnightblue" d="M148,-115.03C148,-105.86 148,-95.74 148,-87.79"/>
<polygon fill="midnightblue" stroke="midnightblue" points="144.5,-115.18 148,-125.18 151.5,-115.18 144.5,-115.18"/>
</g>
<!-- Node4 -->
<g id="node4" class="node">
<title>Node4</title>
<g id="a_node4"><a xlink:href="classFunctionTime.html" target="_top" xlink:title=" ">
<polygon fill="white" stroke="black" points="3,-193.5 3,-234.5 125,-234.5 125,-193.5 3,-193.5"/>
<text text-anchor="start" x="11" y="-222.5" font-family="Helvetica,sans-Serif" font-size="10.00">FunctionTime&lt; numbers</text>
<text text-anchor="start" x="11" y="-211.5" font-family="Helvetica,sans-Serif" font-size="10.00">::NumberTraits&lt; double</text>
<text text-anchor="middle" x="64" y="-200.5" font-family="Helvetica,sans-Serif" font-size="10.00"> &gt;::real_type &gt;</text>
</a>
</g>
</g>
<!-- Node4&#45;&gt;Node3 -->
<g id="edge3" class="edge">
<title>Node4&#45;&gt;Node3</title>
<path fill="none" stroke="midnightblue" d="M94.85,-186.74C107.24,-176.19 121.04,-164.45 131.47,-155.57"/>
<polygon fill="midnightblue" stroke="midnightblue" points="92.3,-184.32 86.95,-193.46 96.84,-189.65 92.3,-184.32"/>
</g>
<!-- Node5 -->
<g id="node5" class="node">
<title>Node5</title>
<g id="a_node5"><a xlink:href="classFunctionTime.html" target="_top" xlink:title=" ">
<polygon fill="white" stroke="black" points="0,-293.5 0,-312.5 128,-312.5 128,-293.5 0,-293.5"/>
<text text-anchor="middle" x="64" y="-300.5" font-family="Helvetica,sans-Serif" font-size="10.00">FunctionTime&lt; Number &gt;</text>
</a>
</g>
</g>
<!-- Node5&#45;&gt;Node4 -->
<g id="edge4" class="edge">
<title>Node5&#45;&gt;Node4</title>
<path fill="none" stroke="orange" stroke-dasharray="5,2" d="M64,-283.2C64,-268.88 64,-249.21 64,-234.68"/>
<polygon fill="orange" stroke="orange" points="60.5,-283.34 64,-293.34 67.5,-283.34 60.5,-283.34"/>
<text text-anchor="start" x="64" y="-267" font-family="Helvetica,sans-Serif" font-size="10.00"> &lt; numbers::NumberTraits</text>
<text text-anchor="middle" x="121.5" y="-256" font-family="Helvetica,sans-Serif" font-size="10.00">&lt; double &gt;::real_type &gt;</text>
</g>
<!-- Node6 -->
<g id="node6" class="node">
<title>Node6</title>
<g id="a_node6"><a xlink:href="classSubscriptor.html" target="_top" xlink:title=" ">
<polygon fill="white" stroke="black" points="143,-204.5 143,-223.5 209,-223.5 209,-204.5 143,-204.5"/>
<text text-anchor="middle" x="176" y="-211.5" font-family="Helvetica,sans-Serif" font-size="10.00">Subscriptor</text>
</a>
</g>
</g>
<!-- Node6&#45;&gt;Node3 -->
<g id="edge5" class="edge">
<title>Node6&#45;&gt;Node3</title>
<path fill="none" stroke="midnightblue" d="M168.81,-194.64C164.04,-182.45 157.87,-166.69 153.49,-155.51"/>
<polygon fill="midnightblue" stroke="midnightblue" points="165.66,-196.2 172.57,-204.23 172.18,-193.64 165.66,-196.2"/>
</g>
</g>
</svg>
