<?xml version="1.0" encoding="UTF-8" standalone="no"?>
<!DOCTYPE svg PUBLIC "-//W3C//DTD SVG 1.1//EN"
 "http://www.w3.org/Graphics/SVG/1.1/DTD/svg11.dtd">
<!-- Generated by graphviz version 2.47.1 (20210417.1919)
 -->
<!-- Title: AutoDerivativeFunction&lt; dim &gt; Pages: 1 -->
<svg width="392pt" height="332pt"
 viewBox="0.00 0.00 392.00 332.00" xmlns="http://www.w3.org/2000/svg" xmlns:xlink="http://www.w3.org/1999/xlink">
<g id="graph0" class="graph" transform="scale(1 1) rotate(0) translate(4 328)">
<title>AutoDerivativeFunction&lt; dim &gt;</title>
<polygon fill="white" stroke="transparent" points="-4,4 -4,-328 388,-328 388,4 -4,4"/>
<!-- Node1 -->
<g id="node1" class="node">
<title>Node1</title>
<g id="a_node1"><a xlink:title=" ">
<polygon fill="#bfbfbf" stroke="black" points="114.5,-68.5 114.5,-98.5 233.5,-98.5 233.5,-68.5 114.5,-68.5"/>
<text text-anchor="start" x="122.5" y="-86.5" font-family="Helvetica,sans-Serif" font-size="10.00">AutoDerivativeFunction</text>
<text text-anchor="middle" x="174" y="-75.5" font-family="Helvetica,sans-Serif" font-size="10.00">&lt; dim &gt;</text>
</a>
</g>
</g>
<!-- Node6 -->
<g id="node6" class="node">
<title>Node6</title>
<g id="a_node6"><a xlink:href="classFunctionDerivative.html" target="_top" xlink:title=" ">
<polygon fill="white" stroke="black" points="0,-0.5 0,-30.5 98,-30.5 98,-0.5 0,-0.5"/>
<text text-anchor="start" x="8" y="-18.5" font-family="Helvetica,sans-Serif" font-size="10.00">FunctionDerivative</text>
<text text-anchor="middle" x="49" y="-7.5" font-family="Helvetica,sans-Serif" font-size="10.00">&lt; dim &gt;</text>
</a>
</g>
</g>
<!-- Node1&#45;&gt;Node6 -->
<g id="edge5" class="edge">
<title>Node1&#45;&gt;Node6</title>
<path fill="none" stroke="midnightblue" d="M138.12,-63.55C118.25,-53.06 93.97,-40.24 75.77,-30.64"/>
<polygon fill="midnightblue" stroke="midnightblue" points="136.71,-66.77 147.18,-68.34 139.98,-60.58 136.71,-66.77"/>
</g>
<!-- Node7 -->
<g id="node7" class="node">
<title>Node7</title>
<g id="a_node7"><a xlink:href="classFunctionParser.html" target="_top" xlink:title=" ">
<polygon fill="white" stroke="black" points="116,-6 116,-25 232,-25 232,-6 116,-6"/>
<text text-anchor="middle" x="174" y="-13" font-family="Helvetica,sans-Serif" font-size="10.00">FunctionParser&lt; dim &gt;</text>
</a>
</g>
</g>
<!-- Node1&#45;&gt;Node7 -->
<g id="edge6" class="edge">
<title>Node1&#45;&gt;Node7</title>
<path fill="none" stroke="midnightblue" d="M174,-57.88C174,-46.47 174,-33.64 174,-25.33"/>
<polygon fill="midnightblue" stroke="midnightblue" points="170.5,-58.18 174,-68.18 177.5,-58.18 170.5,-58.18"/>
</g>
<!-- Node8 -->
<g id="node8" class="node">
<title>Node8</title>
<g id="a_node8"><a xlink:href="classFunctions_1_1ParsedFunction.html" target="_top" xlink:title=" ">
<polygon fill="white" stroke="black" points="250,-0.5 250,-30.5 384,-30.5 384,-0.5 250,-0.5"/>
<text text-anchor="start" x="258" y="-18.5" font-family="Helvetica,sans-Serif" font-size="10.00">Functions::ParsedFunction</text>
<text text-anchor="middle" x="317" y="-7.5" font-family="Helvetica,sans-Serif" font-size="10.00">&lt; dim &gt;</text>
</a>
</g>
</g>
<!-- Node1&#45;&gt;Node8 -->
<g id="edge7" class="edge">
<title>Node1&#45;&gt;Node8</title>
<path fill="none" stroke="midnightblue" d="M213.82,-64.12C236.77,-53.53 265.18,-40.42 286.37,-30.64"/>
<polygon fill="midnightblue" stroke="midnightblue" points="212.29,-60.97 204.68,-68.34 215.22,-67.33 212.29,-60.97"/>
</g>
<!-- Node2 -->
<g id="node2" class="node">
<title>Node2</title>
<g id="a_node2"><a xlink:href="classFunction.html" target="_top" xlink:title=" ">
<polygon fill="white" stroke="black" points="100,-136.5 100,-166.5 248,-166.5 248,-136.5 100,-136.5"/>
<text text-anchor="start" x="108" y="-154.5" font-family="Helvetica,sans-Serif" font-size="10.00">Function&lt; dim, RangeNumber</text>
<text text-anchor="middle" x="174" y="-143.5" font-family="Helvetica,sans-Serif" font-size="10.00">Type &gt;</text>
</a>
</g>
</g>
<!-- Node2&#45;&gt;Node1 -->
<g id="edge1" class="edge">
<title>Node2&#45;&gt;Node1</title>
<path fill="none" stroke="midnightblue" d="M174,-126.03C174,-116.86 174,-106.74 174,-98.79"/>
<polygon fill="midnightblue" stroke="midnightblue" points="170.5,-126.18 174,-136.18 177.5,-126.18 170.5,-126.18"/>
</g>
<!-- Node3 -->
<g id="node3" class="node">
<title>Node3</title>
<g id="a_node3"><a xlink:href="classFunctionTime.html" target="_top" xlink:title=" ">
<polygon fill="white" stroke="black" points="29,-204.5 29,-245.5 151,-245.5 151,-204.5 29,-204.5"/>
<text text-anchor="start" x="37" y="-233.5" font-family="Helvetica,sans-Serif" font-size="10.00">FunctionTime&lt; numbers</text>
<text text-anchor="start" x="37" y="-222.5" font-family="Helvetica,sans-Serif" font-size="10.00">::NumberTraits&lt; double</text>
<text text-anchor="middle" x="90" y="-211.5" font-family="Helvetica,sans-Serif" font-size="10.00"> &gt;::real_type &gt;</text>
</a>
</g>
</g>
<!-- Node3&#45;&gt;Node2 -->
<g id="edge2" class="edge">
<title>Node3&#45;&gt;Node2</title>
<path fill="none" stroke="midnightblue" d="M120.85,-197.74C133.24,-187.19 147.04,-175.45 157.47,-166.57"/>
<polygon fill="midnightblue" stroke="midnightblue" points="118.3,-195.32 112.95,-204.46 122.84,-200.65 118.3,-195.32"/>
</g>
<!-- Node4 -->
<g id="node4" class="node">
<title>Node4</title>
<g id="a_node4"><a xlink:href="classFunctionTime.html" target="_top" xlink:title=" ">
<polygon fill="white" stroke="black" points="26,-304.5 26,-323.5 154,-323.5 154,-304.5 26,-304.5"/>
<text text-anchor="middle" x="90" y="-311.5" font-family="Helvetica,sans-Serif" font-size="10.00">FunctionTime&lt; Number &gt;</text>
</a>
</g>
</g>
<!-- Node4&#45;&gt;Node3 -->
<g id="edge3" class="edge">
<title>Node4&#45;&gt;Node3</title>
<path fill="none" stroke="orange" stroke-dasharray="5,2" d="M90,-294.2C90,-279.88 90,-260.21 90,-245.68"/>
<polygon fill="orange" stroke="orange" points="86.5,-294.34 90,-304.34 93.5,-294.34 86.5,-294.34"/>
<text text-anchor="start" x="90" y="-278" font-family="Helvetica,sans-Serif" font-size="10.00"> &lt; numbers::NumberTraits</text>
<text text-anchor="middle" x="147.5" y="-267" font-family="Helvetica,sans-Serif" font-size="10.00">&lt; double &gt;::real_type &gt;</text>
</g>
<!-- Node5 -->
<g id="node5" class="node">
<title>Node5</title>
<g id="a_node5"><a xlink:href="classSubscriptor.html" target="_top" xlink:title=" ">
<polygon fill="white" stroke="black" points="169,-215.5 169,-234.5 235,-234.5 235,-215.5 169,-215.5"/>
<text text-anchor="middle" x="202" y="-222.5" font-family="Helvetica,sans-Serif" font-size="10.00">Subscriptor</text>
</a>
</g>
</g>
<!-- Node5&#45;&gt;Node2 -->
<g id="edge4" class="edge">
<title>Node5&#45;&gt;Node2</title>
<path fill="none" stroke="midnightblue" d="M194.81,-205.64C190.04,-193.45 183.87,-177.69 179.49,-166.51"/>
<polygon fill="midnightblue" stroke="midnightblue" points="191.66,-207.2 198.57,-215.23 198.18,-204.64 191.66,-207.2"/>
</g>
</g>
</svg>
