<?xml version="1.0" encoding="UTF-8" standalone="no"?>
<!DOCTYPE svg PUBLIC "-//W3C//DTD SVG 1.1//EN"
 "http://www.w3.org/Graphics/SVG/1.1/DTD/svg11.dtd">
<!-- Generated by graphviz version 2.47.1 (20210417.1919)
 -->
<!-- Title: OpenCASCADE::NormalProjectionManifold&lt; dim, spacedim &gt; Pages: 1 -->
<svg width="245pt" height="221pt"
 viewBox="0.00 0.00 245.00 221.00" xmlns="http://www.w3.org/2000/svg" xmlns:xlink="http://www.w3.org/1999/xlink">
<g id="graph0" class="graph" transform="scale(1 1) rotate(0) translate(4 217)">
<title>OpenCASCADE::NormalProjectionManifold&lt; dim, spacedim &gt;</title>
<polygon fill="white" stroke="transparent" points="-4,4 -4,-217 241,-217 241,4 -4,4"/>
<!-- Node1 -->
<g id="node1" class="node">
<title>Node1</title>
<g id="a_node1"><a xlink:title=" ">
<polygon fill="#bfbfbf" stroke="black" points="0,-0.5 0,-30.5 170,-30.5 170,-0.5 0,-0.5"/>
<text text-anchor="start" x="8" y="-18.5" font-family="Helvetica,sans-Serif" font-size="10.00">OpenCASCADE::NormalProjection</text>
<text text-anchor="middle" x="85" y="-7.5" font-family="Helvetica,sans-Serif" font-size="10.00">Manifold&lt; dim, spacedim &gt;</text>
</a>
</g>
</g>
<!-- Node2 -->
<g id="node2" class="node">
<title>Node2</title>
<g id="a_node2"><a xlink:href="classFlatManifold.html" target="_top" xlink:title=" ">
<polygon fill="white" stroke="black" points="36,-68.5 36,-98.5 134,-98.5 134,-68.5 36,-68.5"/>
<text text-anchor="start" x="44" y="-86.5" font-family="Helvetica,sans-Serif" font-size="10.00">FlatManifold&lt; dim,</text>
<text text-anchor="middle" x="85" y="-75.5" font-family="Helvetica,sans-Serif" font-size="10.00"> spacedim &gt;</text>
</a>
</g>
</g>
<!-- Node2&#45;&gt;Node1 -->
<g id="edge1" class="edge">
<title>Node2&#45;&gt;Node1</title>
<path fill="none" stroke="midnightblue" d="M85,-58.03C85,-48.86 85,-38.74 85,-30.79"/>
<polygon fill="midnightblue" stroke="midnightblue" points="81.5,-58.18 85,-68.18 88.5,-58.18 81.5,-58.18"/>
</g>
<!-- Node2&#45;&gt;Node2 -->
<g id="edge4" class="edge">
<title>Node2&#45;&gt;Node2</title>
<path fill="none" stroke="orange" stroke-dasharray="5,2" d="M144.32,-88.36C149.06,-87.3 152,-85.68 152,-83.5 152,-80.01 144.49,-77.96 134.08,-77.33"/>
<polygon fill="orange" stroke="orange" points="143.56,-84.93 134.08,-89.67 144.44,-91.87 143.56,-84.93"/>
<text text-anchor="middle" x="194.5" y="-81" font-family="Helvetica,sans-Serif" font-size="10.00"> &lt; dim, spacedim &gt;</text>
</g>
<!-- Node3 -->
<g id="node3" class="node">
<title>Node3</title>
<g id="a_node3"><a xlink:href="classManifold.html" target="_top" xlink:title=" ">
<polygon fill="white" stroke="black" points="17.5,-136.5 17.5,-155.5 152.5,-155.5 152.5,-136.5 17.5,-136.5"/>
<text text-anchor="middle" x="85" y="-143.5" font-family="Helvetica,sans-Serif" font-size="10.00">Manifold&lt; dim, spacedim &gt;</text>
</a>
</g>
</g>
<!-- Node3&#45;&gt;Node2 -->
<g id="edge2" class="edge">
<title>Node3&#45;&gt;Node2</title>
<path fill="none" stroke="midnightblue" d="M85,-126.22C85,-117.36 85,-106.96 85,-98.76"/>
<polygon fill="midnightblue" stroke="midnightblue" points="81.5,-126.33 85,-136.33 88.5,-126.33 81.5,-126.33"/>
</g>
<!-- Node4 -->
<g id="node4" class="node">
<title>Node4</title>
<g id="a_node4"><a xlink:href="classSubscriptor.html" target="_top" xlink:title=" ">
<polygon fill="white" stroke="black" points="52,-193.5 52,-212.5 118,-212.5 118,-193.5 52,-193.5"/>
<text text-anchor="middle" x="85" y="-200.5" font-family="Helvetica,sans-Serif" font-size="10.00">Subscriptor</text>
</a>
</g>
</g>
<!-- Node4&#45;&gt;Node3 -->
<g id="edge3" class="edge">
<title>Node4&#45;&gt;Node3</title>
<path fill="none" stroke="midnightblue" d="M85,-183.12C85,-173.82 85,-163.06 85,-155.71"/>
<polygon fill="midnightblue" stroke="midnightblue" points="81.5,-183.41 85,-193.41 88.5,-183.41 81.5,-183.41"/>
</g>
</g>
</svg>
