<?xml version="1.0" encoding="UTF-8" standalone="no"?>
<!DOCTYPE svg PUBLIC "-//W3C//DTD SVG 1.1//EN"
 "http://www.w3.org/Graphics/SVG/1.1/DTD/svg11.dtd">
<!-- Generated by graphviz version 2.47.1 (20210417.1919)
 -->
<!-- Title: FE_DGNedelec&lt; dim, spacedim &gt; Pages: 1 -->
<svg width="312pt" height="478pt"
 viewBox="0.00 0.00 311.50 478.00" xmlns="http://www.w3.org/2000/svg" xmlns:xlink="http://www.w3.org/1999/xlink">
<g id="graph0" class="graph" transform="scale(1 1) rotate(0) translate(4 474)">
<title>FE_DGNedelec&lt; dim, spacedim &gt;</title>
<polygon fill="white" stroke="transparent" points="-4,4 -4,-474 307.5,-474 307.5,4 -4,4"/>
<!-- Node1 -->
<g id="node1" class="node">
<title>Node1</title>
<g id="a_node1"><a xlink:title=" ">
<polygon fill="#bfbfbf" stroke="black" points="15,-0.5 15,-30.5 128,-30.5 128,-0.5 15,-0.5"/>
<text text-anchor="start" x="23" y="-18.5" font-family="Helvetica,sans-Serif" font-size="10.00">FE_DGNedelec&lt; dim,</text>
<text text-anchor="middle" x="71.5" y="-7.5" font-family="Helvetica,sans-Serif" font-size="10.00"> spacedim &gt;</text>
</a>
</g>
</g>
<!-- Node2 -->
<g id="node2" class="node">
<title>Node2</title>
<g id="a_node2"><a xlink:href="classFE__DGVector.html" target="_top" xlink:title=" ">
<polygon fill="white" stroke="black" points="1.5,-68.5 1.5,-98.5 141.5,-98.5 141.5,-68.5 1.5,-68.5"/>
<text text-anchor="start" x="9.5" y="-86.5" font-family="Helvetica,sans-Serif" font-size="10.00">FE_DGVector&lt; Polynomials</text>
<text text-anchor="middle" x="71.5" y="-75.5" font-family="Helvetica,sans-Serif" font-size="10.00">Nedelec&lt; dim &gt;, dim, dim &gt;</text>
</a>
</g>
</g>
<!-- Node2&#45;&gt;Node1 -->
<g id="edge1" class="edge">
<title>Node2&#45;&gt;Node1</title>
<path fill="none" stroke="midnightblue" d="M71.5,-58.03C71.5,-48.86 71.5,-38.74 71.5,-30.79"/>
<polygon fill="midnightblue" stroke="midnightblue" points="68,-58.18 71.5,-68.18 75,-58.18 68,-58.18"/>
</g>
<!-- Node3 -->
<g id="node3" class="node">
<title>Node3</title>
<g id="a_node3"><a xlink:href="classFE__PolyTensor.html" target="_top" xlink:title=" ">
<polygon fill="white" stroke="black" points="0,-303.5 0,-333.5 111,-333.5 111,-303.5 0,-303.5"/>
<text text-anchor="start" x="8" y="-321.5" font-family="Helvetica,sans-Serif" font-size="10.00">FE_PolyTensor&lt; dim,</text>
<text text-anchor="middle" x="55.5" y="-310.5" font-family="Helvetica,sans-Serif" font-size="10.00"> spacedim &gt;</text>
</a>
</g>
</g>
<!-- Node3&#45;&gt;Node2 -->
<g id="edge2" class="edge">
<title>Node3&#45;&gt;Node2</title>
<path fill="none" stroke="midnightblue" d="M57.18,-293.04C60.52,-244.43 67.89,-137 70.54,-98.54"/>
<polygon fill="midnightblue" stroke="midnightblue" points="53.67,-293.06 56.48,-303.28 60.65,-293.54 53.67,-293.06"/>
</g>
<!-- Node3&#45;&gt;Node3 -->
<g id="edge7" class="edge">
<title>Node3&#45;&gt;Node3</title>
<path fill="none" stroke="orange" stroke-dasharray="5,2" d="M121.45,-323.17C126.14,-322.11 129,-320.55 129,-318.5 129,-315.21 121.67,-313.2 111.27,-312.45"/>
<polygon fill="orange" stroke="orange" points="120.71,-319.74 111.27,-324.55 121.65,-326.68 120.71,-319.74"/>
<text text-anchor="middle" x="171.5" y="-316" font-family="Helvetica,sans-Serif" font-size="10.00"> &lt; dim, spacedim &gt;</text>
</g>
<!-- Node8 -->
<g id="node8" class="node">
<title>Node8</title>
<g id="a_node8"><a xlink:href="classFE__PolyTensor.html" target="_top" xlink:title=" ">
<polygon fill="white" stroke="black" points="108,-225.5 108,-255.5 219,-255.5 219,-225.5 108,-225.5"/>
<text text-anchor="start" x="116" y="-243.5" font-family="Helvetica,sans-Serif" font-size="10.00">FE_PolyTensor&lt; dim,</text>
<text text-anchor="middle" x="163.5" y="-232.5" font-family="Helvetica,sans-Serif" font-size="10.00"> dim &gt;</text>
</a>
</g>
</g>
<!-- Node3&#45;&gt;Node8 -->
<g id="edge11" class="edge">
<title>Node3&#45;&gt;Node8</title>
<path fill="none" stroke="orange" stroke-dasharray="5,2" d="M83.76,-297.61C102.55,-284.39 126.76,-267.36 143.55,-255.54"/>
<polygon fill="orange" stroke="orange" points="81.72,-294.77 75.56,-303.38 85.75,-300.49 81.72,-294.77"/>
<text text-anchor="middle" x="146" y="-277" font-family="Helvetica,sans-Serif" font-size="10.00"> &lt; dim, dim &gt;</text>
</g>
<!-- Node4 -->
<g id="node4" class="node">
<title>Node4</title>
<g id="a_node4"><a xlink:href="classFiniteElement.html" target="_top" xlink:title=" ">
<polygon fill="white" stroke="black" points="96.5,-371.5 96.5,-401.5 200.5,-401.5 200.5,-371.5 96.5,-371.5"/>
<text text-anchor="start" x="104.5" y="-389.5" font-family="Helvetica,sans-Serif" font-size="10.00">FiniteElement&lt; dim,</text>
<text text-anchor="middle" x="148.5" y="-378.5" font-family="Helvetica,sans-Serif" font-size="10.00"> spacedim &gt;</text>
</a>
</g>
</g>
<!-- Node4&#45;&gt;Node3 -->
<g id="edge3" class="edge">
<title>Node4&#45;&gt;Node3</title>
<path fill="none" stroke="midnightblue" d="M120.16,-365.39C105.66,-355.1 88.37,-342.83 75.32,-333.57"/>
<polygon fill="midnightblue" stroke="midnightblue" points="118.14,-368.25 128.32,-371.18 122.19,-362.54 118.14,-368.25"/>
</g>
<!-- Node4&#45;&gt;Node4 -->
<g id="edge6" class="edge">
<title>Node4&#45;&gt;Node4</title>
<path fill="none" stroke="orange" stroke-dasharray="5,2" d="M210.9,-391.27C215.61,-390.21 218.5,-388.62 218.5,-386.5 218.5,-383.11 211.09,-381.08 200.7,-380.39"/>
<polygon fill="orange" stroke="orange" points="210.16,-387.84 200.7,-392.61 211.07,-394.78 210.16,-387.84"/>
<text text-anchor="middle" x="261" y="-384" font-family="Helvetica,sans-Serif" font-size="10.00"> &lt; dim, spacedim &gt;</text>
</g>
<!-- Node4&#45;&gt;Node8 -->
<g id="edge10" class="edge">
<title>Node4&#45;&gt;Node8</title>
<path fill="none" stroke="midnightblue" d="M191.22,-366.19C203.95,-358.17 216.39,-347.51 223.5,-334 238.75,-305.04 206.85,-273.49 183.99,-255.74"/>
<polygon fill="midnightblue" stroke="midnightblue" points="189.29,-363.26 182.43,-371.33 192.83,-369.31 189.29,-363.26"/>
</g>
<!-- Node5 -->
<g id="node5" class="node">
<title>Node5</title>
<g id="a_node5"><a xlink:href="classSubscriptor.html" target="_top" xlink:title=" ">
<polygon fill="white" stroke="black" points="64.5,-445 64.5,-464 130.5,-464 130.5,-445 64.5,-445"/>
<text text-anchor="middle" x="97.5" y="-452" font-family="Helvetica,sans-Serif" font-size="10.00">Subscriptor</text>
</a>
</g>
</g>
<!-- Node5&#45;&gt;Node4 -->
<g id="edge4" class="edge">
<title>Node5&#45;&gt;Node4</title>
<path fill="none" stroke="midnightblue" d="M110.52,-436.65C118.88,-425.83 129.62,-411.94 137.54,-401.68"/>
<polygon fill="midnightblue" stroke="midnightblue" points="107.51,-434.82 104.17,-444.87 113.05,-439.1 107.51,-434.82"/>
</g>
<!-- Node6 -->
<g id="node6" class="node">
<title>Node6</title>
<g id="a_node6"><a xlink:href="classFiniteElementData.html" target="_top" xlink:title=" ">
<polygon fill="white" stroke="black" points="148.5,-439.5 148.5,-469.5 252.5,-469.5 252.5,-439.5 148.5,-439.5"/>
<text text-anchor="start" x="156.5" y="-457.5" font-family="Helvetica,sans-Serif" font-size="10.00">FiniteElementData&lt;</text>
<text text-anchor="middle" x="200.5" y="-446.5" font-family="Helvetica,sans-Serif" font-size="10.00"> dim &gt;</text>
</a>
</g>
</g>
<!-- Node6&#45;&gt;Node4 -->
<g id="edge5" class="edge">
<title>Node6&#45;&gt;Node4</title>
<path fill="none" stroke="midnightblue" d="M182.86,-431.11C175.22,-421.41 166.5,-410.35 159.76,-401.79"/>
<polygon fill="midnightblue" stroke="midnightblue" points="180.28,-433.49 189.22,-439.18 185.78,-429.16 180.28,-433.49"/>
</g>
<!-- Node7 -->
<g id="node7" class="node">
<title>Node7</title>
<g id="a_node7"><a xlink:href="classFE__DGVector.html" target="_top" xlink:title=" ">
<polygon fill="white" stroke="black" points="84,-157.5 84,-187.5 243,-187.5 243,-157.5 84,-157.5"/>
<text text-anchor="start" x="92" y="-175.5" font-family="Helvetica,sans-Serif" font-size="10.00">FE_DGVector&lt; PolynomialType,</text>
<text text-anchor="middle" x="163.5" y="-164.5" font-family="Helvetica,sans-Serif" font-size="10.00"> dim, spacedim &gt;</text>
</a>
</g>
</g>
<!-- Node7&#45;&gt;Node2 -->
<g id="edge8" class="edge">
<title>Node7&#45;&gt;Node2</title>
<path fill="none" stroke="orange" stroke-dasharray="5,2" d="M140.97,-150.19C123.99,-134.13 101.18,-112.57 86.41,-98.6"/>
<polygon fill="orange" stroke="orange" points="138.64,-152.81 148.31,-157.13 143.45,-147.72 138.64,-152.81"/>
<text text-anchor="start" x="128.5" y="-131" font-family="Helvetica,sans-Serif" font-size="10.00"> &lt; PolynomialsNedelec</text>
<text text-anchor="middle" x="179.5" y="-120" font-family="Helvetica,sans-Serif" font-size="10.00">&lt; dim &gt;, dim, dim &gt;</text>
</g>
<!-- Node8&#45;&gt;Node7 -->
<g id="edge9" class="edge">
<title>Node8&#45;&gt;Node7</title>
<path fill="none" stroke="midnightblue" d="M163.5,-215.03C163.5,-205.86 163.5,-195.74 163.5,-187.79"/>
<polygon fill="midnightblue" stroke="midnightblue" points="160,-215.18 163.5,-225.18 167,-215.18 160,-215.18"/>
</g>
</g>
</svg>
