<?xml version="1.0" encoding="UTF-8" standalone="no"?>
<!DOCTYPE svg PUBLIC "-//W3C//DTD SVG 1.1//EN"
 "http://www.w3.org/Graphics/SVG/1.1/DTD/svg11.dtd">
<!-- Generated by graphviz version 2.47.1 (20210417.1919)
 -->
<!-- Title: FEValuesBase&lt; dim, spacedim &gt; Pages: 1 -->
<svg width="1203pt" height="139pt"
 viewBox="0.00 0.00 1203.00 139.16" xmlns="http://www.w3.org/2000/svg" xmlns:xlink="http://www.w3.org/1999/xlink">
<g id="graph0" class="graph" transform="scale(1 1) rotate(0) translate(4 135.16)">
<title>FEValuesBase&lt; dim, spacedim &gt;</title>
<polygon fill="white" stroke="transparent" points="-4,4 -4,-135.16 1199,-135.16 1199,4 -4,4"/>
<!-- Node1 -->
<g id="node1" class="node">
<title>Node1</title>
<g id="a_node1"><a xlink:title=" ">
<polygon fill="#bfbfbf" stroke="black" points="103,-80.01 103,-110.01 212,-110.01 212,-80.01 103,-80.01"/>
<text text-anchor="start" x="111" y="-98.01" font-family="Helvetica,sans-Serif" font-size="10.00">FEValuesBase&lt; dim,</text>
<text text-anchor="middle" x="157.5" y="-87.01" font-family="Helvetica,sans-Serif" font-size="10.00"> spacedim &gt;</text>
</a>
</g>
</g>
<!-- Node3 -->
<g id="node3" class="node">
<title>Node3</title>
<g id="a_node3"><a xlink:href="classFEFaceValuesBase.html" target="_top" xlink:title=" ">
<polygon fill="white" stroke="black" points="688,-63.01 688,-93.01 819,-93.01 819,-63.01 688,-63.01"/>
<text text-anchor="start" x="696" y="-81.01" font-family="Helvetica,sans-Serif" font-size="10.00">FEFaceValuesBase&lt; dim,</text>
<text text-anchor="middle" x="753.5" y="-70.01" font-family="Helvetica,sans-Serif" font-size="10.00"> dim &gt;</text>
</a>
</g>
</g>
<!-- Node1&#45;&gt;Node3 -->
<g id="edge2" class="edge">
<title>Node1&#45;&gt;Node3</title>
<path fill="none" stroke="midnightblue" d="M222.33,-108.7C224.92,-109.16 227.48,-109.6 230,-110.01 389.29,-135.98 432.35,-135.52 593,-120.01 633.76,-116.08 678.75,-103.44 710.53,-93.04"/>
<polygon fill="midnightblue" stroke="midnightblue" points="222.75,-105.22 212.28,-106.84 221.47,-112.11 222.75,-105.22"/>
</g>
<!-- Node8 -->
<g id="node8" class="node">
<title>Node8</title>
<g id="a_node8"><a xlink:href="classFEValues.html" target="_top" xlink:title=" ">
<polygon fill="white" stroke="black" points="453,-41.51 453,-60.51 593,-60.51 593,-41.51 453,-41.51"/>
<text text-anchor="middle" x="523" y="-48.51" font-family="Helvetica,sans-Serif" font-size="10.00">FEValues&lt; dim, spacedim &gt;</text>
</a>
</g>
</g>
<!-- Node1&#45;&gt;Node8 -->
<g id="edge7" class="edge">
<title>Node1&#45;&gt;Node8</title>
<path fill="none" stroke="midnightblue" d="M222.47,-83.11C248.61,-78.54 279.18,-73.58 307,-70.01 355.5,-63.8 410.43,-58.98 452.62,-55.75"/>
<polygon fill="midnightblue" stroke="midnightblue" points="221.55,-79.72 212.31,-84.91 222.77,-86.61 221.55,-79.72"/>
</g>
<!-- Node9 -->
<g id="node9" class="node">
<title>Node9</title>
<g id="a_node9"><a xlink:href="classFEValuesBase.html" target="_top" xlink:title=" ">
<polygon fill="white" stroke="black" points="307,-80.01 307,-110.01 416,-110.01 416,-80.01 307,-80.01"/>
<text text-anchor="start" x="315" y="-98.01" font-family="Helvetica,sans-Serif" font-size="10.00">FEValuesBase&lt; dim,</text>
<text text-anchor="middle" x="361.5" y="-87.01" font-family="Helvetica,sans-Serif" font-size="10.00"> dim &gt;</text>
</a>
</g>
</g>
<!-- Node1&#45;&gt;Node9 -->
<g id="edge8" class="edge">
<title>Node1&#45;&gt;Node9</title>
<path fill="none" stroke="orange" stroke-dasharray="5,2" d="M222.32,-95.01C249.56,-95.01 281,-95.01 307,-95.01"/>
<polygon fill="orange" stroke="orange" points="222.1,-91.51 212.1,-95.01 222.1,-98.51 222.1,-91.51"/>
<text text-anchor="middle" x="259.5" y="-98.01" font-family="Helvetica,sans-Serif" font-size="10.00"> &lt; dim, dim &gt;</text>
</g>
<!-- Node2 -->
<g id="node2" class="node">
<title>Node2</title>
<g id="a_node2"><a xlink:href="classSubscriptor.html" target="_top" xlink:title=" ">
<polygon fill="white" stroke="black" points="0,-85.51 0,-104.51 66,-104.51 66,-85.51 0,-85.51"/>
<text text-anchor="middle" x="33" y="-92.51" font-family="Helvetica,sans-Serif" font-size="10.00">Subscriptor</text>
</a>
</g>
</g>
<!-- Node2&#45;&gt;Node1 -->
<g id="edge1" class="edge">
<title>Node2&#45;&gt;Node1</title>
<path fill="none" stroke="midnightblue" d="M76.27,-95.01C84.8,-95.01 93.88,-95.01 102.74,-95.01"/>
<polygon fill="midnightblue" stroke="midnightblue" points="76.19,-91.51 66.19,-95.01 76.19,-98.51 76.19,-91.51"/>
</g>
<!-- Node4 -->
<g id="node4" class="node">
<title>Node4</title>
<g id="a_node4"><a xlink:href="classFEFaceValues.html" target="_top" xlink:title=" ">
<polygon fill="white" stroke="black" points="863,-14.01 863,-44.01 971,-44.01 971,-14.01 863,-14.01"/>
<text text-anchor="start" x="871" y="-32.01" font-family="Helvetica,sans-Serif" font-size="10.00">FEFaceValues&lt; dim,</text>
<text text-anchor="middle" x="917" y="-21.01" font-family="Helvetica,sans-Serif" font-size="10.00"> spacedim &gt;</text>
</a>
</g>
</g>
<!-- Node3&#45;&gt;Node4 -->
<g id="edge3" class="edge">
<title>Node3&#45;&gt;Node4</title>
<path fill="none" stroke="midnightblue" d="M814.2,-59.9C831.37,-54.69 849.9,-49.07 866.39,-44.07"/>
<polygon fill="midnightblue" stroke="midnightblue" points="812.83,-56.66 804.27,-62.91 814.86,-63.36 812.83,-56.66"/>
</g>
<!-- Node6 -->
<g id="node6" class="node">
<title>Node6</title>
<g id="a_node6"><a xlink:href="classFESubfaceValues.html" target="_top" xlink:title=" ">
<polygon fill="white" stroke="black" points="856,-63.01 856,-93.01 978,-93.01 978,-63.01 856,-63.01"/>
<text text-anchor="start" x="864" y="-81.01" font-family="Helvetica,sans-Serif" font-size="10.00">FESubfaceValues&lt; dim,</text>
<text text-anchor="middle" x="917" y="-70.01" font-family="Helvetica,sans-Serif" font-size="10.00"> spacedim &gt;</text>
</a>
</g>
</g>
<!-- Node3&#45;&gt;Node6 -->
<g id="edge5" class="edge">
<title>Node3&#45;&gt;Node6</title>
<path fill="none" stroke="midnightblue" d="M829.28,-78.01C838.22,-78.01 847.25,-78.01 855.94,-78.01"/>
<polygon fill="midnightblue" stroke="midnightblue" points="829.26,-74.51 819.26,-78.01 829.26,-81.51 829.26,-74.51"/>
</g>
<!-- Node5 -->
<g id="node5" class="node">
<title>Node5</title>
<g id="a_node5"><a xlink:href="classFEFaceValues.html" target="_top" xlink:title=" ">
<polygon fill="white" stroke="black" points="1080,-4.01 1080,-34.01 1188,-34.01 1188,-4.01 1080,-4.01"/>
<text text-anchor="start" x="1088" y="-22.01" font-family="Helvetica,sans-Serif" font-size="10.00">FEFaceValues&lt; dim,</text>
<text text-anchor="middle" x="1134" y="-11.01" font-family="Helvetica,sans-Serif" font-size="10.00"> dim &gt;</text>
</a>
</g>
</g>
<!-- Node4&#45;&gt;Node5 -->
<g id="edge4" class="edge">
<title>Node4&#45;&gt;Node5</title>
<path fill="none" stroke="orange" stroke-dasharray="5,2" d="M981.49,-26.06C1012.74,-24.61 1049.98,-22.88 1079.72,-21.49"/>
<polygon fill="orange" stroke="orange" points="980.97,-22.58 971.15,-26.54 981.3,-29.57 980.97,-22.58"/>
<text text-anchor="middle" x="1025.5" y="-29.01" font-family="Helvetica,sans-Serif" font-size="10.00"> &lt; dim, dim &gt;</text>
</g>
<!-- Node7 -->
<g id="node7" class="node">
<title>Node7</title>
<g id="a_node7"><a xlink:href="classFESubfaceValues.html" target="_top" xlink:title=" ">
<polygon fill="white" stroke="black" points="1073,-75.01 1073,-105.01 1195,-105.01 1195,-75.01 1073,-75.01"/>
<text text-anchor="start" x="1081" y="-93.01" font-family="Helvetica,sans-Serif" font-size="10.00">FESubfaceValues&lt; dim,</text>
<text text-anchor="middle" x="1134" y="-82.01" font-family="Helvetica,sans-Serif" font-size="10.00"> dim &gt;</text>
</a>
</g>
</g>
<!-- Node6&#45;&gt;Node7 -->
<g id="edge6" class="edge">
<title>Node6&#45;&gt;Node7</title>
<path fill="none" stroke="orange" stroke-dasharray="5,2" d="M988.44,-81.94C1015.72,-83.47 1046.62,-85.19 1072.84,-86.66"/>
<polygon fill="orange" stroke="orange" points="988.35,-78.44 978.18,-81.37 987.96,-85.42 988.35,-78.44"/>
<text text-anchor="middle" x="1025.5" y="-89.01" font-family="Helvetica,sans-Serif" font-size="10.00"> &lt; dim, dim &gt;</text>
</g>
<!-- Node9&#45;&gt;Node8 -->
<g id="edge13" class="edge">
<title>Node9&#45;&gt;Node8</title>
<path fill="none" stroke="midnightblue" d="M425.87,-77.53C446.84,-71.75 469.39,-65.53 487.37,-60.57"/>
<polygon fill="midnightblue" stroke="midnightblue" points="424.76,-74.21 416.05,-80.24 426.63,-80.95 424.76,-74.21"/>
</g>
<!-- Node10 -->
<g id="node10" class="node">
<title>Node10</title>
<g id="a_node10"><a xlink:href="classFEFaceValuesBase.html" target="_top" xlink:title=" ">
<polygon fill="white" stroke="black" points="457.5,-81.01 457.5,-111.01 588.5,-111.01 588.5,-81.01 457.5,-81.01"/>
<text text-anchor="start" x="465.5" y="-99.01" font-family="Helvetica,sans-Serif" font-size="10.00">FEFaceValuesBase&lt; dim,</text>
<text text-anchor="middle" x="523" y="-88.01" font-family="Helvetica,sans-Serif" font-size="10.00"> spacedim &gt;</text>
</a>
</g>
</g>
<!-- Node9&#45;&gt;Node10 -->
<g id="edge9" class="edge">
<title>Node9&#45;&gt;Node10</title>
<path fill="none" stroke="midnightblue" d="M426.14,-95.41C436.38,-95.48 446.98,-95.54 457.24,-95.61"/>
<polygon fill="midnightblue" stroke="midnightblue" points="426.08,-91.91 416.05,-95.35 426.03,-98.91 426.08,-91.91"/>
</g>
<!-- Node10&#45;&gt;Node3 -->
<g id="edge12" class="edge">
<title>Node10&#45;&gt;Node3</title>
<path fill="none" stroke="orange" stroke-dasharray="5,2" d="M598.56,-90.14C627.33,-87.87 659.93,-85.31 687.7,-83.12"/>
<polygon fill="orange" stroke="orange" points="598.26,-86.65 588.56,-90.93 598.81,-93.63 598.26,-86.65"/>
<text text-anchor="middle" x="640.5" y="-93.01" font-family="Helvetica,sans-Serif" font-size="10.00"> &lt; dim, dim &gt;</text>
</g>
<!-- Node10&#45;&gt;Node5 -->
<g id="edge10" class="edge">
<title>Node10&#45;&gt;Node5</title>
<path fill="none" stroke="midnightblue" d="M573.87,-77.62C638.06,-55.02 753.54,-17.95 856,-4.01 909.73,3.29 923.84,-1.4 978,-4.01 1011.89,-5.65 1049.8,-9.29 1079.65,-12.57"/>
<polygon fill="midnightblue" stroke="midnightblue" points="572.65,-74.34 564.4,-80.98 575,-80.94 572.65,-74.34"/>
</g>
<!-- Node10&#45;&gt;Node7 -->
<g id="edge11" class="edge">
<title>Node10&#45;&gt;Node7</title>
<path fill="none" stroke="midnightblue" d="M598.82,-104.25C602.94,-104.55 607.02,-104.81 611,-105.01 637.19,-106.36 643.78,-105.14 670,-105.01 841.12,-104.18 884.38,-114.1 1055,-101.01 1060.73,-100.57 1066.67,-99.98 1072.62,-99.3"/>
<polygon fill="midnightblue" stroke="midnightblue" points="598.8,-100.74 588.56,-103.44 598.25,-107.72 598.8,-100.74"/>
</g>
</g>
</svg>
