<?xml version="1.0" encoding="UTF-8" standalone="no"?>
<!DOCTYPE svg PUBLIC "-//W3C//DTD SVG 1.1//EN"
 "http://www.w3.org/Graphics/SVG/1.1/DTD/svg11.dtd">
<!-- Generated by graphviz version 2.47.1 (20210417.1919)
 -->
<!-- Title: IntegratedLegendreSZ Pages: 1 -->
<svg width="206pt" height="231pt"
 viewBox="0.00 0.00 206.00 231.00" xmlns="http://www.w3.org/2000/svg" xmlns:xlink="http://www.w3.org/1999/xlink">
<g id="graph0" class="graph" transform="scale(1 1) rotate(0) translate(4 227)">
<title>IntegratedLegendreSZ</title>
<polygon fill="white" stroke="transparent" points="-4,4 -4,-227 202,-227 202,4 -4,4"/>
<!-- Node1 -->
<g id="node1" class="node">
<title>Node1</title>
<g id="a_node1"><a xlink:title=" ">
<polygon fill="#bfbfbf" stroke="black" points="5.5,-0.5 5.5,-19.5 118.5,-19.5 118.5,-0.5 5.5,-0.5"/>
<text text-anchor="middle" x="62" y="-7.5" font-family="Helvetica,sans-Serif" font-size="10.00">IntegratedLegendreSZ</text>
</a>
</g>
</g>
<!-- Node2 -->
<g id="node2" class="node">
<title>Node2</title>
<g id="a_node2"><a xlink:href="classPolynomials_1_1Polynomial.html" target="_top" xlink:title=" ">
<polygon fill="white" stroke="black" points="0,-57.5 0,-87.5 124,-87.5 124,-57.5 0,-57.5"/>
<text text-anchor="start" x="8" y="-75.5" font-family="Helvetica,sans-Serif" font-size="10.00">Polynomials::Polynomial</text>
<text text-anchor="middle" x="62" y="-64.5" font-family="Helvetica,sans-Serif" font-size="10.00">&lt; double &gt;</text>
</a>
</g>
</g>
<!-- Node2&#45;&gt;Node1 -->
<g id="edge1" class="edge">
<title>Node2&#45;&gt;Node1</title>
<path fill="none" stroke="midnightblue" d="M62,-47.35C62,-37.51 62,-26.78 62,-19.54"/>
<polygon fill="midnightblue" stroke="midnightblue" points="58.5,-47.47 62,-57.47 65.5,-47.47 58.5,-47.47"/>
</g>
<!-- Node3 -->
<g id="node3" class="node">
<title>Node3</title>
<g id="a_node3"><a xlink:href="classSubscriptor.html" target="_top" xlink:title=" ">
<polygon fill="white" stroke="black" points="25,-203.5 25,-222.5 91,-222.5 91,-203.5 25,-203.5"/>
<text text-anchor="middle" x="58" y="-210.5" font-family="Helvetica,sans-Serif" font-size="10.00">Subscriptor</text>
</a>
</g>
</g>
<!-- Node3&#45;&gt;Node2 -->
<g id="edge2" class="edge">
<title>Node3&#45;&gt;Node2</title>
<path fill="none" stroke="midnightblue" d="M58.54,-193.25C59.35,-165.19 60.86,-112.88 61.59,-87.73"/>
<polygon fill="midnightblue" stroke="midnightblue" points="55.04,-193.24 58.25,-203.34 62.04,-193.44 55.04,-193.24"/>
</g>
<!-- Node4 -->
<g id="node4" class="node">
<title>Node4</title>
<g id="a_node4"><a xlink:href="classPolynomials_1_1Polynomial.html" target="_top" xlink:title=" ">
<polygon fill="white" stroke="black" points="74,-135.5 74,-165.5 198,-165.5 198,-135.5 74,-135.5"/>
<text text-anchor="start" x="82" y="-153.5" font-family="Helvetica,sans-Serif" font-size="10.00">Polynomials::Polynomial</text>
<text text-anchor="middle" x="136" y="-142.5" font-family="Helvetica,sans-Serif" font-size="10.00">&lt; number &gt;</text>
</a>
</g>
</g>
<!-- Node3&#45;&gt;Node4 -->
<g id="edge4" class="edge">
<title>Node3&#45;&gt;Node4</title>
<path fill="none" stroke="midnightblue" d="M77.11,-197.18C89.55,-187.53 105.68,-175.01 117.92,-165.53"/>
<polygon fill="midnightblue" stroke="midnightblue" points="74.93,-194.44 69.18,-203.33 79.22,-199.97 74.93,-194.44"/>
</g>
<!-- Node4&#45;&gt;Node2 -->
<g id="edge3" class="edge">
<title>Node4&#45;&gt;Node2</title>
<path fill="none" stroke="orange" stroke-dasharray="5,2" d="M115.1,-128.03C102.54,-115.13 86.9,-99.07 75.86,-87.73"/>
<polygon fill="orange" stroke="orange" points="112.6,-130.48 122.08,-135.2 117.61,-125.6 112.6,-130.48"/>
<text text-anchor="middle" x="128" y="-109" font-family="Helvetica,sans-Serif" font-size="10.00"> &lt; double &gt;</text>
</g>
</g>
</svg>
