<?xml version="1.0" encoding="UTF-8" standalone="no"?>
<!DOCTYPE svg PUBLIC "-//W3C//DTD SVG 1.1//EN"
 "http://www.w3.org/Graphics/SVG/1.1/DTD/svg11.dtd">
<!-- Generated by graphviz version 2.47.1 (20210417.1919)
 -->
<!-- Title: Polynomials::Polynomial&lt; number &gt; Pages: 1 -->
<svg width="646pt" height="268pt"
 viewBox="0.00 0.00 646.00 268.00" xmlns="http://www.w3.org/2000/svg" xmlns:xlink="http://www.w3.org/1999/xlink">
<g id="graph0" class="graph" transform="scale(1 1) rotate(0) translate(4 264)">
<title>Polynomials::Polynomial&lt; number &gt;</title>
<polygon fill="white" stroke="transparent" points="-4,4 -4,-264 642,-264 642,4 -4,4"/>
<!-- Node1 -->
<g id="node1" class="node">
<title>Node1</title>
<g id="a_node1"><a xlink:title=" ">
<polygon fill="#bfbfbf" stroke="black" points="103,-158 103,-188 227,-188 227,-158 103,-158"/>
<text text-anchor="start" x="111" y="-176" font-family="Helvetica,sans-Serif" font-size="10.00">Polynomials::Polynomial</text>
<text text-anchor="middle" x="165" y="-165" font-family="Helvetica,sans-Serif" font-size="10.00">&lt; number &gt;</text>
</a>
</g>
</g>
<!-- Node3 -->
<g id="node3" class="node">
<title>Node3</title>
<g id="a_node3"><a xlink:href="classPolynomials_1_1Monomial.html" target="_top" xlink:title=" ">
<polygon fill="white" stroke="black" points="316,-207 316,-237 434,-237 434,-207 316,-207"/>
<text text-anchor="start" x="324" y="-225" font-family="Helvetica,sans-Serif" font-size="10.00">Polynomials::Monomial</text>
<text text-anchor="middle" x="375" y="-214" font-family="Helvetica,sans-Serif" font-size="10.00">&lt; number &gt;</text>
</a>
</g>
</g>
<!-- Node1&#45;&gt;Node3 -->
<g id="edge2" class="edge">
<title>Node1&#45;&gt;Node3</title>
<path fill="none" stroke="midnightblue" d="M237.05,-189.74C262.74,-195.79 291.41,-202.54 315.86,-208.3"/>
<polygon fill="midnightblue" stroke="midnightblue" points="237.54,-186.26 227,-187.37 235.93,-193.07 237.54,-186.26"/>
</g>
<!-- Node4 -->
<g id="node4" class="node">
<title>Node4</title>
<g id="a_node4"><a xlink:href="classPolynomialsBernstein.html" target="_top" xlink:title=" ">
<polygon fill="white" stroke="black" points="319.5,-158 319.5,-188 430.5,-188 430.5,-158 319.5,-158"/>
<text text-anchor="start" x="327.5" y="-176" font-family="Helvetica,sans-Serif" font-size="10.00">PolynomialsBernstein</text>
<text text-anchor="middle" x="375" y="-165" font-family="Helvetica,sans-Serif" font-size="10.00">&lt; number &gt;</text>
</a>
</g>
</g>
<!-- Node1&#45;&gt;Node4 -->
<g id="edge3" class="edge">
<title>Node1&#45;&gt;Node4</title>
<path fill="none" stroke="midnightblue" d="M237.14,-173C264.04,-173 294.22,-173 319.38,-173"/>
<polygon fill="midnightblue" stroke="midnightblue" points="237,-169.5 227,-173 237,-176.5 237,-169.5"/>
</g>
<!-- Node5 -->
<g id="node5" class="node">
<title>Node5</title>
<g id="a_node5"><a xlink:href="classPolynomials_1_1Polynomial.html" target="_top" xlink:title=" ">
<polygon fill="white" stroke="black" points="313,-109 313,-139 437,-139 437,-109 313,-109"/>
<text text-anchor="start" x="321" y="-127" font-family="Helvetica,sans-Serif" font-size="10.00">Polynomials::Polynomial</text>
<text text-anchor="middle" x="375" y="-116" font-family="Helvetica,sans-Serif" font-size="10.00">&lt; double &gt;</text>
</a>
</g>
</g>
<!-- Node1&#45;&gt;Node5 -->
<g id="edge4" class="edge">
<title>Node1&#45;&gt;Node5</title>
<path fill="none" stroke="orange" stroke-dasharray="5,2" d="M237.03,-156.27C261.73,-150.45 289.19,-143.98 313,-138.37"/>
<polygon fill="orange" stroke="orange" points="235.93,-152.93 227,-158.63 237.54,-159.74 235.93,-152.93"/>
<text text-anchor="middle" x="270" y="-158" font-family="Helvetica,sans-Serif" font-size="10.00"> &lt; double &gt;</text>
</g>
<!-- Node2 -->
<g id="node2" class="node">
<title>Node2</title>
<g id="a_node2"><a xlink:href="classSubscriptor.html" target="_top" xlink:title=" ">
<polygon fill="white" stroke="black" points="0,-163.5 0,-182.5 66,-182.5 66,-163.5 0,-163.5"/>
<text text-anchor="middle" x="33" y="-170.5" font-family="Helvetica,sans-Serif" font-size="10.00">Subscriptor</text>
</a>
</g>
</g>
<!-- Node2&#45;&gt;Node1 -->
<g id="edge1" class="edge">
<title>Node2&#45;&gt;Node1</title>
<path fill="none" stroke="midnightblue" d="M76.18,-173C84.69,-173 93.8,-173 102.81,-173"/>
<polygon fill="midnightblue" stroke="midnightblue" points="76.13,-169.5 66.13,-173 76.13,-176.5 76.13,-169.5"/>
</g>
<!-- Node6 -->
<g id="node6" class="node">
<title>Node6</title>
<g id="a_node6"><a xlink:href="classIntegratedLegendreSZ.html" target="_top" xlink:title=" ">
<polygon fill="white" stroke="black" points="499.5,-240.5 499.5,-259.5 612.5,-259.5 612.5,-240.5 499.5,-240.5"/>
<text text-anchor="middle" x="556" y="-247.5" font-family="Helvetica,sans-Serif" font-size="10.00">IntegratedLegendreSZ</text>
</a>
</g>
</g>
<!-- Node5&#45;&gt;Node6 -->
<g id="edge5" class="edge">
<title>Node5&#45;&gt;Node6</title>
<path fill="none" stroke="midnightblue" d="M433.54,-144.96C434.74,-145.93 435.89,-146.94 437,-148 466.19,-175.92 442.87,-205.26 474,-231 481.24,-236.98 490.02,-241.15 499.1,-244.04"/>
<polygon fill="midnightblue" stroke="midnightblue" points="435.3,-141.93 425.07,-139.17 431.35,-147.71 435.3,-141.93"/>
</g>
<!-- Node7 -->
<g id="node7" class="node">
<title>Node7</title>
<g id="a_node7"><a xlink:href="classPolynomials_1_1HermiteInterpolation.html" target="_top" xlink:title=" ">
<polygon fill="white" stroke="black" points="474,-202.5 474,-221.5 638,-221.5 638,-202.5 474,-202.5"/>
<text text-anchor="middle" x="556" y="-209.5" font-family="Helvetica,sans-Serif" font-size="10.00">Polynomials::HermiteInterpolation</text>
</a>
</g>
</g>
<!-- Node5&#45;&gt;Node7 -->
<g id="edge6" class="edge">
<title>Node5&#45;&gt;Node7</title>
<path fill="none" stroke="midnightblue" d="M430.54,-143.78C432.77,-145.11 434.94,-146.52 437,-148 457.75,-162.91 452.31,-178.5 474,-192 481.01,-196.36 488.91,-199.78 496.96,-202.44"/>
<polygon fill="midnightblue" stroke="midnightblue" points="432.1,-140.65 421.64,-139.01 428.79,-146.82 432.1,-140.65"/>
</g>
<!-- Node8 -->
<g id="node8" class="node">
<title>Node8</title>
<g id="a_node8"><a xlink:href="classPolynomials_1_1HermiteLikeInterpolation.html" target="_top" xlink:title=" ">
<polygon fill="white" stroke="black" points="492,-153 492,-183 620,-183 620,-153 492,-153"/>
<text text-anchor="start" x="500" y="-171" font-family="Helvetica,sans-Serif" font-size="10.00">Polynomials::HermiteLike</text>
<text text-anchor="middle" x="556" y="-160" font-family="Helvetica,sans-Serif" font-size="10.00">Interpolation</text>
</a>
</g>
</g>
<!-- Node5&#45;&gt;Node8 -->
<g id="edge7" class="edge">
<title>Node5&#45;&gt;Node8</title>
<path fill="none" stroke="midnightblue" d="M447.13,-141.49C462.6,-145.29 478.83,-149.28 493.87,-152.97"/>
<polygon fill="midnightblue" stroke="midnightblue" points="447.65,-138.01 437.1,-139.02 445.98,-144.81 447.65,-138.01"/>
</g>
<!-- Node9 -->
<g id="node9" class="node">
<title>Node9</title>
<g id="a_node9"><a xlink:href="classPolynomials_1_1Hierarchical.html" target="_top" xlink:title=" ">
<polygon fill="white" stroke="black" points="492,-114.5 492,-133.5 620,-133.5 620,-114.5 492,-114.5"/>
<text text-anchor="middle" x="556" y="-121.5" font-family="Helvetica,sans-Serif" font-size="10.00">Polynomials::Hierarchical</text>
</a>
</g>
</g>
<!-- Node5&#45;&gt;Node9 -->
<g id="edge8" class="edge">
<title>Node5&#45;&gt;Node9</title>
<path fill="none" stroke="midnightblue" d="M447.17,-124C461.89,-124 477.31,-124 491.74,-124"/>
<polygon fill="midnightblue" stroke="midnightblue" points="447.1,-120.5 437.1,-124 447.1,-127.5 447.1,-120.5"/>
</g>
<!-- Node10 -->
<g id="node10" class="node">
<title>Node10</title>
<g id="a_node10"><a xlink:href="classPolynomials_1_1LagrangeEquidistant.html" target="_top" xlink:title=" ">
<polygon fill="white" stroke="black" points="474,-76.5 474,-95.5 638,-95.5 638,-76.5 474,-76.5"/>
<text text-anchor="middle" x="556" y="-83.5" font-family="Helvetica,sans-Serif" font-size="10.00">Polynomials::LagrangeEquidistant</text>
</a>
</g>
</g>
<!-- Node5&#45;&gt;Node10 -->
<g id="edge9" class="edge">
<title>Node5&#45;&gt;Node10</title>
<path fill="none" stroke="midnightblue" d="M447.05,-108.92C468.27,-104.41 490.94,-99.6 509.99,-95.55"/>
<polygon fill="midnightblue" stroke="midnightblue" points="446.16,-105.53 437.1,-111.03 447.61,-112.38 446.16,-105.53"/>
</g>
<!-- Node11 -->
<g id="node11" class="node">
<title>Node11</title>
<g id="a_node11"><a xlink:href="classPolynomials_1_1Legendre.html" target="_top" xlink:title=" ">
<polygon fill="white" stroke="black" points="498,-38.5 498,-57.5 614,-57.5 614,-38.5 498,-38.5"/>
<text text-anchor="middle" x="556" y="-45.5" font-family="Helvetica,sans-Serif" font-size="10.00">Polynomials::Legendre</text>
</a>
</g>
</g>
<!-- Node5&#45;&gt;Node11 -->
<g id="edge10" class="edge">
<title>Node5&#45;&gt;Node11</title>
<path fill="none" stroke="midnightblue" d="M406.05,-103.38C424.86,-91.28 450,-76.55 474,-67 483.39,-63.26 493.71,-60.15 503.74,-57.6"/>
<polygon fill="midnightblue" stroke="midnightblue" points="404.07,-100.49 397.62,-108.9 407.9,-106.35 404.07,-100.49"/>
</g>
<!-- Node12 -->
<g id="node12" class="node">
<title>Node12</title>
<g id="a_node12"><a xlink:href="classPolynomials_1_1Lobatto.html" target="_top" xlink:title=" ">
<polygon fill="white" stroke="black" points="502,-0.5 502,-19.5 610,-19.5 610,-0.5 502,-0.5"/>
<text text-anchor="middle" x="556" y="-7.5" font-family="Helvetica,sans-Serif" font-size="10.00">Polynomials::Lobatto</text>
</a>
</g>
</g>
<!-- Node5&#45;&gt;Node12 -->
<g id="edge11" class="edge">
<title>Node5&#45;&gt;Node12</title>
<path fill="none" stroke="midnightblue" d="M393.4,-101.09C411.25,-79.23 441,-47.04 474,-29 482.49,-24.36 492.09,-20.85 501.63,-18.19"/>
<polygon fill="midnightblue" stroke="midnightblue" points="390.66,-98.91 387.16,-108.91 396.13,-103.27 390.66,-98.91"/>
</g>
</g>
</svg>
