<?xml version="1.0" encoding="UTF-8" standalone="no"?>
<!DOCTYPE svg PUBLIC "-//W3C//DTD SVG 1.1//EN"
 "http://www.w3.org/Graphics/SVG/1.1/DTD/svg11.dtd">
<!-- Generated by graphviz version 2.47.1 (20210417.1919)
 -->
<!-- Title: MatrixFreeOperators::Base&lt; dim, VectorType, VectorizedArrayType &gt; Pages: 1 -->
<svg width="760pt" height="154pt"
 viewBox="0.00 0.00 760.00 154.00" xmlns="http://www.w3.org/2000/svg" xmlns:xlink="http://www.w3.org/1999/xlink">
<g id="graph0" class="graph" transform="scale(1 1) rotate(0) translate(4 150)">
<title>MatrixFreeOperators::Base&lt; dim, VectorType, VectorizedArrayType &gt;</title>
<polygon fill="white" stroke="transparent" points="-4,4 -4,-150 756,-150 756,4 -4,4"/>
<!-- Node1 -->
<g id="node1" class="node">
<title>Node1</title>
<g id="a_node1"><a xlink:title=" ">
<polygon fill="#bfbfbf" stroke="black" points="103,-52.5 103,-93.5 231,-93.5 231,-52.5 103,-52.5"/>
<text text-anchor="start" x="111" y="-81.5" font-family="Helvetica,sans-Serif" font-size="10.00">MatrixFreeOperators</text>
<text text-anchor="start" x="111" y="-70.5" font-family="Helvetica,sans-Serif" font-size="10.00">::Base&lt; dim, VectorType,</text>
<text text-anchor="middle" x="167" y="-59.5" font-family="Helvetica,sans-Serif" font-size="10.00"> VectorizedArrayType &gt;</text>
</a>
</g>
</g>
<!-- Node3 -->
<g id="node3" class="node">
<title>Node3</title>
<g id="a_node3"><a xlink:href="classMatrixFreeOperators_1_1Base.html" target="_top" xlink:title=" ">
<polygon fill="white" stroke="black" points="401,-41.5 401,-104.5 554,-104.5 554,-41.5 401,-41.5"/>
<text text-anchor="start" x="409" y="-92.5" font-family="Helvetica,sans-Serif" font-size="10.00">MatrixFreeOperators</text>
<text text-anchor="start" x="409" y="-81.5" font-family="Helvetica,sans-Serif" font-size="10.00">::Base&lt; dim, LinearAlgebra</text>
<text text-anchor="start" x="409" y="-70.5" font-family="Helvetica,sans-Serif" font-size="10.00">::distributed::Vector&lt; double</text>
<text text-anchor="start" x="409" y="-59.5" font-family="Helvetica,sans-Serif" font-size="10.00"> &gt;, VectorizedArray&lt; typename</text>
<text text-anchor="middle" x="477.5" y="-48.5" font-family="Helvetica,sans-Serif" font-size="10.00"> VectorType::value_type &gt; &gt;</text>
</a>
</g>
</g>
<!-- Node1&#45;&gt;Node3 -->
<g id="edge2" class="edge">
<title>Node1&#45;&gt;Node3</title>
<path fill="none" stroke="orange" stroke-dasharray="5,2" d="M241.22,-73C289.37,-73 352.24,-73 400.88,-73"/>
<polygon fill="orange" stroke="orange" points="241.17,-69.5 231.17,-73 241.17,-76.5 241.17,-69.5"/>
<text text-anchor="start" x="249" y="-120" font-family="Helvetica,sans-Serif" font-size="10.00"> &lt; dim, LinearAlgebra</text>
<text text-anchor="start" x="249" y="-109" font-family="Helvetica,sans-Serif" font-size="10.00">::distributed::Vector</text>
<text text-anchor="start" x="249" y="-98" font-family="Helvetica,sans-Serif" font-size="10.00">&lt; double &gt;, VectorizedArray</text>
<text text-anchor="start" x="249" y="-87" font-family="Helvetica,sans-Serif" font-size="10.00">&lt; typename VectorType::value</text>
<text text-anchor="middle" x="316" y="-76" font-family="Helvetica,sans-Serif" font-size="10.00">_type &gt; &gt;</text>
</g>
<!-- Node2 -->
<g id="node2" class="node">
<title>Node2</title>
<g id="a_node2"><a xlink:href="classSubscriptor.html" target="_top" xlink:title=" ">
<polygon fill="white" stroke="black" points="0,-63.5 0,-82.5 66,-82.5 66,-63.5 0,-63.5"/>
<text text-anchor="middle" x="33" y="-70.5" font-family="Helvetica,sans-Serif" font-size="10.00">Subscriptor</text>
</a>
</g>
</g>
<!-- Node2&#45;&gt;Node1 -->
<g id="edge1" class="edge">
<title>Node2&#45;&gt;Node1</title>
<path fill="none" stroke="midnightblue" d="M76.56,-73C84.94,-73 93.91,-73 102.81,-73"/>
<polygon fill="midnightblue" stroke="midnightblue" points="76.29,-69.5 66.29,-73 76.29,-76.5 76.29,-69.5"/>
</g>
<!-- Node4 -->
<g id="node4" class="node">
<title>Node4</title>
<g id="a_node4"><a xlink:href="classMatrixFreeOperators_1_1LaplaceOperator.html" target="_top" xlink:title=" ">
<polygon fill="white" stroke="black" points="591,-82.5 591,-145.5 752,-145.5 752,-82.5 591,-82.5"/>
<text text-anchor="start" x="599" y="-133.5" font-family="Helvetica,sans-Serif" font-size="10.00">MatrixFreeOperators</text>
<text text-anchor="start" x="599" y="-122.5" font-family="Helvetica,sans-Serif" font-size="10.00">::LaplaceOperator&lt; dim,</text>
<text text-anchor="start" x="599" y="-111.5" font-family="Helvetica,sans-Serif" font-size="10.00"> fe_degree, n_q_points</text>
<text text-anchor="start" x="599" y="-100.5" font-family="Helvetica,sans-Serif" font-size="10.00">_1d, n_components, VectorType,</text>
<text text-anchor="middle" x="671.5" y="-89.5" font-family="Helvetica,sans-Serif" font-size="10.00"> VectorizedArrayType &gt;</text>
</a>
</g>
</g>
<!-- Node3&#45;&gt;Node4 -->
<g id="edge3" class="edge">
<title>Node3&#45;&gt;Node4</title>
<path fill="none" stroke="midnightblue" d="M564.09,-91.28C573,-93.18 582.02,-95.11 590.85,-96.99"/>
<polygon fill="midnightblue" stroke="midnightblue" points="564.62,-87.81 554.11,-89.15 563.16,-94.66 564.62,-87.81"/>
</g>
<!-- Node5 -->
<g id="node5" class="node">
<title>Node5</title>
<g id="a_node5"><a xlink:href="classMatrixFreeOperators_1_1MassOperator.html" target="_top" xlink:title=" ">
<polygon fill="white" stroke="black" points="591,-0.5 591,-63.5 752,-63.5 752,-0.5 591,-0.5"/>
<text text-anchor="start" x="599" y="-51.5" font-family="Helvetica,sans-Serif" font-size="10.00">MatrixFreeOperators</text>
<text text-anchor="start" x="599" y="-40.5" font-family="Helvetica,sans-Serif" font-size="10.00">::MassOperator&lt; dim,</text>
<text text-anchor="start" x="599" y="-29.5" font-family="Helvetica,sans-Serif" font-size="10.00"> fe_degree, n_q_points</text>
<text text-anchor="start" x="599" y="-18.5" font-family="Helvetica,sans-Serif" font-size="10.00">_1d, n_components, VectorType,</text>
<text text-anchor="middle" x="671.5" y="-7.5" font-family="Helvetica,sans-Serif" font-size="10.00"> VectorizedArrayType &gt;</text>
</a>
</g>
</g>
<!-- Node3&#45;&gt;Node5 -->
<g id="edge4" class="edge">
<title>Node3&#45;&gt;Node5</title>
<path fill="none" stroke="midnightblue" d="M564.09,-54.72C573,-52.82 582.02,-50.89 590.85,-49.01"/>
<polygon fill="midnightblue" stroke="midnightblue" points="563.16,-51.34 554.11,-56.85 564.62,-58.19 563.16,-51.34"/>
</g>
</g>
</svg>
