<?xml version="1.0" encoding="UTF-8" standalone="no"?>
<!DOCTYPE svg PUBLIC "-//W3C//DTD SVG 1.1//EN"
 "http://www.w3.org/Graphics/SVG/1.1/DTD/svg11.dtd">
<!-- Generated by graphviz version 2.47.1 (20210417.1919)
 -->
<!-- Title: hp::QCollection&lt; dim &gt; Pages: 1 -->
<svg width="395pt" height="298pt"
 viewBox="0.00 0.00 395.00 298.00" xmlns="http://www.w3.org/2000/svg" xmlns:xlink="http://www.w3.org/1999/xlink">
<g id="graph0" class="graph" transform="scale(1 1) rotate(0) translate(4 294)">
<title>hp::QCollection&lt; dim &gt;</title>
<polygon fill="white" stroke="transparent" points="-4,4 -4,-294 391,-294 391,4 -4,4"/>
<!-- Node1 -->
<g id="node1" class="node">
<title>Node1</title>
<g id="a_node1"><a xlink:title=" ">
<polygon fill="#bfbfbf" stroke="black" points="117.5,-78.5 117.5,-97.5 235.5,-97.5 235.5,-78.5 117.5,-78.5"/>
<text text-anchor="middle" x="176.5" y="-85.5" font-family="Helvetica,sans-Serif" font-size="10.00">hp::QCollection&lt; dim &gt;</text>
</a>
</g>
</g>
<!-- Node5 -->
<g id="node5" class="node">
<title>Node5</title>
<g id="a_node5"><a xlink:href="classhp_1_1QCollection.html" target="_top" xlink:title=" ">
<polygon fill="white" stroke="black" points="0,-0.5 0,-30.5 109,-30.5 109,-0.5 0,-0.5"/>
<text text-anchor="start" x="8" y="-18.5" font-family="Helvetica,sans-Serif" font-size="10.00">hp::QCollection&lt; dim</text>
<text text-anchor="middle" x="54.5" y="-7.5" font-family="Helvetica,sans-Serif" font-size="10.00"> &#45; 1 &gt;</text>
</a>
</g>
</g>
<!-- Node1&#45;&gt;Node5 -->
<g id="edge5" class="edge">
<title>Node1&#45;&gt;Node5</title>
<path fill="none" stroke="orange" stroke-dasharray="5,2" d="M148,-74.16C139.06,-69.9 129.26,-64.97 120.5,-60 104.51,-50.93 87.17,-39.43 74.28,-30.54"/>
<polygon fill="orange" stroke="orange" points="146.71,-77.42 157.25,-78.49 149.68,-71.08 146.71,-77.42"/>
<text text-anchor="middle" x="146.5" y="-52" font-family="Helvetica,sans-Serif" font-size="10.00"> &lt; dim &#45; 1 &gt;</text>
</g>
<!-- Node6 -->
<g id="node6" class="node">
<title>Node6</title>
<g id="a_node6"><a xlink:href="classhp_1_1QCollection.html" target="_top" xlink:title=" ">
<polygon fill="white" stroke="black" points="127.5,-0.5 127.5,-30.5 225.5,-30.5 225.5,-0.5 127.5,-0.5"/>
<text text-anchor="start" x="135.5" y="-18.5" font-family="Helvetica,sans-Serif" font-size="10.00">hp::QCollection&lt; q</text>
<text text-anchor="middle" x="176.5" y="-7.5" font-family="Helvetica,sans-Serif" font-size="10.00">_dim &gt;</text>
</a>
</g>
</g>
<!-- Node1&#45;&gt;Node6 -->
<g id="edge6" class="edge">
<title>Node1&#45;&gt;Node6</title>
<path fill="none" stroke="orange" stroke-dasharray="5,2" d="M176.5,-68.24C176.5,-56.41 176.5,-41.38 176.5,-30.58"/>
<polygon fill="orange" stroke="orange" points="173,-68.36 176.5,-78.36 180,-68.36 173,-68.36"/>
<text text-anchor="middle" x="200.5" y="-52" font-family="Helvetica,sans-Serif" font-size="10.00"> &lt; q_dim &gt;</text>
</g>
<!-- Node7 -->
<g id="node7" class="node">
<title>Node7</title>
<g id="a_node7"><a xlink:href="classhp_1_1QCollection.html" target="_top" xlink:title=" ">
<polygon fill="white" stroke="black" points="244,-6 244,-25 387,-25 387,-6 244,-6"/>
<text text-anchor="middle" x="315.5" y="-13" font-family="Helvetica,sans-Serif" font-size="10.00">hp::QCollection&lt; structdim &gt;</text>
</a>
</g>
</g>
<!-- Node1&#45;&gt;Node7 -->
<g id="edge7" class="edge">
<title>Node1&#45;&gt;Node7</title>
<path fill="none" stroke="orange" stroke-dasharray="5,2" d="M202.5,-73.81C230.66,-59.53 274.74,-37.17 298.67,-25.03"/>
<polygon fill="orange" stroke="orange" points="200.6,-70.85 193.27,-78.5 203.77,-77.09 200.6,-70.85"/>
<text text-anchor="middle" x="280.5" y="-52" font-family="Helvetica,sans-Serif" font-size="10.00"> &lt; structdim &gt;</text>
</g>
<!-- Node2 -->
<g id="node2" class="node">
<title>Node2</title>
<g id="a_node2"><a xlink:href="classhp_1_1Collection.html" target="_top" xlink:title=" ">
<polygon fill="white" stroke="black" points="109.5,-135.5 109.5,-165.5 243.5,-165.5 243.5,-135.5 109.5,-135.5"/>
<text text-anchor="start" x="117.5" y="-153.5" font-family="Helvetica,sans-Serif" font-size="10.00">hp::Collection&lt; Quadrature</text>
<text text-anchor="middle" x="176.5" y="-142.5" font-family="Helvetica,sans-Serif" font-size="10.00">&lt; dim &gt; &gt;</text>
</a>
</g>
</g>
<!-- Node2&#45;&gt;Node1 -->
<g id="edge1" class="edge">
<title>Node2&#45;&gt;Node1</title>
<path fill="none" stroke="midnightblue" d="M176.5,-125.35C176.5,-115.51 176.5,-104.78 176.5,-97.54"/>
<polygon fill="midnightblue" stroke="midnightblue" points="173,-125.47 176.5,-135.47 180,-125.47 173,-125.47"/>
</g>
<!-- Node3 -->
<g id="node3" class="node">
<title>Node3</title>
<g id="a_node3"><a xlink:href="classSubscriptor.html" target="_top" xlink:title=" ">
<polygon fill="white" stroke="black" points="139.5,-270.5 139.5,-289.5 205.5,-289.5 205.5,-270.5 139.5,-270.5"/>
<text text-anchor="middle" x="172.5" y="-277.5" font-family="Helvetica,sans-Serif" font-size="10.00">Subscriptor</text>
</a>
</g>
</g>
<!-- Node3&#45;&gt;Node2 -->
<g id="edge2" class="edge">
<title>Node3&#45;&gt;Node2</title>
<path fill="none" stroke="midnightblue" d="M173.1,-259.9C173.91,-234.05 175.34,-188.54 176.06,-165.59"/>
<polygon fill="midnightblue" stroke="midnightblue" points="169.59,-260.13 172.77,-270.24 176.59,-260.35 169.59,-260.13"/>
</g>
<!-- Node4 -->
<g id="node4" class="node">
<title>Node4</title>
<g id="a_node4"><a xlink:href="classhp_1_1Collection.html" target="_top" xlink:title=" ">
<polygon fill="white" stroke="black" points="189,-213.5 189,-232.5 290,-232.5 290,-213.5 189,-213.5"/>
<text text-anchor="middle" x="239.5" y="-220.5" font-family="Helvetica,sans-Serif" font-size="10.00">hp::Collection&lt; T &gt;</text>
</a>
</g>
</g>
<!-- Node3&#45;&gt;Node4 -->
<g id="edge4" class="edge">
<title>Node3&#45;&gt;Node4</title>
<path fill="none" stroke="midnightblue" d="M190.77,-264C203,-253.96 218.66,-241.1 228.88,-232.71"/>
<polygon fill="midnightblue" stroke="midnightblue" points="188.48,-261.36 182.97,-270.41 192.92,-266.77 188.48,-261.36"/>
</g>
<!-- Node4&#45;&gt;Node2 -->
<g id="edge3" class="edge">
<title>Node4&#45;&gt;Node2</title>
<path fill="none" stroke="orange" stroke-dasharray="5,2" d="M224.97,-205.74C214.12,-193.6 199.43,-177.16 189.08,-165.58"/>
<polygon fill="orange" stroke="orange" points="222.5,-208.23 231.77,-213.36 227.72,-203.57 222.5,-208.23"/>
<text text-anchor="middle" x="265" y="-187" font-family="Helvetica,sans-Serif" font-size="10.00"> &lt; Quadrature&lt; dim &gt; &gt;</text>
</g>
</g>
</svg>
