<?xml version="1.0" encoding="UTF-8" standalone="no"?>
<!DOCTYPE svg PUBLIC "-//W3C//DTD SVG 1.1//EN"
 "http://www.w3.org/Graphics/SVG/1.1/DTD/svg11.dtd">
<!-- Generated by graphviz version 2.47.1 (20210417.1919)
 -->
<!-- Title: FE_Q_Base&lt; dim, spacedim &gt; Pages: 1 -->
<svg width="1629pt" height="283pt"
 viewBox="0.00 0.00 1629.00 283.00" xmlns="http://www.w3.org/2000/svg" xmlns:xlink="http://www.w3.org/1999/xlink">
<g id="graph0" class="graph" transform="scale(1 1) rotate(0) translate(4 279)">
<title>FE_Q_Base&lt; dim, spacedim &gt;</title>
<polygon fill="white" stroke="transparent" points="-4,4 -4,-279 1625,-279 1625,4 -4,4"/>
<!-- Node1 -->
<g id="node1" class="node">
<title>Node1</title>
<g id="a_node1"><a xlink:title=" ">
<polygon fill="#bfbfbf" stroke="black" points="859,-161 859,-180 1011,-180 1011,-161 859,-161"/>
<text text-anchor="middle" x="935" y="-168" font-family="Helvetica,sans-Serif" font-size="10.00">FE_Q_Base&lt; dim, spacedim &gt;</text>
</a>
</g>
</g>
<!-- Node8 -->
<g id="node8" class="node">
<title>Node8</title>
<g id="a_node8"><a xlink:href="classFE__Q.html" target="_top" xlink:title=" ">
<polygon fill="white" stroke="black" points="1523,-132 1523,-151 1621,-151 1621,-132 1523,-132"/>
<text text-anchor="middle" x="1572" y="-139" font-family="Helvetica,sans-Serif" font-size="10.00">FE_Q&lt; dim, dim &gt;</text>
</a>
</g>
</g>
<!-- Node1&#45;&gt;Node8 -->
<g id="edge11" class="edge">
<title>Node1&#45;&gt;Node8</title>
<path fill="none" stroke="midnightblue" d="M983.51,-182.34C1072,-202.52 1267.62,-238.26 1428,-204.5 1476.85,-194.22 1529.35,-166.17 1555.02,-151.21"/>
<polygon fill="midnightblue" stroke="midnightblue" points="984.05,-178.88 973.51,-180.03 982.47,-185.69 984.05,-178.88"/>
</g>
<!-- Node9 -->
<g id="node9" class="node">
<title>Node9</title>
<g id="a_node9"><a xlink:href="classFE__Q__Base.html" target="_top" xlink:title=" ">
<polygon fill="white" stroke="black" points="1106,-107 1106,-126 1231,-126 1231,-107 1106,-107"/>
<text text-anchor="middle" x="1168.5" y="-114" font-family="Helvetica,sans-Serif" font-size="10.00">FE_Q_Base&lt; dim, dim &gt;</text>
</a>
</g>
</g>
<!-- Node1&#45;&gt;Node9 -->
<g id="edge12" class="edge">
<title>Node1&#45;&gt;Node9</title>
<path fill="none" stroke="orange" stroke-dasharray="5,2" d="M986.61,-158.69C1028.63,-148.89 1087.62,-135.13 1126.67,-126.03"/>
<polygon fill="orange" stroke="orange" points="985.8,-155.29 976.85,-160.97 987.39,-162.11 985.8,-155.29"/>
<text text-anchor="middle" x="1058.5" y="-151.5" font-family="Helvetica,sans-Serif" font-size="10.00"> &lt; dim, dim &gt;</text>
</g>
<!-- Node2 -->
<g id="node2" class="node">
<title>Node2</title>
<g id="a_node2"><a xlink:href="classFE__Poly.html" target="_top" xlink:title=" ">
<polygon fill="white" stroke="black" points="712,-161 712,-180 822,-180 822,-161 712,-161"/>
<text text-anchor="middle" x="767" y="-168" font-family="Helvetica,sans-Serif" font-size="10.00">FE_Poly&lt; dim, dim &gt;</text>
</a>
</g>
</g>
<!-- Node2&#45;&gt;Node1 -->
<g id="edge1" class="edge">
<title>Node2&#45;&gt;Node1</title>
<path fill="none" stroke="midnightblue" d="M832.63,-170.5C841.18,-170.5 850.01,-170.5 858.73,-170.5"/>
<polygon fill="midnightblue" stroke="midnightblue" points="832.35,-167 822.35,-170.5 832.35,-174 832.35,-167"/>
</g>
<!-- Node3 -->
<g id="node3" class="node">
<title>Node3</title>
<g id="a_node3"><a xlink:href="classFiniteElement.html" target="_top" xlink:title=" ">
<polygon fill="white" stroke="black" points="141,-135.5 141,-165.5 245,-165.5 245,-135.5 141,-135.5"/>
<text text-anchor="start" x="149" y="-153.5" font-family="Helvetica,sans-Serif" font-size="10.00">FiniteElement&lt; dim,</text>
<text text-anchor="middle" x="193" y="-142.5" font-family="Helvetica,sans-Serif" font-size="10.00"> spacedim &gt;</text>
</a>
</g>
</g>
<!-- Node3&#45;&gt;Node2 -->
<g id="edge2" class="edge">
<title>Node3&#45;&gt;Node2</title>
<path fill="none" stroke="midnightblue" d="M255.15,-152.64C367.43,-156.56 604.69,-164.86 711.67,-168.6"/>
<polygon fill="midnightblue" stroke="midnightblue" points="255.13,-149.14 245.01,-152.28 254.88,-156.13 255.13,-149.14"/>
</g>
<!-- Node3&#45;&gt;Node3 -->
<g id="edge5" class="edge">
<title>Node3&#45;&gt;Node3</title>
<path fill="none" stroke="orange" stroke-dasharray="5,2" d="M180.56,-175.96C182.11,-180.68 186.25,-184 193,-184 204.07,-184 208.14,-175.06 205.2,-165.66"/>
<polygon fill="orange" stroke="orange" points="184.07,-175.74 180.8,-165.66 177.07,-175.57 184.07,-175.74"/>
<text text-anchor="middle" x="193" y="-187" font-family="Helvetica,sans-Serif" font-size="10.00"> &lt; dim, spacedim &gt;</text>
</g>
<!-- Node7 -->
<g id="node7" class="node">
<title>Node7</title>
<g id="a_node7"><a xlink:href="classFiniteElement.html" target="_top" xlink:title=" ">
<polygon fill="white" stroke="black" points="340,-190.5 340,-220.5 444,-220.5 444,-190.5 340,-190.5"/>
<text text-anchor="start" x="348" y="-208.5" font-family="Helvetica,sans-Serif" font-size="10.00">FiniteElement&lt; dim,</text>
<text text-anchor="middle" x="392" y="-197.5" font-family="Helvetica,sans-Serif" font-size="10.00"> dim &gt;</text>
</a>
</g>
</g>
<!-- Node3&#45;&gt;Node7 -->
<g id="edge10" class="edge">
<title>Node3&#45;&gt;Node7</title>
<path fill="none" stroke="orange" stroke-dasharray="5,2" d="M255.02,-167.54C282.16,-175.11 313.77,-183.94 339.67,-191.17"/>
<polygon fill="orange" stroke="orange" points="255.82,-164.13 245.25,-164.81 253.94,-170.87 255.82,-164.13"/>
<text text-anchor="middle" x="292.5" y="-189.5" font-family="Helvetica,sans-Serif" font-size="10.00"> &lt; dim, dim &gt;</text>
</g>
<!-- Node4 -->
<g id="node4" class="node">
<title>Node4</title>
<g id="a_node4"><a xlink:href="classSubscriptor.html" target="_top" xlink:title=" ">
<polygon fill="white" stroke="black" points="19,-203 19,-222 85,-222 85,-203 19,-203"/>
<text text-anchor="middle" x="52" y="-210" font-family="Helvetica,sans-Serif" font-size="10.00">Subscriptor</text>
</a>
</g>
</g>
<!-- Node4&#45;&gt;Node3 -->
<g id="edge3" class="edge">
<title>Node4&#45;&gt;Node3</title>
<path fill="none" stroke="midnightblue" d="M83.64,-198.83C105.67,-189.01 135.37,-175.76 158.11,-165.62"/>
<polygon fill="midnightblue" stroke="midnightblue" points="82.12,-195.68 74.41,-202.95 84.97,-202.07 82.12,-195.68"/>
</g>
<!-- Node4&#45;&gt;Node7 -->
<g id="edge8" class="edge">
<title>Node4&#45;&gt;Node7</title>
<path fill="none" stroke="midnightblue" d="M95.32,-211.62C157.38,-210.34 272.96,-207.94 339.75,-206.56"/>
<polygon fill="midnightblue" stroke="midnightblue" points="95.03,-208.13 85.1,-211.84 95.17,-215.13 95.03,-208.13"/>
</g>
<!-- Node5 -->
<g id="node5" class="node">
<title>Node5</title>
<g id="a_node5"><a xlink:href="classFiniteElementData.html" target="_top" xlink:title=" ">
<polygon fill="white" stroke="black" points="0,-244.5 0,-274.5 104,-274.5 104,-244.5 0,-244.5"/>
<text text-anchor="start" x="8" y="-262.5" font-family="Helvetica,sans-Serif" font-size="10.00">FiniteElementData&lt;</text>
<text text-anchor="middle" x="52" y="-251.5" font-family="Helvetica,sans-Serif" font-size="10.00"> dim &gt;</text>
</a>
</g>
</g>
<!-- Node5&#45;&gt;Node3 -->
<g id="edge4" class="edge">
<title>Node5&#45;&gt;Node3</title>
<path fill="none" stroke="midnightblue" d="M92.28,-239.21C96.32,-236.75 100.3,-234.16 104,-231.5 132.16,-211.27 161.03,-182.96 177.7,-165.73"/>
<polygon fill="midnightblue" stroke="midnightblue" points="90.28,-236.32 83.4,-244.38 93.8,-242.37 90.28,-236.32"/>
</g>
<!-- Node5&#45;&gt;Node7 -->
<g id="edge9" class="edge">
<title>Node5&#45;&gt;Node7</title>
<path fill="none" stroke="midnightblue" d="M114.26,-252.4C168.94,-245.69 251.11,-234.7 322,-221.5 327.8,-220.42 333.86,-219.18 339.86,-217.88"/>
<polygon fill="midnightblue" stroke="midnightblue" points="113.54,-248.96 104.04,-253.64 114.38,-255.91 113.54,-248.96"/>
</g>
<!-- Node6 -->
<g id="node6" class="node">
<title>Node6</title>
<g id="a_node6"><a xlink:href="classFE__Poly.html" target="_top" xlink:title=" ">
<polygon fill="white" stroke="black" points="481,-186 481,-205 617,-205 617,-186 481,-186"/>
<text text-anchor="middle" x="549" y="-193" font-family="Helvetica,sans-Serif" font-size="10.00">FE_Poly&lt; dim, spacedim &gt;</text>
</a>
</g>
</g>
<!-- Node6&#45;&gt;Node2 -->
<g id="edge6" class="edge">
<title>Node6&#45;&gt;Node2</title>
<path fill="none" stroke="orange" stroke-dasharray="5,2" d="M627.32,-186.55C655.32,-183.31 686.32,-179.72 711.89,-176.76"/>
<polygon fill="orange" stroke="orange" points="626.69,-183.1 617.16,-187.73 627.5,-190.05 626.69,-183.1"/>
<text text-anchor="middle" x="664.5" y="-188.5" font-family="Helvetica,sans-Serif" font-size="10.00"> &lt; dim, dim &gt;</text>
</g>
<!-- Node7&#45;&gt;Node6 -->
<g id="edge7" class="edge">
<title>Node7&#45;&gt;Node6</title>
<path fill="none" stroke="midnightblue" d="M454.27,-201.55C462.99,-200.98 472.01,-200.4 480.84,-199.83"/>
<polygon fill="midnightblue" stroke="midnightblue" points="453.94,-198.06 444.18,-202.2 454.39,-205.05 453.94,-198.06"/>
</g>
<!-- Node10 -->
<g id="node10" class="node">
<title>Node10</title>
<g id="a_node10"><a xlink:href="classFE__Bernstein.html" target="_top" xlink:title=" ">
<polygon fill="white" stroke="black" points="1296,-0.5 1296,-30.5 1400,-30.5 1400,-0.5 1296,-0.5"/>
<text text-anchor="start" x="1304" y="-18.5" font-family="Helvetica,sans-Serif" font-size="10.00">FE_Bernstein&lt; dim,</text>
<text text-anchor="middle" x="1348" y="-7.5" font-family="Helvetica,sans-Serif" font-size="10.00"> spacedim &gt;</text>
</a>
</g>
</g>
<!-- Node9&#45;&gt;Node10 -->
<g id="edge13" class="edge">
<title>Node9&#45;&gt;Node10</title>
<path fill="none" stroke="midnightblue" d="M1186.74,-100.12C1205.44,-83.13 1236.82,-56.8 1268,-40.5 1276.67,-35.97 1286.31,-32.08 1295.79,-28.81"/>
<polygon fill="midnightblue" stroke="midnightblue" points="1184.28,-97.63 1179.31,-106.99 1189.03,-102.77 1184.28,-97.63"/>
</g>
<!-- Node11 -->
<g id="node11" class="node">
<title>Node11</title>
<g id="a_node11"><a xlink:href="classFE__Q.html" target="_top" xlink:title=" ">
<polygon fill="white" stroke="black" points="1286,-50 1286,-69 1410,-69 1410,-50 1286,-50"/>
<text text-anchor="middle" x="1348" y="-57" font-family="Helvetica,sans-Serif" font-size="10.00">FE_Q&lt; dim, spacedim &gt;</text>
</a>
</g>
</g>
<!-- Node9&#45;&gt;Node11 -->
<g id="edge14" class="edge">
<title>Node9&#45;&gt;Node11</title>
<path fill="none" stroke="midnightblue" d="M1201.31,-103C1220.42,-95.19 1245.35,-85.56 1268,-78.5 1279.18,-75.02 1291.41,-71.79 1302.84,-69.03"/>
<polygon fill="midnightblue" stroke="midnightblue" points="1199.8,-99.83 1191.89,-106.89 1202.47,-106.3 1199.8,-99.83"/>
</g>
<!-- Node12 -->
<g id="node12" class="node">
<title>Node12</title>
<g id="a_node12"><a xlink:href="classFE__Q__Bubbles.html" target="_top" xlink:title=" ">
<polygon fill="white" stroke="black" points="1293,-164.5 1293,-194.5 1403,-194.5 1403,-164.5 1293,-164.5"/>
<text text-anchor="start" x="1301" y="-182.5" font-family="Helvetica,sans-Serif" font-size="10.00">FE_Q_Bubbles&lt; dim,</text>
<text text-anchor="middle" x="1348" y="-171.5" font-family="Helvetica,sans-Serif" font-size="10.00"> spacedim &gt;</text>
</a>
</g>
</g>
<!-- Node9&#45;&gt;Node12 -->
<g id="edge16" class="edge">
<title>Node9&#45;&gt;Node12</title>
<path fill="none" stroke="midnightblue" d="M1202.65,-129.87C1221.67,-137.4 1246.05,-146.8 1268,-154.5 1277.64,-157.88 1288.01,-161.31 1297.96,-164.5"/>
<polygon fill="midnightblue" stroke="midnightblue" points="1203.82,-126.57 1193.23,-126.13 1201.23,-133.08 1203.82,-126.57"/>
</g>
<!-- Node13 -->
<g id="node13" class="node">
<title>Node13</title>
<g id="a_node13"><a xlink:href="classFE__Q__DG0.html" target="_top" xlink:title=" ">
<polygon fill="white" stroke="black" points="1273.5,-126 1273.5,-145 1422.5,-145 1422.5,-126 1273.5,-126"/>
<text text-anchor="middle" x="1348" y="-133" font-family="Helvetica,sans-Serif" font-size="10.00">FE_Q_DG0&lt; dim, spacedim &gt;</text>
</a>
</g>
</g>
<!-- Node9&#45;&gt;Node13 -->
<g id="edge17" class="edge">
<title>Node9&#45;&gt;Node13</title>
<path fill="none" stroke="midnightblue" d="M1241.12,-124.17C1251.72,-125.3 1262.66,-126.47 1273.31,-127.61"/>
<polygon fill="midnightblue" stroke="midnightblue" points="1241.4,-120.68 1231.08,-123.09 1240.65,-127.64 1241.4,-120.68"/>
</g>
<!-- Node14 -->
<g id="node14" class="node">
<title>Node14</title>
<g id="a_node14"><a xlink:href="classFE__Q__iso__Q1.html" target="_top" xlink:title=" ">
<polygon fill="white" stroke="black" points="1268,-88 1268,-107 1428,-107 1428,-88 1268,-88"/>
<text text-anchor="middle" x="1348" y="-95" font-family="Helvetica,sans-Serif" font-size="10.00">FE_Q_iso_Q1&lt; dim, spacedim &gt;</text>
</a>
</g>
</g>
<!-- Node9&#45;&gt;Node14 -->
<g id="edge18" class="edge">
<title>Node9&#45;&gt;Node14</title>
<path fill="none" stroke="midnightblue" d="M1241.2,-108.83C1249.92,-107.89 1258.88,-106.93 1267.71,-105.99"/>
<polygon fill="midnightblue" stroke="midnightblue" points="1240.65,-105.36 1231.08,-109.91 1241.4,-112.32 1240.65,-105.36"/>
</g>
<!-- Node11&#45;&gt;Node8 -->
<g id="edge15" class="edge">
<title>Node11&#45;&gt;Node8</title>
<path fill="none" stroke="orange" stroke-dasharray="5,2" d="M1404.8,-71.6C1412.65,-73.68 1420.58,-75.99 1428,-78.5 1473.75,-93.94 1525.02,-118.37 1552.01,-131.82"/>
<polygon fill="orange" stroke="orange" points="1405.49,-68.16 1394.93,-69.08 1403.76,-74.94 1405.49,-68.16"/>
<text text-anchor="middle" x="1475.5" y="-112.5" font-family="Helvetica,sans-Serif" font-size="10.00"> &lt; dim, dim &gt;</text>
</g>
</g>
</svg>
