<?xml version="1.0" encoding="UTF-8" standalone="no"?>
<!DOCTYPE svg PUBLIC "-//W3C//DTD SVG 1.1//EN"
 "http://www.w3.org/Graphics/SVG/1.1/DTD/svg11.dtd">
<!-- Generated by graphviz version 2.47.1 (20210417.1919)
 -->
<!-- Title: MGCoarseGridApplySmoother&lt; VectorType &gt; Pages: 1 -->
<svg width="237pt" height="242pt"
 viewBox="0.00 0.00 236.50 242.00" xmlns="http://www.w3.org/2000/svg" xmlns:xlink="http://www.w3.org/1999/xlink">
<g id="graph0" class="graph" transform="scale(1 1) rotate(0) translate(4 238)">
<title>MGCoarseGridApplySmoother&lt; VectorType &gt;</title>
<polygon fill="white" stroke="transparent" points="-4,4 -4,-238 232.5,-238 232.5,4 -4,4"/>
<!-- Node1 -->
<g id="node1" class="node">
<title>Node1</title>
<g id="a_node1"><a xlink:title=" ">
<polygon fill="#bfbfbf" stroke="black" points="0,-0.5 0,-30.5 149,-30.5 149,-0.5 0,-0.5"/>
<text text-anchor="start" x="8" y="-18.5" font-family="Helvetica,sans-Serif" font-size="10.00">MGCoarseGridApplySmoother</text>
<text text-anchor="middle" x="74.5" y="-7.5" font-family="Helvetica,sans-Serif" font-size="10.00">&lt; VectorType &gt;</text>
</a>
</g>
</g>
<!-- Node2 -->
<g id="node2" class="node">
<title>Node2</title>
<g id="a_node2"><a xlink:href="classMGCoarseGridBase.html" target="_top" xlink:title=" ">
<polygon fill="white" stroke="black" points="3.5,-68.5 3.5,-98.5 145.5,-98.5 145.5,-68.5 3.5,-68.5"/>
<text text-anchor="start" x="11.5" y="-86.5" font-family="Helvetica,sans-Serif" font-size="10.00">MGCoarseGridBase&lt; Vector</text>
<text text-anchor="middle" x="74.5" y="-75.5" font-family="Helvetica,sans-Serif" font-size="10.00">&lt; double &gt; &gt;</text>
</a>
</g>
</g>
<!-- Node2&#45;&gt;Node1 -->
<g id="edge1" class="edge">
<title>Node2&#45;&gt;Node1</title>
<path fill="none" stroke="midnightblue" d="M74.5,-58.03C74.5,-48.86 74.5,-38.74 74.5,-30.79"/>
<polygon fill="midnightblue" stroke="midnightblue" points="71,-58.18 74.5,-68.18 78,-58.18 71,-58.18"/>
</g>
<!-- Node3 -->
<g id="node3" class="node">
<title>Node3</title>
<g id="a_node3"><a xlink:href="classSubscriptor.html" target="_top" xlink:title=" ">
<polygon fill="white" stroke="black" points="37.5,-214.5 37.5,-233.5 103.5,-233.5 103.5,-214.5 37.5,-214.5"/>
<text text-anchor="middle" x="70.5" y="-221.5" font-family="Helvetica,sans-Serif" font-size="10.00">Subscriptor</text>
</a>
</g>
</g>
<!-- Node3&#45;&gt;Node2 -->
<g id="edge2" class="edge">
<title>Node3&#45;&gt;Node2</title>
<path fill="none" stroke="midnightblue" d="M71.04,-204.25C71.85,-176.19 73.36,-123.88 74.09,-98.73"/>
<polygon fill="midnightblue" stroke="midnightblue" points="67.54,-204.24 70.75,-214.34 74.54,-204.44 67.54,-204.24"/>
</g>
<!-- Node4 -->
<g id="node4" class="node">
<title>Node4</title>
<g id="a_node4"><a xlink:href="classMGCoarseGridBase.html" target="_top" xlink:title=" ">
<polygon fill="white" stroke="black" points="86.5,-146.5 86.5,-176.5 228.5,-176.5 228.5,-146.5 86.5,-146.5"/>
<text text-anchor="start" x="94.5" y="-164.5" font-family="Helvetica,sans-Serif" font-size="10.00">MGCoarseGridBase&lt; Vector</text>
<text text-anchor="middle" x="157.5" y="-153.5" font-family="Helvetica,sans-Serif" font-size="10.00">Type &gt;</text>
</a>
</g>
</g>
<!-- Node3&#45;&gt;Node4 -->
<g id="edge4" class="edge">
<title>Node3&#45;&gt;Node4</title>
<path fill="none" stroke="midnightblue" d="M91.41,-208.46C105.34,-198.77 123.55,-186.11 137.33,-176.53"/>
<polygon fill="midnightblue" stroke="midnightblue" points="89.18,-205.75 82.96,-214.33 93.17,-211.5 89.18,-205.75"/>
</g>
<!-- Node4&#45;&gt;Node2 -->
<g id="edge3" class="edge">
<title>Node4&#45;&gt;Node2</title>
<path fill="none" stroke="orange" stroke-dasharray="5,2" d="M134.45,-139.39C120.29,-126.43 102.54,-110.18 90.04,-98.73"/>
<polygon fill="orange" stroke="orange" points="132.15,-142.03 141.89,-146.2 136.88,-136.87 132.15,-142.03"/>
<text text-anchor="middle" x="169" y="-120" font-family="Helvetica,sans-Serif" font-size="10.00"> &lt; Vector&lt; double &gt; &gt;</text>
</g>
</g>
</svg>
