<?xml version="1.0" encoding="UTF-8" standalone="no"?>
<!DOCTYPE svg PUBLIC "-//W3C//DTD SVG 1.1//EN"
 "http://www.w3.org/Graphics/SVG/1.1/DTD/svg11.dtd">
<!-- Generated by graphviz version 2.47.1 (20210417.1919)
 -->
<!-- Title: FE_SimplexP_Bubbles&lt; dim, spacedim &gt; Pages: 1 -->
<svg width="314pt" height="377pt"
 viewBox="0.00 0.00 314.00 377.00" xmlns="http://www.w3.org/2000/svg" xmlns:xlink="http://www.w3.org/1999/xlink">
<g id="graph0" class="graph" transform="scale(1 1) rotate(0) translate(4 373)">
<title>FE_SimplexP_Bubbles&lt; dim, spacedim &gt;</title>
<polygon fill="white" stroke="transparent" points="-4,4 -4,-373 310,-373 310,4 -4,4"/>
<!-- Node1 -->
<g id="node1" class="node">
<title>Node1</title>
<g id="a_node1"><a xlink:title="Enriched version of FE_P that can be used with nodal quadrature.">
<polygon fill="#bfbfbf" stroke="black" points="29.5,-0.5 29.5,-30.5 146.5,-30.5 146.5,-0.5 29.5,-0.5"/>
<text text-anchor="start" x="37.5" y="-18.5" font-family="Helvetica,sans-Serif" font-size="10.00">FE_SimplexP_Bubbles</text>
<text text-anchor="middle" x="88" y="-7.5" font-family="Helvetica,sans-Serif" font-size="10.00">&lt; dim, spacedim &gt;</text>
</a>
</g>
</g>
<!-- Node2 -->
<g id="node2" class="node">
<title>Node2</title>
<g id="a_node2"><a xlink:href="classFE__Poly.html" target="_top" xlink:title=" ">
<polygon fill="white" stroke="black" points="33,-68.5 33,-87.5 143,-87.5 143,-68.5 33,-68.5"/>
<text text-anchor="middle" x="88" y="-75.5" font-family="Helvetica,sans-Serif" font-size="10.00">FE_Poly&lt; dim, dim &gt;</text>
</a>
</g>
</g>
<!-- Node2&#45;&gt;Node1 -->
<g id="edge1" class="edge">
<title>Node2&#45;&gt;Node1</title>
<path fill="none" stroke="midnightblue" d="M88,-58.22C88,-49.36 88,-38.96 88,-30.76"/>
<polygon fill="midnightblue" stroke="midnightblue" points="84.5,-58.33 88,-68.33 91.5,-58.33 84.5,-58.33"/>
</g>
<!-- Node3 -->
<g id="node3" class="node">
<title>Node3</title>
<g id="a_node3"><a xlink:href="classFiniteElement.html" target="_top" xlink:title=" ">
<polygon fill="white" stroke="black" points="0,-270.5 0,-300.5 104,-300.5 104,-270.5 0,-270.5"/>
<text text-anchor="start" x="8" y="-288.5" font-family="Helvetica,sans-Serif" font-size="10.00">FiniteElement&lt; dim,</text>
<text text-anchor="middle" x="52" y="-277.5" font-family="Helvetica,sans-Serif" font-size="10.00"> spacedim &gt;</text>
</a>
</g>
</g>
<!-- Node3&#45;&gt;Node2 -->
<g id="edge2" class="edge">
<title>Node3&#45;&gt;Node2</title>
<path fill="none" stroke="midnightblue" d="M56.21,-260.45C64.21,-214.8 81.26,-117.48 86.46,-87.78"/>
<polygon fill="midnightblue" stroke="midnightblue" points="52.75,-259.92 54.47,-270.38 59.65,-261.13 52.75,-259.92"/>
</g>
<!-- Node3&#45;&gt;Node3 -->
<g id="edge5" class="edge">
<title>Node3&#45;&gt;Node3</title>
<path fill="none" stroke="orange" stroke-dasharray="5,2" d="M114.4,-290.27C119.11,-289.21 122,-287.62 122,-285.5 122,-282.11 114.59,-280.08 104.2,-279.39"/>
<polygon fill="orange" stroke="orange" points="113.66,-286.84 104.2,-291.61 114.57,-293.78 113.66,-286.84"/>
<text text-anchor="middle" x="164.5" y="-283" font-family="Helvetica,sans-Serif" font-size="10.00"> &lt; dim, spacedim &gt;</text>
</g>
<!-- Node7 -->
<g id="node7" class="node">
<title>Node7</title>
<g id="a_node7"><a xlink:href="classFiniteElement.html" target="_top" xlink:title=" ">
<polygon fill="white" stroke="black" points="125,-192.5 125,-222.5 229,-222.5 229,-192.5 125,-192.5"/>
<text text-anchor="start" x="133" y="-210.5" font-family="Helvetica,sans-Serif" font-size="10.00">FiniteElement&lt; dim,</text>
<text text-anchor="middle" x="177" y="-199.5" font-family="Helvetica,sans-Serif" font-size="10.00"> dim &gt;</text>
</a>
</g>
</g>
<!-- Node3&#45;&gt;Node7 -->
<g id="edge10" class="edge">
<title>Node3&#45;&gt;Node7</title>
<path fill="none" stroke="orange" stroke-dasharray="5,2" d="M83.83,-265.14C105.7,-251.85 134.21,-234.52 153.91,-222.54"/>
<polygon fill="orange" stroke="orange" points="81.94,-262.2 75.22,-270.38 85.58,-268.18 81.94,-262.2"/>
<text text-anchor="middle" x="150.5" y="-244" font-family="Helvetica,sans-Serif" font-size="10.00"> &lt; dim, dim &gt;</text>
</g>
<!-- Node4 -->
<g id="node4" class="node">
<title>Node4</title>
<g id="a_node4"><a xlink:href="classSubscriptor.html" target="_top" xlink:title=" ">
<polygon fill="white" stroke="black" points="240,-344 240,-363 306,-363 306,-344 240,-344"/>
<text text-anchor="middle" x="273" y="-351" font-family="Helvetica,sans-Serif" font-size="10.00">Subscriptor</text>
</a>
</g>
</g>
<!-- Node4&#45;&gt;Node3 -->
<g id="edge3" class="edge">
<title>Node4&#45;&gt;Node3</title>
<path fill="none" stroke="midnightblue" d="M234.51,-341.01C196.85,-329.76 139.42,-312.61 99.07,-300.56"/>
<polygon fill="midnightblue" stroke="midnightblue" points="233.52,-344.36 244.11,-343.87 235.53,-337.66 233.52,-344.36"/>
</g>
<!-- Node4&#45;&gt;Node7 -->
<g id="edge8" class="edge">
<title>Node4&#45;&gt;Node7</title>
<path fill="none" stroke="midnightblue" d="M267.83,-334.13C260.53,-310.63 245.43,-269.55 222,-241 216.25,-234 208.66,-227.76 201.35,-222.66"/>
<polygon fill="midnightblue" stroke="midnightblue" points="264.51,-335.26 270.71,-343.85 271.22,-333.27 264.51,-335.26"/>
</g>
<!-- Node5 -->
<g id="node5" class="node">
<title>Node5</title>
<g id="a_node5"><a xlink:href="classFiniteElementData.html" target="_top" xlink:title=" ">
<polygon fill="white" stroke="black" points="86,-338.5 86,-368.5 190,-368.5 190,-338.5 86,-338.5"/>
<text text-anchor="start" x="94" y="-356.5" font-family="Helvetica,sans-Serif" font-size="10.00">FiniteElementData&lt;</text>
<text text-anchor="middle" x="138" y="-345.5" font-family="Helvetica,sans-Serif" font-size="10.00"> dim &gt;</text>
</a>
</g>
</g>
<!-- Node5&#45;&gt;Node3 -->
<g id="edge4" class="edge">
<title>Node5&#45;&gt;Node3</title>
<path fill="none" stroke="midnightblue" d="M111.04,-331.81C97.79,-321.64 82.17,-309.66 70.33,-300.57"/>
<polygon fill="midnightblue" stroke="midnightblue" points="109.28,-334.87 119.34,-338.18 113.54,-329.31 109.28,-334.87"/>
</g>
<!-- Node5&#45;&gt;Node7 -->
<g id="edge9" class="edge">
<title>Node5&#45;&gt;Node7</title>
<path fill="none" stroke="midnightblue" d="M182.72,-333.34C195.84,-325.36 208.63,-314.7 216,-301 230.37,-274.3 207.19,-241.16 190.86,-222.67"/>
<polygon fill="midnightblue" stroke="midnightblue" points="180.65,-330.49 173.65,-338.44 184.08,-336.59 180.65,-330.49"/>
</g>
<!-- Node6 -->
<g id="node6" class="node">
<title>Node6</title>
<g id="a_node6"><a xlink:href="classFE__Poly.html" target="_top" xlink:title=" ">
<polygon fill="white" stroke="black" points="105,-135.5 105,-154.5 241,-154.5 241,-135.5 105,-135.5"/>
<text text-anchor="middle" x="173" y="-142.5" font-family="Helvetica,sans-Serif" font-size="10.00">FE_Poly&lt; dim, spacedim &gt;</text>
</a>
</g>
</g>
<!-- Node6&#45;&gt;Node2 -->
<g id="edge6" class="edge">
<title>Node6&#45;&gt;Node2</title>
<path fill="none" stroke="orange" stroke-dasharray="5,2" d="M153.47,-129.07C136.7,-116.24 113.09,-98.19 99.28,-87.63"/>
<polygon fill="orange" stroke="orange" points="151.47,-131.94 161.54,-135.23 155.72,-126.38 151.47,-131.94"/>
<text text-anchor="middle" x="164.5" y="-109" font-family="Helvetica,sans-Serif" font-size="10.00"> &lt; dim, dim &gt;</text>
</g>
<!-- Node7&#45;&gt;Node6 -->
<g id="edge7" class="edge">
<title>Node7&#45;&gt;Node6</title>
<path fill="none" stroke="midnightblue" d="M175.4,-182.35C174.75,-172.51 174.04,-161.78 173.56,-154.54"/>
<polygon fill="midnightblue" stroke="midnightblue" points="171.92,-182.72 176.07,-192.47 178.9,-182.26 171.92,-182.72"/>
</g>
</g>
</svg>
