<?xml version="1.0" encoding="UTF-8" standalone="no"?>
<!DOCTYPE svg PUBLIC "-//W3C//DTD SVG 1.1//EN"
 "http://www.w3.org/Graphics/SVG/1.1/DTD/svg11.dtd">
<!-- Generated by graphviz version 2.47.1 (20210417.1919)
 -->
<!-- Title: LinearIndexIterator&lt; DerivedIterator, AccessorType &gt; Pages: 1 -->
<svg width="642pt" height="123pt"
 viewBox="0.00 0.00 642.00 122.50" xmlns="http://www.w3.org/2000/svg" xmlns:xlink="http://www.w3.org/1999/xlink">
<g id="graph0" class="graph" transform="scale(1 1) rotate(0) translate(4 118.5)">
<title>LinearIndexIterator&lt; DerivedIterator, AccessorType &gt;</title>
<polygon fill="white" stroke="transparent" points="-4,4 -4,-118.5 638,-118.5 638,4 -4,4"/>
<!-- Node1 -->
<g id="node1" class="node">
<title>Node1</title>
<g id="a_node1"><a xlink:title=" ">
<polygon fill="#bfbfbf" stroke="black" points="0,-28 0,-69 136,-69 136,-28 0,-28"/>
<text text-anchor="start" x="8" y="-57" font-family="Helvetica,sans-Serif" font-size="10.00">LinearIndexIterator</text>
<text text-anchor="start" x="8" y="-46" font-family="Helvetica,sans-Serif" font-size="10.00">&lt; DerivedIterator, Accessor</text>
<text text-anchor="middle" x="68" y="-35" font-family="Helvetica,sans-Serif" font-size="10.00">Type &gt;</text>
</a>
</g>
</g>
<!-- Node2 -->
<g id="node2" class="node">
<title>Node2</title>
<g id="a_node2"><a xlink:href="classLinearIndexIterator.html" target="_top" xlink:title=" ">
<polygon fill="white" stroke="black" points="306,-50 306,-113 456,-113 456,-50 306,-50"/>
<text text-anchor="start" x="314" y="-101" font-family="Helvetica,sans-Serif" font-size="10.00">LinearIndexIterator</text>
<text text-anchor="start" x="314" y="-90" font-family="Helvetica,sans-Serif" font-size="10.00">&lt; Iterator&lt; TableType,</text>
<text text-anchor="start" x="314" y="-79" font-family="Helvetica,sans-Serif" font-size="10.00"> Constness, storage_order</text>
<text text-anchor="start" x="314" y="-68" font-family="Helvetica,sans-Serif" font-size="10.00"> &gt;, Accessor&lt; TableType,</text>
<text text-anchor="middle" x="381" y="-57" font-family="Helvetica,sans-Serif" font-size="10.00"> Constness, storage_order &gt; &gt;</text>
</a>
</g>
</g>
<!-- Node1&#45;&gt;Node2 -->
<g id="edge1" class="edge">
<title>Node1&#45;&gt;Node2</title>
<path fill="none" stroke="orange" stroke-dasharray="5,2" d="M146.29,-56.7C195.09,-61.88 257.78,-68.53 305.95,-73.64"/>
<polygon fill="orange" stroke="orange" points="146.41,-53.19 136.1,-55.62 145.67,-60.16 146.41,-53.19"/>
<text text-anchor="start" x="154" y="-106.5" font-family="Helvetica,sans-Serif" font-size="10.00"> &lt; Iterator&lt; TableType,</text>
<text text-anchor="start" x="154" y="-95.5" font-family="Helvetica,sans-Serif" font-size="10.00"> Constness, storage_order</text>
<text text-anchor="start" x="154" y="-84.5" font-family="Helvetica,sans-Serif" font-size="10.00"> &gt;, Accessor&lt; TableType,</text>
<text text-anchor="middle" x="221" y="-73.5" font-family="Helvetica,sans-Serif" font-size="10.00"> Constness, storage_order &gt; &gt;</text>
</g>
<!-- Node4 -->
<g id="node4" class="node">
<title>Node4</title>
<g id="a_node4"><a xlink:href="classLinearIndexIterator.html" target="_top" xlink:title=" ">
<polygon fill="white" stroke="black" points="325.5,-0.5 325.5,-30.5 436.5,-30.5 436.5,-0.5 325.5,-0.5"/>
<text text-anchor="start" x="333.5" y="-18.5" font-family="Helvetica,sans-Serif" font-size="10.00">LinearIndexIterator</text>
<text text-anchor="middle" x="381" y="-7.5" font-family="Helvetica,sans-Serif" font-size="10.00">&lt; Iterator, Accessor &gt;</text>
</a>
</g>
</g>
<!-- Node1&#45;&gt;Node4 -->
<g id="edge3" class="edge">
<title>Node1&#45;&gt;Node4</title>
<path fill="none" stroke="orange" stroke-dasharray="5,2" d="M146.28,-40.3C201.99,-34.39 275.8,-26.56 325.44,-21.29"/>
<polygon fill="orange" stroke="orange" points="145.67,-36.84 136.1,-41.38 146.41,-43.81 145.67,-36.84"/>
<text text-anchor="middle" x="221" y="-42.5" font-family="Helvetica,sans-Serif" font-size="10.00"> &lt; Iterator, Accessor &gt;</text>
</g>
<!-- Node3 -->
<g id="node3" class="node">
<title>Node3</title>
<g id="a_node3"><a xlink:href="classMatrixTableIterators_1_1Iterator.html" target="_top" xlink:title="Iterator class for both matrix&#45;like tables, i.e., Table&lt;2, T&gt; and TransposeTable.">
<polygon fill="white" stroke="black" points="493,-61 493,-102 634,-102 634,-61 493,-61"/>
<text text-anchor="start" x="501" y="-90" font-family="Helvetica,sans-Serif" font-size="10.00">MatrixTableIterators</text>
<text text-anchor="start" x="501" y="-79" font-family="Helvetica,sans-Serif" font-size="10.00">::Iterator&lt; TableType,</text>
<text text-anchor="middle" x="563.5" y="-68" font-family="Helvetica,sans-Serif" font-size="10.00"> Constness, storage_order &gt;</text>
</a>
</g>
</g>
<!-- Node2&#45;&gt;Node3 -->
<g id="edge2" class="edge">
<title>Node2&#45;&gt;Node3</title>
<path fill="none" stroke="midnightblue" d="M466.24,-81.5C475.18,-81.5 484.2,-81.5 492.94,-81.5"/>
<polygon fill="midnightblue" stroke="midnightblue" points="466.2,-78 456.2,-81.5 466.2,-85 466.2,-78"/>
</g>
<!-- Node5 -->
<g id="node5" class="node">
<title>Node5</title>
<g id="a_node5"><a xlink:href="classSparsityPatternIterators_1_1Iterator.html" target="_top" xlink:title=" ">
<polygon fill="white" stroke="black" points="503.5,-0.5 503.5,-30.5 623.5,-30.5 623.5,-0.5 503.5,-0.5"/>
<text text-anchor="start" x="511.5" y="-18.5" font-family="Helvetica,sans-Serif" font-size="10.00">SparsityPatternIterators</text>
<text text-anchor="middle" x="563.5" y="-7.5" font-family="Helvetica,sans-Serif" font-size="10.00">::Iterator</text>
</a>
</g>
</g>
<!-- Node4&#45;&gt;Node5 -->
<g id="edge4" class="edge">
<title>Node4&#45;&gt;Node5</title>
<path fill="none" stroke="midnightblue" d="M446.72,-15.5C465.19,-15.5 485.21,-15.5 503.33,-15.5"/>
<polygon fill="midnightblue" stroke="midnightblue" points="446.65,-12 436.65,-15.5 446.65,-19 446.65,-12"/>
</g>
</g>
</svg>
