<?xml version="1.0" encoding="UTF-8" standalone="no"?>
<!DOCTYPE svg PUBLIC "-//W3C//DTD SVG 1.1//EN"
 "http://www.w3.org/Graphics/SVG/1.1/DTD/svg11.dtd">
<!-- Generated by graphviz version 2.47.1 (20210417.1919)
 -->
<!-- Title: internal::MappingQGenericImplementation::InverseQuadraticApproximation&lt; dim, spacedim &gt; Pages: 1 -->
<svg width="431pt" height="50pt"
 viewBox="0.00 0.00 431.00 50.00" xmlns="http://www.w3.org/2000/svg" xmlns:xlink="http://www.w3.org/1999/xlink">
<g id="graph0" class="graph" transform="scale(1 1) rotate(0) translate(4 46)">
<title>internal::MappingQGenericImplementation::InverseQuadraticApproximation&lt; dim, spacedim &gt;</title>
<polygon fill="white" stroke="transparent" points="-4,4 -4,-46 427,-46 427,4 -4,4"/>
<!-- Node1 -->
<g id="node1" class="node">
<title>Node1</title>
<g id="a_node1"><a xlink:title=" ">
<polygon fill="#bfbfbf" stroke="black" points="0,-0.5 0,-41.5 164,-41.5 164,-0.5 0,-0.5"/>
<text text-anchor="start" x="8" y="-29.5" font-family="Helvetica,sans-Serif" font-size="10.00">internal::MappingQGeneric</text>
<text text-anchor="start" x="8" y="-18.5" font-family="Helvetica,sans-Serif" font-size="10.00">Implementation::InverseQuadratic</text>
<text text-anchor="middle" x="82" y="-7.5" font-family="Helvetica,sans-Serif" font-size="10.00">Approximation&lt; dim, spacedim &gt;</text>
</a>
</g>
</g>
<!-- Node2 -->
<g id="node2" class="node">
<title>Node2</title>
<g id="a_node2"><a xlink:href="classinternal_1_1MappingQGenericImplementation_1_1InverseQuadraticApproximation.html" target="_top" xlink:title=" ">
<polygon fill="white" stroke="black" points="259,-0.5 259,-41.5 423,-41.5 423,-0.5 259,-0.5"/>
<text text-anchor="start" x="267" y="-29.5" font-family="Helvetica,sans-Serif" font-size="10.00">internal::MappingQGeneric</text>
<text text-anchor="start" x="267" y="-18.5" font-family="Helvetica,sans-Serif" font-size="10.00">Implementation::InverseQuadratic</text>
<text text-anchor="middle" x="341" y="-7.5" font-family="Helvetica,sans-Serif" font-size="10.00">Approximation&lt; dim, dim &gt;</text>
</a>
</g>
</g>
<!-- Node1&#45;&gt;Node2 -->
<g id="edge1" class="edge">
<title>Node1&#45;&gt;Node2</title>
<path fill="none" stroke="orange" stroke-dasharray="5,2" d="M174.34,-21C201.89,-21 231.93,-21 258.77,-21"/>
<polygon fill="orange" stroke="orange" points="174.32,-17.5 164.32,-21 174.32,-24.5 174.32,-17.5"/>
<text text-anchor="middle" x="211.5" y="-24" font-family="Helvetica,sans-Serif" font-size="10.00"> &lt; dim, dim &gt;</text>
</g>
</g>
</svg>
