<?xml version="1.0" encoding="UTF-8" standalone="no"?>
<!DOCTYPE svg PUBLIC "-//W3C//DTD SVG 1.1//EN"
 "http://www.w3.org/Graphics/SVG/1.1/DTD/svg11.dtd">
<!-- Generated by graphviz version 2.47.1 (20210417.1919)
 -->
<!-- Title: MappingQGeneric&lt; dim, spacedim &gt; Pages: 1 -->
<svg width="1011pt" height="146pt"
 viewBox="0.00 0.00 1011.00 146.00" xmlns="http://www.w3.org/2000/svg" xmlns:xlink="http://www.w3.org/1999/xlink">
<g id="graph0" class="graph" transform="scale(1 1) rotate(0) translate(4 142)">
<title>MappingQGeneric&lt; dim, spacedim &gt;</title>
<polygon fill="white" stroke="transparent" points="-4,4 -4,-142 1007,-142 1007,4 -4,4"/>
<!-- Node1 -->
<g id="node1" class="node">
<title>Node1</title>
<g id="a_node1"><a xlink:title=" ">
<polygon fill="#bfbfbf" stroke="black" points="479,-49.5 479,-79.5 601,-79.5 601,-49.5 479,-49.5"/>
<text text-anchor="start" x="487" y="-67.5" font-family="Helvetica,sans-Serif" font-size="10.00">MappingQGeneric&lt; dim,</text>
<text text-anchor="middle" x="540" y="-56.5" font-family="Helvetica,sans-Serif" font-size="10.00"> spacedim &gt;</text>
</a>
</g>
</g>
<!-- Node1&#45;&gt;Node1 -->
<g id="edge5" class="edge">
<title>Node1&#45;&gt;Node1</title>
<path fill="none" stroke="orange" stroke-dasharray="5,2" d="M533.07,-89.96C533.93,-94.68 536.24,-98 540,-98 546.17,-98 548.44,-89.06 546.8,-79.66"/>
<polygon fill="orange" stroke="orange" points="536.57,-89.7 533.2,-79.66 529.57,-89.61 536.57,-89.7"/>
<text text-anchor="middle" x="540" y="-101" font-family="Helvetica,sans-Serif" font-size="10.00"> &lt; dim, spacedim &gt;</text>
</g>
<!-- Node1&#45;&gt;Node1 -->
<g id="edge6" class="edge">
<title>Node1&#45;&gt;Node1</title>
<path fill="none" stroke="orange" stroke-dasharray="5,2" d="M526.12,-89.19C523.43,-103.12 528.06,-116 540,-116 554.7,-116 558.32,-96.49 550.85,-79.53"/>
<polygon fill="orange" stroke="orange" points="529.49,-90.11 529.15,-79.53 522.81,-88.02 529.49,-90.11"/>
<text text-anchor="middle" x="540" y="-119" font-family="Helvetica,sans-Serif" font-size="10.00"> &lt; dim, spacedim &gt;</text>
</g>
<!-- Node5 -->
<g id="node5" class="node">
<title>Node5</title>
<g id="a_node5"><a xlink:href="classMappingQGeneric.html" target="_top" xlink:title=" ">
<polygon fill="white" stroke="black" points="696,-49.5 696,-79.5 818,-79.5 818,-49.5 696,-49.5"/>
<text text-anchor="start" x="704" y="-67.5" font-family="Helvetica,sans-Serif" font-size="10.00">MappingQGeneric&lt; dim,</text>
<text text-anchor="middle" x="757" y="-56.5" font-family="Helvetica,sans-Serif" font-size="10.00"> dim &gt;</text>
</a>
</g>
</g>
<!-- Node1&#45;&gt;Node5 -->
<g id="edge7" class="edge">
<title>Node1&#45;&gt;Node5</title>
<path fill="none" stroke="orange" stroke-dasharray="5,2" d="M611.44,-64.5C638.72,-64.5 669.62,-64.5 695.84,-64.5"/>
<polygon fill="orange" stroke="orange" points="611.18,-61 601.18,-64.5 611.18,-68 611.18,-61"/>
<text text-anchor="middle" x="648.5" y="-67.5" font-family="Helvetica,sans-Serif" font-size="10.00"> &lt; dim, dim &gt;</text>
</g>
<!-- Node2 -->
<g id="node2" class="node">
<title>Node2</title>
<g id="a_node2"><a xlink:href="classMapping.html" target="_top" xlink:title=" ">
<polygon fill="white" stroke="black" points="333,-55 333,-74 442,-74 442,-55 333,-55"/>
<text text-anchor="middle" x="387.5" y="-62" font-family="Helvetica,sans-Serif" font-size="10.00">Mapping&lt; dim, dim &gt;</text>
</a>
</g>
</g>
<!-- Node2&#45;&gt;Node1 -->
<g id="edge1" class="edge">
<title>Node2&#45;&gt;Node1</title>
<path fill="none" stroke="midnightblue" d="M452.52,-64.5C461.25,-64.5 470.17,-64.5 478.83,-64.5"/>
<polygon fill="midnightblue" stroke="midnightblue" points="452.41,-61 442.41,-64.5 452.41,-68 452.41,-61"/>
</g>
<!-- Node3 -->
<g id="node3" class="node">
<title>Node3</title>
<g id="a_node3"><a xlink:href="classSubscriptor.html" target="_top" xlink:title=" ">
<polygon fill="white" stroke="black" points="0,-52 0,-71 66,-71 66,-52 0,-52"/>
<text text-anchor="middle" x="33" y="-59" font-family="Helvetica,sans-Serif" font-size="10.00">Subscriptor</text>
</a>
</g>
</g>
<!-- Node3&#45;&gt;Node2 -->
<g id="edge2" class="edge">
<title>Node3&#45;&gt;Node2</title>
<path fill="none" stroke="midnightblue" d="M76.29,-66.03C78.9,-66.21 81.48,-66.37 84,-66.5 186.54,-71.61 212.34,-67.94 315,-66.5 320.71,-66.42 326.68,-66.3 332.63,-66.17"/>
<polygon fill="midnightblue" stroke="midnightblue" points="76.49,-62.53 66.24,-65.2 75.92,-69.51 76.49,-62.53"/>
</g>
<!-- Node4 -->
<g id="node4" class="node">
<title>Node4</title>
<g id="a_node4"><a xlink:href="classMapping.html" target="_top" xlink:title="Abstract base class for mapping classes.">
<polygon fill="white" stroke="black" points="103,-33 103,-52 238,-52 238,-33 103,-33"/>
<text text-anchor="middle" x="170.5" y="-40" font-family="Helvetica,sans-Serif" font-size="10.00">Mapping&lt; dim, spacedim &gt;</text>
</a>
</g>
</g>
<!-- Node3&#45;&gt;Node4 -->
<g id="edge4" class="edge">
<title>Node3&#45;&gt;Node4</title>
<path fill="none" stroke="midnightblue" d="M76.15,-55.59C84.68,-54.39 93.84,-53.11 102.97,-51.83"/>
<polygon fill="midnightblue" stroke="midnightblue" points="75.53,-52.14 66.11,-57 76.5,-59.07 75.53,-52.14"/>
</g>
<!-- Node4&#45;&gt;Node2 -->
<g id="edge3" class="edge">
<title>Node4&#45;&gt;Node2</title>
<path fill="none" stroke="orange" stroke-dasharray="5,2" d="M248.44,-48.97C269.99,-50.92 293.42,-53.17 315,-55.5 320.72,-56.12 326.7,-56.81 332.65,-57.52"/>
<polygon fill="orange" stroke="orange" points="248.62,-45.47 238.35,-48.07 248,-52.45 248.62,-45.47"/>
<text text-anchor="middle" x="285.5" y="-58.5" font-family="Helvetica,sans-Serif" font-size="10.00"> &lt; dim, dim &gt;</text>
</g>
<!-- Node6 -->
<g id="node6" class="node">
<title>Node6</title>
<g id="a_node6"><a xlink:href="classMappingQ1.html" target="_top" xlink:title=" ">
<polygon fill="white" stroke="black" points="855,-99 855,-118 1003,-118 1003,-99 855,-99"/>
<text text-anchor="middle" x="929" y="-106" font-family="Helvetica,sans-Serif" font-size="10.00">MappingQ1&lt; dim, spacedim &gt;</text>
</a>
</g>
</g>
<!-- Node5&#45;&gt;Node6 -->
<g id="edge8" class="edge">
<title>Node5&#45;&gt;Node6</title>
<path fill="none" stroke="midnightblue" d="M825.81,-82.05C848.15,-87.83 872.13,-94.04 891.25,-98.99"/>
<polygon fill="midnightblue" stroke="midnightblue" points="826.59,-78.64 816.03,-79.52 824.83,-85.41 826.59,-78.64"/>
</g>
<!-- Node7 -->
<g id="node7" class="node">
<title>Node7</title>
<g id="a_node7"><a xlink:href="classMappingQ1Eulerian.html" target="_top" xlink:title=" ">
<polygon fill="white" stroke="black" points="855,-49.5 855,-79.5 1003,-79.5 1003,-49.5 855,-49.5"/>
<text text-anchor="start" x="863" y="-67.5" font-family="Helvetica,sans-Serif" font-size="10.00">MappingQ1Eulerian&lt;</text>
<text text-anchor="middle" x="929" y="-56.5" font-family="Helvetica,sans-Serif" font-size="10.00"> dim, VectorType, spacedim &gt;</text>
</a>
</g>
</g>
<!-- Node5&#45;&gt;Node7 -->
<g id="edge9" class="edge">
<title>Node5&#45;&gt;Node7</title>
<path fill="none" stroke="midnightblue" d="M828.54,-64.5C837.27,-64.5 846.21,-64.5 854.97,-64.5"/>
<polygon fill="midnightblue" stroke="midnightblue" points="828.41,-61 818.41,-64.5 828.41,-68 828.41,-61"/>
</g>
<!-- Node8 -->
<g id="node8" class="node">
<title>Node8</title>
<g id="a_node8"><a xlink:href="classMappingQCache.html" target="_top" xlink:title=" ">
<polygon fill="white" stroke="black" points="870.5,-0.5 870.5,-30.5 987.5,-30.5 987.5,-0.5 870.5,-0.5"/>
<text text-anchor="start" x="878.5" y="-18.5" font-family="Helvetica,sans-Serif" font-size="10.00">MappingQCache&lt; dim,</text>
<text text-anchor="middle" x="929" y="-7.5" font-family="Helvetica,sans-Serif" font-size="10.00"> spacedim &gt;</text>
</a>
</g>
</g>
<!-- Node5&#45;&gt;Node8 -->
<g id="edge10" class="edge">
<title>Node5&#45;&gt;Node8</title>
<path fill="none" stroke="midnightblue" d="M820.08,-46.61C838.37,-41.34 858.18,-35.62 875.78,-30.55"/>
<polygon fill="midnightblue" stroke="midnightblue" points="819.03,-43.27 810.39,-49.4 820.97,-49.99 819.03,-43.27"/>
</g>
</g>
</svg>
