<?xml version="1.0" encoding="UTF-8" standalone="no"?>
<!DOCTYPE svg PUBLIC "-//W3C//DTD SVG 1.1//EN"
 "http://www.w3.org/Graphics/SVG/1.1/DTD/svg11.dtd">
<!-- Generated by graphviz version 2.47.1 (20210417.1919)
 -->
<!-- Title: FE_SimplexDGP&lt; dim, spacedim &gt; Pages: 1 -->
<svg width="330pt" height="445pt"
 viewBox="0.00 0.00 330.00 445.00" xmlns="http://www.w3.org/2000/svg" xmlns:xlink="http://www.w3.org/1999/xlink">
<g id="graph0" class="graph" transform="scale(1 1) rotate(0) translate(4 441)">
<title>FE_SimplexDGP&lt; dim, spacedim &gt;</title>
<polygon fill="white" stroke="transparent" points="-4,4 -4,-441 326,-441 326,4 -4,4"/>
<!-- Node1 -->
<g id="node1" class="node">
<title>Node1</title>
<g id="a_node1"><a xlink:title=" ">
<polygon fill="#bfbfbf" stroke="black" points="24.5,-0.5 24.5,-30.5 143.5,-30.5 143.5,-0.5 24.5,-0.5"/>
<text text-anchor="start" x="32.5" y="-18.5" font-family="Helvetica,sans-Serif" font-size="10.00">FE_SimplexDGP&lt; dim,</text>
<text text-anchor="middle" x="84" y="-7.5" font-family="Helvetica,sans-Serif" font-size="10.00"> spacedim &gt;</text>
</a>
</g>
</g>
<!-- Node2 -->
<g id="node2" class="node">
<title>Node2</title>
<g id="a_node2"><a xlink:href="classFE__SimplexPoly.html" target="_top" xlink:title=" ">
<polygon fill="white" stroke="black" points="25.5,-68.5 25.5,-98.5 142.5,-98.5 142.5,-68.5 25.5,-68.5"/>
<text text-anchor="start" x="33.5" y="-86.5" font-family="Helvetica,sans-Serif" font-size="10.00">FE_SimplexPoly&lt; dim,</text>
<text text-anchor="middle" x="84" y="-75.5" font-family="Helvetica,sans-Serif" font-size="10.00"> dim &gt;</text>
</a>
</g>
</g>
<!-- Node2&#45;&gt;Node1 -->
<g id="edge1" class="edge">
<title>Node2&#45;&gt;Node1</title>
<path fill="none" stroke="midnightblue" d="M84,-58.03C84,-48.86 84,-38.74 84,-30.79"/>
<polygon fill="midnightblue" stroke="midnightblue" points="80.5,-58.18 84,-68.18 87.5,-58.18 80.5,-58.18"/>
</g>
<!-- Node3 -->
<g id="node3" class="node">
<title>Node3</title>
<g id="a_node3"><a xlink:href="classFE__Poly.html" target="_top" xlink:title=" ">
<polygon fill="white" stroke="black" points="0,-281.5 0,-300.5 136,-300.5 136,-281.5 0,-281.5"/>
<text text-anchor="middle" x="68" y="-288.5" font-family="Helvetica,sans-Serif" font-size="10.00">FE_Poly&lt; dim, spacedim &gt;</text>
</a>
</g>
</g>
<!-- Node3&#45;&gt;Node2 -->
<g id="edge2" class="edge">
<title>Node3&#45;&gt;Node2</title>
<path fill="none" stroke="midnightblue" d="M69.45,-271.32C72.62,-230.69 80.07,-135.02 82.89,-98.77"/>
<polygon fill="midnightblue" stroke="midnightblue" points="65.95,-271.19 68.67,-281.43 72.93,-271.73 65.95,-271.19"/>
</g>
<!-- Node3&#45;&gt;Node3 -->
<g id="edge7" class="edge">
<title>Node3&#45;&gt;Node3</title>
<path fill="none" stroke="orange" stroke-dasharray="5,2" d="M146.1,-294.69C151.03,-293.83 154,-292.59 154,-291 154,-288.51 146.76,-286.91 136.13,-286.19"/>
<polygon fill="orange" stroke="orange" points="145.68,-291.22 136.13,-295.81 146.46,-298.17 145.68,-291.22"/>
<text text-anchor="middle" x="196.5" y="-288.5" font-family="Helvetica,sans-Serif" font-size="10.00"> &lt; dim, spacedim &gt;</text>
</g>
<!-- Node8 -->
<g id="node8" class="node">
<title>Node8</title>
<g id="a_node8"><a xlink:href="classFE__Poly.html" target="_top" xlink:title=" ">
<polygon fill="white" stroke="black" points="100,-214.5 100,-233.5 210,-233.5 210,-214.5 100,-214.5"/>
<text text-anchor="middle" x="155" y="-221.5" font-family="Helvetica,sans-Serif" font-size="10.00">FE_Poly&lt; dim, dim &gt;</text>
</a>
</g>
</g>
<!-- Node3&#45;&gt;Node8 -->
<g id="edge11" class="edge">
<title>Node3&#45;&gt;Node8</title>
<path fill="none" stroke="orange" stroke-dasharray="5,2" d="M87.99,-275.07C105.16,-262.24 129.32,-244.19 143.45,-233.63"/>
<polygon fill="orange" stroke="orange" points="85.65,-272.44 79.73,-281.23 89.84,-278.05 85.65,-272.44"/>
<text text-anchor="middle" x="146.5" y="-255" font-family="Helvetica,sans-Serif" font-size="10.00"> &lt; dim, dim &gt;</text>
</g>
<!-- Node4 -->
<g id="node4" class="node">
<title>Node4</title>
<g id="a_node4"><a xlink:href="classFiniteElement.html" target="_top" xlink:title=" ">
<polygon fill="white" stroke="black" points="115,-338.5 115,-368.5 219,-368.5 219,-338.5 115,-338.5"/>
<text text-anchor="start" x="123" y="-356.5" font-family="Helvetica,sans-Serif" font-size="10.00">FiniteElement&lt; dim,</text>
<text text-anchor="middle" x="167" y="-345.5" font-family="Helvetica,sans-Serif" font-size="10.00"> spacedim &gt;</text>
</a>
</g>
</g>
<!-- Node4&#45;&gt;Node3 -->
<g id="edge3" class="edge">
<title>Node4&#45;&gt;Node3</title>
<path fill="none" stroke="midnightblue" d="M135.05,-332.98C117.14,-322.03 95.7,-308.93 81.97,-300.54"/>
<polygon fill="midnightblue" stroke="midnightblue" points="133.68,-336.24 144.04,-338.47 137.33,-330.27 133.68,-336.24"/>
</g>
<!-- Node4&#45;&gt;Node4 -->
<g id="edge6" class="edge">
<title>Node4&#45;&gt;Node4</title>
<path fill="none" stroke="orange" stroke-dasharray="5,2" d="M229.4,-358.27C234.11,-357.21 237,-355.62 237,-353.5 237,-350.11 229.59,-348.08 219.2,-347.39"/>
<polygon fill="orange" stroke="orange" points="228.66,-354.84 219.2,-359.61 229.57,-361.78 228.66,-354.84"/>
<text text-anchor="middle" x="279.5" y="-351" font-family="Helvetica,sans-Serif" font-size="10.00"> &lt; dim, spacedim &gt;</text>
</g>
<!-- Node4&#45;&gt;Node8 -->
<g id="edge10" class="edge">
<title>Node4&#45;&gt;Node8</title>
<path fill="none" stroke="midnightblue" d="M213.3,-334.06C237.73,-321.33 260.33,-302.82 248,-281 234.28,-256.72 205.34,-241.79 183.36,-233.52"/>
<polygon fill="midnightblue" stroke="midnightblue" points="211.72,-330.93 204.28,-338.47 214.8,-337.22 211.72,-330.93"/>
</g>
<!-- Node5 -->
<g id="node5" class="node">
<title>Node5</title>
<g id="a_node5"><a xlink:href="classSubscriptor.html" target="_top" xlink:title=" ">
<polygon fill="white" stroke="black" points="83,-412 83,-431 149,-431 149,-412 83,-412"/>
<text text-anchor="middle" x="116" y="-419" font-family="Helvetica,sans-Serif" font-size="10.00">Subscriptor</text>
</a>
</g>
</g>
<!-- Node5&#45;&gt;Node4 -->
<g id="edge4" class="edge">
<title>Node5&#45;&gt;Node4</title>
<path fill="none" stroke="midnightblue" d="M129.02,-403.65C137.38,-392.83 148.12,-378.94 156.04,-368.68"/>
<polygon fill="midnightblue" stroke="midnightblue" points="126.01,-401.82 122.67,-411.87 131.55,-406.1 126.01,-401.82"/>
</g>
<!-- Node6 -->
<g id="node6" class="node">
<title>Node6</title>
<g id="a_node6"><a xlink:href="classFiniteElementData.html" target="_top" xlink:title=" ">
<polygon fill="white" stroke="black" points="167,-406.5 167,-436.5 271,-436.5 271,-406.5 167,-406.5"/>
<text text-anchor="start" x="175" y="-424.5" font-family="Helvetica,sans-Serif" font-size="10.00">FiniteElementData&lt;</text>
<text text-anchor="middle" x="219" y="-413.5" font-family="Helvetica,sans-Serif" font-size="10.00"> dim &gt;</text>
</a>
</g>
</g>
<!-- Node6&#45;&gt;Node4 -->
<g id="edge5" class="edge">
<title>Node6&#45;&gt;Node4</title>
<path fill="none" stroke="midnightblue" d="M201.36,-398.11C193.72,-388.41 185,-377.35 178.26,-368.79"/>
<polygon fill="midnightblue" stroke="midnightblue" points="198.78,-400.49 207.72,-406.18 204.28,-396.16 198.78,-400.49"/>
</g>
<!-- Node7 -->
<g id="node7" class="node">
<title>Node7</title>
<g id="a_node7"><a xlink:href="classFE__SimplexPoly.html" target="_top" xlink:title=" ">
<polygon fill="white" stroke="black" points="96.5,-146.5 96.5,-176.5 213.5,-176.5 213.5,-146.5 96.5,-146.5"/>
<text text-anchor="start" x="104.5" y="-164.5" font-family="Helvetica,sans-Serif" font-size="10.00">FE_SimplexPoly&lt; dim,</text>
<text text-anchor="middle" x="155" y="-153.5" font-family="Helvetica,sans-Serif" font-size="10.00"> spacedim &gt;</text>
</a>
</g>
</g>
<!-- Node7&#45;&gt;Node2 -->
<g id="edge8" class="edge">
<title>Node7&#45;&gt;Node2</title>
<path fill="none" stroke="orange" stroke-dasharray="5,2" d="M134.61,-138.67C122.61,-125.83 107.79,-109.97 97.29,-98.73"/>
<polygon fill="orange" stroke="orange" points="132.26,-141.29 141.65,-146.2 137.38,-136.51 132.26,-141.29"/>
<text text-anchor="middle" x="153.5" y="-120" font-family="Helvetica,sans-Serif" font-size="10.00"> &lt; dim, dim &gt;</text>
</g>
<!-- Node8&#45;&gt;Node7 -->
<g id="edge9" class="edge">
<title>Node8&#45;&gt;Node7</title>
<path fill="none" stroke="midnightblue" d="M155,-204.22C155,-195.36 155,-184.96 155,-176.76"/>
<polygon fill="midnightblue" stroke="midnightblue" points="151.5,-204.33 155,-214.33 158.5,-204.33 151.5,-204.33"/>
</g>
</g>
</svg>
