<?xml version="1.0" encoding="UTF-8" standalone="no"?>
<!DOCTYPE svg PUBLIC "-//W3C//DTD SVG 1.1//EN"
 "http://www.w3.org/Graphics/SVG/1.1/DTD/svg11.dtd">
<!-- Generated by graphviz version 2.47.1 (20210417.1919)
 -->
<!-- Title: OpenCASCADE::ArclengthProjectionLineManifold&lt; dim, spacedim &gt; Pages: 1 -->
<svg width="233pt" height="366pt"
 viewBox="0.00 0.00 233.00 366.00" xmlns="http://www.w3.org/2000/svg" xmlns:xlink="http://www.w3.org/1999/xlink">
<g id="graph0" class="graph" transform="scale(1 1) rotate(0) translate(4 362)">
<title>OpenCASCADE::ArclengthProjectionLineManifold&lt; dim, spacedim &gt;</title>
<polygon fill="white" stroke="transparent" points="-4,4 -4,-362 229,-362 229,4 -4,4"/>
<!-- Node1 -->
<g id="node1" class="node">
<title>Node1</title>
<g id="a_node1"><a xlink:title=" ">
<polygon fill="#bfbfbf" stroke="black" points="0,-0.5 0,-30.5 180,-30.5 180,-0.5 0,-0.5"/>
<text text-anchor="start" x="8" y="-18.5" font-family="Helvetica,sans-Serif" font-size="10.00">OpenCASCADE::ArclengthProjection</text>
<text text-anchor="middle" x="90" y="-7.5" font-family="Helvetica,sans-Serif" font-size="10.00">LineManifold&lt; dim, spacedim &gt;</text>
</a>
</g>
</g>
<!-- Node2 -->
<g id="node2" class="node">
<title>Node2</title>
<g id="a_node2"><a xlink:href="classChartManifold.html" target="_top" xlink:title=" ">
<polygon fill="white" stroke="black" points="37.5,-68.5 37.5,-98.5 142.5,-98.5 142.5,-68.5 37.5,-68.5"/>
<text text-anchor="start" x="45.5" y="-86.5" font-family="Helvetica,sans-Serif" font-size="10.00">ChartManifold&lt; dim,</text>
<text text-anchor="middle" x="90" y="-75.5" font-family="Helvetica,sans-Serif" font-size="10.00"> spacedim, 1 &gt;</text>
</a>
</g>
</g>
<!-- Node2&#45;&gt;Node1 -->
<g id="edge1" class="edge">
<title>Node2&#45;&gt;Node1</title>
<path fill="none" stroke="midnightblue" d="M90,-58.03C90,-48.86 90,-38.74 90,-30.79"/>
<polygon fill="midnightblue" stroke="midnightblue" points="86.5,-58.18 90,-68.18 93.5,-58.18 86.5,-58.18"/>
</g>
<!-- Node3 -->
<g id="node3" class="node">
<title>Node3</title>
<g id="a_node3"><a xlink:href="classManifold.html" target="_top" xlink:title=" ">
<polygon fill="white" stroke="black" points="17.5,-281.5 17.5,-300.5 152.5,-300.5 152.5,-281.5 17.5,-281.5"/>
<text text-anchor="middle" x="85" y="-288.5" font-family="Helvetica,sans-Serif" font-size="10.00">Manifold&lt; dim, spacedim &gt;</text>
</a>
</g>
</g>
<!-- Node3&#45;&gt;Node2 -->
<g id="edge2" class="edge">
<title>Node3&#45;&gt;Node2</title>
<path fill="none" stroke="midnightblue" d="M85.45,-271.32C86.44,-230.69 88.77,-135.02 89.65,-98.77"/>
<polygon fill="midnightblue" stroke="midnightblue" points="81.95,-271.35 85.21,-281.43 88.95,-271.52 81.95,-271.35"/>
</g>
<!-- Node6 -->
<g id="node6" class="node">
<title>Node6</title>
<g id="a_node6"><a xlink:href="classManifold.html" target="_top" xlink:title=" ">
<polygon fill="white" stroke="black" points="104.5,-214.5 104.5,-233.5 213.5,-233.5 213.5,-214.5 104.5,-214.5"/>
<text text-anchor="middle" x="159" y="-221.5" font-family="Helvetica,sans-Serif" font-size="10.00">Manifold&lt; dim, dim &gt;</text>
</a>
</g>
</g>
<!-- Node3&#45;&gt;Node6 -->
<g id="edge7" class="edge">
<title>Node3&#45;&gt;Node6</title>
<path fill="none" stroke="orange" stroke-dasharray="5,2" d="M93.3,-271.96C97.08,-265.11 102.05,-257.62 108,-252 116.23,-244.23 127.13,-238.06 136.74,-233.59"/>
<polygon fill="orange" stroke="orange" points="90,-270.73 88.64,-281.23 96.25,-273.87 90,-270.73"/>
<text text-anchor="middle" x="137.5" y="-255" font-family="Helvetica,sans-Serif" font-size="10.00"> &lt; dim, dim &gt;</text>
</g>
<!-- Node4 -->
<g id="node4" class="node">
<title>Node4</title>
<g id="a_node4"><a xlink:href="classSubscriptor.html" target="_top" xlink:title=" ">
<polygon fill="white" stroke="black" points="100,-338.5 100,-357.5 166,-357.5 166,-338.5 100,-338.5"/>
<text text-anchor="middle" x="133" y="-345.5" font-family="Helvetica,sans-Serif" font-size="10.00">Subscriptor</text>
</a>
</g>
</g>
<!-- Node4&#45;&gt;Node3 -->
<g id="edge3" class="edge">
<title>Node4&#45;&gt;Node3</title>
<path fill="none" stroke="midnightblue" d="M118.89,-330.83C110.29,-320.98 99.65,-308.78 92.61,-300.71"/>
<polygon fill="midnightblue" stroke="midnightblue" points="116.29,-333.17 125.5,-338.41 121.56,-328.57 116.29,-333.17"/>
</g>
<!-- Node4&#45;&gt;Node6 -->
<g id="edge6" class="edge">
<title>Node4&#45;&gt;Node6</title>
<path fill="none" stroke="midnightblue" d="M145.97,-330.34C151.81,-321.98 158.23,-311.43 162,-301 169.44,-280.41 170.14,-273.66 167,-252 166.1,-245.81 164.1,-239.06 162.33,-233.86"/>
<polygon fill="midnightblue" stroke="midnightblue" points="143.12,-328.31 140.01,-338.44 148.76,-332.46 143.12,-328.31"/>
</g>
<!-- Node5 -->
<g id="node5" class="node">
<title>Node5</title>
<g id="a_node5"><a xlink:href="classChartManifold.html" target="_top" xlink:title=" ">
<polygon fill="white" stroke="black" points="102,-146.5 102,-176.5 216,-176.5 216,-146.5 102,-146.5"/>
<text text-anchor="start" x="110" y="-164.5" font-family="Helvetica,sans-Serif" font-size="10.00">ChartManifold&lt; dim,</text>
<text text-anchor="middle" x="159" y="-153.5" font-family="Helvetica,sans-Serif" font-size="10.00"> spacedim, chartdim &gt;</text>
</a>
</g>
</g>
<!-- Node5&#45;&gt;Node2 -->
<g id="edge4" class="edge">
<title>Node5&#45;&gt;Node2</title>
<path fill="none" stroke="orange" stroke-dasharray="5,2" d="M139.18,-138.67C127.52,-125.83 113.12,-109.97 102.92,-98.73"/>
<polygon fill="orange" stroke="orange" points="136.71,-141.15 146.02,-146.2 141.89,-136.45 136.71,-141.15"/>
<text text-anchor="middle" x="176.5" y="-120" font-family="Helvetica,sans-Serif" font-size="10.00"> &lt; dim, spacedim, 1 &gt;</text>
</g>
<!-- Node6&#45;&gt;Node5 -->
<g id="edge5" class="edge">
<title>Node6&#45;&gt;Node5</title>
<path fill="none" stroke="midnightblue" d="M159,-204.22C159,-195.36 159,-184.96 159,-176.76"/>
<polygon fill="midnightblue" stroke="midnightblue" points="155.5,-204.33 159,-214.33 162.5,-204.33 155.5,-204.33"/>
</g>
</g>
</svg>
