<?xml version="1.0" encoding="UTF-8" standalone="no"?>
<!DOCTYPE svg PUBLIC "-//W3C//DTD SVG 1.1//EN"
 "http://www.w3.org/Graphics/SVG/1.1/DTD/svg11.dtd">
<!-- Generated by graphviz version 2.47.1 (20210417.1919)
 -->
<!-- Title: TrilinosWrappers::MPI::BlockVector Pages: 1 -->
<svg width="240pt" height="231pt"
 viewBox="0.00 0.00 239.50 231.00" xmlns="http://www.w3.org/2000/svg" xmlns:xlink="http://www.w3.org/1999/xlink">
<g id="graph0" class="graph" transform="scale(1 1) rotate(0) translate(4 227)">
<title>TrilinosWrappers::MPI::BlockVector</title>
<polygon fill="white" stroke="transparent" points="-4,4 -4,-227 235.5,-227 235.5,4 -4,4"/>
<!-- Node1 -->
<g id="node1" class="node">
<title>Node1</title>
<g id="a_node1"><a xlink:title=" ">
<polygon fill="#bfbfbf" stroke="black" points="3,-0.5 3,-30.5 116,-30.5 116,-0.5 3,-0.5"/>
<text text-anchor="start" x="11" y="-18.5" font-family="Helvetica,sans-Serif" font-size="10.00">TrilinosWrappers::MPI</text>
<text text-anchor="middle" x="59.5" y="-7.5" font-family="Helvetica,sans-Serif" font-size="10.00">::BlockVector</text>
</a>
</g>
</g>
<!-- Node2 -->
<g id="node2" class="node">
<title>Node2</title>
<g id="a_node2"><a xlink:href="classBlockVectorBase.html" target="_top" xlink:title=" ">
<polygon fill="white" stroke="black" points="0,-68.5 0,-98.5 119,-98.5 119,-68.5 0,-68.5"/>
<text text-anchor="start" x="8" y="-86.5" font-family="Helvetica,sans-Serif" font-size="10.00">BlockVectorBase&lt; MPI</text>
<text text-anchor="middle" x="59.5" y="-75.5" font-family="Helvetica,sans-Serif" font-size="10.00">::Vector &gt;</text>
</a>
</g>
</g>
<!-- Node2&#45;&gt;Node1 -->
<g id="edge1" class="edge">
<title>Node2&#45;&gt;Node1</title>
<path fill="none" stroke="midnightblue" d="M59.5,-58.03C59.5,-48.86 59.5,-38.74 59.5,-30.79"/>
<polygon fill="midnightblue" stroke="midnightblue" points="56,-58.18 59.5,-68.18 63,-58.18 56,-58.18"/>
</g>
<!-- Node3 -->
<g id="node3" class="node">
<title>Node3</title>
<g id="a_node3"><a xlink:href="classSubscriptor.html" target="_top" xlink:title=" ">
<polygon fill="white" stroke="black" points="22.5,-203.5 22.5,-222.5 88.5,-222.5 88.5,-203.5 22.5,-203.5"/>
<text text-anchor="middle" x="55.5" y="-210.5" font-family="Helvetica,sans-Serif" font-size="10.00">Subscriptor</text>
</a>
</g>
</g>
<!-- Node3&#45;&gt;Node2 -->
<g id="edge2" class="edge">
<title>Node3&#45;&gt;Node2</title>
<path fill="none" stroke="midnightblue" d="M56.1,-192.9C56.91,-167.05 58.34,-121.54 59.06,-98.59"/>
<polygon fill="midnightblue" stroke="midnightblue" points="52.59,-193.13 55.77,-203.24 59.59,-193.35 52.59,-193.13"/>
</g>
<!-- Node4 -->
<g id="node4" class="node">
<title>Node4</title>
<g id="a_node4"><a xlink:href="classBlockVectorBase.html" target="_top" xlink:title=" ">
<polygon fill="white" stroke="black" points="71.5,-146.5 71.5,-165.5 231.5,-165.5 231.5,-146.5 71.5,-146.5"/>
<text text-anchor="middle" x="151.5" y="-153.5" font-family="Helvetica,sans-Serif" font-size="10.00">BlockVectorBase&lt; VectorType &gt;</text>
</a>
</g>
</g>
<!-- Node3&#45;&gt;Node4 -->
<g id="edge4" class="edge">
<title>Node3&#45;&gt;Node4</title>
<path fill="none" stroke="midnightblue" d="M79.25,-198.39C97.2,-188.11 121.29,-174.31 136.61,-165.53"/>
<polygon fill="midnightblue" stroke="midnightblue" points="77.44,-195.4 70.5,-203.41 80.92,-201.47 77.44,-195.4"/>
</g>
<!-- Node4&#45;&gt;Node2 -->
<g id="edge3" class="edge">
<title>Node4&#45;&gt;Node2</title>
<path fill="none" stroke="orange" stroke-dasharray="5,2" d="M132.09,-140.13C116.1,-127.87 93.57,-110.61 77.87,-98.58"/>
<polygon fill="orange" stroke="orange" points="130.15,-143.05 140.22,-146.36 134.41,-137.49 130.15,-143.05"/>
<text text-anchor="middle" x="150.5" y="-120" font-family="Helvetica,sans-Serif" font-size="10.00"> &lt; MPI::Vector &gt;</text>
</g>
</g>
</svg>
