<?xml version="1.0" encoding="UTF-8" standalone="no"?>
<!DOCTYPE svg PUBLIC "-//W3C//DTD SVG 1.1//EN"
 "http://www.w3.org/Graphics/SVG/1.1/DTD/svg11.dtd">
<!-- Generated by graphviz version 2.47.1 (20210417.1919)
 -->
<!-- Title: TrilinosWrappers::SolverBase Pages: 1 -->
<svg width="335pt" height="214pt"
 viewBox="0.00 0.00 335.00 214.00" xmlns="http://www.w3.org/2000/svg" xmlns:xlink="http://www.w3.org/1999/xlink">
<g id="graph0" class="graph" transform="scale(1 1) rotate(0) translate(4 210)">
<title>TrilinosWrappers::SolverBase</title>
<polygon fill="white" stroke="transparent" points="-4,4 -4,-210 331,-210 331,4 -4,4"/>
<!-- Node1 -->
<g id="node1" class="node">
<title>Node1</title>
<g id="a_node1"><a xlink:title=" ">
<polygon fill="#bfbfbf" stroke="black" points="0,-99 0,-118 146,-118 146,-99 0,-99"/>
<text text-anchor="middle" x="73" y="-106" font-family="Helvetica,sans-Serif" font-size="10.00">TrilinosWrappers::SolverBase</text>
</a>
</g>
</g>
<!-- Node2 -->
<g id="node2" class="node">
<title>Node2</title>
<g id="a_node2"><a xlink:href="classTrilinosWrappers_1_1SolverBicgstab.html" target="_top" xlink:title=" ">
<polygon fill="white" stroke="black" points="193,-175.5 193,-205.5 316,-205.5 316,-175.5 193,-175.5"/>
<text text-anchor="start" x="201" y="-193.5" font-family="Helvetica,sans-Serif" font-size="10.00">TrilinosWrappers::Solver</text>
<text text-anchor="middle" x="254.5" y="-182.5" font-family="Helvetica,sans-Serif" font-size="10.00">Bicgstab</text>
</a>
</g>
</g>
<!-- Node1&#45;&gt;Node2 -->
<g id="edge1" class="edge">
<title>Node1&#45;&gt;Node2</title>
<path fill="none" stroke="midnightblue" d="M99.29,-123.23C120.85,-135.45 152.88,-152.81 182,-165.5 190.08,-169.02 198.82,-172.41 207.34,-175.5"/>
<polygon fill="midnightblue" stroke="midnightblue" points="100.87,-120.1 90.46,-118.18 97.4,-126.18 100.87,-120.1"/>
</g>
<!-- Node3 -->
<g id="node3" class="node">
<title>Node3</title>
<g id="a_node3"><a xlink:href="classTrilinosWrappers_1_1SolverCG.html" target="_top" xlink:title=" ">
<polygon fill="white" stroke="black" points="185.5,-137 185.5,-156 323.5,-156 323.5,-137 185.5,-137"/>
<text text-anchor="middle" x="254.5" y="-144" font-family="Helvetica,sans-Serif" font-size="10.00">TrilinosWrappers::SolverCG</text>
</a>
</g>
</g>
<!-- Node1&#45;&gt;Node3 -->
<g id="edge2" class="edge">
<title>Node1&#45;&gt;Node3</title>
<path fill="none" stroke="midnightblue" d="M129.18,-120.18C154.63,-125.57 184.47,-131.89 208.53,-136.98"/>
<polygon fill="midnightblue" stroke="midnightblue" points="129.8,-116.74 119.3,-118.09 128.35,-123.58 129.8,-116.74"/>
</g>
<!-- Node4 -->
<g id="node4" class="node">
<title>Node4</title>
<g id="a_node4"><a xlink:href="classTrilinosWrappers_1_1SolverCGS.html" target="_top" xlink:title=" ">
<polygon fill="white" stroke="black" points="182,-99 182,-118 327,-118 327,-99 182,-99"/>
<text text-anchor="middle" x="254.5" y="-106" font-family="Helvetica,sans-Serif" font-size="10.00">TrilinosWrappers::SolverCGS</text>
</a>
</g>
</g>
<!-- Node1&#45;&gt;Node4 -->
<g id="edge3" class="edge">
<title>Node1&#45;&gt;Node4</title>
<path fill="none" stroke="midnightblue" d="M156.26,-108.5C164.85,-108.5 173.54,-108.5 182,-108.5"/>
<polygon fill="midnightblue" stroke="midnightblue" points="156.23,-105 146.23,-108.5 156.23,-112 156.23,-105"/>
</g>
<!-- Node5 -->
<g id="node5" class="node">
<title>Node5</title>
<g id="a_node5"><a xlink:href="classTrilinosWrappers_1_1SolverGMRES.html" target="_top" xlink:title=" ">
<polygon fill="white" stroke="black" points="193,-49.5 193,-79.5 316,-79.5 316,-49.5 193,-49.5"/>
<text text-anchor="start" x="201" y="-67.5" font-family="Helvetica,sans-Serif" font-size="10.00">TrilinosWrappers::Solver</text>
<text text-anchor="middle" x="254.5" y="-56.5" font-family="Helvetica,sans-Serif" font-size="10.00">GMRES</text>
</a>
</g>
</g>
<!-- Node1&#45;&gt;Node5 -->
<g id="edge4" class="edge">
<title>Node1&#45;&gt;Node5</title>
<path fill="none" stroke="midnightblue" d="M122.86,-96.52C144.42,-91.24 169.97,-84.97 192.74,-79.39"/>
<polygon fill="midnightblue" stroke="midnightblue" points="121.83,-93.17 112.95,-98.95 123.49,-99.97 121.83,-93.17"/>
</g>
<!-- Node6 -->
<g id="node6" class="node">
<title>Node6</title>
<g id="a_node6"><a xlink:href="classTrilinosWrappers_1_1SolverTFQMR.html" target="_top" xlink:title=" ">
<polygon fill="white" stroke="black" points="193,-0.5 193,-30.5 316,-30.5 316,-0.5 193,-0.5"/>
<text text-anchor="start" x="201" y="-18.5" font-family="Helvetica,sans-Serif" font-size="10.00">TrilinosWrappers::Solver</text>
<text text-anchor="middle" x="254.5" y="-7.5" font-family="Helvetica,sans-Serif" font-size="10.00">TFQMR</text>
</a>
</g>
</g>
<!-- Node1&#45;&gt;Node6 -->
<g id="edge5" class="edge">
<title>Node1&#45;&gt;Node6</title>
<path fill="none" stroke="midnightblue" d="M95.35,-93.02C116.56,-78.15 150.39,-55.74 182,-40.5 189.46,-36.9 197.58,-33.56 205.58,-30.57"/>
<polygon fill="midnightblue" stroke="midnightblue" points="93.2,-90.25 87.08,-98.89 97.26,-95.96 93.2,-90.25"/>
</g>
</g>
</svg>
