<?xml version="1.0" encoding="UTF-8" standalone="no"?>
<!DOCTYPE svg PUBLIC "-//W3C//DTD SVG 1.1//EN"
 "http://www.w3.org/Graphics/SVG/1.1/DTD/svg11.dtd">
<!-- Generated by graphviz version 2.47.1 (20210417.1919)
 -->
<!-- Title: FlatManifold&lt; dim, spacedim &gt; Pages: 1 -->
<svg width="318pt" height="298pt"
 viewBox="0.00 0.00 317.50 298.00" xmlns="http://www.w3.org/2000/svg" xmlns:xlink="http://www.w3.org/1999/xlink">
<g id="graph0" class="graph" transform="scale(1 1) rotate(0) translate(4 294)">
<title>FlatManifold&lt; dim, spacedim &gt;</title>
<polygon fill="white" stroke="transparent" points="-4,4 -4,-294 313.5,-294 313.5,4 -4,4"/>
<!-- Node1 -->
<g id="node1" class="node">
<title>Node1</title>
<g id="a_node1"><a xlink:title=" ">
<polygon fill="#bfbfbf" stroke="black" points="5.5,-78.5 5.5,-108.5 103.5,-108.5 103.5,-78.5 5.5,-78.5"/>
<text text-anchor="start" x="13.5" y="-96.5" font-family="Helvetica,sans-Serif" font-size="10.00">FlatManifold&lt; dim,</text>
<text text-anchor="middle" x="54.5" y="-85.5" font-family="Helvetica,sans-Serif" font-size="10.00"> spacedim &gt;</text>
</a>
</g>
</g>
<!-- Node1&#45;&gt;Node1 -->
<g id="edge5" class="edge">
<title>Node1&#45;&gt;Node1</title>
<path fill="none" stroke="orange" stroke-dasharray="5,2" d="M113.82,-95.93C118.56,-95.4 121.5,-94.59 121.5,-93.5 121.5,-91.76 113.99,-90.73 103.58,-90.42"/>
<polygon fill="orange" stroke="orange" points="113.34,-92.45 103.58,-96.58 113.78,-99.44 113.34,-92.45"/>
<text text-anchor="middle" x="164" y="-91" font-family="Helvetica,sans-Serif" font-size="10.00"> &lt; dim, spacedim &gt;</text>
</g>
<!-- Node1&#45;&gt;Node1 -->
<g id="edge6" class="edge">
<title>Node1&#45;&gt;Node1</title>
<path fill="none" stroke="orange" stroke-dasharray="5,2" d="M113.89,-99.44C157.33,-100.84 206.5,-98.86 206.5,-93.5 206.5,-87.72 149.37,-85.87 103.87,-87.95"/>
<polygon fill="orange" stroke="orange" points="114,-95.94 103.87,-99.05 113.73,-102.94 114,-95.94"/>
<text text-anchor="middle" x="249" y="-91" font-family="Helvetica,sans-Serif" font-size="10.00"> &lt; dim, spacedim &gt;</text>
</g>
<!-- Node5 -->
<g id="node5" class="node">
<title>Node5</title>
<g id="a_node5"><a xlink:href="classFlatManifold.html" target="_top" xlink:title=" ">
<polygon fill="white" stroke="black" points="5.5,-0.5 5.5,-30.5 103.5,-30.5 103.5,-0.5 5.5,-0.5"/>
<text text-anchor="start" x="13.5" y="-18.5" font-family="Helvetica,sans-Serif" font-size="10.00">FlatManifold&lt; dim,</text>
<text text-anchor="middle" x="54.5" y="-7.5" font-family="Helvetica,sans-Serif" font-size="10.00"> dim &gt;</text>
</a>
</g>
</g>
<!-- Node1&#45;&gt;Node5 -->
<g id="edge7" class="edge">
<title>Node1&#45;&gt;Node5</title>
<path fill="none" stroke="orange" stroke-dasharray="5,2" d="M54.5,-68.09C54.5,-55.76 54.5,-41.22 54.5,-30.73"/>
<polygon fill="orange" stroke="orange" points="51,-68.2 54.5,-78.2 58,-68.21 51,-68.2"/>
<text text-anchor="middle" x="84" y="-52" font-family="Helvetica,sans-Serif" font-size="10.00"> &lt; dim, dim &gt;</text>
</g>
<!-- Node2 -->
<g id="node2" class="node">
<title>Node2</title>
<g id="a_node2"><a xlink:href="classManifold.html" target="_top" xlink:title=" ">
<polygon fill="white" stroke="black" points="0,-146.5 0,-165.5 109,-165.5 109,-146.5 0,-146.5"/>
<text text-anchor="middle" x="54.5" y="-153.5" font-family="Helvetica,sans-Serif" font-size="10.00">Manifold&lt; dim, dim &gt;</text>
</a>
</g>
</g>
<!-- Node2&#45;&gt;Node1 -->
<g id="edge1" class="edge">
<title>Node2&#45;&gt;Node1</title>
<path fill="none" stroke="midnightblue" d="M54.5,-136.22C54.5,-127.36 54.5,-116.96 54.5,-108.76"/>
<polygon fill="midnightblue" stroke="midnightblue" points="51,-136.33 54.5,-146.33 58,-136.33 51,-136.33"/>
</g>
<!-- Node3 -->
<g id="node3" class="node">
<title>Node3</title>
<g id="a_node3"><a xlink:href="classSubscriptor.html" target="_top" xlink:title=" ">
<polygon fill="white" stroke="black" points="17.5,-270.5 17.5,-289.5 83.5,-289.5 83.5,-270.5 17.5,-270.5"/>
<text text-anchor="middle" x="50.5" y="-277.5" font-family="Helvetica,sans-Serif" font-size="10.00">Subscriptor</text>
</a>
</g>
</g>
<!-- Node3&#45;&gt;Node2 -->
<g id="edge2" class="edge">
<title>Node3&#45;&gt;Node2</title>
<path fill="none" stroke="midnightblue" d="M51.12,-260.19C52,-233.4 53.57,-185.31 54.21,-165.69"/>
<polygon fill="midnightblue" stroke="midnightblue" points="47.62,-260.12 50.79,-270.23 54.61,-260.35 47.62,-260.12"/>
</g>
<!-- Node4 -->
<g id="node4" class="node">
<title>Node4</title>
<g id="a_node4"><a xlink:href="classManifold.html" target="_top" xlink:title=" ">
<polygon fill="white" stroke="black" points="67,-213.5 67,-232.5 202,-232.5 202,-213.5 67,-213.5"/>
<text text-anchor="middle" x="134.5" y="-220.5" font-family="Helvetica,sans-Serif" font-size="10.00">Manifold&lt; dim, spacedim &gt;</text>
</a>
</g>
</g>
<!-- Node3&#45;&gt;Node4 -->
<g id="edge4" class="edge">
<title>Node3&#45;&gt;Node4</title>
<path fill="none" stroke="midnightblue" d="M72.15,-264.82C87.76,-254.61 108.31,-241.15 121.47,-232.53"/>
<polygon fill="midnightblue" stroke="midnightblue" points="70.07,-262 63.62,-270.41 73.91,-267.86 70.07,-262"/>
</g>
<!-- Node4&#45;&gt;Node2 -->
<g id="edge3" class="edge">
<title>Node4&#45;&gt;Node2</title>
<path fill="none" stroke="orange" stroke-dasharray="5,2" d="M115.69,-206.71C99.92,-193.91 77.99,-176.09 65.12,-165.63"/>
<polygon fill="orange" stroke="orange" points="113.74,-209.64 123.71,-213.23 118.16,-204.21 113.74,-209.64"/>
<text text-anchor="middle" x="128" y="-187" font-family="Helvetica,sans-Serif" font-size="10.00"> &lt; dim, dim &gt;</text>
</g>
</g>
</svg>
