<?xml version="1.0" encoding="UTF-8" standalone="no"?>
<!DOCTYPE svg PUBLIC "-//W3C//DTD SVG 1.1//EN"
 "http://www.w3.org/Graphics/SVG/1.1/DTD/svg11.dtd">
<!-- Generated by graphviz version 2.47.1 (20210417.1919)
 -->
<!-- Title: Table&lt; N, T &gt; Pages: 1 -->
<svg width="1187pt" height="1802pt"
 viewBox="0.00 0.00 1187.00 1802.03" xmlns="http://www.w3.org/2000/svg" xmlns:xlink="http://www.w3.org/1999/xlink">
<g id="graph0" class="graph" transform="scale(1 1) rotate(0) translate(4 1798.03)">
<title>Table&lt; N, T &gt;</title>
<polygon fill="white" stroke="transparent" points="-4,4 -4,-1798.03 1183,-1798.03 1183,4 -4,4"/>
<!-- Node1 -->
<g id="node1" class="node">
<title>Node1</title>
<g id="a_node1"><a xlink:title=" ">
<polygon fill="#bfbfbf" stroke="black" points="240,-865.85 240,-884.85 317,-884.85 317,-865.85 240,-865.85"/>
<text text-anchor="middle" x="278.5" y="-872.85" font-family="Helvetica,sans-Serif" font-size="10.00">Table&lt; N, T &gt;</text>
</a>
</g>
</g>
<!-- Node4 -->
<g id="node4" class="node">
<title>Node4</title>
<g id="a_node4"><a xlink:href="classFullMatrix.html" target="_top" xlink:title=" ">
<polygon fill="white" stroke="black" points="1056,-1699.35 1056,-1729.35 1156,-1729.35 1156,-1699.35 1056,-1699.35"/>
<text text-anchor="start" x="1064" y="-1717.35" font-family="Helvetica,sans-Serif" font-size="10.00">FullMatrix&lt; inverse</text>
<text text-anchor="middle" x="1106" y="-1706.35" font-family="Helvetica,sans-Serif" font-size="10.00">_type &gt;</text>
</a>
</g>
</g>
<!-- Node1&#45;&gt;Node4 -->
<g id="edge3" class="edge">
<title>Node1&#45;&gt;Node4</title>
<path fill="none" stroke="midnightblue" d="M279.34,-895.08C278.59,-1012.85 277.54,-1619.94 335,-1676.35 536.76,-1874.44 929.87,-1771.48 1061.14,-1729.43"/>
<polygon fill="midnightblue" stroke="midnightblue" points="282.84,-895 279.41,-884.98 275.84,-894.95 282.84,-895"/>
</g>
<!-- Node5 -->
<g id="node5" class="node">
<title>Node5</title>
<g id="a_node5"><a xlink:href="classFullMatrix.html" target="_top" xlink:title=" ">
<polygon fill="white" stroke="black" points="1033,-1646.85 1033,-1665.85 1179,-1665.85 1179,-1646.85 1033,-1646.85"/>
<text text-anchor="middle" x="1106" y="-1653.85" font-family="Helvetica,sans-Serif" font-size="10.00">FullMatrix&lt; CoefficientType &gt;</text>
</a>
</g>
</g>
<!-- Node1&#45;&gt;Node5 -->
<g id="edge4" class="edge">
<title>Node1&#45;&gt;Node5</title>
<path fill="none" stroke="midnightblue" d="M279.52,-895.23C279.8,-1005.41 283.81,-1538.01 335,-1587.35 389.44,-1639.84 941.45,-1597.8 1015,-1615.35 1042.39,-1621.89 1071.62,-1636.88 1089.1,-1646.81"/>
<polygon fill="midnightblue" stroke="midnightblue" points="283.01,-894.91 279.5,-884.91 276.01,-894.92 283.01,-894.91"/>
</g>
<!-- Node6 -->
<g id="node6" class="node">
<title>Node6</title>
<g id="a_node6"><a xlink:href="classTable.html" target="_top" xlink:title=" ">
<polygon fill="white" stroke="black" points="519,-1504.35 519,-1534.35 646,-1534.35 646,-1504.35 519,-1504.35"/>
<text text-anchor="start" x="527" y="-1522.35" font-family="Helvetica,sans-Serif" font-size="10.00">Table&lt; 2, DerivativeForm</text>
<text text-anchor="middle" x="582.5" y="-1511.35" font-family="Helvetica,sans-Serif" font-size="10.00">&lt; 1, dim, spacedim &gt; &gt;</text>
</a>
</g>
</g>
<!-- Node1&#45;&gt;Node6 -->
<g id="edge5" class="edge">
<title>Node1&#45;&gt;Node6</title>
<path fill="none" stroke="orange" stroke-dasharray="5,2" d="M279.82,-895.35C281.62,-996.6 292.06,-1449.75 335,-1493.35 347.7,-1506.25 450.18,-1513.43 518.94,-1516.83"/>
<polygon fill="orange" stroke="orange" points="283.32,-895.19 279.65,-885.25 276.32,-895.31 283.32,-895.19"/>
<text text-anchor="start" x="358" y="-1528.35" font-family="Helvetica,sans-Serif" font-size="10.00"> &lt; 2, DerivativeForm</text>
<text text-anchor="middle" x="409.5" y="-1517.35" font-family="Helvetica,sans-Serif" font-size="10.00">&lt; 1, dim, spacedim &gt; &gt;</text>
</g>
<!-- Node7 -->
<g id="node7" class="node">
<title>Node7</title>
<g id="a_node7"><a xlink:href="classTable.html" target="_top" xlink:title=" ">
<polygon fill="white" stroke="black" points="523,-1465.85 523,-1484.85 642,-1484.85 642,-1465.85 523,-1465.85"/>
<text text-anchor="middle" x="582.5" y="-1472.85" font-family="Helvetica,sans-Serif" font-size="10.00">Table&lt; dim+1, double &gt;</text>
</a>
</g>
</g>
<!-- Node1&#45;&gt;Node7 -->
<g id="edge6" class="edge">
<title>Node1&#45;&gt;Node7</title>
<path fill="none" stroke="orange" stroke-dasharray="5,2" d="M279.93,-895.26C282.24,-992.36 294.54,-1413.16 335,-1453.35 360.57,-1478.75 458.47,-1480.31 522.93,-1478.37"/>
<polygon fill="orange" stroke="orange" points="283.43,-894.99 279.7,-885.07 276.43,-895.15 283.43,-894.99"/>
<text text-anchor="middle" x="409.5" y="-1481.35" font-family="Helvetica,sans-Serif" font-size="10.00"> &lt; dim+1, double &gt;</text>
</g>
<!-- Node8 -->
<g id="node8" class="node">
<title>Node8</title>
<g id="a_node8"><a xlink:href="classTable.html" target="_top" xlink:title=" ">
<polygon fill="white" stroke="black" points="521,-1416.35 521,-1446.35 644,-1446.35 644,-1416.35 521,-1416.35"/>
<text text-anchor="start" x="529" y="-1434.35" font-family="Helvetica,sans-Serif" font-size="10.00">Table&lt; 3, std::unique</text>
<text text-anchor="middle" x="582.5" y="-1423.35" font-family="Helvetica,sans-Serif" font-size="10.00">_ptr&lt; FEValuesType &gt; &gt;</text>
</a>
</g>
</g>
<!-- Node1&#45;&gt;Node8 -->
<g id="edge7" class="edge">
<title>Node1&#45;&gt;Node8</title>
<path fill="none" stroke="orange" stroke-dasharray="5,2" d="M280.11,-895.43C283.13,-988.11 297.82,-1371.57 335,-1408.35 347.97,-1421.18 452.12,-1427.11 520.83,-1429.65"/>
<polygon fill="orange" stroke="orange" points="283.6,-895.07 279.79,-885.19 276.61,-895.29 283.6,-895.07"/>
<text text-anchor="start" x="364" y="-1441.35" font-family="Helvetica,sans-Serif" font-size="10.00"> &lt; 3, std::unique_ptr</text>
<text text-anchor="middle" x="409.5" y="-1430.35" font-family="Helvetica,sans-Serif" font-size="10.00">&lt; FEValuesType &gt; &gt;</text>
</g>
<!-- Node9 -->
<g id="node9" class="node">
<title>Node9</title>
<g id="a_node9"><a xlink:href="classTable.html" target="_top" xlink:title=" ">
<polygon fill="white" stroke="black" points="509.5,-1345.35 509.5,-1397.35 655.5,-1397.35 655.5,-1345.35 509.5,-1345.35"/>
<text text-anchor="start" x="517.5" y="-1385.35" font-family="Helvetica,sans-Serif" font-size="10.00">Table&lt; 4, internal</text>
<text text-anchor="start" x="517.5" y="-1374.35" font-family="Helvetica,sans-Serif" font-size="10.00">::MatrixFreeFunctions</text>
<text text-anchor="start" x="517.5" y="-1363.35" font-family="Helvetica,sans-Serif" font-size="10.00">::ShapeInfo&lt; VectorizedArray</text>
<text text-anchor="middle" x="582.5" y="-1352.35" font-family="Helvetica,sans-Serif" font-size="10.00">&lt; double &gt; &gt; &gt;</text>
</a>
</g>
</g>
<!-- Node1&#45;&gt;Node9 -->
<g id="edge8" class="edge">
<title>Node1&#45;&gt;Node9</title>
<path fill="none" stroke="orange" stroke-dasharray="5,2" d="M280.42,-895.39C284.56,-980.89 302.57,-1312.21 335,-1344.35 358.89,-1368.03 445.44,-1372.86 509.27,-1373.04"/>
<polygon fill="orange" stroke="orange" points="283.91,-895.04 279.94,-885.22 276.92,-895.37 283.91,-895.04"/>
<text text-anchor="start" x="335" y="-1397.35" font-family="Helvetica,sans-Serif" font-size="10.00"> &lt; 4, internal::MatrixFree</text>
<text text-anchor="start" x="335" y="-1386.35" font-family="Helvetica,sans-Serif" font-size="10.00">Functions::ShapeInfo&lt; Vectorized</text>
<text text-anchor="middle" x="409.5" y="-1375.35" font-family="Helvetica,sans-Serif" font-size="10.00">Array&lt; double &gt; &gt; &gt;</text>
</g>
<!-- Node10 -->
<g id="node10" class="node">
<title>Node10</title>
<g id="a_node10"><a xlink:href="classTable.html" target="_top" xlink:title=" ">
<polygon fill="white" stroke="black" points="532.5,-1296.35 532.5,-1326.35 632.5,-1326.35 632.5,-1296.35 532.5,-1296.35"/>
<text text-anchor="start" x="540.5" y="-1314.35" font-family="Helvetica,sans-Serif" font-size="10.00">Table&lt; dim, Tensor</text>
<text text-anchor="middle" x="582.5" y="-1303.35" font-family="Helvetica,sans-Serif" font-size="10.00">&lt; 1, dim &gt; &gt;</text>
</a>
</g>
</g>
<!-- Node1&#45;&gt;Node10 -->
<g id="edge9" class="edge">
<title>Node1&#45;&gt;Node10</title>
<path fill="none" stroke="orange" stroke-dasharray="5,2" d="M279.06,-895.51C277.87,-970.74 277.91,-1233.54 335,-1288.35 386.93,-1338.22 476.43,-1332.68 532.11,-1322.89"/>
<polygon fill="orange" stroke="orange" points="282.57,-895.17 279.25,-885.11 275.57,-895.04 282.57,-895.17"/>
<text text-anchor="middle" x="409.5" y="-1332.35" font-family="Helvetica,sans-Serif" font-size="10.00"> &lt; dim, Tensor&lt; 1, dim &gt; &gt;</text>
</g>
<!-- Node11 -->
<g id="node11" class="node">
<title>Node11</title>
<g id="a_node11"><a xlink:href="classTable.html" target="_top" xlink:title=" ">
<polygon fill="white" stroke="black" points="509.5,-1225.35 509.5,-1277.35 655.5,-1277.35 655.5,-1225.35 509.5,-1225.35"/>
<text text-anchor="start" x="517.5" y="-1265.35" font-family="Helvetica,sans-Serif" font-size="10.00">Table&lt; 4, internal</text>
<text text-anchor="start" x="517.5" y="-1254.35" font-family="Helvetica,sans-Serif" font-size="10.00">::MatrixFreeFunctions</text>
<text text-anchor="start" x="517.5" y="-1243.35" font-family="Helvetica,sans-Serif" font-size="10.00">::ShapeInfo&lt; VectorizedArray</text>
<text text-anchor="middle" x="582.5" y="-1232.35" font-family="Helvetica,sans-Serif" font-size="10.00">Type &gt; &gt;</text>
</a>
</g>
</g>
<!-- Node1&#45;&gt;Node11 -->
<g id="edge10" class="edge">
<title>Node1&#45;&gt;Node11</title>
<path fill="none" stroke="orange" stroke-dasharray="5,2" d="M279.63,-894.9C280.5,-961.61 287.02,-1178.65 335,-1224.35 359.35,-1247.55 445.81,-1252.49 509.48,-1252.82"/>
<polygon fill="orange" stroke="orange" points="283.13,-894.86 279.53,-884.9 276.13,-894.93 283.13,-894.86"/>
<text text-anchor="start" x="335" y="-1276.35" font-family="Helvetica,sans-Serif" font-size="10.00"> &lt; 4, internal::MatrixFree</text>
<text text-anchor="start" x="335" y="-1265.35" font-family="Helvetica,sans-Serif" font-size="10.00">Functions::ShapeInfo&lt; Vectorized</text>
<text text-anchor="middle" x="409.5" y="-1254.35" font-family="Helvetica,sans-Serif" font-size="10.00">ArrayType &gt; &gt;</text>
</g>
<!-- Node12 -->
<g id="node12" class="node">
<title>Node12</title>
<g id="a_node12"><a xlink:href="classTable.html" target="_top" xlink:title=" ">
<polygon fill="white" stroke="black" points="502,-1164.85 502,-1205.85 663,-1205.85 663,-1164.85 502,-1164.85"/>
<text text-anchor="start" x="510" y="-1193.85" font-family="Helvetica,sans-Serif" font-size="10.00">Table&lt; 2, SmartPointer</text>
<text text-anchor="start" x="510" y="-1182.85" font-family="Helvetica,sans-Serif" font-size="10.00">&lt; BlockType, BlockMatrixBase</text>
<text text-anchor="middle" x="582.5" y="-1171.85" font-family="Helvetica,sans-Serif" font-size="10.00">&lt; SparseMatrix&lt; number &gt; &gt; &gt; &gt;</text>
</a>
</g>
</g>
<!-- Node1&#45;&gt;Node12 -->
<g id="edge11" class="edge">
<title>Node1&#45;&gt;Node12</title>
<path fill="none" stroke="orange" stroke-dasharray="5,2" d="M280.33,-895.24C283.24,-954.38 295.06,-1127.27 335,-1163.35 358.87,-1184.92 439.16,-1188.78 501.7,-1188.27"/>
<polygon fill="orange" stroke="orange" points="283.81,-894.83 279.86,-885 276.82,-895.15 283.81,-894.83"/>
<text text-anchor="start" x="337" y="-1212.35" font-family="Helvetica,sans-Serif" font-size="10.00"> &lt; 2, SmartPointer&lt;</text>
<text text-anchor="start" x="337" y="-1201.35" font-family="Helvetica,sans-Serif" font-size="10.00"> BlockType, BlockMatrixBase</text>
<text text-anchor="middle" x="409.5" y="-1190.35" font-family="Helvetica,sans-Serif" font-size="10.00">&lt; SparseMatrix&lt; number &gt; &gt; &gt; &gt;</text>
</g>
<!-- Node13 -->
<g id="node13" class="node">
<title>Node13</title>
<g id="a_node13"><a xlink:href="classTable.html" target="_top" xlink:title=" ">
<polygon fill="white" stroke="black" points="506.5,-1126.85 506.5,-1145.85 658.5,-1145.85 658.5,-1126.85 506.5,-1126.85"/>
<text text-anchor="middle" x="582.5" y="-1133.85" font-family="Helvetica,sans-Serif" font-size="10.00">Table&lt; 3, types::boundary_id &gt;</text>
</a>
</g>
</g>
<!-- Node1&#45;&gt;Node13 -->
<g id="edge12" class="edge">
<title>Node1&#45;&gt;Node13</title>
<path fill="none" stroke="orange" stroke-dasharray="5,2" d="M281.27,-895.28C286.28,-946.85 302.36,-1082.7 335,-1111.35 390.44,-1160.02 482.23,-1154.7 536.78,-1145.89"/>
<polygon fill="orange" stroke="orange" points="284.73,-894.74 280.32,-885.11 277.76,-895.39 284.73,-894.74"/>
<text text-anchor="middle" x="409.5" y="-1154.35" font-family="Helvetica,sans-Serif" font-size="10.00"> &lt; 3, types::boundary_id &gt;</text>
</g>
<!-- Node14 -->
<g id="node14" class="node">
<title>Node14</title>
<g id="a_node14"><a xlink:href="classTable.html" target="_top" xlink:title=" ">
<polygon fill="white" stroke="black" points="542.5,-1088.85 542.5,-1107.85 622.5,-1107.85 622.5,-1088.85 542.5,-1088.85"/>
<text text-anchor="middle" x="582.5" y="-1095.85" font-family="Helvetica,sans-Serif" font-size="10.00">Table&lt; 2, int &gt;</text>
</a>
</g>
</g>
<!-- Node1&#45;&gt;Node14 -->
<g id="edge13" class="edge">
<title>Node1&#45;&gt;Node14</title>
<path fill="none" stroke="orange" stroke-dasharray="5,2" d="M278.69,-895.51C278.3,-935.21 283.63,-1023.44 335,-1067.35 365.33,-1093.28 480.55,-1097.92 542.13,-1098.5"/>
<polygon fill="orange" stroke="orange" points="282.19,-895.35 278.93,-885.27 275.2,-895.18 282.19,-895.35"/>
<text text-anchor="middle" x="409.5" y="-1099.35" font-family="Helvetica,sans-Serif" font-size="10.00"> &lt; 2, int &gt;</text>
</g>
<!-- Node15 -->
<g id="node15" class="node">
<title>Node15</title>
<g id="a_node15"><a xlink:href="classTable.html" target="_top" xlink:title=" ">
<polygon fill="white" stroke="black" points="533,-1039.35 533,-1069.35 632,-1069.35 632,-1039.35 533,-1039.35"/>
<text text-anchor="start" x="541" y="-1057.35" font-family="Helvetica,sans-Serif" font-size="10.00">Table&lt; 2, unsigned</text>
<text text-anchor="middle" x="582.5" y="-1046.35" font-family="Helvetica,sans-Serif" font-size="10.00"> int &gt;</text>
</a>
</g>
</g>
<!-- Node1&#45;&gt;Node15 -->
<g id="edge14" class="edge">
<title>Node1&#45;&gt;Node15</title>
<path fill="none" stroke="orange" stroke-dasharray="5,2" d="M280.53,-895.19C283.4,-928.03 294.21,-993.25 335,-1025.35 364.76,-1048.77 469.83,-1053.7 532.79,-1054.49"/>
<polygon fill="orange" stroke="orange" points="284.01,-894.76 279.81,-885.04 277.03,-895.26 284.01,-894.76"/>
<text text-anchor="middle" x="409.5" y="-1055.35" font-family="Helvetica,sans-Serif" font-size="10.00"> &lt; 2, unsigned int &gt;</text>
</g>
<!-- Node16 -->
<g id="node16" class="node">
<title>Node16</title>
<g id="a_node16"><a xlink:href="classTable.html" target="_top" xlink:title=" ">
<polygon fill="white" stroke="black" points="529,-990.35 529,-1020.35 636,-1020.35 636,-990.35 529,-990.35"/>
<text text-anchor="start" x="537" y="-1008.35" font-family="Helvetica,sans-Serif" font-size="10.00">Table&lt; 2, Tensor&lt; 1,</text>
<text text-anchor="middle" x="582.5" y="-997.35" font-family="Helvetica,sans-Serif" font-size="10.00"> dim &gt; &gt;</text>
</a>
</g>
</g>
<!-- Node1&#45;&gt;Node16 -->
<g id="edge15" class="edge">
<title>Node1&#45;&gt;Node16</title>
<path fill="none" stroke="orange" stroke-dasharray="5,2" d="M285.16,-894.8C292.7,-916.95 308.29,-952.41 335,-970.35 392.77,-1009.16 475.37,-1013 528.72,-1010.5"/>
<polygon fill="orange" stroke="orange" points="288.46,-893.6 282.1,-885.12 281.78,-895.71 288.46,-893.6"/>
<text text-anchor="middle" x="409.5" y="-1013.35" font-family="Helvetica,sans-Serif" font-size="10.00"> &lt; 2, Tensor&lt; 1, dim &gt; &gt;</text>
</g>
<!-- Node17 -->
<g id="node17" class="node">
<title>Node17</title>
<g id="a_node17"><a xlink:href="classTable.html" target="_top" xlink:title=" ">
<polygon fill="white" stroke="black" points="533,-941.35 533,-971.35 632,-971.35 632,-941.35 533,-941.35"/>
<text text-anchor="start" x="541" y="-959.35" font-family="Helvetica,sans-Serif" font-size="10.00">Table&lt; 3, unsigned</text>
<text text-anchor="middle" x="582.5" y="-948.35" font-family="Helvetica,sans-Serif" font-size="10.00"> int &gt;</text>
</a>
</g>
</g>
<!-- Node1&#45;&gt;Node17 -->
<g id="edge16" class="edge">
<title>Node1&#45;&gt;Node17</title>
<path fill="none" stroke="orange" stroke-dasharray="5,2" d="M294.36,-892.54C304.64,-903.24 319.26,-916.27 335,-923.35 399.17,-952.25 481.56,-957.73 532.95,-957.89"/>
<polygon fill="orange" stroke="orange" points="296.74,-889.96 287.4,-884.95 291.58,-894.69 296.74,-889.96"/>
<text text-anchor="middle" x="409.5" y="-958.35" font-family="Helvetica,sans-Serif" font-size="10.00"> &lt; 3, unsigned int &gt;</text>
</g>
<!-- Node18 -->
<g id="node18" class="node">
<title>Node18</title>
<g id="a_node18"><a xlink:href="classTable.html" target="_top" xlink:title=" ">
<polygon fill="white" stroke="black" points="681,-1553.85 681,-1572.85 779,-1572.85 779,-1553.85 681,-1553.85"/>
<text text-anchor="middle" x="730" y="-1560.85" font-family="Helvetica,sans-Serif" font-size="10.00">Table&lt; 2, double &gt;</text>
</a>
</g>
</g>
<!-- Node1&#45;&gt;Node18 -->
<g id="edge17" class="edge">
<title>Node1&#45;&gt;Node18</title>
<path fill="none" stroke="orange" stroke-dasharray="5,2" d="M279.64,-895.21C280.61,-1000.9 287.64,-1494.16 335,-1540.35 382.82,-1587 586.4,-1575.93 680.7,-1568"/>
<polygon fill="orange" stroke="orange" points="283.14,-894.98 279.56,-885.01 276.14,-895.04 283.14,-894.98"/>
<text text-anchor="middle" x="409.5" y="-1576.35" font-family="Helvetica,sans-Serif" font-size="10.00"> &lt; 2, double &gt;</text>
</g>
<!-- Node20 -->
<g id="node20" class="node">
<title>Node20</title>
<g id="a_node20"><a xlink:href="classTable.html" target="_top" xlink:title=" ">
<polygon fill="white" stroke="black" points="533.5,-902.85 533.5,-921.85 631.5,-921.85 631.5,-902.85 533.5,-902.85"/>
<text text-anchor="middle" x="582.5" y="-909.85" font-family="Helvetica,sans-Serif" font-size="10.00">Table&lt; 3, double &gt;</text>
</a>
</g>
</g>
<!-- Node1&#45;&gt;Node20 -->
<g id="edge19" class="edge">
<title>Node1&#45;&gt;Node20</title>
<path fill="none" stroke="orange" stroke-dasharray="5,2" d="M320.69,-887.34C325.49,-888.48 330.33,-889.52 335,-890.35 403.31,-902.54 483.54,-908.1 533.46,-910.55"/>
<polygon fill="orange" stroke="orange" points="321.53,-883.94 310.98,-884.89 319.82,-890.73 321.53,-883.94"/>
<text text-anchor="middle" x="409.5" y="-911.35" font-family="Helvetica,sans-Serif" font-size="10.00"> &lt; 3, double &gt;</text>
</g>
<!-- Node21 -->
<g id="node21" class="node">
<title>Node21</title>
<g id="a_node21"><a xlink:href="classTable.html" target="_top" xlink:title=" ">
<polygon fill="white" stroke="black" points="530.5,-864.85 530.5,-883.85 634.5,-883.85 634.5,-864.85 530.5,-864.85"/>
<text text-anchor="middle" x="582.5" y="-871.85" font-family="Helvetica,sans-Serif" font-size="10.00">Table&lt; 2, Number &gt;</text>
</a>
</g>
</g>
<!-- Node1&#45;&gt;Node21 -->
<g id="edge20" class="edge">
<title>Node1&#45;&gt;Node21</title>
<path fill="none" stroke="orange" stroke-dasharray="5,2" d="M327.38,-875.19C382.74,-875.01 473.49,-874.71 530.24,-874.52"/>
<polygon fill="orange" stroke="orange" points="327.13,-871.7 317.14,-875.23 327.15,-878.7 327.13,-871.7"/>
<text text-anchor="middle" x="409.5" y="-878.35" font-family="Helvetica,sans-Serif" font-size="10.00"> &lt; 2, Number &gt;</text>
</g>
<!-- Node22 -->
<g id="node22" class="node">
<title>Node22</title>
<g id="a_node22"><a xlink:href="classTable.html" target="_top" xlink:title=" ">
<polygon fill="white" stroke="black" points="503.5,-815.35 503.5,-845.35 661.5,-845.35 661.5,-815.35 503.5,-815.35"/>
<text text-anchor="start" x="511.5" y="-833.35" font-family="Helvetica,sans-Serif" font-size="10.00">Table&lt; 5, BarycentricPolynomial</text>
<text text-anchor="middle" x="582.5" y="-822.35" font-family="Helvetica,sans-Serif" font-size="10.00">&lt; dim &gt; &gt;</text>
</a>
</g>
</g>
<!-- Node1&#45;&gt;Node22 -->
<g id="edge21" class="edge">
<title>Node1&#45;&gt;Node22</title>
<path fill="none" stroke="orange" stroke-dasharray="5,2" d="M304.9,-861.1C314.11,-856.57 324.77,-852.05 335,-849.35 390.1,-834.84 454.34,-830.27 503.42,-829.23"/>
<polygon fill="orange" stroke="orange" points="303.19,-858.04 295.91,-865.74 306.4,-864.27 303.19,-858.04"/>
<text text-anchor="start" x="349" y="-863.35" font-family="Helvetica,sans-Serif" font-size="10.00"> &lt; 5, BarycentricPolynomial</text>
<text text-anchor="middle" x="409.5" y="-852.35" font-family="Helvetica,sans-Serif" font-size="10.00">&lt; dim &gt; &gt;</text>
</g>
<!-- Node23 -->
<g id="node23" class="node">
<title>Node23</title>
<g id="a_node23"><a xlink:href="classTable.html" target="_top" xlink:title=" ">
<polygon fill="white" stroke="black" points="530.5,-776.85 530.5,-795.85 634.5,-795.85 634.5,-776.85 530.5,-776.85"/>
<text text-anchor="middle" x="582.5" y="-783.85" font-family="Helvetica,sans-Serif" font-size="10.00">Table&lt; 3, Number &gt;</text>
</a>
</g>
</g>
<!-- Node1&#45;&gt;Node23 -->
<g id="edge22" class="edge">
<title>Node1&#45;&gt;Node23</title>
<path fill="none" stroke="orange" stroke-dasharray="5,2" d="M290.87,-857.32C300.73,-843.36 316.33,-824.86 335,-815.35 396.83,-783.89 478.39,-780.53 530.4,-782.37"/>
<polygon fill="orange" stroke="orange" points="287.92,-855.44 285.25,-865.69 293.73,-859.34 287.92,-855.44"/>
<text text-anchor="middle" x="409.5" y="-818.35" font-family="Helvetica,sans-Serif" font-size="10.00"> &lt; 3, Number &gt;</text>
</g>
<!-- Node24 -->
<g id="node24" class="node">
<title>Node24</title>
<g id="a_node24"><a xlink:href="classTable.html" target="_top" xlink:title=" ">
<polygon fill="white" stroke="black" points="530.5,-738.85 530.5,-757.85 634.5,-757.85 634.5,-738.85 530.5,-738.85"/>
<text text-anchor="middle" x="582.5" y="-745.85" font-family="Helvetica,sans-Serif" font-size="10.00">Table&lt; 4, Number &gt;</text>
</a>
</g>
</g>
<!-- Node1&#45;&gt;Node24 -->
<g id="edge23" class="edge">
<title>Node1&#45;&gt;Node24</title>
<path fill="none" stroke="orange" stroke-dasharray="5,2" d="M283.58,-855.75C289.9,-830.8 304.64,-788.54 335,-768.35 393.11,-729.73 476.77,-732.08 530.13,-738.95"/>
<polygon fill="orange" stroke="orange" points="280.15,-855.03 281.3,-865.56 286.97,-856.61 280.15,-855.03"/>
<text text-anchor="middle" x="409.5" y="-771.35" font-family="Helvetica,sans-Serif" font-size="10.00"> &lt; 4, Number &gt;</text>
</g>
<!-- Node25 -->
<g id="node25" class="node">
<title>Node25</title>
<g id="a_node25"><a xlink:href="classTable.html" target="_top" xlink:title=" ">
<polygon fill="white" stroke="black" points="524.5,-667.35 524.5,-719.35 640.5,-719.35 640.5,-667.35 524.5,-667.35"/>
<text text-anchor="start" x="532.5" y="-707.35" font-family="Helvetica,sans-Serif" font-size="10.00">Table&lt; 2, internal</text>
<text text-anchor="start" x="532.5" y="-696.35" font-family="Helvetica,sans-Serif" font-size="10.00">::MatrixFreeFunctions</text>
<text text-anchor="start" x="532.5" y="-685.35" font-family="Helvetica,sans-Serif" font-size="10.00">::UnivariateShapeData</text>
<text text-anchor="middle" x="582.5" y="-674.35" font-family="Helvetica,sans-Serif" font-size="10.00">&lt; Number &gt; * &gt;</text>
</a>
</g>
</g>
<!-- Node1&#45;&gt;Node25 -->
<g id="edge24" class="edge">
<title>Node1&#45;&gt;Node25</title>
<path fill="none" stroke="orange" stroke-dasharray="5,2" d="M278.9,-855.27C278.98,-817.34 285.27,-735.66 335,-698.35 389.01,-657.83 470.06,-665.35 524.31,-677.09"/>
<polygon fill="orange" stroke="orange" points="275.4,-855.58 279.03,-865.53 282.4,-855.49 275.4,-855.58"/>
<text text-anchor="start" x="338.5" y="-723.35" font-family="Helvetica,sans-Serif" font-size="10.00"> &lt; 2, internal::MatrixFree</text>
<text text-anchor="start" x="338.5" y="-712.35" font-family="Helvetica,sans-Serif" font-size="10.00">Functions::UnivariateShapeData</text>
<text text-anchor="middle" x="409.5" y="-701.35" font-family="Helvetica,sans-Serif" font-size="10.00">&lt; Number &gt; * &gt;</text>
</g>
<!-- Node26 -->
<g id="node26" class="node">
<title>Node26</title>
<g id="a_node26"><a xlink:href="classTable.html" target="_top" xlink:title=" ">
<polygon fill="white" stroke="black" points="529,-618.35 529,-648.35 636,-648.35 636,-618.35 529,-618.35"/>
<text text-anchor="start" x="537" y="-636.35" font-family="Helvetica,sans-Serif" font-size="10.00">Table&lt; 2, Tensor&lt; 2,</text>
<text text-anchor="middle" x="582.5" y="-625.35" font-family="Helvetica,sans-Serif" font-size="10.00"> dim &gt; &gt;</text>
</a>
</g>
</g>
<!-- Node1&#45;&gt;Node26 -->
<g id="edge25" class="edge">
<title>Node1&#45;&gt;Node26</title>
<path fill="none" stroke="orange" stroke-dasharray="5,2" d="M281.53,-855.59C287.03,-806.24 303.94,-679.7 335,-653.35 363.24,-629.4 465.35,-628.65 528.95,-630.7"/>
<polygon fill="orange" stroke="orange" points="278.04,-855.31 280.45,-865.63 285,-856.06 278.04,-855.31"/>
<text text-anchor="middle" x="409.5" y="-656.35" font-family="Helvetica,sans-Serif" font-size="10.00"> &lt; 2, Tensor&lt; 2, dim &gt; &gt;</text>
</g>
<!-- Node27 -->
<g id="node27" class="node">
<title>Node27</title>
<g id="a_node27"><a xlink:href="classTable.html" target="_top" xlink:title=" ">
<polygon fill="white" stroke="black" points="512,-547.35 512,-599.35 653,-599.35 653,-547.35 512,-547.35"/>
<text text-anchor="start" x="520" y="-587.35" font-family="Helvetica,sans-Serif" font-size="10.00">Table&lt; 2, SmartPointer</text>
<text text-anchor="start" x="520" y="-576.35" font-family="Helvetica,sans-Serif" font-size="10.00">&lt; SparsityPatternType,</text>
<text text-anchor="start" x="520" y="-565.35" font-family="Helvetica,sans-Serif" font-size="10.00"> BlockSparsityPatternBase</text>
<text text-anchor="middle" x="582.5" y="-554.35" font-family="Helvetica,sans-Serif" font-size="10.00">&lt; SparsityPatternType &gt; &gt; &gt;</text>
</a>
</g>
</g>
<!-- Node1&#45;&gt;Node27 -->
<g id="edge26" class="edge">
<title>Node1&#45;&gt;Node27</title>
<path fill="none" stroke="orange" stroke-dasharray="5,2" d="M280.16,-855.8C282.6,-796.12 293.32,-618.18 335,-582.35 382.82,-541.25 457.18,-544.45 511.73,-554.59"/>
<polygon fill="orange" stroke="orange" points="276.66,-855.67 279.78,-865.8 283.65,-855.93 276.66,-855.67"/>
<text text-anchor="start" x="347" y="-618.35" font-family="Helvetica,sans-Serif" font-size="10.00"> &lt; 2, SmartPointer&lt;</text>
<text text-anchor="start" x="347" y="-607.35" font-family="Helvetica,sans-Serif" font-size="10.00"> SparsityPatternType,</text>
<text text-anchor="start" x="347" y="-596.35" font-family="Helvetica,sans-Serif" font-size="10.00"> BlockSparsityPatternBase</text>
<text text-anchor="middle" x="409.5" y="-585.35" font-family="Helvetica,sans-Serif" font-size="10.00">&lt; SparsityPatternType &gt; &gt; &gt;</text>
</g>
<!-- Node28 -->
<g id="node28" class="node">
<title>Node28</title>
<g id="a_node28"><a xlink:href="classTable.html" target="_top" xlink:title=" ">
<polygon fill="white" stroke="black" points="503.5,-498.35 503.5,-528.35 661.5,-528.35 661.5,-498.35 503.5,-498.35"/>
<text text-anchor="start" x="511.5" y="-516.35" font-family="Helvetica,sans-Serif" font-size="10.00">Table&lt; 3, BarycentricPolynomial</text>
<text text-anchor="middle" x="582.5" y="-505.35" font-family="Helvetica,sans-Serif" font-size="10.00">&lt; dim &gt; &gt;</text>
</a>
</g>
</g>
<!-- Node1&#45;&gt;Node28 -->
<g id="edge27" class="edge">
<title>Node1&#45;&gt;Node28</title>
<path fill="none" stroke="orange" stroke-dasharray="5,2" d="M279.47,-855.45C279.83,-787.56 284.88,-566.82 335,-522.35 388.02,-475.32 475.51,-485.34 530.74,-498.3"/>
<polygon fill="orange" stroke="orange" points="275.97,-855.63 279.45,-865.64 282.97,-855.64 275.97,-855.63"/>
<text text-anchor="start" x="349" y="-536.35" font-family="Helvetica,sans-Serif" font-size="10.00"> &lt; 3, BarycentricPolynomial</text>
<text text-anchor="middle" x="409.5" y="-525.35" font-family="Helvetica,sans-Serif" font-size="10.00">&lt; dim &gt; &gt;</text>
</g>
<!-- Node29 -->
<g id="node29" class="node">
<title>Node29</title>
<g id="a_node29"><a xlink:href="classTable.html" target="_top" xlink:title=" ">
<polygon fill="white" stroke="black" points="532,-1637.85 532,-1656.85 633,-1656.85 633,-1637.85 532,-1637.85"/>
<text text-anchor="middle" x="582.5" y="-1644.85" font-family="Helvetica,sans-Serif" font-size="10.00">Table&lt; 2, number &gt;</text>
</a>
</g>
</g>
<!-- Node1&#45;&gt;Node29 -->
<g id="edge28" class="edge">
<title>Node1&#45;&gt;Node29</title>
<path fill="none" stroke="orange" stroke-dasharray="5,2" d="M279.53,-895.24C279.86,-1007.76 284.09,-1561.6 335,-1615.35 385.6,-1668.77 478.14,-1665.23 534.31,-1656.91"/>
<polygon fill="orange" stroke="orange" points="283.02,-894.98 279.5,-884.99 276.02,-895 283.02,-894.98"/>
<text text-anchor="middle" x="409.5" y="-1664.35" font-family="Helvetica,sans-Serif" font-size="10.00"> &lt; 2, number &gt;</text>
</g>
<!-- Node31 -->
<g id="node31" class="node">
<title>Node31</title>
<g id="a_node31"><a xlink:href="classTable.html" target="_top" xlink:title=" ">
<polygon fill="white" stroke="black" points="539,-459.85 539,-478.85 626,-478.85 626,-459.85 539,-459.85"/>
<text text-anchor="middle" x="582.5" y="-466.85" font-family="Helvetica,sans-Serif" font-size="10.00">Table&lt; 2, bool &gt;</text>
</a>
</g>
</g>
<!-- Node1&#45;&gt;Node31 -->
<g id="edge33" class="edge">
<title>Node1&#45;&gt;Node31</title>
<path fill="none" stroke="orange" stroke-dasharray="5,2" d="M279.02,-855.59C277.69,-781.85 277.31,-524.46 335,-473.35 364.16,-447.53 476.44,-456.4 538.93,-463.69"/>
<polygon fill="orange" stroke="orange" points="275.53,-855.86 279.23,-865.78 282.52,-855.71 275.53,-855.86"/>
<text text-anchor="middle" x="409.5" y="-476.35" font-family="Helvetica,sans-Serif" font-size="10.00"> &lt; 2, bool &gt;</text>
</g>
<!-- Node32 -->
<g id="node32" class="node">
<title>Node32</title>
<g id="a_node32"><a xlink:href="classTable.html" target="_top" xlink:title=" ">
<polygon fill="white" stroke="black" points="529,-410.35 529,-440.35 636,-440.35 636,-410.35 529,-410.35"/>
<text text-anchor="start" x="537" y="-428.35" font-family="Helvetica,sans-Serif" font-size="10.00">Table&lt; 2, Tensor&lt; 3,</text>
<text text-anchor="middle" x="582.5" y="-417.35" font-family="Helvetica,sans-Serif" font-size="10.00"> dim &gt; &gt;</text>
</a>
</g>
</g>
<!-- Node1&#45;&gt;Node32 -->
<g id="edge34" class="edge">
<title>Node1&#45;&gt;Node32</title>
<path fill="none" stroke="orange" stroke-dasharray="5,2" d="M280.58,-855.51C285.17,-774.3 304.33,-470.17 335,-441.35 386.34,-393.12 473.27,-400.2 528.99,-411.46"/>
<polygon fill="orange" stroke="orange" points="277.06,-855.64 280,-865.82 284.05,-856.03 277.06,-855.64"/>
<text text-anchor="middle" x="409.5" y="-444.35" font-family="Helvetica,sans-Serif" font-size="10.00"> &lt; 2, Tensor&lt; 3, dim &gt; &gt;</text>
</g>
<!-- Node33 -->
<g id="node33" class="node">
<title>Node33</title>
<g id="a_node33"><a xlink:href="classTable.html" target="_top" xlink:title=" ">
<polygon fill="white" stroke="black" points="503.5,-361.35 503.5,-391.35 661.5,-391.35 661.5,-361.35 503.5,-361.35"/>
<text text-anchor="start" x="511.5" y="-379.35" font-family="Helvetica,sans-Serif" font-size="10.00">Table&lt; 4, BarycentricPolynomial</text>
<text text-anchor="middle" x="582.5" y="-368.35" font-family="Helvetica,sans-Serif" font-size="10.00">&lt; dim &gt; &gt;</text>
</a>
</g>
</g>
<!-- Node1&#45;&gt;Node33 -->
<g id="edge35" class="edge">
<title>Node1&#45;&gt;Node33</title>
<path fill="none" stroke="orange" stroke-dasharray="5,2" d="M280.18,-855.69C283.42,-767.33 298.73,-409.94 335,-377.35 359.04,-355.76 440.48,-359.29 503.24,-365.82"/>
<polygon fill="orange" stroke="orange" points="276.68,-855.59 279.82,-865.71 283.68,-855.84 276.68,-855.59"/>
<text text-anchor="start" x="349" y="-391.35" font-family="Helvetica,sans-Serif" font-size="10.00"> &lt; 4, BarycentricPolynomial</text>
<text text-anchor="middle" x="409.5" y="-380.35" font-family="Helvetica,sans-Serif" font-size="10.00">&lt; dim &gt; &gt;</text>
</g>
<!-- Node34 -->
<g id="node34" class="node">
<title>Node34</title>
<g id="a_node34"><a xlink:href="classTable.html" target="_top" xlink:title=" ">
<polygon fill="white" stroke="black" points="503.5,-312.35 503.5,-342.35 661.5,-342.35 661.5,-312.35 503.5,-312.35"/>
<text text-anchor="start" x="511.5" y="-330.35" font-family="Helvetica,sans-Serif" font-size="10.00">Table&lt; 2, BarycentricPolynomial</text>
<text text-anchor="middle" x="582.5" y="-319.35" font-family="Helvetica,sans-Serif" font-size="10.00">&lt; dim &gt; &gt;</text>
</a>
</g>
</g>
<!-- Node1&#45;&gt;Node34 -->
<g id="edge36" class="edge">
<title>Node1&#45;&gt;Node34</title>
<path fill="none" stroke="orange" stroke-dasharray="5,2" d="M280.03,-855.56C282.69,-762.5 296.16,-371.56 335,-335.35 358.68,-313.27 440.43,-314.49 503.36,-319.18"/>
<polygon fill="orange" stroke="orange" points="276.52,-855.72 279.74,-865.81 283.52,-855.91 276.52,-855.72"/>
<text text-anchor="start" x="349" y="-349.35" font-family="Helvetica,sans-Serif" font-size="10.00"> &lt; 2, BarycentricPolynomial</text>
<text text-anchor="middle" x="409.5" y="-338.35" font-family="Helvetica,sans-Serif" font-size="10.00">&lt; dim &gt; &gt;</text>
</g>
<!-- Node35 -->
<g id="node35" class="node">
<title>Node35</title>
<g id="a_node35"><a xlink:href="classTable.html" target="_top" xlink:title=" ">
<polygon fill="white" stroke="black" points="506.5,-251.85 506.5,-292.85 658.5,-292.85 658.5,-251.85 506.5,-251.85"/>
<text text-anchor="start" x="514.5" y="-280.85" font-family="Helvetica,sans-Serif" font-size="10.00">Table&lt; 2, SmartPointer</text>
<text text-anchor="start" x="514.5" y="-269.85" font-family="Helvetica,sans-Serif" font-size="10.00">&lt; BlockType, BlockMatrixBase</text>
<text text-anchor="middle" x="582.5" y="-258.85" font-family="Helvetica,sans-Serif" font-size="10.00">&lt; MatrixType &gt; &gt; &gt;</text>
</a>
</g>
</g>
<!-- Node1&#45;&gt;Node35 -->
<g id="edge37" class="edge">
<title>Node1&#45;&gt;Node35</title>
<path fill="none" stroke="orange" stroke-dasharray="5,2" d="M279.82,-855.75C281.65,-757.37 292.12,-320.71 335,-280.35 358.97,-257.79 443.06,-259.45 506.41,-264.37"/>
<polygon fill="orange" stroke="orange" points="276.32,-855.73 279.65,-865.79 283.32,-855.86 276.32,-855.73"/>
<text text-anchor="start" x="344.5" y="-305.35" font-family="Helvetica,sans-Serif" font-size="10.00"> &lt; 2, SmartPointer&lt;</text>
<text text-anchor="start" x="344.5" y="-294.35" font-family="Helvetica,sans-Serif" font-size="10.00"> BlockType, BlockMatrixBase</text>
<text text-anchor="middle" x="409.5" y="-283.35" font-family="Helvetica,sans-Serif" font-size="10.00">&lt; MatrixType &gt; &gt; &gt;</text>
</g>
<!-- Node36 -->
<g id="node36" class="node">
<title>Node36</title>
<g id="a_node36"><a xlink:href="classTable.html" target="_top" xlink:title=" ">
<polygon fill="white" stroke="black" points="506.5,-191.85 506.5,-232.85 658.5,-232.85 658.5,-191.85 506.5,-191.85"/>
<text text-anchor="start" x="514.5" y="-220.85" font-family="Helvetica,sans-Serif" font-size="10.00">Table&lt; 2, SmartPointer</text>
<text text-anchor="start" x="514.5" y="-209.85" font-family="Helvetica,sans-Serif" font-size="10.00">&lt; BlockType, BlockMatrixBase</text>
<text text-anchor="middle" x="582.5" y="-198.85" font-family="Helvetica,sans-Serif" font-size="10.00">&lt; SparseMatrix &gt; &gt; &gt;</text>
</a>
</g>
</g>
<!-- Node1&#45;&gt;Node36 -->
<g id="edge38" class="edge">
<title>Node1&#45;&gt;Node36</title>
<path fill="none" stroke="orange" stroke-dasharray="5,2" d="M279.68,-855.24C280.8,-750.36 288.47,-269.22 335,-224.35 379.34,-181.6 451.6,-183.08 506.46,-192.59"/>
<polygon fill="orange" stroke="orange" points="276.18,-855.37 279.58,-865.41 283.18,-855.44 276.18,-855.37"/>
<text text-anchor="start" x="344.5" y="-249.35" font-family="Helvetica,sans-Serif" font-size="10.00"> &lt; 2, SmartPointer&lt;</text>
<text text-anchor="start" x="344.5" y="-238.35" font-family="Helvetica,sans-Serif" font-size="10.00"> BlockType, BlockMatrixBase</text>
<text text-anchor="middle" x="409.5" y="-227.35" font-family="Helvetica,sans-Serif" font-size="10.00">&lt; SparseMatrix &gt; &gt; &gt;</text>
</g>
<!-- Node37 -->
<g id="node37" class="node">
<title>Node37</title>
<g id="a_node37"><a xlink:href="classTable.html" target="_top" xlink:title=" ">
<polygon fill="white" stroke="black" points="528.5,-153.85 528.5,-172.85 636.5,-172.85 636.5,-153.85 528.5,-153.85"/>
<text text-anchor="middle" x="582.5" y="-160.85" font-family="Helvetica,sans-Serif" font-size="10.00">Table&lt; dim, double &gt;</text>
</a>
</g>
</g>
<!-- Node1&#45;&gt;Node37 -->
<g id="edge39" class="edge">
<title>Node1&#45;&gt;Node37</title>
<path fill="none" stroke="orange" stroke-dasharray="5,2" d="M279.53,-855.38C279.91,-745.8 284.37,-220.89 335,-172.35 361.66,-146.79 464.32,-151.59 528.44,-157.44"/>
<polygon fill="orange" stroke="orange" points="276.03,-855.65 279.51,-865.66 283.03,-855.67 276.03,-855.65"/>
<text text-anchor="middle" x="409.5" y="-175.35" font-family="Helvetica,sans-Serif" font-size="10.00"> &lt; dim, double &gt;</text>
</g>
<!-- Node38 -->
<g id="node38" class="node">
<title>Node38</title>
<g id="a_node38"><a xlink:href="classTable.html" target="_top" xlink:title=" ">
<polygon fill="white" stroke="black" points="519,-104.35 519,-134.35 646,-134.35 646,-104.35 519,-104.35"/>
<text text-anchor="start" x="527" y="-122.35" font-family="Helvetica,sans-Serif" font-size="10.00">Table&lt; 2, DerivativeForm</text>
<text text-anchor="middle" x="582.5" y="-111.35" font-family="Helvetica,sans-Serif" font-size="10.00">&lt; 2, dim, spacedim &gt; &gt;</text>
</a>
</g>
</g>
<!-- Node1&#45;&gt;Node38 -->
<g id="edge40" class="edge">
<title>Node1&#45;&gt;Node38</title>
<path fill="none" stroke="orange" stroke-dasharray="5,2" d="M279.43,-855.54C279.22,-742.18 280.94,-179.21 335,-127.35 387.38,-77.11 478.46,-89.89 534.03,-104.27"/>
<polygon fill="orange" stroke="orange" points="275.93,-855.85 279.46,-865.84 282.93,-855.83 275.93,-855.85"/>
<text text-anchor="start" x="358" y="-141.35" font-family="Helvetica,sans-Serif" font-size="10.00"> &lt; 2, DerivativeForm</text>
<text text-anchor="middle" x="409.5" y="-130.35" font-family="Helvetica,sans-Serif" font-size="10.00">&lt; 2, dim, spacedim &gt; &gt;</text>
</g>
<!-- Node39 -->
<g id="node39" class="node">
<title>Node39</title>
<g id="a_node39"><a xlink:href="classTable.html" target="_top" xlink:title=" ">
<polygon fill="white" stroke="black" points="538.5,-65.85 538.5,-84.85 626.5,-84.85 626.5,-65.85 538.5,-65.85"/>
<text text-anchor="middle" x="582.5" y="-72.85" font-family="Helvetica,sans-Serif" font-size="10.00">Table&lt; 2, float &gt;</text>
</a>
</g>
</g>
<!-- Node1&#45;&gt;Node39 -->
<g id="edge41" class="edge">
<title>Node1&#45;&gt;Node39</title>
<path fill="none" stroke="orange" stroke-dasharray="5,2" d="M279.31,-855.67C278.4,-738.13 276.56,-132.31 335,-77.35 363.33,-50.71 475.68,-60.89 538.47,-69.04"/>
<polygon fill="orange" stroke="orange" points="275.81,-855.78 279.4,-865.75 282.81,-855.72 275.81,-855.78"/>
<text text-anchor="middle" x="409.5" y="-80.35" font-family="Helvetica,sans-Serif" font-size="10.00"> &lt; 2, float &gt;</text>
</g>
<!-- Node40 -->
<g id="node40" class="node">
<title>Node40</title>
<g id="a_node40"><a xlink:href="classTable.html" target="_top" xlink:title=" ">
<polygon fill="white" stroke="black" points="517,-16.35 517,-46.35 648,-46.35 648,-16.35 517,-16.35"/>
<text text-anchor="start" x="525" y="-34.35" font-family="Helvetica,sans-Serif" font-size="10.00">Table&lt; 2, SparseMatrixEZ</text>
<text text-anchor="middle" x="582.5" y="-23.35" font-family="Helvetica,sans-Serif" font-size="10.00">&lt; Number &gt; &gt;</text>
</a>
</g>
</g>
<!-- Node1&#45;&gt;Node40 -->
<g id="edge42" class="edge">
<title>Node1&#45;&gt;Node40</title>
<path fill="none" stroke="orange" stroke-dasharray="5,2" d="M279.24,-855.75C277.86,-734.75 273.46,-92.67 335,-34.35 389.05,16.87 483.5,-0.15 538.47,-16.31"/>
<polygon fill="orange" stroke="orange" points="275.74,-855.84 279.37,-865.8 282.74,-855.75 275.74,-855.84"/>
<text text-anchor="start" x="362.5" y="-48.35" font-family="Helvetica,sans-Serif" font-size="10.00"> &lt; 2, SparseMatrixEZ</text>
<text text-anchor="middle" x="409.5" y="-37.35" font-family="Helvetica,sans-Serif" font-size="10.00">&lt; Number &gt; &gt;</text>
</g>
<!-- Node2 -->
<g id="node2" class="node">
<title>Node2</title>
<g id="a_node2"><a xlink:href="classTableBase.html" target="_top" xlink:title=" ">
<polygon fill="white" stroke="black" points="103,-865.85 103,-884.85 203,-884.85 203,-865.85 103,-865.85"/>
<text text-anchor="middle" x="153" y="-872.85" font-family="Helvetica,sans-Serif" font-size="10.00">TableBase&lt; N, T &gt;</text>
</a>
</g>
</g>
<!-- Node2&#45;&gt;Node1 -->
<g id="edge1" class="edge">
<title>Node2&#45;&gt;Node1</title>
<path fill="none" stroke="midnightblue" d="M213.32,-875.35C222.38,-875.35 231.51,-875.35 239.92,-875.35"/>
<polygon fill="midnightblue" stroke="midnightblue" points="213.17,-871.85 203.17,-875.35 213.17,-878.85 213.17,-871.85"/>
</g>
<!-- Node3 -->
<g id="node3" class="node">
<title>Node3</title>
<g id="a_node3"><a xlink:href="classSubscriptor.html" target="_top" xlink:title=" ">
<polygon fill="white" stroke="black" points="0,-865.85 0,-884.85 66,-884.85 66,-865.85 0,-865.85"/>
<text text-anchor="middle" x="33" y="-872.85" font-family="Helvetica,sans-Serif" font-size="10.00">Subscriptor</text>
</a>
</g>
</g>
<!-- Node3&#45;&gt;Node2 -->
<g id="edge2" class="edge">
<title>Node3&#45;&gt;Node2</title>
<path fill="none" stroke="midnightblue" d="M76.43,-875.35C85.03,-875.35 94.15,-875.35 102.96,-875.35"/>
<polygon fill="midnightblue" stroke="midnightblue" points="76.24,-871.85 66.24,-875.35 76.24,-878.85 76.24,-871.85"/>
</g>
<!-- Node19 -->
<g id="node19" class="node">
<title>Node19</title>
<g id="a_node19"><a xlink:href="classFullMatrix.html" target="_top" xlink:title=" ">
<polygon fill="white" stroke="black" points="1053,-1580.85 1053,-1599.85 1159,-1599.85 1159,-1580.85 1053,-1580.85"/>
<text text-anchor="middle" x="1106" y="-1587.85" font-family="Helvetica,sans-Serif" font-size="10.00">FullMatrix&lt; double &gt;</text>
</a>
</g>
</g>
<!-- Node18&#45;&gt;Node19 -->
<g id="edge18" class="edge">
<title>Node18&#45;&gt;Node19</title>
<path fill="none" stroke="midnightblue" d="M789.42,-1567.57C861.68,-1572.79 983.61,-1581.59 1052.85,-1586.59"/>
<polygon fill="midnightblue" stroke="midnightblue" points="789.35,-1564.06 779.13,-1566.83 788.85,-1571.04 789.35,-1564.06"/>
</g>
<!-- Node30 -->
<g id="node30" class="node">
<title>Node30</title>
<g id="a_node30"><a xlink:href="classFullMatrix.html" target="_top" xlink:title=" ">
<polygon fill="white" stroke="black" points="797,-1644.85 797,-1663.85 907,-1663.85 907,-1644.85 797,-1644.85"/>
<text text-anchor="middle" x="852" y="-1651.85" font-family="Helvetica,sans-Serif" font-size="10.00">FullMatrix&lt; number &gt;</text>
</a>
</g>
</g>
<!-- Node29&#45;&gt;Node30 -->
<g id="edge29" class="edge">
<title>Node29&#45;&gt;Node30</title>
<path fill="none" stroke="midnightblue" d="M643.33,-1648.92C689.37,-1650.12 752.46,-1651.77 796.98,-1652.94"/>
<polygon fill="midnightblue" stroke="midnightblue" points="643.28,-1645.42 633.19,-1648.65 643.09,-1652.41 643.28,-1645.42"/>
</g>
<!-- Node30&#45;&gt;Node4 -->
<g id="edge31" class="edge">
<title>Node30&#45;&gt;Node4</title>
<path fill="none" stroke="orange" stroke-dasharray="5,2" d="M902.9,-1666.23C947.22,-1676.79 1011.62,-1692.12 1055.74,-1702.62"/>
<polygon fill="orange" stroke="orange" points="903.47,-1662.77 892.93,-1663.86 901.85,-1669.58 903.47,-1662.77"/>
<text text-anchor="middle" x="970" y="-1694.35" font-family="Helvetica,sans-Serif" font-size="10.00"> &lt; inverse_type &gt;</text>
</g>
<!-- Node30&#45;&gt;Node5 -->
<g id="edge32" class="edge">
<title>Node30&#45;&gt;Node5</title>
<path fill="none" stroke="orange" stroke-dasharray="5,2" d="M917.24,-1654.86C952.53,-1655.14 996.39,-1655.49 1032.85,-1655.78"/>
<polygon fill="orange" stroke="orange" points="917.09,-1651.36 907.06,-1654.78 917.03,-1658.36 917.09,-1651.36"/>
<text text-anchor="middle" x="970" y="-1658.35" font-family="Helvetica,sans-Serif" font-size="10.00"> &lt; CoefficientType &gt;</text>
</g>
<!-- Node30&#45;&gt;Node19 -->
<g id="edge30" class="edge">
<title>Node30&#45;&gt;Node19</title>
<path fill="none" stroke="orange" stroke-dasharray="5,2" d="M900.36,-1642.32C948.72,-1630.04 1022.83,-1611.22 1067.34,-1599.92"/>
<polygon fill="orange" stroke="orange" points="899.29,-1638.99 890.45,-1644.84 901.01,-1645.77 899.29,-1638.99"/>
<text text-anchor="middle" x="970" y="-1638.35" font-family="Helvetica,sans-Serif" font-size="10.00"> &lt; double &gt;</text>
</g>
</g>
</svg>
