<?xml version="1.0" encoding="UTF-8" standalone="no"?>
<!DOCTYPE svg PUBLIC "-//W3C//DTD SVG 1.1//EN"
 "http://www.w3.org/Graphics/SVG/1.1/DTD/svg11.dtd">
<!-- Generated by graphviz version 2.47.1 (20210417.1919)
 -->
<!-- Title: hp::FECollection&lt; dim, spacedim &gt; Pages: 1 -->
<svg width="346pt" height="320pt"
 viewBox="0.00 0.00 345.50 320.00" xmlns="http://www.w3.org/2000/svg" xmlns:xlink="http://www.w3.org/1999/xlink">
<g id="graph0" class="graph" transform="scale(1 1) rotate(0) translate(4 316)">
<title>hp::FECollection&lt; dim, spacedim &gt;</title>
<polygon fill="white" stroke="transparent" points="-4,4 -4,-316 341.5,-316 341.5,4 -4,4"/>
<!-- Node1 -->
<g id="node1" class="node">
<title>Node1</title>
<g id="a_node1"><a xlink:title=" ">
<polygon fill="#bfbfbf" stroke="black" points="14.5,-78.5 14.5,-108.5 131.5,-108.5 131.5,-78.5 14.5,-78.5"/>
<text text-anchor="start" x="22.5" y="-96.5" font-family="Helvetica,sans-Serif" font-size="10.00">hp::FECollection&lt; dim,</text>
<text text-anchor="middle" x="73" y="-85.5" font-family="Helvetica,sans-Serif" font-size="10.00"> spacedim &gt;</text>
</a>
</g>
</g>
<!-- Node1&#45;&gt;Node1 -->
<g id="edge5" class="edge">
<title>Node1&#45;&gt;Node1</title>
<path fill="none" stroke="orange" stroke-dasharray="5,2" d="M141.94,-95.8C146.64,-95.27 149.5,-94.51 149.5,-93.5 149.5,-91.89 142.18,-90.89 131.7,-90.5"/>
<polygon fill="orange" stroke="orange" points="141.43,-92.33 131.7,-96.5 141.91,-99.31 141.43,-92.33"/>
<text text-anchor="middle" x="192" y="-91" font-family="Helvetica,sans-Serif" font-size="10.00"> &lt; dim, spacedim &gt;</text>
</g>
<!-- Node1&#45;&gt;Node1 -->
<g id="edge6" class="edge">
<title>Node1&#45;&gt;Node1</title>
<path fill="none" stroke="orange" stroke-dasharray="5,2" d="M141.62,-99.58C186.4,-100.7 234.5,-98.67 234.5,-93.5 234.5,-87.94 178.85,-86.02 131.54,-87.73"/>
<polygon fill="orange" stroke="orange" points="141.65,-96.08 131.54,-99.27 141.43,-103.07 141.65,-96.08"/>
<text text-anchor="middle" x="277" y="-91" font-family="Helvetica,sans-Serif" font-size="10.00"> &lt; dim, spacedim &gt;</text>
</g>
<!-- Node5 -->
<g id="node5" class="node">
<title>Node5</title>
<g id="a_node5"><a xlink:href="classhp_1_1FECollection.html" target="_top" xlink:title=" ">
<polygon fill="white" stroke="black" points="14.5,-0.5 14.5,-30.5 131.5,-30.5 131.5,-0.5 14.5,-0.5"/>
<text text-anchor="start" x="22.5" y="-18.5" font-family="Helvetica,sans-Serif" font-size="10.00">hp::FECollection&lt; dim,</text>
<text text-anchor="middle" x="73" y="-7.5" font-family="Helvetica,sans-Serif" font-size="10.00"> dim &gt;</text>
</a>
</g>
</g>
<!-- Node1&#45;&gt;Node5 -->
<g id="edge7" class="edge">
<title>Node1&#45;&gt;Node5</title>
<path fill="none" stroke="orange" stroke-dasharray="5,2" d="M73,-68.09C73,-55.76 73,-41.22 73,-30.73"/>
<polygon fill="orange" stroke="orange" points="69.5,-68.2 73,-78.2 76.5,-68.21 69.5,-68.2"/>
<text text-anchor="middle" x="102.5" y="-52" font-family="Helvetica,sans-Serif" font-size="10.00"> &lt; dim, dim &gt;</text>
</g>
<!-- Node2 -->
<g id="node2" class="node">
<title>Node2</title>
<g id="a_node2"><a xlink:href="classhp_1_1Collection.html" target="_top" xlink:title=" ">
<polygon fill="white" stroke="black" points="0,-146.5 0,-176.5 146,-176.5 146,-146.5 0,-146.5"/>
<text text-anchor="start" x="8" y="-164.5" font-family="Helvetica,sans-Serif" font-size="10.00">hp::Collection&lt; FiniteElement</text>
<text text-anchor="middle" x="73" y="-153.5" font-family="Helvetica,sans-Serif" font-size="10.00">&lt; dim, dim &gt; &gt;</text>
</a>
</g>
</g>
<!-- Node2&#45;&gt;Node1 -->
<g id="edge1" class="edge">
<title>Node2&#45;&gt;Node1</title>
<path fill="none" stroke="midnightblue" d="M73,-136.03C73,-126.86 73,-116.74 73,-108.79"/>
<polygon fill="midnightblue" stroke="midnightblue" points="69.5,-136.18 73,-146.18 76.5,-136.18 69.5,-136.18"/>
</g>
<!-- Node3 -->
<g id="node3" class="node">
<title>Node3</title>
<g id="a_node3"><a xlink:href="classSubscriptor.html" target="_top" xlink:title=" ">
<polygon fill="white" stroke="black" points="36,-292.5 36,-311.5 102,-311.5 102,-292.5 36,-292.5"/>
<text text-anchor="middle" x="69" y="-299.5" font-family="Helvetica,sans-Serif" font-size="10.00">Subscriptor</text>
</a>
</g>
</g>
<!-- Node3&#45;&gt;Node2 -->
<g id="edge2" class="edge">
<title>Node3&#45;&gt;Node2</title>
<path fill="none" stroke="midnightblue" d="M69.54,-282.25C70.35,-254.19 71.86,-201.88 72.59,-176.73"/>
<polygon fill="midnightblue" stroke="midnightblue" points="66.04,-282.24 69.25,-292.34 73.04,-282.44 66.04,-282.24"/>
</g>
<!-- Node4 -->
<g id="node4" class="node">
<title>Node4</title>
<g id="a_node4"><a xlink:href="classhp_1_1Collection.html" target="_top" xlink:title=" ">
<polygon fill="white" stroke="black" points="85.5,-235.5 85.5,-254.5 186.5,-254.5 186.5,-235.5 85.5,-235.5"/>
<text text-anchor="middle" x="136" y="-242.5" font-family="Helvetica,sans-Serif" font-size="10.00">hp::Collection&lt; T &gt;</text>
</a>
</g>
</g>
<!-- Node3&#45;&gt;Node4 -->
<g id="edge4" class="edge">
<title>Node3&#45;&gt;Node4</title>
<path fill="none" stroke="midnightblue" d="M87.27,-286C99.5,-275.96 115.16,-263.1 125.38,-254.71"/>
<polygon fill="midnightblue" stroke="midnightblue" points="84.98,-283.36 79.47,-292.41 89.42,-288.77 84.98,-283.36"/>
</g>
<!-- Node4&#45;&gt;Node2 -->
<g id="edge3" class="edge">
<title>Node4&#45;&gt;Node2</title>
<path fill="none" stroke="orange" stroke-dasharray="5,2" d="M122.82,-226.95C111.28,-212.01 94.7,-190.58 83.9,-176.6"/>
<polygon fill="orange" stroke="orange" points="120.37,-229.51 129.26,-235.28 125.91,-225.23 120.37,-229.51"/>
<text text-anchor="start" x="113" y="-209" font-family="Helvetica,sans-Serif" font-size="10.00"> &lt; FiniteElement&lt; dim,</text>
<text text-anchor="middle" x="163" y="-198" font-family="Helvetica,sans-Serif" font-size="10.00"> dim &gt; &gt;</text>
</g>
</g>
</svg>
