<?xml version="1.0" encoding="UTF-8" standalone="no"?>
<!DOCTYPE svg PUBLIC "-//W3C//DTD SVG 1.1//EN"
 "http://www.w3.org/Graphics/SVG/1.1/DTD/svg11.dtd">
<!-- Generated by graphviz version 2.47.1 (20210417.1919)
 -->
<!-- Title: FE_DGP&lt; dim, spacedim &gt; Pages: 1 -->
<svg width="314pt" height="366pt"
 viewBox="0.00 0.00 314.00 366.00" xmlns="http://www.w3.org/2000/svg" xmlns:xlink="http://www.w3.org/1999/xlink">
<g id="graph0" class="graph" transform="scale(1 1) rotate(0) translate(4 362)">
<title>FE_DGP&lt; dim, spacedim &gt;</title>
<polygon fill="white" stroke="transparent" points="-4,4 -4,-362 310,-362 310,4 -4,4"/>
<!-- Node1 -->
<g id="node1" class="node">
<title>Node1</title>
<g id="a_node1"><a xlink:title=" ">
<polygon fill="#bfbfbf" stroke="black" points="19,-0.5 19,-19.5 157,-19.5 157,-0.5 19,-0.5"/>
<text text-anchor="middle" x="88" y="-7.5" font-family="Helvetica,sans-Serif" font-size="10.00">FE_DGP&lt; dim, spacedim &gt;</text>
</a>
</g>
</g>
<!-- Node2 -->
<g id="node2" class="node">
<title>Node2</title>
<g id="a_node2"><a xlink:href="classFE__Poly.html" target="_top" xlink:title=" ">
<polygon fill="white" stroke="black" points="33,-57.5 33,-76.5 143,-76.5 143,-57.5 33,-57.5"/>
<text text-anchor="middle" x="88" y="-64.5" font-family="Helvetica,sans-Serif" font-size="10.00">FE_Poly&lt; dim, dim &gt;</text>
</a>
</g>
</g>
<!-- Node2&#45;&gt;Node1 -->
<g id="edge1" class="edge">
<title>Node2&#45;&gt;Node1</title>
<path fill="none" stroke="midnightblue" d="M88,-47.12C88,-37.82 88,-27.06 88,-19.71"/>
<polygon fill="midnightblue" stroke="midnightblue" points="84.5,-47.41 88,-57.41 91.5,-47.41 84.5,-47.41"/>
</g>
<!-- Node3 -->
<g id="node3" class="node">
<title>Node3</title>
<g id="a_node3"><a xlink:href="classFiniteElement.html" target="_top" xlink:title=" ">
<polygon fill="white" stroke="black" points="0,-259.5 0,-289.5 104,-289.5 104,-259.5 0,-259.5"/>
<text text-anchor="start" x="8" y="-277.5" font-family="Helvetica,sans-Serif" font-size="10.00">FiniteElement&lt; dim,</text>
<text text-anchor="middle" x="52" y="-266.5" font-family="Helvetica,sans-Serif" font-size="10.00"> spacedim &gt;</text>
</a>
</g>
</g>
<!-- Node3&#45;&gt;Node2 -->
<g id="edge2" class="edge">
<title>Node3&#45;&gt;Node2</title>
<path fill="none" stroke="midnightblue" d="M56.21,-249.45C64.21,-203.8 81.26,-106.48 86.46,-76.78"/>
<polygon fill="midnightblue" stroke="midnightblue" points="52.75,-248.92 54.47,-259.38 59.65,-250.13 52.75,-248.92"/>
</g>
<!-- Node3&#45;&gt;Node3 -->
<g id="edge5" class="edge">
<title>Node3&#45;&gt;Node3</title>
<path fill="none" stroke="orange" stroke-dasharray="5,2" d="M114.4,-279.27C119.11,-278.21 122,-276.62 122,-274.5 122,-271.11 114.59,-269.08 104.2,-268.39"/>
<polygon fill="orange" stroke="orange" points="113.66,-275.84 104.2,-280.61 114.57,-282.78 113.66,-275.84"/>
<text text-anchor="middle" x="164.5" y="-272" font-family="Helvetica,sans-Serif" font-size="10.00"> &lt; dim, spacedim &gt;</text>
</g>
<!-- Node7 -->
<g id="node7" class="node">
<title>Node7</title>
<g id="a_node7"><a xlink:href="classFiniteElement.html" target="_top" xlink:title=" ">
<polygon fill="white" stroke="black" points="125,-181.5 125,-211.5 229,-211.5 229,-181.5 125,-181.5"/>
<text text-anchor="start" x="133" y="-199.5" font-family="Helvetica,sans-Serif" font-size="10.00">FiniteElement&lt; dim,</text>
<text text-anchor="middle" x="177" y="-188.5" font-family="Helvetica,sans-Serif" font-size="10.00"> dim &gt;</text>
</a>
</g>
</g>
<!-- Node3&#45;&gt;Node7 -->
<g id="edge10" class="edge">
<title>Node3&#45;&gt;Node7</title>
<path fill="none" stroke="orange" stroke-dasharray="5,2" d="M83.83,-254.14C105.7,-240.85 134.21,-223.52 153.91,-211.54"/>
<polygon fill="orange" stroke="orange" points="81.94,-251.2 75.22,-259.38 85.58,-257.18 81.94,-251.2"/>
<text text-anchor="middle" x="150.5" y="-233" font-family="Helvetica,sans-Serif" font-size="10.00"> &lt; dim, dim &gt;</text>
</g>
<!-- Node4 -->
<g id="node4" class="node">
<title>Node4</title>
<g id="a_node4"><a xlink:href="classSubscriptor.html" target="_top" xlink:title=" ">
<polygon fill="white" stroke="black" points="240,-333 240,-352 306,-352 306,-333 240,-333"/>
<text text-anchor="middle" x="273" y="-340" font-family="Helvetica,sans-Serif" font-size="10.00">Subscriptor</text>
</a>
</g>
</g>
<!-- Node4&#45;&gt;Node3 -->
<g id="edge3" class="edge">
<title>Node4&#45;&gt;Node3</title>
<path fill="none" stroke="midnightblue" d="M234.51,-330.01C196.85,-318.76 139.42,-301.61 99.07,-289.56"/>
<polygon fill="midnightblue" stroke="midnightblue" points="233.52,-333.36 244.11,-332.87 235.53,-326.66 233.52,-333.36"/>
</g>
<!-- Node4&#45;&gt;Node7 -->
<g id="edge8" class="edge">
<title>Node4&#45;&gt;Node7</title>
<path fill="none" stroke="midnightblue" d="M267.83,-323.13C260.53,-299.63 245.43,-258.55 222,-230 216.25,-223 208.66,-216.76 201.35,-211.66"/>
<polygon fill="midnightblue" stroke="midnightblue" points="264.51,-324.26 270.71,-332.85 271.22,-322.27 264.51,-324.26"/>
</g>
<!-- Node5 -->
<g id="node5" class="node">
<title>Node5</title>
<g id="a_node5"><a xlink:href="classFiniteElementData.html" target="_top" xlink:title=" ">
<polygon fill="white" stroke="black" points="86,-327.5 86,-357.5 190,-357.5 190,-327.5 86,-327.5"/>
<text text-anchor="start" x="94" y="-345.5" font-family="Helvetica,sans-Serif" font-size="10.00">FiniteElementData&lt;</text>
<text text-anchor="middle" x="138" y="-334.5" font-family="Helvetica,sans-Serif" font-size="10.00"> dim &gt;</text>
</a>
</g>
</g>
<!-- Node5&#45;&gt;Node3 -->
<g id="edge4" class="edge">
<title>Node5&#45;&gt;Node3</title>
<path fill="none" stroke="midnightblue" d="M111.04,-320.81C97.79,-310.64 82.17,-298.66 70.33,-289.57"/>
<polygon fill="midnightblue" stroke="midnightblue" points="109.28,-323.87 119.34,-327.18 113.54,-318.31 109.28,-323.87"/>
</g>
<!-- Node5&#45;&gt;Node7 -->
<g id="edge9" class="edge">
<title>Node5&#45;&gt;Node7</title>
<path fill="none" stroke="midnightblue" d="M182.72,-322.34C195.84,-314.36 208.63,-303.7 216,-290 230.37,-263.3 207.19,-230.16 190.86,-211.67"/>
<polygon fill="midnightblue" stroke="midnightblue" points="180.65,-319.49 173.65,-327.44 184.08,-325.59 180.65,-319.49"/>
</g>
<!-- Node6 -->
<g id="node6" class="node">
<title>Node6</title>
<g id="a_node6"><a xlink:href="classFE__Poly.html" target="_top" xlink:title=" ">
<polygon fill="white" stroke="black" points="105,-124.5 105,-143.5 241,-143.5 241,-124.5 105,-124.5"/>
<text text-anchor="middle" x="173" y="-131.5" font-family="Helvetica,sans-Serif" font-size="10.00">FE_Poly&lt; dim, spacedim &gt;</text>
</a>
</g>
</g>
<!-- Node6&#45;&gt;Node2 -->
<g id="edge6" class="edge">
<title>Node6&#45;&gt;Node2</title>
<path fill="none" stroke="orange" stroke-dasharray="5,2" d="M153.47,-118.07C136.7,-105.24 113.09,-87.19 99.28,-76.63"/>
<polygon fill="orange" stroke="orange" points="151.47,-120.94 161.54,-124.23 155.72,-115.38 151.47,-120.94"/>
<text text-anchor="middle" x="164.5" y="-98" font-family="Helvetica,sans-Serif" font-size="10.00"> &lt; dim, dim &gt;</text>
</g>
<!-- Node7&#45;&gt;Node6 -->
<g id="edge7" class="edge">
<title>Node7&#45;&gt;Node6</title>
<path fill="none" stroke="midnightblue" d="M175.4,-171.35C174.75,-161.51 174.04,-150.78 173.56,-143.54"/>
<polygon fill="midnightblue" stroke="midnightblue" points="171.92,-171.72 176.07,-181.47 178.9,-171.26 171.92,-171.72"/>
</g>
</g>
</svg>
