<?xml version="1.0" encoding="UTF-8" standalone="no"?>
<!DOCTYPE svg PUBLIC "-//W3C//DTD SVG 1.1//EN"
 "http://www.w3.org/Graphics/SVG/1.1/DTD/svg11.dtd">
<!-- Generated by graphviz version 2.47.1 (20210417.1919)
 -->
<!-- Title: MGCoarseGridHouseholder&lt; number, VectorType &gt; Pages: 1 -->
<svg width="233pt" height="242pt"
 viewBox="0.00 0.00 233.00 242.00" xmlns="http://www.w3.org/2000/svg" xmlns:xlink="http://www.w3.org/1999/xlink">
<g id="graph0" class="graph" transform="scale(1 1) rotate(0) translate(4 238)">
<title>MGCoarseGridHouseholder&lt; number, VectorType &gt;</title>
<polygon fill="white" stroke="transparent" points="-4,4 -4,-238 229,-238 229,4 -4,4"/>
<!-- Node1 -->
<g id="node1" class="node">
<title>Node1</title>
<g id="a_node1"><a xlink:title=" ">
<polygon fill="#bfbfbf" stroke="black" points="2.5,-0.5 2.5,-30.5 139.5,-30.5 139.5,-0.5 2.5,-0.5"/>
<text text-anchor="start" x="10.5" y="-18.5" font-family="Helvetica,sans-Serif" font-size="10.00">MGCoarseGridHouseholder</text>
<text text-anchor="middle" x="71" y="-7.5" font-family="Helvetica,sans-Serif" font-size="10.00">&lt; number, VectorType &gt;</text>
</a>
</g>
</g>
<!-- Node2 -->
<g id="node2" class="node">
<title>Node2</title>
<g id="a_node2"><a xlink:href="classMGCoarseGridBase.html" target="_top" xlink:title=" ">
<polygon fill="white" stroke="black" points="0,-68.5 0,-98.5 142,-98.5 142,-68.5 0,-68.5"/>
<text text-anchor="start" x="8" y="-86.5" font-family="Helvetica,sans-Serif" font-size="10.00">MGCoarseGridBase&lt; Vector</text>
<text text-anchor="middle" x="71" y="-75.5" font-family="Helvetica,sans-Serif" font-size="10.00">&lt; double &gt; &gt;</text>
</a>
</g>
</g>
<!-- Node2&#45;&gt;Node1 -->
<g id="edge1" class="edge">
<title>Node2&#45;&gt;Node1</title>
<path fill="none" stroke="midnightblue" d="M71,-58.03C71,-48.86 71,-38.74 71,-30.79"/>
<polygon fill="midnightblue" stroke="midnightblue" points="67.5,-58.18 71,-68.18 74.5,-58.18 67.5,-58.18"/>
</g>
<!-- Node3 -->
<g id="node3" class="node">
<title>Node3</title>
<g id="a_node3"><a xlink:href="classSubscriptor.html" target="_top" xlink:title=" ">
<polygon fill="white" stroke="black" points="34,-214.5 34,-233.5 100,-233.5 100,-214.5 34,-214.5"/>
<text text-anchor="middle" x="67" y="-221.5" font-family="Helvetica,sans-Serif" font-size="10.00">Subscriptor</text>
</a>
</g>
</g>
<!-- Node3&#45;&gt;Node2 -->
<g id="edge2" class="edge">
<title>Node3&#45;&gt;Node2</title>
<path fill="none" stroke="midnightblue" d="M67.54,-204.25C68.35,-176.19 69.86,-123.88 70.59,-98.73"/>
<polygon fill="midnightblue" stroke="midnightblue" points="64.04,-204.24 67.25,-214.34 71.04,-204.44 64.04,-204.24"/>
</g>
<!-- Node4 -->
<g id="node4" class="node">
<title>Node4</title>
<g id="a_node4"><a xlink:href="classMGCoarseGridBase.html" target="_top" xlink:title=" ">
<polygon fill="white" stroke="black" points="83,-146.5 83,-176.5 225,-176.5 225,-146.5 83,-146.5"/>
<text text-anchor="start" x="91" y="-164.5" font-family="Helvetica,sans-Serif" font-size="10.00">MGCoarseGridBase&lt; Vector</text>
<text text-anchor="middle" x="154" y="-153.5" font-family="Helvetica,sans-Serif" font-size="10.00">Type &gt;</text>
</a>
</g>
</g>
<!-- Node3&#45;&gt;Node4 -->
<g id="edge4" class="edge">
<title>Node3&#45;&gt;Node4</title>
<path fill="none" stroke="midnightblue" d="M87.91,-208.46C101.84,-198.77 120.05,-186.11 133.83,-176.53"/>
<polygon fill="midnightblue" stroke="midnightblue" points="85.68,-205.75 79.46,-214.33 89.67,-211.5 85.68,-205.75"/>
</g>
<!-- Node4&#45;&gt;Node2 -->
<g id="edge3" class="edge">
<title>Node4&#45;&gt;Node2</title>
<path fill="none" stroke="orange" stroke-dasharray="5,2" d="M130.95,-139.39C116.79,-126.43 99.04,-110.18 86.54,-98.73"/>
<polygon fill="orange" stroke="orange" points="128.65,-142.03 138.39,-146.2 133.38,-136.87 128.65,-142.03"/>
<text text-anchor="middle" x="165.5" y="-120" font-family="Helvetica,sans-Serif" font-size="10.00"> &lt; Vector&lt; double &gt; &gt;</text>
</g>
</g>
</svg>
