<?xml version="1.0" encoding="UTF-8" standalone="no"?>
<!DOCTYPE svg PUBLIC "-//W3C//DTD SVG 1.1//EN"
 "http://www.w3.org/Graphics/SVG/1.1/DTD/svg11.dtd">
<!-- Generated by graphviz version 2.47.1 (20210417.1919)
 -->
<!-- Title: FE_DGPNonparametric&lt; dim, spacedim &gt; Pages: 1 -->
<svg width="224pt" height="253pt"
 viewBox="0.00 0.00 224.00 253.00" xmlns="http://www.w3.org/2000/svg" xmlns:xlink="http://www.w3.org/1999/xlink">
<g id="graph0" class="graph" transform="scale(1 1) rotate(0) translate(4 249)">
<title>FE_DGPNonparametric&lt; dim, spacedim &gt;</title>
<polygon fill="white" stroke="transparent" points="-4,4 -4,-249 220,-249 220,4 -4,4"/>
<!-- Node1 -->
<g id="node1" class="node">
<title>Node1</title>
<g id="a_node1"><a xlink:title=" ">
<polygon fill="#bfbfbf" stroke="black" points="38,-0.5 38,-30.5 158,-30.5 158,-0.5 38,-0.5"/>
<text text-anchor="start" x="46" y="-18.5" font-family="Helvetica,sans-Serif" font-size="10.00">FE_DGPNonparametric</text>
<text text-anchor="middle" x="98" y="-7.5" font-family="Helvetica,sans-Serif" font-size="10.00">&lt; dim, spacedim &gt;</text>
</a>
</g>
</g>
<!-- Node2 -->
<g id="node2" class="node">
<title>Node2</title>
<g id="a_node2"><a xlink:href="classFiniteElement.html" target="_top" xlink:title=" ">
<polygon fill="white" stroke="black" points="46,-68.5 46,-98.5 150,-98.5 150,-68.5 46,-68.5"/>
<text text-anchor="start" x="54" y="-86.5" font-family="Helvetica,sans-Serif" font-size="10.00">FiniteElement&lt; dim,</text>
<text text-anchor="middle" x="98" y="-75.5" font-family="Helvetica,sans-Serif" font-size="10.00"> dim &gt;</text>
</a>
</g>
</g>
<!-- Node2&#45;&gt;Node1 -->
<g id="edge1" class="edge">
<title>Node2&#45;&gt;Node1</title>
<path fill="none" stroke="midnightblue" d="M98,-58.03C98,-48.86 98,-38.74 98,-30.79"/>
<polygon fill="midnightblue" stroke="midnightblue" points="94.5,-58.18 98,-68.18 101.5,-58.18 94.5,-58.18"/>
</g>
<!-- Node3 -->
<g id="node3" class="node">
<title>Node3</title>
<g id="a_node3"><a xlink:href="classSubscriptor.html" target="_top" xlink:title=" ">
<polygon fill="white" stroke="black" points="0,-220 0,-239 66,-239 66,-220 0,-220"/>
<text text-anchor="middle" x="33" y="-227" font-family="Helvetica,sans-Serif" font-size="10.00">Subscriptor</text>
</a>
</g>
</g>
<!-- Node3&#45;&gt;Node2 -->
<g id="edge2" class="edge">
<title>Node3&#45;&gt;Node2</title>
<path fill="none" stroke="midnightblue" d="M30.22,-209.89C28.47,-192.58 27.99,-166.45 37,-146 45.61,-126.46 63.43,-109.67 77.6,-98.6"/>
<polygon fill="midnightblue" stroke="midnightblue" points="26.75,-210.36 31.47,-219.85 33.7,-209.49 26.75,-210.36"/>
</g>
<!-- Node5 -->
<g id="node5" class="node">
<title>Node5</title>
<g id="a_node5"><a xlink:href="classFiniteElement.html" target="_top" xlink:title=" ">
<polygon fill="white" stroke="black" points="46,-146.5 46,-176.5 150,-176.5 150,-146.5 46,-146.5"/>
<text text-anchor="start" x="54" y="-164.5" font-family="Helvetica,sans-Serif" font-size="10.00">FiniteElement&lt; dim,</text>
<text text-anchor="middle" x="98" y="-153.5" font-family="Helvetica,sans-Serif" font-size="10.00"> spacedim &gt;</text>
</a>
</g>
</g>
<!-- Node3&#45;&gt;Node5 -->
<g id="edge5" class="edge">
<title>Node3&#45;&gt;Node5</title>
<path fill="none" stroke="midnightblue" d="M48.64,-212.62C59.42,-201.67 73.63,-187.24 84.03,-176.68"/>
<polygon fill="midnightblue" stroke="midnightblue" points="46.02,-210.29 41.5,-219.87 51.01,-215.2 46.02,-210.29"/>
</g>
<!-- Node4 -->
<g id="node4" class="node">
<title>Node4</title>
<g id="a_node4"><a xlink:href="classFiniteElementData.html" target="_top" xlink:title=" ">
<polygon fill="white" stroke="black" points="112,-214.5 112,-244.5 216,-244.5 216,-214.5 112,-214.5"/>
<text text-anchor="start" x="120" y="-232.5" font-family="Helvetica,sans-Serif" font-size="10.00">FiniteElementData&lt;</text>
<text text-anchor="middle" x="164" y="-221.5" font-family="Helvetica,sans-Serif" font-size="10.00"> dim &gt;</text>
</a>
</g>
</g>
<!-- Node4&#45;&gt;Node2 -->
<g id="edge3" class="edge">
<title>Node4&#45;&gt;Node2</title>
<path fill="none" stroke="midnightblue" d="M170.04,-204.09C174.55,-180.03 177.43,-143.17 161,-117 156.09,-109.18 148.65,-103.16 140.59,-98.54"/>
<polygon fill="midnightblue" stroke="midnightblue" points="166.55,-203.66 167.92,-214.16 173.4,-205.1 166.55,-203.66"/>
</g>
<!-- Node4&#45;&gt;Node5 -->
<g id="edge6" class="edge">
<title>Node4&#45;&gt;Node5</title>
<path fill="none" stroke="midnightblue" d="M142.49,-206.99C132.59,-197.09 121.11,-185.61 112.29,-176.79"/>
<polygon fill="midnightblue" stroke="midnightblue" points="140.13,-209.58 149.68,-214.18 145.08,-204.63 140.13,-209.58"/>
</g>
<!-- Node5&#45;&gt;Node2 -->
<g id="edge4" class="edge">
<title>Node5&#45;&gt;Node2</title>
<path fill="none" stroke="orange" stroke-dasharray="5,2" d="M98,-136.09C98,-123.76 98,-109.22 98,-98.73"/>
<polygon fill="orange" stroke="orange" points="94.5,-136.2 98,-146.2 101.5,-136.21 94.5,-136.2"/>
<text text-anchor="middle" x="127.5" y="-120" font-family="Helvetica,sans-Serif" font-size="10.00"> &lt; dim, dim &gt;</text>
</g>
</g>
</svg>
