<?xml version="1.0" encoding="UTF-8" standalone="no"?>
<!DOCTYPE svg PUBLIC "-//W3C//DTD SVG 1.1//EN"
 "http://www.w3.org/Graphics/SVG/1.1/DTD/svg11.dtd">
<!-- Generated by graphviz version 2.47.1 (20210417.1919)
 -->
<!-- Title: PreconditionRelaxation&lt; MatrixType &gt; Pages: 1 -->
<svg width="724pt" height="176pt"
 viewBox="0.00 0.00 724.00 176.00" xmlns="http://www.w3.org/2000/svg" xmlns:xlink="http://www.w3.org/1999/xlink">
<g id="graph0" class="graph" transform="scale(1 1) rotate(0) translate(4 172)">
<title>PreconditionRelaxation&lt; MatrixType &gt;</title>
<polygon fill="white" stroke="transparent" points="-4,4 -4,-172 720,-172 720,4 -4,4"/>
<!-- Node1 -->
<g id="node1" class="node">
<title>Node1</title>
<g id="a_node1"><a xlink:title=" ">
<polygon fill="#bfbfbf" stroke="black" points="103,-66.5 103,-96.5 220,-96.5 220,-66.5 103,-66.5"/>
<text text-anchor="start" x="111" y="-84.5" font-family="Helvetica,sans-Serif" font-size="10.00">PreconditionRelaxation</text>
<text text-anchor="middle" x="161.5" y="-73.5" font-family="Helvetica,sans-Serif" font-size="10.00">&lt; MatrixType &gt;</text>
</a>
</g>
</g>
<!-- Node1&#45;&gt;Node1 -->
<g id="edge2" class="edge">
<title>Node1&#45;&gt;Node1</title>
<path fill="none" stroke="orange" stroke-dasharray="5,2" d="M154.75,-106.96C155.59,-111.68 157.84,-115 161.5,-115 167.51,-115 169.72,-106.06 168.12,-96.66"/>
<polygon fill="orange" stroke="orange" points="158.25,-106.7 154.88,-96.66 151.25,-106.61 158.25,-106.7"/>
<text text-anchor="middle" x="161.5" y="-118" font-family="Helvetica,sans-Serif" font-size="10.00"> &lt; MatrixType &gt;</text>
</g>
<!-- Node1&#45;&gt;Node1 -->
<g id="edge8" class="edge">
<title>Node1&#45;&gt;Node1</title>
<path fill="none" stroke="orange" stroke-dasharray="5,2" d="M147.97,-106.19C145.35,-120.12 149.86,-133 161.5,-133 175.82,-133 179.35,-113.49 172.08,-96.53"/>
<polygon fill="orange" stroke="orange" points="151.35,-107.11 150.92,-96.53 144.66,-105.07 151.35,-107.11"/>
<text text-anchor="middle" x="161.5" y="-136" font-family="Helvetica,sans-Serif" font-size="10.00"> &lt; MatrixType &gt;</text>
</g>
<!-- Node3 -->
<g id="node3" class="node">
<title>Node3</title>
<g id="a_node3"><a xlink:href="classPreconditionRelaxation.html" target="_top" xlink:title=" ">
<polygon fill="white" stroke="black" points="382,-66.5 382,-96.5 521,-96.5 521,-66.5 382,-66.5"/>
<text text-anchor="start" x="390" y="-84.5" font-family="Helvetica,sans-Serif" font-size="10.00">PreconditionRelaxation</text>
<text text-anchor="middle" x="451.5" y="-73.5" font-family="Helvetica,sans-Serif" font-size="10.00">&lt; SparseMatrix&lt; double &gt; &gt;</text>
</a>
</g>
</g>
<!-- Node1&#45;&gt;Node3 -->
<g id="edge3" class="edge">
<title>Node1&#45;&gt;Node3</title>
<path fill="none" stroke="orange" stroke-dasharray="5,2" d="M230.19,-81.5C275.88,-81.5 335.97,-81.5 381.85,-81.5"/>
<polygon fill="orange" stroke="orange" points="230.09,-78 220.09,-81.5 230.09,-85 230.09,-78"/>
<text text-anchor="middle" x="301" y="-84.5" font-family="Helvetica,sans-Serif" font-size="10.00"> &lt; SparseMatrix&lt; double &gt; &gt;</text>
</g>
<!-- Node2 -->
<g id="node2" class="node">
<title>Node2</title>
<g id="a_node2"><a xlink:href="classSubscriptor.html" target="_top" xlink:title=" ">
<polygon fill="white" stroke="black" points="0,-72 0,-91 66,-91 66,-72 0,-72"/>
<text text-anchor="middle" x="33" y="-79" font-family="Helvetica,sans-Serif" font-size="10.00">Subscriptor</text>
</a>
</g>
</g>
<!-- Node2&#45;&gt;Node1 -->
<g id="edge1" class="edge">
<title>Node2&#45;&gt;Node1</title>
<path fill="none" stroke="midnightblue" d="M76.28,-81.5C84.77,-81.5 93.83,-81.5 102.74,-81.5"/>
<polygon fill="midnightblue" stroke="midnightblue" points="76.25,-78 66.25,-81.5 76.25,-85 76.25,-78"/>
</g>
<!-- Node4 -->
<g id="node4" class="node">
<title>Node4</title>
<g id="a_node4"><a xlink:href="classPreconditionJacobi.html" target="_top" xlink:title=" ">
<polygon fill="white" stroke="black" points="587.5,-137.5 587.5,-167.5 686.5,-167.5 686.5,-137.5 587.5,-137.5"/>
<text text-anchor="start" x="595.5" y="-155.5" font-family="Helvetica,sans-Serif" font-size="10.00">PreconditionJacobi</text>
<text text-anchor="middle" x="637" y="-144.5" font-family="Helvetica,sans-Serif" font-size="10.00">&lt; MatrixType &gt;</text>
</a>
</g>
</g>
<!-- Node3&#45;&gt;Node4 -->
<g id="edge4" class="edge">
<title>Node3&#45;&gt;Node4</title>
<path fill="none" stroke="midnightblue" d="M493.1,-100.96C512.51,-109.91 536.22,-120.33 558,-128.5 567.42,-132.03 577.61,-135.45 587.43,-138.55"/>
<polygon fill="midnightblue" stroke="midnightblue" points="494.48,-97.75 483.94,-96.7 491.53,-104.09 494.48,-97.75"/>
</g>
<!-- Node5 -->
<g id="node5" class="node">
<title>Node5</title>
<g id="a_node5"><a xlink:href="classPreconditionPSOR.html" target="_top" xlink:title=" ">
<polygon fill="white" stroke="black" points="569.5,-88.5 569.5,-118.5 704.5,-118.5 704.5,-88.5 569.5,-88.5"/>
<text text-anchor="start" x="577.5" y="-106.5" font-family="Helvetica,sans-Serif" font-size="10.00">PreconditionPSOR&lt; Matrix</text>
<text text-anchor="middle" x="637" y="-95.5" font-family="Helvetica,sans-Serif" font-size="10.00">Type &gt;</text>
</a>
</g>
</g>
<!-- Node3&#45;&gt;Node5 -->
<g id="edge5" class="edge">
<title>Node3&#45;&gt;Node5</title>
<path fill="none" stroke="midnightblue" d="M531.19,-90.93C543.89,-92.46 556.94,-94.02 569.32,-95.51"/>
<polygon fill="midnightblue" stroke="midnightblue" points="531.44,-87.44 521.09,-89.72 530.6,-94.39 531.44,-87.44"/>
</g>
<!-- Node6 -->
<g id="node6" class="node">
<title>Node6</title>
<g id="a_node6"><a xlink:href="classPreconditionSOR.html" target="_top" xlink:title=" ">
<polygon fill="white" stroke="black" points="558,-50 558,-69 716,-69 716,-50 558,-50"/>
<text text-anchor="middle" x="637" y="-57" font-family="Helvetica,sans-Serif" font-size="10.00">PreconditionSOR&lt; MatrixType &gt;</text>
</a>
</g>
</g>
<!-- Node3&#45;&gt;Node6 -->
<g id="edge6" class="edge">
<title>Node3&#45;&gt;Node6</title>
<path fill="none" stroke="midnightblue" d="M531.05,-72.08C539.96,-71.01 549.03,-69.93 557.93,-68.86"/>
<polygon fill="midnightblue" stroke="midnightblue" points="530.6,-68.61 521.09,-73.28 531.44,-75.56 530.6,-68.61"/>
</g>
<!-- Node7 -->
<g id="node7" class="node">
<title>Node7</title>
<g id="a_node7"><a xlink:href="classPreconditionSSOR.html" target="_top" xlink:title=" ">
<polygon fill="white" stroke="black" points="569.5,-0.5 569.5,-30.5 704.5,-30.5 704.5,-0.5 569.5,-0.5"/>
<text text-anchor="start" x="577.5" y="-18.5" font-family="Helvetica,sans-Serif" font-size="10.00">PreconditionSSOR&lt; Matrix</text>
<text text-anchor="middle" x="637" y="-7.5" font-family="Helvetica,sans-Serif" font-size="10.00">Type &gt;</text>
</a>
</g>
</g>
<!-- Node3&#45;&gt;Node7 -->
<g id="edge7" class="edge">
<title>Node3&#45;&gt;Node7</title>
<path fill="none" stroke="midnightblue" d="M499.4,-62.57C517.61,-55.41 538.69,-47.34 558,-40.5 567.52,-37.13 577.75,-33.7 587.58,-30.52"/>
<polygon fill="midnightblue" stroke="midnightblue" points="497.9,-59.4 489.89,-66.33 500.48,-65.91 497.9,-59.4"/>
</g>
</g>
</svg>
