<?xml version="1.0" encoding="UTF-8" standalone="no"?>
<!DOCTYPE svg PUBLIC "-//W3C//DTD SVG 1.1//EN"
 "http://www.w3.org/Graphics/SVG/1.1/DTD/svg11.dtd">
<!-- Generated by graphviz version 2.47.1 (20210417.1919)
 -->
<!-- Title: LinearAlgebra::distributed::Vector&lt; Number, MemorySpace &gt; Pages: 1 -->
<svg width="230pt" height="106pt"
 viewBox="0.00 0.00 230.00 106.00" xmlns="http://www.w3.org/2000/svg" xmlns:xlink="http://www.w3.org/1999/xlink">
<g id="graph0" class="graph" transform="scale(1 1) rotate(0) translate(4 102)">
<title>LinearAlgebra::distributed::Vector&lt; Number, MemorySpace &gt;</title>
<polygon fill="white" stroke="transparent" points="-4,4 -4,-102 226,-102 226,4 -4,4"/>
<!-- Node1 -->
<g id="node1" class="node">
<title>Node1</title>
<g id="a_node1"><a xlink:title=" ">
<polygon fill="#bfbfbf" stroke="black" points="43,-0.5 43,-30.5 215,-30.5 215,-0.5 43,-0.5"/>
<text text-anchor="start" x="51" y="-18.5" font-family="Helvetica,sans-Serif" font-size="10.00">LinearAlgebra::distributed</text>
<text text-anchor="middle" x="129" y="-7.5" font-family="Helvetica,sans-Serif" font-size="10.00">::Vector&lt; Number, MemorySpace &gt;</text>
</a>
</g>
</g>
<!-- Node2 -->
<g id="node2" class="node">
<title>Node2</title>
<g id="a_node2"><a xlink:href="classLinearAlgebra_1_1VectorSpaceVector.html" target="_top" xlink:title=" ">
<polygon fill="white" stroke="black" points="0,-67.5 0,-97.5 138,-97.5 138,-67.5 0,-67.5"/>
<text text-anchor="start" x="8" y="-85.5" font-family="Helvetica,sans-Serif" font-size="10.00">LinearAlgebra::VectorSpace</text>
<text text-anchor="middle" x="69" y="-74.5" font-family="Helvetica,sans-Serif" font-size="10.00">Vector&lt; Number &gt;</text>
</a>
</g>
</g>
<!-- Node2&#45;&gt;Node1 -->
<g id="edge1" class="edge">
<title>Node2&#45;&gt;Node1</title>
<path fill="none" stroke="midnightblue" d="M88.82,-60.02C97.76,-50.34 108.07,-39.17 116.01,-30.58"/>
<polygon fill="midnightblue" stroke="midnightblue" points="86.23,-57.67 82.02,-67.4 91.37,-62.42 86.23,-57.67"/>
</g>
<!-- Node3 -->
<g id="node3" class="node">
<title>Node3</title>
<g id="a_node3"><a xlink:href="classSubscriptor.html" target="_top" xlink:title=" ">
<polygon fill="white" stroke="black" points="156,-73 156,-92 222,-92 222,-73 156,-73"/>
<text text-anchor="middle" x="189" y="-80" font-family="Helvetica,sans-Serif" font-size="10.00">Subscriptor</text>
</a>
</g>
</g>
<!-- Node3&#45;&gt;Node1 -->
<g id="edge2" class="edge">
<title>Node3&#45;&gt;Node1</title>
<path fill="none" stroke="midnightblue" d="M174.05,-65.3C164.2,-54.63 151.43,-40.8 142.01,-30.59"/>
<polygon fill="midnightblue" stroke="midnightblue" points="171.55,-67.76 180.91,-72.73 176.7,-63.01 171.55,-67.76"/>
</g>
</g>
</svg>
