<?xml version="1.0" encoding="UTF-8" standalone="no"?>
<!DOCTYPE svg PUBLIC "-//W3C//DTD SVG 1.1//EN"
 "http://www.w3.org/Graphics/SVG/1.1/DTD/svg11.dtd">
<!-- Generated by graphviz version 2.47.1 (20210417.1919)
 -->
<!-- Title: Quadrature&lt; dim &gt; Pages: 1 -->
<svg width="783pt" height="1160pt"
 viewBox="0.00 0.00 783.00 1160.00" xmlns="http://www.w3.org/2000/svg" xmlns:xlink="http://www.w3.org/1999/xlink">
<g id="graph0" class="graph" transform="scale(1 1) rotate(0) translate(4 1156)">
<title>Quadrature&lt; dim &gt;</title>
<polygon fill="white" stroke="transparent" points="-4,4 -4,-1156 779,-1156 779,4 -4,4"/>
<!-- Node1 -->
<g id="node1" class="node">
<title>Node1</title>
<g id="a_node1"><a xlink:title=" ">
<polygon fill="#bfbfbf" stroke="black" points="103,-544.5 103,-563.5 201,-563.5 201,-544.5 103,-544.5"/>
<text text-anchor="middle" x="152" y="-551.5" font-family="Helvetica,sans-Serif" font-size="10.00">Quadrature&lt; dim &gt;</text>
</a>
</g>
</g>
<!-- Node3 -->
<g id="node3" class="node">
<title>Node3</title>
<g id="a_node3"><a xlink:href="classQGaussLobatto.html" target="_top" xlink:title=" ">
<polygon fill="white" stroke="black" points="534.5,-1132.5 534.5,-1151.5 642.5,-1151.5 642.5,-1132.5 534.5,-1132.5"/>
<text text-anchor="middle" x="588.5" y="-1139.5" font-family="Helvetica,sans-Serif" font-size="10.00">QGaussLobatto&lt; 1 &gt;</text>
</a>
</g>
</g>
<!-- Node1&#45;&gt;Node3 -->
<g id="edge2" class="edge">
<title>Node1&#45;&gt;Node3</title>
<path fill="none" stroke="midnightblue" d="M153.72,-573.94C157.02,-657.25 172.55,-977.22 219,-1065 274.51,-1169.9 356.33,-1138.79 475,-1141 494.33,-1141.36 515.54,-1141.59 534.28,-1141.74"/>
<polygon fill="midnightblue" stroke="midnightblue" points="157.22,-573.66 153.34,-563.8 150.22,-573.93 157.22,-573.66"/>
</g>
<!-- Node4 -->
<g id="node4" class="node">
<title>Node4</title>
<g id="a_node4"><a xlink:href="classQSimplex.html" target="_top" xlink:title=" ">
<polygon fill="white" stroke="black" points="547,-726.5 547,-745.5 630,-745.5 630,-726.5 547,-726.5"/>
<text text-anchor="middle" x="588.5" y="-733.5" font-family="Helvetica,sans-Serif" font-size="10.00">QSimplex&lt; 2 &gt;</text>
</a>
</g>
</g>
<!-- Node1&#45;&gt;Node4 -->
<g id="edge3" class="edge">
<title>Node1&#45;&gt;Node4</title>
<path fill="none" stroke="midnightblue" d="M155.31,-573.66C163.08,-629.24 194.02,-785.98 299,-825 364.82,-849.46 389.9,-845.7 457,-825 508.36,-809.15 557.57,-765.4 577.82,-745.76"/>
<polygon fill="midnightblue" stroke="midnightblue" points="158.77,-573.16 154.01,-563.69 151.83,-574.06 158.77,-573.16"/>
</g>
<!-- Node7 -->
<g id="node7" class="node">
<title>Node7</title>
<g id="a_node7"><a xlink:href="classMappingQEulerian_1_1MappingQEulerianGeneric_1_1SupportQuadrature.html" target="_top" xlink:title=" ">
<polygon fill="white" stroke="black" points="305.5,-1036 305.5,-1088 450.5,-1088 450.5,-1036 305.5,-1036"/>
<text text-anchor="start" x="313.5" y="-1076" font-family="Helvetica,sans-Serif" font-size="10.00">MappingQEulerian&lt; dim,</text>
<text text-anchor="start" x="313.5" y="-1065" font-family="Helvetica,sans-Serif" font-size="10.00"> VectorType, spacedim</text>
<text text-anchor="start" x="313.5" y="-1054" font-family="Helvetica,sans-Serif" font-size="10.00"> &gt;::MappingQEulerianGeneric</text>
<text text-anchor="middle" x="378" y="-1043" font-family="Helvetica,sans-Serif" font-size="10.00">::SupportQuadrature</text>
</a>
</g>
</g>
<!-- Node1&#45;&gt;Node7 -->
<g id="edge6" class="edge">
<title>Node1&#45;&gt;Node7</title>
<path fill="none" stroke="midnightblue" d="M153.91,-573.97C157.65,-648.57 173.8,-910.18 219,-978 239.07,-1008.12 273.59,-1028.22 305.26,-1041.18"/>
<polygon fill="midnightblue" stroke="midnightblue" points="157.39,-573.48 153.42,-563.66 150.4,-573.81 157.39,-573.48"/>
</g>
<!-- Node8 -->
<g id="node8" class="node">
<title>Node8</title>
<g id="a_node8"><a xlink:href="classNonMatching_1_1ImmersedSurfaceQuadrature.html" target="_top" xlink:title=" ">
<polygon fill="white" stroke="black" points="299,-987 299,-1017 457,-1017 457,-987 299,-987"/>
<text text-anchor="start" x="307" y="-1005" font-family="Helvetica,sans-Serif" font-size="10.00">NonMatching::ImmersedSurface</text>
<text text-anchor="middle" x="378" y="-994" font-family="Helvetica,sans-Serif" font-size="10.00">Quadrature&lt; dim &gt;</text>
</a>
</g>
</g>
<!-- Node1&#45;&gt;Node8 -->
<g id="edge7" class="edge">
<title>Node1&#45;&gt;Node8</title>
<path fill="none" stroke="midnightblue" d="M153.84,-574.02C157.24,-645.46 172.02,-886.76 219,-945 238.59,-969.29 269.41,-983.23 298.64,-991.23"/>
<polygon fill="midnightblue" stroke="midnightblue" points="157.33,-573.56 153.38,-563.73 150.33,-573.87 157.33,-573.56"/>
</g>
<!-- Node9 -->
<g id="node9" class="node">
<title>Node9</title>
<g id="a_node9"><a xlink:href="classQAnisotropic.html" target="_top" xlink:title=" ">
<polygon fill="white" stroke="black" points="324.5,-948.5 324.5,-967.5 431.5,-967.5 431.5,-948.5 324.5,-948.5"/>
<text text-anchor="middle" x="378" y="-955.5" font-family="Helvetica,sans-Serif" font-size="10.00">QAnisotropic&lt; dim &gt;</text>
</a>
</g>
</g>
<!-- Node1&#45;&gt;Node9 -->
<g id="edge8" class="edge">
<title>Node1&#45;&gt;Node9</title>
<path fill="none" stroke="midnightblue" d="M154,-573.85C157.8,-641.65 173.51,-862.62 219,-914 245.14,-943.53 289.24,-953.99 324.22,-957.36"/>
<polygon fill="midnightblue" stroke="midnightblue" points="157.48,-573.49 153.46,-563.69 150.49,-573.86 157.48,-573.49"/>
</g>
<!-- Node10 -->
<g id="node10" class="node">
<title>Node10</title>
<g id="a_node10"><a xlink:href="classQGauss.html" target="_top" xlink:title=" ">
<polygon fill="white" stroke="black" points="335,-910.5 335,-929.5 421,-929.5 421,-910.5 335,-910.5"/>
<text text-anchor="middle" x="378" y="-917.5" font-family="Helvetica,sans-Serif" font-size="10.00">QGauss&lt; dim &gt;</text>
</a>
</g>
</g>
<!-- Node1&#45;&gt;Node10 -->
<g id="edge9" class="edge">
<title>Node1&#45;&gt;Node10</title>
<path fill="none" stroke="midnightblue" d="M154.17,-573.63C158.39,-637.84 175.01,-840.07 219,-885 248.88,-915.52 298.98,-922.13 334.75,-922.47"/>
<polygon fill="midnightblue" stroke="midnightblue" points="157.66,-573.38 153.54,-563.62 150.67,-573.82 157.66,-573.38"/>
</g>
<!-- Node11 -->
<g id="node11" class="node">
<title>Node11</title>
<g id="a_node11"><a xlink:href="classQGaussChebyshev.html" target="_top" xlink:title=" ">
<polygon fill="white" stroke="black" points="310,-872.5 310,-891.5 446,-891.5 446,-872.5 310,-872.5"/>
<text text-anchor="middle" x="378" y="-879.5" font-family="Helvetica,sans-Serif" font-size="10.00">QGaussChebyshev&lt; dim &gt;</text>
</a>
</g>
</g>
<!-- Node1&#45;&gt;Node11 -->
<g id="edge10" class="edge">
<title>Node1&#45;&gt;Node11</title>
<path fill="none" stroke="midnightblue" d="M154.43,-573.7C159.26,-634.69 177.11,-818.67 219,-858 242.97,-880.5 278.6,-887.32 309.97,-888.14"/>
<polygon fill="midnightblue" stroke="midnightblue" points="157.9,-573.22 153.65,-563.51 150.92,-573.75 157.9,-573.22"/>
</g>
<!-- Node12 -->
<g id="node12" class="node">
<title>Node12</title>
<g id="a_node12"><a xlink:href="classQGaussLobatto.html" target="_top" xlink:title=" ">
<polygon fill="white" stroke="black" points="318.5,-1107.5 318.5,-1126.5 437.5,-1126.5 437.5,-1107.5 318.5,-1107.5"/>
<text text-anchor="middle" x="378" y="-1114.5" font-family="Helvetica,sans-Serif" font-size="10.00">QGaussLobatto&lt; dim &gt;</text>
</a>
</g>
</g>
<!-- Node1&#45;&gt;Node12 -->
<g id="edge11" class="edge">
<title>Node1&#45;&gt;Node12</title>
<path fill="none" stroke="midnightblue" d="M154.18,-573.94C159.06,-652.05 179.28,-936.91 219,-1017 241.48,-1062.33 254.97,-1073.07 299,-1098 305.79,-1101.85 313.34,-1104.92 321,-1107.37"/>
<polygon fill="midnightblue" stroke="midnightblue" points="157.65,-573.37 153.55,-563.6 150.67,-573.79 157.65,-573.37"/>
</g>
<!-- Node13 -->
<g id="node13" class="node">
<title>Node13</title>
<g id="a_node13"><a xlink:href="classQGaussLobattoChebyshev.html" target="_top" xlink:title=" ">
<polygon fill="white" stroke="black" points="311,-785 311,-815 445,-815 445,-785 311,-785"/>
<text text-anchor="start" x="319" y="-803" font-family="Helvetica,sans-Serif" font-size="10.00">QGaussLobattoChebyshev</text>
<text text-anchor="middle" x="378" y="-792" font-family="Helvetica,sans-Serif" font-size="10.00">&lt; dim &gt;</text>
</a>
</g>
</g>
<!-- Node1&#45;&gt;Node13 -->
<g id="edge13" class="edge">
<title>Node1&#45;&gt;Node13</title>
<path fill="none" stroke="midnightblue" d="M156.99,-573.67C164.47,-606.62 183.17,-673.8 219,-719 245.04,-751.85 288.01,-772.66 322.56,-784.95"/>
<polygon fill="midnightblue" stroke="midnightblue" points="160.34,-572.57 154.81,-563.53 153.49,-574.05 160.34,-572.57"/>
</g>
<!-- Node14 -->
<g id="node14" class="node">
<title>Node14</title>
<g id="a_node14"><a xlink:href="classQGaussLog.html" target="_top" xlink:title=" ">
<polygon fill="white" stroke="black" points="327,-746.5 327,-765.5 429,-765.5 429,-746.5 327,-746.5"/>
<text text-anchor="middle" x="378" y="-753.5" font-family="Helvetica,sans-Serif" font-size="10.00">QGaussLog&lt; dim &gt;</text>
</a>
</g>
</g>
<!-- Node1&#45;&gt;Node14 -->
<g id="edge14" class="edge">
<title>Node1&#45;&gt;Node14</title>
<path fill="none" stroke="midnightblue" d="M159.45,-573.5C169.1,-600.46 189.38,-649.57 219,-683 247.45,-715.11 259.77,-719.65 299,-737 307.67,-740.83 317.23,-743.97 326.61,-746.51"/>
<polygon fill="midnightblue" stroke="midnightblue" points="162.65,-572.03 156.07,-563.72 156.03,-574.32 162.65,-572.03"/>
</g>
<!-- Node15 -->
<g id="node15" class="node">
<title>Node15</title>
<g id="a_node15"><a xlink:href="classQGaussLogR.html" target="_top" xlink:title=" ">
<polygon fill="white" stroke="black" points="323,-708.5 323,-727.5 433,-727.5 433,-708.5 323,-708.5"/>
<text text-anchor="middle" x="378" y="-715.5" font-family="Helvetica,sans-Serif" font-size="10.00">QGaussLogR&lt; dim &gt;</text>
</a>
</g>
</g>
<!-- Node1&#45;&gt;Node15 -->
<g id="edge15" class="edge">
<title>Node1&#45;&gt;Node15</title>
<path fill="none" stroke="midnightblue" d="M163.08,-572.57C174.68,-592.78 195.22,-625.26 219,-648 249.47,-677.14 260.22,-682.45 299,-699 307.85,-702.77 317.59,-705.89 327.1,-708.44"/>
<polygon fill="midnightblue" stroke="midnightblue" points="166.06,-570.74 158.12,-563.73 159.96,-574.16 166.06,-570.74"/>
</g>
<!-- Node16 -->
<g id="node16" class="node">
<title>Node16</title>
<g id="a_node16"><a xlink:href="classQGaussOneOverR.html" target="_top" xlink:title=" ">
<polygon fill="white" stroke="black" points="311.5,-670.5 311.5,-689.5 444.5,-689.5 444.5,-670.5 311.5,-670.5"/>
<text text-anchor="middle" x="378" y="-677.5" font-family="Helvetica,sans-Serif" font-size="10.00">QGaussOneOverR&lt; dim &gt;</text>
</a>
</g>
</g>
<!-- Node1&#45;&gt;Node16 -->
<g id="edge16" class="edge">
<title>Node1&#45;&gt;Node16</title>
<path fill="none" stroke="midnightblue" d="M168.9,-571.05C181.7,-584.22 200.53,-602.44 219,-616 251.88,-640.14 261.05,-646.03 299,-661 308.46,-664.73 318.87,-667.88 328.92,-670.48"/>
<polygon fill="midnightblue" stroke="midnightblue" points="171.21,-568.4 161.77,-563.58 166.15,-573.23 171.21,-568.4"/>
</g>
<!-- Node17 -->
<g id="node17" class="node">
<title>Node17</title>
<g id="a_node17"><a xlink:href="classQGaussPyramid.html" target="_top" xlink:title=" ">
<polygon fill="white" stroke="black" points="317,-632.5 317,-651.5 439,-651.5 439,-632.5 317,-632.5"/>
<text text-anchor="middle" x="378" y="-639.5" font-family="Helvetica,sans-Serif" font-size="10.00">QGaussPyramid&lt; dim &gt;</text>
</a>
</g>
</g>
<!-- Node1&#45;&gt;Node17 -->
<g id="edge17" class="edge">
<title>Node1&#45;&gt;Node17</title>
<path fill="none" stroke="midnightblue" d="M179.77,-568.28C191.69,-574.51 205.96,-581.8 219,-588 254.05,-604.67 262.23,-610.58 299,-623 309.56,-626.57 321.14,-629.76 332.07,-632.47"/>
<polygon fill="midnightblue" stroke="midnightblue" points="181.25,-565.1 170.77,-563.54 177.99,-571.3 181.25,-565.1"/>
</g>
<!-- Node18 -->
<g id="node18" class="node">
<title>Node18</title>
<g id="a_node18"><a xlink:href="classQGaussRadauChebyshev.html" target="_top" xlink:title=" ">
<polygon fill="white" stroke="black" points="312.5,-583 312.5,-613 443.5,-613 443.5,-583 312.5,-583"/>
<text text-anchor="start" x="320.5" y="-601" font-family="Helvetica,sans-Serif" font-size="10.00">QGaussRadauChebyshev</text>
<text text-anchor="middle" x="378" y="-590" font-family="Helvetica,sans-Serif" font-size="10.00">&lt; dim &gt;</text>
</a>
</g>
</g>
<!-- Node1&#45;&gt;Node18 -->
<g id="edge18" class="edge">
<title>Node1&#45;&gt;Node18</title>
<path fill="none" stroke="midnightblue" d="M207.24,-565.6C211.22,-566.42 215.17,-567.23 219,-568 249.66,-574.16 283.73,-580.67 312.37,-586.05"/>
<polygon fill="midnightblue" stroke="midnightblue" points="207.85,-562.16 197.35,-563.54 206.43,-569.01 207.85,-562.16"/>
</g>
<!-- Node19 -->
<g id="node19" class="node">
<title>Node19</title>
<g id="a_node19"><a xlink:href="classQGaussWedge.html" target="_top" xlink:title=" ">
<polygon fill="white" stroke="black" points="320,-544.5 320,-563.5 436,-563.5 436,-544.5 320,-544.5"/>
<text text-anchor="middle" x="378" y="-551.5" font-family="Helvetica,sans-Serif" font-size="10.00">QGaussWedge&lt; dim &gt;</text>
</a>
</g>
</g>
<!-- Node1&#45;&gt;Node19 -->
<g id="edge19" class="edge">
<title>Node1&#45;&gt;Node19</title>
<path fill="none" stroke="midnightblue" d="M211.16,-554C244.66,-554 286.59,-554 319.91,-554"/>
<polygon fill="midnightblue" stroke="midnightblue" points="211.05,-550.5 201.05,-554 211.05,-557.5 211.05,-550.5"/>
</g>
<!-- Node20 -->
<g id="node20" class="node">
<title>Node20</title>
<g id="a_node20"><a xlink:href="classQIterated.html" target="_top" xlink:title=" ">
<polygon fill="white" stroke="black" points="332.5,-506.5 332.5,-525.5 423.5,-525.5 423.5,-506.5 332.5,-506.5"/>
<text text-anchor="middle" x="378" y="-513.5" font-family="Helvetica,sans-Serif" font-size="10.00">QIterated&lt; dim &gt;</text>
</a>
</g>
</g>
<!-- Node1&#45;&gt;Node20 -->
<g id="edge20" class="edge">
<title>Node1&#45;&gt;Node20</title>
<path fill="none" stroke="midnightblue" d="M210.93,-544.17C248.83,-537.74 297.59,-529.47 332.45,-523.56"/>
<polygon fill="midnightblue" stroke="midnightblue" points="210.33,-540.72 201.05,-545.85 211.5,-547.63 210.33,-540.72"/>
</g>
<!-- Node21 -->
<g id="node21" class="node">
<title>Node21</title>
<g id="a_node21"><a xlink:href="classQMidpoint.html" target="_top" xlink:title=" ">
<polygon fill="white" stroke="black" points="330.5,-468.5 330.5,-487.5 425.5,-487.5 425.5,-468.5 330.5,-468.5"/>
<text text-anchor="middle" x="378" y="-475.5" font-family="Helvetica,sans-Serif" font-size="10.00">QMidpoint&lt; dim &gt;</text>
</a>
</g>
</g>
<!-- Node1&#45;&gt;Node21 -->
<g id="edge21" class="edge">
<title>Node1&#45;&gt;Node21</title>
<path fill="none" stroke="midnightblue" d="M184.22,-540.41C213.49,-528.01 258.67,-509.72 299,-497 310.03,-493.52 322.11,-490.3 333.4,-487.54"/>
<polygon fill="midnightblue" stroke="midnightblue" points="182.76,-537.23 174.93,-544.38 185.5,-543.67 182.76,-537.23"/>
</g>
<!-- Node22 -->
<g id="node22" class="node">
<title>Node22</title>
<g id="a_node22"><a xlink:href="classQMilne.html" target="_top" xlink:title=" ">
<polygon fill="white" stroke="black" points="337.5,-430.5 337.5,-449.5 418.5,-449.5 418.5,-430.5 337.5,-430.5"/>
<text text-anchor="middle" x="378" y="-437.5" font-family="Helvetica,sans-Serif" font-size="10.00">QMilne&lt; dim &gt;</text>
</a>
</g>
</g>
<!-- Node1&#45;&gt;Node22 -->
<g id="edge22" class="edge">
<title>Node1&#45;&gt;Node22</title>
<path fill="none" stroke="midnightblue" d="M170.84,-537.65C183.69,-526.32 201.73,-511.31 219,-500 252.43,-478.12 261.56,-472.93 299,-459 311.15,-454.48 324.76,-450.74 337.18,-447.8"/>
<polygon fill="midnightblue" stroke="midnightblue" points="168.33,-535.2 163.21,-544.48 173,-540.42 168.33,-535.2"/>
</g>
<!-- Node23 -->
<g id="node23" class="node">
<title>Node23</title>
<g id="a_node23"><a xlink:href="classQSimplex.html" target="_top" xlink:title=" ">
<polygon fill="white" stroke="black" points="331.5,-392.5 331.5,-411.5 424.5,-411.5 424.5,-392.5 331.5,-392.5"/>
<text text-anchor="middle" x="378" y="-399.5" font-family="Helvetica,sans-Serif" font-size="10.00">QSimplex&lt; dim &gt;</text>
</a>
</g>
</g>
<!-- Node1&#45;&gt;Node23 -->
<g id="edge23" class="edge">
<title>Node1&#45;&gt;Node23</title>
<path fill="none" stroke="midnightblue" d="M163.02,-535.4C174.46,-515.5 194.76,-483.98 219,-463 251.13,-435.2 297.33,-419.34 331.47,-410.81"/>
<polygon fill="midnightblue" stroke="midnightblue" points="159.82,-533.94 158,-544.38 165.93,-537.35 159.82,-533.94"/>
</g>
<!-- Node26 -->
<g id="node26" class="node">
<title>Node26</title>
<g id="a_node26"><a xlink:href="classQSimpson.html" target="_top" xlink:title=" ">
<polygon fill="white" stroke="black" points="330,-354.5 330,-373.5 426,-373.5 426,-354.5 330,-354.5"/>
<text text-anchor="middle" x="378" y="-361.5" font-family="Helvetica,sans-Serif" font-size="10.00">QSimpson&lt; dim &gt;</text>
</a>
</g>
</g>
<!-- Node1&#45;&gt;Node26 -->
<g id="edge27" class="edge">
<title>Node1&#45;&gt;Node26</title>
<path fill="none" stroke="midnightblue" d="M158.69,-534.79C167.63,-507.44 187.29,-457.05 219,-425 248.78,-394.9 295.05,-379.36 329.84,-371.53"/>
<polygon fill="midnightblue" stroke="midnightblue" points="155.34,-533.78 155.7,-544.37 162.02,-535.87 155.34,-533.78"/>
</g>
<!-- Node27 -->
<g id="node27" class="node">
<title>Node27</title>
<g id="a_node27"><a xlink:href="classQSorted.html" target="_top" xlink:title=" ">
<polygon fill="white" stroke="black" points="335,-316.5 335,-335.5 421,-335.5 421,-316.5 335,-316.5"/>
<text text-anchor="middle" x="378" y="-323.5" font-family="Helvetica,sans-Serif" font-size="10.00">QSorted&lt; dim &gt;</text>
</a>
</g>
</g>
<!-- Node1&#45;&gt;Node27 -->
<g id="edge28" class="edge">
<title>Node1&#45;&gt;Node27</title>
<path fill="none" stroke="midnightblue" d="M155.82,-533.87C161.67,-499.04 178.17,-427.02 219,-383 249.14,-350.5 299.19,-336.5 334.88,-330.49"/>
<polygon fill="midnightblue" stroke="midnightblue" points="152.3,-533.75 154.23,-544.17 159.22,-534.82 152.3,-533.75"/>
</g>
<!-- Node28 -->
<g id="node28" class="node">
<title>Node28</title>
<g id="a_node28"><a xlink:href="classQSplit.html" target="_top" xlink:title=" ">
<polygon fill="white" stroke="black" points="339.5,-278.5 339.5,-297.5 416.5,-297.5 416.5,-278.5 339.5,-278.5"/>
<text text-anchor="middle" x="378" y="-285.5" font-family="Helvetica,sans-Serif" font-size="10.00">QSplit&lt; dim &gt;</text>
</a>
</g>
</g>
<!-- Node1&#45;&gt;Node28 -->
<g id="edge29" class="edge">
<title>Node1&#45;&gt;Node28</title>
<path fill="none" stroke="midnightblue" d="M153.77,-533.99C156.41,-492.76 168,-397.45 219,-341 249.84,-306.86 303.32,-294.69 339.42,-290.36"/>
<polygon fill="midnightblue" stroke="midnightblue" points="150.27,-533.94 153.24,-544.11 157.26,-534.31 150.27,-533.94"/>
</g>
<!-- Node29 -->
<g id="node29" class="node">
<title>Node29</title>
<g id="a_node29"><a xlink:href="classQTelles.html" target="_top" xlink:title=" ">
<polygon fill="white" stroke="black" points="336.5,-240.5 336.5,-259.5 419.5,-259.5 419.5,-240.5 336.5,-240.5"/>
<text text-anchor="middle" x="378" y="-247.5" font-family="Helvetica,sans-Serif" font-size="10.00">QTelles&lt; dim &gt;</text>
</a>
</g>
</g>
<!-- Node1&#45;&gt;Node29 -->
<g id="edge30" class="edge">
<title>Node1&#45;&gt;Node29</title>
<path fill="none" stroke="midnightblue" d="M152.4,-534.26C152.06,-487.51 157.69,-368.83 219,-300 248.66,-266.7 300.33,-255.39 336.48,-251.66"/>
<polygon fill="midnightblue" stroke="midnightblue" points="148.9,-534.35 152.58,-544.29 155.9,-534.23 148.9,-534.35"/>
</g>
<!-- Node30 -->
<g id="node30" class="node">
<title>Node30</title>
<g id="a_node30"><a xlink:href="classQTrapezoid.html" target="_top" xlink:title=" ">
<polygon fill="white" stroke="black" points="327.5,-202.5 327.5,-221.5 428.5,-221.5 428.5,-202.5 327.5,-202.5"/>
<text text-anchor="middle" x="378" y="-209.5" font-family="Helvetica,sans-Serif" font-size="10.00">QTrapezoid&lt; dim &gt;</text>
</a>
</g>
</g>
<!-- Node1&#45;&gt;Node30 -->
<g id="edge31" class="edge">
<title>Node1&#45;&gt;Node30</title>
<path fill="none" stroke="midnightblue" d="M154.98,-534.12C161.26,-474.95 182.46,-301.5 219,-260 246,-229.34 291.89,-217.94 327.29,-213.86"/>
<polygon fill="midnightblue" stroke="midnightblue" points="151.47,-534.05 153.93,-544.36 158.44,-534.77 151.47,-534.05"/>
</g>
<!-- Node31 -->
<g id="node31" class="node">
<title>Node31</title>
<g id="a_node31"><a xlink:href="classQWeddle.html" target="_top" xlink:title=" ">
<polygon fill="white" stroke="black" points="333,-164.5 333,-183.5 423,-183.5 423,-164.5 333,-164.5"/>
<text text-anchor="middle" x="378" y="-171.5" font-family="Helvetica,sans-Serif" font-size="10.00">QWeddle&lt; dim &gt;</text>
</a>
</g>
</g>
<!-- Node1&#45;&gt;Node31 -->
<g id="edge32" class="edge">
<title>Node1&#45;&gt;Node31</title>
<path fill="none" stroke="midnightblue" d="M154.34,-534.37C159.09,-470.15 177.17,-267.68 219,-220 247.26,-187.79 296.65,-177.53 332.7,-174.56"/>
<polygon fill="midnightblue" stroke="midnightblue" points="150.84,-534.16 153.62,-544.38 157.83,-534.66 150.84,-534.16"/>
</g>
<!-- Node32 -->
<g id="node32" class="node">
<title>Node32</title>
<g id="a_node32"><a xlink:href="classQuadratureSelector.html" target="_top" xlink:title=" ">
<polygon fill="white" stroke="black" points="327.5,-115 327.5,-145 428.5,-145 428.5,-115 327.5,-115"/>
<text text-anchor="start" x="335.5" y="-133" font-family="Helvetica,sans-Serif" font-size="10.00">QuadratureSelector</text>
<text text-anchor="middle" x="378" y="-122" font-family="Helvetica,sans-Serif" font-size="10.00">&lt; dim &gt;</text>
</a>
</g>
</g>
<!-- Node1&#45;&gt;Node32 -->
<g id="edge33" class="edge">
<title>Node1&#45;&gt;Node32</title>
<path fill="none" stroke="midnightblue" d="M153.89,-533.91C157.38,-464.3 172.29,-234.71 219,-181 245.96,-150.01 291.86,-137.72 327.26,-132.91"/>
<polygon fill="midnightblue" stroke="midnightblue" points="150.38,-534.17 153.4,-544.32 157.37,-534.5 150.38,-534.17"/>
</g>
<!-- Node33 -->
<g id="node33" class="node">
<title>Node33</title>
<g id="a_node33"><a xlink:href="classQuadrature.html" target="_top" xlink:title=" ">
<polygon fill="white" stroke="black" points="321.5,-76.5 321.5,-95.5 434.5,-95.5 434.5,-76.5 321.5,-76.5"/>
<text text-anchor="middle" x="378" y="-83.5" font-family="Helvetica,sans-Serif" font-size="10.00">Quadrature&lt; dim &#45; 1 &gt;</text>
</a>
</g>
</g>
<!-- Node1&#45;&gt;Node33 -->
<g id="edge34" class="edge">
<title>Node1&#45;&gt;Node33</title>
<path fill="none" stroke="orange" stroke-dasharray="5,2" d="M153.37,-534.08C155.15,-458.5 165.22,-190.72 219,-129 244.21,-100.06 286.77,-89.69 321.37,-86.34"/>
<polygon fill="orange" stroke="orange" points="149.86,-534.42 153.14,-544.49 156.86,-534.57 149.86,-534.42"/>
<text text-anchor="middle" x="250" y="-132" font-family="Helvetica,sans-Serif" font-size="10.00"> &lt; dim &#45; 1 &gt;</text>
</g>
<!-- Node34 -->
<g id="node34" class="node">
<title>Node34</title>
<g id="a_node34"><a xlink:href="classQuadrature.html" target="_top" xlink:title=" ">
<polygon fill="white" stroke="black" points="334,-38.5 334,-57.5 422,-57.5 422,-38.5 334,-38.5"/>
<text text-anchor="middle" x="378" y="-45.5" font-family="Helvetica,sans-Serif" font-size="10.00">Quadrature&lt; 1 &gt;</text>
</a>
</g>
</g>
<!-- Node1&#45;&gt;Node34 -->
<g id="edge35" class="edge">
<title>Node1&#45;&gt;Node34</title>
<path fill="none" stroke="orange" stroke-dasharray="5,2" d="M152.84,-533.73C152.61,-451.88 156.07,-146.92 219,-80 247.95,-49.21 297.72,-43.61 333.67,-44.2"/>
<polygon fill="orange" stroke="orange" points="149.34,-534.15 152.89,-544.13 156.34,-534.12 149.34,-534.15"/>
<text text-anchor="middle" x="250" y="-83" font-family="Helvetica,sans-Serif" font-size="10.00"> &lt; 1 &gt;</text>
</g>
<!-- Node35 -->
<g id="node35" class="node">
<title>Node35</title>
<g id="a_node35"><a xlink:href="classQuadrature.html" target="_top" xlink:title=" ">
<polygon fill="white" stroke="black" points="316.5,-0.5 316.5,-19.5 439.5,-19.5 439.5,-0.5 316.5,-0.5"/>
<text text-anchor="middle" x="378" y="-7.5" font-family="Helvetica,sans-Serif" font-size="10.00">Quadrature&lt; structdim &gt;</text>
</a>
</g>
</g>
<!-- Node1&#45;&gt;Node35 -->
<g id="edge36" class="edge">
<title>Node1&#45;&gt;Node35</title>
<path fill="none" stroke="orange" stroke-dasharray="5,2" d="M154.13,-534.21C159.48,-443.65 183.48,-71.62 219,-35 243.65,-9.58 282.94,-3.28 316.17,-3.36"/>
<polygon fill="orange" stroke="orange" points="150.62,-534.26 153.53,-544.44 157.61,-534.66 150.62,-534.26"/>
<text text-anchor="middle" x="250" y="-38" font-family="Helvetica,sans-Serif" font-size="10.00"> &lt; structdim &gt;</text>
</g>
<!-- Node2 -->
<g id="node2" class="node">
<title>Node2</title>
<g id="a_node2"><a xlink:href="classSubscriptor.html" target="_top" xlink:title=" ">
<polygon fill="white" stroke="black" points="0,-544.5 0,-563.5 66,-563.5 66,-544.5 0,-544.5"/>
<text text-anchor="middle" x="33" y="-551.5" font-family="Helvetica,sans-Serif" font-size="10.00">Subscriptor</text>
</a>
</g>
</g>
<!-- Node2&#45;&gt;Node1 -->
<g id="edge1" class="edge">
<title>Node2&#45;&gt;Node1</title>
<path fill="none" stroke="midnightblue" d="M76.37,-554C84.89,-554 93.9,-554 102.61,-554"/>
<polygon fill="midnightblue" stroke="midnightblue" points="76.28,-550.5 66.28,-554 76.28,-557.5 76.28,-550.5"/>
</g>
<!-- Node5 -->
<g id="node5" class="node">
<title>Node5</title>
<g id="a_node5"><a xlink:href="classQDuffy.html" target="_top" xlink:title=" ">
<polygon fill="white" stroke="black" points="710.5,-745.5 710.5,-764.5 758.5,-764.5 758.5,-745.5 710.5,-745.5"/>
<text text-anchor="middle" x="734.5" y="-752.5" font-family="Helvetica,sans-Serif" font-size="10.00">QDuffy</text>
</a>
</g>
</g>
<!-- Node4&#45;&gt;Node5 -->
<g id="edge4" class="edge">
<title>Node4&#45;&gt;Node5</title>
<path fill="none" stroke="midnightblue" d="M640.39,-742.71C664.3,-745.87 691.63,-749.48 710.46,-751.96"/>
<polygon fill="midnightblue" stroke="midnightblue" points="640.75,-739.23 630.38,-741.39 639.84,-746.17 640.75,-739.23"/>
</g>
<!-- Node6 -->
<g id="node6" class="node">
<title>Node6</title>
<g id="a_node6"><a xlink:href="classQTrianglePolar.html" target="_top" xlink:title=" ">
<polygon fill="white" stroke="black" points="694,-707.5 694,-726.5 775,-726.5 775,-707.5 694,-707.5"/>
<text text-anchor="middle" x="734.5" y="-714.5" font-family="Helvetica,sans-Serif" font-size="10.00">QTrianglePolar</text>
</a>
</g>
</g>
<!-- Node4&#45;&gt;Node6 -->
<g id="edge5" class="edge">
<title>Node4&#45;&gt;Node6</title>
<path fill="none" stroke="midnightblue" d="M640.4,-729.28C657.83,-726.98 677.07,-724.45 693.51,-722.28"/>
<polygon fill="midnightblue" stroke="midnightblue" points="639.84,-725.83 630.38,-730.61 640.75,-732.77 639.84,-725.83"/>
</g>
<!-- Node12&#45;&gt;Node3 -->
<g id="edge12" class="edge">
<title>Node12&#45;&gt;Node3</title>
<path fill="none" stroke="orange" stroke-dasharray="5,2" d="M447.79,-1123.85C465.47,-1125.73 484.45,-1127.84 502,-1130 512.41,-1131.28 523.53,-1132.76 534.17,-1134.23"/>
<polygon fill="orange" stroke="orange" points="447.86,-1120.34 437.55,-1122.78 447.13,-1127.3 447.86,-1120.34"/>
<text text-anchor="middle" x="488.5" y="-1133" font-family="Helvetica,sans-Serif" font-size="10.00"> &lt; 1 &gt;</text>
</g>
<!-- Node23&#45;&gt;Node4 -->
<g id="edge26" class="edge">
<title>Node23&#45;&gt;Node4</title>
<path fill="none" stroke="orange" stroke-dasharray="5,2" d="M434.55,-408.64C442.71,-411.48 450.53,-415.46 457,-421 557.46,-507.09 581.98,-682.95 586.58,-726.22"/>
<polygon fill="orange" stroke="orange" points="435.45,-405.25 424.87,-405.79 433.48,-411.97 435.45,-405.25"/>
<text text-anchor="middle" x="488.5" y="-472" font-family="Helvetica,sans-Serif" font-size="10.00"> &lt; 2 &gt;</text>
</g>
<!-- Node24 -->
<g id="node24" class="node">
<title>Node24</title>
<g id="a_node24"><a xlink:href="classQGaussSimplex.html" target="_top" xlink:title=" ">
<polygon fill="white" stroke="black" points="527.5,-414.5 527.5,-433.5 649.5,-433.5 649.5,-414.5 527.5,-414.5"/>
<text text-anchor="middle" x="588.5" y="-421.5" font-family="Helvetica,sans-Serif" font-size="10.00">QGaussSimplex&lt; dim &gt;</text>
</a>
</g>
</g>
<!-- Node23&#45;&gt;Node24 -->
<g id="edge24" class="edge">
<title>Node23&#45;&gt;Node24</title>
<path fill="none" stroke="midnightblue" d="M434.95,-407.9C463.44,-410.91 498.12,-414.57 527.2,-417.64"/>
<polygon fill="midnightblue" stroke="midnightblue" points="435.07,-404.4 424.76,-406.83 434.33,-411.36 435.07,-404.4"/>
</g>
<!-- Node25 -->
<g id="node25" class="node">
<title>Node25</title>
<g id="a_node25"><a xlink:href="classQWitherdenVincentSimplex.html" target="_top" xlink:title=" ">
<polygon fill="white" stroke="black" points="520,-365 520,-395 657,-395 657,-365 520,-365"/>
<text text-anchor="start" x="528" y="-383" font-family="Helvetica,sans-Serif" font-size="10.00">QWitherdenVincentSimplex</text>
<text text-anchor="middle" x="588.5" y="-372" font-family="Helvetica,sans-Serif" font-size="10.00">&lt; dim &gt;</text>
</a>
</g>
</g>
<!-- Node23&#45;&gt;Node25 -->
<g id="edge25" class="edge">
<title>Node23&#45;&gt;Node25</title>
<path fill="none" stroke="midnightblue" d="M434.85,-396.11C460.94,-393.35 492.23,-390.05 519.67,-387.16"/>
<polygon fill="midnightblue" stroke="midnightblue" points="434.33,-392.64 424.76,-397.17 435.07,-399.6 434.33,-392.64"/>
</g>
</g>
</svg>
