<?xml version="1.0" encoding="UTF-8" standalone="no"?>
<!DOCTYPE svg PUBLIC "-//W3C//DTD SVG 1.1//EN"
 "http://www.w3.org/Graphics/SVG/1.1/DTD/svg11.dtd">
<!-- Generated by graphviz version 2.47.1 (20210417.1919)
 -->
<!-- Title: DataOutRotation&lt; dim, DoFHandlerType &gt; Pages: 1 -->
<svg width="1095pt" height="68pt"
 viewBox="0.00 0.00 1095.00 67.50" xmlns="http://www.w3.org/2000/svg" xmlns:xlink="http://www.w3.org/1999/xlink">
<g id="graph0" class="graph" transform="scale(1 1) rotate(0) translate(4 63.5)">
<title>DataOutRotation&lt; dim, DoFHandlerType &gt;</title>
<polygon fill="white" stroke="transparent" points="-4,4 -4,-63.5 1091,-63.5 1091,4 -4,4"/>
<!-- Node1 -->
<g id="node1" class="node">
<title>Node1</title>
<g id="a_node1"><a xlink:title=" ">
<polygon fill="#bfbfbf" stroke="black" points="969,-22.5 969,-52.5 1087,-52.5 1087,-22.5 969,-22.5"/>
<text text-anchor="start" x="977" y="-40.5" font-family="Helvetica,sans-Serif" font-size="10.00">DataOutRotation&lt; dim,</text>
<text text-anchor="middle" x="1028" y="-29.5" font-family="Helvetica,sans-Serif" font-size="10.00"> DoFHandlerType &gt;</text>
</a>
</g>
</g>
<!-- Node2 -->
<g id="node2" class="node">
<title>Node2</title>
<g id="a_node2"><a xlink:href="classDataOut__DoFData.html" target="_top" xlink:title=" ">
<polygon fill="white" stroke="black" points="772,-17 772,-58 932,-58 932,-17 772,-17"/>
<text text-anchor="start" x="780" y="-46" font-family="Helvetica,sans-Serif" font-size="10.00">DataOut_DoFData&lt; DoFHandler</text>
<text text-anchor="start" x="780" y="-35" font-family="Helvetica,sans-Serif" font-size="10.00">&lt; dim &gt;, DoFHandlerType</text>
<text text-anchor="middle" x="852" y="-24" font-family="Helvetica,sans-Serif" font-size="10.00">::dimension+1 &gt;</text>
</a>
</g>
</g>
<!-- Node2&#45;&gt;Node1 -->
<g id="edge1" class="edge">
<title>Node2&#45;&gt;Node1</title>
<path fill="none" stroke="midnightblue" d="M942.3,-37.5C951.33,-37.5 960.33,-37.5 968.9,-37.5"/>
<polygon fill="midnightblue" stroke="midnightblue" points="942.11,-34 932.11,-37.5 942.11,-41 942.11,-34"/>
</g>
<!-- Node3 -->
<g id="node3" class="node">
<title>Node3</title>
<g id="a_node3"><a xlink:href="classDataOutInterface.html" target="_top" xlink:title=" ">
<polygon fill="white" stroke="black" points="243,-22.5 243,-52.5 368,-52.5 368,-22.5 243,-22.5"/>
<text text-anchor="start" x="251" y="-40.5" font-family="Helvetica,sans-Serif" font-size="10.00">DataOutInterface&lt; patch</text>
<text text-anchor="middle" x="305.5" y="-29.5" font-family="Helvetica,sans-Serif" font-size="10.00">_dim, patch_dim &gt;</text>
</a>
</g>
</g>
<!-- Node3&#45;&gt;Node2 -->
<g id="edge2" class="edge">
<title>Node3&#45;&gt;Node2</title>
<path fill="none" stroke="midnightblue" d="M378.27,-42.17C380.88,-42.29 383.46,-42.4 386,-42.5 549.44,-48.77 590.58,-52.23 754,-45.5 759.82,-45.26 765.84,-44.94 771.89,-44.56"/>
<polygon fill="midnightblue" stroke="midnightblue" points="378.28,-38.67 368.12,-41.67 377.93,-45.66 378.28,-38.67"/>
</g>
<!-- Node5 -->
<g id="node5" class="node">
<title>Node5</title>
<g id="a_node5"><a xlink:href="classDataOut__DoFData.html" target="_top" xlink:title=" ">
<polygon fill="white" stroke="black" points="405,-0.5 405,-30.5 585,-30.5 585,-0.5 405,-0.5"/>
<text text-anchor="start" x="413" y="-18.5" font-family="Helvetica,sans-Serif" font-size="10.00">DataOut_DoFData&lt; DoFHandler</text>
<text text-anchor="middle" x="495" y="-7.5" font-family="Helvetica,sans-Serif" font-size="10.00">Type, patch_dim, patch_space_dim &gt;</text>
</a>
</g>
</g>
<!-- Node3&#45;&gt;Node5 -->
<g id="edge5" class="edge">
<title>Node3&#45;&gt;Node5</title>
<path fill="none" stroke="midnightblue" d="M378.22,-29.08C386.92,-28.06 395.89,-27.01 404.8,-25.97"/>
<polygon fill="midnightblue" stroke="midnightblue" points="377.68,-25.62 368.15,-30.27 378.49,-32.58 377.68,-25.62"/>
</g>
<!-- Node4 -->
<g id="node4" class="node">
<title>Node4</title>
<g id="a_node4"><a xlink:href="classDataOutInterface.html" target="_top" xlink:title=" ">
<polygon fill="white" stroke="black" points="0,-22.5 0,-52.5 119,-52.5 119,-22.5 0,-22.5"/>
<text text-anchor="start" x="8" y="-40.5" font-family="Helvetica,sans-Serif" font-size="10.00">DataOutInterface&lt; dim,</text>
<text text-anchor="middle" x="59.5" y="-29.5" font-family="Helvetica,sans-Serif" font-size="10.00"> spacedim &gt;</text>
</a>
</g>
</g>
<!-- Node4&#45;&gt;Node3 -->
<g id="edge3" class="edge">
<title>Node4&#45;&gt;Node3</title>
<path fill="none" stroke="orange" stroke-dasharray="5,2" d="M129.58,-37.5C165.22,-37.5 208.34,-37.5 242.85,-37.5"/>
<polygon fill="orange" stroke="orange" points="129.25,-34 119.25,-37.5 129.25,-41 129.25,-34"/>
<text text-anchor="start" x="137" y="-51.5" font-family="Helvetica,sans-Serif" font-size="10.00"> &lt; patch_dim, patch</text>
<text text-anchor="middle" x="181" y="-40.5" font-family="Helvetica,sans-Serif" font-size="10.00">_dim &gt;</text>
</g>
<!-- Node5&#45;&gt;Node2 -->
<g id="edge4" class="edge">
<title>Node5&#45;&gt;Node2</title>
<path fill="none" stroke="orange" stroke-dasharray="5,2" d="M595.19,-15.97C643.22,-16.87 701.69,-18.93 754,-23.5 759.85,-24.01 765.88,-24.64 771.94,-25.34"/>
<polygon fill="orange" stroke="orange" points="595.16,-12.47 585.1,-15.8 595.04,-19.47 595.16,-12.47"/>
<text text-anchor="start" x="603" y="-37.5" font-family="Helvetica,sans-Serif" font-size="10.00"> &lt; DoFHandler&lt; dim &gt;</text>
<text text-anchor="middle" x="678.5" y="-26.5" font-family="Helvetica,sans-Serif" font-size="10.00">, DoFHandlerType::dimension+1 &gt;</text>
</g>
</g>
</svg>
