<?xml version="1.0" encoding="UTF-8" standalone="no"?>
<!DOCTYPE svg PUBLIC "-//W3C//DTD SVG 1.1//EN"
 "http://www.w3.org/Graphics/SVG/1.1/DTD/svg11.dtd">
<!-- Generated by graphviz version 2.47.1 (20210417.1919)
 -->
<!-- Title: BarycentricPolynomials&lt; dim &gt; Pages: 1 -->
<svg width="312pt" height="174pt"
 viewBox="0.00 0.00 312.00 174.00" xmlns="http://www.w3.org/2000/svg" xmlns:xlink="http://www.w3.org/1999/xlink">
<g id="graph0" class="graph" transform="scale(1 1) rotate(0) translate(4 170)">
<title>BarycentricPolynomials&lt; dim &gt;</title>
<polygon fill="white" stroke="transparent" points="-4,4 -4,-170 308,-170 308,4 -4,4"/>
<!-- Node1 -->
<g id="node1" class="node">
<title>Node1</title>
<g id="a_node1"><a xlink:title=" ">
<polygon fill="#bfbfbf" stroke="black" points="92,-67.5 92,-97.5 211,-97.5 211,-67.5 92,-67.5"/>
<text text-anchor="start" x="100" y="-85.5" font-family="Helvetica,sans-Serif" font-size="10.00">BarycentricPolynomials</text>
<text text-anchor="middle" x="151.5" y="-74.5" font-family="Helvetica,sans-Serif" font-size="10.00">&lt; dim &gt;</text>
</a>
</g>
</g>
<!-- Node3 -->
<g id="node3" class="node">
<title>Node3</title>
<g id="a_node3"><a xlink:href="classBarycentricPolynomials.html" target="_top" xlink:title=" ">
<polygon fill="white" stroke="black" points="0,-0.5 0,-19.5 143,-19.5 143,-0.5 0,-0.5"/>
<text text-anchor="middle" x="71.5" y="-7.5" font-family="Helvetica,sans-Serif" font-size="10.00">BarycentricPolynomials&lt; 1 &gt;</text>
</a>
</g>
</g>
<!-- Node1&#45;&gt;Node3 -->
<g id="edge2" class="edge">
<title>Node1&#45;&gt;Node3</title>
<path fill="none" stroke="orange" stroke-dasharray="5,2" d="M127.68,-60.51C112.31,-46.96 93.1,-30.03 81.59,-19.89"/>
<polygon fill="orange" stroke="orange" points="125.49,-63.25 135.31,-67.23 130.12,-58 125.49,-63.25"/>
<text text-anchor="middle" x="128" y="-41" font-family="Helvetica,sans-Serif" font-size="10.00"> &lt; 1 &gt;</text>
</g>
<!-- Node4 -->
<g id="node4" class="node">
<title>Node4</title>
<g id="a_node4"><a xlink:href="classBarycentricPolynomials.html" target="_top" xlink:title=" ">
<polygon fill="white" stroke="black" points="161,-0.5 161,-19.5 304,-19.5 304,-0.5 161,-0.5"/>
<text text-anchor="middle" x="232.5" y="-7.5" font-family="Helvetica,sans-Serif" font-size="10.00">BarycentricPolynomials&lt; 2 &gt;</text>
</a>
</g>
</g>
<!-- Node1&#45;&gt;Node4 -->
<g id="edge3" class="edge">
<title>Node1&#45;&gt;Node4</title>
<path fill="none" stroke="orange" stroke-dasharray="5,2" d="M175.62,-60.51C191.18,-46.96 210.63,-30.03 222.28,-19.89"/>
<polygon fill="orange" stroke="orange" points="173.14,-58.03 167.89,-67.23 177.73,-63.31 173.14,-58.03"/>
<text text-anchor="middle" x="212" y="-41" font-family="Helvetica,sans-Serif" font-size="10.00"> &lt; 2 &gt;</text>
</g>
<!-- Node2 -->
<g id="node2" class="node">
<title>Node2</title>
<g id="a_node2"><a xlink:href="classScalarPolynomialsBase.html" target="_top" xlink:title=" ">
<polygon fill="white" stroke="black" points="91.5,-135.5 91.5,-165.5 211.5,-165.5 211.5,-135.5 91.5,-135.5"/>
<text text-anchor="start" x="99.5" y="-153.5" font-family="Helvetica,sans-Serif" font-size="10.00">ScalarPolynomialsBase</text>
<text text-anchor="middle" x="151.5" y="-142.5" font-family="Helvetica,sans-Serif" font-size="10.00">&lt; dim &gt;</text>
</a>
</g>
</g>
<!-- Node2&#45;&gt;Node1 -->
<g id="edge1" class="edge">
<title>Node2&#45;&gt;Node1</title>
<path fill="none" stroke="midnightblue" d="M151.5,-125.03C151.5,-115.86 151.5,-105.74 151.5,-97.79"/>
<polygon fill="midnightblue" stroke="midnightblue" points="148,-125.18 151.5,-135.18 155,-125.18 148,-125.18"/>
</g>
</g>
</svg>
