<?xml version="1.0" encoding="UTF-8" standalone="no"?>
<!DOCTYPE svg PUBLIC "-//W3C//DTD SVG 1.1//EN"
 "http://www.w3.org/Graphics/SVG/1.1/DTD/svg11.dtd">
<!-- Generated by graphviz version 2.47.1 (20210417.1919)
 -->
<!-- Title: DataPostprocessorVector&lt; dim &gt; Pages: 1 -->
<svg width="137pt" height="162pt"
 viewBox="0.00 0.00 137.00 162.00" xmlns="http://www.w3.org/2000/svg" xmlns:xlink="http://www.w3.org/1999/xlink">
<g id="graph0" class="graph" transform="scale(1 1) rotate(0) translate(4 158)">
<title>DataPostprocessorVector&lt; dim &gt;</title>
<polygon fill="white" stroke="transparent" points="-4,4 -4,-158 133,-158 133,4 -4,4"/>
<!-- Node1 -->
<g id="node1" class="node">
<title>Node1</title>
<g id="a_node1"><a xlink:title=" ">
<polygon fill="#bfbfbf" stroke="black" points="0,-0.5 0,-30.5 129,-30.5 129,-0.5 0,-0.5"/>
<text text-anchor="start" x="8" y="-18.5" font-family="Helvetica,sans-Serif" font-size="10.00">DataPostprocessorVector</text>
<text text-anchor="middle" x="64.5" y="-7.5" font-family="Helvetica,sans-Serif" font-size="10.00">&lt; dim &gt;</text>
</a>
</g>
</g>
<!-- Node2 -->
<g id="node2" class="node">
<title>Node2</title>
<g id="a_node2"><a xlink:href="classDataPostprocessor.html" target="_top" xlink:title=" ">
<polygon fill="white" stroke="black" points="11,-67.5 11,-97.5 118,-97.5 118,-67.5 11,-67.5"/>
<text text-anchor="start" x="19" y="-85.5" font-family="Helvetica,sans-Serif" font-size="10.00">DataPostprocessor&lt;</text>
<text text-anchor="middle" x="64.5" y="-74.5" font-family="Helvetica,sans-Serif" font-size="10.00"> dim &gt;</text>
</a>
</g>
</g>
<!-- Node2&#45;&gt;Node1 -->
<g id="edge1" class="edge">
<title>Node2&#45;&gt;Node1</title>
<path fill="none" stroke="midnightblue" d="M64.5,-57.11C64.5,-48.15 64.5,-38.32 64.5,-30.58"/>
<polygon fill="midnightblue" stroke="midnightblue" points="61,-57.4 64.5,-67.4 68,-57.4 61,-57.4"/>
</g>
<!-- Node3 -->
<g id="node3" class="node">
<title>Node3</title>
<g id="a_node3"><a xlink:href="classSubscriptor.html" target="_top" xlink:title=" ">
<polygon fill="white" stroke="black" points="31.5,-134.5 31.5,-153.5 97.5,-153.5 97.5,-134.5 31.5,-134.5"/>
<text text-anchor="middle" x="64.5" y="-141.5" font-family="Helvetica,sans-Serif" font-size="10.00">Subscriptor</text>
</a>
</g>
</g>
<!-- Node3&#45;&gt;Node2 -->
<g id="edge2" class="edge">
<title>Node3&#45;&gt;Node2</title>
<path fill="none" stroke="midnightblue" d="M64.5,-124.23C64.5,-115.59 64.5,-105.5 64.5,-97.52"/>
<polygon fill="midnightblue" stroke="midnightblue" points="61,-124.48 64.5,-134.48 68,-124.48 61,-124.48"/>
</g>
</g>
</svg>
