<?xml version="1.0" encoding="UTF-8" standalone="no"?>
<!DOCTYPE svg PUBLIC "-//W3C//DTD SVG 1.1//EN"
 "http://www.w3.org/Graphics/SVG/1.1/DTD/svg11.dtd">
<!-- Generated by graphviz version 2.47.1 (20210417.1919)
 -->
<!-- Title: FiniteElement&lt; dim, spacedim &gt; Pages: 1 -->
<svg width="1557pt" height="825pt"
 viewBox="0.00 0.00 1557.00 825.00" xmlns="http://www.w3.org/2000/svg" xmlns:xlink="http://www.w3.org/1999/xlink">
<g id="graph0" class="graph" transform="scale(1 1) rotate(0) translate(4 821)">
<title>FiniteElement&lt; dim, spacedim &gt;</title>
<polygon fill="white" stroke="transparent" points="-4,4 -4,-821 1553,-821 1553,4 -4,4"/>
<!-- Node1 -->
<g id="node1" class="node">
<title>Node1</title>
<g id="a_node1"><a xlink:title=" ">
<polygon fill="#bfbfbf" stroke="black" points="141,-702.5 141,-732.5 245,-732.5 245,-702.5 141,-702.5"/>
<text text-anchor="start" x="149" y="-720.5" font-family="Helvetica,sans-Serif" font-size="10.00">FiniteElement&lt; dim,</text>
<text text-anchor="middle" x="193" y="-709.5" font-family="Helvetica,sans-Serif" font-size="10.00"> spacedim &gt;</text>
</a>
</g>
</g>
<!-- Node1&#45;&gt;Node1 -->
<g id="edge3" class="edge">
<title>Node1&#45;&gt;Node1</title>
<path fill="none" stroke="orange" stroke-dasharray="5,2" d="M186.78,-742.96C187.55,-747.68 189.63,-751 193,-751 198.54,-751 200.57,-742.06 199.1,-732.66"/>
<polygon fill="orange" stroke="orange" points="190.28,-742.7 186.9,-732.66 183.28,-742.62 190.28,-742.7"/>
<text text-anchor="middle" x="193" y="-754" font-family="Helvetica,sans-Serif" font-size="10.00"> &lt; dim, spacedim &gt;</text>
</g>
<!-- Node1&#45;&gt;Node1 -->
<g id="edge13" class="edge">
<title>Node1&#45;&gt;Node1</title>
<path fill="none" stroke="orange" stroke-dasharray="5,2" d="M180.54,-742.19C178.13,-756.12 182.28,-769 193,-769 206.19,-769 209.44,-749.49 202.74,-732.53"/>
<polygon fill="orange" stroke="orange" points="183.92,-743.1 183.26,-732.53 177.18,-741.2 183.92,-743.1"/>
<text text-anchor="middle" x="193" y="-772" font-family="Helvetica,sans-Serif" font-size="10.00"> &lt; dim, spacedim &gt;</text>
</g>
<!-- Node4 -->
<g id="node4" class="node">
<title>Node4</title>
<g id="a_node4"><a xlink:href="classFiniteElement.html" target="_top" xlink:title=" ">
<polygon fill="white" stroke="black" points="469.5,-786 469.5,-805 580.5,-805 580.5,-786 469.5,-786"/>
<text text-anchor="middle" x="525" y="-793" font-family="Helvetica,sans-Serif" font-size="10.00">FiniteElement&lt; 2, 2 &gt;</text>
</a>
</g>
</g>
<!-- Node1&#45;&gt;Node4 -->
<g id="edge4" class="edge">
<title>Node1&#45;&gt;Node4</title>
<path fill="none" stroke="orange" stroke-dasharray="5,2" d="M220.45,-738.8C232.7,-747.57 247.88,-756.95 263,-762.5 331.17,-787.53 415.34,-794.2 469.34,-795.66"/>
<polygon fill="orange" stroke="orange" points="222.2,-735.75 212.09,-732.59 218.03,-741.37 222.2,-735.75"/>
<text text-anchor="middle" x="341.5" y="-795.5" font-family="Helvetica,sans-Serif" font-size="10.00"> &lt; 2, 2 &gt;</text>
</g>
<!-- Node6 -->
<g id="node6" class="node">
<title>Node6</title>
<g id="a_node6"><a xlink:href="classFiniteElement.html" target="_top" xlink:title=" ">
<polygon fill="white" stroke="black" points="438,-726 438,-767 612,-767 612,-726 438,-726"/>
<text text-anchor="start" x="446" y="-755" font-family="Helvetica,sans-Serif" font-size="10.00">FiniteElement&lt; Polynomial</text>
<text text-anchor="start" x="446" y="-744" font-family="Helvetica,sans-Serif" font-size="10.00">Type::dimension+1, PolynomialType</text>
<text text-anchor="middle" x="525" y="-733" font-family="Helvetica,sans-Serif" font-size="10.00">::dimension+1 &gt;</text>
</a>
</g>
</g>
<!-- Node1&#45;&gt;Node6 -->
<g id="edge6" class="edge">
<title>Node1&#45;&gt;Node6</title>
<path fill="none" stroke="orange" stroke-dasharray="5,2" d="M255.17,-722.88C306.56,-727.39 380.6,-733.9 437.97,-738.94"/>
<polygon fill="orange" stroke="orange" points="255.47,-719.39 245.2,-722 254.86,-726.36 255.47,-719.39"/>
<text text-anchor="start" x="263" y="-750.5" font-family="Helvetica,sans-Serif" font-size="10.00"> &lt; PolynomialType::dimension</text>
<text text-anchor="middle" x="341.5" y="-739.5" font-family="Helvetica,sans-Serif" font-size="10.00">+1, PolynomialType::dimension+1 &gt;</text>
</g>
<!-- Node13 -->
<g id="node13" class="node">
<title>Node13</title>
<g id="a_node13"><a xlink:href="classFiniteElement.html" target="_top" xlink:title=" ">
<polygon fill="white" stroke="black" points="451,-688 451,-707 599,-707 599,-688 451,-688"/>
<text text-anchor="middle" x="525" y="-695" font-family="Helvetica,sans-Serif" font-size="10.00">FiniteElement&lt; 1, spacedim &gt;</text>
</a>
</g>
</g>
<!-- Node1&#45;&gt;Node13 -->
<g id="edge14" class="edge">
<title>Node1&#45;&gt;Node13</title>
<path fill="none" stroke="orange" stroke-dasharray="5,2" d="M255.29,-709.22C257.9,-708.96 260.47,-708.72 263,-708.5 326.26,-703.05 398.39,-700.27 450.76,-698.87"/>
<polygon fill="orange" stroke="orange" points="254.76,-705.76 245.19,-710.32 255.51,-712.72 254.76,-705.76"/>
<text text-anchor="middle" x="341.5" y="-711.5" font-family="Helvetica,sans-Serif" font-size="10.00"> &lt; 1, spacedim &gt;</text>
</g>
<!-- Node17 -->
<g id="node17" class="node">
<title>Node17</title>
<g id="a_node17"><a xlink:href="classFiniteElement.html" target="_top" xlink:title=" ">
<polygon fill="white" stroke="black" points="473,-534.5 473,-564.5 577,-564.5 577,-534.5 473,-534.5"/>
<text text-anchor="start" x="481" y="-552.5" font-family="Helvetica,sans-Serif" font-size="10.00">FiniteElement&lt; dim,</text>
<text text-anchor="middle" x="525" y="-541.5" font-family="Helvetica,sans-Serif" font-size="10.00"> dim &gt;</text>
</a>
</g>
</g>
<!-- Node1&#45;&gt;Node17 -->
<g id="edge18" class="edge">
<title>Node1&#45;&gt;Node17</title>
<path fill="none" stroke="orange" stroke-dasharray="5,2" d="M232.5,-697.9C299.12,-663.98 434.49,-595.07 494.37,-564.58"/>
<polygon fill="orange" stroke="orange" points="230.9,-694.79 223.58,-702.44 234.08,-701.03 230.9,-694.79"/>
<text text-anchor="middle" x="341.5" y="-684.5" font-family="Helvetica,sans-Serif" font-size="10.00"> &lt; dim, dim &gt;</text>
</g>
<!-- Node2 -->
<g id="node2" class="node">
<title>Node2</title>
<g id="a_node2"><a xlink:href="classSubscriptor.html" target="_top" xlink:title=" ">
<polygon fill="white" stroke="black" points="19,-730 19,-749 85,-749 85,-730 19,-730"/>
<text text-anchor="middle" x="52" y="-737" font-family="Helvetica,sans-Serif" font-size="10.00">Subscriptor</text>
</a>
</g>
</g>
<!-- Node2&#45;&gt;Node1 -->
<g id="edge1" class="edge">
<title>Node2&#45;&gt;Node1</title>
<path fill="none" stroke="midnightblue" d="M95.33,-732.8C109.7,-730.53 125.9,-727.96 140.88,-725.59"/>
<polygon fill="midnightblue" stroke="midnightblue" points="94.57,-729.38 85.24,-734.4 95.66,-736.29 94.57,-729.38"/>
</g>
<!-- Node3 -->
<g id="node3" class="node">
<title>Node3</title>
<g id="a_node3"><a xlink:href="classFiniteElementData.html" target="_top" xlink:title=" ">
<polygon fill="white" stroke="black" points="0,-680.5 0,-710.5 104,-710.5 104,-680.5 0,-680.5"/>
<text text-anchor="start" x="8" y="-698.5" font-family="Helvetica,sans-Serif" font-size="10.00">FiniteElementData&lt;</text>
<text text-anchor="middle" x="52" y="-687.5" font-family="Helvetica,sans-Serif" font-size="10.00"> dim &gt;</text>
</a>
</g>
</g>
<!-- Node3&#45;&gt;Node1 -->
<g id="edge2" class="edge">
<title>Node3&#45;&gt;Node1</title>
<path fill="none" stroke="midnightblue" d="M114.27,-705.2C123.15,-706.6 132.2,-708.04 140.85,-709.4"/>
<polygon fill="midnightblue" stroke="midnightblue" points="114.79,-701.74 104.36,-703.63 113.69,-708.65 114.79,-701.74"/>
</g>
<!-- Node5 -->
<g id="node5" class="node">
<title>Node5</title>
<g id="a_node5"><a xlink:href="classFE__P1NC.html" target="_top" xlink:title=" ">
<polygon fill="white" stroke="black" points="696.5,-786 696.5,-805 758.5,-805 758.5,-786 696.5,-786"/>
<text text-anchor="middle" x="727.5" y="-793" font-family="Helvetica,sans-Serif" font-size="10.00">FE_P1NC</text>
</a>
</g>
</g>
<!-- Node4&#45;&gt;Node5 -->
<g id="edge5" class="edge">
<title>Node4&#45;&gt;Node5</title>
<path fill="none" stroke="midnightblue" d="M590.79,-795.5C626.22,-795.5 668.42,-795.5 696.25,-795.5"/>
<polygon fill="midnightblue" stroke="midnightblue" points="590.52,-792 580.52,-795.5 590.52,-799 590.52,-792"/>
</g>
<!-- Node7 -->
<g id="node7" class="node">
<title>Node7</title>
<g id="a_node7"><a xlink:href="classFE__PolyFace.html" target="_top" xlink:title=" ">
<polygon fill="white" stroke="black" points="649,-731.5 649,-761.5 806,-761.5 806,-731.5 649,-731.5"/>
<text text-anchor="start" x="657" y="-749.5" font-family="Helvetica,sans-Serif" font-size="10.00">FE_PolyFace&lt; PolynomialType,</text>
<text text-anchor="middle" x="727.5" y="-738.5" font-family="Helvetica,sans-Serif" font-size="10.00"> dim, spacedim &gt;</text>
</a>
</g>
</g>
<!-- Node6&#45;&gt;Node7 -->
<g id="edge7" class="edge">
<title>Node6&#45;&gt;Node7</title>
<path fill="none" stroke="midnightblue" d="M622.25,-746.5C631.2,-746.5 640.18,-746.5 648.92,-746.5"/>
<polygon fill="midnightblue" stroke="midnightblue" points="622.19,-743 612.19,-746.5 622.19,-750 622.19,-743"/>
</g>
<!-- Node8 -->
<g id="node8" class="node">
<title>Node8</title>
<g id="a_node8"><a xlink:href="classFE__PolyFace.html" target="_top" xlink:title=" ">
<polygon fill="white" stroke="black" points="971,-786.5 971,-816.5 1132,-816.5 1132,-786.5 971,-786.5"/>
<text text-anchor="start" x="979" y="-804.5" font-family="Helvetica,sans-Serif" font-size="10.00">FE_PolyFace&lt; PolynomialSpace</text>
<text text-anchor="middle" x="1051.5" y="-793.5" font-family="Helvetica,sans-Serif" font-size="10.00">&lt; dim &#45; 1 &gt;, dim, dim &gt;</text>
</a>
</g>
</g>
<!-- Node7&#45;&gt;Node8 -->
<g id="edge8" class="edge">
<title>Node7&#45;&gt;Node8</title>
<path fill="none" stroke="orange" stroke-dasharray="5,2" d="M788.44,-764.18C800.16,-767.25 812.41,-770.19 824,-772.5 872.41,-782.14 927.3,-789.26 970.92,-794.04"/>
<polygon fill="orange" stroke="orange" points="789.31,-760.79 778.74,-761.58 787.5,-767.55 789.31,-760.79"/>
<text text-anchor="start" x="841" y="-805.5" font-family="Helvetica,sans-Serif" font-size="10.00"> &lt; PolynomialSpace&lt;</text>
<text text-anchor="middle" x="888.5" y="-794.5" font-family="Helvetica,sans-Serif" font-size="10.00"> dim &#45; 1 &gt;, dim, dim &gt;</text>
</g>
<!-- Node10 -->
<g id="node10" class="node">
<title>Node10</title>
<g id="a_node10"><a xlink:href="classFE__PolyFace.html" target="_top" xlink:title=" ">
<polygon fill="white" stroke="black" points="977.5,-726 977.5,-767 1125.5,-767 1125.5,-726 977.5,-726"/>
<text text-anchor="start" x="985.5" y="-755" font-family="Helvetica,sans-Serif" font-size="10.00">FE_PolyFace&lt; TensorProduct</text>
<text text-anchor="start" x="985.5" y="-744" font-family="Helvetica,sans-Serif" font-size="10.00">Polynomials&lt; dim &#45; 1 &gt;,</text>
<text text-anchor="middle" x="1051.5" y="-733" font-family="Helvetica,sans-Serif" font-size="10.00"> dim, dim &gt;</text>
</a>
</g>
</g>
<!-- Node7&#45;&gt;Node10 -->
<g id="edge10" class="edge">
<title>Node7&#45;&gt;Node10</title>
<path fill="none" stroke="orange" stroke-dasharray="5,2" d="M816.29,-746.5C866.75,-746.5 929.42,-746.5 977.23,-746.5"/>
<polygon fill="orange" stroke="orange" points="816.04,-743 806.04,-746.5 816.04,-750 816.04,-743"/>
<text text-anchor="start" x="824" y="-760.5" font-family="Helvetica,sans-Serif" font-size="10.00"> &lt; TensorProductPolynomials</text>
<text text-anchor="middle" x="888.5" y="-749.5" font-family="Helvetica,sans-Serif" font-size="10.00">&lt; dim &#45; 1 &gt;, dim, dim &gt;</text>
</g>
<!-- Node9 -->
<g id="node9" class="node">
<title>Node9</title>
<g id="a_node9"><a xlink:href="classFE__FaceP.html" target="_top" xlink:title=" ">
<polygon fill="white" stroke="black" points="1176,-792 1176,-811 1321,-811 1321,-792 1176,-792"/>
<text text-anchor="middle" x="1248.5" y="-799" font-family="Helvetica,sans-Serif" font-size="10.00">FE_FaceP&lt; dim, spacedim &gt;</text>
</a>
</g>
</g>
<!-- Node8&#45;&gt;Node9 -->
<g id="edge9" class="edge">
<title>Node8&#45;&gt;Node9</title>
<path fill="none" stroke="midnightblue" d="M1142.39,-801.5C1153.65,-801.5 1165.06,-801.5 1175.99,-801.5"/>
<polygon fill="midnightblue" stroke="midnightblue" points="1142.1,-798 1132.1,-801.5 1142.1,-805 1142.1,-798"/>
</g>
<!-- Node11 -->
<g id="node11" class="node">
<title>Node11</title>
<g id="a_node11"><a xlink:href="classFE__FaceQ.html" target="_top" xlink:title=" ">
<polygon fill="white" stroke="black" points="1175.5,-745 1175.5,-764 1321.5,-764 1321.5,-745 1175.5,-745"/>
<text text-anchor="middle" x="1248.5" y="-752" font-family="Helvetica,sans-Serif" font-size="10.00">FE_FaceQ&lt; dim, spacedim &gt;</text>
</a>
</g>
</g>
<!-- Node10&#45;&gt;Node11 -->
<g id="edge11" class="edge">
<title>Node10&#45;&gt;Node11</title>
<path fill="none" stroke="midnightblue" d="M1136.03,-749.93C1149.08,-750.46 1162.46,-751.01 1175.22,-751.53"/>
<polygon fill="midnightblue" stroke="midnightblue" points="1135.8,-746.41 1125.67,-749.5 1135.51,-753.41 1135.8,-746.41"/>
</g>
<!-- Node12 -->
<g id="node12" class="node">
<title>Node12</title>
<g id="a_node12"><a xlink:href="classFE__TraceQ.html" target="_top" xlink:title=" ">
<polygon fill="white" stroke="black" points="1174,-707 1174,-726 1323,-726 1323,-707 1174,-707"/>
<text text-anchor="middle" x="1248.5" y="-714" font-family="Helvetica,sans-Serif" font-size="10.00">FE_TraceQ&lt; dim, spacedim &gt;</text>
</a>
</g>
</g>
<!-- Node10&#45;&gt;Node12 -->
<g id="edge12" class="edge">
<title>Node10&#45;&gt;Node12</title>
<path fill="none" stroke="midnightblue" d="M1135.97,-733.66C1152.67,-731.09 1169.93,-728.43 1185.73,-726"/>
<polygon fill="midnightblue" stroke="midnightblue" points="1135.02,-730.26 1125.67,-735.24 1136.08,-737.18 1135.02,-730.26"/>
</g>
<!-- Node14 -->
<g id="node14" class="node">
<title>Node14</title>
<g id="a_node14"><a xlink:href="classFE__FaceQ_3_011_00_01spacedim_01_4.html" target="_top" xlink:title=" ">
<polygon fill="white" stroke="black" points="660,-688 660,-707 795,-707 795,-688 660,-688"/>
<text text-anchor="middle" x="727.5" y="-695" font-family="Helvetica,sans-Serif" font-size="10.00">FE_FaceQ&lt; 1, spacedim &gt;</text>
</a>
</g>
</g>
<!-- Node13&#45;&gt;Node14 -->
<g id="edge15" class="edge">
<title>Node13&#45;&gt;Node14</title>
<path fill="none" stroke="midnightblue" d="M609.56,-697.5C626.31,-697.5 643.69,-697.5 659.78,-697.5"/>
<polygon fill="midnightblue" stroke="midnightblue" points="609.24,-694 599.24,-697.5 609.24,-701 609.24,-694"/>
</g>
<!-- Node15 -->
<g id="node15" class="node">
<title>Node15</title>
<g id="a_node15"><a xlink:href="classFE__FaceP_3_011_00_01spacedim_01_4.html" target="_top" xlink:title=" ">
<polygon fill="white" stroke="black" points="984.5,-688 984.5,-707 1118.5,-707 1118.5,-688 984.5,-688"/>
<text text-anchor="middle" x="1051.5" y="-695" font-family="Helvetica,sans-Serif" font-size="10.00">FE_FaceP&lt; 1, spacedim &gt;</text>
</a>
</g>
</g>
<!-- Node14&#45;&gt;Node15 -->
<g id="edge16" class="edge">
<title>Node14&#45;&gt;Node15</title>
<path fill="none" stroke="midnightblue" d="M805.53,-697.5C860.08,-697.5 932.49,-697.5 984.42,-697.5"/>
<polygon fill="midnightblue" stroke="midnightblue" points="805.22,-694 795.22,-697.5 805.22,-701 805.22,-694"/>
</g>
<!-- Node16 -->
<g id="node16" class="node">
<title>Node16</title>
<g id="a_node16"><a xlink:href="classFE__TraceQ_3_011_00_01spacedim_01_4.html" target="_top" xlink:title=" ">
<polygon fill="white" stroke="black" points="982.5,-650 982.5,-669 1120.5,-669 1120.5,-650 982.5,-650"/>
<text text-anchor="middle" x="1051.5" y="-657" font-family="Helvetica,sans-Serif" font-size="10.00">FE_TraceQ&lt; 1, spacedim &gt;</text>
</a>
</g>
</g>
<!-- Node14&#45;&gt;Node16 -->
<g id="edge17" class="edge">
<title>Node14&#45;&gt;Node16</title>
<path fill="none" stroke="midnightblue" d="M805.41,-688.42C859.3,-682.06 930.67,-673.64 982.48,-667.53"/>
<polygon fill="midnightblue" stroke="midnightblue" points="804.74,-684.98 795.22,-689.63 805.56,-691.93 804.74,-684.98"/>
</g>
<!-- Node18 -->
<g id="node18" class="node">
<title>Node18</title>
<g id="a_node18"><a xlink:href="classFESystem.html" target="_top" xlink:title=" ">
<polygon fill="white" stroke="black" points="655,-650 655,-669 800,-669 800,-650 655,-650"/>
<text text-anchor="middle" x="727.5" y="-657" font-family="Helvetica,sans-Serif" font-size="10.00">FESystem&lt; dim, spacedim &gt;</text>
</a>
</g>
</g>
<!-- Node17&#45;&gt;Node18 -->
<g id="edge19" class="edge">
<title>Node17&#45;&gt;Node18</title>
<path fill="none" stroke="midnightblue" d="M549.91,-571.32C573.49,-591.74 611.35,-621.68 649,-639.5 658.04,-643.78 668.13,-647.24 677.96,-649.99"/>
<polygon fill="midnightblue" stroke="midnightblue" points="552.02,-568.51 542.2,-564.54 547.39,-573.77 552.02,-568.51"/>
</g>
<!-- Node19 -->
<g id="node19" class="node">
<title>Node19</title>
<g id="a_node19"><a xlink:href="classFE__DGPNonparametric.html" target="_top" xlink:title=" ">
<polygon fill="white" stroke="black" points="667.5,-600.5 667.5,-630.5 787.5,-630.5 787.5,-600.5 667.5,-600.5"/>
<text text-anchor="start" x="675.5" y="-618.5" font-family="Helvetica,sans-Serif" font-size="10.00">FE_DGPNonparametric</text>
<text text-anchor="middle" x="727.5" y="-607.5" font-family="Helvetica,sans-Serif" font-size="10.00">&lt; dim, spacedim &gt;</text>
</a>
</g>
</g>
<!-- Node17&#45;&gt;Node19 -->
<g id="edge20" class="edge">
<title>Node17&#45;&gt;Node19</title>
<path fill="none" stroke="midnightblue" d="M580.24,-567.7C601.64,-574.86 626.46,-583.11 649,-590.5 658.81,-593.72 669.32,-597.13 679.34,-600.37"/>
<polygon fill="midnightblue" stroke="midnightblue" points="581.25,-564.35 570.66,-564.5 579.03,-570.99 581.25,-564.35"/>
</g>
<!-- Node20 -->
<g id="node20" class="node">
<title>Node20</title>
<g id="a_node20"><a xlink:href="classFE__Enriched.html" target="_top" xlink:title=" ">
<polygon fill="white" stroke="black" points="650,-562 650,-581 805,-581 805,-562 650,-562"/>
<text text-anchor="middle" x="727.5" y="-569" font-family="Helvetica,sans-Serif" font-size="10.00">FE_Enriched&lt; dim, spacedim &gt;</text>
</a>
</g>
</g>
<!-- Node17&#45;&gt;Node20 -->
<g id="edge21" class="edge">
<title>Node17&#45;&gt;Node20</title>
<path fill="none" stroke="midnightblue" d="M587.19,-556.21C606.91,-558.38 629.02,-560.8 649.72,-563.08"/>
<polygon fill="midnightblue" stroke="midnightblue" points="587.44,-552.72 577.11,-555.11 586.67,-559.68 587.44,-552.72"/>
</g>
<!-- Node21 -->
<g id="node21" class="node">
<title>Node21</title>
<g id="a_node21"><a xlink:href="classFE__NedelecSZ.html" target="_top" xlink:title=" ">
<polygon fill="white" stroke="black" points="672,-512.5 672,-542.5 783,-542.5 783,-512.5 672,-512.5"/>
<text text-anchor="start" x="680" y="-530.5" font-family="Helvetica,sans-Serif" font-size="10.00">FE_NedelecSZ&lt; dim,</text>
<text text-anchor="middle" x="727.5" y="-519.5" font-family="Helvetica,sans-Serif" font-size="10.00"> spacedim &gt;</text>
</a>
</g>
</g>
<!-- Node17&#45;&gt;Node21 -->
<g id="edge22" class="edge">
<title>Node17&#45;&gt;Node21</title>
<path fill="none" stroke="midnightblue" d="M587.23,-542.78C614.26,-539.82 645.76,-536.36 671.97,-533.48"/>
<polygon fill="midnightblue" stroke="midnightblue" points="586.67,-539.32 577.11,-543.89 587.44,-546.28 586.67,-539.32"/>
</g>
<!-- Node22 -->
<g id="node22" class="node">
<title>Node22</title>
<g id="a_node22"><a xlink:href="classFE__Nothing.html" target="_top" xlink:title=" ">
<polygon fill="white" stroke="black" points="652.5,-474 652.5,-493 802.5,-493 802.5,-474 652.5,-474"/>
<text text-anchor="middle" x="727.5" y="-481" font-family="Helvetica,sans-Serif" font-size="10.00">FE_Nothing&lt; dim, spacedim &gt;</text>
</a>
</g>
</g>
<!-- Node17&#45;&gt;Node22 -->
<g id="edge23" class="edge">
<title>Node17&#45;&gt;Node22</title>
<path fill="none" stroke="midnightblue" d="M571.41,-530.59C594.42,-521.41 622.94,-510.64 649,-502.5 660.11,-499.03 672.27,-495.79 683.6,-493.01"/>
<polygon fill="midnightblue" stroke="midnightblue" points="569.88,-527.44 561.91,-534.42 572.5,-533.93 569.88,-527.44"/>
</g>
<!-- Node24 -->
<g id="node24" class="node">
<title>Node24</title>
<g id="a_node24"><a xlink:href="classFE__Poly.html" target="_top" xlink:title=" ">
<polygon fill="white" stroke="black" points="659.5,-407 659.5,-426 795.5,-426 795.5,-407 659.5,-407"/>
<text text-anchor="middle" x="727.5" y="-414" font-family="Helvetica,sans-Serif" font-size="10.00">FE_Poly&lt; dim, spacedim &gt;</text>
</a>
</g>
</g>
<!-- Node17&#45;&gt;Node24 -->
<g id="edge25" class="edge">
<title>Node17&#45;&gt;Node24</title>
<path fill="none" stroke="midnightblue" d="M555.35,-528.6C580.09,-511.13 616.56,-485.74 649,-464.5 670.05,-450.72 694.85,-435.54 710.62,-426.02"/>
<polygon fill="midnightblue" stroke="midnightblue" points="553.25,-525.8 547.11,-534.43 557.3,-531.51 553.25,-525.8"/>
</g>
<!-- Node56 -->
<g id="node40" class="node">
<title>Node56</title>
<g id="a_node40"><a xlink:href="classFE__PolyTensor.html" target="_top" xlink:title=" ">
<polygon fill="white" stroke="black" points="672,-169.5 672,-199.5 783,-199.5 783,-169.5 672,-169.5"/>
<text text-anchor="start" x="680" y="-187.5" font-family="Helvetica,sans-Serif" font-size="10.00">FE_PolyTensor&lt; dim,</text>
<text text-anchor="middle" x="727.5" y="-176.5" font-family="Helvetica,sans-Serif" font-size="10.00"> spacedim &gt;</text>
</a>
</g>
</g>
<!-- Node17&#45;&gt;Node56 -->
<g id="edge42" class="edge">
<title>Node17&#45;&gt;Node56</title>
<path fill="none" stroke="midnightblue" d="M539.26,-525.36C577.44,-455.86 686.9,-256.59 718.1,-199.78"/>
<polygon fill="midnightblue" stroke="midnightblue" points="536.11,-523.83 534.36,-534.28 542.24,-527.2 536.11,-523.83"/>
</g>
<!-- Node23 -->
<g id="node23" class="node">
<title>Node23</title>
<g id="a_node23"><a xlink:href="classFE__Nothing.html" target="_top" xlink:title=" ">
<polygon fill="white" stroke="black" points="989.5,-514 989.5,-533 1113.5,-533 1113.5,-514 989.5,-514"/>
<text text-anchor="middle" x="1051.5" y="-521" font-family="Helvetica,sans-Serif" font-size="10.00">FE_Nothing&lt; dim, dim &gt;</text>
</a>
</g>
</g>
<!-- Node22&#45;&gt;Node23 -->
<g id="edge24" class="edge">
<title>Node22&#45;&gt;Node23</title>
<path fill="none" stroke="orange" stroke-dasharray="5,2" d="M792.04,-494.7C802.7,-496.42 813.65,-498.09 824,-499.5 879.83,-507.13 943.69,-513.7 989.33,-518.03"/>
<polygon fill="orange" stroke="orange" points="792.39,-491.21 781.95,-493.04 791.25,-498.11 792.39,-491.21"/>
<text text-anchor="middle" x="888.5" y="-517.5" font-family="Helvetica,sans-Serif" font-size="10.00"> &lt; dim, dim &gt;</text>
</g>
<!-- Node24&#45;&gt;Node24 -->
<g id="edge29" class="edge">
<title>Node24&#45;&gt;Node24</title>
<path fill="none" stroke="orange" stroke-dasharray="5,2" d="M709.72,-435.9C710.91,-440.81 716.84,-444.5 727.5,-444.5 744.56,-444.5 749.49,-435.07 742.3,-426.26"/>
<polygon fill="orange" stroke="orange" points="713.09,-436.84 712.7,-426.26 706.41,-434.78 713.09,-436.84"/>
<text text-anchor="middle" x="727.5" y="-447.5" font-family="Helvetica,sans-Serif" font-size="10.00"> &lt; dim, spacedim &gt;</text>
</g>
<!-- Node25 -->
<g id="node25" class="node">
<title>Node25</title>
<g id="a_node25"><a xlink:href="classFE__DGPMonomial.html" target="_top" xlink:title=" ">
<polygon fill="white" stroke="black" points="985.5,-476 985.5,-495 1117.5,-495 1117.5,-476 985.5,-476"/>
<text text-anchor="middle" x="1051.5" y="-483" font-family="Helvetica,sans-Serif" font-size="10.00">FE_DGPMonomial&lt; dim &gt;</text>
</a>
</g>
</g>
<!-- Node24&#45;&gt;Node25 -->
<g id="edge26" class="edge">
<title>Node24&#45;&gt;Node25</title>
<path fill="none" stroke="midnightblue" d="M769.73,-429.05C786.48,-433.92 806.08,-439.31 824,-443.5 880.08,-456.6 944.74,-468.25 990.58,-475.94"/>
<polygon fill="midnightblue" stroke="midnightblue" points="770.29,-425.57 759.71,-426.11 768.32,-432.29 770.29,-425.57"/>
</g>
<!-- Node26 -->
<g id="node26" class="node">
<title>Node26</title>
<g id="a_node26"><a xlink:href="classFE__Q__Hierarchical.html" target="_top" xlink:title=" ">
<polygon fill="white" stroke="black" points="999,-426.5 999,-456.5 1104,-456.5 1104,-426.5 999,-426.5"/>
<text text-anchor="start" x="1007" y="-444.5" font-family="Helvetica,sans-Serif" font-size="10.00">FE_Q_Hierarchical&lt;</text>
<text text-anchor="middle" x="1051.5" y="-433.5" font-family="Helvetica,sans-Serif" font-size="10.00"> dim &gt;</text>
</a>
</g>
</g>
<!-- Node24&#45;&gt;Node26 -->
<g id="edge27" class="edge">
<title>Node24&#45;&gt;Node26</title>
<path fill="none" stroke="midnightblue" d="M805.76,-422.5C865.55,-427.14 946.69,-433.44 998.83,-437.49"/>
<polygon fill="midnightblue" stroke="midnightblue" points="805.85,-419 795.61,-421.71 805.31,-425.97 805.85,-419"/>
</g>
<!-- Node27 -->
<g id="node27" class="node">
<title>Node27</title>
<g id="a_node27"><a xlink:href="classFE__RannacherTurek.html" target="_top" xlink:title=" ">
<polygon fill="white" stroke="black" points="995,-377.5 995,-407.5 1108,-407.5 1108,-377.5 995,-377.5"/>
<text text-anchor="start" x="1003" y="-395.5" font-family="Helvetica,sans-Serif" font-size="10.00">FE_RannacherTurek&lt;</text>
<text text-anchor="middle" x="1051.5" y="-384.5" font-family="Helvetica,sans-Serif" font-size="10.00"> dim &gt;</text>
</a>
</g>
</g>
<!-- Node24&#45;&gt;Node27 -->
<g id="edge28" class="edge">
<title>Node24&#45;&gt;Node27</title>
<path fill="none" stroke="midnightblue" d="M805.89,-410.73C864.22,-406.38 942.81,-400.53 994.99,-396.64"/>
<polygon fill="midnightblue" stroke="midnightblue" points="805.32,-407.26 795.61,-411.5 805.84,-414.24 805.32,-407.26"/>
</g>
<!-- Node28 -->
<g id="node28" class="node">
<title>Node28</title>
<g id="a_node28"><a xlink:href="classFE__Poly.html" target="_top" xlink:title=" ">
<polygon fill="white" stroke="black" points="996.5,-339 996.5,-358 1106.5,-358 1106.5,-339 996.5,-339"/>
<text text-anchor="middle" x="1051.5" y="-346" font-family="Helvetica,sans-Serif" font-size="10.00">FE_Poly&lt; dim, dim &gt;</text>
</a>
</g>
</g>
<!-- Node24&#45;&gt;Node28 -->
<g id="edge30" class="edge">
<title>Node24&#45;&gt;Node28</title>
<path fill="none" stroke="orange" stroke-dasharray="5,2" d="M764.47,-403.39C782.21,-397.3 804.03,-390.34 824,-385.5 882.28,-371.37 950.31,-361.06 996.5,-354.97"/>
<polygon fill="orange" stroke="orange" points="762.83,-400.26 754.54,-406.86 765.13,-406.87 762.83,-400.26"/>
<text text-anchor="middle" x="888.5" y="-388.5" font-family="Helvetica,sans-Serif" font-size="10.00"> &lt; dim, dim &gt;</text>
</g>
<!-- Node29 -->
<g id="node29" class="node">
<title>Node29</title>
<g id="a_node29"><a xlink:href="classFE__DGP.html" target="_top" xlink:title=" ">
<polygon fill="white" stroke="black" points="1179.5,-453 1179.5,-472 1317.5,-472 1317.5,-453 1179.5,-453"/>
<text text-anchor="middle" x="1248.5" y="-460" font-family="Helvetica,sans-Serif" font-size="10.00">FE_DGP&lt; dim, spacedim &gt;</text>
</a>
</g>
</g>
<!-- Node28&#45;&gt;Node29 -->
<g id="edge31" class="edge">
<title>Node28&#45;&gt;Node29</title>
<path fill="none" stroke="midnightblue" d="M1116.43,-358.27C1122.02,-360.71 1127.32,-363.75 1132,-367.5 1161.3,-391.01 1139.73,-419.95 1169,-443.5 1173.81,-447.37 1179.28,-450.47 1185.05,-452.95"/>
<polygon fill="midnightblue" stroke="midnightblue" points="1117.39,-354.89 1106.8,-354.68 1114.95,-361.45 1117.39,-354.89"/>
</g>
<!-- Node30 -->
<g id="node30" class="node">
<title>Node30</title>
<g id="a_node30"><a xlink:href="classFE__DGQ.html" target="_top" xlink:title=" ">
<polygon fill="white" stroke="black" points="1179,-415 1179,-434 1318,-434 1318,-415 1179,-415"/>
<text text-anchor="middle" x="1248.5" y="-422" font-family="Helvetica,sans-Serif" font-size="10.00">FE_DGQ&lt; dim, spacedim &gt;</text>
</a>
</g>
</g>
<!-- Node28&#45;&gt;Node30 -->
<g id="edge32" class="edge">
<title>Node28&#45;&gt;Node30</title>
<path fill="none" stroke="midnightblue" d="M1116.5,-360.36C1121.9,-362.38 1127.14,-364.74 1132,-367.5 1152.5,-379.14 1148.52,-393.83 1169,-405.5 1175.82,-409.39 1183.42,-412.49 1191.12,-414.95"/>
<polygon fill="midnightblue" stroke="midnightblue" points="1117.26,-356.93 1106.67,-357.08 1115.05,-363.57 1117.26,-356.93"/>
</g>
<!-- Node35 -->
<g id="node32" class="node">
<title>Node35</title>
<g id="a_node32"><a xlink:href="classFE__Pyramid.html" target="_top" xlink:title=" ">
<polygon fill="white" stroke="black" points="1172.5,-377 1172.5,-396 1324.5,-396 1324.5,-377 1172.5,-377"/>
<text text-anchor="middle" x="1248.5" y="-384" font-family="Helvetica,sans-Serif" font-size="10.00">FE_Pyramid&lt; dim, spacedim &gt;</text>
</a>
</g>
</g>
<!-- Node28&#45;&gt;Node35 -->
<g id="edge34" class="edge">
<title>Node28&#45;&gt;Node35</title>
<path fill="none" stroke="midnightblue" d="M1111.46,-359.99C1139.28,-365.41 1172.1,-371.81 1198.52,-376.96"/>
<polygon fill="midnightblue" stroke="midnightblue" points="1111.94,-356.52 1101.46,-358.04 1110.6,-363.39 1111.94,-356.52"/>
</g>
<!-- Node39 -->
<g id="node34" class="node">
<title>Node39</title>
<g id="a_node34"><a xlink:href="classFE__Q__Base.html" target="_top" xlink:title=" ">
<polygon fill="white" stroke="black" points="1172.5,-339 1172.5,-358 1324.5,-358 1324.5,-339 1172.5,-339"/>
<text text-anchor="middle" x="1248.5" y="-346" font-family="Helvetica,sans-Serif" font-size="10.00">FE_Q_Base&lt; dim, spacedim &gt;</text>
</a>
</g>
</g>
<!-- Node28&#45;&gt;Node39 -->
<g id="edge36" class="edge">
<title>Node28&#45;&gt;Node39</title>
<path fill="none" stroke="midnightblue" d="M1116.78,-348.5C1134.5,-348.5 1153.88,-348.5 1172.16,-348.5"/>
<polygon fill="midnightblue" stroke="midnightblue" points="1116.56,-345 1106.56,-348.5 1116.56,-352 1116.56,-345"/>
</g>
<!-- Node47 -->
<g id="node37" class="node">
<title>Node47</title>
<g id="a_node37"><a xlink:href="classFE__SimplexP__Bubbles.html" target="_top" xlink:title="Enriched version of FE_P that can be used with nodal quadrature.">
<polygon fill="white" stroke="black" points="1190,-289.5 1190,-319.5 1307,-319.5 1307,-289.5 1190,-289.5"/>
<text text-anchor="start" x="1198" y="-307.5" font-family="Helvetica,sans-Serif" font-size="10.00">FE_SimplexP_Bubbles</text>
<text text-anchor="middle" x="1248.5" y="-296.5" font-family="Helvetica,sans-Serif" font-size="10.00">&lt; dim, spacedim &gt;</text>
</a>
</g>
</g>
<!-- Node28&#45;&gt;Node47 -->
<g id="edge39" class="edge">
<title>Node28&#45;&gt;Node47</title>
<path fill="none" stroke="midnightblue" d="M1104.57,-336.75C1130.82,-330.83 1162.73,-323.63 1189.74,-317.53"/>
<polygon fill="midnightblue" stroke="midnightblue" points="1103.8,-333.34 1094.81,-338.95 1105.34,-340.17 1103.8,-333.34"/>
</g>
<!-- Node48 -->
<g id="node38" class="node">
<title>Node48</title>
<g id="a_node38"><a xlink:href="classFE__SimplexPoly.html" target="_top" xlink:title=" ">
<polygon fill="white" stroke="red" points="1190,-240.5 1190,-270.5 1307,-270.5 1307,-240.5 1190,-240.5"/>
<text text-anchor="start" x="1198" y="-258.5" font-family="Helvetica,sans-Serif" font-size="10.00">FE_SimplexPoly&lt; dim,</text>
<text text-anchor="middle" x="1248.5" y="-247.5" font-family="Helvetica,sans-Serif" font-size="10.00"> spacedim &gt;</text>
</a>
</g>
</g>
<!-- Node28&#45;&gt;Node48 -->
<g id="edge40" class="edge">
<title>Node28&#45;&gt;Node48</title>
<path fill="none" stroke="midnightblue" d="M1116.27,-337.6C1121.81,-335.38 1127.15,-332.71 1132,-329.5 1155.06,-314.25 1146.42,-295.45 1169,-279.5 1175.28,-275.06 1182.41,-271.42 1189.74,-268.45"/>
<polygon fill="midnightblue" stroke="midnightblue" points="1115.07,-334.31 1106.79,-340.92 1117.39,-340.91 1115.07,-334.31"/>
</g>
<!-- Node52 -->
<g id="node39" class="node">
<title>Node52</title>
<g id="a_node39"><a xlink:href="classFE__Wedge.html" target="_top" xlink:title=" ">
<polygon fill="white" stroke="red" points="1175.5,-202 1175.5,-221 1321.5,-221 1321.5,-202 1175.5,-202"/>
<text text-anchor="middle" x="1248.5" y="-209" font-family="Helvetica,sans-Serif" font-size="10.00">FE_Wedge&lt; dim, spacedim &gt;</text>
</a>
</g>
</g>
<!-- Node28&#45;&gt;Node52 -->
<g id="edge41" class="edge">
<title>Node28&#45;&gt;Node52</title>
<path fill="none" stroke="midnightblue" d="M1116.56,-339.31C1122.17,-336.75 1127.44,-333.53 1132,-329.5 1167.19,-298.39 1133.85,-261.66 1169,-230.5 1173.3,-226.69 1178.24,-223.61 1183.5,-221.12"/>
<polygon fill="midnightblue" stroke="midnightblue" points="1114.95,-336.17 1106.87,-343.02 1117.46,-342.71 1114.95,-336.17"/>
</g>
<!-- Node31 -->
<g id="node31" class="node">
<title>Node31</title>
<g id="a_node31"><a xlink:href="classFE__DGQ.html" target="_top" xlink:title=" ">
<polygon fill="white" stroke="red" points="1429.5,-415 1429.5,-434 1542.5,-434 1542.5,-415 1429.5,-415"/>
<text text-anchor="middle" x="1486" y="-422" font-family="Helvetica,sans-Serif" font-size="10.00">FE_DGQ&lt; dim, dim &gt;</text>
</a>
</g>
</g>
<!-- Node30&#45;&gt;Node31 -->
<g id="edge33" class="edge">
<title>Node30&#45;&gt;Node31</title>
<path fill="none" stroke="orange" stroke-dasharray="5,2" d="M1328.35,-424.5C1361.43,-424.5 1399.11,-424.5 1429.23,-424.5"/>
<polygon fill="orange" stroke="orange" points="1328.25,-421 1318.25,-424.5 1328.25,-428 1328.25,-421"/>
<text text-anchor="middle" x="1375.5" y="-427.5" font-family="Helvetica,sans-Serif" font-size="10.00"> &lt; dim, dim &gt;</text>
</g>
<!-- Node36 -->
<g id="node33" class="node">
<title>Node36</title>
<g id="a_node33"><a xlink:href="classFE__Pyramid.html" target="_top" xlink:title=" ">
<polygon fill="white" stroke="red" points="1423,-377 1423,-396 1549,-396 1549,-377 1423,-377"/>
<text text-anchor="middle" x="1486" y="-384" font-family="Helvetica,sans-Serif" font-size="10.00">FE_Pyramid&lt; dim, dim &gt;</text>
</a>
</g>
</g>
<!-- Node35&#45;&gt;Node36 -->
<g id="edge35" class="edge">
<title>Node35&#45;&gt;Node36</title>
<path fill="none" stroke="orange" stroke-dasharray="5,2" d="M1334.82,-386.5C1363.9,-386.5 1395.84,-386.5 1422.77,-386.5"/>
<polygon fill="orange" stroke="orange" points="1334.66,-383 1324.66,-386.5 1334.66,-390 1334.66,-383"/>
<text text-anchor="middle" x="1375.5" y="-389.5" font-family="Helvetica,sans-Serif" font-size="10.00"> &lt; dim, dim &gt;</text>
</g>
<!-- Node40 -->
<g id="node35" class="node">
<title>Node40</title>
<g id="a_node35"><a xlink:href="classFE__Q.html" target="_top" xlink:title=" ">
<polygon fill="white" stroke="red" points="1437,-339 1437,-358 1535,-358 1535,-339 1437,-339"/>
<text text-anchor="middle" x="1486" y="-346" font-family="Helvetica,sans-Serif" font-size="10.00">FE_Q&lt; dim, dim &gt;</text>
</a>
</g>
</g>
<!-- Node39&#45;&gt;Node40 -->
<g id="edge37" class="edge">
<title>Node39&#45;&gt;Node40</title>
<path fill="none" stroke="midnightblue" d="M1334.71,-348.5C1369.07,-348.5 1407.45,-348.5 1436.83,-348.5"/>
<polygon fill="midnightblue" stroke="midnightblue" points="1334.66,-345 1324.66,-348.5 1334.66,-352 1334.66,-345"/>
</g>
<!-- Node41 -->
<g id="node36" class="node">
<title>Node41</title>
<g id="a_node36"><a xlink:href="classFE__Q__Base.html" target="_top" xlink:title=" ">
<polygon fill="white" stroke="red" points="1423.5,-301 1423.5,-320 1548.5,-320 1548.5,-301 1423.5,-301"/>
<text text-anchor="middle" x="1486" y="-308" font-family="Helvetica,sans-Serif" font-size="10.00">FE_Q_Base&lt; dim, dim &gt;</text>
</a>
</g>
</g>
<!-- Node39&#45;&gt;Node41 -->
<g id="edge38" class="edge">
<title>Node39&#45;&gt;Node41</title>
<path fill="none" stroke="orange" stroke-dasharray="5,2" d="M1318.5,-337.37C1352.56,-331.87 1393.23,-325.31 1425.85,-320.04"/>
<polygon fill="orange" stroke="orange" points="1317.94,-333.91 1308.62,-338.96 1319.05,-340.82 1317.94,-333.91"/>
<text text-anchor="middle" x="1375.5" y="-336.5" font-family="Helvetica,sans-Serif" font-size="10.00"> &lt; dim, dim &gt;</text>
</g>
<!-- Node56&#45;&gt;Node56 -->
<g id="edge50" class="edge">
<title>Node56&#45;&gt;Node56</title>
<path fill="none" stroke="orange" stroke-dasharray="5,2" d="M710.44,-209.96C712.56,-214.68 718.25,-218 727.5,-218 742.69,-218 748.26,-209.06 744.23,-199.66"/>
<polygon fill="orange" stroke="orange" points="713.95,-209.77 710.77,-199.66 706.95,-209.54 713.95,-209.77"/>
<text text-anchor="middle" x="727.5" y="-221" font-family="Helvetica,sans-Serif" font-size="10.00"> &lt; dim, spacedim &gt;</text>
</g>
<!-- Node57 -->
<g id="node41" class="node">
<title>Node57</title>
<g id="a_node41"><a xlink:href="classFE__ABF.html" target="_top" xlink:title=" ">
<polygon fill="white" stroke="black" points="1007.5,-301 1007.5,-320 1095.5,-320 1095.5,-301 1007.5,-301"/>
<text text-anchor="middle" x="1051.5" y="-308" font-family="Helvetica,sans-Serif" font-size="10.00">FE_ABF&lt; dim &gt;</text>
</a>
</g>
</g>
<!-- Node56&#45;&gt;Node57 -->
<g id="edge43" class="edge">
<title>Node56&#45;&gt;Node57</title>
<path fill="none" stroke="midnightblue" d="M753.48,-206.12C771.88,-221.05 798.12,-240.35 824,-252.5 884.26,-280.8 960.27,-296.64 1007.11,-304.38"/>
<polygon fill="midnightblue" stroke="midnightblue" points="755.54,-203.28 745.6,-199.6 751.08,-208.67 755.54,-203.28"/>
</g>
<!-- Node58 -->
<g id="node42" class="node">
<title>Node58</title>
<g id="a_node42"><a xlink:href="classFE__BDM.html" target="_top" xlink:title=" ">
<polygon fill="white" stroke="black" points="1006,-263 1006,-282 1097,-282 1097,-263 1006,-263"/>
<text text-anchor="middle" x="1051.5" y="-270" font-family="Helvetica,sans-Serif" font-size="10.00">FE_BDM&lt; dim &gt;</text>
</a>
</g>
</g>
<!-- Node56&#45;&gt;Node58 -->
<g id="edge44" class="edge">
<title>Node56&#45;&gt;Node58</title>
<path fill="none" stroke="midnightblue" d="M773.42,-203.48C789.23,-209.74 807.24,-216.4 824,-221.5 886.08,-240.4 959.66,-255.7 1005.72,-264.45"/>
<polygon fill="midnightblue" stroke="midnightblue" points="774.47,-200.13 763.89,-199.65 771.86,-206.63 774.47,-200.13"/>
</g>
<!-- Node59 -->
<g id="node43" class="node">
<title>Node59</title>
<g id="a_node43"><a xlink:href="classFE__BernardiRaugel.html" target="_top" xlink:title=" ">
<polygon fill="white" stroke="black" points="998,-213.5 998,-243.5 1105,-243.5 1105,-213.5 998,-213.5"/>
<text text-anchor="start" x="1006" y="-231.5" font-family="Helvetica,sans-Serif" font-size="10.00">FE_BernardiRaugel&lt;</text>
<text text-anchor="middle" x="1051.5" y="-220.5" font-family="Helvetica,sans-Serif" font-size="10.00"> dim &gt;</text>
</a>
</g>
</g>
<!-- Node56&#45;&gt;Node59 -->
<g id="edge45" class="edge">
<title>Node56&#45;&gt;Node59</title>
<path fill="none" stroke="midnightblue" d="M793.21,-194.11C803.51,-195.6 814.04,-197.11 824,-198.5 883.52,-206.8 951.92,-215.79 997.84,-221.74"/>
<polygon fill="midnightblue" stroke="midnightblue" points="793.42,-190.6 783.02,-192.63 792.41,-197.53 793.42,-190.6"/>
</g>
<!-- Node60 -->
<g id="node44" class="node">
<title>Node60</title>
<g id="a_node44"><a xlink:href="classFE__Nedelec.html" target="_top" xlink:title=" ">
<polygon fill="white" stroke="black" points="999.5,-175 999.5,-194 1103.5,-194 1103.5,-175 999.5,-175"/>
<text text-anchor="middle" x="1051.5" y="-182" font-family="Helvetica,sans-Serif" font-size="10.00">FE_Nedelec&lt; dim &gt;</text>
</a>
</g>
</g>
<!-- Node56&#45;&gt;Node60 -->
<g id="edge46" class="edge">
<title>Node56&#45;&gt;Node60</title>
<path fill="none" stroke="midnightblue" d="M793.36,-184.5C854.06,-184.5 943.52,-184.5 999.34,-184.5"/>
<polygon fill="midnightblue" stroke="midnightblue" points="793.12,-181 783.12,-184.5 793.12,-188 793.12,-181"/>
</g>
<!-- Node61 -->
<g id="node45" class="node">
<title>Node61</title>
<g id="a_node45"><a xlink:href="classFE__RT__Bubbles.html" target="_top" xlink:title=" ">
<polygon fill="white" stroke="black" points="990.5,-137 990.5,-156 1112.5,-156 1112.5,-137 990.5,-137"/>
<text text-anchor="middle" x="1051.5" y="-144" font-family="Helvetica,sans-Serif" font-size="10.00">FE_RT_Bubbles&lt; dim &gt;</text>
</a>
</g>
</g>
<!-- Node56&#45;&gt;Node61 -->
<g id="edge47" class="edge">
<title>Node56&#45;&gt;Node61</title>
<path fill="none" stroke="midnightblue" d="M793.2,-176.86C850.76,-170.07 934.28,-160.22 990.4,-153.59"/>
<polygon fill="midnightblue" stroke="midnightblue" points="792.64,-173.41 783.12,-178.05 793.46,-180.36 792.64,-173.41"/>
</g>
<!-- Node62 -->
<g id="node46" class="node">
<title>Node62</title>
<g id="a_node46"><a xlink:href="classFE__RaviartThomas.html" target="_top" xlink:title=" ">
<polygon fill="white" stroke="black" points="984,-99 984,-118 1119,-118 1119,-99 984,-99"/>
<text text-anchor="middle" x="1051.5" y="-106" font-family="Helvetica,sans-Serif" font-size="10.00">FE_RaviartThomas&lt; dim &gt;</text>
</a>
</g>
</g>
<!-- Node56&#45;&gt;Node62 -->
<g id="edge48" class="edge">
<title>Node56&#45;&gt;Node62</title>
<path fill="none" stroke="midnightblue" d="M784.57,-166.55C797.46,-162.68 811.16,-158.78 824,-155.5 882.96,-140.46 951.46,-126.76 997.56,-118.08"/>
<polygon fill="midnightblue" stroke="midnightblue" points="783.44,-163.24 774.89,-169.49 785.48,-169.93 783.44,-163.24"/>
</g>
<!-- Node63 -->
<g id="node47" class="node">
<title>Node63</title>
<g id="a_node47"><a xlink:href="classFE__RaviartThomasNodal.html" target="_top" xlink:title=" ">
<polygon fill="white" stroke="black" points="988,-49.5 988,-79.5 1115,-79.5 1115,-49.5 988,-49.5"/>
<text text-anchor="start" x="996" y="-67.5" font-family="Helvetica,sans-Serif" font-size="10.00">FE_RaviartThomasNodal</text>
<text text-anchor="middle" x="1051.5" y="-56.5" font-family="Helvetica,sans-Serif" font-size="10.00">&lt; dim &gt;</text>
</a>
</g>
</g>
<!-- Node56&#45;&gt;Node63 -->
<g id="edge49" class="edge">
<title>Node56&#45;&gt;Node63</title>
<path fill="none" stroke="midnightblue" d="M756.41,-163.35C774.78,-150.28 799.83,-134.05 824,-123.5 877.07,-100.33 941.24,-84.68 987.71,-75.35"/>
<polygon fill="midnightblue" stroke="midnightblue" points="754,-160.77 747.96,-169.47 758.11,-166.44 754,-160.77"/>
</g>
<!-- Node64 -->
<g id="node48" class="node">
<title>Node64</title>
<g id="a_node48"><a xlink:href="classFE__PolyTensor.html" target="_top" xlink:title=" ">
<polygon fill="white" stroke="black" points="996,-0.5 996,-30.5 1107,-30.5 1107,-0.5 996,-0.5"/>
<text text-anchor="start" x="1004" y="-18.5" font-family="Helvetica,sans-Serif" font-size="10.00">FE_PolyTensor&lt; dim,</text>
<text text-anchor="middle" x="1051.5" y="-7.5" font-family="Helvetica,sans-Serif" font-size="10.00"> dim &gt;</text>
</a>
</g>
</g>
<!-- Node56&#45;&gt;Node64 -->
<g id="edge51" class="edge">
<title>Node56&#45;&gt;Node64</title>
<path fill="none" stroke="orange" stroke-dasharray="5,2" d="M741.61,-160.66C757.53,-133.99 786.94,-91.53 824,-68.5 876.66,-35.78 947.6,-23.25 995.97,-18.45"/>
<polygon fill="orange" stroke="orange" points="738.54,-158.97 736.54,-169.37 744.59,-162.48 738.54,-158.97"/>
<text text-anchor="middle" x="888.5" y="-71.5" font-family="Helvetica,sans-Serif" font-size="10.00"> &lt; dim, dim &gt;</text>
</g>
<!-- Node65 -->
<g id="node49" class="node">
<title>Node65</title>
<g id="a_node49"><a xlink:href="classFE__DGVector.html" target="_top" xlink:title=" ">
<polygon fill="white" stroke="red" points="1169,-0.5 1169,-30.5 1328,-30.5 1328,-0.5 1169,-0.5"/>
<text text-anchor="start" x="1177" y="-18.5" font-family="Helvetica,sans-Serif" font-size="10.00">FE_DGVector&lt; PolynomialType,</text>
<text text-anchor="middle" x="1248.5" y="-7.5" font-family="Helvetica,sans-Serif" font-size="10.00"> dim, spacedim &gt;</text>
</a>
</g>
</g>
<!-- Node64&#45;&gt;Node65 -->
<g id="edge52" class="edge">
<title>Node64&#45;&gt;Node65</title>
<path fill="none" stroke="midnightblue" d="M1117.18,-15.5C1133.73,-15.5 1151.71,-15.5 1168.88,-15.5"/>
<polygon fill="midnightblue" stroke="midnightblue" points="1117.08,-12 1107.08,-15.5 1117.08,-19 1117.08,-12"/>
</g>
</g>
</svg>
