<?xml version="1.0" encoding="UTF-8" standalone="no"?>
<!DOCTYPE svg PUBLIC "-//W3C//DTD SVG 1.1//EN"
 "http://www.w3.org/Graphics/SVG/1.1/DTD/svg11.dtd">
<!-- Generated by graphviz version 2.47.1 (20210417.1919)
 -->
<!-- Title: QWitherdenVincentSimplex&lt; dim &gt; Pages: 1 -->
<svg width="145pt" height="207pt"
 viewBox="0.00 0.00 145.00 207.00" xmlns="http://www.w3.org/2000/svg" xmlns:xlink="http://www.w3.org/1999/xlink">
<g id="graph0" class="graph" transform="scale(1 1) rotate(0) translate(4 203)">
<title>QWitherdenVincentSimplex&lt; dim &gt;</title>
<polygon fill="white" stroke="transparent" points="-4,4 -4,-203 141,-203 141,4 -4,4"/>
<!-- Node1 -->
<g id="node1" class="node">
<title>Node1</title>
<g id="a_node1"><a xlink:title=" ">
<polygon fill="#bfbfbf" stroke="black" points="0,-0.5 0,-30.5 137,-30.5 137,-0.5 0,-0.5"/>
<text text-anchor="start" x="8" y="-18.5" font-family="Helvetica,sans-Serif" font-size="10.00">QWitherdenVincentSimplex</text>
<text text-anchor="middle" x="68.5" y="-7.5" font-family="Helvetica,sans-Serif" font-size="10.00">&lt; dim &gt;</text>
</a>
</g>
</g>
<!-- Node2 -->
<g id="node2" class="node">
<title>Node2</title>
<g id="a_node2"><a xlink:href="classQSimplex.html" target="_top" xlink:title=" ">
<polygon fill="white" stroke="black" points="22,-67.5 22,-86.5 115,-86.5 115,-67.5 22,-67.5"/>
<text text-anchor="middle" x="68.5" y="-74.5" font-family="Helvetica,sans-Serif" font-size="10.00">QSimplex&lt; dim &gt;</text>
</a>
</g>
</g>
<!-- Node2&#45;&gt;Node1 -->
<g id="edge1" class="edge">
<title>Node2&#45;&gt;Node1</title>
<path fill="none" stroke="midnightblue" d="M68.5,-57.23C68.5,-48.59 68.5,-38.5 68.5,-30.52"/>
<polygon fill="midnightblue" stroke="midnightblue" points="65,-57.48 68.5,-67.48 72,-57.48 65,-57.48"/>
</g>
<!-- Node3 -->
<g id="node3" class="node">
<title>Node3</title>
<g id="a_node3"><a xlink:href="classQuadrature.html" target="_top" xlink:title=" ">
<polygon fill="white" stroke="black" points="19.5,-123.5 19.5,-142.5 117.5,-142.5 117.5,-123.5 19.5,-123.5"/>
<text text-anchor="middle" x="68.5" y="-130.5" font-family="Helvetica,sans-Serif" font-size="10.00">Quadrature&lt; dim &gt;</text>
</a>
</g>
</g>
<!-- Node3&#45;&gt;Node2 -->
<g id="edge2" class="edge">
<title>Node3&#45;&gt;Node2</title>
<path fill="none" stroke="midnightblue" d="M68.5,-112.8C68.5,-103.91 68.5,-93.78 68.5,-86.75"/>
<polygon fill="midnightblue" stroke="midnightblue" points="65,-113.08 68.5,-123.08 72,-113.08 65,-113.08"/>
</g>
<!-- Node4 -->
<g id="node4" class="node">
<title>Node4</title>
<g id="a_node4"><a xlink:href="classSubscriptor.html" target="_top" xlink:title=" ">
<polygon fill="white" stroke="black" points="35.5,-179.5 35.5,-198.5 101.5,-198.5 101.5,-179.5 35.5,-179.5"/>
<text text-anchor="middle" x="68.5" y="-186.5" font-family="Helvetica,sans-Serif" font-size="10.00">Subscriptor</text>
</a>
</g>
</g>
<!-- Node4&#45;&gt;Node3 -->
<g id="edge3" class="edge">
<title>Node4&#45;&gt;Node3</title>
<path fill="none" stroke="midnightblue" d="M68.5,-168.8C68.5,-159.91 68.5,-149.78 68.5,-142.75"/>
<polygon fill="midnightblue" stroke="midnightblue" points="65,-169.08 68.5,-179.08 72,-169.08 65,-169.08"/>
</g>
</g>
</svg>
