<?xml version="1.0" encoding="UTF-8" standalone="no"?>
<!DOCTYPE svg PUBLIC "-//W3C//DTD SVG 1.1//EN"
 "http://www.w3.org/Graphics/SVG/1.1/DTD/svg11.dtd">
<!-- Generated by graphviz version 2.47.1 (20210417.1919)
 -->
<!-- Title: parallel::distributed::Triangulation&lt; 1, spacedim &gt; Pages: 1 -->
<svg width="1251pt" height="100pt"
 viewBox="0.00 0.00 1251.00 100.00" xmlns="http://www.w3.org/2000/svg" xmlns:xlink="http://www.w3.org/1999/xlink">
<g id="graph0" class="graph" transform="scale(1 1) rotate(0) translate(4 96)">
<title>parallel::distributed::Triangulation&lt; 1, spacedim &gt;</title>
<polygon fill="white" stroke="transparent" points="-4,4 -4,-96 1247,-96 1247,4 -4,4"/>
<!-- Node1 -->
<g id="node1" class="node">
<title>Node1</title>
<g id="a_node1"><a xlink:title=" ">
<polygon fill="#bfbfbf" stroke="black" points="1094,-25.5 1094,-55.5 1243,-55.5 1243,-25.5 1094,-25.5"/>
<text text-anchor="start" x="1102" y="-43.5" font-family="Helvetica,sans-Serif" font-size="10.00">parallel::distributed</text>
<text text-anchor="middle" x="1168.5" y="-32.5" font-family="Helvetica,sans-Serif" font-size="10.00">::Triangulation&lt; 1, spacedim &gt;</text>
</a>
</g>
</g>
<!-- Node2 -->
<g id="node2" class="node">
<title>Node2</title>
<g id="a_node2"><a xlink:href="classparallel_1_1DistributedTriangulationBase.html" target="_top" xlink:title=" ">
<polygon fill="white" stroke="black" points="901,-25.5 901,-55.5 1057,-55.5 1057,-25.5 901,-25.5"/>
<text text-anchor="start" x="909" y="-43.5" font-family="Helvetica,sans-Serif" font-size="10.00">parallel::DistributedTriangulation</text>
<text text-anchor="middle" x="979" y="-32.5" font-family="Helvetica,sans-Serif" font-size="10.00">Base&lt; 1, spacedim &gt;</text>
</a>
</g>
</g>
<!-- Node2&#45;&gt;Node1 -->
<g id="edge1" class="edge">
<title>Node2&#45;&gt;Node1</title>
<path fill="none" stroke="midnightblue" d="M1067.09,-40.5C1076,-40.5 1084.99,-40.5 1093.74,-40.5"/>
<polygon fill="midnightblue" stroke="midnightblue" points="1067.08,-37 1057.08,-40.5 1067.08,-44 1067.08,-37"/>
</g>
<!-- Node3 -->
<g id="node3" class="node">
<title>Node3</title>
<g id="a_node3"><a xlink:href="classparallel_1_1TriangulationBase.html" target="_top" xlink:title=" ">
<polygon fill="white" stroke="black" points="240,-32.5 240,-62.5 371,-62.5 371,-32.5 240,-32.5"/>
<text text-anchor="start" x="248" y="-50.5" font-family="Helvetica,sans-Serif" font-size="10.00">parallel::TriangulationBase</text>
<text text-anchor="middle" x="305.5" y="-39.5" font-family="Helvetica,sans-Serif" font-size="10.00">&lt; dim, spacedim &gt;</text>
</a>
</g>
</g>
<!-- Node3&#45;&gt;Node2 -->
<g id="edge2" class="edge">
<title>Node3&#45;&gt;Node2</title>
<path fill="none" stroke="midnightblue" d="M381.37,-48.45C383.94,-48.47 386.49,-48.48 389,-48.5 415.22,-48.66 421.78,-48.53 448,-48.5 641.33,-48.28 689.81,-54.83 883,-47.5 888.78,-47.28 894.76,-46.99 900.77,-46.65"/>
<polygon fill="midnightblue" stroke="midnightblue" points="381.38,-44.95 371.35,-48.36 381.32,-51.95 381.38,-44.95"/>
</g>
<!-- Node3&#45;&gt;Node3 -->
<g id="edge6" class="edge">
<title>Node3&#45;&gt;Node3</title>
<path fill="none" stroke="orange" stroke-dasharray="5,2" d="M290.57,-72.96C292.43,-77.68 297.4,-81 305.5,-81 318.79,-81 323.67,-72.06 320.14,-62.66"/>
<polygon fill="orange" stroke="orange" points="294.08,-72.75 290.86,-62.66 287.08,-72.56 294.08,-72.75"/>
<text text-anchor="middle" x="305.5" y="-84" font-family="Helvetica,sans-Serif" font-size="10.00"> &lt; dim, spacedim &gt;</text>
</g>
<!-- Node7 -->
<g id="node7" class="node">
<title>Node7</title>
<g id="a_node7"><a xlink:href="classparallel_1_1TriangulationBase.html" target="_top" xlink:title=" ">
<polygon fill="white" stroke="black" points="466,-3.5 466,-33.5 597,-33.5 597,-3.5 466,-3.5"/>
<text text-anchor="start" x="474" y="-21.5" font-family="Helvetica,sans-Serif" font-size="10.00">parallel::TriangulationBase</text>
<text text-anchor="middle" x="531.5" y="-10.5" font-family="Helvetica,sans-Serif" font-size="10.00">&lt; dim, dim &gt;</text>
</a>
</g>
</g>
<!-- Node3&#45;&gt;Node7 -->
<g id="edge10" class="edge">
<title>Node3&#45;&gt;Node7</title>
<path fill="none" stroke="orange" stroke-dasharray="5,2" d="M381.22,-37.83C408.63,-34.28 439.4,-30.29 465.86,-26.87"/>
<polygon fill="orange" stroke="orange" points="380.76,-34.36 371.29,-39.11 381.66,-41.3 380.76,-34.36"/>
<text text-anchor="middle" x="418.5" y="-39.5" font-family="Helvetica,sans-Serif" font-size="10.00"> &lt; dim, dim &gt;</text>
</g>
<!-- Node4 -->
<g id="node4" class="node">
<title>Node4</title>
<g id="a_node4"><a xlink:href="classTriangulation.html" target="_top" xlink:title=" ">
<polygon fill="white" stroke="black" points="103,-0.5 103,-30.5 203,-30.5 203,-0.5 103,-0.5"/>
<text text-anchor="start" x="111" y="-18.5" font-family="Helvetica,sans-Serif" font-size="10.00">Triangulation&lt; dim,</text>
<text text-anchor="middle" x="153" y="-7.5" font-family="Helvetica,sans-Serif" font-size="10.00"> spacedim &gt;</text>
</a>
</g>
</g>
<!-- Node4&#45;&gt;Node3 -->
<g id="edge3" class="edge">
<title>Node4&#45;&gt;Node3</title>
<path fill="none" stroke="midnightblue" d="M213.31,-28.11C222,-29.96 230.98,-31.87 239.77,-33.74"/>
<polygon fill="midnightblue" stroke="midnightblue" points="213.79,-24.63 203.28,-25.98 212.33,-31.48 213.79,-24.63"/>
</g>
<!-- Node4&#45;&gt;Node4 -->
<g id="edge5" class="edge">
<title>Node4&#45;&gt;Node4</title>
<path fill="none" stroke="orange" stroke-dasharray="5,2" d="M140.92,-40.96C142.42,-45.68 146.44,-49 153,-49 163.76,-49 167.71,-40.06 164.85,-30.66"/>
<polygon fill="orange" stroke="orange" points="144.42,-40.74 141.15,-30.66 137.42,-40.58 144.42,-40.74"/>
<text text-anchor="middle" x="153" y="-52" font-family="Helvetica,sans-Serif" font-size="10.00"> &lt; dim, spacedim &gt;</text>
</g>
<!-- Node4&#45;&gt;Node7 -->
<g id="edge9" class="edge">
<title>Node4&#45;&gt;Node7</title>
<path fill="none" stroke="midnightblue" d="M213.45,-15.97C282.18,-16.52 394.92,-17.42 465.81,-17.98"/>
<polygon fill="midnightblue" stroke="midnightblue" points="213.25,-12.47 203.22,-15.89 213.19,-19.47 213.25,-12.47"/>
</g>
<!-- Node5 -->
<g id="node5" class="node">
<title>Node5</title>
<g id="a_node5"><a xlink:href="classSubscriptor.html" target="_top" xlink:title=" ">
<polygon fill="white" stroke="black" points="0,-6 0,-25 66,-25 66,-6 0,-6"/>
<text text-anchor="middle" x="33" y="-13" font-family="Helvetica,sans-Serif" font-size="10.00">Subscriptor</text>
</a>
</g>
</g>
<!-- Node5&#45;&gt;Node4 -->
<g id="edge4" class="edge">
<title>Node5&#45;&gt;Node4</title>
<path fill="none" stroke="midnightblue" d="M76.43,-15.5C85.03,-15.5 94.15,-15.5 102.96,-15.5"/>
<polygon fill="midnightblue" stroke="midnightblue" points="76.24,-12 66.24,-15.5 76.24,-19 76.24,-12"/>
</g>
<!-- Node6 -->
<g id="node6" class="node">
<title>Node6</title>
<g id="a_node6"><a xlink:href="classparallel_1_1DistributedTriangulationBase.html" target="_top" xlink:title=" ">
<polygon fill="white" stroke="black" points="634,-3.5 634,-33.5 790,-33.5 790,-3.5 634,-3.5"/>
<text text-anchor="start" x="642" y="-21.5" font-family="Helvetica,sans-Serif" font-size="10.00">parallel::DistributedTriangulation</text>
<text text-anchor="middle" x="712" y="-10.5" font-family="Helvetica,sans-Serif" font-size="10.00">Base&lt; dim, spacedim &gt;</text>
</a>
</g>
</g>
<!-- Node6&#45;&gt;Node2 -->
<g id="edge7" class="edge">
<title>Node6&#45;&gt;Node2</title>
<path fill="none" stroke="orange" stroke-dasharray="5,2" d="M800.38,-25.75C832.81,-28.45 869.34,-31.48 900.8,-34.09"/>
<polygon fill="orange" stroke="orange" points="800.26,-22.23 790,-24.89 799.68,-29.21 800.26,-22.23"/>
<text text-anchor="middle" x="845.5" y="-35.5" font-family="Helvetica,sans-Serif" font-size="10.00"> &lt; 1, spacedim &gt;</text>
</g>
<!-- Node7&#45;&gt;Node6 -->
<g id="edge8" class="edge">
<title>Node7&#45;&gt;Node6</title>
<path fill="none" stroke="midnightblue" d="M607.34,-18.5C616.08,-18.5 625,-18.5 633.77,-18.5"/>
<polygon fill="midnightblue" stroke="midnightblue" points="607.2,-15 597.19,-18.5 607.19,-22 607.2,-15"/>
</g>
</g>
</svg>
