<?xml version="1.0" encoding="UTF-8" standalone="no"?>
<!DOCTYPE svg PUBLIC "-//W3C//DTD SVG 1.1//EN"
 "http://www.w3.org/Graphics/SVG/1.1/DTD/svg11.dtd">
<!-- Generated by graphviz version 2.47.1 (20210417.1919)
 -->
<!-- Title: OpenCASCADE::NormalToMeshProjectionManifold&lt; dim, spacedim &gt; Pages: 1 -->
<svg width="241pt" height="232pt"
 viewBox="0.00 0.00 240.50 232.00" xmlns="http://www.w3.org/2000/svg" xmlns:xlink="http://www.w3.org/1999/xlink">
<g id="graph0" class="graph" transform="scale(1 1) rotate(0) translate(4 228)">
<title>OpenCASCADE::NormalToMeshProjectionManifold&lt; dim, spacedim &gt;</title>
<polygon fill="white" stroke="transparent" points="-4,4 -4,-228 236.5,-228 236.5,4 -4,4"/>
<!-- Node1 -->
<g id="node1" class="node">
<title>Node1</title>
<g id="a_node1"><a xlink:title=" ">
<polygon fill="#bfbfbf" stroke="black" points="0,-0.5 0,-41.5 161,-41.5 161,-0.5 0,-0.5"/>
<text text-anchor="start" x="8" y="-29.5" font-family="Helvetica,sans-Serif" font-size="10.00">OpenCASCADE::NormalToMesh</text>
<text text-anchor="start" x="8" y="-18.5" font-family="Helvetica,sans-Serif" font-size="10.00">ProjectionManifold&lt; dim,</text>
<text text-anchor="middle" x="80.5" y="-7.5" font-family="Helvetica,sans-Serif" font-size="10.00"> spacedim &gt;</text>
</a>
</g>
</g>
<!-- Node2 -->
<g id="node2" class="node">
<title>Node2</title>
<g id="a_node2"><a xlink:href="classFlatManifold.html" target="_top" xlink:title=" ">
<polygon fill="white" stroke="black" points="31.5,-79.5 31.5,-109.5 129.5,-109.5 129.5,-79.5 31.5,-79.5"/>
<text text-anchor="start" x="39.5" y="-97.5" font-family="Helvetica,sans-Serif" font-size="10.00">FlatManifold&lt; dim,</text>
<text text-anchor="middle" x="80.5" y="-86.5" font-family="Helvetica,sans-Serif" font-size="10.00"> spacedim &gt;</text>
</a>
</g>
</g>
<!-- Node2&#45;&gt;Node1 -->
<g id="edge1" class="edge">
<title>Node2&#45;&gt;Node1</title>
<path fill="none" stroke="midnightblue" d="M80.5,-69.1C80.5,-60.1 80.5,-50.02 80.5,-41.51"/>
<polygon fill="midnightblue" stroke="midnightblue" points="77,-69.37 80.5,-79.37 84,-69.37 77,-69.37"/>
</g>
<!-- Node2&#45;&gt;Node2 -->
<g id="edge4" class="edge">
<title>Node2&#45;&gt;Node2</title>
<path fill="none" stroke="orange" stroke-dasharray="5,2" d="M139.82,-99.36C144.56,-98.3 147.5,-96.68 147.5,-94.5 147.5,-91.01 139.99,-88.96 129.58,-88.33"/>
<polygon fill="orange" stroke="orange" points="139.06,-95.93 129.58,-100.67 139.94,-102.87 139.06,-95.93"/>
<text text-anchor="middle" x="190" y="-92" font-family="Helvetica,sans-Serif" font-size="10.00"> &lt; dim, spacedim &gt;</text>
</g>
<!-- Node3 -->
<g id="node3" class="node">
<title>Node3</title>
<g id="a_node3"><a xlink:href="classManifold.html" target="_top" xlink:title=" ">
<polygon fill="white" stroke="black" points="13,-147.5 13,-166.5 148,-166.5 148,-147.5 13,-147.5"/>
<text text-anchor="middle" x="80.5" y="-154.5" font-family="Helvetica,sans-Serif" font-size="10.00">Manifold&lt; dim, spacedim &gt;</text>
</a>
</g>
</g>
<!-- Node3&#45;&gt;Node2 -->
<g id="edge2" class="edge">
<title>Node3&#45;&gt;Node2</title>
<path fill="none" stroke="midnightblue" d="M80.5,-137.22C80.5,-128.36 80.5,-117.96 80.5,-109.76"/>
<polygon fill="midnightblue" stroke="midnightblue" points="77,-137.33 80.5,-147.33 84,-137.33 77,-137.33"/>
</g>
<!-- Node4 -->
<g id="node4" class="node">
<title>Node4</title>
<g id="a_node4"><a xlink:href="classSubscriptor.html" target="_top" xlink:title=" ">
<polygon fill="white" stroke="black" points="47.5,-204.5 47.5,-223.5 113.5,-223.5 113.5,-204.5 47.5,-204.5"/>
<text text-anchor="middle" x="80.5" y="-211.5" font-family="Helvetica,sans-Serif" font-size="10.00">Subscriptor</text>
</a>
</g>
</g>
<!-- Node4&#45;&gt;Node3 -->
<g id="edge3" class="edge">
<title>Node4&#45;&gt;Node3</title>
<path fill="none" stroke="midnightblue" d="M80.5,-194.12C80.5,-184.82 80.5,-174.06 80.5,-166.71"/>
<polygon fill="midnightblue" stroke="midnightblue" points="77,-194.41 80.5,-204.41 84,-194.41 77,-194.41"/>
</g>
</g>
</svg>
