<?xml version="1.0" encoding="UTF-8" standalone="no"?>
<!DOCTYPE svg PUBLIC "-//W3C//DTD SVG 1.1//EN"
 "http://www.w3.org/Graphics/SVG/1.1/DTD/svg11.dtd">
<!-- Generated by graphviz version 2.47.1 (20210417.1919)
 -->
<!-- Title: FESystem&lt; dim, spacedim &gt; Pages: 1 -->
<svg width="224pt" height="242pt"
 viewBox="0.00 0.00 224.00 242.00" xmlns="http://www.w3.org/2000/svg" xmlns:xlink="http://www.w3.org/1999/xlink">
<g id="graph0" class="graph" transform="scale(1 1) rotate(0) translate(4 238)">
<title>FESystem&lt; dim, spacedim &gt;</title>
<polygon fill="white" stroke="transparent" points="-4,4 -4,-238 220,-238 220,4 -4,4"/>
<!-- Node1 -->
<g id="node1" class="node">
<title>Node1</title>
<g id="a_node1"><a xlink:title=" ">
<polygon fill="#bfbfbf" stroke="black" points="25.5,-0.5 25.5,-19.5 170.5,-19.5 170.5,-0.5 25.5,-0.5"/>
<text text-anchor="middle" x="98" y="-7.5" font-family="Helvetica,sans-Serif" font-size="10.00">FESystem&lt; dim, spacedim &gt;</text>
</a>
</g>
</g>
<!-- Node2 -->
<g id="node2" class="node">
<title>Node2</title>
<g id="a_node2"><a xlink:href="classFiniteElement.html" target="_top" xlink:title=" ">
<polygon fill="white" stroke="black" points="46,-57.5 46,-87.5 150,-87.5 150,-57.5 46,-57.5"/>
<text text-anchor="start" x="54" y="-75.5" font-family="Helvetica,sans-Serif" font-size="10.00">FiniteElement&lt; dim,</text>
<text text-anchor="middle" x="98" y="-64.5" font-family="Helvetica,sans-Serif" font-size="10.00"> dim &gt;</text>
</a>
</g>
</g>
<!-- Node2&#45;&gt;Node1 -->
<g id="edge1" class="edge">
<title>Node2&#45;&gt;Node1</title>
<path fill="none" stroke="midnightblue" d="M98,-47.35C98,-37.51 98,-26.78 98,-19.54"/>
<polygon fill="midnightblue" stroke="midnightblue" points="94.5,-47.47 98,-57.47 101.5,-47.47 94.5,-47.47"/>
</g>
<!-- Node3 -->
<g id="node3" class="node">
<title>Node3</title>
<g id="a_node3"><a xlink:href="classSubscriptor.html" target="_top" xlink:title=" ">
<polygon fill="white" stroke="black" points="0,-209 0,-228 66,-228 66,-209 0,-209"/>
<text text-anchor="middle" x="33" y="-216" font-family="Helvetica,sans-Serif" font-size="10.00">Subscriptor</text>
</a>
</g>
</g>
<!-- Node3&#45;&gt;Node2 -->
<g id="edge2" class="edge">
<title>Node3&#45;&gt;Node2</title>
<path fill="none" stroke="midnightblue" d="M30.22,-198.89C28.47,-181.58 27.99,-155.45 37,-135 45.61,-115.46 63.43,-98.67 77.6,-87.6"/>
<polygon fill="midnightblue" stroke="midnightblue" points="26.75,-199.36 31.47,-208.85 33.7,-198.49 26.75,-199.36"/>
</g>
<!-- Node5 -->
<g id="node5" class="node">
<title>Node5</title>
<g id="a_node5"><a xlink:href="classFiniteElement.html" target="_top" xlink:title=" ">
<polygon fill="white" stroke="black" points="46,-135.5 46,-165.5 150,-165.5 150,-135.5 46,-135.5"/>
<text text-anchor="start" x="54" y="-153.5" font-family="Helvetica,sans-Serif" font-size="10.00">FiniteElement&lt; dim,</text>
<text text-anchor="middle" x="98" y="-142.5" font-family="Helvetica,sans-Serif" font-size="10.00"> spacedim &gt;</text>
</a>
</g>
</g>
<!-- Node3&#45;&gt;Node5 -->
<g id="edge5" class="edge">
<title>Node3&#45;&gt;Node5</title>
<path fill="none" stroke="midnightblue" d="M48.64,-201.62C59.42,-190.67 73.63,-176.24 84.03,-165.68"/>
<polygon fill="midnightblue" stroke="midnightblue" points="46.02,-199.29 41.5,-208.87 51.01,-204.2 46.02,-199.29"/>
</g>
<!-- Node4 -->
<g id="node4" class="node">
<title>Node4</title>
<g id="a_node4"><a xlink:href="classFiniteElementData.html" target="_top" xlink:title=" ">
<polygon fill="white" stroke="black" points="112,-203.5 112,-233.5 216,-233.5 216,-203.5 112,-203.5"/>
<text text-anchor="start" x="120" y="-221.5" font-family="Helvetica,sans-Serif" font-size="10.00">FiniteElementData&lt;</text>
<text text-anchor="middle" x="164" y="-210.5" font-family="Helvetica,sans-Serif" font-size="10.00"> dim &gt;</text>
</a>
</g>
</g>
<!-- Node4&#45;&gt;Node2 -->
<g id="edge3" class="edge">
<title>Node4&#45;&gt;Node2</title>
<path fill="none" stroke="midnightblue" d="M170.04,-193.09C174.55,-169.03 177.43,-132.17 161,-106 156.09,-98.18 148.65,-92.16 140.59,-87.54"/>
<polygon fill="midnightblue" stroke="midnightblue" points="166.55,-192.66 167.92,-203.16 173.4,-194.1 166.55,-192.66"/>
</g>
<!-- Node4&#45;&gt;Node5 -->
<g id="edge6" class="edge">
<title>Node4&#45;&gt;Node5</title>
<path fill="none" stroke="midnightblue" d="M142.49,-195.99C132.59,-186.09 121.11,-174.61 112.29,-165.79"/>
<polygon fill="midnightblue" stroke="midnightblue" points="140.13,-198.58 149.68,-203.18 145.08,-193.63 140.13,-198.58"/>
</g>
<!-- Node5&#45;&gt;Node2 -->
<g id="edge4" class="edge">
<title>Node5&#45;&gt;Node2</title>
<path fill="none" stroke="orange" stroke-dasharray="5,2" d="M98,-125.09C98,-112.76 98,-98.22 98,-87.73"/>
<polygon fill="orange" stroke="orange" points="94.5,-125.2 98,-135.2 101.5,-125.21 94.5,-125.2"/>
<text text-anchor="middle" x="127.5" y="-109" font-family="Helvetica,sans-Serif" font-size="10.00"> &lt; dim, dim &gt;</text>
</g>
</g>
</svg>
