<?xml version="1.0" encoding="UTF-8" standalone="no"?>
<!DOCTYPE svg PUBLIC "-//W3C//DTD SVG 1.1//EN"
 "http://www.w3.org/Graphics/SVG/1.1/DTD/svg11.dtd">
<!-- Generated by graphviz version 2.47.1 (20210417.1919)
 -->
<!-- Title: DataPostprocessorTensor&lt; dim &gt; Pages: 1 -->
<svg width="138pt" height="162pt"
 viewBox="0.00 0.00 138.00 162.00" xmlns="http://www.w3.org/2000/svg" xmlns:xlink="http://www.w3.org/1999/xlink">
<g id="graph0" class="graph" transform="scale(1 1) rotate(0) translate(4 158)">
<title>DataPostprocessorTensor&lt; dim &gt;</title>
<polygon fill="white" stroke="transparent" points="-4,4 -4,-158 134,-158 134,4 -4,4"/>
<!-- Node1 -->
<g id="node1" class="node">
<title>Node1</title>
<g id="a_node1"><a xlink:title=" ">
<polygon fill="#bfbfbf" stroke="black" points="0,-0.5 0,-30.5 130,-30.5 130,-0.5 0,-0.5"/>
<text text-anchor="start" x="8" y="-18.5" font-family="Helvetica,sans-Serif" font-size="10.00">DataPostprocessorTensor</text>
<text text-anchor="middle" x="65" y="-7.5" font-family="Helvetica,sans-Serif" font-size="10.00">&lt; dim &gt;</text>
</a>
</g>
</g>
<!-- Node2 -->
<g id="node2" class="node">
<title>Node2</title>
<g id="a_node2"><a xlink:href="classDataPostprocessor.html" target="_top" xlink:title=" ">
<polygon fill="white" stroke="black" points="11.5,-67.5 11.5,-97.5 118.5,-97.5 118.5,-67.5 11.5,-67.5"/>
<text text-anchor="start" x="19.5" y="-85.5" font-family="Helvetica,sans-Serif" font-size="10.00">DataPostprocessor&lt;</text>
<text text-anchor="middle" x="65" y="-74.5" font-family="Helvetica,sans-Serif" font-size="10.00"> dim &gt;</text>
</a>
</g>
</g>
<!-- Node2&#45;&gt;Node1 -->
<g id="edge1" class="edge">
<title>Node2&#45;&gt;Node1</title>
<path fill="none" stroke="midnightblue" d="M65,-57.11C65,-48.15 65,-38.32 65,-30.58"/>
<polygon fill="midnightblue" stroke="midnightblue" points="61.5,-57.4 65,-67.4 68.5,-57.4 61.5,-57.4"/>
</g>
<!-- Node3 -->
<g id="node3" class="node">
<title>Node3</title>
<g id="a_node3"><a xlink:href="classSubscriptor.html" target="_top" xlink:title=" ">
<polygon fill="white" stroke="black" points="32,-134.5 32,-153.5 98,-153.5 98,-134.5 32,-134.5"/>
<text text-anchor="middle" x="65" y="-141.5" font-family="Helvetica,sans-Serif" font-size="10.00">Subscriptor</text>
</a>
</g>
</g>
<!-- Node3&#45;&gt;Node2 -->
<g id="edge2" class="edge">
<title>Node3&#45;&gt;Node2</title>
<path fill="none" stroke="midnightblue" d="M65,-124.23C65,-115.59 65,-105.5 65,-97.52"/>
<polygon fill="midnightblue" stroke="midnightblue" points="61.5,-124.48 65,-134.48 68.5,-124.48 61.5,-124.48"/>
</g>
</g>
</svg>
