<?xml version="1.0" encoding="UTF-8" standalone="no"?>
<!DOCTYPE svg PUBLIC "-//W3C//DTD SVG 1.1//EN"
 "http://www.w3.org/Graphics/SVG/1.1/DTD/svg11.dtd">
<!-- Generated by graphviz version 2.47.1 (20210417.1919)
 -->
<!-- Title: FE_RannacherTurek&lt; dim &gt; Pages: 1 -->
<svg width="224pt" height="310pt"
 viewBox="0.00 0.00 224.00 310.00" xmlns="http://www.w3.org/2000/svg" xmlns:xlink="http://www.w3.org/1999/xlink">
<g id="graph0" class="graph" transform="scale(1 1) rotate(0) translate(4 306)">
<title>FE_RannacherTurek&lt; dim &gt;</title>
<polygon fill="white" stroke="transparent" points="-4,4 -4,-306 220,-306 220,4 -4,4"/>
<!-- Node1 -->
<g id="node1" class="node">
<title>Node1</title>
<g id="a_node1"><a xlink:title=" ">
<polygon fill="#bfbfbf" stroke="black" points="41.5,-0.5 41.5,-30.5 154.5,-30.5 154.5,-0.5 41.5,-0.5"/>
<text text-anchor="start" x="49.5" y="-18.5" font-family="Helvetica,sans-Serif" font-size="10.00">FE_RannacherTurek&lt;</text>
<text text-anchor="middle" x="98" y="-7.5" font-family="Helvetica,sans-Serif" font-size="10.00"> dim &gt;</text>
</a>
</g>
</g>
<!-- Node2 -->
<g id="node2" class="node">
<title>Node2</title>
<g id="a_node2"><a xlink:href="classFE__Poly.html" target="_top" xlink:title=" ">
<polygon fill="white" stroke="black" points="30,-68.5 30,-87.5 166,-87.5 166,-68.5 30,-68.5"/>
<text text-anchor="middle" x="98" y="-75.5" font-family="Helvetica,sans-Serif" font-size="10.00">FE_Poly&lt; dim, spacedim &gt;</text>
</a>
</g>
</g>
<!-- Node2&#45;&gt;Node1 -->
<g id="edge1" class="edge">
<title>Node2&#45;&gt;Node1</title>
<path fill="none" stroke="midnightblue" d="M98,-58.22C98,-49.36 98,-38.96 98,-30.76"/>
<polygon fill="midnightblue" stroke="midnightblue" points="94.5,-58.33 98,-68.33 101.5,-58.33 94.5,-58.33"/>
</g>
<!-- Node3 -->
<g id="node3" class="node">
<title>Node3</title>
<g id="a_node3"><a xlink:href="classFiniteElement.html" target="_top" xlink:title=" ">
<polygon fill="white" stroke="black" points="46,-125.5 46,-155.5 150,-155.5 150,-125.5 46,-125.5"/>
<text text-anchor="start" x="54" y="-143.5" font-family="Helvetica,sans-Serif" font-size="10.00">FiniteElement&lt; dim,</text>
<text text-anchor="middle" x="98" y="-132.5" font-family="Helvetica,sans-Serif" font-size="10.00"> dim &gt;</text>
</a>
</g>
</g>
<!-- Node3&#45;&gt;Node2 -->
<g id="edge2" class="edge">
<title>Node3&#45;&gt;Node2</title>
<path fill="none" stroke="midnightblue" d="M98,-115.35C98,-105.51 98,-94.78 98,-87.54"/>
<polygon fill="midnightblue" stroke="midnightblue" points="94.5,-115.47 98,-125.47 101.5,-115.47 94.5,-115.47"/>
</g>
<!-- Node4 -->
<g id="node4" class="node">
<title>Node4</title>
<g id="a_node4"><a xlink:href="classSubscriptor.html" target="_top" xlink:title=" ">
<polygon fill="white" stroke="black" points="0,-277 0,-296 66,-296 66,-277 0,-277"/>
<text text-anchor="middle" x="33" y="-284" font-family="Helvetica,sans-Serif" font-size="10.00">Subscriptor</text>
</a>
</g>
</g>
<!-- Node4&#45;&gt;Node3 -->
<g id="edge3" class="edge">
<title>Node4&#45;&gt;Node3</title>
<path fill="none" stroke="midnightblue" d="M30.22,-266.89C28.47,-249.58 27.99,-223.45 37,-203 45.61,-183.46 63.43,-166.67 77.6,-155.6"/>
<polygon fill="midnightblue" stroke="midnightblue" points="26.75,-267.36 31.47,-276.85 33.7,-266.49 26.75,-267.36"/>
</g>
<!-- Node6 -->
<g id="node6" class="node">
<title>Node6</title>
<g id="a_node6"><a xlink:href="classFiniteElement.html" target="_top" xlink:title=" ">
<polygon fill="white" stroke="black" points="46,-203.5 46,-233.5 150,-233.5 150,-203.5 46,-203.5"/>
<text text-anchor="start" x="54" y="-221.5" font-family="Helvetica,sans-Serif" font-size="10.00">FiniteElement&lt; dim,</text>
<text text-anchor="middle" x="98" y="-210.5" font-family="Helvetica,sans-Serif" font-size="10.00"> spacedim &gt;</text>
</a>
</g>
</g>
<!-- Node4&#45;&gt;Node6 -->
<g id="edge6" class="edge">
<title>Node4&#45;&gt;Node6</title>
<path fill="none" stroke="midnightblue" d="M48.64,-269.62C59.42,-258.67 73.63,-244.24 84.03,-233.68"/>
<polygon fill="midnightblue" stroke="midnightblue" points="46.02,-267.29 41.5,-276.87 51.01,-272.2 46.02,-267.29"/>
</g>
<!-- Node5 -->
<g id="node5" class="node">
<title>Node5</title>
<g id="a_node5"><a xlink:href="classFiniteElementData.html" target="_top" xlink:title=" ">
<polygon fill="white" stroke="black" points="112,-271.5 112,-301.5 216,-301.5 216,-271.5 112,-271.5"/>
<text text-anchor="start" x="120" y="-289.5" font-family="Helvetica,sans-Serif" font-size="10.00">FiniteElementData&lt;</text>
<text text-anchor="middle" x="164" y="-278.5" font-family="Helvetica,sans-Serif" font-size="10.00"> dim &gt;</text>
</a>
</g>
</g>
<!-- Node5&#45;&gt;Node3 -->
<g id="edge4" class="edge">
<title>Node5&#45;&gt;Node3</title>
<path fill="none" stroke="midnightblue" d="M170.04,-261.09C174.55,-237.03 177.43,-200.17 161,-174 156.09,-166.18 148.65,-160.16 140.59,-155.54"/>
<polygon fill="midnightblue" stroke="midnightblue" points="166.55,-260.66 167.92,-271.16 173.4,-262.1 166.55,-260.66"/>
</g>
<!-- Node5&#45;&gt;Node6 -->
<g id="edge7" class="edge">
<title>Node5&#45;&gt;Node6</title>
<path fill="none" stroke="midnightblue" d="M142.49,-263.99C132.59,-254.09 121.11,-242.61 112.29,-233.79"/>
<polygon fill="midnightblue" stroke="midnightblue" points="140.13,-266.58 149.68,-271.18 145.08,-261.63 140.13,-266.58"/>
</g>
<!-- Node6&#45;&gt;Node3 -->
<g id="edge5" class="edge">
<title>Node6&#45;&gt;Node3</title>
<path fill="none" stroke="orange" stroke-dasharray="5,2" d="M98,-193.09C98,-180.76 98,-166.22 98,-155.73"/>
<polygon fill="orange" stroke="orange" points="94.5,-193.2 98,-203.2 101.5,-193.21 94.5,-193.2"/>
<text text-anchor="middle" x="127.5" y="-177" font-family="Helvetica,sans-Serif" font-size="10.00"> &lt; dim, dim &gt;</text>
</g>
</g>
</svg>
