<?xml version="1.0" encoding="UTF-8" standalone="no"?>
<!DOCTYPE svg PUBLIC "-//W3C//DTD SVG 1.1//EN"
 "http://www.w3.org/Graphics/SVG/1.1/DTD/svg11.dtd">
<!-- Generated by graphviz version 2.47.1 (20210417.1919)
 -->
<!-- Title: PreconditionBlockSSOR&lt; MatrixType, inverse_type &gt; Pages: 1 -->
<svg width="1404pt" height="225pt"
 viewBox="0.00 0.00 1404.00 225.00" xmlns="http://www.w3.org/2000/svg" xmlns:xlink="http://www.w3.org/1999/xlink">
<g id="graph0" class="graph" transform="scale(1 1) rotate(0) translate(4 221)">
<title>PreconditionBlockSSOR&lt; MatrixType, inverse_type &gt;</title>
<polygon fill="white" stroke="transparent" points="-4,4 -4,-221 1400,-221 1400,4 -4,4"/>
<!-- Node1 -->
<g id="node1" class="node">
<title>Node1</title>
<g id="a_node1"><a xlink:title=" ">
<polygon fill="#bfbfbf" stroke="black" points="1272,-171.5 1272,-212.5 1396,-212.5 1396,-171.5 1272,-171.5"/>
<text text-anchor="start" x="1280" y="-200.5" font-family="Helvetica,sans-Serif" font-size="10.00">PreconditionBlockSSOR</text>
<text text-anchor="start" x="1280" y="-189.5" font-family="Helvetica,sans-Serif" font-size="10.00">&lt; MatrixType, inverse</text>
<text text-anchor="middle" x="1334" y="-178.5" font-family="Helvetica,sans-Serif" font-size="10.00">_type &gt;</text>
</a>
</g>
</g>
<!-- Node2 -->
<g id="node2" class="node">
<title>Node2</title>
<g id="a_node2"><a xlink:href="classSubscriptor.html" target="_top" xlink:title=" ">
<polygon fill="white" stroke="black" points="286.5,-131.5 286.5,-150.5 352.5,-150.5 352.5,-131.5 286.5,-131.5"/>
<text text-anchor="middle" x="319.5" y="-138.5" font-family="Helvetica,sans-Serif" font-size="10.00">Subscriptor</text>
</a>
</g>
</g>
<!-- Node2&#45;&gt;Node1 -->
<g id="edge1" class="edge">
<title>Node2&#45;&gt;Node1</title>
<path fill="none" stroke="midnightblue" d="M338.19,-157.28C364.37,-179.61 415.91,-217 467.5,-217 467.5,-217 467.5,-217 1171,-217 1204.58,-217 1241.62,-211.69 1271.8,-205.96"/>
<polygon fill="midnightblue" stroke="midnightblue" points="340.44,-154.59 330.61,-150.63 335.82,-159.85 340.44,-154.59"/>
</g>
<!-- Node3 -->
<g id="node3" class="node">
<title>Node3</title>
<g id="a_node3"><a xlink:href="classPreconditionBlockSOR.html" target="_top" xlink:title=" ">
<polygon fill="white" stroke="black" points="1105,-121.5 1105,-162.5 1235,-162.5 1235,-121.5 1105,-121.5"/>
<text text-anchor="start" x="1113" y="-150.5" font-family="Helvetica,sans-Serif" font-size="10.00">PreconditionBlockSOR</text>
<text text-anchor="start" x="1113" y="-139.5" font-family="Helvetica,sans-Serif" font-size="10.00">&lt; MatrixType, typename</text>
<text text-anchor="middle" x="1170" y="-128.5" font-family="Helvetica,sans-Serif" font-size="10.00"> MatrixType::value_type &gt;</text>
</a>
</g>
</g>
<!-- Node2&#45;&gt;Node3 -->
<g id="edge3" class="edge">
<title>Node2&#45;&gt;Node3</title>
<path fill="none" stroke="midnightblue" d="M352.66,-154.32C382.04,-165.27 426.94,-179 467.5,-179 467.5,-179 467.5,-179 897.5,-179 968.98,-179 1050.07,-166.25 1104.88,-155.72"/>
<polygon fill="midnightblue" stroke="midnightblue" points="353.54,-150.91 342.95,-150.59 351.03,-157.44 353.54,-150.91"/>
</g>
<!-- Node4 -->
<g id="node4" class="node">
<title>Node4</title>
<g id="a_node4"><a xlink:href="classPreconditionBlock.html" target="_top" xlink:title=" ">
<polygon fill="white" stroke="black" points="671,-46.5 671,-87.5 801,-87.5 801,-46.5 671,-46.5"/>
<text text-anchor="start" x="679" y="-75.5" font-family="Helvetica,sans-Serif" font-size="10.00">PreconditionBlock&lt;</text>
<text text-anchor="start" x="679" y="-64.5" font-family="Helvetica,sans-Serif" font-size="10.00"> MatrixType, typename</text>
<text text-anchor="middle" x="736" y="-53.5" font-family="Helvetica,sans-Serif" font-size="10.00"> MatrixType::value_type &gt;</text>
</a>
</g>
</g>
<!-- Node2&#45;&gt;Node4 -->
<g id="edge5" class="edge">
<title>Node2&#45;&gt;Node4</title>
<path fill="none" stroke="midnightblue" d="M362.77,-133.03C373.89,-131 385.89,-128.86 397,-127 510.51,-107.97 540.23,-110.97 653,-88 658.76,-86.83 664.72,-85.51 670.68,-84.12"/>
<polygon fill="midnightblue" stroke="midnightblue" points="362.05,-129.61 352.85,-134.86 363.32,-136.49 362.05,-129.61"/>
</g>
<!-- Node7 -->
<g id="node7" class="node">
<title>Node7</title>
<g id="a_node7"><a xlink:href="classPreconditionBlock.html" target="_top" xlink:title=" ">
<polygon fill="white" stroke="black" points="416,-33.5 416,-74.5 521,-74.5 521,-33.5 416,-33.5"/>
<text text-anchor="start" x="424" y="-62.5" font-family="Helvetica,sans-Serif" font-size="10.00">PreconditionBlock&lt;</text>
<text text-anchor="start" x="424" y="-51.5" font-family="Helvetica,sans-Serif" font-size="10.00"> MatrixType, inverse</text>
<text text-anchor="middle" x="468.5" y="-40.5" font-family="Helvetica,sans-Serif" font-size="10.00">_type &gt;</text>
</a>
</g>
</g>
<!-- Node2&#45;&gt;Node7 -->
<g id="edge9" class="edge">
<title>Node2&#45;&gt;Node7</title>
<path fill="none" stroke="midnightblue" d="M341.56,-125.54C356.65,-114.75 377.64,-100.31 397,-89 405.49,-84.04 414.79,-79.09 423.76,-74.56"/>
<polygon fill="midnightblue" stroke="midnightblue" points="339.47,-122.73 333.41,-131.42 343.57,-128.41 339.47,-122.73"/>
</g>
<!-- Node8 -->
<g id="node8" class="node">
<title>Node8</title>
<g id="a_node8"><a xlink:href="classPreconditionBlockSOR.html" target="_top" xlink:title=" ">
<polygon fill="white" stroke="black" points="838,-46.5 838,-87.5 955,-87.5 955,-46.5 838,-46.5"/>
<text text-anchor="start" x="846" y="-75.5" font-family="Helvetica,sans-Serif" font-size="10.00">PreconditionBlockSOR</text>
<text text-anchor="start" x="846" y="-64.5" font-family="Helvetica,sans-Serif" font-size="10.00">&lt; MatrixType, inverse</text>
<text text-anchor="middle" x="896.5" y="-53.5" font-family="Helvetica,sans-Serif" font-size="10.00">_type &gt;</text>
</a>
</g>
</g>
<!-- Node2&#45;&gt;Node8 -->
<g id="edge12" class="edge">
<title>Node2&#45;&gt;Node8</title>
<path fill="none" stroke="midnightblue" d="M362.85,-140.4C447.16,-138.49 641.6,-130.49 801,-97 813.04,-94.47 825.73,-91.01 837.77,-87.34"/>
<polygon fill="midnightblue" stroke="midnightblue" points="362.57,-136.9 352.65,-140.61 362.72,-143.9 362.57,-136.9"/>
</g>
<!-- Node3&#45;&gt;Node1 -->
<g id="edge2" class="edge">
<title>Node3&#45;&gt;Node1</title>
<path fill="none" stroke="#8b1a1a" d="M1244.77,-164.77C1253.82,-167.56 1262.98,-170.39 1271.82,-173.12"/>
<polygon fill="#8b1a1a" stroke="#8b1a1a" points="1245.61,-161.37 1235.03,-161.76 1243.55,-168.05 1245.61,-161.37"/>
</g>
<!-- Node4&#45;&gt;Node3 -->
<g id="edge4" class="edge">
<title>Node4&#45;&gt;Node3</title>
<path fill="none" stroke="darkgreen" d="M810.61,-90.29C819.78,-92.77 829.07,-95.08 838,-97 929.71,-116.73 1037.67,-129.49 1104.73,-136.22"/>
<polygon fill="darkgreen" stroke="darkgreen" points="811.3,-86.85 800.73,-87.54 809.43,-93.59 811.3,-86.85"/>
</g>
<!-- Node4&#45;&gt;Node8 -->
<g id="edge13" class="edge">
<title>Node4&#45;&gt;Node8</title>
<path fill="none" stroke="darkgreen" d="M811.11,-67C820.1,-67 829.19,-67 837.9,-67"/>
<polygon fill="darkgreen" stroke="darkgreen" points="811.01,-63.5 801.01,-67 811.01,-70.5 811.01,-63.5"/>
</g>
<!-- Node5 -->
<g id="node5" class="node">
<title>Node5</title>
<g id="a_node5"><a xlink:href="classPreconditionBlockBase.html" target="_top" xlink:title=" ">
<polygon fill="white" stroke="black" points="260,-0.5 260,-41.5 379,-41.5 379,-0.5 260,-0.5"/>
<text text-anchor="start" x="268" y="-29.5" font-family="Helvetica,sans-Serif" font-size="10.00">PreconditionBlockBase</text>
<text text-anchor="start" x="268" y="-18.5" font-family="Helvetica,sans-Serif" font-size="10.00">&lt; typename MatrixType</text>
<text text-anchor="middle" x="319.5" y="-7.5" font-family="Helvetica,sans-Serif" font-size="10.00">::value_type &gt;</text>
</a>
</g>
</g>
<!-- Node5&#45;&gt;Node4 -->
<g id="edge6" class="edge">
<title>Node5&#45;&gt;Node4</title>
<path fill="none" stroke="darkgreen" d="M389.15,-18.93C427.96,-18.53 477.31,-19.32 521,-24 571.87,-29.44 628.6,-41.1 670.86,-50.91"/>
<polygon fill="darkgreen" stroke="darkgreen" points="388.97,-15.43 379.02,-19.06 389.06,-22.43 388.97,-15.43"/>
</g>
<!-- Node5&#45;&gt;Node7 -->
<g id="edge10" class="edge">
<title>Node5&#45;&gt;Node7</title>
<path fill="none" stroke="darkgreen" d="M388.81,-36.34C397.9,-38.38 407.09,-40.44 415.83,-42.4"/>
<polygon fill="darkgreen" stroke="darkgreen" points="389.54,-32.91 379.02,-34.14 388.01,-39.74 389.54,-32.91"/>
</g>
<!-- Node6 -->
<g id="node6" class="node">
<title>Node6</title>
<g id="a_node6"><a xlink:href="classPreconditionBlockBase.html" target="_top" xlink:title=" ">
<polygon fill="white" stroke="black" points="0,-6 0,-36 118,-36 118,-6 0,-6"/>
<text text-anchor="start" x="8" y="-24" font-family="Helvetica,sans-Serif" font-size="10.00">PreconditionBlockBase</text>
<text text-anchor="middle" x="59" y="-13" font-family="Helvetica,sans-Serif" font-size="10.00">&lt; number &gt;</text>
</a>
</g>
</g>
<!-- Node6&#45;&gt;Node5 -->
<g id="edge7" class="edge">
<title>Node6&#45;&gt;Node5</title>
<path fill="none" stroke="orange" stroke-dasharray="5,2" d="M128.18,-21C169.11,-21 220.66,-21 259.79,-21"/>
<polygon fill="orange" stroke="orange" points="128.01,-17.5 118.01,-21 128.01,-24.5 128.01,-17.5"/>
<text text-anchor="start" x="136" y="-35" font-family="Helvetica,sans-Serif" font-size="10.00"> &lt; typename MatrixType</text>
<text text-anchor="middle" x="189" y="-24" font-family="Helvetica,sans-Serif" font-size="10.00">::value_type &gt;</text>
</g>
<!-- Node7&#45;&gt;Node4 -->
<g id="edge8" class="edge">
<title>Node7&#45;&gt;Node4</title>
<path fill="none" stroke="orange" stroke-dasharray="5,2" d="M531.1,-57.02C573.06,-59.07 628.49,-61.78 670.97,-63.86"/>
<polygon fill="orange" stroke="orange" points="531.17,-53.52 521.01,-56.52 530.82,-60.51 531.17,-53.52"/>
<text text-anchor="start" x="539" y="-76" font-family="Helvetica,sans-Serif" font-size="10.00"> &lt; MatrixType, typename</text>
<text text-anchor="middle" x="596" y="-65" font-family="Helvetica,sans-Serif" font-size="10.00"> MatrixType::value_type &gt;</text>
</g>
<!-- Node8&#45;&gt;Node3 -->
<g id="edge11" class="edge">
<title>Node8&#45;&gt;Node3</title>
<path fill="none" stroke="orange" stroke-dasharray="5,2" d="M965.46,-62.38C1002.48,-62.13 1048.46,-65.58 1087,-80 1110.74,-88.88 1133.37,-106.98 1148.82,-121.35"/>
<polygon fill="orange" stroke="orange" points="965.21,-58.89 955.27,-62.54 965.32,-65.88 965.21,-58.89"/>
<text text-anchor="start" x="973" y="-94" font-family="Helvetica,sans-Serif" font-size="10.00"> &lt; MatrixType, typename</text>
<text text-anchor="middle" x="1030" y="-83" font-family="Helvetica,sans-Serif" font-size="10.00"> MatrixType::value_type &gt;</text>
</g>
</g>
</svg>
