<?xml version="1.0" encoding="UTF-8" standalone="no"?>
<!DOCTYPE svg PUBLIC "-//W3C//DTD SVG 1.1//EN"
 "http://www.w3.org/Graphics/SVG/1.1/DTD/svg11.dtd">
<!-- Generated by graphviz version 2.47.1 (20210417.1919)
 -->
<!-- Title: PETScWrappers::MPI::BlockVector Pages: 1 -->
<svg width="250pt" height="220pt"
 viewBox="0.00 0.00 249.50 220.00" xmlns="http://www.w3.org/2000/svg" xmlns:xlink="http://www.w3.org/1999/xlink">
<g id="graph0" class="graph" transform="scale(1 1) rotate(0) translate(4 216)">
<title>PETScWrappers::MPI::BlockVector</title>
<polygon fill="white" stroke="transparent" points="-4,4 -4,-216 245.5,-216 245.5,4 -4,4"/>
<!-- Node1 -->
<g id="node1" class="node">
<title>Node1</title>
<g id="a_node1"><a xlink:title=" ">
<polygon fill="#bfbfbf" stroke="black" points="13,-0.5 13,-30.5 126,-30.5 126,-0.5 13,-0.5"/>
<text text-anchor="start" x="21" y="-18.5" font-family="Helvetica,sans-Serif" font-size="10.00">PETScWrappers::MPI</text>
<text text-anchor="middle" x="69.5" y="-7.5" font-family="Helvetica,sans-Serif" font-size="10.00">::BlockVector</text>
</a>
</g>
</g>
<!-- Node2 -->
<g id="node2" class="node">
<title>Node2</title>
<g id="a_node2"><a xlink:href="classBlockVectorBase.html" target="_top" xlink:title=" ">
<polygon fill="white" stroke="black" points="0,-68.5 0,-87.5 139,-87.5 139,-68.5 0,-68.5"/>
<text text-anchor="middle" x="69.5" y="-75.5" font-family="Helvetica,sans-Serif" font-size="10.00">BlockVectorBase&lt; Vector &gt;</text>
</a>
</g>
</g>
<!-- Node2&#45;&gt;Node1 -->
<g id="edge1" class="edge">
<title>Node2&#45;&gt;Node1</title>
<path fill="none" stroke="midnightblue" d="M69.5,-58.22C69.5,-49.36 69.5,-38.96 69.5,-30.76"/>
<polygon fill="midnightblue" stroke="midnightblue" points="66,-58.33 69.5,-68.33 73,-58.33 66,-58.33"/>
</g>
<!-- Node3 -->
<g id="node3" class="node">
<title>Node3</title>
<g id="a_node3"><a xlink:href="classSubscriptor.html" target="_top" xlink:title=" ">
<polygon fill="white" stroke="black" points="32.5,-192.5 32.5,-211.5 98.5,-211.5 98.5,-192.5 32.5,-192.5"/>
<text text-anchor="middle" x="65.5" y="-199.5" font-family="Helvetica,sans-Serif" font-size="10.00">Subscriptor</text>
</a>
</g>
</g>
<!-- Node3&#45;&gt;Node2 -->
<g id="edge2" class="edge">
<title>Node3&#45;&gt;Node2</title>
<path fill="none" stroke="midnightblue" d="M66.12,-182.19C67,-155.4 68.57,-107.31 69.21,-87.69"/>
<polygon fill="midnightblue" stroke="midnightblue" points="62.62,-182.12 65.79,-192.23 69.61,-182.35 62.62,-182.12"/>
</g>
<!-- Node4 -->
<g id="node4" class="node">
<title>Node4</title>
<g id="a_node4"><a xlink:href="classBlockVectorBase.html" target="_top" xlink:title=" ">
<polygon fill="white" stroke="black" points="81.5,-135.5 81.5,-154.5 241.5,-154.5 241.5,-135.5 81.5,-135.5"/>
<text text-anchor="middle" x="161.5" y="-142.5" font-family="Helvetica,sans-Serif" font-size="10.00">BlockVectorBase&lt; VectorType &gt;</text>
</a>
</g>
</g>
<!-- Node3&#45;&gt;Node4 -->
<g id="edge4" class="edge">
<title>Node3&#45;&gt;Node4</title>
<path fill="none" stroke="midnightblue" d="M89.25,-187.39C107.2,-177.11 131.29,-163.31 146.61,-154.53"/>
<polygon fill="midnightblue" stroke="midnightblue" points="87.44,-184.4 80.5,-192.41 90.92,-190.47 87.44,-184.4"/>
</g>
<!-- Node4&#45;&gt;Node2 -->
<g id="edge3" class="edge">
<title>Node4&#45;&gt;Node2</title>
<path fill="none" stroke="orange" stroke-dasharray="5,2" d="M140.86,-129.42C122.68,-116.57 96.79,-98.28 81.71,-87.63"/>
<polygon fill="orange" stroke="orange" points="138.91,-132.32 149.09,-135.23 142.94,-126.6 138.91,-132.32"/>
<text text-anchor="middle" x="145.5" y="-109" font-family="Helvetica,sans-Serif" font-size="10.00"> &lt; Vector &gt;</text>
</g>
</g>
</svg>
