<?xml version="1.0" encoding="UTF-8" standalone="no"?>
<!DOCTYPE svg PUBLIC "-//W3C//DTD SVG 1.1//EN"
 "http://www.w3.org/Graphics/SVG/1.1/DTD/svg11.dtd">
<!-- Generated by graphviz version 2.47.1 (20210417.1919)
 -->
<!-- Title: PolynomialSpace&lt; dim &gt; Pages: 1 -->
<svg width="254pt" height="174pt"
 viewBox="0.00 0.00 253.50 174.00" xmlns="http://www.w3.org/2000/svg" xmlns:xlink="http://www.w3.org/1999/xlink">
<g id="graph0" class="graph" transform="scale(1 1) rotate(0) translate(4 170)">
<title>PolynomialSpace&lt; dim &gt;</title>
<polygon fill="white" stroke="transparent" points="-4,4 -4,-170 249.5,-170 249.5,4 -4,4"/>
<!-- Node1 -->
<g id="node1" class="node">
<title>Node1</title>
<g id="a_node1"><a xlink:title=" ">
<polygon fill="#bfbfbf" stroke="black" points="58,-78.5 58,-97.5 184,-97.5 184,-78.5 58,-78.5"/>
<text text-anchor="middle" x="121" y="-85.5" font-family="Helvetica,sans-Serif" font-size="10.00">PolynomialSpace&lt; dim &gt;</text>
</a>
</g>
</g>
<!-- Node3 -->
<g id="node3" class="node">
<title>Node3</title>
<g id="a_node3"><a xlink:href="classPolynomialsP.html" target="_top" xlink:title=" ">
<polygon fill="white" stroke="black" points="0,-6 0,-25 110,-25 110,-6 0,-6"/>
<text text-anchor="middle" x="55" y="-13" font-family="Helvetica,sans-Serif" font-size="10.00">PolynomialsP&lt; dim &gt;</text>
</a>
</g>
</g>
<!-- Node1&#45;&gt;Node3 -->
<g id="edge2" class="edge">
<title>Node1&#45;&gt;Node3</title>
<path fill="none" stroke="midnightblue" d="M105.83,-70.8C92.56,-56.62 73.78,-36.56 63.16,-25.22"/>
<polygon fill="midnightblue" stroke="midnightblue" points="103.52,-73.45 112.91,-78.36 108.63,-68.66 103.52,-73.45"/>
</g>
<!-- Node4 -->
<g id="node4" class="node">
<title>Node4</title>
<g id="a_node4"><a xlink:href="classPolynomialSpace.html" target="_top" xlink:title=" ">
<polygon fill="white" stroke="black" points="128.5,-0.5 128.5,-30.5 245.5,-30.5 245.5,-0.5 128.5,-0.5"/>
<text text-anchor="start" x="136.5" y="-18.5" font-family="Helvetica,sans-Serif" font-size="10.00">PolynomialSpace&lt; dim</text>
<text text-anchor="middle" x="187" y="-7.5" font-family="Helvetica,sans-Serif" font-size="10.00"> &#45; 1 &gt;</text>
</a>
</g>
</g>
<!-- Node1&#45;&gt;Node4 -->
<g id="edge3" class="edge">
<title>Node1&#45;&gt;Node4</title>
<path fill="none" stroke="orange" stroke-dasharray="5,2" d="M136.22,-70.74C147.59,-58.6 162.98,-42.16 173.82,-30.58"/>
<polygon fill="orange" stroke="orange" points="133.37,-68.66 129.09,-78.36 138.48,-73.45 133.37,-68.66"/>
<text text-anchor="middle" x="181" y="-52" font-family="Helvetica,sans-Serif" font-size="10.00"> &lt; dim &#45; 1 &gt;</text>
</g>
<!-- Node2 -->
<g id="node2" class="node">
<title>Node2</title>
<g id="a_node2"><a xlink:href="classScalarPolynomialsBase.html" target="_top" xlink:title=" ">
<polygon fill="white" stroke="black" points="61,-135.5 61,-165.5 181,-165.5 181,-135.5 61,-135.5"/>
<text text-anchor="start" x="69" y="-153.5" font-family="Helvetica,sans-Serif" font-size="10.00">ScalarPolynomialsBase</text>
<text text-anchor="middle" x="121" y="-142.5" font-family="Helvetica,sans-Serif" font-size="10.00">&lt; dim &gt;</text>
</a>
</g>
</g>
<!-- Node2&#45;&gt;Node1 -->
<g id="edge1" class="edge">
<title>Node2&#45;&gt;Node1</title>
<path fill="none" stroke="midnightblue" d="M121,-125.35C121,-115.51 121,-104.78 121,-97.54"/>
<polygon fill="midnightblue" stroke="midnightblue" points="117.5,-125.47 121,-135.47 124.5,-125.47 117.5,-125.47"/>
</g>
</g>
</svg>
