<?xml version="1.0" encoding="UTF-8" standalone="no"?>
<!DOCTYPE svg PUBLIC "-//W3C//DTD SVG 1.1//EN"
 "http://www.w3.org/Graphics/SVG/1.1/DTD/svg11.dtd">
<!-- Generated by graphviz version 2.47.1 (20210417.1919)
 -->
<!-- Title: FE_Poly&lt; dim, spacedim &gt; Pages: 1 -->
<svg width="1660pt" height="641pt"
 viewBox="0.00 0.00 1660.00 640.50" xmlns="http://www.w3.org/2000/svg" xmlns:xlink="http://www.w3.org/1999/xlink">
<g id="graph0" class="graph" transform="scale(1 1) rotate(0) translate(4 636.5)">
<title>FE_Poly&lt; dim, spacedim &gt;</title>
<polygon fill="white" stroke="transparent" points="-4,4 -4,-636.5 1656,-636.5 1656,4 -4,4"/>
<!-- Node1 -->
<g id="node1" class="node">
<title>Node1</title>
<g id="a_node1"><a xlink:title=" ">
<polygon fill="#bfbfbf" stroke="black" points="481,-408.5 481,-427.5 617,-427.5 617,-408.5 481,-408.5"/>
<text text-anchor="middle" x="549" y="-415.5" font-family="Helvetica,sans-Serif" font-size="10.00">FE_Poly&lt; dim, spacedim &gt;</text>
</a>
</g>
</g>
<!-- Node1&#45;&gt;Node1 -->
<g id="edge7" class="edge">
<title>Node1&#45;&gt;Node1</title>
<path fill="none" stroke="orange" stroke-dasharray="5,2" d="M541.08,-437.77C541.7,-442.5 544.34,-446 549,-446 556.64,-446 558.85,-436.57 555.63,-427.76"/>
<polygon fill="orange" stroke="orange" points="544.56,-438.12 542.37,-427.76 537.62,-437.23 544.56,-438.12"/>
<text text-anchor="middle" x="549" y="-449" font-family="Helvetica,sans-Serif" font-size="10.00"> &lt; dim, spacedim &gt;</text>
</g>
<!-- Node1&#45;&gt;Node1 -->
<g id="edge11" class="edge">
<title>Node1&#45;&gt;Node1</title>
<path fill="none" stroke="orange" stroke-dasharray="5,2" d="M534.53,-437.14C529.98,-450.64 534.81,-464 549,-464 566.47,-464 569.74,-443.76 558.83,-427.94"/>
<polygon fill="orange" stroke="orange" points="537.79,-438.44 539.17,-427.94 531.54,-435.29 537.79,-438.44"/>
<text text-anchor="middle" x="549" y="-467" font-family="Helvetica,sans-Serif" font-size="10.00"> &lt; dim, spacedim &gt;</text>
</g>
<!-- Node6 -->
<g id="node6" class="node">
<title>Node6</title>
<g id="a_node6"><a xlink:href="classFE__DGPMonomial.html" target="_top" xlink:title=" ">
<polygon fill="white" stroke="black" points="712,-477.5 712,-496.5 844,-496.5 844,-477.5 712,-477.5"/>
<text text-anchor="middle" x="778" y="-484.5" font-family="Helvetica,sans-Serif" font-size="10.00">FE_DGPMonomial&lt; dim &gt;</text>
</a>
</g>
</g>
<!-- Node1&#45;&gt;Node6 -->
<g id="edge8" class="edge">
<title>Node1&#45;&gt;Node6</title>
<path fill="none" stroke="midnightblue" d="M590.08,-430.55C622.83,-440.77 670.36,-455.49 712,-468 722.36,-471.11 733.67,-474.44 743.9,-477.43"/>
<polygon fill="midnightblue" stroke="midnightblue" points="591,-427.17 580.41,-427.54 588.92,-433.86 591,-427.17"/>
</g>
<!-- Node7 -->
<g id="node7" class="node">
<title>Node7</title>
<g id="a_node7"><a xlink:href="classFE__Q__Hierarchical.html" target="_top" xlink:title=" ">
<polygon fill="white" stroke="black" points="725.5,-428 725.5,-458 830.5,-458 830.5,-428 725.5,-428"/>
<text text-anchor="start" x="733.5" y="-446" font-family="Helvetica,sans-Serif" font-size="10.00">FE_Q_Hierarchical&lt;</text>
<text text-anchor="middle" x="778" y="-435" font-family="Helvetica,sans-Serif" font-size="10.00"> dim &gt;</text>
</a>
</g>
</g>
<!-- Node1&#45;&gt;Node7 -->
<g id="edge9" class="edge">
<title>Node1&#45;&gt;Node7</title>
<path fill="none" stroke="midnightblue" d="M627.52,-426.54C659.86,-430.1 696.56,-434.14 725.49,-437.33"/>
<polygon fill="midnightblue" stroke="midnightblue" points="627.51,-423.02 617.19,-425.4 626.74,-429.97 627.51,-423.02"/>
</g>
<!-- Node8 -->
<g id="node8" class="node">
<title>Node8</title>
<g id="a_node8"><a xlink:href="classFE__RannacherTurek.html" target="_top" xlink:title=" ">
<polygon fill="white" stroke="black" points="721.5,-379 721.5,-409 834.5,-409 834.5,-379 721.5,-379"/>
<text text-anchor="start" x="729.5" y="-397" font-family="Helvetica,sans-Serif" font-size="10.00">FE_RannacherTurek&lt;</text>
<text text-anchor="middle" x="778" y="-386" font-family="Helvetica,sans-Serif" font-size="10.00"> dim &gt;</text>
</a>
</g>
</g>
<!-- Node1&#45;&gt;Node8 -->
<g id="edge10" class="edge">
<title>Node1&#45;&gt;Node8</title>
<path fill="none" stroke="midnightblue" d="M627.49,-409.81C658.35,-406.54 693.18,-402.86 721.45,-399.87"/>
<polygon fill="midnightblue" stroke="midnightblue" points="626.76,-406.36 617.19,-410.9 627.5,-413.33 626.76,-406.36"/>
</g>
<!-- Node9 -->
<g id="node9" class="node">
<title>Node9</title>
<g id="a_node9"><a xlink:href="classFE__Poly.html" target="_top" xlink:title=" ">
<polygon fill="white" stroke="black" points="723,-340.5 723,-359.5 833,-359.5 833,-340.5 723,-340.5"/>
<text text-anchor="middle" x="778" y="-347.5" font-family="Helvetica,sans-Serif" font-size="10.00">FE_Poly&lt; dim, dim &gt;</text>
</a>
</g>
</g>
<!-- Node1&#45;&gt;Node9 -->
<g id="edge12" class="edge">
<title>Node1&#45;&gt;Node9</title>
<path fill="none" stroke="orange" stroke-dasharray="5,2" d="M585.05,-404.94C600.31,-399.43 618.45,-393.13 635,-388 669.62,-377.28 709.52,-366.76 738.2,-359.52"/>
<polygon fill="orange" stroke="orange" points="583.69,-401.71 575.49,-408.42 586.09,-408.29 583.69,-401.71"/>
<text text-anchor="middle" x="664.5" y="-391" font-family="Helvetica,sans-Serif" font-size="10.00"> &lt; dim, dim &gt;</text>
</g>
<!-- Node2 -->
<g id="node2" class="node">
<title>Node2</title>
<g id="a_node2"><a xlink:href="classFiniteElement.html" target="_top" xlink:title=" ">
<polygon fill="white" stroke="black" points="340,-403 340,-433 444,-433 444,-403 340,-403"/>
<text text-anchor="start" x="348" y="-421" font-family="Helvetica,sans-Serif" font-size="10.00">FiniteElement&lt; dim,</text>
<text text-anchor="middle" x="392" y="-410" font-family="Helvetica,sans-Serif" font-size="10.00"> dim &gt;</text>
</a>
</g>
</g>
<!-- Node2&#45;&gt;Node1 -->
<g id="edge1" class="edge">
<title>Node2&#45;&gt;Node1</title>
<path fill="none" stroke="midnightblue" d="M454.27,-418C462.99,-418 472.01,-418 480.84,-418"/>
<polygon fill="midnightblue" stroke="midnightblue" points="454.18,-414.5 444.18,-418 454.18,-421.5 454.18,-414.5"/>
</g>
<!-- Node3 -->
<g id="node3" class="node">
<title>Node3</title>
<g id="a_node3"><a xlink:href="classSubscriptor.html" target="_top" xlink:title=" ">
<polygon fill="white" stroke="black" points="19,-432.5 19,-451.5 85,-451.5 85,-432.5 19,-432.5"/>
<text text-anchor="middle" x="52" y="-439.5" font-family="Helvetica,sans-Serif" font-size="10.00">Subscriptor</text>
</a>
</g>
</g>
<!-- Node3&#45;&gt;Node2 -->
<g id="edge2" class="edge">
<title>Node3&#45;&gt;Node2</title>
<path fill="none" stroke="midnightblue" d="M95.37,-443.42C104.17,-443.66 113.39,-443.88 122,-444 211.01,-445.29 234.28,-448.2 322,-433 327.8,-432 333.85,-430.84 339.85,-429.63"/>
<polygon fill="midnightblue" stroke="midnightblue" points="95.39,-439.92 85.29,-443.13 95.18,-446.92 95.39,-439.92"/>
</g>
<!-- Node5 -->
<g id="node5" class="node">
<title>Node5</title>
<g id="a_node5"><a xlink:href="classFiniteElement.html" target="_top" xlink:title=" ">
<polygon fill="white" stroke="black" points="141,-403 141,-433 245,-433 245,-403 141,-403"/>
<text text-anchor="start" x="149" y="-421" font-family="Helvetica,sans-Serif" font-size="10.00">FiniteElement&lt; dim,</text>
<text text-anchor="middle" x="193" y="-410" font-family="Helvetica,sans-Serif" font-size="10.00"> spacedim &gt;</text>
</a>
</g>
</g>
<!-- Node3&#45;&gt;Node5 -->
<g id="edge5" class="edge">
<title>Node3&#45;&gt;Node5</title>
<path fill="none" stroke="midnightblue" d="M95.33,-434.69C109.7,-432.21 125.9,-429.41 140.88,-426.83"/>
<polygon fill="midnightblue" stroke="midnightblue" points="94.5,-431.28 85.24,-436.43 95.69,-438.18 94.5,-431.28"/>
</g>
<!-- Node4 -->
<g id="node4" class="node">
<title>Node4</title>
<g id="a_node4"><a xlink:href="classFiniteElementData.html" target="_top" xlink:title=" ">
<polygon fill="white" stroke="black" points="0,-380 0,-410 104,-410 104,-380 0,-380"/>
<text text-anchor="start" x="8" y="-398" font-family="Helvetica,sans-Serif" font-size="10.00">FiniteElementData&lt;</text>
<text text-anchor="middle" x="52" y="-387" font-family="Helvetica,sans-Serif" font-size="10.00"> dim &gt;</text>
</a>
</g>
</g>
<!-- Node4&#45;&gt;Node2 -->
<g id="edge3" class="edge">
<title>Node4&#45;&gt;Node2</title>
<path fill="none" stroke="midnightblue" d="M114.22,-393.43C123.2,-393.25 132.34,-393.1 141,-393 187.22,-392.47 198.94,-389.09 245,-393 276.77,-395.7 312.02,-401.65 339.92,-407.07"/>
<polygon fill="midnightblue" stroke="midnightblue" points="114.11,-389.93 104.18,-393.64 114.25,-396.93 114.11,-389.93"/>
</g>
<!-- Node4&#45;&gt;Node5 -->
<g id="edge6" class="edge">
<title>Node4&#45;&gt;Node5</title>
<path fill="none" stroke="midnightblue" d="M114.27,-405.14C123.15,-406.61 132.2,-408.11 140.85,-409.54"/>
<polygon fill="midnightblue" stroke="midnightblue" points="114.8,-401.68 104.36,-403.5 113.66,-408.58 114.8,-401.68"/>
</g>
<!-- Node5&#45;&gt;Node2 -->
<g id="edge4" class="edge">
<title>Node5&#45;&gt;Node2</title>
<path fill="none" stroke="orange" stroke-dasharray="5,2" d="M255.38,-418C282.44,-418 313.88,-418 339.67,-418"/>
<polygon fill="orange" stroke="orange" points="255.25,-414.5 245.25,-418 255.25,-421.5 255.25,-414.5"/>
<text text-anchor="middle" x="292.5" y="-421" font-family="Helvetica,sans-Serif" font-size="10.00"> &lt; dim, dim &gt;</text>
</g>
<!-- Node10 -->
<g id="node10" class="node">
<title>Node10</title>
<g id="a_node10"><a xlink:href="classFE__DGP.html" target="_top" xlink:title=" ">
<polygon fill="white" stroke="black" points="888,-454.5 888,-473.5 1026,-473.5 1026,-454.5 888,-454.5"/>
<text text-anchor="middle" x="957" y="-461.5" font-family="Helvetica,sans-Serif" font-size="10.00">FE_DGP&lt; dim, spacedim &gt;</text>
</a>
</g>
</g>
<!-- Node9&#45;&gt;Node10 -->
<g id="edge13" class="edge">
<title>Node9&#45;&gt;Node10</title>
<path fill="none" stroke="midnightblue" d="M837.59,-364.36C839.85,-365.77 842,-367.31 844,-369 872.71,-393.23 851.86,-421.29 881,-445 885.79,-448.9 891.29,-452.01 897.07,-454.49"/>
<polygon fill="midnightblue" stroke="midnightblue" points="838.96,-361.13 828.47,-359.6 835.72,-367.33 838.96,-361.13"/>
</g>
<!-- Node11 -->
<g id="node11" class="node">
<title>Node11</title>
<g id="a_node11"><a xlink:href="classFE__DGQ.html" target="_top" xlink:title=" ">
<polygon fill="white" stroke="black" points="887.5,-416.5 887.5,-435.5 1026.5,-435.5 1026.5,-416.5 887.5,-416.5"/>
<text text-anchor="middle" x="957" y="-423.5" font-family="Helvetica,sans-Serif" font-size="10.00">FE_DGQ&lt; dim, spacedim &gt;</text>
</a>
</g>
</g>
<!-- Node9&#45;&gt;Node11 -->
<g id="edge14" class="edge">
<title>Node9&#45;&gt;Node11</title>
<path fill="none" stroke="midnightblue" d="M832.66,-363.23C836.6,-364.94 840.43,-366.85 844,-369 864.2,-381.15 860.58,-395.22 881,-407 887.75,-410.89 895.29,-414 902.91,-416.47"/>
<polygon fill="midnightblue" stroke="midnightblue" points="833.89,-359.95 823.31,-359.6 831.37,-366.48 833.89,-359.95"/>
</g>
<!-- Node16 -->
<g id="node16" class="node">
<title>Node16</title>
<g id="a_node16"><a xlink:href="classFE__Pyramid.html" target="_top" xlink:title=" ">
<polygon fill="white" stroke="black" points="881,-378.5 881,-397.5 1033,-397.5 1033,-378.5 881,-378.5"/>
<text text-anchor="middle" x="957" y="-385.5" font-family="Helvetica,sans-Serif" font-size="10.00">FE_Pyramid&lt; dim, spacedim &gt;</text>
</a>
</g>
</g>
<!-- Node9&#45;&gt;Node16 -->
<g id="edge19" class="edge">
<title>Node9&#45;&gt;Node16</title>
<path fill="none" stroke="midnightblue" d="M833.74,-361.75C858.77,-367.13 888.03,-373.41 911.66,-378.48"/>
<polygon fill="midnightblue" stroke="midnightblue" points="834.18,-358.27 823.66,-359.59 832.71,-365.11 834.18,-358.27"/>
</g>
<!-- Node20 -->
<g id="node20" class="node">
<title>Node20</title>
<g id="a_node20"><a xlink:href="classFE__Q__Base.html" target="_top" xlink:title=" ">
<polygon fill="white" stroke="black" points="881,-340.5 881,-359.5 1033,-359.5 1033,-340.5 881,-340.5"/>
<text text-anchor="middle" x="957" y="-347.5" font-family="Helvetica,sans-Serif" font-size="10.00">FE_Q_Base&lt; dim, spacedim &gt;</text>
</a>
</g>
</g>
<!-- Node9&#45;&gt;Node20 -->
<g id="edge23" class="edge">
<title>Node9&#45;&gt;Node20</title>
<path fill="none" stroke="midnightblue" d="M843.14,-350C855.36,-350 868.24,-350 880.76,-350"/>
<polygon fill="midnightblue" stroke="midnightblue" points="843.07,-346.5 833.07,-350 843.07,-353.5 843.07,-346.5"/>
</g>
<!-- Node28 -->
<g id="node28" class="node">
<title>Node28</title>
<g id="a_node28"><a xlink:href="classFE__SimplexP__Bubbles.html" target="_top" xlink:title="Enriched version of FE_P that can be used with nodal quadrature.">
<polygon fill="white" stroke="black" points="898.5,-291 898.5,-321 1015.5,-321 1015.5,-291 898.5,-291"/>
<text text-anchor="start" x="906.5" y="-309" font-family="Helvetica,sans-Serif" font-size="10.00">FE_SimplexP_Bubbles</text>
<text text-anchor="middle" x="957" y="-298" font-family="Helvetica,sans-Serif" font-size="10.00">&lt; dim, spacedim &gt;</text>
</a>
</g>
</g>
<!-- Node9&#45;&gt;Node28 -->
<g id="edge32" class="edge">
<title>Node9&#45;&gt;Node28</title>
<path fill="none" stroke="midnightblue" d="M827.2,-338.02C849.21,-332.55 875.46,-326.02 898.49,-320.3"/>
<polygon fill="midnightblue" stroke="midnightblue" points="826.27,-334.64 817.41,-340.45 827.96,-341.44 826.27,-334.64"/>
</g>
<!-- Node29 -->
<g id="node29" class="node">
<title>Node29</title>
<g id="a_node29"><a xlink:href="classFE__SimplexPoly.html" target="_top" xlink:title=" ">
<polygon fill="white" stroke="black" points="898.5,-215 898.5,-245 1015.5,-245 1015.5,-215 898.5,-215"/>
<text text-anchor="start" x="906.5" y="-233" font-family="Helvetica,sans-Serif" font-size="10.00">FE_SimplexPoly&lt; dim,</text>
<text text-anchor="middle" x="957" y="-222" font-family="Helvetica,sans-Serif" font-size="10.00"> spacedim &gt;</text>
</a>
</g>
</g>
<!-- Node9&#45;&gt;Node29 -->
<g id="edge33" class="edge">
<title>Node9&#45;&gt;Node29</title>
<path fill="none" stroke="midnightblue" d="M801.57,-334.7C835.69,-311.57 900.01,-267.96 933.87,-245"/>
<polygon fill="midnightblue" stroke="midnightblue" points="799.5,-331.87 793.19,-340.38 803.43,-337.67 799.5,-331.87"/>
</g>
<!-- Node33 -->
<g id="node33" class="node">
<title>Node33</title>
<g id="a_node33"><a xlink:href="classFE__Wedge.html" target="_top" xlink:title=" ">
<polygon fill="white" stroke="black" points="884,-123.5 884,-142.5 1030,-142.5 1030,-123.5 884,-123.5"/>
<text text-anchor="middle" x="957" y="-130.5" font-family="Helvetica,sans-Serif" font-size="10.00">FE_Wedge&lt; dim, spacedim &gt;</text>
</a>
</g>
</g>
<!-- Node9&#45;&gt;Node33 -->
<g id="edge37" class="edge">
<title>Node9&#45;&gt;Node33</title>
<path fill="none" stroke="midnightblue" d="M790.35,-331.54C808.16,-303.15 844.41,-247.61 881,-205 901.69,-180.9 929.38,-155.9 944.67,-142.64"/>
<polygon fill="midnightblue" stroke="midnightblue" points="787.16,-330.04 784.85,-340.38 793.11,-333.74 787.16,-330.04"/>
</g>
<!-- Node12 -->
<g id="node12" class="node">
<title>Node12</title>
<g id="a_node12"><a xlink:href="classFE__DGQ.html" target="_top" xlink:title=" ">
<polygon fill="white" stroke="black" points="1134.5,-533.5 1134.5,-552.5 1247.5,-552.5 1247.5,-533.5 1134.5,-533.5"/>
<text text-anchor="middle" x="1191" y="-540.5" font-family="Helvetica,sans-Serif" font-size="10.00">FE_DGQ&lt; dim, dim &gt;</text>
</a>
</g>
</g>
<!-- Node11&#45;&gt;Node12 -->
<g id="edge15" class="edge">
<title>Node11&#45;&gt;Node12</title>
<path fill="none" stroke="orange" stroke-dasharray="5,2" d="M1014.89,-438.41C1021.1,-440.35 1027.24,-442.55 1033,-445 1090.93,-469.7 1152.19,-514.03 1177.72,-533.44"/>
<polygon fill="orange" stroke="orange" points="1015.73,-435.01 1005.15,-435.57 1013.77,-441.73 1015.73,-435.01"/>
<text text-anchor="middle" x="1080.5" y="-488" font-family="Helvetica,sans-Serif" font-size="10.00"> &lt; dim, dim &gt;</text>
</g>
<!-- Node13 -->
<g id="node13" class="node">
<title>Node13</title>
<g id="a_node13"><a xlink:href="classFE__DGQArbitraryNodes.html" target="_top" xlink:title=" ">
<polygon fill="white" stroke="black" points="1314,-602 1314,-632 1436,-632 1436,-602 1314,-602"/>
<text text-anchor="start" x="1322" y="-620" font-family="Helvetica,sans-Serif" font-size="10.00">FE_DGQArbitraryNodes</text>
<text text-anchor="middle" x="1375" y="-609" font-family="Helvetica,sans-Serif" font-size="10.00">&lt; dim, spacedim &gt;</text>
</a>
</g>
</g>
<!-- Node12&#45;&gt;Node13 -->
<g id="edge16" class="edge">
<title>Node12&#45;&gt;Node13</title>
<path fill="none" stroke="midnightblue" d="M1217.65,-557.62C1237.29,-568.4 1265.28,-582.89 1291,-593 1299.24,-596.24 1308.08,-599.26 1316.83,-601.99"/>
<polygon fill="midnightblue" stroke="midnightblue" points="1219.17,-554.46 1208.73,-552.66 1215.77,-560.58 1219.17,-554.46"/>
</g>
<!-- Node14 -->
<g id="node14" class="node">
<title>Node14</title>
<g id="a_node14"><a xlink:href="classFE__DGQHermite.html" target="_top" xlink:title=" ">
<polygon fill="white" stroke="black" points="1315.5,-553 1315.5,-583 1434.5,-583 1434.5,-553 1315.5,-553"/>
<text text-anchor="start" x="1323.5" y="-571" font-family="Helvetica,sans-Serif" font-size="10.00">FE_DGQHermite&lt; dim,</text>
<text text-anchor="middle" x="1375" y="-560" font-family="Helvetica,sans-Serif" font-size="10.00"> spacedim &gt;</text>
</a>
</g>
</g>
<!-- Node12&#45;&gt;Node14 -->
<g id="edge17" class="edge">
<title>Node12&#45;&gt;Node14</title>
<path fill="none" stroke="midnightblue" d="M1257.58,-552.01C1276.43,-554.6 1296.87,-557.4 1315.27,-559.93"/>
<polygon fill="midnightblue" stroke="midnightblue" points="1257.98,-548.53 1247.59,-550.64 1257.03,-555.47 1257.98,-548.53"/>
</g>
<!-- Node15 -->
<g id="node15" class="node">
<title>Node15</title>
<g id="a_node15"><a xlink:href="classFE__DGQLegendre.html" target="_top" xlink:title=" ">
<polygon fill="white" stroke="black" points="1312.5,-504 1312.5,-534 1437.5,-534 1437.5,-504 1312.5,-504"/>
<text text-anchor="start" x="1320.5" y="-522" font-family="Helvetica,sans-Serif" font-size="10.00">FE_DGQLegendre&lt; dim,</text>
<text text-anchor="middle" x="1375" y="-511" font-family="Helvetica,sans-Serif" font-size="10.00"> spacedim &gt;</text>
</a>
</g>
</g>
<!-- Node12&#45;&gt;Node15 -->
<g id="edge18" class="edge">
<title>Node12&#45;&gt;Node15</title>
<path fill="none" stroke="midnightblue" d="M1257.89,-534.31C1275.68,-531.97 1294.85,-529.44 1312.4,-527.12"/>
<polygon fill="midnightblue" stroke="midnightblue" points="1257.05,-530.89 1247.59,-535.67 1257.97,-537.83 1257.05,-530.89"/>
</g>
<!-- Node17 -->
<g id="node17" class="node">
<title>Node17</title>
<g id="a_node17"><a xlink:href="classFE__Pyramid.html" target="_top" xlink:title=" ">
<polygon fill="white" stroke="black" points="1128,-416.5 1128,-435.5 1254,-435.5 1254,-416.5 1128,-416.5"/>
<text text-anchor="middle" x="1191" y="-423.5" font-family="Helvetica,sans-Serif" font-size="10.00">FE_Pyramid&lt; dim, dim &gt;</text>
</a>
</g>
</g>
<!-- Node16&#45;&gt;Node17 -->
<g id="edge20" class="edge">
<title>Node16&#45;&gt;Node17</title>
<path fill="none" stroke="orange" stroke-dasharray="5,2" d="M1026.41,-399.2C1059.88,-404.69 1099.74,-411.22 1131.73,-416.46"/>
<polygon fill="orange" stroke="orange" points="1026.68,-395.7 1016.24,-397.54 1025.55,-402.61 1026.68,-395.7"/>
<text text-anchor="middle" x="1080.5" y="-415" font-family="Helvetica,sans-Serif" font-size="10.00"> &lt; dim, dim &gt;</text>
</g>
<!-- Node18 -->
<g id="node18" class="node">
<title>Node18</title>
<g id="a_node18"><a xlink:href="classFE__PyramidDGP.html" target="_top" xlink:title=" ">
<polygon fill="white" stroke="black" points="1315,-455 1315,-485 1435,-485 1435,-455 1315,-455"/>
<text text-anchor="start" x="1323" y="-473" font-family="Helvetica,sans-Serif" font-size="10.00">FE_PyramidDGP&lt; dim,</text>
<text text-anchor="middle" x="1375" y="-462" font-family="Helvetica,sans-Serif" font-size="10.00"> spacedim &gt;</text>
</a>
</g>
</g>
<!-- Node17&#45;&gt;Node18 -->
<g id="edge21" class="edge">
<title>Node17&#45;&gt;Node18</title>
<path fill="none" stroke="midnightblue" d="M1241.25,-437.91C1263.95,-443.39 1291.07,-449.95 1314.87,-455.7"/>
<polygon fill="midnightblue" stroke="midnightblue" points="1242.03,-434.5 1231.49,-435.55 1240.39,-441.3 1242.03,-434.5"/>
</g>
<!-- Node19 -->
<g id="node19" class="node">
<title>Node19</title>
<g id="a_node19"><a xlink:href="classFE__PyramidP.html" target="_top" xlink:title=" ">
<polygon fill="white" stroke="black" points="1295.5,-416.5 1295.5,-435.5 1454.5,-435.5 1454.5,-416.5 1295.5,-416.5"/>
<text text-anchor="middle" x="1375" y="-423.5" font-family="Helvetica,sans-Serif" font-size="10.00">FE_PyramidP&lt; dim, spacedim &gt;</text>
</a>
</g>
</g>
<!-- Node17&#45;&gt;Node19 -->
<g id="edge22" class="edge">
<title>Node17&#45;&gt;Node19</title>
<path fill="none" stroke="midnightblue" d="M1264.24,-426C1274.48,-426 1285.06,-426 1295.42,-426"/>
<polygon fill="midnightblue" stroke="midnightblue" points="1264.13,-422.5 1254.13,-426 1264.13,-429.5 1264.13,-422.5"/>
</g>
<!-- Node21 -->
<g id="node21" class="node">
<title>Node21</title>
<g id="a_node21"><a xlink:href="classFE__Q.html" target="_top" xlink:title=" ">
<polygon fill="white" stroke="black" points="1554,-334.5 1554,-353.5 1652,-353.5 1652,-334.5 1554,-334.5"/>
<text text-anchor="middle" x="1603" y="-341.5" font-family="Helvetica,sans-Serif" font-size="10.00">FE_Q&lt; dim, dim &gt;</text>
</a>
</g>
</g>
<!-- Node20&#45;&gt;Node21 -->
<g id="edge24" class="edge">
<title>Node20&#45;&gt;Node21</title>
<path fill="none" stroke="midnightblue" d="M1043.28,-359.23C1143.1,-368.6 1313.3,-380.14 1459,-368 1491.99,-365.25 1528.82,-358.99 1556.84,-353.56"/>
<polygon fill="midnightblue" stroke="midnightblue" points="1043.54,-355.73 1033.25,-358.27 1042.87,-362.7 1043.54,-355.73"/>
</g>
<!-- Node22 -->
<g id="node22" class="node">
<title>Node22</title>
<g id="a_node22"><a xlink:href="classFE__Q__Base.html" target="_top" xlink:title=" ">
<polygon fill="white" stroke="black" points="1128.5,-259.5 1128.5,-278.5 1253.5,-278.5 1253.5,-259.5 1128.5,-259.5"/>
<text text-anchor="middle" x="1191" y="-266.5" font-family="Helvetica,sans-Serif" font-size="10.00">FE_Q_Base&lt; dim, dim &gt;</text>
</a>
</g>
</g>
<!-- Node20&#45;&gt;Node22 -->
<g id="edge25" class="edge">
<title>Node20&#45;&gt;Node22</title>
<path fill="none" stroke="orange" stroke-dasharray="5,2" d="M1006.89,-337.8C1015.63,-335.38 1024.62,-332.74 1033,-330 1081.79,-314.07 1137.47,-291.31 1167.66,-278.58"/>
<polygon fill="orange" stroke="orange" points="1005.9,-334.44 997.17,-340.43 1007.73,-341.19 1005.9,-334.44"/>
<text text-anchor="middle" x="1080.5" y="-326" font-family="Helvetica,sans-Serif" font-size="10.00"> &lt; dim, dim &gt;</text>
</g>
<!-- Node23 -->
<g id="node23" class="node">
<title>Node23</title>
<g id="a_node23"><a xlink:href="classFE__Bernstein.html" target="_top" xlink:title=" ">
<polygon fill="white" stroke="black" points="1323,-329 1323,-359 1427,-359 1427,-329 1323,-329"/>
<text text-anchor="start" x="1331" y="-347" font-family="Helvetica,sans-Serif" font-size="10.00">FE_Bernstein&lt; dim,</text>
<text text-anchor="middle" x="1375" y="-336" font-family="Helvetica,sans-Serif" font-size="10.00"> spacedim &gt;</text>
</a>
</g>
</g>
<!-- Node22&#45;&gt;Node23 -->
<g id="edge26" class="edge">
<title>Node22&#45;&gt;Node23</title>
<path fill="none" stroke="midnightblue" d="M1217.68,-283.54C1237.34,-294.28 1265.34,-308.75 1291,-319 1301.06,-323.02 1312.03,-326.76 1322.6,-330.05"/>
<polygon fill="midnightblue" stroke="midnightblue" points="1219.19,-280.38 1208.75,-278.6 1215.81,-286.5 1219.19,-280.38"/>
</g>
<!-- Node24 -->
<g id="node24" class="node">
<title>Node24</title>
<g id="a_node24"><a xlink:href="classFE__Q.html" target="_top" xlink:title=" ">
<polygon fill="white" stroke="black" points="1313,-290.5 1313,-309.5 1437,-309.5 1437,-290.5 1313,-290.5"/>
<text text-anchor="middle" x="1375" y="-297.5" font-family="Helvetica,sans-Serif" font-size="10.00">FE_Q&lt; dim, spacedim &gt;</text>
</a>
</g>
</g>
<!-- Node22&#45;&gt;Node24 -->
<g id="edge27" class="edge">
<title>Node22&#45;&gt;Node24</title>
<path fill="none" stroke="midnightblue" d="M1258.19,-280.27C1277.84,-283.62 1299.17,-287.25 1318.09,-290.48"/>
<polygon fill="midnightblue" stroke="midnightblue" points="1258.54,-276.78 1248.09,-278.55 1257.36,-283.68 1258.54,-276.78"/>
</g>
<!-- Node25 -->
<g id="node25" class="node">
<title>Node25</title>
<g id="a_node25"><a xlink:href="classFE__Q__Bubbles.html" target="_top" xlink:title=" ">
<polygon fill="white" stroke="black" points="1320,-241 1320,-271 1430,-271 1430,-241 1320,-241"/>
<text text-anchor="start" x="1328" y="-259" font-family="Helvetica,sans-Serif" font-size="10.00">FE_Q_Bubbles&lt; dim,</text>
<text text-anchor="middle" x="1375" y="-248" font-family="Helvetica,sans-Serif" font-size="10.00"> spacedim &gt;</text>
</a>
</g>
</g>
<!-- Node22&#45;&gt;Node25 -->
<g id="edge29" class="edge">
<title>Node22&#45;&gt;Node25</title>
<path fill="none" stroke="midnightblue" d="M1263.83,-263.87C1282.46,-262.54 1302.21,-261.13 1319.76,-259.87"/>
<polygon fill="midnightblue" stroke="midnightblue" points="1263.34,-260.4 1253.62,-264.6 1263.84,-267.38 1263.34,-260.4"/>
</g>
<!-- Node26 -->
<g id="node26" class="node">
<title>Node26</title>
<g id="a_node26"><a xlink:href="classFE__Q__DG0.html" target="_top" xlink:title=" ">
<polygon fill="white" stroke="black" points="1300.5,-202.5 1300.5,-221.5 1449.5,-221.5 1449.5,-202.5 1300.5,-202.5"/>
<text text-anchor="middle" x="1375" y="-209.5" font-family="Helvetica,sans-Serif" font-size="10.00">FE_Q_DG0&lt; dim, spacedim &gt;</text>
</a>
</g>
</g>
<!-- Node22&#45;&gt;Node26 -->
<g id="edge30" class="edge">
<title>Node22&#45;&gt;Node26</title>
<path fill="none" stroke="midnightblue" d="M1223.57,-255.57C1242.82,-247.71 1268.06,-237.99 1291,-231 1302.6,-227.47 1315.28,-224.25 1327.16,-221.5"/>
<polygon fill="midnightblue" stroke="midnightblue" points="1222,-252.43 1214.1,-259.48 1224.68,-258.9 1222,-252.43"/>
</g>
<!-- Node27 -->
<g id="node27" class="node">
<title>Node27</title>
<g id="a_node27"><a xlink:href="classFE__Q__iso__Q1.html" target="_top" xlink:title=" ">
<polygon fill="white" stroke="black" points="1295,-164.5 1295,-183.5 1455,-183.5 1455,-164.5 1295,-164.5"/>
<text text-anchor="middle" x="1375" y="-171.5" font-family="Helvetica,sans-Serif" font-size="10.00">FE_Q_iso_Q1&lt; dim, spacedim &gt;</text>
</a>
</g>
</g>
<!-- Node22&#45;&gt;Node27 -->
<g id="edge31" class="edge">
<title>Node22&#45;&gt;Node27</title>
<path fill="none" stroke="midnightblue" d="M1208.79,-252.4C1227.35,-234.99 1258.89,-208.11 1291,-193 1299.16,-189.16 1308.14,-186.07 1317.09,-183.59"/>
<polygon fill="midnightblue" stroke="midnightblue" points="1206.24,-249.99 1201.44,-259.43 1211.09,-255.04 1206.24,-249.99"/>
</g>
<!-- Node24&#45;&gt;Node21 -->
<g id="edge28" class="edge">
<title>Node24&#45;&gt;Node21</title>
<path fill="none" stroke="orange" stroke-dasharray="5,2" d="M1435.18,-311.52C1472.15,-318.72 1519.15,-327.87 1553.83,-334.62"/>
<polygon fill="orange" stroke="orange" points="1435.52,-308.02 1425.04,-309.55 1434.19,-314.89 1435.52,-308.02"/>
<text text-anchor="middle" x="1506.5" y="-334" font-family="Helvetica,sans-Serif" font-size="10.00"> &lt; dim, dim &gt;</text>
</g>
<!-- Node30 -->
<g id="node30" class="node">
<title>Node30</title>
<g id="a_node30"><a xlink:href="classFE__SimplexPoly.html" target="_top" xlink:title=" ">
<polygon fill="white" stroke="black" points="1132.5,-115 1132.5,-145 1249.5,-145 1249.5,-115 1132.5,-115"/>
<text text-anchor="start" x="1140.5" y="-133" font-family="Helvetica,sans-Serif" font-size="10.00">FE_SimplexPoly&lt; dim,</text>
<text text-anchor="middle" x="1191" y="-122" font-family="Helvetica,sans-Serif" font-size="10.00"> dim &gt;</text>
</a>
</g>
</g>
<!-- Node29&#45;&gt;Node30 -->
<g id="edge34" class="edge">
<title>Node29&#45;&gt;Node30</title>
<path fill="none" stroke="orange" stroke-dasharray="5,2" d="M1002.38,-210.87C1046.83,-191.71 1114.35,-162.61 1155.11,-145.04"/>
<polygon fill="orange" stroke="orange" points="1000.78,-207.75 992.98,-214.92 1003.55,-214.18 1000.78,-207.75"/>
<text text-anchor="middle" x="1080.5" y="-192" font-family="Helvetica,sans-Serif" font-size="10.00"> &lt; dim, dim &gt;</text>
</g>
<!-- Node31 -->
<g id="node31" class="node">
<title>Node31</title>
<g id="a_node31"><a xlink:href="classFE__SimplexDGP.html" target="_top" xlink:title=" ">
<polygon fill="white" stroke="black" points="1315.5,-115 1315.5,-145 1434.5,-145 1434.5,-115 1315.5,-115"/>
<text text-anchor="start" x="1323.5" y="-133" font-family="Helvetica,sans-Serif" font-size="10.00">FE_SimplexDGP&lt; dim,</text>
<text text-anchor="middle" x="1375" y="-122" font-family="Helvetica,sans-Serif" font-size="10.00"> spacedim &gt;</text>
</a>
</g>
</g>
<!-- Node30&#45;&gt;Node31 -->
<g id="edge35" class="edge">
<title>Node30&#45;&gt;Node31</title>
<path fill="none" stroke="midnightblue" d="M1259.83,-130C1278.03,-130 1297.56,-130 1315.22,-130"/>
<polygon fill="midnightblue" stroke="midnightblue" points="1259.59,-126.5 1249.59,-130 1259.59,-133.5 1259.59,-126.5"/>
</g>
<!-- Node32 -->
<g id="node32" class="node">
<title>Node32</title>
<g id="a_node32"><a xlink:href="classFE__SimplexP.html" target="_top" xlink:title=" ">
<polygon fill="white" stroke="black" points="1296,-76.5 1296,-95.5 1454,-95.5 1454,-76.5 1296,-76.5"/>
<text text-anchor="middle" x="1375" y="-83.5" font-family="Helvetica,sans-Serif" font-size="10.00">FE_SimplexP&lt; dim, spacedim &gt;</text>
</a>
</g>
</g>
<!-- Node30&#45;&gt;Node32 -->
<g id="edge36" class="edge">
<title>Node30&#45;&gt;Node32</title>
<path fill="none" stroke="midnightblue" d="M1259.53,-112.73C1270.05,-110.1 1280.81,-107.45 1291,-105 1304.08,-101.85 1318.35,-98.54 1331.31,-95.58"/>
<polygon fill="midnightblue" stroke="midnightblue" points="1258.38,-109.41 1249.53,-115.24 1260.08,-116.2 1258.38,-109.41"/>
</g>
<!-- Node34 -->
<g id="node34" class="node">
<title>Node34</title>
<g id="a_node34"><a xlink:href="classFE__Wedge.html" target="_top" xlink:title=" ">
<polygon fill="white" stroke="black" points="1131,-38.5 1131,-57.5 1251,-57.5 1251,-38.5 1131,-38.5"/>
<text text-anchor="middle" x="1191" y="-45.5" font-family="Helvetica,sans-Serif" font-size="10.00">FE_Wedge&lt; dim, dim &gt;</text>
</a>
</g>
</g>
<!-- Node33&#45;&gt;Node34 -->
<g id="edge38" class="edge">
<title>Node33&#45;&gt;Node34</title>
<path fill="none" stroke="orange" stroke-dasharray="5,2" d="M993.64,-119.94C1040.65,-102.72 1122.29,-72.81 1163.93,-57.55"/>
<polygon fill="orange" stroke="orange" points="992.35,-116.69 984.16,-123.41 994.76,-123.26 992.35,-116.69"/>
<text text-anchor="middle" x="1080.5" y="-102" font-family="Helvetica,sans-Serif" font-size="10.00"> &lt; dim, dim &gt;</text>
</g>
<!-- Node35 -->
<g id="node35" class="node">
<title>Node35</title>
<g id="a_node35"><a xlink:href="classFE__WedgeDGP.html" target="_top" xlink:title=" ">
<polygon fill="white" stroke="black" points="1291,-38.5 1291,-57.5 1459,-57.5 1459,-38.5 1291,-38.5"/>
<text text-anchor="middle" x="1375" y="-45.5" font-family="Helvetica,sans-Serif" font-size="10.00">FE_WedgeDGP&lt; dim, spacedim &gt;</text>
</a>
</g>
</g>
<!-- Node34&#45;&gt;Node35 -->
<g id="edge39" class="edge">
<title>Node34&#45;&gt;Node35</title>
<path fill="none" stroke="midnightblue" d="M1261.36,-48C1270.97,-48 1280.91,-48 1290.74,-48"/>
<polygon fill="midnightblue" stroke="midnightblue" points="1261.09,-44.5 1251.09,-48 1261.09,-51.5 1261.09,-44.5"/>
</g>
<!-- Node36 -->
<g id="node36" class="node">
<title>Node36</title>
<g id="a_node36"><a xlink:href="classFE__WedgeP.html" target="_top" xlink:title=" ">
<polygon fill="white" stroke="black" points="1298.5,-0.5 1298.5,-19.5 1451.5,-19.5 1451.5,-0.5 1298.5,-0.5"/>
<text text-anchor="middle" x="1375" y="-7.5" font-family="Helvetica,sans-Serif" font-size="10.00">FE_WedgeP&lt; dim, spacedim &gt;</text>
</a>
</g>
</g>
<!-- Node34&#45;&gt;Node36 -->
<g id="edge40" class="edge">
<title>Node34&#45;&gt;Node36</title>
<path fill="none" stroke="midnightblue" d="M1247.95,-36.32C1273.76,-30.93 1304.01,-24.61 1328.4,-19.52"/>
<polygon fill="midnightblue" stroke="midnightblue" points="1247,-32.94 1237.93,-38.41 1248.43,-39.79 1247,-32.94"/>
</g>
</g>
</svg>
