<?xml version="1.0" encoding="UTF-8" standalone="no"?>
<!DOCTYPE svg PUBLIC "-//W3C//DTD SVG 1.1//EN"
 "http://www.w3.org/Graphics/SVG/1.1/DTD/svg11.dtd">
<!-- Generated by graphviz version 2.47.1 (20210417.1919)
 -->
<!-- Title: Utilities::MPI::ConsensusAlgorithms::Selector&lt; T1, T2 &gt; Pages: 1 -->
<svg width="160pt" height="117pt"
 viewBox="0.00 0.00 160.00 117.00" xmlns="http://www.w3.org/2000/svg" xmlns:xlink="http://www.w3.org/1999/xlink">
<g id="graph0" class="graph" transform="scale(1 1) rotate(0) translate(4 113)">
<title>Utilities::MPI::ConsensusAlgorithms::Selector&lt; T1, T2 &gt;</title>
<polygon fill="white" stroke="transparent" points="-4,4 -4,-113 156,-113 156,4 -4,4"/>
<!-- Node1 -->
<g id="node1" class="node">
<title>Node1</title>
<g id="a_node1"><a xlink:title=" ">
<polygon fill="#bfbfbf" stroke="black" points="0,-0.5 0,-30.5 152,-30.5 152,-0.5 0,-0.5"/>
<text text-anchor="start" x="8" y="-18.5" font-family="Helvetica,sans-Serif" font-size="10.00">Utilities::MPI::Consensus</text>
<text text-anchor="middle" x="76" y="-7.5" font-family="Helvetica,sans-Serif" font-size="10.00">Algorithms::Selector&lt; T1, T2 &gt;</text>
</a>
</g>
</g>
<!-- Node2 -->
<g id="node2" class="node">
<title>Node2</title>
<g id="a_node2"><a xlink:href="classUtilities_1_1MPI_1_1ConsensusAlgorithms_1_1Interface.html" target="_top" xlink:title=" ">
<polygon fill="white" stroke="black" points="11.5,-67.5 11.5,-108.5 140.5,-108.5 140.5,-67.5 11.5,-67.5"/>
<text text-anchor="start" x="19.5" y="-96.5" font-family="Helvetica,sans-Serif" font-size="10.00">Utilities::MPI::Consensus</text>
<text text-anchor="start" x="19.5" y="-85.5" font-family="Helvetica,sans-Serif" font-size="10.00">Algorithms::Interface&lt;</text>
<text text-anchor="middle" x="76" y="-74.5" font-family="Helvetica,sans-Serif" font-size="10.00"> T1, T2 &gt;</text>
</a>
</g>
</g>
<!-- Node2&#45;&gt;Node1 -->
<g id="edge1" class="edge">
<title>Node2&#45;&gt;Node1</title>
<path fill="none" stroke="midnightblue" d="M76,-57.08C76,-48.01 76,-38.45 76,-30.89"/>
<polygon fill="midnightblue" stroke="midnightblue" points="72.5,-57.36 76,-67.36 79.5,-57.36 72.5,-57.36"/>
</g>
</g>
</svg>
