<?xml version="1.0" encoding="UTF-8" standalone="no"?>
<!DOCTYPE svg PUBLIC "-//W3C//DTD SVG 1.1//EN"
 "http://www.w3.org/Graphics/SVG/1.1/DTD/svg11.dtd">
<!-- Generated by graphviz version 2.47.1 (20210417.1919)
 -->
<!-- Title: parallel::shared::Triangulation&lt; dim, spacedim &gt; Pages: 1 -->
<svg width="230pt" height="388pt"
 viewBox="0.00 0.00 230.35 388.00" xmlns="http://www.w3.org/2000/svg" xmlns:xlink="http://www.w3.org/1999/xlink">
<g id="graph0" class="graph" transform="scale(1 1) rotate(0) translate(4 384)">
<title>parallel::shared::Triangulation&lt; dim, spacedim &gt;</title>
<polygon fill="white" stroke="transparent" points="-4,4 -4,-384 226.35,-384 226.35,4 -4,4"/>
<!-- Node1 -->
<g id="node1" class="node">
<title>Node1</title>
<g id="a_node1"><a xlink:title=" ">
<polygon fill="#bfbfbf" stroke="black" points="0,-0.5 0,-30.5 144,-30.5 144,-0.5 0,-0.5"/>
<text text-anchor="start" x="8" y="-18.5" font-family="Helvetica,sans-Serif" font-size="10.00">parallel::shared::Triangulation</text>
<text text-anchor="middle" x="72" y="-7.5" font-family="Helvetica,sans-Serif" font-size="10.00">&lt; dim, spacedim &gt;</text>
</a>
</g>
</g>
<!-- Node2 -->
<g id="node2" class="node">
<title>Node2</title>
<g id="a_node2"><a xlink:href="classparallel_1_1TriangulationBase.html" target="_top" xlink:title=" ">
<polygon fill="white" stroke="black" points="6.5,-68.5 6.5,-98.5 137.5,-98.5 137.5,-68.5 6.5,-68.5"/>
<text text-anchor="start" x="14.5" y="-86.5" font-family="Helvetica,sans-Serif" font-size="10.00">parallel::TriangulationBase</text>
<text text-anchor="middle" x="72" y="-75.5" font-family="Helvetica,sans-Serif" font-size="10.00">&lt; dim, dim &gt;</text>
</a>
</g>
</g>
<!-- Node2&#45;&gt;Node1 -->
<g id="edge1" class="edge">
<title>Node2&#45;&gt;Node1</title>
<path fill="none" stroke="midnightblue" d="M72,-58.03C72,-48.86 72,-38.74 72,-30.79"/>
<polygon fill="midnightblue" stroke="midnightblue" points="68.5,-58.18 72,-68.18 75.5,-58.18 68.5,-58.18"/>
</g>
<!-- Node3 -->
<g id="node3" class="node">
<title>Node3</title>
<g id="a_node3"><a xlink:href="classTriangulation.html" target="_top" xlink:title=" ">
<polygon fill="white" stroke="black" points="6,-292.5 6,-322.5 106,-322.5 106,-292.5 6,-292.5"/>
<text text-anchor="start" x="14" y="-310.5" font-family="Helvetica,sans-Serif" font-size="10.00">Triangulation&lt; dim,</text>
<text text-anchor="middle" x="56" y="-299.5" font-family="Helvetica,sans-Serif" font-size="10.00"> spacedim &gt;</text>
</a>
</g>
</g>
<!-- Node3&#45;&gt;Node2 -->
<g id="edge2" class="edge">
<title>Node3&#45;&gt;Node2</title>
<path fill="none" stroke="midnightblue" d="M57.75,-282.19C61.1,-235.72 68.32,-135.59 70.98,-98.61"/>
<polygon fill="midnightblue" stroke="midnightblue" points="54.25,-282.05 57.03,-292.28 61.24,-282.55 54.25,-282.05"/>
</g>
<!-- Node3&#45;&gt;Node3 -->
<g id="edge4" class="edge">
<title>Node3&#45;&gt;Node3</title>
<path fill="none" stroke="orange" stroke-dasharray="5,2" d="M116.35,-312.33C121.08,-311.27 124,-309.66 124,-307.5 124,-304.05 116.52,-302 106.11,-301.35"/>
<polygon fill="orange" stroke="orange" points="115.58,-308.9 106.11,-313.65 116.48,-315.84 115.58,-308.9"/>
<text text-anchor="middle" x="166.5" y="-305" font-family="Helvetica,sans-Serif" font-size="10.00"> &lt; dim, spacedim &gt;</text>
</g>
<!-- Node6 -->
<g id="node6" class="node">
<title>Node6</title>
<g id="a_node6"><a xlink:href="classTriangulation.html" target="_top" xlink:title=" ">
<polygon fill="white" stroke="black" points="100,-214.5 100,-244.5 200,-244.5 200,-214.5 100,-214.5"/>
<text text-anchor="start" x="108" y="-232.5" font-family="Helvetica,sans-Serif" font-size="10.00">Triangulation&lt; dim,</text>
<text text-anchor="middle" x="150" y="-221.5" font-family="Helvetica,sans-Serif" font-size="10.00"> dim &gt;</text>
</a>
</g>
</g>
<!-- Node3&#45;&gt;Node6 -->
<g id="edge8" class="edge">
<title>Node3&#45;&gt;Node6</title>
<path fill="none" stroke="orange" stroke-dasharray="5,2" d="M81.66,-285.75C97.76,-272.73 118.11,-256.28 132.4,-244.73"/>
<polygon fill="orange" stroke="orange" points="79.26,-283.2 73.68,-292.2 83.66,-288.64 79.26,-283.2"/>
<text text-anchor="middle" x="137.5" y="-266" font-family="Helvetica,sans-Serif" font-size="10.00"> &lt; dim, dim &gt;</text>
</g>
<!-- Node4 -->
<g id="node4" class="node">
<title>Node4</title>
<g id="a_node4"><a xlink:href="classSubscriptor.html" target="_top" xlink:title=" ">
<polygon fill="white" stroke="black" points="113,-360.5 113,-379.5 179,-379.5 179,-360.5 113,-360.5"/>
<text text-anchor="middle" x="146" y="-367.5" font-family="Helvetica,sans-Serif" font-size="10.00">Subscriptor</text>
</a>
</g>
</g>
<!-- Node4&#45;&gt;Node3 -->
<g id="edge3" class="edge">
<title>Node4&#45;&gt;Node3</title>
<path fill="none" stroke="midnightblue" d="M124.78,-354.73C110.31,-345.01 91.25,-332.2 76.87,-322.53"/>
<polygon fill="midnightblue" stroke="midnightblue" points="122.85,-357.66 133.11,-360.33 126.76,-351.85 122.85,-357.66"/>
</g>
<!-- Node4&#45;&gt;Node6 -->
<g id="edge7" class="edge">
<title>Node4&#45;&gt;Node6</title>
<path fill="none" stroke="midnightblue" d="M180.07,-356.09C194.48,-348.73 209.82,-337.94 218,-323 234.28,-293.28 198.95,-262.24 173.38,-244.74"/>
<polygon fill="midnightblue" stroke="midnightblue" points="178.37,-353.02 170.81,-360.44 181.35,-359.36 178.37,-353.02"/>
</g>
<!-- Node5 -->
<g id="node5" class="node">
<title>Node5</title>
<g id="a_node5"><a xlink:href="classparallel_1_1TriangulationBase.html" target="_top" xlink:title=" ">
<polygon fill="white" stroke="black" points="84.5,-146.5 84.5,-176.5 215.5,-176.5 215.5,-146.5 84.5,-146.5"/>
<text text-anchor="start" x="92.5" y="-164.5" font-family="Helvetica,sans-Serif" font-size="10.00">parallel::TriangulationBase</text>
<text text-anchor="middle" x="150" y="-153.5" font-family="Helvetica,sans-Serif" font-size="10.00">&lt; dim, spacedim &gt;</text>
</a>
</g>
</g>
<!-- Node5&#45;&gt;Node2 -->
<g id="edge5" class="edge">
<title>Node5&#45;&gt;Node2</title>
<path fill="none" stroke="orange" stroke-dasharray="5,2" d="M127.97,-139.03C114.73,-126.13 98.24,-110.07 86.61,-98.73"/>
<polygon fill="orange" stroke="orange" points="125.72,-141.73 135.33,-146.2 130.61,-136.72 125.72,-141.73"/>
<text text-anchor="middle" x="144.5" y="-120" font-family="Helvetica,sans-Serif" font-size="10.00"> &lt; dim, dim &gt;</text>
</g>
<!-- Node6&#45;&gt;Node5 -->
<g id="edge6" class="edge">
<title>Node6&#45;&gt;Node5</title>
<path fill="none" stroke="midnightblue" d="M150,-204.03C150,-194.86 150,-184.74 150,-176.79"/>
<polygon fill="midnightblue" stroke="midnightblue" points="146.5,-204.18 150,-214.18 153.5,-204.18 146.5,-204.18"/>
</g>
</g>
</svg>
