<?xml version="1.0" encoding="UTF-8" standalone="no"?>
<!DOCTYPE svg PUBLIC "-//W3C//DTD SVG 1.1//EN"
 "http://www.w3.org/Graphics/SVG/1.1/DTD/svg11.dtd">
<!-- Generated by graphviz version 2.47.1 (20210417.1919)
 -->
<!-- Title: PETScWrappers::SolverBase Pages: 1 -->
<svg width="363pt" height="496pt"
 viewBox="0.00 0.00 363.00 495.50" xmlns="http://www.w3.org/2000/svg" xmlns:xlink="http://www.w3.org/1999/xlink">
<g id="graph0" class="graph" transform="scale(1 1) rotate(0) translate(4 491.5)">
<title>PETScWrappers::SolverBase</title>
<polygon fill="white" stroke="transparent" points="-4,4 -4,-491.5 359,-491.5 359,4 -4,4"/>
<!-- Node1 -->
<g id="node1" class="node">
<title>Node1</title>
<g id="a_node1"><a xlink:title=" ">
<polygon fill="#bfbfbf" stroke="black" points="0,-240 0,-259 146,-259 146,-240 0,-240"/>
<text text-anchor="middle" x="73" y="-247" font-family="Helvetica,sans-Serif" font-size="10.00">PETScWrappers::SolverBase</text>
</a>
</g>
</g>
<!-- Node2 -->
<g id="node2" class="node">
<title>Node2</title>
<g id="a_node2"><a xlink:href="classPETScWrappers_1_1SolverBiCG.html" target="_top" xlink:title=" ">
<polygon fill="white" stroke="black" points="195,-468 195,-487 342,-487 342,-468 195,-468"/>
<text text-anchor="middle" x="268.5" y="-475" font-family="Helvetica,sans-Serif" font-size="10.00">PETScWrappers::SolverBiCG</text>
</a>
</g>
</g>
<!-- Node1&#45;&gt;Node2 -->
<g id="edge1" class="edge">
<title>Node1&#45;&gt;Node2</title>
<path fill="none" stroke="midnightblue" d="M78.21,-269.05C88.28,-310.84 117.84,-409.09 182,-458.5 186.94,-462.3 192.49,-465.38 198.33,-467.86"/>
<polygon fill="midnightblue" stroke="midnightblue" points="81.61,-268.23 75.97,-259.27 74.79,-269.8 81.61,-268.23"/>
</g>
<!-- Node3 -->
<g id="node3" class="node">
<title>Node3</title>
<g id="a_node3"><a xlink:href="classPETScWrappers_1_1SolverBicgstab.html" target="_top" xlink:title=" ">
<polygon fill="white" stroke="black" points="188,-430 188,-449 349,-449 349,-430 188,-430"/>
<text text-anchor="middle" x="268.5" y="-437" font-family="Helvetica,sans-Serif" font-size="10.00">PETScWrappers::SolverBicgstab</text>
</a>
</g>
</g>
<!-- Node1&#45;&gt;Node3 -->
<g id="edge2" class="edge">
<title>Node1&#45;&gt;Node3</title>
<path fill="none" stroke="midnightblue" d="M80.51,-268.88C93.64,-304.82 126.83,-381.68 182,-420.5 187.47,-424.35 193.59,-427.44 199.97,-429.91"/>
<polygon fill="midnightblue" stroke="midnightblue" points="83.7,-267.39 77.08,-259.12 77.1,-269.72 83.7,-267.39"/>
</g>
<!-- Node4 -->
<g id="node4" class="node">
<title>Node4</title>
<g id="a_node4"><a xlink:href="classPETScWrappers_1_1SolverCG.html" target="_top" xlink:title=" ">
<polygon fill="white" stroke="black" points="199.5,-392 199.5,-411 337.5,-411 337.5,-392 199.5,-392"/>
<text text-anchor="middle" x="268.5" y="-399" font-family="Helvetica,sans-Serif" font-size="10.00">PETScWrappers::SolverCG</text>
</a>
</g>
</g>
<!-- Node1&#45;&gt;Node4 -->
<g id="edge3" class="edge">
<title>Node1&#45;&gt;Node4</title>
<path fill="none" stroke="midnightblue" d="M83.7,-268.18C99.92,-297.44 135.38,-353.68 182,-382.5 188.21,-386.34 195.09,-389.4 202.19,-391.85"/>
<polygon fill="midnightblue" stroke="midnightblue" points="86.61,-266.2 78.79,-259.05 80.45,-269.52 86.61,-266.2"/>
</g>
<!-- Node5 -->
<g id="node5" class="node">
<title>Node5</title>
<g id="a_node5"><a xlink:href="classPETScWrappers_1_1SolverCGS.html" target="_top" xlink:title=" ">
<polygon fill="white" stroke="black" points="196,-354 196,-373 341,-373 341,-354 196,-354"/>
<text text-anchor="middle" x="268.5" y="-361" font-family="Helvetica,sans-Serif" font-size="10.00">PETScWrappers::SolverCGS</text>
</a>
</g>
</g>
<!-- Node1&#45;&gt;Node5 -->
<g id="edge4" class="edge">
<title>Node1&#45;&gt;Node5</title>
<path fill="none" stroke="midnightblue" d="M88.54,-266.8C107.69,-288.41 143.48,-324.93 182,-344.5 189.59,-348.36 197.95,-351.44 206.38,-353.89"/>
<polygon fill="midnightblue" stroke="midnightblue" points="91.02,-264.32 81.83,-259.06 85.73,-268.9 91.02,-264.32"/>
</g>
<!-- Node6 -->
<g id="node6" class="node">
<title>Node6</title>
<g id="a_node6"><a xlink:href="classPETScWrappers_1_1SolverCR.html" target="_top" xlink:title=" ">
<polygon fill="white" stroke="black" points="199.5,-316 199.5,-335 337.5,-335 337.5,-316 199.5,-316"/>
<text text-anchor="middle" x="268.5" y="-323" font-family="Helvetica,sans-Serif" font-size="10.00">PETScWrappers::SolverCR</text>
</a>
</g>
</g>
<!-- Node1&#45;&gt;Node6 -->
<g id="edge5" class="edge">
<title>Node1&#45;&gt;Node6</title>
<path fill="none" stroke="midnightblue" d="M97.83,-264.46C119.16,-277.27 151.66,-295.35 182,-306.5 192.13,-310.22 203.22,-313.34 213.96,-315.91"/>
<polygon fill="midnightblue" stroke="midnightblue" points="99.5,-261.38 89.14,-259.16 95.85,-267.36 99.5,-261.38"/>
</g>
<!-- Node7 -->
<g id="node7" class="node">
<title>Node7</title>
<g id="a_node7"><a xlink:href="classPETScWrappers_1_1SolverChebychev.html" target="_top" xlink:title=" ">
<polygon fill="white" stroke="black" points="182,-278 182,-297 355,-297 355,-278 182,-278"/>
<text text-anchor="middle" x="268.5" y="-285" font-family="Helvetica,sans-Serif" font-size="10.00">PETScWrappers::SolverChebychev</text>
</a>
</g>
</g>
<!-- Node1&#45;&gt;Node7 -->
<g id="edge6" class="edge">
<title>Node1&#45;&gt;Node7</title>
<path fill="none" stroke="midnightblue" d="M132.75,-261.04C160.35,-266.46 192.85,-272.84 219.02,-277.98"/>
<polygon fill="midnightblue" stroke="midnightblue" points="133.32,-257.58 122.83,-259.09 131.97,-264.45 133.32,-257.58"/>
</g>
<!-- Node8 -->
<g id="node8" class="node">
<title>Node8</title>
<g id="a_node8"><a xlink:href="classPETScWrappers_1_1SolverGMRES.html" target="_top" xlink:title=" ">
<polygon fill="white" stroke="black" points="188.5,-240 188.5,-259 348.5,-259 348.5,-240 188.5,-240"/>
<text text-anchor="middle" x="268.5" y="-247" font-family="Helvetica,sans-Serif" font-size="10.00">PETScWrappers::SolverGMRES</text>
</a>
</g>
</g>
<!-- Node1&#45;&gt;Node8 -->
<g id="edge7" class="edge">
<title>Node1&#45;&gt;Node8</title>
<path fill="none" stroke="midnightblue" d="M156.15,-249.5C166.78,-249.5 177.66,-249.5 188.24,-249.5"/>
<polygon fill="midnightblue" stroke="midnightblue" points="156.05,-246 146.05,-249.5 156.05,-253 156.05,-246"/>
</g>
<!-- Node9 -->
<g id="node9" class="node">
<title>Node9</title>
<g id="a_node9"><a xlink:href="classPETScWrappers_1_1SolverLSQR.html" target="_top" xlink:title=" ">
<polygon fill="white" stroke="black" points="193.5,-202 193.5,-221 343.5,-221 343.5,-202 193.5,-202"/>
<text text-anchor="middle" x="268.5" y="-209" font-family="Helvetica,sans-Serif" font-size="10.00">PETScWrappers::SolverLSQR</text>
</a>
</g>
</g>
<!-- Node1&#45;&gt;Node9 -->
<g id="edge8" class="edge">
<title>Node1&#45;&gt;Node9</title>
<path fill="none" stroke="midnightblue" d="M132.75,-237.96C160.35,-232.54 192.85,-226.16 219.02,-221.02"/>
<polygon fill="midnightblue" stroke="midnightblue" points="131.97,-234.55 122.83,-239.91 133.32,-241.42 131.97,-234.55"/>
</g>
<!-- Node10 -->
<g id="node10" class="node">
<title>Node10</title>
<g id="a_node10"><a xlink:href="classPETScWrappers_1_1SolverPreOnly.html" target="_top" xlink:title=" ">
<polygon fill="white" stroke="black" points="189.5,-164 189.5,-183 347.5,-183 347.5,-164 189.5,-164"/>
<text text-anchor="middle" x="268.5" y="-171" font-family="Helvetica,sans-Serif" font-size="10.00">PETScWrappers::SolverPreOnly</text>
</a>
</g>
</g>
<!-- Node1&#45;&gt;Node10 -->
<g id="edge9" class="edge">
<title>Node1&#45;&gt;Node10</title>
<path fill="none" stroke="midnightblue" d="M97.83,-234.54C119.16,-221.73 151.66,-203.65 182,-192.5 192.13,-188.78 203.22,-185.66 213.96,-183.09"/>
<polygon fill="midnightblue" stroke="midnightblue" points="95.85,-231.64 89.14,-239.84 99.5,-237.62 95.85,-231.64"/>
</g>
<!-- Node11 -->
<g id="node11" class="node">
<title>Node11</title>
<g id="a_node11"><a xlink:href="classPETScWrappers_1_1SolverRichardson.html" target="_top" xlink:title=" ">
<polygon fill="white" stroke="black" points="182,-126 182,-145 355,-145 355,-126 182,-126"/>
<text text-anchor="middle" x="268.5" y="-133" font-family="Helvetica,sans-Serif" font-size="10.00">PETScWrappers::SolverRichardson</text>
</a>
</g>
</g>
<!-- Node1&#45;&gt;Node11 -->
<g id="edge10" class="edge">
<title>Node1&#45;&gt;Node11</title>
<path fill="none" stroke="midnightblue" d="M88.54,-232.2C107.69,-210.59 143.48,-174.07 182,-154.5 189.59,-150.64 197.95,-147.56 206.38,-145.11"/>
<polygon fill="midnightblue" stroke="midnightblue" points="85.73,-230.1 81.83,-239.94 91.02,-234.68 85.73,-230.1"/>
</g>
<!-- Node12 -->
<g id="node12" class="node">
<title>Node12</title>
<g id="a_node12"><a xlink:href="classPETScWrappers_1_1SolverTCQMR.html" target="_top" xlink:title=" ">
<polygon fill="white" stroke="black" points="188.5,-88 188.5,-107 348.5,-107 348.5,-88 188.5,-88"/>
<text text-anchor="middle" x="268.5" y="-95" font-family="Helvetica,sans-Serif" font-size="10.00">PETScWrappers::SolverTCQMR</text>
</a>
</g>
</g>
<!-- Node1&#45;&gt;Node12 -->
<g id="edge11" class="edge">
<title>Node1&#45;&gt;Node12</title>
<path fill="none" stroke="midnightblue" d="M83.7,-230.82C99.92,-201.56 135.38,-145.32 182,-116.5 188.21,-112.66 195.09,-109.6 202.19,-107.15"/>
<polygon fill="midnightblue" stroke="midnightblue" points="80.45,-229.48 78.79,-239.95 86.61,-232.8 80.45,-229.48"/>
</g>
<!-- Node13 -->
<g id="node13" class="node">
<title>Node13</title>
<g id="a_node13"><a xlink:href="classPETScWrappers_1_1SolverTFQMR.html" target="_top" xlink:title=" ">
<polygon fill="white" stroke="black" points="189.5,-50 189.5,-69 347.5,-69 347.5,-50 189.5,-50"/>
<text text-anchor="middle" x="268.5" y="-57" font-family="Helvetica,sans-Serif" font-size="10.00">PETScWrappers::SolverTFQMR</text>
</a>
</g>
</g>
<!-- Node1&#45;&gt;Node13 -->
<g id="edge12" class="edge">
<title>Node1&#45;&gt;Node13</title>
<path fill="none" stroke="midnightblue" d="M80.51,-230.12C93.64,-194.18 126.83,-117.32 182,-78.5 187.47,-74.65 193.59,-71.56 199.97,-69.09"/>
<polygon fill="midnightblue" stroke="midnightblue" points="77.1,-229.28 77.08,-239.88 83.7,-231.61 77.1,-229.28"/>
</g>
<!-- Node14 -->
<g id="node14" class="node">
<title>Node14</title>
<g id="a_node14"><a xlink:href="classPETScWrappers_1_1SparseDirectMUMPS.html" target="_top" xlink:title=" ">
<polygon fill="white" stroke="black" points="192.5,-0.5 192.5,-30.5 344.5,-30.5 344.5,-0.5 192.5,-0.5"/>
<text text-anchor="start" x="200.5" y="-18.5" font-family="Helvetica,sans-Serif" font-size="10.00">PETScWrappers::SparseDirect</text>
<text text-anchor="middle" x="268.5" y="-7.5" font-family="Helvetica,sans-Serif" font-size="10.00">MUMPS</text>
</a>
</g>
</g>
<!-- Node1&#45;&gt;Node14 -->
<g id="edge13" class="edge">
<title>Node1&#45;&gt;Node14</title>
<path fill="none" stroke="midnightblue" d="M78.53,-230.01C89.16,-188.69 119.63,-91.89 182,-40.5 186.65,-36.66 191.88,-33.42 197.38,-30.67"/>
<polygon fill="midnightblue" stroke="midnightblue" points="75.09,-229.35 76.1,-239.9 81.89,-231.02 75.09,-229.35"/>
</g>
</g>
</svg>
