<?xml version="1.0" encoding="UTF-8" standalone="no"?>
<!DOCTYPE svg PUBLIC "-//W3C//DTD SVG 1.1//EN"
 "http://www.w3.org/Graphics/SVG/1.1/DTD/svg11.dtd">
<!-- Generated by graphviz version 2.47.1 (20210417.1919)
 -->
<!-- Title: Function&lt; dim, RangeNumberType &gt; Pages: 1 -->
<svg width="1307pt" height="1415pt"
 viewBox="0.00 0.00 1307.00 1414.50" xmlns="http://www.w3.org/2000/svg" xmlns:xlink="http://www.w3.org/1999/xlink">
<g id="graph0" class="graph" transform="scale(1 1) rotate(0) translate(4 1410.5)">
<title>Function&lt; dim, RangeNumberType &gt;</title>
<polygon fill="white" stroke="transparent" points="-4,4 -4,-1410.5 1303,-1410.5 1303,4 -4,4"/>
<!-- Node1 -->
<g id="node1" class="node">
<title>Node1</title>
<g id="a_node1"><a xlink:title=" ">
<polygon fill="#bfbfbf" stroke="black" points="438,-656.5 438,-686.5 586,-686.5 586,-656.5 438,-656.5"/>
<text text-anchor="start" x="446" y="-674.5" font-family="Helvetica,sans-Serif" font-size="10.00">Function&lt; dim, RangeNumber</text>
<text text-anchor="middle" x="512" y="-663.5" font-family="Helvetica,sans-Serif" font-size="10.00">Type &gt;</text>
</a>
</g>
</g>
<!-- Node5 -->
<g id="node5" class="node">
<title>Node5</title>
<g id="a_node5"><a xlink:href="classFunctions_1_1FlowFunction.html" target="_top" xlink:title=" ">
<polygon fill="white" stroke="black" points="949,-1368 949,-1387 1096,-1387 1096,-1368 949,-1368"/>
<text text-anchor="middle" x="1022.5" y="-1375" font-family="Helvetica,sans-Serif" font-size="10.00">Functions::FlowFunction&lt; 2 &gt;</text>
</a>
</g>
</g>
<!-- Node1&#45;&gt;Node5 -->
<g id="edge4" class="edge">
<title>Node1&#45;&gt;Node5</title>
<path fill="none" stroke="midnightblue" d="M514.81,-696.64C522.08,-792.96 551.34,-1137.85 604,-1232.5 670.68,-1352.35 847.79,-1375.53 948.61,-1378.6"/>
<polygon fill="midnightblue" stroke="midnightblue" points="518.3,-696.35 514.07,-686.64 511.32,-696.87 518.3,-696.35"/>
</g>
<!-- Node8 -->
<g id="node8" class="node">
<title>Node8</title>
<g id="a_node8"><a xlink:href="classAutoDerivativeFunction.html" target="_top" xlink:title=" ">
<polygon fill="white" stroke="black" points="730,-1220.5 730,-1250.5 849,-1250.5 849,-1220.5 730,-1220.5"/>
<text text-anchor="start" x="738" y="-1238.5" font-family="Helvetica,sans-Serif" font-size="10.00">AutoDerivativeFunction</text>
<text text-anchor="middle" x="789.5" y="-1227.5" font-family="Helvetica,sans-Serif" font-size="10.00">&lt; dim &gt;</text>
</a>
</g>
</g>
<!-- Node1&#45;&gt;Node8 -->
<g id="edge7" class="edge">
<title>Node1&#45;&gt;Node8</title>
<path fill="none" stroke="midnightblue" d="M515.61,-696.7C524.75,-781.67 557.38,-1056.39 604,-1130.5 633.44,-1177.29 691.72,-1205.3 734.94,-1220.47"/>
<polygon fill="midnightblue" stroke="midnightblue" points="519.08,-696.23 514.54,-686.66 512.11,-696.97 519.08,-696.23"/>
</g>
<!-- Node12 -->
<g id="node12" class="node">
<title>Node12</title>
<g id="a_node12"><a xlink:href="classFunctions_1_1Bessel1.html" target="_top" xlink:title=" ">
<polygon fill="white" stroke="black" points="739,-1171.5 739,-1201.5 840,-1201.5 840,-1171.5 739,-1171.5"/>
<text text-anchor="start" x="747" y="-1189.5" font-family="Helvetica,sans-Serif" font-size="10.00">Functions::Bessel1</text>
<text text-anchor="middle" x="789.5" y="-1178.5" font-family="Helvetica,sans-Serif" font-size="10.00">&lt; dim &gt;</text>
</a>
</g>
</g>
<!-- Node1&#45;&gt;Node12 -->
<g id="edge11" class="edge">
<title>Node1&#45;&gt;Node12</title>
<path fill="none" stroke="midnightblue" d="M512.73,-696.89C513.19,-764.92 522.2,-954.68 604,-1081.5 636.52,-1131.92 658.61,-1135.13 712,-1162.5 720.42,-1166.82 729.77,-1170.54 738.95,-1173.67"/>
<polygon fill="midnightblue" stroke="midnightblue" points="516.23,-696.69 512.73,-686.7 509.23,-696.7 516.23,-696.69"/>
</g>
<!-- Node13 -->
<g id="node13" class="node">
<title>Node13</title>
<g id="a_node13"><a xlink:href="classFunctions_1_1CSpline.html" target="_top" xlink:title=" ">
<polygon fill="white" stroke="black" points="739.5,-1122.5 739.5,-1152.5 839.5,-1152.5 839.5,-1122.5 739.5,-1122.5"/>
<text text-anchor="start" x="747.5" y="-1140.5" font-family="Helvetica,sans-Serif" font-size="10.00">Functions::CSpline</text>
<text text-anchor="middle" x="789.5" y="-1129.5" font-family="Helvetica,sans-Serif" font-size="10.00">&lt; dim &gt;</text>
</a>
</g>
</g>
<!-- Node1&#45;&gt;Node13 -->
<g id="edge12" class="edge">
<title>Node1&#45;&gt;Node13</title>
<path fill="none" stroke="midnightblue" d="M513.71,-696.76C516.57,-759.04 531.04,-922.85 604,-1032.5 637.24,-1082.45 658.61,-1086.13 712,-1113.5 720.55,-1117.88 730.04,-1121.65 739.36,-1124.8"/>
<polygon fill="midnightblue" stroke="midnightblue" points="517.2,-696.53 513.31,-686.67 510.21,-696.8 517.2,-696.53"/>
</g>
<!-- Node14 -->
<g id="node14" class="node">
<title>Node14</title>
<g id="a_node14"><a xlink:href="classFunctions_1_1CosineFunction.html" target="_top" xlink:title=" ">
<polygon fill="white" stroke="black" points="722.5,-1073.5 722.5,-1103.5 856.5,-1103.5 856.5,-1073.5 722.5,-1073.5"/>
<text text-anchor="start" x="730.5" y="-1091.5" font-family="Helvetica,sans-Serif" font-size="10.00">Functions::CosineFunction</text>
<text text-anchor="middle" x="789.5" y="-1080.5" font-family="Helvetica,sans-Serif" font-size="10.00">&lt; dim &gt;</text>
</a>
</g>
</g>
<!-- Node1&#45;&gt;Node14 -->
<g id="edge13" class="edge">
<title>Node1&#45;&gt;Node14</title>
<path fill="none" stroke="midnightblue" d="M514.96,-696.7C520.42,-752.91 539.87,-890.86 604,-983.5 638.15,-1032.83 658.61,-1037.13 712,-1064.5 718.44,-1067.8 725.42,-1070.75 732.46,-1073.36"/>
<polygon fill="midnightblue" stroke="midnightblue" points="518.43,-696.23 514.05,-686.59 511.46,-696.86 518.43,-696.23"/>
</g>
<!-- Node15 -->
<g id="node15" class="node">
<title>Node15</title>
<g id="a_node15"><a xlink:href="classFunctions_1_1CosineGradFunction.html" target="_top" xlink:title=" ">
<polygon fill="white" stroke="black" points="712,-1024.5 712,-1054.5 867,-1054.5 867,-1024.5 712,-1024.5"/>
<text text-anchor="start" x="720" y="-1042.5" font-family="Helvetica,sans-Serif" font-size="10.00">Functions::CosineGradFunction</text>
<text text-anchor="middle" x="789.5" y="-1031.5" font-family="Helvetica,sans-Serif" font-size="10.00">&lt; dim &gt;</text>
</a>
</g>
</g>
<!-- Node1&#45;&gt;Node15 -->
<g id="edge14" class="edge">
<title>Node1&#45;&gt;Node15</title>
<path fill="none" stroke="midnightblue" d="M516.55,-696.56C524.63,-746.32 548.19,-859.37 604,-935.5 639.32,-983.68 658.76,-988.41 712,-1015.5 718.57,-1018.85 725.71,-1021.84 732.88,-1024.47"/>
<polygon fill="midnightblue" stroke="midnightblue" points="520.01,-696.01 515.02,-686.67 513.09,-697.08 520.01,-696.01"/>
</g>
<!-- Node16 -->
<g id="node16" class="node">
<title>Node16</title>
<g id="a_node16"><a xlink:href="classFunctions_1_1CutOffFunctionBase.html" target="_top" xlink:title=" ">
<polygon fill="white" stroke="black" points="723.5,-975.5 723.5,-1005.5 855.5,-1005.5 855.5,-975.5 723.5,-975.5"/>
<text text-anchor="start" x="731.5" y="-993.5" font-family="Helvetica,sans-Serif" font-size="10.00">Functions::CutOffFunction</text>
<text text-anchor="middle" x="789.5" y="-982.5" font-family="Helvetica,sans-Serif" font-size="10.00">Base&lt; dim &gt;</text>
</a>
</g>
</g>
<!-- Node1&#45;&gt;Node16 -->
<g id="edge15" class="edge">
<title>Node1&#45;&gt;Node16</title>
<path fill="none" stroke="midnightblue" d="M518.73,-696.53C529.53,-739.46 556.22,-828.34 604,-888.5 640.82,-934.87 659.07,-939.96 712,-966.5 718.59,-969.81 725.74,-972.77 732.92,-975.4"/>
<polygon fill="midnightblue" stroke="midnightblue" points="522.09,-695.53 516.32,-686.64 515.29,-697.19 522.09,-695.53"/>
</g>
<!-- Node22 -->
<g id="node22" class="node">
<title>Node22</title>
<g id="a_node22"><a xlink:href="classFunctions_1_1ExpFunction.html" target="_top" xlink:title=" ">
<polygon fill="white" stroke="black" points="729.5,-926.5 729.5,-956.5 849.5,-956.5 849.5,-926.5 729.5,-926.5"/>
<text text-anchor="start" x="737.5" y="-944.5" font-family="Helvetica,sans-Serif" font-size="10.00">Functions::ExpFunction</text>
<text text-anchor="middle" x="789.5" y="-933.5" font-family="Helvetica,sans-Serif" font-size="10.00">&lt; dim &gt;</text>
</a>
</g>
</g>
<!-- Node1&#45;&gt;Node22 -->
<g id="edge21" class="edge">
<title>Node1&#45;&gt;Node22</title>
<path fill="none" stroke="midnightblue" d="M521.9,-696.03C535.52,-731.17 564.22,-796.55 604,-841.5 642.9,-885.45 659.37,-891.52 712,-917.5 718.74,-920.83 726.04,-923.82 733.36,-926.47"/>
<polygon fill="midnightblue" stroke="midnightblue" points="525.12,-694.67 518.31,-686.56 518.58,-697.15 525.12,-694.67"/>
</g>
<!-- Node23 -->
<g id="node23" class="node">
<title>Node23</title>
<g id="a_node23"><a xlink:href="classFunctions_1_1FlowFunction.html" target="_top" xlink:title=" ">
<polygon fill="white" stroke="black" points="727.5,-1286.5 727.5,-1316.5 851.5,-1316.5 851.5,-1286.5 727.5,-1286.5"/>
<text text-anchor="start" x="735.5" y="-1304.5" font-family="Helvetica,sans-Serif" font-size="10.00">Functions::FlowFunction</text>
<text text-anchor="middle" x="789.5" y="-1293.5" font-family="Helvetica,sans-Serif" font-size="10.00">&lt; dim &gt;</text>
</a>
</g>
</g>
<!-- Node1&#45;&gt;Node23 -->
<g id="edge22" class="edge">
<title>Node1&#45;&gt;Node23</title>
<path fill="none" stroke="midnightblue" d="M515.09,-696.97C522.96,-788.05 552.9,-1096.57 604,-1179.5 637.14,-1233.28 703.87,-1268.32 747.34,-1286.5"/>
<polygon fill="midnightblue" stroke="midnightblue" points="518.56,-696.41 514.23,-686.74 511.58,-697 518.56,-696.41"/>
</g>
<!-- Node26 -->
<g id="node26" class="node">
<title>Node26</title>
<g id="a_node26"><a xlink:href="classFunctions_1_1FourierCosineFunction.html" target="_top" xlink:title=" ">
<polygon fill="white" stroke="black" points="726.5,-877.5 726.5,-907.5 852.5,-907.5 852.5,-877.5 726.5,-877.5"/>
<text text-anchor="start" x="734.5" y="-895.5" font-family="Helvetica,sans-Serif" font-size="10.00">Functions::FourierCosine</text>
<text text-anchor="middle" x="789.5" y="-884.5" font-family="Helvetica,sans-Serif" font-size="10.00">Function&lt; dim &gt;</text>
</a>
</g>
</g>
<!-- Node1&#45;&gt;Node26 -->
<g id="edge26" class="edge">
<title>Node1&#45;&gt;Node26</title>
<path fill="none" stroke="midnightblue" d="M526.72,-695.6C542.85,-722.54 571.56,-766.46 604,-797.5 645.5,-837.22 660.1,-843.89 712,-868.5 718.92,-871.78 726.39,-874.76 733.87,-877.41"/>
<polygon fill="midnightblue" stroke="midnightblue" points="529.65,-693.67 521.56,-686.83 523.62,-697.22 529.65,-693.67"/>
</g>
<!-- Node27 -->
<g id="node27" class="node">
<title>Node27</title>
<g id="a_node27"><a xlink:href="classFunctions_1_1FourierCosineSum.html" target="_top" xlink:title=" ">
<polygon fill="white" stroke="black" points="726.5,-828.5 726.5,-858.5 852.5,-858.5 852.5,-828.5 726.5,-828.5"/>
<text text-anchor="start" x="734.5" y="-846.5" font-family="Helvetica,sans-Serif" font-size="10.00">Functions::FourierCosine</text>
<text text-anchor="middle" x="789.5" y="-835.5" font-family="Helvetica,sans-Serif" font-size="10.00">Sum&lt; dim &gt;</text>
</a>
</g>
</g>
<!-- Node1&#45;&gt;Node27 -->
<g id="edge27" class="edge">
<title>Node1&#45;&gt;Node27</title>
<path fill="none" stroke="midnightblue" d="M534.26,-693.97C551.97,-712.02 578.35,-737.42 604,-756.5 648.58,-789.67 661.17,-797.04 712,-819.5 719.38,-822.76 727.35,-825.78 735.25,-828.49"/>
<polygon fill="midnightblue" stroke="midnightblue" points="536.71,-691.46 527.23,-686.72 531.68,-696.34 536.71,-691.46"/>
</g>
<!-- Node28 -->
<g id="node28" class="node">
<title>Node28</title>
<g id="a_node28"><a xlink:href="classFunctions_1_1FourierSineFunction.html" target="_top" xlink:title=" ">
<polygon fill="white" stroke="black" points="713.5,-779.5 713.5,-809.5 865.5,-809.5 865.5,-779.5 713.5,-779.5"/>
<text text-anchor="start" x="721.5" y="-797.5" font-family="Helvetica,sans-Serif" font-size="10.00">Functions::FourierSineFunction</text>
<text text-anchor="middle" x="789.5" y="-786.5" font-family="Helvetica,sans-Serif" font-size="10.00">&lt; dim &gt;</text>
</a>
</g>
</g>
<!-- Node1&#45;&gt;Node28 -->
<g id="edge28" class="edge">
<title>Node1&#45;&gt;Node28</title>
<path fill="none" stroke="midnightblue" d="M546.67,-691.91C563.63,-701.88 584.65,-713.8 604,-723.5 650.79,-746.97 662.96,-752.19 712,-770.5 720.22,-773.57 729.02,-776.58 737.63,-779.37"/>
<polygon fill="midnightblue" stroke="midnightblue" points="548.09,-688.68 537.71,-686.59 544.52,-694.7 548.09,-688.68"/>
</g>
<!-- Node29 -->
<g id="node29" class="node">
<title>Node29</title>
<g id="a_node29"><a xlink:href="classFunctions_1_1FourierSineSum.html" target="_top" xlink:title=" ">
<polygon fill="white" stroke="black" points="722,-730.5 722,-760.5 857,-760.5 857,-730.5 722,-730.5"/>
<text text-anchor="start" x="730" y="-748.5" font-family="Helvetica,sans-Serif" font-size="10.00">Functions::FourierSineSum</text>
<text text-anchor="middle" x="789.5" y="-737.5" font-family="Helvetica,sans-Serif" font-size="10.00">&lt; dim &gt;</text>
</a>
</g>
</g>
<!-- Node1&#45;&gt;Node29 -->
<g id="edge29" class="edge">
<title>Node1&#45;&gt;Node29</title>
<path fill="none" stroke="midnightblue" d="M572.1,-689.4C582.7,-692.5 593.66,-695.65 604,-698.5 644.79,-709.74 690.91,-721.49 726.84,-730.43"/>
<polygon fill="midnightblue" stroke="midnightblue" points="573.07,-686.04 562.49,-686.56 571.09,-692.75 573.07,-686.04"/>
</g>
<!-- Node30 -->
<g id="node30" class="node">
<title>Node30</title>
<g id="a_node30"><a xlink:href="classFunctions_1_1InterpolatedTensorProductGridData.html" target="_top" xlink:title=" ">
<polygon fill="white" stroke="black" points="716.5,-681.5 716.5,-711.5 862.5,-711.5 862.5,-681.5 716.5,-681.5"/>
<text text-anchor="start" x="724.5" y="-699.5" font-family="Helvetica,sans-Serif" font-size="10.00">Functions::InterpolatedTensor</text>
<text text-anchor="middle" x="789.5" y="-688.5" font-family="Helvetica,sans-Serif" font-size="10.00">ProductGridData&lt; dim &gt;</text>
</a>
</g>
</g>
<!-- Node1&#45;&gt;Node30 -->
<g id="edge30" class="edge">
<title>Node1&#45;&gt;Node30</title>
<path fill="none" stroke="midnightblue" d="M596.21,-679.05C634.56,-682.53 679.62,-686.62 716.49,-689.97"/>
<polygon fill="midnightblue" stroke="midnightblue" points="596.38,-675.55 586.11,-678.13 595.75,-682.52 596.38,-675.55"/>
</g>
<!-- Node31 -->
<g id="node31" class="node">
<title>Node31</title>
<g id="a_node31"><a xlink:href="classFunctions_1_1InterpolatedUniformGridData.html" target="_top" xlink:title=" ">
<polygon fill="white" stroke="black" points="714,-632.5 714,-662.5 865,-662.5 865,-632.5 714,-632.5"/>
<text text-anchor="start" x="722" y="-650.5" font-family="Helvetica,sans-Serif" font-size="10.00">Functions::InterpolatedUniform</text>
<text text-anchor="middle" x="789.5" y="-639.5" font-family="Helvetica,sans-Serif" font-size="10.00">GridData&lt; dim &gt;</text>
</a>
</g>
</g>
<!-- Node1&#45;&gt;Node31 -->
<g id="edge31" class="edge">
<title>Node1&#45;&gt;Node31</title>
<path fill="none" stroke="midnightblue" d="M596.45,-664.23C633.75,-660.98 677.37,-657.18 713.61,-654.02"/>
<polygon fill="midnightblue" stroke="midnightblue" points="595.76,-660.78 586.11,-665.13 596.37,-667.75 595.76,-660.78"/>
</g>
<!-- Node32 -->
<g id="node32" class="node">
<title>Node32</title>
<g id="a_node32"><a xlink:href="classFunctions_1_1JumpFunction.html" target="_top" xlink:title=" ">
<polygon fill="white" stroke="black" points="726,-583.5 726,-613.5 853,-613.5 853,-583.5 726,-583.5"/>
<text text-anchor="start" x="734" y="-601.5" font-family="Helvetica,sans-Serif" font-size="10.00">Functions::JumpFunction</text>
<text text-anchor="middle" x="789.5" y="-590.5" font-family="Helvetica,sans-Serif" font-size="10.00">&lt; dim &gt;</text>
</a>
</g>
</g>
<!-- Node1&#45;&gt;Node32 -->
<g id="edge32" class="edge">
<title>Node1&#45;&gt;Node32</title>
<path fill="none" stroke="midnightblue" d="M579.45,-653.89C626.01,-641.56 687.58,-625.24 731.82,-613.52"/>
<polygon fill="midnightblue" stroke="midnightblue" points="578.52,-650.52 569.75,-656.46 580.31,-657.28 578.52,-650.52"/>
</g>
<!-- Node33 -->
<g id="node33" class="node">
<title>Node33</title>
<g id="a_node33"><a xlink:href="classFunctions_1_1LevelSet_1_1Plane.html" target="_top" xlink:title=" ">
<polygon fill="white" stroke="black" points="737.5,-534.5 737.5,-564.5 841.5,-564.5 841.5,-534.5 737.5,-534.5"/>
<text text-anchor="start" x="745.5" y="-552.5" font-family="Helvetica,sans-Serif" font-size="10.00">Functions::LevelSet</text>
<text text-anchor="middle" x="789.5" y="-541.5" font-family="Helvetica,sans-Serif" font-size="10.00">::Plane&lt; dim &gt;</text>
</a>
</g>
</g>
<!-- Node1&#45;&gt;Node33 -->
<g id="edge33" class="edge">
<title>Node1&#45;&gt;Node33</title>
<path fill="none" stroke="midnightblue" d="M547.44,-651.12C564.28,-641.44 584.97,-629.94 604,-620.5 650.89,-597.23 662.96,-591.81 712,-573.5 720.22,-570.43 729.02,-567.42 737.63,-564.63"/>
<polygon fill="midnightblue" stroke="midnightblue" points="545.42,-648.25 538.52,-656.29 548.93,-654.31 545.42,-648.25"/>
</g>
<!-- Node34 -->
<g id="node34" class="node">
<title>Node34</title>
<g id="a_node34"><a xlink:href="classFunctions_1_1LevelSet_1_1Sphere.html" target="_top" xlink:title=" ">
<polygon fill="white" stroke="black" points="737.5,-485.5 737.5,-515.5 841.5,-515.5 841.5,-485.5 737.5,-485.5"/>
<text text-anchor="start" x="745.5" y="-503.5" font-family="Helvetica,sans-Serif" font-size="10.00">Functions::LevelSet</text>
<text text-anchor="middle" x="789.5" y="-492.5" font-family="Helvetica,sans-Serif" font-size="10.00">::Sphere&lt; dim &gt;</text>
</a>
</g>
</g>
<!-- Node1&#45;&gt;Node34 -->
<g id="edge34" class="edge">
<title>Node1&#45;&gt;Node34</title>
<path fill="none" stroke="midnightblue" d="M531.42,-648.35C548.6,-627.84 575.75,-598.05 604,-577.5 647.24,-546.05 662.35,-544.34 712,-524.5 720.01,-521.3 728.63,-518.24 737.09,-515.44"/>
<polygon fill="midnightblue" stroke="midnightblue" points="528.57,-646.3 524.91,-656.25 533.97,-650.75 528.57,-646.3"/>
</g>
<!-- Node35 -->
<g id="node35" class="node">
<title>Node35</title>
<g id="a_node35"><a xlink:href="classFunctions_1_1Monomial.html" target="_top" xlink:title=" ">
<polygon fill="white" stroke="black" points="736,-436.5 736,-466.5 843,-466.5 843,-436.5 736,-436.5"/>
<text text-anchor="start" x="744" y="-454.5" font-family="Helvetica,sans-Serif" font-size="10.00">Functions::Monomial</text>
<text text-anchor="middle" x="789.5" y="-443.5" font-family="Helvetica,sans-Serif" font-size="10.00">&lt; dim &gt;</text>
</a>
</g>
</g>
<!-- Node1&#45;&gt;Node35 -->
<g id="edge35" class="edge">
<title>Node1&#45;&gt;Node35</title>
<path fill="none" stroke="midnightblue" d="M523.47,-646.99C537.76,-615.98 566.01,-562.5 604,-528.5 641.5,-494.93 695.71,-474.69 735.67,-463.44"/>
<polygon fill="midnightblue" stroke="midnightblue" points="520.23,-645.67 519.33,-656.22 526.62,-648.53 520.23,-645.67"/>
</g>
<!-- Node36 -->
<g id="node36" class="node">
<title>Node36</title>
<g id="a_node36"><a xlink:href="classFunctions_1_1PillowFunction.html" target="_top" xlink:title=" ">
<polygon fill="white" stroke="black" points="725,-387.5 725,-417.5 854,-417.5 854,-387.5 725,-387.5"/>
<text text-anchor="start" x="733" y="-405.5" font-family="Helvetica,sans-Serif" font-size="10.00">Functions::PillowFunction</text>
<text text-anchor="middle" x="789.5" y="-394.5" font-family="Helvetica,sans-Serif" font-size="10.00">&lt; dim &gt;</text>
</a>
</g>
</g>
<!-- Node1&#45;&gt;Node36 -->
<g id="edge36" class="edge">
<title>Node1&#45;&gt;Node36</title>
<path fill="none" stroke="midnightblue" d="M518.51,-646.33C528.7,-605.3 554.12,-523.66 604,-474.5 636.69,-442.28 685.46,-424.08 724.65,-414.05"/>
<polygon fill="midnightblue" stroke="midnightblue" points="515.05,-645.76 516.14,-656.3 521.86,-647.38 515.05,-645.76"/>
</g>
<!-- Node37 -->
<g id="node37" class="node">
<title>Node37</title>
<g id="a_node37"><a xlink:href="classFunctions_1_1Polynomial.html" target="_top" xlink:title=" ">
<polygon fill="white" stroke="black" points="733,-338.5 733,-368.5 846,-368.5 846,-338.5 733,-338.5"/>
<text text-anchor="start" x="741" y="-356.5" font-family="Helvetica,sans-Serif" font-size="10.00">Functions::Polynomial</text>
<text text-anchor="middle" x="789.5" y="-345.5" font-family="Helvetica,sans-Serif" font-size="10.00">&lt; dim &gt;</text>
</a>
</g>
</g>
<!-- Node1&#45;&gt;Node37 -->
<g id="edge37" class="edge">
<title>Node1&#45;&gt;Node37</title>
<path fill="none" stroke="midnightblue" d="M515.39,-646.06C521.36,-596.27 541.31,-485.17 604,-420.5 638.04,-385.39 691.89,-368.59 732.64,-360.6"/>
<polygon fill="midnightblue" stroke="midnightblue" points="511.88,-645.93 514.26,-656.26 518.84,-646.7 511.88,-645.93"/>
</g>
<!-- Node38 -->
<g id="node38" class="node">
<title>Node38</title>
<g id="a_node38"><a xlink:href="classFunctions_1_1Q1WedgeFunction.html" target="_top" xlink:title=" ">
<polygon fill="white" stroke="black" points="716.5,-289.5 716.5,-319.5 862.5,-319.5 862.5,-289.5 716.5,-289.5"/>
<text text-anchor="start" x="724.5" y="-307.5" font-family="Helvetica,sans-Serif" font-size="10.00">Functions::Q1WedgeFunction</text>
<text text-anchor="middle" x="789.5" y="-296.5" font-family="Helvetica,sans-Serif" font-size="10.00">&lt; dim &gt;</text>
</a>
</g>
</g>
<!-- Node1&#45;&gt;Node38 -->
<g id="edge38" class="edge">
<title>Node1&#45;&gt;Node38</title>
<path fill="none" stroke="midnightblue" d="M513.27,-646.21C515.26,-588.87 528.07,-447.78 604,-367.5 633.19,-336.64 678.1,-320.9 716.3,-312.86"/>
<polygon fill="midnightblue" stroke="midnightblue" points="509.77,-646.12 513.01,-656.21 516.77,-646.31 509.77,-646.12"/>
</g>
<!-- Node39 -->
<g id="node39" class="node">
<title>Node39</title>
<g id="a_node39"><a xlink:href="classFunctions_1_1SlitSingularityFunction.html" target="_top" xlink:title=" ">
<polygon fill="white" stroke="black" points="727,-240.5 727,-270.5 852,-270.5 852,-240.5 727,-240.5"/>
<text text-anchor="start" x="735" y="-258.5" font-family="Helvetica,sans-Serif" font-size="10.00">Functions::SlitSingularity</text>
<text text-anchor="middle" x="789.5" y="-247.5" font-family="Helvetica,sans-Serif" font-size="10.00">Function&lt; dim &gt;</text>
</a>
</g>
</g>
<!-- Node1&#45;&gt;Node39 -->
<g id="edge39" class="edge">
<title>Node1&#45;&gt;Node39</title>
<path fill="none" stroke="midnightblue" d="M516.34,-646.2C526.41,-573.43 558.62,-365.62 604,-316.5 635.48,-282.43 686.37,-267.36 726.74,-260.71"/>
<polygon fill="midnightblue" stroke="midnightblue" points="512.84,-645.92 514.96,-656.3 519.78,-646.87 512.84,-645.92"/>
</g>
<!-- Node40 -->
<g id="node40" class="node">
<title>Node40</title>
<g id="a_node40"><a xlink:href="classFunctions_1_1Spherical.html" target="_top" xlink:title=" ">
<polygon fill="white" stroke="black" points="736.5,-191.5 736.5,-221.5 842.5,-221.5 842.5,-191.5 736.5,-191.5"/>
<text text-anchor="start" x="744.5" y="-209.5" font-family="Helvetica,sans-Serif" font-size="10.00">Functions::Spherical</text>
<text text-anchor="middle" x="789.5" y="-198.5" font-family="Helvetica,sans-Serif" font-size="10.00">&lt; dim &gt;</text>
</a>
</g>
</g>
<!-- Node1&#45;&gt;Node40 -->
<g id="edge40" class="edge">
<title>Node1&#45;&gt;Node40</title>
<path fill="none" stroke="midnightblue" d="M515.4,-646.31C523.47,-566.72 552.07,-322.49 604,-265.5 637.75,-228.46 694.71,-214.55 736.44,-209.39"/>
<polygon fill="midnightblue" stroke="midnightblue" points="511.9,-646.12 514.4,-656.42 518.87,-646.81 511.9,-646.12"/>
</g>
<!-- Node41 -->
<g id="node41" class="node">
<title>Node41</title>
<g id="a_node41"><a xlink:href="classFunctions_1_1SquareFunction.html" target="_top" xlink:title=" ">
<polygon fill="white" stroke="black" points="722.5,-142.5 722.5,-172.5 856.5,-172.5 856.5,-142.5 722.5,-142.5"/>
<text text-anchor="start" x="730.5" y="-160.5" font-family="Helvetica,sans-Serif" font-size="10.00">Functions::SquareFunction</text>
<text text-anchor="middle" x="789.5" y="-149.5" font-family="Helvetica,sans-Serif" font-size="10.00">&lt; dim &gt;</text>
</a>
</g>
</g>
<!-- Node1&#45;&gt;Node41 -->
<g id="edge41" class="edge">
<title>Node1&#45;&gt;Node41</title>
<path fill="none" stroke="midnightblue" d="M514.66,-646.24C520.84,-559.91 545.21,-278.39 604,-213.5 633.89,-180.51 682.52,-166.68 722.35,-161.01"/>
<polygon fill="midnightblue" stroke="midnightblue" points="511.16,-646.21 513.95,-656.43 518.14,-646.7 511.16,-646.21"/>
</g>
<!-- Node42 -->
<g id="node42" class="node">
<title>Node42</title>
<g id="a_node42"><a xlink:href="classFunction.html" target="_top" xlink:title=" ">
<polygon fill="white" stroke="black" points="751,-104 751,-123 828,-123 828,-104 751,-104"/>
<text text-anchor="middle" x="789.5" y="-111" font-family="Helvetica,sans-Serif" font-size="10.00">Function&lt; 2 &gt;</text>
</a>
</g>
</g>
<!-- Node1&#45;&gt;Node42 -->
<g id="edge42" class="edge">
<title>Node1&#45;&gt;Node42</title>
<path fill="none" stroke="orange" stroke-dasharray="5,2" d="M513.78,-646.35C517.23,-552.37 534.16,-223.46 604,-151.5 642.04,-112.31 708.96,-108.08 750.9,-109.87"/>
<polygon fill="orange" stroke="orange" points="510.28,-646.27 513.43,-656.38 517.28,-646.51 510.28,-646.27"/>
<text text-anchor="middle" x="649" y="-154.5" font-family="Helvetica,sans-Serif" font-size="10.00"> &lt; 2 &gt;</text>
</g>
<!-- Node46 -->
<g id="node46" class="node">
<title>Node46</title>
<g id="a_node46"><a xlink:href="classFunction.html" target="_top" xlink:title=" ">
<polygon fill="white" stroke="black" points="722.5,-51.5 722.5,-81.5 856.5,-81.5 856.5,-51.5 722.5,-51.5"/>
<text text-anchor="start" x="730.5" y="-69.5" font-family="Helvetica,sans-Serif" font-size="10.00">Function&lt; dim, VectorType</text>
<text text-anchor="middle" x="789.5" y="-58.5" font-family="Helvetica,sans-Serif" font-size="10.00">::value_type &gt;</text>
</a>
</g>
</g>
<!-- Node1&#45;&gt;Node46 -->
<g id="edge46" class="edge">
<title>Node1&#45;&gt;Node46</title>
<path fill="none" stroke="orange" stroke-dasharray="5,2" d="M513.05,-646.09C513.81,-544.08 522.2,-165.99 604,-87.5 634.7,-58.04 682.8,-53.37 722.18,-55.77"/>
<polygon fill="orange" stroke="orange" points="509.55,-646.35 512.99,-656.37 516.55,-646.39 509.55,-646.35"/>
<text text-anchor="start" x="604" y="-101.5" font-family="Helvetica,sans-Serif" font-size="10.00"> &lt; dim, VectorType::</text>
<text text-anchor="middle" x="649" y="-90.5" font-family="Helvetica,sans-Serif" font-size="10.00">value_type &gt;</text>
</g>
<!-- Node48 -->
<g id="node48" class="node">
<title>Node48</title>
<g id="a_node48"><a xlink:href="classFunction.html" target="_top" xlink:title=" ">
<polygon fill="white" stroke="red" points="728.5,-8 728.5,-27 850.5,-27 850.5,-8 728.5,-8"/>
<text text-anchor="middle" x="789.5" y="-15" font-family="Helvetica,sans-Serif" font-size="10.00">Function&lt; dim, double &gt;</text>
</a>
</g>
</g>
<!-- Node1&#45;&gt;Node48 -->
<g id="edge48" class="edge">
<title>Node1&#45;&gt;Node48</title>
<path fill="none" stroke="orange" stroke-dasharray="5,2" d="M512.77,-646.22C512.35,-539.55 516.5,-127.77 604,-41.5 635.97,-9.98 687.62,-5.61 728.15,-8.2"/>
<polygon fill="orange" stroke="orange" points="509.27,-646.39 512.83,-656.37 516.27,-646.35 509.27,-646.39"/>
<text text-anchor="middle" x="649" y="-44.5" font-family="Helvetica,sans-Serif" font-size="10.00"> &lt; dim, double &gt;</text>
</g>
<!-- Node2 -->
<g id="node2" class="node">
<title>Node2</title>
<g id="a_node2"><a xlink:href="classFunctionTime.html" target="_top" xlink:title=" ">
<polygon fill="white" stroke="black" points="279,-688 279,-729 401,-729 401,-688 279,-688"/>
<text text-anchor="start" x="287" y="-717" font-family="Helvetica,sans-Serif" font-size="10.00">FunctionTime&lt; numbers</text>
<text text-anchor="start" x="287" y="-706" font-family="Helvetica,sans-Serif" font-size="10.00">::NumberTraits&lt; double</text>
<text text-anchor="middle" x="340" y="-695" font-family="Helvetica,sans-Serif" font-size="10.00"> &gt;::real_type &gt;</text>
</a>
</g>
</g>
<!-- Node2&#45;&gt;Node1 -->
<g id="edge1" class="edge">
<title>Node2&#45;&gt;Node1</title>
<path fill="none" stroke="midnightblue" d="M411.36,-693.19C421.42,-691 431.76,-688.75 441.8,-686.56"/>
<polygon fill="midnightblue" stroke="midnightblue" points="410.44,-689.8 401.41,-695.35 411.93,-696.64 410.44,-689.8"/>
</g>
<!-- Node3 -->
<g id="node3" class="node">
<title>Node3</title>
<g id="a_node3"><a xlink:href="classFunctionTime.html" target="_top" xlink:title=" ">
<polygon fill="white" stroke="black" points="0,-699 0,-718 128,-718 128,-699 0,-699"/>
<text text-anchor="middle" x="64" y="-706" font-family="Helvetica,sans-Serif" font-size="10.00">FunctionTime&lt; Number &gt;</text>
</a>
</g>
</g>
<!-- Node3&#45;&gt;Node2 -->
<g id="edge2" class="edge">
<title>Node3&#45;&gt;Node2</title>
<path fill="none" stroke="orange" stroke-dasharray="5,2" d="M138.27,-708.5C182.26,-708.5 237.53,-708.5 278.93,-708.5"/>
<polygon fill="orange" stroke="orange" points="138.21,-705 128.21,-708.5 138.21,-712 138.21,-705"/>
<text text-anchor="start" x="146" y="-722.5" font-family="Helvetica,sans-Serif" font-size="10.00"> &lt; numbers::NumberTraits</text>
<text text-anchor="middle" x="203.5" y="-711.5" font-family="Helvetica,sans-Serif" font-size="10.00">&lt; double &gt;::real_type &gt;</text>
</g>
<!-- Node4 -->
<g id="node4" class="node">
<title>Node4</title>
<g id="a_node4"><a xlink:href="classSubscriptor.html" target="_top" xlink:title=" ">
<polygon fill="white" stroke="black" points="307,-650 307,-669 373,-669 373,-650 307,-650"/>
<text text-anchor="middle" x="340" y="-657" font-family="Helvetica,sans-Serif" font-size="10.00">Subscriptor</text>
</a>
</g>
</g>
<!-- Node4&#45;&gt;Node1 -->
<g id="edge3" class="edge">
<title>Node4&#45;&gt;Node1</title>
<path fill="none" stroke="midnightblue" d="M383.72,-662.52C400.15,-663.68 419.4,-665.03 437.89,-666.34"/>
<polygon fill="midnightblue" stroke="midnightblue" points="383.6,-659 373.38,-661.79 383.1,-665.98 383.6,-659"/>
</g>
<!-- Node6 -->
<g id="node6" class="node">
<title>Node6</title>
<g id="a_node6"><a xlink:href="classFunctions_1_1Kovasznay.html" target="_top" xlink:title=" ">
<polygon fill="white" stroke="black" points="1168.5,-1387 1168.5,-1406 1282.5,-1406 1282.5,-1387 1168.5,-1387"/>
<text text-anchor="middle" x="1225.5" y="-1394" font-family="Helvetica,sans-Serif" font-size="10.00">Functions::Kovasznay</text>
</a>
</g>
</g>
<!-- Node5&#45;&gt;Node6 -->
<g id="edge5" class="edge">
<title>Node5&#45;&gt;Node6</title>
<path fill="none" stroke="midnightblue" d="M1106.24,-1385.32C1127.18,-1387.3 1149.18,-1389.38 1168.44,-1391.2"/>
<polygon fill="midnightblue" stroke="midnightblue" points="1106.35,-1381.82 1096.07,-1384.36 1105.69,-1388.79 1106.35,-1381.82"/>
</g>
<!-- Node7 -->
<g id="node7" class="node">
<title>Node7</title>
<g id="a_node7"><a xlink:href="classFunctions_1_1StokesLSingularity.html" target="_top" xlink:title=" ">
<polygon fill="white" stroke="black" points="1152,-1349 1152,-1368 1299,-1368 1299,-1349 1152,-1349"/>
<text text-anchor="middle" x="1225.5" y="-1356" font-family="Helvetica,sans-Serif" font-size="10.00">Functions::StokesLSingularity</text>
</a>
</g>
</g>
<!-- Node5&#45;&gt;Node7 -->
<g id="edge6" class="edge">
<title>Node5&#45;&gt;Node7</title>
<path fill="none" stroke="midnightblue" d="M1106.37,-1369.67C1121.41,-1368.25 1136.98,-1366.77 1151.7,-1365.38"/>
<polygon fill="midnightblue" stroke="midnightblue" points="1105.69,-1366.21 1096.07,-1370.64 1106.35,-1373.18 1105.69,-1366.21"/>
</g>
<!-- Node9 -->
<g id="node9" class="node">
<title>Node9</title>
<g id="a_node9"><a xlink:href="classFunctionDerivative.html" target="_top" xlink:title=" ">
<polygon fill="white" stroke="black" points="973.5,-1220.5 973.5,-1250.5 1071.5,-1250.5 1071.5,-1220.5 973.5,-1220.5"/>
<text text-anchor="start" x="981.5" y="-1238.5" font-family="Helvetica,sans-Serif" font-size="10.00">FunctionDerivative</text>
<text text-anchor="middle" x="1022.5" y="-1227.5" font-family="Helvetica,sans-Serif" font-size="10.00">&lt; dim &gt;</text>
</a>
</g>
</g>
<!-- Node8&#45;&gt;Node9 -->
<g id="edge8" class="edge">
<title>Node8&#45;&gt;Node9</title>
<path fill="none" stroke="midnightblue" d="M859.25,-1235.5C896.03,-1235.5 940.43,-1235.5 973.48,-1235.5"/>
<polygon fill="midnightblue" stroke="midnightblue" points="859.09,-1232 849.09,-1235.5 859.09,-1239 859.09,-1232"/>
</g>
<!-- Node10 -->
<g id="node10" class="node">
<title>Node10</title>
<g id="a_node10"><a xlink:href="classFunctionParser.html" target="_top" xlink:title=" ">
<polygon fill="white" stroke="black" points="964.5,-1182 964.5,-1201 1080.5,-1201 1080.5,-1182 964.5,-1182"/>
<text text-anchor="middle" x="1022.5" y="-1189" font-family="Helvetica,sans-Serif" font-size="10.00">FunctionParser&lt; dim &gt;</text>
</a>
</g>
</g>
<!-- Node8&#45;&gt;Node10 -->
<g id="edge9" class="edge">
<title>Node8&#45;&gt;Node10</title>
<path fill="none" stroke="midnightblue" d="M859.07,-1222.44C895.19,-1215.56 938.69,-1207.27 971.58,-1201.01"/>
<polygon fill="midnightblue" stroke="midnightblue" points="858.26,-1219.03 849.09,-1224.34 859.57,-1225.91 858.26,-1219.03"/>
</g>
<!-- Node11 -->
<g id="node11" class="node">
<title>Node11</title>
<g id="a_node11"><a xlink:href="classFunctions_1_1ParsedFunction.html" target="_top" xlink:title=" ">
<polygon fill="white" stroke="black" points="955.5,-1132.5 955.5,-1162.5 1089.5,-1162.5 1089.5,-1132.5 955.5,-1132.5"/>
<text text-anchor="start" x="963.5" y="-1150.5" font-family="Helvetica,sans-Serif" font-size="10.00">Functions::ParsedFunction</text>
<text text-anchor="middle" x="1022.5" y="-1139.5" font-family="Helvetica,sans-Serif" font-size="10.00">&lt; dim &gt;</text>
</a>
</g>
</g>
<!-- Node8&#45;&gt;Node11 -->
<g id="edge10" class="edge">
<title>Node8&#45;&gt;Node11</title>
<path fill="none" stroke="midnightblue" d="M854.26,-1216.85C858.62,-1215.16 862.9,-1213.38 867,-1211.5 896.94,-1197.8 899.81,-1185.64 930,-1172.5 938.61,-1168.75 947.92,-1165.44 957.19,-1162.54"/>
<polygon fill="midnightblue" stroke="midnightblue" points="852.82,-1213.65 844.64,-1220.38 855.23,-1220.22 852.82,-1213.65"/>
</g>
<!-- Node17 -->
<g id="node17" class="node">
<title>Node17</title>
<g id="a_node17"><a xlink:href="classFunctions_1_1CutOffFunctionC1.html" target="_top" xlink:title=" ">
<polygon fill="white" stroke="black" points="956.5,-1073.5 956.5,-1103.5 1088.5,-1103.5 1088.5,-1073.5 956.5,-1073.5"/>
<text text-anchor="start" x="964.5" y="-1091.5" font-family="Helvetica,sans-Serif" font-size="10.00">Functions::CutOffFunction</text>
<text text-anchor="middle" x="1022.5" y="-1080.5" font-family="Helvetica,sans-Serif" font-size="10.00">C1&lt; dim &gt;</text>
</a>
</g>
</g>
<!-- Node16&#45;&gt;Node17 -->
<g id="edge16" class="edge">
<title>Node16&#45;&gt;Node17</title>
<path fill="none" stroke="midnightblue" d="M853.91,-1009.29C858.42,-1011.21 862.82,-1013.28 867,-1015.5 898.32,-1032.15 898.2,-1048.79 930,-1064.5 938.25,-1068.57 947.26,-1072.01 956.32,-1074.9"/>
<polygon fill="midnightblue" stroke="midnightblue" points="855.15,-1006.02 844.56,-1005.56 852.55,-1012.52 855.15,-1006.02"/>
</g>
<!-- Node18 -->
<g id="node18" class="node">
<title>Node18</title>
<g id="a_node18"><a xlink:href="classFunctions_1_1CutOffFunctionCinfty.html" target="_top" xlink:title=" ">
<polygon fill="white" stroke="black" points="956.5,-1024.5 956.5,-1054.5 1088.5,-1054.5 1088.5,-1024.5 956.5,-1024.5"/>
<text text-anchor="start" x="964.5" y="-1042.5" font-family="Helvetica,sans-Serif" font-size="10.00">Functions::CutOffFunction</text>
<text text-anchor="middle" x="1022.5" y="-1031.5" font-family="Helvetica,sans-Serif" font-size="10.00">Cinfty&lt; dim &gt;</text>
</a>
</g>
</g>
<!-- Node16&#45;&gt;Node18 -->
<g id="edge17" class="edge">
<title>Node16&#45;&gt;Node18</title>
<path fill="none" stroke="midnightblue" d="M865.92,-1006.5C895.13,-1012.69 928.25,-1019.72 956.39,-1025.69"/>
<polygon fill="midnightblue" stroke="midnightblue" points="866.28,-1003 855.77,-1004.34 864.83,-1009.84 866.28,-1003"/>
</g>
<!-- Node19 -->
<g id="node19" class="node">
<title>Node19</title>
<g id="a_node19"><a xlink:href="classFunctions_1_1CutOffFunctionLinfty.html" target="_top" xlink:title=" ">
<polygon fill="white" stroke="black" points="956.5,-975.5 956.5,-1005.5 1088.5,-1005.5 1088.5,-975.5 956.5,-975.5"/>
<text text-anchor="start" x="964.5" y="-993.5" font-family="Helvetica,sans-Serif" font-size="10.00">Functions::CutOffFunction</text>
<text text-anchor="middle" x="1022.5" y="-982.5" font-family="Helvetica,sans-Serif" font-size="10.00">Linfty&lt; dim &gt;</text>
</a>
</g>
</g>
<!-- Node16&#45;&gt;Node19 -->
<g id="edge18" class="edge">
<title>Node16&#45;&gt;Node19</title>
<path fill="none" stroke="midnightblue" d="M865.92,-990.5C895.13,-990.5 928.25,-990.5 956.39,-990.5"/>
<polygon fill="midnightblue" stroke="midnightblue" points="865.77,-987 855.77,-990.5 865.77,-994 865.77,-987"/>
</g>
<!-- Node20 -->
<g id="node20" class="node">
<title>Node20</title>
<g id="a_node20"><a xlink:href="classFunctions_1_1CutOffFunctionTensorProduct.html" target="_top" xlink:title=" ">
<polygon fill="white" stroke="black" points="956.5,-926.5 956.5,-956.5 1088.5,-956.5 1088.5,-926.5 956.5,-926.5"/>
<text text-anchor="start" x="964.5" y="-944.5" font-family="Helvetica,sans-Serif" font-size="10.00">Functions::CutOffFunction</text>
<text text-anchor="middle" x="1022.5" y="-933.5" font-family="Helvetica,sans-Serif" font-size="10.00">TensorProduct&lt; dim &gt;</text>
</a>
</g>
</g>
<!-- Node16&#45;&gt;Node20 -->
<g id="edge19" class="edge">
<title>Node16&#45;&gt;Node20</title>
<path fill="none" stroke="midnightblue" d="M865.92,-974.5C895.13,-968.31 928.25,-961.28 956.39,-955.31"/>
<polygon fill="midnightblue" stroke="midnightblue" points="864.83,-971.16 855.77,-976.66 866.28,-978 864.83,-971.16"/>
</g>
<!-- Node21 -->
<g id="node21" class="node">
<title>Node21</title>
<g id="a_node21"><a xlink:href="classFunctions_1_1CutOffFunctionW1.html" target="_top" xlink:title=" ">
<polygon fill="white" stroke="black" points="956.5,-877.5 956.5,-907.5 1088.5,-907.5 1088.5,-877.5 956.5,-877.5"/>
<text text-anchor="start" x="964.5" y="-895.5" font-family="Helvetica,sans-Serif" font-size="10.00">Functions::CutOffFunction</text>
<text text-anchor="middle" x="1022.5" y="-884.5" font-family="Helvetica,sans-Serif" font-size="10.00">W1&lt; dim &gt;</text>
</a>
</g>
</g>
<!-- Node16&#45;&gt;Node21 -->
<g id="edge20" class="edge">
<title>Node16&#45;&gt;Node21</title>
<path fill="none" stroke="midnightblue" d="M856.07,-971.68C859.82,-970.06 863.49,-968.34 867,-966.5 898.42,-950.04 898.28,-933.37 930,-917.5 938.25,-913.37 947.26,-909.86 956.32,-906.88"/>
<polygon fill="midnightblue" stroke="midnightblue" points="854.58,-968.5 846.6,-975.47 857.18,-975 854.58,-968.5"/>
</g>
<!-- Node23&#45;&gt;Node5 -->
<g id="edge25" class="edge">
<title>Node23&#45;&gt;Node5</title>
<path fill="none" stroke="orange" stroke-dasharray="5,2" d="M834.84,-1320.65C868.35,-1334.93 911.61,-1352.89 930,-1358.5 941.95,-1362.15 954.99,-1365.32 967.38,-1367.97"/>
<polygon fill="orange" stroke="orange" points="835.8,-1317.26 825.23,-1316.55 833.05,-1323.69 835.8,-1317.26"/>
<text text-anchor="middle" x="898.5" y="-1353.5" font-family="Helvetica,sans-Serif" font-size="10.00"> &lt; 2 &gt;</text>
</g>
<!-- Node24 -->
<g id="node24" class="node">
<title>Node24</title>
<g id="a_node24"><a xlink:href="classFunctions_1_1PoisseuilleFlow.html" target="_top" xlink:title=" ">
<polygon fill="white" stroke="black" points="955.5,-1318.5 955.5,-1348.5 1089.5,-1348.5 1089.5,-1318.5 955.5,-1318.5"/>
<text text-anchor="start" x="963.5" y="-1336.5" font-family="Helvetica,sans-Serif" font-size="10.00">Functions::PoisseuilleFlow</text>
<text text-anchor="middle" x="1022.5" y="-1325.5" font-family="Helvetica,sans-Serif" font-size="10.00">&lt; dim &gt;</text>
</a>
</g>
</g>
<!-- Node23&#45;&gt;Node24 -->
<g id="edge23" class="edge">
<title>Node23&#45;&gt;Node24</title>
<path fill="none" stroke="midnightblue" d="M861.74,-1311.37C891.62,-1315.51 926.15,-1320.29 955.46,-1324.35"/>
<polygon fill="midnightblue" stroke="midnightblue" points="862.18,-1307.9 851.8,-1309.99 861.22,-1314.83 862.18,-1307.9"/>
</g>
<!-- Node25 -->
<g id="node25" class="node">
<title>Node25</title>
<g id="a_node25"><a xlink:href="classFunctions_1_1StokesCosine.html" target="_top" xlink:title=" ">
<polygon fill="white" stroke="black" points="959,-1269.5 959,-1299.5 1086,-1299.5 1086,-1269.5 959,-1269.5"/>
<text text-anchor="start" x="967" y="-1287.5" font-family="Helvetica,sans-Serif" font-size="10.00">Functions::StokesCosine</text>
<text text-anchor="middle" x="1022.5" y="-1276.5" font-family="Helvetica,sans-Serif" font-size="10.00">&lt; dim &gt;</text>
</a>
</g>
</g>
<!-- Node23&#45;&gt;Node25 -->
<g id="edge24" class="edge">
<title>Node23&#45;&gt;Node25</title>
<path fill="none" stroke="midnightblue" d="M862.08,-1296.23C892.99,-1293.96 928.84,-1291.32 958.71,-1289.12"/>
<polygon fill="midnightblue" stroke="midnightblue" points="861.51,-1292.76 851.8,-1296.99 862.03,-1299.75 861.51,-1292.76"/>
</g>
<!-- Node43 -->
<g id="node43" class="node">
<title>Node43</title>
<g id="a_node43"><a xlink:href="classFunctions_1_1LSingularityFunction.html" target="_top" xlink:title=" ">
<polygon fill="white" stroke="black" points="945.5,-197 945.5,-216 1099.5,-216 1099.5,-197 945.5,-197"/>
<text text-anchor="middle" x="1022.5" y="-204" font-family="Helvetica,sans-Serif" font-size="10.00">Functions::LSingularityFunction</text>
</a>
</g>
</g>
<!-- Node42&#45;&gt;Node43 -->
<g id="edge43" class="edge">
<title>Node42&#45;&gt;Node43</title>
<path fill="none" stroke="midnightblue" d="M838.05,-121.07C848,-123.8 858.15,-127.5 867,-132.5 876.85,-138.07 876.57,-142.95 885,-150.5 904.08,-167.58 906.88,-175.48 930,-186.5 939.1,-190.84 949.16,-194.25 959.18,-196.93"/>
<polygon fill="midnightblue" stroke="midnightblue" points="838.77,-117.64 828.22,-118.65 837.09,-124.44 838.77,-117.64"/>
</g>
<!-- Node44 -->
<g id="node44" class="node">
<title>Node44</title>
<g id="a_node44"><a xlink:href="classFunctions_1_1LSingularityGradFunction.html" target="_top" xlink:title=" ">
<polygon fill="white" stroke="black" points="954,-147.5 954,-177.5 1091,-177.5 1091,-147.5 954,-147.5"/>
<text text-anchor="start" x="962" y="-165.5" font-family="Helvetica,sans-Serif" font-size="10.00">Functions::LSingularityGrad</text>
<text text-anchor="middle" x="1022.5" y="-154.5" font-family="Helvetica,sans-Serif" font-size="10.00">Function</text>
</a>
</g>
</g>
<!-- Node42&#45;&gt;Node44 -->
<g id="edge44" class="edge">
<title>Node42&#45;&gt;Node44</title>
<path fill="none" stroke="midnightblue" d="M838.08,-123.59C871.41,-130.66 916.46,-140.22 953.56,-148.09"/>
<polygon fill="midnightblue" stroke="midnightblue" points="838.64,-120.13 828.13,-121.48 837.18,-126.98 838.64,-120.13"/>
</g>
<!-- Node45 -->
<g id="node45" class="node">
<title>Node45</title>
<g id="a_node45"><a xlink:href="classFunctions_1_1SlitHyperSingularityFunction.html" target="_top" xlink:title=" ">
<polygon fill="white" stroke="black" points="946.5,-98.5 946.5,-128.5 1098.5,-128.5 1098.5,-98.5 946.5,-98.5"/>
<text text-anchor="start" x="954.5" y="-116.5" font-family="Helvetica,sans-Serif" font-size="10.00">Functions::SlitHyperSingularity</text>
<text text-anchor="middle" x="1022.5" y="-105.5" font-family="Helvetica,sans-Serif" font-size="10.00">Function</text>
</a>
</g>
</g>
<!-- Node42&#45;&gt;Node45 -->
<g id="edge45" class="edge">
<title>Node42&#45;&gt;Node45</title>
<path fill="none" stroke="midnightblue" d="M838.26,-113.5C869.35,-113.5 910.58,-113.5 946.05,-113.5"/>
<polygon fill="midnightblue" stroke="midnightblue" points="838.13,-110 828.13,-113.5 838.13,-117 838.13,-110"/>
</g>
<!-- Node47 -->
<g id="node47" class="node">
<title>Node47</title>
<g id="a_node47"><a xlink:href="classFunctions_1_1FEFieldFunction.html" target="_top" xlink:title=" ">
<polygon fill="white" stroke="black" points="930,-49.5 930,-79.5 1115,-79.5 1115,-49.5 930,-49.5"/>
<text text-anchor="start" x="938" y="-67.5" font-family="Helvetica,sans-Serif" font-size="10.00">Functions::FEFieldFunction</text>
<text text-anchor="middle" x="1022.5" y="-56.5" font-family="Helvetica,sans-Serif" font-size="10.00">&lt; dim, DoFHandlerType, VectorType &gt;</text>
</a>
</g>
</g>
<!-- Node46&#45;&gt;Node47 -->
<g id="edge47" class="edge">
<title>Node46&#45;&gt;Node47</title>
<path fill="none" stroke="midnightblue" d="M866.76,-65.84C886.96,-65.66 908.98,-65.47 929.9,-65.29"/>
<polygon fill="midnightblue" stroke="midnightblue" points="866.66,-62.34 856.7,-65.93 866.73,-69.34 866.66,-62.34"/>
</g>
<!-- Node49 -->
<g id="node49" class="node">
<title>Node49</title>
<g id="a_node49"><a xlink:href="classFunctions_1_1ConstantFunction.html" target="_top" xlink:title=" ">
<polygon fill="white" stroke="red" points="951,-0.5 951,-30.5 1094,-30.5 1094,-0.5 951,-0.5"/>
<text text-anchor="start" x="959" y="-18.5" font-family="Helvetica,sans-Serif" font-size="10.00">Functions::ConstantFunction</text>
<text text-anchor="middle" x="1022.5" y="-7.5" font-family="Helvetica,sans-Serif" font-size="10.00">&lt; dim, double &gt;</text>
</a>
</g>
</g>
<!-- Node48&#45;&gt;Node49 -->
<g id="edge49" class="edge">
<title>Node48&#45;&gt;Node49</title>
<path fill="none" stroke="midnightblue" d="M860.86,-16.89C889.32,-16.64 922.12,-16.36 950.63,-16.11"/>
<polygon fill="midnightblue" stroke="midnightblue" points="860.56,-13.39 850.59,-16.98 860.62,-20.39 860.56,-13.39"/>
</g>
</g>
</svg>
