<?xml version="1.0" encoding="UTF-8" standalone="no"?>
<!DOCTYPE svg PUBLIC "-//W3C//DTD SVG 1.1//EN"
 "http://www.w3.org/Graphics/SVG/1.1/DTD/svg11.dtd">
<!-- Generated by graphviz version 2.47.1 (20210417.1919)
 -->
<!-- Title: Patterns::PatternBase Pages: 1 -->
<svg width="406pt" height="370pt"
 viewBox="0.00 0.00 406.00 370.00" xmlns="http://www.w3.org/2000/svg" xmlns:xlink="http://www.w3.org/1999/xlink">
<g id="graph0" class="graph" transform="scale(1 1) rotate(0) translate(4 366)">
<title>Patterns::PatternBase</title>
<polygon fill="white" stroke="transparent" points="-4,4 -4,-366 402,-366 402,4 -4,4"/>
<!-- Node1 -->
<g id="node1" class="node">
<title>Node1</title>
<g id="a_node1"><a xlink:title=" ">
<polygon fill="#bfbfbf" stroke="black" points="0,-171.5 0,-190.5 113,-190.5 113,-171.5 0,-171.5"/>
<text text-anchor="middle" x="56.5" y="-178.5" font-family="Helvetica,sans-Serif" font-size="10.00">Patterns::PatternBase</text>
</a>
</g>
</g>
<!-- Node2 -->
<g id="node2" class="node">
<title>Node2</title>
<g id="a_node2"><a xlink:href="classPatterns_1_1Anything.html" target="_top" xlink:title=" ">
<polygon fill="white" stroke="black" points="167,-342.5 167,-361.5 265,-361.5 265,-342.5 167,-342.5"/>
<text text-anchor="middle" x="216" y="-349.5" font-family="Helvetica,sans-Serif" font-size="10.00">Patterns::Anything</text>
</a>
</g>
</g>
<!-- Node1&#45;&gt;Node2 -->
<g id="edge1" class="edge">
<title>Node1&#45;&gt;Node2</title>
<path fill="none" stroke="midnightblue" d="M63.76,-200.13C75.32,-232.45 103.12,-297.79 149,-333 154.3,-337.07 160.43,-340.26 166.79,-342.77"/>
<polygon fill="midnightblue" stroke="midnightblue" points="67.02,-198.85 60.46,-190.53 60.4,-201.12 67.02,-198.85"/>
</g>
<!-- Node3 -->
<g id="node3" class="node">
<title>Node3</title>
<g id="a_node3"><a xlink:href="classPatterns_1_1DirectoryName.html" target="_top" xlink:title=" ">
<polygon fill="white" stroke="black" points="153.5,-304.5 153.5,-323.5 278.5,-323.5 278.5,-304.5 153.5,-304.5"/>
<text text-anchor="middle" x="216" y="-311.5" font-family="Helvetica,sans-Serif" font-size="10.00">Patterns::DirectoryName</text>
</a>
</g>
</g>
<!-- Node1&#45;&gt;Node3 -->
<g id="edge2" class="edge">
<title>Node1&#45;&gt;Node3</title>
<path fill="none" stroke="midnightblue" d="M67.47,-199.57C82.03,-224.91 111.52,-270.04 149,-295 154.86,-298.9 161.52,-302.01 168.3,-304.49"/>
<polygon fill="midnightblue" stroke="midnightblue" points="70.4,-197.64 62.48,-190.61 64.29,-201.05 70.4,-197.64"/>
</g>
<!-- Node4 -->
<g id="node4" class="node">
<title>Node4</title>
<g id="a_node4"><a xlink:href="classPatterns_1_1Double.html" target="_top" xlink:title=" ">
<polygon fill="white" stroke="black" points="171,-266.5 171,-285.5 261,-285.5 261,-266.5 171,-266.5"/>
<text text-anchor="middle" x="216" y="-273.5" font-family="Helvetica,sans-Serif" font-size="10.00">Patterns::Double</text>
</a>
</g>
</g>
<!-- Node1&#45;&gt;Node4 -->
<g id="edge3" class="edge">
<title>Node1&#45;&gt;Node4</title>
<path fill="none" stroke="midnightblue" d="M73.44,-197.83C90.59,-215.02 119.4,-241.34 149,-257 156.17,-260.79 164.18,-263.91 172.09,-266.45"/>
<polygon fill="midnightblue" stroke="midnightblue" points="75.91,-195.36 66.42,-190.65 70.9,-200.25 75.91,-195.36"/>
</g>
<!-- Node5 -->
<g id="node5" class="node">
<title>Node5</title>
<g id="a_node5"><a xlink:href="classPatterns_1_1FileName.html" target="_top" xlink:title=" ">
<polygon fill="white" stroke="black" points="165.5,-228.5 165.5,-247.5 266.5,-247.5 266.5,-228.5 165.5,-228.5"/>
<text text-anchor="middle" x="216" y="-235.5" font-family="Helvetica,sans-Serif" font-size="10.00">Patterns::FileName</text>
</a>
</g>
</g>
<!-- Node1&#45;&gt;Node5 -->
<g id="edge4" class="edge">
<title>Node1&#45;&gt;Node5</title>
<path fill="none" stroke="midnightblue" d="M87.91,-194.65C105.56,-202.31 128.32,-211.75 149,-219 158.68,-222.39 169.3,-225.65 179.14,-228.48"/>
<polygon fill="midnightblue" stroke="midnightblue" points="89.24,-191.41 78.68,-190.6 86.43,-197.82 89.24,-191.41"/>
</g>
<!-- Node6 -->
<g id="node6" class="node">
<title>Node6</title>
<g id="a_node6"><a xlink:href="classPatterns_1_1Integer.html" target="_top" xlink:title=" ">
<polygon fill="white" stroke="black" points="171.5,-190.5 171.5,-209.5 260.5,-209.5 260.5,-190.5 171.5,-190.5"/>
<text text-anchor="middle" x="216" y="-197.5" font-family="Helvetica,sans-Serif" font-size="10.00">Patterns::Integer</text>
</a>
</g>
</g>
<!-- Node1&#45;&gt;Node6 -->
<g id="edge5" class="edge">
<title>Node1&#45;&gt;Node6</title>
<path fill="none" stroke="midnightblue" d="M123.04,-188.91C139.33,-190.87 156.4,-192.93 171.34,-194.73"/>
<polygon fill="midnightblue" stroke="midnightblue" points="123.38,-185.42 113.03,-187.7 122.54,-192.37 123.38,-185.42"/>
</g>
<!-- Node7 -->
<g id="node7" class="node">
<title>Node7</title>
<g id="a_node7"><a xlink:href="classPatterns_1_1List.html" target="_top" xlink:title=" ">
<polygon fill="white" stroke="black" points="178.5,-152.5 178.5,-171.5 253.5,-171.5 253.5,-152.5 178.5,-152.5"/>
<text text-anchor="middle" x="216" y="-159.5" font-family="Helvetica,sans-Serif" font-size="10.00">Patterns::List</text>
</a>
</g>
</g>
<!-- Node1&#45;&gt;Node7 -->
<g id="edge6" class="edge">
<title>Node1&#45;&gt;Node7</title>
<path fill="none" stroke="midnightblue" d="M123.06,-173.09C141.89,-170.82 161.76,-168.42 178.19,-166.44"/>
<polygon fill="midnightblue" stroke="midnightblue" points="122.54,-169.63 113.03,-174.3 123.38,-176.58 122.54,-169.63"/>
</g>
<!-- Node8 -->
<g id="node8" class="node">
<title>Node8</title>
<g id="a_node8"><a xlink:href="classPatterns_1_1Map.html" target="_top" xlink:title=" ">
<polygon fill="white" stroke="black" points="177,-114.5 177,-133.5 255,-133.5 255,-114.5 177,-114.5"/>
<text text-anchor="middle" x="216" y="-121.5" font-family="Helvetica,sans-Serif" font-size="10.00">Patterns::Map</text>
</a>
</g>
</g>
<!-- Node1&#45;&gt;Node8 -->
<g id="edge7" class="edge">
<title>Node1&#45;&gt;Node8</title>
<path fill="none" stroke="midnightblue" d="M87.91,-167.35C105.56,-159.69 128.32,-150.25 149,-143 158.68,-139.61 169.3,-136.35 179.14,-133.52"/>
<polygon fill="midnightblue" stroke="midnightblue" points="86.43,-164.18 78.68,-171.4 89.24,-170.59 86.43,-164.18"/>
</g>
<!-- Node9 -->
<g id="node9" class="node">
<title>Node9</title>
<g id="a_node9"><a xlink:href="classPatterns_1_1MultipleSelection.html" target="_top" xlink:title=" ">
<polygon fill="white" stroke="black" points="149,-76.5 149,-95.5 283,-95.5 283,-76.5 149,-76.5"/>
<text text-anchor="middle" x="216" y="-83.5" font-family="Helvetica,sans-Serif" font-size="10.00">Patterns::MultipleSelection</text>
</a>
</g>
</g>
<!-- Node1&#45;&gt;Node9 -->
<g id="edge8" class="edge">
<title>Node1&#45;&gt;Node9</title>
<path fill="none" stroke="midnightblue" d="M73.44,-164.17C90.59,-146.98 119.4,-120.66 149,-105 156.17,-101.21 164.18,-98.09 172.09,-95.55"/>
<polygon fill="midnightblue" stroke="midnightblue" points="70.9,-161.75 66.42,-171.35 75.91,-166.64 70.9,-161.75"/>
</g>
<!-- Node10 -->
<g id="node10" class="node">
<title>Node10</title>
<g id="a_node10"><a xlink:href="classPatterns_1_1Selection.html" target="_top" xlink:title=" ">
<polygon fill="white" stroke="black" points="166,-38.5 166,-57.5 266,-57.5 266,-38.5 166,-38.5"/>
<text text-anchor="middle" x="216" y="-45.5" font-family="Helvetica,sans-Serif" font-size="10.00">Patterns::Selection</text>
</a>
</g>
</g>
<!-- Node1&#45;&gt;Node10 -->
<g id="edge9" class="edge">
<title>Node1&#45;&gt;Node10</title>
<path fill="none" stroke="midnightblue" d="M67.47,-162.43C82.03,-137.09 111.52,-91.96 149,-67 154.86,-63.1 161.52,-59.99 168.3,-57.51"/>
<polygon fill="midnightblue" stroke="midnightblue" points="64.29,-160.95 62.48,-171.39 70.4,-164.36 64.29,-160.95"/>
</g>
<!-- Node12 -->
<g id="node12" class="node">
<title>Node12</title>
<g id="a_node12"><a xlink:href="classPatterns_1_1Tuple.html" target="_top" xlink:title=" ">
<polygon fill="white" stroke="black" points="174.5,-0.5 174.5,-19.5 257.5,-19.5 257.5,-0.5 174.5,-0.5"/>
<text text-anchor="middle" x="216" y="-7.5" font-family="Helvetica,sans-Serif" font-size="10.00">Patterns::Tuple</text>
</a>
</g>
</g>
<!-- Node1&#45;&gt;Node12 -->
<g id="edge11" class="edge">
<title>Node1&#45;&gt;Node12</title>
<path fill="none" stroke="midnightblue" d="M63.76,-161.87C75.32,-129.55 103.12,-64.21 149,-29 156.38,-23.34 165.39,-19.36 174.35,-16.57"/>
<polygon fill="midnightblue" stroke="midnightblue" points="60.4,-160.88 60.46,-171.47 67.02,-163.15 60.4,-160.88"/>
</g>
<!-- Node11 -->
<g id="node11" class="node">
<title>Node11</title>
<g id="a_node11"><a xlink:href="classPatterns_1_1Bool.html" target="_top" xlink:title=" ">
<polygon fill="white" stroke="black" points="319,-38.5 319,-57.5 398,-57.5 398,-38.5 319,-38.5"/>
<text text-anchor="middle" x="358.5" y="-45.5" font-family="Helvetica,sans-Serif" font-size="10.00">Patterns::Bool</text>
</a>
</g>
</g>
<!-- Node10&#45;&gt;Node11 -->
<g id="edge10" class="edge">
<title>Node10&#45;&gt;Node11</title>
<path fill="none" stroke="midnightblue" d="M276.43,-48C290.75,-48 305.69,-48 318.79,-48"/>
<polygon fill="midnightblue" stroke="midnightblue" points="276.14,-44.5 266.14,-48 276.14,-51.5 276.14,-44.5"/>
</g>
</g>
</svg>
