<?xml version="1.0" encoding="UTF-8" standalone="no"?>
<!DOCTYPE svg PUBLIC "-//W3C//DTD SVG 1.1//EN"
 "http://www.w3.org/Graphics/SVG/1.1/DTD/svg11.dtd">
<!-- Generated by graphviz version 2.47.1 (20210417.1919)
 -->
<!-- Title: MappingQ1Eulerian&lt; dim, VectorType, spacedim &gt; Pages: 1 -->
<svg width="259pt" height="366pt"
 viewBox="0.00 0.00 258.93 366.00" xmlns="http://www.w3.org/2000/svg" xmlns:xlink="http://www.w3.org/1999/xlink">
<g id="graph0" class="graph" transform="scale(1 1) rotate(0) translate(4 362)">
<title>MappingQ1Eulerian&lt; dim, VectorType, spacedim &gt;</title>
<polygon fill="white" stroke="transparent" points="-4,4 -4,-362 254.93,-362 254.93,4 -4,4"/>
<!-- Node1 -->
<g id="node1" class="node">
<title>Node1</title>
<g id="a_node1"><a xlink:title=" ">
<polygon fill="#bfbfbf" stroke="black" points="9.5,-0.5 9.5,-30.5 157.5,-30.5 157.5,-0.5 9.5,-0.5"/>
<text text-anchor="start" x="17.5" y="-18.5" font-family="Helvetica,sans-Serif" font-size="10.00">MappingQ1Eulerian&lt;</text>
<text text-anchor="middle" x="83.5" y="-7.5" font-family="Helvetica,sans-Serif" font-size="10.00"> dim, VectorType, spacedim &gt;</text>
</a>
</g>
</g>
<!-- Node2 -->
<g id="node2" class="node">
<title>Node2</title>
<g id="a_node2"><a xlink:href="classMappingQGeneric.html" target="_top" xlink:title=" ">
<polygon fill="white" stroke="black" points="22.5,-68.5 22.5,-98.5 144.5,-98.5 144.5,-68.5 22.5,-68.5"/>
<text text-anchor="start" x="30.5" y="-86.5" font-family="Helvetica,sans-Serif" font-size="10.00">MappingQGeneric&lt; dim,</text>
<text text-anchor="middle" x="83.5" y="-75.5" font-family="Helvetica,sans-Serif" font-size="10.00"> dim &gt;</text>
</a>
</g>
</g>
<!-- Node2&#45;&gt;Node1 -->
<g id="edge1" class="edge">
<title>Node2&#45;&gt;Node1</title>
<path fill="none" stroke="midnightblue" d="M83.5,-58.03C83.5,-48.86 83.5,-38.74 83.5,-30.79"/>
<polygon fill="midnightblue" stroke="midnightblue" points="80,-58.18 83.5,-68.18 87,-58.18 80,-58.18"/>
</g>
<!-- Node3 -->
<g id="node3" class="node">
<title>Node3</title>
<g id="a_node3"><a xlink:href="classMapping.html" target="_top" xlink:title=" ">
<polygon fill="white" stroke="black" points="0,-281.5 0,-300.5 135,-300.5 135,-281.5 0,-281.5"/>
<text text-anchor="middle" x="67.5" y="-288.5" font-family="Helvetica,sans-Serif" font-size="10.00">Mapping&lt; dim, spacedim &gt;</text>
</a>
</g>
</g>
<!-- Node3&#45;&gt;Node2 -->
<g id="edge2" class="edge">
<title>Node3&#45;&gt;Node2</title>
<path fill="none" stroke="midnightblue" d="M68.95,-271.32C72.12,-230.69 79.57,-135.02 82.39,-98.77"/>
<polygon fill="midnightblue" stroke="midnightblue" points="65.45,-271.19 68.17,-281.43 72.43,-271.73 65.45,-271.19"/>
</g>
<!-- Node3&#45;&gt;Node3 -->
<g id="edge4" class="edge">
<title>Node3&#45;&gt;Node3</title>
<path fill="none" stroke="orange" stroke-dasharray="5,2" d="M145.5,-294.63C150.19,-293.76 153,-292.56 153,-291 153,-288.51 145.8,-286.91 135.23,-286.19"/>
<polygon fill="orange" stroke="orange" points="144.77,-291.19 135.23,-295.81 145.57,-298.14 144.77,-291.19"/>
<text text-anchor="middle" x="195.5" y="-288.5" font-family="Helvetica,sans-Serif" font-size="10.00"> &lt; dim, spacedim &gt;</text>
</g>
<!-- Node6 -->
<g id="node6" class="node">
<title>Node6</title>
<g id="a_node6"><a xlink:href="classMapping.html" target="_top" xlink:title=" ">
<polygon fill="white" stroke="black" points="102,-214.5 102,-233.5 211,-233.5 211,-214.5 102,-214.5"/>
<text text-anchor="middle" x="156.5" y="-221.5" font-family="Helvetica,sans-Serif" font-size="10.00">Mapping&lt; dim, dim &gt;</text>
</a>
</g>
</g>
<!-- Node3&#45;&gt;Node6 -->
<g id="edge8" class="edge">
<title>Node3&#45;&gt;Node6</title>
<path fill="none" stroke="orange" stroke-dasharray="5,2" d="M87.95,-275.07C105.51,-262.24 130.23,-244.19 144.69,-233.63"/>
<polygon fill="orange" stroke="orange" points="85.51,-272.51 79.5,-281.23 89.64,-278.16 85.51,-272.51"/>
<text text-anchor="middle" x="146" y="-255" font-family="Helvetica,sans-Serif" font-size="10.00"> &lt; dim, dim &gt;</text>
</g>
<!-- Node4 -->
<g id="node4" class="node">
<title>Node4</title>
<g id="a_node4"><a xlink:href="classSubscriptor.html" target="_top" xlink:title=" ">
<polygon fill="white" stroke="black" points="133.5,-338.5 133.5,-357.5 199.5,-357.5 199.5,-338.5 133.5,-338.5"/>
<text text-anchor="middle" x="166.5" y="-345.5" font-family="Helvetica,sans-Serif" font-size="10.00">Subscriptor</text>
</a>
</g>
</g>
<!-- Node4&#45;&gt;Node3 -->
<g id="edge3" class="edge">
<title>Node4&#45;&gt;Node3</title>
<path fill="none" stroke="midnightblue" d="M142.26,-333.54C123.73,-323.24 98.73,-309.35 82.86,-300.53"/>
<polygon fill="midnightblue" stroke="midnightblue" points="140.59,-336.61 151.03,-338.41 143.99,-330.49 140.59,-336.61"/>
</g>
<!-- Node4&#45;&gt;Node6 -->
<g id="edge7" class="edge">
<title>Node4&#45;&gt;Node6</title>
<path fill="none" stroke="midnightblue" d="M203.09,-334.81C230.39,-323.51 260.84,-304.87 247.5,-281 234.02,-256.87 205.4,-241.86 183.84,-233.53"/>
<polygon fill="midnightblue" stroke="midnightblue" points="201.69,-331.6 193.65,-338.49 204.23,-338.12 201.69,-331.6"/>
</g>
<!-- Node5 -->
<g id="node5" class="node">
<title>Node5</title>
<g id="a_node5"><a xlink:href="classMappingQGeneric.html" target="_top" xlink:title=" ">
<polygon fill="white" stroke="black" points="95.5,-146.5 95.5,-176.5 217.5,-176.5 217.5,-146.5 95.5,-146.5"/>
<text text-anchor="start" x="103.5" y="-164.5" font-family="Helvetica,sans-Serif" font-size="10.00">MappingQGeneric&lt; dim,</text>
<text text-anchor="middle" x="156.5" y="-153.5" font-family="Helvetica,sans-Serif" font-size="10.00"> spacedim &gt;</text>
</a>
</g>
</g>
<!-- Node5&#45;&gt;Node2 -->
<g id="edge5" class="edge">
<title>Node5&#45;&gt;Node2</title>
<path fill="none" stroke="orange" stroke-dasharray="5,2" d="M135.53,-138.67C123.2,-125.83 107.96,-109.97 97.17,-98.73"/>
<polygon fill="orange" stroke="orange" points="133.32,-141.42 142.77,-146.2 138.37,-136.57 133.32,-141.42"/>
<text text-anchor="middle" x="153" y="-120" font-family="Helvetica,sans-Serif" font-size="10.00"> &lt; dim, dim &gt;</text>
</g>
<!-- Node6&#45;&gt;Node5 -->
<g id="edge6" class="edge">
<title>Node6&#45;&gt;Node5</title>
<path fill="none" stroke="midnightblue" d="M156.5,-204.22C156.5,-195.36 156.5,-184.96 156.5,-176.76"/>
<polygon fill="midnightblue" stroke="midnightblue" points="153,-204.33 156.5,-214.33 160,-204.33 153,-204.33"/>
</g>
</g>
</svg>
