<?xml version="1.0" encoding="UTF-8" standalone="no"?>
<!DOCTYPE svg PUBLIC "-//W3C//DTD SVG 1.1//EN"
 "http://www.w3.org/Graphics/SVG/1.1/DTD/svg11.dtd">
<!-- Generated by graphviz version 2.47.1 (20210417.1919)
 -->
<!-- Title: FE_Bernstein&lt; dim, spacedim &gt; Pages: 1 -->
<svg width="330pt" height="423pt"
 viewBox="0.00 0.00 330.00 423.00" xmlns="http://www.w3.org/2000/svg" xmlns:xlink="http://www.w3.org/1999/xlink">
<g id="graph0" class="graph" transform="scale(1 1) rotate(0) translate(4 419)">
<title>FE_Bernstein&lt; dim, spacedim &gt;</title>
<polygon fill="white" stroke="transparent" points="-4,4 -4,-419 326,-419 326,4 -4,4"/>
<!-- Node1 -->
<g id="node1" class="node">
<title>Node1</title>
<g id="a_node1"><a xlink:title=" ">
<polygon fill="#bfbfbf" stroke="black" points="32,-0.5 32,-30.5 136,-30.5 136,-0.5 32,-0.5"/>
<text text-anchor="start" x="40" y="-18.5" font-family="Helvetica,sans-Serif" font-size="10.00">FE_Bernstein&lt; dim,</text>
<text text-anchor="middle" x="84" y="-7.5" font-family="Helvetica,sans-Serif" font-size="10.00"> spacedim &gt;</text>
</a>
</g>
</g>
<!-- Node2 -->
<g id="node2" class="node">
<title>Node2</title>
<g id="a_node2"><a xlink:href="classFE__Q__Base.html" target="_top" xlink:title=" ">
<polygon fill="white" stroke="black" points="21.5,-68.5 21.5,-87.5 146.5,-87.5 146.5,-68.5 21.5,-68.5"/>
<text text-anchor="middle" x="84" y="-75.5" font-family="Helvetica,sans-Serif" font-size="10.00">FE_Q_Base&lt; dim, dim &gt;</text>
</a>
</g>
</g>
<!-- Node2&#45;&gt;Node1 -->
<g id="edge1" class="edge">
<title>Node2&#45;&gt;Node1</title>
<path fill="none" stroke="midnightblue" d="M84,-58.22C84,-49.36 84,-38.96 84,-30.76"/>
<polygon fill="midnightblue" stroke="midnightblue" points="80.5,-58.33 84,-68.33 87.5,-58.33 80.5,-58.33"/>
</g>
<!-- Node3 -->
<g id="node3" class="node">
<title>Node3</title>
<g id="a_node3"><a xlink:href="classFE__Poly.html" target="_top" xlink:title=" ">
<polygon fill="white" stroke="black" points="0,-259.5 0,-278.5 136,-278.5 136,-259.5 0,-259.5"/>
<text text-anchor="middle" x="68" y="-266.5" font-family="Helvetica,sans-Serif" font-size="10.00">FE_Poly&lt; dim, spacedim &gt;</text>
</a>
</g>
</g>
<!-- Node3&#45;&gt;Node2 -->
<g id="edge2" class="edge">
<title>Node3&#45;&gt;Node2</title>
<path fill="none" stroke="midnightblue" d="M69.57,-249.4C72.96,-209.4 80.83,-116.46 83.27,-87.66"/>
<polygon fill="midnightblue" stroke="midnightblue" points="66.09,-249.13 68.73,-259.39 73.06,-249.72 66.09,-249.13"/>
</g>
<!-- Node3&#45;&gt;Node3 -->
<g id="edge7" class="edge">
<title>Node3&#45;&gt;Node3</title>
<path fill="none" stroke="orange" stroke-dasharray="5,2" d="M146.1,-272.69C151.03,-271.83 154,-270.59 154,-269 154,-266.51 146.76,-264.91 136.13,-264.19"/>
<polygon fill="orange" stroke="orange" points="145.68,-269.22 136.13,-273.81 146.46,-276.17 145.68,-269.22"/>
<text text-anchor="middle" x="196.5" y="-266.5" font-family="Helvetica,sans-Serif" font-size="10.00"> &lt; dim, spacedim &gt;</text>
</g>
<!-- Node8 -->
<g id="node8" class="node">
<title>Node8</title>
<g id="a_node8"><a xlink:href="classFE__Poly.html" target="_top" xlink:title=" ">
<polygon fill="white" stroke="black" points="117,-192.5 117,-211.5 227,-211.5 227,-192.5 117,-192.5"/>
<text text-anchor="middle" x="172" y="-199.5" font-family="Helvetica,sans-Serif" font-size="10.00">FE_Poly&lt; dim, dim &gt;</text>
</a>
</g>
</g>
<!-- Node3&#45;&gt;Node8 -->
<g id="edge11" class="edge">
<title>Node3&#45;&gt;Node8</title>
<path fill="none" stroke="orange" stroke-dasharray="5,2" d="M90.77,-253.77C111.36,-240.9 140.99,-222.38 158.2,-211.63"/>
<polygon fill="orange" stroke="orange" points="88.65,-250.97 82.03,-259.23 92.36,-256.9 88.65,-250.97"/>
<text text-anchor="middle" x="156.5" y="-233" font-family="Helvetica,sans-Serif" font-size="10.00"> &lt; dim, dim &gt;</text>
</g>
<!-- Node4 -->
<g id="node4" class="node">
<title>Node4</title>
<g id="a_node4"><a xlink:href="classFiniteElement.html" target="_top" xlink:title=" ">
<polygon fill="white" stroke="black" points="115,-316.5 115,-346.5 219,-346.5 219,-316.5 115,-316.5"/>
<text text-anchor="start" x="123" y="-334.5" font-family="Helvetica,sans-Serif" font-size="10.00">FiniteElement&lt; dim,</text>
<text text-anchor="middle" x="167" y="-323.5" font-family="Helvetica,sans-Serif" font-size="10.00"> spacedim &gt;</text>
</a>
</g>
</g>
<!-- Node4&#45;&gt;Node3 -->
<g id="edge3" class="edge">
<title>Node4&#45;&gt;Node3</title>
<path fill="none" stroke="midnightblue" d="M135.05,-310.98C117.14,-300.03 95.7,-286.93 81.97,-278.54"/>
<polygon fill="midnightblue" stroke="midnightblue" points="133.68,-314.24 144.04,-316.47 137.33,-308.27 133.68,-314.24"/>
</g>
<!-- Node4&#45;&gt;Node4 -->
<g id="edge6" class="edge">
<title>Node4&#45;&gt;Node4</title>
<path fill="none" stroke="orange" stroke-dasharray="5,2" d="M229.4,-336.27C234.11,-335.21 237,-333.62 237,-331.5 237,-328.11 229.59,-326.08 219.2,-325.39"/>
<polygon fill="orange" stroke="orange" points="228.66,-332.84 219.2,-337.61 229.57,-339.78 228.66,-332.84"/>
<text text-anchor="middle" x="279.5" y="-329" font-family="Helvetica,sans-Serif" font-size="10.00"> &lt; dim, spacedim &gt;</text>
</g>
<!-- Node4&#45;&gt;Node8 -->
<g id="edge10" class="edge">
<title>Node4&#45;&gt;Node8</title>
<path fill="none" stroke="midnightblue" d="M213.71,-311.52C227.22,-303.58 240.37,-292.9 248,-279 264.08,-249.72 220.52,-224.23 192.85,-211.55"/>
<polygon fill="midnightblue" stroke="midnightblue" points="211.94,-308.49 204.83,-316.34 215.29,-314.64 211.94,-308.49"/>
</g>
<!-- Node5 -->
<g id="node5" class="node">
<title>Node5</title>
<g id="a_node5"><a xlink:href="classSubscriptor.html" target="_top" xlink:title=" ">
<polygon fill="white" stroke="black" points="83,-390 83,-409 149,-409 149,-390 83,-390"/>
<text text-anchor="middle" x="116" y="-397" font-family="Helvetica,sans-Serif" font-size="10.00">Subscriptor</text>
</a>
</g>
</g>
<!-- Node5&#45;&gt;Node4 -->
<g id="edge4" class="edge">
<title>Node5&#45;&gt;Node4</title>
<path fill="none" stroke="midnightblue" d="M129.02,-381.65C137.38,-370.83 148.12,-356.94 156.04,-346.68"/>
<polygon fill="midnightblue" stroke="midnightblue" points="126.01,-379.82 122.67,-389.87 131.55,-384.1 126.01,-379.82"/>
</g>
<!-- Node6 -->
<g id="node6" class="node">
<title>Node6</title>
<g id="a_node6"><a xlink:href="classFiniteElementData.html" target="_top" xlink:title=" ">
<polygon fill="white" stroke="black" points="167,-384.5 167,-414.5 271,-414.5 271,-384.5 167,-384.5"/>
<text text-anchor="start" x="175" y="-402.5" font-family="Helvetica,sans-Serif" font-size="10.00">FiniteElementData&lt;</text>
<text text-anchor="middle" x="219" y="-391.5" font-family="Helvetica,sans-Serif" font-size="10.00"> dim &gt;</text>
</a>
</g>
</g>
<!-- Node6&#45;&gt;Node4 -->
<g id="edge5" class="edge">
<title>Node6&#45;&gt;Node4</title>
<path fill="none" stroke="midnightblue" d="M201.36,-376.11C193.72,-366.41 185,-355.35 178.26,-346.79"/>
<polygon fill="midnightblue" stroke="midnightblue" points="198.78,-378.49 207.72,-384.18 204.28,-374.16 198.78,-378.49"/>
</g>
<!-- Node7 -->
<g id="node7" class="node">
<title>Node7</title>
<g id="a_node7"><a xlink:href="classFE__Q__Base.html" target="_top" xlink:title=" ">
<polygon fill="white" stroke="black" points="96,-135.5 96,-154.5 248,-154.5 248,-135.5 96,-135.5"/>
<text text-anchor="middle" x="172" y="-142.5" font-family="Helvetica,sans-Serif" font-size="10.00">FE_Q_Base&lt; dim, spacedim &gt;</text>
</a>
</g>
</g>
<!-- Node7&#45;&gt;Node2 -->
<g id="edge8" class="edge">
<title>Node7&#45;&gt;Node2</title>
<path fill="none" stroke="orange" stroke-dasharray="5,2" d="M151.78,-129.07C134.41,-116.24 109.97,-98.19 95.68,-87.63"/>
<polygon fill="orange" stroke="orange" points="150.01,-132.11 160.13,-135.23 154.17,-126.48 150.01,-132.11"/>
<text text-anchor="middle" x="163.5" y="-109" font-family="Helvetica,sans-Serif" font-size="10.00"> &lt; dim, dim &gt;</text>
</g>
<!-- Node8&#45;&gt;Node7 -->
<g id="edge9" class="edge">
<title>Node8&#45;&gt;Node7</title>
<path fill="none" stroke="midnightblue" d="M172,-182.12C172,-172.82 172,-162.06 172,-154.71"/>
<polygon fill="midnightblue" stroke="midnightblue" points="168.5,-182.41 172,-192.41 175.5,-182.41 168.5,-182.41"/>
</g>
</g>
</svg>
