<?xml version="1.0" encoding="UTF-8" standalone="no"?>
<!DOCTYPE svg PUBLIC "-//W3C//DTD SVG 1.1//EN"
 "http://www.w3.org/Graphics/SVG/1.1/DTD/svg11.dtd">
<!-- Generated by graphviz version 2.47.1 (20210417.1919)
 -->
<!-- Title: Triangulation&lt; dim, spacedim &gt; Pages: 1 -->
<svg width="1319pt" height="170pt"
 viewBox="0.00 0.00 1319.00 170.00" xmlns="http://www.w3.org/2000/svg" xmlns:xlink="http://www.w3.org/1999/xlink">
<g id="graph0" class="graph" transform="scale(1 1) rotate(0) translate(4 166)">
<title>Triangulation&lt; dim, spacedim &gt;</title>
<polygon fill="white" stroke="transparent" points="-4,4 -4,-166 1315,-166 1315,4 -4,4"/>
<!-- Node1 -->
<g id="node1" class="node">
<title>Node1</title>
<g id="a_node1"><a xlink:title=" ">
<polygon fill="#bfbfbf" stroke="black" points="103,-73.5 103,-103.5 203,-103.5 203,-73.5 103,-73.5"/>
<text text-anchor="start" x="111" y="-91.5" font-family="Helvetica,sans-Serif" font-size="10.00">Triangulation&lt; dim,</text>
<text text-anchor="middle" x="153" y="-80.5" font-family="Helvetica,sans-Serif" font-size="10.00"> spacedim &gt;</text>
</a>
</g>
</g>
<!-- Node1&#45;&gt;Node1 -->
<g id="edge2" class="edge">
<title>Node1&#45;&gt;Node1</title>
<path fill="none" stroke="orange" stroke-dasharray="5,2" d="M146.96,-113.96C147.71,-118.68 149.72,-122 153,-122 158.38,-122 160.35,-113.06 158.93,-103.66"/>
<polygon fill="orange" stroke="orange" points="150.46,-113.7 147.07,-103.66 143.46,-113.62 150.46,-113.7"/>
<text text-anchor="middle" x="153" y="-125" font-family="Helvetica,sans-Serif" font-size="10.00"> &lt; dim, spacedim &gt;</text>
</g>
<!-- Node1&#45;&gt;Node1 -->
<g id="edge3" class="edge">
<title>Node1&#45;&gt;Node1</title>
<path fill="none" stroke="orange" stroke-dasharray="5,2" d="M140.9,-113.19C138.55,-127.12 142.59,-140 153,-140 165.82,-140 168.97,-120.49 162.46,-103.53"/>
<polygon fill="orange" stroke="orange" points="144.28,-114.09 143.54,-103.53 137.52,-112.25 144.28,-114.09"/>
<text text-anchor="middle" x="153" y="-143" font-family="Helvetica,sans-Serif" font-size="10.00"> &lt; dim, spacedim &gt;</text>
</g>
<!-- Node3 -->
<g id="node3" class="node">
<title>Node3</title>
<g id="a_node3"><a xlink:href="classTriangulation.html" target="_top" xlink:title=" ">
<polygon fill="white" stroke="black" points="314,-101 314,-120 457,-120 457,-101 314,-101"/>
<text text-anchor="middle" x="385.5" y="-108" font-family="Helvetica,sans-Serif" font-size="10.00">Triangulation&lt; 1, spacedim &gt;</text>
</a>
</g>
</g>
<!-- Node1&#45;&gt;Node3 -->
<g id="edge4" class="edge">
<title>Node1&#45;&gt;Node3</title>
<path fill="none" stroke="orange" stroke-dasharray="5,2" d="M213.3,-94.16C244.03,-97.09 281.76,-100.69 313.98,-103.77"/>
<polygon fill="orange" stroke="orange" points="213.45,-90.66 203.17,-93.19 212.79,-97.63 213.45,-90.66"/>
<text text-anchor="middle" x="258.5" y="-104.5" font-family="Helvetica,sans-Serif" font-size="10.00"> &lt; 1, spacedim &gt;</text>
</g>
<!-- Node4 -->
<g id="node4" class="node">
<title>Node4</title>
<g id="a_node4"><a xlink:href="classTriangulation.html" target="_top" xlink:title=" ">
<polygon fill="white" stroke="black" points="335.5,-51.5 335.5,-81.5 435.5,-81.5 435.5,-51.5 335.5,-51.5"/>
<text text-anchor="start" x="343.5" y="-69.5" font-family="Helvetica,sans-Serif" font-size="10.00">Triangulation&lt; dim,</text>
<text text-anchor="middle" x="385.5" y="-58.5" font-family="Helvetica,sans-Serif" font-size="10.00"> dim &gt;</text>
</a>
</g>
</g>
<!-- Node1&#45;&gt;Node4 -->
<g id="edge5" class="edge">
<title>Node1&#45;&gt;Node4</title>
<path fill="none" stroke="orange" stroke-dasharray="5,2" d="M213.22,-81.32C215.85,-81.04 218.45,-80.76 221,-80.5 259.4,-76.56 302.96,-72.87 335.45,-70.27"/>
<polygon fill="orange" stroke="orange" points="212.56,-77.87 203.01,-82.46 213.34,-84.83 212.56,-77.87"/>
<text text-anchor="middle" x="258.5" y="-83.5" font-family="Helvetica,sans-Serif" font-size="10.00"> &lt; dim, dim &gt;</text>
</g>
<!-- Node2 -->
<g id="node2" class="node">
<title>Node2</title>
<g id="a_node2"><a xlink:href="classSubscriptor.html" target="_top" xlink:title=" ">
<polygon fill="white" stroke="black" points="0,-79 0,-98 66,-98 66,-79 0,-79"/>
<text text-anchor="middle" x="33" y="-86" font-family="Helvetica,sans-Serif" font-size="10.00">Subscriptor</text>
</a>
</g>
</g>
<!-- Node2&#45;&gt;Node1 -->
<g id="edge1" class="edge">
<title>Node2&#45;&gt;Node1</title>
<path fill="none" stroke="midnightblue" d="M76.43,-88.5C85.03,-88.5 94.15,-88.5 102.96,-88.5"/>
<polygon fill="midnightblue" stroke="midnightblue" points="76.24,-85 66.24,-88.5 76.24,-92 76.24,-85"/>
</g>
<!-- Node5 -->
<g id="node5" class="node">
<title>Node5</title>
<g id="a_node5"><a xlink:href="classPersistentTriangulation.html" target="_top" xlink:title=" ">
<polygon fill="white" stroke="black" points="501.5,-90.5 501.5,-120.5 617.5,-120.5 617.5,-90.5 501.5,-90.5"/>
<text text-anchor="start" x="509.5" y="-108.5" font-family="Helvetica,sans-Serif" font-size="10.00">PersistentTriangulation</text>
<text text-anchor="middle" x="559.5" y="-97.5" font-family="Helvetica,sans-Serif" font-size="10.00">&lt; dim, spacedim &gt;</text>
</a>
</g>
</g>
<!-- Node4&#45;&gt;Node5 -->
<g id="edge6" class="edge">
<title>Node4&#45;&gt;Node5</title>
<path fill="none" stroke="midnightblue" d="M445.6,-79.9C463.63,-83.99 483.41,-88.47 501.31,-92.53"/>
<polygon fill="midnightblue" stroke="midnightblue" points="446.31,-76.47 435.79,-77.68 444.77,-83.3 446.31,-76.47"/>
</g>
<!-- Node6 -->
<g id="node6" class="node">
<title>Node6</title>
<g id="a_node6"><a xlink:href="classparallel_1_1TriangulationBase.html" target="_top" xlink:title=" ">
<polygon fill="white" stroke="black" points="494,-12.5 494,-42.5 625,-42.5 625,-12.5 494,-12.5"/>
<text text-anchor="start" x="502" y="-30.5" font-family="Helvetica,sans-Serif" font-size="10.00">parallel::TriangulationBase</text>
<text text-anchor="middle" x="559.5" y="-19.5" font-family="Helvetica,sans-Serif" font-size="10.00">&lt; dim, spacedim &gt;</text>
</a>
</g>
</g>
<!-- Node4&#45;&gt;Node6 -->
<g id="edge7" class="edge">
<title>Node4&#45;&gt;Node6</title>
<path fill="none" stroke="midnightblue" d="M445.76,-53.06C461.26,-49.55 478.04,-45.74 493.8,-42.17"/>
<polygon fill="midnightblue" stroke="midnightblue" points="444.77,-49.7 435.79,-55.32 446.31,-56.53 444.77,-49.7"/>
</g>
<!-- Node6&#45;&gt;Node6 -->
<g id="edge8" class="edge">
<title>Node6&#45;&gt;Node6</title>
<path fill="none" stroke="orange" stroke-dasharray="5,2" d="M544.57,-52.96C546.43,-57.68 551.4,-61 559.5,-61 572.79,-61 577.67,-52.06 574.14,-42.66"/>
<polygon fill="orange" stroke="orange" points="548.08,-52.75 544.86,-42.66 541.08,-52.56 548.08,-52.75"/>
<text text-anchor="middle" x="559.5" y="-64" font-family="Helvetica,sans-Serif" font-size="10.00"> &lt; dim, spacedim &gt;</text>
</g>
<!-- Node7 -->
<g id="node7" class="node">
<title>Node7</title>
<g id="a_node7"><a xlink:href="classparallel_1_1TriangulationBase.html" target="_top" xlink:title=" ">
<polygon fill="white" stroke="black" points="720,-12.5 720,-42.5 851,-42.5 851,-12.5 720,-12.5"/>
<text text-anchor="start" x="728" y="-30.5" font-family="Helvetica,sans-Serif" font-size="10.00">parallel::TriangulationBase</text>
<text text-anchor="middle" x="785.5" y="-19.5" font-family="Helvetica,sans-Serif" font-size="10.00">&lt; dim, dim &gt;</text>
</a>
</g>
</g>
<!-- Node6&#45;&gt;Node7 -->
<g id="edge9" class="edge">
<title>Node6&#45;&gt;Node7</title>
<path fill="none" stroke="orange" stroke-dasharray="5,2" d="M635.58,-27.5C662.9,-27.5 693.52,-27.5 719.86,-27.5"/>
<polygon fill="orange" stroke="orange" points="635.29,-24 625.29,-27.5 635.29,-31 635.29,-24"/>
<text text-anchor="middle" x="672.5" y="-30.5" font-family="Helvetica,sans-Serif" font-size="10.00"> &lt; dim, dim &gt;</text>
</g>
<!-- Node8 -->
<g id="node8" class="node">
<title>Node8</title>
<g id="a_node8"><a xlink:href="classparallel_1_1DistributedTriangulationBase.html" target="_top" xlink:title=" ">
<polygon fill="white" stroke="black" points="888,-49.5 888,-79.5 1044,-79.5 1044,-49.5 888,-49.5"/>
<text text-anchor="start" x="896" y="-67.5" font-family="Helvetica,sans-Serif" font-size="10.00">parallel::DistributedTriangulation</text>
<text text-anchor="middle" x="966" y="-56.5" font-family="Helvetica,sans-Serif" font-size="10.00">Base&lt; dim, spacedim &gt;</text>
</a>
</g>
</g>
<!-- Node7&#45;&gt;Node8 -->
<g id="edge10" class="edge">
<title>Node7&#45;&gt;Node8</title>
<path fill="none" stroke="midnightblue" d="M861.03,-42.95C871.4,-45.1 882.03,-47.3 892.36,-49.44"/>
<polygon fill="midnightblue" stroke="midnightblue" points="861.7,-39.51 851.19,-40.91 860.28,-46.37 861.7,-39.51"/>
</g>
<!-- Node14 -->
<g id="node11" class="node">
<title>Node14</title>
<g id="a_node11"><a xlink:href="classparallel_1_1shared_1_1Triangulation.html" target="_top" xlink:title=" ">
<polygon fill="white" stroke="black" points="894,-0.5 894,-30.5 1038,-30.5 1038,-0.5 894,-0.5"/>
<text text-anchor="start" x="902" y="-18.5" font-family="Helvetica,sans-Serif" font-size="10.00">parallel::shared::Triangulation</text>
<text text-anchor="middle" x="966" y="-7.5" font-family="Helvetica,sans-Serif" font-size="10.00">&lt; dim, spacedim &gt;</text>
</a>
</g>
</g>
<!-- Node7&#45;&gt;Node14 -->
<g id="edge13" class="edge">
<title>Node7&#45;&gt;Node14</title>
<path fill="none" stroke="midnightblue" d="M861.4,-22.46C872.16,-21.74 883.2,-21 893.89,-20.28"/>
<polygon fill="midnightblue" stroke="midnightblue" points="860.94,-18.99 851.19,-23.15 861.41,-25.97 860.94,-18.99"/>
</g>
<!-- Node9 -->
<g id="node9" class="node">
<title>Node9</title>
<g id="a_node9"><a xlink:href="classparallel_1_1DistributedTriangulationBase.html" target="_top" xlink:title=" ">
<polygon fill="white" stroke="red" points="1155,-73.5 1155,-103.5 1311,-103.5 1311,-73.5 1155,-73.5"/>
<text text-anchor="start" x="1163" y="-91.5" font-family="Helvetica,sans-Serif" font-size="10.00">parallel::DistributedTriangulation</text>
<text text-anchor="middle" x="1233" y="-80.5" font-family="Helvetica,sans-Serif" font-size="10.00">Base&lt; 1, spacedim &gt;</text>
</a>
</g>
</g>
<!-- Node8&#45;&gt;Node9 -->
<g id="edge11" class="edge">
<title>Node8&#45;&gt;Node9</title>
<path fill="none" stroke="orange" stroke-dasharray="5,2" d="M1054.38,-72.41C1086.81,-75.35 1123.34,-78.66 1154.8,-81.51"/>
<polygon fill="orange" stroke="orange" points="1054.28,-68.89 1044,-71.47 1053.65,-75.86 1054.28,-68.89"/>
<text text-anchor="middle" x="1099.5" y="-82.5" font-family="Helvetica,sans-Serif" font-size="10.00"> &lt; 1, spacedim &gt;</text>
</g>
<!-- Node11 -->
<g id="node10" class="node">
<title>Node11</title>
<g id="a_node10"><a xlink:href="classparallel_1_1DistributedTriangulationBase.html" target="_top" xlink:title=" ">
<polygon fill="white" stroke="red" points="1155,-24.5 1155,-54.5 1311,-54.5 1311,-24.5 1155,-24.5"/>
<text text-anchor="start" x="1163" y="-42.5" font-family="Helvetica,sans-Serif" font-size="10.00">parallel::DistributedTriangulation</text>
<text text-anchor="middle" x="1233" y="-31.5" font-family="Helvetica,sans-Serif" font-size="10.00">Base&lt; dim, dim &gt;</text>
</a>
</g>
</g>
<!-- Node8&#45;&gt;Node11 -->
<g id="edge12" class="edge">
<title>Node8&#45;&gt;Node11</title>
<path fill="none" stroke="orange" stroke-dasharray="5,2" d="M1054.38,-56.26C1086.81,-53.2 1123.34,-49.75 1154.8,-46.78"/>
<polygon fill="orange" stroke="orange" points="1053.63,-52.81 1044,-57.24 1054.29,-59.78 1053.63,-52.81"/>
<text text-anchor="middle" x="1099.5" y="-58.5" font-family="Helvetica,sans-Serif" font-size="10.00"> &lt; dim, dim &gt;</text>
</g>
</g>
</svg>
