<?xml version="1.0" encoding="UTF-8" standalone="no"?>
<!DOCTYPE svg PUBLIC "-//W3C//DTD SVG 1.1//EN"
 "http://www.w3.org/Graphics/SVG/1.1/DTD/svg11.dtd">
<!-- Generated by graphviz version 2.47.1 (20210417.1919)
 -->
<!-- Title: BlockSparsityPatternBase&lt; SparsityPatternType &gt; Pages: 1 -->
<svg width="740pt" height="124pt"
 viewBox="0.00 0.00 740.00 123.50" xmlns="http://www.w3.org/2000/svg" xmlns:xlink="http://www.w3.org/1999/xlink">
<g id="graph0" class="graph" transform="scale(1 1) rotate(0) translate(4 119.5)">
<title>BlockSparsityPatternBase&lt; SparsityPatternType &gt;</title>
<polygon fill="white" stroke="transparent" points="-4,4 -4,-119.5 736,-119.5 736,4 -4,4"/>
<!-- Node1 -->
<g id="node1" class="node">
<title>Node1</title>
<g id="a_node1"><a xlink:title=" ">
<polygon fill="#bfbfbf" stroke="black" points="103,-24.5 103,-54.5 234,-54.5 234,-24.5 103,-24.5"/>
<text text-anchor="start" x="111" y="-42.5" font-family="Helvetica,sans-Serif" font-size="10.00">BlockSparsityPatternBase</text>
<text text-anchor="middle" x="168.5" y="-31.5" font-family="Helvetica,sans-Serif" font-size="10.00">&lt; SparsityPatternType &gt;</text>
</a>
</g>
</g>
<!-- Node3 -->
<g id="node3" class="node">
<title>Node3</title>
<g id="a_node3"><a xlink:href="classBlockSparsityPatternBase.html" target="_top" xlink:title=" ">
<polygon fill="white" stroke="black" points="403,-49.5 403,-79.5 534,-79.5 534,-49.5 403,-49.5"/>
<text text-anchor="start" x="411" y="-67.5" font-family="Helvetica,sans-Serif" font-size="10.00">BlockSparsityPatternBase</text>
<text text-anchor="middle" x="468.5" y="-56.5" font-family="Helvetica,sans-Serif" font-size="10.00">&lt; SparsityPattern &gt;</text>
</a>
</g>
</g>
<!-- Node1&#45;&gt;Node3 -->
<g id="edge2" class="edge">
<title>Node1&#45;&gt;Node3</title>
<path fill="none" stroke="orange" stroke-dasharray="5,2" d="M244.36,-45.78C293.21,-49.88 356.33,-55.17 402.96,-59.09"/>
<polygon fill="orange" stroke="orange" points="244.42,-42.27 234.16,-44.92 243.83,-49.25 244.42,-42.27"/>
<text text-anchor="middle" x="316" y="-60.5" font-family="Helvetica,sans-Serif" font-size="10.00"> &lt; SparsityPattern &gt;</text>
</g>
<!-- Node6 -->
<g id="node6" class="node">
<title>Node6</title>
<g id="a_node6"><a xlink:href="classBlockSparsityPatternBase.html" target="_top" xlink:title=" ">
<polygon fill="white" stroke="black" points="398,-0.5 398,-30.5 539,-30.5 539,-0.5 398,-0.5"/>
<text text-anchor="start" x="406" y="-18.5" font-family="Helvetica,sans-Serif" font-size="10.00">BlockSparsityPatternBase</text>
<text text-anchor="middle" x="468.5" y="-7.5" font-family="Helvetica,sans-Serif" font-size="10.00">&lt; DynamicSparsityPattern &gt;</text>
</a>
</g>
</g>
<!-- Node1&#45;&gt;Node6 -->
<g id="edge5" class="edge">
<title>Node1&#45;&gt;Node6</title>
<path fill="none" stroke="orange" stroke-dasharray="5,2" d="M244.33,-28.32C246.92,-28.03 249.48,-27.75 252,-27.5 300.66,-22.62 355.71,-19.59 397.99,-17.8"/>
<polygon fill="orange" stroke="orange" points="243.8,-24.86 234.28,-29.52 244.63,-31.81 243.8,-24.86"/>
<text text-anchor="middle" x="316" y="-30.5" font-family="Helvetica,sans-Serif" font-size="10.00"> &lt; DynamicSparsityPattern &gt;</text>
</g>
<!-- Node2 -->
<g id="node2" class="node">
<title>Node2</title>
<g id="a_node2"><a xlink:href="classSubscriptor.html" target="_top" xlink:title=" ">
<polygon fill="white" stroke="black" points="0,-30 0,-49 66,-49 66,-30 0,-30"/>
<text text-anchor="middle" x="33" y="-37" font-family="Helvetica,sans-Serif" font-size="10.00">Subscriptor</text>
</a>
</g>
</g>
<!-- Node2&#45;&gt;Node1 -->
<g id="edge1" class="edge">
<title>Node2&#45;&gt;Node1</title>
<path fill="none" stroke="midnightblue" d="M76.55,-39.5C84.92,-39.5 93.88,-39.5 102.78,-39.5"/>
<polygon fill="midnightblue" stroke="midnightblue" points="76.32,-36 66.32,-39.5 76.32,-43 76.32,-36"/>
</g>
<!-- Node4 -->
<g id="node4" class="node">
<title>Node4</title>
<g id="a_node4"><a xlink:href="classBlockSparsityPattern.html" target="_top" xlink:title=" ">
<polygon fill="white" stroke="black" points="599.5,-96 599.5,-115 708.5,-115 708.5,-96 599.5,-96"/>
<text text-anchor="middle" x="654" y="-103" font-family="Helvetica,sans-Serif" font-size="10.00">BlockSparsityPattern</text>
</a>
</g>
</g>
<!-- Node3&#45;&gt;Node4 -->
<g id="edge3" class="edge">
<title>Node3&#45;&gt;Node4</title>
<path fill="none" stroke="midnightblue" d="M544.1,-81.17C566.68,-86.21 590.68,-91.58 610.4,-95.98"/>
<polygon fill="midnightblue" stroke="midnightblue" points="544.72,-77.72 534.2,-78.96 543.19,-84.55 544.72,-77.72"/>
</g>
<!-- Node5 -->
<g id="node5" class="node">
<title>Node5</title>
<g id="a_node5"><a xlink:href="classTrilinosWrappers_1_1BlockSparsityPattern.html" target="_top" xlink:title=" ">
<polygon fill="white" stroke="black" points="576,-46.5 576,-76.5 732,-76.5 732,-46.5 576,-46.5"/>
<text text-anchor="start" x="584" y="-64.5" font-family="Helvetica,sans-Serif" font-size="10.00">TrilinosWrappers::BlockSparsity</text>
<text text-anchor="middle" x="654" y="-53.5" font-family="Helvetica,sans-Serif" font-size="10.00">Pattern</text>
</a>
</g>
</g>
<!-- Node3&#45;&gt;Node5 -->
<g id="edge4" class="edge">
<title>Node3&#45;&gt;Node5</title>
<path fill="none" stroke="midnightblue" d="M544.39,-63.28C554.71,-63.11 565.32,-62.93 575.68,-62.76"/>
<polygon fill="midnightblue" stroke="midnightblue" points="544.14,-59.78 534.2,-63.44 544.25,-66.78 544.14,-59.78"/>
</g>
<!-- Node7 -->
<g id="node7" class="node">
<title>Node7</title>
<g id="a_node7"><a xlink:href="classBlockDynamicSparsityPattern.html" target="_top" xlink:title=" ">
<polygon fill="white" stroke="black" points="580,-6 580,-25 728,-25 728,-6 580,-6"/>
<text text-anchor="middle" x="654" y="-13" font-family="Helvetica,sans-Serif" font-size="10.00">BlockDynamicSparsityPattern</text>
</a>
</g>
</g>
<!-- Node6&#45;&gt;Node7 -->
<g id="edge6" class="edge">
<title>Node6&#45;&gt;Node7</title>
<path fill="none" stroke="midnightblue" d="M549.2,-15.5C559.35,-15.5 569.7,-15.5 579.75,-15.5"/>
<polygon fill="midnightblue" stroke="midnightblue" points="549.14,-12 539.14,-15.5 549.14,-19 549.14,-12"/>
</g>
</g>
</svg>
