<?xml version="1.0" encoding="UTF-8" standalone="no"?>
<!DOCTYPE svg PUBLIC "-//W3C//DTD SVG 1.1//EN"
 "http://www.w3.org/Graphics/SVG/1.1/DTD/svg11.dtd">
<!-- Generated by graphviz version 2.47.1 (20210417.1919)
 -->
<!-- Title: internal::DoFHandlerImplementation::DoFObjects&lt; dim &gt; Pages: 1 -->
<svg width="417pt" height="88pt"
 viewBox="0.00 0.00 417.00 88.00" xmlns="http://www.w3.org/2000/svg" xmlns:xlink="http://www.w3.org/1999/xlink">
<g id="graph0" class="graph" transform="scale(1 1) rotate(0) translate(4 84)">
<title>internal::DoFHandlerImplementation::DoFObjects&lt; dim &gt;</title>
<polygon fill="white" stroke="transparent" points="-4,4 -4,-84 413,-84 413,4 -4,4"/>
<!-- Node1 -->
<g id="node1" class="node">
<title>Node1</title>
<g id="a_node1"><a xlink:title=" ">
<polygon fill="#bfbfbf" stroke="black" points="0,-24.5 0,-54.5 173,-54.5 173,-24.5 0,-24.5"/>
<text text-anchor="start" x="8" y="-42.5" font-family="Helvetica,sans-Serif" font-size="10.00">internal::DoFHandlerImplementation</text>
<text text-anchor="middle" x="86.5" y="-31.5" font-family="Helvetica,sans-Serif" font-size="10.00">::DoFObjects&lt; dim &gt;</text>
</a>
</g>
</g>
<!-- Node2 -->
<g id="node2" class="node">
<title>Node2</title>
<g id="a_node2"><a xlink:href="classinternal_1_1DoFHandlerImplementation_1_1DoFObjects.html" target="_top" xlink:title=" ">
<polygon fill="white" stroke="black" points="236,-49.5 236,-79.5 409,-79.5 409,-49.5 236,-49.5"/>
<text text-anchor="start" x="244" y="-67.5" font-family="Helvetica,sans-Serif" font-size="10.00">internal::DoFHandlerImplementation</text>
<text text-anchor="middle" x="322.5" y="-56.5" font-family="Helvetica,sans-Serif" font-size="10.00">::DoFObjects&lt; 1 &gt;</text>
</a>
</g>
</g>
<!-- Node1&#45;&gt;Node2 -->
<g id="edge1" class="edge">
<title>Node1&#45;&gt;Node2</title>
<path fill="none" stroke="orange" stroke-dasharray="5,2" d="M183.42,-49.75C200.74,-51.6 218.7,-53.52 235.71,-55.33"/>
<polygon fill="orange" stroke="orange" points="183.62,-46.25 173.3,-48.67 182.88,-53.21 183.62,-46.25"/>
<text text-anchor="middle" x="204.5" y="-55.5" font-family="Helvetica,sans-Serif" font-size="10.00"> &lt; 1 &gt;</text>
</g>
<!-- Node3 -->
<g id="node3" class="node">
<title>Node3</title>
<g id="a_node3"><a xlink:href="classinternal_1_1DoFHandlerImplementation_1_1DoFObjects.html" target="_top" xlink:title=" ">
<polygon fill="white" stroke="black" points="236,-0.5 236,-30.5 409,-30.5 409,-0.5 236,-0.5"/>
<text text-anchor="start" x="244" y="-18.5" font-family="Helvetica,sans-Serif" font-size="10.00">internal::DoFHandlerImplementation</text>
<text text-anchor="middle" x="322.5" y="-7.5" font-family="Helvetica,sans-Serif" font-size="10.00">::DoFObjects&lt; 2 &gt;</text>
</a>
</g>
</g>
<!-- Node1&#45;&gt;Node3 -->
<g id="edge2" class="edge">
<title>Node1&#45;&gt;Node3</title>
<path fill="none" stroke="orange" stroke-dasharray="5,2" d="M183.42,-29.66C200.74,-27.89 218.7,-26.04 235.71,-24.3"/>
<polygon fill="orange" stroke="orange" points="182.89,-26.2 173.3,-30.7 183.61,-33.16 182.89,-26.2"/>
<text text-anchor="middle" x="204.5" y="-30.5" font-family="Helvetica,sans-Serif" font-size="10.00"> &lt; 2 &gt;</text>
</g>
</g>
</svg>
