<?xml version="1.0" encoding="UTF-8" standalone="no"?>
<!DOCTYPE svg PUBLIC "-//W3C//DTD SVG 1.1//EN"
 "http://www.w3.org/Graphics/SVG/1.1/DTD/svg11.dtd">
<!-- Generated by graphviz version 2.47.1 (20210417.1919)
 -->
<!-- Title: MatrixTableIterators::AccessorBase&lt; TableType, Constness, storage_order &gt; Pages: 1 -->
<svg width="574pt" height="110pt"
 viewBox="0.00 0.00 574.00 110.00" xmlns="http://www.w3.org/2000/svg" xmlns:xlink="http://www.w3.org/1999/xlink">
<g id="graph0" class="graph" transform="scale(1 1) rotate(0) translate(4 106)">
<title>MatrixTableIterators::AccessorBase&lt; TableType, Constness, storage_order &gt;</title>
<polygon fill="white" stroke="transparent" points="-4,4 -4,-106 570,-106 570,4 -4,4"/>
<!-- Node1 -->
<g id="node1" class="node">
<title>Node1</title>
<g id="a_node1"><a xlink:title="Accessor base class for Table&lt;2, T&gt; and TransposeTable.">
<polygon fill="#bfbfbf" stroke="black" points="0,-29.5 0,-70.5 143,-70.5 143,-29.5 0,-29.5"/>
<text text-anchor="start" x="8" y="-58.5" font-family="Helvetica,sans-Serif" font-size="10.00">MatrixTableIterators</text>
<text text-anchor="start" x="8" y="-47.5" font-family="Helvetica,sans-Serif" font-size="10.00">::AccessorBase&lt; TableType,</text>
<text text-anchor="middle" x="71.5" y="-36.5" font-family="Helvetica,sans-Serif" font-size="10.00"> Constness, storage_order &gt;</text>
</a>
</g>
</g>
<!-- Node2 -->
<g id="node2" class="node">
<title>Node2</title>
<g id="a_node2"><a xlink:href="classMatrixTableIterators_1_1AccessorBase.html" target="_top" xlink:title=" ">
<polygon fill="white" stroke="black" points="266,-60.5 266,-101.5 409,-101.5 409,-60.5 266,-60.5"/>
<text text-anchor="start" x="274" y="-89.5" font-family="Helvetica,sans-Serif" font-size="10.00">MatrixTableIterators</text>
<text text-anchor="start" x="274" y="-78.5" font-family="Helvetica,sans-Serif" font-size="10.00">::AccessorBase&lt; TableType,</text>
<text text-anchor="middle" x="337.5" y="-67.5" font-family="Helvetica,sans-Serif" font-size="10.00"> true, storage_order &gt;</text>
</a>
</g>
</g>
<!-- Node1&#45;&gt;Node2 -->
<g id="edge1" class="edge">
<title>Node1&#45;&gt;Node2</title>
<path fill="none" stroke="orange" stroke-dasharray="5,2" d="M153.19,-59.48C189.06,-63.69 230.91,-68.6 265.56,-72.67"/>
<polygon fill="orange" stroke="orange" points="153.59,-56 143.25,-58.31 152.77,-62.95 153.59,-56"/>
<text text-anchor="start" x="163.5" y="-84" font-family="Helvetica,sans-Serif" font-size="10.00"> &lt; TableType, true,</text>
<text text-anchor="middle" x="204.5" y="-73" font-family="Helvetica,sans-Serif" font-size="10.00"> storage_order &gt;</text>
</g>
<!-- Node4 -->
<g id="node4" class="node">
<title>Node4</title>
<g id="a_node4"><a xlink:href="classMatrixTableIterators_1_1AccessorBase.html" target="_top" xlink:title=" ">
<polygon fill="white" stroke="black" points="266,-0.5 266,-41.5 409,-41.5 409,-0.5 266,-0.5"/>
<text text-anchor="start" x="274" y="-29.5" font-family="Helvetica,sans-Serif" font-size="10.00">MatrixTableIterators</text>
<text text-anchor="start" x="274" y="-18.5" font-family="Helvetica,sans-Serif" font-size="10.00">::AccessorBase&lt; TableType,</text>
<text text-anchor="middle" x="337.5" y="-7.5" font-family="Helvetica,sans-Serif" font-size="10.00"> false, storage_order &gt;</text>
</a>
</g>
</g>
<!-- Node1&#45;&gt;Node4 -->
<g id="edge3" class="edge">
<title>Node1&#45;&gt;Node4</title>
<path fill="none" stroke="orange" stroke-dasharray="5,2" d="M153.37,-34.05C155.94,-33.68 158.49,-33.33 161,-33 195.37,-28.54 233.77,-25.68 265.86,-23.87"/>
<polygon fill="orange" stroke="orange" points="152.73,-30.61 143.38,-35.6 153.8,-37.53 152.73,-30.61"/>
<text text-anchor="start" x="161" y="-47" font-family="Helvetica,sans-Serif" font-size="10.00"> &lt; TableType, false,</text>
<text text-anchor="middle" x="204.5" y="-36" font-family="Helvetica,sans-Serif" font-size="10.00"> storage_order &gt;</text>
</g>
<!-- Node3 -->
<g id="node3" class="node">
<title>Node3</title>
<g id="a_node3"><a xlink:href="classMatrixTableIterators_1_1Accessor_3_01TableType_00_01true_00_01storage__order_01_4.html" target="_top" xlink:title="Accessor class offering read&#45;only access to elements of a table. This is the same as the base class.">
<polygon fill="white" stroke="black" points="446,-60.5 446,-101.5 566,-101.5 566,-60.5 446,-60.5"/>
<text text-anchor="start" x="454" y="-89.5" font-family="Helvetica,sans-Serif" font-size="10.00">MatrixTableIterators</text>
<text text-anchor="start" x="454" y="-78.5" font-family="Helvetica,sans-Serif" font-size="10.00">::Accessor&lt; TableType,</text>
<text text-anchor="middle" x="506" y="-67.5" font-family="Helvetica,sans-Serif" font-size="10.00"> true, storage_order &gt;</text>
</a>
</g>
</g>
<!-- Node2&#45;&gt;Node3 -->
<g id="edge2" class="edge">
<title>Node2&#45;&gt;Node3</title>
<path fill="none" stroke="midnightblue" d="M419.21,-81C428.18,-81 437.2,-81 445.83,-81"/>
<polygon fill="midnightblue" stroke="midnightblue" points="419.11,-77.5 409.11,-81 419.11,-84.5 419.11,-77.5"/>
</g>
<!-- Node5 -->
<g id="node5" class="node">
<title>Node5</title>
<g id="a_node5"><a xlink:href="classMatrixTableIterators_1_1Accessor_3_01TableType_00_01false_00_01storage__order_01_4.html" target="_top" xlink:title="Accessor class offering read and write access to the elements of a table.">
<polygon fill="white" stroke="black" points="446,-0.5 446,-41.5 566,-41.5 566,-0.5 446,-0.5"/>
<text text-anchor="start" x="454" y="-29.5" font-family="Helvetica,sans-Serif" font-size="10.00">MatrixTableIterators</text>
<text text-anchor="start" x="454" y="-18.5" font-family="Helvetica,sans-Serif" font-size="10.00">::Accessor&lt; TableType,</text>
<text text-anchor="middle" x="506" y="-7.5" font-family="Helvetica,sans-Serif" font-size="10.00"> false, storage_order &gt;</text>
</a>
</g>
</g>
<!-- Node4&#45;&gt;Node5 -->
<g id="edge4" class="edge">
<title>Node4&#45;&gt;Node5</title>
<path fill="none" stroke="midnightblue" d="M419.21,-21C428.18,-21 437.2,-21 445.83,-21"/>
<polygon fill="midnightblue" stroke="midnightblue" points="419.11,-17.5 409.11,-21 419.11,-24.5 419.11,-17.5"/>
</g>
</g>
</svg>
