<?xml version="1.0" encoding="UTF-8" standalone="no"?>
<!DOCTYPE svg PUBLIC "-//W3C//DTD SVG 1.1//EN"
 "http://www.w3.org/Graphics/SVG/1.1/DTD/svg11.dtd">
<!-- Generated by graphviz version 2.47.1 (20210417.1919)
 -->
<!-- Title: FE_Pyramid&lt; dim, spacedim &gt; Pages: 1 -->
<svg width="364pt" height="501pt"
 viewBox="0.00 0.00 364.00 501.00" xmlns="http://www.w3.org/2000/svg" xmlns:xlink="http://www.w3.org/1999/xlink">
<g id="graph0" class="graph" transform="scale(1 1) rotate(0) translate(4 497)">
<title>FE_Pyramid&lt; dim, spacedim &gt;</title>
<polygon fill="white" stroke="transparent" points="-4,4 -4,-497 360,-497 360,4 -4,4"/>
<!-- Node1 -->
<g id="node1" class="node">
<title>Node1</title>
<g id="a_node1"><a xlink:title=" ">
<polygon fill="#bfbfbf" stroke="black" points="63,-135.5 63,-154.5 215,-154.5 215,-135.5 63,-135.5"/>
<text text-anchor="middle" x="139" y="-142.5" font-family="Helvetica,sans-Serif" font-size="10.00">FE_Pyramid&lt; dim, spacedim &gt;</text>
</a>
</g>
</g>
<!-- Node8 -->
<g id="node8" class="node">
<title>Node8</title>
<g id="a_node8"><a xlink:href="classFE__Pyramid.html" target="_top" xlink:title=" ">
<polygon fill="white" stroke="black" points="76,-68.5 76,-87.5 202,-87.5 202,-68.5 76,-68.5"/>
<text text-anchor="middle" x="139" y="-75.5" font-family="Helvetica,sans-Serif" font-size="10.00">FE_Pyramid&lt; dim, dim &gt;</text>
</a>
</g>
</g>
<!-- Node1&#45;&gt;Node8 -->
<g id="edge11" class="edge">
<title>Node1&#45;&gt;Node8</title>
<path fill="none" stroke="orange" stroke-dasharray="5,2" d="M139,-125.04C139,-112.67 139,-97.12 139,-87.63"/>
<polygon fill="orange" stroke="orange" points="135.5,-125.23 139,-135.23 142.5,-125.23 135.5,-125.23"/>
<text text-anchor="middle" x="168.5" y="-109" font-family="Helvetica,sans-Serif" font-size="10.00"> &lt; dim, dim &gt;</text>
</g>
<!-- Node2 -->
<g id="node2" class="node">
<title>Node2</title>
<g id="a_node2"><a xlink:href="classFE__Poly.html" target="_top" xlink:title=" ">
<polygon fill="white" stroke="black" points="84,-192.5 84,-211.5 194,-211.5 194,-192.5 84,-192.5"/>
<text text-anchor="middle" x="139" y="-199.5" font-family="Helvetica,sans-Serif" font-size="10.00">FE_Poly&lt; dim, dim &gt;</text>
</a>
</g>
</g>
<!-- Node2&#45;&gt;Node1 -->
<g id="edge1" class="edge">
<title>Node2&#45;&gt;Node1</title>
<path fill="none" stroke="midnightblue" d="M139,-182.12C139,-172.82 139,-162.06 139,-154.71"/>
<polygon fill="midnightblue" stroke="midnightblue" points="135.5,-182.41 139,-192.41 142.5,-182.41 135.5,-182.41"/>
</g>
<!-- Node3 -->
<g id="node3" class="node">
<title>Node3</title>
<g id="a_node3"><a xlink:href="classFiniteElement.html" target="_top" xlink:title=" ">
<polygon fill="white" stroke="black" points="50,-394.5 50,-424.5 154,-424.5 154,-394.5 50,-394.5"/>
<text text-anchor="start" x="58" y="-412.5" font-family="Helvetica,sans-Serif" font-size="10.00">FiniteElement&lt; dim,</text>
<text text-anchor="middle" x="102" y="-401.5" font-family="Helvetica,sans-Serif" font-size="10.00"> spacedim &gt;</text>
</a>
</g>
</g>
<!-- Node3&#45;&gt;Node2 -->
<g id="edge2" class="edge">
<title>Node3&#45;&gt;Node2</title>
<path fill="none" stroke="midnightblue" d="M106.33,-384.45C114.55,-338.8 132.07,-241.48 137.42,-211.78"/>
<polygon fill="midnightblue" stroke="midnightblue" points="102.87,-383.91 104.54,-394.38 109.76,-385.15 102.87,-383.91"/>
</g>
<!-- Node3&#45;&gt;Node3 -->
<g id="edge5" class="edge">
<title>Node3&#45;&gt;Node3</title>
<path fill="none" stroke="orange" stroke-dasharray="5,2" d="M164.4,-414.27C169.11,-413.21 172,-411.62 172,-409.5 172,-406.11 164.59,-404.08 154.2,-403.39"/>
<polygon fill="orange" stroke="orange" points="163.66,-410.84 154.2,-415.61 164.57,-417.78 163.66,-410.84"/>
<text text-anchor="middle" x="214.5" y="-407" font-family="Helvetica,sans-Serif" font-size="10.00"> &lt; dim, spacedim &gt;</text>
</g>
<!-- Node7 -->
<g id="node7" class="node">
<title>Node7</title>
<g id="a_node7"><a xlink:href="classFiniteElement.html" target="_top" xlink:title=" ">
<polygon fill="white" stroke="black" points="204,-316.5 204,-346.5 308,-346.5 308,-316.5 204,-316.5"/>
<text text-anchor="start" x="212" y="-334.5" font-family="Helvetica,sans-Serif" font-size="10.00">FiniteElement&lt; dim,</text>
<text text-anchor="middle" x="256" y="-323.5" font-family="Helvetica,sans-Serif" font-size="10.00"> dim &gt;</text>
</a>
</g>
</g>
<!-- Node3&#45;&gt;Node7 -->
<g id="edge10" class="edge">
<title>Node3&#45;&gt;Node7</title>
<path fill="none" stroke="orange" stroke-dasharray="5,2" d="M139.79,-389.85C166.9,-376.47 202.85,-358.73 227.55,-346.54"/>
<polygon fill="orange" stroke="orange" points="138.02,-386.82 130.61,-394.38 141.12,-393.1 138.02,-386.82"/>
<text text-anchor="middle" x="217.5" y="-368" font-family="Helvetica,sans-Serif" font-size="10.00"> &lt; dim, dim &gt;</text>
</g>
<!-- Node4 -->
<g id="node4" class="node">
<title>Node4</title>
<g id="a_node4"><a xlink:href="classSubscriptor.html" target="_top" xlink:title=" ">
<polygon fill="white" stroke="black" points="290,-468 290,-487 356,-487 356,-468 290,-468"/>
<text text-anchor="middle" x="323" y="-475" font-family="Helvetica,sans-Serif" font-size="10.00">Subscriptor</text>
</a>
</g>
</g>
<!-- Node4&#45;&gt;Node3 -->
<g id="edge3" class="edge">
<title>Node4&#45;&gt;Node3</title>
<path fill="none" stroke="midnightblue" d="M284.51,-465.01C246.85,-453.76 189.42,-436.61 149.07,-424.56"/>
<polygon fill="midnightblue" stroke="midnightblue" points="283.52,-468.36 294.11,-467.87 285.53,-461.66 283.52,-468.36"/>
</g>
<!-- Node4&#45;&gt;Node7 -->
<g id="edge8" class="edge">
<title>Node4&#45;&gt;Node7</title>
<path fill="none" stroke="midnightblue" d="M322.86,-457.62C321.85,-434.15 317.31,-393.71 299,-365 294.47,-357.9 287.81,-351.77 281.08,-346.82"/>
<polygon fill="midnightblue" stroke="midnightblue" points="319.37,-458.01 323.12,-467.92 326.37,-457.83 319.37,-458.01"/>
</g>
<!-- Node5 -->
<g id="node5" class="node">
<title>Node5</title>
<g id="a_node5"><a xlink:href="classFiniteElementData.html" target="_top" xlink:title=" ">
<polygon fill="white" stroke="black" points="136,-462.5 136,-492.5 240,-492.5 240,-462.5 136,-462.5"/>
<text text-anchor="start" x="144" y="-480.5" font-family="Helvetica,sans-Serif" font-size="10.00">FiniteElementData&lt;</text>
<text text-anchor="middle" x="188" y="-469.5" font-family="Helvetica,sans-Serif" font-size="10.00"> dim &gt;</text>
</a>
</g>
</g>
<!-- Node5&#45;&gt;Node3 -->
<g id="edge4" class="edge">
<title>Node5&#45;&gt;Node3</title>
<path fill="none" stroke="midnightblue" d="M161.04,-455.81C147.79,-445.64 132.17,-433.66 120.33,-424.57"/>
<polygon fill="midnightblue" stroke="midnightblue" points="159.28,-458.87 169.34,-462.18 163.54,-453.31 159.28,-458.87"/>
</g>
<!-- Node5&#45;&gt;Node7 -->
<g id="edge9" class="edge">
<title>Node5&#45;&gt;Node7</title>
<path fill="none" stroke="midnightblue" d="M232.72,-457.34C245.84,-449.36 258.63,-438.7 266,-425 279.47,-399.97 269.69,-365.63 262.27,-346.62"/>
<polygon fill="midnightblue" stroke="midnightblue" points="230.65,-454.49 223.65,-462.44 234.08,-460.59 230.65,-454.49"/>
</g>
<!-- Node6 -->
<g id="node6" class="node">
<title>Node6</title>
<g id="a_node6"><a xlink:href="classFE__Poly.html" target="_top" xlink:title=" ">
<polygon fill="white" stroke="black" points="156,-259.5 156,-278.5 292,-278.5 292,-259.5 156,-259.5"/>
<text text-anchor="middle" x="224" y="-266.5" font-family="Helvetica,sans-Serif" font-size="10.00">FE_Poly&lt; dim, spacedim &gt;</text>
</a>
</g>
</g>
<!-- Node6&#45;&gt;Node2 -->
<g id="edge6" class="edge">
<title>Node6&#45;&gt;Node2</title>
<path fill="none" stroke="orange" stroke-dasharray="5,2" d="M204.47,-253.07C187.7,-240.24 164.09,-222.19 150.28,-211.63"/>
<polygon fill="orange" stroke="orange" points="202.47,-255.94 212.54,-259.23 206.72,-250.38 202.47,-255.94"/>
<text text-anchor="middle" x="215.5" y="-233" font-family="Helvetica,sans-Serif" font-size="10.00"> &lt; dim, dim &gt;</text>
</g>
<!-- Node7&#45;&gt;Node6 -->
<g id="edge7" class="edge">
<title>Node7&#45;&gt;Node6</title>
<path fill="none" stroke="midnightblue" d="M243.89,-307.6C238.51,-297.43 232.51,-286.08 228.52,-278.54"/>
<polygon fill="midnightblue" stroke="midnightblue" points="240.81,-309.26 248.58,-316.47 247,-305.99 240.81,-309.26"/>
</g>
<!-- Node9 -->
<g id="node9" class="node">
<title>Node9</title>
<g id="a_node9"><a xlink:href="classFE__PyramidDGP.html" target="_top" xlink:title=" ">
<polygon fill="white" stroke="black" points="0,-0.5 0,-30.5 120,-30.5 120,-0.5 0,-0.5"/>
<text text-anchor="start" x="8" y="-18.5" font-family="Helvetica,sans-Serif" font-size="10.00">FE_PyramidDGP&lt; dim,</text>
<text text-anchor="middle" x="60" y="-7.5" font-family="Helvetica,sans-Serif" font-size="10.00"> spacedim &gt;</text>
</a>
</g>
</g>
<!-- Node8&#45;&gt;Node9 -->
<g id="edge12" class="edge">
<title>Node8&#45;&gt;Node9</title>
<path fill="none" stroke="midnightblue" d="M119.65,-62.18C107.04,-52.53 90.71,-40.01 78.31,-30.53"/>
<polygon fill="midnightblue" stroke="midnightblue" points="117.61,-65.03 127.68,-68.33 121.87,-59.47 117.61,-65.03"/>
</g>
<!-- Node10 -->
<g id="node10" class="node">
<title>Node10</title>
<g id="a_node10"><a xlink:href="classFE__PyramidP.html" target="_top" xlink:title=" ">
<polygon fill="white" stroke="black" points="138.5,-6 138.5,-25 297.5,-25 297.5,-6 138.5,-6"/>
<text text-anchor="middle" x="218" y="-13" font-family="Helvetica,sans-Serif" font-size="10.00">FE_PyramidP&lt; dim, spacedim &gt;</text>
</a>
</g>
</g>
<!-- Node8&#45;&gt;Node10 -->
<g id="edge13" class="edge">
<title>Node8&#45;&gt;Node10</title>
<path fill="none" stroke="midnightblue" d="M158.53,-62.05C173.68,-50.44 194.16,-34.76 206.7,-25.15"/>
<polygon fill="midnightblue" stroke="midnightblue" points="156.13,-59.47 150.32,-68.33 160.39,-65.03 156.13,-59.47"/>
</g>
</g>
</svg>
