<?xml version="1.0" encoding="UTF-8" standalone="no"?>
<!DOCTYPE svg PUBLIC "-//W3C//DTD SVG 1.1//EN"
 "http://www.w3.org/Graphics/SVG/1.1/DTD/svg11.dtd">
<!-- Generated by graphviz version 2.47.1 (20210417.1919)
 -->
<!-- Title: MappingQEulerian&lt; dim, VectorType, spacedim &gt;::MappingQEulerianGeneric Pages: 1 -->
<svg width="251pt" height="232pt"
 viewBox="0.00 0.00 251.00 232.00" xmlns="http://www.w3.org/2000/svg" xmlns:xlink="http://www.w3.org/1999/xlink">
<g id="graph0" class="graph" transform="scale(1 1) rotate(0) translate(4 228)">
<title>MappingQEulerian&lt; dim, VectorType, spacedim &gt;::MappingQEulerianGeneric</title>
<polygon fill="white" stroke="transparent" points="-4,4 -4,-228 247,-228 247,4 -4,4"/>
<!-- Node1 -->
<g id="node1" class="node">
<title>Node1</title>
<g id="a_node1"><a xlink:title=" ">
<polygon fill="#bfbfbf" stroke="black" points="0,-0.5 0,-41.5 145,-41.5 145,-0.5 0,-0.5"/>
<text text-anchor="start" x="8" y="-29.5" font-family="Helvetica,sans-Serif" font-size="10.00">MappingQEulerian&lt; dim,</text>
<text text-anchor="start" x="8" y="-18.5" font-family="Helvetica,sans-Serif" font-size="10.00"> VectorType, spacedim</text>
<text text-anchor="middle" x="72.5" y="-7.5" font-family="Helvetica,sans-Serif" font-size="10.00"> &gt;::MappingQEulerianGeneric</text>
</a>
</g>
</g>
<!-- Node2 -->
<g id="node2" class="node">
<title>Node2</title>
<g id="a_node2"><a xlink:href="classMappingQGeneric.html" target="_top" xlink:title=" ">
<polygon fill="white" stroke="black" points="11.5,-79.5 11.5,-109.5 133.5,-109.5 133.5,-79.5 11.5,-79.5"/>
<text text-anchor="start" x="19.5" y="-97.5" font-family="Helvetica,sans-Serif" font-size="10.00">MappingQGeneric&lt; dim,</text>
<text text-anchor="middle" x="72.5" y="-86.5" font-family="Helvetica,sans-Serif" font-size="10.00"> spacedim &gt;</text>
</a>
</g>
</g>
<!-- Node2&#45;&gt;Node1 -->
<g id="edge1" class="edge">
<title>Node2&#45;&gt;Node1</title>
<path fill="none" stroke="midnightblue" d="M72.5,-69.1C72.5,-60.1 72.5,-50.02 72.5,-41.51"/>
<polygon fill="midnightblue" stroke="midnightblue" points="69,-69.37 72.5,-79.37 76,-69.37 69,-69.37"/>
</g>
<!-- Node2&#45;&gt;Node2 -->
<g id="edge5" class="edge">
<title>Node2&#45;&gt;Node2</title>
<path fill="none" stroke="orange" stroke-dasharray="5,2" d="M143.99,-99.04C148.67,-97.99 151.5,-96.47 151.5,-94.5 151.5,-91.35 144.25,-89.36 133.78,-88.55"/>
<polygon fill="orange" stroke="orange" points="143.21,-95.62 133.78,-100.45 144.16,-102.55 143.21,-95.62"/>
<text text-anchor="middle" x="194" y="-92" font-family="Helvetica,sans-Serif" font-size="10.00"> &lt; dim, spacedim &gt;</text>
</g>
<!-- Node3 -->
<g id="node3" class="node">
<title>Node3</title>
<g id="a_node3"><a xlink:href="classMapping.html" target="_top" xlink:title=" ">
<polygon fill="white" stroke="black" points="5,-147.5 5,-166.5 140,-166.5 140,-147.5 5,-147.5"/>
<text text-anchor="middle" x="72.5" y="-154.5" font-family="Helvetica,sans-Serif" font-size="10.00">Mapping&lt; dim, spacedim &gt;</text>
</a>
</g>
</g>
<!-- Node3&#45;&gt;Node2 -->
<g id="edge2" class="edge">
<title>Node3&#45;&gt;Node2</title>
<path fill="none" stroke="midnightblue" d="M72.5,-137.22C72.5,-128.36 72.5,-117.96 72.5,-109.76"/>
<polygon fill="midnightblue" stroke="midnightblue" points="69,-137.33 72.5,-147.33 76,-137.33 69,-137.33"/>
</g>
<!-- Node3&#45;&gt;Node3 -->
<g id="edge4" class="edge">
<title>Node3&#45;&gt;Node3</title>
<path fill="none" stroke="orange" stroke-dasharray="5,2" d="M150.5,-160.63C155.19,-159.76 158,-158.56 158,-157 158,-154.51 150.8,-152.91 140.23,-152.19"/>
<polygon fill="orange" stroke="orange" points="149.77,-157.19 140.23,-161.81 150.57,-164.14 149.77,-157.19"/>
<text text-anchor="middle" x="200.5" y="-154.5" font-family="Helvetica,sans-Serif" font-size="10.00"> &lt; dim, spacedim &gt;</text>
</g>
<!-- Node4 -->
<g id="node4" class="node">
<title>Node4</title>
<g id="a_node4"><a xlink:href="classSubscriptor.html" target="_top" xlink:title=" ">
<polygon fill="white" stroke="black" points="39.5,-204.5 39.5,-223.5 105.5,-223.5 105.5,-204.5 39.5,-204.5"/>
<text text-anchor="middle" x="72.5" y="-211.5" font-family="Helvetica,sans-Serif" font-size="10.00">Subscriptor</text>
</a>
</g>
</g>
<!-- Node4&#45;&gt;Node3 -->
<g id="edge3" class="edge">
<title>Node4&#45;&gt;Node3</title>
<path fill="none" stroke="midnightblue" d="M72.5,-194.12C72.5,-184.82 72.5,-174.06 72.5,-166.71"/>
<polygon fill="midnightblue" stroke="midnightblue" points="69,-194.41 72.5,-204.41 76,-194.41 69,-194.41"/>
</g>
</g>
</svg>
