<?xml version="1.0" encoding="UTF-8" standalone="no"?>
<!DOCTYPE svg PUBLIC "-//W3C//DTD SVG 1.1//EN"
 "http://www.w3.org/Graphics/SVG/1.1/DTD/svg11.dtd">
<!-- Generated by graphviz version 2.47.1 (20210417.1919)
 -->
<!-- Title: MappingManifold&lt; dim, spacedim &gt; Pages: 1 -->
<svg width="215pt" height="220pt"
 viewBox="0.00 0.00 214.50 220.00" xmlns="http://www.w3.org/2000/svg" xmlns:xlink="http://www.w3.org/1999/xlink">
<g id="graph0" class="graph" transform="scale(1 1) rotate(0) translate(4 216)">
<title>MappingManifold&lt; dim, spacedim &gt;</title>
<polygon fill="white" stroke="transparent" points="-4,4 -4,-216 210.5,-216 210.5,4 -4,4"/>
<!-- Node1 -->
<g id="node1" class="node">
<title>Node1</title>
<g id="a_node1"><a xlink:title=" ">
<polygon fill="#bfbfbf" stroke="black" points="0,-0.5 0,-30.5 118,-30.5 118,-0.5 0,-0.5"/>
<text text-anchor="start" x="8" y="-18.5" font-family="Helvetica,sans-Serif" font-size="10.00">MappingManifold&lt; dim,</text>
<text text-anchor="middle" x="59" y="-7.5" font-family="Helvetica,sans-Serif" font-size="10.00"> spacedim &gt;</text>
</a>
</g>
</g>
<!-- Node2 -->
<g id="node2" class="node">
<title>Node2</title>
<g id="a_node2"><a xlink:href="classMapping.html" target="_top" xlink:title=" ">
<polygon fill="white" stroke="black" points="4.5,-68.5 4.5,-87.5 113.5,-87.5 113.5,-68.5 4.5,-68.5"/>
<text text-anchor="middle" x="59" y="-75.5" font-family="Helvetica,sans-Serif" font-size="10.00">Mapping&lt; dim, dim &gt;</text>
</a>
</g>
</g>
<!-- Node2&#45;&gt;Node1 -->
<g id="edge1" class="edge">
<title>Node2&#45;&gt;Node1</title>
<path fill="none" stroke="midnightblue" d="M59,-58.22C59,-49.36 59,-38.96 59,-30.76"/>
<polygon fill="midnightblue" stroke="midnightblue" points="55.5,-58.33 59,-68.33 62.5,-58.33 55.5,-58.33"/>
</g>
<!-- Node3 -->
<g id="node3" class="node">
<title>Node3</title>
<g id="a_node3"><a xlink:href="classSubscriptor.html" target="_top" xlink:title=" ">
<polygon fill="white" stroke="black" points="22,-192.5 22,-211.5 88,-211.5 88,-192.5 22,-192.5"/>
<text text-anchor="middle" x="55" y="-199.5" font-family="Helvetica,sans-Serif" font-size="10.00">Subscriptor</text>
</a>
</g>
</g>
<!-- Node3&#45;&gt;Node2 -->
<g id="edge2" class="edge">
<title>Node3&#45;&gt;Node2</title>
<path fill="none" stroke="midnightblue" d="M55.62,-182.19C56.5,-155.4 58.07,-107.31 58.71,-87.69"/>
<polygon fill="midnightblue" stroke="midnightblue" points="52.12,-182.12 55.29,-192.23 59.11,-182.35 52.12,-182.12"/>
</g>
<!-- Node4 -->
<g id="node4" class="node">
<title>Node4</title>
<g id="a_node4"><a xlink:href="classMapping.html" target="_top" xlink:title="Abstract base class for mapping classes.">
<polygon fill="white" stroke="black" points="71.5,-135.5 71.5,-154.5 206.5,-154.5 206.5,-135.5 71.5,-135.5"/>
<text text-anchor="middle" x="139" y="-142.5" font-family="Helvetica,sans-Serif" font-size="10.00">Mapping&lt; dim, spacedim &gt;</text>
</a>
</g>
</g>
<!-- Node3&#45;&gt;Node4 -->
<g id="edge4" class="edge">
<title>Node3&#45;&gt;Node4</title>
<path fill="none" stroke="midnightblue" d="M76.65,-186.82C92.26,-176.61 112.81,-163.15 125.97,-154.53"/>
<polygon fill="midnightblue" stroke="midnightblue" points="74.57,-184 68.12,-192.41 78.41,-189.86 74.57,-184"/>
</g>
<!-- Node4&#45;&gt;Node2 -->
<g id="edge3" class="edge">
<title>Node4&#45;&gt;Node2</title>
<path fill="none" stroke="orange" stroke-dasharray="5,2" d="M120.19,-128.71C104.42,-115.91 82.49,-98.09 69.62,-87.63"/>
<polygon fill="orange" stroke="orange" points="118.24,-131.64 128.21,-135.23 122.66,-126.21 118.24,-131.64"/>
<text text-anchor="middle" x="132.5" y="-109" font-family="Helvetica,sans-Serif" font-size="10.00"> &lt; dim, dim &gt;</text>
</g>
</g>
</svg>
