<?xml version="1.0" encoding="UTF-8" standalone="no"?>
<!DOCTYPE svg PUBLIC "-//W3C//DTD SVG 1.1//EN"
 "http://www.w3.org/Graphics/SVG/1.1/DTD/svg11.dtd">
<!-- Generated by graphviz version 2.47.1 (20210417.1919)
 -->
<!-- Title: LinearAlgebra::distributed::BlockVector&lt; Number &gt; Pages: 1 -->
<svg width="294pt" height="231pt"
 viewBox="0.00 0.00 294.00 231.00" xmlns="http://www.w3.org/2000/svg" xmlns:xlink="http://www.w3.org/1999/xlink">
<g id="graph0" class="graph" transform="scale(1 1) rotate(0) translate(4 227)">
<title>LinearAlgebra::distributed::BlockVector&lt; Number &gt;</title>
<polygon fill="white" stroke="transparent" points="-4,4 -4,-227 290,-227 290,4 -4,4"/>
<!-- Node1 -->
<g id="node1" class="node">
<title>Node1</title>
<g id="a_node1"><a xlink:title=" ">
<polygon fill="#bfbfbf" stroke="black" points="115,-0.5 115,-30.5 243,-30.5 243,-0.5 115,-0.5"/>
<text text-anchor="start" x="123" y="-18.5" font-family="Helvetica,sans-Serif" font-size="10.00">LinearAlgebra::distributed</text>
<text text-anchor="middle" x="179" y="-7.5" font-family="Helvetica,sans-Serif" font-size="10.00">::BlockVector&lt; Number &gt;</text>
</a>
</g>
</g>
<!-- Node2 -->
<g id="node2" class="node">
<title>Node2</title>
<g id="a_node2"><a xlink:href="classBlockVectorBase.html" target="_top" xlink:title=" ">
<polygon fill="white" stroke="black" points="0,-68.5 0,-98.5 130,-98.5 130,-68.5 0,-68.5"/>
<text text-anchor="start" x="8" y="-86.5" font-family="Helvetica,sans-Serif" font-size="10.00">BlockVectorBase&lt; Vector</text>
<text text-anchor="middle" x="65" y="-75.5" font-family="Helvetica,sans-Serif" font-size="10.00">&lt; Number &gt; &gt;</text>
</a>
</g>
</g>
<!-- Node2&#45;&gt;Node1 -->
<g id="edge1" class="edge">
<title>Node2&#45;&gt;Node1</title>
<path fill="none" stroke="midnightblue" d="M98.46,-63.13C116.44,-52.72 138.21,-40.11 154.58,-30.64"/>
<polygon fill="midnightblue" stroke="midnightblue" points="96.36,-60.3 89.46,-68.34 99.86,-66.36 96.36,-60.3"/>
</g>
<!-- Node3 -->
<g id="node3" class="node">
<title>Node3</title>
<g id="a_node3"><a xlink:href="classSubscriptor.html" target="_top" xlink:title=" ">
<polygon fill="white" stroke="black" points="28,-203.5 28,-222.5 94,-222.5 94,-203.5 28,-203.5"/>
<text text-anchor="middle" x="61" y="-210.5" font-family="Helvetica,sans-Serif" font-size="10.00">Subscriptor</text>
</a>
</g>
</g>
<!-- Node3&#45;&gt;Node2 -->
<g id="edge2" class="edge">
<title>Node3&#45;&gt;Node2</title>
<path fill="none" stroke="midnightblue" d="M61.6,-192.9C62.41,-167.05 63.84,-121.54 64.56,-98.59"/>
<polygon fill="midnightblue" stroke="midnightblue" points="58.09,-193.13 61.27,-203.24 65.09,-193.35 58.09,-193.13"/>
</g>
<!-- Node4 -->
<g id="node4" class="node">
<title>Node4</title>
<g id="a_node4"><a xlink:href="classBlockVectorBase.html" target="_top" xlink:title=" ">
<polygon fill="white" stroke="black" points="77,-146.5 77,-165.5 237,-165.5 237,-146.5 77,-146.5"/>
<text text-anchor="middle" x="157" y="-153.5" font-family="Helvetica,sans-Serif" font-size="10.00">BlockVectorBase&lt; VectorType &gt;</text>
</a>
</g>
</g>
<!-- Node3&#45;&gt;Node4 -->
<g id="edge4" class="edge">
<title>Node3&#45;&gt;Node4</title>
<path fill="none" stroke="midnightblue" d="M84.75,-198.39C102.7,-188.11 126.79,-174.31 142.11,-165.53"/>
<polygon fill="midnightblue" stroke="midnightblue" points="82.94,-195.4 76,-203.41 86.42,-201.47 82.94,-195.4"/>
</g>
<!-- Node4&#45;&gt;Node2 -->
<g id="edge3" class="edge">
<title>Node4&#45;&gt;Node2</title>
<path fill="none" stroke="orange" stroke-dasharray="5,2" d="M137.59,-140.13C121.6,-127.87 99.07,-110.61 83.37,-98.58"/>
<polygon fill="orange" stroke="orange" points="135.65,-143.05 145.72,-146.36 139.91,-137.49 135.65,-143.05"/>
<text text-anchor="middle" x="171.5" y="-120" font-family="Helvetica,sans-Serif" font-size="10.00"> &lt; Vector&lt; Number &gt; &gt;</text>
</g>
<!-- Node5 -->
<g id="node5" class="node">
<title>Node5</title>
<g id="a_node5"><a xlink:href="classLinearAlgebra_1_1VectorSpaceVector.html" target="_top" xlink:title=" ">
<polygon fill="white" stroke="black" points="148,-68.5 148,-98.5 286,-98.5 286,-68.5 148,-68.5"/>
<text text-anchor="start" x="156" y="-86.5" font-family="Helvetica,sans-Serif" font-size="10.00">LinearAlgebra::VectorSpace</text>
<text text-anchor="middle" x="217" y="-75.5" font-family="Helvetica,sans-Serif" font-size="10.00">Vector&lt; Number &gt;</text>
</a>
</g>
</g>
<!-- Node5&#45;&gt;Node1 -->
<g id="edge5" class="edge">
<title>Node5&#45;&gt;Node1</title>
<path fill="none" stroke="midnightblue" d="M203.6,-59.22C198.14,-49.74 192.01,-39.09 187.23,-30.79"/>
<polygon fill="midnightblue" stroke="midnightblue" points="200.73,-61.26 208.75,-68.18 206.8,-57.77 200.73,-61.26"/>
</g>
</g>
</svg>
