<?xml version="1.0" encoding="UTF-8" standalone="no"?>
<!DOCTYPE svg PUBLIC "-//W3C//DTD SVG 1.1//EN"
 "http://www.w3.org/Graphics/SVG/1.1/DTD/svg11.dtd">
<!-- Generated by graphviz version 2.47.1 (20210417.1919)
 -->
<!-- Title: OpenCASCADE::DirectionalProjectionManifold&lt; dim, spacedim &gt; Pages: 1 -->
<svg width="231pt" height="232pt"
 viewBox="0.00 0.00 231.00 232.00" xmlns="http://www.w3.org/2000/svg" xmlns:xlink="http://www.w3.org/1999/xlink">
<g id="graph0" class="graph" transform="scale(1 1) rotate(0) translate(4 228)">
<title>OpenCASCADE::DirectionalProjectionManifold&lt; dim, spacedim &gt;</title>
<polygon fill="white" stroke="transparent" points="-4,4 -4,-228 227,-228 227,4 -4,4"/>
<!-- Node1 -->
<g id="node1" class="node">
<title>Node1</title>
<g id="a_node1"><a xlink:title=" ">
<polygon fill="#bfbfbf" stroke="black" points="0,-0.5 0,-41.5 142,-41.5 142,-0.5 0,-0.5"/>
<text text-anchor="start" x="8" y="-29.5" font-family="Helvetica,sans-Serif" font-size="10.00">OpenCASCADE::Directional</text>
<text text-anchor="start" x="8" y="-18.5" font-family="Helvetica,sans-Serif" font-size="10.00">ProjectionManifold&lt; dim,</text>
<text text-anchor="middle" x="71" y="-7.5" font-family="Helvetica,sans-Serif" font-size="10.00"> spacedim &gt;</text>
</a>
</g>
</g>
<!-- Node2 -->
<g id="node2" class="node">
<title>Node2</title>
<g id="a_node2"><a xlink:href="classFlatManifold.html" target="_top" xlink:title=" ">
<polygon fill="white" stroke="black" points="22,-79.5 22,-109.5 120,-109.5 120,-79.5 22,-79.5"/>
<text text-anchor="start" x="30" y="-97.5" font-family="Helvetica,sans-Serif" font-size="10.00">FlatManifold&lt; dim,</text>
<text text-anchor="middle" x="71" y="-86.5" font-family="Helvetica,sans-Serif" font-size="10.00"> spacedim &gt;</text>
</a>
</g>
</g>
<!-- Node2&#45;&gt;Node1 -->
<g id="edge1" class="edge">
<title>Node2&#45;&gt;Node1</title>
<path fill="none" stroke="midnightblue" d="M71,-69.1C71,-60.1 71,-50.02 71,-41.51"/>
<polygon fill="midnightblue" stroke="midnightblue" points="67.5,-69.37 71,-79.37 74.5,-69.37 67.5,-69.37"/>
</g>
<!-- Node2&#45;&gt;Node2 -->
<g id="edge4" class="edge">
<title>Node2&#45;&gt;Node2</title>
<path fill="none" stroke="orange" stroke-dasharray="5,2" d="M130.32,-99.36C135.06,-98.3 138,-96.68 138,-94.5 138,-91.01 130.49,-88.96 120.08,-88.33"/>
<polygon fill="orange" stroke="orange" points="129.56,-95.93 120.08,-100.67 130.44,-102.87 129.56,-95.93"/>
<text text-anchor="middle" x="180.5" y="-92" font-family="Helvetica,sans-Serif" font-size="10.00"> &lt; dim, spacedim &gt;</text>
</g>
<!-- Node3 -->
<g id="node3" class="node">
<title>Node3</title>
<g id="a_node3"><a xlink:href="classManifold.html" target="_top" xlink:title=" ">
<polygon fill="white" stroke="black" points="3.5,-147.5 3.5,-166.5 138.5,-166.5 138.5,-147.5 3.5,-147.5"/>
<text text-anchor="middle" x="71" y="-154.5" font-family="Helvetica,sans-Serif" font-size="10.00">Manifold&lt; dim, spacedim &gt;</text>
</a>
</g>
</g>
<!-- Node3&#45;&gt;Node2 -->
<g id="edge2" class="edge">
<title>Node3&#45;&gt;Node2</title>
<path fill="none" stroke="midnightblue" d="M71,-137.22C71,-128.36 71,-117.96 71,-109.76"/>
<polygon fill="midnightblue" stroke="midnightblue" points="67.5,-137.33 71,-147.33 74.5,-137.33 67.5,-137.33"/>
</g>
<!-- Node4 -->
<g id="node4" class="node">
<title>Node4</title>
<g id="a_node4"><a xlink:href="classSubscriptor.html" target="_top" xlink:title=" ">
<polygon fill="white" stroke="black" points="38,-204.5 38,-223.5 104,-223.5 104,-204.5 38,-204.5"/>
<text text-anchor="middle" x="71" y="-211.5" font-family="Helvetica,sans-Serif" font-size="10.00">Subscriptor</text>
</a>
</g>
</g>
<!-- Node4&#45;&gt;Node3 -->
<g id="edge3" class="edge">
<title>Node4&#45;&gt;Node3</title>
<path fill="none" stroke="midnightblue" d="M71,-194.12C71,-184.82 71,-174.06 71,-166.71"/>
<polygon fill="midnightblue" stroke="midnightblue" points="67.5,-194.41 71,-204.41 74.5,-194.41 67.5,-194.41"/>
</g>
</g>
</svg>
