<?xml version="1.0" encoding="UTF-8" standalone="no"?>
<!DOCTYPE svg PUBLIC "-//W3C//DTD SVG 1.1//EN"
 "http://www.w3.org/Graphics/SVG/1.1/DTD/svg11.dtd">
<!-- Generated by graphviz version 2.47.1 (20210417.1919)
 -->
<!-- Title: FE_DGBDM&lt; dim, spacedim &gt; Pages: 1 -->
<svg width="317pt" height="467pt"
 viewBox="0.00 0.00 317.00 467.00" xmlns="http://www.w3.org/2000/svg" xmlns:xlink="http://www.w3.org/1999/xlink">
<g id="graph0" class="graph" transform="scale(1 1) rotate(0) translate(4 463)">
<title>FE_DGBDM&lt; dim, spacedim &gt;</title>
<polygon fill="white" stroke="transparent" points="-4,4 -4,-463 313,-463 313,4 -4,4"/>
<!-- Node1 -->
<g id="node1" class="node">
<title>Node1</title>
<g id="a_node1"><a xlink:title=" ">
<polygon fill="#bfbfbf" stroke="black" points="0,-0.5 0,-19.5 154,-19.5 154,-0.5 0,-0.5"/>
<text text-anchor="middle" x="77" y="-7.5" font-family="Helvetica,sans-Serif" font-size="10.00">FE_DGBDM&lt; dim, spacedim &gt;</text>
</a>
</g>
</g>
<!-- Node2 -->
<g id="node2" class="node">
<title>Node2</title>
<g id="a_node2"><a xlink:href="classFE__DGVector.html" target="_top" xlink:title=" ">
<polygon fill="white" stroke="black" points="7,-57.5 7,-87.5 147,-87.5 147,-57.5 7,-57.5"/>
<text text-anchor="start" x="15" y="-75.5" font-family="Helvetica,sans-Serif" font-size="10.00">FE_DGVector&lt; Polynomials</text>
<text text-anchor="middle" x="77" y="-64.5" font-family="Helvetica,sans-Serif" font-size="10.00">BDM&lt; dim &gt;, dim, dim &gt;</text>
</a>
</g>
</g>
<!-- Node2&#45;&gt;Node1 -->
<g id="edge1" class="edge">
<title>Node2&#45;&gt;Node1</title>
<path fill="none" stroke="midnightblue" d="M77,-47.35C77,-37.51 77,-26.78 77,-19.54"/>
<polygon fill="midnightblue" stroke="midnightblue" points="73.5,-47.47 77,-57.47 80.5,-47.47 73.5,-47.47"/>
</g>
<!-- Node3 -->
<g id="node3" class="node">
<title>Node3</title>
<g id="a_node3"><a xlink:href="classFE__PolyTensor.html" target="_top" xlink:title=" ">
<polygon fill="white" stroke="black" points="5.5,-292.5 5.5,-322.5 116.5,-322.5 116.5,-292.5 5.5,-292.5"/>
<text text-anchor="start" x="13.5" y="-310.5" font-family="Helvetica,sans-Serif" font-size="10.00">FE_PolyTensor&lt; dim,</text>
<text text-anchor="middle" x="61" y="-299.5" font-family="Helvetica,sans-Serif" font-size="10.00"> spacedim &gt;</text>
</a>
</g>
</g>
<!-- Node3&#45;&gt;Node2 -->
<g id="edge2" class="edge">
<title>Node3&#45;&gt;Node2</title>
<path fill="none" stroke="midnightblue" d="M62.68,-282.04C66.02,-233.43 73.39,-126 76.04,-87.54"/>
<polygon fill="midnightblue" stroke="midnightblue" points="59.17,-282.06 61.98,-292.28 66.15,-282.54 59.17,-282.06"/>
</g>
<!-- Node3&#45;&gt;Node3 -->
<g id="edge7" class="edge">
<title>Node3&#45;&gt;Node3</title>
<path fill="none" stroke="orange" stroke-dasharray="5,2" d="M126.95,-312.17C131.64,-311.11 134.5,-309.55 134.5,-307.5 134.5,-304.21 127.17,-302.2 116.77,-301.45"/>
<polygon fill="orange" stroke="orange" points="126.21,-308.74 116.77,-313.55 127.15,-315.68 126.21,-308.74"/>
<text text-anchor="middle" x="177" y="-305" font-family="Helvetica,sans-Serif" font-size="10.00"> &lt; dim, spacedim &gt;</text>
</g>
<!-- Node8 -->
<g id="node8" class="node">
<title>Node8</title>
<g id="a_node8"><a xlink:href="classFE__PolyTensor.html" target="_top" xlink:title=" ">
<polygon fill="white" stroke="black" points="113.5,-214.5 113.5,-244.5 224.5,-244.5 224.5,-214.5 113.5,-214.5"/>
<text text-anchor="start" x="121.5" y="-232.5" font-family="Helvetica,sans-Serif" font-size="10.00">FE_PolyTensor&lt; dim,</text>
<text text-anchor="middle" x="169" y="-221.5" font-family="Helvetica,sans-Serif" font-size="10.00"> dim &gt;</text>
</a>
</g>
</g>
<!-- Node3&#45;&gt;Node8 -->
<g id="edge11" class="edge">
<title>Node3&#45;&gt;Node8</title>
<path fill="none" stroke="orange" stroke-dasharray="5,2" d="M89.26,-286.61C108.05,-273.39 132.26,-256.36 149.05,-244.54"/>
<polygon fill="orange" stroke="orange" points="87.22,-283.77 81.06,-292.38 91.25,-289.49 87.22,-283.77"/>
<text text-anchor="middle" x="151.5" y="-266" font-family="Helvetica,sans-Serif" font-size="10.00"> &lt; dim, dim &gt;</text>
</g>
<!-- Node4 -->
<g id="node4" class="node">
<title>Node4</title>
<g id="a_node4"><a xlink:href="classFiniteElement.html" target="_top" xlink:title=" ">
<polygon fill="white" stroke="black" points="102,-360.5 102,-390.5 206,-390.5 206,-360.5 102,-360.5"/>
<text text-anchor="start" x="110" y="-378.5" font-family="Helvetica,sans-Serif" font-size="10.00">FiniteElement&lt; dim,</text>
<text text-anchor="middle" x="154" y="-367.5" font-family="Helvetica,sans-Serif" font-size="10.00"> spacedim &gt;</text>
</a>
</g>
</g>
<!-- Node4&#45;&gt;Node3 -->
<g id="edge3" class="edge">
<title>Node4&#45;&gt;Node3</title>
<path fill="none" stroke="midnightblue" d="M125.66,-354.39C111.16,-344.1 93.87,-331.83 80.82,-322.57"/>
<polygon fill="midnightblue" stroke="midnightblue" points="123.64,-357.25 133.82,-360.18 127.69,-351.54 123.64,-357.25"/>
</g>
<!-- Node4&#45;&gt;Node4 -->
<g id="edge6" class="edge">
<title>Node4&#45;&gt;Node4</title>
<path fill="none" stroke="orange" stroke-dasharray="5,2" d="M216.4,-380.27C221.11,-379.21 224,-377.62 224,-375.5 224,-372.11 216.59,-370.08 206.2,-369.39"/>
<polygon fill="orange" stroke="orange" points="215.66,-376.84 206.2,-381.61 216.57,-383.78 215.66,-376.84"/>
<text text-anchor="middle" x="266.5" y="-373" font-family="Helvetica,sans-Serif" font-size="10.00"> &lt; dim, spacedim &gt;</text>
</g>
<!-- Node4&#45;&gt;Node8 -->
<g id="edge10" class="edge">
<title>Node4&#45;&gt;Node8</title>
<path fill="none" stroke="midnightblue" d="M196.72,-355.19C209.45,-347.17 221.89,-336.51 229,-323 244.25,-294.04 212.35,-262.49 189.49,-244.74"/>
<polygon fill="midnightblue" stroke="midnightblue" points="194.79,-352.26 187.93,-360.33 198.33,-358.31 194.79,-352.26"/>
</g>
<!-- Node5 -->
<g id="node5" class="node">
<title>Node5</title>
<g id="a_node5"><a xlink:href="classSubscriptor.html" target="_top" xlink:title=" ">
<polygon fill="white" stroke="black" points="70,-434 70,-453 136,-453 136,-434 70,-434"/>
<text text-anchor="middle" x="103" y="-441" font-family="Helvetica,sans-Serif" font-size="10.00">Subscriptor</text>
</a>
</g>
</g>
<!-- Node5&#45;&gt;Node4 -->
<g id="edge4" class="edge">
<title>Node5&#45;&gt;Node4</title>
<path fill="none" stroke="midnightblue" d="M116.02,-425.65C124.38,-414.83 135.12,-400.94 143.04,-390.68"/>
<polygon fill="midnightblue" stroke="midnightblue" points="113.01,-423.82 109.67,-433.87 118.55,-428.1 113.01,-423.82"/>
</g>
<!-- Node6 -->
<g id="node6" class="node">
<title>Node6</title>
<g id="a_node6"><a xlink:href="classFiniteElementData.html" target="_top" xlink:title=" ">
<polygon fill="white" stroke="black" points="154,-428.5 154,-458.5 258,-458.5 258,-428.5 154,-428.5"/>
<text text-anchor="start" x="162" y="-446.5" font-family="Helvetica,sans-Serif" font-size="10.00">FiniteElementData&lt;</text>
<text text-anchor="middle" x="206" y="-435.5" font-family="Helvetica,sans-Serif" font-size="10.00"> dim &gt;</text>
</a>
</g>
</g>
<!-- Node6&#45;&gt;Node4 -->
<g id="edge5" class="edge">
<title>Node6&#45;&gt;Node4</title>
<path fill="none" stroke="midnightblue" d="M188.36,-420.11C180.72,-410.41 172,-399.35 165.26,-390.79"/>
<polygon fill="midnightblue" stroke="midnightblue" points="185.78,-422.49 194.72,-428.18 191.28,-418.16 185.78,-422.49"/>
</g>
<!-- Node7 -->
<g id="node7" class="node">
<title>Node7</title>
<g id="a_node7"><a xlink:href="classFE__DGVector.html" target="_top" xlink:title=" ">
<polygon fill="white" stroke="black" points="89.5,-146.5 89.5,-176.5 248.5,-176.5 248.5,-146.5 89.5,-146.5"/>
<text text-anchor="start" x="97.5" y="-164.5" font-family="Helvetica,sans-Serif" font-size="10.00">FE_DGVector&lt; PolynomialType,</text>
<text text-anchor="middle" x="169" y="-153.5" font-family="Helvetica,sans-Serif" font-size="10.00"> dim, spacedim &gt;</text>
</a>
</g>
</g>
<!-- Node7&#45;&gt;Node2 -->
<g id="edge8" class="edge">
<title>Node7&#45;&gt;Node2</title>
<path fill="none" stroke="orange" stroke-dasharray="5,2" d="M146.47,-139.19C129.49,-123.13 106.68,-101.57 91.91,-87.6"/>
<polygon fill="orange" stroke="orange" points="144.14,-141.81 153.81,-146.13 148.95,-136.72 144.14,-141.81"/>
<text text-anchor="start" x="134" y="-120" font-family="Helvetica,sans-Serif" font-size="10.00"> &lt; PolynomialsBDM&lt; dim</text>
<text text-anchor="middle" x="190.5" y="-109" font-family="Helvetica,sans-Serif" font-size="10.00"> &gt;, dim, dim &gt;</text>
</g>
<!-- Node8&#45;&gt;Node7 -->
<g id="edge9" class="edge">
<title>Node8&#45;&gt;Node7</title>
<path fill="none" stroke="midnightblue" d="M169,-204.03C169,-194.86 169,-184.74 169,-176.79"/>
<polygon fill="midnightblue" stroke="midnightblue" points="165.5,-204.18 169,-214.18 172.5,-204.18 165.5,-204.18"/>
</g>
</g>
</svg>
