<?xml version="1.0" encoding="UTF-8" standalone="no"?>
<!DOCTYPE svg PUBLIC "-//W3C//DTD SVG 1.1//EN"
 "http://www.w3.org/Graphics/SVG/1.1/DTD/svg11.dtd">
<!-- Generated by graphviz version 2.47.1 (20210417.1919)
 -->
<!-- Title: MGTransferBlockMatrixFree&lt; dim, Number &gt; Pages: 1 -->
<svg width="272pt" height="253pt"
 viewBox="0.00 0.00 271.50 253.00" xmlns="http://www.w3.org/2000/svg" xmlns:xlink="http://www.w3.org/1999/xlink">
<g id="graph0" class="graph" transform="scale(1 1) rotate(0) translate(4 249)">
<title>MGTransferBlockMatrixFree&lt; dim, Number &gt;</title>
<polygon fill="white" stroke="transparent" points="-4,4 -4,-249 267.5,-249 267.5,4 -4,4"/>
<!-- Node1 -->
<g id="node1" class="node">
<title>Node1</title>
<g id="a_node1"><a xlink:title=" ">
<polygon fill="#bfbfbf" stroke="black" points="9.5,-0.5 9.5,-30.5 149.5,-30.5 149.5,-0.5 9.5,-0.5"/>
<text text-anchor="start" x="17.5" y="-18.5" font-family="Helvetica,sans-Serif" font-size="10.00">MGTransferBlockMatrixFree</text>
<text text-anchor="middle" x="79.5" y="-7.5" font-family="Helvetica,sans-Serif" font-size="10.00">&lt; dim, Number &gt;</text>
</a>
</g>
</g>
<!-- Node2 -->
<g id="node2" class="node">
<title>Node2</title>
<g id="a_node2"><a xlink:href="classMGTransferBase.html" target="_top" xlink:title=" ">
<polygon fill="white" stroke="black" points="0,-68.5 0,-109.5 159,-109.5 159,-68.5 0,-68.5"/>
<text text-anchor="start" x="8" y="-97.5" font-family="Helvetica,sans-Serif" font-size="10.00">MGTransferBase&lt; LinearAlgebra</text>
<text text-anchor="start" x="8" y="-86.5" font-family="Helvetica,sans-Serif" font-size="10.00">::distributed::BlockVector</text>
<text text-anchor="middle" x="79.5" y="-75.5" font-family="Helvetica,sans-Serif" font-size="10.00">&lt; Number &gt; &gt;</text>
</a>
</g>
</g>
<!-- Node2&#45;&gt;Node1 -->
<g id="edge1" class="edge">
<title>Node2&#45;&gt;Node1</title>
<path fill="none" stroke="midnightblue" d="M79.5,-58.16C79.5,-48.69 79.5,-38.65 79.5,-30.8"/>
<polygon fill="midnightblue" stroke="midnightblue" points="76,-58.46 79.5,-68.46 83,-58.46 76,-58.46"/>
</g>
<!-- Node3 -->
<g id="node3" class="node">
<title>Node3</title>
<g id="a_node3"><a xlink:href="classSubscriptor.html" target="_top" xlink:title=" ">
<polygon fill="white" stroke="black" points="42.5,-225.5 42.5,-244.5 108.5,-244.5 108.5,-225.5 42.5,-225.5"/>
<text text-anchor="middle" x="75.5" y="-232.5" font-family="Helvetica,sans-Serif" font-size="10.00">Subscriptor</text>
</a>
</g>
</g>
<!-- Node3&#45;&gt;Node2 -->
<g id="edge2" class="edge">
<title>Node3&#45;&gt;Node2</title>
<path fill="none" stroke="midnightblue" d="M76.02,-215.26C76.78,-187.92 78.19,-137.32 78.96,-109.53"/>
<polygon fill="midnightblue" stroke="midnightblue" points="72.52,-215.33 75.74,-225.42 79.51,-215.52 72.52,-215.33"/>
</g>
<!-- Node4 -->
<g id="node4" class="node">
<title>Node4</title>
<g id="a_node4"><a xlink:href="classMGTransferBase.html" target="_top" xlink:title=" ">
<polygon fill="white" stroke="black" points="91.5,-168.5 91.5,-187.5 249.5,-187.5 249.5,-168.5 91.5,-168.5"/>
<text text-anchor="middle" x="170.5" y="-175.5" font-family="Helvetica,sans-Serif" font-size="10.00">MGTransferBase&lt; VectorType &gt;</text>
</a>
</g>
</g>
<!-- Node3&#45;&gt;Node4 -->
<g id="edge4" class="edge">
<title>Node3&#45;&gt;Node4</title>
<path fill="none" stroke="midnightblue" d="M99,-220.39C116.76,-210.11 140.6,-196.31 155.76,-187.53"/>
<polygon fill="midnightblue" stroke="midnightblue" points="97.24,-217.37 90.34,-225.41 100.75,-223.42 97.24,-217.37"/>
</g>
<!-- Node4&#45;&gt;Node2 -->
<g id="edge3" class="edge">
<title>Node4&#45;&gt;Node2</title>
<path fill="none" stroke="orange" stroke-dasharray="5,2" d="M153.87,-161.1C138.73,-146.63 116.34,-125.22 100.09,-109.68"/>
<polygon fill="orange" stroke="orange" points="151.8,-163.96 161.44,-168.34 156.63,-158.9 151.8,-163.96"/>
<text text-anchor="start" x="140.5" y="-142" font-family="Helvetica,sans-Serif" font-size="10.00"> &lt; LinearAlgebra::distributed</text>
<text text-anchor="middle" x="202" y="-131" font-family="Helvetica,sans-Serif" font-size="10.00">::BlockVector&lt; Number &gt; &gt;</text>
</g>
</g>
</svg>
