<?xml version="1.0" encoding="UTF-8" standalone="no"?>
<!DOCTYPE svg PUBLIC "-//W3C//DTD SVG 1.1//EN"
 "http://www.w3.org/Graphics/SVG/1.1/DTD/svg11.dtd">
<!-- Generated by graphviz version 2.47.1 (20210417.1919)
 -->
<!-- Title: Functions::FlowFunction&lt; dim &gt; Pages: 1 -->
<svg width="1149pt" height="146pt"
 viewBox="0.00 0.00 1149.00 145.50" xmlns="http://www.w3.org/2000/svg" xmlns:xlink="http://www.w3.org/1999/xlink">
<g id="graph0" class="graph" transform="scale(1 1) rotate(0) translate(4 141.5)">
<title>Functions::FlowFunction&lt; dim &gt;</title>
<polygon fill="white" stroke="transparent" points="-4,4 -4,-141.5 1145,-141.5 1145,4 -4,4"/>
<!-- Node1 -->
<g id="node1" class="node">
<title>Node1</title>
<g id="a_node1"><a xlink:title=" ">
<polygon fill="#bfbfbf" stroke="black" points="623,-58 623,-88 747,-88 747,-58 623,-58"/>
<text text-anchor="start" x="631" y="-76" font-family="Helvetica,sans-Serif" font-size="10.00">Functions::FlowFunction</text>
<text text-anchor="middle" x="685" y="-65" font-family="Helvetica,sans-Serif" font-size="10.00">&lt; dim &gt;</text>
</a>
</g>
</g>
<!-- Node6 -->
<g id="node6" class="node">
<title>Node6</title>
<g id="a_node6"><a xlink:href="classFunctions_1_1PoisseuilleFlow.html" target="_top" xlink:title=" ">
<polygon fill="white" stroke="black" points="816.5,-107 816.5,-137 950.5,-137 950.5,-107 816.5,-107"/>
<text text-anchor="start" x="824.5" y="-125" font-family="Helvetica,sans-Serif" font-size="10.00">Functions::PoisseuilleFlow</text>
<text text-anchor="middle" x="883.5" y="-114" font-family="Helvetica,sans-Serif" font-size="10.00">&lt; dim &gt;</text>
</a>
</g>
</g>
<!-- Node1&#45;&gt;Node6 -->
<g id="edge5" class="edge">
<title>Node1&#45;&gt;Node6</title>
<path fill="none" stroke="midnightblue" d="M756.09,-90.48C777.74,-95.88 801.4,-101.78 822.32,-106.99"/>
<polygon fill="midnightblue" stroke="midnightblue" points="756.84,-87.06 746.29,-88.03 755.15,-93.85 756.84,-87.06"/>
</g>
<!-- Node7 -->
<g id="node7" class="node">
<title>Node7</title>
<g id="a_node7"><a xlink:href="classFunctions_1_1StokesCosine.html" target="_top" xlink:title=" ">
<polygon fill="white" stroke="black" points="820,-58 820,-88 947,-88 947,-58 820,-58"/>
<text text-anchor="start" x="828" y="-76" font-family="Helvetica,sans-Serif" font-size="10.00">Functions::StokesCosine</text>
<text text-anchor="middle" x="883.5" y="-65" font-family="Helvetica,sans-Serif" font-size="10.00">&lt; dim &gt;</text>
</a>
</g>
</g>
<!-- Node1&#45;&gt;Node7 -->
<g id="edge6" class="edge">
<title>Node1&#45;&gt;Node7</title>
<path fill="none" stroke="midnightblue" d="M757.29,-73C777.73,-73 799.86,-73 819.75,-73"/>
<polygon fill="midnightblue" stroke="midnightblue" points="757.1,-69.5 747.1,-73 757.1,-76.5 757.1,-69.5"/>
</g>
<!-- Node8 -->
<g id="node8" class="node">
<title>Node8</title>
<g id="a_node8"><a xlink:href="classFunctions_1_1FlowFunction.html" target="_top" xlink:title=" ">
<polygon fill="white" stroke="black" points="810,-19.5 810,-38.5 957,-38.5 957,-19.5 810,-19.5"/>
<text text-anchor="middle" x="883.5" y="-26.5" font-family="Helvetica,sans-Serif" font-size="10.00">Functions::FlowFunction&lt; 2 &gt;</text>
</a>
</g>
</g>
<!-- Node1&#45;&gt;Node8 -->
<g id="edge7" class="edge">
<title>Node1&#45;&gt;Node8</title>
<path fill="none" stroke="orange" stroke-dasharray="5,2" d="M757.14,-57.07C784.85,-50.87 815.67,-43.96 839.82,-38.56"/>
<polygon fill="orange" stroke="orange" points="756.09,-53.72 747.1,-59.32 757.62,-60.55 756.09,-53.72"/>
<text text-anchor="middle" x="778.5" y="-58" font-family="Helvetica,sans-Serif" font-size="10.00"> &lt; 2 &gt;</text>
</g>
<!-- Node2 -->
<g id="node2" class="node">
<title>Node2</title>
<g id="a_node2"><a xlink:href="classFunction.html" target="_top" xlink:title=" ">
<polygon fill="white" stroke="black" points="438,-58 438,-88 586,-88 586,-58 438,-58"/>
<text text-anchor="start" x="446" y="-76" font-family="Helvetica,sans-Serif" font-size="10.00">Function&lt; dim, RangeNumber</text>
<text text-anchor="middle" x="512" y="-65" font-family="Helvetica,sans-Serif" font-size="10.00">Type &gt;</text>
</a>
</g>
</g>
<!-- Node2&#45;&gt;Node1 -->
<g id="edge1" class="edge">
<title>Node2&#45;&gt;Node1</title>
<path fill="none" stroke="midnightblue" d="M596.13,-73C605.11,-73 614.13,-73 622.79,-73"/>
<polygon fill="midnightblue" stroke="midnightblue" points="596.02,-69.5 586.02,-73 596.02,-76.5 596.02,-69.5"/>
</g>
<!-- Node3 -->
<g id="node3" class="node">
<title>Node3</title>
<g id="a_node3"><a xlink:href="classFunctionTime.html" target="_top" xlink:title=" ">
<polygon fill="white" stroke="black" points="279,-89.5 279,-130.5 401,-130.5 401,-89.5 279,-89.5"/>
<text text-anchor="start" x="287" y="-118.5" font-family="Helvetica,sans-Serif" font-size="10.00">FunctionTime&lt; numbers</text>
<text text-anchor="start" x="287" y="-107.5" font-family="Helvetica,sans-Serif" font-size="10.00">::NumberTraits&lt; double</text>
<text text-anchor="middle" x="340" y="-96.5" font-family="Helvetica,sans-Serif" font-size="10.00"> &gt;::real_type &gt;</text>
</a>
</g>
</g>
<!-- Node3&#45;&gt;Node2 -->
<g id="edge2" class="edge">
<title>Node3&#45;&gt;Node2</title>
<path fill="none" stroke="midnightblue" d="M411.36,-94.69C421.42,-92.5 431.76,-90.25 441.8,-88.06"/>
<polygon fill="midnightblue" stroke="midnightblue" points="410.44,-91.3 401.41,-96.85 411.93,-98.14 410.44,-91.3"/>
</g>
<!-- Node4 -->
<g id="node4" class="node">
<title>Node4</title>
<g id="a_node4"><a xlink:href="classFunctionTime.html" target="_top" xlink:title=" ">
<polygon fill="white" stroke="black" points="0,-100.5 0,-119.5 128,-119.5 128,-100.5 0,-100.5"/>
<text text-anchor="middle" x="64" y="-107.5" font-family="Helvetica,sans-Serif" font-size="10.00">FunctionTime&lt; Number &gt;</text>
</a>
</g>
</g>
<!-- Node4&#45;&gt;Node3 -->
<g id="edge3" class="edge">
<title>Node4&#45;&gt;Node3</title>
<path fill="none" stroke="orange" stroke-dasharray="5,2" d="M138.27,-110C182.26,-110 237.53,-110 278.93,-110"/>
<polygon fill="orange" stroke="orange" points="138.21,-106.5 128.21,-110 138.21,-113.5 138.21,-106.5"/>
<text text-anchor="start" x="146" y="-124" font-family="Helvetica,sans-Serif" font-size="10.00"> &lt; numbers::NumberTraits</text>
<text text-anchor="middle" x="203.5" y="-113" font-family="Helvetica,sans-Serif" font-size="10.00">&lt; double &gt;::real_type &gt;</text>
</g>
<!-- Node5 -->
<g id="node5" class="node">
<title>Node5</title>
<g id="a_node5"><a xlink:href="classSubscriptor.html" target="_top" xlink:title=" ">
<polygon fill="white" stroke="black" points="307,-51.5 307,-70.5 373,-70.5 373,-51.5 307,-51.5"/>
<text text-anchor="middle" x="340" y="-58.5" font-family="Helvetica,sans-Serif" font-size="10.00">Subscriptor</text>
</a>
</g>
</g>
<!-- Node5&#45;&gt;Node2 -->
<g id="edge4" class="edge">
<title>Node5&#45;&gt;Node2</title>
<path fill="none" stroke="midnightblue" d="M383.72,-64.02C400.15,-65.18 419.4,-66.53 437.89,-67.84"/>
<polygon fill="midnightblue" stroke="midnightblue" points="383.6,-60.5 373.38,-63.29 383.1,-67.48 383.6,-60.5"/>
</g>
<!-- Node9 -->
<g id="node9" class="node">
<title>Node9</title>
<g id="a_node9"><a xlink:href="classFunctions_1_1Kovasznay.html" target="_top" xlink:title=" ">
<polygon fill="white" stroke="black" points="1010.5,-38.5 1010.5,-57.5 1124.5,-57.5 1124.5,-38.5 1010.5,-38.5"/>
<text text-anchor="middle" x="1067.5" y="-45.5" font-family="Helvetica,sans-Serif" font-size="10.00">Functions::Kovasznay</text>
</a>
</g>
</g>
<!-- Node8&#45;&gt;Node9 -->
<g id="edge8" class="edge">
<title>Node8&#45;&gt;Node9</title>
<path fill="none" stroke="midnightblue" d="M967.27,-37.64C981.88,-39.17 996.78,-40.72 1010.44,-42.15"/>
<polygon fill="midnightblue" stroke="midnightblue" points="967.53,-34.15 957.22,-36.59 966.8,-41.11 967.53,-34.15"/>
</g>
<!-- Node10 -->
<g id="node10" class="node">
<title>Node10</title>
<g id="a_node10"><a xlink:href="classFunctions_1_1StokesLSingularity.html" target="_top" xlink:title=" ">
<polygon fill="white" stroke="black" points="994,-0.5 994,-19.5 1141,-19.5 1141,-0.5 994,-0.5"/>
<text text-anchor="middle" x="1067.5" y="-7.5" font-family="Helvetica,sans-Serif" font-size="10.00">Functions::StokesLSingularity</text>
</a>
</g>
</g>
<!-- Node8&#45;&gt;Node10 -->
<g id="edge9" class="edge">
<title>Node8&#45;&gt;Node10</title>
<path fill="none" stroke="midnightblue" d="M967.21,-20.37C976.11,-19.44 985.13,-18.5 993.9,-17.58"/>
<polygon fill="midnightblue" stroke="midnightblue" points="966.8,-16.89 957.22,-21.41 967.53,-23.85 966.8,-16.89"/>
</g>
</g>
</svg>
