<?xml version="1.0" encoding="UTF-8" standalone="no"?>
<!DOCTYPE svg PUBLIC "-//W3C//DTD SVG 1.1//EN"
 "http://www.w3.org/Graphics/SVG/1.1/DTD/svg11.dtd">
<!-- Generated by graphviz version 2.47.1 (20210417.1919)
 -->
<!-- Title: parallel::TriangulationBase&lt; dim, spacedim &gt; Pages: 1 -->
<svg width="1457pt" height="149pt"
 viewBox="0.00 0.00 1457.00 149.00" xmlns="http://www.w3.org/2000/svg" xmlns:xlink="http://www.w3.org/1999/xlink">
<g id="graph0" class="graph" transform="scale(1 1) rotate(0) translate(4 145)">
<title>parallel::TriangulationBase&lt; dim, spacedim &gt;</title>
<polygon fill="white" stroke="transparent" points="-4,4 -4,-145 1453,-145 1453,4 -4,4"/>
<!-- Node1 -->
<g id="node1" class="node">
<title>Node1</title>
<g id="a_node1"><a xlink:title=" ">
<polygon fill="#bfbfbf" stroke="black" points="435,-44.5 435,-74.5 566,-74.5 566,-44.5 435,-44.5"/>
<text text-anchor="start" x="443" y="-62.5" font-family="Helvetica,sans-Serif" font-size="10.00">parallel::TriangulationBase</text>
<text text-anchor="middle" x="500.5" y="-51.5" font-family="Helvetica,sans-Serif" font-size="10.00">&lt; dim, spacedim &gt;</text>
</a>
</g>
</g>
<!-- Node1&#45;&gt;Node1 -->
<g id="edge5" class="edge">
<title>Node1&#45;&gt;Node1</title>
<path fill="none" stroke="orange" stroke-dasharray="5,2" d="M493.04,-84.96C493.96,-89.68 496.45,-93 500.5,-93 507.14,-93 509.58,-84.06 507.82,-74.66"/>
<polygon fill="orange" stroke="orange" points="496.54,-84.71 493.18,-74.66 489.54,-84.61 496.54,-84.71"/>
<text text-anchor="middle" x="500.5" y="-96" font-family="Helvetica,sans-Serif" font-size="10.00"> &lt; dim, spacedim &gt;</text>
</g>
<!-- Node1&#45;&gt;Node1 -->
<g id="edge6" class="edge">
<title>Node1&#45;&gt;Node1</title>
<path fill="none" stroke="orange" stroke-dasharray="5,2" d="M485.55,-84.19C482.65,-98.12 487.64,-111 500.5,-111 516.33,-111 520.23,-91.49 512.19,-74.53"/>
<polygon fill="orange" stroke="orange" points="488.93,-85.12 488.81,-74.53 482.3,-82.88 488.93,-85.12"/>
<text text-anchor="middle" x="500.5" y="-114" font-family="Helvetica,sans-Serif" font-size="10.00"> &lt; dim, spacedim &gt;</text>
</g>
<!-- Node5 -->
<g id="node5" class="node">
<title>Node5</title>
<g id="a_node5"><a xlink:href="classparallel_1_1TriangulationBase.html" target="_top" xlink:title=" ">
<polygon fill="white" stroke="black" points="661,-44.5 661,-74.5 792,-74.5 792,-44.5 661,-44.5"/>
<text text-anchor="start" x="669" y="-62.5" font-family="Helvetica,sans-Serif" font-size="10.00">parallel::TriangulationBase</text>
<text text-anchor="middle" x="726.5" y="-51.5" font-family="Helvetica,sans-Serif" font-size="10.00">&lt; dim, dim &gt;</text>
</a>
</g>
</g>
<!-- Node1&#45;&gt;Node5 -->
<g id="edge7" class="edge">
<title>Node1&#45;&gt;Node5</title>
<path fill="none" stroke="orange" stroke-dasharray="5,2" d="M576.58,-59.5C603.9,-59.5 634.52,-59.5 660.86,-59.5"/>
<polygon fill="orange" stroke="orange" points="576.29,-56 566.29,-59.5 576.29,-63 576.29,-56"/>
<text text-anchor="middle" x="613.5" y="-62.5" font-family="Helvetica,sans-Serif" font-size="10.00"> &lt; dim, dim &gt;</text>
</g>
<!-- Node2 -->
<g id="node2" class="node">
<title>Node2</title>
<g id="a_node2"><a xlink:href="classTriangulation.html" target="_top" xlink:title=" ">
<polygon fill="white" stroke="black" points="298,-44.5 298,-74.5 398,-74.5 398,-44.5 298,-44.5"/>
<text text-anchor="start" x="306" y="-62.5" font-family="Helvetica,sans-Serif" font-size="10.00">Triangulation&lt; dim,</text>
<text text-anchor="middle" x="348" y="-51.5" font-family="Helvetica,sans-Serif" font-size="10.00"> dim &gt;</text>
</a>
</g>
</g>
<!-- Node2&#45;&gt;Node1 -->
<g id="edge1" class="edge">
<title>Node2&#45;&gt;Node1</title>
<path fill="none" stroke="midnightblue" d="M408.31,-59.5C417,-59.5 425.98,-59.5 434.77,-59.5"/>
<polygon fill="midnightblue" stroke="midnightblue" points="408.28,-56 398.28,-59.5 408.28,-63 408.28,-56"/>
</g>
<!-- Node3 -->
<g id="node3" class="node">
<title>Node3</title>
<g id="a_node3"><a xlink:href="classSubscriptor.html" target="_top" xlink:title=" ">
<polygon fill="white" stroke="black" points="0,-46 0,-65 66,-65 66,-46 0,-46"/>
<text text-anchor="middle" x="33" y="-53" font-family="Helvetica,sans-Serif" font-size="10.00">Subscriptor</text>
</a>
</g>
</g>
<!-- Node3&#45;&gt;Node2 -->
<g id="edge2" class="edge">
<title>Node3&#45;&gt;Node2</title>
<path fill="none" stroke="midnightblue" d="M76.3,-59.96C78.9,-60.16 81.49,-60.35 84,-60.5 170.96,-65.79 192.92,-66.1 280,-63.5 285.82,-63.33 291.93,-63.07 297.98,-62.76"/>
<polygon fill="midnightblue" stroke="midnightblue" points="76.51,-56.47 66.25,-59.1 75.91,-63.44 76.51,-56.47"/>
</g>
<!-- Node4 -->
<g id="node4" class="node">
<title>Node4</title>
<g id="a_node4"><a xlink:href="classTriangulation.html" target="_top" xlink:title=" ">
<polygon fill="white" stroke="black" points="103,-18.5 103,-48.5 203,-48.5 203,-18.5 103,-18.5"/>
<text text-anchor="start" x="111" y="-36.5" font-family="Helvetica,sans-Serif" font-size="10.00">Triangulation&lt; dim,</text>
<text text-anchor="middle" x="153" y="-25.5" font-family="Helvetica,sans-Serif" font-size="10.00"> spacedim &gt;</text>
</a>
</g>
</g>
<!-- Node3&#45;&gt;Node4 -->
<g id="edge4" class="edge">
<title>Node3&#45;&gt;Node4</title>
<path fill="none" stroke="midnightblue" d="M76.15,-47.64C84.83,-46.02 94.05,-44.3 102.96,-42.64"/>
<polygon fill="midnightblue" stroke="midnightblue" points="75.43,-44.21 66.24,-49.49 76.72,-51.1 75.43,-44.21"/>
</g>
<!-- Node4&#45;&gt;Node2 -->
<g id="edge3" class="edge">
<title>Node4&#45;&gt;Node2</title>
<path fill="none" stroke="orange" stroke-dasharray="5,2" d="M213.34,-41.49C240.44,-45.14 272.15,-49.42 297.89,-52.88"/>
<polygon fill="orange" stroke="orange" points="213.58,-37.99 203.2,-40.13 212.64,-44.93 213.58,-37.99"/>
<text text-anchor="middle" x="250.5" y="-53.5" font-family="Helvetica,sans-Serif" font-size="10.00"> &lt; dim, dim &gt;</text>
</g>
<!-- Node6 -->
<g id="node6" class="node">
<title>Node6</title>
<g id="a_node6"><a xlink:href="classparallel_1_1DistributedTriangulationBase.html" target="_top" xlink:title=" ">
<polygon fill="white" stroke="black" points="829,-81.5 829,-111.5 985,-111.5 985,-81.5 829,-81.5"/>
<text text-anchor="start" x="837" y="-99.5" font-family="Helvetica,sans-Serif" font-size="10.00">parallel::DistributedTriangulation</text>
<text text-anchor="middle" x="907" y="-88.5" font-family="Helvetica,sans-Serif" font-size="10.00">Base&lt; dim, spacedim &gt;</text>
</a>
</g>
</g>
<!-- Node5&#45;&gt;Node6 -->
<g id="edge8" class="edge">
<title>Node5&#45;&gt;Node6</title>
<path fill="none" stroke="midnightblue" d="M802.03,-74.95C812.4,-77.1 823.03,-79.3 833.36,-81.44"/>
<polygon fill="midnightblue" stroke="midnightblue" points="802.7,-71.51 792.19,-72.91 801.28,-78.37 802.7,-71.51"/>
</g>
<!-- Node12 -->
<g id="node12" class="node">
<title>Node12</title>
<g id="a_node12"><a xlink:href="classparallel_1_1shared_1_1Triangulation.html" target="_top" xlink:title=" ">
<polygon fill="white" stroke="black" points="835,-32.5 835,-62.5 979,-62.5 979,-32.5 835,-32.5"/>
<text text-anchor="start" x="843" y="-50.5" font-family="Helvetica,sans-Serif" font-size="10.00">parallel::shared::Triangulation</text>
<text text-anchor="middle" x="907" y="-39.5" font-family="Helvetica,sans-Serif" font-size="10.00">&lt; dim, spacedim &gt;</text>
</a>
</g>
</g>
<!-- Node5&#45;&gt;Node12 -->
<g id="edge14" class="edge">
<title>Node5&#45;&gt;Node12</title>
<path fill="none" stroke="midnightblue" d="M802.4,-54.46C813.16,-53.74 824.2,-53 834.89,-52.28"/>
<polygon fill="midnightblue" stroke="midnightblue" points="801.94,-50.99 792.19,-55.15 802.41,-57.97 801.94,-50.99"/>
</g>
<!-- Node7 -->
<g id="node7" class="node">
<title>Node7</title>
<g id="a_node7"><a xlink:href="classparallel_1_1DistributedTriangulationBase.html" target="_top" xlink:title=" ">
<polygon fill="white" stroke="black" points="1096,-107.5 1096,-137.5 1252,-137.5 1252,-107.5 1096,-107.5"/>
<text text-anchor="start" x="1104" y="-125.5" font-family="Helvetica,sans-Serif" font-size="10.00">parallel::DistributedTriangulation</text>
<text text-anchor="middle" x="1174" y="-114.5" font-family="Helvetica,sans-Serif" font-size="10.00">Base&lt; 1, spacedim &gt;</text>
</a>
</g>
</g>
<!-- Node6&#45;&gt;Node7 -->
<g id="edge9" class="edge">
<title>Node6&#45;&gt;Node7</title>
<path fill="none" stroke="orange" stroke-dasharray="5,2" d="M994.96,-105.03C1027.5,-108.22 1064.21,-111.83 1095.8,-114.93"/>
<polygon fill="orange" stroke="orange" points="995.3,-101.55 985,-104.06 994.62,-108.52 995.3,-101.55"/>
<text text-anchor="middle" x="1040.5" y="-115.5" font-family="Helvetica,sans-Serif" font-size="10.00"> &lt; 1, spacedim &gt;</text>
</g>
<!-- Node9 -->
<g id="node9" class="node">
<title>Node9</title>
<g id="a_node9"><a xlink:href="classparallel_1_1DistributedTriangulationBase.html" target="_top" xlink:title=" ">
<polygon fill="white" stroke="black" points="1096,-55.5 1096,-85.5 1252,-85.5 1252,-55.5 1096,-55.5"/>
<text text-anchor="start" x="1104" y="-73.5" font-family="Helvetica,sans-Serif" font-size="10.00">parallel::DistributedTriangulation</text>
<text text-anchor="middle" x="1174" y="-62.5" font-family="Helvetica,sans-Serif" font-size="10.00">Base&lt; dim, dim &gt;</text>
</a>
</g>
</g>
<!-- Node6&#45;&gt;Node9 -->
<g id="edge11" class="edge">
<title>Node6&#45;&gt;Node9</title>
<path fill="none" stroke="orange" stroke-dasharray="5,2" d="M994.96,-87.97C1027.5,-84.78 1064.21,-81.17 1095.8,-78.07"/>
<polygon fill="orange" stroke="orange" points="994.62,-84.48 985,-88.94 995.3,-91.45 994.62,-84.48"/>
<text text-anchor="middle" x="1040.5" y="-89.5" font-family="Helvetica,sans-Serif" font-size="10.00"> &lt; dim, dim &gt;</text>
</g>
<!-- Node8 -->
<g id="node8" class="node">
<title>Node8</title>
<g id="a_node8"><a xlink:href="classparallel_1_1distributed_1_1Triangulation_3_011_00_01spacedim_01_4.html" target="_top" xlink:title=" ">
<polygon fill="white" stroke="black" points="1294.5,-110.5 1294.5,-140.5 1443.5,-140.5 1443.5,-110.5 1294.5,-110.5"/>
<text text-anchor="start" x="1302.5" y="-128.5" font-family="Helvetica,sans-Serif" font-size="10.00">parallel::distributed</text>
<text text-anchor="middle" x="1369" y="-117.5" font-family="Helvetica,sans-Serif" font-size="10.00">::Triangulation&lt; 1, spacedim &gt;</text>
</a>
</g>
</g>
<!-- Node7&#45;&gt;Node8 -->
<g id="edge10" class="edge">
<title>Node7&#45;&gt;Node8</title>
<path fill="none" stroke="midnightblue" d="M1262.34,-123.86C1273.07,-124.02 1283.96,-124.19 1294.46,-124.36"/>
<polygon fill="midnightblue" stroke="midnightblue" points="1262.16,-120.35 1252.11,-123.7 1262.06,-127.35 1262.16,-120.35"/>
</g>
<!-- Node10 -->
<g id="node10" class="node">
<title>Node10</title>
<g id="a_node10"><a xlink:href="classparallel_1_1distributed_1_1Triangulation.html" target="_top" xlink:title=" ">
<polygon fill="white" stroke="black" points="1316,-50 1316,-91 1422,-91 1422,-50 1316,-50"/>
<text text-anchor="start" x="1324" y="-79" font-family="Helvetica,sans-Serif" font-size="10.00">parallel::distributed</text>
<text text-anchor="start" x="1324" y="-68" font-family="Helvetica,sans-Serif" font-size="10.00">::Triangulation&lt; dim,</text>
<text text-anchor="middle" x="1369" y="-57" font-family="Helvetica,sans-Serif" font-size="10.00"> spacedim &gt;</text>
</a>
</g>
</g>
<!-- Node9&#45;&gt;Node10 -->
<g id="edge12" class="edge">
<title>Node9&#45;&gt;Node10</title>
<path fill="none" stroke="midnightblue" d="M1262.23,-70.5C1280.56,-70.5 1299.34,-70.5 1315.9,-70.5"/>
<polygon fill="midnightblue" stroke="midnightblue" points="1262.11,-67 1252.11,-70.5 1262.11,-74 1262.11,-67"/>
</g>
<!-- Node11 -->
<g id="node11" class="node">
<title>Node11</title>
<g id="a_node11"><a xlink:href="classparallel_1_1fullydistributed_1_1Triangulation.html" target="_top" xlink:title=" ">
<polygon fill="white" stroke="black" points="1289,-0.5 1289,-30.5 1449,-30.5 1449,-0.5 1289,-0.5"/>
<text text-anchor="start" x="1297" y="-18.5" font-family="Helvetica,sans-Serif" font-size="10.00">parallel::fullydistributed</text>
<text text-anchor="middle" x="1369" y="-7.5" font-family="Helvetica,sans-Serif" font-size="10.00">::Triangulation&lt; dim, spacedim &gt;</text>
</a>
</g>
</g>
<!-- Node9&#45;&gt;Node11 -->
<g id="edge13" class="edge">
<title>Node9&#45;&gt;Node11</title>
<path fill="none" stroke="midnightblue" d="M1237.54,-52.68C1262.65,-45.52 1291.29,-37.36 1315.33,-30.51"/>
<polygon fill="midnightblue" stroke="midnightblue" points="1236.4,-49.36 1227.74,-55.47 1238.31,-56.1 1236.4,-49.36"/>
</g>
</g>
</svg>
