<?xml version="1.0" encoding="UTF-8" standalone="no"?>
<!DOCTYPE svg PUBLIC "-//W3C//DTD SVG 1.1//EN"
 "http://www.w3.org/Graphics/SVG/1.1/DTD/svg11.dtd">
<!-- Generated by graphviz version 2.47.1 (20210417.1919)
 -->
<!-- Title: TensorFunction&lt; rank, dim, Number &gt; Pages: 1 -->
<svg width="1376pt" height="157pt"
 viewBox="0.00 0.00 1376.00 156.50" xmlns="http://www.w3.org/2000/svg" xmlns:xlink="http://www.w3.org/1999/xlink">
<g id="graph0" class="graph" transform="scale(1 1) rotate(0) translate(4 152.5)">
<title>TensorFunction&lt; rank, dim, Number &gt;</title>
<polygon fill="white" stroke="transparent" points="-4,4 -4,-152.5 1372,-152.5 1372,4 -4,4"/>
<!-- Node1 -->
<g id="node1" class="node">
<title>Node1</title>
<g id="a_node1"><a xlink:title=" ">
<polygon fill="#bfbfbf" stroke="black" points="438,-74.5 438,-104.5 552,-104.5 552,-74.5 438,-74.5"/>
<text text-anchor="start" x="446" y="-92.5" font-family="Helvetica,sans-Serif" font-size="10.00">TensorFunction&lt; rank,</text>
<text text-anchor="middle" x="495" y="-81.5" font-family="Helvetica,sans-Serif" font-size="10.00"> dim, Number &gt;</text>
</a>
</g>
</g>
<!-- Node5 -->
<g id="node5" class="node">
<title>Node5</title>
<g id="a_node5"><a xlink:href="classTensorFunction.html" target="_top" xlink:title=" ">
<polygon fill="white" stroke="black" points="691.5,-98.5 691.5,-128.5 792.5,-128.5 792.5,-98.5 691.5,-98.5"/>
<text text-anchor="start" x="699.5" y="-116.5" font-family="Helvetica,sans-Serif" font-size="10.00">TensorFunction&lt; 1,</text>
<text text-anchor="middle" x="742" y="-105.5" font-family="Helvetica,sans-Serif" font-size="10.00"> dim, double &gt;</text>
</a>
</g>
</g>
<!-- Node1&#45;&gt;Node5 -->
<g id="edge4" class="edge">
<title>Node1&#45;&gt;Node5</title>
<path fill="none" stroke="orange" stroke-dasharray="5,2" d="M562.3,-95.99C602.94,-99.98 654.12,-104.99 691.28,-108.63"/>
<polygon fill="orange" stroke="orange" points="562.5,-92.5 552.21,-95.01 561.82,-99.46 562.5,-92.5"/>
<text text-anchor="middle" x="618.5" y="-109.5" font-family="Helvetica,sans-Serif" font-size="10.00"> &lt; 1, dim, double &gt;</text>
</g>
<!-- Node6 -->
<g id="node6" class="node">
<title>Node6</title>
<g id="a_node6"><a xlink:href="classTensorFunction.html" target="_top" xlink:title=" ">
<polygon fill="white" stroke="black" points="685,-49.5 685,-79.5 799,-79.5 799,-49.5 685,-49.5"/>
<text text-anchor="start" x="693" y="-67.5" font-family="Helvetica,sans-Serif" font-size="10.00">TensorFunction&lt; rank,</text>
<text text-anchor="middle" x="742" y="-56.5" font-family="Helvetica,sans-Serif" font-size="10.00"> dim, double &gt;</text>
</a>
</g>
</g>
<!-- Node1&#45;&gt;Node6 -->
<g id="edge5" class="edge">
<title>Node1&#45;&gt;Node6</title>
<path fill="none" stroke="orange" stroke-dasharray="5,2" d="M562.23,-82.74C600.51,-78.84 648.16,-73.97 684.63,-70.25"/>
<polygon fill="orange" stroke="orange" points="561.8,-79.27 552.21,-83.76 562.51,-86.23 561.8,-79.27"/>
<text text-anchor="middle" x="618.5" y="-84.5" font-family="Helvetica,sans-Serif" font-size="10.00"> &lt; rank, dim, double &gt;</text>
</g>
<!-- Node2 -->
<g id="node2" class="node">
<title>Node2</title>
<g id="a_node2"><a xlink:href="classFunctionTime.html" target="_top" xlink:title=" ">
<polygon fill="white" stroke="black" points="279,-106 279,-147 401,-147 401,-106 279,-106"/>
<text text-anchor="start" x="287" y="-135" font-family="Helvetica,sans-Serif" font-size="10.00">FunctionTime&lt; numbers</text>
<text text-anchor="start" x="287" y="-124" font-family="Helvetica,sans-Serif" font-size="10.00">::NumberTraits&lt; double</text>
<text text-anchor="middle" x="340" y="-113" font-family="Helvetica,sans-Serif" font-size="10.00"> &gt;::real_type &gt;</text>
</a>
</g>
</g>
<!-- Node2&#45;&gt;Node1 -->
<g id="edge1" class="edge">
<title>Node2&#45;&gt;Node1</title>
<path fill="none" stroke="midnightblue" d="M411.02,-109.57C419.94,-107.41 428.98,-105.22 437.64,-103.13"/>
<polygon fill="midnightblue" stroke="midnightblue" points="409.93,-106.23 401.03,-111.98 411.57,-113.03 409.93,-106.23"/>
</g>
<!-- Node3 -->
<g id="node3" class="node">
<title>Node3</title>
<g id="a_node3"><a xlink:href="classFunctionTime.html" target="_top" xlink:title=" ">
<polygon fill="white" stroke="black" points="0,-117 0,-136 128,-136 128,-117 0,-117"/>
<text text-anchor="middle" x="64" y="-124" font-family="Helvetica,sans-Serif" font-size="10.00">FunctionTime&lt; Number &gt;</text>
</a>
</g>
</g>
<!-- Node3&#45;&gt;Node2 -->
<g id="edge2" class="edge">
<title>Node3&#45;&gt;Node2</title>
<path fill="none" stroke="orange" stroke-dasharray="5,2" d="M138.27,-126.5C182.26,-126.5 237.53,-126.5 278.93,-126.5"/>
<polygon fill="orange" stroke="orange" points="138.21,-123 128.21,-126.5 138.21,-130 138.21,-123"/>
<text text-anchor="start" x="146" y="-140.5" font-family="Helvetica,sans-Serif" font-size="10.00"> &lt; numbers::NumberTraits</text>
<text text-anchor="middle" x="203.5" y="-129.5" font-family="Helvetica,sans-Serif" font-size="10.00">&lt; double &gt;::real_type &gt;</text>
</g>
<!-- Node4 -->
<g id="node4" class="node">
<title>Node4</title>
<g id="a_node4"><a xlink:href="classSubscriptor.html" target="_top" xlink:title=" ">
<polygon fill="white" stroke="black" points="307,-68 307,-87 373,-87 373,-68 307,-68"/>
<text text-anchor="middle" x="340" y="-75" font-family="Helvetica,sans-Serif" font-size="10.00">Subscriptor</text>
</a>
</g>
</g>
<!-- Node4&#45;&gt;Node1 -->
<g id="edge3" class="edge">
<title>Node4&#45;&gt;Node1</title>
<path fill="none" stroke="midnightblue" d="M383.19,-80.81C400.07,-82.13 419.78,-83.68 437.85,-85.1"/>
<polygon fill="midnightblue" stroke="midnightblue" points="383.32,-77.31 373.07,-80.02 382.77,-84.29 383.32,-77.31"/>
</g>
<!-- Node7 -->
<g id="node7" class="node">
<title>Node7</title>
<g id="a_node7"><a xlink:href="classConstantTensorFunction.html" target="_top" xlink:title=" ">
<polygon fill="white" stroke="black" points="1092,-71.5 1092,-101.5 1215,-101.5 1215,-71.5 1092,-71.5"/>
<text text-anchor="start" x="1100" y="-89.5" font-family="Helvetica,sans-Serif" font-size="10.00">ConstantTensorFunction</text>
<text text-anchor="middle" x="1153.5" y="-78.5" font-family="Helvetica,sans-Serif" font-size="10.00">&lt; rank, dim, double &gt;</text>
</a>
</g>
</g>
<!-- Node6&#45;&gt;Node7 -->
<g id="edge6" class="edge">
<title>Node6&#45;&gt;Node7</title>
<path fill="none" stroke="midnightblue" d="M803.12,-81.97C813.98,-84.57 825.27,-86.9 836,-88.5 940.66,-104.05 968.33,-99.87 1074,-94.5 1079.75,-94.21 1085.72,-93.8 1091.69,-93.31"/>
<polygon fill="midnightblue" stroke="midnightblue" points="803.83,-78.55 793.28,-79.53 802.14,-85.34 803.83,-78.55"/>
</g>
<!-- Node9 -->
<g id="node9" class="node">
<title>Node9</title>
<g id="a_node9"><a xlink:href="classConstantTensorFunction.html" target="_top" xlink:title=" ">
<polygon fill="white" stroke="black" points="836,-49.5 836,-79.5 959,-79.5 959,-49.5 836,-49.5"/>
<text text-anchor="start" x="844" y="-67.5" font-family="Helvetica,sans-Serif" font-size="10.00">ConstantTensorFunction</text>
<text text-anchor="middle" x="897.5" y="-56.5" font-family="Helvetica,sans-Serif" font-size="10.00">&lt; rank, dim, Number &gt;</text>
</a>
</g>
</g>
<!-- Node6&#45;&gt;Node9 -->
<g id="edge8" class="edge">
<title>Node6&#45;&gt;Node9</title>
<path fill="none" stroke="midnightblue" d="M809.46,-64.5C818.22,-64.5 827.17,-64.5 835.83,-64.5"/>
<polygon fill="midnightblue" stroke="midnightblue" points="809.29,-61 799.29,-64.5 809.29,-68 809.29,-61"/>
</g>
<!-- Node10 -->
<g id="node10" class="node">
<title>Node10</title>
<g id="a_node10"><a xlink:href="classTensorFunctionParser.html" target="_top" xlink:title=" ">
<polygon fill="white" stroke="black" points="839.5,-0.5 839.5,-30.5 955.5,-30.5 955.5,-0.5 839.5,-0.5"/>
<text text-anchor="start" x="847.5" y="-18.5" font-family="Helvetica,sans-Serif" font-size="10.00">TensorFunctionParser</text>
<text text-anchor="middle" x="897.5" y="-7.5" font-family="Helvetica,sans-Serif" font-size="10.00">&lt; rank, dim, Number &gt;</text>
</a>
</g>
</g>
<!-- Node6&#45;&gt;Node10 -->
<g id="edge10" class="edge">
<title>Node6&#45;&gt;Node10</title>
<path fill="none" stroke="midnightblue" d="M800.2,-46.24C816.39,-41.07 833.82,-35.51 849.35,-30.55"/>
<polygon fill="midnightblue" stroke="midnightblue" points="798.77,-43.02 790.31,-49.4 800.9,-49.69 798.77,-43.02"/>
</g>
<!-- Node8 -->
<g id="node8" class="node">
<title>Node8</title>
<g id="a_node8"><a xlink:href="classZeroTensorFunction.html" target="_top" xlink:title=" ">
<polygon fill="white" stroke="black" points="1252,-71.5 1252,-101.5 1368,-101.5 1368,-71.5 1252,-71.5"/>
<text text-anchor="start" x="1260" y="-89.5" font-family="Helvetica,sans-Serif" font-size="10.00">ZeroTensorFunction</text>
<text text-anchor="middle" x="1310" y="-78.5" font-family="Helvetica,sans-Serif" font-size="10.00">&lt; rank, dim, Number &gt;</text>
</a>
</g>
</g>
<!-- Node7&#45;&gt;Node8 -->
<g id="edge7" class="edge">
<title>Node7&#45;&gt;Node8</title>
<path fill="none" stroke="midnightblue" d="M1225.14,-86.5C1234.08,-86.5 1243.14,-86.5 1251.84,-86.5"/>
<polygon fill="midnightblue" stroke="midnightblue" points="1225.12,-83 1215.12,-86.5 1225.12,-90 1225.12,-83"/>
</g>
<!-- Node9&#45;&gt;Node7 -->
<g id="edge9" class="edge">
<title>Node9&#45;&gt;Node7</title>
<path fill="none" stroke="orange" stroke-dasharray="5,2" d="M969.11,-70.62C1007.58,-73.95 1054.72,-78.03 1091.57,-81.22"/>
<polygon fill="orange" stroke="orange" points="969.28,-67.12 959.02,-69.74 968.68,-74.09 969.28,-67.12"/>
<text text-anchor="middle" x="1025.5" y="-82.5" font-family="Helvetica,sans-Serif" font-size="10.00"> &lt; rank, dim, double &gt;</text>
</g>
</g>
</svg>
