<?xml version="1.0" encoding="UTF-8" standalone="no"?>
<!DOCTYPE svg PUBLIC "-//W3C//DTD SVG 1.1//EN"
 "http://www.w3.org/Graphics/SVG/1.1/DTD/svg11.dtd">
<!-- Generated by graphviz version 2.47.1 (20210417.1919)
 -->
<!-- Title: MappingFE&lt; dim, spacedim &gt; Pages: 1 -->
<svg width="230pt" height="209pt"
 viewBox="0.00 0.00 229.50 209.00" xmlns="http://www.w3.org/2000/svg" xmlns:xlink="http://www.w3.org/1999/xlink">
<g id="graph0" class="graph" transform="scale(1 1) rotate(0) translate(4 205)">
<title>MappingFE&lt; dim, spacedim &gt;</title>
<polygon fill="white" stroke="transparent" points="-4,4 -4,-205 225.5,-205 225.5,4 -4,4"/>
<!-- Node1 -->
<g id="node1" class="node">
<title>Node1</title>
<g id="a_node1"><a xlink:title=" ">
<polygon fill="#bfbfbf" stroke="black" points="0,-0.5 0,-19.5 148,-19.5 148,-0.5 0,-0.5"/>
<text text-anchor="middle" x="74" y="-7.5" font-family="Helvetica,sans-Serif" font-size="10.00">MappingFE&lt; dim, spacedim &gt;</text>
</a>
</g>
</g>
<!-- Node2 -->
<g id="node2" class="node">
<title>Node2</title>
<g id="a_node2"><a xlink:href="classMapping.html" target="_top" xlink:title=" ">
<polygon fill="white" stroke="black" points="19.5,-57.5 19.5,-76.5 128.5,-76.5 128.5,-57.5 19.5,-57.5"/>
<text text-anchor="middle" x="74" y="-64.5" font-family="Helvetica,sans-Serif" font-size="10.00">Mapping&lt; dim, dim &gt;</text>
</a>
</g>
</g>
<!-- Node2&#45;&gt;Node1 -->
<g id="edge1" class="edge">
<title>Node2&#45;&gt;Node1</title>
<path fill="none" stroke="midnightblue" d="M74,-47.12C74,-37.82 74,-27.06 74,-19.71"/>
<polygon fill="midnightblue" stroke="midnightblue" points="70.5,-47.41 74,-57.41 77.5,-47.41 70.5,-47.41"/>
</g>
<!-- Node3 -->
<g id="node3" class="node">
<title>Node3</title>
<g id="a_node3"><a xlink:href="classSubscriptor.html" target="_top" xlink:title=" ">
<polygon fill="white" stroke="black" points="37,-181.5 37,-200.5 103,-200.5 103,-181.5 37,-181.5"/>
<text text-anchor="middle" x="70" y="-188.5" font-family="Helvetica,sans-Serif" font-size="10.00">Subscriptor</text>
</a>
</g>
</g>
<!-- Node3&#45;&gt;Node2 -->
<g id="edge2" class="edge">
<title>Node3&#45;&gt;Node2</title>
<path fill="none" stroke="midnightblue" d="M70.62,-171.19C71.5,-144.4 73.07,-96.31 73.71,-76.69"/>
<polygon fill="midnightblue" stroke="midnightblue" points="67.12,-171.12 70.29,-181.23 74.11,-171.35 67.12,-171.12"/>
</g>
<!-- Node4 -->
<g id="node4" class="node">
<title>Node4</title>
<g id="a_node4"><a xlink:href="classMapping.html" target="_top" xlink:title="Abstract base class for mapping classes.">
<polygon fill="white" stroke="black" points="86.5,-124.5 86.5,-143.5 221.5,-143.5 221.5,-124.5 86.5,-124.5"/>
<text text-anchor="middle" x="154" y="-131.5" font-family="Helvetica,sans-Serif" font-size="10.00">Mapping&lt; dim, spacedim &gt;</text>
</a>
</g>
</g>
<!-- Node3&#45;&gt;Node4 -->
<g id="edge4" class="edge">
<title>Node3&#45;&gt;Node4</title>
<path fill="none" stroke="midnightblue" d="M91.65,-175.82C107.26,-165.61 127.81,-152.15 140.97,-143.53"/>
<polygon fill="midnightblue" stroke="midnightblue" points="89.57,-173 83.12,-181.41 93.41,-178.86 89.57,-173"/>
</g>
<!-- Node4&#45;&gt;Node2 -->
<g id="edge3" class="edge">
<title>Node4&#45;&gt;Node2</title>
<path fill="none" stroke="orange" stroke-dasharray="5,2" d="M135.19,-117.71C119.42,-104.91 97.49,-87.09 84.62,-76.63"/>
<polygon fill="orange" stroke="orange" points="133.24,-120.64 143.21,-124.23 137.66,-115.21 133.24,-120.64"/>
<text text-anchor="middle" x="147.5" y="-98" font-family="Helvetica,sans-Serif" font-size="10.00"> &lt; dim, dim &gt;</text>
</g>
</g>
</svg>
