<?xml version="1.0" encoding="UTF-8" standalone="no"?>
<!DOCTYPE svg PUBLIC "-//W3C//DTD SVG 1.1//EN"
 "http://www.w3.org/Graphics/SVG/1.1/DTD/svg11.dtd">
<!-- Generated by graphviz version 2.47.1 (20210417.1919)
 -->
<!-- Title: SolverBFGS&lt; VectorType &gt; Pages: 1 -->
<svg width="234pt" height="142pt"
 viewBox="0.00 0.00 233.50 142.00" xmlns="http://www.w3.org/2000/svg" xmlns:xlink="http://www.w3.org/1999/xlink">
<g id="graph0" class="graph" transform="scale(1 1) rotate(0) translate(4 138)">
<title>SolverBFGS&lt; VectorType &gt;</title>
<polygon fill="white" stroke="transparent" points="-4,4 -4,-138 229.5,-138 229.5,4 -4,4"/>
<!-- Node1 -->
<g id="node1" class="node">
<title>Node1</title>
<g id="a_node1"><a xlink:title=" ">
<polygon fill="#bfbfbf" stroke="black" points="0,-0.5 0,-19.5 139,-19.5 139,-0.5 0,-0.5"/>
<text text-anchor="middle" x="69.5" y="-7.5" font-family="Helvetica,sans-Serif" font-size="10.00">SolverBFGS&lt; VectorType &gt;</text>
</a>
</g>
</g>
<!-- Node2 -->
<g id="node2" class="node">
<title>Node2</title>
<g id="a_node2"><a xlink:href="classSolverBase.html" target="_top" xlink:title=" ">
<polygon fill="white" stroke="black" points="2.5,-57.5 2.5,-76.5 136.5,-76.5 136.5,-57.5 2.5,-57.5"/>
<text text-anchor="middle" x="69.5" y="-64.5" font-family="Helvetica,sans-Serif" font-size="10.00">SolverBase&lt; VectorType &gt;</text>
</a>
</g>
</g>
<!-- Node2&#45;&gt;Node1 -->
<g id="edge1" class="edge">
<title>Node2&#45;&gt;Node1</title>
<path fill="none" stroke="midnightblue" d="M69.5,-47.12C69.5,-37.82 69.5,-27.06 69.5,-19.71"/>
<polygon fill="midnightblue" stroke="midnightblue" points="66,-47.41 69.5,-57.41 73,-47.41 66,-47.41"/>
</g>
<!-- Node2&#45;&gt;Node2 -->
<g id="edge3" class="edge">
<title>Node2&#45;&gt;Node2</title>
<path fill="none" stroke="orange" stroke-dasharray="5,2" d="M147.04,-70.63C151.7,-69.76 154.5,-68.56 154.5,-67 154.5,-64.51 147.34,-62.91 136.84,-62.19"/>
<polygon fill="orange" stroke="orange" points="146.37,-67.18 136.84,-71.81 147.17,-74.14 146.37,-67.18"/>
<text text-anchor="middle" x="190" y="-64.5" font-family="Helvetica,sans-Serif" font-size="10.00"> &lt; VectorType &gt;</text>
</g>
<!-- Node3 -->
<g id="node3" class="node">
<title>Node3</title>
<g id="a_node3"><a xlink:href="classSubscriptor.html" target="_top" xlink:title=" ">
<polygon fill="white" stroke="black" points="36.5,-114.5 36.5,-133.5 102.5,-133.5 102.5,-114.5 36.5,-114.5"/>
<text text-anchor="middle" x="69.5" y="-121.5" font-family="Helvetica,sans-Serif" font-size="10.00">Subscriptor</text>
</a>
</g>
</g>
<!-- Node3&#45;&gt;Node2 -->
<g id="edge2" class="edge">
<title>Node3&#45;&gt;Node2</title>
<path fill="none" stroke="midnightblue" d="M69.5,-104.12C69.5,-94.82 69.5,-84.06 69.5,-76.71"/>
<polygon fill="midnightblue" stroke="midnightblue" points="66,-104.41 69.5,-114.41 73,-104.41 66,-104.41"/>
</g>
</g>
</svg>
