<?xml version="1.0" encoding="UTF-8" standalone="no"?>
<!DOCTYPE svg PUBLIC "-//W3C//DTD SVG 1.1//EN"
 "http://www.w3.org/Graphics/SVG/1.1/DTD/svg11.dtd">
<!-- Generated by graphviz version 2.47.1 (20210417.1919)
 -->
<!-- Title: TensorProductManifold&lt; dim, dim_A, spacedim_A, chartdim_A, dim_B, spacedim_B, chartdim_B &gt; Pages: 1 -->
<svg width="263pt" height="410pt"
 viewBox="0.00 0.00 262.50 410.00" xmlns="http://www.w3.org/2000/svg" xmlns:xlink="http://www.w3.org/1999/xlink">
<g id="graph0" class="graph" transform="scale(1 1) rotate(0) translate(4 406)">
<title>TensorProductManifold&lt; dim, dim_A, spacedim_A, chartdim_A, dim_B, spacedim_B, chartdim_B &gt;</title>
<polygon fill="white" stroke="transparent" points="-4,4 -4,-406 258.5,-406 258.5,4 -4,4"/>
<!-- Node1 -->
<g id="node1" class="node">
<title>Node1</title>
<g id="a_node1"><a xlink:title="Tensor product manifold of two ChartManifolds.">
<polygon fill="#bfbfbf" stroke="black" points="5.5,-0.5 5.5,-52.5 143.5,-52.5 143.5,-0.5 5.5,-0.5"/>
<text text-anchor="start" x="13.5" y="-40.5" font-family="Helvetica,sans-Serif" font-size="10.00">TensorProductManifold</text>
<text text-anchor="start" x="13.5" y="-29.5" font-family="Helvetica,sans-Serif" font-size="10.00">&lt; dim, dim_A, spacedim</text>
<text text-anchor="start" x="13.5" y="-18.5" font-family="Helvetica,sans-Serif" font-size="10.00">_A, chartdim_A, dim_B,</text>
<text text-anchor="middle" x="74.5" y="-7.5" font-family="Helvetica,sans-Serif" font-size="10.00"> spacedim_B, chartdim_B &gt;</text>
</a>
</g>
</g>
<!-- Node2 -->
<g id="node2" class="node">
<title>Node2</title>
<g id="a_node2"><a xlink:href="classChartManifold.html" target="_top" xlink:title=" ">
<polygon fill="white" stroke="black" points="0,-90.5 0,-131.5 149,-131.5 149,-90.5 0,-90.5"/>
<text text-anchor="start" x="8" y="-119.5" font-family="Helvetica,sans-Serif" font-size="10.00">ChartManifold&lt; dim,</text>
<text text-anchor="start" x="8" y="-108.5" font-family="Helvetica,sans-Serif" font-size="10.00"> spacedim_A+spacedim</text>
<text text-anchor="middle" x="74.5" y="-97.5" font-family="Helvetica,sans-Serif" font-size="10.00">_B, chartdim_A+chartdim_B &gt;</text>
</a>
</g>
</g>
<!-- Node2&#45;&gt;Node1 -->
<g id="edge1" class="edge">
<title>Node2&#45;&gt;Node1</title>
<path fill="none" stroke="midnightblue" d="M74.5,-80.27C74.5,-71.19 74.5,-61.29 74.5,-52.54"/>
<polygon fill="midnightblue" stroke="midnightblue" points="71,-80.45 74.5,-90.45 78,-80.45 71,-80.45"/>
</g>
<!-- Node3 -->
<g id="node3" class="node">
<title>Node3</title>
<g id="a_node3"><a xlink:href="classManifold.html" target="_top" xlink:title=" ">
<polygon fill="white" stroke="black" points="2,-325.5 2,-344.5 137,-344.5 137,-325.5 2,-325.5"/>
<text text-anchor="middle" x="69.5" y="-332.5" font-family="Helvetica,sans-Serif" font-size="10.00">Manifold&lt; dim, spacedim &gt;</text>
</a>
</g>
</g>
<!-- Node3&#45;&gt;Node2 -->
<g id="edge2" class="edge">
<title>Node3&#45;&gt;Node2</title>
<path fill="none" stroke="midnightblue" d="M69.92,-315.2C70.86,-273.64 73.1,-174.27 74.05,-131.8"/>
<polygon fill="midnightblue" stroke="midnightblue" points="66.42,-315.22 69.7,-325.3 73.42,-315.38 66.42,-315.22"/>
</g>
<!-- Node6 -->
<g id="node6" class="node">
<title>Node6</title>
<g id="a_node6"><a xlink:href="classManifold.html" target="_top" xlink:title=" ">
<polygon fill="white" stroke="black" points="89,-258.5 89,-277.5 198,-277.5 198,-258.5 89,-258.5"/>
<text text-anchor="middle" x="143.5" y="-265.5" font-family="Helvetica,sans-Serif" font-size="10.00">Manifold&lt; dim, dim &gt;</text>
</a>
</g>
</g>
<!-- Node3&#45;&gt;Node6 -->
<g id="edge7" class="edge">
<title>Node3&#45;&gt;Node6</title>
<path fill="none" stroke="orange" stroke-dasharray="5,2" d="M77.8,-315.96C81.58,-309.11 86.55,-301.62 92.5,-296 100.73,-288.23 111.63,-282.06 121.24,-277.59"/>
<polygon fill="orange" stroke="orange" points="74.5,-314.73 73.14,-325.23 80.75,-317.87 74.5,-314.73"/>
<text text-anchor="middle" x="122" y="-299" font-family="Helvetica,sans-Serif" font-size="10.00"> &lt; dim, dim &gt;</text>
</g>
<!-- Node4 -->
<g id="node4" class="node">
<title>Node4</title>
<g id="a_node4"><a xlink:href="classSubscriptor.html" target="_top" xlink:title=" ">
<polygon fill="white" stroke="black" points="84.5,-382.5 84.5,-401.5 150.5,-401.5 150.5,-382.5 84.5,-382.5"/>
<text text-anchor="middle" x="117.5" y="-389.5" font-family="Helvetica,sans-Serif" font-size="10.00">Subscriptor</text>
</a>
</g>
</g>
<!-- Node4&#45;&gt;Node3 -->
<g id="edge3" class="edge">
<title>Node4&#45;&gt;Node3</title>
<path fill="none" stroke="midnightblue" d="M103.39,-374.83C94.79,-364.98 84.15,-352.78 77.11,-344.71"/>
<polygon fill="midnightblue" stroke="midnightblue" points="100.79,-377.17 110,-382.41 106.06,-372.57 100.79,-377.17"/>
</g>
<!-- Node4&#45;&gt;Node6 -->
<g id="edge6" class="edge">
<title>Node4&#45;&gt;Node6</title>
<path fill="none" stroke="midnightblue" d="M130.47,-374.34C136.31,-365.98 142.73,-355.43 146.5,-345 153.94,-324.41 154.64,-317.66 151.5,-296 150.6,-289.81 148.6,-283.06 146.83,-277.86"/>
<polygon fill="midnightblue" stroke="midnightblue" points="127.62,-372.31 124.51,-382.44 133.26,-376.46 127.62,-372.31"/>
</g>
<!-- Node5 -->
<g id="node5" class="node">
<title>Node5</title>
<g id="a_node5"><a xlink:href="classChartManifold.html" target="_top" xlink:title=" ">
<polygon fill="white" stroke="black" points="86.5,-190.5 86.5,-220.5 200.5,-220.5 200.5,-190.5 86.5,-190.5"/>
<text text-anchor="start" x="94.5" y="-208.5" font-family="Helvetica,sans-Serif" font-size="10.00">ChartManifold&lt; dim,</text>
<text text-anchor="middle" x="143.5" y="-197.5" font-family="Helvetica,sans-Serif" font-size="10.00"> spacedim, chartdim &gt;</text>
</a>
</g>
</g>
<!-- Node5&#45;&gt;Node2 -->
<g id="edge4" class="edge">
<title>Node5&#45;&gt;Node2</title>
<path fill="none" stroke="orange" stroke-dasharray="5,2" d="M126.74,-182.03C115.26,-166.64 100.19,-146.43 89.18,-131.68"/>
<polygon fill="orange" stroke="orange" points="124.24,-184.53 133.02,-190.45 129.85,-180.34 124.24,-184.53"/>
<text text-anchor="start" x="118.5" y="-164" font-family="Helvetica,sans-Serif" font-size="10.00"> &lt; dim, spacedim_A+spacedim</text>
<text text-anchor="middle" x="186.5" y="-153" font-family="Helvetica,sans-Serif" font-size="10.00">_B, chartdim_A+chartdim_B &gt;</text>
</g>
<!-- Node6&#45;&gt;Node5 -->
<g id="edge5" class="edge">
<title>Node6&#45;&gt;Node5</title>
<path fill="none" stroke="midnightblue" d="M143.5,-248.22C143.5,-239.36 143.5,-228.96 143.5,-220.76"/>
<polygon fill="midnightblue" stroke="midnightblue" points="140,-248.33 143.5,-258.33 147,-248.33 140,-248.33"/>
</g>
</g>
</svg>
