<?xml version="1.0" encoding="UTF-8" standalone="no"?>
<!DOCTYPE svg PUBLIC "-//W3C//DTD SVG 1.1//EN"
 "http://www.w3.org/Graphics/SVG/1.1/DTD/svg11.dtd">
<!-- Generated by graphviz version 2.47.1 (20210417.1919)
 -->
<!-- Title: TriaAccessor&lt; structdim, dim, spacedim &gt; Pages: 1 -->
<svg width="307pt" height="253pt"
 viewBox="0.00 0.00 307.00 253.00" xmlns="http://www.w3.org/2000/svg" xmlns:xlink="http://www.w3.org/1999/xlink">
<g id="graph0" class="graph" transform="scale(1 1) rotate(0) translate(4 249)">
<title>TriaAccessor&lt; structdim, dim, spacedim &gt;</title>
<polygon fill="white" stroke="transparent" points="-4,4 -4,-249 303,-249 303,4 -4,4"/>
<!-- Node1 -->
<g id="node1" class="node">
<title>Node1</title>
<g id="a_node1"><a xlink:title=" ">
<polygon fill="#bfbfbf" stroke="black" points="11,-146.5 11,-176.5 138,-176.5 138,-146.5 11,-146.5"/>
<text text-anchor="start" x="19" y="-164.5" font-family="Helvetica,sans-Serif" font-size="10.00">TriaAccessor&lt; structdim,</text>
<text text-anchor="middle" x="74.5" y="-153.5" font-family="Helvetica,sans-Serif" font-size="10.00"> dim, spacedim &gt;</text>
</a>
</g>
</g>
<!-- Node3 -->
<g id="node3" class="node">
<title>Node3</title>
<g id="a_node3"><a xlink:href="classTriaAccessor.html" target="_top" xlink:title=" ">
<polygon fill="white" stroke="black" points="23.5,-68.5 23.5,-98.5 125.5,-98.5 125.5,-68.5 23.5,-68.5"/>
<text text-anchor="start" x="31.5" y="-86.5" font-family="Helvetica,sans-Serif" font-size="10.00">TriaAccessor&lt; dim,</text>
<text text-anchor="middle" x="74.5" y="-75.5" font-family="Helvetica,sans-Serif" font-size="10.00"> dim, dim &gt;</text>
</a>
</g>
</g>
<!-- Node1&#45;&gt;Node3 -->
<g id="edge3" class="edge">
<title>Node1&#45;&gt;Node3</title>
<path fill="none" stroke="orange" stroke-dasharray="5,2" d="M74.5,-136.09C74.5,-123.76 74.5,-109.22 74.5,-98.73"/>
<polygon fill="orange" stroke="orange" points="71,-136.2 74.5,-146.2 78,-136.21 71,-136.2"/>
<text text-anchor="middle" x="115" y="-120" font-family="Helvetica,sans-Serif" font-size="10.00"> &lt; dim, dim, dim &gt;</text>
</g>
<!-- Node2 -->
<g id="node2" class="node">
<title>Node2</title>
<g id="a_node2"><a xlink:href="classTriaAccessorBase.html" target="_top" xlink:title=" ">
<polygon fill="white" stroke="black" points="0,-214.5 0,-244.5 149,-244.5 149,-214.5 0,-214.5"/>
<text text-anchor="start" x="8" y="-232.5" font-family="Helvetica,sans-Serif" font-size="10.00">TriaAccessorBase&lt; structdim,</text>
<text text-anchor="middle" x="74.5" y="-221.5" font-family="Helvetica,sans-Serif" font-size="10.00"> dim, spacedim &gt;</text>
</a>
</g>
</g>
<!-- Node2&#45;&gt;Node1 -->
<g id="edge1" class="edge">
<title>Node2&#45;&gt;Node1</title>
<path fill="none" stroke="midnightblue" d="M74.5,-204.03C74.5,-194.86 74.5,-184.74 74.5,-176.79"/>
<polygon fill="midnightblue" stroke="midnightblue" points="71,-204.18 74.5,-214.18 78,-204.18 71,-204.18"/>
</g>
<!-- Node2&#45;&gt;Node2 -->
<g id="edge2" class="edge">
<title>Node2&#45;&gt;Node2</title>
<path fill="none" stroke="orange" stroke-dasharray="5,2" d="M159.19,-233.84C164.08,-232.8 167,-231.35 167,-229.5 167,-226.61 159.88,-224.7 149.26,-223.78"/>
<polygon fill="orange" stroke="orange" points="158.69,-230.38 149.26,-235.22 159.65,-237.31 158.69,-230.38"/>
<text text-anchor="middle" x="233" y="-227" font-family="Helvetica,sans-Serif" font-size="10.00"> &lt; structdim, dim, spacedim &gt;</text>
</g>
<!-- Node4 -->
<g id="node4" class="node">
<title>Node4</title>
<g id="a_node4"><a xlink:href="classCellAccessor.html" target="_top" xlink:title=" ">
<polygon fill="white" stroke="black" points="23,-0.5 23,-30.5 126,-30.5 126,-0.5 23,-0.5"/>
<text text-anchor="start" x="31" y="-18.5" font-family="Helvetica,sans-Serif" font-size="10.00">CellAccessor&lt; dim,</text>
<text text-anchor="middle" x="74.5" y="-7.5" font-family="Helvetica,sans-Serif" font-size="10.00"> spacedim &gt;</text>
</a>
</g>
</g>
<!-- Node3&#45;&gt;Node4 -->
<g id="edge4" class="edge">
<title>Node3&#45;&gt;Node4</title>
<path fill="none" stroke="midnightblue" d="M74.5,-58.03C74.5,-48.86 74.5,-38.74 74.5,-30.79"/>
<polygon fill="midnightblue" stroke="midnightblue" points="71,-58.18 74.5,-68.18 78,-58.18 71,-58.18"/>
</g>
</g>
</svg>
