<?xml version="1.0" encoding="UTF-8" standalone="no"?>
<!DOCTYPE svg PUBLIC "-//W3C//DTD SVG 1.1//EN"
 "http://www.w3.org/Graphics/SVG/1.1/DTD/svg11.dtd">
<!-- Generated by graphviz version 2.47.1 (20210417.1919)
 -->
<!-- Title: FETools::FEFactory&lt; FE &gt; Pages: 1 -->
<svg width="221pt" height="264pt"
 viewBox="0.00 0.00 221.00 264.00" xmlns="http://www.w3.org/2000/svg" xmlns:xlink="http://www.w3.org/1999/xlink">
<g id="graph0" class="graph" transform="scale(1 1) rotate(0) translate(4 260)">
<title>FETools::FEFactory&lt; FE &gt;</title>
<polygon fill="white" stroke="transparent" points="-4,4 -4,-260 217,-260 217,4 -4,4"/>
<!-- Node1 -->
<g id="node1" class="node">
<title>Node1</title>
<g id="a_node1"><a xlink:title=" ">
<polygon fill="#bfbfbf" stroke="black" points="18,-0.5 18,-30.5 122,-30.5 122,-0.5 18,-0.5"/>
<text text-anchor="start" x="26" y="-18.5" font-family="Helvetica,sans-Serif" font-size="10.00">FETools::FEFactory</text>
<text text-anchor="middle" x="70" y="-7.5" font-family="Helvetica,sans-Serif" font-size="10.00">&lt; FE &gt;</text>
</a>
</g>
</g>
<!-- Node2 -->
<g id="node2" class="node">
<title>Node2</title>
<g id="a_node2"><a xlink:href="classFETools_1_1FEFactoryBase.html" target="_top" xlink:title=" ">
<polygon fill="white" stroke="black" points="0,-68.5 0,-109.5 140,-109.5 140,-68.5 0,-68.5"/>
<text text-anchor="start" x="8" y="-97.5" font-family="Helvetica,sans-Serif" font-size="10.00">FETools::FEFactoryBase</text>
<text text-anchor="start" x="8" y="-86.5" font-family="Helvetica,sans-Serif" font-size="10.00">&lt; FE::dimension, FE::space</text>
<text text-anchor="middle" x="70" y="-75.5" font-family="Helvetica,sans-Serif" font-size="10.00">_dimension &gt;</text>
</a>
</g>
</g>
<!-- Node2&#45;&gt;Node1 -->
<g id="edge1" class="edge">
<title>Node2&#45;&gt;Node1</title>
<path fill="none" stroke="midnightblue" d="M70,-58.16C70,-48.69 70,-38.65 70,-30.8"/>
<polygon fill="midnightblue" stroke="midnightblue" points="66.5,-58.46 70,-68.46 73.5,-58.46 66.5,-58.46"/>
</g>
<!-- Node3 -->
<g id="node3" class="node">
<title>Node3</title>
<g id="a_node3"><a xlink:href="classSubscriptor.html" target="_top" xlink:title=" ">
<polygon fill="white" stroke="black" points="33,-236.5 33,-255.5 99,-255.5 99,-236.5 33,-236.5"/>
<text text-anchor="middle" x="66" y="-243.5" font-family="Helvetica,sans-Serif" font-size="10.00">Subscriptor</text>
</a>
</g>
</g>
<!-- Node3&#45;&gt;Node2 -->
<g id="edge2" class="edge">
<title>Node3&#45;&gt;Node2</title>
<path fill="none" stroke="midnightblue" d="M66.49,-226C67.25,-196.38 68.72,-139.51 69.5,-109.56"/>
<polygon fill="midnightblue" stroke="midnightblue" points="62.99,-226.14 66.23,-236.22 69.98,-226.32 62.99,-226.14"/>
</g>
<!-- Node4 -->
<g id="node4" class="node">
<title>Node4</title>
<g id="a_node4"><a xlink:href="classFETools_1_1FEFactoryBase.html" target="_top" xlink:title=" ">
<polygon fill="white" stroke="black" points="82.5,-168.5 82.5,-198.5 209.5,-198.5 209.5,-168.5 82.5,-168.5"/>
<text text-anchor="start" x="90.5" y="-186.5" font-family="Helvetica,sans-Serif" font-size="10.00">FETools::FEFactoryBase</text>
<text text-anchor="middle" x="146" y="-175.5" font-family="Helvetica,sans-Serif" font-size="10.00">&lt; dim, spacedim &gt;</text>
</a>
</g>
</g>
<!-- Node3&#45;&gt;Node4 -->
<g id="edge4" class="edge">
<title>Node3&#45;&gt;Node4</title>
<path fill="none" stroke="midnightblue" d="M85.6,-230.18C98.36,-220.53 114.91,-208.01 127.45,-198.53"/>
<polygon fill="midnightblue" stroke="midnightblue" points="83.33,-227.51 77.46,-236.33 87.55,-233.09 83.33,-227.51"/>
</g>
<!-- Node4&#45;&gt;Node2 -->
<g id="edge3" class="edge">
<title>Node4&#45;&gt;Node2</title>
<path fill="none" stroke="orange" stroke-dasharray="5,2" d="M127.89,-160.46C115.21,-145.02 98.4,-124.57 86.17,-109.68"/>
<polygon fill="orange" stroke="orange" points="125.4,-162.95 134.46,-168.45 130.81,-158.5 125.4,-162.95"/>
<text text-anchor="start" x="119" y="-142" font-family="Helvetica,sans-Serif" font-size="10.00"> &lt; FE::dimension, FE</text>
<text text-anchor="middle" x="166" y="-131" font-family="Helvetica,sans-Serif" font-size="10.00">::space_dimension &gt;</text>
</g>
</g>
</svg>
