<?xml version="1.0" encoding="UTF-8" standalone="no"?>
<!DOCTYPE svg PUBLIC "-//W3C//DTD SVG 1.1//EN"
 "http://www.w3.org/Graphics/SVG/1.1/DTD/svg11.dtd">
<!-- Generated by graphviz version 2.47.1 (20210417.1919)
 -->
<!-- Title: BlockVectorBase&lt; VectorType &gt; Pages: 1 -->
<svg width="924pt" height="202pt"
 viewBox="0.00 0.00 924.00 202.30" xmlns="http://www.w3.org/2000/svg" xmlns:xlink="http://www.w3.org/1999/xlink">
<g id="graph0" class="graph" transform="scale(1 1) rotate(0) translate(4 198.3)">
<title>BlockVectorBase&lt; VectorType &gt;</title>
<polygon fill="white" stroke="transparent" points="-4,4 -4,-198.3 920,-198.3 920,4 -4,4"/>
<!-- Node1 -->
<g id="node1" class="node">
<title>Node1</title>
<g id="a_node1"><a xlink:title=" ">
<polygon fill="#bfbfbf" stroke="black" points="103,-122 103,-141 263,-141 263,-122 103,-122"/>
<text text-anchor="middle" x="183" y="-129" font-family="Helvetica,sans-Serif" font-size="10.00">BlockVectorBase&lt; VectorType &gt;</text>
</a>
</g>
</g>
<!-- Node3 -->
<g id="node3" class="node">
<title>Node3</title>
<g id="a_node3"><a xlink:href="classBlockVector.html" target="_top" xlink:title=" ">
<polygon fill="white" stroke="black" points="796,-119 796,-138 916,-138 916,-119 796,-119"/>
<text text-anchor="middle" x="856" y="-126" font-family="Helvetica,sans-Serif" font-size="10.00">BlockVector&lt; number &gt;</text>
</a>
</g>
</g>
<!-- Node1&#45;&gt;Node3 -->
<g id="edge2" class="edge">
<title>Node1&#45;&gt;Node3</title>
<path fill="none" stroke="midnightblue" d="M222.5,-144.13C240.17,-149.53 261.48,-155.5 281,-159.5 466.19,-197.46 519.25,-205.84 706,-176.5 752.45,-169.2 804.16,-149.85 832.82,-138.06"/>
<polygon fill="midnightblue" stroke="midnightblue" points="223.15,-140.67 212.57,-141.03 221.07,-147.35 223.15,-140.67"/>
</g>
<!-- Node4 -->
<g id="node4" class="node">
<title>Node4</title>
<g id="a_node4"><a xlink:href="classBlockVectorBase.html" target="_top" xlink:title=" ">
<polygon fill="white" stroke="black" points="412,-135.5 412,-165.5 531,-165.5 531,-135.5 412,-135.5"/>
<text text-anchor="start" x="420" y="-153.5" font-family="Helvetica,sans-Serif" font-size="10.00">BlockVectorBase&lt; MPI</text>
<text text-anchor="middle" x="471.5" y="-142.5" font-family="Helvetica,sans-Serif" font-size="10.00">::Vector &gt;</text>
</a>
</g>
</g>
<!-- Node1&#45;&gt;Node4 -->
<g id="edge3" class="edge">
<title>Node1&#45;&gt;Node4</title>
<path fill="none" stroke="orange" stroke-dasharray="5,2" d="M273.13,-137.41C318.26,-140.4 371.79,-143.95 411.71,-146.6"/>
<polygon fill="orange" stroke="orange" points="273.26,-133.91 263.05,-136.74 272.79,-140.9 273.26,-133.91"/>
<text text-anchor="middle" x="332.5" y="-147.5" font-family="Helvetica,sans-Serif" font-size="10.00"> &lt; MPI::Vector &gt;</text>
</g>
<!-- Node6 -->
<g id="node6" class="node">
<title>Node6</title>
<g id="a_node6"><a xlink:href="classBlockVectorBase.html" target="_top" xlink:title=" ">
<polygon fill="white" stroke="black" points="402,-95 402,-114 541,-114 541,-95 402,-95"/>
<text text-anchor="middle" x="471.5" y="-102" font-family="Helvetica,sans-Serif" font-size="10.00">BlockVectorBase&lt; Vector &gt;</text>
</a>
</g>
</g>
<!-- Node1&#45;&gt;Node6 -->
<g id="edge5" class="edge">
<title>Node1&#45;&gt;Node6</title>
<path fill="none" stroke="orange" stroke-dasharray="5,2" d="M273.16,-123.1C314.7,-119.18 363.34,-114.6 401.93,-110.96"/>
<polygon fill="orange" stroke="orange" points="272.67,-119.63 263.05,-124.05 273.33,-126.6 272.67,-119.63"/>
<text text-anchor="middle" x="332.5" y="-125.5" font-family="Helvetica,sans-Serif" font-size="10.00"> &lt; Vector &gt;</text>
</g>
<!-- Node8 -->
<g id="node8" class="node">
<title>Node8</title>
<g id="a_node8"><a xlink:href="classBlockVectorBase.html" target="_top" xlink:title=" ">
<polygon fill="white" stroke="black" points="406.5,-44.5 406.5,-74.5 536.5,-74.5 536.5,-44.5 406.5,-44.5"/>
<text text-anchor="start" x="414.5" y="-62.5" font-family="Helvetica,sans-Serif" font-size="10.00">BlockVectorBase&lt; Vector</text>
<text text-anchor="middle" x="471.5" y="-51.5" font-family="Helvetica,sans-Serif" font-size="10.00">&lt; Number &gt; &gt;</text>
</a>
</g>
</g>
<!-- Node1&#45;&gt;Node8 -->
<g id="edge7" class="edge">
<title>Node1&#45;&gt;Node8</title>
<path fill="none" stroke="orange" stroke-dasharray="5,2" d="M218.67,-118.53C237.02,-111.96 260.05,-104.2 281,-98.5 322.33,-87.27 369.49,-77.55 406.43,-70.62"/>
<polygon fill="orange" stroke="orange" points="217.47,-115.24 209.26,-121.94 219.85,-121.82 217.47,-115.24"/>
<text text-anchor="middle" x="332.5" y="-101.5" font-family="Helvetica,sans-Serif" font-size="10.00"> &lt; Vector&lt; Number &gt; &gt;</text>
</g>
<!-- Node2 -->
<g id="node2" class="node">
<title>Node2</title>
<g id="a_node2"><a xlink:href="classSubscriptor.html" target="_top" xlink:title=" ">
<polygon fill="white" stroke="black" points="0,-122 0,-141 66,-141 66,-122 0,-122"/>
<text text-anchor="middle" x="33" y="-129" font-family="Helvetica,sans-Serif" font-size="10.00">Subscriptor</text>
</a>
</g>
</g>
<!-- Node2&#45;&gt;Node1 -->
<g id="edge1" class="edge">
<title>Node2&#45;&gt;Node1</title>
<path fill="none" stroke="midnightblue" d="M76.32,-131.5C84.7,-131.5 93.74,-131.5 102.89,-131.5"/>
<polygon fill="midnightblue" stroke="midnightblue" points="76.11,-128 66.11,-131.5 76.11,-135 76.11,-128"/>
</g>
<!-- Node5 -->
<g id="node5" class="node">
<title>Node5</title>
<g id="a_node5"><a xlink:href="classTrilinosWrappers_1_1MPI_1_1BlockVector.html" target="_top" xlink:title=" ">
<polygon fill="white" stroke="black" points="585.5,-137.5 585.5,-167.5 698.5,-167.5 698.5,-137.5 585.5,-137.5"/>
<text text-anchor="start" x="593.5" y="-155.5" font-family="Helvetica,sans-Serif" font-size="10.00">TrilinosWrappers::MPI</text>
<text text-anchor="middle" x="642" y="-144.5" font-family="Helvetica,sans-Serif" font-size="10.00">::BlockVector</text>
</a>
</g>
</g>
<!-- Node4&#45;&gt;Node5 -->
<g id="edge4" class="edge">
<title>Node4&#45;&gt;Node5</title>
<path fill="none" stroke="midnightblue" d="M541.46,-151.32C556.12,-151.49 571.41,-151.67 585.49,-151.84"/>
<polygon fill="midnightblue" stroke="midnightblue" points="541.47,-147.82 531.43,-151.2 541.39,-154.82 541.47,-147.82"/>
</g>
<!-- Node7 -->
<g id="node7" class="node">
<title>Node7</title>
<g id="a_node7"><a xlink:href="classPETScWrappers_1_1MPI_1_1BlockVector.html" target="_top" xlink:title=" ">
<polygon fill="white" stroke="black" points="585.5,-88.5 585.5,-118.5 698.5,-118.5 698.5,-88.5 585.5,-88.5"/>
<text text-anchor="start" x="593.5" y="-106.5" font-family="Helvetica,sans-Serif" font-size="10.00">PETScWrappers::MPI</text>
<text text-anchor="middle" x="642" y="-95.5" font-family="Helvetica,sans-Serif" font-size="10.00">::BlockVector</text>
</a>
</g>
</g>
<!-- Node6&#45;&gt;Node7 -->
<g id="edge6" class="edge">
<title>Node6&#45;&gt;Node7</title>
<path fill="none" stroke="midnightblue" d="M551.15,-104.03C562.72,-103.96 574.44,-103.9 585.42,-103.83"/>
<polygon fill="midnightblue" stroke="midnightblue" points="551.01,-100.53 541.04,-104.09 551.06,-107.53 551.01,-100.53"/>
</g>
<!-- Node9 -->
<g id="node9" class="node">
<title>Node9</title>
<g id="a_node9"><a xlink:href="classBlockVector.html" target="_top" xlink:title=" ">
<polygon fill="white" stroke="black" points="581,-50 581,-69 703,-69 703,-50 581,-50"/>
<text text-anchor="middle" x="642" y="-57" font-family="Helvetica,sans-Serif" font-size="10.00">BlockVector&lt; Number &gt;</text>
</a>
</g>
</g>
<!-- Node8&#45;&gt;Node9 -->
<g id="edge8" class="edge">
<title>Node8&#45;&gt;Node9</title>
<path fill="none" stroke="midnightblue" d="M547,-59.5C558.33,-59.5 569.9,-59.5 580.88,-59.5"/>
<polygon fill="midnightblue" stroke="midnightblue" points="546.68,-56 536.68,-59.5 546.68,-63 546.68,-56"/>
</g>
<!-- Node10 -->
<g id="node10" class="node">
<title>Node10</title>
<g id="a_node10"><a xlink:href="classLinearAlgebra_1_1distributed_1_1BlockVector.html" target="_top" xlink:title=" ">
<polygon fill="white" stroke="black" points="578,-0.5 578,-30.5 706,-30.5 706,-0.5 578,-0.5"/>
<text text-anchor="start" x="586" y="-18.5" font-family="Helvetica,sans-Serif" font-size="10.00">LinearAlgebra::distributed</text>
<text text-anchor="middle" x="642" y="-7.5" font-family="Helvetica,sans-Serif" font-size="10.00">::BlockVector&lt; Number &gt;</text>
</a>
</g>
</g>
<!-- Node8&#45;&gt;Node10 -->
<g id="edge10" class="edge">
<title>Node8&#45;&gt;Node10</title>
<path fill="none" stroke="midnightblue" d="M539.88,-41.91C554.31,-38.14 569.43,-34.19 583.46,-30.53"/>
<polygon fill="midnightblue" stroke="midnightblue" points="538.81,-38.57 530.02,-44.48 540.58,-45.34 538.81,-38.57"/>
</g>
<!-- Node9&#45;&gt;Node3 -->
<g id="edge9" class="edge">
<title>Node9&#45;&gt;Node3</title>
<path fill="none" stroke="orange" stroke-dasharray="5,2" d="M685.37,-72.08C692.27,-74.19 699.34,-76.38 706,-78.5 748.51,-92.04 797.5,-108.68 827.35,-118.94"/>
<polygon fill="orange" stroke="orange" points="686.02,-68.62 675.43,-69.07 683.99,-75.32 686.02,-68.62"/>
<text text-anchor="middle" x="751" y="-104.5" font-family="Helvetica,sans-Serif" font-size="10.00"> &lt; number &gt;</text>
</g>
</g>
</svg>
