<?xml version="1.0" encoding="UTF-8" standalone="no"?>
<!DOCTYPE svg PUBLIC "-//W3C//DTD SVG 1.1//EN"
 "http://www.w3.org/Graphics/SVG/1.1/DTD/svg11.dtd">
<!-- Generated by graphviz version 2.47.1 (20210417.1919)
 -->
<!-- Title: QSimplex&lt; dim &gt; Pages: 1 -->
<svg width="428pt" height="277pt"
 viewBox="0.00 0.00 427.50 277.00" xmlns="http://www.w3.org/2000/svg" xmlns:xlink="http://www.w3.org/1999/xlink">
<g id="graph0" class="graph" transform="scale(1 1) rotate(0) translate(4 273)">
<title>QSimplex&lt; dim &gt;</title>
<polygon fill="white" stroke="transparent" points="-4,4 -4,-273 423.5,-273 423.5,4 -4,4"/>
<!-- Node1 -->
<g id="node1" class="node">
<title>Node1</title>
<g id="a_node1"><a xlink:title=" ">
<polygon fill="#bfbfbf" stroke="black" points="162.5,-135.5 162.5,-154.5 255.5,-154.5 255.5,-135.5 162.5,-135.5"/>
<text text-anchor="middle" x="209" y="-142.5" font-family="Helvetica,sans-Serif" font-size="10.00">QSimplex&lt; dim &gt;</text>
</a>
</g>
</g>
<!-- Node4 -->
<g id="node4" class="node">
<title>Node4</title>
<g id="a_node4"><a xlink:href="classQGaussSimplex.html" target="_top" xlink:title=" ">
<polygon fill="white" stroke="black" points="0,-63 0,-82 122,-82 122,-63 0,-63"/>
<text text-anchor="middle" x="61" y="-70" font-family="Helvetica,sans-Serif" font-size="10.00">QGaussSimplex&lt; dim &gt;</text>
</a>
</g>
</g>
<!-- Node1&#45;&gt;Node4 -->
<g id="edge3" class="edge">
<title>Node1&#45;&gt;Node4</title>
<path fill="none" stroke="midnightblue" d="M182.1,-131.18C152.16,-116.92 104.62,-94.28 78.92,-82.03"/>
<polygon fill="midnightblue" stroke="midnightblue" points="180.61,-134.36 191.15,-135.5 183.62,-128.04 180.61,-134.36"/>
</g>
<!-- Node5 -->
<g id="node5" class="node">
<title>Node5</title>
<g id="a_node5"><a xlink:href="classQWitherdenVincentSimplex.html" target="_top" xlink:title=" ">
<polygon fill="white" stroke="black" points="140.5,-57.5 140.5,-87.5 277.5,-87.5 277.5,-57.5 140.5,-57.5"/>
<text text-anchor="start" x="148.5" y="-75.5" font-family="Helvetica,sans-Serif" font-size="10.00">QWitherdenVincentSimplex</text>
<text text-anchor="middle" x="209" y="-64.5" font-family="Helvetica,sans-Serif" font-size="10.00">&lt; dim &gt;</text>
</a>
</g>
</g>
<!-- Node1&#45;&gt;Node5 -->
<g id="edge4" class="edge">
<title>Node1&#45;&gt;Node5</title>
<path fill="none" stroke="midnightblue" d="M209,-125.24C209,-113.41 209,-98.38 209,-87.58"/>
<polygon fill="midnightblue" stroke="midnightblue" points="205.5,-125.36 209,-135.36 212.5,-125.36 205.5,-125.36"/>
</g>
<!-- Node6 -->
<g id="node6" class="node">
<title>Node6</title>
<g id="a_node6"><a xlink:href="classQSimplex.html" target="_top" xlink:title=" ">
<polygon fill="white" stroke="black" points="295.5,-63 295.5,-82 378.5,-82 378.5,-63 295.5,-63"/>
<text text-anchor="middle" x="337" y="-70" font-family="Helvetica,sans-Serif" font-size="10.00">QSimplex&lt; 2 &gt;</text>
</a>
</g>
</g>
<!-- Node1&#45;&gt;Node6 -->
<g id="edge5" class="edge">
<title>Node1&#45;&gt;Node6</title>
<path fill="none" stroke="orange" stroke-dasharray="5,2" d="M233.29,-130.62C259.23,-116.34 299.56,-94.12 321.51,-82.03"/>
<polygon fill="orange" stroke="orange" points="231.51,-127.61 224.44,-135.5 234.89,-133.74 231.51,-127.61"/>
<text text-anchor="middle" x="290.5" y="-109" font-family="Helvetica,sans-Serif" font-size="10.00"> &lt; 2 &gt;</text>
</g>
<!-- Node2 -->
<g id="node2" class="node">
<title>Node2</title>
<g id="a_node2"><a xlink:href="classQuadrature.html" target="_top" xlink:title=" ">
<polygon fill="white" stroke="black" points="160,-192.5 160,-211.5 258,-211.5 258,-192.5 160,-192.5"/>
<text text-anchor="middle" x="209" y="-199.5" font-family="Helvetica,sans-Serif" font-size="10.00">Quadrature&lt; dim &gt;</text>
</a>
</g>
</g>
<!-- Node2&#45;&gt;Node1 -->
<g id="edge1" class="edge">
<title>Node2&#45;&gt;Node1</title>
<path fill="none" stroke="midnightblue" d="M209,-182.12C209,-172.82 209,-162.06 209,-154.71"/>
<polygon fill="midnightblue" stroke="midnightblue" points="205.5,-182.41 209,-192.41 212.5,-182.41 205.5,-182.41"/>
</g>
<!-- Node3 -->
<g id="node3" class="node">
<title>Node3</title>
<g id="a_node3"><a xlink:href="classSubscriptor.html" target="_top" xlink:title=" ">
<polygon fill="white" stroke="black" points="176,-249.5 176,-268.5 242,-268.5 242,-249.5 176,-249.5"/>
<text text-anchor="middle" x="209" y="-256.5" font-family="Helvetica,sans-Serif" font-size="10.00">Subscriptor</text>
</a>
</g>
</g>
<!-- Node3&#45;&gt;Node2 -->
<g id="edge2" class="edge">
<title>Node3&#45;&gt;Node2</title>
<path fill="none" stroke="midnightblue" d="M209,-239.12C209,-229.82 209,-219.06 209,-211.71"/>
<polygon fill="midnightblue" stroke="midnightblue" points="205.5,-239.41 209,-249.41 212.5,-239.41 205.5,-239.41"/>
</g>
<!-- Node7 -->
<g id="node7" class="node">
<title>Node7</title>
<g id="a_node7"><a xlink:href="classQDuffy.html" target="_top" xlink:title=" ">
<polygon fill="white" stroke="black" points="272,-0.5 272,-19.5 320,-19.5 320,-0.5 272,-0.5"/>
<text text-anchor="middle" x="296" y="-7.5" font-family="Helvetica,sans-Serif" font-size="10.00">QDuffy</text>
</a>
</g>
</g>
<!-- Node6&#45;&gt;Node7 -->
<g id="edge6" class="edge">
<title>Node6&#45;&gt;Node7</title>
<path fill="none" stroke="midnightblue" d="M325.29,-54.22C317.63,-42.92 307.95,-28.63 301.86,-19.65"/>
<polygon fill="midnightblue" stroke="midnightblue" points="322.62,-56.52 331.13,-62.83 328.41,-52.59 322.62,-56.52"/>
</g>
<!-- Node8 -->
<g id="node8" class="node">
<title>Node8</title>
<g id="a_node8"><a xlink:href="classQTrianglePolar.html" target="_top" xlink:title=" ">
<polygon fill="white" stroke="black" points="338.5,-0.5 338.5,-19.5 419.5,-19.5 419.5,-0.5 338.5,-0.5"/>
<text text-anchor="middle" x="379" y="-7.5" font-family="Helvetica,sans-Serif" font-size="10.00">QTrianglePolar</text>
</a>
</g>
</g>
<!-- Node6&#45;&gt;Node8 -->
<g id="edge7" class="edge">
<title>Node6&#45;&gt;Node8</title>
<path fill="none" stroke="midnightblue" d="M348.76,-54.56C356.65,-43.2 366.7,-28.72 372.99,-19.65"/>
<polygon fill="midnightblue" stroke="midnightblue" points="345.85,-52.62 343.02,-62.83 351.6,-56.61 345.85,-52.62"/>
</g>
</g>
</svg>
