<?xml version="1.0" encoding="UTF-8" standalone="no"?>
<!DOCTYPE svg PUBLIC "-//W3C//DTD SVG 1.1//EN"
 "http://www.w3.org/Graphics/SVG/1.1/DTD/svg11.dtd">
<!-- Generated by graphviz version 2.47.1 (20210417.1919)
 -->
<!-- Title: GinkgoWrappers::SolverGMRES&lt; ValueType, IndexType &gt; Pages: 1 -->
<svg width="173pt" height="185pt"
 viewBox="0.00 0.00 172.50 185.00" xmlns="http://www.w3.org/2000/svg" xmlns:xlink="http://www.w3.org/1999/xlink">
<g id="graph0" class="graph" transform="scale(1 1) rotate(0) translate(4 181)">
<title>GinkgoWrappers::SolverGMRES&lt; ValueType, IndexType &gt;</title>
<polygon fill="white" stroke="transparent" points="-4,4 -4,-181 168.5,-181 168.5,4 -4,4"/>
<!-- Node1 -->
<g id="node1" class="node">
<title>Node1</title>
<g id="a_node1"><a xlink:title=" ">
<polygon fill="#bfbfbf" stroke="black" points="0,-0.5 0,-30.5 159,-30.5 159,-0.5 0,-0.5"/>
<text text-anchor="start" x="8" y="-18.5" font-family="Helvetica,sans-Serif" font-size="10.00">GinkgoWrappers::SolverGMRES</text>
<text text-anchor="middle" x="79.5" y="-7.5" font-family="Helvetica,sans-Serif" font-size="10.00">&lt; ValueType, IndexType &gt;</text>
</a>
</g>
</g>
<!-- Node2 -->
<g id="node2" class="node">
<title>Node2</title>
<g id="a_node2"><a xlink:href="classGinkgoWrappers_1_1SolverBase.html" target="_top" xlink:title=" ">
<polygon fill="white" stroke="black" points="7,-68.5 7,-98.5 152,-98.5 152,-68.5 7,-68.5"/>
<text text-anchor="start" x="15" y="-86.5" font-family="Helvetica,sans-Serif" font-size="10.00">GinkgoWrappers::SolverBase</text>
<text text-anchor="middle" x="79.5" y="-75.5" font-family="Helvetica,sans-Serif" font-size="10.00">&lt; double, int32_t &gt;</text>
</a>
</g>
</g>
<!-- Node2&#45;&gt;Node1 -->
<g id="edge1" class="edge">
<title>Node2&#45;&gt;Node1</title>
<path fill="none" stroke="midnightblue" d="M79.5,-58.03C79.5,-48.86 79.5,-38.74 79.5,-30.79"/>
<polygon fill="midnightblue" stroke="midnightblue" points="76,-58.18 79.5,-68.18 83,-58.18 76,-58.18"/>
</g>
<!-- Node3 -->
<g id="node3" class="node">
<title>Node3</title>
<g id="a_node3"><a xlink:href="classGinkgoWrappers_1_1SolverBase.html" target="_top" xlink:title=" ">
<polygon fill="white" stroke="black" points="7,-146.5 7,-176.5 152,-176.5 152,-146.5 7,-146.5"/>
<text text-anchor="start" x="15" y="-164.5" font-family="Helvetica,sans-Serif" font-size="10.00">GinkgoWrappers::SolverBase</text>
<text text-anchor="middle" x="79.5" y="-153.5" font-family="Helvetica,sans-Serif" font-size="10.00">&lt; ValueType, IndexType &gt;</text>
</a>
</g>
</g>
<!-- Node3&#45;&gt;Node2 -->
<g id="edge2" class="edge">
<title>Node3&#45;&gt;Node2</title>
<path fill="none" stroke="orange" stroke-dasharray="5,2" d="M79.5,-136.09C79.5,-123.76 79.5,-109.22 79.5,-98.73"/>
<polygon fill="orange" stroke="orange" points="76,-136.2 79.5,-146.2 83,-136.21 76,-136.2"/>
<text text-anchor="middle" x="122" y="-120" font-family="Helvetica,sans-Serif" font-size="10.00"> &lt; double, int32_t &gt;</text>
</g>
</g>
</svg>
