<?xml version="1.0" encoding="UTF-8" standalone="no"?>
<!DOCTYPE svg PUBLIC "-//W3C//DTD SVG 1.1//EN"
 "http://www.w3.org/Graphics/SVG/1.1/DTD/svg11.dtd">
<!-- Generated by graphviz version 2.47.1 (20210417.1919)
 -->
<!-- Title: PrimitiveVectorMemory&lt; VectorType &gt; Pages: 1 -->
<svg width="230pt" height="231pt"
 viewBox="0.00 0.00 230.00 231.00" xmlns="http://www.w3.org/2000/svg" xmlns:xlink="http://www.w3.org/1999/xlink">
<g id="graph0" class="graph" transform="scale(1 1) rotate(0) translate(4 227)">
<title>PrimitiveVectorMemory&lt; VectorType &gt;</title>
<polygon fill="white" stroke="transparent" points="-4,4 -4,-227 226,-227 226,4 -4,4"/>
<!-- Node1 -->
<g id="node1" class="node">
<title>Node1</title>
<g id="a_node1"><a xlink:title=" ">
<polygon fill="#bfbfbf" stroke="black" points="2.5,-0.5 2.5,-30.5 121.5,-30.5 121.5,-0.5 2.5,-0.5"/>
<text text-anchor="start" x="10.5" y="-18.5" font-family="Helvetica,sans-Serif" font-size="10.00">PrimitiveVectorMemory</text>
<text text-anchor="middle" x="62" y="-7.5" font-family="Helvetica,sans-Serif" font-size="10.00">&lt; VectorType &gt;</text>
</a>
</g>
</g>
<!-- Node2 -->
<g id="node2" class="node">
<title>Node2</title>
<g id="a_node2"><a xlink:href="classVectorMemory.html" target="_top" xlink:title=" ">
<polygon fill="white" stroke="black" points="0,-68.5 0,-98.5 124,-98.5 124,-68.5 0,-68.5"/>
<text text-anchor="start" x="8" y="-86.5" font-family="Helvetica,sans-Serif" font-size="10.00">VectorMemory&lt; ::Vector</text>
<text text-anchor="middle" x="62" y="-75.5" font-family="Helvetica,sans-Serif" font-size="10.00">&lt; double &gt; &gt;</text>
</a>
</g>
</g>
<!-- Node2&#45;&gt;Node1 -->
<g id="edge1" class="edge">
<title>Node2&#45;&gt;Node1</title>
<path fill="none" stroke="midnightblue" d="M62,-58.03C62,-48.86 62,-38.74 62,-30.79"/>
<polygon fill="midnightblue" stroke="midnightblue" points="58.5,-58.18 62,-68.18 65.5,-58.18 58.5,-58.18"/>
</g>
<!-- Node3 -->
<g id="node3" class="node">
<title>Node3</title>
<g id="a_node3"><a xlink:href="classSubscriptor.html" target="_top" xlink:title=" ">
<polygon fill="white" stroke="black" points="25,-203.5 25,-222.5 91,-222.5 91,-203.5 25,-203.5"/>
<text text-anchor="middle" x="58" y="-210.5" font-family="Helvetica,sans-Serif" font-size="10.00">Subscriptor</text>
</a>
</g>
</g>
<!-- Node3&#45;&gt;Node2 -->
<g id="edge2" class="edge">
<title>Node3&#45;&gt;Node2</title>
<path fill="none" stroke="midnightblue" d="M58.6,-192.9C59.41,-167.05 60.84,-121.54 61.56,-98.59"/>
<polygon fill="midnightblue" stroke="midnightblue" points="55.09,-193.13 58.27,-203.24 62.09,-193.35 55.09,-193.13"/>
</g>
<!-- Node4 -->
<g id="node4" class="node">
<title>Node4</title>
<g id="a_node4"><a xlink:href="classVectorMemory.html" target="_top" xlink:title=" ">
<polygon fill="white" stroke="black" points="74,-146.5 74,-165.5 222,-165.5 222,-146.5 74,-146.5"/>
<text text-anchor="middle" x="148" y="-153.5" font-family="Helvetica,sans-Serif" font-size="10.00">VectorMemory&lt; VectorType &gt;</text>
</a>
</g>
</g>
<!-- Node3&#45;&gt;Node4 -->
<g id="edge4" class="edge">
<title>Node3&#45;&gt;Node4</title>
<path fill="none" stroke="midnightblue" d="M80.73,-198.11C97.51,-187.86 119.81,-174.23 134.04,-165.53"/>
<polygon fill="midnightblue" stroke="midnightblue" points="78.77,-195.21 72.06,-203.41 82.42,-201.18 78.77,-195.21"/>
</g>
<!-- Node4&#45;&gt;Node2 -->
<g id="edge3" class="edge">
<title>Node4&#45;&gt;Node2</title>
<path fill="none" stroke="orange" stroke-dasharray="5,2" d="M129.44,-139.78C114.52,-127.55 93.71,-110.5 79.17,-98.58"/>
<polygon fill="orange" stroke="orange" points="127.5,-142.72 137.45,-146.36 131.94,-137.31 127.5,-142.72"/>
<text text-anchor="middle" x="163.5" y="-120" font-family="Helvetica,sans-Serif" font-size="10.00"> &lt; ::Vector&lt; double &gt; &gt;</text>
</g>
</g>
</svg>
