<?xml version="1.0" encoding="UTF-8" standalone="no"?>
<!DOCTYPE svg PUBLIC "-//W3C//DTD SVG 1.1//EN"
 "http://www.w3.org/Graphics/SVG/1.1/DTD/svg11.dtd">
<!-- Generated by graphviz version 2.47.1 (20210417.1919)
 -->
<!-- Title: TensorPolynomialsBase&lt; dim &gt; Pages: 1 -->
<svg width="303pt" height="263pt"
 viewBox="0.00 0.00 303.00 262.50" xmlns="http://www.w3.org/2000/svg" xmlns:xlink="http://www.w3.org/1999/xlink">
<g id="graph0" class="graph" transform="scale(1 1) rotate(0) translate(4 258.5)">
<title>TensorPolynomialsBase&lt; dim &gt;</title>
<polygon fill="white" stroke="transparent" points="-4,4 -4,-258.5 299,-258.5 299,4 -4,4"/>
<!-- Node1 -->
<g id="node1" class="node">
<title>Node1</title>
<g id="a_node1"><a xlink:title=" ">
<polygon fill="#bfbfbf" stroke="black" points="0,-122.5 0,-152.5 122,-152.5 122,-122.5 0,-122.5"/>
<text text-anchor="start" x="8" y="-140.5" font-family="Helvetica,sans-Serif" font-size="10.00">TensorPolynomialsBase</text>
<text text-anchor="middle" x="61" y="-129.5" font-family="Helvetica,sans-Serif" font-size="10.00">&lt; dim &gt;</text>
</a>
</g>
</g>
<!-- Node2 -->
<g id="node2" class="node">
<title>Node2</title>
<g id="a_node2"><a xlink:href="classPolynomialsABF.html" target="_top" xlink:title=" ">
<polygon fill="white" stroke="black" points="165,-235 165,-254 288,-254 288,-235 165,-235"/>
<text text-anchor="middle" x="226.5" y="-242" font-family="Helvetica,sans-Serif" font-size="10.00">PolynomialsABF&lt; dim &gt;</text>
</a>
</g>
</g>
<!-- Node1&#45;&gt;Node2 -->
<g id="edge1" class="edge">
<title>Node1&#45;&gt;Node2</title>
<path fill="none" stroke="midnightblue" d="M81.16,-160.28C99.09,-180.22 127.62,-208.58 158,-225.5 164.91,-229.35 172.67,-232.47 180.39,-234.98"/>
<polygon fill="midnightblue" stroke="midnightblue" points="83.6,-157.77 74.37,-152.57 78.35,-162.39 83.6,-157.77"/>
</g>
<!-- Node3 -->
<g id="node3" class="node">
<title>Node3</title>
<g id="a_node3"><a xlink:href="classPolynomialsBDM.html" target="_top" xlink:title=" ">
<polygon fill="white" stroke="black" points="163.5,-197 163.5,-216 289.5,-216 289.5,-197 163.5,-197"/>
<text text-anchor="middle" x="226.5" y="-204" font-family="Helvetica,sans-Serif" font-size="10.00">PolynomialsBDM&lt; dim &gt;</text>
</a>
</g>
</g>
<!-- Node1&#45;&gt;Node3 -->
<g id="edge2" class="edge">
<title>Node1&#45;&gt;Node3</title>
<path fill="none" stroke="midnightblue" d="M96.33,-157.58C114.29,-167.51 136.87,-179.13 158,-187.5 167.05,-191.09 177.04,-194.29 186.49,-196.99"/>
<polygon fill="midnightblue" stroke="midnightblue" points="97.83,-154.41 87.4,-152.57 94.41,-160.51 97.83,-154.41"/>
</g>
<!-- Node4 -->
<g id="node4" class="node">
<title>Node4</title>
<g id="a_node4"><a xlink:href="classPolynomialsBernardiRaugel.html" target="_top" xlink:title=" ">
<polygon fill="white" stroke="black" points="158,-147.5 158,-177.5 295,-177.5 295,-147.5 158,-147.5"/>
<text text-anchor="start" x="166" y="-165.5" font-family="Helvetica,sans-Serif" font-size="10.00">PolynomialsBernardiRaugel</text>
<text text-anchor="middle" x="226.5" y="-154.5" font-family="Helvetica,sans-Serif" font-size="10.00">&lt; dim &gt;</text>
</a>
</g>
</g>
<!-- Node1&#45;&gt;Node4 -->
<g id="edge3" class="edge">
<title>Node1&#45;&gt;Node4</title>
<path fill="none" stroke="midnightblue" d="M132.56,-148.29C140.97,-149.57 149.53,-150.88 157.89,-152.16"/>
<polygon fill="midnightblue" stroke="midnightblue" points="132.83,-144.79 122.42,-146.74 131.77,-151.71 132.83,-144.79"/>
</g>
<!-- Node5 -->
<g id="node5" class="node">
<title>Node5</title>
<g id="a_node5"><a xlink:href="classPolynomialsNedelec.html" target="_top" xlink:title=" ">
<polygon fill="white" stroke="black" points="173.5,-98.5 173.5,-128.5 279.5,-128.5 279.5,-98.5 173.5,-98.5"/>
<text text-anchor="start" x="181.5" y="-116.5" font-family="Helvetica,sans-Serif" font-size="10.00">PolynomialsNedelec</text>
<text text-anchor="middle" x="226.5" y="-105.5" font-family="Helvetica,sans-Serif" font-size="10.00">&lt; dim &gt;</text>
</a>
</g>
</g>
<!-- Node1&#45;&gt;Node5 -->
<g id="edge4" class="edge">
<title>Node1&#45;&gt;Node5</title>
<path fill="none" stroke="midnightblue" d="M132.35,-127.17C146.13,-125.15 160.34,-123.06 173.4,-121.15"/>
<polygon fill="midnightblue" stroke="midnightblue" points="131.8,-123.72 122.42,-128.63 132.82,-130.64 131.8,-123.72"/>
</g>
<!-- Node6 -->
<g id="node6" class="node">
<title>Node6</title>
<g id="a_node6"><a xlink:href="classPolynomialsRT__Bubbles.html" target="_top" xlink:title=" ">
<polygon fill="white" stroke="black" points="164.5,-49.5 164.5,-79.5 288.5,-79.5 288.5,-49.5 164.5,-49.5"/>
<text text-anchor="start" x="172.5" y="-67.5" font-family="Helvetica,sans-Serif" font-size="10.00">PolynomialsRT_Bubbles</text>
<text text-anchor="middle" x="226.5" y="-56.5" font-family="Helvetica,sans-Serif" font-size="10.00">&lt; dim &gt;</text>
</a>
</g>
</g>
<!-- Node1&#45;&gt;Node6 -->
<g id="edge5" class="edge">
<title>Node1&#45;&gt;Node6</title>
<path fill="none" stroke="midnightblue" d="M99.51,-117.56C117.06,-108.53 138.38,-98.01 158,-89.5 165.91,-86.07 174.46,-82.67 182.73,-79.54"/>
<polygon fill="midnightblue" stroke="midnightblue" points="97.45,-114.68 90.18,-122.39 100.67,-120.9 97.45,-114.68"/>
</g>
<!-- Node7 -->
<g id="node7" class="node">
<title>Node7</title>
<g id="a_node7"><a xlink:href="classPolynomialsRaviartThomas.html" target="_top" xlink:title=" ">
<polygon fill="white" stroke="black" points="158,-0.5 158,-30.5 295,-30.5 295,-0.5 158,-0.5"/>
<text text-anchor="start" x="166" y="-18.5" font-family="Helvetica,sans-Serif" font-size="10.00">PolynomialsRaviartThomas</text>
<text text-anchor="middle" x="226.5" y="-7.5" font-family="Helvetica,sans-Serif" font-size="10.00">&lt; dim &gt;</text>
</a>
</g>
</g>
<!-- Node1&#45;&gt;Node7 -->
<g id="edge6" class="edge">
<title>Node1&#45;&gt;Node7</title>
<path fill="none" stroke="midnightblue" d="M79.89,-114.3C97.66,-92.63 126.71,-60.67 158,-40.5 163.78,-36.78 170.19,-33.5 176.69,-30.65"/>
<polygon fill="midnightblue" stroke="midnightblue" points="76.97,-112.35 73.43,-122.34 82.43,-116.74 76.97,-112.35"/>
</g>
</g>
</svg>
