<?xml version="1.0" encoding="UTF-8" standalone="no"?>
<!DOCTYPE svg PUBLIC "-//W3C//DTD SVG 1.1//EN"
 "http://www.w3.org/Graphics/SVG/1.1/DTD/svg11.dtd">
<!-- Generated by graphviz version 2.47.1 (20210417.1919)
 -->
<!-- Title: Utilities::MPI::internal::ComputeIndexOwner::ConsensusAlgorithmsPayload Pages: 1 -->
<svg width="638pt" height="84pt"
 viewBox="0.00 0.00 638.00 84.00" xmlns="http://www.w3.org/2000/svg" xmlns:xlink="http://www.w3.org/1999/xlink">
<g id="graph0" class="graph" transform="scale(1 1) rotate(0) translate(4 80)">
<title>Utilities::MPI::internal::ComputeIndexOwner::ConsensusAlgorithmsPayload</title>
<polygon fill="white" stroke="transparent" points="-4,4 -4,-80 634,-80 634,4 -4,4"/>
<!-- Node1 -->
<g id="node1" class="node">
<title>Node1</title>
<g id="a_node1"><a xlink:title=" ">
<polygon fill="#bfbfbf" stroke="black" points="460,-11.5 460,-52.5 630,-52.5 630,-11.5 460,-11.5"/>
<text text-anchor="start" x="468" y="-40.5" font-family="Helvetica,sans-Serif" font-size="10.00">Utilities::MPI::internal</text>
<text text-anchor="start" x="468" y="-29.5" font-family="Helvetica,sans-Serif" font-size="10.00">::ComputeIndexOwner::Consensus</text>
<text text-anchor="middle" x="545" y="-18.5" font-family="Helvetica,sans-Serif" font-size="10.00">AlgorithmsPayload</text>
</a>
</g>
</g>
<!-- Node2 -->
<g id="node2" class="node">
<title>Node2</title>
<g id="a_node2"><a xlink:href="classUtilities_1_1MPI_1_1ConsensusAlgorithms_1_1Process.html" target="_top" xlink:title=" ">
<polygon fill="white" stroke="black" points="294,-0.5 294,-63.5 423,-63.5 423,-0.5 294,-0.5"/>
<text text-anchor="start" x="302" y="-51.5" font-family="Helvetica,sans-Serif" font-size="10.00">Utilities::MPI::Consensus</text>
<text text-anchor="start" x="302" y="-40.5" font-family="Helvetica,sans-Serif" font-size="10.00">Algorithms::Process&lt; std</text>
<text text-anchor="start" x="302" y="-29.5" font-family="Helvetica,sans-Serif" font-size="10.00">::pair&lt; types::global_dof</text>
<text text-anchor="start" x="302" y="-18.5" font-family="Helvetica,sans-Serif" font-size="10.00">_index, types::global_dof</text>
<text text-anchor="middle" x="358.5" y="-7.5" font-family="Helvetica,sans-Serif" font-size="10.00">_index &gt;, unsigned int &gt;</text>
</a>
</g>
</g>
<!-- Node2&#45;&gt;Node1 -->
<g id="edge1" class="edge">
<title>Node2&#45;&gt;Node1</title>
<path fill="none" stroke="midnightblue" d="M433.33,-32C442.01,-32 450.93,-32 459.74,-32"/>
<polygon fill="midnightblue" stroke="midnightblue" points="433.25,-28.5 423.25,-32 433.25,-35.5 433.25,-28.5"/>
</g>
<!-- Node3 -->
<g id="node3" class="node">
<title>Node3</title>
<g id="a_node3"><a xlink:href="classUtilities_1_1MPI_1_1ConsensusAlgorithms_1_1Process.html" target="_top" xlink:title=" ">
<polygon fill="white" stroke="black" points="0,-17 0,-47 152,-47 152,-17 0,-17"/>
<text text-anchor="start" x="8" y="-35" font-family="Helvetica,sans-Serif" font-size="10.00">Utilities::MPI::Consensus</text>
<text text-anchor="middle" x="76" y="-24" font-family="Helvetica,sans-Serif" font-size="10.00">Algorithms::Process&lt; T1, T2 &gt;</text>
</a>
</g>
</g>
<!-- Node3&#45;&gt;Node2 -->
<g id="edge2" class="edge">
<title>Node3&#45;&gt;Node2</title>
<path fill="none" stroke="orange" stroke-dasharray="5,2" d="M162.17,-32C204.43,-32 254.62,-32 293.54,-32"/>
<polygon fill="orange" stroke="orange" points="162.17,-28.5 152.17,-32 162.17,-35.5 162.17,-28.5"/>
<text text-anchor="start" x="170" y="-68" font-family="Helvetica,sans-Serif" font-size="10.00"> &lt; std::pair&lt; types</text>
<text text-anchor="start" x="170" y="-57" font-family="Helvetica,sans-Serif" font-size="10.00">::global_dof_index,</text>
<text text-anchor="start" x="170" y="-46" font-family="Helvetica,sans-Serif" font-size="10.00"> types::global_dof_index</text>
<text text-anchor="middle" x="223" y="-35" font-family="Helvetica,sans-Serif" font-size="10.00"> &gt;, unsigned int &gt;</text>
</g>
</g>
</svg>
