<?xml version="1.0" encoding="UTF-8" standalone="no"?>
<!DOCTYPE svg PUBLIC "-//W3C//DTD SVG 1.1//EN"
 "http://www.w3.org/Graphics/SVG/1.1/DTD/svg11.dtd">
<!-- Generated by graphviz version 2.47.1 (20210417.1919)
 -->
<!-- Title: GrowingVectorMemory&lt; VectorType &gt; Pages: 1 -->
<svg width="306pt" height="309pt"
 viewBox="0.00 0.00 306.00 309.00" xmlns="http://www.w3.org/2000/svg" xmlns:xlink="http://www.w3.org/1999/xlink">
<g id="graph0" class="graph" transform="scale(1 1) rotate(0) translate(4 305)">
<title>GrowingVectorMemory&lt; VectorType &gt;</title>
<polygon fill="white" stroke="transparent" points="-4,4 -4,-305 302,-305 302,4 -4,4"/>
<!-- Node1 -->
<g id="node1" class="node">
<title>Node1</title>
<g id="a_node1"><a xlink:title=" ">
<polygon fill="#bfbfbf" stroke="black" points="4,-78.5 4,-108.5 120,-108.5 120,-78.5 4,-78.5"/>
<text text-anchor="start" x="12" y="-96.5" font-family="Helvetica,sans-Serif" font-size="10.00">GrowingVectorMemory</text>
<text text-anchor="middle" x="62" y="-85.5" font-family="Helvetica,sans-Serif" font-size="10.00">&lt; VectorType &gt;</text>
</a>
</g>
</g>
<!-- Node1&#45;&gt;Node1 -->
<g id="edge5" class="edge">
<title>Node1&#45;&gt;Node1</title>
<path fill="none" stroke="orange" stroke-dasharray="5,2" d="M130.48,-95.8C135.16,-95.27 138,-94.51 138,-93.5 138,-91.89 130.73,-90.89 120.31,-90.5"/>
<polygon fill="orange" stroke="orange" points="130.05,-92.33 120.31,-96.5 130.53,-99.31 130.05,-92.33"/>
<text text-anchor="middle" x="173.5" y="-91" font-family="Helvetica,sans-Serif" font-size="10.00"> &lt; VectorType &gt;</text>
</g>
<!-- Node1&#45;&gt;Node1 -->
<g id="edge7" class="edge">
<title>Node1&#45;&gt;Node1</title>
<path fill="none" stroke="orange" stroke-dasharray="5,2" d="M130.75,-99.7C169.73,-100.52 209,-98.45 209,-93.5 209,-88.1 162.39,-86.13 120.34,-87.59"/>
<polygon fill="orange" stroke="orange" points="130.43,-96.19 120.34,-99.41 130.24,-103.19 130.43,-96.19"/>
<text text-anchor="middle" x="244.5" y="-91" font-family="Helvetica,sans-Serif" font-size="10.00"> &lt; VectorType &gt;</text>
</g>
<!-- Node5 -->
<g id="node5" class="node">
<title>Node5</title>
<g id="a_node5"><a xlink:href="classGrowingVectorMemory.html" target="_top" xlink:title=" ">
<polygon fill="white" stroke="black" points="4,-0.5 4,-30.5 120,-30.5 120,-0.5 4,-0.5"/>
<text text-anchor="start" x="12" y="-18.5" font-family="Helvetica,sans-Serif" font-size="10.00">GrowingVectorMemory</text>
<text text-anchor="middle" x="62" y="-7.5" font-family="Helvetica,sans-Serif" font-size="10.00">&lt; Vector&lt; double &gt; &gt;</text>
</a>
</g>
</g>
<!-- Node1&#45;&gt;Node5 -->
<g id="edge6" class="edge">
<title>Node1&#45;&gt;Node5</title>
<path fill="none" stroke="orange" stroke-dasharray="5,2" d="M62,-68.09C62,-55.76 62,-41.22 62,-30.73"/>
<polygon fill="orange" stroke="orange" points="58.5,-68.2 62,-78.2 65.5,-68.21 58.5,-68.2"/>
<text text-anchor="middle" x="110.5" y="-52" font-family="Helvetica,sans-Serif" font-size="10.00"> &lt; Vector&lt; double &gt; &gt;</text>
</g>
<!-- Node2 -->
<g id="node2" class="node">
<title>Node2</title>
<g id="a_node2"><a xlink:href="classVectorMemory.html" target="_top" xlink:title=" ">
<polygon fill="white" stroke="black" points="0,-146.5 0,-176.5 124,-176.5 124,-146.5 0,-146.5"/>
<text text-anchor="start" x="8" y="-164.5" font-family="Helvetica,sans-Serif" font-size="10.00">VectorMemory&lt; ::Vector</text>
<text text-anchor="middle" x="62" y="-153.5" font-family="Helvetica,sans-Serif" font-size="10.00">&lt; double &gt; &gt;</text>
</a>
</g>
</g>
<!-- Node2&#45;&gt;Node1 -->
<g id="edge1" class="edge">
<title>Node2&#45;&gt;Node1</title>
<path fill="none" stroke="midnightblue" d="M62,-136.03C62,-126.86 62,-116.74 62,-108.79"/>
<polygon fill="midnightblue" stroke="midnightblue" points="58.5,-136.18 62,-146.18 65.5,-136.18 58.5,-136.18"/>
</g>
<!-- Node3 -->
<g id="node3" class="node">
<title>Node3</title>
<g id="a_node3"><a xlink:href="classSubscriptor.html" target="_top" xlink:title=" ">
<polygon fill="white" stroke="black" points="25,-281.5 25,-300.5 91,-300.5 91,-281.5 25,-281.5"/>
<text text-anchor="middle" x="58" y="-288.5" font-family="Helvetica,sans-Serif" font-size="10.00">Subscriptor</text>
</a>
</g>
</g>
<!-- Node3&#45;&gt;Node2 -->
<g id="edge2" class="edge">
<title>Node3&#45;&gt;Node2</title>
<path fill="none" stroke="midnightblue" d="M58.6,-270.9C59.41,-245.05 60.84,-199.54 61.56,-176.59"/>
<polygon fill="midnightblue" stroke="midnightblue" points="55.09,-271.13 58.27,-281.24 62.09,-271.35 55.09,-271.13"/>
</g>
<!-- Node4 -->
<g id="node4" class="node">
<title>Node4</title>
<g id="a_node4"><a xlink:href="classVectorMemory.html" target="_top" xlink:title=" ">
<polygon fill="white" stroke="black" points="74,-224.5 74,-243.5 222,-243.5 222,-224.5 74,-224.5"/>
<text text-anchor="middle" x="148" y="-231.5" font-family="Helvetica,sans-Serif" font-size="10.00">VectorMemory&lt; VectorType &gt;</text>
</a>
</g>
</g>
<!-- Node3&#45;&gt;Node4 -->
<g id="edge4" class="edge">
<title>Node3&#45;&gt;Node4</title>
<path fill="none" stroke="midnightblue" d="M80.73,-276.11C97.51,-265.86 119.81,-252.23 134.04,-243.53"/>
<polygon fill="midnightblue" stroke="midnightblue" points="78.77,-273.21 72.06,-281.41 82.42,-279.18 78.77,-273.21"/>
</g>
<!-- Node4&#45;&gt;Node2 -->
<g id="edge3" class="edge">
<title>Node4&#45;&gt;Node2</title>
<path fill="none" stroke="orange" stroke-dasharray="5,2" d="M129.44,-217.78C114.52,-205.55 93.71,-188.5 79.17,-176.58"/>
<polygon fill="orange" stroke="orange" points="127.5,-220.72 137.45,-224.36 131.94,-215.31 127.5,-220.72"/>
<text text-anchor="middle" x="163.5" y="-198" font-family="Helvetica,sans-Serif" font-size="10.00"> &lt; ::Vector&lt; double &gt; &gt;</text>
</g>
</g>
</svg>
