<?xml version="1.0" encoding="UTF-8" standalone="no"?>
<!DOCTYPE svg PUBLIC "-//W3C//DTD SVG 1.1//EN"
 "http://www.w3.org/Graphics/SVG/1.1/DTD/svg11.dtd">
<!-- Generated by graphviz version 2.47.1 (20210417.1919)
 -->
<!-- Title: VectorMemory&lt; VectorType &gt; Pages: 1 -->
<svg width="1044pt" height="161pt"
 viewBox="0.00 0.00 1044.00 161.00" xmlns="http://www.w3.org/2000/svg" xmlns:xlink="http://www.w3.org/1999/xlink">
<g id="graph0" class="graph" transform="scale(1 1) rotate(0) translate(4 157)">
<title>VectorMemory&lt; VectorType &gt;</title>
<polygon fill="white" stroke="transparent" points="-4,4 -4,-157 1040,-157 1040,4 -4,4"/>
<!-- Node1 -->
<g id="node1" class="node">
<title>Node1</title>
<g id="a_node1"><a xlink:title=" ">
<polygon fill="#bfbfbf" stroke="black" points="103,-23 103,-42 251,-42 251,-23 103,-23"/>
<text text-anchor="middle" x="177" y="-30" font-family="Helvetica,sans-Serif" font-size="10.00">VectorMemory&lt; VectorType &gt;</text>
</a>
</g>
</g>
<!-- Node1&#45;&gt;Node1 -->
<g id="edge2" class="edge">
<title>Node1&#45;&gt;Node1</title>
<path fill="none" stroke="orange" stroke-dasharray="5,2" d="M168.53,-52.27C169.19,-57 172.02,-60.5 177,-60.5 185.18,-60.5 187.54,-51.07 184.09,-42.26"/>
<polygon fill="orange" stroke="orange" points="172.01,-52.64 169.91,-42.26 165.08,-51.68 172.01,-52.64"/>
<text text-anchor="middle" x="177" y="-63.5" font-family="Helvetica,sans-Serif" font-size="10.00"> &lt; VectorType &gt;</text>
</g>
<!-- Node1&#45;&gt;Node1 -->
<g id="edge10" class="edge">
<title>Node1&#45;&gt;Node1</title>
<path fill="none" stroke="orange" stroke-dasharray="5,2" d="M161.66,-51.25C156.56,-64.88 161.67,-78.5 177,-78.5 195.69,-78.5 199.19,-58.26 187.51,-42.44"/>
<polygon fill="orange" stroke="orange" points="164.76,-52.89 166.49,-42.44 158.62,-49.53 164.76,-52.89"/>
<text text-anchor="middle" x="177" y="-81.5" font-family="Helvetica,sans-Serif" font-size="10.00"> &lt; VectorType &gt;</text>
</g>
<!-- Node3 -->
<g id="node3" class="node">
<title>Node3</title>
<g id="a_node3"><a xlink:href="classVectorMemory.html" target="_top" xlink:title=" ">
<polygon fill="white" stroke="black" points="390,-44.5 390,-74.5 514,-74.5 514,-44.5 390,-44.5"/>
<text text-anchor="start" x="398" y="-62.5" font-family="Helvetica,sans-Serif" font-size="10.00">VectorMemory&lt; ::Vector</text>
<text text-anchor="middle" x="452" y="-51.5" font-family="Helvetica,sans-Serif" font-size="10.00">&lt; double &gt; &gt;</text>
</a>
</g>
</g>
<!-- Node1&#45;&gt;Node3 -->
<g id="edge3" class="edge">
<title>Node1&#45;&gt;Node3</title>
<path fill="none" stroke="orange" stroke-dasharray="5,2" d="M261.23,-40.73C302.61,-44.82 351.75,-49.68 389.65,-53.43"/>
<polygon fill="orange" stroke="orange" points="261.45,-37.24 251.16,-39.74 260.77,-44.2 261.45,-37.24"/>
<text text-anchor="middle" x="320.5" y="-55.5" font-family="Helvetica,sans-Serif" font-size="10.00"> &lt; ::Vector&lt; double &gt; &gt;</text>
</g>
<!-- Node7 -->
<g id="node7" class="node">
<title>Node7</title>
<g id="a_node7"><a xlink:href="classVectorMemory.html" target="_top" xlink:title=" ">
<polygon fill="white" stroke="black" points="532,-0.5 532,-30.5 650,-30.5 650,-0.5 532,-0.5"/>
<text text-anchor="start" x="540" y="-18.5" font-family="Helvetica,sans-Serif" font-size="10.00">VectorMemory&lt; Vector</text>
<text text-anchor="middle" x="591" y="-7.5" font-family="Helvetica,sans-Serif" font-size="10.00">&lt; double &gt; &gt;</text>
</a>
</g>
</g>
<!-- Node1&#45;&gt;Node7 -->
<g id="edge8" class="edge">
<title>Node1&#45;&gt;Node7</title>
<path fill="none" stroke="orange" stroke-dasharray="5,2" d="M261.22,-27.87C263.84,-27.74 266.44,-27.62 269,-27.5 360.92,-23.26 467.7,-19.5 532,-17.36"/>
<polygon fill="orange" stroke="orange" points="260.82,-24.38 251.01,-28.38 261.17,-31.38 260.82,-24.38"/>
<text text-anchor="middle" x="320.5" y="-30.5" font-family="Helvetica,sans-Serif" font-size="10.00"> &lt; Vector&lt; double &gt; &gt;</text>
</g>
<!-- Node2 -->
<g id="node2" class="node">
<title>Node2</title>
<g id="a_node2"><a xlink:href="classSubscriptor.html" target="_top" xlink:title=" ">
<polygon fill="white" stroke="black" points="0,-23 0,-42 66,-42 66,-23 0,-23"/>
<text text-anchor="middle" x="33" y="-30" font-family="Helvetica,sans-Serif" font-size="10.00">Subscriptor</text>
</a>
</g>
</g>
<!-- Node2&#45;&gt;Node1 -->
<g id="edge1" class="edge">
<title>Node2&#45;&gt;Node1</title>
<path fill="none" stroke="midnightblue" d="M76.41,-32.5C84.76,-32.5 93.74,-32.5 102.77,-32.5"/>
<polygon fill="midnightblue" stroke="midnightblue" points="76.22,-29 66.22,-32.5 76.22,-36 76.22,-29"/>
</g>
<!-- Node4 -->
<g id="node4" class="node">
<title>Node4</title>
<g id="a_node4"><a xlink:href="classGrowingVectorMemory.html" target="_top" xlink:title=" ">
<polygon fill="white" stroke="black" points="669.5,-93.5 669.5,-123.5 785.5,-123.5 785.5,-93.5 669.5,-93.5"/>
<text text-anchor="start" x="677.5" y="-111.5" font-family="Helvetica,sans-Serif" font-size="10.00">GrowingVectorMemory</text>
<text text-anchor="middle" x="727.5" y="-100.5" font-family="Helvetica,sans-Serif" font-size="10.00">&lt; VectorType &gt;</text>
</a>
</g>
</g>
<!-- Node3&#45;&gt;Node4 -->
<g id="edge4" class="edge">
<title>Node3&#45;&gt;Node4</title>
<path fill="none" stroke="midnightblue" d="M524.08,-72.23C569.32,-80.34 627.13,-90.7 669.38,-98.27"/>
<polygon fill="midnightblue" stroke="midnightblue" points="524.5,-68.75 514.04,-70.44 523.26,-75.64 524.5,-68.75"/>
</g>
<!-- Node6 -->
<g id="node6" class="node">
<title>Node6</title>
<g id="a_node6"><a xlink:href="classPrimitiveVectorMemory.html" target="_top" xlink:title=" ">
<polygon fill="white" stroke="black" points="668,-44.5 668,-74.5 787,-74.5 787,-44.5 668,-44.5"/>
<text text-anchor="start" x="676" y="-62.5" font-family="Helvetica,sans-Serif" font-size="10.00">PrimitiveVectorMemory</text>
<text text-anchor="middle" x="727.5" y="-51.5" font-family="Helvetica,sans-Serif" font-size="10.00">&lt; VectorType &gt;</text>
</a>
</g>
</g>
<!-- Node3&#45;&gt;Node6 -->
<g id="edge7" class="edge">
<title>Node3&#45;&gt;Node6</title>
<path fill="none" stroke="midnightblue" d="M524.25,-59.5C568.97,-59.5 625.93,-59.5 667.99,-59.5"/>
<polygon fill="midnightblue" stroke="midnightblue" points="524.04,-56 514.04,-59.5 524.04,-63 524.04,-56"/>
</g>
<!-- Node4&#45;&gt;Node4 -->
<g id="edge6" class="edge">
<title>Node4&#45;&gt;Node4</title>
<path fill="none" stroke="orange" stroke-dasharray="5,2" d="M705.11,-133.96C707.89,-138.68 715.35,-142 727.5,-142 747.43,-142 754.75,-133.06 749.46,-123.66"/>
<polygon fill="orange" stroke="orange" points="708.62,-133.8 705.54,-123.66 701.63,-133.5 708.62,-133.8"/>
<text text-anchor="middle" x="727.5" y="-145" font-family="Helvetica,sans-Serif" font-size="10.00"> &lt; VectorType &gt;</text>
</g>
<!-- Node5 -->
<g id="node5" class="node">
<title>Node5</title>
<g id="a_node5"><a xlink:href="classGrowingVectorMemory.html" target="_top" xlink:title=" ">
<polygon fill="white" stroke="black" points="920,-16.5 920,-46.5 1036,-46.5 1036,-16.5 920,-16.5"/>
<text text-anchor="start" x="928" y="-34.5" font-family="Helvetica,sans-Serif" font-size="10.00">GrowingVectorMemory</text>
<text text-anchor="middle" x="978" y="-23.5" font-family="Helvetica,sans-Serif" font-size="10.00">&lt; Vector&lt; double &gt; &gt;</text>
</a>
</g>
</g>
<!-- Node4&#45;&gt;Node5 -->
<g id="edge5" class="edge">
<title>Node4&#45;&gt;Node5</title>
<path fill="none" stroke="orange" stroke-dasharray="5,2" d="M786.77,-90.45C829.77,-77.12 887.62,-59.2 928.2,-46.62"/>
<polygon fill="orange" stroke="orange" points="785.52,-87.17 777,-93.47 787.59,-93.85 785.52,-87.17"/>
<text text-anchor="middle" x="853.5" y="-86.5" font-family="Helvetica,sans-Serif" font-size="10.00"> &lt; Vector&lt; double &gt; &gt;</text>
</g>
<!-- Node7&#45;&gt;Node5 -->
<g id="edge9" class="edge">
<title>Node7&#45;&gt;Node5</title>
<path fill="none" stroke="midnightblue" d="M660.18,-18.33C734.01,-21.4 850.47,-26.24 919.73,-29.12"/>
<polygon fill="midnightblue" stroke="midnightblue" points="660.19,-14.83 650.06,-17.91 659.9,-21.82 660.19,-14.83"/>
</g>
</g>
</svg>
