<?xml version="1.0" encoding="UTF-8" standalone="no"?>
<!DOCTYPE svg PUBLIC "-//W3C//DTD SVG 1.1//EN"
 "http://www.w3.org/Graphics/SVG/1.1/DTD/svg11.dtd">
<!-- Generated by graphviz version 2.47.1 (20210417.1919)
 -->
<!-- Title: EigenPower&lt; VectorType &gt; Pages: 1 -->
<svg width="223pt" height="220pt"
 viewBox="0.00 0.00 222.50 220.00" xmlns="http://www.w3.org/2000/svg" xmlns:xlink="http://www.w3.org/1999/xlink">
<g id="graph0" class="graph" transform="scale(1 1) rotate(0) translate(4 216)">
<title>EigenPower&lt; VectorType &gt;</title>
<polygon fill="white" stroke="transparent" points="-4,4 -4,-216 218.5,-216 218.5,4 -4,4"/>
<!-- Node1 -->
<g id="node1" class="node">
<title>Node1</title>
<g id="a_node1"><a xlink:title=" ">
<polygon fill="#bfbfbf" stroke="black" points="0,-0.5 0,-19.5 137,-19.5 137,-0.5 0,-0.5"/>
<text text-anchor="middle" x="68.5" y="-7.5" font-family="Helvetica,sans-Serif" font-size="10.00">EigenPower&lt; VectorType &gt;</text>
</a>
</g>
</g>
<!-- Node2 -->
<g id="node2" class="node">
<title>Node2</title>
<g id="a_node2"><a xlink:href="classSolverBase.html" target="_top" xlink:title=" ">
<polygon fill="white" stroke="black" points="16.5,-57.5 16.5,-87.5 120.5,-87.5 120.5,-57.5 16.5,-57.5"/>
<text text-anchor="start" x="24.5" y="-75.5" font-family="Helvetica,sans-Serif" font-size="10.00">SolverBase&lt; Vector</text>
<text text-anchor="middle" x="68.5" y="-64.5" font-family="Helvetica,sans-Serif" font-size="10.00">&lt; double &gt; &gt;</text>
</a>
</g>
</g>
<!-- Node2&#45;&gt;Node1 -->
<g id="edge1" class="edge">
<title>Node2&#45;&gt;Node1</title>
<path fill="none" stroke="#8b1a1a" d="M68.5,-47.35C68.5,-37.51 68.5,-26.78 68.5,-19.54"/>
<polygon fill="#8b1a1a" stroke="#8b1a1a" points="65,-47.47 68.5,-57.47 72,-47.47 65,-47.47"/>
</g>
<!-- Node3 -->
<g id="node3" class="node">
<title>Node3</title>
<g id="a_node3"><a xlink:href="classSubscriptor.html" target="_top" xlink:title=" ">
<polygon fill="white" stroke="black" points="31.5,-192.5 31.5,-211.5 97.5,-211.5 97.5,-192.5 31.5,-192.5"/>
<text text-anchor="middle" x="64.5" y="-199.5" font-family="Helvetica,sans-Serif" font-size="10.00">Subscriptor</text>
</a>
</g>
</g>
<!-- Node3&#45;&gt;Node2 -->
<g id="edge2" class="edge">
<title>Node3&#45;&gt;Node2</title>
<path fill="none" stroke="midnightblue" d="M65.1,-181.9C65.91,-156.05 67.34,-110.54 68.06,-87.59"/>
<polygon fill="midnightblue" stroke="midnightblue" points="61.59,-182.13 64.77,-192.24 68.59,-182.35 61.59,-182.13"/>
</g>
<!-- Node4 -->
<g id="node4" class="node">
<title>Node4</title>
<g id="a_node4"><a xlink:href="classSolverBase.html" target="_top" xlink:title=" ">
<polygon fill="white" stroke="black" points="80.5,-135.5 80.5,-154.5 214.5,-154.5 214.5,-135.5 80.5,-135.5"/>
<text text-anchor="middle" x="147.5" y="-142.5" font-family="Helvetica,sans-Serif" font-size="10.00">SolverBase&lt; VectorType &gt;</text>
</a>
</g>
</g>
<!-- Node3&#45;&gt;Node4 -->
<g id="edge4" class="edge">
<title>Node3&#45;&gt;Node4</title>
<path fill="none" stroke="midnightblue" d="M85.89,-186.82C101.31,-176.61 121.62,-163.15 134.62,-154.53"/>
<polygon fill="midnightblue" stroke="midnightblue" points="83.87,-183.96 77.47,-192.41 87.74,-189.8 83.87,-183.96"/>
</g>
<!-- Node4&#45;&gt;Node2 -->
<g id="edge3" class="edge">
<title>Node4&#45;&gt;Node2</title>
<path fill="none" stroke="orange" stroke-dasharray="5,2" d="M130.06,-128.44C116.38,-116.23 97.51,-99.39 84.27,-87.58"/>
<polygon fill="orange" stroke="orange" points="128.02,-131.31 137.81,-135.36 132.68,-126.09 128.02,-131.31"/>
<text text-anchor="middle" x="163" y="-109" font-family="Helvetica,sans-Serif" font-size="10.00"> &lt; Vector&lt; double &gt; &gt;</text>
</g>
</g>
</svg>
