<?xml version="1.0" encoding="UTF-8" standalone="no"?>
<!DOCTYPE svg PUBLIC "-//W3C//DTD SVG 1.1//EN"
 "http://www.w3.org/Graphics/SVG/1.1/DTD/svg11.dtd">
<!-- Generated by graphviz version 2.47.1 (20210417.1919)
 -->
<!-- Title: QGaussLobatto&lt; dim &gt; Pages: 1 -->
<svg width="127pt" height="209pt"
 viewBox="0.00 0.00 127.00 209.00" xmlns="http://www.w3.org/2000/svg" xmlns:xlink="http://www.w3.org/1999/xlink">
<g id="graph0" class="graph" transform="scale(1 1) rotate(0) translate(4 205)">
<title>QGaussLobatto&lt; dim &gt;</title>
<polygon fill="white" stroke="transparent" points="-4,4 -4,-205 123,-205 123,4 -4,4"/>
<!-- Node1 -->
<g id="node1" class="node">
<title>Node1</title>
<g id="a_node1"><a xlink:title=" ">
<polygon fill="#bfbfbf" stroke="black" points="0,-67.5 0,-86.5 119,-86.5 119,-67.5 0,-67.5"/>
<text text-anchor="middle" x="59.5" y="-74.5" font-family="Helvetica,sans-Serif" font-size="10.00">QGaussLobatto&lt; dim &gt;</text>
</a>
</g>
</g>
<!-- Node4 -->
<g id="node4" class="node">
<title>Node4</title>
<g id="a_node4"><a xlink:href="classQGaussLobatto.html" target="_top" xlink:title=" ">
<polygon fill="white" stroke="black" points="5.5,-0.5 5.5,-19.5 113.5,-19.5 113.5,-0.5 5.5,-0.5"/>
<text text-anchor="middle" x="59.5" y="-7.5" font-family="Helvetica,sans-Serif" font-size="10.00">QGaussLobatto&lt; 1 &gt;</text>
</a>
</g>
</g>
<!-- Node1&#45;&gt;Node4 -->
<g id="edge3" class="edge">
<title>Node1&#45;&gt;Node4</title>
<path fill="none" stroke="orange" stroke-dasharray="5,2" d="M59.5,-57.04C59.5,-44.67 59.5,-29.12 59.5,-19.63"/>
<polygon fill="orange" stroke="orange" points="56,-57.23 59.5,-67.23 63,-57.23 56,-57.23"/>
<text text-anchor="middle" x="73" y="-41" font-family="Helvetica,sans-Serif" font-size="10.00"> &lt; 1 &gt;</text>
</g>
<!-- Node2 -->
<g id="node2" class="node">
<title>Node2</title>
<g id="a_node2"><a xlink:href="classQuadrature.html" target="_top" xlink:title=" ">
<polygon fill="white" stroke="black" points="10.5,-124.5 10.5,-143.5 108.5,-143.5 108.5,-124.5 10.5,-124.5"/>
<text text-anchor="middle" x="59.5" y="-131.5" font-family="Helvetica,sans-Serif" font-size="10.00">Quadrature&lt; dim &gt;</text>
</a>
</g>
</g>
<!-- Node2&#45;&gt;Node1 -->
<g id="edge1" class="edge">
<title>Node2&#45;&gt;Node1</title>
<path fill="none" stroke="midnightblue" d="M59.5,-114.12C59.5,-104.82 59.5,-94.06 59.5,-86.71"/>
<polygon fill="midnightblue" stroke="midnightblue" points="56,-114.41 59.5,-124.41 63,-114.41 56,-114.41"/>
</g>
<!-- Node3 -->
<g id="node3" class="node">
<title>Node3</title>
<g id="a_node3"><a xlink:href="classSubscriptor.html" target="_top" xlink:title=" ">
<polygon fill="white" stroke="black" points="26.5,-181.5 26.5,-200.5 92.5,-200.5 92.5,-181.5 26.5,-181.5"/>
<text text-anchor="middle" x="59.5" y="-188.5" font-family="Helvetica,sans-Serif" font-size="10.00">Subscriptor</text>
</a>
</g>
</g>
<!-- Node3&#45;&gt;Node2 -->
<g id="edge2" class="edge">
<title>Node3&#45;&gt;Node2</title>
<path fill="none" stroke="midnightblue" d="M59.5,-171.12C59.5,-161.82 59.5,-151.06 59.5,-143.71"/>
<polygon fill="midnightblue" stroke="midnightblue" points="56,-171.41 59.5,-181.41 63,-171.41 56,-171.41"/>
</g>
</g>
</svg>
