<?xml version="1.0" encoding="UTF-8" standalone="no"?>
<!DOCTYPE svg PUBLIC "-//W3C//DTD SVG 1.1//EN"
 "http://www.w3.org/Graphics/SVG/1.1/DTD/svg11.dtd">
<!-- Generated by graphviz version 2.47.1 (20210417.1919)
 -->
<!-- Title: OpenCASCADE::NURBSPatchManifold&lt; dim, spacedim &gt; Pages: 1 -->
<svg width="240pt" height="366pt"
 viewBox="0.00 0.00 240.00 366.00" xmlns="http://www.w3.org/2000/svg" xmlns:xlink="http://www.w3.org/1999/xlink">
<g id="graph0" class="graph" transform="scale(1 1) rotate(0) translate(4 362)">
<title>OpenCASCADE::NURBSPatchManifold&lt; dim, spacedim &gt;</title>
<polygon fill="white" stroke="transparent" points="-4,4 -4,-362 236,-362 236,4 -4,4"/>
<!-- Node1 -->
<g id="node1" class="node">
<title>Node1</title>
<g id="a_node1"><a xlink:title=" ">
<polygon fill="#bfbfbf" stroke="black" points="0,-0.5 0,-30.5 194,-30.5 194,-0.5 0,-0.5"/>
<text text-anchor="start" x="8" y="-18.5" font-family="Helvetica,sans-Serif" font-size="10.00">OpenCASCADE::NURBSPatchManifold</text>
<text text-anchor="middle" x="97" y="-7.5" font-family="Helvetica,sans-Serif" font-size="10.00">&lt; dim, spacedim &gt;</text>
</a>
</g>
</g>
<!-- Node2 -->
<g id="node2" class="node">
<title>Node2</title>
<g id="a_node2"><a xlink:href="classChartManifold.html" target="_top" xlink:title=" ">
<polygon fill="white" stroke="black" points="44.5,-68.5 44.5,-98.5 149.5,-98.5 149.5,-68.5 44.5,-68.5"/>
<text text-anchor="start" x="52.5" y="-86.5" font-family="Helvetica,sans-Serif" font-size="10.00">ChartManifold&lt; dim,</text>
<text text-anchor="middle" x="97" y="-75.5" font-family="Helvetica,sans-Serif" font-size="10.00"> spacedim, 2 &gt;</text>
</a>
</g>
</g>
<!-- Node2&#45;&gt;Node1 -->
<g id="edge1" class="edge">
<title>Node2&#45;&gt;Node1</title>
<path fill="none" stroke="midnightblue" d="M97,-58.03C97,-48.86 97,-38.74 97,-30.79"/>
<polygon fill="midnightblue" stroke="midnightblue" points="93.5,-58.18 97,-68.18 100.5,-58.18 93.5,-58.18"/>
</g>
<!-- Node3 -->
<g id="node3" class="node">
<title>Node3</title>
<g id="a_node3"><a xlink:href="classManifold.html" target="_top" xlink:title=" ">
<polygon fill="white" stroke="black" points="24.5,-281.5 24.5,-300.5 159.5,-300.5 159.5,-281.5 24.5,-281.5"/>
<text text-anchor="middle" x="92" y="-288.5" font-family="Helvetica,sans-Serif" font-size="10.00">Manifold&lt; dim, spacedim &gt;</text>
</a>
</g>
</g>
<!-- Node3&#45;&gt;Node2 -->
<g id="edge2" class="edge">
<title>Node3&#45;&gt;Node2</title>
<path fill="none" stroke="midnightblue" d="M92.45,-271.32C93.44,-230.69 95.77,-135.02 96.65,-98.77"/>
<polygon fill="midnightblue" stroke="midnightblue" points="88.95,-271.35 92.21,-281.43 95.95,-271.52 88.95,-271.35"/>
</g>
<!-- Node6 -->
<g id="node6" class="node">
<title>Node6</title>
<g id="a_node6"><a xlink:href="classManifold.html" target="_top" xlink:title=" ">
<polygon fill="white" stroke="black" points="111.5,-214.5 111.5,-233.5 220.5,-233.5 220.5,-214.5 111.5,-214.5"/>
<text text-anchor="middle" x="166" y="-221.5" font-family="Helvetica,sans-Serif" font-size="10.00">Manifold&lt; dim, dim &gt;</text>
</a>
</g>
</g>
<!-- Node3&#45;&gt;Node6 -->
<g id="edge7" class="edge">
<title>Node3&#45;&gt;Node6</title>
<path fill="none" stroke="orange" stroke-dasharray="5,2" d="M100.3,-271.96C104.08,-265.11 109.05,-257.62 115,-252 123.23,-244.23 134.13,-238.06 143.74,-233.59"/>
<polygon fill="orange" stroke="orange" points="97,-270.73 95.64,-281.23 103.25,-273.87 97,-270.73"/>
<text text-anchor="middle" x="144.5" y="-255" font-family="Helvetica,sans-Serif" font-size="10.00"> &lt; dim, dim &gt;</text>
</g>
<!-- Node4 -->
<g id="node4" class="node">
<title>Node4</title>
<g id="a_node4"><a xlink:href="classSubscriptor.html" target="_top" xlink:title=" ">
<polygon fill="white" stroke="black" points="107,-338.5 107,-357.5 173,-357.5 173,-338.5 107,-338.5"/>
<text text-anchor="middle" x="140" y="-345.5" font-family="Helvetica,sans-Serif" font-size="10.00">Subscriptor</text>
</a>
</g>
</g>
<!-- Node4&#45;&gt;Node3 -->
<g id="edge3" class="edge">
<title>Node4&#45;&gt;Node3</title>
<path fill="none" stroke="midnightblue" d="M125.89,-330.83C117.29,-320.98 106.65,-308.78 99.61,-300.71"/>
<polygon fill="midnightblue" stroke="midnightblue" points="123.29,-333.17 132.5,-338.41 128.56,-328.57 123.29,-333.17"/>
</g>
<!-- Node4&#45;&gt;Node6 -->
<g id="edge6" class="edge">
<title>Node4&#45;&gt;Node6</title>
<path fill="none" stroke="midnightblue" d="M152.97,-330.34C158.81,-321.98 165.23,-311.43 169,-301 176.44,-280.41 177.14,-273.66 174,-252 173.1,-245.81 171.1,-239.06 169.33,-233.86"/>
<polygon fill="midnightblue" stroke="midnightblue" points="150.12,-328.31 147.01,-338.44 155.76,-332.46 150.12,-328.31"/>
</g>
<!-- Node5 -->
<g id="node5" class="node">
<title>Node5</title>
<g id="a_node5"><a xlink:href="classChartManifold.html" target="_top" xlink:title=" ">
<polygon fill="white" stroke="black" points="109,-146.5 109,-176.5 223,-176.5 223,-146.5 109,-146.5"/>
<text text-anchor="start" x="117" y="-164.5" font-family="Helvetica,sans-Serif" font-size="10.00">ChartManifold&lt; dim,</text>
<text text-anchor="middle" x="166" y="-153.5" font-family="Helvetica,sans-Serif" font-size="10.00"> spacedim, chartdim &gt;</text>
</a>
</g>
</g>
<!-- Node5&#45;&gt;Node2 -->
<g id="edge4" class="edge">
<title>Node5&#45;&gt;Node2</title>
<path fill="none" stroke="orange" stroke-dasharray="5,2" d="M146.18,-138.67C134.52,-125.83 120.12,-109.97 109.92,-98.73"/>
<polygon fill="orange" stroke="orange" points="143.71,-141.15 153.02,-146.2 148.89,-136.45 143.71,-141.15"/>
<text text-anchor="middle" x="183.5" y="-120" font-family="Helvetica,sans-Serif" font-size="10.00"> &lt; dim, spacedim, 2 &gt;</text>
</g>
<!-- Node6&#45;&gt;Node5 -->
<g id="edge5" class="edge">
<title>Node6&#45;&gt;Node5</title>
<path fill="none" stroke="midnightblue" d="M166,-204.22C166,-195.36 166,-184.96 166,-176.76"/>
<polygon fill="midnightblue" stroke="midnightblue" points="162.5,-204.33 166,-214.33 169.5,-204.33 162.5,-204.33"/>
</g>
</g>
</svg>
