<?xml version="1.0" encoding="UTF-8" standalone="no"?>
<!DOCTYPE svg PUBLIC "-//W3C//DTD SVG 1.1//EN"
 "http://www.w3.org/Graphics/SVG/1.1/DTD/svg11.dtd">
<!-- Generated by graphviz version 2.47.1 (20210417.1919)
 -->
<!-- Title: MGTransferBlockSelect&lt; number &gt; Pages: 1 -->
<svg width="270pt" height="231pt"
 viewBox="0.00 0.00 270.00 231.00" xmlns="http://www.w3.org/2000/svg" xmlns:xlink="http://www.w3.org/1999/xlink">
<g id="graph0" class="graph" transform="scale(1 1) rotate(0) translate(4 227)">
<title>MGTransferBlockSelect&lt; number &gt;</title>
<polygon fill="white" stroke="transparent" points="-4,4 -4,-227 266,-227 266,4 -4,4"/>
<!-- Node1 -->
<g id="node1" class="node">
<title>Node1</title>
<g id="a_node1"><a xlink:title=" ">
<polygon fill="#bfbfbf" stroke="black" points="108.5,-0.5 108.5,-30.5 229.5,-30.5 229.5,-0.5 108.5,-0.5"/>
<text text-anchor="start" x="116.5" y="-18.5" font-family="Helvetica,sans-Serif" font-size="10.00">MGTransferBlockSelect</text>
<text text-anchor="middle" x="169" y="-7.5" font-family="Helvetica,sans-Serif" font-size="10.00">&lt; number &gt;</text>
</a>
</g>
</g>
<!-- Node2 -->
<g id="node2" class="node">
<title>Node2</title>
<g id="a_node2"><a xlink:href="classMGTransferBase.html" target="_top" xlink:title=" ">
<polygon fill="white" stroke="black" points="0,-68.5 0,-98.5 128,-98.5 128,-68.5 0,-68.5"/>
<text text-anchor="start" x="8" y="-86.5" font-family="Helvetica,sans-Serif" font-size="10.00">MGTransferBase&lt; Vector</text>
<text text-anchor="middle" x="64" y="-75.5" font-family="Helvetica,sans-Serif" font-size="10.00">&lt; number &gt; &gt;</text>
</a>
</g>
</g>
<!-- Node2&#45;&gt;Node1 -->
<g id="edge1" class="edge">
<title>Node2&#45;&gt;Node1</title>
<path fill="none" stroke="midnightblue" d="M95.28,-62.84C111.75,-52.49 131.57,-40.03 146.51,-30.64"/>
<polygon fill="midnightblue" stroke="midnightblue" points="93.13,-60.06 86.53,-68.34 96.85,-65.98 93.13,-60.06"/>
</g>
<!-- Node3 -->
<g id="node3" class="node">
<title>Node3</title>
<g id="a_node3"><a xlink:href="classSubscriptor.html" target="_top" xlink:title=" ">
<polygon fill="white" stroke="black" points="27,-203.5 27,-222.5 93,-222.5 93,-203.5 27,-203.5"/>
<text text-anchor="middle" x="60" y="-210.5" font-family="Helvetica,sans-Serif" font-size="10.00">Subscriptor</text>
</a>
</g>
</g>
<!-- Node3&#45;&gt;Node2 -->
<g id="edge2" class="edge">
<title>Node3&#45;&gt;Node2</title>
<path fill="none" stroke="midnightblue" d="M60.6,-192.9C61.41,-167.05 62.84,-121.54 63.56,-98.59"/>
<polygon fill="midnightblue" stroke="midnightblue" points="57.09,-193.13 60.27,-203.24 64.09,-193.35 57.09,-193.13"/>
</g>
<!-- Node4 -->
<g id="node4" class="node">
<title>Node4</title>
<g id="a_node4"><a xlink:href="classMGTransferBase.html" target="_top" xlink:title=" ">
<polygon fill="white" stroke="black" points="76,-146.5 76,-165.5 234,-165.5 234,-146.5 76,-146.5"/>
<text text-anchor="middle" x="155" y="-153.5" font-family="Helvetica,sans-Serif" font-size="10.00">MGTransferBase&lt; VectorType &gt;</text>
</a>
</g>
</g>
<!-- Node3&#45;&gt;Node4 -->
<g id="edge4" class="edge">
<title>Node3&#45;&gt;Node4</title>
<path fill="none" stroke="midnightblue" d="M83.5,-198.39C101.26,-188.11 125.1,-174.31 140.26,-165.53"/>
<polygon fill="midnightblue" stroke="midnightblue" points="81.74,-195.37 74.84,-203.41 85.25,-201.42 81.74,-195.37"/>
</g>
<!-- Node4&#45;&gt;Node2 -->
<g id="edge3" class="edge">
<title>Node4&#45;&gt;Node2</title>
<path fill="none" stroke="orange" stroke-dasharray="5,2" d="M135.8,-140.13C119.98,-127.87 97.7,-110.61 82.17,-98.58"/>
<polygon fill="orange" stroke="orange" points="133.79,-143 143.84,-146.36 138.08,-137.46 133.79,-143"/>
<text text-anchor="middle" x="168" y="-120" font-family="Helvetica,sans-Serif" font-size="10.00"> &lt; Vector&lt; number &gt; &gt;</text>
</g>
<!-- Node5 -->
<g id="node5" class="node">
<title>Node5</title>
<g id="a_node5"><a xlink:href="classMGTransferBlockBase.html" target="_top" xlink:title=" ">
<polygon fill="white" stroke="black" points="146,-74 146,-93 262,-93 262,-74 146,-74"/>
<text text-anchor="middle" x="204" y="-81" font-family="Helvetica,sans-Serif" font-size="10.00">MGTransferBlockBase</text>
</a>
</g>
</g>
<!-- Node5&#45;&gt;Node1 -->
<g id="edge5" class="edge">
<title>Node5&#45;&gt;Node1</title>
<path fill="none" stroke="#8b1a1a" d="M194.72,-65C189.03,-54.28 181.85,-40.73 176.52,-30.68"/>
<polygon fill="#8b1a1a" stroke="#8b1a1a" points="191.65,-66.68 199.42,-73.87 197.83,-63.4 191.65,-66.68"/>
</g>
</g>
</svg>
