<?xml version="1.0" encoding="UTF-8" standalone="no"?>
<!DOCTYPE svg PUBLIC "-//W3C//DTD SVG 1.1//EN"
 "http://www.w3.org/Graphics/SVG/1.1/DTD/svg11.dtd">
<!-- Generated by graphviz version 2.47.1 (20210417.1919)
 -->
<!-- Title: hp::DoFHandler&lt; dim, spacedim &gt; Pages: 1 -->
<svg width="234pt" height="220pt"
 viewBox="0.00 0.00 234.00 220.00" xmlns="http://www.w3.org/2000/svg" xmlns:xlink="http://www.w3.org/1999/xlink">
<g id="graph0" class="graph" transform="scale(1 1) rotate(0) translate(4 216)">
<title>hp::DoFHandler&lt; dim, spacedim &gt;</title>
<polygon fill="white" stroke="transparent" points="-4,4 -4,-216 230,-216 230,4 -4,4"/>
<!-- Node1 -->
<g id="node1" class="node">
<title>Node1</title>
<g id="a_node1"><a xlink:title=" ">
<polygon fill="#bfbfbf" stroke="black" points="6,-0.5 6,-30.5 119,-30.5 119,-0.5 6,-0.5"/>
<text text-anchor="start" x="14" y="-18.5" font-family="Helvetica,sans-Serif" font-size="10.00">hp::DoFHandler&lt; dim,</text>
<text text-anchor="middle" x="62.5" y="-7.5" font-family="Helvetica,sans-Serif" font-size="10.00"> spacedim &gt;</text>
</a>
</g>
</g>
<!-- Node2 -->
<g id="node2" class="node">
<title>Node2</title>
<g id="a_node2"><a xlink:href="classDoFHandler.html" target="_top" xlink:title=" ">
<polygon fill="white" stroke="black" points="0,-68.5 0,-87.5 125,-87.5 125,-68.5 0,-68.5"/>
<text text-anchor="middle" x="62.5" y="-75.5" font-family="Helvetica,sans-Serif" font-size="10.00">DoFHandler&lt; dim, dim &gt;</text>
</a>
</g>
</g>
<!-- Node2&#45;&gt;Node1 -->
<g id="edge1" class="edge">
<title>Node2&#45;&gt;Node1</title>
<path fill="none" stroke="midnightblue" d="M62.5,-58.22C62.5,-49.36 62.5,-38.96 62.5,-30.76"/>
<polygon fill="midnightblue" stroke="midnightblue" points="59,-58.33 62.5,-68.33 66,-58.33 59,-58.33"/>
</g>
<!-- Node3 -->
<g id="node3" class="node">
<title>Node3</title>
<g id="a_node3"><a xlink:href="classSubscriptor.html" target="_top" xlink:title=" ">
<polygon fill="white" stroke="black" points="25.5,-192.5 25.5,-211.5 91.5,-211.5 91.5,-192.5 25.5,-192.5"/>
<text text-anchor="middle" x="58.5" y="-199.5" font-family="Helvetica,sans-Serif" font-size="10.00">Subscriptor</text>
</a>
</g>
</g>
<!-- Node3&#45;&gt;Node2 -->
<g id="edge2" class="edge">
<title>Node3&#45;&gt;Node2</title>
<path fill="none" stroke="midnightblue" d="M59.12,-182.19C60,-155.4 61.57,-107.31 62.21,-87.69"/>
<polygon fill="midnightblue" stroke="midnightblue" points="55.62,-182.12 58.79,-192.23 62.61,-182.35 55.62,-182.12"/>
</g>
<!-- Node4 -->
<g id="node4" class="node">
<title>Node4</title>
<g id="a_node4"><a xlink:href="classDoFHandler.html" target="_top" xlink:title=" ">
<polygon fill="white" stroke="black" points="75,-135.5 75,-154.5 226,-154.5 226,-135.5 75,-135.5"/>
<text text-anchor="middle" x="150.5" y="-142.5" font-family="Helvetica,sans-Serif" font-size="10.00">DoFHandler&lt; dim, spacedim &gt;</text>
</a>
</g>
</g>
<!-- Node3&#45;&gt;Node4 -->
<g id="edge4" class="edge">
<title>Node3&#45;&gt;Node4</title>
<path fill="none" stroke="midnightblue" d="M81.73,-187.11C98.88,-176.86 121.68,-163.23 136.23,-154.53"/>
<polygon fill="midnightblue" stroke="midnightblue" points="79.66,-184.27 72.88,-192.41 83.25,-190.28 79.66,-184.27"/>
</g>
<!-- Node4&#45;&gt;Node2 -->
<g id="edge3" class="edge">
<title>Node4&#45;&gt;Node2</title>
<path fill="none" stroke="orange" stroke-dasharray="5,2" d="M130.28,-129.07C112.91,-116.24 88.47,-98.19 74.18,-87.63"/>
<polygon fill="orange" stroke="orange" points="128.51,-132.11 138.63,-135.23 132.67,-126.48 128.51,-132.11"/>
<text text-anchor="middle" x="141" y="-109" font-family="Helvetica,sans-Serif" font-size="10.00"> &lt; dim, dim &gt;</text>
</g>
</g>
</svg>
