<?xml version="1.0" encoding="UTF-8" standalone="no"?>
<!DOCTYPE svg PUBLIC "-//W3C//DTD SVG 1.1//EN"
 "http://www.w3.org/Graphics/SVG/1.1/DTD/svg11.dtd">
<!-- Generated by graphviz version 2.47.1 (20210417.1919)
 -->
<!-- Title: FE_DGRaviartThomas&lt; dim, spacedim &gt; Pages: 1 -->
<svg width="312pt" height="489pt"
 viewBox="0.00 0.00 311.50 489.00" xmlns="http://www.w3.org/2000/svg" xmlns:xlink="http://www.w3.org/1999/xlink">
<g id="graph0" class="graph" transform="scale(1 1) rotate(0) translate(4 485)">
<title>FE_DGRaviartThomas&lt; dim, spacedim &gt;</title>
<polygon fill="white" stroke="transparent" points="-4,4 -4,-485 307.5,-485 307.5,4 -4,4"/>
<!-- Node1 -->
<g id="node1" class="node">
<title>Node1</title>
<g id="a_node1"><a xlink:title=" ">
<polygon fill="#bfbfbf" stroke="black" points="13.5,-0.5 13.5,-30.5 129.5,-30.5 129.5,-0.5 13.5,-0.5"/>
<text text-anchor="start" x="21.5" y="-18.5" font-family="Helvetica,sans-Serif" font-size="10.00">FE_DGRaviartThomas</text>
<text text-anchor="middle" x="71.5" y="-7.5" font-family="Helvetica,sans-Serif" font-size="10.00">&lt; dim, spacedim &gt;</text>
</a>
</g>
</g>
<!-- Node2 -->
<g id="node2" class="node">
<title>Node2</title>
<g id="a_node2"><a xlink:href="classFE__DGVector.html" target="_top" xlink:title=" ">
<polygon fill="white" stroke="black" points="1.5,-68.5 1.5,-109.5 141.5,-109.5 141.5,-68.5 1.5,-68.5"/>
<text text-anchor="start" x="9.5" y="-97.5" font-family="Helvetica,sans-Serif" font-size="10.00">FE_DGVector&lt; Polynomials</text>
<text text-anchor="start" x="9.5" y="-86.5" font-family="Helvetica,sans-Serif" font-size="10.00">RaviartThomas&lt; dim &gt;,</text>
<text text-anchor="middle" x="71.5" y="-75.5" font-family="Helvetica,sans-Serif" font-size="10.00"> dim, dim &gt;</text>
</a>
</g>
</g>
<!-- Node2&#45;&gt;Node1 -->
<g id="edge1" class="edge">
<title>Node2&#45;&gt;Node1</title>
<path fill="none" stroke="midnightblue" d="M71.5,-58.16C71.5,-48.69 71.5,-38.65 71.5,-30.8"/>
<polygon fill="midnightblue" stroke="midnightblue" points="68,-58.46 71.5,-68.46 75,-58.46 68,-58.46"/>
</g>
<!-- Node3 -->
<g id="node3" class="node">
<title>Node3</title>
<g id="a_node3"><a xlink:href="classFE__PolyTensor.html" target="_top" xlink:title=" ">
<polygon fill="white" stroke="black" points="0,-314.5 0,-344.5 111,-344.5 111,-314.5 0,-314.5"/>
<text text-anchor="start" x="8" y="-332.5" font-family="Helvetica,sans-Serif" font-size="10.00">FE_PolyTensor&lt; dim,</text>
<text text-anchor="middle" x="55.5" y="-321.5" font-family="Helvetica,sans-Serif" font-size="10.00"> spacedim &gt;</text>
</a>
</g>
</g>
<!-- Node3&#45;&gt;Node2 -->
<g id="edge2" class="edge">
<title>Node3&#45;&gt;Node2</title>
<path fill="none" stroke="midnightblue" d="M57.14,-304.03C60.33,-256.57 67.28,-152.93 70.18,-109.63"/>
<polygon fill="midnightblue" stroke="midnightblue" points="53.63,-304.08 56.45,-314.29 60.61,-304.55 53.63,-304.08"/>
</g>
<!-- Node3&#45;&gt;Node3 -->
<g id="edge7" class="edge">
<title>Node3&#45;&gt;Node3</title>
<path fill="none" stroke="orange" stroke-dasharray="5,2" d="M121.45,-334.17C126.14,-333.11 129,-331.55 129,-329.5 129,-326.21 121.67,-324.2 111.27,-323.45"/>
<polygon fill="orange" stroke="orange" points="120.71,-330.74 111.27,-335.55 121.65,-337.68 120.71,-330.74"/>
<text text-anchor="middle" x="171.5" y="-327" font-family="Helvetica,sans-Serif" font-size="10.00"> &lt; dim, spacedim &gt;</text>
</g>
<!-- Node8 -->
<g id="node8" class="node">
<title>Node8</title>
<g id="a_node8"><a xlink:href="classFE__PolyTensor.html" target="_top" xlink:title=" ">
<polygon fill="white" stroke="black" points="108,-236.5 108,-266.5 219,-266.5 219,-236.5 108,-236.5"/>
<text text-anchor="start" x="116" y="-254.5" font-family="Helvetica,sans-Serif" font-size="10.00">FE_PolyTensor&lt; dim,</text>
<text text-anchor="middle" x="163.5" y="-243.5" font-family="Helvetica,sans-Serif" font-size="10.00"> dim &gt;</text>
</a>
</g>
</g>
<!-- Node3&#45;&gt;Node8 -->
<g id="edge11" class="edge">
<title>Node3&#45;&gt;Node8</title>
<path fill="none" stroke="orange" stroke-dasharray="5,2" d="M83.76,-308.61C102.55,-295.39 126.76,-278.36 143.55,-266.54"/>
<polygon fill="orange" stroke="orange" points="81.72,-305.77 75.56,-314.38 85.75,-311.49 81.72,-305.77"/>
<text text-anchor="middle" x="146" y="-288" font-family="Helvetica,sans-Serif" font-size="10.00"> &lt; dim, dim &gt;</text>
</g>
<!-- Node4 -->
<g id="node4" class="node">
<title>Node4</title>
<g id="a_node4"><a xlink:href="classFiniteElement.html" target="_top" xlink:title=" ">
<polygon fill="white" stroke="black" points="96.5,-382.5 96.5,-412.5 200.5,-412.5 200.5,-382.5 96.5,-382.5"/>
<text text-anchor="start" x="104.5" y="-400.5" font-family="Helvetica,sans-Serif" font-size="10.00">FiniteElement&lt; dim,</text>
<text text-anchor="middle" x="148.5" y="-389.5" font-family="Helvetica,sans-Serif" font-size="10.00"> spacedim &gt;</text>
</a>
</g>
</g>
<!-- Node4&#45;&gt;Node3 -->
<g id="edge3" class="edge">
<title>Node4&#45;&gt;Node3</title>
<path fill="none" stroke="midnightblue" d="M120.16,-376.39C105.66,-366.1 88.37,-353.83 75.32,-344.57"/>
<polygon fill="midnightblue" stroke="midnightblue" points="118.14,-379.25 128.32,-382.18 122.19,-373.54 118.14,-379.25"/>
</g>
<!-- Node4&#45;&gt;Node4 -->
<g id="edge6" class="edge">
<title>Node4&#45;&gt;Node4</title>
<path fill="none" stroke="orange" stroke-dasharray="5,2" d="M210.9,-402.27C215.61,-401.21 218.5,-399.62 218.5,-397.5 218.5,-394.11 211.09,-392.08 200.7,-391.39"/>
<polygon fill="orange" stroke="orange" points="210.16,-398.84 200.7,-403.61 211.07,-405.78 210.16,-398.84"/>
<text text-anchor="middle" x="261" y="-395" font-family="Helvetica,sans-Serif" font-size="10.00"> &lt; dim, spacedim &gt;</text>
</g>
<!-- Node4&#45;&gt;Node8 -->
<g id="edge10" class="edge">
<title>Node4&#45;&gt;Node8</title>
<path fill="none" stroke="midnightblue" d="M191.22,-377.19C203.95,-369.17 216.39,-358.51 223.5,-345 238.75,-316.04 206.85,-284.49 183.99,-266.74"/>
<polygon fill="midnightblue" stroke="midnightblue" points="189.29,-374.26 182.43,-382.33 192.83,-380.31 189.29,-374.26"/>
</g>
<!-- Node5 -->
<g id="node5" class="node">
<title>Node5</title>
<g id="a_node5"><a xlink:href="classSubscriptor.html" target="_top" xlink:title=" ">
<polygon fill="white" stroke="black" points="64.5,-456 64.5,-475 130.5,-475 130.5,-456 64.5,-456"/>
<text text-anchor="middle" x="97.5" y="-463" font-family="Helvetica,sans-Serif" font-size="10.00">Subscriptor</text>
</a>
</g>
</g>
<!-- Node5&#45;&gt;Node4 -->
<g id="edge4" class="edge">
<title>Node5&#45;&gt;Node4</title>
<path fill="none" stroke="midnightblue" d="M110.52,-447.65C118.88,-436.83 129.62,-422.94 137.54,-412.68"/>
<polygon fill="midnightblue" stroke="midnightblue" points="107.51,-445.82 104.17,-455.87 113.05,-450.1 107.51,-445.82"/>
</g>
<!-- Node6 -->
<g id="node6" class="node">
<title>Node6</title>
<g id="a_node6"><a xlink:href="classFiniteElementData.html" target="_top" xlink:title=" ">
<polygon fill="white" stroke="black" points="148.5,-450.5 148.5,-480.5 252.5,-480.5 252.5,-450.5 148.5,-450.5"/>
<text text-anchor="start" x="156.5" y="-468.5" font-family="Helvetica,sans-Serif" font-size="10.00">FiniteElementData&lt;</text>
<text text-anchor="middle" x="200.5" y="-457.5" font-family="Helvetica,sans-Serif" font-size="10.00"> dim &gt;</text>
</a>
</g>
</g>
<!-- Node6&#45;&gt;Node4 -->
<g id="edge5" class="edge">
<title>Node6&#45;&gt;Node4</title>
<path fill="none" stroke="midnightblue" d="M182.86,-442.11C175.22,-432.41 166.5,-421.35 159.76,-412.79"/>
<polygon fill="midnightblue" stroke="midnightblue" points="180.28,-444.49 189.22,-450.18 185.78,-440.16 180.28,-444.49"/>
</g>
<!-- Node7 -->
<g id="node7" class="node">
<title>Node7</title>
<g id="a_node7"><a xlink:href="classFE__DGVector.html" target="_top" xlink:title=" ">
<polygon fill="white" stroke="black" points="84,-168.5 84,-198.5 243,-198.5 243,-168.5 84,-168.5"/>
<text text-anchor="start" x="92" y="-186.5" font-family="Helvetica,sans-Serif" font-size="10.00">FE_DGVector&lt; PolynomialType,</text>
<text text-anchor="middle" x="163.5" y="-175.5" font-family="Helvetica,sans-Serif" font-size="10.00"> dim, spacedim &gt;</text>
</a>
</g>
</g>
<!-- Node7&#45;&gt;Node2 -->
<g id="edge8" class="edge">
<title>Node7&#45;&gt;Node2</title>
<path fill="none" stroke="orange" stroke-dasharray="5,2" d="M142.42,-161.31C126.98,-145.78 106.16,-124.85 91.08,-109.68"/>
<polygon fill="orange" stroke="orange" points="139.99,-163.83 149.53,-168.45 144.96,-158.89 139.99,-163.83"/>
<text text-anchor="start" x="131.5" y="-142" font-family="Helvetica,sans-Serif" font-size="10.00"> &lt; PolynomialsRaviartThomas</text>
<text text-anchor="middle" x="198" y="-131" font-family="Helvetica,sans-Serif" font-size="10.00">&lt; dim &gt;, dim, dim &gt;</text>
</g>
<!-- Node8&#45;&gt;Node7 -->
<g id="edge9" class="edge">
<title>Node8&#45;&gt;Node7</title>
<path fill="none" stroke="midnightblue" d="M163.5,-226.03C163.5,-216.86 163.5,-206.74 163.5,-198.79"/>
<polygon fill="midnightblue" stroke="midnightblue" points="160,-226.18 163.5,-236.18 167,-226.18 160,-226.18"/>
</g>
</g>
</svg>
