<?xml version="1.0" encoding="UTF-8" standalone="no"?>
<!DOCTYPE svg PUBLIC "-//W3C//DTD SVG 1.1//EN"
 "http://www.w3.org/Graphics/SVG/1.1/DTD/svg11.dtd">
<!-- Generated by graphviz version 2.47.1 (20210417.1919)
 -->
<!-- Title: Differentiation::AD::VectorFunction&lt; dim, ADNumberTypeCode, ScalarType &gt; Pages: 1 -->
<svg width="1158pt" height="88pt"
 viewBox="0.00 0.00 1158.00 88.00" xmlns="http://www.w3.org/2000/svg" xmlns:xlink="http://www.w3.org/1999/xlink">
<g id="graph0" class="graph" transform="scale(1 1) rotate(0) translate(4 84)">
<title>Differentiation::AD::VectorFunction&lt; dim, ADNumberTypeCode, ScalarType &gt;</title>
<polygon fill="white" stroke="transparent" points="-4,4 -4,-84 1154,-84 1154,4 -4,4"/>
<!-- Node1 -->
<g id="node1" class="node">
<title>Node1</title>
<g id="a_node1"><a xlink:title=" ">
<polygon fill="#bfbfbf" stroke="black" points="974,-33 974,-74 1150,-74 1150,-33 974,-33"/>
<text text-anchor="start" x="982" y="-62" font-family="Helvetica,sans-Serif" font-size="10.00">Differentiation::AD</text>
<text text-anchor="start" x="982" y="-51" font-family="Helvetica,sans-Serif" font-size="10.00">::VectorFunction&lt; dim,</text>
<text text-anchor="middle" x="1062" y="-40" font-family="Helvetica,sans-Serif" font-size="10.00"> ADNumberTypeCode, ScalarType &gt;</text>
</a>
</g>
</g>
<!-- Node2 -->
<g id="node2" class="node">
<title>Node2</title>
<g id="a_node2"><a xlink:href="classDifferentiation_1_1AD_1_1PointLevelFunctionsBase.html" target="_top" xlink:title=" ">
<polygon fill="white" stroke="black" points="794,-27.5 794,-79.5 937,-79.5 937,-27.5 794,-27.5"/>
<text text-anchor="start" x="802" y="-67.5" font-family="Helvetica,sans-Serif" font-size="10.00">Differentiation::AD</text>
<text text-anchor="start" x="802" y="-56.5" font-family="Helvetica,sans-Serif" font-size="10.00">::PointLevelFunctionsBase</text>
<text text-anchor="start" x="802" y="-45.5" font-family="Helvetica,sans-Serif" font-size="10.00">&lt; dim, ADNumberTypeCode,</text>
<text text-anchor="middle" x="865.5" y="-34.5" font-family="Helvetica,sans-Serif" font-size="10.00"> double &gt;</text>
</a>
</g>
</g>
<!-- Node2&#45;&gt;Node1 -->
<g id="edge1" class="edge">
<title>Node2&#45;&gt;Node1</title>
<path fill="none" stroke="midnightblue" d="M947.38,-53.5C956.07,-53.5 964.94,-53.5 973.71,-53.5"/>
<polygon fill="midnightblue" stroke="midnightblue" points="947.27,-50 937.27,-53.5 947.27,-57 947.27,-50"/>
</g>
<!-- Node3 -->
<g id="node3" class="node">
<title>Node3</title>
<g id="a_node3"><a xlink:href="classDifferentiation_1_1AD_1_1HelperBase.html" target="_top" xlink:title=" ">
<polygon fill="white" stroke="black" points="296,-33 296,-74 448,-74 448,-33 296,-33"/>
<text text-anchor="start" x="304" y="-62" font-family="Helvetica,sans-Serif" font-size="10.00">Differentiation::AD</text>
<text text-anchor="start" x="304" y="-51" font-family="Helvetica,sans-Serif" font-size="10.00">::HelperBase&lt; ADNumberType</text>
<text text-anchor="middle" x="372" y="-40" font-family="Helvetica,sans-Serif" font-size="10.00">Code, double &gt;</text>
</a>
</g>
</g>
<!-- Node3&#45;&gt;Node2 -->
<g id="edge2" class="edge">
<title>Node3&#45;&gt;Node2</title>
<path fill="none" stroke="midnightblue" d="M458.4,-59.9C467.38,-60.49 476.37,-61.03 485,-61.5 614.17,-68.52 647.04,-77.64 776,-67.5 781.74,-67.05 787.67,-66.44 793.61,-65.72"/>
<polygon fill="midnightblue" stroke="midnightblue" points="458.49,-56.4 448.29,-59.23 458.03,-63.39 458.49,-56.4"/>
</g>
<!-- Node5 -->
<g id="node5" class="node">
<title>Node5</title>
<g id="a_node5"><a xlink:href="classDifferentiation_1_1AD_1_1PointLevelFunctionsBase.html" target="_top" xlink:title=" ">
<polygon fill="white" stroke="black" points="485,-0.5 485,-52.5 628,-52.5 628,-0.5 485,-0.5"/>
<text text-anchor="start" x="493" y="-40.5" font-family="Helvetica,sans-Serif" font-size="10.00">Differentiation::AD</text>
<text text-anchor="start" x="493" y="-29.5" font-family="Helvetica,sans-Serif" font-size="10.00">::PointLevelFunctionsBase</text>
<text text-anchor="start" x="493" y="-18.5" font-family="Helvetica,sans-Serif" font-size="10.00">&lt; dim, ADNumberTypeCode,</text>
<text text-anchor="middle" x="556.5" y="-7.5" font-family="Helvetica,sans-Serif" font-size="10.00"> ScalarType &gt;</text>
</a>
</g>
</g>
<!-- Node3&#45;&gt;Node5 -->
<g id="edge5" class="edge">
<title>Node3&#45;&gt;Node5</title>
<path fill="none" stroke="midnightblue" d="M458.09,-40.91C467.06,-39.58 476.1,-38.25 484.88,-36.95"/>
<polygon fill="midnightblue" stroke="midnightblue" points="457.4,-37.48 448.02,-42.4 458.42,-44.4 457.4,-37.48"/>
</g>
<!-- Node4 -->
<g id="node4" class="node">
<title>Node4</title>
<g id="a_node4"><a xlink:href="classDifferentiation_1_1AD_1_1HelperBase.html" target="_top" xlink:title=" ">
<polygon fill="white" stroke="black" points="0,-33 0,-74 152,-74 152,-33 0,-33"/>
<text text-anchor="start" x="8" y="-62" font-family="Helvetica,sans-Serif" font-size="10.00">Differentiation::AD</text>
<text text-anchor="start" x="8" y="-51" font-family="Helvetica,sans-Serif" font-size="10.00">::HelperBase&lt; ADNumberType</text>
<text text-anchor="middle" x="76" y="-40" font-family="Helvetica,sans-Serif" font-size="10.00">Code, ScalarType &gt;</text>
</a>
</g>
</g>
<!-- Node4&#45;&gt;Node3 -->
<g id="edge3" class="edge">
<title>Node4&#45;&gt;Node3</title>
<path fill="none" stroke="orange" stroke-dasharray="5,2" d="M162.59,-53.5C204.77,-53.5 255.19,-53.5 295.87,-53.5"/>
<polygon fill="orange" stroke="orange" points="162.33,-50 152.33,-53.5 162.33,-57 162.33,-50"/>
<text text-anchor="start" x="170" y="-67.5" font-family="Helvetica,sans-Serif" font-size="10.00"> &lt; ADNumberTypeCode,</text>
<text text-anchor="middle" x="224" y="-56.5" font-family="Helvetica,sans-Serif" font-size="10.00"> double &gt;</text>
</g>
<!-- Node5&#45;&gt;Node2 -->
<g id="edge4" class="edge">
<title>Node5&#45;&gt;Node2</title>
<path fill="none" stroke="orange" stroke-dasharray="5,2" d="M638.34,-33.46C679.55,-37.03 730.45,-41.46 776,-45.5 781.84,-46.02 787.9,-46.56 793.97,-47.1"/>
<polygon fill="orange" stroke="orange" points="638.62,-29.97 628.36,-32.6 638.02,-36.95 638.62,-29.97"/>
<text text-anchor="start" x="646" y="-59.5" font-family="Helvetica,sans-Serif" font-size="10.00"> &lt; dim, ADNumberTypeCode,</text>
<text text-anchor="middle" x="711" y="-48.5" font-family="Helvetica,sans-Serif" font-size="10.00"> double &gt;</text>
</g>
</g>
</svg>
