<?xml version="1.0" encoding="UTF-8" standalone="no"?>
<!DOCTYPE svg PUBLIC "-//W3C//DTD SVG 1.1//EN"
 "http://www.w3.org/Graphics/SVG/1.1/DTD/svg11.dtd">
<!-- Generated by graphviz version 2.47.1 (20210417.1919)
 -->
<!-- Title: MatrixTableIterators::Iterator&lt; TableType, Constness, storage_order &gt; Pages: 1 -->
<svg width="642pt" height="84pt"
 viewBox="0.00 0.00 642.00 84.00" xmlns="http://www.w3.org/2000/svg" xmlns:xlink="http://www.w3.org/1999/xlink">
<g id="graph0" class="graph" transform="scale(1 1) rotate(0) translate(4 80)">
<title>MatrixTableIterators::Iterator&lt; TableType, Constness, storage_order &gt;</title>
<polygon fill="white" stroke="transparent" points="-4,4 -4,-80 638,-80 638,4 -4,4"/>
<!-- Node1 -->
<g id="node1" class="node">
<title>Node1</title>
<g id="a_node1"><a xlink:title="Iterator class for both matrix&#45;like tables, i.e., Table&lt;2, T&gt; and TransposeTable.">
<polygon fill="#bfbfbf" stroke="black" points="493,-11.5 493,-52.5 634,-52.5 634,-11.5 493,-11.5"/>
<text text-anchor="start" x="501" y="-40.5" font-family="Helvetica,sans-Serif" font-size="10.00">MatrixTableIterators</text>
<text text-anchor="start" x="501" y="-29.5" font-family="Helvetica,sans-Serif" font-size="10.00">::Iterator&lt; TableType,</text>
<text text-anchor="middle" x="563.5" y="-18.5" font-family="Helvetica,sans-Serif" font-size="10.00"> Constness, storage_order &gt;</text>
</a>
</g>
</g>
<!-- Node2 -->
<g id="node2" class="node">
<title>Node2</title>
<g id="a_node2"><a xlink:href="classLinearIndexIterator.html" target="_top" xlink:title=" ">
<polygon fill="white" stroke="black" points="306,-0.5 306,-63.5 456,-63.5 456,-0.5 306,-0.5"/>
<text text-anchor="start" x="314" y="-51.5" font-family="Helvetica,sans-Serif" font-size="10.00">LinearIndexIterator</text>
<text text-anchor="start" x="314" y="-40.5" font-family="Helvetica,sans-Serif" font-size="10.00">&lt; Iterator&lt; TableType,</text>
<text text-anchor="start" x="314" y="-29.5" font-family="Helvetica,sans-Serif" font-size="10.00"> Constness, storage_order</text>
<text text-anchor="start" x="314" y="-18.5" font-family="Helvetica,sans-Serif" font-size="10.00"> &gt;, Accessor&lt; TableType,</text>
<text text-anchor="middle" x="381" y="-7.5" font-family="Helvetica,sans-Serif" font-size="10.00"> Constness, storage_order &gt; &gt;</text>
</a>
</g>
</g>
<!-- Node2&#45;&gt;Node1 -->
<g id="edge1" class="edge">
<title>Node2&#45;&gt;Node1</title>
<path fill="none" stroke="midnightblue" d="M466.24,-32C475.18,-32 484.2,-32 492.94,-32"/>
<polygon fill="midnightblue" stroke="midnightblue" points="466.2,-28.5 456.2,-32 466.2,-35.5 466.2,-28.5"/>
</g>
<!-- Node3 -->
<g id="node3" class="node">
<title>Node3</title>
<g id="a_node3"><a xlink:href="classLinearIndexIterator.html" target="_top" xlink:title=" ">
<polygon fill="white" stroke="black" points="0,-11.5 0,-52.5 136,-52.5 136,-11.5 0,-11.5"/>
<text text-anchor="start" x="8" y="-40.5" font-family="Helvetica,sans-Serif" font-size="10.00">LinearIndexIterator</text>
<text text-anchor="start" x="8" y="-29.5" font-family="Helvetica,sans-Serif" font-size="10.00">&lt; DerivedIterator, Accessor</text>
<text text-anchor="middle" x="68" y="-18.5" font-family="Helvetica,sans-Serif" font-size="10.00">Type &gt;</text>
</a>
</g>
</g>
<!-- Node3&#45;&gt;Node2 -->
<g id="edge2" class="edge">
<title>Node3&#45;&gt;Node2</title>
<path fill="none" stroke="orange" stroke-dasharray="5,2" d="M146.29,-32C195.09,-32 257.78,-32 305.95,-32"/>
<polygon fill="orange" stroke="orange" points="146.1,-28.5 136.1,-32 146.1,-35.5 146.1,-28.5"/>
<text text-anchor="start" x="154" y="-68" font-family="Helvetica,sans-Serif" font-size="10.00"> &lt; Iterator&lt; TableType,</text>
<text text-anchor="start" x="154" y="-57" font-family="Helvetica,sans-Serif" font-size="10.00"> Constness, storage_order</text>
<text text-anchor="start" x="154" y="-46" font-family="Helvetica,sans-Serif" font-size="10.00"> &gt;, Accessor&lt; TableType,</text>
<text text-anchor="middle" x="221" y="-35" font-family="Helvetica,sans-Serif" font-size="10.00"> Constness, storage_order &gt; &gt;</text>
</g>
</g>
</svg>
