<?xml version="1.0" encoding="UTF-8" standalone="no"?>
<!DOCTYPE svg PUBLIC "-//W3C//DTD SVG 1.1//EN"
 "http://www.w3.org/Graphics/SVG/1.1/DTD/svg11.dtd">
<!-- Generated by graphviz version 2.47.1 (20210417.1919)
 -->
<!-- Title: SolverFGMRES&lt; VectorType &gt; Pages: 1 -->
<svg width="232pt" height="298pt"
 viewBox="0.00 0.00 231.50 298.00" xmlns="http://www.w3.org/2000/svg" xmlns:xlink="http://www.w3.org/1999/xlink">
<g id="graph0" class="graph" transform="scale(1 1) rotate(0) translate(4 294)">
<title>SolverFGMRES&lt; VectorType &gt;</title>
<polygon fill="white" stroke="transparent" points="-4,4 -4,-294 227.5,-294 227.5,4 -4,4"/>
<!-- Node1 -->
<g id="node1" class="node">
<title>Node1</title>
<g id="a_node1"><a xlink:title=" ">
<polygon fill="#bfbfbf" stroke="black" points="0,-78.5 0,-97.5 155,-97.5 155,-78.5 0,-78.5"/>
<text text-anchor="middle" x="77.5" y="-85.5" font-family="Helvetica,sans-Serif" font-size="10.00">SolverFGMRES&lt; VectorType &gt;</text>
</a>
</g>
</g>
<!-- Node5 -->
<g id="node5" class="node">
<title>Node5</title>
<g id="a_node5"><a xlink:href="classSolverFGMRES.html" target="_top" xlink:title=" ">
<polygon fill="white" stroke="black" points="15,-0.5 15,-30.5 140,-30.5 140,-0.5 15,-0.5"/>
<text text-anchor="start" x="23" y="-18.5" font-family="Helvetica,sans-Serif" font-size="10.00">SolverFGMRES&lt; Vector</text>
<text text-anchor="middle" x="77.5" y="-7.5" font-family="Helvetica,sans-Serif" font-size="10.00">&lt; double &gt; &gt;</text>
</a>
</g>
</g>
<!-- Node1&#45;&gt;Node5 -->
<g id="edge5" class="edge">
<title>Node1&#45;&gt;Node5</title>
<path fill="none" stroke="orange" stroke-dasharray="5,2" d="M77.5,-68.24C77.5,-56.41 77.5,-41.38 77.5,-30.58"/>
<polygon fill="orange" stroke="orange" points="74,-68.36 77.5,-78.36 81,-68.36 74,-68.36"/>
<text text-anchor="middle" x="126" y="-52" font-family="Helvetica,sans-Serif" font-size="10.00"> &lt; Vector&lt; double &gt; &gt;</text>
</g>
<!-- Node2 -->
<g id="node2" class="node">
<title>Node2</title>
<g id="a_node2"><a xlink:href="classSolverBase.html" target="_top" xlink:title=" ">
<polygon fill="white" stroke="black" points="25.5,-135.5 25.5,-165.5 129.5,-165.5 129.5,-135.5 25.5,-135.5"/>
<text text-anchor="start" x="33.5" y="-153.5" font-family="Helvetica,sans-Serif" font-size="10.00">SolverBase&lt; Vector</text>
<text text-anchor="middle" x="77.5" y="-142.5" font-family="Helvetica,sans-Serif" font-size="10.00">&lt; double &gt; &gt;</text>
</a>
</g>
</g>
<!-- Node2&#45;&gt;Node1 -->
<g id="edge1" class="edge">
<title>Node2&#45;&gt;Node1</title>
<path fill="none" stroke="midnightblue" d="M77.5,-125.35C77.5,-115.51 77.5,-104.78 77.5,-97.54"/>
<polygon fill="midnightblue" stroke="midnightblue" points="74,-125.47 77.5,-135.47 81,-125.47 74,-125.47"/>
</g>
<!-- Node3 -->
<g id="node3" class="node">
<title>Node3</title>
<g id="a_node3"><a xlink:href="classSubscriptor.html" target="_top" xlink:title=" ">
<polygon fill="white" stroke="black" points="40.5,-270.5 40.5,-289.5 106.5,-289.5 106.5,-270.5 40.5,-270.5"/>
<text text-anchor="middle" x="73.5" y="-277.5" font-family="Helvetica,sans-Serif" font-size="10.00">Subscriptor</text>
</a>
</g>
</g>
<!-- Node3&#45;&gt;Node2 -->
<g id="edge2" class="edge">
<title>Node3&#45;&gt;Node2</title>
<path fill="none" stroke="midnightblue" d="M74.1,-259.9C74.91,-234.05 76.34,-188.54 77.06,-165.59"/>
<polygon fill="midnightblue" stroke="midnightblue" points="70.59,-260.13 73.77,-270.24 77.59,-260.35 70.59,-260.13"/>
</g>
<!-- Node4 -->
<g id="node4" class="node">
<title>Node4</title>
<g id="a_node4"><a xlink:href="classSolverBase.html" target="_top" xlink:title=" ">
<polygon fill="white" stroke="black" points="89.5,-213.5 89.5,-232.5 223.5,-232.5 223.5,-213.5 89.5,-213.5"/>
<text text-anchor="middle" x="156.5" y="-220.5" font-family="Helvetica,sans-Serif" font-size="10.00">SolverBase&lt; VectorType &gt;</text>
</a>
</g>
</g>
<!-- Node3&#45;&gt;Node4 -->
<g id="edge4" class="edge">
<title>Node3&#45;&gt;Node4</title>
<path fill="none" stroke="midnightblue" d="M94.89,-264.82C110.31,-254.61 130.62,-241.15 143.62,-232.53"/>
<polygon fill="midnightblue" stroke="midnightblue" points="92.87,-261.96 86.47,-270.41 96.74,-267.8 92.87,-261.96"/>
</g>
<!-- Node4&#45;&gt;Node2 -->
<g id="edge3" class="edge">
<title>Node4&#45;&gt;Node2</title>
<path fill="none" stroke="orange" stroke-dasharray="5,2" d="M139.06,-206.44C125.38,-194.23 106.51,-177.39 93.27,-165.58"/>
<polygon fill="orange" stroke="orange" points="137.02,-209.31 146.81,-213.36 141.68,-204.09 137.02,-209.31"/>
<text text-anchor="middle" x="172" y="-187" font-family="Helvetica,sans-Serif" font-size="10.00"> &lt; Vector&lt; double &gt; &gt;</text>
</g>
</g>
</svg>
