<?xml version="1.0" encoding="UTF-8" standalone="no"?>
<!DOCTYPE svg PUBLIC "-//W3C//DTD SVG 1.1//EN"
 "http://www.w3.org/Graphics/SVG/1.1/DTD/svg11.dtd">
<!-- Generated by graphviz version 2.47.1 (20210417.1919)
 -->
<!-- Title: MappingQ1&lt; dim, spacedim &gt; Pages: 1 -->
<svg width="259pt" height="355pt"
 viewBox="0.00 0.00 258.93 355.00" xmlns="http://www.w3.org/2000/svg" xmlns:xlink="http://www.w3.org/1999/xlink">
<g id="graph0" class="graph" transform="scale(1 1) rotate(0) translate(4 351)">
<title>MappingQ1&lt; dim, spacedim &gt;</title>
<polygon fill="white" stroke="transparent" points="-4,4 -4,-351 254.93,-351 254.93,4 -4,4"/>
<!-- Node1 -->
<g id="node1" class="node">
<title>Node1</title>
<g id="a_node1"><a xlink:title=" ">
<polygon fill="#bfbfbf" stroke="black" points="9.5,-0.5 9.5,-19.5 157.5,-19.5 157.5,-0.5 9.5,-0.5"/>
<text text-anchor="middle" x="83.5" y="-7.5" font-family="Helvetica,sans-Serif" font-size="10.00">MappingQ1&lt; dim, spacedim &gt;</text>
</a>
</g>
</g>
<!-- Node2 -->
<g id="node2" class="node">
<title>Node2</title>
<g id="a_node2"><a xlink:href="classMappingQGeneric.html" target="_top" xlink:title=" ">
<polygon fill="white" stroke="black" points="22.5,-57.5 22.5,-87.5 144.5,-87.5 144.5,-57.5 22.5,-57.5"/>
<text text-anchor="start" x="30.5" y="-75.5" font-family="Helvetica,sans-Serif" font-size="10.00">MappingQGeneric&lt; dim,</text>
<text text-anchor="middle" x="83.5" y="-64.5" font-family="Helvetica,sans-Serif" font-size="10.00"> dim &gt;</text>
</a>
</g>
</g>
<!-- Node2&#45;&gt;Node1 -->
<g id="edge1" class="edge">
<title>Node2&#45;&gt;Node1</title>
<path fill="none" stroke="midnightblue" d="M83.5,-47.35C83.5,-37.51 83.5,-26.78 83.5,-19.54"/>
<polygon fill="midnightblue" stroke="midnightblue" points="80,-47.47 83.5,-57.47 87,-47.47 80,-47.47"/>
</g>
<!-- Node3 -->
<g id="node3" class="node">
<title>Node3</title>
<g id="a_node3"><a xlink:href="classMapping.html" target="_top" xlink:title=" ">
<polygon fill="white" stroke="black" points="0,-270.5 0,-289.5 135,-289.5 135,-270.5 0,-270.5"/>
<text text-anchor="middle" x="67.5" y="-277.5" font-family="Helvetica,sans-Serif" font-size="10.00">Mapping&lt; dim, spacedim &gt;</text>
</a>
</g>
</g>
<!-- Node3&#45;&gt;Node2 -->
<g id="edge2" class="edge">
<title>Node3&#45;&gt;Node2</title>
<path fill="none" stroke="midnightblue" d="M68.95,-260.32C72.12,-219.69 79.57,-124.02 82.39,-87.77"/>
<polygon fill="midnightblue" stroke="midnightblue" points="65.45,-260.19 68.17,-270.43 72.43,-260.73 65.45,-260.19"/>
</g>
<!-- Node3&#45;&gt;Node3 -->
<g id="edge4" class="edge">
<title>Node3&#45;&gt;Node3</title>
<path fill="none" stroke="orange" stroke-dasharray="5,2" d="M145.5,-283.63C150.19,-282.76 153,-281.56 153,-280 153,-277.51 145.8,-275.91 135.23,-275.19"/>
<polygon fill="orange" stroke="orange" points="144.77,-280.19 135.23,-284.81 145.57,-287.14 144.77,-280.19"/>
<text text-anchor="middle" x="195.5" y="-277.5" font-family="Helvetica,sans-Serif" font-size="10.00"> &lt; dim, spacedim &gt;</text>
</g>
<!-- Node6 -->
<g id="node6" class="node">
<title>Node6</title>
<g id="a_node6"><a xlink:href="classMapping.html" target="_top" xlink:title=" ">
<polygon fill="white" stroke="black" points="102,-203.5 102,-222.5 211,-222.5 211,-203.5 102,-203.5"/>
<text text-anchor="middle" x="156.5" y="-210.5" font-family="Helvetica,sans-Serif" font-size="10.00">Mapping&lt; dim, dim &gt;</text>
</a>
</g>
</g>
<!-- Node3&#45;&gt;Node6 -->
<g id="edge8" class="edge">
<title>Node3&#45;&gt;Node6</title>
<path fill="none" stroke="orange" stroke-dasharray="5,2" d="M87.95,-264.07C105.51,-251.24 130.23,-233.19 144.69,-222.63"/>
<polygon fill="orange" stroke="orange" points="85.51,-261.51 79.5,-270.23 89.64,-267.16 85.51,-261.51"/>
<text text-anchor="middle" x="146" y="-244" font-family="Helvetica,sans-Serif" font-size="10.00"> &lt; dim, dim &gt;</text>
</g>
<!-- Node4 -->
<g id="node4" class="node">
<title>Node4</title>
<g id="a_node4"><a xlink:href="classSubscriptor.html" target="_top" xlink:title=" ">
<polygon fill="white" stroke="black" points="133.5,-327.5 133.5,-346.5 199.5,-346.5 199.5,-327.5 133.5,-327.5"/>
<text text-anchor="middle" x="166.5" y="-334.5" font-family="Helvetica,sans-Serif" font-size="10.00">Subscriptor</text>
</a>
</g>
</g>
<!-- Node4&#45;&gt;Node3 -->
<g id="edge3" class="edge">
<title>Node4&#45;&gt;Node3</title>
<path fill="none" stroke="midnightblue" d="M142.26,-322.54C123.73,-312.24 98.73,-298.35 82.86,-289.53"/>
<polygon fill="midnightblue" stroke="midnightblue" points="140.59,-325.61 151.03,-327.41 143.99,-319.49 140.59,-325.61"/>
</g>
<!-- Node4&#45;&gt;Node6 -->
<g id="edge7" class="edge">
<title>Node4&#45;&gt;Node6</title>
<path fill="none" stroke="midnightblue" d="M203.09,-323.81C230.39,-312.51 260.84,-293.87 247.5,-270 234.02,-245.87 205.4,-230.86 183.84,-222.53"/>
<polygon fill="midnightblue" stroke="midnightblue" points="201.69,-320.6 193.65,-327.49 204.23,-327.12 201.69,-320.6"/>
</g>
<!-- Node5 -->
<g id="node5" class="node">
<title>Node5</title>
<g id="a_node5"><a xlink:href="classMappingQGeneric.html" target="_top" xlink:title=" ">
<polygon fill="white" stroke="black" points="95.5,-135.5 95.5,-165.5 217.5,-165.5 217.5,-135.5 95.5,-135.5"/>
<text text-anchor="start" x="103.5" y="-153.5" font-family="Helvetica,sans-Serif" font-size="10.00">MappingQGeneric&lt; dim,</text>
<text text-anchor="middle" x="156.5" y="-142.5" font-family="Helvetica,sans-Serif" font-size="10.00"> spacedim &gt;</text>
</a>
</g>
</g>
<!-- Node5&#45;&gt;Node2 -->
<g id="edge5" class="edge">
<title>Node5&#45;&gt;Node2</title>
<path fill="none" stroke="orange" stroke-dasharray="5,2" d="M135.53,-127.67C123.2,-114.83 107.96,-98.97 97.17,-87.73"/>
<polygon fill="orange" stroke="orange" points="133.32,-130.42 142.77,-135.2 138.37,-125.57 133.32,-130.42"/>
<text text-anchor="middle" x="153" y="-109" font-family="Helvetica,sans-Serif" font-size="10.00"> &lt; dim, dim &gt;</text>
</g>
<!-- Node6&#45;&gt;Node5 -->
<g id="edge6" class="edge">
<title>Node6&#45;&gt;Node5</title>
<path fill="none" stroke="midnightblue" d="M156.5,-193.22C156.5,-184.36 156.5,-173.96 156.5,-165.76"/>
<polygon fill="midnightblue" stroke="midnightblue" points="153,-193.33 156.5,-203.33 160,-193.33 153,-193.33"/>
</g>
</g>
</svg>
