<?xml version="1.0" encoding="UTF-8" standalone="no"?>
<!DOCTYPE svg PUBLIC "-//W3C//DTD SVG 1.1//EN"
 "http://www.w3.org/Graphics/SVG/1.1/DTD/svg11.dtd">
<!-- Generated by graphviz version 2.47.1 (20210417.1919)
 -->
<!-- Title: internal::FEValuesImplementation::MappingRelatedData&lt; dim, spacedim &gt; Pages: 1 -->
<svg width="377pt" height="50pt"
 viewBox="0.00 0.00 377.00 50.00" xmlns="http://www.w3.org/2000/svg" xmlns:xlink="http://www.w3.org/1999/xlink">
<g id="graph0" class="graph" transform="scale(1 1) rotate(0) translate(4 46)">
<title>internal::FEValuesImplementation::MappingRelatedData&lt; dim, spacedim &gt;</title>
<polygon fill="white" stroke="transparent" points="-4,4 -4,-46 373,-46 373,4 -4,4"/>
<!-- Node1 -->
<g id="node1" class="node">
<title>Node1</title>
<g id="a_node1"><a xlink:title=" ">
<polygon fill="#bfbfbf" stroke="black" points="0,-0.5 0,-41.5 163,-41.5 163,-0.5 0,-0.5"/>
<text text-anchor="start" x="8" y="-29.5" font-family="Helvetica,sans-Serif" font-size="10.00">internal::FEValuesImplementation</text>
<text text-anchor="start" x="8" y="-18.5" font-family="Helvetica,sans-Serif" font-size="10.00">::MappingRelatedData&lt; dim,</text>
<text text-anchor="middle" x="81.5" y="-7.5" font-family="Helvetica,sans-Serif" font-size="10.00"> spacedim &gt;</text>
</a>
</g>
</g>
<!-- Node1&#45;&gt;Node1 -->
<g id="edge1" class="edge">
<title>Node1&#45;&gt;Node1</title>
<path fill="none" stroke="orange" stroke-dasharray="5,2" d="M173.13,-23.61C178.07,-22.98 181,-22.1 181,-21 181,-19.28 173.86,-18.12 163.09,-17.53"/>
<polygon fill="orange" stroke="orange" points="172.76,-20.13 163.09,-24.47 173.35,-27.11 172.76,-20.13"/>
<text text-anchor="middle" x="223.5" y="-18.5" font-family="Helvetica,sans-Serif" font-size="10.00"> &lt; dim, spacedim &gt;</text>
</g>
<!-- Node1&#45;&gt;Node1 -->
<g id="edge2" class="edge">
<title>Node1&#45;&gt;Node1</title>
<path fill="none" stroke="orange" stroke-dasharray="5,2" d="M173.49,-28.76C220.46,-29.47 266,-26.88 266,-21 266,-14.7 213.75,-12.18 163.46,-13.44"/>
<polygon fill="orange" stroke="orange" points="173.53,-25.26 163.46,-28.56 173.39,-32.26 173.53,-25.26"/>
<text text-anchor="middle" x="308.5" y="-18.5" font-family="Helvetica,sans-Serif" font-size="10.00"> &lt; dim, spacedim &gt;</text>
</g>
</g>
</svg>
