<?xml version="1.0" encoding="UTF-8" standalone="no"?>
<!DOCTYPE svg PUBLIC "-//W3C//DTD SVG 1.1//EN"
 "http://www.w3.org/Graphics/SVG/1.1/DTD/svg11.dtd">
<!-- Generated by graphviz version 2.47.1 (20210417.1919)
 -->
<!-- Title: MGMatrixSelect&lt; MatrixType, number &gt; Pages: 1 -->
<svg width="243pt" height="231pt"
 viewBox="0.00 0.00 243.00 231.00" xmlns="http://www.w3.org/2000/svg" xmlns:xlink="http://www.w3.org/1999/xlink">
<g id="graph0" class="graph" transform="scale(1 1) rotate(0) translate(4 227)">
<title>MGMatrixSelect&lt; MatrixType, number &gt;</title>
<polygon fill="white" stroke="transparent" points="-4,4 -4,-227 239,-227 239,4 -4,4"/>
<!-- Node1 -->
<g id="node1" class="node">
<title>Node1</title>
<g id="a_node1"><a xlink:title=" ">
<polygon fill="#bfbfbf" stroke="black" points="0,-0.5 0,-30.5 147,-30.5 147,-0.5 0,-0.5"/>
<text text-anchor="start" x="8" y="-18.5" font-family="Helvetica,sans-Serif" font-size="10.00">MGMatrixSelect&lt; MatrixType,</text>
<text text-anchor="middle" x="73.5" y="-7.5" font-family="Helvetica,sans-Serif" font-size="10.00"> number &gt;</text>
</a>
</g>
</g>
<!-- Node2 -->
<g id="node2" class="node">
<title>Node2</title>
<g id="a_node2"><a xlink:href="classMGMatrixBase.html" target="_top" xlink:title=" ">
<polygon fill="white" stroke="black" points="14,-68.5 14,-98.5 133,-98.5 133,-68.5 14,-68.5"/>
<text text-anchor="start" x="22" y="-86.5" font-family="Helvetica,sans-Serif" font-size="10.00">MGMatrixBase&lt; Vector</text>
<text text-anchor="middle" x="73.5" y="-75.5" font-family="Helvetica,sans-Serif" font-size="10.00">&lt; number &gt; &gt;</text>
</a>
</g>
</g>
<!-- Node2&#45;&gt;Node1 -->
<g id="edge1" class="edge">
<title>Node2&#45;&gt;Node1</title>
<path fill="none" stroke="midnightblue" d="M73.5,-58.03C73.5,-48.86 73.5,-38.74 73.5,-30.79"/>
<polygon fill="midnightblue" stroke="midnightblue" points="70,-58.18 73.5,-68.18 77,-58.18 70,-58.18"/>
</g>
<!-- Node3 -->
<g id="node3" class="node">
<title>Node3</title>
<g id="a_node3"><a xlink:href="classSubscriptor.html" target="_top" xlink:title=" ">
<polygon fill="white" stroke="black" points="36.5,-203.5 36.5,-222.5 102.5,-222.5 102.5,-203.5 36.5,-203.5"/>
<text text-anchor="middle" x="69.5" y="-210.5" font-family="Helvetica,sans-Serif" font-size="10.00">Subscriptor</text>
</a>
</g>
</g>
<!-- Node3&#45;&gt;Node2 -->
<g id="edge2" class="edge">
<title>Node3&#45;&gt;Node2</title>
<path fill="none" stroke="midnightblue" d="M70.1,-192.9C70.91,-167.05 72.34,-121.54 73.06,-98.59"/>
<polygon fill="midnightblue" stroke="midnightblue" points="66.59,-193.13 69.77,-203.24 73.59,-193.35 66.59,-193.13"/>
</g>
<!-- Node4 -->
<g id="node4" class="node">
<title>Node4</title>
<g id="a_node4"><a xlink:href="classMGMatrixBase.html" target="_top" xlink:title=" ">
<polygon fill="white" stroke="black" points="86,-146.5 86,-165.5 235,-165.5 235,-146.5 86,-146.5"/>
<text text-anchor="middle" x="160.5" y="-153.5" font-family="Helvetica,sans-Serif" font-size="10.00">MGMatrixBase&lt; VectorType &gt;</text>
</a>
</g>
</g>
<!-- Node3&#45;&gt;Node4 -->
<g id="edge4" class="edge">
<title>Node3&#45;&gt;Node4</title>
<path fill="none" stroke="midnightblue" d="M92.48,-198.11C109.45,-187.86 131.99,-174.23 146.38,-165.53"/>
<polygon fill="midnightblue" stroke="midnightblue" points="90.47,-195.24 83.72,-203.41 94.09,-201.23 90.47,-195.24"/>
</g>
<!-- Node4&#45;&gt;Node2 -->
<g id="edge3" class="edge">
<title>Node4&#45;&gt;Node2</title>
<path fill="none" stroke="orange" stroke-dasharray="5,2" d="M141.72,-139.78C126.63,-127.55 105.58,-110.5 90.87,-98.58"/>
<polygon fill="orange" stroke="orange" points="139.86,-142.78 149.83,-146.36 144.27,-137.34 139.86,-142.78"/>
<text text-anchor="middle" x="174.5" y="-120" font-family="Helvetica,sans-Serif" font-size="10.00"> &lt; Vector&lt; number &gt; &gt;</text>
</g>
</g>
</svg>
