<?xml version="1.0" encoding="UTF-8" standalone="no"?>
<!DOCTYPE svg PUBLIC "-//W3C//DTD SVG 1.1//EN"
 "http://www.w3.org/Graphics/SVG/1.1/DTD/svg11.dtd">
<!-- Generated by graphviz version 2.47.1 (20210417.1919)
 -->
<!-- Title: TrilinosWrappers::SparseMatrixIterators::AccessorBase Pages: 1 -->
<svg width="553pt" height="195pt"
 viewBox="0.00 0.00 553.00 195.00" xmlns="http://www.w3.org/2000/svg" xmlns:xlink="http://www.w3.org/1999/xlink">
<g id="graph0" class="graph" transform="scale(1 1) rotate(0) translate(4 191)">
<title>TrilinosWrappers::SparseMatrixIterators::AccessorBase</title>
<polygon fill="white" stroke="transparent" points="-4,4 -4,-191 549,-191 549,4 -4,4"/>
<!-- Node1 -->
<g id="node1" class="node">
<title>Node1</title>
<g id="a_node1"><a xlink:title=" ">
<polygon fill="#bfbfbf" stroke="black" points="0,-96 0,-126 149,-126 149,-96 0,-96"/>
<text text-anchor="start" x="8" y="-114" font-family="Helvetica,sans-Serif" font-size="10.00">TrilinosWrappers::Sparse</text>
<text text-anchor="middle" x="74.5" y="-103" font-family="Helvetica,sans-Serif" font-size="10.00">MatrixIterators::AccessorBase</text>
</a>
</g>
</g>
<!-- Node2 -->
<g id="node2" class="node">
<title>Node2</title>
<g id="a_node2"><a xlink:href="classTrilinosWrappers_1_1SparseMatrixIterators_1_1Accessor.html" target="_top" xlink:title=" ">
<polygon fill="white" stroke="black" points="418,-145.5 418,-186.5 545,-186.5 545,-145.5 418,-145.5"/>
<text text-anchor="start" x="426" y="-174.5" font-family="Helvetica,sans-Serif" font-size="10.00">TrilinosWrappers::Sparse</text>
<text text-anchor="start" x="426" y="-163.5" font-family="Helvetica,sans-Serif" font-size="10.00">MatrixIterators::Accessor</text>
<text text-anchor="middle" x="481.5" y="-152.5" font-family="Helvetica,sans-Serif" font-size="10.00">&lt; Constness &gt;</text>
</a>
</g>
</g>
<!-- Node1&#45;&gt;Node2 -->
<g id="edge1" class="edge">
<title>Node1&#45;&gt;Node2</title>
<path fill="none" stroke="midnightblue" d="M104.09,-131.65C125.48,-145.77 156.09,-163.29 186,-171 263.99,-191.09 357.49,-184.57 417.89,-176.58"/>
<polygon fill="midnightblue" stroke="midnightblue" points="106.04,-128.74 95.8,-126.03 102.12,-134.54 106.04,-128.74"/>
</g>
<!-- Node3 -->
<g id="node3" class="node">
<title>Node3</title>
<g id="a_node3"><a xlink:href="classTrilinosWrappers_1_1SparseMatrixIterators_1_1Accessor.html" target="_top" xlink:title=" ">
<polygon fill="white" stroke="black" points="186,-120.5 186,-161.5 313,-161.5 313,-120.5 186,-120.5"/>
<text text-anchor="start" x="194" y="-149.5" font-family="Helvetica,sans-Serif" font-size="10.00">TrilinosWrappers::Sparse</text>
<text text-anchor="start" x="194" y="-138.5" font-family="Helvetica,sans-Serif" font-size="10.00">MatrixIterators::Accessor</text>
<text text-anchor="middle" x="249.5" y="-127.5" font-family="Helvetica,sans-Serif" font-size="10.00">&lt; Constess &gt;</text>
</a>
</g>
</g>
<!-- Node1&#45;&gt;Node3 -->
<g id="edge2" class="edge">
<title>Node1&#45;&gt;Node3</title>
<path fill="none" stroke="midnightblue" d="M159.21,-125.52C168.18,-127.07 177.19,-128.63 185.86,-130.14"/>
<polygon fill="midnightblue" stroke="midnightblue" points="159.57,-122.03 149.12,-123.77 158.37,-128.92 159.57,-122.03"/>
</g>
<!-- Node4 -->
<g id="node4" class="node">
<title>Node4</title>
<g id="a_node4"><a xlink:href="classTrilinosWrappers_1_1SparseMatrixIterators_1_1Accessor_3_01false_01_4.html" target="_top" xlink:title=" ">
<polygon fill="white" stroke="black" points="186,-60.5 186,-101.5 313,-101.5 313,-60.5 186,-60.5"/>
<text text-anchor="start" x="194" y="-89.5" font-family="Helvetica,sans-Serif" font-size="10.00">TrilinosWrappers::Sparse</text>
<text text-anchor="start" x="194" y="-78.5" font-family="Helvetica,sans-Serif" font-size="10.00">MatrixIterators::Accessor</text>
<text text-anchor="middle" x="249.5" y="-67.5" font-family="Helvetica,sans-Serif" font-size="10.00">&lt; false &gt;</text>
</a>
</g>
</g>
<!-- Node1&#45;&gt;Node4 -->
<g id="edge4" class="edge">
<title>Node1&#45;&gt;Node4</title>
<path fill="none" stroke="midnightblue" d="M159.21,-96.48C168.18,-94.93 177.19,-93.37 185.86,-91.86"/>
<polygon fill="midnightblue" stroke="midnightblue" points="158.37,-93.08 149.12,-98.23 159.57,-99.97 158.37,-93.08"/>
</g>
<!-- Node5 -->
<g id="node5" class="node">
<title>Node5</title>
<g id="a_node5"><a xlink:href="classTrilinosWrappers_1_1SparseMatrixIterators_1_1Accessor_3_01true_01_4.html" target="_top" xlink:title=" ">
<polygon fill="white" stroke="black" points="186,-0.5 186,-41.5 313,-41.5 313,-0.5 186,-0.5"/>
<text text-anchor="start" x="194" y="-29.5" font-family="Helvetica,sans-Serif" font-size="10.00">TrilinosWrappers::Sparse</text>
<text text-anchor="start" x="194" y="-18.5" font-family="Helvetica,sans-Serif" font-size="10.00">MatrixIterators::Accessor</text>
<text text-anchor="middle" x="249.5" y="-7.5" font-family="Helvetica,sans-Serif" font-size="10.00">&lt; true &gt;</text>
</a>
</g>
</g>
<!-- Node1&#45;&gt;Node5 -->
<g id="edge5" class="edge">
<title>Node1&#45;&gt;Node5</title>
<path fill="none" stroke="midnightblue" d="M111.34,-90.95C132.85,-79.07 160.83,-63.87 186,-51 192.11,-47.88 198.6,-44.66 204.99,-41.54"/>
<polygon fill="midnightblue" stroke="midnightblue" points="109.6,-87.92 102.55,-95.82 112.99,-94.04 109.6,-87.92"/>
</g>
<!-- Node3&#45;&gt;Node2 -->
<g id="edge3" class="edge">
<title>Node3&#45;&gt;Node2</title>
<path fill="none" stroke="orange" stroke-dasharray="5,2" d="M323.18,-148.9C353.63,-152.21 388.69,-156.02 417.97,-159.2"/>
<polygon fill="orange" stroke="orange" points="323.36,-145.4 313.04,-147.8 322.61,-152.36 323.36,-145.4"/>
<text text-anchor="middle" x="365.5" y="-160" font-family="Helvetica,sans-Serif" font-size="10.00"> &lt; Constness &gt;</text>
</g>
</g>
</svg>
