<?xml version="1.0" encoding="UTF-8" standalone="no"?>
<!DOCTYPE svg PUBLIC "-//W3C//DTD SVG 1.1//EN"
 "http://www.w3.org/Graphics/SVG/1.1/DTD/svg11.dtd">
<!-- Generated by graphviz version 2.47.1 (20210417.1919)
 -->
<!-- Title: Threads::ThreadLocalStorage&lt; T &gt; Pages: 1 -->
<svg width="522pt" height="641pt"
 viewBox="0.00 0.00 522.00 641.00" xmlns="http://www.w3.org/2000/svg" xmlns:xlink="http://www.w3.org/1999/xlink">
<g id="graph0" class="graph" transform="scale(1 1) rotate(0) translate(4 637)">
<title>Threads::ThreadLocalStorage&lt; T &gt;</title>
<polygon fill="white" stroke="transparent" points="-4,4 -4,-637 518,-637 518,4 -4,4"/>
<!-- Node1 -->
<g id="node1" class="node">
<title>Node1</title>
<g id="a_node1"><a xlink:title="A class that provides a separate storage location on each thread that accesses the object.">
<polygon fill="#bfbfbf" stroke="black" points="0,-307.5 0,-326.5 169,-326.5 169,-307.5 0,-307.5"/>
<text text-anchor="middle" x="84.5" y="-314.5" font-family="Helvetica,sans-Serif" font-size="10.00">Threads::ThreadLocalStorage&lt; T &gt;</text>
</a>
</g>
</g>
<!-- Node2 -->
<g id="node2" class="node">
<title>Node2</title>
<g id="a_node2"><a xlink:href="classThreads_1_1ThreadLocalStorage.html" target="_top" xlink:title=" ">
<polygon fill="white" stroke="black" points="355,-596 355,-626 500,-626 500,-596 355,-596"/>
<text text-anchor="start" x="363" y="-614" font-family="Helvetica,sans-Serif" font-size="10.00">Threads::ThreadLocalStorage</text>
<text text-anchor="middle" x="427.5" y="-603" font-family="Helvetica,sans-Serif" font-size="10.00">&lt; ScratchDataList &gt;</text>
</a>
</g>
</g>
<!-- Node1&#45;&gt;Node2 -->
<g id="edge1" class="edge">
<title>Node1&#45;&gt;Node2</title>
<path fill="none" stroke="orange" stroke-dasharray="5,2" d="M86.35,-336.87C89.69,-387.63 106.13,-522.44 187,-585 234.14,-621.47 303.01,-625.39 354.81,-621.7"/>
<polygon fill="orange" stroke="orange" points="89.83,-336.41 85.78,-326.62 82.84,-336.79 89.83,-336.41"/>
<text text-anchor="middle" x="255" y="-625" font-family="Helvetica,sans-Serif" font-size="10.00"> &lt; ScratchDataList &gt;</text>
</g>
<!-- Node3 -->
<g id="node3" class="node">
<title>Node3</title>
<g id="a_node3"><a xlink:href="classThreads_1_1ThreadLocalStorage.html" target="_top" xlink:title=" ">
<polygon fill="white" stroke="black" points="348,-522 348,-574 507,-574 507,-522 348,-522"/>
<text text-anchor="start" x="356" y="-562" font-family="Helvetica,sans-Serif" font-size="10.00">Threads::ThreadLocalStorage</text>
<text text-anchor="start" x="356" y="-551" font-family="Helvetica,sans-Serif" font-size="10.00">&lt; std::list&lt; std::pair&lt;</text>
<text text-anchor="start" x="356" y="-540" font-family="Helvetica,sans-Serif" font-size="10.00"> bool, AlignedVector&lt; Vectorized</text>
<text text-anchor="middle" x="427.5" y="-529" font-family="Helvetica,sans-Serif" font-size="10.00">Array&lt; double &gt; &gt; &gt; &gt; &gt;</text>
</a>
</g>
</g>
<!-- Node1&#45;&gt;Node3 -->
<g id="edge2" class="edge">
<title>Node1&#45;&gt;Node3</title>
<path fill="none" stroke="orange" stroke-dasharray="5,2" d="M90.03,-336.6C100.13,-375.53 128.36,-462.54 187,-505 212.28,-523.3 288.15,-534.8 347.8,-541.25"/>
<polygon fill="orange" stroke="orange" points="93.4,-335.63 87.61,-326.76 86.6,-337.31 93.4,-335.63"/>
<text text-anchor="start" x="196.5" y="-573" font-family="Helvetica,sans-Serif" font-size="10.00"> &lt; std::list&lt; std::pair</text>
<text text-anchor="start" x="196.5" y="-562" font-family="Helvetica,sans-Serif" font-size="10.00">&lt; bool, AlignedVector</text>
<text text-anchor="start" x="196.5" y="-551" font-family="Helvetica,sans-Serif" font-size="10.00">&lt; VectorizedArray&lt; double</text>
<text text-anchor="middle" x="255" y="-540" font-family="Helvetica,sans-Serif" font-size="10.00"> &gt; &gt; &gt; &gt; &gt;</text>
</g>
<!-- Node4 -->
<g id="node4" class="node">
<title>Node4</title>
<g id="a_node4"><a xlink:href="classThreads_1_1ThreadLocalStorage.html" target="_top" xlink:title=" ">
<polygon fill="white" stroke="black" points="355,-461.5 355,-502.5 500,-502.5 500,-461.5 355,-461.5"/>
<text text-anchor="start" x="363" y="-490.5" font-family="Helvetica,sans-Serif" font-size="10.00">Threads::ThreadLocalStorage</text>
<text text-anchor="start" x="363" y="-479.5" font-family="Helvetica,sans-Serif" font-size="10.00">&lt; std::vector&lt; std::unique</text>
<text text-anchor="middle" x="427.5" y="-468.5" font-family="Helvetica,sans-Serif" font-size="10.00">_ptr&lt; mu::Parser &gt; &gt; &gt;</text>
</a>
</g>
</g>
<!-- Node1&#45;&gt;Node4 -->
<g id="edge3" class="edge">
<title>Node1&#45;&gt;Node4</title>
<path fill="none" stroke="orange" stroke-dasharray="5,2" d="M95.2,-335.68C110.64,-363.35 143.53,-414.69 187,-440 237.98,-469.68 304.68,-479.47 354.73,-482.25"/>
<polygon fill="orange" stroke="orange" points="98.16,-333.78 90.32,-326.65 92,-337.11 98.16,-333.78"/>
<text text-anchor="start" x="187" y="-493" font-family="Helvetica,sans-Serif" font-size="10.00"> &lt; std::vector&lt; std</text>
<text text-anchor="middle" x="255" y="-482" font-family="Helvetica,sans-Serif" font-size="10.00">::unique_ptr&lt; mu::Parser &gt; &gt; &gt;</text>
</g>
<!-- Node5 -->
<g id="node5" class="node">
<title>Node5</title>
<g id="a_node5"><a xlink:href="classThreads_1_1ThreadLocalStorage.html" target="_top" xlink:title=" ">
<polygon fill="white" stroke="black" points="355,-412 355,-442 500,-442 500,-412 355,-412"/>
<text text-anchor="start" x="363" y="-430" font-family="Helvetica,sans-Serif" font-size="10.00">Threads::ThreadLocalStorage</text>
<text text-anchor="middle" x="427.5" y="-419" font-family="Helvetica,sans-Serif" font-size="10.00">&lt; std::stack&lt; std::string &gt; &gt;</text>
</a>
</g>
</g>
<!-- Node1&#45;&gt;Node5 -->
<g id="edge4" class="edge">
<title>Node1&#45;&gt;Node5</title>
<path fill="none" stroke="orange" stroke-dasharray="5,2" d="M105.72,-332.64C125.4,-347.1 156.7,-368.09 187,-380 241.22,-401.32 306.29,-413.3 354.91,-419.82"/>
<polygon fill="orange" stroke="orange" points="107.64,-329.71 97.54,-326.52 103.44,-335.31 107.64,-329.71"/>
<text text-anchor="start" x="212.5" y="-428" font-family="Helvetica,sans-Serif" font-size="10.00"> &lt; std::stack&lt; std::</text>
<text text-anchor="middle" x="255" y="-417" font-family="Helvetica,sans-Serif" font-size="10.00">string &gt; &gt;</text>
</g>
<!-- Node6 -->
<g id="node6" class="node">
<title>Node6</title>
<g id="a_node6"><a xlink:href="classThreads_1_1ThreadLocalStorage.html" target="_top" xlink:title=" ">
<polygon fill="white" stroke="black" points="355,-351.5 355,-392.5 500,-392.5 500,-351.5 355,-351.5"/>
<text text-anchor="start" x="363" y="-380.5" font-family="Helvetica,sans-Serif" font-size="10.00">Threads::ThreadLocalStorage</text>
<text text-anchor="start" x="363" y="-369.5" font-family="Helvetica,sans-Serif" font-size="10.00">&lt; typename DoFHandlerType</text>
<text text-anchor="middle" x="427.5" y="-358.5" font-family="Helvetica,sans-Serif" font-size="10.00">::active_cell_iterator &gt;</text>
</a>
</g>
</g>
<!-- Node1&#45;&gt;Node6 -->
<g id="edge5" class="edge">
<title>Node1&#45;&gt;Node6</title>
<path fill="none" stroke="orange" stroke-dasharray="5,2" d="M154.72,-328.17C212.99,-337.56 296,-350.95 354.92,-360.45"/>
<polygon fill="orange" stroke="orange" points="154.94,-324.65 144.51,-326.52 153.82,-331.57 154.94,-324.65"/>
<text text-anchor="start" x="189" y="-368" font-family="Helvetica,sans-Serif" font-size="10.00"> &lt; typename DoFHandlerType</text>
<text text-anchor="middle" x="255" y="-357" font-family="Helvetica,sans-Serif" font-size="10.00">::active_cell_iterator &gt;</text>
</g>
<!-- Node7 -->
<g id="node7" class="node">
<title>Node7</title>
<g id="a_node7"><a xlink:href="classThreads_1_1ThreadLocalStorage.html" target="_top" xlink:title=" ">
<polygon fill="white" stroke="black" points="355,-302 355,-332 500,-332 500,-302 355,-302"/>
<text text-anchor="start" x="363" y="-320" font-family="Helvetica,sans-Serif" font-size="10.00">Threads::ThreadLocalStorage</text>
<text text-anchor="middle" x="427.5" y="-309" font-family="Helvetica,sans-Serif" font-size="10.00">&lt; std::vector&lt; double &gt; &gt;</text>
</a>
</g>
</g>
<!-- Node1&#45;&gt;Node7 -->
<g id="edge6" class="edge">
<title>Node1&#45;&gt;Node7</title>
<path fill="none" stroke="orange" stroke-dasharray="5,2" d="M179.53,-317C234.9,-317 303.84,-317 354.8,-317"/>
<polygon fill="orange" stroke="orange" points="179.35,-313.5 169.35,-317 179.35,-320.5 179.35,-313.5"/>
<text text-anchor="middle" x="255" y="-320" font-family="Helvetica,sans-Serif" font-size="10.00"> &lt; std::vector&lt; double &gt; &gt;</text>
</g>
<!-- Node8 -->
<g id="node8" class="node">
<title>Node8</title>
<g id="a_node8"><a xlink:href="classThreads_1_1ThreadLocalStorage.html" target="_top" xlink:title=" ">
<polygon fill="white" stroke="black" points="348,-231 348,-283 507,-283 507,-231 348,-231"/>
<text text-anchor="start" x="356" y="-271" font-family="Helvetica,sans-Serif" font-size="10.00">Threads::ThreadLocalStorage</text>
<text text-anchor="start" x="356" y="-260" font-family="Helvetica,sans-Serif" font-size="10.00">&lt; std::list&lt; std::pair&lt;</text>
<text text-anchor="start" x="356" y="-249" font-family="Helvetica,sans-Serif" font-size="10.00"> bool, AlignedVector&lt; Vectorized</text>
<text text-anchor="middle" x="427.5" y="-238" font-family="Helvetica,sans-Serif" font-size="10.00">ArrayType &gt; &gt; &gt; &gt;</text>
</a>
</g>
</g>
<!-- Node1&#45;&gt;Node8 -->
<g id="edge7" class="edge">
<title>Node1&#45;&gt;Node8</title>
<path fill="none" stroke="orange" stroke-dasharray="5,2" d="M116.23,-303.48C136.04,-295.35 162.59,-285.53 187,-280 239.86,-268.03 300.66,-262.29 347.77,-259.53"/>
<polygon fill="orange" stroke="orange" points="114.67,-300.34 106.8,-307.43 117.38,-306.79 114.67,-300.34"/>
<text text-anchor="start" x="187" y="-305" font-family="Helvetica,sans-Serif" font-size="10.00"> &lt; std::list&lt; std::pair</text>
<text text-anchor="start" x="187" y="-294" font-family="Helvetica,sans-Serif" font-size="10.00">&lt; bool, AlignedVector</text>
<text text-anchor="middle" x="255" y="-283" font-family="Helvetica,sans-Serif" font-size="10.00">&lt; VectorizedArrayType &gt; &gt; &gt; &gt;</text>
</g>
<!-- Node9 -->
<g id="node9" class="node">
<title>Node9</title>
<g id="a_node9"><a xlink:href="classThreads_1_1ThreadLocalStorage.html" target="_top" xlink:title=" ">
<polygon fill="white" stroke="black" points="355,-170.5 355,-211.5 500,-211.5 500,-170.5 355,-170.5"/>
<text text-anchor="start" x="363" y="-199.5" font-family="Helvetica,sans-Serif" font-size="10.00">Threads::ThreadLocalStorage</text>
<text text-anchor="start" x="363" y="-188.5" font-family="Helvetica,sans-Serif" font-size="10.00">&lt; std::shared_ptr&lt; std::</text>
<text text-anchor="middle" x="427.5" y="-177.5" font-family="Helvetica,sans-Serif" font-size="10.00">ostringstream &gt; &gt;</text>
</a>
</g>
</g>
<!-- Node1&#45;&gt;Node9 -->
<g id="edge8" class="edge">
<title>Node1&#45;&gt;Node9</title>
<path fill="none" stroke="orange" stroke-dasharray="5,2" d="M101.27,-299.93C119.85,-280.92 152.6,-250.8 187,-235 240.11,-210.6 305.71,-199.72 354.81,-194.88"/>
<polygon fill="orange" stroke="orange" points="98.58,-297.67 94.2,-307.32 103.64,-302.51 98.58,-297.67"/>
<text text-anchor="start" x="205" y="-249" font-family="Helvetica,sans-Serif" font-size="10.00"> &lt; std::shared_ptr&lt;</text>
<text text-anchor="middle" x="255" y="-238" font-family="Helvetica,sans-Serif" font-size="10.00"> std::ostringstream &gt; &gt;</text>
</g>
<!-- Node10 -->
<g id="node10" class="node">
<title>Node10</title>
<g id="a_node10"><a xlink:href="classThreads_1_1ThreadLocalStorage.html" target="_top" xlink:title=" ">
<polygon fill="white" stroke="black" points="354.5,-121 354.5,-151 500.5,-151 500.5,-121 354.5,-121"/>
<text text-anchor="start" x="362.5" y="-139" font-family="Helvetica,sans-Serif" font-size="10.00">Threads::ThreadLocalStorage</text>
<text text-anchor="middle" x="427.5" y="-128" font-family="Helvetica,sans-Serif" font-size="10.00">&lt; ScratchAndCopyDataList &gt;</text>
</a>
</g>
</g>
<!-- Node1&#45;&gt;Node10 -->
<g id="edge9" class="edge">
<title>Node1&#45;&gt;Node10</title>
<path fill="none" stroke="orange" stroke-dasharray="5,2" d="M94.25,-298.21C108.97,-268.8 141.6,-212.36 187,-184 237.26,-152.6 304.02,-141.18 354.29,-137.28"/>
<polygon fill="orange" stroke="orange" points="91.01,-296.86 89.8,-307.39 97.31,-299.92 91.01,-296.86"/>
<text text-anchor="middle" x="255" y="-187" font-family="Helvetica,sans-Serif" font-size="10.00"> &lt; ScratchAndCopyDataList &gt;</text>
</g>
<!-- Node11 -->
<g id="node11" class="node">
<title>Node11</title>
<g id="a_node11"><a xlink:href="classThreads_1_1ThreadLocalStorage.html" target="_top" xlink:title=" ">
<polygon fill="white" stroke="black" points="341,-60.5 341,-101.5 514,-101.5 514,-60.5 341,-60.5"/>
<text text-anchor="start" x="349" y="-89.5" font-family="Helvetica,sans-Serif" font-size="10.00">Threads::ThreadLocalStorage</text>
<text text-anchor="start" x="349" y="-78.5" font-family="Helvetica,sans-Serif" font-size="10.00">&lt; typename ItemType::ScratchData</text>
<text text-anchor="middle" x="427.5" y="-67.5" font-family="Helvetica,sans-Serif" font-size="10.00">List &gt;</text>
</a>
</g>
</g>
<!-- Node1&#45;&gt;Node11 -->
<g id="edge10" class="edge">
<title>Node1&#45;&gt;Node11</title>
<path fill="none" stroke="orange" stroke-dasharray="5,2" d="M89.07,-297.49C97.72,-256.25 123.94,-160.32 187,-115 231.08,-83.32 291.7,-74.97 340.92,-74.46"/>
<polygon fill="orange" stroke="orange" points="85.62,-296.88 87.12,-307.37 92.49,-298.24 85.62,-296.88"/>
<text text-anchor="start" x="205.5" y="-129" font-family="Helvetica,sans-Serif" font-size="10.00"> &lt; typename ItemType</text>
<text text-anchor="middle" x="255" y="-118" font-family="Helvetica,sans-Serif" font-size="10.00">::ScratchDataList &gt;</text>
</g>
<!-- Node12 -->
<g id="node12" class="node">
<title>Node12</title>
<g id="a_node12"><a xlink:href="classThreads_1_1ThreadLocalStorage.html" target="_top" xlink:title=" ">
<polygon fill="white" stroke="black" points="355,-0.5 355,-41.5 500,-41.5 500,-0.5 355,-0.5"/>
<text text-anchor="start" x="363" y="-29.5" font-family="Helvetica,sans-Serif" font-size="10.00">Threads::ThreadLocalStorage</text>
<text text-anchor="start" x="363" y="-18.5" font-family="Helvetica,sans-Serif" font-size="10.00">&lt; internal::AffineConstraints</text>
<text text-anchor="middle" x="427.5" y="-7.5" font-family="Helvetica,sans-Serif" font-size="10.00">::ScratchData&lt; double &gt; &gt;</text>
</a>
</g>
</g>
<!-- Node1&#45;&gt;Node12 -->
<g id="edge11" class="edge">
<title>Node1&#45;&gt;Node12</title>
<path fill="none" stroke="orange" stroke-dasharray="5,2" d="M86.38,-297.17C89.79,-246.5 106.39,-111.89 187,-49 234.03,-12.3 302.91,-7.78 354.75,-10.99"/>
<polygon fill="orange" stroke="orange" points="82.87,-297.22 85.8,-307.4 89.86,-297.62 82.87,-297.22"/>
<text text-anchor="start" x="192" y="-63" font-family="Helvetica,sans-Serif" font-size="10.00"> &lt; internal::AffineConstraints</text>
<text text-anchor="middle" x="255" y="-52" font-family="Helvetica,sans-Serif" font-size="10.00">::ScratchData&lt; double &gt; &gt;</text>
</g>
</g>
</svg>
