<?xml version="1.0" encoding="UTF-8" standalone="no"?>
<!DOCTYPE svg PUBLIC "-//W3C//DTD SVG 1.1//EN"
 "http://www.w3.org/Graphics/SVG/1.1/DTD/svg11.dtd">
<!-- Generated by graphviz version 2.47.1 (20210417.1919)
 -->
<!-- Title: FE_WedgeP&lt; dim, spacedim &gt; Pages: 1 -->
<svg width="330pt" height="412pt"
 viewBox="0.00 0.00 330.00 412.00" xmlns="http://www.w3.org/2000/svg" xmlns:xlink="http://www.w3.org/1999/xlink">
<g id="graph0" class="graph" transform="scale(1 1) rotate(0) translate(4 408)">
<title>FE_WedgeP&lt; dim, spacedim &gt;</title>
<polygon fill="white" stroke="transparent" points="-4,4 -4,-408 326,-408 326,4 -4,4"/>
<!-- Node1 -->
<g id="node1" class="node">
<title>Node1</title>
<g id="a_node1"><a xlink:title=" ">
<polygon fill="#bfbfbf" stroke="black" points="7.5,-0.5 7.5,-19.5 160.5,-19.5 160.5,-0.5 7.5,-0.5"/>
<text text-anchor="middle" x="84" y="-7.5" font-family="Helvetica,sans-Serif" font-size="10.00">FE_WedgeP&lt; dim, spacedim &gt;</text>
</a>
</g>
</g>
<!-- Node2 -->
<g id="node2" class="node">
<title>Node2</title>
<g id="a_node2"><a xlink:href="classFE__Wedge.html" target="_top" xlink:title=" ">
<polygon fill="white" stroke="black" points="24,-57.5 24,-76.5 144,-76.5 144,-57.5 24,-57.5"/>
<text text-anchor="middle" x="84" y="-64.5" font-family="Helvetica,sans-Serif" font-size="10.00">FE_Wedge&lt; dim, dim &gt;</text>
</a>
</g>
</g>
<!-- Node2&#45;&gt;Node1 -->
<g id="edge1" class="edge">
<title>Node2&#45;&gt;Node1</title>
<path fill="none" stroke="midnightblue" d="M84,-47.12C84,-37.82 84,-27.06 84,-19.71"/>
<polygon fill="midnightblue" stroke="midnightblue" points="80.5,-47.41 84,-57.41 87.5,-47.41 80.5,-47.41"/>
</g>
<!-- Node3 -->
<g id="node3" class="node">
<title>Node3</title>
<g id="a_node3"><a xlink:href="classFE__Poly.html" target="_top" xlink:title=" ">
<polygon fill="white" stroke="black" points="0,-248.5 0,-267.5 136,-267.5 136,-248.5 0,-248.5"/>
<text text-anchor="middle" x="68" y="-255.5" font-family="Helvetica,sans-Serif" font-size="10.00">FE_Poly&lt; dim, spacedim &gt;</text>
</a>
</g>
</g>
<!-- Node3&#45;&gt;Node2 -->
<g id="edge2" class="edge">
<title>Node3&#45;&gt;Node2</title>
<path fill="none" stroke="midnightblue" d="M69.57,-238.4C72.96,-198.4 80.83,-105.46 83.27,-76.66"/>
<polygon fill="midnightblue" stroke="midnightblue" points="66.09,-238.13 68.73,-248.39 73.06,-238.72 66.09,-238.13"/>
</g>
<!-- Node3&#45;&gt;Node3 -->
<g id="edge7" class="edge">
<title>Node3&#45;&gt;Node3</title>
<path fill="none" stroke="orange" stroke-dasharray="5,2" d="M146.1,-261.69C151.03,-260.83 154,-259.59 154,-258 154,-255.51 146.76,-253.91 136.13,-253.19"/>
<polygon fill="orange" stroke="orange" points="145.68,-258.22 136.13,-262.81 146.46,-265.17 145.68,-258.22"/>
<text text-anchor="middle" x="196.5" y="-255.5" font-family="Helvetica,sans-Serif" font-size="10.00"> &lt; dim, spacedim &gt;</text>
</g>
<!-- Node8 -->
<g id="node8" class="node">
<title>Node8</title>
<g id="a_node8"><a xlink:href="classFE__Poly.html" target="_top" xlink:title=" ">
<polygon fill="white" stroke="black" points="114,-181.5 114,-200.5 224,-200.5 224,-181.5 114,-181.5"/>
<text text-anchor="middle" x="169" y="-188.5" font-family="Helvetica,sans-Serif" font-size="10.00">FE_Poly&lt; dim, dim &gt;</text>
</a>
</g>
</g>
<!-- Node3&#45;&gt;Node8 -->
<g id="edge11" class="edge">
<title>Node3&#45;&gt;Node8</title>
<path fill="none" stroke="orange" stroke-dasharray="5,2" d="M90.11,-242.77C110.11,-229.9 138.89,-211.38 155.59,-200.63"/>
<polygon fill="orange" stroke="orange" points="88.14,-239.88 81.62,-248.23 91.92,-245.77 88.14,-239.88"/>
<text text-anchor="middle" x="154.5" y="-222" font-family="Helvetica,sans-Serif" font-size="10.00"> &lt; dim, dim &gt;</text>
</g>
<!-- Node4 -->
<g id="node4" class="node">
<title>Node4</title>
<g id="a_node4"><a xlink:href="classFiniteElement.html" target="_top" xlink:title=" ">
<polygon fill="white" stroke="black" points="115,-305.5 115,-335.5 219,-335.5 219,-305.5 115,-305.5"/>
<text text-anchor="start" x="123" y="-323.5" font-family="Helvetica,sans-Serif" font-size="10.00">FiniteElement&lt; dim,</text>
<text text-anchor="middle" x="167" y="-312.5" font-family="Helvetica,sans-Serif" font-size="10.00"> spacedim &gt;</text>
</a>
</g>
</g>
<!-- Node4&#45;&gt;Node3 -->
<g id="edge3" class="edge">
<title>Node4&#45;&gt;Node3</title>
<path fill="none" stroke="midnightblue" d="M135.05,-299.98C117.14,-289.03 95.7,-275.93 81.97,-267.54"/>
<polygon fill="midnightblue" stroke="midnightblue" points="133.68,-303.24 144.04,-305.47 137.33,-297.27 133.68,-303.24"/>
</g>
<!-- Node4&#45;&gt;Node4 -->
<g id="edge6" class="edge">
<title>Node4&#45;&gt;Node4</title>
<path fill="none" stroke="orange" stroke-dasharray="5,2" d="M229.4,-325.27C234.11,-324.21 237,-322.62 237,-320.5 237,-317.11 229.59,-315.08 219.2,-314.39"/>
<polygon fill="orange" stroke="orange" points="228.66,-321.84 219.2,-326.61 229.57,-328.78 228.66,-321.84"/>
<text text-anchor="middle" x="279.5" y="-318" font-family="Helvetica,sans-Serif" font-size="10.00"> &lt; dim, spacedim &gt;</text>
</g>
<!-- Node4&#45;&gt;Node8 -->
<g id="edge10" class="edge">
<title>Node4&#45;&gt;Node8</title>
<path fill="none" stroke="midnightblue" d="M213.71,-300.52C227.22,-292.58 240.37,-281.9 248,-268 264.31,-238.31 219.74,-213.16 191.07,-200.6"/>
<polygon fill="midnightblue" stroke="midnightblue" points="211.94,-297.49 204.83,-305.34 215.29,-303.64 211.94,-297.49"/>
</g>
<!-- Node5 -->
<g id="node5" class="node">
<title>Node5</title>
<g id="a_node5"><a xlink:href="classSubscriptor.html" target="_top" xlink:title=" ">
<polygon fill="white" stroke="black" points="83,-379 83,-398 149,-398 149,-379 83,-379"/>
<text text-anchor="middle" x="116" y="-386" font-family="Helvetica,sans-Serif" font-size="10.00">Subscriptor</text>
</a>
</g>
</g>
<!-- Node5&#45;&gt;Node4 -->
<g id="edge4" class="edge">
<title>Node5&#45;&gt;Node4</title>
<path fill="none" stroke="midnightblue" d="M129.02,-370.65C137.38,-359.83 148.12,-345.94 156.04,-335.68"/>
<polygon fill="midnightblue" stroke="midnightblue" points="126.01,-368.82 122.67,-378.87 131.55,-373.1 126.01,-368.82"/>
</g>
<!-- Node6 -->
<g id="node6" class="node">
<title>Node6</title>
<g id="a_node6"><a xlink:href="classFiniteElementData.html" target="_top" xlink:title=" ">
<polygon fill="white" stroke="black" points="167,-373.5 167,-403.5 271,-403.5 271,-373.5 167,-373.5"/>
<text text-anchor="start" x="175" y="-391.5" font-family="Helvetica,sans-Serif" font-size="10.00">FiniteElementData&lt;</text>
<text text-anchor="middle" x="219" y="-380.5" font-family="Helvetica,sans-Serif" font-size="10.00"> dim &gt;</text>
</a>
</g>
</g>
<!-- Node6&#45;&gt;Node4 -->
<g id="edge5" class="edge">
<title>Node6&#45;&gt;Node4</title>
<path fill="none" stroke="midnightblue" d="M201.36,-365.11C193.72,-355.41 185,-344.35 178.26,-335.79"/>
<polygon fill="midnightblue" stroke="midnightblue" points="198.78,-367.49 207.72,-373.18 204.28,-363.16 198.78,-367.49"/>
</g>
<!-- Node7 -->
<g id="node7" class="node">
<title>Node7</title>
<g id="a_node7"><a xlink:href="classFE__Wedge.html" target="_top" xlink:title=" ">
<polygon fill="white" stroke="black" points="96,-124.5 96,-143.5 242,-143.5 242,-124.5 96,-124.5"/>
<text text-anchor="middle" x="169" y="-131.5" font-family="Helvetica,sans-Serif" font-size="10.00">FE_Wedge&lt; dim, spacedim &gt;</text>
</a>
</g>
</g>
<!-- Node7&#45;&gt;Node2 -->
<g id="edge8" class="edge">
<title>Node7&#45;&gt;Node2</title>
<path fill="none" stroke="orange" stroke-dasharray="5,2" d="M149.47,-118.07C132.7,-105.24 109.09,-87.19 95.28,-76.63"/>
<polygon fill="orange" stroke="orange" points="147.47,-120.94 157.54,-124.23 151.72,-115.38 147.47,-120.94"/>
<text text-anchor="middle" x="161.5" y="-98" font-family="Helvetica,sans-Serif" font-size="10.00"> &lt; dim, dim &gt;</text>
</g>
<!-- Node8&#45;&gt;Node7 -->
<g id="edge9" class="edge">
<title>Node8&#45;&gt;Node7</title>
<path fill="none" stroke="midnightblue" d="M169,-171.12C169,-161.82 169,-151.06 169,-143.71"/>
<polygon fill="midnightblue" stroke="midnightblue" points="165.5,-171.41 169,-181.41 172.5,-171.41 165.5,-171.41"/>
</g>
</g>
</svg>
