<?xml version="1.0" encoding="UTF-8" standalone="no"?>
<!DOCTYPE svg PUBLIC "-//W3C//DTD SVG 1.1//EN"
 "http://www.w3.org/Graphics/SVG/1.1/DTD/svg11.dtd">
<!-- Generated by graphviz version 2.47.1 (20210417.1919)
 -->
<!-- Title: FunctionTime&lt; Number &gt; Pages: 1 -->
<svg width="1406pt" height="1627pt"
 viewBox="0.00 0.00 1406.00 1627.00" xmlns="http://www.w3.org/2000/svg" xmlns:xlink="http://www.w3.org/1999/xlink">
<g id="graph0" class="graph" transform="scale(1 1) rotate(0) translate(4 1623)">
<title>FunctionTime&lt; Number &gt;</title>
<polygon fill="white" stroke="transparent" points="-4,4 -4,-1623 1402,-1623 1402,4 -4,4"/>
<!-- Node1 -->
<g id="node1" class="node">
<title>Node1</title>
<g id="a_node1"><a xlink:title=" ">
<polygon fill="#bfbfbf" stroke="black" points="0,-957 0,-976 128,-976 128,-957 0,-957"/>
<text text-anchor="middle" x="64" y="-964" font-family="Helvetica,sans-Serif" font-size="10.00">FunctionTime&lt; Number &gt;</text>
</a>
</g>
</g>
<!-- Node2 -->
<g id="node2" class="node">
<title>Node2</title>
<g id="a_node2"><a xlink:href="classFunction.html" target="_top" xlink:title=" ">
<polygon fill="white" stroke="black" points="729.5,-1588.5 729.5,-1618.5 863.5,-1618.5 863.5,-1588.5 729.5,-1588.5"/>
<text text-anchor="start" x="737.5" y="-1606.5" font-family="Helvetica,sans-Serif" font-size="10.00">Function&lt; dim, VectorType</text>
<text text-anchor="middle" x="796.5" y="-1595.5" font-family="Helvetica,sans-Serif" font-size="10.00">::value_type &gt;</text>
</a>
</g>
</g>
<!-- Node1&#45;&gt;Node2 -->
<g id="edge1" class="edge">
<title>Node1&#45;&gt;Node2</title>
<path fill="none" stroke="midnightblue" d="M74.09,-985.24C117.83,-1072.99 316.3,-1445.06 604,-1589.5 642.43,-1608.79 690.76,-1612.2 729.25,-1610.83"/>
<polygon fill="midnightblue" stroke="midnightblue" points="77.19,-983.61 69.63,-976.19 70.91,-986.7 77.19,-983.61"/>
</g>
<!-- Node4 -->
<g id="node4" class="node">
<title>Node4</title>
<g id="a_node4"><a xlink:href="classFunctionTime.html" target="_top" xlink:title=" ">
<polygon fill="white" stroke="black" points="279,-298 279,-339 401,-339 401,-298 279,-298"/>
<text text-anchor="start" x="287" y="-327" font-family="Helvetica,sans-Serif" font-size="10.00">FunctionTime&lt; numbers</text>
<text text-anchor="start" x="287" y="-316" font-family="Helvetica,sans-Serif" font-size="10.00">::NumberTraits&lt; double</text>
<text text-anchor="middle" x="340" y="-305" font-family="Helvetica,sans-Serif" font-size="10.00"> &gt;::real_type &gt;</text>
</a>
</g>
</g>
<!-- Node1&#45;&gt;Node4 -->
<g id="edge3" class="edge">
<title>Node1&#45;&gt;Node4</title>
<path fill="none" stroke="orange" stroke-dasharray="5,2" d="M73.08,-947.39C113,-852.98 288.92,-436.93 330.27,-339.13"/>
<polygon fill="orange" stroke="orange" points="69.76,-946.26 69.09,-956.84 76.2,-948.99 69.76,-946.26"/>
<text text-anchor="start" x="146" y="-771.5" font-family="Helvetica,sans-Serif" font-size="10.00"> &lt; numbers::NumberTraits</text>
<text text-anchor="middle" x="203.5" y="-760.5" font-family="Helvetica,sans-Serif" font-size="10.00">&lt; double &gt;::real_type &gt;</text>
</g>
<!-- Node3 -->
<g id="node3" class="node">
<title>Node3</title>
<g id="a_node3"><a xlink:href="classFunctions_1_1FEFieldFunction.html" target="_top" xlink:title=" ">
<polygon fill="white" stroke="black" points="937,-1588.5 937,-1618.5 1122,-1618.5 1122,-1588.5 937,-1588.5"/>
<text text-anchor="start" x="945" y="-1606.5" font-family="Helvetica,sans-Serif" font-size="10.00">Functions::FEFieldFunction</text>
<text text-anchor="middle" x="1029.5" y="-1595.5" font-family="Helvetica,sans-Serif" font-size="10.00">&lt; dim, DoFHandlerType, VectorType &gt;</text>
</a>
</g>
</g>
<!-- Node2&#45;&gt;Node3 -->
<g id="edge2" class="edge">
<title>Node2&#45;&gt;Node3</title>
<path fill="none" stroke="midnightblue" d="M873.76,-1603.5C893.96,-1603.5 915.98,-1603.5 936.9,-1603.5"/>
<polygon fill="midnightblue" stroke="midnightblue" points="873.7,-1600 863.7,-1603.5 873.7,-1607 873.7,-1600"/>
</g>
<!-- Node5 -->
<g id="node5" class="node">
<title>Node5</title>
<g id="a_node5"><a xlink:href="classFunction.html" target="_top" xlink:title=" ">
<polygon fill="white" stroke="black" points="758,-384 758,-403 835,-403 835,-384 758,-384"/>
<text text-anchor="middle" x="796.5" y="-391" font-family="Helvetica,sans-Serif" font-size="10.00">Function&lt; 2 &gt;</text>
</a>
</g>
</g>
<!-- Node4&#45;&gt;Node5 -->
<g id="edge4" class="edge">
<title>Node4&#45;&gt;Node5</title>
<path fill="none" stroke="midnightblue" d="M410.81,-336.98C419.92,-339.03 429.15,-340.94 438,-342.5 553.77,-362.89 585.19,-350.33 701,-370.5 721.13,-374 743.34,-379.33 761.17,-383.98"/>
<polygon fill="midnightblue" stroke="midnightblue" points="411.54,-333.55 401.01,-334.7 409.96,-340.37 411.54,-333.55"/>
</g>
<!-- Node9 -->
<g id="node9" class="node">
<title>Node9</title>
<g id="a_node9"><a xlink:href="classFunction.html" target="_top" xlink:title=" ">
<polygon fill="white" stroke="black" points="735.5,-334 735.5,-353 857.5,-353 857.5,-334 735.5,-334"/>
<text text-anchor="middle" x="796.5" y="-341" font-family="Helvetica,sans-Serif" font-size="10.00">Function&lt; dim, double &gt;</text>
</a>
</g>
</g>
<!-- Node4&#45;&gt;Node9 -->
<g id="edge8" class="edge">
<title>Node4&#45;&gt;Node9</title>
<path fill="none" stroke="midnightblue" d="M411.61,-322.38C500.48,-327.27 651.58,-335.58 735.26,-340.19"/>
<polygon fill="midnightblue" stroke="midnightblue" points="411.53,-318.87 401.35,-321.82 411.15,-325.86 411.53,-318.87"/>
</g>
<!-- Node21 -->
<g id="node19" class="node">
<title>Node21</title>
<g id="a_node19"><a xlink:href="classTensorFunction.html" target="_top" xlink:title=" ">
<polygon fill="white" stroke="black" points="746,-68.5 746,-98.5 847,-98.5 847,-68.5 746,-68.5"/>
<text text-anchor="start" x="754" y="-86.5" font-family="Helvetica,sans-Serif" font-size="10.00">TensorFunction&lt; 1,</text>
<text text-anchor="middle" x="796.5" y="-75.5" font-family="Helvetica,sans-Serif" font-size="10.00"> dim, double &gt;</text>
</a>
</g>
</g>
<!-- Node4&#45;&gt;Node21 -->
<g id="edge19" class="edge">
<title>Node4&#45;&gt;Node21</title>
<path fill="none" stroke="midnightblue" d="M347.21,-287.86C357.76,-244.26 383.56,-165.21 438,-125.5 529.76,-58.56 671.42,-65.5 745.88,-75.16"/>
<polygon fill="midnightblue" stroke="midnightblue" points="343.73,-287.35 344.9,-297.88 350.56,-288.92 343.73,-287.35"/>
</g>
<!-- Node22 -->
<g id="node20" class="node">
<title>Node22</title>
<g id="a_node20"><a xlink:href="classTensorFunction.html" target="_top" xlink:title=" ">
<polygon fill="white" stroke="black" points="739.5,-117.5 739.5,-147.5 853.5,-147.5 853.5,-117.5 739.5,-117.5"/>
<text text-anchor="start" x="747.5" y="-135.5" font-family="Helvetica,sans-Serif" font-size="10.00">TensorFunction&lt; rank,</text>
<text text-anchor="middle" x="796.5" y="-124.5" font-family="Helvetica,sans-Serif" font-size="10.00"> dim, double &gt;</text>
</a>
</g>
</g>
<!-- Node4&#45;&gt;Node22 -->
<g id="edge20" class="edge">
<title>Node4&#45;&gt;Node22</title>
<path fill="none" stroke="midnightblue" d="M400.89,-293.99C496.35,-254.93 680.2,-179.69 758.61,-147.6"/>
<polygon fill="midnightblue" stroke="midnightblue" points="399.31,-290.86 391.38,-297.88 401.96,-297.34 399.31,-290.86"/>
</g>
<!-- Node27 -->
<g id="node24" class="node">
<title>Node27</title>
<g id="a_node24"><a xlink:href="classFunction.html" target="_top" xlink:title=" ">
<polygon fill="white" stroke="red" points="438,-934.5 438,-964.5 586,-964.5 586,-934.5 438,-934.5"/>
<text text-anchor="start" x="446" y="-952.5" font-family="Helvetica,sans-Serif" font-size="10.00">Function&lt; dim, RangeNumber</text>
<text text-anchor="middle" x="512" y="-941.5" font-family="Helvetica,sans-Serif" font-size="10.00">Type &gt;</text>
</a>
</g>
</g>
<!-- Node4&#45;&gt;Node27 -->
<g id="edge25" class="edge">
<title>Node4&#45;&gt;Node27</title>
<path fill="none" stroke="midnightblue" d="M349.17,-348.84C379.48,-461.35 484.84,-852.42 506.92,-934.37"/>
<polygon fill="midnightblue" stroke="midnightblue" points="352.54,-347.88 346.56,-339.14 345.78,-349.7 352.54,-347.88"/>
</g>
<!-- Node65 -->
<g id="node49" class="node">
<title>Node65</title>
<g id="a_node49"><a xlink:href="classTensorFunction.html" target="_top" xlink:title=" ">
<polygon fill="white" stroke="black" points="455,-135.5 455,-165.5 569,-165.5 569,-135.5 455,-135.5"/>
<text text-anchor="start" x="463" y="-153.5" font-family="Helvetica,sans-Serif" font-size="10.00">TensorFunction&lt; rank,</text>
<text text-anchor="middle" x="512" y="-142.5" font-family="Helvetica,sans-Serif" font-size="10.00"> dim, Number &gt;</text>
</a>
</g>
</g>
<!-- Node4&#45;&gt;Node65 -->
<g id="edge54" class="edge">
<title>Node4&#45;&gt;Node65</title>
<path fill="none" stroke="midnightblue" d="M367.28,-290.57C382.26,-274.81 401.48,-254.86 419,-237.5 444.92,-211.81 475.91,-182.86 494.49,-165.67"/>
<polygon fill="midnightblue" stroke="midnightblue" points="364.63,-288.27 360.29,-297.94 369.71,-293.09 364.63,-288.27"/>
</g>
<!-- Node6 -->
<g id="node6" class="node">
<title>Node6</title>
<g id="a_node6"><a xlink:href="classFunctions_1_1LSingularityFunction.html" target="_top" xlink:title=" ">
<polygon fill="white" stroke="black" points="952.5,-630 952.5,-649 1106.5,-649 1106.5,-630 952.5,-630"/>
<text text-anchor="middle" x="1029.5" y="-637" font-family="Helvetica,sans-Serif" font-size="10.00">Functions::LSingularityFunction</text>
</a>
</g>
</g>
<!-- Node5&#45;&gt;Node6 -->
<g id="edge5" class="edge">
<title>Node5&#45;&gt;Node6</title>
<path fill="none" stroke="midnightblue" d="M845.31,-396.17C856.16,-399.05 866.65,-404.04 874,-412.5 899.36,-441.67 873.01,-551.84 892,-585.5 905.34,-609.14 931.2,-622.45 956.86,-629.95"/>
<polygon fill="midnightblue" stroke="midnightblue" points="845.82,-392.7 835.32,-394.09 844.39,-399.55 845.82,-392.7"/>
</g>
<!-- Node7 -->
<g id="node7" class="node">
<title>Node7</title>
<g id="a_node7"><a xlink:href="classFunctions_1_1LSingularityGradFunction.html" target="_top" xlink:title=" ">
<polygon fill="white" stroke="black" points="961,-580.5 961,-610.5 1098,-610.5 1098,-580.5 961,-580.5"/>
<text text-anchor="start" x="969" y="-598.5" font-family="Helvetica,sans-Serif" font-size="10.00">Functions::LSingularityGrad</text>
<text text-anchor="middle" x="1029.5" y="-587.5" font-family="Helvetica,sans-Serif" font-size="10.00">Function</text>
</a>
</g>
</g>
<!-- Node5&#45;&gt;Node7 -->
<g id="edge6" class="edge">
<title>Node5&#45;&gt;Node7</title>
<path fill="none" stroke="midnightblue" d="M845.21,-396.26C856.06,-399.13 866.57,-404.1 874,-412.5 917.9,-462.13 848.29,-510.7 892,-560.5 909.19,-580.08 935.7,-589.43 960.8,-593.67"/>
<polygon fill="midnightblue" stroke="midnightblue" points="845.72,-392.79 835.22,-394.17 844.29,-399.64 845.72,-392.79"/>
</g>
<!-- Node8 -->
<g id="node8" class="node">
<title>Node8</title>
<g id="a_node8"><a xlink:href="classFunctions_1_1SlitHyperSingularityFunction.html" target="_top" xlink:title=" ">
<polygon fill="white" stroke="black" points="953.5,-668.5 953.5,-698.5 1105.5,-698.5 1105.5,-668.5 953.5,-668.5"/>
<text text-anchor="start" x="961.5" y="-686.5" font-family="Helvetica,sans-Serif" font-size="10.00">Functions::SlitHyperSingularity</text>
<text text-anchor="middle" x="1029.5" y="-675.5" font-family="Helvetica,sans-Serif" font-size="10.00">Function</text>
</a>
</g>
</g>
<!-- Node5&#45;&gt;Node8 -->
<g id="edge7" class="edge">
<title>Node5&#45;&gt;Node8</title>
<path fill="none" stroke="midnightblue" d="M845.09,-396.02C856.05,-398.88 866.64,-403.91 874,-412.5 903.18,-446.56 873.01,-572.88 892,-613.5 903.98,-639.12 912.54,-644.3 937,-658.5 943.69,-662.39 951.01,-665.69 958.5,-668.49"/>
<polygon fill="midnightblue" stroke="midnightblue" points="845.5,-392.53 835,-393.95 844.1,-399.39 845.5,-392.53"/>
</g>
<!-- Node10 -->
<g id="node10" class="node">
<title>Node10</title>
<g id="a_node10"><a xlink:href="classFunctions_1_1ConstantFunction.html" target="_top" xlink:title=" ">
<polygon fill="white" stroke="red" points="1255,-315.5 1255,-345.5 1398,-345.5 1398,-315.5 1255,-315.5"/>
<text text-anchor="start" x="1263" y="-333.5" font-family="Helvetica,sans-Serif" font-size="10.00">Functions::ConstantFunction</text>
<text text-anchor="middle" x="1326.5" y="-322.5" font-family="Helvetica,sans-Serif" font-size="10.00">&lt; dim, double &gt;</text>
</a>
</g>
</g>
<!-- Node9&#45;&gt;Node10 -->
<g id="edge9" class="edge">
<title>Node9&#45;&gt;Node10</title>
<path fill="none" stroke="midnightblue" d="M867.64,-341.77C968.47,-339.29 1153.35,-334.74 1254.6,-332.25"/>
<polygon fill="midnightblue" stroke="midnightblue" points="867.47,-338.28 857.55,-342.02 867.64,-345.27 867.47,-338.28"/>
</g>
<!-- Node13 -->
<g id="node11" class="node">
<title>Node13</title>
<g id="a_node11"><a xlink:href="classFunctionFromFunctionObjects.html" target="_top" xlink:title=" ">
<polygon fill="white" stroke="black" points="955.5,-235.5 955.5,-265.5 1103.5,-265.5 1103.5,-235.5 955.5,-235.5"/>
<text text-anchor="start" x="963.5" y="-253.5" font-family="Helvetica,sans-Serif" font-size="10.00">FunctionFromFunctionObjects</text>
<text text-anchor="middle" x="1029.5" y="-242.5" font-family="Helvetica,sans-Serif" font-size="10.00">&lt; dim, RangeNumberType &gt;</text>
</a>
</g>
</g>
<!-- Node9&#45;&gt;Node13 -->
<g id="edge10" class="edge">
<title>Node9&#45;&gt;Node13</title>
<path fill="none" stroke="midnightblue" d="M823.12,-328.85C850.58,-313.63 895.8,-289.91 937,-274.5 945.77,-271.22 955.17,-268.21 964.48,-265.52"/>
<polygon fill="midnightblue" stroke="midnightblue" points="821.2,-325.92 814.18,-333.86 824.62,-332.02 821.2,-325.92"/>
</g>
<!-- Node14 -->
<g id="node12" class="node">
<title>Node14</title>
<g id="a_node12"><a xlink:href="classFunctions_1_1ConstantFunction.html" target="_top" xlink:title=" ">
<polygon fill="white" stroke="black" points="958,-284.5 958,-314.5 1101,-314.5 1101,-284.5 958,-284.5"/>
<text text-anchor="start" x="966" y="-302.5" font-family="Helvetica,sans-Serif" font-size="10.00">Functions::ConstantFunction</text>
<text text-anchor="middle" x="1029.5" y="-291.5" font-family="Helvetica,sans-Serif" font-size="10.00">&lt; dim, RangeNumberType &gt;</text>
</a>
</g>
</g>
<!-- Node9&#45;&gt;Node14 -->
<g id="edge11" class="edge">
<title>Node9&#45;&gt;Node14</title>
<path fill="none" stroke="midnightblue" d="M857.74,-332.02C888.41,-326.18 925.87,-319.05 957.88,-312.95"/>
<polygon fill="midnightblue" stroke="midnightblue" points="856.79,-328.64 847.62,-333.95 858.1,-335.52 856.79,-328.64"/>
</g>
<!-- Node15 -->
<g id="node13" class="node">
<title>Node15</title>
<g id="a_node13"><a xlink:href="classFunctions_1_1IdentityFunction.html" target="_top" xlink:title=" ">
<polygon fill="white" stroke="black" points="959.5,-186.5 959.5,-216.5 1099.5,-216.5 1099.5,-186.5 959.5,-186.5"/>
<text text-anchor="start" x="967.5" y="-204.5" font-family="Helvetica,sans-Serif" font-size="10.00">Functions::IdentityFunction</text>
<text text-anchor="middle" x="1029.5" y="-193.5" font-family="Helvetica,sans-Serif" font-size="10.00">&lt; dim, RangeNumberType &gt;</text>
</a>
</g>
</g>
<!-- Node9&#45;&gt;Node15 -->
<g id="edge13" class="edge">
<title>Node9&#45;&gt;Node15</title>
<path fill="none" stroke="midnightblue" d="M812.78,-326.41C836.73,-300.68 885.7,-252.16 937,-225.5 943.99,-221.86 951.58,-218.75 959.3,-216.09"/>
<polygon fill="midnightblue" stroke="midnightblue" points="810.09,-324.17 805.91,-333.91 815.25,-328.9 810.09,-324.17"/>
</g>
<!-- Node16 -->
<g id="node14" class="node">
<title>Node16</title>
<g id="a_node14"><a xlink:href="classFunctions_1_1IncrementalFunction.html" target="_top" xlink:title=" ">
<polygon fill="white" stroke="black" points="952.5,-137.5 952.5,-167.5 1106.5,-167.5 1106.5,-137.5 952.5,-137.5"/>
<text text-anchor="start" x="960.5" y="-155.5" font-family="Helvetica,sans-Serif" font-size="10.00">Functions::IncrementalFunction</text>
<text text-anchor="middle" x="1029.5" y="-144.5" font-family="Helvetica,sans-Serif" font-size="10.00">&lt; dim, RangeNumberType &gt;</text>
</a>
</g>
</g>
<!-- Node9&#45;&gt;Node16 -->
<g id="edge14" class="edge">
<title>Node9&#45;&gt;Node16</title>
<path fill="none" stroke="midnightblue" d="M807.8,-324.72C827.89,-289.91 875.75,-215.39 937,-176.5 942.41,-173.07 948.29,-170.12 954.38,-167.6"/>
<polygon fill="midnightblue" stroke="midnightblue" points="804.55,-323.37 802.68,-333.79 810.64,-326.81 804.55,-323.37"/>
</g>
<!-- Node17 -->
<g id="node15" class="node">
<title>Node17</title>
<g id="a_node15"><a xlink:href="classFunctions_1_1SymbolicFunction.html" target="_top" xlink:title=" ">
<polygon fill="white" stroke="black" points="958,-531.5 958,-561.5 1101,-561.5 1101,-531.5 958,-531.5"/>
<text text-anchor="start" x="966" y="-549.5" font-family="Helvetica,sans-Serif" font-size="10.00">Functions::SymbolicFunction</text>
<text text-anchor="middle" x="1029.5" y="-538.5" font-family="Helvetica,sans-Serif" font-size="10.00">&lt; dim, RangeNumberType &gt;</text>
</a>
</g>
</g>
<!-- Node9&#45;&gt;Node17 -->
<g id="edge15" class="edge">
<title>Node9&#45;&gt;Node17</title>
<path fill="none" stroke="midnightblue" d="M850.2,-357.16C859.13,-361.48 867.57,-367.12 874,-374.5 895.39,-399.04 879.58,-415.41 892,-445.5 906.98,-481.79 905.78,-497.7 937,-521.5 943.29,-526.29 950.43,-530.17 957.89,-533.3"/>
<polygon fill="midnightblue" stroke="midnightblue" points="851.36,-353.85 840.79,-353.13 848.61,-360.29 851.36,-353.85"/>
</g>
<!-- Node18 -->
<g id="node16" class="node">
<title>Node18</title>
<g id="a_node16"><a xlink:href="classScalarFunctionFromFunctionObject.html" target="_top" xlink:title=" ">
<polygon fill="white" stroke="black" points="945,-482.5 945,-512.5 1114,-512.5 1114,-482.5 945,-482.5"/>
<text text-anchor="start" x="953" y="-500.5" font-family="Helvetica,sans-Serif" font-size="10.00">ScalarFunctionFromFunction</text>
<text text-anchor="middle" x="1029.5" y="-489.5" font-family="Helvetica,sans-Serif" font-size="10.00">Object&lt; dim, RangeNumberType &gt;</text>
</a>
</g>
</g>
<!-- Node9&#45;&gt;Node18 -->
<g id="edge16" class="edge">
<title>Node9&#45;&gt;Node18</title>
<path fill="none" stroke="midnightblue" d="M844.89,-356.81C855.27,-361.26 865.65,-367.05 874,-374.5 886.47,-385.62 883.23,-393.28 892,-407.5 910.44,-437.41 908.32,-452.2 937,-472.5 942.51,-476.4 948.6,-479.69 954.95,-482.47"/>
<polygon fill="midnightblue" stroke="midnightblue" points="845.99,-353.49 835.4,-353.1 843.43,-360 845.99,-353.49"/>
</g>
<!-- Node19 -->
<g id="node17" class="node">
<title>Node19</title>
<g id="a_node17"><a xlink:href="classVectorFunctionFromScalarFunctionObject.html" target="_top" xlink:title=" ">
<polygon fill="white" stroke="black" points="941.5,-422 941.5,-463 1117.5,-463 1117.5,-422 941.5,-422"/>
<text text-anchor="start" x="949.5" y="-451" font-family="Helvetica,sans-Serif" font-size="10.00">VectorFunctionFromScalar</text>
<text text-anchor="start" x="949.5" y="-440" font-family="Helvetica,sans-Serif" font-size="10.00">FunctionObject&lt; dim, RangeNumber</text>
<text text-anchor="middle" x="1029.5" y="-429" font-family="Helvetica,sans-Serif" font-size="10.00">Type &gt;</text>
</a>
</g>
</g>
<!-- Node9&#45;&gt;Node19 -->
<g id="edge17" class="edge">
<title>Node9&#45;&gt;Node19</title>
<path fill="none" stroke="midnightblue" d="M833.32,-356.76C846.31,-361.9 860.99,-368.09 874,-374.5 903.12,-388.86 907.47,-398 937,-411.5 945.08,-415.2 953.74,-418.69 962.39,-421.91"/>
<polygon fill="midnightblue" stroke="midnightblue" points="834.35,-353.41 823.76,-353.05 831.82,-359.93 834.35,-353.41"/>
</g>
<!-- Node20 -->
<g id="node18" class="node">
<title>Node20</title>
<g id="a_node18"><a xlink:href="classVectorFunctionFromTensorFunction.html" target="_top" xlink:title=" ">
<polygon fill="white" stroke="black" points="940.5,-372.5 940.5,-402.5 1118.5,-402.5 1118.5,-372.5 940.5,-372.5"/>
<text text-anchor="start" x="948.5" y="-390.5" font-family="Helvetica,sans-Serif" font-size="10.00">VectorFunctionFromTensor</text>
<text text-anchor="middle" x="1029.5" y="-379.5" font-family="Helvetica,sans-Serif" font-size="10.00">Function&lt; dim, RangeNumberType &gt;</text>
</a>
</g>
</g>
<!-- Node9&#45;&gt;Node20 -->
<g id="edge18" class="edge">
<title>Node9&#45;&gt;Node20</title>
<path fill="none" stroke="midnightblue" d="M857.67,-354.96C885.68,-360.3 919.37,-366.71 949.41,-372.43"/>
<polygon fill="midnightblue" stroke="midnightblue" points="858.1,-351.48 847.62,-353.05 856.79,-358.36 858.1,-351.48"/>
</g>
<!-- Node14&#45;&gt;Node10 -->
<g id="edge12" class="edge">
<title>Node14&#45;&gt;Node10</title>
<path fill="none" stroke="orange" stroke-dasharray="5,2" d="M1111.33,-306.13C1149.48,-309.46 1195.63,-313.79 1237,-318.5 1242.7,-319.15 1248.6,-319.86 1254.53,-320.6"/>
<polygon fill="orange" stroke="orange" points="1111.57,-302.63 1101.3,-305.26 1110.96,-309.61 1111.57,-302.63"/>
<text text-anchor="middle" x="1188.5" y="-321.5" font-family="Helvetica,sans-Serif" font-size="10.00"> &lt; dim, double &gt;</text>
</g>
<!-- Node23 -->
<g id="node21" class="node">
<title>Node23</title>
<g id="a_node21"><a xlink:href="classConstantTensorFunction.html" target="_top" xlink:title=" ">
<polygon fill="white" stroke="red" points="1265,-31.5 1265,-61.5 1388,-61.5 1388,-31.5 1265,-31.5"/>
<text text-anchor="start" x="1273" y="-49.5" font-family="Helvetica,sans-Serif" font-size="10.00">ConstantTensorFunction</text>
<text text-anchor="middle" x="1326.5" y="-38.5" font-family="Helvetica,sans-Serif" font-size="10.00">&lt; rank, dim, double &gt;</text>
</a>
</g>
</g>
<!-- Node22&#45;&gt;Node23 -->
<g id="edge21" class="edge">
<title>Node22&#45;&gt;Node23</title>
<path fill="none" stroke="midnightblue" d="M855.96,-114.17C862.09,-112.02 868.19,-109.78 874,-107.5 902.7,-96.25 907.19,-86.33 937,-78.5 997.22,-62.69 1171.57,-53.07 1264.88,-48.92"/>
<polygon fill="midnightblue" stroke="midnightblue" points="854.68,-110.91 846.36,-117.47 856.96,-117.53 854.68,-110.91"/>
</g>
<!-- Node25 -->
<g id="node22" class="node">
<title>Node25</title>
<g id="a_node22"><a xlink:href="classConstantTensorFunction.html" target="_top" xlink:title=" ">
<polygon fill="white" stroke="black" points="968,-0.5 968,-30.5 1091,-30.5 1091,-0.5 968,-0.5"/>
<text text-anchor="start" x="976" y="-18.5" font-family="Helvetica,sans-Serif" font-size="10.00">ConstantTensorFunction</text>
<text text-anchor="middle" x="1029.5" y="-7.5" font-family="Helvetica,sans-Serif" font-size="10.00">&lt; rank, dim, Number &gt;</text>
</a>
</g>
</g>
<!-- Node22&#45;&gt;Node25 -->
<g id="edge22" class="edge">
<title>Node22&#45;&gt;Node25</title>
<path fill="none" stroke="midnightblue" d="M862.49,-116.64C866.69,-114.04 870.6,-111.02 874,-107.5 893.95,-86.88 871.05,-65.11 892,-45.5 912.2,-26.6 941.47,-18.58 967.74,-15.51"/>
<polygon fill="midnightblue" stroke="midnightblue" points="860.7,-113.63 853.5,-121.4 863.98,-119.81 860.7,-113.63"/>
</g>
<!-- Node26 -->
<g id="node23" class="node">
<title>Node26</title>
<g id="a_node23"><a xlink:href="classTensorFunctionParser.html" target="_top" xlink:title=" ">
<polygon fill="white" stroke="black" points="971.5,-88.5 971.5,-118.5 1087.5,-118.5 1087.5,-88.5 971.5,-88.5"/>
<text text-anchor="start" x="979.5" y="-106.5" font-family="Helvetica,sans-Serif" font-size="10.00">TensorFunctionParser</text>
<text text-anchor="middle" x="1029.5" y="-95.5" font-family="Helvetica,sans-Serif" font-size="10.00">&lt; rank, dim, Number &gt;</text>
</a>
</g>
</g>
<!-- Node22&#45;&gt;Node26 -->
<g id="edge24" class="edge">
<title>Node22&#45;&gt;Node26</title>
<path fill="none" stroke="midnightblue" d="M864,-124.15C897.91,-119.89 938.73,-114.77 971.23,-110.69"/>
<polygon fill="midnightblue" stroke="midnightblue" points="863.2,-120.72 853.71,-125.44 864.07,-127.67 863.2,-120.72"/>
</g>
<!-- Node25&#45;&gt;Node23 -->
<g id="edge23" class="edge">
<title>Node25&#45;&gt;Node23</title>
<path fill="none" stroke="orange" stroke-dasharray="5,2" d="M1101.27,-21.25C1141.18,-24.69 1191.92,-29.37 1237,-34.5 1245.94,-35.52 1255.36,-36.69 1264.61,-37.89"/>
<polygon fill="orange" stroke="orange" points="1101.37,-17.75 1091.11,-20.39 1100.78,-24.72 1101.37,-17.75"/>
<text text-anchor="middle" x="1188.5" y="-37.5" font-family="Helvetica,sans-Serif" font-size="10.00"> &lt; rank, dim, double &gt;</text>
</g>
<!-- Node27&#45;&gt;Node2 -->
<g id="edge52" class="edge">
<title>Node27&#45;&gt;Node2</title>
<path fill="none" stroke="orange" stroke-dasharray="5,2" d="M514.44,-974.61C520.38,-1070.77 545.38,-1414.77 604,-1504.5 632.11,-1547.54 658.06,-1539.24 701,-1567.5 709.03,-1572.79 710.33,-1575.35 719,-1579.5 725.91,-1582.8 733.38,-1585.79 740.85,-1588.45"/>
<polygon fill="orange" stroke="orange" points="517.94,-974.39 513.84,-964.62 510.95,-974.81 517.94,-974.39"/>
<text text-anchor="start" x="607.5" y="-1581.5" font-family="Helvetica,sans-Serif" font-size="10.00"> &lt; dim, VectorType::</text>
<text text-anchor="middle" x="652.5" y="-1570.5" font-family="Helvetica,sans-Serif" font-size="10.00">value_type &gt;</text>
</g>
<!-- Node27&#45;&gt;Node5 -->
<g id="edge51" class="edge">
<title>Node27&#45;&gt;Node5</title>
<path fill="none" stroke="orange" stroke-dasharray="5,2" d="M513.74,-924.32C517.05,-830.2 533.54,-500.85 604,-429.5 614.7,-418.67 705.03,-405.27 757.72,-398.27"/>
<polygon fill="orange" stroke="orange" points="510.24,-924.25 513.41,-934.36 517.24,-924.48 510.24,-924.25"/>
<text text-anchor="middle" x="652.5" y="-432.5" font-family="Helvetica,sans-Serif" font-size="10.00"> &lt; 2 &gt;</text>
</g>
<!-- Node27&#45;&gt;Node9 -->
<g id="edge53" class="edge">
<title>Node27&#45;&gt;Node9</title>
<path fill="none" stroke="orange" stroke-dasharray="5,2" d="M513.57,-924.3C516.33,-826.29 531.23,-472.02 604,-392.5 637.01,-356.42 692.61,-345.33 735.42,-342.58"/>
<polygon fill="orange" stroke="orange" points="510.07,-924.37 513.31,-934.46 517.07,-924.55 510.07,-924.37"/>
<text text-anchor="middle" x="652.5" y="-395.5" font-family="Helvetica,sans-Serif" font-size="10.00"> &lt; dim, double &gt;</text>
</g>
<!-- Node28 -->
<g id="node25" class="node">
<title>Node28</title>
<g id="a_node25"><a xlink:href="classFunctions_1_1FlowFunction.html" target="_top" xlink:title=" ">
<polygon fill="white" stroke="red" points="956,-982 956,-1001 1103,-1001 1103,-982 956,-982"/>
<text text-anchor="middle" x="1029.5" y="-989" font-family="Helvetica,sans-Serif" font-size="10.00">Functions::FlowFunction&lt; 2 &gt;</text>
</a>
</g>
</g>
<!-- Node27&#45;&gt;Node28 -->
<g id="edge26" class="edge">
<title>Node27&#45;&gt;Node28</title>
<path fill="none" stroke="midnightblue" d="M596.06,-956.27C695.66,-964.38 861,-977.85 955.77,-985.57"/>
<polygon fill="midnightblue" stroke="midnightblue" points="596.29,-952.77 586.04,-955.45 595.72,-959.75 596.29,-952.77"/>
</g>
<!-- Node31 -->
<g id="node26" class="node">
<title>Node31</title>
<g id="a_node26"><a xlink:href="classAutoDerivativeFunction.html" target="_top" xlink:title=" ">
<polygon fill="white" stroke="red" points="737,-912.5 737,-942.5 856,-942.5 856,-912.5 737,-912.5"/>
<text text-anchor="start" x="745" y="-930.5" font-family="Helvetica,sans-Serif" font-size="10.00">AutoDerivativeFunction</text>
<text text-anchor="middle" x="796.5" y="-919.5" font-family="Helvetica,sans-Serif" font-size="10.00">&lt; dim &gt;</text>
</a>
</g>
</g>
<!-- Node27&#45;&gt;Node31 -->
<g id="edge27" class="edge">
<title>Node27&#45;&gt;Node31</title>
<path fill="none" stroke="midnightblue" d="M596.2,-943.02C641.41,-939.5 696.22,-935.23 736.92,-932.06"/>
<polygon fill="midnightblue" stroke="midnightblue" points="595.82,-939.54 586.12,-943.81 596.36,-946.52 595.82,-939.54"/>
</g>
<!-- Node35 -->
<g id="node27" class="node">
<title>Node35</title>
<g id="a_node27"><a xlink:href="classFunctions_1_1Bessel1.html" target="_top" xlink:title=" ">
<polygon fill="white" stroke="black" points="746,-863.5 746,-893.5 847,-893.5 847,-863.5 746,-863.5"/>
<text text-anchor="start" x="754" y="-881.5" font-family="Helvetica,sans-Serif" font-size="10.00">Functions::Bessel1</text>
<text text-anchor="middle" x="796.5" y="-870.5" font-family="Helvetica,sans-Serif" font-size="10.00">&lt; dim &gt;</text>
</a>
</g>
</g>
<!-- Node27&#45;&gt;Node35 -->
<g id="edge28" class="edge">
<title>Node27&#45;&gt;Node35</title>
<path fill="none" stroke="midnightblue" d="M582.78,-931.96C633.29,-919.27 700.36,-902.41 745.57,-891.05"/>
<polygon fill="midnightblue" stroke="midnightblue" points="581.76,-928.61 572.91,-934.44 583.46,-935.4 581.76,-928.61"/>
</g>
<!-- Node36 -->
<g id="node28" class="node">
<title>Node36</title>
<g id="a_node28"><a xlink:href="classFunctions_1_1CSpline.html" target="_top" xlink:title=" ">
<polygon fill="white" stroke="black" points="746.5,-814.5 746.5,-844.5 846.5,-844.5 846.5,-814.5 746.5,-814.5"/>
<text text-anchor="start" x="754.5" y="-832.5" font-family="Helvetica,sans-Serif" font-size="10.00">Functions::CSpline</text>
<text text-anchor="middle" x="796.5" y="-821.5" font-family="Helvetica,sans-Serif" font-size="10.00">&lt; dim &gt;</text>
</a>
</g>
</g>
<!-- Node27&#45;&gt;Node36 -->
<g id="edge29" class="edge">
<title>Node27&#45;&gt;Node36</title>
<path fill="none" stroke="midnightblue" d="M547.36,-929.32C564.19,-919.78 584.89,-908.53 604,-899.5 653.77,-875.98 667.14,-871.97 719,-853.5 727.79,-850.37 737.21,-847.23 746.34,-844.31"/>
<polygon fill="midnightblue" stroke="midnightblue" points="545.39,-926.42 538.45,-934.42 548.87,-932.49 545.39,-926.42"/>
</g>
<!-- Node37 -->
<g id="node29" class="node">
<title>Node37</title>
<g id="a_node29"><a xlink:href="classFunctions_1_1CosineFunction.html" target="_top" xlink:title=" ">
<polygon fill="white" stroke="black" points="729.5,-765.5 729.5,-795.5 863.5,-795.5 863.5,-765.5 729.5,-765.5"/>
<text text-anchor="start" x="737.5" y="-783.5" font-family="Helvetica,sans-Serif" font-size="10.00">Functions::CosineFunction</text>
<text text-anchor="middle" x="796.5" y="-772.5" font-family="Helvetica,sans-Serif" font-size="10.00">&lt; dim &gt;</text>
</a>
</g>
</g>
<!-- Node27&#45;&gt;Node37 -->
<g id="edge30" class="edge">
<title>Node27&#45;&gt;Node37</title>
<path fill="none" stroke="midnightblue" d="M531.4,-926.71C548.56,-906.54 575.7,-877.33 604,-857.5 645.37,-828.5 699.26,-808.09 739.33,-795.6"/>
<polygon fill="midnightblue" stroke="midnightblue" points="528.63,-924.56 524.9,-934.47 534,-929.05 528.63,-924.56"/>
</g>
<!-- Node38 -->
<g id="node30" class="node">
<title>Node38</title>
<g id="a_node30"><a xlink:href="classFunctions_1_1CosineGradFunction.html" target="_top" xlink:title=" ">
<polygon fill="white" stroke="black" points="719,-716.5 719,-746.5 874,-746.5 874,-716.5 719,-716.5"/>
<text text-anchor="start" x="727" y="-734.5" font-family="Helvetica,sans-Serif" font-size="10.00">Functions::CosineGradFunction</text>
<text text-anchor="middle" x="796.5" y="-723.5" font-family="Helvetica,sans-Serif" font-size="10.00">&lt; dim &gt;</text>
</a>
</g>
</g>
<!-- Node27&#45;&gt;Node38 -->
<g id="edge31" class="edge">
<title>Node27&#45;&gt;Node38</title>
<path fill="none" stroke="midnightblue" d="M523.27,-924.76C537.34,-893.5 565.36,-839.76 604,-806.5 638.77,-776.57 686.89,-757.79 726.19,-746.51"/>
<polygon fill="midnightblue" stroke="midnightblue" points="520,-923.5 519.19,-934.07 526.41,-926.31 520,-923.5"/>
</g>
<!-- Node39 -->
<g id="node31" class="node">
<title>Node39</title>
<g id="a_node31"><a xlink:href="classFunctions_1_1CutOffFunctionBase.html" target="_top" xlink:title=" ">
<polygon fill="white" stroke="red" points="730.5,-667.5 730.5,-697.5 862.5,-697.5 862.5,-667.5 730.5,-667.5"/>
<text text-anchor="start" x="738.5" y="-685.5" font-family="Helvetica,sans-Serif" font-size="10.00">Functions::CutOffFunction</text>
<text text-anchor="middle" x="796.5" y="-674.5" font-family="Helvetica,sans-Serif" font-size="10.00">Base&lt; dim &gt;</text>
</a>
</g>
</g>
<!-- Node27&#45;&gt;Node39 -->
<g id="edge32" class="edge">
<title>Node27&#45;&gt;Node39</title>
<path fill="none" stroke="midnightblue" d="M518.17,-924.68C527.97,-883.53 552.97,-800.93 604,-752.5 638.53,-719.72 689.64,-702.07 730.37,-692.69"/>
<polygon fill="midnightblue" stroke="midnightblue" points="514.76,-923.91 515.95,-934.43 521.58,-925.46 514.76,-923.91"/>
</g>
<!-- Node45 -->
<g id="node32" class="node">
<title>Node45</title>
<g id="a_node32"><a xlink:href="classFunctions_1_1ExpFunction.html" target="_top" xlink:title=" ">
<polygon fill="white" stroke="black" points="736.5,-618.5 736.5,-648.5 856.5,-648.5 856.5,-618.5 736.5,-618.5"/>
<text text-anchor="start" x="744.5" y="-636.5" font-family="Helvetica,sans-Serif" font-size="10.00">Functions::ExpFunction</text>
<text text-anchor="middle" x="796.5" y="-625.5" font-family="Helvetica,sans-Serif" font-size="10.00">&lt; dim &gt;</text>
</a>
</g>
</g>
<!-- Node27&#45;&gt;Node45 -->
<g id="edge33" class="edge">
<title>Node27&#45;&gt;Node45</title>
<path fill="none" stroke="midnightblue" d="M515.03,-924.39C520.42,-874.31 539.43,-761.32 604,-697.5 639.4,-662.51 694.45,-646.65 736.46,-639.46"/>
<polygon fill="midnightblue" stroke="midnightblue" points="511.55,-924.06 514.06,-934.36 518.52,-924.75 511.55,-924.06"/>
</g>
<!-- Node46 -->
<g id="node33" class="node">
<title>Node46</title>
<g id="a_node33"><a xlink:href="classFunctions_1_1FlowFunction.html" target="_top" xlink:title=" ">
<polygon fill="white" stroke="red" points="734.5,-1000.5 734.5,-1030.5 858.5,-1030.5 858.5,-1000.5 734.5,-1000.5"/>
<text text-anchor="start" x="742.5" y="-1018.5" font-family="Helvetica,sans-Serif" font-size="10.00">Functions::FlowFunction</text>
<text text-anchor="middle" x="796.5" y="-1007.5" font-family="Helvetica,sans-Serif" font-size="10.00">&lt; dim &gt;</text>
</a>
</g>
</g>
<!-- Node27&#45;&gt;Node46 -->
<g id="edge34" class="edge">
<title>Node27&#45;&gt;Node46</title>
<path fill="none" stroke="midnightblue" d="M555.64,-968.63C570.68,-974.76 587.86,-981.1 604,-985.5 646.86,-997.18 696.43,-1004.79 734.4,-1009.42"/>
<polygon fill="midnightblue" stroke="midnightblue" points="556.68,-965.27 546.11,-964.65 553.99,-971.73 556.68,-965.27"/>
</g>
<!-- Node49 -->
<g id="node34" class="node">
<title>Node49</title>
<g id="a_node34"><a xlink:href="classFunctions_1_1FourierCosineFunction.html" target="_top" xlink:title=" ">
<polygon fill="white" stroke="black" points="733.5,-569.5 733.5,-599.5 859.5,-599.5 859.5,-569.5 733.5,-569.5"/>
<text text-anchor="start" x="741.5" y="-587.5" font-family="Helvetica,sans-Serif" font-size="10.00">Functions::FourierCosine</text>
<text text-anchor="middle" x="796.5" y="-576.5" font-family="Helvetica,sans-Serif" font-size="10.00">Function&lt; dim &gt;</text>
</a>
</g>
</g>
<!-- Node27&#45;&gt;Node49 -->
<g id="edge36" class="edge">
<title>Node27&#45;&gt;Node49</title>
<path fill="none" stroke="midnightblue" d="M512.99,-924.3C514.38,-866.56 525.98,-723.59 604,-644.5 638.01,-610.02 691.54,-595.3 733.37,-589.04"/>
<polygon fill="midnightblue" stroke="midnightblue" points="509.49,-924.31 512.84,-934.36 516.49,-924.42 509.49,-924.31"/>
</g>
<!-- Node50 -->
<g id="node35" class="node">
<title>Node50</title>
<g id="a_node35"><a xlink:href="classFunctions_1_1FourierCosineSum.html" target="_top" xlink:title=" ">
<polygon fill="white" stroke="black" points="733.5,-520.5 733.5,-550.5 859.5,-550.5 859.5,-520.5 733.5,-520.5"/>
<text text-anchor="start" x="741.5" y="-538.5" font-family="Helvetica,sans-Serif" font-size="10.00">Functions::FourierCosine</text>
<text text-anchor="middle" x="796.5" y="-527.5" font-family="Helvetica,sans-Serif" font-size="10.00">Sum&lt; dim &gt;</text>
</a>
</g>
</g>
<!-- Node27&#45;&gt;Node50 -->
<g id="edge37" class="edge">
<title>Node27&#45;&gt;Node50</title>
<path fill="none" stroke="midnightblue" d="M516.22,-923.97C525.98,-850.55 557.42,-640.97 604,-592.5 637.53,-557.61 691.38,-543.82 733.45,-538.49"/>
<polygon fill="midnightblue" stroke="midnightblue" points="512.72,-923.79 514.89,-934.16 519.66,-924.7 512.72,-923.79"/>
</g>
<!-- Node51 -->
<g id="node36" class="node">
<title>Node51</title>
<g id="a_node36"><a xlink:href="classFunctions_1_1FourierSineFunction.html" target="_top" xlink:title=" ">
<polygon fill="white" stroke="black" points="720.5,-471.5 720.5,-501.5 872.5,-501.5 872.5,-471.5 720.5,-471.5"/>
<text text-anchor="start" x="728.5" y="-489.5" font-family="Helvetica,sans-Serif" font-size="10.00">Functions::FourierSineFunction</text>
<text text-anchor="middle" x="796.5" y="-478.5" font-family="Helvetica,sans-Serif" font-size="10.00">&lt; dim &gt;</text>
</a>
</g>
</g>
<!-- Node27&#45;&gt;Node51 -->
<g id="edge38" class="edge">
<title>Node27&#45;&gt;Node51</title>
<path fill="none" stroke="midnightblue" d="M515.3,-924.12C523.08,-843.91 550.9,-597.9 604,-541.5 633.76,-509.89 680.36,-496.06 720.14,-490.17"/>
<polygon fill="midnightblue" stroke="midnightblue" points="511.8,-924.01 514.34,-934.3 518.77,-924.67 511.8,-924.01"/>
</g>
<!-- Node52 -->
<g id="node37" class="node">
<title>Node52</title>
<g id="a_node37"><a xlink:href="classFunctions_1_1FourierSineSum.html" target="_top" xlink:title=" ">
<polygon fill="white" stroke="black" points="729,-422.5 729,-452.5 864,-452.5 864,-422.5 729,-422.5"/>
<text text-anchor="start" x="737" y="-440.5" font-family="Helvetica,sans-Serif" font-size="10.00">Functions::FourierSineSum</text>
<text text-anchor="middle" x="796.5" y="-429.5" font-family="Helvetica,sans-Serif" font-size="10.00">&lt; dim &gt;</text>
</a>
</g>
</g>
<!-- Node27&#45;&gt;Node52 -->
<g id="edge39" class="edge">
<title>Node27&#45;&gt;Node52</title>
<path fill="none" stroke="midnightblue" d="M514.6,-924.13C520.55,-837.44 544.3,-554.81 604,-490.5 635.68,-456.37 687.21,-443.5 728.83,-438.95"/>
<polygon fill="midnightblue" stroke="midnightblue" points="511.09,-924.15 513.91,-934.37 518.07,-924.62 511.09,-924.15"/>
</g>
<!-- Node53 -->
<g id="node38" class="node">
<title>Node53</title>
<g id="a_node38"><a xlink:href="classFunctions_1_1InterpolatedTensorProductGridData.html" target="_top" xlink:title=" ">
<polygon fill="white" stroke="black" points="723.5,-1539.5 723.5,-1569.5 869.5,-1569.5 869.5,-1539.5 723.5,-1539.5"/>
<text text-anchor="start" x="731.5" y="-1557.5" font-family="Helvetica,sans-Serif" font-size="10.00">Functions::InterpolatedTensor</text>
<text text-anchor="middle" x="796.5" y="-1546.5" font-family="Helvetica,sans-Serif" font-size="10.00">ProductGridData&lt; dim &gt;</text>
</a>
</g>
</g>
<!-- Node27&#45;&gt;Node53 -->
<g id="edge40" class="edge">
<title>Node27&#45;&gt;Node53</title>
<path fill="none" stroke="midnightblue" d="M514.95,-974.93C522.3,-1065.83 550.72,-1373.62 604,-1454.5 633.51,-1499.29 689.8,-1525.24 733.75,-1539.43"/>
<polygon fill="midnightblue" stroke="midnightblue" points="518.42,-974.41 514.14,-964.72 511.44,-974.96 518.42,-974.41"/>
</g>
<!-- Node54 -->
<g id="node39" class="node">
<title>Node54</title>
<g id="a_node39"><a xlink:href="classFunctions_1_1InterpolatedUniformGridData.html" target="_top" xlink:title=" ">
<polygon fill="white" stroke="black" points="721,-1490.5 721,-1520.5 872,-1520.5 872,-1490.5 721,-1490.5"/>
<text text-anchor="start" x="729" y="-1508.5" font-family="Helvetica,sans-Serif" font-size="10.00">Functions::InterpolatedUniform</text>
<text text-anchor="middle" x="796.5" y="-1497.5" font-family="Helvetica,sans-Serif" font-size="10.00">GridData&lt; dim &gt;</text>
</a>
</g>
</g>
<!-- Node27&#45;&gt;Node54 -->
<g id="edge41" class="edge">
<title>Node27&#45;&gt;Node54</title>
<path fill="none" stroke="midnightblue" d="M515.48,-974.58C524.24,-1059.11 555.76,-1332.31 604,-1404.5 634.18,-1449.66 691.3,-1476.02 735.34,-1490.41"/>
<polygon fill="midnightblue" stroke="midnightblue" points="518.96,-974.18 514.46,-964.59 512,-974.89 518.96,-974.18"/>
</g>
<!-- Node55 -->
<g id="node40" class="node">
<title>Node55</title>
<g id="a_node40"><a xlink:href="classFunctions_1_1JumpFunction.html" target="_top" xlink:title=" ">
<polygon fill="white" stroke="black" points="733,-1441.5 733,-1471.5 860,-1471.5 860,-1441.5 733,-1441.5"/>
<text text-anchor="start" x="741" y="-1459.5" font-family="Helvetica,sans-Serif" font-size="10.00">Functions::JumpFunction</text>
<text text-anchor="middle" x="796.5" y="-1448.5" font-family="Helvetica,sans-Serif" font-size="10.00">&lt; dim &gt;</text>
</a>
</g>
</g>
<!-- Node27&#45;&gt;Node55 -->
<g id="edge42" class="edge">
<title>Node27&#45;&gt;Node55</title>
<path fill="none" stroke="midnightblue" d="M512.5,-974.8C512.36,-1042.54 520.04,-1231.22 604,-1354.5 634.96,-1399.95 692.89,-1426.74 736.96,-1441.36"/>
<polygon fill="midnightblue" stroke="midnightblue" points="516,-974.68 512.58,-964.65 509,-974.62 516,-974.68"/>
</g>
<!-- Node56 -->
<g id="node41" class="node">
<title>Node56</title>
<g id="a_node41"><a xlink:href="classFunctions_1_1LevelSet_1_1Plane.html" target="_top" xlink:title=" ">
<polygon fill="white" stroke="black" points="744.5,-1392.5 744.5,-1422.5 848.5,-1422.5 848.5,-1392.5 744.5,-1392.5"/>
<text text-anchor="start" x="752.5" y="-1410.5" font-family="Helvetica,sans-Serif" font-size="10.00">Functions::LevelSet</text>
<text text-anchor="middle" x="796.5" y="-1399.5" font-family="Helvetica,sans-Serif" font-size="10.00">::Plane&lt; dim &gt;</text>
</a>
</g>
</g>
<!-- Node27&#45;&gt;Node56 -->
<g id="edge43" class="edge">
<title>Node27&#45;&gt;Node56</title>
<path fill="none" stroke="midnightblue" d="M513.56,-974.92C516.1,-1036.89 529.89,-1198.45 604,-1304.5 637.3,-1352.15 699.84,-1379.75 744.38,-1394.17"/>
<polygon fill="midnightblue" stroke="midnightblue" points="517.05,-974.42 513.21,-964.54 510.05,-974.66 517.05,-974.42"/>
</g>
<!-- Node57 -->
<g id="node42" class="node">
<title>Node57</title>
<g id="a_node42"><a xlink:href="classFunctions_1_1LevelSet_1_1Sphere.html" target="_top" xlink:title=" ">
<polygon fill="white" stroke="black" points="744.5,-1343.5 744.5,-1373.5 848.5,-1373.5 848.5,-1343.5 744.5,-1343.5"/>
<text text-anchor="start" x="752.5" y="-1361.5" font-family="Helvetica,sans-Serif" font-size="10.00">Functions::LevelSet</text>
<text text-anchor="middle" x="796.5" y="-1350.5" font-family="Helvetica,sans-Serif" font-size="10.00">::Sphere&lt; dim &gt;</text>
</a>
</g>
</g>
<!-- Node27&#45;&gt;Node57 -->
<g id="edge44" class="edge">
<title>Node27&#45;&gt;Node57</title>
<path fill="none" stroke="midnightblue" d="M514.8,-974.92C519.89,-1030.93 538.62,-1167.11 604,-1256.5 638.13,-1303.17 700.18,-1330.54 744.4,-1344.98"/>
<polygon fill="midnightblue" stroke="midnightblue" points="518.27,-974.49 513.95,-964.82 511.3,-975.08 518.27,-974.49"/>
</g>
<!-- Node58 -->
<g id="node43" class="node">
<title>Node58</title>
<g id="a_node43"><a xlink:href="classFunctions_1_1Monomial.html" target="_top" xlink:title=" ">
<polygon fill="white" stroke="black" points="743,-1294.5 743,-1324.5 850,-1324.5 850,-1294.5 743,-1294.5"/>
<text text-anchor="start" x="751" y="-1312.5" font-family="Helvetica,sans-Serif" font-size="10.00">Functions::Monomial</text>
<text text-anchor="middle" x="796.5" y="-1301.5" font-family="Helvetica,sans-Serif" font-size="10.00">&lt; dim &gt;</text>
</a>
</g>
</g>
<!-- Node27&#45;&gt;Node58 -->
<g id="edge45" class="edge">
<title>Node27&#45;&gt;Node58</title>
<path fill="none" stroke="midnightblue" d="M516.36,-974.75C524.05,-1024.38 546.9,-1136.19 604,-1209.5 638.8,-1254.18 699.17,-1280.94 742.84,-1295.38"/>
<polygon fill="midnightblue" stroke="midnightblue" points="519.78,-973.98 514.86,-964.6 512.86,-975 519.78,-973.98"/>
</g>
<!-- Node59 -->
<g id="node44" class="node">
<title>Node59</title>
<g id="a_node44"><a xlink:href="classFunctions_1_1PillowFunction.html" target="_top" xlink:title=" ">
<polygon fill="white" stroke="black" points="732,-1245.5 732,-1275.5 861,-1275.5 861,-1245.5 732,-1245.5"/>
<text text-anchor="start" x="740" y="-1263.5" font-family="Helvetica,sans-Serif" font-size="10.00">Functions::PillowFunction</text>
<text text-anchor="middle" x="796.5" y="-1252.5" font-family="Helvetica,sans-Serif" font-size="10.00">&lt; dim &gt;</text>
</a>
</g>
</g>
<!-- Node27&#45;&gt;Node59 -->
<g id="edge46" class="edge">
<title>Node27&#45;&gt;Node59</title>
<path fill="none" stroke="midnightblue" d="M518.45,-974.48C528.82,-1017.28 554.88,-1105.61 604,-1163.5 639.44,-1205.27 697.33,-1231.06 740.19,-1245.44"/>
<polygon fill="midnightblue" stroke="midnightblue" points="521.83,-973.57 516.14,-964.63 515.01,-975.16 521.83,-973.57"/>
</g>
<!-- Node60 -->
<g id="node45" class="node">
<title>Node60</title>
<g id="a_node45"><a xlink:href="classFunctions_1_1Polynomial.html" target="_top" xlink:title=" ">
<polygon fill="white" stroke="black" points="740,-1196.5 740,-1226.5 853,-1226.5 853,-1196.5 740,-1196.5"/>
<text text-anchor="start" x="748" y="-1214.5" font-family="Helvetica,sans-Serif" font-size="10.00">Functions::Polynomial</text>
<text text-anchor="middle" x="796.5" y="-1203.5" font-family="Helvetica,sans-Serif" font-size="10.00">&lt; dim &gt;</text>
</a>
</g>
</g>
<!-- Node27&#45;&gt;Node60 -->
<g id="edge47" class="edge">
<title>Node27&#45;&gt;Node60</title>
<path fill="none" stroke="midnightblue" d="M521.5,-974.28C534.64,-1009.7 562.74,-1075.28 604,-1118.5 641.26,-1157.53 698.31,-1182.29 740.45,-1196.36"/>
<polygon fill="midnightblue" stroke="midnightblue" points="524.74,-972.94 518.05,-964.73 518.15,-975.32 524.74,-972.94"/>
</g>
<!-- Node61 -->
<g id="node46" class="node">
<title>Node61</title>
<g id="a_node46"><a xlink:href="classFunctions_1_1Q1WedgeFunction.html" target="_top" xlink:title=" ">
<polygon fill="white" stroke="black" points="723.5,-1147.5 723.5,-1177.5 869.5,-1177.5 869.5,-1147.5 723.5,-1147.5"/>
<text text-anchor="start" x="731.5" y="-1165.5" font-family="Helvetica,sans-Serif" font-size="10.00">Functions::Q1WedgeFunction</text>
<text text-anchor="middle" x="796.5" y="-1154.5" font-family="Helvetica,sans-Serif" font-size="10.00">&lt; dim &gt;</text>
</a>
</g>
</g>
<!-- Node27&#45;&gt;Node61 -->
<g id="edge48" class="edge">
<title>Node27&#45;&gt;Node61</title>
<path fill="none" stroke="midnightblue" d="M525.61,-973.68C541.08,-1001.51 569.53,-1047.26 604,-1077.5 643.1,-1111.81 698.27,-1134.31 739.36,-1147.49"/>
<polygon fill="midnightblue" stroke="midnightblue" points="528.55,-971.75 520.7,-964.64 522.4,-975.1 528.55,-971.75"/>
</g>
<!-- Node62 -->
<g id="node47" class="node">
<title>Node62</title>
<g id="a_node47"><a xlink:href="classFunctions_1_1SlitSingularityFunction.html" target="_top" xlink:title=" ">
<polygon fill="white" stroke="black" points="734,-1098.5 734,-1128.5 859,-1128.5 859,-1098.5 734,-1098.5"/>
<text text-anchor="start" x="742" y="-1116.5" font-family="Helvetica,sans-Serif" font-size="10.00">Functions::SlitSingularity</text>
<text text-anchor="middle" x="796.5" y="-1105.5" font-family="Helvetica,sans-Serif" font-size="10.00">Function&lt; dim &gt;</text>
</a>
</g>
</g>
<!-- Node27&#45;&gt;Node62 -->
<g id="edge49" class="edge">
<title>Node27&#45;&gt;Node62</title>
<path fill="none" stroke="midnightblue" d="M531.61,-972.57C548.73,-992.62 575.69,-1021.37 604,-1040.5 644.25,-1067.69 696.02,-1086.63 735.58,-1098.4"/>
<polygon fill="midnightblue" stroke="midnightblue" points="534.22,-970.24 525.11,-964.83 528.86,-974.74 534.22,-970.24"/>
</g>
<!-- Node63 -->
<g id="node48" class="node">
<title>Node63</title>
<g id="a_node48"><a xlink:href="classFunctions_1_1Spherical.html" target="_top" xlink:title=" ">
<polygon fill="white" stroke="black" points="743.5,-1049.5 743.5,-1079.5 849.5,-1079.5 849.5,-1049.5 743.5,-1049.5"/>
<text text-anchor="start" x="751.5" y="-1067.5" font-family="Helvetica,sans-Serif" font-size="10.00">Functions::Spherical</text>
<text text-anchor="middle" x="796.5" y="-1056.5" font-family="Helvetica,sans-Serif" font-size="10.00">&lt; dim &gt;</text>
</a>
</g>
</g>
<!-- Node27&#45;&gt;Node63 -->
<g id="edge50" class="edge">
<title>Node27&#45;&gt;Node63</title>
<path fill="none" stroke="midnightblue" d="M540.26,-970.65C557.7,-983.35 581.25,-999.03 604,-1009.5 649.09,-1030.25 703.8,-1045.02 743.18,-1053.99"/>
<polygon fill="midnightblue" stroke="midnightblue" points="542.34,-967.83 532.22,-964.68 538.17,-973.45 542.34,-967.83"/>
</g>
<!-- Node46&#45;&gt;Node28 -->
<g id="edge35" class="edge">
<title>Node46&#45;&gt;Node28</title>
<path fill="none" stroke="orange" stroke-dasharray="5,2" d="M868.79,-1008.09C896.43,-1005.22 928.05,-1001.94 955.82,-999.05"/>
<polygon fill="orange" stroke="orange" points="868.38,-1004.62 858.8,-1009.13 869.11,-1011.58 868.38,-1004.62"/>
<text text-anchor="middle" x="905.5" y="-1009.5" font-family="Helvetica,sans-Serif" font-size="10.00"> &lt; 2 &gt;</text>
</g>
<!-- Node65&#45;&gt;Node21 -->
<g id="edge55" class="edge">
<title>Node65&#45;&gt;Node21</title>
<path fill="none" stroke="orange" stroke-dasharray="5,2" d="M573.1,-132.71C583.38,-129.85 593.97,-127 604,-124.5 651.83,-112.56 706.92,-100.99 745.69,-93.21"/>
<polygon fill="orange" stroke="orange" points="572.05,-129.37 563.38,-135.45 573.95,-136.11 572.05,-129.37"/>
<text text-anchor="middle" x="652.5" y="-127.5" font-family="Helvetica,sans-Serif" font-size="10.00"> &lt; 1, dim, double &gt;</text>
</g>
<!-- Node65&#45;&gt;Node22 -->
<g id="edge56" class="edge">
<title>Node65&#45;&gt;Node22</title>
<path fill="none" stroke="orange" stroke-dasharray="5,2" d="M579.27,-146.28C627.95,-143.18 693.37,-139.01 739.46,-136.07"/>
<polygon fill="orange" stroke="orange" points="578.91,-142.79 569.15,-146.92 579.35,-149.78 578.91,-142.79"/>
<text text-anchor="middle" x="652.5" y="-148.5" font-family="Helvetica,sans-Serif" font-size="10.00"> &lt; rank, dim, double &gt;</text>
</g>
</g>
</svg>
