<?xml version="1.0" encoding="UTF-8" standalone="no"?>
<!DOCTYPE svg PUBLIC "-//W3C//DTD SVG 1.1//EN"
 "http://www.w3.org/Graphics/SVG/1.1/DTD/svg11.dtd">
<!-- Generated by graphviz version 2.47.1 (20210417.1919)
 -->
<!-- Title: Polynomials::Hierarchical Pages: 1 -->
<svg width="208pt" height="231pt"
 viewBox="0.00 0.00 208.00 231.00" xmlns="http://www.w3.org/2000/svg" xmlns:xlink="http://www.w3.org/1999/xlink">
<g id="graph0" class="graph" transform="scale(1 1) rotate(0) translate(4 227)">
<title>Polynomials::Hierarchical</title>
<polygon fill="white" stroke="transparent" points="-4,4 -4,-227 204,-227 204,4 -4,4"/>
<!-- Node1 -->
<g id="node1" class="node">
<title>Node1</title>
<g id="a_node1"><a xlink:title=" ">
<polygon fill="#bfbfbf" stroke="black" points="0,-0.5 0,-19.5 128,-19.5 128,-0.5 0,-0.5"/>
<text text-anchor="middle" x="64" y="-7.5" font-family="Helvetica,sans-Serif" font-size="10.00">Polynomials::Hierarchical</text>
</a>
</g>
</g>
<!-- Node2 -->
<g id="node2" class="node">
<title>Node2</title>
<g id="a_node2"><a xlink:href="classPolynomials_1_1Polynomial.html" target="_top" xlink:title=" ">
<polygon fill="white" stroke="black" points="2,-57.5 2,-87.5 126,-87.5 126,-57.5 2,-57.5"/>
<text text-anchor="start" x="10" y="-75.5" font-family="Helvetica,sans-Serif" font-size="10.00">Polynomials::Polynomial</text>
<text text-anchor="middle" x="64" y="-64.5" font-family="Helvetica,sans-Serif" font-size="10.00">&lt; double &gt;</text>
</a>
</g>
</g>
<!-- Node2&#45;&gt;Node1 -->
<g id="edge1" class="edge">
<title>Node2&#45;&gt;Node1</title>
<path fill="none" stroke="midnightblue" d="M64,-47.35C64,-37.51 64,-26.78 64,-19.54"/>
<polygon fill="midnightblue" stroke="midnightblue" points="60.5,-47.47 64,-57.47 67.5,-47.47 60.5,-47.47"/>
</g>
<!-- Node3 -->
<g id="node3" class="node">
<title>Node3</title>
<g id="a_node3"><a xlink:href="classSubscriptor.html" target="_top" xlink:title=" ">
<polygon fill="white" stroke="black" points="27,-203.5 27,-222.5 93,-222.5 93,-203.5 27,-203.5"/>
<text text-anchor="middle" x="60" y="-210.5" font-family="Helvetica,sans-Serif" font-size="10.00">Subscriptor</text>
</a>
</g>
</g>
<!-- Node3&#45;&gt;Node2 -->
<g id="edge2" class="edge">
<title>Node3&#45;&gt;Node2</title>
<path fill="none" stroke="midnightblue" d="M60.54,-193.25C61.35,-165.19 62.86,-112.88 63.59,-87.73"/>
<polygon fill="midnightblue" stroke="midnightblue" points="57.04,-193.24 60.25,-203.34 64.04,-193.44 57.04,-193.24"/>
</g>
<!-- Node4 -->
<g id="node4" class="node">
<title>Node4</title>
<g id="a_node4"><a xlink:href="classPolynomials_1_1Polynomial.html" target="_top" xlink:title=" ">
<polygon fill="white" stroke="black" points="76,-135.5 76,-165.5 200,-165.5 200,-135.5 76,-135.5"/>
<text text-anchor="start" x="84" y="-153.5" font-family="Helvetica,sans-Serif" font-size="10.00">Polynomials::Polynomial</text>
<text text-anchor="middle" x="138" y="-142.5" font-family="Helvetica,sans-Serif" font-size="10.00">&lt; number &gt;</text>
</a>
</g>
</g>
<!-- Node3&#45;&gt;Node4 -->
<g id="edge4" class="edge">
<title>Node3&#45;&gt;Node4</title>
<path fill="none" stroke="midnightblue" d="M79.11,-197.18C91.55,-187.53 107.68,-175.01 119.92,-165.53"/>
<polygon fill="midnightblue" stroke="midnightblue" points="76.93,-194.44 71.18,-203.33 81.22,-199.97 76.93,-194.44"/>
</g>
<!-- Node4&#45;&gt;Node2 -->
<g id="edge3" class="edge">
<title>Node4&#45;&gt;Node2</title>
<path fill="none" stroke="orange" stroke-dasharray="5,2" d="M117.1,-128.03C104.54,-115.13 88.9,-99.07 77.86,-87.73"/>
<polygon fill="orange" stroke="orange" points="114.6,-130.48 124.08,-135.2 119.61,-125.6 114.6,-130.48"/>
<text text-anchor="middle" x="130" y="-109" font-family="Helvetica,sans-Serif" font-size="10.00"> &lt; double &gt;</text>
</g>
</g>
</svg>
