<?xml version="1.0" encoding="UTF-8" standalone="no"?>
<!DOCTYPE svg PUBLIC "-//W3C//DTD SVG 1.1//EN"
 "http://www.w3.org/Graphics/SVG/1.1/DTD/svg11.dtd">
<!-- Generated by graphviz version 2.47.1 (20210417.1919)
 -->
<!-- Title: VectorizedArrayBase&lt; T, width &gt; Pages: 1 -->
<svg width="222pt" height="274pt"
 viewBox="0.00 0.00 221.50 274.00" xmlns="http://www.w3.org/2000/svg" xmlns:xlink="http://www.w3.org/1999/xlink">
<g id="graph0" class="graph" transform="scale(1 1) rotate(0) translate(4 270)">
<title>VectorizedArrayBase&lt; T, width &gt;</title>
<polygon fill="white" stroke="transparent" points="-4,4 -4,-270 217.5,-270 217.5,4 -4,4"/>
<!-- Node1 -->
<g id="node1" class="node">
<title>Node1</title>
<g id="a_node1"><a xlink:title=" ">
<polygon fill="#bfbfbf" stroke="black" points="28,-235.5 28,-265.5 137,-265.5 137,-235.5 28,-235.5"/>
<text text-anchor="start" x="36" y="-253.5" font-family="Helvetica,sans-Serif" font-size="10.00">VectorizedArrayBase</text>
<text text-anchor="middle" x="82.5" y="-242.5" font-family="Helvetica,sans-Serif" font-size="10.00">&lt; T, width &gt;</text>
</a>
</g>
</g>
<!-- Node2 -->
<g id="node2" class="node">
<title>Node2</title>
<g id="a_node2"><a xlink:href="classVectorizedArrayBase.html" target="_top" xlink:title=" ">
<polygon fill="white" stroke="black" points="12,-135.5 12,-176.5 153,-176.5 153,-135.5 12,-135.5"/>
<text text-anchor="start" x="20" y="-164.5" font-family="Helvetica,sans-Serif" font-size="10.00">VectorizedArrayBase</text>
<text text-anchor="start" x="20" y="-153.5" font-family="Helvetica,sans-Serif" font-size="10.00">&lt; VectorizedArray&lt; Number,</text>
<text text-anchor="middle" x="82.5" y="-142.5" font-family="Helvetica,sans-Serif" font-size="10.00"> width &gt;, 1 &gt;</text>
</a>
</g>
</g>
<!-- Node1&#45;&gt;Node2 -->
<g id="edge1" class="edge">
<title>Node1&#45;&gt;Node2</title>
<path fill="none" stroke="orange" stroke-dasharray="5,2" d="M82.5,-225.28C82.5,-210.14 82.5,-190.88 82.5,-176.68"/>
<polygon fill="orange" stroke="orange" points="79,-225.45 82.5,-235.45 86,-225.45 79,-225.45"/>
<text text-anchor="start" x="82.5" y="-209" font-family="Helvetica,sans-Serif" font-size="10.00"> &lt; VectorizedArray&lt;</text>
<text text-anchor="middle" x="130.5" y="-198" font-family="Helvetica,sans-Serif" font-size="10.00"> Number, width &gt;, 1 &gt;</text>
</g>
<!-- Node3 -->
<g id="node3" class="node">
<title>Node3</title>
<g id="a_node3"><a xlink:href="classVectorizedArray.html" target="_top" xlink:title=" ">
<polygon fill="white" stroke="black" points="0,-0.5 0,-19.5 139,-19.5 139,-0.5 0,-0.5"/>
<text text-anchor="middle" x="69.5" y="-7.5" font-family="Helvetica,sans-Serif" font-size="10.00">VectorizedArray&lt; Number &gt;</text>
</a>
</g>
</g>
<!-- Node2&#45;&gt;Node3 -->
<g id="edge2" class="edge">
<title>Node2&#45;&gt;Node3</title>
<path fill="none" stroke="midnightblue" d="M76.52,-125.48C74.95,-116.67 73.44,-106.98 72.5,-98 69.52,-69.44 69.31,-35.35 69.4,-19.67"/>
<polygon fill="midnightblue" stroke="midnightblue" points="73.07,-126.12 78.35,-135.31 79.96,-124.84 73.07,-126.12"/>
</g>
<!-- Node4 -->
<g id="node4" class="node">
<title>Node4</title>
<g id="a_node4"><a xlink:href="classVectorizedArray.html" target="_top" xlink:title=" ">
<polygon fill="white" stroke="black" points="81.5,-67.5 81.5,-97.5 213.5,-97.5 213.5,-67.5 81.5,-67.5"/>
<text text-anchor="start" x="89.5" y="-85.5" font-family="Helvetica,sans-Serif" font-size="10.00">VectorizedArray&lt; Number,</text>
<text text-anchor="middle" x="147.5" y="-74.5" font-family="Helvetica,sans-Serif" font-size="10.00"> width &gt;</text>
</a>
</g>
</g>
<!-- Node2&#45;&gt;Node4 -->
<g id="edge3" class="edge">
<title>Node2&#45;&gt;Node4</title>
<path fill="none" stroke="midnightblue" d="M107.15,-127.89C116.45,-117.65 126.68,-106.41 134.5,-97.8"/>
<polygon fill="midnightblue" stroke="midnightblue" points="104.4,-125.71 100.26,-135.46 109.58,-130.42 104.4,-125.71"/>
</g>
<!-- Node4&#45;&gt;Node3 -->
<g id="edge4" class="edge">
<title>Node4&#45;&gt;Node3</title>
<path fill="none" stroke="orange" stroke-dasharray="5,2" d="M124.28,-60.51C109.29,-46.96 90.56,-30.03 79.34,-19.89"/>
<polygon fill="orange" stroke="orange" points="121.95,-63.12 131.72,-67.23 126.64,-57.93 121.95,-63.12"/>
<text text-anchor="middle" x="138.5" y="-41" font-family="Helvetica,sans-Serif" font-size="10.00"> &lt; Number &gt;</text>
</g>
</g>
</svg>
