<?xml version="1.0" encoding="UTF-8" standalone="no"?>
<!DOCTYPE svg PUBLIC "-//W3C//DTD SVG 1.1//EN"
 "http://www.w3.org/Graphics/SVG/1.1/DTD/svg11.dtd">
<!-- Generated by graphviz version 2.47.1 (20210417.1919)
 -->
<!-- Title: ScalarPolynomialsBase&lt; dim &gt; Pages: 1 -->
<svg width="538pt" height="620pt"
 viewBox="0.00 0.00 538.00 620.13" xmlns="http://www.w3.org/2000/svg" xmlns:xlink="http://www.w3.org/1999/xlink">
<g id="graph0" class="graph" transform="scale(1 1) rotate(0) translate(4 616.13)">
<title>ScalarPolynomialsBase&lt; dim &gt;</title>
<polygon fill="white" stroke="transparent" points="-4,4 -4,-616.13 534,-616.13 534,4 -4,4"/>
<!-- Node1 -->
<g id="node1" class="node">
<title>Node1</title>
<g id="a_node1"><a xlink:title=" ">
<polygon fill="#bfbfbf" stroke="black" points="0,-308.5 0,-338.5 120,-338.5 120,-308.5 0,-308.5"/>
<text text-anchor="start" x="8" y="-326.5" font-family="Helvetica,sans-Serif" font-size="10.00">ScalarPolynomialsBase</text>
<text text-anchor="middle" x="60" y="-315.5" font-family="Helvetica,sans-Serif" font-size="10.00">&lt; dim &gt;</text>
</a>
</g>
</g>
<!-- Node2 -->
<g id="node2" class="node">
<title>Node2</title>
<g id="a_node2"><a xlink:href="classBarycentricPolynomials.html" target="_top" xlink:title=" ">
<polygon fill="white" stroke="black" points="387,-511 387,-530 530,-530 530,-511 387,-511"/>
<text text-anchor="middle" x="458.5" y="-518" font-family="Helvetica,sans-Serif" font-size="10.00">BarycentricPolynomials&lt; 1 &gt;</text>
</a>
</g>
</g>
<!-- Node1&#45;&gt;Node2 -->
<g id="edge1" class="edge">
<title>Node1&#45;&gt;Node2</title>
<path fill="none" stroke="midnightblue" d="M68.46,-348.1C80.6,-383.31 108.31,-446.87 157,-474.5 228.03,-514.81 323,-523.19 387,-523.52"/>
<polygon fill="midnightblue" stroke="midnightblue" points="71.77,-346.97 65.31,-338.57 65.12,-349.16 71.77,-346.97"/>
</g>
<!-- Node3 -->
<g id="node3" class="node">
<title>Node3</title>
<g id="a_node3"><a xlink:href="classBarycentricPolynomials.html" target="_top" xlink:title=" ">
<polygon fill="white" stroke="black" points="387,-577 387,-596 530,-596 530,-577 387,-577"/>
<text text-anchor="middle" x="458.5" y="-584" font-family="Helvetica,sans-Serif" font-size="10.00">BarycentricPolynomials&lt; 2 &gt;</text>
</a>
</g>
</g>
<!-- Node1&#45;&gt;Node3 -->
<g id="edge2" class="edge">
<title>Node1&#45;&gt;Node3</title>
<path fill="none" stroke="midnightblue" d="M61.79,-348.83C64.98,-401.72 80.68,-523.33 157,-575.5 238.45,-631.18 363.43,-610.64 423.26,-596.08"/>
<polygon fill="midnightblue" stroke="midnightblue" points="65.28,-348.44 61.28,-338.63 58.29,-348.79 65.28,-348.44"/>
</g>
<!-- Node4 -->
<g id="node4" class="node">
<title>Node4</title>
<g id="a_node4"><a xlink:href="classPolynomialSpace.html" target="_top" xlink:title=" ">
<polygon fill="white" stroke="black" points="400,-423.5 400,-453.5 517,-453.5 517,-423.5 400,-423.5"/>
<text text-anchor="start" x="408" y="-441.5" font-family="Helvetica,sans-Serif" font-size="10.00">PolynomialSpace&lt; dim</text>
<text text-anchor="middle" x="458.5" y="-430.5" font-family="Helvetica,sans-Serif" font-size="10.00"> &#45; 1 &gt;</text>
</a>
</g>
</g>
<!-- Node1&#45;&gt;Node4 -->
<g id="edge3" class="edge">
<title>Node1&#45;&gt;Node4</title>
<path fill="none" stroke="midnightblue" d="M71.41,-348.25C85.68,-378.56 114.49,-428.45 157,-449.5 238.52,-489.87 348.29,-470.19 410.08,-453.5"/>
<polygon fill="midnightblue" stroke="midnightblue" points="74.44,-346.46 67.13,-338.79 68.06,-349.35 74.44,-346.46"/>
</g>
<!-- Node5 -->
<g id="node5" class="node">
<title>Node5</title>
<g id="a_node5"><a xlink:href="classTensorProductPolynomials.html" target="_top" xlink:title=" ">
<polygon fill="white" stroke="black" points="392,-311.5 392,-341.5 525,-341.5 525,-311.5 392,-311.5"/>
<text text-anchor="start" x="400" y="-329.5" font-family="Helvetica,sans-Serif" font-size="10.00">TensorProductPolynomials</text>
<text text-anchor="middle" x="458.5" y="-318.5" font-family="Helvetica,sans-Serif" font-size="10.00">&lt; dim &#45; 1 &gt;</text>
</a>
</g>
</g>
<!-- Node1&#45;&gt;Node5 -->
<g id="edge4" class="edge">
<title>Node1&#45;&gt;Node5</title>
<path fill="none" stroke="midnightblue" d="M130.27,-328.43C133.22,-328.48 136.14,-328.51 139,-328.5 226.51,-328.23 327.53,-327.53 391.93,-327.03"/>
<polygon fill="midnightblue" stroke="midnightblue" points="130.27,-324.93 120.17,-328.13 130.07,-331.92 130.27,-324.93"/>
</g>
<!-- Node6 -->
<g id="node6" class="node">
<title>Node6</title>
<g id="a_node6"><a xlink:href="classAnisotropicPolynomials.html" target="_top" xlink:title=" ">
<polygon fill="white" stroke="black" points="168.5,-409.5 168.5,-439.5 287.5,-439.5 287.5,-409.5 168.5,-409.5"/>
<text text-anchor="start" x="176.5" y="-427.5" font-family="Helvetica,sans-Serif" font-size="10.00">AnisotropicPolynomials</text>
<text text-anchor="middle" x="228" y="-416.5" font-family="Helvetica,sans-Serif" font-size="10.00">&lt; dim &gt;</text>
</a>
</g>
</g>
<!-- Node1&#45;&gt;Node6 -->
<g id="edge5" class="edge">
<title>Node1&#45;&gt;Node6</title>
<path fill="none" stroke="midnightblue" d="M84.44,-345.68C102.98,-362.28 130.12,-384.59 157,-399.5 163.66,-403.19 170.97,-406.51 178.27,-409.43"/>
<polygon fill="midnightblue" stroke="midnightblue" points="86.56,-342.87 76.81,-338.73 81.85,-348.05 86.56,-342.87"/>
</g>
<!-- Node7 -->
<g id="node7" class="node">
<title>Node7</title>
<g id="a_node7"><a xlink:href="classBarycentricPolynomials.html" target="_top" xlink:title=" ">
<polygon fill="white" stroke="black" points="168.5,-535.5 168.5,-565.5 287.5,-565.5 287.5,-535.5 168.5,-535.5"/>
<text text-anchor="start" x="176.5" y="-553.5" font-family="Helvetica,sans-Serif" font-size="10.00">BarycentricPolynomials</text>
<text text-anchor="middle" x="228" y="-542.5" font-family="Helvetica,sans-Serif" font-size="10.00">&lt; dim &gt;</text>
</a>
</g>
</g>
<!-- Node1&#45;&gt;Node7 -->
<g id="edge6" class="edge">
<title>Node1&#45;&gt;Node7</title>
<path fill="none" stroke="midnightblue" d="M64,-348.83C70.25,-390.42 88.48,-473.28 138,-520.5 146.5,-528.6 157.25,-534.52 168.33,-538.84"/>
<polygon fill="midnightblue" stroke="midnightblue" points="67.44,-348.14 62.6,-338.72 60.51,-349.11 67.44,-348.14"/>
</g>
<!-- Node8 -->
<g id="node8" class="node">
<title>Node8</title>
<g id="a_node8"><a xlink:href="classPolynomialSpace.html" target="_top" xlink:title=" ">
<polygon fill="white" stroke="black" points="165,-371 165,-390 291,-390 291,-371 165,-371"/>
<text text-anchor="middle" x="228" y="-378" font-family="Helvetica,sans-Serif" font-size="10.00">PolynomialSpace&lt; dim &gt;</text>
</a>
</g>
</g>
<!-- Node1&#45;&gt;Node8 -->
<g id="edge9" class="edge">
<title>Node1&#45;&gt;Node8</title>
<path fill="none" stroke="midnightblue" d="M102.48,-342.55C113.86,-347.43 126.3,-352.44 138,-356.5 153.72,-361.96 171.36,-366.94 186.76,-370.94"/>
<polygon fill="midnightblue" stroke="midnightblue" points="103.76,-339.29 93.2,-338.5 100.96,-345.71 103.76,-339.29"/>
</g>
<!-- Node10 -->
<g id="node10" class="node">
<title>Node10</title>
<g id="a_node10"><a xlink:href="classPolynomialsAdini.html" target="_top" xlink:title=" ">
<polygon fill="white" stroke="black" points="165.5,-295 165.5,-314 290.5,-314 290.5,-295 165.5,-295"/>
<text text-anchor="middle" x="228" y="-302" font-family="Helvetica,sans-Serif" font-size="10.00">PolynomialsAdini&lt; dim &gt;</text>
</a>
</g>
</g>
<!-- Node1&#45;&gt;Node10 -->
<g id="edge12" class="edge">
<title>Node1&#45;&gt;Node10</title>
<path fill="none" stroke="midnightblue" d="M130.53,-315.54C142.12,-314.22 154.06,-312.85 165.44,-311.55"/>
<polygon fill="midnightblue" stroke="midnightblue" points="130,-312.08 120.46,-316.69 130.79,-319.03 130,-312.08"/>
</g>
<!-- Node11 -->
<g id="node11" class="node">
<title>Node11</title>
<g id="a_node11"><a xlink:href="classPolynomialsRannacherTurek.html" target="_top" xlink:title=" ">
<polygon fill="white" stroke="black" points="157,-245.5 157,-275.5 299,-275.5 299,-245.5 157,-245.5"/>
<text text-anchor="start" x="165" y="-263.5" font-family="Helvetica,sans-Serif" font-size="10.00">PolynomialsRannacherTurek</text>
<text text-anchor="middle" x="228" y="-252.5" font-family="Helvetica,sans-Serif" font-size="10.00">&lt; dim &gt;</text>
</a>
</g>
</g>
<!-- Node1&#45;&gt;Node11 -->
<g id="edge13" class="edge">
<title>Node1&#45;&gt;Node11</title>
<path fill="none" stroke="midnightblue" d="M107.72,-304.64C123.35,-298.43 140.88,-291.57 157,-285.5 165.7,-282.23 175.04,-278.82 183.97,-275.61"/>
<polygon fill="midnightblue" stroke="midnightblue" points="106.26,-301.45 98.27,-308.41 108.86,-307.95 106.26,-301.45"/>
</g>
<!-- Node12 -->
<g id="node12" class="node">
<title>Node12</title>
<g id="a_node12"><a xlink:href="classScalarLagrangePolynomialPyramid.html" target="_top" xlink:title=" ">
<polygon fill="white" stroke="black" points="162,-196.5 162,-226.5 294,-226.5 294,-196.5 162,-196.5"/>
<text text-anchor="start" x="170" y="-214.5" font-family="Helvetica,sans-Serif" font-size="10.00">ScalarLagrangePolynomial</text>
<text text-anchor="middle" x="228" y="-203.5" font-family="Helvetica,sans-Serif" font-size="10.00">Pyramid&lt; dim &gt;</text>
</a>
</g>
</g>
<!-- Node1&#45;&gt;Node12 -->
<g id="edge14" class="edge">
<title>Node1&#45;&gt;Node12</title>
<path fill="none" stroke="midnightblue" d="M81.12,-300.81C99.31,-281.46 127.66,-254.07 157,-236.5 163.2,-232.79 170.04,-229.5 176.94,-226.64"/>
<polygon fill="midnightblue" stroke="midnightblue" points="78.41,-298.58 74.2,-308.3 83.56,-303.33 78.41,-298.58"/>
</g>
<!-- Node13 -->
<g id="node13" class="node">
<title>Node13</title>
<g id="a_node13"><a xlink:href="classScalarLagrangePolynomialWedge.html" target="_top" xlink:title=" ">
<polygon fill="white" stroke="black" points="162,-147.5 162,-177.5 294,-177.5 294,-147.5 162,-147.5"/>
<text text-anchor="start" x="170" y="-165.5" font-family="Helvetica,sans-Serif" font-size="10.00">ScalarLagrangePolynomial</text>
<text text-anchor="middle" x="228" y="-154.5" font-family="Helvetica,sans-Serif" font-size="10.00">Wedge&lt; dim &gt;</text>
</a>
</g>
</g>
<!-- Node1&#45;&gt;Node13 -->
<g id="edge15" class="edge">
<title>Node1&#45;&gt;Node13</title>
<path fill="none" stroke="midnightblue" d="M72.35,-299.08C87.57,-268.83 117.33,-217.63 157,-187.5 162.04,-183.68 167.71,-180.4 173.59,-177.6"/>
<polygon fill="midnightblue" stroke="midnightblue" points="69.18,-297.59 67.92,-308.11 75.46,-300.67 69.18,-297.59"/>
</g>
<!-- Node14 -->
<g id="node14" class="node">
<title>Node14</title>
<g id="a_node14"><a xlink:href="classTensorProductPolynomials.html" target="_top" xlink:title=" ">
<polygon fill="white" stroke="black" points="161.5,-98.5 161.5,-128.5 294.5,-128.5 294.5,-98.5 161.5,-98.5"/>
<text text-anchor="start" x="169.5" y="-116.5" font-family="Helvetica,sans-Serif" font-size="10.00">TensorProductPolynomials</text>
<text text-anchor="middle" x="228" y="-105.5" font-family="Helvetica,sans-Serif" font-size="10.00">&lt; dim, PolynomialType &gt;</text>
</a>
</g>
</g>
<!-- Node1&#45;&gt;Node14 -->
<g id="edge16" class="edge">
<title>Node1&#45;&gt;Node14</title>
<path fill="none" stroke="midnightblue" d="M67.5,-298.59C79.02,-259.18 106.68,-182.42 157,-138.5 161.38,-134.68 166.37,-131.43 171.64,-128.67"/>
<polygon fill="midnightblue" stroke="midnightblue" points="64.07,-297.86 64.73,-308.43 70.81,-299.75 64.07,-297.86"/>
</g>
<!-- Node15 -->
<g id="node15" class="node">
<title>Node15</title>
<g id="a_node15"><a xlink:href="classTensorProductPolynomialsBubbles.html" target="_top" xlink:title=" ">
<polygon fill="white" stroke="black" points="161.5,-49.5 161.5,-79.5 294.5,-79.5 294.5,-49.5 161.5,-49.5"/>
<text text-anchor="start" x="169.5" y="-67.5" font-family="Helvetica,sans-Serif" font-size="10.00">TensorProductPolynomials</text>
<text text-anchor="middle" x="228" y="-56.5" font-family="Helvetica,sans-Serif" font-size="10.00">Bubbles&lt; dim &gt;</text>
</a>
</g>
</g>
<!-- Node1&#45;&gt;Node15 -->
<g id="edge18" class="edge">
<title>Node1&#45;&gt;Node15</title>
<path fill="none" stroke="midnightblue" d="M64.5,-298.23C72.39,-250.77 95.86,-147.87 157,-89.5 161.01,-85.67 165.65,-82.42 170.6,-79.66"/>
<polygon fill="midnightblue" stroke="midnightblue" points="61.02,-297.84 62.94,-308.26 67.94,-298.92 61.02,-297.84"/>
</g>
<!-- Node16 -->
<g id="node16" class="node">
<title>Node16</title>
<g id="a_node16"><a xlink:href="classTensorProductPolynomialsConst.html" target="_top" xlink:title=" ">
<polygon fill="white" stroke="black" points="161.5,-0.5 161.5,-30.5 294.5,-30.5 294.5,-0.5 161.5,-0.5"/>
<text text-anchor="start" x="169.5" y="-18.5" font-family="Helvetica,sans-Serif" font-size="10.00">TensorProductPolynomials</text>
<text text-anchor="middle" x="228" y="-7.5" font-family="Helvetica,sans-Serif" font-size="10.00">Const&lt; dim &gt;</text>
</a>
</g>
</g>
<!-- Node1&#45;&gt;Node16 -->
<g id="edge19" class="edge">
<title>Node1&#45;&gt;Node16</title>
<path fill="none" stroke="midnightblue" d="M62.43,-298.06C66.86,-243.41 84.82,-113.84 157,-40.5 160.8,-36.64 165.24,-33.37 170,-30.6"/>
<polygon fill="midnightblue" stroke="midnightblue" points="58.93,-298.01 61.7,-308.24 65.91,-298.52 58.93,-298.01"/>
</g>
<!-- Node7&#45;&gt;Node2 -->
<g id="edge7" class="edge">
<title>Node7&#45;&gt;Node2</title>
<path fill="none" stroke="orange" stroke-dasharray="5,2" d="M297.72,-541.48C325.9,-537.78 358.51,-533.5 386.88,-529.77"/>
<polygon fill="orange" stroke="orange" points="297.01,-538.04 287.55,-542.81 297.92,-544.98 297.01,-538.04"/>
<text text-anchor="middle" x="343" y="-540.5" font-family="Helvetica,sans-Serif" font-size="10.00"> &lt; 1 &gt;</text>
</g>
<!-- Node7&#45;&gt;Node3 -->
<g id="edge8" class="edge">
<title>Node7&#45;&gt;Node3</title>
<path fill="none" stroke="orange" stroke-dasharray="5,2" d="M297.62,-561.31C329.28,-566.3 366.53,-572.17 397.11,-576.99"/>
<polygon fill="orange" stroke="orange" points="297.97,-557.82 287.55,-559.72 296.88,-564.74 297.97,-557.82"/>
<text text-anchor="middle" x="343" y="-574.5" font-family="Helvetica,sans-Serif" font-size="10.00"> &lt; 2 &gt;</text>
</g>
<!-- Node8&#45;&gt;Node4 -->
<g id="edge11" class="edge">
<title>Node8&#45;&gt;Node4</title>
<path fill="none" stroke="orange" stroke-dasharray="5,2" d="M276.22,-392.48C312.1,-401.59 361.64,-414.17 399.87,-423.87"/>
<polygon fill="orange" stroke="orange" points="277.03,-389.08 266.48,-390.01 275.31,-395.87 277.03,-389.08"/>
<text text-anchor="middle" x="343" y="-417.5" font-family="Helvetica,sans-Serif" font-size="10.00"> &lt; dim &#45; 1 &gt;</text>
</g>
<!-- Node9 -->
<g id="node9" class="node">
<title>Node9</title>
<g id="a_node9"><a xlink:href="classPolynomialsP.html" target="_top" xlink:title=" ">
<polygon fill="white" stroke="black" points="403.5,-371 403.5,-390 513.5,-390 513.5,-371 403.5,-371"/>
<text text-anchor="middle" x="458.5" y="-378" font-family="Helvetica,sans-Serif" font-size="10.00">PolynomialsP&lt; dim &gt;</text>
</a>
</g>
</g>
<!-- Node8&#45;&gt;Node9 -->
<g id="edge10" class="edge">
<title>Node8&#45;&gt;Node9</title>
<path fill="none" stroke="midnightblue" d="M301.19,-380.5C334.2,-380.5 372.65,-380.5 403.15,-380.5"/>
<polygon fill="midnightblue" stroke="midnightblue" points="301.14,-377 291.14,-380.5 301.14,-384 301.14,-377"/>
</g>
<!-- Node14&#45;&gt;Node5 -->
<g id="edge17" class="edge">
<title>Node14&#45;&gt;Node5</title>
<path fill="none" stroke="orange" stroke-dasharray="5,2" d="M290.02,-132.99C293.14,-134.69 296.16,-136.53 299,-138.5 369.85,-187.67 427.57,-276.29 448.77,-311.5"/>
<polygon fill="orange" stroke="orange" points="291.52,-129.83 281.01,-128.54 288.42,-136.1 291.52,-129.83"/>
<text text-anchor="middle" x="343" y="-204.5" font-family="Helvetica,sans-Serif" font-size="10.00"> &lt; dim &#45; 1 &gt;</text>
</g>
</g>
</svg>
