<?xml version="1.0" encoding="UTF-8" standalone="no"?>
<!DOCTYPE svg PUBLIC "-//W3C//DTD SVG 1.1//EN"
 "http://www.w3.org/Graphics/SVG/1.1/DTD/svg11.dtd">
<!-- Generated by graphviz version 2.47.1 (20210417.1919)
 -->
<!-- Title: mg::Matrix&lt; VectorType &gt; Pages: 1 -->
<svg width="235pt" height="220pt"
 viewBox="0.00 0.00 235.00 220.00" xmlns="http://www.w3.org/2000/svg" xmlns:xlink="http://www.w3.org/1999/xlink">
<g id="graph0" class="graph" transform="scale(1 1) rotate(0) translate(4 216)">
<title>mg::Matrix&lt; VectorType &gt;</title>
<polygon fill="white" stroke="transparent" points="-4,4 -4,-216 231,-216 231,4 -4,4"/>
<!-- Node1 -->
<g id="node1" class="node">
<title>Node1</title>
<g id="a_node1"><a xlink:title=" ">
<polygon fill="#bfbfbf" stroke="black" points="0,-0.5 0,-19.5 131,-19.5 131,-0.5 0,-0.5"/>
<text text-anchor="middle" x="65.5" y="-7.5" font-family="Helvetica,sans-Serif" font-size="10.00">mg::Matrix&lt; VectorType &gt;</text>
</a>
</g>
</g>
<!-- Node2 -->
<g id="node2" class="node">
<title>Node2</title>
<g id="a_node2"><a xlink:href="classMGMatrixBase.html" target="_top" xlink:title=" ">
<polygon fill="white" stroke="black" points="6,-57.5 6,-87.5 125,-87.5 125,-57.5 6,-57.5"/>
<text text-anchor="start" x="14" y="-75.5" font-family="Helvetica,sans-Serif" font-size="10.00">MGMatrixBase&lt; Vector</text>
<text text-anchor="middle" x="65.5" y="-64.5" font-family="Helvetica,sans-Serif" font-size="10.00">&lt; double &gt; &gt;</text>
</a>
</g>
</g>
<!-- Node2&#45;&gt;Node1 -->
<g id="edge1" class="edge">
<title>Node2&#45;&gt;Node1</title>
<path fill="none" stroke="midnightblue" d="M65.5,-47.35C65.5,-37.51 65.5,-26.78 65.5,-19.54"/>
<polygon fill="midnightblue" stroke="midnightblue" points="62,-47.47 65.5,-57.47 69,-47.47 62,-47.47"/>
</g>
<!-- Node3 -->
<g id="node3" class="node">
<title>Node3</title>
<g id="a_node3"><a xlink:href="classSubscriptor.html" target="_top" xlink:title=" ">
<polygon fill="white" stroke="black" points="28.5,-192.5 28.5,-211.5 94.5,-211.5 94.5,-192.5 28.5,-192.5"/>
<text text-anchor="middle" x="61.5" y="-199.5" font-family="Helvetica,sans-Serif" font-size="10.00">Subscriptor</text>
</a>
</g>
</g>
<!-- Node3&#45;&gt;Node2 -->
<g id="edge2" class="edge">
<title>Node3&#45;&gt;Node2</title>
<path fill="none" stroke="midnightblue" d="M62.1,-181.9C62.91,-156.05 64.34,-110.54 65.06,-87.59"/>
<polygon fill="midnightblue" stroke="midnightblue" points="58.59,-182.13 61.77,-192.24 65.59,-182.35 58.59,-182.13"/>
</g>
<!-- Node4 -->
<g id="node4" class="node">
<title>Node4</title>
<g id="a_node4"><a xlink:href="classMGMatrixBase.html" target="_top" xlink:title=" ">
<polygon fill="white" stroke="black" points="78,-135.5 78,-154.5 227,-154.5 227,-135.5 78,-135.5"/>
<text text-anchor="middle" x="152.5" y="-142.5" font-family="Helvetica,sans-Serif" font-size="10.00">MGMatrixBase&lt; VectorType &gt;</text>
</a>
</g>
</g>
<!-- Node3&#45;&gt;Node4 -->
<g id="edge4" class="edge">
<title>Node3&#45;&gt;Node4</title>
<path fill="none" stroke="midnightblue" d="M84.48,-187.11C101.45,-176.86 123.99,-163.23 138.38,-154.53"/>
<polygon fill="midnightblue" stroke="midnightblue" points="82.47,-184.24 75.72,-192.41 86.09,-190.23 82.47,-184.24"/>
</g>
<!-- Node4&#45;&gt;Node2 -->
<g id="edge3" class="edge">
<title>Node4&#45;&gt;Node2</title>
<path fill="none" stroke="orange" stroke-dasharray="5,2" d="M133.72,-128.78C118.63,-116.55 97.58,-99.5 82.87,-87.58"/>
<polygon fill="orange" stroke="orange" points="131.86,-131.78 141.83,-135.36 136.27,-126.34 131.86,-131.78"/>
<text text-anchor="middle" x="165" y="-109" font-family="Helvetica,sans-Serif" font-size="10.00"> &lt; Vector&lt; double &gt; &gt;</text>
</g>
</g>
</svg>
