<?xml version="1.0" encoding="UTF-8" standalone="no"?>
<!DOCTYPE svg PUBLIC "-//W3C//DTD SVG 1.1//EN"
 "http://www.w3.org/Graphics/SVG/1.1/DTD/svg11.dtd">
<!-- Generated by graphviz version 2.47.1 (20210417.1919)
 -->
<!-- Title: GinkgoWrappers::SolverBase&lt; ValueType, IndexType &gt; Pages: 1 -->
<svg width="617pt" height="284pt"
 viewBox="0.00 0.00 617.00 284.00" xmlns="http://www.w3.org/2000/svg" xmlns:xlink="http://www.w3.org/1999/xlink">
<g id="graph0" class="graph" transform="scale(1 1) rotate(0) translate(4 280)">
<title>GinkgoWrappers::SolverBase&lt; ValueType, IndexType &gt;</title>
<polygon fill="white" stroke="transparent" points="-4,4 -4,-280 613,-280 613,4 -4,4"/>
<!-- Node1 -->
<g id="node1" class="node">
<title>Node1</title>
<g id="a_node1"><a xlink:title=" ">
<polygon fill="#bfbfbf" stroke="black" points="0,-122.5 0,-152.5 145,-152.5 145,-122.5 0,-122.5"/>
<text text-anchor="start" x="8" y="-140.5" font-family="Helvetica,sans-Serif" font-size="10.00">GinkgoWrappers::SolverBase</text>
<text text-anchor="middle" x="72.5" y="-129.5" font-family="Helvetica,sans-Serif" font-size="10.00">&lt; ValueType, IndexType &gt;</text>
</a>
</g>
</g>
<!-- Node2 -->
<g id="node2" class="node">
<title>Node2</title>
<g id="a_node2"><a xlink:href="classGinkgoWrappers_1_1SolverBase.html" target="_top" xlink:title=" ">
<polygon fill="white" stroke="black" points="266,-122.5 266,-152.5 411,-152.5 411,-122.5 266,-122.5"/>
<text text-anchor="start" x="274" y="-140.5" font-family="Helvetica,sans-Serif" font-size="10.00">GinkgoWrappers::SolverBase</text>
<text text-anchor="middle" x="338.5" y="-129.5" font-family="Helvetica,sans-Serif" font-size="10.00">&lt; double, int32_t &gt;</text>
</a>
</g>
</g>
<!-- Node1&#45;&gt;Node2 -->
<g id="edge1" class="edge">
<title>Node1&#45;&gt;Node2</title>
<path fill="none" stroke="orange" stroke-dasharray="5,2" d="M155.56,-137.5C190.83,-137.5 231.68,-137.5 265.72,-137.5"/>
<polygon fill="orange" stroke="orange" points="155.29,-134 145.29,-137.5 155.29,-141 155.29,-134"/>
<text text-anchor="middle" x="205.5" y="-140.5" font-family="Helvetica,sans-Serif" font-size="10.00"> &lt; double, int32_t &gt;</text>
</g>
<!-- Node3 -->
<g id="node3" class="node">
<title>Node3</title>
<g id="a_node3"><a xlink:href="classGinkgoWrappers_1_1SolverBicgstab.html" target="_top" xlink:title=" ">
<polygon fill="white" stroke="black" points="448,-245.5 448,-275.5 609,-275.5 609,-245.5 448,-245.5"/>
<text text-anchor="start" x="456" y="-263.5" font-family="Helvetica,sans-Serif" font-size="10.00">GinkgoWrappers::SolverBicgstab</text>
<text text-anchor="middle" x="528.5" y="-252.5" font-family="Helvetica,sans-Serif" font-size="10.00">&lt; ValueType, IndexType &gt;</text>
</a>
</g>
</g>
<!-- Node2&#45;&gt;Node3 -->
<g id="edge2" class="edge">
<title>Node2&#45;&gt;Node3</title>
<path fill="none" stroke="midnightblue" d="M358.74,-160.19C378.88,-182.59 412.45,-216.32 448,-236.5 454.02,-239.92 460.57,-242.9 467.25,-245.48"/>
<polygon fill="midnightblue" stroke="midnightblue" points="361.2,-157.68 351.96,-152.5 355.95,-162.32 361.2,-157.68"/>
</g>
<!-- Node4 -->
<g id="node4" class="node">
<title>Node4</title>
<g id="a_node4"><a xlink:href="classGinkgoWrappers_1_1SolverCG.html" target="_top" xlink:title=" ">
<polygon fill="white" stroke="black" points="460,-196.5 460,-226.5 597,-226.5 597,-196.5 460,-196.5"/>
<text text-anchor="start" x="468" y="-214.5" font-family="Helvetica,sans-Serif" font-size="10.00">GinkgoWrappers::SolverCG</text>
<text text-anchor="middle" x="528.5" y="-203.5" font-family="Helvetica,sans-Serif" font-size="10.00">&lt; ValueType, IndexType &gt;</text>
</a>
</g>
</g>
<!-- Node2&#45;&gt;Node4 -->
<g id="edge3" class="edge">
<title>Node2&#45;&gt;Node4</title>
<path fill="none" stroke="midnightblue" d="M378.41,-157.03C398.84,-166.87 424.46,-178.57 448,-187.5 456.22,-190.62 465.04,-193.61 473.7,-196.37"/>
<polygon fill="midnightblue" stroke="midnightblue" points="379.94,-153.88 369.42,-152.65 376.88,-160.17 379.94,-153.88"/>
</g>
<!-- Node5 -->
<g id="node5" class="node">
<title>Node5</title>
<g id="a_node5"><a xlink:href="classGinkgoWrappers_1_1SolverCGS.html" target="_top" xlink:title=" ">
<polygon fill="white" stroke="black" points="456.5,-147.5 456.5,-177.5 600.5,-177.5 600.5,-147.5 456.5,-147.5"/>
<text text-anchor="start" x="464.5" y="-165.5" font-family="Helvetica,sans-Serif" font-size="10.00">GinkgoWrappers::SolverCGS</text>
<text text-anchor="middle" x="528.5" y="-154.5" font-family="Helvetica,sans-Serif" font-size="10.00">&lt; ValueType, IndexType &gt;</text>
</a>
</g>
</g>
<!-- Node2&#45;&gt;Node5 -->
<g id="edge4" class="edge">
<title>Node2&#45;&gt;Node5</title>
<path fill="none" stroke="midnightblue" d="M421.3,-148.38C432.99,-149.93 444.94,-151.52 456.4,-153.05"/>
<polygon fill="midnightblue" stroke="midnightblue" points="421.49,-144.87 411.11,-147.02 420.56,-151.81 421.49,-144.87"/>
</g>
<!-- Node6 -->
<g id="node6" class="node">
<title>Node6</title>
<g id="a_node6"><a xlink:href="classGinkgoWrappers_1_1SolverFCG.html" target="_top" xlink:title=" ">
<polygon fill="white" stroke="black" points="457,-98.5 457,-128.5 600,-128.5 600,-98.5 457,-98.5"/>
<text text-anchor="start" x="465" y="-116.5" font-family="Helvetica,sans-Serif" font-size="10.00">GinkgoWrappers::SolverFCG</text>
<text text-anchor="middle" x="528.5" y="-105.5" font-family="Helvetica,sans-Serif" font-size="10.00">&lt; ValueType, IndexType &gt;</text>
</a>
</g>
</g>
<!-- Node2&#45;&gt;Node6 -->
<g id="edge5" class="edge">
<title>Node2&#45;&gt;Node6</title>
<path fill="none" stroke="midnightblue" d="M421.37,-127.05C433.14,-125.55 445.18,-124.01 456.71,-122.54"/>
<polygon fill="midnightblue" stroke="midnightblue" points="420.59,-123.62 411.11,-128.36 421.47,-130.56 420.59,-123.62"/>
</g>
<!-- Node7 -->
<g id="node7" class="node">
<title>Node7</title>
<g id="a_node7"><a xlink:href="classGinkgoWrappers_1_1SolverGMRES.html" target="_top" xlink:title=" ">
<polygon fill="white" stroke="black" points="449,-49.5 449,-79.5 608,-79.5 608,-49.5 449,-49.5"/>
<text text-anchor="start" x="457" y="-67.5" font-family="Helvetica,sans-Serif" font-size="10.00">GinkgoWrappers::SolverGMRES</text>
<text text-anchor="middle" x="528.5" y="-56.5" font-family="Helvetica,sans-Serif" font-size="10.00">&lt; ValueType, IndexType &gt;</text>
</a>
</g>
</g>
<!-- Node2&#45;&gt;Node7 -->
<g id="edge6" class="edge">
<title>Node2&#45;&gt;Node7</title>
<path fill="none" stroke="midnightblue" d="M380.13,-118.23C400.32,-108.99 425.21,-98.1 448,-89.5 457.21,-86.03 467.13,-82.64 476.74,-79.53"/>
<polygon fill="midnightblue" stroke="midnightblue" points="378.54,-115.11 370.92,-122.48 381.47,-121.47 378.54,-115.11"/>
</g>
<!-- Node8 -->
<g id="node8" class="node">
<title>Node8</title>
<g id="a_node8"><a xlink:href="classGinkgoWrappers_1_1SolverIR.html" target="_top" xlink:title=" ">
<polygon fill="white" stroke="black" points="462,-0.5 462,-30.5 595,-30.5 595,-0.5 462,-0.5"/>
<text text-anchor="start" x="470" y="-18.5" font-family="Helvetica,sans-Serif" font-size="10.00">GinkgoWrappers::SolverIR</text>
<text text-anchor="middle" x="528.5" y="-7.5" font-family="Helvetica,sans-Serif" font-size="10.00">&lt; ValueType, IndexType &gt;</text>
</a>
</g>
</g>
<!-- Node2&#45;&gt;Node8 -->
<g id="edge7" class="edge">
<title>Node2&#45;&gt;Node8</title>
<path fill="none" stroke="midnightblue" d="M359.57,-114.64C379.88,-92.78 413.18,-60.3 448,-40.5 454.67,-36.71 461.98,-33.42 469.39,-30.58"/>
<polygon fill="midnightblue" stroke="midnightblue" points="356.85,-112.42 352.69,-122.16 362.02,-117.14 356.85,-112.42"/>
</g>
</g>
</svg>
