<?xml version="1.0" encoding="UTF-8" standalone="no"?>
<!DOCTYPE svg PUBLIC "-//W3C//DTD SVG 1.1//EN"
 "http://www.w3.org/Graphics/SVG/1.1/DTD/svg11.dtd">
<!-- Generated by graphviz version 2.47.1 (20210417.1919)
 -->
<!-- Title: MGSmootherPrecondition&lt; MatrixType, PreconditionerType, VectorType &gt; Pages: 1 -->
<svg width="172pt" height="218pt"
 viewBox="0.00 0.00 172.00 218.00" xmlns="http://www.w3.org/2000/svg" xmlns:xlink="http://www.w3.org/1999/xlink">
<g id="graph0" class="graph" transform="scale(1 1) rotate(0) translate(4 214)">
<title>MGSmootherPrecondition&lt; MatrixType, PreconditionerType, VectorType &gt;</title>
<polygon fill="white" stroke="transparent" points="-4,4 -4,-214 168,-214 168,4 -4,4"/>
<!-- Node1 -->
<g id="node1" class="node">
<title>Node1</title>
<g id="a_node1"><a xlink:title=" ">
<polygon fill="#bfbfbf" stroke="black" points="11,-0.5 11,-41.5 153,-41.5 153,-0.5 11,-0.5"/>
<text text-anchor="start" x="19" y="-29.5" font-family="Helvetica,sans-Serif" font-size="10.00">MGSmootherPrecondition</text>
<text text-anchor="start" x="19" y="-18.5" font-family="Helvetica,sans-Serif" font-size="10.00">&lt; MatrixType, Preconditioner</text>
<text text-anchor="middle" x="82" y="-7.5" font-family="Helvetica,sans-Serif" font-size="10.00">Type, VectorType &gt;</text>
</a>
</g>
</g>
<!-- Node2 -->
<g id="node2" class="node">
<title>Node2</title>
<g id="a_node2"><a xlink:href="classMGSmoother.html" target="_top" xlink:title=" ">
<polygon fill="white" stroke="black" points="11,-78.5 11,-97.5 153,-97.5 153,-78.5 11,-78.5"/>
<text text-anchor="middle" x="82" y="-85.5" font-family="Helvetica,sans-Serif" font-size="10.00">MGSmoother&lt; VectorType &gt;</text>
</a>
</g>
</g>
<!-- Node2&#45;&gt;Node1 -->
<g id="edge1" class="edge">
<title>Node2&#45;&gt;Node1</title>
<path fill="none" stroke="midnightblue" d="M82,-68.04C82,-59.71 82,-49.94 82,-41.54"/>
<polygon fill="midnightblue" stroke="midnightblue" points="78.5,-68.23 82,-78.23 85.5,-68.23 78.5,-68.23"/>
</g>
<!-- Node3 -->
<g id="node3" class="node">
<title>Node3</title>
<g id="a_node3"><a xlink:href="classMGSmootherBase.html" target="_top" xlink:title=" ">
<polygon fill="white" stroke="black" points="0,-134.5 0,-153.5 164,-153.5 164,-134.5 0,-134.5"/>
<text text-anchor="middle" x="82" y="-141.5" font-family="Helvetica,sans-Serif" font-size="10.00">MGSmootherBase&lt; VectorType &gt;</text>
</a>
</g>
</g>
<!-- Node3&#45;&gt;Node2 -->
<g id="edge2" class="edge">
<title>Node3&#45;&gt;Node2</title>
<path fill="none" stroke="midnightblue" d="M82,-123.8C82,-114.91 82,-104.78 82,-97.75"/>
<polygon fill="midnightblue" stroke="midnightblue" points="78.5,-124.08 82,-134.08 85.5,-124.08 78.5,-124.08"/>
</g>
<!-- Node4 -->
<g id="node4" class="node">
<title>Node4</title>
<g id="a_node4"><a xlink:href="classSubscriptor.html" target="_top" xlink:title=" ">
<polygon fill="white" stroke="black" points="49,-190.5 49,-209.5 115,-209.5 115,-190.5 49,-190.5"/>
<text text-anchor="middle" x="82" y="-197.5" font-family="Helvetica,sans-Serif" font-size="10.00">Subscriptor</text>
</a>
</g>
</g>
<!-- Node4&#45;&gt;Node3 -->
<g id="edge3" class="edge">
<title>Node4&#45;&gt;Node3</title>
<path fill="none" stroke="midnightblue" d="M82,-179.8C82,-170.91 82,-160.78 82,-153.75"/>
<polygon fill="midnightblue" stroke="midnightblue" points="78.5,-180.08 82,-190.08 85.5,-180.08 78.5,-180.08"/>
</g>
</g>
</svg>
