<?xml version="1.0" encoding="UTF-8" standalone="no"?>
<!DOCTYPE svg PUBLIC "-//W3C//DTD SVG 1.1//EN"
 "http://www.w3.org/Graphics/SVG/1.1/DTD/svg11.dtd">
<!-- Generated by graphviz version 2.47.1 (20210417.1919)
 -->
<!-- Title: MappingQ&lt; dim, spacedim &gt; Pages: 1 -->
<svg width="405pt" height="344pt"
 viewBox="0.00 0.00 405.00 344.00" xmlns="http://www.w3.org/2000/svg" xmlns:xlink="http://www.w3.org/1999/xlink">
<g id="graph0" class="graph" transform="scale(1 1) rotate(0) translate(4 340)">
<title>MappingQ&lt; dim, spacedim &gt;</title>
<polygon fill="white" stroke="transparent" points="-4,4 -4,-340 401,-340 401,4 -4,4"/>
<!-- Node1 -->
<g id="node1" class="node">
<title>Node1</title>
<g id="a_node1"><a xlink:title=" ">
<polygon fill="#bfbfbf" stroke="black" points="14.5,-135.5 14.5,-154.5 157.5,-154.5 157.5,-135.5 14.5,-135.5"/>
<text text-anchor="middle" x="86" y="-142.5" font-family="Helvetica,sans-Serif" font-size="10.00">MappingQ&lt; dim, spacedim &gt;</text>
</a>
</g>
</g>
<!-- Node1&#45;&gt;Node1 -->
<g id="edge5" class="edge">
<title>Node1&#45;&gt;Node1</title>
<path fill="none" stroke="orange" stroke-dasharray="5,2" d="M167.97,-146.79C172.68,-146.36 175.5,-145.76 175.5,-145 175.5,-143.78 168.29,-142.99 157.63,-142.62"/>
<polygon fill="orange" stroke="orange" points="167.41,-143.31 157.63,-147.38 167.81,-150.3 167.41,-143.31"/>
<text text-anchor="middle" x="218" y="-142.5" font-family="Helvetica,sans-Serif" font-size="10.00"> &lt; dim, spacedim &gt;</text>
</g>
<!-- Node1&#45;&gt;Node1 -->
<g id="edge6" class="edge">
<title>Node1&#45;&gt;Node1</title>
<path fill="none" stroke="orange" stroke-dasharray="5,2" d="M168,-150.12C214.07,-150.76 260.5,-149.05 260.5,-145 260.5,-140.65 207.01,-139 157.89,-140.06"/>
<polygon fill="orange" stroke="orange" points="167.95,-146.62 157.89,-149.94 167.82,-153.62 167.95,-146.62"/>
<text text-anchor="middle" x="303" y="-142.5" font-family="Helvetica,sans-Serif" font-size="10.00"> &lt; dim, spacedim &gt;</text>
</g>
<!-- Node5 -->
<g id="node5" class="node">
<title>Node5</title>
<g id="a_node5"><a xlink:href="classMappingQ.html" target="_top" xlink:title=" ">
<polygon fill="white" stroke="black" points="28,-68.5 28,-87.5 144,-87.5 144,-68.5 28,-68.5"/>
<text text-anchor="middle" x="86" y="-75.5" font-family="Helvetica,sans-Serif" font-size="10.00">MappingQ&lt; dim, dim &gt;</text>
</a>
</g>
</g>
<!-- Node1&#45;&gt;Node5 -->
<g id="edge7" class="edge">
<title>Node1&#45;&gt;Node5</title>
<path fill="none" stroke="orange" stroke-dasharray="5,2" d="M86,-125.04C86,-112.67 86,-97.12 86,-87.63"/>
<polygon fill="orange" stroke="orange" points="82.5,-125.23 86,-135.23 89.5,-125.23 82.5,-125.23"/>
<text text-anchor="middle" x="115.5" y="-109" font-family="Helvetica,sans-Serif" font-size="10.00"> &lt; dim, dim &gt;</text>
</g>
<!-- Node2 -->
<g id="node2" class="node">
<title>Node2</title>
<g id="a_node2"><a xlink:href="classMapping.html" target="_top" xlink:title=" ">
<polygon fill="white" stroke="black" points="31.5,-192.5 31.5,-211.5 140.5,-211.5 140.5,-192.5 31.5,-192.5"/>
<text text-anchor="middle" x="86" y="-199.5" font-family="Helvetica,sans-Serif" font-size="10.00">Mapping&lt; dim, dim &gt;</text>
</a>
</g>
</g>
<!-- Node2&#45;&gt;Node1 -->
<g id="edge1" class="edge">
<title>Node2&#45;&gt;Node1</title>
<path fill="none" stroke="midnightblue" d="M86,-182.12C86,-172.82 86,-162.06 86,-154.71"/>
<polygon fill="midnightblue" stroke="midnightblue" points="82.5,-182.41 86,-192.41 89.5,-182.41 82.5,-182.41"/>
</g>
<!-- Node3 -->
<g id="node3" class="node">
<title>Node3</title>
<g id="a_node3"><a xlink:href="classSubscriptor.html" target="_top" xlink:title=" ">
<polygon fill="white" stroke="black" points="49,-316.5 49,-335.5 115,-335.5 115,-316.5 49,-316.5"/>
<text text-anchor="middle" x="82" y="-323.5" font-family="Helvetica,sans-Serif" font-size="10.00">Subscriptor</text>
</a>
</g>
</g>
<!-- Node3&#45;&gt;Node2 -->
<g id="edge2" class="edge">
<title>Node3&#45;&gt;Node2</title>
<path fill="none" stroke="midnightblue" d="M82.62,-306.19C83.5,-279.4 85.07,-231.31 85.71,-211.69"/>
<polygon fill="midnightblue" stroke="midnightblue" points="79.12,-306.12 82.29,-316.23 86.11,-306.35 79.12,-306.12"/>
</g>
<!-- Node4 -->
<g id="node4" class="node">
<title>Node4</title>
<g id="a_node4"><a xlink:href="classMapping.html" target="_top" xlink:title="Abstract base class for mapping classes.">
<polygon fill="white" stroke="black" points="98.5,-259.5 98.5,-278.5 233.5,-278.5 233.5,-259.5 98.5,-259.5"/>
<text text-anchor="middle" x="166" y="-266.5" font-family="Helvetica,sans-Serif" font-size="10.00">Mapping&lt; dim, spacedim &gt;</text>
</a>
</g>
</g>
<!-- Node3&#45;&gt;Node4 -->
<g id="edge4" class="edge">
<title>Node3&#45;&gt;Node4</title>
<path fill="none" stroke="midnightblue" d="M103.65,-310.82C119.26,-300.61 139.81,-287.15 152.97,-278.53"/>
<polygon fill="midnightblue" stroke="midnightblue" points="101.57,-308 95.12,-316.41 105.41,-313.86 101.57,-308"/>
</g>
<!-- Node4&#45;&gt;Node2 -->
<g id="edge3" class="edge">
<title>Node4&#45;&gt;Node2</title>
<path fill="none" stroke="orange" stroke-dasharray="5,2" d="M147.19,-252.71C131.42,-239.91 109.49,-222.09 96.62,-211.63"/>
<polygon fill="orange" stroke="orange" points="145.24,-255.64 155.21,-259.23 149.66,-250.21 145.24,-255.64"/>
<text text-anchor="middle" x="159.5" y="-233" font-family="Helvetica,sans-Serif" font-size="10.00"> &lt; dim, dim &gt;</text>
</g>
<!-- Node6 -->
<g id="node6" class="node">
<title>Node6</title>
<g id="a_node6"><a xlink:href="classMappingC1.html" target="_top" xlink:title=" ">
<polygon fill="white" stroke="black" points="0,-6 0,-25 148,-25 148,-6 0,-6"/>
<text text-anchor="middle" x="74" y="-13" font-family="Helvetica,sans-Serif" font-size="10.00">MappingC1&lt; dim, spacedim &gt;</text>
</a>
</g>
</g>
<!-- Node5&#45;&gt;Node6 -->
<g id="edge8" class="edge">
<title>Node5&#45;&gt;Node6</title>
<path fill="none" stroke="midnightblue" d="M82.3,-58.35C80.11,-47.28 77.43,-33.77 75.72,-25.15"/>
<polygon fill="midnightblue" stroke="midnightblue" points="78.9,-59.2 84.28,-68.33 85.77,-57.84 78.9,-59.2"/>
</g>
<!-- Node7 -->
<g id="node7" class="node">
<title>Node7</title>
<g id="a_node7"><a xlink:href="classMappingQEulerian.html" target="_top" xlink:title=" ">
<polygon fill="white" stroke="black" points="166,-0.5 166,-30.5 292,-30.5 292,-0.5 166,-0.5"/>
<text text-anchor="start" x="174" y="-18.5" font-family="Helvetica,sans-Serif" font-size="10.00">MappingQEulerian&lt; dim,</text>
<text text-anchor="middle" x="229" y="-7.5" font-family="Helvetica,sans-Serif" font-size="10.00"> VectorType, spacedim &gt;</text>
</a>
</g>
</g>
<!-- Node5&#45;&gt;Node7 -->
<g id="edge9" class="edge">
<title>Node5&#45;&gt;Node7</title>
<path fill="none" stroke="midnightblue" d="M115.57,-64.49C138.9,-54.62 171.45,-40.85 195.7,-30.59"/>
<polygon fill="midnightblue" stroke="midnightblue" points="114.03,-61.34 106.19,-68.46 116.76,-67.79 114.03,-61.34"/>
</g>
<!-- Node7&#45;&gt;Node7 -->
<g id="edge10" class="edge">
<title>Node7&#45;&gt;Node7</title>
<path fill="none" stroke="orange" stroke-dasharray="5,2" d="M302.09,-20.09C307.01,-19.03 310,-17.5 310,-15.5 310,-12.38 302.72,-10.4 292.17,-9.57"/>
<polygon fill="orange" stroke="orange" points="301.61,-16.62 292.17,-21.43 302.55,-23.56 301.61,-16.62"/>
<text text-anchor="start" x="310" y="-18.5" font-family="Helvetica,sans-Serif" font-size="10.00"> &lt; dim, VectorType,</text>
<text text-anchor="middle" x="353.5" y="-7.5" font-family="Helvetica,sans-Serif" font-size="10.00"> spacedim &gt;</text>
</g>
</g>
</svg>
