<?xml version="1.0" encoding="UTF-8" standalone="no"?>
<!DOCTYPE svg PUBLIC "-//W3C//DTD SVG 1.1//EN"
 "http://www.w3.org/Graphics/SVG/1.1/DTD/svg11.dtd">
<!-- Generated by graphviz version 2.47.1 (20210417.1919)
 -->
<!-- Title: LinearAlgebra::VectorSpaceVector&lt; Number &gt; Pages: 1 -->
<svg width="593pt" height="284pt"
 viewBox="0.00 0.00 593.00 284.00" xmlns="http://www.w3.org/2000/svg" xmlns:xlink="http://www.w3.org/1999/xlink">
<g id="graph0" class="graph" transform="scale(1 1) rotate(0) translate(4 280)">
<title>LinearAlgebra::VectorSpaceVector&lt; Number &gt;</title>
<polygon fill="white" stroke="transparent" points="-4,4 -4,-280 589,-280 589,4 -4,4"/>
<!-- Node1 -->
<g id="node1" class="node">
<title>Node1</title>
<g id="a_node1"><a xlink:title=" ">
<polygon fill="#bfbfbf" stroke="black" points="0,-122.5 0,-152.5 138,-152.5 138,-122.5 0,-122.5"/>
<text text-anchor="start" x="8" y="-140.5" font-family="Helvetica,sans-Serif" font-size="10.00">LinearAlgebra::VectorSpace</text>
<text text-anchor="middle" x="69" y="-129.5" font-family="Helvetica,sans-Serif" font-size="10.00">Vector&lt; Number &gt;</text>
</a>
</g>
</g>
<!-- Node2 -->
<g id="node2" class="node">
<title>Node2</title>
<g id="a_node2"><a xlink:href="classLinearAlgebra_1_1CUDAWrappers_1_1Vector.html" target="_top" xlink:title=" ">
<polygon fill="white" stroke="black" points="234,-245.5 234,-275.5 386,-275.5 386,-245.5 234,-245.5"/>
<text text-anchor="start" x="242" y="-263.5" font-family="Helvetica,sans-Serif" font-size="10.00">LinearAlgebra::CUDAWrappers</text>
<text text-anchor="middle" x="310" y="-252.5" font-family="Helvetica,sans-Serif" font-size="10.00">::Vector&lt; Number &gt;</text>
</a>
</g>
</g>
<!-- Node1&#45;&gt;Node2 -->
<g id="edge1" class="edge">
<title>Node1&#45;&gt;Node2</title>
<path fill="none" stroke="midnightblue" d="M97.55,-158.81C127.3,-180.94 176.79,-215.23 224,-236.5 231.41,-239.84 239.39,-242.82 247.4,-245.46"/>
<polygon fill="midnightblue" stroke="midnightblue" points="99.43,-155.85 89.34,-152.64 95.23,-161.45 99.43,-155.85"/>
</g>
<!-- Node3 -->
<g id="node3" class="node">
<title>Node3</title>
<g id="a_node3"><a xlink:href="classLinearAlgebra_1_1TpetraWrappers_1_1Vector.html" target="_top" xlink:title=" ">
<polygon fill="white" stroke="black" points="234.5,-196.5 234.5,-226.5 385.5,-226.5 385.5,-196.5 234.5,-196.5"/>
<text text-anchor="start" x="242.5" y="-214.5" font-family="Helvetica,sans-Serif" font-size="10.00">LinearAlgebra::TpetraWrappers</text>
<text text-anchor="middle" x="310" y="-203.5" font-family="Helvetica,sans-Serif" font-size="10.00">::Vector&lt; Number &gt;</text>
</a>
</g>
</g>
<!-- Node1&#45;&gt;Node3 -->
<g id="edge2" class="edge">
<title>Node1&#45;&gt;Node3</title>
<path fill="none" stroke="midnightblue" d="M124.34,-155.71C153.75,-165.42 190.77,-177.42 224,-187.5 233.83,-190.48 244.34,-193.55 254.49,-196.45"/>
<polygon fill="midnightblue" stroke="midnightblue" points="125.26,-152.33 114.67,-152.51 123.06,-158.97 125.26,-152.33"/>
</g>
<!-- Node4 -->
<g id="node4" class="node">
<title>Node4</title>
<g id="a_node4"><a xlink:href="classLinearAlgebra_1_1Vector.html" target="_top" xlink:title=" ">
<polygon fill="white" stroke="black" points="255,-147.5 255,-177.5 365,-177.5 365,-147.5 255,-147.5"/>
<text text-anchor="start" x="263" y="-165.5" font-family="Helvetica,sans-Serif" font-size="10.00">LinearAlgebra::Vector</text>
<text text-anchor="middle" x="310" y="-154.5" font-family="Helvetica,sans-Serif" font-size="10.00">&lt; Number &gt;</text>
</a>
</g>
</g>
<!-- Node1&#45;&gt;Node4 -->
<g id="edge3" class="edge">
<title>Node1&#45;&gt;Node4</title>
<path fill="none" stroke="midnightblue" d="M148.32,-145.69C183.16,-149.34 223.32,-153.54 254.78,-156.83"/>
<polygon fill="midnightblue" stroke="midnightblue" points="148.48,-142.19 138.17,-144.63 147.75,-149.15 148.48,-142.19"/>
</g>
<!-- Node5 -->
<g id="node5" class="node">
<title>Node5</title>
<g id="a_node5"><a xlink:href="classLinearAlgebra_1_1distributed_1_1BlockVector.html" target="_top" xlink:title=" ">
<polygon fill="white" stroke="black" points="246,-98.5 246,-128.5 374,-128.5 374,-98.5 246,-98.5"/>
<text text-anchor="start" x="254" y="-116.5" font-family="Helvetica,sans-Serif" font-size="10.00">LinearAlgebra::distributed</text>
<text text-anchor="middle" x="310" y="-105.5" font-family="Helvetica,sans-Serif" font-size="10.00">::BlockVector&lt; Number &gt;</text>
</a>
</g>
</g>
<!-- Node1&#45;&gt;Node5 -->
<g id="edge4" class="edge">
<title>Node1&#45;&gt;Node5</title>
<path fill="none" stroke="midnightblue" d="M148.25,-129.64C179.82,-126.47 215.77,-122.86 245.66,-119.86"/>
<polygon fill="midnightblue" stroke="midnightblue" points="147.77,-126.17 138.17,-130.65 148.47,-133.14 147.77,-126.17"/>
</g>
<!-- Node6 -->
<g id="node6" class="node">
<title>Node6</title>
<g id="a_node6"><a xlink:href="classLinearAlgebra_1_1distributed_1_1Vector.html" target="_top" xlink:title=" ">
<polygon fill="white" stroke="black" points="224,-49.5 224,-79.5 396,-79.5 396,-49.5 224,-49.5"/>
<text text-anchor="start" x="232" y="-67.5" font-family="Helvetica,sans-Serif" font-size="10.00">LinearAlgebra::distributed</text>
<text text-anchor="middle" x="310" y="-56.5" font-family="Helvetica,sans-Serif" font-size="10.00">::Vector&lt; Number, MemorySpace &gt;</text>
</a>
</g>
</g>
<!-- Node1&#45;&gt;Node6 -->
<g id="edge5" class="edge">
<title>Node1&#45;&gt;Node6</title>
<path fill="none" stroke="midnightblue" d="M127.02,-119.49C156.02,-110.39 191.85,-99.24 224,-89.5 234.75,-86.25 246.28,-82.81 257.27,-79.57"/>
<polygon fill="midnightblue" stroke="midnightblue" points="125.95,-116.15 117.46,-122.49 128.05,-122.83 125.95,-116.15"/>
</g>
<!-- Node7 -->
<g id="node7" class="node">
<title>Node7</title>
<g id="a_node7"><a xlink:href="classLinearAlgebra_1_1VectorSpaceVector.html" target="_top" xlink:title=" ">
<polygon fill="white" stroke="black" points="241,-0.5 241,-30.5 379,-30.5 379,-0.5 241,-0.5"/>
<text text-anchor="start" x="249" y="-18.5" font-family="Helvetica,sans-Serif" font-size="10.00">LinearAlgebra::VectorSpace</text>
<text text-anchor="middle" x="310" y="-7.5" font-family="Helvetica,sans-Serif" font-size="10.00">Vector&lt; double &gt;</text>
</a>
</g>
</g>
<!-- Node1&#45;&gt;Node7 -->
<g id="edge6" class="edge">
<title>Node1&#45;&gt;Node7</title>
<path fill="none" stroke="orange" stroke-dasharray="5,2" d="M98.04,-116.1C127.83,-94.29 177.03,-60.85 224,-40.5 232.47,-36.83 241.64,-33.51 250.71,-30.57"/>
<polygon fill="orange" stroke="orange" points="95.76,-113.44 89.8,-122.2 99.92,-119.06 95.76,-113.44"/>
<text text-anchor="middle" x="181" y="-78.5" font-family="Helvetica,sans-Serif" font-size="10.00"> &lt; double &gt;</text>
</g>
<!-- Node8 -->
<g id="node8" class="node">
<title>Node8</title>
<g id="a_node8"><a xlink:href="classLinearAlgebra_1_1EpetraWrappers_1_1Vector.html" target="_top" xlink:title=" ">
<polygon fill="white" stroke="black" points="433,-0.5 433,-30.5 585,-30.5 585,-0.5 433,-0.5"/>
<text text-anchor="start" x="441" y="-18.5" font-family="Helvetica,sans-Serif" font-size="10.00">LinearAlgebra::EpetraWrappers</text>
<text text-anchor="middle" x="509" y="-7.5" font-family="Helvetica,sans-Serif" font-size="10.00">::Vector</text>
</a>
</g>
</g>
<!-- Node7&#45;&gt;Node8 -->
<g id="edge7" class="edge">
<title>Node7&#45;&gt;Node8</title>
<path fill="none" stroke="midnightblue" d="M389.38,-15.5C403.7,-15.5 418.62,-15.5 432.85,-15.5"/>
<polygon fill="midnightblue" stroke="midnightblue" points="389.07,-12 379.07,-15.5 389.07,-19 389.07,-12"/>
</g>
</g>
</svg>
