<?xml version="1.0" encoding="UTF-8" standalone="no"?>
<!DOCTYPE svg PUBLIC "-//W3C//DTD SVG 1.1//EN"
 "http://www.w3.org/Graphics/SVG/1.1/DTD/svg11.dtd">
<!-- Generated by graphviz version 2.47.1 (20210417.1919)
 -->
<!-- Title: MeshWorker::Assembler::SystemSimple&lt; MatrixType, VectorType &gt; Pages: 1 -->
<svg width="348pt" height="88pt"
 viewBox="0.00 0.00 348.00 88.00" xmlns="http://www.w3.org/2000/svg" xmlns:xlink="http://www.w3.org/1999/xlink">
<g id="graph0" class="graph" transform="scale(1 1) rotate(0) translate(4 84)">
<title>MeshWorker::Assembler::SystemSimple&lt; MatrixType, VectorType &gt;</title>
<polygon fill="white" stroke="transparent" points="-4,4 -4,-84 344,-84 344,4 -4,4"/>
<!-- Node1 -->
<g id="node1" class="node">
<title>Node1</title>
<g id="a_node1"><a xlink:title=" ">
<polygon fill="#bfbfbf" stroke="black" points="194,-19 194,-60 340,-60 340,-19 194,-19"/>
<text text-anchor="start" x="202" y="-48" font-family="Helvetica,sans-Serif" font-size="10.00">MeshWorker::Assembler</text>
<text text-anchor="start" x="202" y="-37" font-family="Helvetica,sans-Serif" font-size="10.00">::SystemSimple&lt; MatrixType,</text>
<text text-anchor="middle" x="267" y="-26" font-family="Helvetica,sans-Serif" font-size="10.00"> VectorType &gt;</text>
</a>
</g>
</g>
<!-- Node2 -->
<g id="node2" class="node">
<title>Node2</title>
<g id="a_node2"><a xlink:href="classMeshWorker_1_1Assembler_1_1MatrixSimple.html" target="_top" xlink:title=" ">
<polygon fill="white" stroke="black" points="6,-49.5 6,-79.5 152,-79.5 152,-49.5 6,-49.5"/>
<text text-anchor="start" x="14" y="-67.5" font-family="Helvetica,sans-Serif" font-size="10.00">MeshWorker::Assembler</text>
<text text-anchor="middle" x="79" y="-56.5" font-family="Helvetica,sans-Serif" font-size="10.00">::MatrixSimple&lt; MatrixType &gt;</text>
</a>
</g>
</g>
<!-- Node2&#45;&gt;Node1 -->
<g id="edge1" class="edge">
<title>Node2&#45;&gt;Node1</title>
<path fill="none" stroke="#8b1a1a" d="M162.21,-53.45C172.76,-52.03 183.49,-50.59 193.86,-49.2"/>
<polygon fill="#8b1a1a" stroke="#8b1a1a" points="161.62,-50 152.18,-54.8 162.56,-56.94 161.62,-50"/>
</g>
<!-- Node3 -->
<g id="node3" class="node">
<title>Node3</title>
<g id="a_node3"><a xlink:href="classMeshWorker_1_1Assembler_1_1ResidualSimple.html" target="_top" xlink:title=" ">
<polygon fill="white" stroke="black" points="0,-0.5 0,-30.5 158,-30.5 158,-0.5 0,-0.5"/>
<text text-anchor="start" x="8" y="-18.5" font-family="Helvetica,sans-Serif" font-size="10.00">MeshWorker::Assembler</text>
<text text-anchor="middle" x="79" y="-7.5" font-family="Helvetica,sans-Serif" font-size="10.00">::ResidualSimple&lt; VectorType &gt;</text>
</a>
</g>
</g>
<!-- Node3&#45;&gt;Node1 -->
<g id="edge2" class="edge">
<title>Node3&#45;&gt;Node1</title>
<path fill="none" stroke="#8b1a1a" d="M168.12,-26.87C176.71,-27.98 185.35,-29.09 193.76,-30.18"/>
<polygon fill="#8b1a1a" stroke="#8b1a1a" points="168.44,-23.38 158.07,-25.57 167.54,-30.32 168.44,-23.38"/>
</g>
</g>
</svg>
