<?xml version="1.0" encoding="UTF-8" standalone="no"?>
<!DOCTYPE svg PUBLIC "-//W3C//DTD SVG 1.1//EN"
 "http://www.w3.org/Graphics/SVG/1.1/DTD/svg11.dtd">
<!-- Generated by graphviz version 2.47.1 (20210417.1919)
 -->
<!-- Title: MeshWorker::VectorDataBase&lt; dim, spacedim, Number &gt; Pages: 1 -->
<svg width="1363pt" height="75pt"
 viewBox="0.00 0.00 1363.00 74.50" xmlns="http://www.w3.org/2000/svg" xmlns:xlink="http://www.w3.org/1999/xlink">
<g id="graph0" class="graph" transform="scale(1 1) rotate(0) translate(4 70.5)">
<title>MeshWorker::VectorDataBase&lt; dim, spacedim, Number &gt;</title>
<polygon fill="white" stroke="transparent" points="-4,4 -4,-70.5 1359,-70.5 1359,4 -4,4"/>
<!-- Node1 -->
<g id="node1" class="node">
<title>Node1</title>
<g id="a_node1"><a xlink:title=" ">
<polygon fill="#bfbfbf" stroke="black" points="282,-30 282,-60 431,-60 431,-30 282,-30"/>
<text text-anchor="start" x="290" y="-48" font-family="Helvetica,sans-Serif" font-size="10.00">MeshWorker::VectorDataBase</text>
<text text-anchor="middle" x="356.5" y="-37" font-family="Helvetica,sans-Serif" font-size="10.00">&lt; dim, spacedim, Number &gt;</text>
</a>
</g>
</g>
<!-- Node4 -->
<g id="node4" class="node">
<title>Node4</title>
<g id="a_node4"><a xlink:href="classMeshWorker_1_1VectorData.html" target="_top" xlink:title=" ">
<polygon fill="white" stroke="black" points="1036,-33 1036,-63 1164,-63 1164,-33 1036,-33"/>
<text text-anchor="start" x="1044" y="-51" font-family="Helvetica,sans-Serif" font-size="10.00">MeshWorker::VectorData</text>
<text text-anchor="middle" x="1100" y="-40" font-family="Helvetica,sans-Serif" font-size="10.00">&lt; VectorType, dim, dim &gt;</text>
</a>
</g>
</g>
<!-- Node1&#45;&gt;Node4 -->
<g id="edge3" class="edge">
<title>Node1&#45;&gt;Node4</title>
<path fill="none" stroke="midnightblue" d="M441.36,-55.48C443.93,-55.68 446.48,-55.85 449,-56 701.44,-71.12 765.42,-68.44 1018,-56 1023.79,-55.71 1029.8,-55.32 1035.81,-54.85"/>
<polygon fill="midnightblue" stroke="midnightblue" points="441.6,-51.99 431.34,-54.65 441.02,-58.97 441.6,-51.99"/>
</g>
<!-- Node6 -->
<g id="node6" class="node">
<title>Node6</title>
<g id="a_node6"><a xlink:href="classMeshWorker_1_1VectorDataBase.html" target="_top" xlink:title=" ">
<polygon fill="white" stroke="black" points="573,-0.5 573,-41.5 722,-41.5 722,-0.5 573,-0.5"/>
<text text-anchor="start" x="581" y="-29.5" font-family="Helvetica,sans-Serif" font-size="10.00">MeshWorker::VectorDataBase</text>
<text text-anchor="start" x="581" y="-18.5" font-family="Helvetica,sans-Serif" font-size="10.00">&lt; dim, dim, VectorType::</text>
<text text-anchor="middle" x="647.5" y="-7.5" font-family="Helvetica,sans-Serif" font-size="10.00">value_type &gt;</text>
</a>
</g>
</g>
<!-- Node1&#45;&gt;Node6 -->
<g id="edge5" class="edge">
<title>Node1&#45;&gt;Node6</title>
<path fill="none" stroke="orange" stroke-dasharray="5,2" d="M441.37,-34.74C443.94,-34.48 446.49,-34.23 449,-34 489.89,-30.2 535.64,-27.11 572.8,-24.9"/>
<polygon fill="orange" stroke="orange" points="440.96,-31.26 431.37,-35.77 441.68,-38.22 440.96,-31.26"/>
<text text-anchor="start" x="449" y="-48" font-family="Helvetica,sans-Serif" font-size="10.00"> &lt; dim, dim, VectorType</text>
<text text-anchor="middle" x="502" y="-37" font-family="Helvetica,sans-Serif" font-size="10.00">::value_type &gt;</text>
</g>
<!-- Node2 -->
<g id="node2" class="node">
<title>Node2</title>
<g id="a_node2"><a xlink:href="classMeshWorker_1_1VectorSelector.html" target="_top" xlink:title=" ">
<polygon fill="white" stroke="black" points="103,-35.5 103,-54.5 245,-54.5 245,-35.5 103,-35.5"/>
<text text-anchor="middle" x="174" y="-42.5" font-family="Helvetica,sans-Serif" font-size="10.00">MeshWorker::VectorSelector</text>
</a>
</g>
</g>
<!-- Node2&#45;&gt;Node1 -->
<g id="edge1" class="edge">
<title>Node2&#45;&gt;Node1</title>
<path fill="none" stroke="midnightblue" d="M255.06,-45C263.99,-45 273.06,-45 281.91,-45"/>
<polygon fill="midnightblue" stroke="midnightblue" points="255.04,-41.5 245.04,-45 255.04,-48.5 255.04,-41.5"/>
</g>
<!-- Node3 -->
<g id="node3" class="node">
<title>Node3</title>
<g id="a_node3"><a xlink:href="classSubscriptor.html" target="_top" xlink:title=" ">
<polygon fill="white" stroke="black" points="0,-35.5 0,-54.5 66,-54.5 66,-35.5 0,-35.5"/>
<text text-anchor="middle" x="33" y="-42.5" font-family="Helvetica,sans-Serif" font-size="10.00">Subscriptor</text>
</a>
</g>
</g>
<!-- Node3&#45;&gt;Node2 -->
<g id="edge2" class="edge">
<title>Node3&#45;&gt;Node2</title>
<path fill="none" stroke="midnightblue" d="M76.45,-45C84.8,-45 93.77,-45 102.76,-45"/>
<polygon fill="midnightblue" stroke="midnightblue" points="76.24,-41.5 66.24,-45 76.24,-48.5 76.24,-41.5"/>
</g>
<!-- Node5 -->
<g id="node5" class="node">
<title>Node5</title>
<g id="a_node5"><a xlink:href="classMeshWorker_1_1MGVectorData.html" target="_top" xlink:title=" ">
<polygon fill="white" stroke="black" points="1201,-33 1201,-63 1355,-63 1355,-33 1201,-33"/>
<text text-anchor="start" x="1209" y="-51" font-family="Helvetica,sans-Serif" font-size="10.00">MeshWorker::MGVectorData</text>
<text text-anchor="middle" x="1278" y="-40" font-family="Helvetica,sans-Serif" font-size="10.00">&lt; VectorType, dim, spacedim &gt;</text>
</a>
</g>
</g>
<!-- Node4&#45;&gt;Node5 -->
<g id="edge4" class="edge">
<title>Node4&#45;&gt;Node5</title>
<path fill="none" stroke="midnightblue" d="M1174.25,-48C1183.04,-48 1192.04,-48 1200.87,-48"/>
<polygon fill="midnightblue" stroke="midnightblue" points="1174.04,-44.5 1164.04,-48 1174.04,-51.5 1174.04,-44.5"/>
</g>
<!-- Node7 -->
<g id="node7" class="node">
<title>Node7</title>
<g id="a_node7"><a xlink:href="classMeshWorker_1_1VectorData.html" target="_top" xlink:title=" ">
<polygon fill="white" stroke="black" points="759,-10 759,-40 913,-40 913,-10 759,-10"/>
<text text-anchor="start" x="767" y="-28" font-family="Helvetica,sans-Serif" font-size="10.00">MeshWorker::VectorData</text>
<text text-anchor="middle" x="836" y="-17" font-family="Helvetica,sans-Serif" font-size="10.00">&lt; VectorType, dim, spacedim &gt;</text>
</a>
</g>
</g>
<!-- Node6&#45;&gt;Node7 -->
<g id="edge6" class="edge">
<title>Node6&#45;&gt;Node7</title>
<path fill="none" stroke="midnightblue" d="M732.44,-22.8C741.21,-22.99 750.09,-23.18 758.77,-23.36"/>
<polygon fill="midnightblue" stroke="midnightblue" points="732.28,-19.3 722.21,-22.58 732.13,-26.29 732.28,-19.3"/>
</g>
<!-- Node7&#45;&gt;Node4 -->
<g id="edge7" class="edge">
<title>Node7&#45;&gt;Node4</title>
<path fill="none" stroke="orange" stroke-dasharray="5,2" d="M923.37,-27.16C953.39,-28.47 987.24,-30.59 1018,-34 1023.82,-34.64 1029.85,-35.44 1035.87,-36.33"/>
<polygon fill="orange" stroke="orange" points="923.48,-23.66 913.34,-26.74 923.19,-30.65 923.48,-23.66"/>
<text text-anchor="start" x="931" y="-48" font-family="Helvetica,sans-Serif" font-size="10.00"> &lt; VectorType, dim,</text>
<text text-anchor="middle" x="974.5" y="-37" font-family="Helvetica,sans-Serif" font-size="10.00"> dim &gt;</text>
</g>
</g>
</svg>
