<?xml version="1.0" encoding="UTF-8" standalone="no"?>
<!DOCTYPE svg PUBLIC "-//W3C//DTD SVG 1.1//EN"
 "http://www.w3.org/Graphics/SVG/1.1/DTD/svg11.dtd">
<!-- Generated by graphviz version 2.47.1 (20210417.1919)
 -->
<!-- Title: Table&lt; 3, T &gt; Pages: 1 -->
<svg width="169pt" height="209pt"
 viewBox="0.00 0.00 169.00 209.00" xmlns="http://www.w3.org/2000/svg" xmlns:xlink="http://www.w3.org/1999/xlink">
<g id="graph0" class="graph" transform="scale(1 1) rotate(0) translate(4 205)">
<title>Table&lt; 3, T &gt;</title>
<polygon fill="white" stroke="transparent" points="-4,4 -4,-205 165,-205 165,4 -4,4"/>
<!-- Node1 -->
<g id="node1" class="node">
<title>Node1</title>
<g id="a_node1"><a xlink:title=" ">
<polygon fill="#bfbfbf" stroke="black" points="11.5,-0.5 11.5,-19.5 86.5,-19.5 86.5,-0.5 11.5,-0.5"/>
<text text-anchor="middle" x="49" y="-7.5" font-family="Helvetica,sans-Serif" font-size="10.00">Table&lt; 3, T &gt;</text>
</a>
</g>
</g>
<!-- Node2 -->
<g id="node2" class="node">
<title>Node2</title>
<g id="a_node2"><a xlink:href="classTableBase.html" target="_top" xlink:title=" ">
<polygon fill="white" stroke="black" points="0,-57.5 0,-76.5 98,-76.5 98,-57.5 0,-57.5"/>
<text text-anchor="middle" x="49" y="-64.5" font-family="Helvetica,sans-Serif" font-size="10.00">TableBase&lt; 3, T &gt;</text>
</a>
</g>
</g>
<!-- Node2&#45;&gt;Node1 -->
<g id="edge1" class="edge">
<title>Node2&#45;&gt;Node1</title>
<path fill="none" stroke="midnightblue" d="M49,-47.12C49,-37.82 49,-27.06 49,-19.71"/>
<polygon fill="midnightblue" stroke="midnightblue" points="45.5,-47.41 49,-57.41 52.5,-47.41 45.5,-47.41"/>
</g>
<!-- Node3 -->
<g id="node3" class="node">
<title>Node3</title>
<g id="a_node3"><a xlink:href="classSubscriptor.html" target="_top" xlink:title=" ">
<polygon fill="white" stroke="black" points="12,-181.5 12,-200.5 78,-200.5 78,-181.5 12,-181.5"/>
<text text-anchor="middle" x="45" y="-188.5" font-family="Helvetica,sans-Serif" font-size="10.00">Subscriptor</text>
</a>
</g>
</g>
<!-- Node3&#45;&gt;Node2 -->
<g id="edge2" class="edge">
<title>Node3&#45;&gt;Node2</title>
<path fill="none" stroke="midnightblue" d="M45.62,-171.19C46.5,-144.4 48.07,-96.31 48.71,-76.69"/>
<polygon fill="midnightblue" stroke="midnightblue" points="42.12,-171.12 45.29,-181.23 49.11,-171.35 42.12,-171.12"/>
</g>
<!-- Node4 -->
<g id="node4" class="node">
<title>Node4</title>
<g id="a_node4"><a xlink:href="classTableBase.html" target="_top" xlink:title=" ">
<polygon fill="white" stroke="black" points="61,-124.5 61,-143.5 161,-143.5 161,-124.5 61,-124.5"/>
<text text-anchor="middle" x="111" y="-131.5" font-family="Helvetica,sans-Serif" font-size="10.00">TableBase&lt; N, T &gt;</text>
</a>
</g>
</g>
<!-- Node3&#45;&gt;Node4 -->
<g id="edge4" class="edge">
<title>Node3&#45;&gt;Node4</title>
<path fill="none" stroke="midnightblue" d="M63,-175C75.05,-164.96 90.47,-152.1 100.54,-143.71"/>
<polygon fill="midnightblue" stroke="midnightblue" points="60.75,-172.32 55.31,-181.41 65.24,-177.69 60.75,-172.32"/>
</g>
<!-- Node4&#45;&gt;Node2 -->
<g id="edge3" class="edge">
<title>Node4&#45;&gt;Node2</title>
<path fill="none" stroke="orange" stroke-dasharray="5,2" d="M95.74,-117C83.58,-104.25 67.02,-86.89 57.23,-76.63"/>
<polygon fill="orange" stroke="orange" points="93.2,-119.41 102.64,-124.23 98.27,-114.58 93.2,-119.41"/>
<text text-anchor="middle" x="102.5" y="-98" font-family="Helvetica,sans-Serif" font-size="10.00"> &lt; 3, T &gt;</text>
</g>
</g>
</svg>
