<?xml version="1.0" encoding="UTF-8" standalone="no"?>
<!DOCTYPE svg PUBLIC "-//W3C//DTD SVG 1.1//EN"
 "http://www.w3.org/Graphics/SVG/1.1/DTD/svg11.dtd">
<!-- Generated by graphviz version 2.47.1 (20210417.1919)
 -->
<!-- Title: CellAccessor&lt; dim, spacedim &gt; Pages: 1 -->
<svg width="680pt" height="90pt"
 viewBox="0.00 0.00 680.00 90.00" xmlns="http://www.w3.org/2000/svg" xmlns:xlink="http://www.w3.org/1999/xlink">
<g id="graph0" class="graph" transform="scale(1 1) rotate(0) translate(4 86)">
<title>CellAccessor&lt; dim, spacedim &gt;</title>
<polygon fill="white" stroke="transparent" points="-4,4 -4,-86 676,-86 676,4 -4,4"/>
<!-- Node1 -->
<g id="node1" class="node">
<title>Node1</title>
<g id="a_node1"><a xlink:title=" ">
<polygon fill="#bfbfbf" stroke="black" points="569,-26.5 569,-56.5 672,-56.5 672,-26.5 569,-26.5"/>
<text text-anchor="start" x="577" y="-44.5" font-family="Helvetica,sans-Serif" font-size="10.00">CellAccessor&lt; dim,</text>
<text text-anchor="middle" x="620.5" y="-33.5" font-family="Helvetica,sans-Serif" font-size="10.00"> spacedim &gt;</text>
</a>
</g>
</g>
<!-- Node2 -->
<g id="node2" class="node">
<title>Node2</title>
<g id="a_node2"><a xlink:href="classTriaAccessor.html" target="_top" xlink:title=" ">
<polygon fill="white" stroke="black" points="430,-26.5 430,-56.5 532,-56.5 532,-26.5 430,-26.5"/>
<text text-anchor="start" x="438" y="-44.5" font-family="Helvetica,sans-Serif" font-size="10.00">TriaAccessor&lt; dim,</text>
<text text-anchor="middle" x="481" y="-33.5" font-family="Helvetica,sans-Serif" font-size="10.00"> dim, dim &gt;</text>
</a>
</g>
</g>
<!-- Node2&#45;&gt;Node1 -->
<g id="edge1" class="edge">
<title>Node2&#45;&gt;Node1</title>
<path fill="none" stroke="midnightblue" d="M542.3,-41.5C551.15,-41.5 560.18,-41.5 568.82,-41.5"/>
<polygon fill="midnightblue" stroke="midnightblue" points="542.03,-38 532.03,-41.5 542.03,-45 542.03,-38"/>
</g>
<!-- Node3 -->
<g id="node3" class="node">
<title>Node3</title>
<g id="a_node3"><a xlink:href="classTriaAccessorBase.html" target="_top" xlink:title=" ">
<polygon fill="white" stroke="black" points="0,-22.5 0,-52.5 149,-52.5 149,-22.5 0,-22.5"/>
<text text-anchor="start" x="8" y="-40.5" font-family="Helvetica,sans-Serif" font-size="10.00">TriaAccessorBase&lt; structdim,</text>
<text text-anchor="middle" x="74.5" y="-29.5" font-family="Helvetica,sans-Serif" font-size="10.00"> dim, spacedim &gt;</text>
</a>
</g>
</g>
<!-- Node3&#45;&gt;Node2 -->
<g id="edge2" class="edge">
<title>Node3&#45;&gt;Node2</title>
<path fill="none" stroke="midnightblue" d="M159.67,-40.27C162.14,-40.35 164.59,-40.42 167,-40.5 275.86,-43.94 303.14,-48.7 412,-45.5 417.79,-45.33 423.86,-45.08 429.88,-44.78"/>
<polygon fill="midnightblue" stroke="midnightblue" points="159.52,-36.76 149.41,-39.94 159.29,-43.76 159.52,-36.76"/>
</g>
<!-- Node3&#45;&gt;Node3 -->
<g id="edge3" class="edge">
<title>Node3&#45;&gt;Node3</title>
<path fill="none" stroke="orange" stroke-dasharray="5,2" d="M58.15,-62.96C60.18,-67.68 65.63,-71 74.5,-71 89.05,-71 94.4,-62.06 90.53,-52.66"/>
<polygon fill="orange" stroke="orange" points="61.66,-62.76 58.47,-52.66 54.66,-62.55 61.66,-62.76"/>
<text text-anchor="middle" x="74.5" y="-74" font-family="Helvetica,sans-Serif" font-size="10.00"> &lt; structdim, dim, spacedim &gt;</text>
</g>
<!-- Node4 -->
<g id="node4" class="node">
<title>Node4</title>
<g id="a_node4"><a xlink:href="classTriaAccessor.html" target="_top" xlink:title=" ">
<polygon fill="white" stroke="black" points="186,-0.5 186,-30.5 313,-30.5 313,-0.5 186,-0.5"/>
<text text-anchor="start" x="194" y="-18.5" font-family="Helvetica,sans-Serif" font-size="10.00">TriaAccessor&lt; structdim,</text>
<text text-anchor="middle" x="249.5" y="-7.5" font-family="Helvetica,sans-Serif" font-size="10.00"> dim, spacedim &gt;</text>
</a>
</g>
</g>
<!-- Node3&#45;&gt;Node4 -->
<g id="edge5" class="edge">
<title>Node3&#45;&gt;Node4</title>
<path fill="none" stroke="midnightblue" d="M159.21,-26.85C168.18,-25.71 177.19,-24.57 185.86,-23.47"/>
<polygon fill="midnightblue" stroke="midnightblue" points="158.6,-23.4 149.12,-28.14 159.48,-30.35 158.6,-23.4"/>
</g>
<!-- Node4&#45;&gt;Node2 -->
<g id="edge4" class="edge">
<title>Node4&#45;&gt;Node2</title>
<path fill="none" stroke="orange" stroke-dasharray="5,2" d="M323.29,-23.75C357.94,-27.67 398.52,-32.27 429.71,-35.8"/>
<polygon fill="orange" stroke="orange" points="323.54,-20.25 313.21,-22.6 322.75,-27.21 323.54,-20.25"/>
<text text-anchor="middle" x="371.5" y="-36.5" font-family="Helvetica,sans-Serif" font-size="10.00"> &lt; dim, dim, dim &gt;</text>
</g>
</g>
</svg>
