<?xml version="1.0" encoding="UTF-8" standalone="no"?>
<!DOCTYPE svg PUBLIC "-//W3C//DTD SVG 1.1//EN"
 "http://www.w3.org/Graphics/SVG/1.1/DTD/svg11.dtd">
<!-- Generated by graphviz version 2.47.1 (20210417.1919)
 -->
<!-- Title: SolverIDR&lt; VectorType &gt; Pages: 1 -->
<svg width="219pt" height="220pt"
 viewBox="0.00 0.00 219.00 220.00" xmlns="http://www.w3.org/2000/svg" xmlns:xlink="http://www.w3.org/1999/xlink">
<g id="graph0" class="graph" transform="scale(1 1) rotate(0) translate(4 216)">
<title>SolverIDR&lt; VectorType &gt;</title>
<polygon fill="white" stroke="transparent" points="-4,4 -4,-216 215,-216 215,4 -4,4"/>
<!-- Node1 -->
<g id="node1" class="node">
<title>Node1</title>
<g id="a_node1"><a xlink:title=" ">
<polygon fill="#bfbfbf" stroke="black" points="0,-0.5 0,-19.5 130,-19.5 130,-0.5 0,-0.5"/>
<text text-anchor="middle" x="65" y="-7.5" font-family="Helvetica,sans-Serif" font-size="10.00">SolverIDR&lt; VectorType &gt;</text>
</a>
</g>
</g>
<!-- Node2 -->
<g id="node2" class="node">
<title>Node2</title>
<g id="a_node2"><a xlink:href="classSolverBase.html" target="_top" xlink:title=" ">
<polygon fill="white" stroke="black" points="13,-57.5 13,-87.5 117,-87.5 117,-57.5 13,-57.5"/>
<text text-anchor="start" x="21" y="-75.5" font-family="Helvetica,sans-Serif" font-size="10.00">SolverBase&lt; Vector</text>
<text text-anchor="middle" x="65" y="-64.5" font-family="Helvetica,sans-Serif" font-size="10.00">&lt; double &gt; &gt;</text>
</a>
</g>
</g>
<!-- Node2&#45;&gt;Node1 -->
<g id="edge1" class="edge">
<title>Node2&#45;&gt;Node1</title>
<path fill="none" stroke="midnightblue" d="M65,-47.35C65,-37.51 65,-26.78 65,-19.54"/>
<polygon fill="midnightblue" stroke="midnightblue" points="61.5,-47.47 65,-57.47 68.5,-47.47 61.5,-47.47"/>
</g>
<!-- Node3 -->
<g id="node3" class="node">
<title>Node3</title>
<g id="a_node3"><a xlink:href="classSubscriptor.html" target="_top" xlink:title=" ">
<polygon fill="white" stroke="black" points="28,-192.5 28,-211.5 94,-211.5 94,-192.5 28,-192.5"/>
<text text-anchor="middle" x="61" y="-199.5" font-family="Helvetica,sans-Serif" font-size="10.00">Subscriptor</text>
</a>
</g>
</g>
<!-- Node3&#45;&gt;Node2 -->
<g id="edge2" class="edge">
<title>Node3&#45;&gt;Node2</title>
<path fill="none" stroke="midnightblue" d="M61.6,-181.9C62.41,-156.05 63.84,-110.54 64.56,-87.59"/>
<polygon fill="midnightblue" stroke="midnightblue" points="58.09,-182.13 61.27,-192.24 65.09,-182.35 58.09,-182.13"/>
</g>
<!-- Node4 -->
<g id="node4" class="node">
<title>Node4</title>
<g id="a_node4"><a xlink:href="classSolverBase.html" target="_top" xlink:title=" ">
<polygon fill="white" stroke="black" points="77,-135.5 77,-154.5 211,-154.5 211,-135.5 77,-135.5"/>
<text text-anchor="middle" x="144" y="-142.5" font-family="Helvetica,sans-Serif" font-size="10.00">SolverBase&lt; VectorType &gt;</text>
</a>
</g>
</g>
<!-- Node3&#45;&gt;Node4 -->
<g id="edge4" class="edge">
<title>Node3&#45;&gt;Node4</title>
<path fill="none" stroke="midnightblue" d="M82.39,-186.82C97.81,-176.61 118.12,-163.15 131.12,-154.53"/>
<polygon fill="midnightblue" stroke="midnightblue" points="80.37,-183.96 73.97,-192.41 84.24,-189.8 80.37,-183.96"/>
</g>
<!-- Node4&#45;&gt;Node2 -->
<g id="edge3" class="edge">
<title>Node4&#45;&gt;Node2</title>
<path fill="none" stroke="orange" stroke-dasharray="5,2" d="M126.56,-128.44C112.88,-116.23 94.01,-99.39 80.77,-87.58"/>
<polygon fill="orange" stroke="orange" points="124.52,-131.31 134.31,-135.36 129.18,-126.09 124.52,-131.31"/>
<text text-anchor="middle" x="159.5" y="-109" font-family="Helvetica,sans-Serif" font-size="10.00"> &lt; Vector&lt; double &gt; &gt;</text>
</g>
</g>
</svg>
