<?xml version="1.0" encoding="UTF-8" standalone="no"?>
<!DOCTYPE svg PUBLIC "-//W3C//DTD SVG 1.1//EN"
 "http://www.w3.org/Graphics/SVG/1.1/DTD/svg11.dtd">
<!-- Generated by graphviz version 2.47.1 (20210417.1919)
 -->
<!-- Title: Differentiation::AD::PointLevelFunctionsBase&lt; dim, ADNumberTypeCode, ScalarType &gt; Pages: 1 -->
<svg width="1158pt" height="110pt"
 viewBox="0.00 0.00 1158.00 110.00" xmlns="http://www.w3.org/2000/svg" xmlns:xlink="http://www.w3.org/1999/xlink">
<g id="graph0" class="graph" transform="scale(1 1) rotate(0) translate(4 106)">
<title>Differentiation::AD::PointLevelFunctionsBase&lt; dim, ADNumberTypeCode, ScalarType &gt;</title>
<polygon fill="white" stroke="transparent" points="-4,4 -4,-106 1154,-106 1154,4 -4,4"/>
<!-- Node1 -->
<g id="node1" class="node">
<title>Node1</title>
<g id="a_node1"><a xlink:title=" ">
<polygon fill="#bfbfbf" stroke="black" points="485,-25 485,-77 628,-77 628,-25 485,-25"/>
<text text-anchor="start" x="493" y="-65" font-family="Helvetica,sans-Serif" font-size="10.00">Differentiation::AD</text>
<text text-anchor="start" x="493" y="-54" font-family="Helvetica,sans-Serif" font-size="10.00">::PointLevelFunctionsBase</text>
<text text-anchor="start" x="493" y="-43" font-family="Helvetica,sans-Serif" font-size="10.00">&lt; dim, ADNumberTypeCode,</text>
<text text-anchor="middle" x="556.5" y="-32" font-family="Helvetica,sans-Serif" font-size="10.00"> ScalarType &gt;</text>
</a>
</g>
</g>
<!-- Node4 -->
<g id="node4" class="node">
<title>Node4</title>
<g id="a_node4"><a xlink:href="classDifferentiation_1_1AD_1_1PointLevelFunctionsBase.html" target="_top" xlink:title=" ">
<polygon fill="white" stroke="black" points="794,-25 794,-77 937,-77 937,-25 794,-25"/>
<text text-anchor="start" x="802" y="-65" font-family="Helvetica,sans-Serif" font-size="10.00">Differentiation::AD</text>
<text text-anchor="start" x="802" y="-54" font-family="Helvetica,sans-Serif" font-size="10.00">::PointLevelFunctionsBase</text>
<text text-anchor="start" x="802" y="-43" font-family="Helvetica,sans-Serif" font-size="10.00">&lt; dim, ADNumberTypeCode,</text>
<text text-anchor="middle" x="865.5" y="-32" font-family="Helvetica,sans-Serif" font-size="10.00"> double &gt;</text>
</a>
</g>
</g>
<!-- Node1&#45;&gt;Node4 -->
<g id="edge3" class="edge">
<title>Node1&#45;&gt;Node4</title>
<path fill="none" stroke="orange" stroke-dasharray="5,2" d="M638.42,-51C686.7,-51 747.42,-51 793.77,-51"/>
<polygon fill="orange" stroke="orange" points="638.32,-47.5 628.32,-51 638.32,-54.5 638.32,-47.5"/>
<text text-anchor="start" x="646" y="-65" font-family="Helvetica,sans-Serif" font-size="10.00"> &lt; dim, ADNumberTypeCode,</text>
<text text-anchor="middle" x="711" y="-54" font-family="Helvetica,sans-Serif" font-size="10.00"> double &gt;</text>
</g>
<!-- Node2 -->
<g id="node2" class="node">
<title>Node2</title>
<g id="a_node2"><a xlink:href="classDifferentiation_1_1AD_1_1HelperBase.html" target="_top" xlink:title=" ">
<polygon fill="white" stroke="black" points="296,-30.5 296,-71.5 448,-71.5 448,-30.5 296,-30.5"/>
<text text-anchor="start" x="304" y="-59.5" font-family="Helvetica,sans-Serif" font-size="10.00">Differentiation::AD</text>
<text text-anchor="start" x="304" y="-48.5" font-family="Helvetica,sans-Serif" font-size="10.00">::HelperBase&lt; ADNumberType</text>
<text text-anchor="middle" x="372" y="-37.5" font-family="Helvetica,sans-Serif" font-size="10.00">Code, double &gt;</text>
</a>
</g>
</g>
<!-- Node2&#45;&gt;Node1 -->
<g id="edge1" class="edge">
<title>Node2&#45;&gt;Node1</title>
<path fill="none" stroke="midnightblue" d="M458.09,-51C467.06,-51 476.1,-51 484.88,-51"/>
<polygon fill="midnightblue" stroke="midnightblue" points="458.02,-47.5 448.02,-51 458.02,-54.5 458.02,-47.5"/>
</g>
<!-- Node3 -->
<g id="node3" class="node">
<title>Node3</title>
<g id="a_node3"><a xlink:href="classDifferentiation_1_1AD_1_1HelperBase.html" target="_top" xlink:title=" ">
<polygon fill="white" stroke="black" points="0,-30.5 0,-71.5 152,-71.5 152,-30.5 0,-30.5"/>
<text text-anchor="start" x="8" y="-59.5" font-family="Helvetica,sans-Serif" font-size="10.00">Differentiation::AD</text>
<text text-anchor="start" x="8" y="-48.5" font-family="Helvetica,sans-Serif" font-size="10.00">::HelperBase&lt; ADNumberType</text>
<text text-anchor="middle" x="76" y="-37.5" font-family="Helvetica,sans-Serif" font-size="10.00">Code, ScalarType &gt;</text>
</a>
</g>
</g>
<!-- Node3&#45;&gt;Node2 -->
<g id="edge2" class="edge">
<title>Node3&#45;&gt;Node2</title>
<path fill="none" stroke="orange" stroke-dasharray="5,2" d="M162.59,-51C204.77,-51 255.19,-51 295.87,-51"/>
<polygon fill="orange" stroke="orange" points="162.33,-47.5 152.33,-51 162.33,-54.5 162.33,-47.5"/>
<text text-anchor="start" x="170" y="-65" font-family="Helvetica,sans-Serif" font-size="10.00"> &lt; ADNumberTypeCode,</text>
<text text-anchor="middle" x="224" y="-54" font-family="Helvetica,sans-Serif" font-size="10.00"> double &gt;</text>
</g>
<!-- Node5 -->
<g id="node5" class="node">
<title>Node5</title>
<g id="a_node5"><a xlink:href="classDifferentiation_1_1AD_1_1ScalarFunction.html" target="_top" xlink:title=" ">
<polygon fill="white" stroke="black" points="974,-60.5 974,-101.5 1150,-101.5 1150,-60.5 974,-60.5"/>
<text text-anchor="start" x="982" y="-89.5" font-family="Helvetica,sans-Serif" font-size="10.00">Differentiation::AD</text>
<text text-anchor="start" x="982" y="-78.5" font-family="Helvetica,sans-Serif" font-size="10.00">::ScalarFunction&lt; dim,</text>
<text text-anchor="middle" x="1062" y="-67.5" font-family="Helvetica,sans-Serif" font-size="10.00"> ADNumberTypeCode, ScalarType &gt;</text>
</a>
</g>
</g>
<!-- Node4&#45;&gt;Node5 -->
<g id="edge4" class="edge">
<title>Node4&#45;&gt;Node5</title>
<path fill="none" stroke="midnightblue" d="M947.38,-63.47C956.07,-64.82 964.94,-66.18 973.71,-67.54"/>
<polygon fill="midnightblue" stroke="midnightblue" points="947.69,-59.98 937.27,-61.92 946.62,-66.9 947.69,-59.98"/>
</g>
<!-- Node6 -->
<g id="node6" class="node">
<title>Node6</title>
<g id="a_node6"><a xlink:href="classDifferentiation_1_1AD_1_1VectorFunction.html" target="_top" xlink:title=" ">
<polygon fill="white" stroke="black" points="974,-0.5 974,-41.5 1150,-41.5 1150,-0.5 974,-0.5"/>
<text text-anchor="start" x="982" y="-29.5" font-family="Helvetica,sans-Serif" font-size="10.00">Differentiation::AD</text>
<text text-anchor="start" x="982" y="-18.5" font-family="Helvetica,sans-Serif" font-size="10.00">::VectorFunction&lt; dim,</text>
<text text-anchor="middle" x="1062" y="-7.5" font-family="Helvetica,sans-Serif" font-size="10.00"> ADNumberTypeCode, ScalarType &gt;</text>
</a>
</g>
</g>
<!-- Node4&#45;&gt;Node6 -->
<g id="edge5" class="edge">
<title>Node4&#45;&gt;Node6</title>
<path fill="none" stroke="midnightblue" d="M947.38,-38.53C956.07,-37.18 964.94,-35.82 973.71,-34.46"/>
<polygon fill="midnightblue" stroke="midnightblue" points="946.62,-35.1 937.27,-40.08 947.69,-42.02 946.62,-35.1"/>
</g>
</g>
</svg>
