<?xml version="1.0" encoding="UTF-8" standalone="no"?>
<!DOCTYPE svg PUBLIC "-//W3C//DTD SVG 1.1//EN"
 "http://www.w3.org/Graphics/SVG/1.1/DTD/svg11.dtd">
<!-- Generated by graphviz version 2.47.1 (20210417.1919)
 -->
<!-- Title: BlockLinearOperator&lt; Range, Domain, BlockPayload &gt; Pages: 1 -->
<svg width="322pt" height="264pt"
 viewBox="0.00 0.00 321.50 264.00" xmlns="http://www.w3.org/2000/svg" xmlns:xlink="http://www.w3.org/1999/xlink">
<g id="graph0" class="graph" transform="scale(1 1) rotate(0) translate(4 260)">
<title>BlockLinearOperator&lt; Range, Domain, BlockPayload &gt;</title>
<polygon fill="white" stroke="transparent" points="-4,4 -4,-260 317.5,-260 317.5,4 -4,4"/>
<!-- Node1 -->
<g id="node1" class="node">
<title>Node1</title>
<g id="a_node1"><a xlink:title=" ">
<polygon fill="#bfbfbf" stroke="black" points="0,-0.5 0,-30.5 169,-30.5 169,-0.5 0,-0.5"/>
<text text-anchor="start" x="8" y="-18.5" font-family="Helvetica,sans-Serif" font-size="10.00">BlockLinearOperator</text>
<text text-anchor="middle" x="84.5" y="-7.5" font-family="Helvetica,sans-Serif" font-size="10.00">&lt; Range, Domain, BlockPayload &gt;</text>
</a>
</g>
</g>
<!-- Node2 -->
<g id="node2" class="node">
<title>Node2</title>
<g id="a_node2"><a xlink:href="classLinearOperator.html" target="_top" xlink:title=" ">
<polygon fill="white" stroke="black" points="24,-68.5 24,-109.5 145,-109.5 145,-68.5 24,-68.5"/>
<text text-anchor="start" x="32" y="-97.5" font-family="Helvetica,sans-Serif" font-size="10.00">LinearOperator&lt; Range,</text>
<text text-anchor="start" x="32" y="-86.5" font-family="Helvetica,sans-Serif" font-size="10.00"> Domain, BlockPayload</text>
<text text-anchor="middle" x="84.5" y="-75.5" font-family="Helvetica,sans-Serif" font-size="10.00">::BlockType &gt;</text>
</a>
</g>
</g>
<!-- Node2&#45;&gt;Node1 -->
<g id="edge1" class="edge">
<title>Node2&#45;&gt;Node1</title>
<path fill="none" stroke="midnightblue" d="M84.5,-58.16C84.5,-48.69 84.5,-38.65 84.5,-30.8"/>
<polygon fill="midnightblue" stroke="midnightblue" points="81,-58.46 84.5,-68.46 88,-58.46 81,-58.46"/>
</g>
<!-- Node3 -->
<g id="node3" class="node">
<title>Node3</title>
<g id="a_node3"><a xlink:title=" ">
<polygon fill="white" stroke="#bfbfbf" points="4.5,-174 4.5,-193 132.5,-193 132.5,-174 4.5,-174"/>
<text text-anchor="middle" x="68.5" y="-181" font-family="Helvetica,sans-Serif" font-size="10.00">BlockPayload::BlockType</text>
</a>
</g>
</g>
<!-- Node3&#45;&gt;Node2 -->
<g id="edge2" class="edge">
<title>Node3&#45;&gt;Node2</title>
<path fill="none" stroke="midnightblue" d="M71.72,-163.91C74.43,-148.22 78.31,-125.81 81.08,-109.79"/>
<polygon fill="midnightblue" stroke="midnightblue" points="68.23,-163.51 69.98,-173.96 75.13,-164.71 68.23,-163.51"/>
</g>
<!-- Node4 -->
<g id="node4" class="node">
<title>Node4</title>
<g id="a_node4"><a xlink:href="classLinearOperator.html" target="_top" xlink:title=" ">
<polygon fill="white" stroke="black" points="151,-168.5 151,-198.5 272,-198.5 272,-168.5 151,-168.5"/>
<text text-anchor="start" x="159" y="-186.5" font-family="Helvetica,sans-Serif" font-size="10.00">LinearOperator&lt; Range,</text>
<text text-anchor="middle" x="211.5" y="-175.5" font-family="Helvetica,sans-Serif" font-size="10.00"> Domain, Payload &gt;</text>
</a>
</g>
</g>
<!-- Node4&#45;&gt;Node2 -->
<g id="edge3" class="edge">
<title>Node4&#45;&gt;Node2</title>
<path fill="none" stroke="orange" stroke-dasharray="5,2" d="M183.85,-162.36C162.39,-146.73 132.82,-125.19 111.52,-109.68"/>
<polygon fill="orange" stroke="orange" points="182.07,-165.39 192.21,-168.45 186.19,-159.73 182.07,-165.39"/>
<text text-anchor="start" x="166.5" y="-142" font-family="Helvetica,sans-Serif" font-size="10.00"> &lt; Range, Domain, BlockPayload</text>
<text text-anchor="middle" x="240" y="-131" font-family="Helvetica,sans-Serif" font-size="10.00">::BlockType &gt;</text>
</g>
<!-- Node5 -->
<g id="node5" class="node">
<title>Node5</title>
<g id="a_node5"><a xlink:href="classPayload.html" target="_top" xlink:title=" ">
<polygon fill="white" stroke="black" points="185.5,-236.5 185.5,-255.5 237.5,-255.5 237.5,-236.5 185.5,-236.5"/>
<text text-anchor="middle" x="211.5" y="-243.5" font-family="Helvetica,sans-Serif" font-size="10.00">Payload</text>
</a>
</g>
</g>
<!-- Node5&#45;&gt;Node4 -->
<g id="edge4" class="edge">
<title>Node5&#45;&gt;Node4</title>
<path fill="none" stroke="midnightblue" d="M211.5,-226.22C211.5,-217.36 211.5,-206.96 211.5,-198.76"/>
<polygon fill="midnightblue" stroke="midnightblue" points="208,-226.33 211.5,-236.33 215,-226.33 208,-226.33"/>
</g>
</g>
</svg>
