<?xml version="1.0" encoding="UTF-8" standalone="no"?>
<!DOCTYPE svg PUBLIC "-//W3C//DTD SVG 1.1//EN"
 "http://www.w3.org/Graphics/SVG/1.1/DTD/svg11.dtd">
<!-- Generated by graphviz version 2.47.1 (20210417.1919)
 -->
<!-- Title: MatrixFreeOperators::MassOperator&lt; dim, fe_degree, n_q_points_1d, n_components, VectorType, VectorizedArrayType &gt; Pages: 1 -->
<svg width="760pt" height="85pt"
 viewBox="0.00 0.00 760.00 85.00" xmlns="http://www.w3.org/2000/svg" xmlns:xlink="http://www.w3.org/1999/xlink">
<g id="graph0" class="graph" transform="scale(1 1) rotate(0) translate(4 81)">
<title>MatrixFreeOperators::MassOperator&lt; dim, fe_degree, n_q_points_1d, n_components, VectorType, VectorizedArrayType &gt;</title>
<polygon fill="white" stroke="transparent" points="-4,4 -4,-81 756,-81 756,4 -4,4"/>
<!-- Node1 -->
<g id="node1" class="node">
<title>Node1</title>
<g id="a_node1"><a xlink:title=" ">
<polygon fill="#bfbfbf" stroke="black" points="591,-13.5 591,-76.5 752,-76.5 752,-13.5 591,-13.5"/>
<text text-anchor="start" x="599" y="-64.5" font-family="Helvetica,sans-Serif" font-size="10.00">MatrixFreeOperators</text>
<text text-anchor="start" x="599" y="-53.5" font-family="Helvetica,sans-Serif" font-size="10.00">::MassOperator&lt; dim,</text>
<text text-anchor="start" x="599" y="-42.5" font-family="Helvetica,sans-Serif" font-size="10.00"> fe_degree, n_q_points</text>
<text text-anchor="start" x="599" y="-31.5" font-family="Helvetica,sans-Serif" font-size="10.00">_1d, n_components, VectorType,</text>
<text text-anchor="middle" x="671.5" y="-20.5" font-family="Helvetica,sans-Serif" font-size="10.00"> VectorizedArrayType &gt;</text>
</a>
</g>
</g>
<!-- Node2 -->
<g id="node2" class="node">
<title>Node2</title>
<g id="a_node2"><a xlink:href="classMatrixFreeOperators_1_1Base.html" target="_top" xlink:title=" ">
<polygon fill="white" stroke="black" points="401,-13.5 401,-76.5 554,-76.5 554,-13.5 401,-13.5"/>
<text text-anchor="start" x="409" y="-64.5" font-family="Helvetica,sans-Serif" font-size="10.00">MatrixFreeOperators</text>
<text text-anchor="start" x="409" y="-53.5" font-family="Helvetica,sans-Serif" font-size="10.00">::Base&lt; dim, LinearAlgebra</text>
<text text-anchor="start" x="409" y="-42.5" font-family="Helvetica,sans-Serif" font-size="10.00">::distributed::Vector&lt; double</text>
<text text-anchor="start" x="409" y="-31.5" font-family="Helvetica,sans-Serif" font-size="10.00"> &gt;, VectorizedArray&lt; typename</text>
<text text-anchor="middle" x="477.5" y="-20.5" font-family="Helvetica,sans-Serif" font-size="10.00"> VectorType::value_type &gt; &gt;</text>
</a>
</g>
</g>
<!-- Node2&#45;&gt;Node1 -->
<g id="edge1" class="edge">
<title>Node2&#45;&gt;Node1</title>
<path fill="none" stroke="midnightblue" d="M564.38,-45C573.19,-45 582.11,-45 590.85,-45"/>
<polygon fill="midnightblue" stroke="midnightblue" points="564.11,-41.5 554.11,-45 564.11,-48.5 564.11,-41.5"/>
</g>
<!-- Node3 -->
<g id="node3" class="node">
<title>Node3</title>
<g id="a_node3"><a xlink:href="classSubscriptor.html" target="_top" xlink:title=" ">
<polygon fill="white" stroke="black" points="0,-45.5 0,-64.5 66,-64.5 66,-45.5 0,-45.5"/>
<text text-anchor="middle" x="33" y="-52.5" font-family="Helvetica,sans-Serif" font-size="10.00">Subscriptor</text>
</a>
</g>
</g>
<!-- Node3&#45;&gt;Node2 -->
<g id="edge2" class="edge">
<title>Node3&#45;&gt;Node2</title>
<path fill="none" stroke="midnightblue" d="M76.35,-60.19C142.17,-67.39 272.91,-78.21 383,-66 388.87,-65.35 394.91,-64.47 400.96,-63.45"/>
<polygon fill="midnightblue" stroke="midnightblue" points="76.69,-56.7 66.36,-59.07 75.91,-63.66 76.69,-56.7"/>
</g>
<!-- Node4 -->
<g id="node4" class="node">
<title>Node4</title>
<g id="a_node4"><a xlink:href="classMatrixFreeOperators_1_1Base.html" target="_top" xlink:title=" ">
<polygon fill="white" stroke="black" points="103,-0.5 103,-41.5 231,-41.5 231,-0.5 103,-0.5"/>
<text text-anchor="start" x="111" y="-29.5" font-family="Helvetica,sans-Serif" font-size="10.00">MatrixFreeOperators</text>
<text text-anchor="start" x="111" y="-18.5" font-family="Helvetica,sans-Serif" font-size="10.00">::Base&lt; dim, VectorType,</text>
<text text-anchor="middle" x="167" y="-7.5" font-family="Helvetica,sans-Serif" font-size="10.00"> VectorizedArrayType &gt;</text>
</a>
</g>
</g>
<!-- Node3&#45;&gt;Node4 -->
<g id="edge4" class="edge">
<title>Node3&#45;&gt;Node4</title>
<path fill="none" stroke="midnightblue" d="M76,-44.18C84.54,-41.98 93.71,-39.62 102.81,-37.28"/>
<polygon fill="midnightblue" stroke="midnightblue" points="75.1,-40.8 66.29,-46.68 76.85,-47.58 75.1,-40.8"/>
</g>
<!-- Node4&#45;&gt;Node2 -->
<g id="edge3" class="edge">
<title>Node4&#45;&gt;Node2</title>
<path fill="none" stroke="orange" stroke-dasharray="5,2" d="M241.13,-9.67C282.96,-5.16 336.25,-2.76 383,-11 388.87,-12.03 394.85,-13.41 400.82,-15.01"/>
<polygon fill="orange" stroke="orange" points="240.57,-6.21 231.03,-10.83 241.36,-13.17 240.57,-6.21"/>
<text text-anchor="start" x="249" y="-58" font-family="Helvetica,sans-Serif" font-size="10.00"> &lt; dim, LinearAlgebra</text>
<text text-anchor="start" x="249" y="-47" font-family="Helvetica,sans-Serif" font-size="10.00">::distributed::Vector</text>
<text text-anchor="start" x="249" y="-36" font-family="Helvetica,sans-Serif" font-size="10.00">&lt; double &gt;, VectorizedArray</text>
<text text-anchor="start" x="249" y="-25" font-family="Helvetica,sans-Serif" font-size="10.00">&lt; typename VectorType::value</text>
<text text-anchor="middle" x="316" y="-14" font-family="Helvetica,sans-Serif" font-size="10.00">_type &gt; &gt;</text>
</g>
</g>
</svg>
