<?xml version="1.0" encoding="UTF-8" standalone="no"?>
<!DOCTYPE svg PUBLIC "-//W3C//DTD SVG 1.1//EN"
 "http://www.w3.org/Graphics/SVG/1.1/DTD/svg11.dtd">
<!-- Generated by graphviz version 2.47.1 (20210417.1919)
 -->
<!-- Title: MGCoarseGridSVD&lt; number, VectorType &gt; Pages: 1 -->
<svg width="235pt" height="242pt"
 viewBox="0.00 0.00 235.00 242.00" xmlns="http://www.w3.org/2000/svg" xmlns:xlink="http://www.w3.org/1999/xlink">
<g id="graph0" class="graph" transform="scale(1 1) rotate(0) translate(4 238)">
<title>MGCoarseGridSVD&lt; number, VectorType &gt;</title>
<polygon fill="white" stroke="transparent" points="-4,4 -4,-238 231,-238 231,4 -4,4"/>
<!-- Node1 -->
<g id="node1" class="node">
<title>Node1</title>
<g id="a_node1"><a xlink:title=" ">
<polygon fill="#bfbfbf" stroke="black" points="0,-0.5 0,-30.5 146,-30.5 146,-0.5 0,-0.5"/>
<text text-anchor="start" x="8" y="-18.5" font-family="Helvetica,sans-Serif" font-size="10.00">MGCoarseGridSVD&lt; number,</text>
<text text-anchor="middle" x="73" y="-7.5" font-family="Helvetica,sans-Serif" font-size="10.00"> VectorType &gt;</text>
</a>
</g>
</g>
<!-- Node2 -->
<g id="node2" class="node">
<title>Node2</title>
<g id="a_node2"><a xlink:href="classMGCoarseGridBase.html" target="_top" xlink:title=" ">
<polygon fill="white" stroke="black" points="2,-68.5 2,-98.5 144,-98.5 144,-68.5 2,-68.5"/>
<text text-anchor="start" x="10" y="-86.5" font-family="Helvetica,sans-Serif" font-size="10.00">MGCoarseGridBase&lt; Vector</text>
<text text-anchor="middle" x="73" y="-75.5" font-family="Helvetica,sans-Serif" font-size="10.00">&lt; double &gt; &gt;</text>
</a>
</g>
</g>
<!-- Node2&#45;&gt;Node1 -->
<g id="edge1" class="edge">
<title>Node2&#45;&gt;Node1</title>
<path fill="none" stroke="midnightblue" d="M73,-58.03C73,-48.86 73,-38.74 73,-30.79"/>
<polygon fill="midnightblue" stroke="midnightblue" points="69.5,-58.18 73,-68.18 76.5,-58.18 69.5,-58.18"/>
</g>
<!-- Node3 -->
<g id="node3" class="node">
<title>Node3</title>
<g id="a_node3"><a xlink:href="classSubscriptor.html" target="_top" xlink:title=" ">
<polygon fill="white" stroke="black" points="36,-214.5 36,-233.5 102,-233.5 102,-214.5 36,-214.5"/>
<text text-anchor="middle" x="69" y="-221.5" font-family="Helvetica,sans-Serif" font-size="10.00">Subscriptor</text>
</a>
</g>
</g>
<!-- Node3&#45;&gt;Node2 -->
<g id="edge2" class="edge">
<title>Node3&#45;&gt;Node2</title>
<path fill="none" stroke="midnightblue" d="M69.54,-204.25C70.35,-176.19 71.86,-123.88 72.59,-98.73"/>
<polygon fill="midnightblue" stroke="midnightblue" points="66.04,-204.24 69.25,-214.34 73.04,-204.44 66.04,-204.24"/>
</g>
<!-- Node4 -->
<g id="node4" class="node">
<title>Node4</title>
<g id="a_node4"><a xlink:href="classMGCoarseGridBase.html" target="_top" xlink:title=" ">
<polygon fill="white" stroke="black" points="85,-146.5 85,-176.5 227,-176.5 227,-146.5 85,-146.5"/>
<text text-anchor="start" x="93" y="-164.5" font-family="Helvetica,sans-Serif" font-size="10.00">MGCoarseGridBase&lt; Vector</text>
<text text-anchor="middle" x="156" y="-153.5" font-family="Helvetica,sans-Serif" font-size="10.00">Type &gt;</text>
</a>
</g>
</g>
<!-- Node3&#45;&gt;Node4 -->
<g id="edge4" class="edge">
<title>Node3&#45;&gt;Node4</title>
<path fill="none" stroke="midnightblue" d="M89.91,-208.46C103.84,-198.77 122.05,-186.11 135.83,-176.53"/>
<polygon fill="midnightblue" stroke="midnightblue" points="87.68,-205.75 81.46,-214.33 91.67,-211.5 87.68,-205.75"/>
</g>
<!-- Node4&#45;&gt;Node2 -->
<g id="edge3" class="edge">
<title>Node4&#45;&gt;Node2</title>
<path fill="none" stroke="orange" stroke-dasharray="5,2" d="M132.95,-139.39C118.79,-126.43 101.04,-110.18 88.54,-98.73"/>
<polygon fill="orange" stroke="orange" points="130.65,-142.03 140.39,-146.2 135.38,-136.87 130.65,-142.03"/>
<text text-anchor="middle" x="167.5" y="-120" font-family="Helvetica,sans-Serif" font-size="10.00"> &lt; Vector&lt; double &gt; &gt;</text>
</g>
</g>
</svg>
