<?xml version="1.0" encoding="UTF-8" standalone="no"?>
<!DOCTYPE svg PUBLIC "-//W3C//DTD SVG 1.1//EN"
 "http://www.w3.org/Graphics/SVG/1.1/DTD/svg11.dtd">
<!-- Generated by graphviz version 2.47.1 (20210417.1919)
 -->
<!-- Title: FEFaceValues&lt; dim, spacedim &gt; Pages: 1 -->
<svg width="217pt" height="466pt"
 viewBox="0.00 0.00 217.00 466.00" xmlns="http://www.w3.org/2000/svg" xmlns:xlink="http://www.w3.org/1999/xlink">
<g id="graph0" class="graph" transform="scale(1 1) rotate(0) translate(4 462)">
<title>FEFaceValues&lt; dim, spacedim &gt;</title>
<polygon fill="white" stroke="transparent" points="-4,4 -4,-462 213,-462 213,4 -4,4"/>
<!-- Node1 -->
<g id="node1" class="node">
<title>Node1</title>
<g id="a_node1"><a xlink:title=" ">
<polygon fill="#bfbfbf" stroke="black" points="11.5,-78.5 11.5,-108.5 119.5,-108.5 119.5,-78.5 11.5,-78.5"/>
<text text-anchor="start" x="19.5" y="-96.5" font-family="Helvetica,sans-Serif" font-size="10.00">FEFaceValues&lt; dim,</text>
<text text-anchor="middle" x="65.5" y="-85.5" font-family="Helvetica,sans-Serif" font-size="10.00"> spacedim &gt;</text>
</a>
</g>
</g>
<!-- Node7 -->
<g id="node7" class="node">
<title>Node7</title>
<g id="a_node7"><a xlink:href="classFEFaceValues.html" target="_top" xlink:title=" ">
<polygon fill="white" stroke="black" points="11.5,-0.5 11.5,-30.5 119.5,-30.5 119.5,-0.5 11.5,-0.5"/>
<text text-anchor="start" x="19.5" y="-18.5" font-family="Helvetica,sans-Serif" font-size="10.00">FEFaceValues&lt; dim,</text>
<text text-anchor="middle" x="65.5" y="-7.5" font-family="Helvetica,sans-Serif" font-size="10.00"> dim &gt;</text>
</a>
</g>
</g>
<!-- Node1&#45;&gt;Node7 -->
<g id="edge8" class="edge">
<title>Node1&#45;&gt;Node7</title>
<path fill="none" stroke="orange" stroke-dasharray="5,2" d="M65.5,-68.09C65.5,-55.76 65.5,-41.22 65.5,-30.73"/>
<polygon fill="orange" stroke="orange" points="62,-68.2 65.5,-78.2 69,-68.21 62,-68.2"/>
<text text-anchor="middle" x="95" y="-52" font-family="Helvetica,sans-Serif" font-size="10.00"> &lt; dim, dim &gt;</text>
</g>
<!-- Node2 -->
<g id="node2" class="node">
<title>Node2</title>
<g id="a_node2"><a xlink:href="classFEFaceValuesBase.html" target="_top" xlink:title=" ">
<polygon fill="white" stroke="black" points="0,-146.5 0,-176.5 131,-176.5 131,-146.5 0,-146.5"/>
<text text-anchor="start" x="8" y="-164.5" font-family="Helvetica,sans-Serif" font-size="10.00">FEFaceValuesBase&lt; dim,</text>
<text text-anchor="middle" x="65.5" y="-153.5" font-family="Helvetica,sans-Serif" font-size="10.00"> dim &gt;</text>
</a>
</g>
</g>
<!-- Node2&#45;&gt;Node1 -->
<g id="edge1" class="edge">
<title>Node2&#45;&gt;Node1</title>
<path fill="none" stroke="midnightblue" d="M65.5,-136.03C65.5,-126.86 65.5,-116.74 65.5,-108.79"/>
<polygon fill="midnightblue" stroke="midnightblue" points="62,-136.18 65.5,-146.18 69,-136.18 62,-136.18"/>
</g>
<!-- Node3 -->
<g id="node3" class="node">
<title>Node3</title>
<g id="a_node3"><a xlink:href="classFEValuesBase.html" target="_top" xlink:title=" ">
<polygon fill="white" stroke="black" points="19,-370.5 19,-400.5 128,-400.5 128,-370.5 19,-370.5"/>
<text text-anchor="start" x="27" y="-388.5" font-family="Helvetica,sans-Serif" font-size="10.00">FEValuesBase&lt; dim,</text>
<text text-anchor="middle" x="73.5" y="-377.5" font-family="Helvetica,sans-Serif" font-size="10.00"> spacedim &gt;</text>
</a>
</g>
</g>
<!-- Node3&#45;&gt;Node2 -->
<g id="edge2" class="edge">
<title>Node3&#45;&gt;Node2</title>
<path fill="none" stroke="midnightblue" d="M72.51,-360.04C71.47,-334 69.8,-291.59 68.5,-255 67.51,-227.22 66.49,-194.74 65.93,-176.6"/>
<polygon fill="midnightblue" stroke="midnightblue" points="69.02,-360.28 72.92,-370.13 76.01,-360 69.02,-360.28"/>
</g>
<!-- Node6 -->
<g id="node6" class="node">
<title>Node6</title>
<g id="a_node6"><a xlink:href="classFEValuesBase.html" target="_top" xlink:title=" ">
<polygon fill="white" stroke="black" points="89,-292.5 89,-322.5 198,-322.5 198,-292.5 89,-292.5"/>
<text text-anchor="start" x="97" y="-310.5" font-family="Helvetica,sans-Serif" font-size="10.00">FEValuesBase&lt; dim,</text>
<text text-anchor="middle" x="143.5" y="-299.5" font-family="Helvetica,sans-Serif" font-size="10.00"> dim &gt;</text>
</a>
</g>
</g>
<!-- Node3&#45;&gt;Node6 -->
<g id="edge7" class="edge">
<title>Node3&#45;&gt;Node6</title>
<path fill="none" stroke="orange" stroke-dasharray="5,2" d="M75.37,-360.18C76.83,-353.46 79.31,-346.51 83.5,-341 89.31,-333.36 97.45,-327.3 105.86,-322.59"/>
<polygon fill="orange" stroke="orange" points="71.87,-359.9 73.83,-370.32 78.79,-360.96 71.87,-359.9"/>
<text text-anchor="middle" x="113" y="-344" font-family="Helvetica,sans-Serif" font-size="10.00"> &lt; dim, dim &gt;</text>
</g>
<!-- Node4 -->
<g id="node4" class="node">
<title>Node4</title>
<g id="a_node4"><a xlink:href="classSubscriptor.html" target="_top" xlink:title=" ">
<polygon fill="white" stroke="black" points="81.5,-438.5 81.5,-457.5 147.5,-457.5 147.5,-438.5 81.5,-438.5"/>
<text text-anchor="middle" x="114.5" y="-445.5" font-family="Helvetica,sans-Serif" font-size="10.00">Subscriptor</text>
</a>
</g>
</g>
<!-- Node4&#45;&gt;Node3 -->
<g id="edge3" class="edge">
<title>Node4&#45;&gt;Node3</title>
<path fill="none" stroke="midnightblue" d="M102.96,-429.97C96.71,-420.75 89.09,-409.5 83.16,-400.76"/>
<polygon fill="midnightblue" stroke="midnightblue" points="100.12,-432.02 108.63,-438.33 105.91,-428.09 100.12,-432.02"/>
</g>
<!-- Node4&#45;&gt;Node6 -->
<g id="edge6" class="edge">
<title>Node4&#45;&gt;Node6</title>
<path fill="none" stroke="midnightblue" d="M125.14,-429.48C129.7,-421.14 134.64,-410.86 137.5,-401 145.31,-374.11 145.28,-341.04 144.45,-322.61"/>
<polygon fill="midnightblue" stroke="midnightblue" points="122.06,-427.82 120.1,-438.23 128.12,-431.32 122.06,-427.82"/>
</g>
<!-- Node5 -->
<g id="node5" class="node">
<title>Node5</title>
<g id="a_node5"><a xlink:href="classFEFaceValuesBase.html" target="_top" xlink:title=" ">
<polygon fill="white" stroke="black" points="78,-224.5 78,-254.5 209,-254.5 209,-224.5 78,-224.5"/>
<text text-anchor="start" x="86" y="-242.5" font-family="Helvetica,sans-Serif" font-size="10.00">FEFaceValuesBase&lt; dim,</text>
<text text-anchor="middle" x="143.5" y="-231.5" font-family="Helvetica,sans-Serif" font-size="10.00"> spacedim &gt;</text>
</a>
</g>
</g>
<!-- Node5&#45;&gt;Node2 -->
<g id="edge4" class="edge">
<title>Node5&#45;&gt;Node2</title>
<path fill="none" stroke="orange" stroke-dasharray="5,2" d="M121.47,-217.03C108.23,-204.13 91.74,-188.07 80.11,-176.73"/>
<polygon fill="orange" stroke="orange" points="119.22,-219.73 128.83,-224.2 124.11,-214.72 119.22,-219.73"/>
<text text-anchor="middle" x="138" y="-198" font-family="Helvetica,sans-Serif" font-size="10.00"> &lt; dim, dim &gt;</text>
</g>
<!-- Node6&#45;&gt;Node5 -->
<g id="edge5" class="edge">
<title>Node6&#45;&gt;Node5</title>
<path fill="none" stroke="midnightblue" d="M143.5,-282.03C143.5,-272.86 143.5,-262.74 143.5,-254.79"/>
<polygon fill="midnightblue" stroke="midnightblue" points="140,-282.18 143.5,-292.18 147,-282.18 140,-282.18"/>
</g>
</g>
</svg>
