<?xml version="1.0" encoding="UTF-8" standalone="no"?>
<!DOCTYPE svg PUBLIC "-//W3C//DTD SVG 1.1//EN"
 "http://www.w3.org/Graphics/SVG/1.1/DTD/svg11.dtd">
<!-- Generated by graphviz version 2.47.1 (20210417.1919)
 -->
<!-- Title: ComponentSelectFunction&lt; dim, RangeNumberType &gt; Pages: 1 -->
<svg width="1432pt" height="93pt"
 viewBox="0.00 0.00 1432.00 93.00" xmlns="http://www.w3.org/2000/svg" xmlns:xlink="http://www.w3.org/1999/xlink">
<g id="graph0" class="graph" transform="scale(1 1) rotate(0) translate(4 89)">
<title>ComponentSelectFunction&lt; dim, RangeNumberType &gt;</title>
<polygon fill="white" stroke="transparent" points="-4,4 -4,-89 1428,-89 1428,4 -4,4"/>
<!-- Node1 -->
<g id="node1" class="node">
<title>Node1</title>
<g id="a_node1"><a xlink:title=" ">
<polygon fill="#bfbfbf" stroke="black" points="1284,-32 1284,-62 1424,-62 1424,-32 1284,-32"/>
<text text-anchor="start" x="1292" y="-50" font-family="Helvetica,sans-Serif" font-size="10.00">ComponentSelectFunction</text>
<text text-anchor="middle" x="1354" y="-39" font-family="Helvetica,sans-Serif" font-size="10.00">&lt; dim, RangeNumberType &gt;</text>
</a>
</g>
</g>
<!-- Node2 -->
<g id="node2" class="node">
<title>Node2</title>
<g id="a_node2"><a xlink:href="classFunctions_1_1ConstantFunction.html" target="_top" xlink:title=" ">
<polygon fill="white" stroke="black" points="1104,-32 1104,-62 1247,-62 1247,-32 1104,-32"/>
<text text-anchor="start" x="1112" y="-50" font-family="Helvetica,sans-Serif" font-size="10.00">Functions::ConstantFunction</text>
<text text-anchor="middle" x="1175.5" y="-39" font-family="Helvetica,sans-Serif" font-size="10.00">&lt; dim, double &gt;</text>
</a>
</g>
</g>
<!-- Node2&#45;&gt;Node1 -->
<g id="edge1" class="edge">
<title>Node2&#45;&gt;Node1</title>
<path fill="none" stroke="midnightblue" d="M1257.03,-47C1265.95,-47 1274.98,-47 1283.74,-47"/>
<polygon fill="midnightblue" stroke="midnightblue" points="1257.02,-43.5 1247.02,-47 1257.02,-50.5 1257.02,-43.5"/>
</g>
<!-- Node3 -->
<g id="node3" class="node">
<title>Node3</title>
<g id="a_node3"><a xlink:href="classFunction.html" target="_top" xlink:title=" ">
<polygon fill="white" stroke="black" points="694,-37.5 694,-56.5 816,-56.5 816,-37.5 694,-37.5"/>
<text text-anchor="middle" x="755" y="-44.5" font-family="Helvetica,sans-Serif" font-size="10.00">Function&lt; dim, double &gt;</text>
</a>
</g>
</g>
<!-- Node3&#45;&gt;Node2 -->
<g id="edge2" class="edge">
<title>Node3&#45;&gt;Node2</title>
<path fill="none" stroke="midnightblue" d="M826.23,-50.96C893.06,-54.14 996.41,-57.54 1086,-54 1091.7,-53.77 1097.6,-53.47 1103.52,-53.11"/>
<polygon fill="midnightblue" stroke="midnightblue" points="826.4,-47.46 816.24,-50.47 826.06,-54.45 826.4,-47.46"/>
</g>
<!-- Node8 -->
<g id="node8" class="node">
<title>Node8</title>
<g id="a_node8"><a xlink:href="classFunctions_1_1ConstantFunction.html" target="_top" xlink:title=" ">
<polygon fill="white" stroke="black" points="853,-10 853,-40 996,-40 996,-10 853,-10"/>
<text text-anchor="start" x="861" y="-28" font-family="Helvetica,sans-Serif" font-size="10.00">Functions::ConstantFunction</text>
<text text-anchor="middle" x="924.5" y="-17" font-family="Helvetica,sans-Serif" font-size="10.00">&lt; dim, RangeNumberType &gt;</text>
</a>
</g>
</g>
<!-- Node3&#45;&gt;Node8 -->
<g id="edge10" class="edge">
<title>Node3&#45;&gt;Node8</title>
<path fill="none" stroke="midnightblue" d="M826.57,-37.73C835.27,-36.59 844.16,-35.42 852.86,-34.28"/>
<polygon fill="midnightblue" stroke="midnightblue" points="825.93,-34.28 816.47,-39.06 826.84,-41.23 825.93,-34.28"/>
</g>
<!-- Node4 -->
<g id="node4" class="node">
<title>Node4</title>
<g id="a_node4"><a xlink:href="classFunctionTime.html" target="_top" xlink:title=" ">
<polygon fill="white" stroke="black" points="279,-0.5 279,-41.5 401,-41.5 401,-0.5 279,-0.5"/>
<text text-anchor="start" x="287" y="-29.5" font-family="Helvetica,sans-Serif" font-size="10.00">FunctionTime&lt; numbers</text>
<text text-anchor="start" x="287" y="-18.5" font-family="Helvetica,sans-Serif" font-size="10.00">::NumberTraits&lt; double</text>
<text text-anchor="middle" x="340" y="-7.5" font-family="Helvetica,sans-Serif" font-size="10.00"> &gt;::real_type &gt;</text>
</a>
</g>
</g>
<!-- Node4&#45;&gt;Node3 -->
<g id="edge3" class="edge">
<title>Node4&#45;&gt;Node3</title>
<path fill="none" stroke="midnightblue" d="M411.19,-18.62C460.23,-17.61 527.2,-17.53 586,-22 625.55,-25.01 669.91,-31.76 703.12,-37.48"/>
<polygon fill="midnightblue" stroke="midnightblue" points="410.92,-15.12 401,-18.85 411.08,-22.12 410.92,-15.12"/>
</g>
<!-- Node7 -->
<g id="node7" class="node">
<title>Node7</title>
<g id="a_node7"><a xlink:href="classFunction.html" target="_top" xlink:title=" ">
<polygon fill="white" stroke="black" points="438,-32 438,-62 586,-62 586,-32 438,-32"/>
<text text-anchor="start" x="446" y="-50" font-family="Helvetica,sans-Serif" font-size="10.00">Function&lt; dim, RangeNumber</text>
<text text-anchor="middle" x="512" y="-39" font-family="Helvetica,sans-Serif" font-size="10.00">Type &gt;</text>
</a>
</g>
</g>
<!-- Node4&#45;&gt;Node7 -->
<g id="edge7" class="edge">
<title>Node4&#45;&gt;Node7</title>
<path fill="none" stroke="midnightblue" d="M411.54,-31.79C420.27,-33.12 429.21,-34.49 437.97,-35.83"/>
<polygon fill="midnightblue" stroke="midnightblue" points="411.83,-28.29 401.41,-30.24 410.77,-35.21 411.83,-28.29"/>
</g>
<!-- Node5 -->
<g id="node5" class="node">
<title>Node5</title>
<g id="a_node5"><a xlink:href="classFunctionTime.html" target="_top" xlink:title=" ">
<polygon fill="white" stroke="black" points="0,-11.5 0,-30.5 128,-30.5 128,-11.5 0,-11.5"/>
<text text-anchor="middle" x="64" y="-18.5" font-family="Helvetica,sans-Serif" font-size="10.00">FunctionTime&lt; Number &gt;</text>
</a>
</g>
</g>
<!-- Node5&#45;&gt;Node4 -->
<g id="edge4" class="edge">
<title>Node5&#45;&gt;Node4</title>
<path fill="none" stroke="orange" stroke-dasharray="5,2" d="M138.27,-21C182.26,-21 237.53,-21 278.93,-21"/>
<polygon fill="orange" stroke="orange" points="138.21,-17.5 128.21,-21 138.21,-24.5 138.21,-17.5"/>
<text text-anchor="start" x="146" y="-35" font-family="Helvetica,sans-Serif" font-size="10.00"> &lt; numbers::NumberTraits</text>
<text text-anchor="middle" x="203.5" y="-24" font-family="Helvetica,sans-Serif" font-size="10.00">&lt; double &gt;::real_type &gt;</text>
</g>
<!-- Node6 -->
<g id="node6" class="node">
<title>Node6</title>
<g id="a_node6"><a xlink:href="classSubscriptor.html" target="_top" xlink:title=" ">
<polygon fill="white" stroke="black" points="307,-65.5 307,-84.5 373,-84.5 373,-65.5 307,-65.5"/>
<text text-anchor="middle" x="340" y="-72.5" font-family="Helvetica,sans-Serif" font-size="10.00">Subscriptor</text>
</a>
</g>
</g>
<!-- Node6&#45;&gt;Node3 -->
<g id="edge5" class="edge">
<title>Node6&#45;&gt;Node3</title>
<path fill="none" stroke="midnightblue" d="M383.38,-76.75C395.23,-77.06 408.12,-77.21 420,-77 533.95,-74.94 563.22,-78.45 676,-62 686.37,-60.49 697.46,-58.55 707.92,-56.58"/>
<polygon fill="midnightblue" stroke="midnightblue" points="383.38,-73.25 373.28,-76.45 383.18,-80.25 383.38,-73.25"/>
</g>
<!-- Node6&#45;&gt;Node7 -->
<g id="edge8" class="edge">
<title>Node6&#45;&gt;Node7</title>
<path fill="none" stroke="midnightblue" d="M383.26,-68.04C399.78,-65.32 419.22,-62.12 437.89,-59.04"/>
<polygon fill="midnightblue" stroke="midnightblue" points="382.67,-64.59 373.38,-69.67 383.81,-71.5 382.67,-64.59"/>
</g>
<!-- Node7&#45;&gt;Node3 -->
<g id="edge6" class="edge">
<title>Node7&#45;&gt;Node3</title>
<path fill="none" stroke="orange" stroke-dasharray="5,2" d="M596.51,-47C628.45,-47 664.23,-47 693.61,-47"/>
<polygon fill="orange" stroke="orange" points="596.29,-43.5 586.29,-47 596.29,-50.5 596.29,-43.5"/>
<text text-anchor="middle" x="640" y="-50" font-family="Helvetica,sans-Serif" font-size="10.00"> &lt; dim, double &gt;</text>
</g>
<!-- Node8&#45;&gt;Node2 -->
<g id="edge9" class="edge">
<title>Node8&#45;&gt;Node2</title>
<path fill="none" stroke="orange" stroke-dasharray="5,2" d="M1006.22,-32.13C1037.61,-34.91 1073.26,-38.05 1103.64,-40.74"/>
<polygon fill="orange" stroke="orange" points="1006.46,-28.64 996.19,-31.25 1005.84,-35.61 1006.46,-28.64"/>
<text text-anchor="middle" x="1050" y="-42" font-family="Helvetica,sans-Serif" font-size="10.00"> &lt; dim, double &gt;</text>
</g>
</g>
</svg>
