<?xml version="1.0" encoding="UTF-8" standalone="no"?>
<!DOCTYPE svg PUBLIC "-//W3C//DTD SVG 1.1//EN"
 "http://www.w3.org/Graphics/SVG/1.1/DTD/svg11.dtd">
<!-- Generated by graphviz version 2.47.1 (20210417.1919)
 -->
<!-- Title: FE_SimplexP&lt; dim, spacedim &gt; Pages: 1 -->
<svg width="330pt" height="434pt"
 viewBox="0.00 0.00 330.00 434.00" xmlns="http://www.w3.org/2000/svg" xmlns:xlink="http://www.w3.org/1999/xlink">
<g id="graph0" class="graph" transform="scale(1 1) rotate(0) translate(4 430)">
<title>FE_SimplexP&lt; dim, spacedim &gt;</title>
<polygon fill="white" stroke="transparent" points="-4,4 -4,-430 326,-430 326,4 -4,4"/>
<!-- Node1 -->
<g id="node1" class="node">
<title>Node1</title>
<g id="a_node1"><a xlink:title=" ">
<polygon fill="#bfbfbf" stroke="black" points="5,-0.5 5,-19.5 163,-19.5 163,-0.5 5,-0.5"/>
<text text-anchor="middle" x="84" y="-7.5" font-family="Helvetica,sans-Serif" font-size="10.00">FE_SimplexP&lt; dim, spacedim &gt;</text>
</a>
</g>
</g>
<!-- Node2 -->
<g id="node2" class="node">
<title>Node2</title>
<g id="a_node2"><a xlink:href="classFE__SimplexPoly.html" target="_top" xlink:title=" ">
<polygon fill="white" stroke="black" points="25.5,-57.5 25.5,-87.5 142.5,-87.5 142.5,-57.5 25.5,-57.5"/>
<text text-anchor="start" x="33.5" y="-75.5" font-family="Helvetica,sans-Serif" font-size="10.00">FE_SimplexPoly&lt; dim,</text>
<text text-anchor="middle" x="84" y="-64.5" font-family="Helvetica,sans-Serif" font-size="10.00"> dim &gt;</text>
</a>
</g>
</g>
<!-- Node2&#45;&gt;Node1 -->
<g id="edge1" class="edge">
<title>Node2&#45;&gt;Node1</title>
<path fill="none" stroke="midnightblue" d="M84,-47.35C84,-37.51 84,-26.78 84,-19.54"/>
<polygon fill="midnightblue" stroke="midnightblue" points="80.5,-47.47 84,-57.47 87.5,-47.47 80.5,-47.47"/>
</g>
<!-- Node3 -->
<g id="node3" class="node">
<title>Node3</title>
<g id="a_node3"><a xlink:href="classFE__Poly.html" target="_top" xlink:title=" ">
<polygon fill="white" stroke="black" points="0,-270.5 0,-289.5 136,-289.5 136,-270.5 0,-270.5"/>
<text text-anchor="middle" x="68" y="-277.5" font-family="Helvetica,sans-Serif" font-size="10.00">FE_Poly&lt; dim, spacedim &gt;</text>
</a>
</g>
</g>
<!-- Node3&#45;&gt;Node2 -->
<g id="edge2" class="edge">
<title>Node3&#45;&gt;Node2</title>
<path fill="none" stroke="midnightblue" d="M69.45,-260.32C72.62,-219.69 80.07,-124.02 82.89,-87.77"/>
<polygon fill="midnightblue" stroke="midnightblue" points="65.95,-260.19 68.67,-270.43 72.93,-260.73 65.95,-260.19"/>
</g>
<!-- Node3&#45;&gt;Node3 -->
<g id="edge7" class="edge">
<title>Node3&#45;&gt;Node3</title>
<path fill="none" stroke="orange" stroke-dasharray="5,2" d="M146.1,-283.69C151.03,-282.83 154,-281.59 154,-280 154,-277.51 146.76,-275.91 136.13,-275.19"/>
<polygon fill="orange" stroke="orange" points="145.68,-280.22 136.13,-284.81 146.46,-287.17 145.68,-280.22"/>
<text text-anchor="middle" x="196.5" y="-277.5" font-family="Helvetica,sans-Serif" font-size="10.00"> &lt; dim, spacedim &gt;</text>
</g>
<!-- Node8 -->
<g id="node8" class="node">
<title>Node8</title>
<g id="a_node8"><a xlink:href="classFE__Poly.html" target="_top" xlink:title=" ">
<polygon fill="white" stroke="black" points="100,-203.5 100,-222.5 210,-222.5 210,-203.5 100,-203.5"/>
<text text-anchor="middle" x="155" y="-210.5" font-family="Helvetica,sans-Serif" font-size="10.00">FE_Poly&lt; dim, dim &gt;</text>
</a>
</g>
</g>
<!-- Node3&#45;&gt;Node8 -->
<g id="edge11" class="edge">
<title>Node3&#45;&gt;Node8</title>
<path fill="none" stroke="orange" stroke-dasharray="5,2" d="M87.99,-264.07C105.16,-251.24 129.32,-233.19 143.45,-222.63"/>
<polygon fill="orange" stroke="orange" points="85.65,-261.44 79.73,-270.23 89.84,-267.05 85.65,-261.44"/>
<text text-anchor="middle" x="146.5" y="-244" font-family="Helvetica,sans-Serif" font-size="10.00"> &lt; dim, dim &gt;</text>
</g>
<!-- Node4 -->
<g id="node4" class="node">
<title>Node4</title>
<g id="a_node4"><a xlink:href="classFiniteElement.html" target="_top" xlink:title=" ">
<polygon fill="white" stroke="black" points="115,-327.5 115,-357.5 219,-357.5 219,-327.5 115,-327.5"/>
<text text-anchor="start" x="123" y="-345.5" font-family="Helvetica,sans-Serif" font-size="10.00">FiniteElement&lt; dim,</text>
<text text-anchor="middle" x="167" y="-334.5" font-family="Helvetica,sans-Serif" font-size="10.00"> spacedim &gt;</text>
</a>
</g>
</g>
<!-- Node4&#45;&gt;Node3 -->
<g id="edge3" class="edge">
<title>Node4&#45;&gt;Node3</title>
<path fill="none" stroke="midnightblue" d="M135.05,-321.98C117.14,-311.03 95.7,-297.93 81.97,-289.54"/>
<polygon fill="midnightblue" stroke="midnightblue" points="133.68,-325.24 144.04,-327.47 137.33,-319.27 133.68,-325.24"/>
</g>
<!-- Node4&#45;&gt;Node4 -->
<g id="edge6" class="edge">
<title>Node4&#45;&gt;Node4</title>
<path fill="none" stroke="orange" stroke-dasharray="5,2" d="M229.4,-347.27C234.11,-346.21 237,-344.62 237,-342.5 237,-339.11 229.59,-337.08 219.2,-336.39"/>
<polygon fill="orange" stroke="orange" points="228.66,-343.84 219.2,-348.61 229.57,-350.78 228.66,-343.84"/>
<text text-anchor="middle" x="279.5" y="-340" font-family="Helvetica,sans-Serif" font-size="10.00"> &lt; dim, spacedim &gt;</text>
</g>
<!-- Node4&#45;&gt;Node8 -->
<g id="edge10" class="edge">
<title>Node4&#45;&gt;Node8</title>
<path fill="none" stroke="midnightblue" d="M213.3,-323.06C237.73,-310.33 260.33,-291.82 248,-270 234.28,-245.72 205.34,-230.79 183.36,-222.52"/>
<polygon fill="midnightblue" stroke="midnightblue" points="211.72,-319.93 204.28,-327.47 214.8,-326.22 211.72,-319.93"/>
</g>
<!-- Node5 -->
<g id="node5" class="node">
<title>Node5</title>
<g id="a_node5"><a xlink:href="classSubscriptor.html" target="_top" xlink:title=" ">
<polygon fill="white" stroke="black" points="83,-401 83,-420 149,-420 149,-401 83,-401"/>
<text text-anchor="middle" x="116" y="-408" font-family="Helvetica,sans-Serif" font-size="10.00">Subscriptor</text>
</a>
</g>
</g>
<!-- Node5&#45;&gt;Node4 -->
<g id="edge4" class="edge">
<title>Node5&#45;&gt;Node4</title>
<path fill="none" stroke="midnightblue" d="M129.02,-392.65C137.38,-381.83 148.12,-367.94 156.04,-357.68"/>
<polygon fill="midnightblue" stroke="midnightblue" points="126.01,-390.82 122.67,-400.87 131.55,-395.1 126.01,-390.82"/>
</g>
<!-- Node6 -->
<g id="node6" class="node">
<title>Node6</title>
<g id="a_node6"><a xlink:href="classFiniteElementData.html" target="_top" xlink:title=" ">
<polygon fill="white" stroke="black" points="167,-395.5 167,-425.5 271,-425.5 271,-395.5 167,-395.5"/>
<text text-anchor="start" x="175" y="-413.5" font-family="Helvetica,sans-Serif" font-size="10.00">FiniteElementData&lt;</text>
<text text-anchor="middle" x="219" y="-402.5" font-family="Helvetica,sans-Serif" font-size="10.00"> dim &gt;</text>
</a>
</g>
</g>
<!-- Node6&#45;&gt;Node4 -->
<g id="edge5" class="edge">
<title>Node6&#45;&gt;Node4</title>
<path fill="none" stroke="midnightblue" d="M201.36,-387.11C193.72,-377.41 185,-366.35 178.26,-357.79"/>
<polygon fill="midnightblue" stroke="midnightblue" points="198.78,-389.49 207.72,-395.18 204.28,-385.16 198.78,-389.49"/>
</g>
<!-- Node7 -->
<g id="node7" class="node">
<title>Node7</title>
<g id="a_node7"><a xlink:href="classFE__SimplexPoly.html" target="_top" xlink:title=" ">
<polygon fill="white" stroke="black" points="96.5,-135.5 96.5,-165.5 213.5,-165.5 213.5,-135.5 96.5,-135.5"/>
<text text-anchor="start" x="104.5" y="-153.5" font-family="Helvetica,sans-Serif" font-size="10.00">FE_SimplexPoly&lt; dim,</text>
<text text-anchor="middle" x="155" y="-142.5" font-family="Helvetica,sans-Serif" font-size="10.00"> spacedim &gt;</text>
</a>
</g>
</g>
<!-- Node7&#45;&gt;Node2 -->
<g id="edge8" class="edge">
<title>Node7&#45;&gt;Node2</title>
<path fill="none" stroke="orange" stroke-dasharray="5,2" d="M134.61,-127.67C122.61,-114.83 107.79,-98.97 97.29,-87.73"/>
<polygon fill="orange" stroke="orange" points="132.26,-130.29 141.65,-135.2 137.38,-125.51 132.26,-130.29"/>
<text text-anchor="middle" x="153.5" y="-109" font-family="Helvetica,sans-Serif" font-size="10.00"> &lt; dim, dim &gt;</text>
</g>
<!-- Node8&#45;&gt;Node7 -->
<g id="edge9" class="edge">
<title>Node8&#45;&gt;Node7</title>
<path fill="none" stroke="midnightblue" d="M155,-193.22C155,-184.36 155,-173.96 155,-165.76"/>
<polygon fill="midnightblue" stroke="midnightblue" points="151.5,-193.33 155,-203.33 158.5,-193.33 151.5,-193.33"/>
</g>
</g>
</svg>
