<?xml version="1.0" encoding="UTF-8" standalone="no"?>
<!DOCTYPE svg PUBLIC "-//W3C//DTD SVG 1.1//EN"
 "http://www.w3.org/Graphics/SVG/1.1/DTD/svg11.dtd">
<!-- Generated by graphviz version 2.47.1 (20210417.1919)
 -->
<!-- Title: SparseILU&lt; number &gt; Pages: 1 -->
<svg width="179pt" height="207pt"
 viewBox="0.00 0.00 179.00 207.00" xmlns="http://www.w3.org/2000/svg" xmlns:xlink="http://www.w3.org/1999/xlink">
<g id="graph0" class="graph" transform="scale(1 1) rotate(0) translate(4 203)">
<title>SparseILU&lt; number &gt;</title>
<polygon fill="white" stroke="transparent" points="-4,4 -4,-203 175,-203 175,4 -4,4"/>
<!-- Node1 -->
<g id="node1" class="node">
<title>Node1</title>
<g id="a_node1"><a xlink:title=" ">
<polygon fill="#bfbfbf" stroke="black" points="6,-0.5 6,-19.5 119,-19.5 119,-0.5 6,-0.5"/>
<text text-anchor="middle" x="62.5" y="-7.5" font-family="Helvetica,sans-Serif" font-size="10.00">SparseILU&lt; number &gt;</text>
</a>
</g>
</g>
<!-- Node2 -->
<g id="node2" class="node">
<title>Node2</title>
<g id="a_node2"><a xlink:href="classSparseLUDecomposition.html" target="_top" xlink:title=" ">
<polygon fill="white" stroke="black" points="0,-56.5 0,-86.5 125,-86.5 125,-56.5 0,-56.5"/>
<text text-anchor="start" x="8" y="-74.5" font-family="Helvetica,sans-Serif" font-size="10.00">SparseLUDecomposition</text>
<text text-anchor="middle" x="62.5" y="-63.5" font-family="Helvetica,sans-Serif" font-size="10.00">&lt; number &gt;</text>
</a>
</g>
</g>
<!-- Node2&#45;&gt;Node1 -->
<g id="edge1" class="edge">
<title>Node2&#45;&gt;Node1</title>
<path fill="none" stroke="midnightblue" d="M62.5,-46.29C62.5,-36.86 62.5,-26.65 62.5,-19.66"/>
<polygon fill="midnightblue" stroke="midnightblue" points="59,-46.4 62.5,-56.4 66,-46.4 59,-46.4"/>
</g>
<!-- Node3 -->
<g id="node3" class="node">
<title>Node3</title>
<g id="a_node3"><a xlink:href="classSparseMatrix.html" target="_top" xlink:title=" ">
<polygon fill="white" stroke="black" points="46,-123.5 46,-142.5 171,-142.5 171,-123.5 46,-123.5"/>
<text text-anchor="middle" x="108.5" y="-130.5" font-family="Helvetica,sans-Serif" font-size="10.00">SparseMatrix&lt; number &gt;</text>
</a>
</g>
</g>
<!-- Node3&#45;&gt;Node2 -->
<g id="edge2" class="edge">
<title>Node3&#45;&gt;Node2</title>
<path fill="none" stroke="darkgreen" d="M95.77,-115.53C88.72,-106.42 80.06,-95.21 73.34,-86.52"/>
<polygon fill="darkgreen" stroke="darkgreen" points="93.02,-117.7 101.91,-123.48 98.56,-113.42 93.02,-117.7"/>
</g>
<!-- Node4 -->
<g id="node4" class="node">
<title>Node4</title>
<g id="a_node4"><a xlink:href="classSubscriptor.html" target="_top" xlink:title=" ">
<polygon fill="white" stroke="black" points="29.5,-179.5 29.5,-198.5 95.5,-198.5 95.5,-179.5 29.5,-179.5"/>
<text text-anchor="middle" x="62.5" y="-186.5" font-family="Helvetica,sans-Serif" font-size="10.00">Subscriptor</text>
</a>
</g>
</g>
<!-- Node4&#45;&gt;Node2 -->
<g id="edge4" class="edge">
<title>Node4&#45;&gt;Node2</title>
<path fill="none" stroke="midnightblue" d="M50.26,-170.83C45.25,-162.79 40.05,-152.82 37.5,-143 32.32,-123.01 43.22,-100.66 52.22,-86.59"/>
<polygon fill="midnightblue" stroke="midnightblue" points="47.42,-172.89 55.87,-179.27 53.25,-169.01 47.42,-172.89"/>
</g>
<!-- Node4&#45;&gt;Node3 -->
<g id="edge3" class="edge">
<title>Node4&#45;&gt;Node3</title>
<path fill="none" stroke="midnightblue" d="M76.61,-171.43C84.68,-161.97 94.46,-150.48 101.05,-142.75"/>
<polygon fill="midnightblue" stroke="midnightblue" points="73.92,-169.2 70.1,-179.08 79.25,-173.74 73.92,-169.2"/>
</g>
</g>
</svg>
