<?xml version="1.0" encoding="UTF-8" standalone="no"?>
<!DOCTYPE svg PUBLIC "-//W3C//DTD SVG 1.1//EN"
 "http://www.w3.org/Graphics/SVG/1.1/DTD/svg11.dtd">
<!-- Generated by graphviz version 2.47.1 (20210417.1919)
 -->
<!-- Title: Functions::Kovasznay Pages: 1 -->
<svg width="296pt" height="388pt"
 viewBox="0.00 0.00 296.00 388.00" xmlns="http://www.w3.org/2000/svg" xmlns:xlink="http://www.w3.org/1999/xlink">
<g id="graph0" class="graph" transform="scale(1 1) rotate(0) translate(4 384)">
<title>Functions::Kovasznay</title>
<polygon fill="white" stroke="transparent" points="-4,4 -4,-384 292,-384 292,4 -4,4"/>
<!-- Node1 -->
<g id="node1" class="node">
<title>Node1</title>
<g id="a_node1"><a xlink:title=" ">
<polygon fill="#bfbfbf" stroke="black" points="95,-0.5 95,-19.5 209,-19.5 209,-0.5 95,-0.5"/>
<text text-anchor="middle" x="152" y="-7.5" font-family="Helvetica,sans-Serif" font-size="10.00">Functions::Kovasznay</text>
</a>
</g>
</g>
<!-- Node2 -->
<g id="node2" class="node">
<title>Node2</title>
<g id="a_node2"><a xlink:href="classFunctions_1_1FlowFunction.html" target="_top" xlink:title=" ">
<polygon fill="white" stroke="black" points="78.5,-57.5 78.5,-76.5 225.5,-76.5 225.5,-57.5 78.5,-57.5"/>
<text text-anchor="middle" x="152" y="-64.5" font-family="Helvetica,sans-Serif" font-size="10.00">Functions::FlowFunction&lt; 2 &gt;</text>
</a>
</g>
</g>
<!-- Node2&#45;&gt;Node1 -->
<g id="edge1" class="edge">
<title>Node2&#45;&gt;Node1</title>
<path fill="none" stroke="midnightblue" d="M152,-47.12C152,-37.82 152,-27.06 152,-19.71"/>
<polygon fill="midnightblue" stroke="midnightblue" points="148.5,-47.41 152,-57.41 155.5,-47.41 148.5,-47.41"/>
</g>
<!-- Node3 -->
<g id="node3" class="node">
<title>Node3</title>
<g id="a_node3"><a xlink:href="classFunction.html" target="_top" xlink:title=" ">
<polygon fill="white" stroke="black" points="74,-192.5 74,-222.5 222,-222.5 222,-192.5 74,-192.5"/>
<text text-anchor="start" x="82" y="-210.5" font-family="Helvetica,sans-Serif" font-size="10.00">Function&lt; dim, RangeNumber</text>
<text text-anchor="middle" x="148" y="-199.5" font-family="Helvetica,sans-Serif" font-size="10.00">Type &gt;</text>
</a>
</g>
</g>
<!-- Node3&#45;&gt;Node2 -->
<g id="edge2" class="edge">
<title>Node3&#45;&gt;Node2</title>
<path fill="none" stroke="midnightblue" d="M148.7,-182.36C149.6,-150.98 151.14,-97.72 151.75,-76.8"/>
<polygon fill="midnightblue" stroke="midnightblue" points="145.2,-182.36 148.41,-192.46 152.19,-182.56 145.2,-182.36"/>
</g>
<!-- Node7 -->
<g id="node7" class="node">
<title>Node7</title>
<g id="a_node7"><a xlink:href="classFunctions_1_1FlowFunction.html" target="_top" xlink:title=" ">
<polygon fill="white" stroke="black" points="164,-124.5 164,-154.5 288,-154.5 288,-124.5 164,-124.5"/>
<text text-anchor="start" x="172" y="-142.5" font-family="Helvetica,sans-Serif" font-size="10.00">Functions::FlowFunction</text>
<text text-anchor="middle" x="226" y="-131.5" font-family="Helvetica,sans-Serif" font-size="10.00">&lt; dim &gt;</text>
</a>
</g>
</g>
<!-- Node3&#45;&gt;Node7 -->
<g id="edge7" class="edge">
<title>Node3&#45;&gt;Node7</title>
<path fill="none" stroke="midnightblue" d="M172.8,-185.52C184.74,-175.41 198.74,-163.57 209.38,-154.57"/>
<polygon fill="midnightblue" stroke="midnightblue" points="170.3,-183.05 164.92,-192.18 174.82,-188.39 170.3,-183.05"/>
</g>
<!-- Node4 -->
<g id="node4" class="node">
<title>Node4</title>
<g id="a_node4"><a xlink:href="classFunctionTime.html" target="_top" xlink:title=" ">
<polygon fill="white" stroke="black" points="3,-260.5 3,-301.5 125,-301.5 125,-260.5 3,-260.5"/>
<text text-anchor="start" x="11" y="-289.5" font-family="Helvetica,sans-Serif" font-size="10.00">FunctionTime&lt; numbers</text>
<text text-anchor="start" x="11" y="-278.5" font-family="Helvetica,sans-Serif" font-size="10.00">::NumberTraits&lt; double</text>
<text text-anchor="middle" x="64" y="-267.5" font-family="Helvetica,sans-Serif" font-size="10.00"> &gt;::real_type &gt;</text>
</a>
</g>
</g>
<!-- Node4&#45;&gt;Node3 -->
<g id="edge3" class="edge">
<title>Node4&#45;&gt;Node3</title>
<path fill="none" stroke="midnightblue" d="M94.85,-253.74C107.24,-243.19 121.04,-231.45 131.47,-222.57"/>
<polygon fill="midnightblue" stroke="midnightblue" points="92.3,-251.32 86.95,-260.46 96.84,-256.65 92.3,-251.32"/>
</g>
<!-- Node5 -->
<g id="node5" class="node">
<title>Node5</title>
<g id="a_node5"><a xlink:href="classFunctionTime.html" target="_top" xlink:title=" ">
<polygon fill="white" stroke="black" points="0,-360.5 0,-379.5 128,-379.5 128,-360.5 0,-360.5"/>
<text text-anchor="middle" x="64" y="-367.5" font-family="Helvetica,sans-Serif" font-size="10.00">FunctionTime&lt; Number &gt;</text>
</a>
</g>
</g>
<!-- Node5&#45;&gt;Node4 -->
<g id="edge4" class="edge">
<title>Node5&#45;&gt;Node4</title>
<path fill="none" stroke="orange" stroke-dasharray="5,2" d="M64,-350.2C64,-335.88 64,-316.21 64,-301.68"/>
<polygon fill="orange" stroke="orange" points="60.5,-350.34 64,-360.34 67.5,-350.34 60.5,-350.34"/>
<text text-anchor="start" x="64" y="-334" font-family="Helvetica,sans-Serif" font-size="10.00"> &lt; numbers::NumberTraits</text>
<text text-anchor="middle" x="121.5" y="-323" font-family="Helvetica,sans-Serif" font-size="10.00">&lt; double &gt;::real_type &gt;</text>
</g>
<!-- Node6 -->
<g id="node6" class="node">
<title>Node6</title>
<g id="a_node6"><a xlink:href="classSubscriptor.html" target="_top" xlink:title=" ">
<polygon fill="white" stroke="black" points="143,-271.5 143,-290.5 209,-290.5 209,-271.5 143,-271.5"/>
<text text-anchor="middle" x="176" y="-278.5" font-family="Helvetica,sans-Serif" font-size="10.00">Subscriptor</text>
</a>
</g>
</g>
<!-- Node6&#45;&gt;Node3 -->
<g id="edge5" class="edge">
<title>Node6&#45;&gt;Node3</title>
<path fill="none" stroke="midnightblue" d="M168.81,-261.64C164.04,-249.45 157.87,-233.69 153.49,-222.51"/>
<polygon fill="midnightblue" stroke="midnightblue" points="165.66,-263.2 172.57,-271.23 172.18,-260.64 165.66,-263.2"/>
</g>
<!-- Node7&#45;&gt;Node2 -->
<g id="edge6" class="edge">
<title>Node7&#45;&gt;Node2</title>
<path fill="none" stroke="orange" stroke-dasharray="5,2" d="M203.58,-117.14C189.42,-103.65 171.88,-86.94 161.33,-76.89"/>
<polygon fill="orange" stroke="orange" points="201.37,-119.87 211.02,-124.23 206.2,-114.8 201.37,-119.87"/>
<text text-anchor="middle" x="204.5" y="-98" font-family="Helvetica,sans-Serif" font-size="10.00"> &lt; 2 &gt;</text>
</g>
</g>
</svg>
