<?xml version="1.0" encoding="UTF-8" standalone="no"?>
<!DOCTYPE svg PUBLIC "-//W3C//DTD SVG 1.1//EN"
 "http://www.w3.org/Graphics/SVG/1.1/DTD/svg11.dtd">
<!-- Generated by graphviz version 2.47.1 (20210417.1919)
 -->
<!-- Title: Mapping&lt; dim, spacedim &gt; Pages: 1 -->
<svg width="1037pt" height="335pt"
 viewBox="0.00 0.00 1037.00 335.00" xmlns="http://www.w3.org/2000/svg" xmlns:xlink="http://www.w3.org/1999/xlink">
<g id="graph0" class="graph" transform="scale(1 1) rotate(0) translate(4 331)">
<title>Mapping&lt; dim, spacedim &gt;</title>
<polygon fill="white" stroke="transparent" points="-4,4 -4,-331 1033,-331 1033,4 -4,4"/>
<!-- Node1 -->
<g id="node1" class="node">
<title>Node1</title>
<g id="a_node1"><a xlink:title="Abstract base class for mapping classes.">
<polygon fill="#bfbfbf" stroke="black" points="103,-214 103,-233 238,-233 238,-214 103,-214"/>
<text text-anchor="middle" x="170.5" y="-221" font-family="Helvetica,sans-Serif" font-size="10.00">Mapping&lt; dim, spacedim &gt;</text>
</a>
</g>
</g>
<!-- Node1&#45;&gt;Node1 -->
<g id="edge2" class="edge">
<title>Node1&#45;&gt;Node1</title>
<path fill="none" stroke="orange" stroke-dasharray="5,2" d="M162.58,-243.27C163.2,-248 165.84,-251.5 170.5,-251.5 178.14,-251.5 180.35,-242.07 177.13,-233.26"/>
<polygon fill="orange" stroke="orange" points="166.06,-243.62 163.87,-233.26 159.12,-242.73 166.06,-243.62"/>
<text text-anchor="middle" x="170.5" y="-254.5" font-family="Helvetica,sans-Serif" font-size="10.00"> &lt; dim, spacedim &gt;</text>
</g>
<!-- Node1&#45;&gt;Node1 -->
<g id="edge3" class="edge">
<title>Node1&#45;&gt;Node1</title>
<path fill="none" stroke="orange" stroke-dasharray="5,2" d="M156.03,-242.64C151.48,-256.14 156.31,-269.5 170.5,-269.5 187.97,-269.5 191.24,-249.26 180.33,-233.44"/>
<polygon fill="orange" stroke="orange" points="159.29,-243.94 160.67,-233.44 153.04,-240.79 159.29,-243.94"/>
<text text-anchor="middle" x="170.5" y="-272.5" font-family="Helvetica,sans-Serif" font-size="10.00"> &lt; dim, spacedim &gt;</text>
</g>
<!-- Node3 -->
<g id="node3" class="node">
<title>Node3</title>
<g id="a_node3"><a xlink:href="classMapping.html" target="_top" xlink:title=" ">
<polygon fill="white" stroke="black" points="333,-214 333,-233 442,-233 442,-214 333,-214"/>
<text text-anchor="middle" x="387.5" y="-221" font-family="Helvetica,sans-Serif" font-size="10.00">Mapping&lt; dim, dim &gt;</text>
</a>
</g>
</g>
<!-- Node1&#45;&gt;Node3 -->
<g id="edge4" class="edge">
<title>Node1&#45;&gt;Node3</title>
<path fill="none" stroke="orange" stroke-dasharray="5,2" d="M248.22,-223.5C276.23,-223.5 307.28,-223.5 332.85,-223.5"/>
<polygon fill="orange" stroke="orange" points="248.05,-220 238.05,-223.5 248.05,-227 248.05,-220"/>
<text text-anchor="middle" x="285.5" y="-226.5" font-family="Helvetica,sans-Serif" font-size="10.00"> &lt; dim, dim &gt;</text>
</g>
<!-- Node2 -->
<g id="node2" class="node">
<title>Node2</title>
<g id="a_node2"><a xlink:href="classSubscriptor.html" target="_top" xlink:title=" ">
<polygon fill="white" stroke="black" points="0,-214 0,-233 66,-233 66,-214 0,-214"/>
<text text-anchor="middle" x="33" y="-221" font-family="Helvetica,sans-Serif" font-size="10.00">Subscriptor</text>
</a>
</g>
</g>
<!-- Node2&#45;&gt;Node1 -->
<g id="edge1" class="edge">
<title>Node2&#45;&gt;Node1</title>
<path fill="none" stroke="midnightblue" d="M76.15,-223.5C84.68,-223.5 93.84,-223.5 102.97,-223.5"/>
<polygon fill="midnightblue" stroke="midnightblue" points="76.11,-220 66.11,-223.5 76.11,-227 76.11,-220"/>
</g>
<!-- Node4 -->
<g id="node4" class="node">
<title>Node4</title>
<g id="a_node4"><a xlink:href="classMappingCartesian.html" target="_top" xlink:title=" ">
<polygon fill="white" stroke="black" points="491.5,-296.5 491.5,-326.5 614.5,-326.5 614.5,-296.5 491.5,-296.5"/>
<text text-anchor="start" x="499.5" y="-314.5" font-family="Helvetica,sans-Serif" font-size="10.00">MappingCartesian&lt; dim,</text>
<text text-anchor="middle" x="553" y="-303.5" font-family="Helvetica,sans-Serif" font-size="10.00"> spacedim &gt;</text>
</a>
</g>
</g>
<!-- Node3&#45;&gt;Node4 -->
<g id="edge5" class="edge">
<title>Node3&#45;&gt;Node4</title>
<path fill="none" stroke="midnightblue" d="M407.98,-239.47C425.66,-253.35 452.88,-273.26 479,-286.5 486.17,-290.13 493.99,-293.44 501.76,-296.37"/>
<polygon fill="midnightblue" stroke="midnightblue" points="410.12,-236.69 400.12,-233.19 405.75,-242.16 410.12,-236.69"/>
</g>
<!-- Node5 -->
<g id="node5" class="node">
<title>Node5</title>
<g id="a_node5"><a xlink:href="classMappingFE.html" target="_top" xlink:title=" ">
<polygon fill="white" stroke="black" points="479,-258 479,-277 627,-277 627,-258 479,-258"/>
<text text-anchor="middle" x="553" y="-265" font-family="Helvetica,sans-Serif" font-size="10.00">MappingFE&lt; dim, spacedim &gt;</text>
</a>
</g>
</g>
<!-- Node3&#45;&gt;Node5 -->
<g id="edge6" class="edge">
<title>Node3&#45;&gt;Node5</title>
<path fill="none" stroke="midnightblue" d="M432.71,-235.85C447.42,-239.93 463.91,-244.45 479,-248.5 490.64,-251.62 503.34,-254.95 514.83,-257.94"/>
<polygon fill="midnightblue" stroke="midnightblue" points="433.42,-232.42 422.85,-233.12 431.55,-239.16 433.42,-232.42"/>
</g>
<!-- Node6 -->
<g id="node6" class="node">
<title>Node6</title>
<g id="a_node6"><a xlink:href="classMappingManifold.html" target="_top" xlink:title=" ">
<polygon fill="white" stroke="black" points="494,-208.5 494,-238.5 612,-238.5 612,-208.5 494,-208.5"/>
<text text-anchor="start" x="502" y="-226.5" font-family="Helvetica,sans-Serif" font-size="10.00">MappingManifold&lt; dim,</text>
<text text-anchor="middle" x="553" y="-215.5" font-family="Helvetica,sans-Serif" font-size="10.00"> spacedim &gt;</text>
</a>
</g>
</g>
<!-- Node3&#45;&gt;Node6 -->
<g id="edge7" class="edge">
<title>Node3&#45;&gt;Node6</title>
<path fill="none" stroke="midnightblue" d="M452.33,-223.5C466,-223.5 480.38,-223.5 493.83,-223.5"/>
<polygon fill="midnightblue" stroke="midnightblue" points="452.04,-220 442.04,-223.5 452.04,-227 452.04,-220"/>
</g>
<!-- Node7 -->
<g id="node7" class="node">
<title>Node7</title>
<g id="a_node7"><a xlink:href="classMappingQ.html" target="_top" xlink:title=" ">
<polygon fill="white" stroke="black" points="481.5,-141 481.5,-160 624.5,-160 624.5,-141 481.5,-141"/>
<text text-anchor="middle" x="553" y="-148" font-family="Helvetica,sans-Serif" font-size="10.00">MappingQ&lt; dim, spacedim &gt;</text>
</a>
</g>
</g>
<!-- Node3&#45;&gt;Node7 -->
<g id="edge8" class="edge">
<title>Node3&#45;&gt;Node7</title>
<path fill="none" stroke="midnightblue" d="M419.35,-209.73C451.86,-195.21 502.22,-172.73 530.62,-160.05"/>
<polygon fill="midnightblue" stroke="midnightblue" points="417.58,-206.68 409.87,-213.96 420.43,-213.08 417.58,-206.68"/>
</g>
<!-- Node11 -->
<g id="node11" class="node">
<title>Node11</title>
<g id="a_node11"><a xlink:href="classMappingQGeneric.html" target="_top" xlink:title=" ">
<polygon fill="white" stroke="black" points="492,-61.5 492,-91.5 614,-91.5 614,-61.5 492,-61.5"/>
<text text-anchor="start" x="500" y="-79.5" font-family="Helvetica,sans-Serif" font-size="10.00">MappingQGeneric&lt; dim,</text>
<text text-anchor="middle" x="553" y="-68.5" font-family="Helvetica,sans-Serif" font-size="10.00"> spacedim &gt;</text>
</a>
</g>
</g>
<!-- Node3&#45;&gt;Node11 -->
<g id="edge14" class="edge">
<title>Node3&#45;&gt;Node11</title>
<path fill="none" stroke="midnightblue" d="M403.98,-206.3C421.46,-187.23 451.11,-155.94 479,-131.5 495.47,-117.07 515.39,-102.21 530.27,-91.58"/>
<polygon fill="midnightblue" stroke="midnightblue" points="401.2,-204.15 397.06,-213.9 406.38,-208.86 401.2,-204.15"/>
</g>
<!-- Node7&#45;&gt;Node7 -->
<g id="edge9" class="edge">
<title>Node7&#45;&gt;Node7</title>
<path fill="none" stroke="orange" stroke-dasharray="5,2" d="M535.96,-169.9C537.1,-174.81 542.78,-178.5 553,-178.5 569.35,-178.5 574.08,-169.07 567.18,-160.26"/>
<polygon fill="orange" stroke="orange" points="539.34,-170.84 538.82,-160.26 532.62,-168.85 539.34,-170.84"/>
<text text-anchor="middle" x="553" y="-181.5" font-family="Helvetica,sans-Serif" font-size="10.00"> &lt; dim, spacedim &gt;</text>
</g>
<!-- Node8 -->
<g id="node8" class="node">
<title>Node8</title>
<g id="a_node8"><a xlink:href="classMappingQ.html" target="_top" xlink:title=" ">
<polygon fill="white" stroke="black" points="725,-143 725,-162 841,-162 841,-143 725,-143"/>
<text text-anchor="middle" x="783" y="-150" font-family="Helvetica,sans-Serif" font-size="10.00">MappingQ&lt; dim, dim &gt;</text>
</a>
</g>
</g>
<!-- Node7&#45;&gt;Node8 -->
<g id="edge10" class="edge">
<title>Node7&#45;&gt;Node8</title>
<path fill="none" stroke="orange" stroke-dasharray="5,2" d="M634.93,-151.21C664.6,-151.47 697.55,-151.76 724.73,-152"/>
<polygon fill="orange" stroke="orange" points="634.61,-147.71 624.58,-151.12 634.55,-154.71 634.61,-147.71"/>
<text text-anchor="middle" x="674.5" y="-155.5" font-family="Helvetica,sans-Serif" font-size="10.00"> &lt; dim, dim &gt;</text>
</g>
<!-- Node9 -->
<g id="node9" class="node">
<title>Node9</title>
<g id="a_node9"><a xlink:href="classMappingC1.html" target="_top" xlink:title=" ">
<polygon fill="white" stroke="black" points="881,-227 881,-246 1029,-246 1029,-227 881,-227"/>
<text text-anchor="middle" x="955" y="-234" font-family="Helvetica,sans-Serif" font-size="10.00">MappingC1&lt; dim, spacedim &gt;</text>
</a>
</g>
</g>
<!-- Node8&#45;&gt;Node9 -->
<g id="edge11" class="edge">
<title>Node8&#45;&gt;Node9</title>
<path fill="none" stroke="midnightblue" d="M803.94,-168.39C822.81,-182.75 852.44,-203.56 881,-216.5 890.22,-220.67 900.49,-224.15 910.36,-226.96"/>
<polygon fill="midnightblue" stroke="midnightblue" points="805.87,-165.46 795.82,-162.11 801.59,-171 805.87,-165.46"/>
</g>
<!-- Node10 -->
<g id="node10" class="node">
<title>Node10</title>
<g id="a_node10"><a xlink:href="classMappingQEulerian.html" target="_top" xlink:title=" ">
<polygon fill="white" stroke="black" points="892,-137.5 892,-167.5 1018,-167.5 1018,-137.5 892,-137.5"/>
<text text-anchor="start" x="900" y="-155.5" font-family="Helvetica,sans-Serif" font-size="10.00">MappingQEulerian&lt; dim,</text>
<text text-anchor="middle" x="955" y="-144.5" font-family="Helvetica,sans-Serif" font-size="10.00"> VectorType, spacedim &gt;</text>
</a>
</g>
</g>
<!-- Node8&#45;&gt;Node10 -->
<g id="edge12" class="edge">
<title>Node8&#45;&gt;Node10</title>
<path fill="none" stroke="midnightblue" d="M851.18,-152.5C864.58,-152.5 878.59,-152.5 891.82,-152.5"/>
<polygon fill="midnightblue" stroke="midnightblue" points="851.08,-149 841.08,-152.5 851.08,-156 851.08,-149"/>
</g>
<!-- Node10&#45;&gt;Node10 -->
<g id="edge13" class="edge">
<title>Node10&#45;&gt;Node10</title>
<path fill="none" stroke="orange" stroke-dasharray="5,2" d="M938.65,-177.96C940.68,-182.68 946.13,-186 955,-186 969.55,-186 974.9,-177.06 971.03,-167.66"/>
<polygon fill="orange" stroke="orange" points="942.16,-177.76 938.97,-167.66 935.16,-177.55 942.16,-177.76"/>
<text text-anchor="start" x="911.5" y="-200" font-family="Helvetica,sans-Serif" font-size="10.00"> &lt; dim, VectorType,</text>
<text text-anchor="middle" x="955" y="-189" font-family="Helvetica,sans-Serif" font-size="10.00"> spacedim &gt;</text>
</g>
<!-- Node11&#45;&gt;Node11 -->
<g id="edge15" class="edge">
<title>Node11&#45;&gt;Node11</title>
<path fill="none" stroke="orange" stroke-dasharray="5,2" d="M536.65,-101.96C538.68,-106.68 544.13,-110 553,-110 567.55,-110 572.9,-101.06 569.03,-91.66"/>
<polygon fill="orange" stroke="orange" points="540.16,-101.76 536.97,-91.66 533.16,-101.55 540.16,-101.76"/>
<text text-anchor="middle" x="553" y="-113" font-family="Helvetica,sans-Serif" font-size="10.00"> &lt; dim, spacedim &gt;</text>
</g>
<!-- Node12 -->
<g id="node12" class="node">
<title>Node12</title>
<g id="a_node12"><a xlink:href="classMappingQGeneric.html" target="_top" xlink:title=" ">
<polygon fill="white" stroke="black" points="722,-53.5 722,-83.5 844,-83.5 844,-53.5 722,-53.5"/>
<text text-anchor="start" x="730" y="-71.5" font-family="Helvetica,sans-Serif" font-size="10.00">MappingQGeneric&lt; dim,</text>
<text text-anchor="middle" x="783" y="-60.5" font-family="Helvetica,sans-Serif" font-size="10.00"> dim &gt;</text>
</a>
</g>
</g>
<!-- Node11&#45;&gt;Node12 -->
<g id="edge16" class="edge">
<title>Node11&#45;&gt;Node12</title>
<path fill="none" stroke="orange" stroke-dasharray="5,2" d="M624.56,-74.02C655.73,-72.93 691.99,-71.66 721.86,-70.61"/>
<polygon fill="orange" stroke="orange" points="624.07,-70.54 614.2,-74.39 624.32,-77.53 624.07,-70.54"/>
<text text-anchor="middle" x="674.5" y="-76.5" font-family="Helvetica,sans-Serif" font-size="10.00"> &lt; dim, dim &gt;</text>
</g>
<!-- Node13 -->
<g id="node13" class="node">
<title>Node13</title>
<g id="a_node13"><a xlink:href="classMappingQ1.html" target="_top" xlink:title=" ">
<polygon fill="white" stroke="black" points="881,-99 881,-118 1029,-118 1029,-99 881,-99"/>
<text text-anchor="middle" x="955" y="-106" font-family="Helvetica,sans-Serif" font-size="10.00">MappingQ1&lt; dim, spacedim &gt;</text>
</a>
</g>
</g>
<!-- Node12&#45;&gt;Node13 -->
<g id="edge17" class="edge">
<title>Node12&#45;&gt;Node13</title>
<path fill="none" stroke="midnightblue" d="M854.21,-85.02C874.4,-89.77 895.73,-94.79 913.47,-98.96"/>
<polygon fill="midnightblue" stroke="midnightblue" points="854.95,-81.6 844.41,-82.72 853.35,-88.41 854.95,-81.6"/>
</g>
<!-- Node14 -->
<g id="node14" class="node">
<title>Node14</title>
<g id="a_node14"><a xlink:href="classMappingQ1Eulerian.html" target="_top" xlink:title=" ">
<polygon fill="white" stroke="black" points="881,-49.5 881,-79.5 1029,-79.5 1029,-49.5 881,-49.5"/>
<text text-anchor="start" x="889" y="-67.5" font-family="Helvetica,sans-Serif" font-size="10.00">MappingQ1Eulerian&lt;</text>
<text text-anchor="middle" x="955" y="-56.5" font-family="Helvetica,sans-Serif" font-size="10.00"> dim, VectorType, spacedim &gt;</text>
</a>
</g>
</g>
<!-- Node12&#45;&gt;Node14 -->
<g id="edge18" class="edge">
<title>Node12&#45;&gt;Node14</title>
<path fill="none" stroke="midnightblue" d="M854.54,-66.84C863.27,-66.63 872.21,-66.42 880.97,-66.22"/>
<polygon fill="midnightblue" stroke="midnightblue" points="854.33,-63.34 844.41,-67.08 854.49,-70.34 854.33,-63.34"/>
</g>
<!-- Node15 -->
<g id="node15" class="node">
<title>Node15</title>
<g id="a_node15"><a xlink:href="classMappingQCache.html" target="_top" xlink:title=" ">
<polygon fill="white" stroke="black" points="896.5,-0.5 896.5,-30.5 1013.5,-30.5 1013.5,-0.5 896.5,-0.5"/>
<text text-anchor="start" x="904.5" y="-18.5" font-family="Helvetica,sans-Serif" font-size="10.00">MappingQCache&lt; dim,</text>
<text text-anchor="middle" x="955" y="-7.5" font-family="Helvetica,sans-Serif" font-size="10.00"> spacedim &gt;</text>
</a>
</g>
</g>
<!-- Node12&#45;&gt;Node15 -->
<g id="edge19" class="edge">
<title>Node12&#45;&gt;Node15</title>
<path fill="none" stroke="midnightblue" d="M841.91,-50.45C862.64,-43.98 885.78,-36.77 905.62,-30.58"/>
<polygon fill="midnightblue" stroke="midnightblue" points="840.77,-47.14 832.26,-53.45 842.85,-53.82 840.77,-47.14"/>
</g>
</g>
</svg>
