<?xml version="1.0" encoding="UTF-8" standalone="no"?>
<!DOCTYPE svg PUBLIC "-//W3C//DTD SVG 1.1//EN"
 "http://www.w3.org/Graphics/SVG/1.1/DTD/svg11.dtd">
<!-- Generated by graphviz version 2.47.1 (20210417.1919)
 -->
<!-- Title: parallel::DistributedTriangulationBase&lt; dim, spacedim &gt; Pages: 1 -->
<svg width="1457pt" height="154pt"
 viewBox="0.00 0.00 1457.00 154.00" xmlns="http://www.w3.org/2000/svg" xmlns:xlink="http://www.w3.org/1999/xlink">
<g id="graph0" class="graph" transform="scale(1 1) rotate(0) translate(4 150)">
<title>parallel::DistributedTriangulationBase&lt; dim, spacedim &gt;</title>
<polygon fill="white" stroke="transparent" points="-4,4 -4,-150 1453,-150 1453,4 -4,4"/>
<!-- Node1 -->
<g id="node1" class="node">
<title>Node1</title>
<g id="a_node1"><a xlink:title=" ">
<polygon fill="#bfbfbf" stroke="black" points="829,-79.5 829,-109.5 985,-109.5 985,-79.5 829,-79.5"/>
<text text-anchor="start" x="837" y="-97.5" font-family="Helvetica,sans-Serif" font-size="10.00">parallel::DistributedTriangulation</text>
<text text-anchor="middle" x="907" y="-86.5" font-family="Helvetica,sans-Serif" font-size="10.00">Base&lt; dim, spacedim &gt;</text>
</a>
</g>
</g>
<!-- Node7 -->
<g id="node7" class="node">
<title>Node7</title>
<g id="a_node7"><a xlink:href="classparallel_1_1DistributedTriangulationBase.html" target="_top" xlink:title=" ">
<polygon fill="white" stroke="black" points="1096,-107.5 1096,-137.5 1252,-137.5 1252,-107.5 1096,-107.5"/>
<text text-anchor="start" x="1104" y="-125.5" font-family="Helvetica,sans-Serif" font-size="10.00">parallel::DistributedTriangulation</text>
<text text-anchor="middle" x="1174" y="-114.5" font-family="Helvetica,sans-Serif" font-size="10.00">Base&lt; 1, spacedim &gt;</text>
</a>
</g>
</g>
<!-- Node1&#45;&gt;Node7 -->
<g id="edge9" class="edge">
<title>Node1&#45;&gt;Node7</title>
<path fill="none" stroke="orange" stroke-dasharray="5,2" d="M994.96,-103.69C1027.5,-107.13 1064.21,-111 1095.8,-114.34"/>
<polygon fill="orange" stroke="orange" points="995.32,-100.21 985,-102.64 994.58,-107.17 995.32,-100.21"/>
<text text-anchor="middle" x="1040.5" y="-114.5" font-family="Helvetica,sans-Serif" font-size="10.00"> &lt; 1, spacedim &gt;</text>
</g>
<!-- Node9 -->
<g id="node9" class="node">
<title>Node9</title>
<g id="a_node9"><a xlink:href="classparallel_1_1DistributedTriangulationBase.html" target="_top" xlink:title=" ">
<polygon fill="white" stroke="black" points="1096,-55.5 1096,-85.5 1252,-85.5 1252,-55.5 1096,-55.5"/>
<text text-anchor="start" x="1104" y="-73.5" font-family="Helvetica,sans-Serif" font-size="10.00">parallel::DistributedTriangulation</text>
<text text-anchor="middle" x="1174" y="-62.5" font-family="Helvetica,sans-Serif" font-size="10.00">Base&lt; dim, dim &gt;</text>
</a>
</g>
</g>
<!-- Node1&#45;&gt;Node9 -->
<g id="edge11" class="edge">
<title>Node1&#45;&gt;Node9</title>
<path fill="none" stroke="orange" stroke-dasharray="5,2" d="M995.31,-84.26C997.9,-84 1000.47,-83.74 1003,-83.5 1033.35,-80.58 1066.8,-77.91 1095.93,-75.76"/>
<polygon fill="orange" stroke="orange" points="994.81,-80.79 985.23,-85.3 995.53,-87.75 994.81,-80.79"/>
<text text-anchor="middle" x="1040.5" y="-86.5" font-family="Helvetica,sans-Serif" font-size="10.00"> &lt; dim, dim &gt;</text>
</g>
<!-- Node2 -->
<g id="node2" class="node">
<title>Node2</title>
<g id="a_node2"><a xlink:href="classparallel_1_1TriangulationBase.html" target="_top" xlink:title=" ">
<polygon fill="white" stroke="black" points="661,-79.5 661,-109.5 792,-109.5 792,-79.5 661,-79.5"/>
<text text-anchor="start" x="669" y="-97.5" font-family="Helvetica,sans-Serif" font-size="10.00">parallel::TriangulationBase</text>
<text text-anchor="middle" x="726.5" y="-86.5" font-family="Helvetica,sans-Serif" font-size="10.00">&lt; dim, dim &gt;</text>
</a>
</g>
</g>
<!-- Node2&#45;&gt;Node1 -->
<g id="edge1" class="edge">
<title>Node2&#45;&gt;Node1</title>
<path fill="none" stroke="midnightblue" d="M802.34,-94.5C811.08,-94.5 820,-94.5 828.77,-94.5"/>
<polygon fill="midnightblue" stroke="midnightblue" points="802.2,-91 792.19,-94.5 802.19,-98 802.2,-91"/>
</g>
<!-- Node3 -->
<g id="node3" class="node">
<title>Node3</title>
<g id="a_node3"><a xlink:href="classTriangulation.html" target="_top" xlink:title=" ">
<polygon fill="white" stroke="black" points="103,-86.5 103,-116.5 203,-116.5 203,-86.5 103,-86.5"/>
<text text-anchor="start" x="111" y="-104.5" font-family="Helvetica,sans-Serif" font-size="10.00">Triangulation&lt; dim,</text>
<text text-anchor="middle" x="153" y="-93.5" font-family="Helvetica,sans-Serif" font-size="10.00"> spacedim &gt;</text>
</a>
</g>
</g>
<!-- Node3&#45;&gt;Node2 -->
<g id="edge2" class="edge">
<title>Node3&#45;&gt;Node2</title>
<path fill="none" stroke="midnightblue" d="M213.23,-102.43C215.86,-102.46 218.46,-102.48 221,-102.5 247.22,-102.7 253.78,-102.57 280,-102.5 441.34,-102.06 481.79,-106.8 643,-100.5 648.74,-100.28 654.7,-99.98 660.67,-99.63"/>
<polygon fill="midnightblue" stroke="midnightblue" points="213.07,-98.93 203.03,-102.32 212.99,-105.93 213.07,-98.93"/>
</g>
<!-- Node3&#45;&gt;Node3 -->
<g id="edge4" class="edge">
<title>Node3&#45;&gt;Node3</title>
<path fill="none" stroke="orange" stroke-dasharray="5,2" d="M140.92,-126.96C142.42,-131.68 146.44,-135 153,-135 163.76,-135 167.71,-126.06 164.85,-116.66"/>
<polygon fill="orange" stroke="orange" points="144.42,-126.74 141.15,-116.66 137.42,-126.58 144.42,-126.74"/>
<text text-anchor="middle" x="153" y="-138" font-family="Helvetica,sans-Serif" font-size="10.00"> &lt; dim, spacedim &gt;</text>
</g>
<!-- Node6 -->
<g id="node6" class="node">
<title>Node6</title>
<g id="a_node6"><a xlink:href="classTriangulation.html" target="_top" xlink:title=" ">
<polygon fill="white" stroke="black" points="298,-57.5 298,-87.5 398,-87.5 398,-57.5 298,-57.5"/>
<text text-anchor="start" x="306" y="-75.5" font-family="Helvetica,sans-Serif" font-size="10.00">Triangulation&lt; dim,</text>
<text text-anchor="middle" x="348" y="-64.5" font-family="Helvetica,sans-Serif" font-size="10.00"> dim &gt;</text>
</a>
</g>
</g>
<!-- Node3&#45;&gt;Node6 -->
<g id="edge8" class="edge">
<title>Node3&#45;&gt;Node6</title>
<path fill="none" stroke="orange" stroke-dasharray="5,2" d="M213.34,-92.58C240.44,-88.51 272.15,-83.75 297.89,-79.88"/>
<polygon fill="orange" stroke="orange" points="212.57,-89.16 203.2,-94.11 213.61,-96.08 212.57,-89.16"/>
<text text-anchor="middle" x="250.5" y="-93.5" font-family="Helvetica,sans-Serif" font-size="10.00"> &lt; dim, dim &gt;</text>
</g>
<!-- Node4 -->
<g id="node4" class="node">
<title>Node4</title>
<g id="a_node4"><a xlink:href="classSubscriptor.html" target="_top" xlink:title=" ">
<polygon fill="white" stroke="black" points="0,-60 0,-79 66,-79 66,-60 0,-60"/>
<text text-anchor="middle" x="33" y="-67" font-family="Helvetica,sans-Serif" font-size="10.00">Subscriptor</text>
</a>
</g>
</g>
<!-- Node4&#45;&gt;Node3 -->
<g id="edge3" class="edge">
<title>Node4&#45;&gt;Node3</title>
<path fill="none" stroke="midnightblue" d="M76.15,-80.93C84.83,-83.29 94.05,-85.79 102.96,-88.2"/>
<polygon fill="midnightblue" stroke="midnightblue" points="76.81,-77.48 66.24,-78.24 74.98,-84.24 76.81,-77.48"/>
</g>
<!-- Node4&#45;&gt;Node6 -->
<g id="edge7" class="edge">
<title>Node4&#45;&gt;Node6</title>
<path fill="none" stroke="midnightblue" d="M76.24,-69.9C133.86,-70.46 236.9,-71.44 297.9,-72.03"/>
<polygon fill="midnightblue" stroke="midnightblue" points="76.06,-66.4 66.03,-69.81 75.99,-73.4 76.06,-66.4"/>
</g>
<!-- Node5 -->
<g id="node5" class="node">
<title>Node5</title>
<g id="a_node5"><a xlink:href="classparallel_1_1TriangulationBase.html" target="_top" xlink:title=" ">
<polygon fill="white" stroke="black" points="435,-57.5 435,-87.5 566,-87.5 566,-57.5 435,-57.5"/>
<text text-anchor="start" x="443" y="-75.5" font-family="Helvetica,sans-Serif" font-size="10.00">parallel::TriangulationBase</text>
<text text-anchor="middle" x="500.5" y="-64.5" font-family="Helvetica,sans-Serif" font-size="10.00">&lt; dim, spacedim &gt;</text>
</a>
</g>
</g>
<!-- Node5&#45;&gt;Node2 -->
<g id="edge5" class="edge">
<title>Node5&#45;&gt;Node2</title>
<path fill="none" stroke="orange" stroke-dasharray="5,2" d="M576.58,-79.87C603.9,-82.56 634.52,-85.56 660.86,-88.15"/>
<polygon fill="orange" stroke="orange" points="576.58,-76.36 566.29,-78.86 575.9,-83.32 576.58,-76.36"/>
<text text-anchor="middle" x="613.5" y="-88.5" font-family="Helvetica,sans-Serif" font-size="10.00"> &lt; dim, dim &gt;</text>
</g>
<!-- Node6&#45;&gt;Node5 -->
<g id="edge6" class="edge">
<title>Node6&#45;&gt;Node5</title>
<path fill="none" stroke="midnightblue" d="M408.31,-72.5C417,-72.5 425.98,-72.5 434.77,-72.5"/>
<polygon fill="midnightblue" stroke="midnightblue" points="408.28,-69 398.28,-72.5 408.28,-76 408.28,-69"/>
</g>
<!-- Node8 -->
<g id="node8" class="node">
<title>Node8</title>
<g id="a_node8"><a xlink:href="classparallel_1_1distributed_1_1Triangulation_3_011_00_01spacedim_01_4.html" target="_top" xlink:title=" ">
<polygon fill="white" stroke="black" points="1294.5,-110.5 1294.5,-140.5 1443.5,-140.5 1443.5,-110.5 1294.5,-110.5"/>
<text text-anchor="start" x="1302.5" y="-128.5" font-family="Helvetica,sans-Serif" font-size="10.00">parallel::distributed</text>
<text text-anchor="middle" x="1369" y="-117.5" font-family="Helvetica,sans-Serif" font-size="10.00">::Triangulation&lt; 1, spacedim &gt;</text>
</a>
</g>
</g>
<!-- Node7&#45;&gt;Node8 -->
<g id="edge10" class="edge">
<title>Node7&#45;&gt;Node8</title>
<path fill="none" stroke="midnightblue" d="M1262.34,-123.86C1273.07,-124.02 1283.96,-124.19 1294.46,-124.36"/>
<polygon fill="midnightblue" stroke="midnightblue" points="1262.16,-120.35 1252.11,-123.7 1262.06,-127.35 1262.16,-120.35"/>
</g>
<!-- Node10 -->
<g id="node10" class="node">
<title>Node10</title>
<g id="a_node10"><a xlink:href="classparallel_1_1distributed_1_1Triangulation.html" target="_top" xlink:title=" ">
<polygon fill="white" stroke="black" points="1316,-50 1316,-91 1422,-91 1422,-50 1316,-50"/>
<text text-anchor="start" x="1324" y="-79" font-family="Helvetica,sans-Serif" font-size="10.00">parallel::distributed</text>
<text text-anchor="start" x="1324" y="-68" font-family="Helvetica,sans-Serif" font-size="10.00">::Triangulation&lt; dim,</text>
<text text-anchor="middle" x="1369" y="-57" font-family="Helvetica,sans-Serif" font-size="10.00"> spacedim &gt;</text>
</a>
</g>
</g>
<!-- Node9&#45;&gt;Node10 -->
<g id="edge12" class="edge">
<title>Node9&#45;&gt;Node10</title>
<path fill="none" stroke="midnightblue" d="M1262.23,-70.5C1280.56,-70.5 1299.34,-70.5 1315.9,-70.5"/>
<polygon fill="midnightblue" stroke="midnightblue" points="1262.11,-67 1252.11,-70.5 1262.11,-74 1262.11,-67"/>
</g>
<!-- Node11 -->
<g id="node11" class="node">
<title>Node11</title>
<g id="a_node11"><a xlink:href="classparallel_1_1fullydistributed_1_1Triangulation.html" target="_top" xlink:title=" ">
<polygon fill="white" stroke="black" points="1289,-0.5 1289,-30.5 1449,-30.5 1449,-0.5 1289,-0.5"/>
<text text-anchor="start" x="1297" y="-18.5" font-family="Helvetica,sans-Serif" font-size="10.00">parallel::fullydistributed</text>
<text text-anchor="middle" x="1369" y="-7.5" font-family="Helvetica,sans-Serif" font-size="10.00">::Triangulation&lt; dim, spacedim &gt;</text>
</a>
</g>
</g>
<!-- Node9&#45;&gt;Node11 -->
<g id="edge13" class="edge">
<title>Node9&#45;&gt;Node11</title>
<path fill="none" stroke="midnightblue" d="M1237.54,-52.68C1262.65,-45.52 1291.29,-37.36 1315.33,-30.51"/>
<polygon fill="midnightblue" stroke="midnightblue" points="1236.4,-49.36 1227.74,-55.47 1238.31,-56.1 1236.4,-49.36"/>
</g>
</g>
</svg>
