<?xml version="1.0" encoding="UTF-8" standalone="no"?>
<!DOCTYPE svg PUBLIC "-//W3C//DTD SVG 1.1//EN"
 "http://www.w3.org/Graphics/SVG/1.1/DTD/svg11.dtd">
<!-- Generated by graphviz version 2.47.1 (20210417.1919)
 -->
<!-- Title: FEEvaluationAccess&lt; dim, n_components_, Number, is_face, VectorizedArrayType &gt; Pages: 1 -->
<svg width="1634pt" height="132pt"
 viewBox="0.00 0.00 1634.00 132.00" xmlns="http://www.w3.org/2000/svg" xmlns:xlink="http://www.w3.org/1999/xlink">
<g id="graph0" class="graph" transform="scale(1 1) rotate(0) translate(4 128)">
<title>FEEvaluationAccess&lt; dim, n_components_, Number, is_face, VectorizedArrayType &gt;</title>
<polygon fill="white" stroke="transparent" points="-4,4 -4,-128 1630,-128 1630,4 -4,4"/>
<!-- Node1 -->
<g id="node1" class="node">
<title>Node1</title>
<g id="a_node1"><a xlink:title=" ">
<polygon fill="#bfbfbf" stroke="black" points="977,-34.5 977,-86.5 1129,-86.5 1129,-34.5 977,-34.5"/>
<text text-anchor="start" x="985" y="-74.5" font-family="Helvetica,sans-Serif" font-size="10.00">FEEvaluationAccess</text>
<text text-anchor="start" x="985" y="-63.5" font-family="Helvetica,sans-Serif" font-size="10.00">&lt; dim, n_components</text>
<text text-anchor="start" x="985" y="-52.5" font-family="Helvetica,sans-Serif" font-size="10.00">_, Number, is_face, Vectorized</text>
<text text-anchor="middle" x="1053" y="-41.5" font-family="Helvetica,sans-Serif" font-size="10.00">ArrayType &gt;</text>
</a>
</g>
</g>
<!-- Node6 -->
<g id="node6" class="node">
<title>Node6</title>
<g id="a_node6"><a xlink:href="classFEEvaluationAccess.html" target="_top" xlink:title=" ">
<polygon fill="white" stroke="black" points="1296,-70.5 1296,-122.5 1437,-122.5 1437,-70.5 1296,-70.5"/>
<text text-anchor="start" x="1304" y="-110.5" font-family="Helvetica,sans-Serif" font-size="10.00">FEEvaluationAccess</text>
<text text-anchor="start" x="1304" y="-99.5" font-family="Helvetica,sans-Serif" font-size="10.00">&lt; dim, n_components</text>
<text text-anchor="start" x="1304" y="-88.5" font-family="Helvetica,sans-Serif" font-size="10.00">_, Number, false, Vectorized</text>
<text text-anchor="middle" x="1366.5" y="-77.5" font-family="Helvetica,sans-Serif" font-size="10.00">ArrayType &gt;</text>
</a>
</g>
</g>
<!-- Node1&#45;&gt;Node6 -->
<g id="edge6" class="edge">
<title>Node1&#45;&gt;Node6</title>
<path fill="none" stroke="orange" stroke-dasharray="5,2" d="M1139.01,-70.32C1188.29,-76.02 1249.56,-83.1 1295.94,-88.46"/>
<polygon fill="orange" stroke="orange" points="1139.34,-66.84 1129.01,-69.17 1138.54,-73.79 1139.34,-66.84"/>
<text text-anchor="start" x="1149" y="-110.5" font-family="Helvetica,sans-Serif" font-size="10.00"> &lt; dim, n_components</text>
<text text-anchor="start" x="1149" y="-99.5" font-family="Helvetica,sans-Serif" font-size="10.00">_, Number, false, Vectorized</text>
<text text-anchor="middle" x="1211.5" y="-88.5" font-family="Helvetica,sans-Serif" font-size="10.00">ArrayType &gt;</text>
</g>
<!-- Node8 -->
<g id="node8" class="node">
<title>Node8</title>
<g id="a_node8"><a xlink:href="classFEEvaluationAccess.html" target="_top" xlink:title=" ">
<polygon fill="white" stroke="black" points="1294,-8 1294,-49 1439,-49 1439,-8 1294,-8"/>
<text text-anchor="start" x="1302" y="-37" font-family="Helvetica,sans-Serif" font-size="10.00">FEEvaluationAccess</text>
<text text-anchor="start" x="1302" y="-26" font-family="Helvetica,sans-Serif" font-size="10.00">&lt; dim, 1, double, true,</text>
<text text-anchor="middle" x="1366.5" y="-15" font-family="Helvetica,sans-Serif" font-size="10.00"> VectorizedArray&lt; double &gt; &gt;</text>
</a>
</g>
</g>
<!-- Node1&#45;&gt;Node8 -->
<g id="edge8" class="edge">
<title>Node1&#45;&gt;Node8</title>
<path fill="none" stroke="orange" stroke-dasharray="5,2" d="M1139.23,-46.47C1141.85,-46.13 1144.44,-45.81 1147,-45.5 1195.74,-39.68 1250.84,-35.41 1293.51,-32.61"/>
<polygon fill="orange" stroke="orange" points="1138.49,-43.04 1129.05,-47.85 1139.43,-49.97 1138.49,-43.04"/>
<text text-anchor="start" x="1147" y="-59.5" font-family="Helvetica,sans-Serif" font-size="10.00"> &lt; dim, 1, double, true,</text>
<text text-anchor="middle" x="1211.5" y="-48.5" font-family="Helvetica,sans-Serif" font-size="10.00"> VectorizedArray&lt; double &gt; &gt;</text>
</g>
<!-- Node2 -->
<g id="node2" class="node">
<title>Node2</title>
<g id="a_node2"><a xlink:href="classFEEvaluationBase.html" target="_top" xlink:title=" ">
<polygon fill="white" stroke="black" points="809,-34.5 809,-86.5 940,-86.5 940,-34.5 809,-34.5"/>
<text text-anchor="start" x="817" y="-74.5" font-family="Helvetica,sans-Serif" font-size="10.00">FEEvaluationBase&lt; dim,</text>
<text text-anchor="start" x="817" y="-63.5" font-family="Helvetica,sans-Serif" font-size="10.00"> n_components_, Number,</text>
<text text-anchor="start" x="817" y="-52.5" font-family="Helvetica,sans-Serif" font-size="10.00"> is_face, VectorizedArray</text>
<text text-anchor="middle" x="874.5" y="-41.5" font-family="Helvetica,sans-Serif" font-size="10.00">&lt; Number &gt; &gt;</text>
</a>
</g>
</g>
<!-- Node2&#45;&gt;Node1 -->
<g id="edge1" class="edge">
<title>Node2&#45;&gt;Node1</title>
<path fill="none" stroke="midnightblue" d="M950.39,-60.5C959.14,-60.5 968.07,-60.5 976.83,-60.5"/>
<polygon fill="midnightblue" stroke="midnightblue" points="950.22,-57 940.22,-60.5 950.22,-64 950.22,-57"/>
</g>
<!-- Node3 -->
<g id="node3" class="node">
<title>Node3</title>
<g id="a_node3"><a xlink:href="classFEEvaluationBaseData.html" target="_top" xlink:title=" ">
<polygon fill="white" stroke="black" points="0,-39 0,-80 122,-80 122,-39 0,-39"/>
<text text-anchor="start" x="8" y="-68" font-family="Helvetica,sans-Serif" font-size="10.00">FEEvaluationBaseData</text>
<text text-anchor="start" x="8" y="-57" font-family="Helvetica,sans-Serif" font-size="10.00">&lt; dim, Number, is_face,</text>
<text text-anchor="middle" x="61" y="-46" font-family="Helvetica,sans-Serif" font-size="10.00"> VectorizedArrayType &gt;</text>
</a>
</g>
</g>
<!-- Node3&#45;&gt;Node2 -->
<g id="edge2" class="edge">
<title>Node3&#45;&gt;Node2</title>
<path fill="none" stroke="midnightblue" d="M132.37,-69.88C134.94,-70.12 137.49,-70.32 140,-70.5 428.62,-90.75 502.19,-87.94 791,-70.5 796.76,-70.15 802.74,-69.67 808.72,-69.1"/>
<polygon fill="midnightblue" stroke="midnightblue" points="132.68,-66.4 122.38,-68.87 131.97,-73.36 132.68,-66.4"/>
</g>
<!-- Node5 -->
<g id="node5" class="node">
<title>Node5</title>
<g id="a_node5"><a xlink:href="classFEEvaluationBaseData.html" target="_top" xlink:title=" ">
<polygon fill="white" stroke="black" points="293,-15 293,-56 444,-56 444,-15 293,-15"/>
<text text-anchor="start" x="301" y="-44" font-family="Helvetica,sans-Serif" font-size="10.00">FEEvaluationBaseData</text>
<text text-anchor="start" x="301" y="-33" font-family="Helvetica,sans-Serif" font-size="10.00">&lt; dim, Number, false,</text>
<text text-anchor="middle" x="368.5" y="-22" font-family="Helvetica,sans-Serif" font-size="10.00"> VectorizedArray&lt; Number &gt; &gt;</text>
</a>
</g>
</g>
<!-- Node3&#45;&gt;Node5 -->
<g id="edge5" class="edge">
<title>Node3&#45;&gt;Node5</title>
<path fill="none" stroke="orange" stroke-dasharray="5,2" d="M132.39,-49.3C134.96,-49.02 137.5,-48.75 140,-48.5 190.88,-43.47 248.38,-40.2 292.84,-38.2"/>
<polygon fill="orange" stroke="orange" points="131.93,-45.83 122.41,-50.48 132.75,-52.78 131.93,-45.83"/>
<text text-anchor="start" x="140" y="-62.5" font-family="Helvetica,sans-Serif" font-size="10.00"> &lt; dim, Number, false,</text>
<text text-anchor="middle" x="207.5" y="-51.5" font-family="Helvetica,sans-Serif" font-size="10.00"> VectorizedArray&lt; Number &gt; &gt;</text>
</g>
<!-- Node4 -->
<g id="node4" class="node">
<title>Node4</title>
<g id="a_node4"><a xlink:href="classFEEvaluationBase.html" target="_top" xlink:title=" ">
<polygon fill="white" stroke="black" points="481,-15 481,-56 638,-56 638,-15 481,-15"/>
<text text-anchor="start" x="489" y="-44" font-family="Helvetica,sans-Serif" font-size="10.00">FEEvaluationBase&lt; dim,</text>
<text text-anchor="start" x="489" y="-33" font-family="Helvetica,sans-Serif" font-size="10.00"> n_components_, Number,</text>
<text text-anchor="middle" x="559.5" y="-22" font-family="Helvetica,sans-Serif" font-size="10.00"> is_face, VectorizedArrayType &gt;</text>
</a>
</g>
</g>
<!-- Node4&#45;&gt;Node2 -->
<g id="edge3" class="edge">
<title>Node4&#45;&gt;Node2</title>
<path fill="none" stroke="orange" stroke-dasharray="5,2" d="M648.43,-30.86C691.58,-29.96 744.23,-30.9 791,-37.5 796.89,-38.33 802.95,-39.46 808.99,-40.79"/>
<polygon fill="orange" stroke="orange" points="648.15,-27.37 638.24,-31.11 648.32,-34.37 648.15,-27.37"/>
<text text-anchor="start" x="656" y="-62.5" font-family="Helvetica,sans-Serif" font-size="10.00"> &lt; dim, n_components</text>
<text text-anchor="start" x="656" y="-51.5" font-family="Helvetica,sans-Serif" font-size="10.00">_, Number, is_face,</text>
<text text-anchor="middle" x="723.5" y="-40.5" font-family="Helvetica,sans-Serif" font-size="10.00"> VectorizedArray&lt; Number &gt; &gt;</text>
</g>
<!-- Node5&#45;&gt;Node4 -->
<g id="edge4" class="edge">
<title>Node5&#45;&gt;Node4</title>
<path fill="none" stroke="midnightblue" d="M454.47,-35.5C463.28,-35.5 472.21,-35.5 480.93,-35.5"/>
<polygon fill="midnightblue" stroke="midnightblue" points="454.2,-32 444.2,-35.5 454.2,-39 454.2,-32"/>
</g>
<!-- Node7 -->
<g id="node7" class="node">
<title>Node7</title>
<g id="a_node7"><a xlink:href="classFEEvaluation.html" target="_top" xlink:title=" ">
<polygon fill="white" stroke="black" points="1476,-71.5 1476,-123.5 1626,-123.5 1626,-71.5 1476,-71.5"/>
<text text-anchor="start" x="1484" y="-111.5" font-family="Helvetica,sans-Serif" font-size="10.00">FEEvaluation&lt; dim,</text>
<text text-anchor="start" x="1484" y="-100.5" font-family="Helvetica,sans-Serif" font-size="10.00"> fe_degree, n_q_points</text>
<text text-anchor="start" x="1484" y="-89.5" font-family="Helvetica,sans-Serif" font-size="10.00">_1d, n_components_, Number,</text>
<text text-anchor="middle" x="1551" y="-78.5" font-family="Helvetica,sans-Serif" font-size="10.00"> VectorizedArrayType &gt;</text>
</a>
</g>
</g>
<!-- Node6&#45;&gt;Node7 -->
<g id="edge7" class="edge">
<title>Node6&#45;&gt;Node7</title>
<path fill="none" stroke="midnightblue" d="M1447.24,-96.94C1456.73,-96.99 1466.4,-97.04 1475.82,-97.09"/>
<polygon fill="midnightblue" stroke="midnightblue" points="1447.04,-93.44 1437.02,-96.88 1447,-100.44 1447.04,-93.44"/>
</g>
<!-- Node9 -->
<g id="node9" class="node">
<title>Node9</title>
<g id="a_node9"><a xlink:href="classFEFaceEvaluation.html" target="_top" xlink:title=" ">
<polygon fill="white" stroke="black" points="1476,-0.5 1476,-52.5 1626,-52.5 1626,-0.5 1476,-0.5"/>
<text text-anchor="start" x="1484" y="-40.5" font-family="Helvetica,sans-Serif" font-size="10.00">FEFaceEvaluation&lt; dim,</text>
<text text-anchor="start" x="1484" y="-29.5" font-family="Helvetica,sans-Serif" font-size="10.00"> fe_degree, n_q_points</text>
<text text-anchor="start" x="1484" y="-18.5" font-family="Helvetica,sans-Serif" font-size="10.00">_1d, n_components_, Number,</text>
<text text-anchor="middle" x="1551" y="-7.5" font-family="Helvetica,sans-Serif" font-size="10.00"> VectorizedArrayType &gt;</text>
</a>
</g>
</g>
<!-- Node8&#45;&gt;Node9 -->
<g id="edge9" class="edge">
<title>Node8&#45;&gt;Node9</title>
<path fill="none" stroke="midnightblue" d="M1449.11,-27.61C1458.03,-27.51 1467.07,-27.41 1475.9,-27.31"/>
<polygon fill="midnightblue" stroke="midnightblue" points="1449.07,-24.11 1439.11,-27.72 1449.14,-31.11 1449.07,-24.11"/>
</g>
</g>
</svg>
