<?xml version="1.0" encoding="UTF-8" standalone="no"?>
<!DOCTYPE svg PUBLIC "-//W3C//DTD SVG 1.1//EN"
 "http://www.w3.org/Graphics/SVG/1.1/DTD/svg11.dtd">
<!-- Generated by graphviz version 2.47.1 (20210417.1919)
 -->
<!-- Title: FETools::FEFactoryBase&lt; dim, spacedim &gt; Pages: 1 -->
<svg width="172pt" height="264pt"
 viewBox="0.00 0.00 172.00 264.00" xmlns="http://www.w3.org/2000/svg" xmlns:xlink="http://www.w3.org/1999/xlink">
<g id="graph0" class="graph" transform="scale(1 1) rotate(0) translate(4 260)">
<title>FETools::FEFactoryBase&lt; dim, spacedim &gt;</title>
<polygon fill="white" stroke="transparent" points="-4,4 -4,-260 168,-260 168,4 -4,4"/>
<!-- Node1 -->
<g id="node1" class="node">
<title>Node1</title>
<g id="a_node1"><a xlink:title=" ">
<polygon fill="#bfbfbf" stroke="black" points="6.5,-168.5 6.5,-198.5 133.5,-198.5 133.5,-168.5 6.5,-168.5"/>
<text text-anchor="start" x="14.5" y="-186.5" font-family="Helvetica,sans-Serif" font-size="10.00">FETools::FEFactoryBase</text>
<text text-anchor="middle" x="70" y="-175.5" font-family="Helvetica,sans-Serif" font-size="10.00">&lt; dim, spacedim &gt;</text>
</a>
</g>
</g>
<!-- Node3 -->
<g id="node3" class="node">
<title>Node3</title>
<g id="a_node3"><a xlink:href="classFETools_1_1FEFactoryBase.html" target="_top" xlink:title=" ">
<polygon fill="white" stroke="black" points="0,-68.5 0,-109.5 140,-109.5 140,-68.5 0,-68.5"/>
<text text-anchor="start" x="8" y="-97.5" font-family="Helvetica,sans-Serif" font-size="10.00">FETools::FEFactoryBase</text>
<text text-anchor="start" x="8" y="-86.5" font-family="Helvetica,sans-Serif" font-size="10.00">&lt; FE::dimension, FE::space</text>
<text text-anchor="middle" x="70" y="-75.5" font-family="Helvetica,sans-Serif" font-size="10.00">_dimension &gt;</text>
</a>
</g>
</g>
<!-- Node1&#45;&gt;Node3 -->
<g id="edge2" class="edge">
<title>Node1&#45;&gt;Node3</title>
<path fill="none" stroke="orange" stroke-dasharray="5,2" d="M70,-158.28C70,-143.14 70,-123.88 70,-109.68"/>
<polygon fill="orange" stroke="orange" points="66.5,-158.45 70,-168.45 73.5,-158.45 66.5,-158.45"/>
<text text-anchor="start" x="70" y="-142" font-family="Helvetica,sans-Serif" font-size="10.00"> &lt; FE::dimension, FE</text>
<text text-anchor="middle" x="117" y="-131" font-family="Helvetica,sans-Serif" font-size="10.00">::space_dimension &gt;</text>
</g>
<!-- Node2 -->
<g id="node2" class="node">
<title>Node2</title>
<g id="a_node2"><a xlink:href="classSubscriptor.html" target="_top" xlink:title=" ">
<polygon fill="white" stroke="black" points="37,-236.5 37,-255.5 103,-255.5 103,-236.5 37,-236.5"/>
<text text-anchor="middle" x="70" y="-243.5" font-family="Helvetica,sans-Serif" font-size="10.00">Subscriptor</text>
</a>
</g>
</g>
<!-- Node2&#45;&gt;Node1 -->
<g id="edge1" class="edge">
<title>Node2&#45;&gt;Node1</title>
<path fill="none" stroke="midnightblue" d="M70,-226.22C70,-217.36 70,-206.96 70,-198.76"/>
<polygon fill="midnightblue" stroke="midnightblue" points="66.5,-226.33 70,-236.33 73.5,-226.33 66.5,-226.33"/>
</g>
<!-- Node4 -->
<g id="node4" class="node">
<title>Node4</title>
<g id="a_node4"><a xlink:href="classFETools_1_1FEFactory.html" target="_top" xlink:title=" ">
<polygon fill="white" stroke="black" points="18,-0.5 18,-30.5 122,-30.5 122,-0.5 18,-0.5"/>
<text text-anchor="start" x="26" y="-18.5" font-family="Helvetica,sans-Serif" font-size="10.00">FETools::FEFactory</text>
<text text-anchor="middle" x="70" y="-7.5" font-family="Helvetica,sans-Serif" font-size="10.00">&lt; FE &gt;</text>
</a>
</g>
</g>
<!-- Node3&#45;&gt;Node4 -->
<g id="edge3" class="edge">
<title>Node3&#45;&gt;Node4</title>
<path fill="none" stroke="midnightblue" d="M70,-58.16C70,-48.69 70,-38.65 70,-30.8"/>
<polygon fill="midnightblue" stroke="midnightblue" points="66.5,-58.46 70,-68.46 73.5,-58.46 66.5,-58.46"/>
</g>
</g>
</svg>
