<?xml version="1.0" encoding="UTF-8" standalone="no"?>
<!DOCTYPE svg PUBLIC "-//W3C//DTD SVG 1.1//EN"
 "http://www.w3.org/Graphics/SVG/1.1/DTD/svg11.dtd">
<!-- Generated by graphviz version 2.47.1 (20210417.1919)
 -->
<!-- Title: FE_PolyTensor&lt; dim, spacedim &gt; Pages: 1 -->
<svg width="1526pt" height="378pt"
 viewBox="0.00 0.00 1526.00 377.50" xmlns="http://www.w3.org/2000/svg" xmlns:xlink="http://www.w3.org/1999/xlink">
<g id="graph0" class="graph" transform="scale(1 1) rotate(0) translate(4 373.5)">
<title>FE_PolyTensor&lt; dim, spacedim &gt;</title>
<polygon fill="white" stroke="transparent" points="-4,4 -4,-373.5 1522,-373.5 1522,4 -4,4"/>
<!-- Node1 -->
<g id="node1" class="node">
<title>Node1</title>
<g id="a_node1"><a xlink:title=" ">
<polygon fill="#bfbfbf" stroke="black" points="481,-199.5 481,-229.5 592,-229.5 592,-199.5 481,-199.5"/>
<text text-anchor="start" x="489" y="-217.5" font-family="Helvetica,sans-Serif" font-size="10.00">FE_PolyTensor&lt; dim,</text>
<text text-anchor="middle" x="536.5" y="-206.5" font-family="Helvetica,sans-Serif" font-size="10.00"> spacedim &gt;</text>
</a>
</g>
</g>
<!-- Node1&#45;&gt;Node1 -->
<g id="edge7" class="edge">
<title>Node1&#45;&gt;Node1</title>
<path fill="none" stroke="orange" stroke-dasharray="5,2" d="M529.93,-239.96C530.74,-244.68 532.93,-248 536.5,-248 542.35,-248 544.5,-239.06 542.95,-229.66"/>
<polygon fill="orange" stroke="orange" points="533.43,-239.7 530.05,-229.66 526.43,-239.62 533.43,-239.7"/>
<text text-anchor="middle" x="536.5" y="-251" font-family="Helvetica,sans-Serif" font-size="10.00"> &lt; dim, spacedim &gt;</text>
</g>
<!-- Node1&#45;&gt;Node1 -->
<g id="edge15" class="edge">
<title>Node1&#45;&gt;Node1</title>
<path fill="none" stroke="orange" stroke-dasharray="5,2" d="M523.33,-239.19C520.78,-253.12 525.17,-266 536.5,-266 550.45,-266 553.88,-246.49 546.8,-229.53"/>
<polygon fill="orange" stroke="orange" points="526.71,-240.11 526.2,-229.53 520,-238.11 526.71,-240.11"/>
<text text-anchor="middle" x="536.5" y="-269" font-family="Helvetica,sans-Serif" font-size="10.00"> &lt; dim, spacedim &gt;</text>
</g>
<!-- Node6 -->
<g id="node6" class="node">
<title>Node6</title>
<g id="a_node6"><a xlink:href="classFE__ABF.html" target="_top" xlink:title=" ">
<polygon fill="white" stroke="black" points="710.5,-350 710.5,-369 798.5,-369 798.5,-350 710.5,-350"/>
<text text-anchor="middle" x="754.5" y="-357" font-family="Helvetica,sans-Serif" font-size="10.00">FE_ABF&lt; dim &gt;</text>
</a>
</g>
</g>
<!-- Node1&#45;&gt;Node6 -->
<g id="edge8" class="edge">
<title>Node1&#45;&gt;Node6</title>
<path fill="none" stroke="midnightblue" d="M556.57,-237.63C570.46,-253.73 590.24,-275.16 610,-291.5 641.26,-317.36 650,-323.87 687,-340.5 695.21,-344.19 704.32,-347.35 713.1,-349.97"/>
<polygon fill="midnightblue" stroke="midnightblue" points="559.01,-235.1 549.87,-229.75 553.68,-239.64 559.01,-235.1"/>
</g>
<!-- Node7 -->
<g id="node7" class="node">
<title>Node7</title>
<g id="a_node7"><a xlink:href="classFE__BDM.html" target="_top" xlink:title=" ">
<polygon fill="white" stroke="black" points="709,-312 709,-331 800,-331 800,-312 709,-312"/>
<text text-anchor="middle" x="754.5" y="-319" font-family="Helvetica,sans-Serif" font-size="10.00">FE_BDM&lt; dim &gt;</text>
</a>
</g>
</g>
<!-- Node1&#45;&gt;Node7 -->
<g id="edge9" class="edge">
<title>Node1&#45;&gt;Node7</title>
<path fill="none" stroke="midnightblue" d="M567.35,-235.31C596.66,-254.95 643.23,-284.06 687,-302.5 695.63,-306.14 705.18,-309.32 714.28,-311.99"/>
<polygon fill="midnightblue" stroke="midnightblue" points="569.07,-232.25 558.82,-229.54 565.14,-238.04 569.07,-232.25"/>
</g>
<!-- Node8 -->
<g id="node8" class="node">
<title>Node8</title>
<g id="a_node8"><a xlink:href="classFE__BernardiRaugel.html" target="_top" xlink:title=" ">
<polygon fill="white" stroke="black" points="701,-262.5 701,-292.5 808,-292.5 808,-262.5 701,-262.5"/>
<text text-anchor="start" x="709" y="-280.5" font-family="Helvetica,sans-Serif" font-size="10.00">FE_BernardiRaugel&lt;</text>
<text text-anchor="middle" x="754.5" y="-269.5" font-family="Helvetica,sans-Serif" font-size="10.00"> dim &gt;</text>
</a>
</g>
</g>
<!-- Node1&#45;&gt;Node8 -->
<g id="edge10" class="edge">
<title>Node1&#45;&gt;Node8</title>
<path fill="none" stroke="midnightblue" d="M596.19,-232.4C600.86,-233.79 605.5,-235.18 610,-236.5 640.07,-245.36 673.78,-255 700.96,-262.71"/>
<polygon fill="midnightblue" stroke="midnightblue" points="597.19,-229.04 586.61,-229.52 595.18,-235.75 597.19,-229.04"/>
</g>
<!-- Node9 -->
<g id="node9" class="node">
<title>Node9</title>
<g id="a_node9"><a xlink:href="classFE__Nedelec.html" target="_top" xlink:title=" ">
<polygon fill="white" stroke="black" points="702.5,-224 702.5,-243 806.5,-243 806.5,-224 702.5,-224"/>
<text text-anchor="middle" x="754.5" y="-231" font-family="Helvetica,sans-Serif" font-size="10.00">FE_Nedelec&lt; dim &gt;</text>
</a>
</g>
</g>
<!-- Node1&#45;&gt;Node9 -->
<g id="edge11" class="edge">
<title>Node1&#45;&gt;Node9</title>
<path fill="none" stroke="midnightblue" d="M602.18,-220.19C634.23,-223.01 672.38,-226.36 702.35,-229"/>
<polygon fill="midnightblue" stroke="midnightblue" points="602.27,-216.68 592.01,-219.29 601.66,-223.66 602.27,-216.68"/>
</g>
<!-- Node10 -->
<g id="node10" class="node">
<title>Node10</title>
<g id="a_node10"><a xlink:href="classFE__RT__Bubbles.html" target="_top" xlink:title=" ">
<polygon fill="white" stroke="black" points="693.5,-186 693.5,-205 815.5,-205 815.5,-186 693.5,-186"/>
<text text-anchor="middle" x="754.5" y="-193" font-family="Helvetica,sans-Serif" font-size="10.00">FE_RT_Bubbles&lt; dim &gt;</text>
</a>
</g>
</g>
<!-- Node1&#45;&gt;Node10 -->
<g id="edge12" class="edge">
<title>Node1&#45;&gt;Node10</title>
<path fill="none" stroke="midnightblue" d="M602.02,-208.82C630.96,-206.28 664.89,-203.29 693.31,-200.79"/>
<polygon fill="midnightblue" stroke="midnightblue" points="601.66,-205.34 592.01,-209.71 602.27,-212.32 601.66,-205.34"/>
</g>
<!-- Node11 -->
<g id="node11" class="node">
<title>Node11</title>
<g id="a_node11"><a xlink:href="classFE__RaviartThomas.html" target="_top" xlink:title=" ">
<polygon fill="white" stroke="black" points="687,-148 687,-167 822,-167 822,-148 687,-148"/>
<text text-anchor="middle" x="754.5" y="-155" font-family="Helvetica,sans-Serif" font-size="10.00">FE_RaviartThomas&lt; dim &gt;</text>
</a>
</g>
</g>
<!-- Node1&#45;&gt;Node11 -->
<g id="edge13" class="edge">
<title>Node1&#45;&gt;Node11</title>
<path fill="none" stroke="midnightblue" d="M601.9,-197.51C639.64,-187.55 685.91,-175.34 717.33,-167.04"/>
<polygon fill="midnightblue" stroke="midnightblue" points="600.78,-194.18 592.01,-200.12 602.57,-200.95 600.78,-194.18"/>
</g>
<!-- Node12 -->
<g id="node12" class="node">
<title>Node12</title>
<g id="a_node12"><a xlink:href="classFE__RaviartThomasNodal.html" target="_top" xlink:title=" ">
<polygon fill="white" stroke="black" points="691,-98.5 691,-128.5 818,-128.5 818,-98.5 691,-98.5"/>
<text text-anchor="start" x="699" y="-116.5" font-family="Helvetica,sans-Serif" font-size="10.00">FE_RaviartThomasNodal</text>
<text text-anchor="middle" x="754.5" y="-105.5" font-family="Helvetica,sans-Serif" font-size="10.00">&lt; dim &gt;</text>
</a>
</g>
</g>
<!-- Node1&#45;&gt;Node12 -->
<g id="edge14" class="edge">
<title>Node1&#45;&gt;Node12</title>
<path fill="none" stroke="midnightblue" d="M573.71,-194.65C603.65,-178.59 647.51,-155.86 687,-138.5 694.79,-135.07 703.21,-131.68 711.36,-128.55"/>
<polygon fill="midnightblue" stroke="midnightblue" points="572.02,-191.58 564.88,-199.41 575.34,-197.74 572.02,-191.58"/>
</g>
<!-- Node13 -->
<g id="node13" class="node">
<title>Node13</title>
<g id="a_node13"><a xlink:href="classFE__PolyTensor.html" target="_top" xlink:title=" ">
<polygon fill="white" stroke="black" points="699,-49.5 699,-79.5 810,-79.5 810,-49.5 699,-49.5"/>
<text text-anchor="start" x="707" y="-67.5" font-family="Helvetica,sans-Serif" font-size="10.00">FE_PolyTensor&lt; dim,</text>
<text text-anchor="middle" x="754.5" y="-56.5" font-family="Helvetica,sans-Serif" font-size="10.00"> dim &gt;</text>
</a>
</g>
</g>
<!-- Node1&#45;&gt;Node13 -->
<g id="edge16" class="edge">
<title>Node1&#45;&gt;Node13</title>
<path fill="none" stroke="orange" stroke-dasharray="5,2" d="M554.79,-191.56C568.54,-174.29 588.9,-150.73 610,-133.5 640.7,-108.43 651.1,-105.3 687,-88.5 693.78,-85.33 701.11,-82.3 708.33,-79.54"/>
<polygon fill="orange" stroke="orange" points="552.01,-189.44 548.61,-199.48 557.52,-193.75 552.01,-189.44"/>
<text text-anchor="middle" x="639.5" y="-136.5" font-family="Helvetica,sans-Serif" font-size="10.00"> &lt; dim, dim &gt;</text>
</g>
<!-- Node2 -->
<g id="node2" class="node">
<title>Node2</title>
<g id="a_node2"><a xlink:href="classFiniteElement.html" target="_top" xlink:title=" ">
<polygon fill="white" stroke="black" points="340,-199.5 340,-229.5 444,-229.5 444,-199.5 340,-199.5"/>
<text text-anchor="start" x="348" y="-217.5" font-family="Helvetica,sans-Serif" font-size="10.00">FiniteElement&lt; dim,</text>
<text text-anchor="middle" x="392" y="-206.5" font-family="Helvetica,sans-Serif" font-size="10.00"> dim &gt;</text>
</a>
</g>
</g>
<!-- Node2&#45;&gt;Node1 -->
<g id="edge1" class="edge">
<title>Node2&#45;&gt;Node1</title>
<path fill="none" stroke="midnightblue" d="M454.31,-214.5C463.17,-214.5 472.24,-214.5 480.96,-214.5"/>
<polygon fill="midnightblue" stroke="midnightblue" points="454.04,-211 444.04,-214.5 454.04,-218 454.04,-211"/>
</g>
<!-- Node3 -->
<g id="node3" class="node">
<title>Node3</title>
<g id="a_node3"><a xlink:href="classSubscriptor.html" target="_top" xlink:title=" ">
<polygon fill="white" stroke="black" points="19,-229 19,-248 85,-248 85,-229 19,-229"/>
<text text-anchor="middle" x="52" y="-236" font-family="Helvetica,sans-Serif" font-size="10.00">Subscriptor</text>
</a>
</g>
</g>
<!-- Node3&#45;&gt;Node2 -->
<g id="edge2" class="edge">
<title>Node3&#45;&gt;Node2</title>
<path fill="none" stroke="midnightblue" d="M95.37,-239.92C104.17,-240.16 113.39,-240.38 122,-240.5 211.01,-241.79 234.28,-244.7 322,-229.5 327.8,-228.5 333.85,-227.34 339.85,-226.13"/>
<polygon fill="midnightblue" stroke="midnightblue" points="95.39,-236.42 85.29,-239.63 95.18,-243.42 95.39,-236.42"/>
</g>
<!-- Node5 -->
<g id="node5" class="node">
<title>Node5</title>
<g id="a_node5"><a xlink:href="classFiniteElement.html" target="_top" xlink:title=" ">
<polygon fill="white" stroke="black" points="141,-199.5 141,-229.5 245,-229.5 245,-199.5 141,-199.5"/>
<text text-anchor="start" x="149" y="-217.5" font-family="Helvetica,sans-Serif" font-size="10.00">FiniteElement&lt; dim,</text>
<text text-anchor="middle" x="193" y="-206.5" font-family="Helvetica,sans-Serif" font-size="10.00"> spacedim &gt;</text>
</a>
</g>
</g>
<!-- Node3&#45;&gt;Node5 -->
<g id="edge5" class="edge">
<title>Node3&#45;&gt;Node5</title>
<path fill="none" stroke="midnightblue" d="M95.33,-231.19C109.7,-228.71 125.9,-225.91 140.88,-223.33"/>
<polygon fill="midnightblue" stroke="midnightblue" points="94.5,-227.78 85.24,-232.93 95.69,-234.68 94.5,-227.78"/>
</g>
<!-- Node4 -->
<g id="node4" class="node">
<title>Node4</title>
<g id="a_node4"><a xlink:href="classFiniteElementData.html" target="_top" xlink:title=" ">
<polygon fill="white" stroke="black" points="0,-176.5 0,-206.5 104,-206.5 104,-176.5 0,-176.5"/>
<text text-anchor="start" x="8" y="-194.5" font-family="Helvetica,sans-Serif" font-size="10.00">FiniteElementData&lt;</text>
<text text-anchor="middle" x="52" y="-183.5" font-family="Helvetica,sans-Serif" font-size="10.00"> dim &gt;</text>
</a>
</g>
</g>
<!-- Node4&#45;&gt;Node2 -->
<g id="edge3" class="edge">
<title>Node4&#45;&gt;Node2</title>
<path fill="none" stroke="midnightblue" d="M114.22,-189.93C123.2,-189.75 132.34,-189.6 141,-189.5 187.22,-188.97 198.94,-185.59 245,-189.5 276.77,-192.2 312.02,-198.15 339.92,-203.57"/>
<polygon fill="midnightblue" stroke="midnightblue" points="114.11,-186.43 104.18,-190.14 114.25,-193.43 114.11,-186.43"/>
</g>
<!-- Node4&#45;&gt;Node5 -->
<g id="edge6" class="edge">
<title>Node4&#45;&gt;Node5</title>
<path fill="none" stroke="midnightblue" d="M114.27,-201.64C123.15,-203.11 132.2,-204.61 140.85,-206.04"/>
<polygon fill="midnightblue" stroke="midnightblue" points="114.8,-198.18 104.36,-200 113.66,-205.08 114.8,-198.18"/>
</g>
<!-- Node5&#45;&gt;Node2 -->
<g id="edge4" class="edge">
<title>Node5&#45;&gt;Node2</title>
<path fill="none" stroke="orange" stroke-dasharray="5,2" d="M255.38,-214.5C282.44,-214.5 313.88,-214.5 339.67,-214.5"/>
<polygon fill="orange" stroke="orange" points="255.25,-211 245.25,-214.5 255.25,-218 255.25,-211"/>
<text text-anchor="middle" x="292.5" y="-217.5" font-family="Helvetica,sans-Serif" font-size="10.00"> &lt; dim, dim &gt;</text>
</g>
<!-- Node14 -->
<g id="node14" class="node">
<title>Node14</title>
<g id="a_node14"><a xlink:href="classFE__DGVector.html" target="_top" xlink:title=" ">
<polygon fill="white" stroke="black" points="859,-49.5 859,-79.5 1018,-79.5 1018,-49.5 859,-49.5"/>
<text text-anchor="start" x="867" y="-67.5" font-family="Helvetica,sans-Serif" font-size="10.00">FE_DGVector&lt; PolynomialType,</text>
<text text-anchor="middle" x="938.5" y="-56.5" font-family="Helvetica,sans-Serif" font-size="10.00"> dim, spacedim &gt;</text>
</a>
</g>
</g>
<!-- Node13&#45;&gt;Node14 -->
<g id="edge17" class="edge">
<title>Node13&#45;&gt;Node14</title>
<path fill="none" stroke="midnightblue" d="M820.35,-64.5C832.77,-64.5 845.91,-64.5 858.71,-64.5"/>
<polygon fill="midnightblue" stroke="midnightblue" points="820.11,-61 810.11,-64.5 820.11,-68 820.11,-61"/>
</g>
<!-- Node15 -->
<g id="node15" class="node">
<title>Node15</title>
<g id="a_node15"><a xlink:href="classFE__DGVector.html" target="_top" xlink:title=" ">
<polygon fill="white" stroke="black" points="1187,-99 1187,-140 1327,-140 1327,-99 1187,-99"/>
<text text-anchor="start" x="1195" y="-128" font-family="Helvetica,sans-Serif" font-size="10.00">FE_DGVector&lt; Polynomials</text>
<text text-anchor="start" x="1195" y="-117" font-family="Helvetica,sans-Serif" font-size="10.00">RaviartThomas&lt; dim &gt;,</text>
<text text-anchor="middle" x="1257" y="-106" font-family="Helvetica,sans-Serif" font-size="10.00"> dim, dim &gt;</text>
</a>
</g>
</g>
<!-- Node14&#45;&gt;Node15 -->
<g id="edge18" class="edge">
<title>Node14&#45;&gt;Node15</title>
<path fill="none" stroke="orange" stroke-dasharray="5,2" d="M1000.08,-82.13C1011.93,-85.21 1024.3,-88.16 1036,-90.5 1086.06,-100.5 1143.23,-107.91 1186.75,-112.74"/>
<polygon fill="orange" stroke="orange" points="1000.85,-78.71 990.29,-79.53 999.05,-85.48 1000.85,-78.71"/>
<text text-anchor="start" x="1036" y="-124.5" font-family="Helvetica,sans-Serif" font-size="10.00"> &lt; PolynomialsRaviartThomas</text>
<text text-anchor="middle" x="1102.5" y="-113.5" font-family="Helvetica,sans-Serif" font-size="10.00">&lt; dim &gt;, dim, dim &gt;</text>
</g>
<!-- Node17 -->
<g id="node17" class="node">
<title>Node17</title>
<g id="a_node17"><a xlink:href="classFE__DGVector.html" target="_top" xlink:title=" ">
<polygon fill="white" stroke="black" points="1187,-49.5 1187,-79.5 1327,-79.5 1327,-49.5 1187,-49.5"/>
<text text-anchor="start" x="1195" y="-67.5" font-family="Helvetica,sans-Serif" font-size="10.00">FE_DGVector&lt; Polynomials</text>
<text text-anchor="middle" x="1257" y="-56.5" font-family="Helvetica,sans-Serif" font-size="10.00">BDM&lt; dim &gt;, dim, dim &gt;</text>
</a>
</g>
</g>
<!-- Node14&#45;&gt;Node17 -->
<g id="edge20" class="edge">
<title>Node14&#45;&gt;Node17</title>
<path fill="none" stroke="orange" stroke-dasharray="5,2" d="M1028.34,-64.5C1078.54,-64.5 1140.36,-64.5 1186.91,-64.5"/>
<polygon fill="orange" stroke="orange" points="1028.14,-61 1018.14,-64.5 1028.14,-68 1028.14,-61"/>
<text text-anchor="start" x="1046" y="-78.5" font-family="Helvetica,sans-Serif" font-size="10.00"> &lt; PolynomialsBDM&lt; dim</text>
<text text-anchor="middle" x="1102.5" y="-67.5" font-family="Helvetica,sans-Serif" font-size="10.00"> &gt;, dim, dim &gt;</text>
</g>
<!-- Node19 -->
<g id="node19" class="node">
<title>Node19</title>
<g id="a_node19"><a xlink:href="classFE__DGVector.html" target="_top" xlink:title=" ">
<polygon fill="white" stroke="black" points="1187,-0.5 1187,-30.5 1327,-30.5 1327,-0.5 1187,-0.5"/>
<text text-anchor="start" x="1195" y="-18.5" font-family="Helvetica,sans-Serif" font-size="10.00">FE_DGVector&lt; Polynomials</text>
<text text-anchor="middle" x="1257" y="-7.5" font-family="Helvetica,sans-Serif" font-size="10.00">Nedelec&lt; dim &gt;, dim, dim &gt;</text>
</a>
</g>
</g>
<!-- Node14&#45;&gt;Node19 -->
<g id="edge22" class="edge">
<title>Node14&#45;&gt;Node19</title>
<path fill="none" stroke="orange" stroke-dasharray="5,2" d="M999.23,-46.82C1011.32,-43.69 1024.01,-40.73 1036,-38.5 1086.03,-29.21 1143.2,-23.37 1186.73,-19.91"/>
<polygon fill="orange" stroke="orange" points="998,-43.53 989.24,-49.48 999.8,-50.29 998,-43.53"/>
<text text-anchor="start" x="1051.5" y="-52.5" font-family="Helvetica,sans-Serif" font-size="10.00"> &lt; PolynomialsNedelec</text>
<text text-anchor="middle" x="1102.5" y="-41.5" font-family="Helvetica,sans-Serif" font-size="10.00">&lt; dim &gt;, dim, dim &gt;</text>
</g>
<!-- Node16 -->
<g id="node16" class="node">
<title>Node16</title>
<g id="a_node16"><a xlink:href="classFE__DGRaviartThomas.html" target="_top" xlink:title=" ">
<polygon fill="white" stroke="black" points="1383,-104.5 1383,-134.5 1499,-134.5 1499,-104.5 1383,-104.5"/>
<text text-anchor="start" x="1391" y="-122.5" font-family="Helvetica,sans-Serif" font-size="10.00">FE_DGRaviartThomas</text>
<text text-anchor="middle" x="1441" y="-111.5" font-family="Helvetica,sans-Serif" font-size="10.00">&lt; dim, spacedim &gt;</text>
</a>
</g>
</g>
<!-- Node15&#45;&gt;Node16 -->
<g id="edge19" class="edge">
<title>Node15&#45;&gt;Node16</title>
<path fill="none" stroke="midnightblue" d="M1337.09,-119.5C1352.47,-119.5 1368.32,-119.5 1382.83,-119.5"/>
<polygon fill="midnightblue" stroke="midnightblue" points="1337.07,-116 1327.07,-119.5 1337.07,-123 1337.07,-116"/>
</g>
<!-- Node18 -->
<g id="node18" class="node">
<title>Node18</title>
<g id="a_node18"><a xlink:href="classFE__DGBDM.html" target="_top" xlink:title=" ">
<polygon fill="white" stroke="black" points="1364,-55 1364,-74 1518,-74 1518,-55 1364,-55"/>
<text text-anchor="middle" x="1441" y="-62" font-family="Helvetica,sans-Serif" font-size="10.00">FE_DGBDM&lt; dim, spacedim &gt;</text>
</a>
</g>
</g>
<!-- Node17&#45;&gt;Node18 -->
<g id="edge21" class="edge">
<title>Node17&#45;&gt;Node18</title>
<path fill="none" stroke="midnightblue" d="M1337.07,-64.5C1346,-64.5 1355.09,-64.5 1363.99,-64.5"/>
<polygon fill="midnightblue" stroke="midnightblue" points="1337.07,-61 1327.07,-64.5 1337.07,-68 1337.07,-61"/>
</g>
<!-- Node20 -->
<g id="node20" class="node">
<title>Node20</title>
<g id="a_node20"><a xlink:href="classFE__DGNedelec.html" target="_top" xlink:title=" ">
<polygon fill="white" stroke="black" points="1384.5,-0.5 1384.5,-30.5 1497.5,-30.5 1497.5,-0.5 1384.5,-0.5"/>
<text text-anchor="start" x="1392.5" y="-18.5" font-family="Helvetica,sans-Serif" font-size="10.00">FE_DGNedelec&lt; dim,</text>
<text text-anchor="middle" x="1441" y="-7.5" font-family="Helvetica,sans-Serif" font-size="10.00"> spacedim &gt;</text>
</a>
</g>
</g>
<!-- Node19&#45;&gt;Node20 -->
<g id="edge23" class="edge">
<title>Node19&#45;&gt;Node20</title>
<path fill="none" stroke="midnightblue" d="M1337.37,-15.5C1353.18,-15.5 1369.46,-15.5 1384.28,-15.5"/>
<polygon fill="midnightblue" stroke="midnightblue" points="1337.07,-12 1327.07,-15.5 1337.07,-19 1337.07,-12"/>
</g>
</g>
</svg>
