<?xml version="1.0" encoding="UTF-8" standalone="no"?>
<!DOCTYPE svg PUBLIC "-//W3C//DTD SVG 1.1//EN"
 "http://www.w3.org/Graphics/SVG/1.1/DTD/svg11.dtd">
<!-- Generated by graphviz version 2.47.1 (20210417.1919)
 -->
<!-- Title: MappingFEField&lt; dim, spacedim, VectorType, void &gt; Pages: 1 -->
<svg width="246pt" height="164pt"
 viewBox="0.00 0.00 246.00 164.00" xmlns="http://www.w3.org/2000/svg" xmlns:xlink="http://www.w3.org/1999/xlink">
<g id="graph0" class="graph" transform="scale(1 1) rotate(0) translate(4 160)">
<title>MappingFEField&lt; dim, spacedim, VectorType, void &gt;</title>
<polygon fill="white" stroke="transparent" points="-4,4 -4,-160 242,-160 242,4 -4,4"/>
<!-- Node1 -->
<g id="node1" class="node">
<title>Node1</title>
<g id="a_node1"><a xlink:title=" ">
<polygon fill="#bfbfbf" stroke="black" points="7.5,-0.5 7.5,-41.5 127.5,-41.5 127.5,-0.5 7.5,-0.5"/>
<text text-anchor="start" x="15.5" y="-29.5" font-family="Helvetica,sans-Serif" font-size="10.00">MappingFEField&lt; dim,</text>
<text text-anchor="start" x="15.5" y="-18.5" font-family="Helvetica,sans-Serif" font-size="10.00"> spacedim, VectorType,</text>
<text text-anchor="middle" x="67.5" y="-7.5" font-family="Helvetica,sans-Serif" font-size="10.00"> void &gt;</text>
</a>
</g>
</g>
<!-- Node2 -->
<g id="node2" class="node">
<title>Node2</title>
<g id="a_node2"><a xlink:href="classMapping.html" target="_top" xlink:title=" ">
<polygon fill="white" stroke="black" points="0,-79.5 0,-98.5 135,-98.5 135,-79.5 0,-79.5"/>
<text text-anchor="middle" x="67.5" y="-86.5" font-family="Helvetica,sans-Serif" font-size="10.00">Mapping&lt; dim, spacedim &gt;</text>
</a>
</g>
</g>
<!-- Node2&#45;&gt;Node1 -->
<g id="edge1" class="edge">
<title>Node2&#45;&gt;Node1</title>
<path fill="none" stroke="midnightblue" d="M67.5,-69.25C67.5,-60.65 67.5,-50.45 67.5,-41.74"/>
<polygon fill="midnightblue" stroke="midnightblue" points="64,-69.37 67.5,-79.37 71,-69.37 64,-69.37"/>
</g>
<!-- Node2&#45;&gt;Node2 -->
<g id="edge3" class="edge">
<title>Node2&#45;&gt;Node2</title>
<path fill="none" stroke="orange" stroke-dasharray="5,2" d="M145.5,-92.63C150.19,-91.76 153,-90.56 153,-89 153,-86.51 145.8,-84.91 135.23,-84.19"/>
<polygon fill="orange" stroke="orange" points="144.77,-89.19 135.23,-93.81 145.57,-96.14 144.77,-89.19"/>
<text text-anchor="middle" x="195.5" y="-86.5" font-family="Helvetica,sans-Serif" font-size="10.00"> &lt; dim, spacedim &gt;</text>
</g>
<!-- Node3 -->
<g id="node3" class="node">
<title>Node3</title>
<g id="a_node3"><a xlink:href="classSubscriptor.html" target="_top" xlink:title=" ">
<polygon fill="white" stroke="black" points="34.5,-136.5 34.5,-155.5 100.5,-155.5 100.5,-136.5 34.5,-136.5"/>
<text text-anchor="middle" x="67.5" y="-143.5" font-family="Helvetica,sans-Serif" font-size="10.00">Subscriptor</text>
</a>
</g>
</g>
<!-- Node3&#45;&gt;Node2 -->
<g id="edge2" class="edge">
<title>Node3&#45;&gt;Node2</title>
<path fill="none" stroke="midnightblue" d="M67.5,-126.12C67.5,-116.82 67.5,-106.06 67.5,-98.71"/>
<polygon fill="midnightblue" stroke="midnightblue" points="64,-126.41 67.5,-136.41 71,-126.41 64,-126.41"/>
</g>
</g>
</svg>
