<?xml version="1.0" encoding="UTF-8" standalone="no"?>
<!DOCTYPE svg PUBLIC "-//W3C//DTD SVG 1.1//EN"
 "http://www.w3.org/Graphics/SVG/1.1/DTD/svg11.dtd">
<!-- Generated by graphviz version 2.47.1 (20210417.1919)
 -->
<!-- Title: DoFHandler&lt; dim, spacedim &gt; Pages: 1 -->
<svg width="409pt" height="220pt"
 viewBox="0.00 0.00 408.50 220.00" xmlns="http://www.w3.org/2000/svg" xmlns:xlink="http://www.w3.org/1999/xlink">
<g id="graph0" class="graph" transform="scale(1 1) rotate(0) translate(4 216)">
<title>DoFHandler&lt; dim, spacedim &gt;</title>
<polygon fill="white" stroke="transparent" points="-4,4 -4,-216 404.5,-216 404.5,4 -4,4"/>
<!-- Node1 -->
<g id="node1" class="node">
<title>Node1</title>
<g id="a_node1"><a xlink:title=" ">
<polygon fill="#bfbfbf" stroke="black" points="43.5,-135.5 43.5,-154.5 194.5,-154.5 194.5,-135.5 43.5,-135.5"/>
<text text-anchor="middle" x="119" y="-142.5" font-family="Helvetica,sans-Serif" font-size="10.00">DoFHandler&lt; dim, spacedim &gt;</text>
</a>
</g>
</g>
<!-- Node1&#45;&gt;Node1 -->
<g id="edge2" class="edge">
<title>Node1&#45;&gt;Node1</title>
<path fill="none" stroke="orange" stroke-dasharray="5,2" d="M204.6,-146.79C209.55,-146.36 212.5,-145.76 212.5,-145 212.5,-143.81 205.3,-143.03 194.57,-142.64"/>
<polygon fill="orange" stroke="orange" points="204.36,-143.3 194.57,-147.36 204.75,-150.29 204.36,-143.3"/>
<text text-anchor="middle" x="255" y="-142.5" font-family="Helvetica,sans-Serif" font-size="10.00"> &lt; dim, spacedim &gt;</text>
</g>
<!-- Node1&#45;&gt;Node1 -->
<g id="edge3" class="edge">
<title>Node1&#45;&gt;Node1</title>
<path fill="none" stroke="orange" stroke-dasharray="5,2" d="M204.88,-150.14C251.36,-150.71 297.5,-149 297.5,-145 297.5,-140.71 244.34,-139.05 194.66,-140.02"/>
<polygon fill="orange" stroke="orange" points="204.71,-146.64 194.66,-149.98 204.6,-153.64 204.71,-146.64"/>
<text text-anchor="middle" x="340" y="-142.5" font-family="Helvetica,sans-Serif" font-size="10.00"> &lt; dim, spacedim &gt;</text>
</g>
<!-- Node3 -->
<g id="node3" class="node">
<title>Node3</title>
<g id="a_node3"><a xlink:href="classDoFHandler.html" target="_top" xlink:title=" ">
<polygon fill="white" stroke="black" points="0,-68.5 0,-87.5 140,-87.5 140,-68.5 0,-68.5"/>
<text text-anchor="middle" x="70" y="-75.5" font-family="Helvetica,sans-Serif" font-size="10.00">DoFHandler&lt; 1, spacedim &gt;</text>
</a>
</g>
</g>
<!-- Node1&#45;&gt;Node3 -->
<g id="edge4" class="edge">
<title>Node1&#45;&gt;Node3</title>
<path fill="none" stroke="orange" stroke-dasharray="5,2" d="M105.1,-127.29C102.37,-123.91 99.56,-120.37 97,-117 89.45,-107.08 81.21,-95.35 75.85,-87.57"/>
<polygon fill="orange" stroke="orange" points="102.47,-129.6 111.52,-135.12 107.88,-125.17 102.47,-129.6"/>
<text text-anchor="middle" x="134.5" y="-109" font-family="Helvetica,sans-Serif" font-size="10.00"> &lt; 1, spacedim &gt;</text>
</g>
<!-- Node4 -->
<g id="node4" class="node">
<title>Node4</title>
<g id="a_node4"><a xlink:href="classDoFHandler.html" target="_top" xlink:title=" ">
<polygon fill="white" stroke="black" points="158.5,-68.5 158.5,-87.5 283.5,-87.5 283.5,-68.5 158.5,-68.5"/>
<text text-anchor="middle" x="221" y="-75.5" font-family="Helvetica,sans-Serif" font-size="10.00">DoFHandler&lt; dim, dim &gt;</text>
</a>
</g>
</g>
<!-- Node1&#45;&gt;Node4 -->
<g id="edge5" class="edge">
<title>Node1&#45;&gt;Node4</title>
<path fill="none" stroke="orange" stroke-dasharray="5,2" d="M147.29,-130.82C155.44,-126.7 164.23,-121.93 172,-117 186.18,-108 201.27,-95.86 210.9,-87.75"/>
<polygon fill="orange" stroke="orange" points="145.55,-127.78 138.12,-135.34 148.64,-134.07 145.55,-127.78"/>
<text text-anchor="middle" x="217.5" y="-109" font-family="Helvetica,sans-Serif" font-size="10.00"> &lt; dim, dim &gt;</text>
</g>
<!-- Node2 -->
<g id="node2" class="node">
<title>Node2</title>
<g id="a_node2"><a xlink:href="classSubscriptor.html" target="_top" xlink:title=" ">
<polygon fill="white" stroke="black" points="86,-192.5 86,-211.5 152,-211.5 152,-192.5 86,-192.5"/>
<text text-anchor="middle" x="119" y="-199.5" font-family="Helvetica,sans-Serif" font-size="10.00">Subscriptor</text>
</a>
</g>
</g>
<!-- Node2&#45;&gt;Node1 -->
<g id="edge1" class="edge">
<title>Node2&#45;&gt;Node1</title>
<path fill="none" stroke="midnightblue" d="M119,-182.12C119,-172.82 119,-162.06 119,-154.71"/>
<polygon fill="midnightblue" stroke="midnightblue" points="115.5,-182.41 119,-192.41 122.5,-182.41 115.5,-182.41"/>
</g>
<!-- Node5 -->
<g id="node5" class="node">
<title>Node5</title>
<g id="a_node5"><a xlink:href="classhp_1_1DoFHandler.html" target="_top" xlink:title=" ">
<polygon fill="white" stroke="black" points="164.5,-0.5 164.5,-30.5 277.5,-30.5 277.5,-0.5 164.5,-0.5"/>
<text text-anchor="start" x="172.5" y="-18.5" font-family="Helvetica,sans-Serif" font-size="10.00">hp::DoFHandler&lt; dim,</text>
<text text-anchor="middle" x="221" y="-7.5" font-family="Helvetica,sans-Serif" font-size="10.00"> spacedim &gt;</text>
</a>
</g>
</g>
<!-- Node4&#45;&gt;Node5 -->
<g id="edge6" class="edge">
<title>Node4&#45;&gt;Node5</title>
<path fill="none" stroke="midnightblue" d="M221,-58.22C221,-49.36 221,-38.96 221,-30.76"/>
<polygon fill="midnightblue" stroke="midnightblue" points="217.5,-58.33 221,-68.33 224.5,-58.33 217.5,-58.33"/>
</g>
</g>
</svg>
