<?xml version="1.0" encoding="UTF-8" standalone="no"?>
<!DOCTYPE svg PUBLIC "-//W3C//DTD SVG 1.1//EN"
 "http://www.w3.org/Graphics/SVG/1.1/DTD/svg11.dtd">
<!-- Generated by graphviz version 2.47.1 (20210417.1919)
 -->
<!-- Title: TensorProductMatrixSymmetricSumBase&lt; dim, Number, n_rows_1d &gt; Pages: 1 -->
<svg width="674pt" height="100pt"
 viewBox="0.00 0.00 674.00 99.50" xmlns="http://www.w3.org/2000/svg" xmlns:xlink="http://www.w3.org/1999/xlink">
<g id="graph0" class="graph" transform="scale(1 1) rotate(0) translate(4 95.5)">
<title>TensorProductMatrixSymmetricSumBase&lt; dim, Number, n_rows_1d &gt;</title>
<polygon fill="white" stroke="transparent" points="-4,4 -4,-95.5 670,-95.5 670,4 -4,4"/>
<!-- Node1 -->
<g id="node1" class="node">
<title>Node1</title>
<g id="a_node1"><a xlink:title=" ">
<polygon fill="#bfbfbf" stroke="black" points="0,-27.5 0,-68.5 154,-68.5 154,-27.5 0,-27.5"/>
<text text-anchor="start" x="8" y="-56.5" font-family="Helvetica,sans-Serif" font-size="10.00">TensorProductMatrixSymmetric</text>
<text text-anchor="start" x="8" y="-45.5" font-family="Helvetica,sans-Serif" font-size="10.00">SumBase&lt; dim, Number, n</text>
<text text-anchor="middle" x="77" y="-34.5" font-family="Helvetica,sans-Serif" font-size="10.00">_rows_1d &gt;</text>
</a>
</g>
</g>
<!-- Node2 -->
<g id="node2" class="node">
<title>Node2</title>
<g id="a_node2"><a xlink:href="classTensorProductMatrixSymmetricSumBase.html" target="_top" xlink:title=" ">
<polygon fill="white" stroke="black" points="308,-61 308,-91 462,-91 462,-61 308,-61"/>
<text text-anchor="start" x="316" y="-79" font-family="Helvetica,sans-Serif" font-size="10.00">TensorProductMatrixSymmetric</text>
<text text-anchor="middle" x="385" y="-68" font-family="Helvetica,sans-Serif" font-size="10.00">SumBase&lt; dim, Number, &#45;1 &gt;</text>
</a>
</g>
</g>
<!-- Node1&#45;&gt;Node2 -->
<g id="edge1" class="edge">
<title>Node1&#45;&gt;Node2</title>
<path fill="none" stroke="orange" stroke-dasharray="5,2" d="M164.11,-55.88C209.31,-60.01 264.2,-65.04 307.83,-69.03"/>
<polygon fill="orange" stroke="orange" points="164.31,-52.38 154.03,-54.96 163.67,-59.35 164.31,-52.38"/>
<text text-anchor="middle" x="229.5" y="-69" font-family="Helvetica,sans-Serif" font-size="10.00"> &lt; dim, Number, &#45;1 &gt;</text>
</g>
<!-- Node4 -->
<g id="node4" class="node">
<title>Node4</title>
<g id="a_node4"><a xlink:href="classTensorProductMatrixSymmetricSumBase.html" target="_top" xlink:title=" ">
<polygon fill="white" stroke="black" points="305,-0.5 305,-41.5 465,-41.5 465,-0.5 305,-0.5"/>
<text text-anchor="start" x="313" y="-29.5" font-family="Helvetica,sans-Serif" font-size="10.00">TensorProductMatrixSymmetric</text>
<text text-anchor="start" x="313" y="-18.5" font-family="Helvetica,sans-Serif" font-size="10.00">SumBase&lt; dim, VectorizedArray</text>
<text text-anchor="middle" x="385" y="-7.5" font-family="Helvetica,sans-Serif" font-size="10.00">&lt; Number &gt;, n_rows_1d &gt;</text>
</a>
</g>
</g>
<!-- Node1&#45;&gt;Node4 -->
<g id="edge3" class="edge">
<title>Node1&#45;&gt;Node4</title>
<path fill="none" stroke="orange" stroke-dasharray="5,2" d="M163.93,-30.05C166.64,-29.67 169.34,-29.32 172,-29 215.8,-23.78 265.01,-21.7 304.98,-20.95"/>
<polygon fill="orange" stroke="orange" points="163.38,-26.59 154.02,-31.55 164.43,-33.51 163.38,-26.59"/>
<text text-anchor="start" x="172" y="-43" font-family="Helvetica,sans-Serif" font-size="10.00"> &lt; dim, VectorizedArray</text>
<text text-anchor="middle" x="229.5" y="-32" font-family="Helvetica,sans-Serif" font-size="10.00">&lt; Number &gt;, n_rows_1d &gt;</text>
</g>
<!-- Node3 -->
<g id="node3" class="node">
<title>Node3</title>
<g id="a_node3"><a xlink:href="classTensorProductMatrixSymmetricSum.html" target="_top" xlink:title=" ">
<polygon fill="white" stroke="black" points="502,-61 502,-91 666,-91 666,-61 502,-61"/>
<text text-anchor="start" x="510" y="-79" font-family="Helvetica,sans-Serif" font-size="10.00">TensorProductMatrixSymmetric</text>
<text text-anchor="middle" x="584" y="-68" font-family="Helvetica,sans-Serif" font-size="10.00">Sum&lt; dim, Number, n_rows_1d &gt;</text>
</a>
</g>
</g>
<!-- Node2&#45;&gt;Node3 -->
<g id="edge2" class="edge">
<title>Node2&#45;&gt;Node3</title>
<path fill="none" stroke="midnightblue" d="M472.31,-76C482.11,-76 492.08,-76 501.82,-76"/>
<polygon fill="midnightblue" stroke="midnightblue" points="472.17,-72.5 462.17,-76 472.17,-79.5 472.17,-72.5"/>
</g>
<!-- Node5 -->
<g id="node5" class="node">
<title>Node5</title>
<g id="a_node5"><a xlink:href="classTensorProductMatrixSymmetricSum_3_01dim_00_01VectorizedArray_3_01Number_01_4_00_01n__rows__1d_01_4.html" target="_top" xlink:title=" ">
<polygon fill="white" stroke="black" points="507,-0.5 507,-41.5 661,-41.5 661,-0.5 507,-0.5"/>
<text text-anchor="start" x="515" y="-29.5" font-family="Helvetica,sans-Serif" font-size="10.00">TensorProductMatrixSymmetric</text>
<text text-anchor="start" x="515" y="-18.5" font-family="Helvetica,sans-Serif" font-size="10.00">Sum&lt; dim, VectorizedArray</text>
<text text-anchor="middle" x="584" y="-7.5" font-family="Helvetica,sans-Serif" font-size="10.00">&lt; Number &gt;, n_rows_1d &gt;</text>
</a>
</g>
</g>
<!-- Node4&#45;&gt;Node5 -->
<g id="edge4" class="edge">
<title>Node4&#45;&gt;Node5</title>
<path fill="none" stroke="midnightblue" d="M475.29,-21C485.8,-21 496.46,-21 506.76,-21"/>
<polygon fill="midnightblue" stroke="midnightblue" points="475.28,-17.5 465.28,-21 475.28,-24.5 475.28,-17.5"/>
</g>
</g>
</svg>
