<?xml version="1.0" encoding="UTF-8" standalone="no"?>
<!DOCTYPE svg PUBLIC "-//W3C//DTD SVG 1.1//EN"
 "http://www.w3.org/Graphics/SVG/1.1/DTD/svg11.dtd">
<!-- Generated by graphviz version 2.47.1 (20210417.1919)
 -->
<!-- Title: Algorithms::OperatorBase Pages: 1 -->
<svg width="282pt" height="151pt"
 viewBox="0.00 0.00 281.50 151.00" xmlns="http://www.w3.org/2000/svg" xmlns:xlink="http://www.w3.org/1999/xlink">
<g id="graph0" class="graph" transform="scale(1 1) rotate(0) translate(4 147)">
<title>Algorithms::OperatorBase</title>
<polygon fill="white" stroke="transparent" points="-4,4 -4,-147 277.5,-147 277.5,4 -4,4"/>
<!-- Node1 -->
<g id="node1" class="node">
<title>Node1</title>
<g id="a_node1"><a xlink:title=" ">
<polygon fill="#bfbfbf" stroke="black" points="60,-67.5 60,-86.5 189,-86.5 189,-67.5 60,-67.5"/>
<text text-anchor="middle" x="124.5" y="-74.5" font-family="Helvetica,sans-Serif" font-size="10.00">Algorithms::OperatorBase</text>
</a>
</g>
</g>
<!-- Node3 -->
<g id="node3" class="node">
<title>Node3</title>
<g id="a_node3"><a xlink:href="classAlgorithms_1_1Newton.html" target="_top" xlink:title=" ">
<polygon fill="white" stroke="black" points="0,-0.5 0,-30.5 103,-30.5 103,-0.5 0,-0.5"/>
<text text-anchor="start" x="8" y="-18.5" font-family="Helvetica,sans-Serif" font-size="10.00">Algorithms::Newton</text>
<text text-anchor="middle" x="51.5" y="-7.5" font-family="Helvetica,sans-Serif" font-size="10.00">&lt; VectorType &gt;</text>
</a>
</g>
</g>
<!-- Node1&#45;&gt;Node3 -->
<g id="edge2" class="edge">
<title>Node1&#45;&gt;Node3</title>
<path fill="none" stroke="midnightblue" d="M106,-60.92C94.54,-51.58 79.92,-39.66 68.7,-30.52"/>
<polygon fill="midnightblue" stroke="midnightblue" points="104.08,-63.87 114.04,-67.48 108.5,-58.44 104.08,-63.87"/>
</g>
<!-- Node4 -->
<g id="node4" class="node">
<title>Node4</title>
<g id="a_node4"><a xlink:href="classAlgorithms_1_1ThetaTimestepping.html" target="_top" xlink:title=" ">
<polygon fill="white" stroke="black" points="121.5,-0.5 121.5,-30.5 273.5,-30.5 273.5,-0.5 121.5,-0.5"/>
<text text-anchor="start" x="129.5" y="-18.5" font-family="Helvetica,sans-Serif" font-size="10.00">Algorithms::ThetaTimestepping</text>
<text text-anchor="middle" x="197.5" y="-7.5" font-family="Helvetica,sans-Serif" font-size="10.00">&lt; VectorType &gt;</text>
</a>
</g>
</g>
<!-- Node1&#45;&gt;Node4 -->
<g id="edge3" class="edge">
<title>Node1&#45;&gt;Node4</title>
<path fill="none" stroke="midnightblue" d="M143,-60.92C154.46,-51.58 169.08,-39.66 180.3,-30.52"/>
<polygon fill="midnightblue" stroke="midnightblue" points="140.5,-58.44 134.96,-67.48 144.92,-63.87 140.5,-58.44"/>
</g>
<!-- Node2 -->
<g id="node2" class="node">
<title>Node2</title>
<g id="a_node2"><a xlink:href="classSubscriptor.html" target="_top" xlink:title=" ">
<polygon fill="white" stroke="black" points="91.5,-123.5 91.5,-142.5 157.5,-142.5 157.5,-123.5 91.5,-123.5"/>
<text text-anchor="middle" x="124.5" y="-130.5" font-family="Helvetica,sans-Serif" font-size="10.00">Subscriptor</text>
</a>
</g>
</g>
<!-- Node2&#45;&gt;Node1 -->
<g id="edge1" class="edge">
<title>Node2&#45;&gt;Node1</title>
<path fill="none" stroke="midnightblue" d="M124.5,-112.8C124.5,-103.91 124.5,-93.78 124.5,-86.75"/>
<polygon fill="midnightblue" stroke="midnightblue" points="121,-113.08 124.5,-123.08 128,-113.08 121,-113.08"/>
</g>
</g>
</svg>
