<?xml version="1.0" encoding="UTF-8" standalone="no"?>
<!DOCTYPE svg PUBLIC "-//W3C//DTD SVG 1.1//EN"
 "http://www.w3.org/Graphics/SVG/1.1/DTD/svg11.dtd">
<!-- Generated by graphviz version 2.47.1 (20210417.1919)
 -->
<!-- Title: CompositionManifold&lt; dim, spacedim, chartdim, intermediate_dim, dim1, dim2 &gt; Pages: 1 -->
<svg width="207pt" height="388pt"
 viewBox="0.00 0.00 206.50 388.00" xmlns="http://www.w3.org/2000/svg" xmlns:xlink="http://www.w3.org/1999/xlink">
<g id="graph0" class="graph" transform="scale(1 1) rotate(0) translate(4 384)">
<title>CompositionManifold&lt; dim, spacedim, chartdim, intermediate_dim, dim1, dim2 &gt;</title>
<polygon fill="white" stroke="transparent" points="-4,4 -4,-384 202.5,-384 202.5,4 -4,4"/>
<!-- Node1 -->
<g id="node1" class="node">
<title>Node1</title>
<g id="a_node1"><a xlink:title=" ">
<polygon fill="#bfbfbf" stroke="black" points="4.5,-0.5 4.5,-52.5 140.5,-52.5 140.5,-0.5 4.5,-0.5"/>
<text text-anchor="start" x="12.5" y="-40.5" font-family="Helvetica,sans-Serif" font-size="10.00">CompositionManifold</text>
<text text-anchor="start" x="12.5" y="-29.5" font-family="Helvetica,sans-Serif" font-size="10.00">&lt; dim, spacedim, chartdim,</text>
<text text-anchor="start" x="12.5" y="-18.5" font-family="Helvetica,sans-Serif" font-size="10.00"> intermediate_dim, dim1,</text>
<text text-anchor="middle" x="72.5" y="-7.5" font-family="Helvetica,sans-Serif" font-size="10.00"> dim2 &gt;</text>
</a>
</g>
</g>
<!-- Node2 -->
<g id="node2" class="node">
<title>Node2</title>
<g id="a_node2"><a xlink:href="classChartManifold.html" target="_top" xlink:title=" ">
<polygon fill="white" stroke="black" points="20,-90.5 20,-120.5 125,-120.5 125,-90.5 20,-90.5"/>
<text text-anchor="start" x="28" y="-108.5" font-family="Helvetica,sans-Serif" font-size="10.00">ChartManifold&lt; dim,</text>
<text text-anchor="middle" x="72.5" y="-97.5" font-family="Helvetica,sans-Serif" font-size="10.00"> dim, dim &gt;</text>
</a>
</g>
</g>
<!-- Node2&#45;&gt;Node1 -->
<g id="edge1" class="edge">
<title>Node2&#45;&gt;Node1</title>
<path fill="none" stroke="midnightblue" d="M72.5,-80.09C72.5,-71.38 72.5,-61.54 72.5,-52.75"/>
<polygon fill="midnightblue" stroke="midnightblue" points="69,-80.38 72.5,-90.38 76,-80.38 69,-80.38"/>
</g>
<!-- Node3 -->
<g id="node3" class="node">
<title>Node3</title>
<g id="a_node3"><a xlink:href="classManifold.html" target="_top" xlink:title=" ">
<polygon fill="white" stroke="black" points="0,-303.5 0,-322.5 135,-322.5 135,-303.5 0,-303.5"/>
<text text-anchor="middle" x="67.5" y="-310.5" font-family="Helvetica,sans-Serif" font-size="10.00">Manifold&lt; dim, spacedim &gt;</text>
</a>
</g>
</g>
<!-- Node3&#45;&gt;Node2 -->
<g id="edge2" class="edge">
<title>Node3&#45;&gt;Node2</title>
<path fill="none" stroke="midnightblue" d="M67.95,-293.32C68.94,-252.69 71.27,-157.02 72.15,-120.77"/>
<polygon fill="midnightblue" stroke="midnightblue" points="64.45,-293.35 67.71,-303.43 71.45,-293.52 64.45,-293.35"/>
</g>
<!-- Node6 -->
<g id="node6" class="node">
<title>Node6</title>
<g id="a_node6"><a xlink:href="classManifold.html" target="_top" xlink:title=" ">
<polygon fill="white" stroke="black" points="87,-236.5 87,-255.5 196,-255.5 196,-236.5 87,-236.5"/>
<text text-anchor="middle" x="141.5" y="-243.5" font-family="Helvetica,sans-Serif" font-size="10.00">Manifold&lt; dim, dim &gt;</text>
</a>
</g>
</g>
<!-- Node3&#45;&gt;Node6 -->
<g id="edge7" class="edge">
<title>Node3&#45;&gt;Node6</title>
<path fill="none" stroke="orange" stroke-dasharray="5,2" d="M75.8,-293.96C79.58,-287.11 84.55,-279.62 90.5,-274 98.73,-266.23 109.63,-260.06 119.24,-255.59"/>
<polygon fill="orange" stroke="orange" points="72.5,-292.73 71.14,-303.23 78.75,-295.87 72.5,-292.73"/>
<text text-anchor="middle" x="120" y="-277" font-family="Helvetica,sans-Serif" font-size="10.00"> &lt; dim, dim &gt;</text>
</g>
<!-- Node4 -->
<g id="node4" class="node">
<title>Node4</title>
<g id="a_node4"><a xlink:href="classSubscriptor.html" target="_top" xlink:title=" ">
<polygon fill="white" stroke="black" points="82.5,-360.5 82.5,-379.5 148.5,-379.5 148.5,-360.5 82.5,-360.5"/>
<text text-anchor="middle" x="115.5" y="-367.5" font-family="Helvetica,sans-Serif" font-size="10.00">Subscriptor</text>
</a>
</g>
</g>
<!-- Node4&#45;&gt;Node3 -->
<g id="edge3" class="edge">
<title>Node4&#45;&gt;Node3</title>
<path fill="none" stroke="midnightblue" d="M101.39,-352.83C92.79,-342.98 82.15,-330.78 75.11,-322.71"/>
<polygon fill="midnightblue" stroke="midnightblue" points="98.79,-355.17 108,-360.41 104.06,-350.57 98.79,-355.17"/>
</g>
<!-- Node4&#45;&gt;Node6 -->
<g id="edge6" class="edge">
<title>Node4&#45;&gt;Node6</title>
<path fill="none" stroke="midnightblue" d="M128.47,-352.34C134.31,-343.98 140.73,-333.43 144.5,-323 151.94,-302.41 152.64,-295.66 149.5,-274 148.6,-267.81 146.6,-261.06 144.83,-255.86"/>
<polygon fill="midnightblue" stroke="midnightblue" points="125.62,-350.31 122.51,-360.44 131.26,-354.46 125.62,-350.31"/>
</g>
<!-- Node5 -->
<g id="node5" class="node">
<title>Node5</title>
<g id="a_node5"><a xlink:href="classChartManifold.html" target="_top" xlink:title=" ">
<polygon fill="white" stroke="black" points="84.5,-168.5 84.5,-198.5 198.5,-198.5 198.5,-168.5 84.5,-168.5"/>
<text text-anchor="start" x="92.5" y="-186.5" font-family="Helvetica,sans-Serif" font-size="10.00">ChartManifold&lt; dim,</text>
<text text-anchor="middle" x="141.5" y="-175.5" font-family="Helvetica,sans-Serif" font-size="10.00"> spacedim, chartdim &gt;</text>
</a>
</g>
</g>
<!-- Node5&#45;&gt;Node2 -->
<g id="edge4" class="edge">
<title>Node5&#45;&gt;Node2</title>
<path fill="none" stroke="orange" stroke-dasharray="5,2" d="M121.68,-160.67C110.02,-147.83 95.62,-131.97 85.42,-120.73"/>
<polygon fill="orange" stroke="orange" points="119.21,-163.15 128.52,-168.2 124.39,-158.45 119.21,-163.15"/>
<text text-anchor="middle" x="151" y="-142" font-family="Helvetica,sans-Serif" font-size="10.00"> &lt; dim, dim, dim &gt;</text>
</g>
<!-- Node6&#45;&gt;Node5 -->
<g id="edge5" class="edge">
<title>Node6&#45;&gt;Node5</title>
<path fill="none" stroke="midnightblue" d="M141.5,-226.22C141.5,-217.36 141.5,-206.96 141.5,-198.76"/>
<polygon fill="midnightblue" stroke="midnightblue" points="138,-226.33 141.5,-236.33 145,-226.33 138,-226.33"/>
</g>
</g>
</svg>
