<?xml version="1.0" encoding="UTF-8" standalone="no"?>
<!DOCTYPE svg PUBLIC "-//W3C//DTD SVG 1.1//EN"
 "http://www.w3.org/Graphics/SVG/1.1/DTD/svg11.dtd">
<!-- Generated by graphviz version 2.47.1 (20210417.1919)
 -->
<!-- Title: BoundingBox&lt; spacedim, Number &gt; Pages: 1 -->
<svg width="267pt" height="139pt"
 viewBox="0.00 0.00 266.50 139.00" xmlns="http://www.w3.org/2000/svg" xmlns:xlink="http://www.w3.org/1999/xlink">
<g id="graph0" class="graph" transform="scale(1 1) rotate(0) translate(4 135)">
<title>BoundingBox&lt; spacedim, Number &gt;</title>
<polygon fill="white" stroke="transparent" points="-4,4 -4,-135 262.5,-135 262.5,4 -4,4"/>
<!-- Node1 -->
<g id="node1" class="node">
<title>Node1</title>
<g id="a_node1"><a xlink:title=" ">
<polygon fill="#bfbfbf" stroke="black" points="62.5,-100.5 62.5,-130.5 190.5,-130.5 190.5,-100.5 62.5,-100.5"/>
<text text-anchor="start" x="70.5" y="-118.5" font-family="Helvetica,sans-Serif" font-size="10.00">BoundingBox&lt; spacedim,</text>
<text text-anchor="middle" x="126.5" y="-107.5" font-family="Helvetica,sans-Serif" font-size="10.00"> Number &gt;</text>
</a>
</g>
</g>
<!-- Node2 -->
<g id="node2" class="node">
<title>Node2</title>
<g id="a_node2"><a xlink:href="classBoundingBox.html" target="_top" xlink:title=" ">
<polygon fill="white" stroke="black" points="0,-0.5 0,-41.5 113,-41.5 113,-0.5 0,-0.5"/>
<text text-anchor="start" x="8" y="-29.5" font-family="Helvetica,sans-Serif" font-size="10.00">BoundingBox&lt; boost</text>
<text text-anchor="start" x="8" y="-18.5" font-family="Helvetica,sans-Serif" font-size="10.00">::geometry::dimension</text>
<text text-anchor="middle" x="56.5" y="-7.5" font-family="Helvetica,sans-Serif" font-size="10.00">&lt; Box &gt;::value &gt;</text>
</a>
</g>
</g>
<!-- Node1&#45;&gt;Node2 -->
<g id="edge1" class="edge">
<title>Node1&#45;&gt;Node2</title>
<path fill="none" stroke="orange" stroke-dasharray="5,2" d="M69.89,-94.98C65.05,-91.35 60.77,-87.06 57.5,-82 49.87,-70.19 50.01,-54.15 51.84,-41.62"/>
<polygon fill="orange" stroke="orange" points="68.17,-98.03 78.47,-100.48 71.95,-92.14 68.17,-98.03"/>
<text text-anchor="start" x="57.5" y="-74" font-family="Helvetica,sans-Serif" font-size="10.00"> &lt; boost::geometry::</text>
<text text-anchor="middle" x="116.5" y="-63" font-family="Helvetica,sans-Serif" font-size="10.00">dimension&lt; Box &gt;::value &gt;</text>
</g>
<!-- Node3 -->
<g id="node3" class="node">
<title>Node3</title>
<g id="a_node3"><a xlink:href="classBoundingBox.html" target="_top" xlink:title=" ">
<polygon fill="white" stroke="black" points="136.5,-11.5 136.5,-30.5 258.5,-30.5 258.5,-11.5 136.5,-11.5"/>
<text text-anchor="middle" x="197.5" y="-18.5" font-family="Helvetica,sans-Serif" font-size="10.00">BoundingBox&lt; 3, float &gt;</text>
</a>
</g>
</g>
<!-- Node1&#45;&gt;Node3 -->
<g id="edge2" class="edge">
<title>Node1&#45;&gt;Node3</title>
<path fill="none" stroke="orange" stroke-dasharray="5,2" d="M162.44,-94.65C167.26,-90.9 171.81,-86.67 175.5,-82 187.87,-66.33 193.72,-43.03 196.11,-30.58"/>
<polygon fill="orange" stroke="orange" points="160.31,-91.86 154.15,-100.49 164.34,-97.58 160.31,-91.86"/>
<text text-anchor="middle" x="212.5" y="-68.5" font-family="Helvetica,sans-Serif" font-size="10.00"> &lt; 3, float &gt;</text>
</g>
</g>
</svg>
