<?xml version="1.0" encoding="UTF-8" standalone="no"?>
<!DOCTYPE svg PUBLIC "-//W3C//DTD SVG 1.1//EN"
 "http://www.w3.org/Graphics/SVG/1.1/DTD/svg11.dtd">
<!-- Generated by graphviz version 2.47.1 (20210417.1919)
 -->
<!-- Title: FE_SimplexPoly&lt; dim, spacedim &gt; Pages: 1 -->
<svg width="363pt" height="523pt"
 viewBox="0.00 0.00 362.50 523.00" xmlns="http://www.w3.org/2000/svg" xmlns:xlink="http://www.w3.org/1999/xlink">
<g id="graph0" class="graph" transform="scale(1 1) rotate(0) translate(4 519)">
<title>FE_SimplexPoly&lt; dim, spacedim &gt;</title>
<polygon fill="white" stroke="transparent" points="-4,4 -4,-519 358.5,-519 358.5,4 -4,4"/>
<!-- Node1 -->
<g id="node1" class="node">
<title>Node1</title>
<g id="a_node1"><a xlink:title=" ">
<polygon fill="#bfbfbf" stroke="black" points="79,-146.5 79,-176.5 196,-176.5 196,-146.5 79,-146.5"/>
<text text-anchor="start" x="87" y="-164.5" font-family="Helvetica,sans-Serif" font-size="10.00">FE_SimplexPoly&lt; dim,</text>
<text text-anchor="middle" x="137.5" y="-153.5" font-family="Helvetica,sans-Serif" font-size="10.00"> spacedim &gt;</text>
</a>
</g>
</g>
<!-- Node8 -->
<g id="node8" class="node">
<title>Node8</title>
<g id="a_node8"><a xlink:href="classFE__SimplexPoly.html" target="_top" xlink:title=" ">
<polygon fill="white" stroke="black" points="79,-68.5 79,-98.5 196,-98.5 196,-68.5 79,-68.5"/>
<text text-anchor="start" x="87" y="-86.5" font-family="Helvetica,sans-Serif" font-size="10.00">FE_SimplexPoly&lt; dim,</text>
<text text-anchor="middle" x="137.5" y="-75.5" font-family="Helvetica,sans-Serif" font-size="10.00"> dim &gt;</text>
</a>
</g>
</g>
<!-- Node1&#45;&gt;Node8 -->
<g id="edge11" class="edge">
<title>Node1&#45;&gt;Node8</title>
<path fill="none" stroke="orange" stroke-dasharray="5,2" d="M137.5,-136.09C137.5,-123.76 137.5,-109.22 137.5,-98.73"/>
<polygon fill="orange" stroke="orange" points="134,-136.2 137.5,-146.2 141,-136.21 134,-136.2"/>
<text text-anchor="middle" x="167" y="-120" font-family="Helvetica,sans-Serif" font-size="10.00"> &lt; dim, dim &gt;</text>
</g>
<!-- Node2 -->
<g id="node2" class="node">
<title>Node2</title>
<g id="a_node2"><a xlink:href="classFE__Poly.html" target="_top" xlink:title=" ">
<polygon fill="white" stroke="black" points="82.5,-214.5 82.5,-233.5 192.5,-233.5 192.5,-214.5 82.5,-214.5"/>
<text text-anchor="middle" x="137.5" y="-221.5" font-family="Helvetica,sans-Serif" font-size="10.00">FE_Poly&lt; dim, dim &gt;</text>
</a>
</g>
</g>
<!-- Node2&#45;&gt;Node1 -->
<g id="edge1" class="edge">
<title>Node2&#45;&gt;Node1</title>
<path fill="none" stroke="midnightblue" d="M137.5,-204.22C137.5,-195.36 137.5,-184.96 137.5,-176.76"/>
<polygon fill="midnightblue" stroke="midnightblue" points="134,-204.33 137.5,-214.33 141,-204.33 134,-204.33"/>
</g>
<!-- Node3 -->
<g id="node3" class="node">
<title>Node3</title>
<g id="a_node3"><a xlink:href="classFiniteElement.html" target="_top" xlink:title=" ">
<polygon fill="white" stroke="black" points="48.5,-416.5 48.5,-446.5 152.5,-446.5 152.5,-416.5 48.5,-416.5"/>
<text text-anchor="start" x="56.5" y="-434.5" font-family="Helvetica,sans-Serif" font-size="10.00">FiniteElement&lt; dim,</text>
<text text-anchor="middle" x="100.5" y="-423.5" font-family="Helvetica,sans-Serif" font-size="10.00"> spacedim &gt;</text>
</a>
</g>
</g>
<!-- Node3&#45;&gt;Node2 -->
<g id="edge2" class="edge">
<title>Node3&#45;&gt;Node2</title>
<path fill="none" stroke="midnightblue" d="M104.83,-406.45C113.05,-360.8 130.57,-263.48 135.92,-233.78"/>
<polygon fill="midnightblue" stroke="midnightblue" points="101.37,-405.91 103.04,-416.38 108.26,-407.15 101.37,-405.91"/>
</g>
<!-- Node3&#45;&gt;Node3 -->
<g id="edge5" class="edge">
<title>Node3&#45;&gt;Node3</title>
<path fill="none" stroke="orange" stroke-dasharray="5,2" d="M162.9,-436.27C167.61,-435.21 170.5,-433.62 170.5,-431.5 170.5,-428.11 163.09,-426.08 152.7,-425.39"/>
<polygon fill="orange" stroke="orange" points="162.16,-432.84 152.7,-437.61 163.07,-439.78 162.16,-432.84"/>
<text text-anchor="middle" x="213" y="-429" font-family="Helvetica,sans-Serif" font-size="10.00"> &lt; dim, spacedim &gt;</text>
</g>
<!-- Node7 -->
<g id="node7" class="node">
<title>Node7</title>
<g id="a_node7"><a xlink:href="classFiniteElement.html" target="_top" xlink:title=" ">
<polygon fill="white" stroke="black" points="202.5,-338.5 202.5,-368.5 306.5,-368.5 306.5,-338.5 202.5,-338.5"/>
<text text-anchor="start" x="210.5" y="-356.5" font-family="Helvetica,sans-Serif" font-size="10.00">FiniteElement&lt; dim,</text>
<text text-anchor="middle" x="254.5" y="-345.5" font-family="Helvetica,sans-Serif" font-size="10.00"> dim &gt;</text>
</a>
</g>
</g>
<!-- Node3&#45;&gt;Node7 -->
<g id="edge10" class="edge">
<title>Node3&#45;&gt;Node7</title>
<path fill="none" stroke="orange" stroke-dasharray="5,2" d="M138.29,-411.85C165.4,-398.47 201.35,-380.73 226.05,-368.54"/>
<polygon fill="orange" stroke="orange" points="136.52,-408.82 129.11,-416.38 139.62,-415.1 136.52,-408.82"/>
<text text-anchor="middle" x="216" y="-390" font-family="Helvetica,sans-Serif" font-size="10.00"> &lt; dim, dim &gt;</text>
</g>
<!-- Node4 -->
<g id="node4" class="node">
<title>Node4</title>
<g id="a_node4"><a xlink:href="classSubscriptor.html" target="_top" xlink:title=" ">
<polygon fill="white" stroke="black" points="288.5,-490 288.5,-509 354.5,-509 354.5,-490 288.5,-490"/>
<text text-anchor="middle" x="321.5" y="-497" font-family="Helvetica,sans-Serif" font-size="10.00">Subscriptor</text>
</a>
</g>
</g>
<!-- Node4&#45;&gt;Node3 -->
<g id="edge3" class="edge">
<title>Node4&#45;&gt;Node3</title>
<path fill="none" stroke="midnightblue" d="M283.01,-487.01C245.35,-475.76 187.92,-458.61 147.57,-446.56"/>
<polygon fill="midnightblue" stroke="midnightblue" points="282.02,-490.36 292.61,-489.87 284.03,-483.66 282.02,-490.36"/>
</g>
<!-- Node4&#45;&gt;Node7 -->
<g id="edge8" class="edge">
<title>Node4&#45;&gt;Node7</title>
<path fill="none" stroke="midnightblue" d="M321.36,-479.62C320.35,-456.15 315.81,-415.71 297.5,-387 292.97,-379.9 286.31,-373.77 279.58,-368.82"/>
<polygon fill="midnightblue" stroke="midnightblue" points="317.87,-480.01 321.62,-489.92 324.87,-479.83 317.87,-480.01"/>
</g>
<!-- Node5 -->
<g id="node5" class="node">
<title>Node5</title>
<g id="a_node5"><a xlink:href="classFiniteElementData.html" target="_top" xlink:title=" ">
<polygon fill="white" stroke="black" points="134.5,-484.5 134.5,-514.5 238.5,-514.5 238.5,-484.5 134.5,-484.5"/>
<text text-anchor="start" x="142.5" y="-502.5" font-family="Helvetica,sans-Serif" font-size="10.00">FiniteElementData&lt;</text>
<text text-anchor="middle" x="186.5" y="-491.5" font-family="Helvetica,sans-Serif" font-size="10.00"> dim &gt;</text>
</a>
</g>
</g>
<!-- Node5&#45;&gt;Node3 -->
<g id="edge4" class="edge">
<title>Node5&#45;&gt;Node3</title>
<path fill="none" stroke="midnightblue" d="M159.54,-477.81C146.29,-467.64 130.67,-455.66 118.83,-446.57"/>
<polygon fill="midnightblue" stroke="midnightblue" points="157.78,-480.87 167.84,-484.18 162.04,-475.31 157.78,-480.87"/>
</g>
<!-- Node5&#45;&gt;Node7 -->
<g id="edge9" class="edge">
<title>Node5&#45;&gt;Node7</title>
<path fill="none" stroke="midnightblue" d="M231.22,-479.34C244.34,-471.36 257.13,-460.7 264.5,-447 277.97,-421.97 268.19,-387.63 260.77,-368.62"/>
<polygon fill="midnightblue" stroke="midnightblue" points="229.15,-476.49 222.15,-484.44 232.58,-482.59 229.15,-476.49"/>
</g>
<!-- Node6 -->
<g id="node6" class="node">
<title>Node6</title>
<g id="a_node6"><a xlink:href="classFE__Poly.html" target="_top" xlink:title=" ">
<polygon fill="white" stroke="black" points="154.5,-281.5 154.5,-300.5 290.5,-300.5 290.5,-281.5 154.5,-281.5"/>
<text text-anchor="middle" x="222.5" y="-288.5" font-family="Helvetica,sans-Serif" font-size="10.00">FE_Poly&lt; dim, spacedim &gt;</text>
</a>
</g>
</g>
<!-- Node6&#45;&gt;Node2 -->
<g id="edge6" class="edge">
<title>Node6&#45;&gt;Node2</title>
<path fill="none" stroke="orange" stroke-dasharray="5,2" d="M202.97,-275.07C186.2,-262.24 162.59,-244.19 148.78,-233.63"/>
<polygon fill="orange" stroke="orange" points="200.97,-277.94 211.04,-281.23 205.22,-272.38 200.97,-277.94"/>
<text text-anchor="middle" x="214" y="-255" font-family="Helvetica,sans-Serif" font-size="10.00"> &lt; dim, dim &gt;</text>
</g>
<!-- Node7&#45;&gt;Node6 -->
<g id="edge7" class="edge">
<title>Node7&#45;&gt;Node6</title>
<path fill="none" stroke="midnightblue" d="M242.39,-329.6C237.01,-319.43 231.01,-308.08 227.02,-300.54"/>
<polygon fill="midnightblue" stroke="midnightblue" points="239.31,-331.26 247.08,-338.47 245.5,-327.99 239.31,-331.26"/>
</g>
<!-- Node9 -->
<g id="node9" class="node">
<title>Node9</title>
<g id="a_node9"><a xlink:href="classFE__SimplexDGP.html" target="_top" xlink:title=" ">
<polygon fill="white" stroke="black" points="0,-0.5 0,-30.5 119,-30.5 119,-0.5 0,-0.5"/>
<text text-anchor="start" x="8" y="-18.5" font-family="Helvetica,sans-Serif" font-size="10.00">FE_SimplexDGP&lt; dim,</text>
<text text-anchor="middle" x="59.5" y="-7.5" font-family="Helvetica,sans-Serif" font-size="10.00"> spacedim &gt;</text>
</a>
</g>
</g>
<!-- Node8&#45;&gt;Node9 -->
<g id="edge12" class="edge">
<title>Node8&#45;&gt;Node9</title>
<path fill="none" stroke="midnightblue" d="M112.7,-61.52C100.76,-51.41 86.76,-39.57 76.12,-30.57"/>
<polygon fill="midnightblue" stroke="midnightblue" points="110.68,-64.39 120.58,-68.18 115.2,-59.05 110.68,-64.39"/>
</g>
<!-- Node10 -->
<g id="node10" class="node">
<title>Node10</title>
<g id="a_node10"><a xlink:href="classFE__SimplexP.html" target="_top" xlink:title=" ">
<polygon fill="white" stroke="black" points="137.5,-6 137.5,-25 295.5,-25 295.5,-6 137.5,-6"/>
<text text-anchor="middle" x="216.5" y="-13" font-family="Helvetica,sans-Serif" font-size="10.00">FE_SimplexP&lt; dim, spacedim &gt;</text>
</a>
</g>
</g>
<!-- Node8&#45;&gt;Node10 -->
<g id="edge13" class="edge">
<title>Node8&#45;&gt;Node10</title>
<path fill="none" stroke="midnightblue" d="M162.41,-61.69C177.07,-49.44 194.86,-34.58 205.93,-25.33"/>
<polygon fill="midnightblue" stroke="midnightblue" points="160.07,-59.08 154.64,-68.18 164.56,-64.45 160.07,-59.08"/>
</g>
</g>
</svg>
