<?xml version="1.0" encoding="UTF-8" standalone="no"?>
<!DOCTYPE svg PUBLIC "-//W3C//DTD SVG 1.1//EN"
 "http://www.w3.org/Graphics/SVG/1.1/DTD/svg11.dtd">
<!-- Generated by graphviz version 2.47.1 (20210417.1919)
 -->
<!-- Title: Polynomials::HermiteInterpolation Pages: 1 -->
<svg width="226pt" height="231pt"
 viewBox="0.00 0.00 226.00 231.00" xmlns="http://www.w3.org/2000/svg" xmlns:xlink="http://www.w3.org/1999/xlink">
<g id="graph0" class="graph" transform="scale(1 1) rotate(0) translate(4 227)">
<title>Polynomials::HermiteInterpolation</title>
<polygon fill="white" stroke="transparent" points="-4,4 -4,-227 222,-227 222,4 -4,4"/>
<!-- Node1 -->
<g id="node1" class="node">
<title>Node1</title>
<g id="a_node1"><a xlink:title=" ">
<polygon fill="#bfbfbf" stroke="black" points="0,-0.5 0,-19.5 164,-19.5 164,-0.5 0,-0.5"/>
<text text-anchor="middle" x="82" y="-7.5" font-family="Helvetica,sans-Serif" font-size="10.00">Polynomials::HermiteInterpolation</text>
</a>
</g>
</g>
<!-- Node2 -->
<g id="node2" class="node">
<title>Node2</title>
<g id="a_node2"><a xlink:href="classPolynomials_1_1Polynomial.html" target="_top" xlink:title=" ">
<polygon fill="white" stroke="black" points="20,-57.5 20,-87.5 144,-87.5 144,-57.5 20,-57.5"/>
<text text-anchor="start" x="28" y="-75.5" font-family="Helvetica,sans-Serif" font-size="10.00">Polynomials::Polynomial</text>
<text text-anchor="middle" x="82" y="-64.5" font-family="Helvetica,sans-Serif" font-size="10.00">&lt; double &gt;</text>
</a>
</g>
</g>
<!-- Node2&#45;&gt;Node1 -->
<g id="edge1" class="edge">
<title>Node2&#45;&gt;Node1</title>
<path fill="none" stroke="midnightblue" d="M82,-47.35C82,-37.51 82,-26.78 82,-19.54"/>
<polygon fill="midnightblue" stroke="midnightblue" points="78.5,-47.47 82,-57.47 85.5,-47.47 78.5,-47.47"/>
</g>
<!-- Node3 -->
<g id="node3" class="node">
<title>Node3</title>
<g id="a_node3"><a xlink:href="classSubscriptor.html" target="_top" xlink:title=" ">
<polygon fill="white" stroke="black" points="45,-203.5 45,-222.5 111,-222.5 111,-203.5 45,-203.5"/>
<text text-anchor="middle" x="78" y="-210.5" font-family="Helvetica,sans-Serif" font-size="10.00">Subscriptor</text>
</a>
</g>
</g>
<!-- Node3&#45;&gt;Node2 -->
<g id="edge2" class="edge">
<title>Node3&#45;&gt;Node2</title>
<path fill="none" stroke="midnightblue" d="M78.54,-193.25C79.35,-165.19 80.86,-112.88 81.59,-87.73"/>
<polygon fill="midnightblue" stroke="midnightblue" points="75.04,-193.24 78.25,-203.34 82.04,-193.44 75.04,-193.24"/>
</g>
<!-- Node4 -->
<g id="node4" class="node">
<title>Node4</title>
<g id="a_node4"><a xlink:href="classPolynomials_1_1Polynomial.html" target="_top" xlink:title=" ">
<polygon fill="white" stroke="black" points="94,-135.5 94,-165.5 218,-165.5 218,-135.5 94,-135.5"/>
<text text-anchor="start" x="102" y="-153.5" font-family="Helvetica,sans-Serif" font-size="10.00">Polynomials::Polynomial</text>
<text text-anchor="middle" x="156" y="-142.5" font-family="Helvetica,sans-Serif" font-size="10.00">&lt; number &gt;</text>
</a>
</g>
</g>
<!-- Node3&#45;&gt;Node4 -->
<g id="edge4" class="edge">
<title>Node3&#45;&gt;Node4</title>
<path fill="none" stroke="midnightblue" d="M97.11,-197.18C109.55,-187.53 125.68,-175.01 137.92,-165.53"/>
<polygon fill="midnightblue" stroke="midnightblue" points="94.93,-194.44 89.18,-203.33 99.22,-199.97 94.93,-194.44"/>
</g>
<!-- Node4&#45;&gt;Node2 -->
<g id="edge3" class="edge">
<title>Node4&#45;&gt;Node2</title>
<path fill="none" stroke="orange" stroke-dasharray="5,2" d="M135.1,-128.03C122.54,-115.13 106.9,-99.07 95.86,-87.73"/>
<polygon fill="orange" stroke="orange" points="132.6,-130.48 142.08,-135.2 137.61,-125.6 132.6,-130.48"/>
<text text-anchor="middle" x="148" y="-109" font-family="Helvetica,sans-Serif" font-size="10.00"> &lt; double &gt;</text>
</g>
</g>
</svg>
