<?xml version="1.0" encoding="UTF-8" standalone="no"?>
<!DOCTYPE svg PUBLIC "-//W3C//DTD SVG 1.1//EN"
 "http://www.w3.org/Graphics/SVG/1.1/DTD/svg11.dtd">
<!-- Generated by graphviz version 2.47.1 (20210417.1919)
 -->
<!-- Title: ParameterAcceptorProxy&lt; SourceClass &gt; Pages: 1 -->
<svg width="200pt" height="151pt"
 viewBox="0.00 0.00 200.00 151.00" xmlns="http://www.w3.org/2000/svg" xmlns:xlink="http://www.w3.org/1999/xlink">
<g id="graph0" class="graph" transform="scale(1 1) rotate(0) translate(4 147)">
<title>ParameterAcceptorProxy&lt; SourceClass &gt;</title>
<polygon fill="white" stroke="transparent" points="-4,4 -4,-147 196,-147 196,4 -4,4"/>
<!-- Node1 -->
<g id="node1" class="node">
<title>Node1</title>
<g id="a_node1"><a xlink:title=" ">
<polygon fill="#bfbfbf" stroke="black" points="25.5,-0.5 25.5,-30.5 151.5,-30.5 151.5,-0.5 25.5,-0.5"/>
<text text-anchor="start" x="33.5" y="-18.5" font-family="Helvetica,sans-Serif" font-size="10.00">ParameterAcceptorProxy</text>
<text text-anchor="middle" x="88.5" y="-7.5" font-family="Helvetica,sans-Serif" font-size="10.00">&lt; SourceClass &gt;</text>
</a>
</g>
</g>
<!-- Node2 -->
<g id="node2" class="node">
<title>Node2</title>
<g id="a_node2"><a xlink:href="classSourceClass.html" target="_top" xlink:title=" ">
<polygon fill="white" stroke="black" points="0,-67.5 0,-86.5 73,-86.5 73,-67.5 0,-67.5"/>
<text text-anchor="middle" x="36.5" y="-74.5" font-family="Helvetica,sans-Serif" font-size="10.00">SourceClass</text>
</a>
</g>
</g>
<!-- Node2&#45;&gt;Node1 -->
<g id="edge1" class="edge">
<title>Node2&#45;&gt;Node1</title>
<path fill="none" stroke="midnightblue" d="M50.65,-59.81C58.66,-50.65 68.57,-39.3 76.24,-30.52"/>
<polygon fill="midnightblue" stroke="midnightblue" points="47.9,-57.64 43.95,-67.48 53.17,-62.25 47.9,-57.64"/>
</g>
<!-- Node3 -->
<g id="node3" class="node">
<title>Node3</title>
<g id="a_node3"><a xlink:href="classParameterAcceptor.html" target="_top" xlink:title=" ">
<polygon fill="white" stroke="black" points="91,-67.5 91,-86.5 192,-86.5 192,-67.5 91,-67.5"/>
<text text-anchor="middle" x="141.5" y="-74.5" font-family="Helvetica,sans-Serif" font-size="10.00">ParameterAcceptor</text>
</a>
</g>
</g>
<!-- Node3&#45;&gt;Node1 -->
<g id="edge2" class="edge">
<title>Node3&#45;&gt;Node1</title>
<path fill="none" stroke="midnightblue" d="M127.08,-59.81C118.92,-50.65 108.81,-39.3 100.99,-30.52"/>
<polygon fill="midnightblue" stroke="midnightblue" points="124.64,-62.34 133.91,-67.48 129.87,-57.68 124.64,-62.34"/>
</g>
<!-- Node4 -->
<g id="node4" class="node">
<title>Node4</title>
<g id="a_node4"><a xlink:href="classSubscriptor.html" target="_top" xlink:title=" ">
<polygon fill="white" stroke="black" points="108.5,-123.5 108.5,-142.5 174.5,-142.5 174.5,-123.5 108.5,-123.5"/>
<text text-anchor="middle" x="141.5" y="-130.5" font-family="Helvetica,sans-Serif" font-size="10.00">Subscriptor</text>
</a>
</g>
</g>
<!-- Node4&#45;&gt;Node3 -->
<g id="edge3" class="edge">
<title>Node4&#45;&gt;Node3</title>
<path fill="none" stroke="midnightblue" d="M141.5,-112.8C141.5,-103.91 141.5,-93.78 141.5,-86.75"/>
<polygon fill="midnightblue" stroke="midnightblue" points="138,-113.08 141.5,-123.08 145,-113.08 138,-113.08"/>
</g>
</g>
</svg>
