<?xml version="1.0" encoding="UTF-8" standalone="no"?>
<!DOCTYPE svg PUBLIC "-//W3C//DTD SVG 1.1//EN"
 "http://www.w3.org/Graphics/SVG/1.1/DTD/svg11.dtd">
<!-- Generated by graphviz version 2.47.1 (20210417.1919)
 -->
<!-- Title: mg::SmootherRelaxation&lt; RelaxationType, VectorType &gt; Pages: 1 -->
<svg width="335pt" height="231pt"
 viewBox="0.00 0.00 334.98 231.00" xmlns="http://www.w3.org/2000/svg" xmlns:xlink="http://www.w3.org/1999/xlink">
<g id="graph0" class="graph" transform="scale(1 1) rotate(0) translate(4 227)">
<title>mg::SmootherRelaxation&lt; RelaxationType, VectorType &gt;</title>
<polygon fill="white" stroke="transparent" points="-4,4 -4,-227 330.98,-227 330.98,4 -4,4"/>
<!-- Node1 -->
<g id="node1" class="node">
<title>Node1</title>
<g id="a_node1"><a xlink:title=" ">
<polygon fill="#bfbfbf" stroke="black" points="78.98,-0.5 78.98,-30.5 236.98,-30.5 236.98,-0.5 78.98,-0.5"/>
<text text-anchor="start" x="86.98" y="-18.5" font-family="Helvetica,sans-Serif" font-size="10.00">mg::SmootherRelaxation</text>
<text text-anchor="middle" x="157.98" y="-7.5" font-family="Helvetica,sans-Serif" font-size="10.00">&lt; RelaxationType, VectorType &gt;</text>
</a>
</g>
</g>
<!-- Node2 -->
<g id="node2" class="node">
<title>Node2</title>
<g id="a_node2"><a xlink:href="classMGLevelObject.html" target="_top" xlink:title=" ">
<polygon fill="white" stroke="black" points="8.98,-68.5 8.98,-98.5 148.98,-98.5 148.98,-68.5 8.98,-68.5"/>
<text text-anchor="start" x="16.98" y="-86.5" font-family="Helvetica,sans-Serif" font-size="10.00">MGLevelObject&lt; Relaxation</text>
<text text-anchor="middle" x="78.98" y="-75.5" font-family="Helvetica,sans-Serif" font-size="10.00">Type &gt;</text>
</a>
</g>
</g>
<!-- Node2&#45;&gt;Node1 -->
<g id="edge1" class="edge">
<title>Node2&#45;&gt;Node1</title>
<path fill="none" stroke="midnightblue" d="M104.09,-61.52C116.18,-51.41 130.36,-39.57 141.14,-30.57"/>
<polygon fill="midnightblue" stroke="midnightblue" points="101.55,-59.08 96.12,-68.18 106.04,-64.45 101.55,-59.08"/>
</g>
<!-- Node3 -->
<g id="node3" class="node">
<title>Node3</title>
<g id="a_node3"><a xlink:href="classSubscriptor.html" target="_top" xlink:title=" ">
<polygon fill="white" stroke="black" points="45.98,-203.5 45.98,-222.5 111.98,-222.5 111.98,-203.5 45.98,-203.5"/>
<text text-anchor="middle" x="78.98" y="-210.5" font-family="Helvetica,sans-Serif" font-size="10.00">Subscriptor</text>
</a>
</g>
</g>
<!-- Node3&#45;&gt;Node2 -->
<g id="edge2" class="edge">
<title>Node3&#45;&gt;Node2</title>
<path fill="none" stroke="midnightblue" d="M42.89,-199.11C28.06,-191.83 12.42,-181.09 3.98,-166 -11.19,-138.9 22.63,-113.56 49.66,-98.54"/>
<polygon fill="midnightblue" stroke="midnightblue" points="41.87,-202.49 52.42,-203.41 44.75,-196.11 41.87,-202.49"/>
</g>
<!-- Node4 -->
<g id="node4" class="node">
<title>Node4</title>
<g id="a_node4"><a xlink:href="classMGLevelObject.html" target="_top" xlink:title=" ">
<polygon fill="white" stroke="black" points="13.48,-146.5 13.48,-165.5 144.48,-165.5 144.48,-146.5 13.48,-146.5"/>
<text text-anchor="middle" x="78.98" y="-153.5" font-family="Helvetica,sans-Serif" font-size="10.00">MGLevelObject&lt; Object &gt;</text>
</a>
</g>
</g>
<!-- Node3&#45;&gt;Node4 -->
<g id="edge4" class="edge">
<title>Node3&#45;&gt;Node4</title>
<path fill="none" stroke="midnightblue" d="M78.98,-193.12C78.98,-183.82 78.98,-173.06 78.98,-165.71"/>
<polygon fill="midnightblue" stroke="midnightblue" points="75.48,-193.41 78.98,-203.41 82.48,-193.41 75.48,-193.41"/>
</g>
<!-- Node6 -->
<g id="node6" class="node">
<title>Node6</title>
<g id="a_node6"><a xlink:href="classMGSmootherBase.html" target="_top" xlink:title=" ">
<polygon fill="white" stroke="black" points="162.98,-146.5 162.98,-165.5 326.98,-165.5 326.98,-146.5 162.98,-146.5"/>
<text text-anchor="middle" x="244.98" y="-153.5" font-family="Helvetica,sans-Serif" font-size="10.00">MGSmootherBase&lt; VectorType &gt;</text>
</a>
</g>
</g>
<!-- Node3&#45;&gt;Node6 -->
<g id="edge7" class="edge">
<title>Node3&#45;&gt;Node6</title>
<path fill="none" stroke="midnightblue" d="M114.61,-200.19C146.06,-189.77 191.15,-174.83 219.22,-165.53"/>
<polygon fill="midnightblue" stroke="midnightblue" points="113.3,-196.94 104.91,-203.41 115.51,-203.58 113.3,-196.94"/>
</g>
<!-- Node4&#45;&gt;Node2 -->
<g id="edge3" class="edge">
<title>Node4&#45;&gt;Node2</title>
<path fill="none" stroke="orange" stroke-dasharray="5,2" d="M78.98,-136.24C78.98,-124.41 78.98,-109.38 78.98,-98.58"/>
<polygon fill="orange" stroke="orange" points="75.48,-136.36 78.98,-146.36 82.48,-136.36 75.48,-136.36"/>
<text text-anchor="middle" x="123.48" y="-120" font-family="Helvetica,sans-Serif" font-size="10.00"> &lt; RelaxationType &gt;</text>
</g>
<!-- Node5 -->
<g id="node5" class="node">
<title>Node5</title>
<g id="a_node5"><a xlink:href="classMGSmoother.html" target="_top" xlink:title=" ">
<polygon fill="white" stroke="black" points="169.98,-74 169.98,-93 311.98,-93 311.98,-74 169.98,-74"/>
<text text-anchor="middle" x="240.98" y="-81" font-family="Helvetica,sans-Serif" font-size="10.00">MGSmoother&lt; VectorType &gt;</text>
</a>
</g>
</g>
<!-- Node5&#45;&gt;Node1 -->
<g id="edge5" class="edge">
<title>Node5&#45;&gt;Node1</title>
<path fill="none" stroke="midnightblue" d="M222.19,-67.57C208.29,-56.51 189.48,-41.55 175.81,-30.68"/>
<polygon fill="midnightblue" stroke="midnightblue" points="220.12,-70.39 230.12,-73.87 224.48,-64.91 220.12,-70.39"/>
</g>
<!-- Node6&#45;&gt;Node5 -->
<g id="edge6" class="edge">
<title>Node6&#45;&gt;Node5</title>
<path fill="none" stroke="midnightblue" d="M243.92,-136.36C243.13,-122.4 242.08,-103.93 241.47,-93.22"/>
<polygon fill="midnightblue" stroke="midnightblue" points="240.42,-136.57 244.48,-146.36 247.41,-136.17 240.42,-136.57"/>
</g>
</g>
</svg>
