<?xml version="1.0" encoding="UTF-8" standalone="no"?>
<!DOCTYPE svg PUBLIC "-//W3C//DTD SVG 1.1//EN"
 "http://www.w3.org/Graphics/SVG/1.1/DTD/svg11.dtd">
<!-- Generated by graphviz version 2.47.1 (20210417.1919)
 -->
<!-- Title: BlockMatrixIterators::AccessorBase&lt; BlockMatrixType &gt; Pages: 1 -->
<svg width="340pt" height="110pt"
 viewBox="0.00 0.00 340.00 110.00" xmlns="http://www.w3.org/2000/svg" xmlns:xlink="http://www.w3.org/1999/xlink">
<g id="graph0" class="graph" transform="scale(1 1) rotate(0) translate(4 106)">
<title>BlockMatrixIterators::AccessorBase&lt; BlockMatrixType &gt;</title>
<polygon fill="white" stroke="transparent" points="-4,4 -4,-106 336,-106 336,4 -4,4"/>
<!-- Node1 -->
<g id="node1" class="node">
<title>Node1</title>
<g id="a_node1"><a xlink:title=" ">
<polygon fill="#bfbfbf" stroke="black" points="0,-30.5 0,-71.5 147,-71.5 147,-30.5 0,-30.5"/>
<text text-anchor="start" x="8" y="-59.5" font-family="Helvetica,sans-Serif" font-size="10.00">BlockMatrixIterators</text>
<text text-anchor="start" x="8" y="-48.5" font-family="Helvetica,sans-Serif" font-size="10.00">::AccessorBase&lt; BlockMatrix</text>
<text text-anchor="middle" x="73.5" y="-37.5" font-family="Helvetica,sans-Serif" font-size="10.00">Type &gt;</text>
</a>
</g>
</g>
<!-- Node2 -->
<g id="node2" class="node">
<title>Node2</title>
<g id="a_node2"><a xlink:href="classBlockMatrixIterators_1_1Accessor_3_01BlockMatrixType_00_01false_01_4.html" target="_top" xlink:title=" ">
<polygon fill="white" stroke="black" points="183,-60.5 183,-101.5 332,-101.5 332,-60.5 183,-60.5"/>
<text text-anchor="start" x="191" y="-89.5" font-family="Helvetica,sans-Serif" font-size="10.00">BlockMatrixIterators</text>
<text text-anchor="start" x="191" y="-78.5" font-family="Helvetica,sans-Serif" font-size="10.00">::Accessor&lt; BlockMatrixType,</text>
<text text-anchor="middle" x="257.5" y="-67.5" font-family="Helvetica,sans-Serif" font-size="10.00"> false &gt;</text>
</a>
</g>
</g>
<!-- Node1&#45;&gt;Node2 -->
<g id="edge1" class="edge">
<title>Node1&#45;&gt;Node2</title>
<path fill="none" stroke="midnightblue" d="M157.16,-64.62C165.68,-66.03 174.3,-67.45 182.71,-68.84"/>
<polygon fill="midnightblue" stroke="midnightblue" points="157.65,-61.16 147.22,-62.99 156.51,-68.07 157.65,-61.16"/>
</g>
<!-- Node3 -->
<g id="node3" class="node">
<title>Node3</title>
<g id="a_node3"><a xlink:href="classBlockMatrixIterators_1_1Accessor_3_01BlockMatrixType_00_01true_01_4.html" target="_top" xlink:title=" ">
<polygon fill="white" stroke="black" points="183,-0.5 183,-41.5 332,-41.5 332,-0.5 183,-0.5"/>
<text text-anchor="start" x="191" y="-29.5" font-family="Helvetica,sans-Serif" font-size="10.00">BlockMatrixIterators</text>
<text text-anchor="start" x="191" y="-18.5" font-family="Helvetica,sans-Serif" font-size="10.00">::Accessor&lt; BlockMatrixType,</text>
<text text-anchor="middle" x="257.5" y="-7.5" font-family="Helvetica,sans-Serif" font-size="10.00"> true &gt;</text>
</a>
</g>
</g>
<!-- Node1&#45;&gt;Node3 -->
<g id="edge2" class="edge">
<title>Node1&#45;&gt;Node3</title>
<path fill="none" stroke="midnightblue" d="M157.16,-37.38C165.68,-35.97 174.3,-34.55 182.71,-33.16"/>
<polygon fill="midnightblue" stroke="midnightblue" points="156.51,-33.93 147.22,-39.01 157.65,-40.84 156.51,-33.93"/>
</g>
</g>
</svg>
