<?xml version="1.0" encoding="UTF-8" standalone="no"?>
<!DOCTYPE svg PUBLIC "-//W3C//DTD SVG 1.1//EN"
 "http://www.w3.org/Graphics/SVG/1.1/DTD/svg11.dtd">
<!-- Generated by graphviz version 2.47.1 (20210417.1919)
 -->
<!-- Title: FEValuesViews::Vector&lt; dim, spacedim &gt; Pages: 1 -->
<svg width="334pt" height="39pt"
 viewBox="0.00 0.00 334.00 39.00" xmlns="http://www.w3.org/2000/svg" xmlns:xlink="http://www.w3.org/1999/xlink">
<g id="graph0" class="graph" transform="scale(1 1) rotate(0) translate(4 35)">
<title>FEValuesViews::Vector&lt; dim, spacedim &gt;</title>
<polygon fill="white" stroke="transparent" points="-4,4 -4,-35 330,-35 330,4 -4,4"/>
<!-- Node1 -->
<g id="node1" class="node">
<title>Node1</title>
<g id="a_node1"><a xlink:title=" ">
<polygon fill="#bfbfbf" stroke="black" points="0,-0.5 0,-30.5 120,-30.5 120,-0.5 0,-0.5"/>
<text text-anchor="start" x="8" y="-18.5" font-family="Helvetica,sans-Serif" font-size="10.00">FEValuesViews::Vector</text>
<text text-anchor="middle" x="60" y="-7.5" font-family="Helvetica,sans-Serif" font-size="10.00">&lt; dim, spacedim &gt;</text>
</a>
</g>
</g>
<!-- Node1&#45;&gt;Node1 -->
<g id="edge1" class="edge">
<title>Node1&#45;&gt;Node1</title>
<path fill="none" stroke="orange" stroke-dasharray="5,2" d="M130.43,-17.52C135.14,-17.05 138,-16.38 138,-15.5 138,-14.09 130.69,-13.21 120.18,-12.86"/>
<polygon fill="orange" stroke="orange" points="129.95,-14.04 120.18,-18.14 130.37,-21.03 129.95,-14.04"/>
<text text-anchor="middle" x="180.5" y="-13" font-family="Helvetica,sans-Serif" font-size="10.00"> &lt; dim, spacedim &gt;</text>
</g>
<!-- Node1&#45;&gt;Node1 -->
<g id="edge2" class="edge">
<title>Node1&#45;&gt;Node1</title>
<path fill="none" stroke="orange" stroke-dasharray="5,2" d="M130.16,-20.88C175.1,-21.83 223,-20.03 223,-15.5 223,-10.62 167.59,-8.92 120.04,-10.38"/>
<polygon fill="orange" stroke="orange" points="130.12,-17.38 120.04,-20.62 129.94,-24.37 130.12,-17.38"/>
<text text-anchor="middle" x="265.5" y="-13" font-family="Helvetica,sans-Serif" font-size="10.00"> &lt; dim, spacedim &gt;</text>
</g>
</g>
</svg>
