<?xml version="1.0" encoding="UTF-8" standalone="no"?>
<!DOCTYPE svg PUBLIC "-//W3C//DTD SVG 1.1//EN"
 "http://www.w3.org/Graphics/SVG/1.1/DTD/svg11.dtd">
<!-- Generated by graphviz version 2.47.1 (20210417.1919)
 -->
<!-- Title: DataOut_DoFData&lt; DoFHandlerType, patch_dim, patch_space_dim &gt; Pages: 1 -->
<svg width="1132pt" height="193pt"
 viewBox="0.00 0.00 1132.00 192.50" xmlns="http://www.w3.org/2000/svg" xmlns:xlink="http://www.w3.org/1999/xlink">
<g id="graph0" class="graph" transform="scale(1 1) rotate(0) translate(4 188.5)">
<title>DataOut_DoFData&lt; DoFHandlerType, patch_dim, patch_space_dim &gt;</title>
<polygon fill="white" stroke="transparent" points="-4,4 -4,-188.5 1128,-188.5 1128,4 -4,4"/>
<!-- Node1 -->
<g id="node1" class="node">
<title>Node1</title>
<g id="a_node1"><a xlink:title=" ">
<polygon fill="#bfbfbf" stroke="black" points="405,-72 405,-102 585,-102 585,-72 405,-72"/>
<text text-anchor="start" x="413" y="-90" font-family="Helvetica,sans-Serif" font-size="10.00">DataOut_DoFData&lt; DoFHandler</text>
<text text-anchor="middle" x="495" y="-79" font-family="Helvetica,sans-Serif" font-size="10.00">Type, patch_dim, patch_space_dim &gt;</text>
</a>
</g>
</g>
<!-- Node4 -->
<g id="node4" class="node">
<title>Node4</title>
<g id="a_node4"><a xlink:href="classDataOut__DoFData.html" target="_top" xlink:title=" ">
<polygon fill="white" stroke="black" points="789,-132 789,-184 950,-184 950,-132 789,-132"/>
<text text-anchor="start" x="797" y="-172" font-family="Helvetica,sans-Serif" font-size="10.00">DataOut_DoFData&lt; DoFHandler</text>
<text text-anchor="start" x="797" y="-161" font-family="Helvetica,sans-Serif" font-size="10.00">&lt; dim &gt;, DoFHandlerType</text>
<text text-anchor="start" x="797" y="-150" font-family="Helvetica,sans-Serif" font-size="10.00">::dimension &#45; 1, DoFHandlerType</text>
<text text-anchor="middle" x="869.5" y="-139" font-family="Helvetica,sans-Serif" font-size="10.00">::dimension &gt;</text>
</a>
</g>
</g>
<!-- Node1&#45;&gt;Node4 -->
<g id="edge3" class="edge">
<title>Node1&#45;&gt;Node4</title>
<path fill="none" stroke="orange" stroke-dasharray="5,2" d="M543.18,-105.66C561.6,-112.32 583.05,-119.33 603,-124 664.53,-138.42 735.62,-147.11 788.74,-152.1"/>
<polygon fill="orange" stroke="orange" points="544.17,-102.29 533.57,-102.12 541.74,-108.86 544.17,-102.29"/>
<text text-anchor="start" x="610" y="-174" font-family="Helvetica,sans-Serif" font-size="10.00"> &lt; DoFHandler&lt; dim &gt;</text>
<text text-anchor="start" x="610" y="-163" font-family="Helvetica,sans-Serif" font-size="10.00">, DoFHandlerType::dimension</text>
<text text-anchor="middle" x="687" y="-152" font-family="Helvetica,sans-Serif" font-size="10.00"> &#45; 1, DoFHandlerType::dimension &gt;</text>
</g>
<!-- Node6 -->
<g id="node6" class="node">
<title>Node6</title>
<g id="a_node6"><a xlink:href="classDataOut__DoFData.html" target="_top" xlink:title=" ">
<polygon fill="white" stroke="black" points="789.5,-61 789.5,-113 949.5,-113 949.5,-61 789.5,-61"/>
<text text-anchor="start" x="797.5" y="-101" font-family="Helvetica,sans-Serif" font-size="10.00">DataOut_DoFData&lt; DoFHandler</text>
<text text-anchor="start" x="797.5" y="-90" font-family="Helvetica,sans-Serif" font-size="10.00">&lt; dim &gt;, DoFHandlerType</text>
<text text-anchor="start" x="797.5" y="-79" font-family="Helvetica,sans-Serif" font-size="10.00">::dimension, DoFHandlerType</text>
<text text-anchor="middle" x="869.5" y="-68" font-family="Helvetica,sans-Serif" font-size="10.00">::space_dimension &gt;</text>
</a>
</g>
</g>
<!-- Node1&#45;&gt;Node6 -->
<g id="edge5" class="edge">
<title>Node1&#45;&gt;Node6</title>
<path fill="none" stroke="orange" stroke-dasharray="5,2" d="M595.22,-87C656.04,-87 732.82,-87 789.5,-87"/>
<polygon fill="orange" stroke="orange" points="595.22,-83.5 585.22,-87 595.22,-90.5 595.22,-83.5"/>
<text text-anchor="start" x="603" y="-112" font-family="Helvetica,sans-Serif" font-size="10.00"> &lt; DoFHandler&lt; dim &gt;</text>
<text text-anchor="start" x="603" y="-101" font-family="Helvetica,sans-Serif" font-size="10.00">, DoFHandlerType::dimension,</text>
<text text-anchor="middle" x="687" y="-90" font-family="Helvetica,sans-Serif" font-size="10.00"> DoFHandlerType::space_dimension &gt;</text>
</g>
<!-- Node8 -->
<g id="node8" class="node">
<title>Node8</title>
<g id="a_node8"><a xlink:href="classDataOut__DoFData.html" target="_top" xlink:title=" ">
<polygon fill="white" stroke="black" points="789.5,-0.5 789.5,-41.5 949.5,-41.5 949.5,-0.5 789.5,-0.5"/>
<text text-anchor="start" x="797.5" y="-29.5" font-family="Helvetica,sans-Serif" font-size="10.00">DataOut_DoFData&lt; DoFHandler</text>
<text text-anchor="start" x="797.5" y="-18.5" font-family="Helvetica,sans-Serif" font-size="10.00">&lt; dim &gt;, DoFHandlerType</text>
<text text-anchor="middle" x="869.5" y="-7.5" font-family="Helvetica,sans-Serif" font-size="10.00">::dimension+1 &gt;</text>
</a>
</g>
</g>
<!-- Node1&#45;&gt;Node8 -->
<g id="edge7" class="edge">
<title>Node1&#45;&gt;Node8</title>
<path fill="none" stroke="orange" stroke-dasharray="5,2" d="M563.65,-69.6C576.66,-66.53 590.22,-63.51 603,-61 665.32,-48.76 736.51,-38.22 789.48,-31.03"/>
<polygon fill="orange" stroke="orange" points="562.73,-66.22 553.82,-71.96 564.36,-73.03 562.73,-66.22"/>
<text text-anchor="start" x="611.5" y="-75" font-family="Helvetica,sans-Serif" font-size="10.00"> &lt; DoFHandler&lt; dim &gt;</text>
<text text-anchor="middle" x="687" y="-64" font-family="Helvetica,sans-Serif" font-size="10.00">, DoFHandlerType::dimension+1 &gt;</text>
</g>
<!-- Node2 -->
<g id="node2" class="node">
<title>Node2</title>
<g id="a_node2"><a xlink:href="classDataOutInterface.html" target="_top" xlink:title=" ">
<polygon fill="white" stroke="black" points="243,-72 243,-102 368,-102 368,-72 243,-72"/>
<text text-anchor="start" x="251" y="-90" font-family="Helvetica,sans-Serif" font-size="10.00">DataOutInterface&lt; patch</text>
<text text-anchor="middle" x="305.5" y="-79" font-family="Helvetica,sans-Serif" font-size="10.00">_dim, patch_dim &gt;</text>
</a>
</g>
</g>
<!-- Node2&#45;&gt;Node1 -->
<g id="edge1" class="edge">
<title>Node2&#45;&gt;Node1</title>
<path fill="none" stroke="midnightblue" d="M378.22,-87C386.92,-87 395.89,-87 404.8,-87"/>
<polygon fill="midnightblue" stroke="midnightblue" points="378.15,-83.5 368.15,-87 378.15,-90.5 378.15,-83.5"/>
</g>
<!-- Node3 -->
<g id="node3" class="node">
<title>Node3</title>
<g id="a_node3"><a xlink:href="classDataOutInterface.html" target="_top" xlink:title=" ">
<polygon fill="white" stroke="black" points="0,-72 0,-102 119,-102 119,-72 0,-72"/>
<text text-anchor="start" x="8" y="-90" font-family="Helvetica,sans-Serif" font-size="10.00">DataOutInterface&lt; dim,</text>
<text text-anchor="middle" x="59.5" y="-79" font-family="Helvetica,sans-Serif" font-size="10.00"> spacedim &gt;</text>
</a>
</g>
</g>
<!-- Node3&#45;&gt;Node2 -->
<g id="edge2" class="edge">
<title>Node3&#45;&gt;Node2</title>
<path fill="none" stroke="orange" stroke-dasharray="5,2" d="M129.58,-87C165.22,-87 208.34,-87 242.85,-87"/>
<polygon fill="orange" stroke="orange" points="129.25,-83.5 119.25,-87 129.25,-90.5 129.25,-83.5"/>
<text text-anchor="start" x="137" y="-101" font-family="Helvetica,sans-Serif" font-size="10.00"> &lt; patch_dim, patch</text>
<text text-anchor="middle" x="181" y="-90" font-family="Helvetica,sans-Serif" font-size="10.00">_dim &gt;</text>
</g>
<!-- Node5 -->
<g id="node5" class="node">
<title>Node5</title>
<g id="a_node5"><a xlink:href="classDataOutFaces.html" target="_top" xlink:title=" ">
<polygon fill="white" stroke="black" points="1001.5,-143 1001.5,-173 1109.5,-173 1109.5,-143 1001.5,-143"/>
<text text-anchor="start" x="1009.5" y="-161" font-family="Helvetica,sans-Serif" font-size="10.00">DataOutFaces&lt; dim,</text>
<text text-anchor="middle" x="1055.5" y="-150" font-family="Helvetica,sans-Serif" font-size="10.00"> DoFHandlerType &gt;</text>
</a>
</g>
</g>
<!-- Node4&#45;&gt;Node5 -->
<g id="edge4" class="edge">
<title>Node4&#45;&gt;Node5</title>
<path fill="none" stroke="midnightblue" d="M960.31,-158C974.34,-158 988.42,-158 1001.28,-158"/>
<polygon fill="midnightblue" stroke="midnightblue" points="960.13,-154.5 950.13,-158 960.13,-161.5 960.13,-154.5"/>
</g>
<!-- Node7 -->
<g id="node7" class="node">
<title>Node7</title>
<g id="a_node7"><a xlink:href="classDataOut.html" target="_top" xlink:title=" ">
<polygon fill="white" stroke="black" points="987,-72 987,-102 1124,-102 1124,-72 987,-72"/>
<text text-anchor="start" x="995" y="-90" font-family="Helvetica,sans-Serif" font-size="10.00">DataOut&lt; dim, DoFHandler</text>
<text text-anchor="middle" x="1055.5" y="-79" font-family="Helvetica,sans-Serif" font-size="10.00">Type &gt;</text>
</a>
</g>
</g>
<!-- Node6&#45;&gt;Node7 -->
<g id="edge6" class="edge">
<title>Node6&#45;&gt;Node7</title>
<path fill="none" stroke="midnightblue" d="M959.8,-87C968.86,-87 977.96,-87 986.74,-87"/>
<polygon fill="midnightblue" stroke="midnightblue" points="959.6,-83.5 949.6,-87 959.6,-90.5 959.6,-83.5"/>
</g>
<!-- Node9 -->
<g id="node9" class="node">
<title>Node9</title>
<g id="a_node9"><a xlink:href="classDataOutRotation.html" target="_top" xlink:title=" ">
<polygon fill="white" stroke="black" points="996.5,-6 996.5,-36 1114.5,-36 1114.5,-6 996.5,-6"/>
<text text-anchor="start" x="1004.5" y="-24" font-family="Helvetica,sans-Serif" font-size="10.00">DataOutRotation&lt; dim,</text>
<text text-anchor="middle" x="1055.5" y="-13" font-family="Helvetica,sans-Serif" font-size="10.00"> DoFHandlerType &gt;</text>
</a>
</g>
</g>
<!-- Node8&#45;&gt;Node9 -->
<g id="edge8" class="edge">
<title>Node8&#45;&gt;Node9</title>
<path fill="none" stroke="midnightblue" d="M959.95,-21C972.3,-21 984.72,-21 996.3,-21"/>
<polygon fill="midnightblue" stroke="midnightblue" points="959.6,-17.5 949.6,-21 959.6,-24.5 959.6,-17.5"/>
</g>
</g>
</svg>
