<?xml version="1.0" encoding="UTF-8" standalone="no"?>
<!DOCTYPE svg PUBLIC "-//W3C//DTD SVG 1.1//EN"
 "http://www.w3.org/Graphics/SVG/1.1/DTD/svg11.dtd">
<!-- Generated by graphviz version 2.47.1 (20210417.1919)
 -->
<!-- Title: MappingQEulerian&lt; dim, VectorType, spacedim &gt; Pages: 1 -->
<svg width="365pt" height="344pt"
 viewBox="0.00 0.00 364.50 344.00" xmlns="http://www.w3.org/2000/svg" xmlns:xlink="http://www.w3.org/1999/xlink">
<g id="graph0" class="graph" transform="scale(1 1) rotate(0) translate(4 340)">
<title>MappingQEulerian&lt; dim, VectorType, spacedim &gt;</title>
<polygon fill="white" stroke="transparent" points="-4,4 -4,-340 360.5,-340 360.5,4 -4,4"/>
<!-- Node1 -->
<g id="node1" class="node">
<title>Node1</title>
<g id="a_node1"><a xlink:title=" ">
<polygon fill="#bfbfbf" stroke="black" points="20.5,-0.5 20.5,-30.5 146.5,-30.5 146.5,-0.5 20.5,-0.5"/>
<text text-anchor="start" x="28.5" y="-18.5" font-family="Helvetica,sans-Serif" font-size="10.00">MappingQEulerian&lt; dim,</text>
<text text-anchor="middle" x="83.5" y="-7.5" font-family="Helvetica,sans-Serif" font-size="10.00"> VectorType, spacedim &gt;</text>
</a>
</g>
</g>
<!-- Node1&#45;&gt;Node1 -->
<g id="edge9" class="edge">
<title>Node1&#45;&gt;Node1</title>
<path fill="none" stroke="orange" stroke-dasharray="5,2" d="M156.95,-17.75C161.66,-17.23 164.5,-16.48 164.5,-15.5 164.5,-13.94 157.22,-12.95 146.67,-12.54"/>
<polygon fill="orange" stroke="orange" points="156.4,-14.28 146.67,-18.46 156.89,-21.27 156.4,-14.28"/>
<text text-anchor="start" x="164.5" y="-18.5" font-family="Helvetica,sans-Serif" font-size="10.00"> &lt; dim, VectorType,</text>
<text text-anchor="middle" x="208" y="-7.5" font-family="Helvetica,sans-Serif" font-size="10.00"> spacedim &gt;</text>
</g>
<!-- Node1&#45;&gt;Node1 -->
<g id="edge10" class="edge">
<title>Node1&#45;&gt;Node1</title>
<path fill="none" stroke="orange" stroke-dasharray="5,2" d="M156.78,-21.62C202.82,-22.64 251.5,-20.6 251.5,-15.5 251.5,-10.02 195.42,-8.07 146.71,-9.66"/>
<polygon fill="orange" stroke="orange" points="156.8,-18.12 146.71,-21.34 156.61,-25.11 156.8,-18.12"/>
<text text-anchor="start" x="251.5" y="-18.5" font-family="Helvetica,sans-Serif" font-size="10.00"> &lt; dim, VectorType,</text>
<text text-anchor="middle" x="295" y="-7.5" font-family="Helvetica,sans-Serif" font-size="10.00"> spacedim &gt;</text>
</g>
<!-- Node2 -->
<g id="node2" class="node">
<title>Node2</title>
<g id="a_node2"><a xlink:href="classMappingQ.html" target="_top" xlink:title=" ">
<polygon fill="white" stroke="black" points="25.5,-68.5 25.5,-87.5 141.5,-87.5 141.5,-68.5 25.5,-68.5"/>
<text text-anchor="middle" x="83.5" y="-75.5" font-family="Helvetica,sans-Serif" font-size="10.00">MappingQ&lt; dim, dim &gt;</text>
</a>
</g>
</g>
<!-- Node2&#45;&gt;Node1 -->
<g id="edge1" class="edge">
<title>Node2&#45;&gt;Node1</title>
<path fill="none" stroke="midnightblue" d="M83.5,-58.22C83.5,-49.36 83.5,-38.96 83.5,-30.76"/>
<polygon fill="midnightblue" stroke="midnightblue" points="80,-58.33 83.5,-68.33 87,-58.33 80,-58.33"/>
</g>
<!-- Node3 -->
<g id="node3" class="node">
<title>Node3</title>
<g id="a_node3"><a xlink:href="classMapping.html" target="_top" xlink:title=" ">
<polygon fill="white" stroke="black" points="0,-259.5 0,-278.5 135,-278.5 135,-259.5 0,-259.5"/>
<text text-anchor="middle" x="67.5" y="-266.5" font-family="Helvetica,sans-Serif" font-size="10.00">Mapping&lt; dim, spacedim &gt;</text>
</a>
</g>
</g>
<!-- Node3&#45;&gt;Node2 -->
<g id="edge2" class="edge">
<title>Node3&#45;&gt;Node2</title>
<path fill="none" stroke="midnightblue" d="M69.07,-249.4C72.46,-209.4 80.33,-116.46 82.77,-87.66"/>
<polygon fill="midnightblue" stroke="midnightblue" points="65.59,-249.13 68.23,-259.39 72.56,-249.72 65.59,-249.13"/>
</g>
<!-- Node3&#45;&gt;Node3 -->
<g id="edge4" class="edge">
<title>Node3&#45;&gt;Node3</title>
<path fill="none" stroke="orange" stroke-dasharray="5,2" d="M145.5,-272.63C150.19,-271.76 153,-270.56 153,-269 153,-266.51 145.8,-264.91 135.23,-264.19"/>
<polygon fill="orange" stroke="orange" points="144.77,-269.19 135.23,-273.81 145.57,-276.14 144.77,-269.19"/>
<text text-anchor="middle" x="195.5" y="-266.5" font-family="Helvetica,sans-Serif" font-size="10.00"> &lt; dim, spacedim &gt;</text>
</g>
<!-- Node6 -->
<g id="node6" class="node">
<title>Node6</title>
<g id="a_node6"><a xlink:href="classMapping.html" target="_top" xlink:title=" ">
<polygon fill="white" stroke="black" points="113,-192.5 113,-211.5 222,-211.5 222,-192.5 113,-192.5"/>
<text text-anchor="middle" x="167.5" y="-199.5" font-family="Helvetica,sans-Serif" font-size="10.00">Mapping&lt; dim, dim &gt;</text>
</a>
</g>
</g>
<!-- Node3&#45;&gt;Node6 -->
<g id="edge8" class="edge">
<title>Node3&#45;&gt;Node6</title>
<path fill="none" stroke="orange" stroke-dasharray="5,2" d="M89.39,-253.77C109.19,-240.9 137.69,-222.38 154.23,-211.63"/>
<polygon fill="orange" stroke="orange" points="87.46,-250.85 80.99,-259.23 91.28,-256.72 87.46,-250.85"/>
<text text-anchor="middle" x="152" y="-233" font-family="Helvetica,sans-Serif" font-size="10.00"> &lt; dim, dim &gt;</text>
</g>
<!-- Node4 -->
<g id="node4" class="node">
<title>Node4</title>
<g id="a_node4"><a xlink:href="classSubscriptor.html" target="_top" xlink:title=" ">
<polygon fill="white" stroke="black" points="133.5,-316.5 133.5,-335.5 199.5,-335.5 199.5,-316.5 133.5,-316.5"/>
<text text-anchor="middle" x="166.5" y="-323.5" font-family="Helvetica,sans-Serif" font-size="10.00">Subscriptor</text>
</a>
</g>
</g>
<!-- Node4&#45;&gt;Node3 -->
<g id="edge3" class="edge">
<title>Node4&#45;&gt;Node3</title>
<path fill="none" stroke="midnightblue" d="M142.26,-311.54C123.73,-301.24 98.73,-287.35 82.86,-278.53"/>
<polygon fill="midnightblue" stroke="midnightblue" points="140.59,-314.61 151.03,-316.41 143.99,-308.49 140.59,-314.61"/>
</g>
<!-- Node4&#45;&gt;Node6 -->
<g id="edge7" class="edge">
<title>Node4&#45;&gt;Node6</title>
<path fill="none" stroke="midnightblue" d="M206.34,-312.37C222.05,-305.22 238.47,-294.51 247.5,-279 264.65,-249.53 219.28,-224.3 190.03,-211.66"/>
<polygon fill="midnightblue" stroke="midnightblue" points="204.61,-309.3 196.73,-316.38 207.3,-315.76 204.61,-309.3"/>
</g>
<!-- Node5 -->
<g id="node5" class="node">
<title>Node5</title>
<g id="a_node5"><a xlink:href="classMappingQ.html" target="_top" xlink:title=" ">
<polygon fill="white" stroke="black" points="96,-135.5 96,-154.5 239,-154.5 239,-135.5 96,-135.5"/>
<text text-anchor="middle" x="167.5" y="-142.5" font-family="Helvetica,sans-Serif" font-size="10.00">MappingQ&lt; dim, spacedim &gt;</text>
</a>
</g>
</g>
<!-- Node5&#45;&gt;Node2 -->
<g id="edge5" class="edge">
<title>Node5&#45;&gt;Node2</title>
<path fill="none" stroke="orange" stroke-dasharray="5,2" d="M148.2,-129.07C131.62,-116.24 108.29,-98.19 94.65,-87.63"/>
<polygon fill="orange" stroke="orange" points="146.12,-131.88 156.17,-135.23 150.4,-126.35 146.12,-131.88"/>
<text text-anchor="middle" x="160" y="-109" font-family="Helvetica,sans-Serif" font-size="10.00"> &lt; dim, dim &gt;</text>
</g>
<!-- Node6&#45;&gt;Node5 -->
<g id="edge6" class="edge">
<title>Node6&#45;&gt;Node5</title>
<path fill="none" stroke="midnightblue" d="M167.5,-182.12C167.5,-172.82 167.5,-162.06 167.5,-154.71"/>
<polygon fill="midnightblue" stroke="midnightblue" points="164,-182.41 167.5,-192.41 171,-182.41 164,-182.41"/>
</g>
</g>
</svg>
