<?xml version="1.0" encoding="UTF-8" standalone="no"?>
<!DOCTYPE svg PUBLIC "-//W3C//DTD SVG 1.1//EN"
 "http://www.w3.org/Graphics/SVG/1.1/DTD/svg11.dtd">
<!-- Generated by graphviz version 2.47.1 (20210417.1919)
 -->
<!-- Title: DoFAccessor&lt; structdim, dim, spacedim, level_dof_access &gt; Pages: 1 -->
<svg width="218pt" height="308pt"
 viewBox="0.00 0.00 217.50 308.00" xmlns="http://www.w3.org/2000/svg" xmlns:xlink="http://www.w3.org/1999/xlink">
<g id="graph0" class="graph" transform="scale(1 1) rotate(0) translate(4 304)">
<title>DoFAccessor&lt; structdim, dim, spacedim, level_dof_access &gt;</title>
<polygon fill="white" stroke="transparent" points="-4,4 -4,-304 213.5,-304 213.5,4 -4,4"/>
<!-- Node1 -->
<g id="node1" class="node">
<title>Node1</title>
<g id="a_node1"><a xlink:title=" ">
<polygon fill="#bfbfbf" stroke="black" points="26,-190.5 26,-231.5 155,-231.5 155,-190.5 26,-190.5"/>
<text text-anchor="start" x="34" y="-219.5" font-family="Helvetica,sans-Serif" font-size="10.00">DoFAccessor&lt; structdim,</text>
<text text-anchor="start" x="34" y="-208.5" font-family="Helvetica,sans-Serif" font-size="10.00"> dim, spacedim, level</text>
<text text-anchor="middle" x="90.5" y="-197.5" font-family="Helvetica,sans-Serif" font-size="10.00">_dof_access &gt;</text>
</a>
</g>
</g>
<!-- Node3 -->
<g id="node3" class="node">
<title>Node3</title>
<g id="a_node3"><a xlink:href="classDoFAccessor.html" target="_top" xlink:title=" ">
<polygon fill="white" stroke="black" points="11,-79.5 11,-120.5 170,-120.5 170,-79.5 11,-79.5"/>
<text text-anchor="start" x="19" y="-108.5" font-family="Helvetica,sans-Serif" font-size="10.00">DoFAccessor&lt; dimension</text>
<text text-anchor="start" x="19" y="-97.5" font-family="Helvetica,sans-Serif" font-size="10.00">_, dimension_, space_dimension</text>
<text text-anchor="middle" x="90.5" y="-86.5" font-family="Helvetica,sans-Serif" font-size="10.00">_, level_dof_access &gt;</text>
</a>
</g>
</g>
<!-- Node1&#45;&gt;Node3 -->
<g id="edge2" class="edge">
<title>Node1&#45;&gt;Node3</title>
<path fill="none" stroke="orange" stroke-dasharray="5,2" d="M90.5,-180.05C90.5,-161.1 90.5,-137.14 90.5,-120.59"/>
<polygon fill="orange" stroke="orange" points="87,-180.26 90.5,-190.26 94,-180.26 87,-180.26"/>
<text text-anchor="start" x="90.5" y="-164" font-family="Helvetica,sans-Serif" font-size="10.00"> &lt; dimension_, dimension</text>
<text text-anchor="start" x="90.5" y="-153" font-family="Helvetica,sans-Serif" font-size="10.00">_, space_dimension_, level</text>
<text text-anchor="middle" x="150" y="-142" font-family="Helvetica,sans-Serif" font-size="10.00">_dof_access &gt;</text>
</g>
<!-- Node2 -->
<g id="node2" class="node">
<title>Node2</title>
<g id="a_node2"><a xlink:title=" ">
<polygon fill="white" stroke="#bfbfbf" points="0,-269.5 0,-299.5 181,-299.5 181,-269.5 0,-269.5"/>
<text text-anchor="start" x="8" y="-287.5" font-family="Helvetica,sans-Serif" font-size="10.00">internal::DoFAccessorImplementation</text>
<text text-anchor="middle" x="90.5" y="-276.5" font-family="Helvetica,sans-Serif" font-size="10.00">:: Inheritance::BaseClass</text>
</a>
</g>
</g>
<!-- Node2&#45;&gt;Node1 -->
<g id="edge1" class="edge">
<title>Node2&#45;&gt;Node1</title>
<path fill="none" stroke="midnightblue" d="M90.5,-259.1C90.5,-250.1 90.5,-240.02 90.5,-231.51"/>
<polygon fill="midnightblue" stroke="midnightblue" points="87,-259.37 90.5,-269.37 94,-259.37 87,-259.37"/>
</g>
<!-- Node4 -->
<g id="node4" class="node">
<title>Node4</title>
<g id="a_node4"><a xlink:href="classDoFCellAccessor.html" target="_top" xlink:title=" ">
<polygon fill="white" stroke="black" points="17,-0.5 17,-41.5 164,-41.5 164,-0.5 17,-0.5"/>
<text text-anchor="start" x="25" y="-29.5" font-family="Helvetica,sans-Serif" font-size="10.00">DoFCellAccessor&lt; dimension</text>
<text text-anchor="start" x="25" y="-18.5" font-family="Helvetica,sans-Serif" font-size="10.00">_, space_dimension_, level</text>
<text text-anchor="middle" x="90.5" y="-7.5" font-family="Helvetica,sans-Serif" font-size="10.00">_dof_access &gt;</text>
</a>
</g>
</g>
<!-- Node3&#45;&gt;Node4 -->
<g id="edge3" class="edge">
<title>Node3&#45;&gt;Node4</title>
<path fill="none" stroke="midnightblue" d="M90.5,-68.91C90.5,-59.79 90.5,-50.02 90.5,-41.76"/>
<polygon fill="midnightblue" stroke="midnightblue" points="87,-69.17 90.5,-79.17 94,-69.17 87,-69.17"/>
</g>
</g>
</svg>
