<?xml version="1.0" encoding="UTF-8" standalone="no"?>
<!DOCTYPE svg PUBLIC "-//W3C//DTD SVG 1.1//EN"
 "http://www.w3.org/Graphics/SVG/1.1/DTD/svg11.dtd">
<!-- Generated by graphviz version 2.47.1 (20210417.1919)
 -->
<!-- Title: FunctionDerivative&lt; dim &gt; Pages: 1 -->
<svg width="230pt" height="332pt"
 viewBox="0.00 0.00 230.00 332.00" xmlns="http://www.w3.org/2000/svg" xmlns:xlink="http://www.w3.org/1999/xlink">
<g id="graph0" class="graph" transform="scale(1 1) rotate(0) translate(4 328)">
<title>FunctionDerivative&lt; dim &gt;</title>
<polygon fill="white" stroke="transparent" points="-4,4 -4,-328 226,-328 226,4 -4,4"/>
<!-- Node1 -->
<g id="node1" class="node">
<title>Node1</title>
<g id="a_node1"><a xlink:title=" ">
<polygon fill="#bfbfbf" stroke="black" points="99,-0.5 99,-30.5 197,-30.5 197,-0.5 99,-0.5"/>
<text text-anchor="start" x="107" y="-18.5" font-family="Helvetica,sans-Serif" font-size="10.00">FunctionDerivative</text>
<text text-anchor="middle" x="148" y="-7.5" font-family="Helvetica,sans-Serif" font-size="10.00">&lt; dim &gt;</text>
</a>
</g>
</g>
<!-- Node2 -->
<g id="node2" class="node">
<title>Node2</title>
<g id="a_node2"><a xlink:href="classAutoDerivativeFunction.html" target="_top" xlink:title=" ">
<polygon fill="white" stroke="black" points="88.5,-68.5 88.5,-98.5 207.5,-98.5 207.5,-68.5 88.5,-68.5"/>
<text text-anchor="start" x="96.5" y="-86.5" font-family="Helvetica,sans-Serif" font-size="10.00">AutoDerivativeFunction</text>
<text text-anchor="middle" x="148" y="-75.5" font-family="Helvetica,sans-Serif" font-size="10.00">&lt; dim &gt;</text>
</a>
</g>
</g>
<!-- Node2&#45;&gt;Node1 -->
<g id="edge1" class="edge">
<title>Node2&#45;&gt;Node1</title>
<path fill="none" stroke="midnightblue" d="M148,-58.03C148,-48.86 148,-38.74 148,-30.79"/>
<polygon fill="midnightblue" stroke="midnightblue" points="144.5,-58.18 148,-68.18 151.5,-58.18 144.5,-58.18"/>
</g>
<!-- Node3 -->
<g id="node3" class="node">
<title>Node3</title>
<g id="a_node3"><a xlink:href="classFunction.html" target="_top" xlink:title=" ">
<polygon fill="white" stroke="black" points="74,-136.5 74,-166.5 222,-166.5 222,-136.5 74,-136.5"/>
<text text-anchor="start" x="82" y="-154.5" font-family="Helvetica,sans-Serif" font-size="10.00">Function&lt; dim, RangeNumber</text>
<text text-anchor="middle" x="148" y="-143.5" font-family="Helvetica,sans-Serif" font-size="10.00">Type &gt;</text>
</a>
</g>
</g>
<!-- Node3&#45;&gt;Node2 -->
<g id="edge2" class="edge">
<title>Node3&#45;&gt;Node2</title>
<path fill="none" stroke="midnightblue" d="M148,-126.03C148,-116.86 148,-106.74 148,-98.79"/>
<polygon fill="midnightblue" stroke="midnightblue" points="144.5,-126.18 148,-136.18 151.5,-126.18 144.5,-126.18"/>
</g>
<!-- Node4 -->
<g id="node4" class="node">
<title>Node4</title>
<g id="a_node4"><a xlink:href="classFunctionTime.html" target="_top" xlink:title=" ">
<polygon fill="white" stroke="black" points="3,-204.5 3,-245.5 125,-245.5 125,-204.5 3,-204.5"/>
<text text-anchor="start" x="11" y="-233.5" font-family="Helvetica,sans-Serif" font-size="10.00">FunctionTime&lt; numbers</text>
<text text-anchor="start" x="11" y="-222.5" font-family="Helvetica,sans-Serif" font-size="10.00">::NumberTraits&lt; double</text>
<text text-anchor="middle" x="64" y="-211.5" font-family="Helvetica,sans-Serif" font-size="10.00"> &gt;::real_type &gt;</text>
</a>
</g>
</g>
<!-- Node4&#45;&gt;Node3 -->
<g id="edge3" class="edge">
<title>Node4&#45;&gt;Node3</title>
<path fill="none" stroke="midnightblue" d="M94.85,-197.74C107.24,-187.19 121.04,-175.45 131.47,-166.57"/>
<polygon fill="midnightblue" stroke="midnightblue" points="92.3,-195.32 86.95,-204.46 96.84,-200.65 92.3,-195.32"/>
</g>
<!-- Node5 -->
<g id="node5" class="node">
<title>Node5</title>
<g id="a_node5"><a xlink:href="classFunctionTime.html" target="_top" xlink:title=" ">
<polygon fill="white" stroke="black" points="0,-304.5 0,-323.5 128,-323.5 128,-304.5 0,-304.5"/>
<text text-anchor="middle" x="64" y="-311.5" font-family="Helvetica,sans-Serif" font-size="10.00">FunctionTime&lt; Number &gt;</text>
</a>
</g>
</g>
<!-- Node5&#45;&gt;Node4 -->
<g id="edge4" class="edge">
<title>Node5&#45;&gt;Node4</title>
<path fill="none" stroke="orange" stroke-dasharray="5,2" d="M64,-294.2C64,-279.88 64,-260.21 64,-245.68"/>
<polygon fill="orange" stroke="orange" points="60.5,-294.34 64,-304.34 67.5,-294.34 60.5,-294.34"/>
<text text-anchor="start" x="64" y="-278" font-family="Helvetica,sans-Serif" font-size="10.00"> &lt; numbers::NumberTraits</text>
<text text-anchor="middle" x="121.5" y="-267" font-family="Helvetica,sans-Serif" font-size="10.00">&lt; double &gt;::real_type &gt;</text>
</g>
<!-- Node6 -->
<g id="node6" class="node">
<title>Node6</title>
<g id="a_node6"><a xlink:href="classSubscriptor.html" target="_top" xlink:title=" ">
<polygon fill="white" stroke="black" points="143,-215.5 143,-234.5 209,-234.5 209,-215.5 143,-215.5"/>
<text text-anchor="middle" x="176" y="-222.5" font-family="Helvetica,sans-Serif" font-size="10.00">Subscriptor</text>
</a>
</g>
</g>
<!-- Node6&#45;&gt;Node3 -->
<g id="edge5" class="edge">
<title>Node6&#45;&gt;Node3</title>
<path fill="none" stroke="midnightblue" d="M168.81,-205.64C164.04,-193.45 157.87,-177.69 153.49,-166.51"/>
<polygon fill="midnightblue" stroke="midnightblue" points="165.66,-207.2 172.57,-215.23 172.18,-204.64 165.66,-207.2"/>
</g>
</g>
</svg>
