<?xml version="1.0" encoding="UTF-8" standalone="no"?>
<!DOCTYPE svg PUBLIC "-//W3C//DTD SVG 1.1//EN"
 "http://www.w3.org/Graphics/SVG/1.1/DTD/svg11.dtd">
<!-- Generated by graphviz version 2.47.1 (20210417.1919)
 -->
<!-- Title: MGMatrixBase&lt; VectorType &gt; Pages: 1 -->
<svg width="304pt" height="231pt"
 viewBox="0.00 0.00 304.00 231.00" xmlns="http://www.w3.org/2000/svg" xmlns:xlink="http://www.w3.org/1999/xlink">
<g id="graph0" class="graph" transform="scale(1 1) rotate(0) translate(4 227)">
<title>MGMatrixBase&lt; VectorType &gt;</title>
<polygon fill="white" stroke="transparent" points="-4,4 -4,-227 300,-227 300,4 -4,4"/>
<!-- Node1 -->
<g id="node1" class="node">
<title>Node1</title>
<g id="a_node1"><a xlink:title=" ">
<polygon fill="#bfbfbf" stroke="black" points="64,-146.5 64,-165.5 213,-165.5 213,-146.5 64,-146.5"/>
<text text-anchor="middle" x="138.5" y="-153.5" font-family="Helvetica,sans-Serif" font-size="10.00">MGMatrixBase&lt; VectorType &gt;</text>
</a>
</g>
</g>
<!-- Node3 -->
<g id="node3" class="node">
<title>Node3</title>
<g id="a_node3"><a xlink:href="classMGMatrixBase.html" target="_top" xlink:title=" ">
<polygon fill="white" stroke="black" points="11,-68.5 11,-98.5 130,-98.5 130,-68.5 11,-68.5"/>
<text text-anchor="start" x="19" y="-86.5" font-family="Helvetica,sans-Serif" font-size="10.00">MGMatrixBase&lt; Vector</text>
<text text-anchor="middle" x="70.5" y="-75.5" font-family="Helvetica,sans-Serif" font-size="10.00">&lt; double &gt; &gt;</text>
</a>
</g>
</g>
<!-- Node1&#45;&gt;Node3 -->
<g id="edge2" class="edge">
<title>Node1&#45;&gt;Node3</title>
<path fill="none" stroke="orange" stroke-dasharray="5,2" d="M104.26,-141.86C97.72,-138.15 91.4,-133.56 86.5,-128 79.27,-119.79 75.2,-108.02 72.98,-98.8"/>
<polygon fill="orange" stroke="orange" points="102.7,-144.99 113.2,-146.39 105.87,-138.74 102.7,-144.99"/>
<text text-anchor="middle" x="135" y="-120" font-family="Helvetica,sans-Serif" font-size="10.00"> &lt; Vector&lt; double &gt; &gt;</text>
</g>
<!-- Node5 -->
<g id="node5" class="node">
<title>Node5</title>
<g id="a_node5"><a xlink:href="classMGMatrixBase.html" target="_top" xlink:title=" ">
<polygon fill="white" stroke="black" points="153,-68.5 153,-98.5 272,-98.5 272,-68.5 153,-68.5"/>
<text text-anchor="start" x="161" y="-86.5" font-family="Helvetica,sans-Serif" font-size="10.00">MGMatrixBase&lt; Vector</text>
<text text-anchor="middle" x="212.5" y="-75.5" font-family="Helvetica,sans-Serif" font-size="10.00">&lt; number &gt; &gt;</text>
</a>
</g>
</g>
<!-- Node1&#45;&gt;Node5 -->
<g id="edge4" class="edge">
<title>Node1&#45;&gt;Node5</title>
<path fill="none" stroke="orange" stroke-dasharray="5,2" d="M165.75,-141.29C171.97,-137.47 178.27,-132.98 183.5,-128 192.43,-119.48 200.06,-107.74 205.25,-98.6"/>
<polygon fill="orange" stroke="orange" points="163.79,-138.38 156.85,-146.39 167.27,-144.46 163.79,-138.38"/>
<text text-anchor="middle" x="242.5" y="-120" font-family="Helvetica,sans-Serif" font-size="10.00"> &lt; Vector&lt; number &gt; &gt;</text>
</g>
<!-- Node2 -->
<g id="node2" class="node">
<title>Node2</title>
<g id="a_node2"><a xlink:href="classSubscriptor.html" target="_top" xlink:title=" ">
<polygon fill="white" stroke="black" points="105.5,-203.5 105.5,-222.5 171.5,-222.5 171.5,-203.5 105.5,-203.5"/>
<text text-anchor="middle" x="138.5" y="-210.5" font-family="Helvetica,sans-Serif" font-size="10.00">Subscriptor</text>
</a>
</g>
</g>
<!-- Node2&#45;&gt;Node1 -->
<g id="edge1" class="edge">
<title>Node2&#45;&gt;Node1</title>
<path fill="none" stroke="midnightblue" d="M138.5,-193.12C138.5,-183.82 138.5,-173.06 138.5,-165.71"/>
<polygon fill="midnightblue" stroke="midnightblue" points="135,-193.41 138.5,-203.41 142,-193.41 135,-193.41"/>
</g>
<!-- Node4 -->
<g id="node4" class="node">
<title>Node4</title>
<g id="a_node4"><a xlink:href="classmg_1_1Matrix.html" target="_top" xlink:title=" ">
<polygon fill="white" stroke="black" points="0,-6 0,-25 131,-25 131,-6 0,-6"/>
<text text-anchor="middle" x="65.5" y="-13" font-family="Helvetica,sans-Serif" font-size="10.00">mg::Matrix&lt; VectorType &gt;</text>
</a>
</g>
</g>
<!-- Node3&#45;&gt;Node4 -->
<g id="edge3" class="edge">
<title>Node3&#45;&gt;Node4</title>
<path fill="none" stroke="midnightblue" d="M68.63,-57.88C67.77,-46.47 66.8,-33.64 66.17,-25.33"/>
<polygon fill="midnightblue" stroke="midnightblue" points="65.17,-58.47 69.42,-68.18 72.15,-57.94 65.17,-58.47"/>
</g>
<!-- Node6 -->
<g id="node6" class="node">
<title>Node6</title>
<g id="a_node6"><a xlink:href="classMGMatrixSelect.html" target="_top" xlink:title=" ">
<polygon fill="white" stroke="black" points="149,-0.5 149,-30.5 296,-30.5 296,-0.5 149,-0.5"/>
<text text-anchor="start" x="157" y="-18.5" font-family="Helvetica,sans-Serif" font-size="10.00">MGMatrixSelect&lt; MatrixType,</text>
<text text-anchor="middle" x="222.5" y="-7.5" font-family="Helvetica,sans-Serif" font-size="10.00"> number &gt;</text>
</a>
</g>
</g>
<!-- Node5&#45;&gt;Node6 -->
<g id="edge5" class="edge">
<title>Node5&#45;&gt;Node6</title>
<path fill="none" stroke="midnightblue" d="M216.21,-58.03C217.6,-48.86 219.13,-38.74 220.33,-30.79"/>
<polygon fill="midnightblue" stroke="midnightblue" points="212.71,-57.77 214.67,-68.18 219.63,-58.82 212.71,-57.77"/>
</g>
</g>
</svg>
