<?xml version="1.0" encoding="UTF-8" standalone="no"?>
<!DOCTYPE svg PUBLIC "-//W3C//DTD SVG 1.1//EN"
 "http://www.w3.org/Graphics/SVG/1.1/DTD/svg11.dtd">
<!-- Generated by graphviz version 2.47.1 (20210417.1919)
 -->
<!-- Title: FEFaceValuesBase&lt; dim, spacedim &gt; Pages: 1 -->
<svg width="297pt" height="466pt"
 viewBox="0.00 0.00 297.00 466.00" xmlns="http://www.w3.org/2000/svg" xmlns:xlink="http://www.w3.org/1999/xlink">
<g id="graph0" class="graph" transform="scale(1 1) rotate(0) translate(4 462)">
<title>FEFaceValuesBase&lt; dim, spacedim &gt;</title>
<polygon fill="white" stroke="transparent" points="-4,4 -4,-462 293,-462 293,4 -4,4"/>
<!-- Node1 -->
<g id="node1" class="node">
<title>Node1</title>
<g id="a_node1"><a xlink:title=" ">
<polygon fill="#bfbfbf" stroke="black" points="72.5,-224.5 72.5,-254.5 203.5,-254.5 203.5,-224.5 72.5,-224.5"/>
<text text-anchor="start" x="80.5" y="-242.5" font-family="Helvetica,sans-Serif" font-size="10.00">FEFaceValuesBase&lt; dim,</text>
<text text-anchor="middle" x="138" y="-231.5" font-family="Helvetica,sans-Serif" font-size="10.00"> spacedim &gt;</text>
</a>
</g>
</g>
<!-- Node5 -->
<g id="node5" class="node">
<title>Node5</title>
<g id="a_node5"><a xlink:href="classFEFaceValues.html" target="_top" xlink:title=" ">
<polygon fill="white" stroke="black" points="0,-0.5 0,-30.5 108,-30.5 108,-0.5 0,-0.5"/>
<text text-anchor="start" x="8" y="-18.5" font-family="Helvetica,sans-Serif" font-size="10.00">FEFaceValues&lt; dim,</text>
<text text-anchor="middle" x="54" y="-7.5" font-family="Helvetica,sans-Serif" font-size="10.00"> dim &gt;</text>
</a>
</g>
</g>
<!-- Node1&#45;&gt;Node5 -->
<g id="edge5" class="edge">
<title>Node1&#45;&gt;Node5</title>
<path fill="none" stroke="midnightblue" d="M104.97,-218.95C71.81,-197.06 23.11,-158.13 5,-109 0.24,-96.07 0.45,-91.01 5,-78 11.49,-59.44 26.18,-42.3 37.8,-30.86"/>
<polygon fill="midnightblue" stroke="midnightblue" points="103.15,-221.94 113.46,-224.41 106.94,-216.05 103.15,-221.94"/>
</g>
<!-- Node6 -->
<g id="node6" class="node">
<title>Node6</title>
<g id="a_node6"><a xlink:href="classFESubfaceValues.html" target="_top" xlink:title=" ">
<polygon fill="white" stroke="black" points="167,-0.5 167,-30.5 289,-30.5 289,-0.5 167,-0.5"/>
<text text-anchor="start" x="175" y="-18.5" font-family="Helvetica,sans-Serif" font-size="10.00">FESubfaceValues&lt; dim,</text>
<text text-anchor="middle" x="228" y="-7.5" font-family="Helvetica,sans-Serif" font-size="10.00"> dim &gt;</text>
</a>
</g>
</g>
<!-- Node1&#45;&gt;Node6 -->
<g id="edge6" class="edge">
<title>Node1&#45;&gt;Node6</title>
<path fill="none" stroke="midnightblue" d="M181.78,-219.35C188.57,-215.44 195.23,-210.97 201,-206 241.28,-171.31 252.1,-158.69 271,-109 280.51,-83.99 288.54,-72.64 276,-49 272.04,-41.53 265.51,-35.47 258.52,-30.69"/>
<polygon fill="midnightblue" stroke="midnightblue" points="179.67,-216.52 172.53,-224.34 182.99,-222.68 179.67,-216.52"/>
</g>
<!-- Node7 -->
<g id="node7" class="node">
<title>Node7</title>
<g id="a_node7"><a xlink:href="classFEFaceValuesBase.html" target="_top" xlink:title=" ">
<polygon fill="white" stroke="black" points="72.5,-146.5 72.5,-176.5 203.5,-176.5 203.5,-146.5 72.5,-146.5"/>
<text text-anchor="start" x="80.5" y="-164.5" font-family="Helvetica,sans-Serif" font-size="10.00">FEFaceValuesBase&lt; dim,</text>
<text text-anchor="middle" x="138" y="-153.5" font-family="Helvetica,sans-Serif" font-size="10.00"> dim &gt;</text>
</a>
</g>
</g>
<!-- Node1&#45;&gt;Node7 -->
<g id="edge7" class="edge">
<title>Node1&#45;&gt;Node7</title>
<path fill="none" stroke="orange" stroke-dasharray="5,2" d="M138,-214.09C138,-201.76 138,-187.22 138,-176.73"/>
<polygon fill="orange" stroke="orange" points="134.5,-214.2 138,-224.2 141.5,-214.21 134.5,-214.2"/>
<text text-anchor="middle" x="167.5" y="-198" font-family="Helvetica,sans-Serif" font-size="10.00"> &lt; dim, dim &gt;</text>
</g>
<!-- Node2 -->
<g id="node2" class="node">
<title>Node2</title>
<g id="a_node2"><a xlink:href="classFEValuesBase.html" target="_top" xlink:title=" ">
<polygon fill="white" stroke="black" points="83.5,-292.5 83.5,-322.5 192.5,-322.5 192.5,-292.5 83.5,-292.5"/>
<text text-anchor="start" x="91.5" y="-310.5" font-family="Helvetica,sans-Serif" font-size="10.00">FEValuesBase&lt; dim,</text>
<text text-anchor="middle" x="138" y="-299.5" font-family="Helvetica,sans-Serif" font-size="10.00"> dim &gt;</text>
</a>
</g>
</g>
<!-- Node2&#45;&gt;Node1 -->
<g id="edge1" class="edge">
<title>Node2&#45;&gt;Node1</title>
<path fill="none" stroke="midnightblue" d="M138,-282.03C138,-272.86 138,-262.74 138,-254.79"/>
<polygon fill="midnightblue" stroke="midnightblue" points="134.5,-282.18 138,-292.18 141.5,-282.18 134.5,-282.18"/>
</g>
<!-- Node3 -->
<g id="node3" class="node">
<title>Node3</title>
<g id="a_node3"><a xlink:href="classSubscriptor.html" target="_top" xlink:title=" ">
<polygon fill="white" stroke="black" points="101,-438.5 101,-457.5 167,-457.5 167,-438.5 101,-438.5"/>
<text text-anchor="middle" x="134" y="-445.5" font-family="Helvetica,sans-Serif" font-size="10.00">Subscriptor</text>
</a>
</g>
</g>
<!-- Node3&#45;&gt;Node2 -->
<g id="edge2" class="edge">
<title>Node3&#45;&gt;Node2</title>
<path fill="none" stroke="midnightblue" d="M134.54,-428.25C135.35,-400.19 136.86,-347.88 137.59,-322.73"/>
<polygon fill="midnightblue" stroke="midnightblue" points="131.04,-428.24 134.25,-438.34 138.04,-428.44 131.04,-428.24"/>
</g>
<!-- Node4 -->
<g id="node4" class="node">
<title>Node4</title>
<g id="a_node4"><a xlink:href="classFEValuesBase.html" target="_top" xlink:title=" ">
<polygon fill="white" stroke="black" points="150.5,-370.5 150.5,-400.5 259.5,-400.5 259.5,-370.5 150.5,-370.5"/>
<text text-anchor="start" x="158.5" y="-388.5" font-family="Helvetica,sans-Serif" font-size="10.00">FEValuesBase&lt; dim,</text>
<text text-anchor="middle" x="205" y="-377.5" font-family="Helvetica,sans-Serif" font-size="10.00"> spacedim &gt;</text>
</a>
</g>
</g>
<!-- Node3&#45;&gt;Node4 -->
<g id="edge4" class="edge">
<title>Node3&#45;&gt;Node4</title>
<path fill="none" stroke="midnightblue" d="M152.05,-431.62C163.28,-422.05 177.62,-409.83 188.54,-400.53"/>
<polygon fill="midnightblue" stroke="midnightblue" points="149.51,-429.18 144.17,-438.33 154.05,-434.51 149.51,-429.18"/>
</g>
<!-- Node4&#45;&gt;Node2 -->
<g id="edge3" class="edge">
<title>Node4&#45;&gt;Node2</title>
<path fill="none" stroke="orange" stroke-dasharray="5,2" d="M185.76,-362.67C174.44,-349.83 160.45,-333.97 150.55,-322.73"/>
<polygon fill="orange" stroke="orange" points="183.16,-365.02 192.4,-370.2 188.41,-360.39 183.16,-365.02"/>
<text text-anchor="middle" x="204.5" y="-344" font-family="Helvetica,sans-Serif" font-size="10.00"> &lt; dim, dim &gt;</text>
</g>
<!-- Node8 -->
<g id="node8" class="node">
<title>Node8</title>
<g id="a_node8"><a xlink:href="classFEFaceValues.html" target="_top" xlink:title=" ">
<polygon fill="white" stroke="black" points="14,-78.5 14,-108.5 122,-108.5 122,-78.5 14,-78.5"/>
<text text-anchor="start" x="22" y="-96.5" font-family="Helvetica,sans-Serif" font-size="10.00">FEFaceValues&lt; dim,</text>
<text text-anchor="middle" x="68" y="-85.5" font-family="Helvetica,sans-Serif" font-size="10.00"> spacedim &gt;</text>
</a>
</g>
</g>
<!-- Node7&#45;&gt;Node8 -->
<g id="edge8" class="edge">
<title>Node7&#45;&gt;Node8</title>
<path fill="none" stroke="midnightblue" d="M115.49,-139.28C104.92,-129.31 92.6,-117.7 83.16,-108.79"/>
<polygon fill="midnightblue" stroke="midnightblue" points="113.13,-141.87 122.81,-146.18 117.94,-136.77 113.13,-141.87"/>
</g>
<!-- Node9 -->
<g id="node9" class="node">
<title>Node9</title>
<g id="a_node9"><a xlink:href="classFESubfaceValues.html" target="_top" xlink:title=" ">
<polygon fill="white" stroke="black" points="140,-78.5 140,-108.5 262,-108.5 262,-78.5 140,-78.5"/>
<text text-anchor="start" x="148" y="-96.5" font-family="Helvetica,sans-Serif" font-size="10.00">FESubfaceValues&lt; dim,</text>
<text text-anchor="middle" x="201" y="-85.5" font-family="Helvetica,sans-Serif" font-size="10.00"> spacedim &gt;</text>
</a>
</g>
</g>
<!-- Node7&#45;&gt;Node9 -->
<g id="edge10" class="edge">
<title>Node7&#45;&gt;Node9</title>
<path fill="none" stroke="midnightblue" d="M158.81,-138.69C168.2,-128.86 179.02,-117.52 187.36,-108.79"/>
<polygon fill="midnightblue" stroke="midnightblue" points="156.04,-136.53 151.67,-146.18 161.11,-141.36 156.04,-136.53"/>
</g>
<!-- Node8&#45;&gt;Node5 -->
<g id="edge9" class="edge">
<title>Node8&#45;&gt;Node5</title>
<path fill="none" stroke="orange" stroke-dasharray="5,2" d="M63.5,-68.09C61.23,-55.76 58.55,-41.22 56.62,-30.73"/>
<polygon fill="orange" stroke="orange" points="60.11,-69 65.37,-78.2 67,-67.74 60.11,-69"/>
<text text-anchor="middle" x="91.5" y="-52" font-family="Helvetica,sans-Serif" font-size="10.00"> &lt; dim, dim &gt;</text>
</g>
<!-- Node9&#45;&gt;Node6 -->
<g id="edge11" class="edge">
<title>Node9&#45;&gt;Node6</title>
<path fill="none" stroke="orange" stroke-dasharray="5,2" d="M209.54,-68.46C213.95,-56.05 219.18,-41.33 222.94,-30.73"/>
<polygon fill="orange" stroke="orange" points="206.13,-67.61 206.08,-78.2 212.72,-69.95 206.13,-67.61"/>
<text text-anchor="middle" x="245.5" y="-52" font-family="Helvetica,sans-Serif" font-size="10.00"> &lt; dim, dim &gt;</text>
</g>
</g>
</svg>
