<?xml version="1.0" encoding="UTF-8" standalone="no"?>
<!DOCTYPE svg PUBLIC "-//W3C//DTD SVG 1.1//EN"
 "http://www.w3.org/Graphics/SVG/1.1/DTD/svg11.dtd">
<!-- Generated by graphviz version 2.47.1 (20210417.1919)
 -->
<!-- Title: Functions::SlitHyperSingularityFunction Pages: 1 -->
<svg width="923pt" height="93pt"
 viewBox="0.00 0.00 923.00 93.00" xmlns="http://www.w3.org/2000/svg" xmlns:xlink="http://www.w3.org/1999/xlink">
<g id="graph0" class="graph" transform="scale(1 1) rotate(0) translate(4 89)">
<title>Functions::SlitHyperSingularityFunction</title>
<polygon fill="white" stroke="transparent" points="-4,4 -4,-89 919,-89 919,4 -4,4"/>
<!-- Node1 -->
<g id="node1" class="node">
<title>Node1</title>
<g id="a_node1"><a xlink:title=" ">
<polygon fill="#bfbfbf" stroke="black" points="763,-32 763,-62 915,-62 915,-32 763,-32"/>
<text text-anchor="start" x="771" y="-50" font-family="Helvetica,sans-Serif" font-size="10.00">Functions::SlitHyperSingularity</text>
<text text-anchor="middle" x="839" y="-39" font-family="Helvetica,sans-Serif" font-size="10.00">Function</text>
</a>
</g>
</g>
<!-- Node2 -->
<g id="node2" class="node">
<title>Node2</title>
<g id="a_node2"><a xlink:href="classFunction.html" target="_top" xlink:title=" ">
<polygon fill="white" stroke="black" points="649,-37.5 649,-56.5 726,-56.5 726,-37.5 649,-37.5"/>
<text text-anchor="middle" x="687.5" y="-44.5" font-family="Helvetica,sans-Serif" font-size="10.00">Function&lt; 2 &gt;</text>
</a>
</g>
</g>
<!-- Node2&#45;&gt;Node1 -->
<g id="edge1" class="edge">
<title>Node2&#45;&gt;Node1</title>
<path fill="none" stroke="midnightblue" d="M736.32,-47C744.84,-47 753.9,-47 762.96,-47"/>
<polygon fill="midnightblue" stroke="midnightblue" points="736.23,-43.5 726.23,-47 736.23,-50.5 736.23,-43.5"/>
</g>
<!-- Node3 -->
<g id="node3" class="node">
<title>Node3</title>
<g id="a_node3"><a xlink:href="classFunctionTime.html" target="_top" xlink:title=" ">
<polygon fill="white" stroke="black" points="279,-0.5 279,-41.5 401,-41.5 401,-0.5 279,-0.5"/>
<text text-anchor="start" x="287" y="-29.5" font-family="Helvetica,sans-Serif" font-size="10.00">FunctionTime&lt; numbers</text>
<text text-anchor="start" x="287" y="-18.5" font-family="Helvetica,sans-Serif" font-size="10.00">::NumberTraits&lt; double</text>
<text text-anchor="middle" x="340" y="-7.5" font-family="Helvetica,sans-Serif" font-size="10.00"> &gt;::real_type &gt;</text>
</a>
</g>
</g>
<!-- Node3&#45;&gt;Node2 -->
<g id="edge2" class="edge">
<title>Node3&#45;&gt;Node2</title>
<path fill="none" stroke="midnightblue" d="M411.37,-16.84C460.49,-15.02 527.48,-14.71 586,-22 609.91,-24.98 636.32,-31.69 656.07,-37.41"/>
<polygon fill="midnightblue" stroke="midnightblue" points="411.02,-13.35 401.16,-17.25 411.3,-20.35 411.02,-13.35"/>
</g>
<!-- Node6 -->
<g id="node6" class="node">
<title>Node6</title>
<g id="a_node6"><a xlink:href="classFunction.html" target="_top" xlink:title=" ">
<polygon fill="white" stroke="black" points="438,-32 438,-62 586,-62 586,-32 438,-32"/>
<text text-anchor="start" x="446" y="-50" font-family="Helvetica,sans-Serif" font-size="10.00">Function&lt; dim, RangeNumber</text>
<text text-anchor="middle" x="512" y="-39" font-family="Helvetica,sans-Serif" font-size="10.00">Type &gt;</text>
</a>
</g>
</g>
<!-- Node3&#45;&gt;Node6 -->
<g id="edge6" class="edge">
<title>Node3&#45;&gt;Node6</title>
<path fill="none" stroke="midnightblue" d="M411.54,-31.79C420.27,-33.12 429.21,-34.49 437.97,-35.83"/>
<polygon fill="midnightblue" stroke="midnightblue" points="411.83,-28.29 401.41,-30.24 410.77,-35.21 411.83,-28.29"/>
</g>
<!-- Node4 -->
<g id="node4" class="node">
<title>Node4</title>
<g id="a_node4"><a xlink:href="classFunctionTime.html" target="_top" xlink:title=" ">
<polygon fill="white" stroke="black" points="0,-11.5 0,-30.5 128,-30.5 128,-11.5 0,-11.5"/>
<text text-anchor="middle" x="64" y="-18.5" font-family="Helvetica,sans-Serif" font-size="10.00">FunctionTime&lt; Number &gt;</text>
</a>
</g>
</g>
<!-- Node4&#45;&gt;Node3 -->
<g id="edge3" class="edge">
<title>Node4&#45;&gt;Node3</title>
<path fill="none" stroke="orange" stroke-dasharray="5,2" d="M138.27,-21C182.26,-21 237.53,-21 278.93,-21"/>
<polygon fill="orange" stroke="orange" points="138.21,-17.5 128.21,-21 138.21,-24.5 138.21,-17.5"/>
<text text-anchor="start" x="146" y="-35" font-family="Helvetica,sans-Serif" font-size="10.00"> &lt; numbers::NumberTraits</text>
<text text-anchor="middle" x="203.5" y="-24" font-family="Helvetica,sans-Serif" font-size="10.00">&lt; double &gt;::real_type &gt;</text>
</g>
<!-- Node5 -->
<g id="node5" class="node">
<title>Node5</title>
<g id="a_node5"><a xlink:href="classSubscriptor.html" target="_top" xlink:title=" ">
<polygon fill="white" stroke="black" points="307,-65.5 307,-84.5 373,-84.5 373,-65.5 307,-65.5"/>
<text text-anchor="middle" x="340" y="-72.5" font-family="Helvetica,sans-Serif" font-size="10.00">Subscriptor</text>
</a>
</g>
</g>
<!-- Node5&#45;&gt;Node2 -->
<g id="edge4" class="edge">
<title>Node5&#45;&gt;Node2</title>
<path fill="none" stroke="midnightblue" d="M383.51,-76.29C395.02,-76.58 407.49,-76.85 419,-77 513.45,-78.21 539.04,-83.6 631,-62 638,-60.36 645.45,-58.45 652.54,-56.56"/>
<polygon fill="midnightblue" stroke="midnightblue" points="383.34,-72.78 373.25,-76.01 383.16,-79.78 383.34,-72.78"/>
</g>
<!-- Node5&#45;&gt;Node6 -->
<g id="edge7" class="edge">
<title>Node5&#45;&gt;Node6</title>
<path fill="none" stroke="midnightblue" d="M383.26,-68.04C399.78,-65.32 419.22,-62.12 437.89,-59.04"/>
<polygon fill="midnightblue" stroke="midnightblue" points="382.67,-64.59 373.38,-69.67 383.81,-71.5 382.67,-64.59"/>
</g>
<!-- Node6&#45;&gt;Node2 -->
<g id="edge5" class="edge">
<title>Node6&#45;&gt;Node2</title>
<path fill="none" stroke="orange" stroke-dasharray="5,2" d="M596.3,-47C614.78,-47 633.46,-47 649,-47"/>
<polygon fill="orange" stroke="orange" points="596.08,-43.5 586.08,-47 596.08,-50.5 596.08,-43.5"/>
<text text-anchor="middle" x="617.5" y="-50" font-family="Helvetica,sans-Serif" font-size="10.00"> &lt; 2 &gt;</text>
</g>
</g>
</svg>
