<?xml version="1.0" encoding="UTF-8" standalone="no"?>
<!DOCTYPE svg PUBLIC "-//W3C//DTD SVG 1.1//EN"
 "http://www.w3.org/Graphics/SVG/1.1/DTD/svg11.dtd">
<!-- Generated by graphviz version 2.47.1 (20210417.1919)
 -->
<!-- Title: TimeStepping::TimeStepping&lt; VectorType &gt; Pages: 1 -->
<svg width="518pt" height="186pt"
 viewBox="0.00 0.00 518.00 186.00" xmlns="http://www.w3.org/2000/svg" xmlns:xlink="http://www.w3.org/1999/xlink">
<g id="graph0" class="graph" transform="scale(1 1) rotate(0) translate(4 182)">
<title>TimeStepping::TimeStepping&lt; VectorType &gt;</title>
<polygon fill="white" stroke="transparent" points="-4,4 -4,-182 514,-182 514,4 -4,4"/>
<!-- Node1 -->
<g id="node1" class="node">
<title>Node1</title>
<g id="a_node1"><a xlink:title=" ">
<polygon fill="#bfbfbf" stroke="black" points="0,-73.5 0,-103.5 143,-103.5 143,-73.5 0,-73.5"/>
<text text-anchor="start" x="8" y="-91.5" font-family="Helvetica,sans-Serif" font-size="10.00">TimeStepping::TimeStepping</text>
<text text-anchor="middle" x="71.5" y="-80.5" font-family="Helvetica,sans-Serif" font-size="10.00">&lt; VectorType &gt;</text>
</a>
</g>
</g>
<!-- Node2 -->
<g id="node2" class="node">
<title>Node2</title>
<g id="a_node2"><a xlink:href="classTimeStepping_1_1RungeKutta.html" target="_top" xlink:title=" ">
<polygon fill="white" stroke="black" points="179,-73.5 179,-103.5 313,-103.5 313,-73.5 179,-73.5"/>
<text text-anchor="start" x="187" y="-91.5" font-family="Helvetica,sans-Serif" font-size="10.00">TimeStepping::RungeKutta</text>
<text text-anchor="middle" x="246" y="-80.5" font-family="Helvetica,sans-Serif" font-size="10.00">&lt; VectorType &gt;</text>
</a>
</g>
</g>
<!-- Node1&#45;&gt;Node2 -->
<g id="edge1" class="edge">
<title>Node1&#45;&gt;Node2</title>
<path fill="none" stroke="midnightblue" d="M153.21,-88.5C161.81,-88.5 170.49,-88.5 178.89,-88.5"/>
<polygon fill="midnightblue" stroke="midnightblue" points="153.16,-85 143.16,-88.5 153.16,-92 153.16,-85"/>
</g>
<!-- Node3 -->
<g id="node3" class="node">
<title>Node3</title>
<g id="a_node3"><a xlink:href="classTimeStepping_1_1EmbeddedExplicitRungeKutta.html" target="_top" xlink:title=" ">
<polygon fill="white" stroke="black" points="349,-147.5 349,-177.5 510,-177.5 510,-147.5 349,-147.5"/>
<text text-anchor="start" x="357" y="-165.5" font-family="Helvetica,sans-Serif" font-size="10.00">TimeStepping::EmbeddedExplicit</text>
<text text-anchor="middle" x="429.5" y="-154.5" font-family="Helvetica,sans-Serif" font-size="10.00">RungeKutta&lt; VectorType &gt;</text>
</a>
</g>
</g>
<!-- Node2&#45;&gt;Node3 -->
<g id="edge2" class="edge">
<title>Node2&#45;&gt;Node3</title>
<path fill="none" stroke="midnightblue" d="M283.57,-108.22C302.72,-118.09 326.76,-129.76 349,-138.5 357.05,-141.66 365.69,-144.66 374.21,-147.4"/>
<polygon fill="midnightblue" stroke="midnightblue" points="285.08,-105.06 274.59,-103.55 281.84,-111.27 285.08,-105.06"/>
</g>
<!-- Node4 -->
<g id="node4" class="node">
<title>Node4</title>
<g id="a_node4"><a xlink:href="classTimeStepping_1_1ExplicitRungeKutta.html" target="_top" xlink:title=" ">
<polygon fill="white" stroke="black" points="358,-98.5 358,-128.5 501,-128.5 501,-98.5 358,-98.5"/>
<text text-anchor="start" x="366" y="-116.5" font-family="Helvetica,sans-Serif" font-size="10.00">TimeStepping::ExplicitRunge</text>
<text text-anchor="middle" x="429.5" y="-105.5" font-family="Helvetica,sans-Serif" font-size="10.00">Kutta&lt; VectorType &gt;</text>
</a>
</g>
</g>
<!-- Node2&#45;&gt;Node4 -->
<g id="edge3" class="edge">
<title>Node2&#45;&gt;Node4</title>
<path fill="none" stroke="midnightblue" d="M323.08,-98.98C334.63,-100.57 346.5,-102.21 357.92,-103.78"/>
<polygon fill="midnightblue" stroke="midnightblue" points="323.42,-95.49 313.04,-97.6 322.47,-102.43 323.42,-95.49"/>
</g>
<!-- Node5 -->
<g id="node5" class="node">
<title>Node5</title>
<g id="a_node5"><a xlink:href="classTimeStepping_1_1ImplicitRungeKutta.html" target="_top" xlink:title=" ">
<polygon fill="white" stroke="black" points="358,-49.5 358,-79.5 501,-79.5 501,-49.5 358,-49.5"/>
<text text-anchor="start" x="366" y="-67.5" font-family="Helvetica,sans-Serif" font-size="10.00">TimeStepping::ImplicitRunge</text>
<text text-anchor="middle" x="429.5" y="-56.5" font-family="Helvetica,sans-Serif" font-size="10.00">Kutta&lt; VectorType &gt;</text>
</a>
</g>
</g>
<!-- Node2&#45;&gt;Node5 -->
<g id="edge4" class="edge">
<title>Node2&#45;&gt;Node5</title>
<path fill="none" stroke="midnightblue" d="M323.08,-78.44C334.63,-76.91 346.5,-75.34 357.92,-73.83"/>
<polygon fill="midnightblue" stroke="midnightblue" points="322.49,-74.99 313.04,-79.77 323.41,-81.93 322.49,-74.99"/>
</g>
<!-- Node6 -->
<g id="node6" class="node">
<title>Node6</title>
<g id="a_node6"><a xlink:href="classTimeStepping_1_1LowStorageRungeKutta.html" target="_top" xlink:title=" ">
<polygon fill="white" stroke="black" points="361.5,-0.5 361.5,-30.5 497.5,-30.5 497.5,-0.5 361.5,-0.5"/>
<text text-anchor="start" x="369.5" y="-18.5" font-family="Helvetica,sans-Serif" font-size="10.00">TimeStepping::LowStorage</text>
<text text-anchor="middle" x="429.5" y="-7.5" font-family="Helvetica,sans-Serif" font-size="10.00">RungeKutta&lt; VectorType &gt;</text>
</a>
</g>
</g>
<!-- Node2&#45;&gt;Node6 -->
<g id="edge5" class="edge">
<title>Node2&#45;&gt;Node6</title>
<path fill="none" stroke="midnightblue" d="M285.6,-68.83C304.45,-59.61 327.63,-48.84 349,-40.5 357.9,-37.03 367.49,-33.68 376.83,-30.63"/>
<polygon fill="midnightblue" stroke="midnightblue" points="283.86,-65.78 276.44,-73.35 286.96,-72.06 283.86,-65.78"/>
</g>
</g>
</svg>
