<?xml version="1.0" encoding="UTF-8" standalone="no"?>
<!DOCTYPE svg PUBLIC "-//W3C//DTD SVG 1.1//EN"
 "http://www.w3.org/Graphics/SVG/1.1/DTD/svg11.dtd">
<!-- Generated by graphviz version 2.47.1 (20210417.1919)
 -->
<!-- Title: ArrayView&lt; ElementType, MemorySpaceType &gt; Pages: 1 -->
<svg width="162pt" height="106pt"
 viewBox="0.00 0.00 161.50 106.00" xmlns="http://www.w3.org/2000/svg" xmlns:xlink="http://www.w3.org/1999/xlink">
<g id="graph0" class="graph" transform="scale(1 1) rotate(0) translate(4 102)">
<title>ArrayView&lt; ElementType, MemorySpaceType &gt;</title>
<polygon fill="white" stroke="transparent" points="-4,4 -4,-102 157.5,-102 157.5,4 -4,4"/>
<!-- Node1 -->
<g id="node1" class="node">
<title>Node1</title>
<g id="a_node1"><a xlink:title=" ">
<polygon fill="#bfbfbf" stroke="black" points="5,-67.5 5,-97.5 136,-97.5 136,-67.5 5,-67.5"/>
<text text-anchor="start" x="13" y="-85.5" font-family="Helvetica,sans-Serif" font-size="10.00">ArrayView&lt; ElementType,</text>
<text text-anchor="middle" x="70.5" y="-74.5" font-family="Helvetica,sans-Serif" font-size="10.00"> MemorySpaceType &gt;</text>
</a>
</g>
</g>
<!-- Node2 -->
<g id="node2" class="node">
<title>Node2</title>
<g id="a_node2"><a xlink:href="classArrayView.html" target="_top" xlink:title=" ">
<polygon fill="white" stroke="black" points="0,-0.5 0,-19.5 141,-19.5 141,-0.5 0,-0.5"/>
<text text-anchor="middle" x="70.5" y="-7.5" font-family="Helvetica,sans-Serif" font-size="10.00">ArrayView&lt; const Number &gt;</text>
</a>
</g>
</g>
<!-- Node1&#45;&gt;Node2 -->
<g id="edge1" class="edge">
<title>Node1&#45;&gt;Node2</title>
<path fill="none" stroke="orange" stroke-dasharray="5,2" d="M70.5,-57.09C70.5,-44.21 70.5,-29.2 70.5,-19.89"/>
<polygon fill="orange" stroke="orange" points="67,-57.23 70.5,-67.23 74,-57.23 67,-57.23"/>
<text text-anchor="middle" x="112" y="-41" font-family="Helvetica,sans-Serif" font-size="10.00"> &lt; const Number &gt;</text>
</g>
</g>
</svg>
