<?xml version="1.0" encoding="UTF-8" standalone="no"?>
<!DOCTYPE svg PUBLIC "-//W3C//DTD SVG 1.1//EN"
 "http://www.w3.org/Graphics/SVG/1.1/DTD/svg11.dtd">
<!-- Generated by graphviz version 2.47.1 (20210417.1919)
 -->
<!-- Title: MeshWorker::VectorData&lt; VectorType, dim, spacedim &gt; Pages: 1 -->
<svg width="247pt" height="478pt"
 viewBox="0.00 0.00 247.00 478.00" xmlns="http://www.w3.org/2000/svg" xmlns:xlink="http://www.w3.org/1999/xlink">
<g id="graph0" class="graph" transform="scale(1 1) rotate(0) translate(4 474)">
<title>MeshWorker::VectorData&lt; VectorType, dim, spacedim &gt;</title>
<polygon fill="white" stroke="transparent" points="-4,4 -4,-474 243,-474 243,4 -4,4"/>
<!-- Node1 -->
<g id="node1" class="node">
<title>Node1</title>
<g id="a_node1"><a xlink:title=" ">
<polygon fill="#bfbfbf" stroke="black" points="0,-157.5 0,-187.5 154,-187.5 154,-157.5 0,-157.5"/>
<text text-anchor="start" x="8" y="-175.5" font-family="Helvetica,sans-Serif" font-size="10.00">MeshWorker::VectorData</text>
<text text-anchor="middle" x="77" y="-164.5" font-family="Helvetica,sans-Serif" font-size="10.00">&lt; VectorType, dim, spacedim &gt;</text>
</a>
</g>
</g>
<!-- Node6 -->
<g id="node6" class="node">
<title>Node6</title>
<g id="a_node6"><a xlink:href="classMeshWorker_1_1VectorData.html" target="_top" xlink:title=" ">
<polygon fill="white" stroke="black" points="13,-68.5 13,-98.5 141,-98.5 141,-68.5 13,-68.5"/>
<text text-anchor="start" x="21" y="-86.5" font-family="Helvetica,sans-Serif" font-size="10.00">MeshWorker::VectorData</text>
<text text-anchor="middle" x="77" y="-75.5" font-family="Helvetica,sans-Serif" font-size="10.00">&lt; VectorType, dim, dim &gt;</text>
</a>
</g>
</g>
<!-- Node1&#45;&gt;Node6 -->
<g id="edge6" class="edge">
<title>Node1&#45;&gt;Node6</title>
<path fill="none" stroke="orange" stroke-dasharray="5,2" d="M77,-147.09C77,-131.44 77,-111.68 77,-98.6"/>
<polygon fill="orange" stroke="orange" points="73.5,-147.13 77,-157.13 80.5,-147.13 73.5,-147.13"/>
<text text-anchor="start" x="77" y="-131" font-family="Helvetica,sans-Serif" font-size="10.00"> &lt; VectorType, dim,</text>
<text text-anchor="middle" x="120.5" y="-120" font-family="Helvetica,sans-Serif" font-size="10.00"> dim &gt;</text>
</g>
<!-- Node2 -->
<g id="node2" class="node">
<title>Node2</title>
<g id="a_node2"><a xlink:href="classMeshWorker_1_1VectorDataBase.html" target="_top" xlink:title=" ">
<polygon fill="white" stroke="black" points="2.5,-225.5 2.5,-266.5 151.5,-266.5 151.5,-225.5 2.5,-225.5"/>
<text text-anchor="start" x="10.5" y="-254.5" font-family="Helvetica,sans-Serif" font-size="10.00">MeshWorker::VectorDataBase</text>
<text text-anchor="start" x="10.5" y="-243.5" font-family="Helvetica,sans-Serif" font-size="10.00">&lt; dim, dim, VectorType::</text>
<text text-anchor="middle" x="77" y="-232.5" font-family="Helvetica,sans-Serif" font-size="10.00">value_type &gt;</text>
</a>
</g>
</g>
<!-- Node2&#45;&gt;Node1 -->
<g id="edge1" class="edge">
<title>Node2&#45;&gt;Node1</title>
<path fill="none" stroke="midnightblue" d="M77,-215.16C77,-205.69 77,-195.65 77,-187.8"/>
<polygon fill="midnightblue" stroke="midnightblue" points="73.5,-215.46 77,-225.46 80.5,-215.46 73.5,-215.46"/>
</g>
<!-- Node3 -->
<g id="node3" class="node">
<title>Node3</title>
<g id="a_node3"><a xlink:href="classMeshWorker_1_1VectorSelector.html" target="_top" xlink:title=" ">
<polygon fill="white" stroke="black" points="2,-393.5 2,-412.5 144,-412.5 144,-393.5 2,-393.5"/>
<text text-anchor="middle" x="73" y="-400.5" font-family="Helvetica,sans-Serif" font-size="10.00">MeshWorker::VectorSelector</text>
</a>
</g>
</g>
<!-- Node3&#45;&gt;Node2 -->
<g id="edge2" class="edge">
<title>Node3&#45;&gt;Node2</title>
<path fill="none" stroke="midnightblue" d="M73.49,-383C74.25,-353.38 75.72,-296.51 76.5,-266.56"/>
<polygon fill="midnightblue" stroke="midnightblue" points="69.99,-383.14 73.23,-393.22 76.98,-383.32 69.99,-383.14"/>
</g>
<!-- Node5 -->
<g id="node5" class="node">
<title>Node5</title>
<g id="a_node5"><a xlink:href="classMeshWorker_1_1VectorDataBase.html" target="_top" xlink:title=" ">
<polygon fill="white" stroke="black" points="89.5,-325.5 89.5,-355.5 238.5,-355.5 238.5,-325.5 89.5,-325.5"/>
<text text-anchor="start" x="97.5" y="-343.5" font-family="Helvetica,sans-Serif" font-size="10.00">MeshWorker::VectorDataBase</text>
<text text-anchor="middle" x="164" y="-332.5" font-family="Helvetica,sans-Serif" font-size="10.00">&lt; dim, spacedim, Number &gt;</text>
</a>
</g>
</g>
<!-- Node3&#45;&gt;Node5 -->
<g id="edge5" class="edge">
<title>Node3&#45;&gt;Node5</title>
<path fill="none" stroke="midnightblue" d="M94.46,-387.73C109.08,-378.01 128.36,-365.2 142.9,-355.53"/>
<polygon fill="midnightblue" stroke="midnightblue" points="92.43,-384.88 86.04,-393.33 96.3,-390.71 92.43,-384.88"/>
</g>
<!-- Node4 -->
<g id="node4" class="node">
<title>Node4</title>
<g id="a_node4"><a xlink:href="classSubscriptor.html" target="_top" xlink:title=" ">
<polygon fill="white" stroke="black" points="40,-450.5 40,-469.5 106,-469.5 106,-450.5 40,-450.5"/>
<text text-anchor="middle" x="73" y="-457.5" font-family="Helvetica,sans-Serif" font-size="10.00">Subscriptor</text>
</a>
</g>
</g>
<!-- Node4&#45;&gt;Node3 -->
<g id="edge3" class="edge">
<title>Node4&#45;&gt;Node3</title>
<path fill="none" stroke="midnightblue" d="M73,-440.12C73,-430.82 73,-420.06 73,-412.71"/>
<polygon fill="midnightblue" stroke="midnightblue" points="69.5,-440.41 73,-450.41 76.5,-440.41 69.5,-440.41"/>
</g>
<!-- Node5&#45;&gt;Node2 -->
<g id="edge4" class="edge">
<title>Node5&#45;&gt;Node2</title>
<path fill="none" stroke="orange" stroke-dasharray="5,2" d="M143.67,-317.88C129.1,-302.4 109.65,-281.71 95.51,-266.68"/>
<polygon fill="orange" stroke="orange" points="141.39,-320.56 150.79,-325.45 146.48,-315.77 141.39,-320.56"/>
<text text-anchor="start" x="133" y="-299" font-family="Helvetica,sans-Serif" font-size="10.00"> &lt; dim, dim, VectorType</text>
<text text-anchor="middle" x="186" y="-288" font-family="Helvetica,sans-Serif" font-size="10.00">::value_type &gt;</text>
</g>
<!-- Node7 -->
<g id="node7" class="node">
<title>Node7</title>
<g id="a_node7"><a xlink:href="classMeshWorker_1_1MGVectorData.html" target="_top" xlink:title=" ">
<polygon fill="white" stroke="black" points="0,-0.5 0,-30.5 154,-30.5 154,-0.5 0,-0.5"/>
<text text-anchor="start" x="8" y="-18.5" font-family="Helvetica,sans-Serif" font-size="10.00">MeshWorker::MGVectorData</text>
<text text-anchor="middle" x="77" y="-7.5" font-family="Helvetica,sans-Serif" font-size="10.00">&lt; VectorType, dim, spacedim &gt;</text>
</a>
</g>
</g>
<!-- Node6&#45;&gt;Node7 -->
<g id="edge7" class="edge">
<title>Node6&#45;&gt;Node7</title>
<path fill="none" stroke="midnightblue" d="M77,-58.03C77,-48.86 77,-38.74 77,-30.79"/>
<polygon fill="midnightblue" stroke="midnightblue" points="73.5,-58.18 77,-68.18 80.5,-58.18 73.5,-58.18"/>
</g>
</g>
</svg>
