<?xml version="1.0" encoding="UTF-8" standalone="no"?>
<!DOCTYPE svg PUBLIC "-//W3C//DTD SVG 1.1//EN"
 "http://www.w3.org/Graphics/SVG/1.1/DTD/svg11.dtd">
<!-- Generated by graphviz version 2.47.1 (20210417.1919)
 -->
<!-- Title: Functions::CutOffFunctionBase&lt; dim &gt; Pages: 1 -->
<svg width="932pt" height="235pt"
 viewBox="0.00 0.00 932.00 235.00" xmlns="http://www.w3.org/2000/svg" xmlns:xlink="http://www.w3.org/1999/xlink">
<g id="graph0" class="graph" transform="scale(1 1) rotate(0) translate(4 231)">
<title>Functions::CutOffFunctionBase&lt; dim &gt;</title>
<polygon fill="white" stroke="transparent" points="-4,4 -4,-231 928,-231 928,4 -4,4"/>
<!-- Node1 -->
<g id="node1" class="node">
<title>Node1</title>
<g id="a_node1"><a xlink:title=" ">
<polygon fill="#bfbfbf" stroke="black" points="623,-98.5 623,-128.5 755,-128.5 755,-98.5 623,-98.5"/>
<text text-anchor="start" x="631" y="-116.5" font-family="Helvetica,sans-Serif" font-size="10.00">Functions::CutOffFunction</text>
<text text-anchor="middle" x="689" y="-105.5" font-family="Helvetica,sans-Serif" font-size="10.00">Base&lt; dim &gt;</text>
</a>
</g>
</g>
<!-- Node6 -->
<g id="node6" class="node">
<title>Node6</title>
<g id="a_node6"><a xlink:href="classFunctions_1_1CutOffFunctionC1.html" target="_top" xlink:title=" ">
<polygon fill="white" stroke="black" points="792,-196.5 792,-226.5 924,-226.5 924,-196.5 792,-196.5"/>
<text text-anchor="start" x="800" y="-214.5" font-family="Helvetica,sans-Serif" font-size="10.00">Functions::CutOffFunction</text>
<text text-anchor="middle" x="858" y="-203.5" font-family="Helvetica,sans-Serif" font-size="10.00">C1&lt; dim &gt;</text>
</a>
</g>
</g>
<!-- Node1&#45;&gt;Node6 -->
<g id="edge5" class="edge">
<title>Node1&#45;&gt;Node6</title>
<path fill="none" stroke="midnightblue" d="M715.74,-135.24C735.61,-151.25 764.31,-172.71 792,-187.5 798.05,-190.73 804.62,-193.71 811.2,-196.4"/>
<polygon fill="midnightblue" stroke="midnightblue" points="717.75,-132.36 707.79,-128.75 713.32,-137.79 717.75,-132.36"/>
</g>
<!-- Node7 -->
<g id="node7" class="node">
<title>Node7</title>
<g id="a_node7"><a xlink:href="classFunctions_1_1CutOffFunctionCinfty.html" target="_top" xlink:title=" ">
<polygon fill="white" stroke="black" points="792,-147.5 792,-177.5 924,-177.5 924,-147.5 792,-147.5"/>
<text text-anchor="start" x="800" y="-165.5" font-family="Helvetica,sans-Serif" font-size="10.00">Functions::CutOffFunction</text>
<text text-anchor="middle" x="858" y="-154.5" font-family="Helvetica,sans-Serif" font-size="10.00">Cinfty&lt; dim &gt;</text>
</a>
</g>
</g>
<!-- Node1&#45;&gt;Node7 -->
<g id="edge6" class="edge">
<title>Node1&#45;&gt;Node7</title>
<path fill="none" stroke="midnightblue" d="M751.23,-131.47C769.13,-136.72 788.49,-142.4 805.7,-147.45"/>
<polygon fill="midnightblue" stroke="midnightblue" points="752.05,-128.06 741.47,-128.6 750.08,-134.78 752.05,-128.06"/>
</g>
<!-- Node8 -->
<g id="node8" class="node">
<title>Node8</title>
<g id="a_node8"><a xlink:href="classFunctions_1_1CutOffFunctionLinfty.html" target="_top" xlink:title=" ">
<polygon fill="white" stroke="black" points="792,-98.5 792,-128.5 924,-128.5 924,-98.5 792,-98.5"/>
<text text-anchor="start" x="800" y="-116.5" font-family="Helvetica,sans-Serif" font-size="10.00">Functions::CutOffFunction</text>
<text text-anchor="middle" x="858" y="-105.5" font-family="Helvetica,sans-Serif" font-size="10.00">Linfty&lt; dim &gt;</text>
</a>
</g>
</g>
<!-- Node1&#45;&gt;Node8 -->
<g id="edge7" class="edge">
<title>Node1&#45;&gt;Node8</title>
<path fill="none" stroke="midnightblue" d="M765.06,-113.5C774,-113.5 783.07,-113.5 791.86,-113.5"/>
<polygon fill="midnightblue" stroke="midnightblue" points="765.04,-110 755.04,-113.5 765.04,-117 765.04,-110"/>
</g>
<!-- Node9 -->
<g id="node9" class="node">
<title>Node9</title>
<g id="a_node9"><a xlink:href="classFunctions_1_1CutOffFunctionTensorProduct.html" target="_top" xlink:title=" ">
<polygon fill="white" stroke="black" points="792,-49.5 792,-79.5 924,-79.5 924,-49.5 792,-49.5"/>
<text text-anchor="start" x="800" y="-67.5" font-family="Helvetica,sans-Serif" font-size="10.00">Functions::CutOffFunction</text>
<text text-anchor="middle" x="858" y="-56.5" font-family="Helvetica,sans-Serif" font-size="10.00">TensorProduct&lt; dim &gt;</text>
</a>
</g>
</g>
<!-- Node1&#45;&gt;Node9 -->
<g id="edge8" class="edge">
<title>Node1&#45;&gt;Node9</title>
<path fill="none" stroke="midnightblue" d="M751.23,-95.53C769.13,-90.28 788.49,-84.6 805.7,-79.55"/>
<polygon fill="midnightblue" stroke="midnightblue" points="750.08,-92.22 741.47,-98.4 752.05,-98.94 750.08,-92.22"/>
</g>
<!-- Node10 -->
<g id="node10" class="node">
<title>Node10</title>
<g id="a_node10"><a xlink:href="classFunctions_1_1CutOffFunctionW1.html" target="_top" xlink:title=" ">
<polygon fill="white" stroke="black" points="792,-0.5 792,-30.5 924,-30.5 924,-0.5 792,-0.5"/>
<text text-anchor="start" x="800" y="-18.5" font-family="Helvetica,sans-Serif" font-size="10.00">Functions::CutOffFunction</text>
<text text-anchor="middle" x="858" y="-7.5" font-family="Helvetica,sans-Serif" font-size="10.00">W1&lt; dim &gt;</text>
</a>
</g>
</g>
<!-- Node1&#45;&gt;Node10 -->
<g id="edge9" class="edge">
<title>Node1&#45;&gt;Node10</title>
<path fill="none" stroke="midnightblue" d="M715.74,-91.76C735.61,-75.75 764.31,-54.29 792,-39.5 798.05,-36.27 804.62,-33.29 811.2,-30.6"/>
<polygon fill="midnightblue" stroke="midnightblue" points="713.32,-89.21 707.79,-98.25 717.75,-94.64 713.32,-89.21"/>
</g>
<!-- Node2 -->
<g id="node2" class="node">
<title>Node2</title>
<g id="a_node2"><a xlink:href="classFunction.html" target="_top" xlink:title=" ">
<polygon fill="white" stroke="black" points="438,-98.5 438,-128.5 586,-128.5 586,-98.5 438,-98.5"/>
<text text-anchor="start" x="446" y="-116.5" font-family="Helvetica,sans-Serif" font-size="10.00">Function&lt; dim, RangeNumber</text>
<text text-anchor="middle" x="512" y="-105.5" font-family="Helvetica,sans-Serif" font-size="10.00">Type &gt;</text>
</a>
</g>
</g>
<!-- Node2&#45;&gt;Node1 -->
<g id="edge1" class="edge">
<title>Node2&#45;&gt;Node1</title>
<path fill="none" stroke="midnightblue" d="M596.26,-113.5C605.2,-113.5 614.2,-113.5 622.89,-113.5"/>
<polygon fill="midnightblue" stroke="midnightblue" points="596.2,-110 586.2,-113.5 596.2,-117 596.2,-110"/>
</g>
<!-- Node3 -->
<g id="node3" class="node">
<title>Node3</title>
<g id="a_node3"><a xlink:href="classFunctionTime.html" target="_top" xlink:title=" ">
<polygon fill="white" stroke="black" points="279,-130 279,-171 401,-171 401,-130 279,-130"/>
<text text-anchor="start" x="287" y="-159" font-family="Helvetica,sans-Serif" font-size="10.00">FunctionTime&lt; numbers</text>
<text text-anchor="start" x="287" y="-148" font-family="Helvetica,sans-Serif" font-size="10.00">::NumberTraits&lt; double</text>
<text text-anchor="middle" x="340" y="-137" font-family="Helvetica,sans-Serif" font-size="10.00"> &gt;::real_type &gt;</text>
</a>
</g>
</g>
<!-- Node3&#45;&gt;Node2 -->
<g id="edge2" class="edge">
<title>Node3&#45;&gt;Node2</title>
<path fill="none" stroke="midnightblue" d="M411.36,-135.19C421.42,-133 431.76,-130.75 441.8,-128.56"/>
<polygon fill="midnightblue" stroke="midnightblue" points="410.44,-131.8 401.41,-137.35 411.93,-138.64 410.44,-131.8"/>
</g>
<!-- Node4 -->
<g id="node4" class="node">
<title>Node4</title>
<g id="a_node4"><a xlink:href="classFunctionTime.html" target="_top" xlink:title=" ">
<polygon fill="white" stroke="black" points="0,-141 0,-160 128,-160 128,-141 0,-141"/>
<text text-anchor="middle" x="64" y="-148" font-family="Helvetica,sans-Serif" font-size="10.00">FunctionTime&lt; Number &gt;</text>
</a>
</g>
</g>
<!-- Node4&#45;&gt;Node3 -->
<g id="edge3" class="edge">
<title>Node4&#45;&gt;Node3</title>
<path fill="none" stroke="orange" stroke-dasharray="5,2" d="M138.27,-150.5C182.26,-150.5 237.53,-150.5 278.93,-150.5"/>
<polygon fill="orange" stroke="orange" points="138.21,-147 128.21,-150.5 138.21,-154 138.21,-147"/>
<text text-anchor="start" x="146" y="-164.5" font-family="Helvetica,sans-Serif" font-size="10.00"> &lt; numbers::NumberTraits</text>
<text text-anchor="middle" x="203.5" y="-153.5" font-family="Helvetica,sans-Serif" font-size="10.00">&lt; double &gt;::real_type &gt;</text>
</g>
<!-- Node5 -->
<g id="node5" class="node">
<title>Node5</title>
<g id="a_node5"><a xlink:href="classSubscriptor.html" target="_top" xlink:title=" ">
<polygon fill="white" stroke="black" points="307,-92 307,-111 373,-111 373,-92 307,-92"/>
<text text-anchor="middle" x="340" y="-99" font-family="Helvetica,sans-Serif" font-size="10.00">Subscriptor</text>
</a>
</g>
</g>
<!-- Node5&#45;&gt;Node2 -->
<g id="edge4" class="edge">
<title>Node5&#45;&gt;Node2</title>
<path fill="none" stroke="midnightblue" d="M383.72,-104.52C400.15,-105.68 419.4,-107.03 437.89,-108.34"/>
<polygon fill="midnightblue" stroke="midnightblue" points="383.6,-101 373.38,-103.79 383.1,-107.98 383.6,-101"/>
</g>
</g>
</svg>
