<?xml version="1.0" encoding="UTF-8" standalone="no"?>
<!DOCTYPE svg PUBLIC "-//W3C//DTD SVG 1.1//EN"
 "http://www.w3.org/Graphics/SVG/1.1/DTD/svg11.dtd">
<!-- Generated by graphviz version 2.47.1 (20210417.1919)
 -->
<!-- Title: RelaxationBlock&lt; MatrixType, InverseNumberType, VectorType &gt; Pages: 1 -->
<svg width="1072pt" height="170pt"
 viewBox="0.00 0.00 1072.00 170.00" xmlns="http://www.w3.org/2000/svg" xmlns:xlink="http://www.w3.org/1999/xlink">
<g id="graph0" class="graph" transform="scale(1 1) rotate(0) translate(4 166)">
<title>RelaxationBlock&lt; MatrixType, InverseNumberType, VectorType &gt;</title>
<polygon fill="white" stroke="transparent" points="-4,4 -4,-166 1068,-166 1068,4 -4,4"/>
<!-- Node1 -->
<g id="node1" class="node">
<title>Node1</title>
<g id="a_node1"><a xlink:title=" ">
<polygon fill="#bfbfbf" stroke="black" points="416,-66 416,-96 588,-96 588,-66 416,-66"/>
<text text-anchor="start" x="424" y="-84" font-family="Helvetica,sans-Serif" font-size="10.00">RelaxationBlock&lt; MatrixType,</text>
<text text-anchor="middle" x="502" y="-73" font-family="Helvetica,sans-Serif" font-size="10.00"> InverseNumberType, VectorType &gt;</text>
</a>
</g>
</g>
<!-- Node4 -->
<g id="node4" class="node">
<title>Node4</title>
<g id="a_node4"><a xlink:href="classRelaxationBlock.html" target="_top" xlink:title=" ">
<polygon fill="white" stroke="black" points="733,-60.5 733,-101.5 881,-101.5 881,-60.5 733,-60.5"/>
<text text-anchor="start" x="741" y="-89.5" font-family="Helvetica,sans-Serif" font-size="10.00">RelaxationBlock&lt; MatrixType,</text>
<text text-anchor="start" x="741" y="-78.5" font-family="Helvetica,sans-Serif" font-size="10.00"> typename MatrixType::value</text>
<text text-anchor="middle" x="807" y="-67.5" font-family="Helvetica,sans-Serif" font-size="10.00">_type, Vector&lt; double &gt; &gt;</text>
</a>
</g>
</g>
<!-- Node1&#45;&gt;Node4 -->
<g id="edge3" class="edge">
<title>Node1&#45;&gt;Node4</title>
<path fill="none" stroke="orange" stroke-dasharray="5,2" d="M598.24,-81C641.78,-81 692.53,-81 732.98,-81"/>
<polygon fill="orange" stroke="orange" points="598.21,-77.5 588.21,-81 598.21,-84.5 598.21,-77.5"/>
<text text-anchor="start" x="606" y="-106" font-family="Helvetica,sans-Serif" font-size="10.00"> &lt; MatrixType, typename</text>
<text text-anchor="start" x="606" y="-95" font-family="Helvetica,sans-Serif" font-size="10.00"> MatrixType::value_type,</text>
<text text-anchor="middle" x="660.5" y="-84" font-family="Helvetica,sans-Serif" font-size="10.00"> Vector&lt; double &gt; &gt;</text>
</g>
<!-- Node2 -->
<g id="node2" class="node">
<title>Node2</title>
<g id="a_node2"><a xlink:href="classPreconditionBlockBase.html" target="_top" xlink:title=" ">
<polygon fill="white" stroke="black" points="260,-60.5 260,-101.5 379,-101.5 379,-60.5 260,-60.5"/>
<text text-anchor="start" x="268" y="-89.5" font-family="Helvetica,sans-Serif" font-size="10.00">PreconditionBlockBase</text>
<text text-anchor="start" x="268" y="-78.5" font-family="Helvetica,sans-Serif" font-size="10.00">&lt; typename MatrixType</text>
<text text-anchor="middle" x="319.5" y="-67.5" font-family="Helvetica,sans-Serif" font-size="10.00">::value_type &gt;</text>
</a>
</g>
</g>
<!-- Node2&#45;&gt;Node1 -->
<g id="edge1" class="edge">
<title>Node2&#45;&gt;Node1</title>
<path fill="none" stroke="darkgreen" d="M389.18,-81C397.89,-81 406.88,-81 415.81,-81"/>
<polygon fill="darkgreen" stroke="darkgreen" points="389.1,-77.5 379.1,-81 389.1,-84.5 389.1,-77.5"/>
</g>
<!-- Node3 -->
<g id="node3" class="node">
<title>Node3</title>
<g id="a_node3"><a xlink:href="classPreconditionBlockBase.html" target="_top" xlink:title=" ">
<polygon fill="white" stroke="black" points="0,-66 0,-96 118,-96 118,-66 0,-66"/>
<text text-anchor="start" x="8" y="-84" font-family="Helvetica,sans-Serif" font-size="10.00">PreconditionBlockBase</text>
<text text-anchor="middle" x="59" y="-73" font-family="Helvetica,sans-Serif" font-size="10.00">&lt; number &gt;</text>
</a>
</g>
</g>
<!-- Node3&#45;&gt;Node2 -->
<g id="edge2" class="edge">
<title>Node3&#45;&gt;Node2</title>
<path fill="none" stroke="orange" stroke-dasharray="5,2" d="M128.18,-81C169.11,-81 220.66,-81 259.79,-81"/>
<polygon fill="orange" stroke="orange" points="128.01,-77.5 118.01,-81 128.01,-84.5 128.01,-77.5"/>
<text text-anchor="start" x="136" y="-95" font-family="Helvetica,sans-Serif" font-size="10.00"> &lt; typename MatrixType</text>
<text text-anchor="middle" x="189" y="-84" font-family="Helvetica,sans-Serif" font-size="10.00">::value_type &gt;</text>
</g>
<!-- Node5 -->
<g id="node5" class="node">
<title>Node5</title>
<g id="a_node5"><a xlink:href="classRelaxationBlockJacobi.html" target="_top" xlink:title=" ">
<polygon fill="white" stroke="black" points="918,-120.5 918,-161.5 1064,-161.5 1064,-120.5 918,-120.5"/>
<text text-anchor="start" x="926" y="-149.5" font-family="Helvetica,sans-Serif" font-size="10.00">RelaxationBlockJacobi</text>
<text text-anchor="start" x="926" y="-138.5" font-family="Helvetica,sans-Serif" font-size="10.00">&lt; MatrixType, InverseNumber</text>
<text text-anchor="middle" x="991" y="-127.5" font-family="Helvetica,sans-Serif" font-size="10.00">Type, VectorType &gt;</text>
</a>
</g>
</g>
<!-- Node4&#45;&gt;Node5 -->
<g id="edge4" class="edge">
<title>Node4&#45;&gt;Node5</title>
<path fill="none" stroke="darkgreen" d="M880.07,-104.76C895.82,-109.95 912.37,-115.41 927.7,-120.46"/>
<polygon fill="darkgreen" stroke="darkgreen" points="880.97,-101.37 870.38,-101.56 878.78,-108.02 880.97,-101.37"/>
</g>
<!-- Node6 -->
<g id="node6" class="node">
<title>Node6</title>
<g id="a_node6"><a xlink:href="classRelaxationBlockSOR.html" target="_top" xlink:title=" ">
<polygon fill="white" stroke="black" points="918,-60.5 918,-101.5 1064,-101.5 1064,-60.5 918,-60.5"/>
<text text-anchor="start" x="926" y="-89.5" font-family="Helvetica,sans-Serif" font-size="10.00">RelaxationBlockSOR</text>
<text text-anchor="start" x="926" y="-78.5" font-family="Helvetica,sans-Serif" font-size="10.00">&lt; MatrixType, InverseNumber</text>
<text text-anchor="middle" x="991" y="-67.5" font-family="Helvetica,sans-Serif" font-size="10.00">Type, VectorType &gt;</text>
</a>
</g>
</g>
<!-- Node4&#45;&gt;Node6 -->
<g id="edge5" class="edge">
<title>Node4&#45;&gt;Node6</title>
<path fill="none" stroke="darkgreen" d="M891.49,-81C900.28,-81 909.16,-81 917.8,-81"/>
<polygon fill="darkgreen" stroke="darkgreen" points="891.24,-77.5 881.24,-81 891.24,-84.5 891.24,-77.5"/>
</g>
<!-- Node7 -->
<g id="node7" class="node">
<title>Node7</title>
<g id="a_node7"><a xlink:href="classRelaxationBlockSSOR.html" target="_top" xlink:title=" ">
<polygon fill="white" stroke="black" points="918,-0.5 918,-41.5 1064,-41.5 1064,-0.5 918,-0.5"/>
<text text-anchor="start" x="926" y="-29.5" font-family="Helvetica,sans-Serif" font-size="10.00">RelaxationBlockSSOR</text>
<text text-anchor="start" x="926" y="-18.5" font-family="Helvetica,sans-Serif" font-size="10.00">&lt; MatrixType, InverseNumber</text>
<text text-anchor="middle" x="991" y="-7.5" font-family="Helvetica,sans-Serif" font-size="10.00">Type, VectorType &gt;</text>
</a>
</g>
</g>
<!-- Node4&#45;&gt;Node7 -->
<g id="edge6" class="edge">
<title>Node4&#45;&gt;Node7</title>
<path fill="none" stroke="darkgreen" d="M880.07,-57.24C895.82,-52.05 912.37,-46.59 927.7,-41.54"/>
<polygon fill="darkgreen" stroke="darkgreen" points="878.78,-53.98 870.38,-60.44 880.97,-60.63 878.78,-53.98"/>
</g>
</g>
</svg>
