<?xml version="1.0" encoding="UTF-8" standalone="no"?>
<!DOCTYPE svg PUBLIC "-//W3C//DTD SVG 1.1//EN"
 "http://www.w3.org/Graphics/SVG/1.1/DTD/svg11.dtd">
<!-- Generated by graphviz version 2.47.1 (20210417.1919)
 -->
<!-- Title: SolverBicgstab&lt; VectorType &gt; Pages: 1 -->
<svg width="272pt" height="298pt"
 viewBox="0.00 0.00 271.50 298.00" xmlns="http://www.w3.org/2000/svg" xmlns:xlink="http://www.w3.org/1999/xlink">
<g id="graph0" class="graph" transform="scale(1 1) rotate(0) translate(4 294)">
<title>SolverBicgstab&lt; VectorType &gt;</title>
<polygon fill="white" stroke="transparent" points="-4,4 -4,-294 267.5,-294 267.5,4 -4,4"/>
<!-- Node1 -->
<g id="node1" class="node">
<title>Node1</title>
<g id="a_node1"><a xlink:title=" ">
<polygon fill="#bfbfbf" stroke="black" points="47,-78.5 47,-97.5 197,-97.5 197,-78.5 47,-78.5"/>
<text text-anchor="middle" x="122" y="-85.5" font-family="Helvetica,sans-Serif" font-size="10.00">SolverBicgstab&lt; VectorType &gt;</text>
</a>
</g>
</g>
<!-- Node6 -->
<g id="node6" class="node">
<title>Node6</title>
<g id="a_node6"><a xlink:href="classSolverBicgstab.html" target="_top" xlink:title=" ">
<polygon fill="white" stroke="black" points="62,-0.5 62,-30.5 182,-30.5 182,-0.5 62,-0.5"/>
<text text-anchor="start" x="70" y="-18.5" font-family="Helvetica,sans-Serif" font-size="10.00">SolverBicgstab&lt; Vector</text>
<text text-anchor="middle" x="122" y="-7.5" font-family="Helvetica,sans-Serif" font-size="10.00">&lt; double &gt; &gt;</text>
</a>
</g>
</g>
<!-- Node1&#45;&gt;Node6 -->
<g id="edge6" class="edge">
<title>Node1&#45;&gt;Node6</title>
<path fill="none" stroke="orange" stroke-dasharray="5,2" d="M122,-68.24C122,-56.41 122,-41.38 122,-30.58"/>
<polygon fill="orange" stroke="orange" points="118.5,-68.36 122,-78.36 125.5,-68.36 118.5,-68.36"/>
<text text-anchor="middle" x="170.5" y="-52" font-family="Helvetica,sans-Serif" font-size="10.00"> &lt; Vector&lt; double &gt; &gt;</text>
</g>
<!-- Node2 -->
<g id="node2" class="node">
<title>Node2</title>
<g id="a_node2"><a xlink:href="classSolverBase.html" target="_top" xlink:title=" ">
<polygon fill="white" stroke="black" points="0,-135.5 0,-165.5 104,-165.5 104,-135.5 0,-135.5"/>
<text text-anchor="start" x="8" y="-153.5" font-family="Helvetica,sans-Serif" font-size="10.00">SolverBase&lt; Vector</text>
<text text-anchor="middle" x="52" y="-142.5" font-family="Helvetica,sans-Serif" font-size="10.00">&lt; double &gt; &gt;</text>
</a>
</g>
</g>
<!-- Node2&#45;&gt;Node1 -->
<g id="edge1" class="edge">
<title>Node2&#45;&gt;Node1</title>
<path fill="none" stroke="midnightblue" d="M75.99,-128.76C88.36,-118.07 102.77,-105.62 112.12,-97.54"/>
<polygon fill="midnightblue" stroke="midnightblue" points="73.51,-126.28 68.24,-135.47 78.09,-131.58 73.51,-126.28"/>
</g>
<!-- Node3 -->
<g id="node3" class="node">
<title>Node3</title>
<g id="a_node3"><a xlink:href="classSubscriptor.html" target="_top" xlink:title=" ">
<polygon fill="white" stroke="black" points="15,-270.5 15,-289.5 81,-289.5 81,-270.5 15,-270.5"/>
<text text-anchor="middle" x="48" y="-277.5" font-family="Helvetica,sans-Serif" font-size="10.00">Subscriptor</text>
</a>
</g>
</g>
<!-- Node3&#45;&gt;Node2 -->
<g id="edge2" class="edge">
<title>Node3&#45;&gt;Node2</title>
<path fill="none" stroke="midnightblue" d="M48.6,-259.9C49.41,-234.05 50.84,-188.54 51.56,-165.59"/>
<polygon fill="midnightblue" stroke="midnightblue" points="45.09,-260.13 48.27,-270.24 52.09,-260.35 45.09,-260.13"/>
</g>
<!-- Node4 -->
<g id="node4" class="node">
<title>Node4</title>
<g id="a_node4"><a xlink:href="classSolverBase.html" target="_top" xlink:title=" ">
<polygon fill="white" stroke="black" points="64,-213.5 64,-232.5 198,-232.5 198,-213.5 64,-213.5"/>
<text text-anchor="middle" x="131" y="-220.5" font-family="Helvetica,sans-Serif" font-size="10.00">SolverBase&lt; VectorType &gt;</text>
</a>
</g>
</g>
<!-- Node3&#45;&gt;Node4 -->
<g id="edge4" class="edge">
<title>Node3&#45;&gt;Node4</title>
<path fill="none" stroke="midnightblue" d="M69.39,-264.82C84.81,-254.61 105.12,-241.15 118.12,-232.53"/>
<polygon fill="midnightblue" stroke="midnightblue" points="67.37,-261.96 60.97,-270.41 71.24,-267.8 67.37,-261.96"/>
</g>
<!-- Node4&#45;&gt;Node2 -->
<g id="edge3" class="edge">
<title>Node4&#45;&gt;Node2</title>
<path fill="none" stroke="orange" stroke-dasharray="5,2" d="M113.56,-206.44C99.88,-194.23 81.01,-177.39 67.77,-165.58"/>
<polygon fill="orange" stroke="orange" points="111.52,-209.31 121.31,-213.36 116.18,-204.09 111.52,-209.31"/>
<text text-anchor="middle" x="147.5" y="-187" font-family="Helvetica,sans-Serif" font-size="10.00"> &lt; Vector&lt; double &gt; &gt;</text>
</g>
<!-- Node5 -->
<g id="node5" class="node">
<title>Node5</title>
<g id="a_node5"><a xlink:href="classinternal_1_1SolverBicgstabData.html" target="_top" xlink:title=" ">
<polygon fill="white" stroke="black" points="122.5,-141 122.5,-160 263.5,-160 263.5,-141 122.5,-141"/>
<text text-anchor="middle" x="193" y="-148" font-family="Helvetica,sans-Serif" font-size="10.00">internal::SolverBicgstabData</text>
</a>
</g>
</g>
<!-- Node5&#45;&gt;Node1 -->
<g id="edge5" class="edge">
<title>Node5&#45;&gt;Node1</title>
<path fill="none" stroke="darkgreen" d="M175.07,-134.22C161.49,-122.65 143.32,-107.17 132.15,-97.65"/>
<polygon fill="darkgreen" stroke="darkgreen" points="172.95,-137.01 182.83,-140.83 177.49,-131.68 172.95,-137.01"/>
</g>
</g>
</svg>
