<?xml version="1.0" encoding="UTF-8" standalone="no"?>
<!DOCTYPE svg PUBLIC "-//W3C//DTD SVG 1.1//EN"
 "http://www.w3.org/Graphics/SVG/1.1/DTD/svg11.dtd">
<!-- Generated by graphviz version 2.47.1 (20210417.1919)
 -->
<!-- Title: TableIndices&lt; N &gt; Pages: 1 -->
<svg width="230pt" height="95pt"
 viewBox="0.00 0.00 229.50 95.00" xmlns="http://www.w3.org/2000/svg" xmlns:xlink="http://www.w3.org/1999/xlink">
<g id="graph0" class="graph" transform="scale(1 1) rotate(0) translate(4 91)">
<title>TableIndices&lt; N &gt;</title>
<polygon fill="white" stroke="transparent" points="-4,4 -4,-91 225.5,-91 225.5,4 -4,4"/>
<!-- Node1 -->
<g id="node1" class="node">
<title>Node1</title>
<g id="a_node1"><a xlink:title=" ">
<polygon fill="#bfbfbf" stroke="black" points="65.5,-67.5 65.5,-86.5 162.5,-86.5 162.5,-67.5 65.5,-67.5"/>
<text text-anchor="middle" x="114" y="-74.5" font-family="Helvetica,sans-Serif" font-size="10.00">TableIndices&lt; N &gt;</text>
</a>
</g>
</g>
<!-- Node2 -->
<g id="node2" class="node">
<title>Node2</title>
<g id="a_node2"><a xlink:href="classTableIndices.html" target="_top" xlink:title=" ">
<polygon fill="white" stroke="black" points="0,-0.5 0,-19.5 108,-19.5 108,-0.5 0,-0.5"/>
<text text-anchor="middle" x="54" y="-7.5" font-family="Helvetica,sans-Serif" font-size="10.00">TableIndices&lt; rank &gt;</text>
</a>
</g>
</g>
<!-- Node1&#45;&gt;Node2 -->
<g id="edge1" class="edge">
<title>Node1&#45;&gt;Node2</title>
<path fill="none" stroke="orange" stroke-dasharray="5,2" d="M98.89,-59.63C87.16,-46.92 71.35,-29.8 61.96,-19.63"/>
<polygon fill="orange" stroke="orange" points="96.55,-62.26 105.91,-67.23 101.7,-57.51 96.55,-62.26"/>
<text text-anchor="middle" x="108" y="-41" font-family="Helvetica,sans-Serif" font-size="10.00"> &lt; rank &gt;</text>
</g>
<!-- Node3 -->
<g id="node3" class="node">
<title>Node3</title>
<g id="a_node3"><a xlink:href="classTableIndices.html" target="_top" xlink:title=" ">
<polygon fill="white" stroke="black" points="126.5,-0.5 126.5,-19.5 221.5,-19.5 221.5,-0.5 126.5,-0.5"/>
<text text-anchor="middle" x="174" y="-7.5" font-family="Helvetica,sans-Serif" font-size="10.00">TableIndices&lt; 3 &gt;</text>
</a>
</g>
</g>
<!-- Node1&#45;&gt;Node3 -->
<g id="edge2" class="edge">
<title>Node1&#45;&gt;Node3</title>
<path fill="none" stroke="orange" stroke-dasharray="5,2" d="M129.11,-59.63C140.84,-46.92 156.65,-29.8 166.04,-19.63"/>
<polygon fill="orange" stroke="orange" points="126.3,-57.51 122.09,-67.23 131.45,-62.26 126.3,-57.51"/>
<text text-anchor="middle" x="160.5" y="-41" font-family="Helvetica,sans-Serif" font-size="10.00"> &lt; 3 &gt;</text>
</g>
</g>
</svg>
