<?xml version="1.0" encoding="UTF-8" standalone="no"?>
<!DOCTYPE svg PUBLIC "-//W3C//DTD SVG 1.1//EN"
 "http://www.w3.org/Graphics/SVG/1.1/DTD/svg11.dtd">
<!-- Generated by graphviz version 2.47.1 (20210417.1919)
 -->
<!-- Title: TransfiniteInterpolationManifold&lt; dim, spacedim &gt; Pages: 1 -->
<svg width="223pt" height="220pt"
 viewBox="0.00 0.00 223.00 220.00" xmlns="http://www.w3.org/2000/svg" xmlns:xlink="http://www.w3.org/1999/xlink">
<g id="graph0" class="graph" transform="scale(1 1) rotate(0) translate(4 216)">
<title>TransfiniteInterpolationManifold&lt; dim, spacedim &gt;</title>
<polygon fill="white" stroke="transparent" points="-4,4 -4,-216 219,-216 219,4 -4,4"/>
<!-- Node1 -->
<g id="node1" class="node">
<title>Node1</title>
<g id="a_node1"><a xlink:title=" ">
<polygon fill="#bfbfbf" stroke="black" points="0,-0.5 0,-30.5 135,-30.5 135,-0.5 0,-0.5"/>
<text text-anchor="start" x="8" y="-18.5" font-family="Helvetica,sans-Serif" font-size="10.00">TransfiniteInterpolation</text>
<text text-anchor="middle" x="67.5" y="-7.5" font-family="Helvetica,sans-Serif" font-size="10.00">Manifold&lt; dim, spacedim &gt;</text>
</a>
</g>
</g>
<!-- Node2 -->
<g id="node2" class="node">
<title>Node2</title>
<g id="a_node2"><a xlink:href="classManifold.html" target="_top" xlink:title=" ">
<polygon fill="white" stroke="black" points="13,-68.5 13,-87.5 122,-87.5 122,-68.5 13,-68.5"/>
<text text-anchor="middle" x="67.5" y="-75.5" font-family="Helvetica,sans-Serif" font-size="10.00">Manifold&lt; dim, dim &gt;</text>
</a>
</g>
</g>
<!-- Node2&#45;&gt;Node1 -->
<g id="edge1" class="edge">
<title>Node2&#45;&gt;Node1</title>
<path fill="none" stroke="midnightblue" d="M67.5,-58.22C67.5,-49.36 67.5,-38.96 67.5,-30.76"/>
<polygon fill="midnightblue" stroke="midnightblue" points="64,-58.33 67.5,-68.33 71,-58.33 64,-58.33"/>
</g>
<!-- Node3 -->
<g id="node3" class="node">
<title>Node3</title>
<g id="a_node3"><a xlink:href="classSubscriptor.html" target="_top" xlink:title=" ">
<polygon fill="white" stroke="black" points="30.5,-192.5 30.5,-211.5 96.5,-211.5 96.5,-192.5 30.5,-192.5"/>
<text text-anchor="middle" x="63.5" y="-199.5" font-family="Helvetica,sans-Serif" font-size="10.00">Subscriptor</text>
</a>
</g>
</g>
<!-- Node3&#45;&gt;Node2 -->
<g id="edge2" class="edge">
<title>Node3&#45;&gt;Node2</title>
<path fill="none" stroke="midnightblue" d="M64.12,-182.19C65,-155.4 66.57,-107.31 67.21,-87.69"/>
<polygon fill="midnightblue" stroke="midnightblue" points="60.62,-182.12 63.79,-192.23 67.61,-182.35 60.62,-182.12"/>
</g>
<!-- Node4 -->
<g id="node4" class="node">
<title>Node4</title>
<g id="a_node4"><a xlink:href="classManifold.html" target="_top" xlink:title=" ">
<polygon fill="white" stroke="black" points="80,-135.5 80,-154.5 215,-154.5 215,-135.5 80,-135.5"/>
<text text-anchor="middle" x="147.5" y="-142.5" font-family="Helvetica,sans-Serif" font-size="10.00">Manifold&lt; dim, spacedim &gt;</text>
</a>
</g>
</g>
<!-- Node3&#45;&gt;Node4 -->
<g id="edge4" class="edge">
<title>Node3&#45;&gt;Node4</title>
<path fill="none" stroke="midnightblue" d="M85.15,-186.82C100.76,-176.61 121.31,-163.15 134.47,-154.53"/>
<polygon fill="midnightblue" stroke="midnightblue" points="83.07,-184 76.62,-192.41 86.91,-189.86 83.07,-184"/>
</g>
<!-- Node4&#45;&gt;Node2 -->
<g id="edge3" class="edge">
<title>Node4&#45;&gt;Node2</title>
<path fill="none" stroke="orange" stroke-dasharray="5,2" d="M128.69,-128.71C112.92,-115.91 90.99,-98.09 78.12,-87.63"/>
<polygon fill="orange" stroke="orange" points="126.74,-131.64 136.71,-135.23 131.16,-126.21 126.74,-131.64"/>
<text text-anchor="middle" x="141" y="-109" font-family="Helvetica,sans-Serif" font-size="10.00"> &lt; dim, dim &gt;</text>
</g>
</g>
</svg>
