<?xml version="1.0" encoding="UTF-8" standalone="no"?>
<!DOCTYPE svg PUBLIC "-//W3C//DTD SVG 1.1//EN"
 "http://www.w3.org/Graphics/SVG/1.1/DTD/svg11.dtd">
<!-- Generated by graphviz version 2.47.1 (20210417.1919)
 -->
<!-- Title: DoFCellAccessor&lt; dimension_, space_dimension_, level_dof_access &gt; Pages: 1 -->
<svg width="905pt" height="132pt"
 viewBox="0.00 0.00 905.00 132.00" xmlns="http://www.w3.org/2000/svg" xmlns:xlink="http://www.w3.org/1999/xlink">
<g id="graph0" class="graph" transform="scale(1 1) rotate(0) translate(4 128)">
<title>DoFCellAccessor&lt; dimension_, space_dimension_, level_dof_access &gt;</title>
<polygon fill="white" stroke="transparent" points="-4,4 -4,-128 901,-128 901,4 -4,4"/>
<!-- Node1 -->
<g id="node1" class="node">
<title>Node1</title>
<g id="a_node1"><a xlink:title=" ">
<polygon fill="#bfbfbf" stroke="black" points="750,-36.5 750,-77.5 897,-77.5 897,-36.5 750,-36.5"/>
<text text-anchor="start" x="758" y="-65.5" font-family="Helvetica,sans-Serif" font-size="10.00">DoFCellAccessor&lt; dimension</text>
<text text-anchor="start" x="758" y="-54.5" font-family="Helvetica,sans-Serif" font-size="10.00">_, space_dimension_, level</text>
<text text-anchor="middle" x="823.5" y="-43.5" font-family="Helvetica,sans-Serif" font-size="10.00">_dof_access &gt;</text>
</a>
</g>
</g>
<!-- Node2 -->
<g id="node2" class="node">
<title>Node2</title>
<g id="a_node2"><a xlink:href="classDoFAccessor.html" target="_top" xlink:title=" ">
<polygon fill="white" stroke="black" points="554,-36.5 554,-77.5 713,-77.5 713,-36.5 554,-36.5"/>
<text text-anchor="start" x="562" y="-65.5" font-family="Helvetica,sans-Serif" font-size="10.00">DoFAccessor&lt; dimension</text>
<text text-anchor="start" x="562" y="-54.5" font-family="Helvetica,sans-Serif" font-size="10.00">_, dimension_, space_dimension</text>
<text text-anchor="middle" x="633.5" y="-43.5" font-family="Helvetica,sans-Serif" font-size="10.00">_, level_dof_access &gt;</text>
</a>
</g>
</g>
<!-- Node2&#45;&gt;Node1 -->
<g id="edge1" class="edge">
<title>Node2&#45;&gt;Node1</title>
<path fill="none" stroke="midnightblue" d="M723.19,-57C732.13,-57 741.13,-57 749.88,-57"/>
<polygon fill="midnightblue" stroke="midnightblue" points="723.14,-53.5 713.14,-57 723.14,-60.5 723.14,-53.5"/>
</g>
<!-- Node3 -->
<g id="node3" class="node">
<title>Node3</title>
<g id="a_node3"><a xlink:title=" ">
<polygon fill="white" stroke="#bfbfbf" points="218,-60.5 218,-123.5 399,-123.5 399,-60.5 218,-60.5"/>
<text text-anchor="start" x="226" y="-111.5" font-family="Helvetica,sans-Serif" font-size="10.00">internal::DoFAccessorImplementation</text>
<text text-anchor="middle" x="308.5" y="-100.5" font-family="Helvetica,sans-Serif" font-size="10.00">::</text>
<text text-anchor="start" x="226" y="-89.5" font-family="Helvetica,sans-Serif" font-size="10.00"> </text>
<text text-anchor="start" x="226" y="-78.5" font-family="Helvetica,sans-Serif" font-size="10.00"> Inheritance&lt; structdim,</text>
<text text-anchor="middle" x="308.5" y="-67.5" font-family="Helvetica,sans-Serif" font-size="10.00"> dim, spacedim &gt;::BaseClass</text>
</a>
</g>
</g>
<!-- Node3&#45;&gt;Node2 -->
<g id="edge2" class="edge">
<title>Node3&#45;&gt;Node2</title>
<path fill="none" stroke="midnightblue" d="M409.31,-83.11C448.8,-79.38 494.57,-74.8 536,-70 541.79,-69.33 547.78,-68.6 553.8,-67.85"/>
<polygon fill="midnightblue" stroke="midnightblue" points="408.77,-79.65 399.14,-84.06 409.43,-86.61 408.77,-79.65"/>
</g>
<!-- Node4 -->
<g id="node4" class="node">
<title>Node4</title>
<g id="a_node4"><a xlink:href="classDoFAccessor.html" target="_top" xlink:title=" ">
<polygon fill="white" stroke="black" points="244,-0.5 244,-41.5 373,-41.5 373,-0.5 244,-0.5"/>
<text text-anchor="start" x="252" y="-29.5" font-family="Helvetica,sans-Serif" font-size="10.00">DoFAccessor&lt; structdim,</text>
<text text-anchor="start" x="252" y="-18.5" font-family="Helvetica,sans-Serif" font-size="10.00"> dim, spacedim, level</text>
<text text-anchor="middle" x="308.5" y="-7.5" font-family="Helvetica,sans-Serif" font-size="10.00">_dof_access &gt;</text>
</a>
</g>
</g>
<!-- Node4&#45;&gt;Node2 -->
<g id="edge3" class="edge">
<title>Node4&#45;&gt;Node2</title>
<path fill="none" stroke="orange" stroke-dasharray="5,2" d="M383.42,-21.36C427.86,-22.46 485.42,-25.44 536,-33 542.4,-33.96 549,-35.15 555.6,-36.49"/>
<polygon fill="orange" stroke="orange" points="383.36,-17.86 373.29,-21.14 383.21,-24.86 383.36,-17.86"/>
<text text-anchor="start" x="417" y="-58" font-family="Helvetica,sans-Serif" font-size="10.00"> &lt; dimension_, dimension</text>
<text text-anchor="start" x="417" y="-47" font-family="Helvetica,sans-Serif" font-size="10.00">_, space_dimension_, level</text>
<text text-anchor="middle" x="476.5" y="-36" font-family="Helvetica,sans-Serif" font-size="10.00">_dof_access &gt;</text>
</g>
<!-- Node5 -->
<g id="node5" class="node">
<title>Node5</title>
<g id="a_node5"><a xlink:title=" ">
<polygon fill="white" stroke="#bfbfbf" points="0,-6 0,-36 181,-36 181,-6 0,-6"/>
<text text-anchor="start" x="8" y="-24" font-family="Helvetica,sans-Serif" font-size="10.00">internal::DoFAccessorImplementation</text>
<text text-anchor="middle" x="90.5" y="-13" font-family="Helvetica,sans-Serif" font-size="10.00">:: Inheritance::BaseClass</text>
</a>
</g>
</g>
<!-- Node5&#45;&gt;Node4 -->
<g id="edge4" class="edge">
<title>Node5&#45;&gt;Node4</title>
<path fill="none" stroke="midnightblue" d="M191.61,-21C209.34,-21 227.35,-21 243.72,-21"/>
<polygon fill="midnightblue" stroke="midnightblue" points="191.23,-17.5 181.23,-21 191.23,-24.5 191.23,-17.5"/>
</g>
</g>
</svg>
