<?xml version="1.0" encoding="UTF-8" standalone="no"?>
<!DOCTYPE svg PUBLIC "-//W3C//DTD SVG 1.1//EN"
 "http://www.w3.org/Graphics/SVG/1.1/DTD/svg11.dtd">
<!-- Generated by graphviz version 2.47.1 (20210417.1919)
 -->
<!-- Title: TrilinosWrappers::PreconditionBase Pages: 1 -->
<svg width="496pt" height="612pt"
 viewBox="0.00 0.00 496.00 612.00" xmlns="http://www.w3.org/2000/svg" xmlns:xlink="http://www.w3.org/1999/xlink">
<g id="graph0" class="graph" transform="scale(1 1) rotate(0) translate(4 608)">
<title>TrilinosWrappers::PreconditionBase</title>
<polygon fill="white" stroke="transparent" points="-4,4 -4,-608 492,-608 492,4 -4,4"/>
<!-- Node1 -->
<g id="node1" class="node">
<title>Node1</title>
<g id="a_node1"><a xlink:title=" ">
<polygon fill="#bfbfbf" stroke="black" points="102,-273.5 102,-292.5 274,-292.5 274,-273.5 102,-273.5"/>
<text text-anchor="middle" x="188" y="-280.5" font-family="Helvetica,sans-Serif" font-size="10.00">TrilinosWrappers::PreconditionBase</text>
</a>
</g>
</g>
<!-- Node3 -->
<g id="node3" class="node">
<title>Node3</title>
<g id="a_node3"><a xlink:href="classTrilinosWrappers_1_1PreconditionAMG.html" target="_top" xlink:title=" ">
<polygon fill="white" stroke="black" points="313,-584.5 313,-603.5 485,-603.5 485,-584.5 313,-584.5"/>
<text text-anchor="middle" x="399" y="-591.5" font-family="Helvetica,sans-Serif" font-size="10.00">TrilinosWrappers::PreconditionAMG</text>
</a>
</g>
</g>
<!-- Node1&#45;&gt;Node3 -->
<g id="edge2" class="edge">
<title>Node1&#45;&gt;Node3</title>
<path fill="none" stroke="midnightblue" d="M190.99,-302.78C197.43,-355.82 222.66,-502.13 310,-575 314.56,-578.8 319.71,-581.9 325.16,-584.41"/>
<polygon fill="midnightblue" stroke="midnightblue" points="194.45,-302.22 189.86,-292.67 187.49,-303 194.45,-302.22"/>
</g>
<!-- Node4 -->
<g id="node4" class="node">
<title>Node4</title>
<g id="a_node4"><a xlink:href="classTrilinosWrappers_1_1PreconditionAMGMueLu.html" target="_top" xlink:title=" ">
<polygon fill="white" stroke="black" points="324.5,-535 324.5,-565 473.5,-565 473.5,-535 324.5,-535"/>
<text text-anchor="start" x="332.5" y="-553" font-family="Helvetica,sans-Serif" font-size="10.00">TrilinosWrappers::Precondition</text>
<text text-anchor="middle" x="399" y="-542" font-family="Helvetica,sans-Serif" font-size="10.00">AMGMueLu</text>
</a>
</g>
</g>
<!-- Node1&#45;&gt;Node4 -->
<g id="edge3" class="edge">
<title>Node1&#45;&gt;Node4</title>
<path fill="none" stroke="midnightblue" d="M193.01,-302.59C203.52,-348.85 236.31,-465.49 310,-526 314.41,-529.62 319.31,-532.69 324.49,-535.31"/>
<polygon fill="midnightblue" stroke="midnightblue" points="196.39,-301.69 190.85,-292.66 189.55,-303.17 196.39,-301.69"/>
</g>
<!-- Node5 -->
<g id="node5" class="node">
<title>Node5</title>
<g id="a_node5"><a xlink:href="classTrilinosWrappers_1_1PreconditionBlockJacobi.html" target="_top" xlink:title=" ">
<polygon fill="white" stroke="black" points="324.5,-486 324.5,-516 473.5,-516 473.5,-486 324.5,-486"/>
<text text-anchor="start" x="332.5" y="-504" font-family="Helvetica,sans-Serif" font-size="10.00">TrilinosWrappers::Precondition</text>
<text text-anchor="middle" x="399" y="-493" font-family="Helvetica,sans-Serif" font-size="10.00">BlockJacobi</text>
</a>
</g>
</g>
<!-- Node1&#45;&gt;Node5 -->
<g id="edge4" class="edge">
<title>Node1&#45;&gt;Node5</title>
<path fill="none" stroke="midnightblue" d="M195.53,-302.3C209.8,-341.49 247.57,-430.55 310,-477 314.57,-480.4 319.6,-483.32 324.86,-485.83"/>
<polygon fill="midnightblue" stroke="midnightblue" points="198.83,-301.12 192.2,-292.86 192.23,-303.45 198.83,-301.12"/>
</g>
<!-- Node6 -->
<g id="node6" class="node">
<title>Node6</title>
<g id="a_node6"><a xlink:href="classTrilinosWrappers_1_1PreconditionBlockSOR.html" target="_top" xlink:title=" ">
<polygon fill="white" stroke="black" points="324.5,-437 324.5,-467 473.5,-467 473.5,-437 324.5,-437"/>
<text text-anchor="start" x="332.5" y="-455" font-family="Helvetica,sans-Serif" font-size="10.00">TrilinosWrappers::Precondition</text>
<text text-anchor="middle" x="399" y="-444" font-family="Helvetica,sans-Serif" font-size="10.00">BlockSOR</text>
</a>
</g>
</g>
<!-- Node1&#45;&gt;Node6 -->
<g id="edge5" class="edge">
<title>Node1&#45;&gt;Node6</title>
<path fill="none" stroke="midnightblue" d="M199.45,-301.81C217.72,-332.91 258.47,-394.91 310,-428 315.33,-431.42 321.14,-434.36 327.16,-436.88"/>
<polygon fill="midnightblue" stroke="midnightblue" points="202.34,-299.81 194.33,-292.87 196.26,-303.29 202.34,-299.81"/>
</g>
<!-- Node7 -->
<g id="node7" class="node">
<title>Node7</title>
<g id="a_node7"><a xlink:href="classTrilinosWrappers_1_1PreconditionBlockSSOR.html" target="_top" xlink:title=" ">
<polygon fill="white" stroke="black" points="324.5,-388 324.5,-418 473.5,-418 473.5,-388 324.5,-388"/>
<text text-anchor="start" x="332.5" y="-406" font-family="Helvetica,sans-Serif" font-size="10.00">TrilinosWrappers::Precondition</text>
<text text-anchor="middle" x="399" y="-395" font-family="Helvetica,sans-Serif" font-size="10.00">BlockSSOR</text>
</a>
</g>
</g>
<!-- Node1&#45;&gt;Node7 -->
<g id="edge6" class="edge">
<title>Node1&#45;&gt;Node7</title>
<path fill="none" stroke="midnightblue" d="M205.6,-299.88C227.59,-321.29 268.45,-357.97 310,-379 316.64,-382.36 323.81,-385.3 331.09,-387.85"/>
<polygon fill="midnightblue" stroke="midnightblue" points="207.96,-297.28 198.39,-292.73 203.03,-302.26 207.96,-297.28"/>
</g>
<!-- Node8 -->
<g id="node8" class="node">
<title>Node8</title>
<g id="a_node8"><a xlink:href="classTrilinosWrappers_1_1PreconditionBlockwiseDirect.html" target="_top" xlink:title=" ">
<polygon fill="white" stroke="black" points="324.5,-339 324.5,-369 473.5,-369 473.5,-339 324.5,-339"/>
<text text-anchor="start" x="332.5" y="-357" font-family="Helvetica,sans-Serif" font-size="10.00">TrilinosWrappers::Precondition</text>
<text text-anchor="middle" x="399" y="-346" font-family="Helvetica,sans-Serif" font-size="10.00">BlockwiseDirect</text>
</a>
</g>
</g>
<!-- Node1&#45;&gt;Node8 -->
<g id="edge7" class="edge">
<title>Node1&#45;&gt;Node8</title>
<path fill="none" stroke="midnightblue" d="M220.89,-296.44C245.1,-306.38 279.34,-319.89 310,-330 319.48,-333.12 329.62,-336.16 339.52,-338.97"/>
<polygon fill="midnightblue" stroke="midnightblue" points="222.07,-293.14 211.49,-292.55 219.39,-299.61 222.07,-293.14"/>
</g>
<!-- Node9 -->
<g id="node9" class="node">
<title>Node9</title>
<g id="a_node9"><a xlink:href="classTrilinosWrappers_1_1PreconditionChebyshev.html" target="_top" xlink:title=" ">
<polygon fill="white" stroke="black" points="324.5,-290 324.5,-320 473.5,-320 473.5,-290 324.5,-290"/>
<text text-anchor="start" x="332.5" y="-308" font-family="Helvetica,sans-Serif" font-size="10.00">TrilinosWrappers::Precondition</text>
<text text-anchor="middle" x="399" y="-297" font-family="Helvetica,sans-Serif" font-size="10.00">Chebyshev</text>
</a>
</g>
</g>
<!-- Node1&#45;&gt;Node9 -->
<g id="edge8" class="edge">
<title>Node1&#45;&gt;Node9</title>
<path fill="none" stroke="midnightblue" d="M284.27,-293.03C297.76,-294.45 311.46,-295.89 324.46,-297.26"/>
<polygon fill="midnightblue" stroke="midnightblue" points="284.32,-289.51 274.01,-291.95 283.59,-296.48 284.32,-289.51"/>
</g>
<!-- Node10 -->
<g id="node10" class="node">
<title>Node10</title>
<g id="a_node10"><a xlink:href="classTrilinosWrappers_1_1PreconditionIC.html" target="_top" xlink:title=" ">
<polygon fill="white" stroke="black" points="319,-251.5 319,-270.5 479,-270.5 479,-251.5 319,-251.5"/>
<text text-anchor="middle" x="399" y="-258.5" font-family="Helvetica,sans-Serif" font-size="10.00">TrilinosWrappers::PreconditionIC</text>
</a>
</g>
</g>
<!-- Node1&#45;&gt;Node10 -->
<g id="edge9" class="edge">
<title>Node1&#45;&gt;Node10</title>
<path fill="none" stroke="midnightblue" d="M284.14,-272.99C295.73,-271.77 307.48,-270.53 318.8,-269.34"/>
<polygon fill="midnightblue" stroke="midnightblue" points="283.59,-269.52 274.01,-274.05 284.32,-276.49 283.59,-269.52"/>
</g>
<!-- Node11 -->
<g id="node11" class="node">
<title>Node11</title>
<g id="a_node11"><a xlink:href="classTrilinosWrappers_1_1PreconditionILU.html" target="_top" xlink:title=" ">
<polygon fill="white" stroke="black" points="316.5,-213.5 316.5,-232.5 481.5,-232.5 481.5,-213.5 316.5,-213.5"/>
<text text-anchor="middle" x="399" y="-220.5" font-family="Helvetica,sans-Serif" font-size="10.00">TrilinosWrappers::PreconditionILU</text>
</a>
</g>
</g>
<!-- Node1&#45;&gt;Node11 -->
<g id="edge10" class="edge">
<title>Node1&#45;&gt;Node11</title>
<path fill="none" stroke="midnightblue" d="M224.41,-269.81C248.36,-261.19 280.82,-250.07 310,-242 322.5,-238.54 336.15,-235.33 348.88,-232.57"/>
<polygon fill="midnightblue" stroke="midnightblue" points="222.9,-266.63 214.7,-273.34 225.29,-273.21 222.9,-266.63"/>
</g>
<!-- Node12 -->
<g id="node12" class="node">
<title>Node12</title>
<g id="a_node12"><a xlink:href="classTrilinosWrappers_1_1PreconditionILUT.html" target="_top" xlink:title=" ">
<polygon fill="white" stroke="black" points="313.5,-175.5 313.5,-194.5 484.5,-194.5 484.5,-175.5 313.5,-175.5"/>
<text text-anchor="middle" x="399" y="-182.5" font-family="Helvetica,sans-Serif" font-size="10.00">TrilinosWrappers::PreconditionILUT</text>
</a>
</g>
</g>
<!-- Node1&#45;&gt;Node12 -->
<g id="edge11" class="edge">
<title>Node1&#45;&gt;Node12</title>
<path fill="none" stroke="midnightblue" d="M208.44,-267.04C231.35,-249.05 271.2,-220.2 310,-204 319.23,-200.15 329.35,-197.03 339.33,-194.53"/>
<polygon fill="midnightblue" stroke="midnightblue" points="206.17,-264.38 200.53,-273.35 210.53,-269.85 206.17,-264.38"/>
</g>
<!-- Node13 -->
<g id="node13" class="node">
<title>Node13</title>
<g id="a_node13"><a xlink:href="classTrilinosWrappers_1_1PreconditionIdentity.html" target="_top" xlink:title=" ">
<polygon fill="white" stroke="black" points="324.5,-126 324.5,-156 473.5,-156 473.5,-126 324.5,-126"/>
<text text-anchor="start" x="332.5" y="-144" font-family="Helvetica,sans-Serif" font-size="10.00">TrilinosWrappers::Precondition</text>
<text text-anchor="middle" x="399" y="-133" font-family="Helvetica,sans-Serif" font-size="10.00">Identity</text>
</a>
</g>
</g>
<!-- Node1&#45;&gt;Node13 -->
<g id="edge12" class="edge">
<title>Node1&#45;&gt;Node13</title>
<path fill="none" stroke="midnightblue" d="M202.68,-265.04C223.21,-239.33 264.48,-192.23 310,-166 316.61,-162.19 323.83,-158.94 331.2,-156.16"/>
<polygon fill="midnightblue" stroke="midnightblue" points="199.72,-263.15 196.31,-273.18 205.23,-267.46 199.72,-263.15"/>
</g>
<!-- Node14 -->
<g id="node14" class="node">
<title>Node14</title>
<g id="a_node14"><a xlink:href="classTrilinosWrappers_1_1PreconditionJacobi.html" target="_top" xlink:title=" ">
<polygon fill="white" stroke="black" points="324.5,-77 324.5,-107 473.5,-107 473.5,-77 324.5,-77"/>
<text text-anchor="start" x="332.5" y="-95" font-family="Helvetica,sans-Serif" font-size="10.00">TrilinosWrappers::Precondition</text>
<text text-anchor="middle" x="399" y="-84" font-family="Helvetica,sans-Serif" font-size="10.00">Jacobi</text>
</a>
</g>
</g>
<!-- Node1&#45;&gt;Node14 -->
<g id="edge13" class="edge">
<title>Node1&#45;&gt;Node14</title>
<path fill="none" stroke="midnightblue" d="M197.51,-263.81C213.99,-228.88 253.69,-154.94 310,-116 314.95,-112.58 320.37,-109.64 326.01,-107.12"/>
<polygon fill="midnightblue" stroke="midnightblue" points="194.13,-262.77 193.14,-273.32 200.5,-265.69 194.13,-262.77"/>
</g>
<!-- Node15 -->
<g id="node15" class="node">
<title>Node15</title>
<g id="a_node15"><a xlink:href="classTrilinosWrappers_1_1PreconditionSOR.html" target="_top" xlink:title=" ">
<polygon fill="white" stroke="black" points="313.5,-38.5 313.5,-57.5 484.5,-57.5 484.5,-38.5 313.5,-38.5"/>
<text text-anchor="middle" x="399" y="-45.5" font-family="Helvetica,sans-Serif" font-size="10.00">TrilinosWrappers::PreconditionSOR</text>
</a>
</g>
</g>
<!-- Node1&#45;&gt;Node15 -->
<g id="edge14" class="edge">
<title>Node1&#45;&gt;Node15</title>
<path fill="none" stroke="midnightblue" d="M193.98,-263.61C206.03,-220.8 240.99,-117.99 310,-67 315.15,-63.19 320.91,-60.12 326.95,-57.64"/>
<polygon fill="midnightblue" stroke="midnightblue" points="190.58,-262.78 191.35,-273.35 197.34,-264.61 190.58,-262.78"/>
</g>
<!-- Node16 -->
<g id="node16" class="node">
<title>Node16</title>
<g id="a_node16"><a xlink:href="classTrilinosWrappers_1_1PreconditionSSOR.html" target="_top" xlink:title=" ">
<polygon fill="white" stroke="black" points="310,-0.5 310,-19.5 488,-19.5 488,-0.5 310,-0.5"/>
<text text-anchor="middle" x="399" y="-7.5" font-family="Helvetica,sans-Serif" font-size="10.00">TrilinosWrappers::PreconditionSSOR</text>
</a>
</g>
</g>
<!-- Node1&#45;&gt;Node16 -->
<g id="edge15" class="edge">
<title>Node1&#45;&gt;Node16</title>
<path fill="none" stroke="midnightblue" d="M192.32,-263.24C201.52,-215.01 231.99,-90.73 310,-29 314.78,-25.22 320.15,-22.15 325.81,-19.66"/>
<polygon fill="midnightblue" stroke="midnightblue" points="188.84,-262.84 190.51,-273.3 195.73,-264.08 188.84,-262.84"/>
</g>
<!-- Node2 -->
<g id="node2" class="node">
<title>Node2</title>
<g id="a_node2"><a xlink:href="classSubscriptor.html" target="_top" xlink:title=" ">
<polygon fill="white" stroke="black" points="0,-273.5 0,-292.5 66,-292.5 66,-273.5 0,-273.5"/>
<text text-anchor="middle" x="33" y="-280.5" font-family="Helvetica,sans-Serif" font-size="10.00">Subscriptor</text>
</a>
</g>
</g>
<!-- Node2&#45;&gt;Node1 -->
<g id="edge1" class="edge">
<title>Node2&#45;&gt;Node1</title>
<path fill="none" stroke="midnightblue" d="M76.21,-283C84.23,-283 92.88,-283 101.69,-283"/>
<polygon fill="midnightblue" stroke="midnightblue" points="76.07,-279.5 66.07,-283 76.07,-286.5 76.07,-279.5"/>
</g>
</g>
</svg>
