<?xml version="1.0" encoding="UTF-8" standalone="no"?>
<!DOCTYPE svg PUBLIC "-//W3C//DTD SVG 1.1//EN"
 "http://www.w3.org/Graphics/SVG/1.1/DTD/svg11.dtd">
<!-- Generated by graphviz version 2.47.1 (20210417.1919)
 -->
<!-- Title: PETScWrappers::MatrixBase Pages: 1 -->
<svg width="444pt" height="154pt"
 viewBox="0.00 0.00 444.00 154.00" xmlns="http://www.w3.org/2000/svg" xmlns:xlink="http://www.w3.org/1999/xlink">
<g id="graph0" class="graph" transform="scale(1 1) rotate(0) translate(4 150)">
<title>PETScWrappers::MatrixBase</title>
<polygon fill="white" stroke="transparent" points="-4,4 -4,-150 440,-150 440,4 -4,4"/>
<!-- Node1 -->
<g id="node1" class="node">
<title>Node1</title>
<g id="a_node1"><a xlink:title=" ">
<polygon fill="#bfbfbf" stroke="black" points="102,-60.5 102,-79.5 247,-79.5 247,-60.5 102,-60.5"/>
<text text-anchor="middle" x="174.5" y="-67.5" font-family="Helvetica,sans-Serif" font-size="10.00">PETScWrappers::MatrixBase</text>
</a>
</g>
</g>
<!-- Node3 -->
<g id="node3" class="node">
<title>Node3</title>
<g id="a_node3"><a xlink:href="classPETScWrappers_1_1FullMatrix.html" target="_top" xlink:title=" ">
<polygon fill="white" stroke="black" points="290.5,-126.5 290.5,-145.5 428.5,-145.5 428.5,-126.5 290.5,-126.5"/>
<text text-anchor="middle" x="359.5" y="-133.5" font-family="Helvetica,sans-Serif" font-size="10.00">PETScWrappers::FullMatrix</text>
</a>
</g>
</g>
<!-- Node1&#45;&gt;Node3 -->
<g id="edge2" class="edge">
<title>Node1&#45;&gt;Node3</title>
<path fill="none" stroke="midnightblue" d="M204.09,-84.05C225.46,-94.17 255.59,-107.63 283,-117 293.36,-120.54 304.72,-123.74 315.42,-126.47"/>
<polygon fill="midnightblue" stroke="midnightblue" points="205.46,-80.82 194.92,-79.66 202.43,-87.14 205.46,-80.82"/>
</g>
<!-- Node4 -->
<g id="node4" class="node">
<title>Node4</title>
<g id="a_node4"><a xlink:href="classPETScWrappers_1_1MPI_1_1SparseMatrix.html" target="_top" xlink:title=" ">
<polygon fill="white" stroke="black" points="303,-77 303,-107 416,-107 416,-77 303,-77"/>
<text text-anchor="start" x="311" y="-95" font-family="Helvetica,sans-Serif" font-size="10.00">PETScWrappers::MPI</text>
<text text-anchor="middle" x="359.5" y="-84" font-family="Helvetica,sans-Serif" font-size="10.00">::SparseMatrix</text>
</a>
</g>
</g>
<!-- Node1&#45;&gt;Node4 -->
<g id="edge3" class="edge">
<title>Node1&#45;&gt;Node4</title>
<path fill="none" stroke="midnightblue" d="M257.13,-79.81C272.59,-81.67 288.44,-83.58 302.87,-85.31"/>
<polygon fill="midnightblue" stroke="midnightblue" points="257.39,-76.32 247.04,-78.6 256.55,-83.27 257.39,-76.32"/>
</g>
<!-- Node5 -->
<g id="node5" class="node">
<title>Node5</title>
<g id="a_node5"><a xlink:href="classPETScWrappers_1_1MatrixFree.html" target="_top" xlink:title=" ">
<polygon fill="white" stroke="black" points="288.5,-38.5 288.5,-57.5 430.5,-57.5 430.5,-38.5 288.5,-38.5"/>
<text text-anchor="middle" x="359.5" y="-45.5" font-family="Helvetica,sans-Serif" font-size="10.00">PETScWrappers::MatrixFree</text>
</a>
</g>
</g>
<!-- Node1&#45;&gt;Node5 -->
<g id="edge4" class="edge">
<title>Node1&#45;&gt;Node5</title>
<path fill="none" stroke="midnightblue" d="M257.28,-60.17C267.6,-58.93 278.09,-57.67 288.21,-56.45"/>
<polygon fill="midnightblue" stroke="midnightblue" points="256.55,-56.73 247.04,-61.4 257.39,-63.68 256.55,-56.73"/>
</g>
<!-- Node6 -->
<g id="node6" class="node">
<title>Node6</title>
<g id="a_node6"><a xlink:href="classPETScWrappers_1_1SparseMatrix.html" target="_top" xlink:title=" ">
<polygon fill="white" stroke="black" points="283,-0.5 283,-19.5 436,-19.5 436,-0.5 283,-0.5"/>
<text text-anchor="middle" x="359.5" y="-7.5" font-family="Helvetica,sans-Serif" font-size="10.00">PETScWrappers::SparseMatrix</text>
</a>
</g>
</g>
<!-- Node1&#45;&gt;Node6 -->
<g id="edge5" class="edge">
<title>Node1&#45;&gt;Node6</title>
<path fill="none" stroke="midnightblue" d="M207.76,-56.55C228.93,-48.01 257.35,-37.09 283,-29 293.83,-25.59 305.68,-22.37 316.72,-19.58"/>
<polygon fill="midnightblue" stroke="midnightblue" points="206.23,-53.4 198.29,-60.41 208.87,-59.88 206.23,-53.4"/>
</g>
<!-- Node2 -->
<g id="node2" class="node">
<title>Node2</title>
<g id="a_node2"><a xlink:href="classSubscriptor.html" target="_top" xlink:title=" ">
<polygon fill="white" stroke="black" points="0,-60.5 0,-79.5 66,-79.5 66,-60.5 0,-60.5"/>
<text text-anchor="middle" x="33" y="-67.5" font-family="Helvetica,sans-Serif" font-size="10.00">Subscriptor</text>
</a>
</g>
</g>
<!-- Node2&#45;&gt;Node1 -->
<g id="edge1" class="edge">
<title>Node2&#45;&gt;Node1</title>
<path fill="none" stroke="midnightblue" d="M76.02,-70C84.21,-70 93.02,-70 101.86,-70"/>
<polygon fill="midnightblue" stroke="midnightblue" points="76,-66.5 66,-70 76,-73.5 76,-66.5"/>
</g>
</g>
</svg>
