<?xml version="1.0" encoding="UTF-8" standalone="no"?>
<!DOCTYPE svg PUBLIC "-//W3C//DTD SVG 1.1//EN"
 "http://www.w3.org/Graphics/SVG/1.1/DTD/svg11.dtd">
<!-- Generated by graphviz version 2.47.1 (20210417.1919)
 -->
<!-- Title: ScaLAPACKMatrix&lt; NumberType &gt; Pages: 1 -->
<svg width="217pt" height="333pt"
 viewBox="0.00 0.00 216.50 333.00" xmlns="http://www.w3.org/2000/svg" xmlns:xlink="http://www.w3.org/1999/xlink">
<g id="graph0" class="graph" transform="scale(1 1) rotate(0) translate(4 329)">
<title>ScaLAPACKMatrix&lt; NumberType &gt;</title>
<polygon fill="white" stroke="transparent" points="-4,4 -4,-329 212.5,-329 212.5,4 -4,4"/>
<!-- Node1 -->
<g id="node1" class="node">
<title>Node1</title>
<g id="a_node1"><a xlink:title=" ">
<polygon fill="#bfbfbf" stroke="black" points="0,-0.5 0,-19.5 173,-19.5 173,-0.5 0,-0.5"/>
<text text-anchor="middle" x="86.5" y="-7.5" font-family="Helvetica,sans-Serif" font-size="10.00">ScaLAPACKMatrix&lt; NumberType &gt;</text>
</a>
</g>
</g>
<!-- Node2 -->
<g id="node2" class="node">
<title>Node2</title>
<g id="a_node2"><a xlink:href="classTransposeTable.html" target="_top" xlink:title=" ">
<polygon fill="white" stroke="black" points="7,-57.5 7,-76.5 166,-76.5 166,-57.5 7,-57.5"/>
<text text-anchor="middle" x="86.5" y="-64.5" font-family="Helvetica,sans-Serif" font-size="10.00">TransposeTable&lt; NumberType &gt;</text>
</a>
</g>
</g>
<!-- Node2&#45;&gt;Node1 -->
<g id="edge1" class="edge">
<title>Node2&#45;&gt;Node1</title>
<path fill="none" stroke="darkgreen" d="M86.5,-47.12C86.5,-37.82 86.5,-27.06 86.5,-19.71"/>
<polygon fill="darkgreen" stroke="darkgreen" points="83,-47.41 86.5,-57.41 90,-47.41 83,-47.41"/>
</g>
<!-- Node3 -->
<g id="node3" class="node">
<title>Node3</title>
<g id="a_node3"><a xlink:href="classTableBase.html" target="_top" xlink:title=" ">
<polygon fill="white" stroke="black" points="29.5,-248.5 29.5,-267.5 129.5,-267.5 129.5,-248.5 29.5,-248.5"/>
<text text-anchor="middle" x="79.5" y="-255.5" font-family="Helvetica,sans-Serif" font-size="10.00">TableBase&lt; N, T &gt;</text>
</a>
</g>
</g>
<!-- Node3&#45;&gt;Node2 -->
<g id="edge2" class="edge">
<title>Node3&#45;&gt;Node2</title>
<path fill="none" stroke="midnightblue" d="M80.2,-238.14C81.69,-198 85.12,-105.39 86.18,-76.66"/>
<polygon fill="midnightblue" stroke="midnightblue" points="76.69,-238.27 79.82,-248.39 83.69,-238.52 76.69,-238.27"/>
</g>
<!-- Node6 -->
<g id="node6" class="node">
<title>Node6</title>
<g id="a_node6"><a xlink:href="classTableBase.html" target="_top" xlink:title=" ">
<polygon fill="white" stroke="black" points="104.5,-181.5 104.5,-200.5 202.5,-200.5 202.5,-181.5 104.5,-181.5"/>
<text text-anchor="middle" x="153.5" y="-188.5" font-family="Helvetica,sans-Serif" font-size="10.00">TableBase&lt; 2, T &gt;</text>
</a>
</g>
</g>
<!-- Node3&#45;&gt;Node6 -->
<g id="edge7" class="edge">
<title>Node3&#45;&gt;Node6</title>
<path fill="none" stroke="orange" stroke-dasharray="5,2" d="M88.55,-239.51C92.75,-232.55 98.2,-224.82 104.5,-219 112.77,-211.35 123.61,-205.09 132.99,-200.53"/>
<polygon fill="orange" stroke="orange" points="85.48,-237.84 83.66,-248.28 91.59,-241.26 85.48,-237.84"/>
<text text-anchor="middle" x="124" y="-222" font-family="Helvetica,sans-Serif" font-size="10.00"> &lt; 2, T &gt;</text>
</g>
<!-- Node4 -->
<g id="node4" class="node">
<title>Node4</title>
<g id="a_node4"><a xlink:href="classSubscriptor.html" target="_top" xlink:title=" ">
<polygon fill="white" stroke="black" points="85.5,-305.5 85.5,-324.5 151.5,-324.5 151.5,-305.5 85.5,-305.5"/>
<text text-anchor="middle" x="118.5" y="-312.5" font-family="Helvetica,sans-Serif" font-size="10.00">Subscriptor</text>
</a>
</g>
</g>
<!-- Node4&#45;&gt;Node3 -->
<g id="edge3" class="edge">
<title>Node4&#45;&gt;Node3</title>
<path fill="none" stroke="midnightblue" d="M106.61,-297.23C99.7,-287.49 91.29,-275.62 85.68,-267.71"/>
<polygon fill="midnightblue" stroke="midnightblue" points="103.77,-299.27 112.41,-305.41 109.48,-295.22 103.77,-299.27"/>
</g>
<!-- Node4&#45;&gt;Node6 -->
<g id="edge6" class="edge">
<title>Node4&#45;&gt;Node6</title>
<path fill="none" stroke="midnightblue" d="M127.29,-296.25C131.16,-287.84 135.51,-277.57 138.5,-268 145.95,-244.12 150.49,-214.82 152.42,-200.58"/>
<polygon fill="midnightblue" stroke="midnightblue" points="124.07,-294.86 122.91,-305.4 130.38,-297.88 124.07,-294.86"/>
</g>
<!-- Node5 -->
<g id="node5" class="node">
<title>Node5</title>
<g id="a_node5"><a xlink:href="classTransposeTable.html" target="_top" xlink:title=" ">
<polygon fill="white" stroke="black" points="98.5,-124.5 98.5,-143.5 208.5,-143.5 208.5,-124.5 98.5,-124.5"/>
<text text-anchor="middle" x="153.5" y="-131.5" font-family="Helvetica,sans-Serif" font-size="10.00">TransposeTable&lt; T &gt;</text>
</a>
</g>
</g>
<!-- Node5&#45;&gt;Node2 -->
<g id="edge4" class="edge">
<title>Node5&#45;&gt;Node2</title>
<path fill="none" stroke="orange" stroke-dasharray="5,2" d="M137,-117C123.86,-104.25 105.98,-86.89 95.39,-76.63"/>
<polygon fill="orange" stroke="orange" points="134.85,-119.78 144.46,-124.23 139.72,-114.76 134.85,-119.78"/>
<text text-anchor="middle" x="162" y="-98" font-family="Helvetica,sans-Serif" font-size="10.00"> &lt; NumberType &gt;</text>
</g>
<!-- Node6&#45;&gt;Node5 -->
<g id="edge5" class="edge">
<title>Node6&#45;&gt;Node5</title>
<path fill="none" stroke="midnightblue" d="M153.5,-171.12C153.5,-161.82 153.5,-151.06 153.5,-143.71"/>
<polygon fill="midnightblue" stroke="midnightblue" points="150,-171.41 153.5,-181.41 157,-171.41 150,-171.41"/>
</g>
</g>
</svg>
