<?xml version="1.0" encoding="UTF-8" standalone="no"?>
<!DOCTYPE svg PUBLIC "-//W3C//DTD SVG 1.1//EN"
 "http://www.w3.org/Graphics/SVG/1.1/DTD/svg11.dtd">
<!-- Generated by graphviz version 2.47.1 (20210417.1919)
 -->
<!-- Title: Utilities::MPI::ConsensusAlgorithms::Interface&lt; T1, T2 &gt; Pages: 1 -->
<svg width="325pt" height="186pt"
 viewBox="0.00 0.00 325.00 186.00" xmlns="http://www.w3.org/2000/svg" xmlns:xlink="http://www.w3.org/1999/xlink">
<g id="graph0" class="graph" transform="scale(1 1) rotate(0) translate(4 182)">
<title>Utilities::MPI::ConsensusAlgorithms::Interface&lt; T1, T2 &gt;</title>
<polygon fill="white" stroke="transparent" points="-4,4 -4,-182 321,-182 321,4 -4,4"/>
<!-- Node1 -->
<g id="node1" class="node">
<title>Node1</title>
<g id="a_node1"><a xlink:title=" ">
<polygon fill="#bfbfbf" stroke="black" points="0,-68 0,-109 129,-109 129,-68 0,-68"/>
<text text-anchor="start" x="8" y="-97" font-family="Helvetica,sans-Serif" font-size="10.00">Utilities::MPI::Consensus</text>
<text text-anchor="start" x="8" y="-86" font-family="Helvetica,sans-Serif" font-size="10.00">Algorithms::Interface&lt;</text>
<text text-anchor="middle" x="64.5" y="-75" font-family="Helvetica,sans-Serif" font-size="10.00"> T1, T2 &gt;</text>
</a>
</g>
</g>
<!-- Node2 -->
<g id="node2" class="node">
<title>Node2</title>
<g id="a_node2"><a xlink:href="classUtilities_1_1MPI_1_1ConsensusAlgorithms_1_1NBX.html" target="_top" xlink:title=" ">
<polygon fill="white" stroke="black" points="172.5,-147.5 172.5,-177.5 309.5,-177.5 309.5,-147.5 172.5,-147.5"/>
<text text-anchor="start" x="180.5" y="-165.5" font-family="Helvetica,sans-Serif" font-size="10.00">Utilities::MPI::Consensus</text>
<text text-anchor="middle" x="241" y="-154.5" font-family="Helvetica,sans-Serif" font-size="10.00">Algorithms::NBX&lt; T1, T2 &gt;</text>
</a>
</g>
</g>
<!-- Node1&#45;&gt;Node2 -->
<g id="edge1" class="edge">
<title>Node1&#45;&gt;Node2</title>
<path fill="none" stroke="midnightblue" d="M112.02,-113.76C128.49,-122.2 147.33,-131.29 165,-138.5 172.72,-141.65 181.02,-144.67 189.18,-147.43"/>
<polygon fill="midnightblue" stroke="midnightblue" points="113.62,-110.65 103.13,-109.15 110.39,-116.86 113.62,-110.65"/>
</g>
<!-- Node3 -->
<g id="node3" class="node">
<title>Node3</title>
<g id="a_node3"><a xlink:href="classUtilities_1_1MPI_1_1ConsensusAlgorithms_1_1PEX.html" target="_top" xlink:title=" ">
<polygon fill="white" stroke="black" points="173,-98.5 173,-128.5 309,-128.5 309,-98.5 173,-98.5"/>
<text text-anchor="start" x="181" y="-116.5" font-family="Helvetica,sans-Serif" font-size="10.00">Utilities::MPI::Consensus</text>
<text text-anchor="middle" x="241" y="-105.5" font-family="Helvetica,sans-Serif" font-size="10.00">Algorithms::PEX&lt; T1, T2 &gt;</text>
</a>
</g>
</g>
<!-- Node1&#45;&gt;Node3 -->
<g id="edge2" class="edge">
<title>Node1&#45;&gt;Node3</title>
<path fill="none" stroke="midnightblue" d="M139.53,-99.11C150.57,-100.69 161.9,-102.31 172.8,-103.87"/>
<polygon fill="midnightblue" stroke="midnightblue" points="139.88,-95.62 129.49,-97.67 138.89,-102.55 139.88,-95.62"/>
</g>
<!-- Node4 -->
<g id="node4" class="node">
<title>Node4</title>
<g id="a_node4"><a xlink:href="classUtilities_1_1MPI_1_1ConsensusAlgorithms_1_1Selector.html" target="_top" xlink:title=" ">
<polygon fill="white" stroke="black" points="165,-49.5 165,-79.5 317,-79.5 317,-49.5 165,-49.5"/>
<text text-anchor="start" x="173" y="-67.5" font-family="Helvetica,sans-Serif" font-size="10.00">Utilities::MPI::Consensus</text>
<text text-anchor="middle" x="241" y="-56.5" font-family="Helvetica,sans-Serif" font-size="10.00">Algorithms::Selector&lt; T1, T2 &gt;</text>
</a>
</g>
</g>
<!-- Node1&#45;&gt;Node4 -->
<g id="edge3" class="edge">
<title>Node1&#45;&gt;Node4</title>
<path fill="none" stroke="midnightblue" d="M139.56,-78.31C147.91,-77.17 156.42,-76 164.78,-74.85"/>
<polygon fill="midnightblue" stroke="midnightblue" points="138.92,-74.87 129.49,-79.7 139.87,-81.8 138.92,-74.87"/>
</g>
<!-- Node5 -->
<g id="node5" class="node">
<title>Node5</title>
<g id="a_node5"><a xlink:href="classUtilities_1_1MPI_1_1ConsensusAlgorithms_1_1Serial.html" target="_top" xlink:title=" ">
<polygon fill="white" stroke="black" points="171,-0.5 171,-30.5 311,-30.5 311,-0.5 171,-0.5"/>
<text text-anchor="start" x="179" y="-18.5" font-family="Helvetica,sans-Serif" font-size="10.00">Utilities::MPI::Consensus</text>
<text text-anchor="middle" x="241" y="-7.5" font-family="Helvetica,sans-Serif" font-size="10.00">Algorithms::Serial&lt; T1, T2 &gt;</text>
</a>
</g>
</g>
<!-- Node1&#45;&gt;Node5 -->
<g id="edge4" class="edge">
<title>Node1&#45;&gt;Node5</title>
<path fill="none" stroke="midnightblue" d="M114.3,-63.42C130.27,-55.64 148.21,-47.31 165,-40.5 173.52,-37.04 182.72,-33.68 191.66,-30.6"/>
<polygon fill="midnightblue" stroke="midnightblue" points="112.58,-60.37 105.16,-67.93 115.67,-66.65 112.58,-60.37"/>
</g>
</g>
</svg>
