<?xml version="1.0" encoding="UTF-8" standalone="no"?>
<!DOCTYPE svg PUBLIC "-//W3C//DTD SVG 1.1//EN"
 "http://www.w3.org/Graphics/SVG/1.1/DTD/svg11.dtd">
<!-- Generated by graphviz version 2.47.1 (20210417.1919)
 -->
<!-- Title: PreconditionPSOR&lt; MatrixType &gt; Pages: 1 -->
<svg width="243pt" height="242pt"
 viewBox="0.00 0.00 242.50 242.00" xmlns="http://www.w3.org/2000/svg" xmlns:xlink="http://www.w3.org/1999/xlink">
<g id="graph0" class="graph" transform="scale(1 1) rotate(0) translate(4 238)">
<title>PreconditionPSOR&lt; MatrixType &gt;</title>
<polygon fill="white" stroke="transparent" points="-4,4 -4,-238 238.5,-238 238.5,4 -4,4"/>
<!-- Node1 -->
<g id="node1" class="node">
<title>Node1</title>
<g id="a_node1"><a xlink:title=" ">
<polygon fill="#bfbfbf" stroke="black" points="2,-0.5 2,-30.5 137,-30.5 137,-0.5 2,-0.5"/>
<text text-anchor="start" x="10" y="-18.5" font-family="Helvetica,sans-Serif" font-size="10.00">PreconditionPSOR&lt; Matrix</text>
<text text-anchor="middle" x="69.5" y="-7.5" font-family="Helvetica,sans-Serif" font-size="10.00">Type &gt;</text>
</a>
</g>
</g>
<!-- Node2 -->
<g id="node2" class="node">
<title>Node2</title>
<g id="a_node2"><a xlink:href="classPreconditionRelaxation.html" target="_top" xlink:title=" ">
<polygon fill="white" stroke="black" points="0,-68.5 0,-98.5 139,-98.5 139,-68.5 0,-68.5"/>
<text text-anchor="start" x="8" y="-86.5" font-family="Helvetica,sans-Serif" font-size="10.00">PreconditionRelaxation</text>
<text text-anchor="middle" x="69.5" y="-75.5" font-family="Helvetica,sans-Serif" font-size="10.00">&lt; SparseMatrix&lt; double &gt; &gt;</text>
</a>
</g>
</g>
<!-- Node2&#45;&gt;Node1 -->
<g id="edge1" class="edge">
<title>Node2&#45;&gt;Node1</title>
<path fill="none" stroke="midnightblue" d="M69.5,-58.03C69.5,-48.86 69.5,-38.74 69.5,-30.79"/>
<polygon fill="midnightblue" stroke="midnightblue" points="66,-58.18 69.5,-68.18 73,-58.18 66,-58.18"/>
</g>
<!-- Node3 -->
<g id="node3" class="node">
<title>Node3</title>
<g id="a_node3"><a xlink:href="classSubscriptor.html" target="_top" xlink:title=" ">
<polygon fill="white" stroke="black" points="32.5,-214.5 32.5,-233.5 98.5,-233.5 98.5,-214.5 32.5,-214.5"/>
<text text-anchor="middle" x="65.5" y="-221.5" font-family="Helvetica,sans-Serif" font-size="10.00">Subscriptor</text>
</a>
</g>
</g>
<!-- Node3&#45;&gt;Node2 -->
<g id="edge2" class="edge">
<title>Node3&#45;&gt;Node2</title>
<path fill="none" stroke="midnightblue" d="M66.04,-204.25C66.85,-176.19 68.36,-123.88 69.09,-98.73"/>
<polygon fill="midnightblue" stroke="midnightblue" points="62.54,-204.24 65.75,-214.34 69.54,-204.44 62.54,-204.24"/>
</g>
<!-- Node4 -->
<g id="node4" class="node">
<title>Node4</title>
<g id="a_node4"><a xlink:href="classPreconditionRelaxation.html" target="_top" xlink:title=" ">
<polygon fill="white" stroke="black" points="82,-146.5 82,-176.5 199,-176.5 199,-146.5 82,-146.5"/>
<text text-anchor="start" x="90" y="-164.5" font-family="Helvetica,sans-Serif" font-size="10.00">PreconditionRelaxation</text>
<text text-anchor="middle" x="140.5" y="-153.5" font-family="Helvetica,sans-Serif" font-size="10.00">&lt; MatrixType &gt;</text>
</a>
</g>
</g>
<!-- Node3&#45;&gt;Node4 -->
<g id="edge4" class="edge">
<title>Node3&#45;&gt;Node4</title>
<path fill="none" stroke="midnightblue" d="M84.22,-207.9C96.14,-198.29 111.46,-185.92 123.11,-176.53"/>
<polygon fill="midnightblue" stroke="midnightblue" points="81.83,-205.33 76.25,-214.33 86.23,-210.78 81.83,-205.33"/>
</g>
<!-- Node4&#45;&gt;Node2 -->
<g id="edge3" class="edge">
<title>Node4&#45;&gt;Node2</title>
<path fill="none" stroke="orange" stroke-dasharray="5,2" d="M120.11,-138.67C108.11,-125.83 93.29,-109.97 82.79,-98.73"/>
<polygon fill="orange" stroke="orange" points="117.76,-141.29 127.15,-146.2 122.88,-136.51 117.76,-141.29"/>
<text text-anchor="middle" x="171.5" y="-120" font-family="Helvetica,sans-Serif" font-size="10.00"> &lt; SparseMatrix&lt; double &gt; &gt;</text>
</g>
</g>
</svg>
