<?xml version="1.0" encoding="UTF-8" standalone="no"?>
<!DOCTYPE svg PUBLIC "-//W3C//DTD SVG 1.1//EN"
 "http://www.w3.org/Graphics/SVG/1.1/DTD/svg11.dtd">
<!-- Generated by graphviz version 2.47.1 (20210417.1919)
 -->
<!-- Title: FE_Wedge&lt; dim, spacedim &gt; Pages: 1 -->
<svg width="398pt" height="490pt"
 viewBox="0.00 0.00 398.00 490.00" xmlns="http://www.w3.org/2000/svg" xmlns:xlink="http://www.w3.org/1999/xlink">
<g id="graph0" class="graph" transform="scale(1 1) rotate(0) translate(4 486)">
<title>FE_Wedge&lt; dim, spacedim &gt;</title>
<polygon fill="white" stroke="transparent" points="-4,4 -4,-486 394,-486 394,4 -4,4"/>
<!-- Node1 -->
<g id="node1" class="node">
<title>Node1</title>
<g id="a_node1"><a xlink:title=" ">
<polygon fill="#bfbfbf" stroke="black" points="100,-124.5 100,-143.5 246,-143.5 246,-124.5 100,-124.5"/>
<text text-anchor="middle" x="173" y="-131.5" font-family="Helvetica,sans-Serif" font-size="10.00">FE_Wedge&lt; dim, spacedim &gt;</text>
</a>
</g>
</g>
<!-- Node8 -->
<g id="node8" class="node">
<title>Node8</title>
<g id="a_node8"><a xlink:href="classFE__Wedge.html" target="_top" xlink:title=" ">
<polygon fill="white" stroke="black" points="113,-57.5 113,-76.5 233,-76.5 233,-57.5 113,-57.5"/>
<text text-anchor="middle" x="173" y="-64.5" font-family="Helvetica,sans-Serif" font-size="10.00">FE_Wedge&lt; dim, dim &gt;</text>
</a>
</g>
</g>
<!-- Node1&#45;&gt;Node8 -->
<g id="edge11" class="edge">
<title>Node1&#45;&gt;Node8</title>
<path fill="none" stroke="orange" stroke-dasharray="5,2" d="M173,-114.04C173,-101.67 173,-86.12 173,-76.63"/>
<polygon fill="orange" stroke="orange" points="169.5,-114.23 173,-124.23 176.5,-114.23 169.5,-114.23"/>
<text text-anchor="middle" x="202.5" y="-98" font-family="Helvetica,sans-Serif" font-size="10.00"> &lt; dim, dim &gt;</text>
</g>
<!-- Node2 -->
<g id="node2" class="node">
<title>Node2</title>
<g id="a_node2"><a xlink:href="classFE__Poly.html" target="_top" xlink:title=" ">
<polygon fill="white" stroke="black" points="118,-181.5 118,-200.5 228,-200.5 228,-181.5 118,-181.5"/>
<text text-anchor="middle" x="173" y="-188.5" font-family="Helvetica,sans-Serif" font-size="10.00">FE_Poly&lt; dim, dim &gt;</text>
</a>
</g>
</g>
<!-- Node2&#45;&gt;Node1 -->
<g id="edge1" class="edge">
<title>Node2&#45;&gt;Node1</title>
<path fill="none" stroke="midnightblue" d="M173,-171.12C173,-161.82 173,-151.06 173,-143.71"/>
<polygon fill="midnightblue" stroke="midnightblue" points="169.5,-171.41 173,-181.41 176.5,-171.41 169.5,-171.41"/>
</g>
<!-- Node3 -->
<g id="node3" class="node">
<title>Node3</title>
<g id="a_node3"><a xlink:href="classFiniteElement.html" target="_top" xlink:title=" ">
<polygon fill="white" stroke="black" points="84,-383.5 84,-413.5 188,-413.5 188,-383.5 84,-383.5"/>
<text text-anchor="start" x="92" y="-401.5" font-family="Helvetica,sans-Serif" font-size="10.00">FiniteElement&lt; dim,</text>
<text text-anchor="middle" x="136" y="-390.5" font-family="Helvetica,sans-Serif" font-size="10.00"> spacedim &gt;</text>
</a>
</g>
</g>
<!-- Node3&#45;&gt;Node2 -->
<g id="edge2" class="edge">
<title>Node3&#45;&gt;Node2</title>
<path fill="none" stroke="midnightblue" d="M140.33,-373.45C148.55,-327.8 166.07,-230.48 171.42,-200.78"/>
<polygon fill="midnightblue" stroke="midnightblue" points="136.87,-372.91 138.54,-383.38 143.76,-374.15 136.87,-372.91"/>
</g>
<!-- Node3&#45;&gt;Node3 -->
<g id="edge5" class="edge">
<title>Node3&#45;&gt;Node3</title>
<path fill="none" stroke="orange" stroke-dasharray="5,2" d="M198.4,-403.27C203.11,-402.21 206,-400.62 206,-398.5 206,-395.11 198.59,-393.08 188.2,-392.39"/>
<polygon fill="orange" stroke="orange" points="197.66,-399.84 188.2,-404.61 198.57,-406.78 197.66,-399.84"/>
<text text-anchor="middle" x="248.5" y="-396" font-family="Helvetica,sans-Serif" font-size="10.00"> &lt; dim, spacedim &gt;</text>
</g>
<!-- Node7 -->
<g id="node7" class="node">
<title>Node7</title>
<g id="a_node7"><a xlink:href="classFiniteElement.html" target="_top" xlink:title=" ">
<polygon fill="white" stroke="black" points="238,-305.5 238,-335.5 342,-335.5 342,-305.5 238,-305.5"/>
<text text-anchor="start" x="246" y="-323.5" font-family="Helvetica,sans-Serif" font-size="10.00">FiniteElement&lt; dim,</text>
<text text-anchor="middle" x="290" y="-312.5" font-family="Helvetica,sans-Serif" font-size="10.00"> dim &gt;</text>
</a>
</g>
</g>
<!-- Node3&#45;&gt;Node7 -->
<g id="edge10" class="edge">
<title>Node3&#45;&gt;Node7</title>
<path fill="none" stroke="orange" stroke-dasharray="5,2" d="M173.79,-378.85C200.9,-365.47 236.85,-347.73 261.55,-335.54"/>
<polygon fill="orange" stroke="orange" points="172.02,-375.82 164.61,-383.38 175.12,-382.1 172.02,-375.82"/>
<text text-anchor="middle" x="251.5" y="-357" font-family="Helvetica,sans-Serif" font-size="10.00"> &lt; dim, dim &gt;</text>
</g>
<!-- Node4 -->
<g id="node4" class="node">
<title>Node4</title>
<g id="a_node4"><a xlink:href="classSubscriptor.html" target="_top" xlink:title=" ">
<polygon fill="white" stroke="black" points="324,-457 324,-476 390,-476 390,-457 324,-457"/>
<text text-anchor="middle" x="357" y="-464" font-family="Helvetica,sans-Serif" font-size="10.00">Subscriptor</text>
</a>
</g>
</g>
<!-- Node4&#45;&gt;Node3 -->
<g id="edge3" class="edge">
<title>Node4&#45;&gt;Node3</title>
<path fill="none" stroke="midnightblue" d="M318.51,-454.01C280.85,-442.76 223.42,-425.61 183.07,-413.56"/>
<polygon fill="midnightblue" stroke="midnightblue" points="317.52,-457.36 328.11,-456.87 319.53,-450.66 317.52,-457.36"/>
</g>
<!-- Node4&#45;&gt;Node7 -->
<g id="edge8" class="edge">
<title>Node4&#45;&gt;Node7</title>
<path fill="none" stroke="midnightblue" d="M356.86,-446.62C355.85,-423.15 351.31,-382.71 333,-354 328.47,-346.9 321.81,-340.77 315.08,-335.82"/>
<polygon fill="midnightblue" stroke="midnightblue" points="353.37,-447.01 357.12,-456.92 360.37,-446.83 353.37,-447.01"/>
</g>
<!-- Node5 -->
<g id="node5" class="node">
<title>Node5</title>
<g id="a_node5"><a xlink:href="classFiniteElementData.html" target="_top" xlink:title=" ">
<polygon fill="white" stroke="black" points="170,-451.5 170,-481.5 274,-481.5 274,-451.5 170,-451.5"/>
<text text-anchor="start" x="178" y="-469.5" font-family="Helvetica,sans-Serif" font-size="10.00">FiniteElementData&lt;</text>
<text text-anchor="middle" x="222" y="-458.5" font-family="Helvetica,sans-Serif" font-size="10.00"> dim &gt;</text>
</a>
</g>
</g>
<!-- Node5&#45;&gt;Node3 -->
<g id="edge4" class="edge">
<title>Node5&#45;&gt;Node3</title>
<path fill="none" stroke="midnightblue" d="M195.04,-444.81C181.79,-434.64 166.17,-422.66 154.33,-413.57"/>
<polygon fill="midnightblue" stroke="midnightblue" points="193.28,-447.87 203.34,-451.18 197.54,-442.31 193.28,-447.87"/>
</g>
<!-- Node5&#45;&gt;Node7 -->
<g id="edge9" class="edge">
<title>Node5&#45;&gt;Node7</title>
<path fill="none" stroke="midnightblue" d="M266.72,-446.34C279.84,-438.36 292.63,-427.7 300,-414 313.47,-388.97 303.69,-354.63 296.27,-335.62"/>
<polygon fill="midnightblue" stroke="midnightblue" points="264.65,-443.49 257.65,-451.44 268.08,-449.59 264.65,-443.49"/>
</g>
<!-- Node6 -->
<g id="node6" class="node">
<title>Node6</title>
<g id="a_node6"><a xlink:href="classFE__Poly.html" target="_top" xlink:title=" ">
<polygon fill="white" stroke="black" points="190,-248.5 190,-267.5 326,-267.5 326,-248.5 190,-248.5"/>
<text text-anchor="middle" x="258" y="-255.5" font-family="Helvetica,sans-Serif" font-size="10.00">FE_Poly&lt; dim, spacedim &gt;</text>
</a>
</g>
</g>
<!-- Node6&#45;&gt;Node2 -->
<g id="edge6" class="edge">
<title>Node6&#45;&gt;Node2</title>
<path fill="none" stroke="orange" stroke-dasharray="5,2" d="M238.47,-242.07C221.7,-229.24 198.09,-211.19 184.28,-200.63"/>
<polygon fill="orange" stroke="orange" points="236.47,-244.94 246.54,-248.23 240.72,-239.38 236.47,-244.94"/>
<text text-anchor="middle" x="249.5" y="-222" font-family="Helvetica,sans-Serif" font-size="10.00"> &lt; dim, dim &gt;</text>
</g>
<!-- Node7&#45;&gt;Node6 -->
<g id="edge7" class="edge">
<title>Node7&#45;&gt;Node6</title>
<path fill="none" stroke="midnightblue" d="M277.89,-296.6C272.51,-286.43 266.51,-275.08 262.52,-267.54"/>
<polygon fill="midnightblue" stroke="midnightblue" points="274.81,-298.26 282.58,-305.47 281,-294.99 274.81,-298.26"/>
</g>
<!-- Node9 -->
<g id="node9" class="node">
<title>Node9</title>
<g id="a_node9"><a xlink:href="classFE__WedgeDGP.html" target="_top" xlink:title=" ">
<polygon fill="white" stroke="black" points="0,-0.5 0,-19.5 168,-19.5 168,-0.5 0,-0.5"/>
<text text-anchor="middle" x="84" y="-7.5" font-family="Helvetica,sans-Serif" font-size="10.00">FE_WedgeDGP&lt; dim, spacedim &gt;</text>
</a>
</g>
</g>
<!-- Node8&#45;&gt;Node9 -->
<g id="edge12" class="edge">
<title>Node8&#45;&gt;Node9</title>
<path fill="none" stroke="midnightblue" d="M150.52,-52.11C133.93,-41.86 111.88,-28.23 97.81,-19.53"/>
<polygon fill="midnightblue" stroke="midnightblue" points="148.75,-55.13 159.09,-57.41 152.43,-49.17 148.75,-55.13"/>
</g>
<!-- Node10 -->
<g id="node10" class="node">
<title>Node10</title>
<g id="a_node10"><a xlink:href="classFE__WedgeP.html" target="_top" xlink:title=" ">
<polygon fill="white" stroke="black" points="186.5,-0.5 186.5,-19.5 339.5,-19.5 339.5,-0.5 186.5,-0.5"/>
<text text-anchor="middle" x="263" y="-7.5" font-family="Helvetica,sans-Serif" font-size="10.00">FE_WedgeP&lt; dim, spacedim &gt;</text>
</a>
</g>
</g>
<!-- Node8&#45;&gt;Node10 -->
<g id="edge13" class="edge">
<title>Node8&#45;&gt;Node10</title>
<path fill="none" stroke="midnightblue" d="M195.73,-52.11C212.51,-41.86 234.81,-28.23 249.04,-19.53"/>
<polygon fill="midnightblue" stroke="midnightblue" points="193.77,-49.21 187.06,-57.41 197.42,-55.18 193.77,-49.21"/>
</g>
</g>
</svg>
