<?xml version="1.0" encoding="UTF-8" standalone="no"?>
<!DOCTYPE svg PUBLIC "-//W3C//DTD SVG 1.1//EN"
 "http://www.w3.org/Graphics/SVG/1.1/DTD/svg11.dtd">
<!-- Generated by graphviz version 2.47.1 (20210417.1919)
 -->
<!-- Title: FE_P1NC Pages: 1 -->
<svg width="224pt" height="231pt"
 viewBox="0.00 0.00 224.00 231.00" xmlns="http://www.w3.org/2000/svg" xmlns:xlink="http://www.w3.org/1999/xlink">
<g id="graph0" class="graph" transform="scale(1 1) rotate(0) translate(4 227)">
<title>FE_P1NC</title>
<polygon fill="white" stroke="transparent" points="-4,4 -4,-227 220,-227 220,4 -4,4"/>
<!-- Node1 -->
<g id="node1" class="node">
<title>Node1</title>
<g id="a_node1"><a xlink:title=" ">
<polygon fill="#bfbfbf" stroke="black" points="67,-0.5 67,-19.5 129,-19.5 129,-0.5 67,-0.5"/>
<text text-anchor="middle" x="98" y="-7.5" font-family="Helvetica,sans-Serif" font-size="10.00">FE_P1NC</text>
</a>
</g>
</g>
<!-- Node2 -->
<g id="node2" class="node">
<title>Node2</title>
<g id="a_node2"><a xlink:href="classFiniteElement.html" target="_top" xlink:title=" ">
<polygon fill="white" stroke="black" points="42.5,-57.5 42.5,-76.5 153.5,-76.5 153.5,-57.5 42.5,-57.5"/>
<text text-anchor="middle" x="98" y="-64.5" font-family="Helvetica,sans-Serif" font-size="10.00">FiniteElement&lt; 2, 2 &gt;</text>
</a>
</g>
</g>
<!-- Node2&#45;&gt;Node1 -->
<g id="edge1" class="edge">
<title>Node2&#45;&gt;Node1</title>
<path fill="none" stroke="midnightblue" d="M98,-47.12C98,-37.82 98,-27.06 98,-19.71"/>
<polygon fill="midnightblue" stroke="midnightblue" points="94.5,-47.41 98,-57.41 101.5,-47.41 94.5,-47.41"/>
</g>
<!-- Node3 -->
<g id="node3" class="node">
<title>Node3</title>
<g id="a_node3"><a xlink:href="classSubscriptor.html" target="_top" xlink:title=" ">
<polygon fill="white" stroke="black" points="0,-198 0,-217 66,-217 66,-198 0,-198"/>
<text text-anchor="middle" x="33" y="-205" font-family="Helvetica,sans-Serif" font-size="10.00">Subscriptor</text>
</a>
</g>
</g>
<!-- Node3&#45;&gt;Node2 -->
<g id="edge2" class="edge">
<title>Node3&#45;&gt;Node2</title>
<path fill="none" stroke="midnightblue" d="M30,-187.79C28.1,-170.41 27.52,-144.24 37,-124 46.88,-102.91 68.69,-86.09 83.36,-76.58"/>
<polygon fill="midnightblue" stroke="midnightblue" points="26.55,-188.35 31.35,-197.8 33.48,-187.42 26.55,-188.35"/>
</g>
<!-- Node5 -->
<g id="node5" class="node">
<title>Node5</title>
<g id="a_node5"><a xlink:href="classFiniteElement.html" target="_top" xlink:title=" ">
<polygon fill="white" stroke="black" points="46,-124.5 46,-154.5 150,-154.5 150,-124.5 46,-124.5"/>
<text text-anchor="start" x="54" y="-142.5" font-family="Helvetica,sans-Serif" font-size="10.00">FiniteElement&lt; dim,</text>
<text text-anchor="middle" x="98" y="-131.5" font-family="Helvetica,sans-Serif" font-size="10.00"> spacedim &gt;</text>
</a>
</g>
</g>
<!-- Node3&#45;&gt;Node5 -->
<g id="edge5" class="edge">
<title>Node3&#45;&gt;Node5</title>
<path fill="none" stroke="midnightblue" d="M48.64,-190.62C59.42,-179.67 73.63,-165.24 84.03,-154.68"/>
<polygon fill="midnightblue" stroke="midnightblue" points="46.02,-188.29 41.5,-197.87 51.01,-193.2 46.02,-188.29"/>
</g>
<!-- Node4 -->
<g id="node4" class="node">
<title>Node4</title>
<g id="a_node4"><a xlink:href="classFiniteElementData.html" target="_top" xlink:title=" ">
<polygon fill="white" stroke="black" points="112,-192.5 112,-222.5 216,-222.5 216,-192.5 112,-192.5"/>
<text text-anchor="start" x="120" y="-210.5" font-family="Helvetica,sans-Serif" font-size="10.00">FiniteElementData&lt;</text>
<text text-anchor="middle" x="164" y="-199.5" font-family="Helvetica,sans-Serif" font-size="10.00"> dim &gt;</text>
</a>
</g>
</g>
<!-- Node4&#45;&gt;Node2 -->
<g id="edge3" class="edge">
<title>Node4&#45;&gt;Node2</title>
<path fill="none" stroke="midnightblue" d="M165.76,-182.28C166.21,-165.51 165.26,-142.88 159,-124 154.15,-109.37 150.94,-105.85 140,-95 132.61,-87.68 122.92,-81.29 114.71,-76.56"/>
<polygon fill="midnightblue" stroke="midnightblue" points="162.26,-182.22 165.31,-192.37 169.25,-182.53 162.26,-182.22"/>
</g>
<!-- Node4&#45;&gt;Node5 -->
<g id="edge6" class="edge">
<title>Node4&#45;&gt;Node5</title>
<path fill="none" stroke="midnightblue" d="M142.49,-184.99C132.59,-175.09 121.11,-163.61 112.29,-154.79"/>
<polygon fill="midnightblue" stroke="midnightblue" points="140.13,-187.58 149.68,-192.18 145.08,-182.63 140.13,-187.58"/>
</g>
<!-- Node5&#45;&gt;Node2 -->
<g id="edge4" class="edge">
<title>Node5&#45;&gt;Node2</title>
<path fill="none" stroke="orange" stroke-dasharray="5,2" d="M98,-114.09C98,-101.21 98,-86.2 98,-76.89"/>
<polygon fill="orange" stroke="orange" points="94.5,-114.23 98,-124.23 101.5,-114.23 94.5,-114.23"/>
<text text-anchor="middle" x="117" y="-98" font-family="Helvetica,sans-Serif" font-size="10.00"> &lt; 2, 2 &gt;</text>
</g>
</g>
</svg>
