<?xml version="1.0" encoding="UTF-8" standalone="no"?>
<!DOCTYPE svg PUBLIC "-//W3C//DTD SVG 1.1//EN"
 "http://www.w3.org/Graphics/SVG/1.1/DTD/svg11.dtd">
<!-- Generated by graphviz version 2.47.1 (20210417.1919)
 -->
<!-- Title: FE_FaceP&lt; 1, spacedim &gt; Pages: 1 -->
<svg width="224pt" height="288pt"
 viewBox="0.00 0.00 224.00 288.00" xmlns="http://www.w3.org/2000/svg" xmlns:xlink="http://www.w3.org/1999/xlink">
<g id="graph0" class="graph" transform="scale(1 1) rotate(0) translate(4 284)">
<title>FE_FaceP&lt; 1, spacedim &gt;</title>
<polygon fill="white" stroke="transparent" points="-4,4 -4,-284 220,-284 220,4 -4,4"/>
<!-- Node1 -->
<g id="node1" class="node">
<title>Node1</title>
<g id="a_node1"><a xlink:title=" ">
<polygon fill="#bfbfbf" stroke="black" points="21,-0.5 21,-19.5 155,-19.5 155,-0.5 21,-0.5"/>
<text text-anchor="middle" x="88" y="-7.5" font-family="Helvetica,sans-Serif" font-size="10.00">FE_FaceP&lt; 1, spacedim &gt;</text>
</a>
</g>
</g>
<!-- Node2 -->
<g id="node2" class="node">
<title>Node2</title>
<g id="a_node2"><a xlink:href="classFE__FaceQ_3_011_00_01spacedim_01_4.html" target="_top" xlink:title=" ">
<polygon fill="white" stroke="black" points="20.5,-57.5 20.5,-76.5 155.5,-76.5 155.5,-57.5 20.5,-57.5"/>
<text text-anchor="middle" x="88" y="-64.5" font-family="Helvetica,sans-Serif" font-size="10.00">FE_FaceQ&lt; 1, spacedim &gt;</text>
</a>
</g>
</g>
<!-- Node2&#45;&gt;Node1 -->
<g id="edge1" class="edge">
<title>Node2&#45;&gt;Node1</title>
<path fill="none" stroke="midnightblue" d="M88,-47.12C88,-37.82 88,-27.06 88,-19.71"/>
<polygon fill="midnightblue" stroke="midnightblue" points="84.5,-47.41 88,-57.41 91.5,-47.41 84.5,-47.41"/>
</g>
<!-- Node3 -->
<g id="node3" class="node">
<title>Node3</title>
<g id="a_node3"><a xlink:href="classFiniteElement.html" target="_top" xlink:title=" ">
<polygon fill="white" stroke="black" points="14,-114.5 14,-133.5 162,-133.5 162,-114.5 14,-114.5"/>
<text text-anchor="middle" x="88" y="-121.5" font-family="Helvetica,sans-Serif" font-size="10.00">FiniteElement&lt; 1, spacedim &gt;</text>
</a>
</g>
</g>
<!-- Node3&#45;&gt;Node2 -->
<g id="edge2" class="edge">
<title>Node3&#45;&gt;Node2</title>
<path fill="none" stroke="midnightblue" d="M88,-104.12C88,-94.82 88,-84.06 88,-76.71"/>
<polygon fill="midnightblue" stroke="midnightblue" points="84.5,-104.41 88,-114.41 91.5,-104.41 84.5,-104.41"/>
</g>
<!-- Node4 -->
<g id="node4" class="node">
<title>Node4</title>
<g id="a_node4"><a xlink:href="classSubscriptor.html" target="_top" xlink:title=" ">
<polygon fill="white" stroke="black" points="0,-255 0,-274 66,-274 66,-255 0,-255"/>
<text text-anchor="middle" x="33" y="-262" font-family="Helvetica,sans-Serif" font-size="10.00">Subscriptor</text>
</a>
</g>
</g>
<!-- Node4&#45;&gt;Node3 -->
<g id="edge3" class="edge">
<title>Node4&#45;&gt;Node3</title>
<path fill="none" stroke="midnightblue" d="M30.38,-244.48C28.81,-227.23 28.51,-201.44 37,-181 45.27,-161.08 63.87,-143.7 76.18,-133.78"/>
<polygon fill="midnightblue" stroke="midnightblue" points="26.95,-245.36 31.58,-254.89 33.91,-244.56 26.95,-245.36"/>
</g>
<!-- Node6 -->
<g id="node6" class="node">
<title>Node6</title>
<g id="a_node6"><a xlink:href="classFiniteElement.html" target="_top" xlink:title=" ">
<polygon fill="white" stroke="black" points="46,-181.5 46,-211.5 150,-211.5 150,-181.5 46,-181.5"/>
<text text-anchor="start" x="54" y="-199.5" font-family="Helvetica,sans-Serif" font-size="10.00">FiniteElement&lt; dim,</text>
<text text-anchor="middle" x="98" y="-188.5" font-family="Helvetica,sans-Serif" font-size="10.00"> spacedim &gt;</text>
</a>
</g>
</g>
<!-- Node4&#45;&gt;Node6 -->
<g id="edge6" class="edge">
<title>Node4&#45;&gt;Node6</title>
<path fill="none" stroke="midnightblue" d="M48.64,-247.62C59.42,-236.67 73.63,-222.24 84.03,-211.68"/>
<polygon fill="midnightblue" stroke="midnightblue" points="46.02,-245.29 41.5,-254.87 51.01,-250.2 46.02,-245.29"/>
</g>
<!-- Node5 -->
<g id="node5" class="node">
<title>Node5</title>
<g id="a_node5"><a xlink:href="classFiniteElementData.html" target="_top" xlink:title=" ">
<polygon fill="white" stroke="black" points="112,-249.5 112,-279.5 216,-279.5 216,-249.5 112,-249.5"/>
<text text-anchor="start" x="120" y="-267.5" font-family="Helvetica,sans-Serif" font-size="10.00">FiniteElementData&lt;</text>
<text text-anchor="middle" x="164" y="-256.5" font-family="Helvetica,sans-Serif" font-size="10.00"> dim &gt;</text>
</a>
</g>
</g>
<!-- Node5&#45;&gt;Node3 -->
<g id="edge4" class="edge">
<title>Node5&#45;&gt;Node3</title>
<path fill="none" stroke="midnightblue" d="M171.41,-239.42C177.33,-215.07 181.99,-177.48 164,-152 157.94,-143.42 148.91,-137.55 139.17,-133.54"/>
<polygon fill="midnightblue" stroke="midnightblue" points="167.97,-238.71 168.77,-249.28 174.74,-240.53 167.97,-238.71"/>
</g>
<!-- Node5&#45;&gt;Node6 -->
<g id="edge7" class="edge">
<title>Node5&#45;&gt;Node6</title>
<path fill="none" stroke="midnightblue" d="M142.49,-241.99C132.59,-232.09 121.11,-220.61 112.29,-211.79"/>
<polygon fill="midnightblue" stroke="midnightblue" points="140.13,-244.58 149.68,-249.18 145.08,-239.63 140.13,-244.58"/>
</g>
<!-- Node6&#45;&gt;Node3 -->
<g id="edge5" class="edge">
<title>Node6&#45;&gt;Node3</title>
<path fill="none" stroke="orange" stroke-dasharray="5,2" d="M90.65,-171.51C89.99,-168.66 89.42,-165.78 89,-163 87.5,-152.95 87.44,-141.24 87.63,-133.5"/>
<polygon fill="orange" stroke="orange" points="87.34,-172.66 93.3,-181.42 94.1,-170.86 87.34,-172.66"/>
<text text-anchor="middle" x="126.5" y="-155" font-family="Helvetica,sans-Serif" font-size="10.00"> &lt; 1, spacedim &gt;</text>
</g>
</g>
</svg>
