<?xml version="1.0" encoding="UTF-8" standalone="no"?>
<!DOCTYPE svg PUBLIC "-//W3C//DTD SVG 1.1//EN"
 "http://www.w3.org/Graphics/SVG/1.1/DTD/svg11.dtd">
<!-- Generated by graphviz version 2.47.1 (20210417.1919)
 -->
<!-- Title: Point&lt; dim, Number &gt; Pages: 1 -->
<svg width="721pt" height="256pt"
 viewBox="0.00 0.00 721.00 256.00" xmlns="http://www.w3.org/2000/svg" xmlns:xlink="http://www.w3.org/1999/xlink">
<g id="graph0" class="graph" transform="scale(1 1) rotate(0) translate(4 252)">
<title>Point&lt; dim, Number &gt;</title>
<polygon fill="white" stroke="transparent" points="-4,4 -4,-252 717,-252 717,4 -4,4"/>
<!-- Node1 -->
<g id="node1" class="node">
<title>Node1</title>
<g id="a_node1"><a xlink:title=" ">
<polygon fill="#bfbfbf" stroke="black" points="385,-114.5 385,-133.5 498,-133.5 498,-114.5 385,-114.5"/>
<text text-anchor="middle" x="441.5" y="-121.5" font-family="Helvetica,sans-Serif" font-size="10.00">Point&lt; dim, Number &gt;</text>
</a>
</g>
</g>
<!-- Node1&#45;&gt;Node1 -->
<g id="edge3" class="edge">
<title>Node1&#45;&gt;Node1</title>
<path fill="none" stroke="orange" stroke-dasharray="5,2" d="M434.69,-143.77C435.22,-148.5 437.49,-152 441.5,-152 448.08,-152 449.98,-142.57 447.2,-133.76"/>
<polygon fill="orange" stroke="orange" points="438.17,-144.08 435.8,-133.76 431.22,-143.31 438.17,-144.08"/>
<text text-anchor="middle" x="441.5" y="-155" font-family="Helvetica,sans-Serif" font-size="10.00"> &lt; dim, Number &gt;</text>
</g>
<!-- Node1&#45;&gt;Node1 -->
<g id="edge8" class="edge">
<title>Node1&#45;&gt;Node1</title>
<path fill="none" stroke="orange" stroke-dasharray="5,2" d="M429.05,-143.14C425.14,-156.64 429.29,-170 441.5,-170 456.53,-170 459.35,-149.76 449.96,-133.94"/>
<polygon fill="orange" stroke="orange" points="432.27,-144.51 433.04,-133.94 425.85,-141.72 432.27,-144.51"/>
<text text-anchor="middle" x="441.5" y="-173" font-family="Helvetica,sans-Serif" font-size="10.00"> &lt; dim, Number &gt;</text>
</g>
<!-- Node4 -->
<g id="node4" class="node">
<title>Node4</title>
<g id="a_node4"><a xlink:href="classPoint.html" target="_top" xlink:title=" ">
<polygon fill="white" stroke="black" points="628.5,-228.5 628.5,-247.5 690.5,-247.5 690.5,-228.5 628.5,-228.5"/>
<text text-anchor="middle" x="659.5" y="-235.5" font-family="Helvetica,sans-Serif" font-size="10.00">Point&lt; 1 &gt;</text>
</a>
</g>
</g>
<!-- Node1&#45;&gt;Node4 -->
<g id="edge4" class="edge">
<title>Node1&#45;&gt;Node4</title>
<path fill="none" stroke="orange" stroke-dasharray="5,2" d="M455.05,-141.74C468.27,-159.12 490.67,-185.11 516,-200 551.32,-220.76 598.15,-230.41 628.31,-234.73"/>
<polygon fill="orange" stroke="orange" points="457.76,-139.51 449.01,-133.54 452.12,-143.66 457.76,-139.51"/>
<text text-anchor="middle" x="552" y="-229" font-family="Helvetica,sans-Serif" font-size="10.00"> &lt; 1 &gt;</text>
</g>
<!-- Node5 -->
<g id="node5" class="node">
<title>Node5</title>
<g id="a_node5"><a xlink:href="classPoint.html" target="_top" xlink:title=" ">
<polygon fill="white" stroke="black" points="628.5,-190.5 628.5,-209.5 690.5,-209.5 690.5,-190.5 628.5,-190.5"/>
<text text-anchor="middle" x="659.5" y="-197.5" font-family="Helvetica,sans-Serif" font-size="10.00">Point&lt; 2 &gt;</text>
</a>
</g>
</g>
<!-- Node1&#45;&gt;Node5 -->
<g id="edge5" class="edge">
<title>Node1&#45;&gt;Node5</title>
<path fill="none" stroke="orange" stroke-dasharray="5,2" d="M465.4,-138.88C479.52,-147.51 498.27,-158.02 516,-165 553.46,-179.74 598.96,-189.61 628.31,-195.02"/>
<polygon fill="orange" stroke="orange" points="467.18,-135.87 456.85,-133.53 463.47,-141.8 467.18,-135.87"/>
<text text-anchor="middle" x="552" y="-188" font-family="Helvetica,sans-Serif" font-size="10.00"> &lt; 2 &gt;</text>
</g>
<!-- Node6 -->
<g id="node6" class="node">
<title>Node6</title>
<g id="a_node6"><a xlink:href="classPoint.html" target="_top" xlink:title=" ">
<polygon fill="white" stroke="black" points="611,-152.5 611,-171.5 708,-171.5 708,-152.5 611,-152.5"/>
<text text-anchor="middle" x="659.5" y="-159.5" font-family="Helvetica,sans-Serif" font-size="10.00">Point&lt; 2, double &gt;</text>
</a>
</g>
</g>
<!-- Node1&#45;&gt;Node6 -->
<g id="edge6" class="edge">
<title>Node1&#45;&gt;Node6</title>
<path fill="none" stroke="orange" stroke-dasharray="5,2" d="M498.04,-135.59C504.1,-136.78 510.17,-137.94 516,-139 547.55,-144.76 583.18,-150.51 610.92,-154.82"/>
<polygon fill="orange" stroke="orange" points="498.42,-132.09 487.92,-133.58 497.05,-138.96 498.42,-132.09"/>
<text text-anchor="middle" x="552" y="-153" font-family="Helvetica,sans-Serif" font-size="10.00"> &lt; 2, double &gt;</text>
</g>
<!-- Node7 -->
<g id="node7" class="node">
<title>Node7</title>
<g id="a_node7"><a xlink:href="classPoint.html" target="_top" xlink:title=" ">
<polygon fill="white" stroke="black" points="628.5,-114.5 628.5,-133.5 690.5,-133.5 690.5,-114.5 628.5,-114.5"/>
<text text-anchor="middle" x="659.5" y="-121.5" font-family="Helvetica,sans-Serif" font-size="10.00">Point&lt; 3 &gt;</text>
</a>
</g>
</g>
<!-- Node1&#45;&gt;Node7 -->
<g id="edge7" class="edge">
<title>Node1&#45;&gt;Node7</title>
<path fill="none" stroke="orange" stroke-dasharray="5,2" d="M508.34,-124C548.31,-124 597.43,-124 628.36,-124"/>
<polygon fill="orange" stroke="orange" points="508.13,-120.5 498.13,-124 508.13,-127.5 508.13,-120.5"/>
<text text-anchor="middle" x="552" y="-127" font-family="Helvetica,sans-Serif" font-size="10.00"> &lt; 3 &gt;</text>
</g>
<!-- Node8 -->
<g id="node8" class="node">
<title>Node8</title>
<g id="a_node8"><a xlink:href="classPoint.html" target="_top" xlink:title=" ">
<polygon fill="white" stroke="black" points="616,-76.5 616,-95.5 703,-95.5 703,-76.5 616,-76.5"/>
<text text-anchor="middle" x="659.5" y="-83.5" font-family="Helvetica,sans-Serif" font-size="10.00">Point&lt; 3, float &gt;</text>
</a>
</g>
</g>
<!-- Node1&#45;&gt;Node8 -->
<g id="edge9" class="edge">
<title>Node1&#45;&gt;Node8</title>
<path fill="none" stroke="orange" stroke-dasharray="5,2" d="M498.04,-112.41C504.1,-111.22 510.17,-110.06 516,-109 549.4,-102.9 587.37,-96.81 615.71,-92.43"/>
<polygon fill="orange" stroke="orange" points="497.05,-109.04 487.92,-114.42 498.42,-115.91 497.05,-109.04"/>
<text text-anchor="middle" x="552" y="-112" font-family="Helvetica,sans-Serif" font-size="10.00"> &lt; 3, float &gt;</text>
</g>
<!-- Node9 -->
<g id="node9" class="node">
<title>Node9</title>
<g id="a_node9"><a xlink:href="classPoint.html" target="_top" xlink:title=" ">
<polygon fill="white" stroke="black" points="610,-38.5 610,-57.5 709,-57.5 709,-38.5 610,-38.5"/>
<text text-anchor="middle" x="659.5" y="-45.5" font-family="Helvetica,sans-Serif" font-size="10.00">Point&lt; spacedim &gt;</text>
</a>
</g>
</g>
<!-- Node1&#45;&gt;Node9 -->
<g id="edge10" class="edge">
<title>Node1&#45;&gt;Node9</title>
<path fill="none" stroke="orange" stroke-dasharray="5,2" d="M465.4,-109.12C479.52,-100.49 498.27,-89.98 516,-83 546.23,-71.11 581.69,-62.38 609.68,-56.61"/>
<polygon fill="orange" stroke="orange" points="463.47,-106.2 456.85,-114.47 467.18,-112.13 463.47,-106.2"/>
<text text-anchor="middle" x="552" y="-86" font-family="Helvetica,sans-Serif" font-size="10.00"> &lt; spacedim &gt;</text>
</g>
<!-- Node10 -->
<g id="node10" class="node">
<title>Node10</title>
<g id="a_node10"><a xlink:href="classPoint.html" target="_top" xlink:title=" ">
<polygon fill="white" stroke="black" points="606,-0.5 606,-19.5 713,-19.5 713,-0.5 606,-0.5"/>
<text text-anchor="middle" x="659.5" y="-7.5" font-family="Helvetica,sans-Serif" font-size="10.00">Point&lt; dim, double &gt;</text>
</a>
</g>
</g>
<!-- Node1&#45;&gt;Node10 -->
<g id="edge11" class="edge">
<title>Node1&#45;&gt;Node10</title>
<path fill="none" stroke="orange" stroke-dasharray="5,2" d="M455.05,-106.26C468.27,-88.88 490.67,-62.89 516,-48 543.37,-31.91 577.66,-22.49 605.74,-17.06"/>
<polygon fill="orange" stroke="orange" points="452.12,-104.34 449.01,-114.46 457.76,-108.49 452.12,-104.34"/>
<text text-anchor="middle" x="552" y="-51" font-family="Helvetica,sans-Serif" font-size="10.00"> &lt; dim, double &gt;</text>
</g>
<!-- Node2 -->
<g id="node2" class="node">
<title>Node2</title>
<g id="a_node2"><a xlink:href="classTensor.html" target="_top" xlink:title=" ">
<polygon fill="white" stroke="black" points="223,-114.5 223,-133.5 348,-133.5 348,-114.5 223,-114.5"/>
<text text-anchor="middle" x="285.5" y="-121.5" font-family="Helvetica,sans-Serif" font-size="10.00">Tensor&lt; 1, dim, double &gt;</text>
</a>
</g>
</g>
<!-- Node2&#45;&gt;Node1 -->
<g id="edge1" class="edge">
<title>Node2&#45;&gt;Node1</title>
<path fill="none" stroke="midnightblue" d="M358.51,-124C367.31,-124 376.2,-124 384.71,-124"/>
<polygon fill="midnightblue" stroke="midnightblue" points="358.25,-120.5 348.25,-124 358.25,-127.5 358.25,-120.5"/>
</g>
<!-- Node3 -->
<g id="node3" class="node">
<title>Node3</title>
<g id="a_node3"><a xlink:href="classTensor.html" target="_top" xlink:title=" ">
<polygon fill="white" stroke="black" points="0,-109 0,-139 104,-139 104,-109 0,-109"/>
<text text-anchor="start" x="8" y="-127" font-family="Helvetica,sans-Serif" font-size="10.00">Tensor&lt; rank_, dim,</text>
<text text-anchor="middle" x="52" y="-116" font-family="Helvetica,sans-Serif" font-size="10.00"> Number &gt;</text>
</a>
</g>
</g>
<!-- Node3&#45;&gt;Node2 -->
<g id="edge2" class="edge">
<title>Node3&#45;&gt;Node2</title>
<path fill="none" stroke="orange" stroke-dasharray="5,2" d="M114.23,-124C147.77,-124 189.23,-124 222.84,-124"/>
<polygon fill="orange" stroke="orange" points="114.09,-120.5 104.09,-124 114.09,-127.5 114.09,-120.5"/>
<text text-anchor="middle" x="163.5" y="-127" font-family="Helvetica,sans-Serif" font-size="10.00"> &lt; 1, dim, double &gt;</text>
</g>
</g>
</svg>
