<?xml version="1.0" encoding="UTF-8" standalone="no"?>
<!DOCTYPE svg PUBLIC "-//W3C//DTD SVG 1.1//EN"
 "http://www.w3.org/Graphics/SVG/1.1/DTD/svg11.dtd">
<!-- Generated by graphviz version 2.47.1 (20210417.1919)
 -->
<!-- Title: BlockDynamicSparsityPattern Pages: 1 -->
<svg width="253pt" height="231pt"
 viewBox="0.00 0.00 253.00 231.00" xmlns="http://www.w3.org/2000/svg" xmlns:xlink="http://www.w3.org/1999/xlink">
<g id="graph0" class="graph" transform="scale(1 1) rotate(0) translate(4 227)">
<title>BlockDynamicSparsityPattern</title>
<polygon fill="white" stroke="transparent" points="-4,4 -4,-227 249,-227 249,4 -4,4"/>
<!-- Node1 -->
<g id="node1" class="node">
<title>Node1</title>
<g id="a_node1"><a xlink:title=" ">
<polygon fill="#bfbfbf" stroke="black" points="0,-0.5 0,-19.5 148,-19.5 148,-0.5 0,-0.5"/>
<text text-anchor="middle" x="74" y="-7.5" font-family="Helvetica,sans-Serif" font-size="10.00">BlockDynamicSparsityPattern</text>
</a>
</g>
</g>
<!-- Node2 -->
<g id="node2" class="node">
<title>Node2</title>
<g id="a_node2"><a xlink:href="classBlockSparsityPatternBase.html" target="_top" xlink:title=" ">
<polygon fill="white" stroke="black" points="3.5,-57.5 3.5,-87.5 144.5,-87.5 144.5,-57.5 3.5,-57.5"/>
<text text-anchor="start" x="11.5" y="-75.5" font-family="Helvetica,sans-Serif" font-size="10.00">BlockSparsityPatternBase</text>
<text text-anchor="middle" x="74" y="-64.5" font-family="Helvetica,sans-Serif" font-size="10.00">&lt; DynamicSparsityPattern &gt;</text>
</a>
</g>
</g>
<!-- Node2&#45;&gt;Node1 -->
<g id="edge1" class="edge">
<title>Node2&#45;&gt;Node1</title>
<path fill="none" stroke="midnightblue" d="M74,-47.35C74,-37.51 74,-26.78 74,-19.54"/>
<polygon fill="midnightblue" stroke="midnightblue" points="70.5,-47.47 74,-57.47 77.5,-47.47 70.5,-47.47"/>
</g>
<!-- Node3 -->
<g id="node3" class="node">
<title>Node3</title>
<g id="a_node3"><a xlink:href="classSubscriptor.html" target="_top" xlink:title=" ">
<polygon fill="white" stroke="black" points="37,-203.5 37,-222.5 103,-222.5 103,-203.5 37,-203.5"/>
<text text-anchor="middle" x="70" y="-210.5" font-family="Helvetica,sans-Serif" font-size="10.00">Subscriptor</text>
</a>
</g>
</g>
<!-- Node3&#45;&gt;Node2 -->
<g id="edge2" class="edge">
<title>Node3&#45;&gt;Node2</title>
<path fill="none" stroke="midnightblue" d="M70.54,-193.25C71.35,-165.19 72.86,-112.88 73.59,-87.73"/>
<polygon fill="midnightblue" stroke="midnightblue" points="67.04,-193.24 70.25,-203.34 74.04,-193.44 67.04,-193.24"/>
</g>
<!-- Node4 -->
<g id="node4" class="node">
<title>Node4</title>
<g id="a_node4"><a xlink:href="classBlockSparsityPatternBase.html" target="_top" xlink:title=" ">
<polygon fill="white" stroke="black" points="86.5,-135.5 86.5,-165.5 217.5,-165.5 217.5,-135.5 86.5,-135.5"/>
<text text-anchor="start" x="94.5" y="-153.5" font-family="Helvetica,sans-Serif" font-size="10.00">BlockSparsityPatternBase</text>
<text text-anchor="middle" x="152" y="-142.5" font-family="Helvetica,sans-Serif" font-size="10.00">&lt; SparsityPatternType &gt;</text>
</a>
</g>
</g>
<!-- Node3&#45;&gt;Node4 -->
<g id="edge4" class="edge">
<title>Node3&#45;&gt;Node4</title>
<path fill="none" stroke="midnightblue" d="M90.09,-197.18C103.17,-187.53 120.13,-175.01 132.99,-165.53"/>
<polygon fill="midnightblue" stroke="midnightblue" points="87.72,-194.58 81.75,-203.33 91.87,-200.21 87.72,-194.58"/>
</g>
<!-- Node4&#45;&gt;Node2 -->
<g id="edge3" class="edge">
<title>Node4&#45;&gt;Node2</title>
<path fill="none" stroke="orange" stroke-dasharray="5,2" d="M129.97,-128.03C116.73,-115.13 100.24,-99.07 88.61,-87.73"/>
<polygon fill="orange" stroke="orange" points="127.72,-130.73 137.33,-135.2 132.61,-125.72 127.72,-130.73"/>
<text text-anchor="middle" x="181" y="-109" font-family="Helvetica,sans-Serif" font-size="10.00"> &lt; DynamicSparsityPattern &gt;</text>
</g>
</g>
</svg>
