<?xml version="1.0" encoding="UTF-8" standalone="no"?>
<!DOCTYPE svg PUBLIC "-//W3C//DTD SVG 1.1//EN"
 "http://www.w3.org/Graphics/SVG/1.1/DTD/svg11.dtd">
<!-- Generated by graphviz version 2.47.1 (20210417.1919)
 -->
<!-- Title: DataOutInterface&lt; dim, spacedim &gt; Pages: 1 -->
<svg width="1144pt" height="466pt"
 viewBox="0.00 0.00 1144.00 466.00" xmlns="http://www.w3.org/2000/svg" xmlns:xlink="http://www.w3.org/1999/xlink">
<g id="graph0" class="graph" transform="scale(1 1) rotate(0) translate(4 462)">
<title>DataOutInterface&lt; dim, spacedim &gt;</title>
<polygon fill="white" stroke="transparent" points="-4,4 -4,-462 1140,-462 1140,4 -4,4"/>
<!-- Node1 -->
<g id="node1" class="node">
<title>Node1</title>
<g id="a_node1"><a xlink:title=" ">
<polygon fill="#bfbfbf" stroke="black" points="0,-191.5 0,-221.5 119,-221.5 119,-191.5 0,-191.5"/>
<text text-anchor="start" x="8" y="-209.5" font-family="Helvetica,sans-Serif" font-size="10.00">DataOutInterface&lt; dim,</text>
<text text-anchor="middle" x="59.5" y="-198.5" font-family="Helvetica,sans-Serif" font-size="10.00"> spacedim &gt;</text>
</a>
</g>
</g>
<!-- Node2 -->
<g id="node2" class="node">
<title>Node2</title>
<g id="a_node2"><a xlink:href="classDataOut__DoFData.html" target="_top" xlink:title=" ">
<polygon fill="white" stroke="black" points="801,-405.5 801,-457.5 962,-457.5 962,-405.5 801,-405.5"/>
<text text-anchor="start" x="809" y="-445.5" font-family="Helvetica,sans-Serif" font-size="10.00">DataOut_DoFData&lt; DoFHandler</text>
<text text-anchor="start" x="809" y="-434.5" font-family="Helvetica,sans-Serif" font-size="10.00">&lt; dim &gt;, DoFHandlerType</text>
<text text-anchor="start" x="809" y="-423.5" font-family="Helvetica,sans-Serif" font-size="10.00">::dimension &#45; 1, DoFHandlerType</text>
<text text-anchor="middle" x="881.5" y="-412.5" font-family="Helvetica,sans-Serif" font-size="10.00">::dimension &gt;</text>
</a>
</g>
</g>
<!-- Node1&#45;&gt;Node2 -->
<g id="edge1" class="edge">
<title>Node1&#45;&gt;Node2</title>
<path fill="none" stroke="midnightblue" d="M73.19,-230.82C86.26,-253.58 108.69,-286.91 137,-306.5 319.47,-432.73 395.5,-418.15 615,-450.5 688.87,-461.39 708.68,-457.67 783,-450.5 788.84,-449.94 794.84,-449.19 800.87,-448.31"/>
<polygon fill="midnightblue" stroke="midnightblue" points="76.08,-228.83 68.17,-221.79 69.96,-232.23 76.08,-228.83"/>
</g>
<!-- Node4 -->
<g id="node4" class="node">
<title>Node4</title>
<g id="a_node4"><a xlink:href="classDataOut__DoFData.html" target="_top" xlink:title=" ">
<polygon fill="white" stroke="black" points="801.5,-243.5 801.5,-295.5 961.5,-295.5 961.5,-243.5 801.5,-243.5"/>
<text text-anchor="start" x="809.5" y="-283.5" font-family="Helvetica,sans-Serif" font-size="10.00">DataOut_DoFData&lt; DoFHandler</text>
<text text-anchor="start" x="809.5" y="-272.5" font-family="Helvetica,sans-Serif" font-size="10.00">&lt; dim &gt;, DoFHandlerType</text>
<text text-anchor="start" x="809.5" y="-261.5" font-family="Helvetica,sans-Serif" font-size="10.00">::dimension, DoFHandlerType</text>
<text text-anchor="middle" x="881.5" y="-250.5" font-family="Helvetica,sans-Serif" font-size="10.00">::space_dimension &gt;</text>
</a>
</g>
</g>
<!-- Node1&#45;&gt;Node4 -->
<g id="edge3" class="edge">
<title>Node1&#45;&gt;Node4</title>
<path fill="none" stroke="midnightblue" d="M129.32,-220.43C131.91,-220.81 134.48,-221.17 137,-221.5 263.59,-237.93 636.94,-257.56 801.3,-265.69"/>
<polygon fill="midnightblue" stroke="midnightblue" points="129.69,-216.94 119.26,-218.82 128.59,-223.85 129.69,-216.94"/>
</g>
<!-- Node6 -->
<g id="node6" class="node">
<title>Node6</title>
<g id="a_node6"><a xlink:href="classDataOutInterface.html" target="_top" xlink:title=" ">
<polygon fill="white" stroke="black" points="248.5,-197 248.5,-216 374.5,-216 374.5,-197 248.5,-197"/>
<text text-anchor="middle" x="311.5" y="-204" font-family="Helvetica,sans-Serif" font-size="10.00">DataOutInterface&lt; 2, 2 &gt;</text>
</a>
</g>
</g>
<!-- Node1&#45;&gt;Node6 -->
<g id="edge5" class="edge">
<title>Node1&#45;&gt;Node6</title>
<path fill="none" stroke="orange" stroke-dasharray="5,2" d="M129.37,-206.5C166.59,-206.5 212.19,-206.5 248.32,-206.5"/>
<polygon fill="orange" stroke="orange" points="129.11,-203 119.11,-206.5 129.11,-210 129.11,-203"/>
<text text-anchor="middle" x="181" y="-209.5" font-family="Helvetica,sans-Serif" font-size="10.00"> &lt; 2, 2 &gt;</text>
</g>
<!-- Node8 -->
<g id="node8" class="node">
<title>Node8</title>
<g id="a_node8"><a xlink:href="classDataOutInterface.html" target="_top" xlink:title=" ">
<polygon fill="white" stroke="black" points="243,-156 243,-175 380,-175 380,-156 243,-156"/>
<text text-anchor="middle" x="311.5" y="-163" font-family="Helvetica,sans-Serif" font-size="10.00">DataOutInterface&lt; dim+1 &gt;</text>
</a>
</g>
</g>
<!-- Node1&#45;&gt;Node8 -->
<g id="edge7" class="edge">
<title>Node1&#45;&gt;Node8</title>
<path fill="none" stroke="orange" stroke-dasharray="5,2" d="M129.36,-192.85C131.94,-192.38 134.49,-191.93 137,-191.5 171.81,-185.48 210.7,-179.58 242.82,-174.92"/>
<polygon fill="orange" stroke="orange" points="128.54,-189.44 119.34,-194.69 129.81,-196.32 128.54,-189.44"/>
<text text-anchor="middle" x="181" y="-194.5" font-family="Helvetica,sans-Serif" font-size="10.00"> &lt; dim+1 &gt;</text>
</g>
<!-- Node10 -->
<g id="node10" class="node">
<title>Node10</title>
<g id="a_node10"><a xlink:href="classDataOutInterface.html" target="_top" xlink:title=" ">
<polygon fill="white" stroke="black" points="257,-101.5 257,-131.5 366,-131.5 366,-101.5 257,-101.5"/>
<text text-anchor="start" x="265" y="-119.5" font-family="Helvetica,sans-Serif" font-size="10.00">DataOutInterface&lt; 0,</text>
<text text-anchor="middle" x="311.5" y="-108.5" font-family="Helvetica,sans-Serif" font-size="10.00"> dim &gt;</text>
</a>
</g>
</g>
<!-- Node1&#45;&gt;Node10 -->
<g id="edge9" class="edge">
<title>Node1&#45;&gt;Node10</title>
<path fill="none" stroke="orange" stroke-dasharray="5,2" d="M91.97,-185.9C105.43,-177.76 121.58,-168.85 137,-162.5 175.9,-146.48 222.02,-134.57 256.93,-126.88"/>
<polygon fill="orange" stroke="orange" points="89.79,-183.13 83.13,-191.37 93.47,-189.09 89.79,-183.13"/>
<text text-anchor="middle" x="181" y="-165.5" font-family="Helvetica,sans-Serif" font-size="10.00"> &lt; 0, dim &gt;</text>
</g>
<!-- Node12 -->
<g id="node12" class="node">
<title>Node12</title>
<g id="a_node12"><a xlink:href="classDataOutInterface.html" target="_top" xlink:title=" ">
<polygon fill="white" stroke="black" points="249,-273.5 249,-303.5 374,-303.5 374,-273.5 249,-273.5"/>
<text text-anchor="start" x="257" y="-291.5" font-family="Helvetica,sans-Serif" font-size="10.00">DataOutInterface&lt; patch</text>
<text text-anchor="middle" x="311.5" y="-280.5" font-family="Helvetica,sans-Serif" font-size="10.00">_dim, patch_dim &gt;</text>
</a>
</g>
</g>
<!-- Node1&#45;&gt;Node12 -->
<g id="edge11" class="edge">
<title>Node1&#45;&gt;Node12</title>
<path fill="none" stroke="orange" stroke-dasharray="5,2" d="M86.31,-228.14C100.44,-238.89 118.75,-251.12 137,-258.5 172.57,-272.88 214.96,-280.37 248.94,-284.27"/>
<polygon fill="orange" stroke="orange" points="88.12,-225.12 78.09,-221.7 83.8,-230.62 88.12,-225.12"/>
<text text-anchor="start" x="137" y="-294.5" font-family="Helvetica,sans-Serif" font-size="10.00"> &lt; patch_dim, patch</text>
<text text-anchor="middle" x="181" y="-283.5" font-family="Helvetica,sans-Serif" font-size="10.00">_dim &gt;</text>
</g>
<!-- Node16 -->
<g id="node16" class="node">
<title>Node16</title>
<g id="a_node16"><a xlink:href="classDataOutInterface.html" target="_top" xlink:title=" ">
<polygon fill="white" stroke="black" points="252,-49.5 252,-79.5 371,-79.5 371,-49.5 252,-49.5"/>
<text text-anchor="start" x="260" y="-67.5" font-family="Helvetica,sans-Serif" font-size="10.00">DataOutInterface&lt; dim,</text>
<text text-anchor="middle" x="311.5" y="-56.5" font-family="Helvetica,sans-Serif" font-size="10.00"> dim &gt;</text>
</a>
</g>
</g>
<!-- Node1&#45;&gt;Node16 -->
<g id="edge18" class="edge">
<title>Node1&#45;&gt;Node16</title>
<path fill="none" stroke="orange" stroke-dasharray="5,2" d="M75.75,-182.93C89.55,-163.35 111.59,-136.09 137,-119.5 171.8,-96.79 216.62,-82.9 252,-74.76"/>
<polygon fill="orange" stroke="orange" points="72.76,-181.1 70,-191.33 78.54,-185.05 72.76,-181.1"/>
<text text-anchor="middle" x="181" y="-122.5" font-family="Helvetica,sans-Serif" font-size="10.00"> &lt; dim, dim &gt;</text>
</g>
<!-- Node3 -->
<g id="node3" class="node">
<title>Node3</title>
<g id="a_node3"><a xlink:href="classDataOutFaces.html" target="_top" xlink:title=" ">
<polygon fill="white" stroke="black" points="1013.5,-416.5 1013.5,-446.5 1121.5,-446.5 1121.5,-416.5 1013.5,-416.5"/>
<text text-anchor="start" x="1021.5" y="-434.5" font-family="Helvetica,sans-Serif" font-size="10.00">DataOutFaces&lt; dim,</text>
<text text-anchor="middle" x="1067.5" y="-423.5" font-family="Helvetica,sans-Serif" font-size="10.00"> DoFHandlerType &gt;</text>
</a>
</g>
</g>
<!-- Node2&#45;&gt;Node3 -->
<g id="edge2" class="edge">
<title>Node2&#45;&gt;Node3</title>
<path fill="none" stroke="midnightblue" d="M972.31,-431.5C986.34,-431.5 1000.42,-431.5 1013.28,-431.5"/>
<polygon fill="midnightblue" stroke="midnightblue" points="972.13,-428 962.13,-431.5 972.13,-435 972.13,-428"/>
</g>
<!-- Node5 -->
<g id="node5" class="node">
<title>Node5</title>
<g id="a_node5"><a xlink:href="classDataOut.html" target="_top" xlink:title=" ">
<polygon fill="white" stroke="black" points="999,-254.5 999,-284.5 1136,-284.5 1136,-254.5 999,-254.5"/>
<text text-anchor="start" x="1007" y="-272.5" font-family="Helvetica,sans-Serif" font-size="10.00">DataOut&lt; dim, DoFHandler</text>
<text text-anchor="middle" x="1067.5" y="-261.5" font-family="Helvetica,sans-Serif" font-size="10.00">Type &gt;</text>
</a>
</g>
</g>
<!-- Node4&#45;&gt;Node5 -->
<g id="edge4" class="edge">
<title>Node4&#45;&gt;Node5</title>
<path fill="none" stroke="midnightblue" d="M971.8,-269.5C980.86,-269.5 989.96,-269.5 998.74,-269.5"/>
<polygon fill="midnightblue" stroke="midnightblue" points="971.6,-266 961.6,-269.5 971.6,-273 971.6,-266"/>
</g>
<!-- Node7 -->
<g id="node7" class="node">
<title>Node7</title>
<g id="a_node7"><a xlink:href="classMatrixOut.html" target="_top" xlink:title=" ">
<polygon fill="white" stroke="black" points="477.5,-197 477.5,-216 536.5,-216 536.5,-197 477.5,-197"/>
<text text-anchor="middle" x="507" y="-204" font-family="Helvetica,sans-Serif" font-size="10.00">MatrixOut</text>
</a>
</g>
</g>
<!-- Node6&#45;&gt;Node7 -->
<g id="edge6" class="edge">
<title>Node6&#45;&gt;Node7</title>
<path fill="none" stroke="midnightblue" d="M384.8,-206.5C416.94,-206.5 452.93,-206.5 477.28,-206.5"/>
<polygon fill="midnightblue" stroke="midnightblue" points="384.52,-203 374.52,-206.5 384.52,-210 384.52,-203"/>
</g>
<!-- Node9 -->
<g id="node9" class="node">
<title>Node9</title>
<g id="a_node9"><a xlink:href="classDataOutStack_3_01dim_00_01spacedim_00_01void_01_4.html" target="_top" xlink:title=" ">
<polygon fill="white" stroke="black" points="453.5,-147.5 453.5,-177.5 560.5,-177.5 560.5,-147.5 453.5,-147.5"/>
<text text-anchor="start" x="461.5" y="-165.5" font-family="Helvetica,sans-Serif" font-size="10.00">DataOutStack&lt; dim,</text>
<text text-anchor="middle" x="507" y="-154.5" font-family="Helvetica,sans-Serif" font-size="10.00"> spacedim, void &gt;</text>
</a>
</g>
</g>
<!-- Node8&#45;&gt;Node9 -->
<g id="edge8" class="edge">
<title>Node8&#45;&gt;Node9</title>
<path fill="none" stroke="midnightblue" d="M390.43,-164.29C411.56,-163.96 433.93,-163.62 453.3,-163.32"/>
<polygon fill="midnightblue" stroke="midnightblue" points="390.12,-160.8 380.18,-164.45 390.23,-167.8 390.12,-160.8"/>
</g>
<!-- Node11 -->
<g id="node11" class="node">
<title>Node11</title>
<g id="a_node11"><a xlink:href="classParticles_1_1DataOut.html" target="_top" xlink:title=" ">
<polygon fill="white" stroke="black" points="458,-98.5 458,-128.5 556,-128.5 556,-98.5 458,-98.5"/>
<text text-anchor="start" x="466" y="-116.5" font-family="Helvetica,sans-Serif" font-size="10.00">Particles::DataOut</text>
<text text-anchor="middle" x="507" y="-105.5" font-family="Helvetica,sans-Serif" font-size="10.00">&lt; dim, spacedim &gt;</text>
</a>
</g>
</g>
<!-- Node10&#45;&gt;Node11 -->
<g id="edge10" class="edge">
<title>Node10&#45;&gt;Node11</title>
<path fill="none" stroke="midnightblue" d="M376.49,-115.51C403.02,-115.1 433.28,-114.63 457.87,-114.25"/>
<polygon fill="midnightblue" stroke="midnightblue" points="376.09,-112.01 366.14,-115.67 376.2,-119.01 376.09,-112.01"/>
</g>
<!-- Node13 -->
<g id="node13" class="node">
<title>Node13</title>
<g id="a_node13"><a xlink:href="classDataOut__DoFData.html" target="_top" xlink:title=" ">
<polygon fill="white" stroke="black" points="801.5,-335 801.5,-376 961.5,-376 961.5,-335 801.5,-335"/>
<text text-anchor="start" x="809.5" y="-364" font-family="Helvetica,sans-Serif" font-size="10.00">DataOut_DoFData&lt; DoFHandler</text>
<text text-anchor="start" x="809.5" y="-353" font-family="Helvetica,sans-Serif" font-size="10.00">&lt; dim &gt;, DoFHandlerType</text>
<text text-anchor="middle" x="881.5" y="-342" font-family="Helvetica,sans-Serif" font-size="10.00">::dimension+1 &gt;</text>
</a>
</g>
</g>
<!-- Node12&#45;&gt;Node13 -->
<g id="edge12" class="edge">
<title>Node12&#45;&gt;Node13</title>
<path fill="none" stroke="midnightblue" d="M384.1,-278.35C477.84,-267.6 646.29,-257.1 783,-296.5 790.18,-298.57 822.81,-318.72 848.37,-334.91"/>
<polygon fill="midnightblue" stroke="midnightblue" points="383.68,-274.87 374.16,-279.52 384.5,-281.83 383.68,-274.87"/>
</g>
<!-- Node15 -->
<g id="node15" class="node">
<title>Node15</title>
<g id="a_node15"><a xlink:href="classDataOut__DoFData.html" target="_top" xlink:title=" ">
<polygon fill="white" stroke="black" points="417,-340.5 417,-370.5 597,-370.5 597,-340.5 417,-340.5"/>
<text text-anchor="start" x="425" y="-358.5" font-family="Helvetica,sans-Serif" font-size="10.00">DataOut_DoFData&lt; DoFHandler</text>
<text text-anchor="middle" x="507" y="-347.5" font-family="Helvetica,sans-Serif" font-size="10.00">Type, patch_dim, patch_space_dim &gt;</text>
</a>
</g>
</g>
<!-- Node12&#45;&gt;Node15 -->
<g id="edge14" class="edge">
<title>Node12&#45;&gt;Node15</title>
<path fill="none" stroke="midnightblue" d="M365.53,-306.86C395.96,-317.4 433.69,-330.46 462.39,-340.4"/>
<polygon fill="midnightblue" stroke="midnightblue" points="366.52,-303.5 355.93,-303.54 364.23,-310.12 366.52,-303.5"/>
</g>
<!-- Node14 -->
<g id="node14" class="node">
<title>Node14</title>
<g id="a_node14"><a xlink:href="classDataOutRotation.html" target="_top" xlink:title=" ">
<polygon fill="white" stroke="black" points="1008.5,-340.5 1008.5,-370.5 1126.5,-370.5 1126.5,-340.5 1008.5,-340.5"/>
<text text-anchor="start" x="1016.5" y="-358.5" font-family="Helvetica,sans-Serif" font-size="10.00">DataOutRotation&lt; dim,</text>
<text text-anchor="middle" x="1067.5" y="-347.5" font-family="Helvetica,sans-Serif" font-size="10.00"> DoFHandlerType &gt;</text>
</a>
</g>
</g>
<!-- Node13&#45;&gt;Node14 -->
<g id="edge13" class="edge">
<title>Node13&#45;&gt;Node14</title>
<path fill="none" stroke="midnightblue" d="M971.95,-355.5C984.3,-355.5 996.72,-355.5 1008.3,-355.5"/>
<polygon fill="midnightblue" stroke="midnightblue" points="971.6,-352 961.6,-355.5 971.6,-359 971.6,-352"/>
</g>
<!-- Node15&#45;&gt;Node2 -->
<g id="edge15" class="edge">
<title>Node15&#45;&gt;Node2</title>
<path fill="none" stroke="orange" stroke-dasharray="5,2" d="M577.47,-372.94C589.94,-375.91 602.83,-378.88 615,-381.5 677.24,-394.91 748.13,-408.16 800.99,-417.65"/>
<polygon fill="orange" stroke="orange" points="578.12,-369.5 567.58,-370.56 576.49,-376.3 578.12,-369.5"/>
<text text-anchor="start" x="622" y="-438.5" font-family="Helvetica,sans-Serif" font-size="10.00"> &lt; DoFHandler&lt; dim &gt;</text>
<text text-anchor="start" x="622" y="-427.5" font-family="Helvetica,sans-Serif" font-size="10.00">, DoFHandlerType::dimension</text>
<text text-anchor="middle" x="699" y="-416.5" font-family="Helvetica,sans-Serif" font-size="10.00"> &#45; 1, DoFHandlerType::dimension &gt;</text>
</g>
<!-- Node15&#45;&gt;Node4 -->
<g id="edge16" class="edge">
<title>Node15&#45;&gt;Node4</title>
<path fill="none" stroke="orange" stroke-dasharray="5,2" d="M556.93,-336.85C575,-330.42 595.76,-323.57 615,-318.5 676.87,-302.19 748.24,-289.35 801.4,-280.9"/>
<polygon fill="orange" stroke="orange" points="555.42,-333.67 547.2,-340.36 557.79,-340.26 555.42,-333.67"/>
<text text-anchor="start" x="615" y="-343.5" font-family="Helvetica,sans-Serif" font-size="10.00"> &lt; DoFHandler&lt; dim &gt;</text>
<text text-anchor="start" x="615" y="-332.5" font-family="Helvetica,sans-Serif" font-size="10.00">, DoFHandlerType::dimension,</text>
<text text-anchor="middle" x="699" y="-321.5" font-family="Helvetica,sans-Serif" font-size="10.00"> DoFHandlerType::space_dimension &gt;</text>
</g>
<!-- Node15&#45;&gt;Node13 -->
<g id="edge17" class="edge">
<title>Node15&#45;&gt;Node13</title>
<path fill="none" stroke="orange" stroke-dasharray="5,2" d="M607.22,-355.5C668.04,-355.5 744.82,-355.5 801.5,-355.5"/>
<polygon fill="orange" stroke="orange" points="607.22,-352 597.22,-355.5 607.22,-359 607.22,-352"/>
<text text-anchor="start" x="623.5" y="-369.5" font-family="Helvetica,sans-Serif" font-size="10.00"> &lt; DoFHandler&lt; dim &gt;</text>
<text text-anchor="middle" x="699" y="-358.5" font-family="Helvetica,sans-Serif" font-size="10.00">, DoFHandlerType::dimension+1 &gt;</text>
</g>
<!-- Node17 -->
<g id="node17" class="node">
<title>Node17</title>
<g id="a_node17"><a xlink:href="classBoundingBoxDataOut.html" target="_top" xlink:title=" ">
<polygon fill="white" stroke="black" points="451.5,-0.5 451.5,-30.5 562.5,-30.5 562.5,-0.5 451.5,-0.5"/>
<text text-anchor="start" x="459.5" y="-18.5" font-family="Helvetica,sans-Serif" font-size="10.00">BoundingBoxDataOut</text>
<text text-anchor="middle" x="507" y="-7.5" font-family="Helvetica,sans-Serif" font-size="10.00">&lt; dim &gt;</text>
</a>
</g>
</g>
<!-- Node16&#45;&gt;Node17 -->
<g id="edge19" class="edge">
<title>Node16&#45;&gt;Node17</title>
<path fill="none" stroke="midnightblue" d="M380.81,-47.2C403.9,-41.35 429.36,-34.91 451.25,-29.36"/>
<polygon fill="midnightblue" stroke="midnightblue" points="379.92,-43.82 371.08,-49.67 381.63,-50.6 379.92,-43.82"/>
</g>
<!-- Node18 -->
<g id="node18" class="node">
<title>Node18</title>
<g id="a_node18"><a xlink:href="classDataOutReader.html" target="_top" xlink:title=" ">
<polygon fill="white" stroke="black" points="450.5,-49.5 450.5,-79.5 563.5,-79.5 563.5,-49.5 450.5,-49.5"/>
<text text-anchor="start" x="458.5" y="-67.5" font-family="Helvetica,sans-Serif" font-size="10.00">DataOutReader&lt; dim,</text>
<text text-anchor="middle" x="507" y="-56.5" font-family="Helvetica,sans-Serif" font-size="10.00"> spacedim &gt;</text>
</a>
</g>
</g>
<!-- Node16&#45;&gt;Node18 -->
<g id="edge20" class="edge">
<title>Node16&#45;&gt;Node18</title>
<path fill="none" stroke="midnightblue" d="M381.29,-64.5C403.91,-64.5 428.75,-64.5 450.27,-64.5"/>
<polygon fill="midnightblue" stroke="midnightblue" points="381.08,-61 371.08,-64.5 381.08,-68 381.08,-61"/>
</g>
</g>
</svg>
