<?xml version="1.0" encoding="UTF-8" standalone="no"?>
<!DOCTYPE svg PUBLIC "-//W3C//DTD SVG 1.1//EN"
 "http://www.w3.org/Graphics/SVG/1.1/DTD/svg11.dtd">
<!-- Generated by graphviz version 2.47.1 (20210417.1919)
 -->
<!-- Title: SLEPcWrappers::TransformationBase Pages: 1 -->
<svg width="386pt" height="186pt"
 viewBox="0.00 0.00 386.00 186.00" xmlns="http://www.w3.org/2000/svg" xmlns:xlink="http://www.w3.org/1999/xlink">
<g id="graph0" class="graph" transform="scale(1 1) rotate(0) translate(4 182)">
<title>SLEPcWrappers::TransformationBase</title>
<polygon fill="white" stroke="transparent" points="-4,4 -4,-182 382,-182 382,4 -4,4"/>
<!-- Node1 -->
<g id="node1" class="node">
<title>Node1</title>
<g id="a_node1"><a xlink:title=" ">
<polygon fill="#bfbfbf" stroke="black" points="0,-79 0,-98 182,-98 182,-79 0,-79"/>
<text text-anchor="middle" x="91" y="-86" font-family="Helvetica,sans-Serif" font-size="10.00">SLEPcWrappers::TransformationBase</text>
</a>
</g>
</g>
<!-- Node2 -->
<g id="node2" class="node">
<title>Node2</title>
<g id="a_node2"><a xlink:href="classSLEPcWrappers_1_1TransformationCayley.html" target="_top" xlink:title=" ">
<polygon fill="white" stroke="black" points="218,-147.5 218,-177.5 378,-177.5 378,-147.5 218,-147.5"/>
<text text-anchor="start" x="226" y="-165.5" font-family="Helvetica,sans-Serif" font-size="10.00">SLEPcWrappers::Transformation</text>
<text text-anchor="middle" x="298" y="-154.5" font-family="Helvetica,sans-Serif" font-size="10.00">Cayley</text>
</a>
</g>
</g>
<!-- Node1&#45;&gt;Node2 -->
<g id="edge1" class="edge">
<title>Node1&#45;&gt;Node2</title>
<path fill="none" stroke="midnightblue" d="M124.01,-102.05C149.31,-112.56 185.64,-127.19 218,-138.5 226.8,-141.58 236.22,-144.64 245.38,-147.49"/>
<polygon fill="midnightblue" stroke="midnightblue" points="125.13,-98.73 114.55,-98.1 122.43,-105.19 125.13,-98.73"/>
</g>
<!-- Node3 -->
<g id="node3" class="node">
<title>Node3</title>
<g id="a_node3"><a xlink:href="classSLEPcWrappers_1_1TransformationShift.html" target="_top" xlink:title=" ">
<polygon fill="white" stroke="black" points="218,-98.5 218,-128.5 378,-128.5 378,-98.5 218,-98.5"/>
<text text-anchor="start" x="226" y="-116.5" font-family="Helvetica,sans-Serif" font-size="10.00">SLEPcWrappers::Transformation</text>
<text text-anchor="middle" x="298" y="-105.5" font-family="Helvetica,sans-Serif" font-size="10.00">Shift</text>
</a>
</g>
</g>
<!-- Node1&#45;&gt;Node3 -->
<g id="edge2" class="edge">
<title>Node1&#45;&gt;Node3</title>
<path fill="none" stroke="midnightblue" d="M180.06,-99.24C192.59,-100.77 205.42,-102.33 217.77,-103.84"/>
<polygon fill="midnightblue" stroke="midnightblue" points="180.44,-95.76 170.09,-98.02 179.59,-102.71 180.44,-95.76"/>
</g>
<!-- Node4 -->
<g id="node4" class="node">
<title>Node4</title>
<g id="a_node4"><a xlink:href="classSLEPcWrappers_1_1TransformationShiftInvert.html" target="_top" xlink:title=" ">
<polygon fill="white" stroke="black" points="218,-49.5 218,-79.5 378,-79.5 378,-49.5 218,-49.5"/>
<text text-anchor="start" x="226" y="-67.5" font-family="Helvetica,sans-Serif" font-size="10.00">SLEPcWrappers::Transformation</text>
<text text-anchor="middle" x="298" y="-56.5" font-family="Helvetica,sans-Serif" font-size="10.00">ShiftInvert</text>
</a>
</g>
</g>
<!-- Node1&#45;&gt;Node4 -->
<g id="edge3" class="edge">
<title>Node1&#45;&gt;Node4</title>
<path fill="none" stroke="midnightblue" d="M183.35,-77.81C194.83,-76.46 206.51,-75.09 217.79,-73.77"/>
<polygon fill="midnightblue" stroke="midnightblue" points="182.84,-74.34 173.32,-78.98 183.66,-81.29 182.84,-74.34"/>
</g>
<!-- Node5 -->
<g id="node5" class="node">
<title>Node5</title>
<g id="a_node5"><a xlink:href="classSLEPcWrappers_1_1TransformationSpectrumFolding.html" target="_top" xlink:title=" ">
<polygon fill="white" stroke="black" points="218,-0.5 218,-30.5 378,-30.5 378,-0.5 218,-0.5"/>
<text text-anchor="start" x="226" y="-18.5" font-family="Helvetica,sans-Serif" font-size="10.00">SLEPcWrappers::Transformation</text>
<text text-anchor="middle" x="298" y="-7.5" font-family="Helvetica,sans-Serif" font-size="10.00">SpectrumFolding</text>
</a>
</g>
</g>
<!-- Node1&#45;&gt;Node5 -->
<g id="edge4" class="edge">
<title>Node1&#45;&gt;Node5</title>
<path fill="none" stroke="midnightblue" d="M125.49,-75.14C150.77,-65.2 186.39,-51.51 218,-40.5 227.65,-37.14 238.02,-33.72 247.97,-30.53"/>
<polygon fill="midnightblue" stroke="midnightblue" points="124.02,-71.96 116,-78.88 126.59,-78.47 124.02,-71.96"/>
</g>
</g>
</svg>
