<?xml version="1.0" encoding="UTF-8" standalone="no"?>
<!DOCTYPE svg PUBLIC "-//W3C//DTD SVG 1.1//EN"
 "http://www.w3.org/Graphics/SVG/1.1/DTD/svg11.dtd">
<!-- Generated by graphviz version 2.47.1 (20210417.1919)
 -->
<!-- Title: SolverCG&lt; VectorType &gt; Pages: 1 -->
<svg width="230pt" height="287pt"
 viewBox="0.00 0.00 230.00 287.00" xmlns="http://www.w3.org/2000/svg" xmlns:xlink="http://www.w3.org/1999/xlink">
<g id="graph0" class="graph" transform="scale(1 1) rotate(0) translate(4 283)">
<title>SolverCG&lt; VectorType &gt;</title>
<polygon fill="white" stroke="transparent" points="-4,4 -4,-283 226,-283 226,4 -4,4"/>
<!-- Node1 -->
<g id="node1" class="node">
<title>Node1</title>
<g id="a_node1"><a xlink:title=" ">
<polygon fill="#bfbfbf" stroke="black" points="12.5,-67.5 12.5,-86.5 139.5,-86.5 139.5,-67.5 12.5,-67.5"/>
<text text-anchor="middle" x="76" y="-74.5" font-family="Helvetica,sans-Serif" font-size="10.00">SolverCG&lt; VectorType &gt;</text>
</a>
</g>
</g>
<!-- Node5 -->
<g id="node5" class="node">
<title>Node5</title>
<g id="a_node5"><a xlink:href="classSolverCG.html" target="_top" xlink:title=" ">
<polygon fill="white" stroke="black" points="0,-0.5 0,-19.5 152,-19.5 152,-0.5 0,-0.5"/>
<text text-anchor="middle" x="76" y="-7.5" font-family="Helvetica,sans-Serif" font-size="10.00">SolverCG&lt; Vector&lt; double &gt; &gt;</text>
</a>
</g>
</g>
<!-- Node1&#45;&gt;Node5 -->
<g id="edge5" class="edge">
<title>Node1&#45;&gt;Node5</title>
<path fill="none" stroke="orange" stroke-dasharray="5,2" d="M76,-57.04C76,-44.67 76,-29.12 76,-19.63"/>
<polygon fill="orange" stroke="orange" points="72.5,-57.23 76,-67.23 79.5,-57.23 72.5,-57.23"/>
<text text-anchor="middle" x="124.5" y="-41" font-family="Helvetica,sans-Serif" font-size="10.00"> &lt; Vector&lt; double &gt; &gt;</text>
</g>
<!-- Node2 -->
<g id="node2" class="node">
<title>Node2</title>
<g id="a_node2"><a xlink:href="classSolverBase.html" target="_top" xlink:title=" ">
<polygon fill="white" stroke="black" points="24,-124.5 24,-154.5 128,-154.5 128,-124.5 24,-124.5"/>
<text text-anchor="start" x="32" y="-142.5" font-family="Helvetica,sans-Serif" font-size="10.00">SolverBase&lt; Vector</text>
<text text-anchor="middle" x="76" y="-131.5" font-family="Helvetica,sans-Serif" font-size="10.00">&lt; double &gt; &gt;</text>
</a>
</g>
</g>
<!-- Node2&#45;&gt;Node1 -->
<g id="edge1" class="edge">
<title>Node2&#45;&gt;Node1</title>
<path fill="none" stroke="midnightblue" d="M76,-114.35C76,-104.51 76,-93.78 76,-86.54"/>
<polygon fill="midnightblue" stroke="midnightblue" points="72.5,-114.47 76,-124.47 79.5,-114.47 72.5,-114.47"/>
</g>
<!-- Node3 -->
<g id="node3" class="node">
<title>Node3</title>
<g id="a_node3"><a xlink:href="classSubscriptor.html" target="_top" xlink:title=" ">
<polygon fill="white" stroke="black" points="39,-259.5 39,-278.5 105,-278.5 105,-259.5 39,-259.5"/>
<text text-anchor="middle" x="72" y="-266.5" font-family="Helvetica,sans-Serif" font-size="10.00">Subscriptor</text>
</a>
</g>
</g>
<!-- Node3&#45;&gt;Node2 -->
<g id="edge2" class="edge">
<title>Node3&#45;&gt;Node2</title>
<path fill="none" stroke="midnightblue" d="M72.6,-248.9C73.41,-223.05 74.84,-177.54 75.56,-154.59"/>
<polygon fill="midnightblue" stroke="midnightblue" points="69.09,-249.13 72.27,-259.24 76.09,-249.35 69.09,-249.13"/>
</g>
<!-- Node4 -->
<g id="node4" class="node">
<title>Node4</title>
<g id="a_node4"><a xlink:href="classSolverBase.html" target="_top" xlink:title=" ">
<polygon fill="white" stroke="black" points="88,-202.5 88,-221.5 222,-221.5 222,-202.5 88,-202.5"/>
<text text-anchor="middle" x="155" y="-209.5" font-family="Helvetica,sans-Serif" font-size="10.00">SolverBase&lt; VectorType &gt;</text>
</a>
</g>
</g>
<!-- Node3&#45;&gt;Node4 -->
<g id="edge4" class="edge">
<title>Node3&#45;&gt;Node4</title>
<path fill="none" stroke="midnightblue" d="M93.39,-253.82C108.81,-243.61 129.12,-230.15 142.12,-221.53"/>
<polygon fill="midnightblue" stroke="midnightblue" points="91.37,-250.96 84.97,-259.41 95.24,-256.8 91.37,-250.96"/>
</g>
<!-- Node4&#45;&gt;Node2 -->
<g id="edge3" class="edge">
<title>Node4&#45;&gt;Node2</title>
<path fill="none" stroke="orange" stroke-dasharray="5,2" d="M137.56,-195.44C123.88,-183.23 105.01,-166.39 91.77,-154.58"/>
<polygon fill="orange" stroke="orange" points="135.52,-198.31 145.31,-202.36 140.18,-193.09 135.52,-198.31"/>
<text text-anchor="middle" x="170.5" y="-176" font-family="Helvetica,sans-Serif" font-size="10.00"> &lt; Vector&lt; double &gt; &gt;</text>
</g>
</g>
</svg>
