<?xml version="1.0" encoding="UTF-8" standalone="no"?>
<!DOCTYPE svg PUBLIC "-//W3C//DTD SVG 1.1//EN"
 "http://www.w3.org/Graphics/SVG/1.1/DTD/svg11.dtd">
<!-- Generated by graphviz version 2.47.1 (20210417.1919)
 -->
<!-- Title: TriaAccessorBase&lt; structdim, dim, spacedim &gt; Pages: 1 -->
<svg width="457pt" height="331pt"
 viewBox="0.00 0.00 457.00 331.00" xmlns="http://www.w3.org/2000/svg" xmlns:xlink="http://www.w3.org/1999/xlink">
<g id="graph0" class="graph" transform="scale(1 1) rotate(0) translate(4 327)">
<title>TriaAccessorBase&lt; structdim, dim, spacedim &gt;</title>
<polygon fill="white" stroke="transparent" points="-4,4 -4,-327 453,-327 453,4 -4,4"/>
<!-- Node1 -->
<g id="node1" class="node">
<title>Node1</title>
<g id="a_node1"><a xlink:title=" ">
<polygon fill="#bfbfbf" stroke="black" points="0,-292.5 0,-322.5 149,-322.5 149,-292.5 0,-292.5"/>
<text text-anchor="start" x="8" y="-310.5" font-family="Helvetica,sans-Serif" font-size="10.00">TriaAccessorBase&lt; structdim,</text>
<text text-anchor="middle" x="74.5" y="-299.5" font-family="Helvetica,sans-Serif" font-size="10.00"> dim, spacedim &gt;</text>
</a>
</g>
</g>
<!-- Node1&#45;&gt;Node1 -->
<g id="edge1" class="edge">
<title>Node1&#45;&gt;Node1</title>
<path fill="none" stroke="orange" stroke-dasharray="5,2" d="M159.54,-309.88C164.22,-309.3 167,-308.51 167,-307.5 167,-305.89 159.88,-304.82 149.26,-304.3"/>
<polygon fill="orange" stroke="orange" points="158.96,-306.42 149.26,-310.7 159.51,-313.4 158.96,-306.42"/>
<text text-anchor="middle" x="233" y="-305" font-family="Helvetica,sans-Serif" font-size="10.00"> &lt; structdim, dim, spacedim &gt;</text>
</g>
<!-- Node1&#45;&gt;Node1 -->
<g id="edge2" class="edge">
<title>Node1&#45;&gt;Node1</title>
<path fill="none" stroke="orange" stroke-dasharray="5,2" d="M159.51,-314.13C224,-315.71 299,-313.51 299,-307.5 299,-301.17 215.76,-299.06 149.27,-301.16"/>
<polygon fill="orange" stroke="orange" points="159.36,-310.62 149.27,-313.84 159.17,-317.62 159.36,-310.62"/>
<text text-anchor="middle" x="365" y="-305" font-family="Helvetica,sans-Serif" font-size="10.00"> &lt; structdim, dim, spacedim &gt;</text>
</g>
<!-- Node2 -->
<g id="node2" class="node">
<title>Node2</title>
<g id="a_node2"><a xlink:href="classTriaAccessorBase.html" target="_top" xlink:title=" ">
<polygon fill="white" stroke="black" points="0,-214.5 0,-244.5 149,-244.5 149,-214.5 0,-214.5"/>
<text text-anchor="start" x="8" y="-232.5" font-family="Helvetica,sans-Serif" font-size="10.00">TriaAccessorBase&lt; structdim,</text>
<text text-anchor="middle" x="74.5" y="-221.5" font-family="Helvetica,sans-Serif" font-size="10.00"> dim, dim &gt;</text>
</a>
</g>
</g>
<!-- Node1&#45;&gt;Node2 -->
<g id="edge3" class="edge">
<title>Node1&#45;&gt;Node2</title>
<path fill="none" stroke="orange" stroke-dasharray="5,2" d="M74.5,-282.09C74.5,-269.76 74.5,-255.22 74.5,-244.73"/>
<polygon fill="orange" stroke="orange" points="71,-282.2 74.5,-292.2 78,-282.21 71,-282.2"/>
<text text-anchor="middle" x="127.5" y="-266" font-family="Helvetica,sans-Serif" font-size="10.00"> &lt; structdim, dim, dim &gt;</text>
</g>
<!-- Node3 -->
<g id="node3" class="node">
<title>Node3</title>
<g id="a_node3"><a xlink:href="classInvalidAccessor.html" target="_top" xlink:title=" ">
<polygon fill="white" stroke="black" points="5,-146.5 5,-176.5 144,-176.5 144,-146.5 5,-146.5"/>
<text text-anchor="start" x="13" y="-164.5" font-family="Helvetica,sans-Serif" font-size="10.00">InvalidAccessor&lt; structdim,</text>
<text text-anchor="middle" x="74.5" y="-153.5" font-family="Helvetica,sans-Serif" font-size="10.00"> dim, spacedim &gt;</text>
</a>
</g>
</g>
<!-- Node2&#45;&gt;Node3 -->
<g id="edge4" class="edge">
<title>Node2&#45;&gt;Node3</title>
<path fill="none" stroke="midnightblue" d="M74.5,-204.03C74.5,-194.86 74.5,-184.74 74.5,-176.79"/>
<polygon fill="midnightblue" stroke="midnightblue" points="71,-204.18 74.5,-214.18 78,-204.18 71,-204.18"/>
</g>
<!-- Node4 -->
<g id="node4" class="node">
<title>Node4</title>
<g id="a_node4"><a xlink:href="classInvalidAccessor.html" target="_top" xlink:title=" ">
<polygon fill="white" stroke="black" points="5,-68.5 5,-98.5 144,-98.5 144,-68.5 5,-68.5"/>
<text text-anchor="start" x="13" y="-86.5" font-family="Helvetica,sans-Serif" font-size="10.00">InvalidAccessor&lt; structdim,</text>
<text text-anchor="middle" x="74.5" y="-75.5" font-family="Helvetica,sans-Serif" font-size="10.00"> dim, dim &gt;</text>
</a>
</g>
</g>
<!-- Node3&#45;&gt;Node4 -->
<g id="edge5" class="edge">
<title>Node3&#45;&gt;Node4</title>
<path fill="none" stroke="orange" stroke-dasharray="5,2" d="M74.5,-136.09C74.5,-123.76 74.5,-109.22 74.5,-98.73"/>
<polygon fill="orange" stroke="orange" points="71,-136.2 74.5,-146.2 78,-136.21 71,-136.2"/>
<text text-anchor="middle" x="127.5" y="-120" font-family="Helvetica,sans-Serif" font-size="10.00"> &lt; structdim, dim, dim &gt;</text>
</g>
<!-- Node5 -->
<g id="node5" class="node">
<title>Node5</title>
<g id="a_node5"><a xlink:href="classDoFInvalidAccessor.html" target="_top" xlink:title=" ">
<polygon fill="white" stroke="black" points="2,-0.5 2,-30.5 147,-30.5 147,-0.5 2,-0.5"/>
<text text-anchor="start" x="10" y="-18.5" font-family="Helvetica,sans-Serif" font-size="10.00">DoFInvalidAccessor</text>
<text text-anchor="middle" x="74.5" y="-7.5" font-family="Helvetica,sans-Serif" font-size="10.00">&lt; structdim, dim, spacedim &gt;</text>
</a>
</g>
</g>
<!-- Node4&#45;&gt;Node5 -->
<g id="edge6" class="edge">
<title>Node4&#45;&gt;Node5</title>
<path fill="none" stroke="midnightblue" d="M74.5,-58.03C74.5,-48.86 74.5,-38.74 74.5,-30.79"/>
<polygon fill="midnightblue" stroke="midnightblue" points="71,-58.18 74.5,-68.18 78,-58.18 71,-58.18"/>
</g>
</g>
</svg>
