<?xml version="1.0" encoding="UTF-8" standalone="no"?>
<!DOCTYPE svg PUBLIC "-//W3C//DTD SVG 1.1//EN"
 "http://www.w3.org/Graphics/SVG/1.1/DTD/svg11.dtd">
<!-- Generated by graphviz version 2.47.1 (20210417.1919)
 -->
<!-- Title: MatrixTableIterators::Accessor&lt; TableType, false, storage_order &gt; Pages: 1 -->
<svg width="167pt" height="229pt"
 viewBox="0.00 0.00 166.50 229.00" xmlns="http://www.w3.org/2000/svg" xmlns:xlink="http://www.w3.org/1999/xlink">
<g id="graph0" class="graph" transform="scale(1 1) rotate(0) translate(4 225)">
<title>MatrixTableIterators::Accessor&lt; TableType, false, storage_order &gt;</title>
<polygon fill="white" stroke="transparent" points="-4,4 -4,-225 162.5,-225 162.5,4 -4,4"/>
<!-- Node1 -->
<g id="node1" class="node">
<title>Node1</title>
<g id="a_node1"><a xlink:title="Accessor class offering read and write access to the elements of a table.">
<polygon fill="#bfbfbf" stroke="black" points="11.5,-0.5 11.5,-41.5 131.5,-41.5 131.5,-0.5 11.5,-0.5"/>
<text text-anchor="start" x="19.5" y="-29.5" font-family="Helvetica,sans-Serif" font-size="10.00">MatrixTableIterators</text>
<text text-anchor="start" x="19.5" y="-18.5" font-family="Helvetica,sans-Serif" font-size="10.00">::Accessor&lt; TableType,</text>
<text text-anchor="middle" x="71.5" y="-7.5" font-family="Helvetica,sans-Serif" font-size="10.00"> false, storage_order &gt;</text>
</a>
</g>
</g>
<!-- Node2 -->
<g id="node2" class="node">
<title>Node2</title>
<g id="a_node2"><a xlink:href="classMatrixTableIterators_1_1AccessorBase.html" target="_top" xlink:title=" ">
<polygon fill="white" stroke="black" points="0,-79.5 0,-120.5 143,-120.5 143,-79.5 0,-79.5"/>
<text text-anchor="start" x="8" y="-108.5" font-family="Helvetica,sans-Serif" font-size="10.00">MatrixTableIterators</text>
<text text-anchor="start" x="8" y="-97.5" font-family="Helvetica,sans-Serif" font-size="10.00">::AccessorBase&lt; TableType,</text>
<text text-anchor="middle" x="71.5" y="-86.5" font-family="Helvetica,sans-Serif" font-size="10.00"> false, storage_order &gt;</text>
</a>
</g>
</g>
<!-- Node2&#45;&gt;Node1 -->
<g id="edge1" class="edge">
<title>Node2&#45;&gt;Node1</title>
<path fill="none" stroke="midnightblue" d="M71.5,-68.91C71.5,-59.79 71.5,-50.02 71.5,-41.76"/>
<polygon fill="midnightblue" stroke="midnightblue" points="68,-69.17 71.5,-79.17 75,-69.17 68,-69.17"/>
</g>
<!-- Node3 -->
<g id="node3" class="node">
<title>Node3</title>
<g id="a_node3"><a xlink:href="classMatrixTableIterators_1_1AccessorBase.html" target="_top" xlink:title="Accessor base class for Table&lt;2, T&gt; and TransposeTable.">
<polygon fill="white" stroke="black" points="0,-179.5 0,-220.5 143,-220.5 143,-179.5 0,-179.5"/>
<text text-anchor="start" x="8" y="-208.5" font-family="Helvetica,sans-Serif" font-size="10.00">MatrixTableIterators</text>
<text text-anchor="start" x="8" y="-197.5" font-family="Helvetica,sans-Serif" font-size="10.00">::AccessorBase&lt; TableType,</text>
<text text-anchor="middle" x="71.5" y="-186.5" font-family="Helvetica,sans-Serif" font-size="10.00"> Constness, storage_order &gt;</text>
</a>
</g>
</g>
<!-- Node3&#45;&gt;Node2 -->
<g id="edge2" class="edge">
<title>Node3&#45;&gt;Node2</title>
<path fill="none" stroke="orange" stroke-dasharray="5,2" d="M71.5,-168.92C71.5,-153.29 71.5,-134.61 71.5,-120.8"/>
<polygon fill="orange" stroke="orange" points="68,-169.17 71.5,-179.17 75,-169.17 68,-169.17"/>
<text text-anchor="start" x="71.5" y="-153" font-family="Helvetica,sans-Serif" font-size="10.00"> &lt; TableType, false,</text>
<text text-anchor="middle" x="115" y="-142" font-family="Helvetica,sans-Serif" font-size="10.00"> storage_order &gt;</text>
</g>
</g>
</svg>
