<?xml version="1.0" encoding="UTF-8" standalone="no"?>
<!DOCTYPE svg PUBLIC "-//W3C//DTD SVG 1.1//EN"
 "http://www.w3.org/Graphics/SVG/1.1/DTD/svg11.dtd">
<!-- Generated by graphviz version 2.47.1 (20210417.1919)
 -->
<!-- Title: MGTransferBase&lt; VectorType &gt; Pages: 1 -->
<svg width="929pt" height="332pt"
 viewBox="0.00 0.00 929.00 331.50" xmlns="http://www.w3.org/2000/svg" xmlns:xlink="http://www.w3.org/1999/xlink">
<g id="graph0" class="graph" transform="scale(1 1) rotate(0) translate(4 327.5)">
<title>MGTransferBase&lt; VectorType &gt;</title>
<polygon fill="white" stroke="transparent" points="-4,4 -4,-327.5 925,-327.5 925,4 -4,4"/>
<!-- Node1 -->
<g id="node1" class="node">
<title>Node1</title>
<g id="a_node1"><a xlink:title=" ">
<polygon fill="#bfbfbf" stroke="black" points="103,-179.5 103,-198.5 261,-198.5 261,-179.5 103,-179.5"/>
<text text-anchor="middle" x="182" y="-186.5" font-family="Helvetica,sans-Serif" font-size="10.00">MGTransferBase&lt; VectorType &gt;</text>
</a>
</g>
</g>
<!-- Node3 -->
<g id="node3" class="node">
<title>Node3</title>
<g id="a_node3"><a xlink:href="classMGLevelGlobalTransfer.html" target="_top" xlink:title=" ">
<polygon fill="white" stroke="black" points="444.5,-293 444.5,-323 563.5,-323 563.5,-293 444.5,-293"/>
<text text-anchor="start" x="452.5" y="-311" font-family="Helvetica,sans-Serif" font-size="10.00">MGLevelGlobalTransfer</text>
<text text-anchor="middle" x="504" y="-300" font-family="Helvetica,sans-Serif" font-size="10.00">&lt; VectorType &gt;</text>
</a>
</g>
</g>
<!-- Node1&#45;&gt;Node3 -->
<g id="edge2" class="edge">
<title>Node1&#45;&gt;Node3</title>
<path fill="none" stroke="midnightblue" d="M202.26,-205.13C220.82,-219.88 250.23,-241.29 279,-254 332.43,-277.59 397.77,-291.84 444.06,-299.73"/>
<polygon fill="midnightblue" stroke="midnightblue" points="204.28,-202.26 194.31,-198.68 199.87,-207.7 204.28,-202.26"/>
</g>
<!-- Node5 -->
<g id="node5" class="node">
<title>Node5</title>
<g id="a_node5"><a xlink:href="classMGTransferGlobalCoarsening.html" target="_top" xlink:title=" ">
<polygon fill="white" stroke="black" points="431,-244 431,-274 577,-274 577,-244 431,-244"/>
<text text-anchor="start" x="439" y="-262" font-family="Helvetica,sans-Serif" font-size="10.00">MGTransferGlobalCoarsening</text>
<text text-anchor="middle" x="504" y="-251" font-family="Helvetica,sans-Serif" font-size="10.00">&lt; dim, VectorType &gt;</text>
</a>
</g>
</g>
<!-- Node1&#45;&gt;Node5 -->
<g id="edge4" class="edge">
<title>Node1&#45;&gt;Node5</title>
<path fill="none" stroke="midnightblue" d="M210.38,-203.09C229.2,-212.17 255.03,-223.46 279,-230 328.75,-243.56 386.49,-250.85 430.89,-254.72"/>
<polygon fill="midnightblue" stroke="midnightblue" points="211.74,-199.86 201.22,-198.58 208.64,-206.14 211.74,-199.86"/>
</g>
<!-- Node6 -->
<g id="node6" class="node">
<title>Node6</title>
<g id="a_node6"><a xlink:href="classMGTransferBase.html" target="_top" xlink:title=" ">
<polygon fill="white" stroke="black" points="422,-195 422,-225 586,-225 586,-195 422,-195"/>
<text text-anchor="start" x="430" y="-213" font-family="Helvetica,sans-Serif" font-size="10.00">MGTransferBase&lt; LinearAlgebra</text>
<text text-anchor="middle" x="504" y="-202" font-family="Helvetica,sans-Serif" font-size="10.00">::distributed::Vector&lt; Number &gt; &gt;</text>
</a>
</g>
</g>
<!-- Node1&#45;&gt;Node6 -->
<g id="edge5" class="edge">
<title>Node1&#45;&gt;Node6</title>
<path fill="none" stroke="orange" stroke-dasharray="5,2" d="M271.46,-194.81C318.53,-197.89 376,-201.67 421.91,-204.68"/>
<polygon fill="orange" stroke="orange" points="271.49,-191.3 261.28,-194.14 271.03,-198.28 271.49,-191.3"/>
<text text-anchor="start" x="280" y="-218" font-family="Helvetica,sans-Serif" font-size="10.00"> &lt; LinearAlgebra::distributed</text>
<text text-anchor="middle" x="341.5" y="-207" font-family="Helvetica,sans-Serif" font-size="10.00">::Vector&lt; Number &gt; &gt;</text>
</g>
<!-- Node9 -->
<g id="node9" class="node">
<title>Node9</title>
<g id="a_node9"><a xlink:href="classMGTransferBase.html" target="_top" xlink:title=" ">
<polygon fill="white" stroke="black" points="427.5,-146 427.5,-176 580.5,-176 580.5,-146 427.5,-146"/>
<text text-anchor="start" x="435.5" y="-164" font-family="Helvetica,sans-Serif" font-size="10.00">MGTransferBase&lt; BlockVector</text>
<text text-anchor="middle" x="504" y="-153" font-family="Helvetica,sans-Serif" font-size="10.00">&lt; number &gt; &gt;</text>
</a>
</g>
</g>
<!-- Node1&#45;&gt;Node9 -->
<g id="edge8" class="edge">
<title>Node1&#45;&gt;Node9</title>
<path fill="none" stroke="orange" stroke-dasharray="5,2" d="M271.24,-181.28C320.27,-176.99 380.63,-171.71 427.46,-167.61"/>
<polygon fill="orange" stroke="orange" points="270.94,-177.79 261.28,-182.15 271.55,-184.77 270.94,-177.79"/>
<text text-anchor="middle" x="341.5" y="-183" font-family="Helvetica,sans-Serif" font-size="10.00"> &lt; BlockVector&lt; number &gt; &gt;</text>
</g>
<!-- Node11 -->
<g id="node11" class="node">
<title>Node11</title>
<g id="a_node11"><a xlink:href="classMGTransferBase.html" target="_top" xlink:title=" ">
<polygon fill="white" stroke="black" points="424.5,-85.5 424.5,-126.5 583.5,-126.5 583.5,-85.5 424.5,-85.5"/>
<text text-anchor="start" x="432.5" y="-114.5" font-family="Helvetica,sans-Serif" font-size="10.00">MGTransferBase&lt; LinearAlgebra</text>
<text text-anchor="start" x="432.5" y="-103.5" font-family="Helvetica,sans-Serif" font-size="10.00">::distributed::BlockVector</text>
<text text-anchor="middle" x="504" y="-92.5" font-family="Helvetica,sans-Serif" font-size="10.00">&lt; Number &gt; &gt;</text>
</a>
</g>
</g>
<!-- Node1&#45;&gt;Node11 -->
<g id="edge10" class="edge">
<title>Node1&#45;&gt;Node11</title>
<path fill="none" stroke="orange" stroke-dasharray="5,2" d="M209.05,-174.83C227.96,-165.11 254.44,-152.63 279,-145 326.22,-130.34 380.85,-120.69 424.34,-114.65"/>
<polygon fill="orange" stroke="orange" points="207.39,-171.75 200.16,-179.49 210.64,-177.95 207.39,-171.75"/>
<text text-anchor="start" x="280" y="-159" font-family="Helvetica,sans-Serif" font-size="10.00"> &lt; LinearAlgebra::distributed</text>
<text text-anchor="middle" x="341.5" y="-148" font-family="Helvetica,sans-Serif" font-size="10.00">::BlockVector&lt; Number &gt; &gt;</text>
</g>
<!-- Node13 -->
<g id="node13" class="node">
<title>Node13</title>
<g id="a_node13"><a xlink:href="classMGTransferBase.html" target="_top" xlink:title=" ">
<polygon fill="white" stroke="black" points="440,-36 440,-66 568,-66 568,-36 440,-36"/>
<text text-anchor="start" x="448" y="-54" font-family="Helvetica,sans-Serif" font-size="10.00">MGTransferBase&lt; Vector</text>
<text text-anchor="middle" x="504" y="-43" font-family="Helvetica,sans-Serif" font-size="10.00">&lt; number &gt; &gt;</text>
</a>
</g>
</g>
<!-- Node1&#45;&gt;Node13 -->
<g id="edge12" class="edge">
<title>Node1&#45;&gt;Node13</title>
<path fill="none" stroke="orange" stroke-dasharray="5,2" d="M197.7,-171.62C215.11,-152.17 245.95,-121.14 279,-104 329.55,-77.78 393.23,-64.33 439.76,-57.55"/>
<polygon fill="orange" stroke="orange" points="194.83,-169.58 190.89,-179.41 200.1,-174.18 194.83,-169.58"/>
<text text-anchor="middle" x="341.5" y="-107" font-family="Helvetica,sans-Serif" font-size="10.00"> &lt; Vector&lt; number &gt; &gt;</text>
</g>
<!-- Node2 -->
<g id="node2" class="node">
<title>Node2</title>
<g id="a_node2"><a xlink:href="classSubscriptor.html" target="_top" xlink:title=" ">
<polygon fill="white" stroke="black" points="0,-179.5 0,-198.5 66,-198.5 66,-179.5 0,-179.5"/>
<text text-anchor="middle" x="33" y="-186.5" font-family="Helvetica,sans-Serif" font-size="10.00">Subscriptor</text>
</a>
</g>
</g>
<!-- Node2&#45;&gt;Node1 -->
<g id="edge1" class="edge">
<title>Node2&#45;&gt;Node1</title>
<path fill="none" stroke="midnightblue" d="M76.4,-189C84.72,-189 93.68,-189 102.74,-189"/>
<polygon fill="midnightblue" stroke="midnightblue" points="76.26,-185.5 66.26,-189 76.26,-192.5 76.26,-185.5"/>
</g>
<!-- Node4 -->
<g id="node4" class="node">
<title>Node4</title>
<g id="a_node4"><a xlink:href="classMGTransferPrebuilt.html" target="_top" xlink:title=" ">
<polygon fill="white" stroke="black" points="645.5,-293 645.5,-323 746.5,-323 746.5,-293 645.5,-293"/>
<text text-anchor="start" x="653.5" y="-311" font-family="Helvetica,sans-Serif" font-size="10.00">MGTransferPrebuilt</text>
<text text-anchor="middle" x="696" y="-300" font-family="Helvetica,sans-Serif" font-size="10.00">&lt; VectorType &gt;</text>
</a>
</g>
</g>
<!-- Node3&#45;&gt;Node4 -->
<g id="edge3" class="edge">
<title>Node3&#45;&gt;Node4</title>
<path fill="none" stroke="midnightblue" d="M573.87,-308C597.5,-308 623.47,-308 645.28,-308"/>
<polygon fill="midnightblue" stroke="midnightblue" points="573.56,-304.5 563.56,-308 573.56,-311.5 573.56,-304.5"/>
</g>
<!-- Node7 -->
<g id="node7" class="node">
<title>Node7</title>
<g id="a_node7"><a xlink:href="classMGLevelGlobalTransfer_3_01LinearAlgebra_1_1distributed_1_1Vector_3_01Number_01_4_01_4.html" target="_top" xlink:title=" ">
<polygon fill="white" stroke="black" points="628,-189.5 628,-230.5 764,-230.5 764,-189.5 628,-189.5"/>
<text text-anchor="start" x="636" y="-218.5" font-family="Helvetica,sans-Serif" font-size="10.00">MGLevelGlobalTransfer</text>
<text text-anchor="start" x="636" y="-207.5" font-family="Helvetica,sans-Serif" font-size="10.00">&lt; LinearAlgebra::distributed</text>
<text text-anchor="middle" x="696" y="-196.5" font-family="Helvetica,sans-Serif" font-size="10.00">::Vector&lt; Number &gt; &gt;</text>
</a>
</g>
</g>
<!-- Node6&#45;&gt;Node7 -->
<g id="edge6" class="edge">
<title>Node6&#45;&gt;Node7</title>
<path fill="none" stroke="midnightblue" d="M596.3,-210C606.94,-210 617.64,-210 627.87,-210"/>
<polygon fill="midnightblue" stroke="midnightblue" points="596.13,-206.5 586.13,-210 596.13,-213.5 596.13,-206.5"/>
</g>
<!-- Node8 -->
<g id="node8" class="node">
<title>Node8</title>
<g id="a_node8"><a xlink:href="classMGTransferMatrixFree.html" target="_top" xlink:title=" ">
<polygon fill="white" stroke="black" points="806,-195 806,-225 921,-225 921,-195 806,-195"/>
<text text-anchor="start" x="814" y="-213" font-family="Helvetica,sans-Serif" font-size="10.00">MGTransferMatrixFree</text>
<text text-anchor="middle" x="863.5" y="-202" font-family="Helvetica,sans-Serif" font-size="10.00">&lt; dim, Number &gt;</text>
</a>
</g>
</g>
<!-- Node7&#45;&gt;Node8 -->
<g id="edge7" class="edge">
<title>Node7&#45;&gt;Node8</title>
<path fill="none" stroke="midnightblue" d="M774.41,-210C785,-210 795.71,-210 805.83,-210"/>
<polygon fill="midnightblue" stroke="midnightblue" points="774.32,-206.5 764.32,-210 774.32,-213.5 774.32,-206.5"/>
</g>
<!-- Node10 -->
<g id="node10" class="node">
<title>Node10</title>
<g id="a_node10"><a xlink:href="classMGTransferBlock.html" target="_top" xlink:title=" ">
<polygon fill="white" stroke="black" points="624.5,-151.5 624.5,-170.5 767.5,-170.5 767.5,-151.5 624.5,-151.5"/>
<text text-anchor="middle" x="696" y="-158.5" font-family="Helvetica,sans-Serif" font-size="10.00">MGTransferBlock&lt; number &gt;</text>
</a>
</g>
</g>
<!-- Node9&#45;&gt;Node10 -->
<g id="edge9" class="edge">
<title>Node9&#45;&gt;Node10</title>
<path fill="none" stroke="midnightblue" d="M590.84,-161C602.01,-161 613.36,-161 624.25,-161"/>
<polygon fill="midnightblue" stroke="midnightblue" points="590.64,-157.5 580.64,-161 590.64,-164.5 590.64,-157.5"/>
</g>
<!-- Node12 -->
<g id="node12" class="node">
<title>Node12</title>
<g id="a_node12"><a xlink:href="classMGTransferBlockMatrixFree.html" target="_top" xlink:title=" ">
<polygon fill="white" stroke="black" points="626,-91 626,-121 766,-121 766,-91 626,-91"/>
<text text-anchor="start" x="634" y="-109" font-family="Helvetica,sans-Serif" font-size="10.00">MGTransferBlockMatrixFree</text>
<text text-anchor="middle" x="696" y="-98" font-family="Helvetica,sans-Serif" font-size="10.00">&lt; dim, Number &gt;</text>
</a>
</g>
</g>
<!-- Node11&#45;&gt;Node12 -->
<g id="edge11" class="edge">
<title>Node11&#45;&gt;Node12</title>
<path fill="none" stroke="midnightblue" d="M593.88,-106C604.6,-106 615.43,-106 625.81,-106"/>
<polygon fill="midnightblue" stroke="midnightblue" points="593.65,-102.5 583.65,-106 593.65,-109.5 593.65,-102.5"/>
</g>
<!-- Node14 -->
<g id="node14" class="node">
<title>Node14</title>
<g id="a_node14"><a xlink:href="classMGTransferBlockSelect.html" target="_top" xlink:title=" ">
<polygon fill="white" stroke="black" points="635.5,-39 635.5,-69 756.5,-69 756.5,-39 635.5,-39"/>
<text text-anchor="start" x="643.5" y="-57" font-family="Helvetica,sans-Serif" font-size="10.00">MGTransferBlockSelect</text>
<text text-anchor="middle" x="696" y="-46" font-family="Helvetica,sans-Serif" font-size="10.00">&lt; number &gt;</text>
</a>
</g>
</g>
<!-- Node13&#45;&gt;Node14 -->
<g id="edge13" class="edge">
<title>Node13&#45;&gt;Node14</title>
<path fill="none" stroke="midnightblue" d="M578.08,-52.15C597.04,-52.45 617.22,-52.77 635.39,-53.06"/>
<polygon fill="midnightblue" stroke="midnightblue" points="578.06,-48.65 568,-51.99 577.95,-55.65 578.06,-48.65"/>
</g>
<!-- Node15 -->
<g id="node15" class="node">
<title>Node15</title>
<g id="a_node15"><a xlink:href="classMGTransferSelect.html" target="_top" xlink:title=" ">
<polygon fill="white" stroke="black" points="623,-0.5 623,-19.5 769,-19.5 769,-0.5 623,-0.5"/>
<text text-anchor="middle" x="696" y="-7.5" font-family="Helvetica,sans-Serif" font-size="10.00">MGTransferSelect&lt; number &gt;</text>
</a>
</g>
</g>
<!-- Node13&#45;&gt;Node15 -->
<g id="edge14" class="edge">
<title>Node13&#45;&gt;Node15</title>
<path fill="none" stroke="midnightblue" d="M578.01,-35.25C602.54,-29.95 629.15,-24.21 650.78,-19.54"/>
<polygon fill="midnightblue" stroke="midnightblue" points="577.04,-31.87 568,-37.4 578.52,-38.72 577.04,-31.87"/>
</g>
</g>
</svg>
