<?xml version="1.0" encoding="UTF-8" standalone="no"?>
<!DOCTYPE svg PUBLIC "-//W3C//DTD SVG 1.1//EN"
 "http://www.w3.org/Graphics/SVG/1.1/DTD/svg11.dtd">
<!-- Generated by graphviz version 2.47.1 (20210417.1919)
 -->
<!-- Title: Polynomials::HermiteLikeInterpolation Pages: 1 -->
<svg width="208pt" height="242pt"
 viewBox="0.00 0.00 208.00 242.00" xmlns="http://www.w3.org/2000/svg" xmlns:xlink="http://www.w3.org/1999/xlink">
<g id="graph0" class="graph" transform="scale(1 1) rotate(0) translate(4 238)">
<title>Polynomials::HermiteLikeInterpolation</title>
<polygon fill="white" stroke="transparent" points="-4,4 -4,-238 204,-238 204,4 -4,4"/>
<!-- Node1 -->
<g id="node1" class="node">
<title>Node1</title>
<g id="a_node1"><a xlink:title=" ">
<polygon fill="#bfbfbf" stroke="black" points="0,-0.5 0,-30.5 128,-30.5 128,-0.5 0,-0.5"/>
<text text-anchor="start" x="8" y="-18.5" font-family="Helvetica,sans-Serif" font-size="10.00">Polynomials::HermiteLike</text>
<text text-anchor="middle" x="64" y="-7.5" font-family="Helvetica,sans-Serif" font-size="10.00">Interpolation</text>
</a>
</g>
</g>
<!-- Node2 -->
<g id="node2" class="node">
<title>Node2</title>
<g id="a_node2"><a xlink:href="classPolynomials_1_1Polynomial.html" target="_top" xlink:title=" ">
<polygon fill="white" stroke="black" points="2,-68.5 2,-98.5 126,-98.5 126,-68.5 2,-68.5"/>
<text text-anchor="start" x="10" y="-86.5" font-family="Helvetica,sans-Serif" font-size="10.00">Polynomials::Polynomial</text>
<text text-anchor="middle" x="64" y="-75.5" font-family="Helvetica,sans-Serif" font-size="10.00">&lt; double &gt;</text>
</a>
</g>
</g>
<!-- Node2&#45;&gt;Node1 -->
<g id="edge1" class="edge">
<title>Node2&#45;&gt;Node1</title>
<path fill="none" stroke="midnightblue" d="M64,-58.03C64,-48.86 64,-38.74 64,-30.79"/>
<polygon fill="midnightblue" stroke="midnightblue" points="60.5,-58.18 64,-68.18 67.5,-58.18 60.5,-58.18"/>
</g>
<!-- Node3 -->
<g id="node3" class="node">
<title>Node3</title>
<g id="a_node3"><a xlink:href="classSubscriptor.html" target="_top" xlink:title=" ">
<polygon fill="white" stroke="black" points="27,-214.5 27,-233.5 93,-233.5 93,-214.5 27,-214.5"/>
<text text-anchor="middle" x="60" y="-221.5" font-family="Helvetica,sans-Serif" font-size="10.00">Subscriptor</text>
</a>
</g>
</g>
<!-- Node3&#45;&gt;Node2 -->
<g id="edge2" class="edge">
<title>Node3&#45;&gt;Node2</title>
<path fill="none" stroke="midnightblue" d="M60.54,-204.25C61.35,-176.19 62.86,-123.88 63.59,-98.73"/>
<polygon fill="midnightblue" stroke="midnightblue" points="57.04,-204.24 60.25,-214.34 64.04,-204.44 57.04,-204.24"/>
</g>
<!-- Node4 -->
<g id="node4" class="node">
<title>Node4</title>
<g id="a_node4"><a xlink:href="classPolynomials_1_1Polynomial.html" target="_top" xlink:title=" ">
<polygon fill="white" stroke="black" points="76,-146.5 76,-176.5 200,-176.5 200,-146.5 76,-146.5"/>
<text text-anchor="start" x="84" y="-164.5" font-family="Helvetica,sans-Serif" font-size="10.00">Polynomials::Polynomial</text>
<text text-anchor="middle" x="138" y="-153.5" font-family="Helvetica,sans-Serif" font-size="10.00">&lt; number &gt;</text>
</a>
</g>
</g>
<!-- Node3&#45;&gt;Node4 -->
<g id="edge4" class="edge">
<title>Node3&#45;&gt;Node4</title>
<path fill="none" stroke="midnightblue" d="M79.11,-208.18C91.55,-198.53 107.68,-186.01 119.92,-176.53"/>
<polygon fill="midnightblue" stroke="midnightblue" points="76.93,-205.44 71.18,-214.33 81.22,-210.97 76.93,-205.44"/>
</g>
<!-- Node4&#45;&gt;Node2 -->
<g id="edge3" class="edge">
<title>Node4&#45;&gt;Node2</title>
<path fill="none" stroke="orange" stroke-dasharray="5,2" d="M117.1,-139.03C104.54,-126.13 88.9,-110.07 77.86,-98.73"/>
<polygon fill="orange" stroke="orange" points="114.6,-141.48 124.08,-146.2 119.61,-136.6 114.6,-141.48"/>
<text text-anchor="middle" x="130" y="-120" font-family="Helvetica,sans-Serif" font-size="10.00"> &lt; double &gt;</text>
</g>
</g>
</svg>
