<?xml version="1.0" encoding="UTF-8" standalone="no"?>
<!DOCTYPE svg PUBLIC "-//W3C//DTD SVG 1.1//EN"
 "http://www.w3.org/Graphics/SVG/1.1/DTD/svg11.dtd">
<!-- Generated by graphviz version 2.47.1 (20210417.1919)
 -->
<!-- Title: SparsityPatternIterators::Accessor Pages: 1 -->
<svg width="331pt" height="137pt"
 viewBox="0.00 0.00 331.00 137.00" xmlns="http://www.w3.org/2000/svg" xmlns:xlink="http://www.w3.org/1999/xlink">
<g id="graph0" class="graph" transform="scale(1 1) rotate(0) translate(4 133)">
<title>SparsityPatternIterators::Accessor</title>
<polygon fill="white" stroke="transparent" points="-4,4 -4,-133 327,-133 327,4 -4,4"/>
<!-- Node1 -->
<g id="node1" class="node">
<title>Node1</title>
<g id="a_node1"><a xlink:title=" ">
<polygon fill="#bfbfbf" stroke="black" points="0,-49.5 0,-79.5 120,-79.5 120,-49.5 0,-49.5"/>
<text text-anchor="start" x="8" y="-67.5" font-family="Helvetica,sans-Serif" font-size="10.00">SparsityPatternIterators</text>
<text text-anchor="middle" x="60" y="-56.5" font-family="Helvetica,sans-Serif" font-size="10.00">::Accessor</text>
</a>
</g>
</g>
<!-- Node2 -->
<g id="node2" class="node">
<title>Node2</title>
<g id="a_node2"><a xlink:href="classSparseMatrixIterators_1_1Accessor.html" target="_top" xlink:title=" ">
<polygon fill="white" stroke="black" points="156,-98.5 156,-128.5 323,-128.5 323,-98.5 156,-98.5"/>
<text text-anchor="start" x="164" y="-116.5" font-family="Helvetica,sans-Serif" font-size="10.00">SparseMatrixIterators</text>
<text text-anchor="middle" x="239.5" y="-105.5" font-family="Helvetica,sans-Serif" font-size="10.00">::Accessor&lt; number, Constness &gt;</text>
</a>
</g>
</g>
<!-- Node1&#45;&gt;Node2 -->
<g id="edge1" class="edge">
<title>Node1&#45;&gt;Node2</title>
<path fill="none" stroke="midnightblue" d="M125.56,-82.32C144.72,-87.61 165.52,-93.35 183.98,-98.45"/>
<polygon fill="midnightblue" stroke="midnightblue" points="126.28,-78.89 115.7,-79.6 124.41,-85.64 126.28,-78.89"/>
</g>
<!-- Node3 -->
<g id="node3" class="node">
<title>Node3</title>
<g id="a_node3"><a xlink:href="classSparseMatrixIterators_1_1Accessor_3_01number_00_01false_01_4.html" target="_top" xlink:title=" ">
<polygon fill="white" stroke="black" points="169.5,-49.5 169.5,-79.5 309.5,-79.5 309.5,-49.5 169.5,-49.5"/>
<text text-anchor="start" x="177.5" y="-67.5" font-family="Helvetica,sans-Serif" font-size="10.00">SparseMatrixIterators</text>
<text text-anchor="middle" x="239.5" y="-56.5" font-family="Helvetica,sans-Serif" font-size="10.00">::Accessor&lt; number, false &gt;</text>
</a>
</g>
</g>
<!-- Node1&#45;&gt;Node3 -->
<g id="edge2" class="edge">
<title>Node1&#45;&gt;Node3</title>
<path fill="none" stroke="midnightblue" d="M130.23,-64.5C143.03,-64.5 156.4,-64.5 169.2,-64.5"/>
<polygon fill="midnightblue" stroke="midnightblue" points="130.1,-61 120.1,-64.5 130.1,-68 130.1,-61"/>
</g>
<!-- Node4 -->
<g id="node4" class="node">
<title>Node4</title>
<g id="a_node4"><a xlink:href="classSparseMatrixIterators_1_1Accessor_3_01number_00_01true_01_4.html" target="_top" xlink:title=" ">
<polygon fill="white" stroke="black" points="171.5,-0.5 171.5,-30.5 307.5,-30.5 307.5,-0.5 171.5,-0.5"/>
<text text-anchor="start" x="179.5" y="-18.5" font-family="Helvetica,sans-Serif" font-size="10.00">SparseMatrixIterators</text>
<text text-anchor="middle" x="239.5" y="-7.5" font-family="Helvetica,sans-Serif" font-size="10.00">::Accessor&lt; number, true &gt;</text>
</a>
</g>
</g>
<!-- Node1&#45;&gt;Node4 -->
<g id="edge3" class="edge">
<title>Node1&#45;&gt;Node4</title>
<path fill="none" stroke="midnightblue" d="M125.56,-46.68C144.72,-41.39 165.52,-35.65 183.98,-30.55"/>
<polygon fill="midnightblue" stroke="midnightblue" points="124.41,-43.36 115.7,-49.4 126.28,-50.11 124.41,-43.36"/>
</g>
</g>
</svg>
