<?xml version="1.0" encoding="UTF-8" standalone="no"?>
<!DOCTYPE svg PUBLIC "-//W3C//DTD SVG 1.1//EN"
 "http://www.w3.org/Graphics/SVG/1.1/DTD/svg11.dtd">
<!-- Generated by graphviz version 2.47.1 (20210417.1919)
 -->
<!-- Title: Differentiation::AD::EnergyFunctional&lt; ADNumberTypeCode, ScalarType &gt; Pages: 1 -->
<svg width="1178pt" height="75pt"
 viewBox="0.00 0.00 1178.00 75.00" xmlns="http://www.w3.org/2000/svg" xmlns:xlink="http://www.w3.org/1999/xlink">
<g id="graph0" class="graph" transform="scale(1 1) rotate(0) translate(4 71)">
<title>Differentiation::AD::EnergyFunctional&lt; ADNumberTypeCode, ScalarType &gt;</title>
<polygon fill="white" stroke="transparent" points="-4,4 -4,-71 1174,-71 1174,4 -4,4"/>
<!-- Node1 -->
<g id="node1" class="node">
<title>Node1</title>
<g id="a_node1"><a xlink:title=" ">
<polygon fill="#bfbfbf" stroke="black" points="994,-24.5 994,-65.5 1170,-65.5 1170,-24.5 994,-24.5"/>
<text text-anchor="start" x="1002" y="-53.5" font-family="Helvetica,sans-Serif" font-size="10.00">Differentiation::AD</text>
<text text-anchor="start" x="1002" y="-42.5" font-family="Helvetica,sans-Serif" font-size="10.00">::EnergyFunctional&lt;</text>
<text text-anchor="middle" x="1082" y="-31.5" font-family="Helvetica,sans-Serif" font-size="10.00"> ADNumberTypeCode, ScalarType &gt;</text>
</a>
</g>
</g>
<!-- Node2 -->
<g id="node2" class="node">
<title>Node2</title>
<g id="a_node2"><a xlink:href="classDifferentiation_1_1AD_1_1CellLevelBase.html" target="_top" xlink:title=" ">
<polygon fill="white" stroke="black" points="793,-24.5 793,-65.5 957,-65.5 957,-24.5 793,-24.5"/>
<text text-anchor="start" x="801" y="-53.5" font-family="Helvetica,sans-Serif" font-size="10.00">Differentiation::AD</text>
<text text-anchor="start" x="801" y="-42.5" font-family="Helvetica,sans-Serif" font-size="10.00">::CellLevelBase&lt; ADNumberType</text>
<text text-anchor="middle" x="875" y="-31.5" font-family="Helvetica,sans-Serif" font-size="10.00">Code, double &gt;</text>
</a>
</g>
</g>
<!-- Node2&#45;&gt;Node1 -->
<g id="edge1" class="edge">
<title>Node2&#45;&gt;Node1</title>
<path fill="none" stroke="midnightblue" d="M967.3,-45C976.12,-45 985.05,-45 993.82,-45"/>
<polygon fill="midnightblue" stroke="midnightblue" points="967.02,-41.5 957.02,-45 967.02,-48.5 967.02,-41.5"/>
</g>
<!-- Node3 -->
<g id="node3" class="node">
<title>Node3</title>
<g id="a_node3"><a xlink:href="classDifferentiation_1_1AD_1_1HelperBase.html" target="_top" xlink:title=" ">
<polygon fill="white" stroke="black" points="296,-24.5 296,-65.5 448,-65.5 448,-24.5 296,-24.5"/>
<text text-anchor="start" x="304" y="-53.5" font-family="Helvetica,sans-Serif" font-size="10.00">Differentiation::AD</text>
<text text-anchor="start" x="304" y="-42.5" font-family="Helvetica,sans-Serif" font-size="10.00">::HelperBase&lt; ADNumberType</text>
<text text-anchor="middle" x="372" y="-31.5" font-family="Helvetica,sans-Serif" font-size="10.00">Code, double &gt;</text>
</a>
</g>
</g>
<!-- Node3&#45;&gt;Node2 -->
<g id="edge2" class="edge">
<title>Node3&#45;&gt;Node2</title>
<path fill="none" stroke="midnightblue" d="M458.45,-51.43C539.87,-56.58 665.86,-62.04 775,-56 780.78,-55.68 786.75,-55.25 792.75,-54.76"/>
<polygon fill="midnightblue" stroke="midnightblue" points="458.46,-47.92 448.25,-50.77 458.01,-54.91 458.46,-47.92"/>
</g>
<!-- Node5 -->
<g id="node5" class="node">
<title>Node5</title>
<g id="a_node5"><a xlink:href="classDifferentiation_1_1AD_1_1CellLevelBase.html" target="_top" xlink:title=" ">
<polygon fill="white" stroke="black" points="485,-0.5 485,-41.5 649,-41.5 649,-0.5 485,-0.5"/>
<text text-anchor="start" x="493" y="-29.5" font-family="Helvetica,sans-Serif" font-size="10.00">Differentiation::AD</text>
<text text-anchor="start" x="493" y="-18.5" font-family="Helvetica,sans-Serif" font-size="10.00">::CellLevelBase&lt; ADNumberType</text>
<text text-anchor="middle" x="567" y="-7.5" font-family="Helvetica,sans-Serif" font-size="10.00">Code, ScalarType &gt;</text>
</a>
</g>
</g>
<!-- Node3&#45;&gt;Node5 -->
<g id="edge5" class="edge">
<title>Node3&#45;&gt;Node5</title>
<path fill="none" stroke="midnightblue" d="M458.16,-34.41C467.07,-33.3 476.11,-32.18 484.97,-31.08"/>
<polygon fill="midnightblue" stroke="midnightblue" points="457.66,-30.94 448.17,-35.65 458.53,-37.89 457.66,-30.94"/>
</g>
<!-- Node4 -->
<g id="node4" class="node">
<title>Node4</title>
<g id="a_node4"><a xlink:href="classDifferentiation_1_1AD_1_1HelperBase.html" target="_top" xlink:title=" ">
<polygon fill="white" stroke="black" points="0,-24.5 0,-65.5 152,-65.5 152,-24.5 0,-24.5"/>
<text text-anchor="start" x="8" y="-53.5" font-family="Helvetica,sans-Serif" font-size="10.00">Differentiation::AD</text>
<text text-anchor="start" x="8" y="-42.5" font-family="Helvetica,sans-Serif" font-size="10.00">::HelperBase&lt; ADNumberType</text>
<text text-anchor="middle" x="76" y="-31.5" font-family="Helvetica,sans-Serif" font-size="10.00">Code, ScalarType &gt;</text>
</a>
</g>
</g>
<!-- Node4&#45;&gt;Node3 -->
<g id="edge3" class="edge">
<title>Node4&#45;&gt;Node3</title>
<path fill="none" stroke="orange" stroke-dasharray="5,2" d="M162.59,-45C204.77,-45 255.19,-45 295.87,-45"/>
<polygon fill="orange" stroke="orange" points="162.33,-41.5 152.33,-45 162.33,-48.5 162.33,-41.5"/>
<text text-anchor="start" x="170" y="-59" font-family="Helvetica,sans-Serif" font-size="10.00"> &lt; ADNumberTypeCode,</text>
<text text-anchor="middle" x="224" y="-48" font-family="Helvetica,sans-Serif" font-size="10.00"> double &gt;</text>
</g>
<!-- Node5&#45;&gt;Node2 -->
<g id="edge4" class="edge">
<title>Node5&#45;&gt;Node2</title>
<path fill="none" stroke="orange" stroke-dasharray="5,2" d="M659.19,-25.78C695.29,-27.92 737.13,-30.71 775,-34 780.86,-34.51 786.91,-35.08 792.99,-35.68"/>
<polygon fill="orange" stroke="orange" points="659.36,-22.29 649.17,-25.2 658.95,-29.27 659.36,-22.29"/>
<text text-anchor="start" x="667" y="-48" font-family="Helvetica,sans-Serif" font-size="10.00"> &lt; ADNumberTypeCode,</text>
<text text-anchor="middle" x="721" y="-37" font-family="Helvetica,sans-Serif" font-size="10.00"> double &gt;</text>
</g>
</g>
</svg>
