<?xml version="1.0" encoding="UTF-8" standalone="no"?>
<!DOCTYPE svg PUBLIC "-//W3C//DTD SVG 1.1//EN"
 "http://www.w3.org/Graphics/SVG/1.1/DTD/svg11.dtd">
<!-- Generated by graphviz version 2.47.1 (20210417.1919)
 -->
<!-- Title: FEValuesBase&lt; dim, spacedim &gt;::CellIteratorBase Pages: 1 -->
<svg width="344pt" height="88pt"
 viewBox="0.00 0.00 344.00 88.00" xmlns="http://www.w3.org/2000/svg" xmlns:xlink="http://www.w3.org/1999/xlink">
<g id="graph0" class="graph" transform="scale(1 1) rotate(0) translate(4 84)">
<title>FEValuesBase&lt; dim, spacedim &gt;::CellIteratorBase</title>
<polygon fill="white" stroke="transparent" points="-4,4 -4,-84 340,-84 340,4 -4,4"/>
<!-- Node1 -->
<g id="node1" class="node">
<title>Node1</title>
<g id="a_node1"><a xlink:title=" ">
<polygon fill="#bfbfbf" stroke="black" points="0,-24.5 0,-54.5 147,-54.5 147,-24.5 0,-24.5"/>
<text text-anchor="start" x="8" y="-42.5" font-family="Helvetica,sans-Serif" font-size="10.00">FEValuesBase&lt; dim,</text>
<text text-anchor="middle" x="73.5" y="-31.5" font-family="Helvetica,sans-Serif" font-size="10.00"> spacedim &gt;::CellIteratorBase</text>
</a>
</g>
</g>
<!-- Node2 -->
<g id="node2" class="node">
<title>Node2</title>
<g id="a_node2"><a xlink:href="classFEValuesBase_1_1CellIterator.html" target="_top" xlink:title=" ">
<polygon fill="white" stroke="black" points="183,-49.5 183,-79.5 336,-79.5 336,-49.5 183,-49.5"/>
<text text-anchor="start" x="191" y="-67.5" font-family="Helvetica,sans-Serif" font-size="10.00">FEValuesBase&lt; dim,</text>
<text text-anchor="middle" x="259.5" y="-56.5" font-family="Helvetica,sans-Serif" font-size="10.00"> spacedim &gt;::CellIterator&lt; CI &gt;</text>
</a>
</g>
</g>
<!-- Node1&#45;&gt;Node2 -->
<g id="edge1" class="edge">
<title>Node1&#45;&gt;Node2</title>
<path fill="none" stroke="midnightblue" d="M157.22,-50.74C165.8,-51.91 174.49,-53.09 182.98,-54.24"/>
<polygon fill="midnightblue" stroke="midnightblue" points="157.6,-47.26 147.22,-49.38 156.66,-54.2 157.6,-47.26"/>
</g>
<!-- Node3 -->
<g id="node3" class="node">
<title>Node3</title>
<g id="a_node3"><a xlink:href="classFEValuesBase_1_1TriaCellIterator.html" target="_top" xlink:title=" ">
<polygon fill="white" stroke="black" points="189,-0.5 189,-30.5 330,-30.5 330,-0.5 189,-0.5"/>
<text text-anchor="start" x="197" y="-18.5" font-family="Helvetica,sans-Serif" font-size="10.00">FEValuesBase&lt; dim,</text>
<text text-anchor="middle" x="259.5" y="-7.5" font-family="Helvetica,sans-Serif" font-size="10.00"> spacedim &gt;::TriaCellIterator</text>
</a>
</g>
</g>
<!-- Node1&#45;&gt;Node3 -->
<g id="edge2" class="edge">
<title>Node1&#45;&gt;Node3</title>
<path fill="none" stroke="midnightblue" d="M157.23,-28.71C167.75,-27.34 178.42,-25.94 188.71,-24.6"/>
<polygon fill="midnightblue" stroke="midnightblue" points="156.68,-25.25 147.22,-30.01 157.59,-32.19 156.68,-25.25"/>
</g>
</g>
</svg>
