<?xml version="1.0" encoding="UTF-8" standalone="no"?>
<!DOCTYPE svg PUBLIC "-//W3C//DTD SVG 1.1//EN"
 "http://www.w3.org/Graphics/SVG/1.1/DTD/svg11.dtd">
<!-- Generated by graphviz version 2.47.1 (20210417.1919)
 -->
<!-- Title: PETScWrappers::MPI::BlockSparseMatrix Pages: 1 -->
<svg width="261pt" height="220pt"
 viewBox="0.00 0.00 261.00 220.00" xmlns="http://www.w3.org/2000/svg" xmlns:xlink="http://www.w3.org/1999/xlink">
<g id="graph0" class="graph" transform="scale(1 1) rotate(0) translate(4 216)">
<title>PETScWrappers::MPI::BlockSparseMatrix</title>
<polygon fill="white" stroke="transparent" points="-4,4 -4,-216 257,-216 257,4 -4,4"/>
<!-- Node1 -->
<g id="node1" class="node">
<title>Node1</title>
<g id="a_node1"><a xlink:title=" ">
<polygon fill="#bfbfbf" stroke="black" points="27,-0.5 27,-30.5 140,-30.5 140,-0.5 27,-0.5"/>
<text text-anchor="start" x="35" y="-18.5" font-family="Helvetica,sans-Serif" font-size="10.00">PETScWrappers::MPI</text>
<text text-anchor="middle" x="83.5" y="-7.5" font-family="Helvetica,sans-Serif" font-size="10.00">::BlockSparseMatrix</text>
</a>
</g>
</g>
<!-- Node2 -->
<g id="node2" class="node">
<title>Node2</title>
<g id="a_node2"><a xlink:href="classBlockMatrixBase.html" target="_top" xlink:title=" ">
<polygon fill="white" stroke="black" points="0,-68.5 0,-87.5 167,-87.5 167,-68.5 0,-68.5"/>
<text text-anchor="middle" x="83.5" y="-75.5" font-family="Helvetica,sans-Serif" font-size="10.00">BlockMatrixBase&lt; SparseMatrix &gt;</text>
</a>
</g>
</g>
<!-- Node2&#45;&gt;Node1 -->
<g id="edge1" class="edge">
<title>Node2&#45;&gt;Node1</title>
<path fill="none" stroke="midnightblue" d="M83.5,-58.22C83.5,-49.36 83.5,-38.96 83.5,-30.76"/>
<polygon fill="midnightblue" stroke="midnightblue" points="80,-58.33 83.5,-68.33 87,-58.33 80,-58.33"/>
</g>
<!-- Node3 -->
<g id="node3" class="node">
<title>Node3</title>
<g id="a_node3"><a xlink:href="classSubscriptor.html" target="_top" xlink:title=" ">
<polygon fill="white" stroke="black" points="46.5,-192.5 46.5,-211.5 112.5,-211.5 112.5,-192.5 46.5,-192.5"/>
<text text-anchor="middle" x="79.5" y="-199.5" font-family="Helvetica,sans-Serif" font-size="10.00">Subscriptor</text>
</a>
</g>
</g>
<!-- Node3&#45;&gt;Node2 -->
<g id="edge2" class="edge">
<title>Node3&#45;&gt;Node2</title>
<path fill="none" stroke="midnightblue" d="M80.12,-182.19C81,-155.4 82.57,-107.31 83.21,-87.69"/>
<polygon fill="midnightblue" stroke="midnightblue" points="76.62,-182.12 79.79,-192.23 83.61,-182.35 76.62,-182.12"/>
</g>
<!-- Node4 -->
<g id="node4" class="node">
<title>Node4</title>
<g id="a_node4"><a xlink:href="classBlockMatrixBase.html" target="_top" xlink:title=" ">
<polygon fill="white" stroke="black" points="96,-135.5 96,-154.5 253,-154.5 253,-135.5 96,-135.5"/>
<text text-anchor="middle" x="174.5" y="-142.5" font-family="Helvetica,sans-Serif" font-size="10.00">BlockMatrixBase&lt; MatrixType &gt;</text>
</a>
</g>
</g>
<!-- Node3&#45;&gt;Node4 -->
<g id="edge4" class="edge">
<title>Node3&#45;&gt;Node4</title>
<path fill="none" stroke="midnightblue" d="M103,-187.39C120.76,-177.11 144.6,-163.31 159.76,-154.53"/>
<polygon fill="midnightblue" stroke="midnightblue" points="101.24,-184.37 94.34,-192.41 104.75,-190.42 101.24,-184.37"/>
</g>
<!-- Node4&#45;&gt;Node2 -->
<g id="edge3" class="edge">
<title>Node4&#45;&gt;Node2</title>
<path fill="none" stroke="orange" stroke-dasharray="5,2" d="M154.09,-129.42C136.1,-116.57 110.49,-98.28 95.58,-87.63"/>
<polygon fill="orange" stroke="orange" points="152.06,-132.27 162.23,-135.23 156.12,-126.57 152.06,-132.27"/>
<text text-anchor="middle" x="173" y="-109" font-family="Helvetica,sans-Serif" font-size="10.00"> &lt; SparseMatrix &gt;</text>
</g>
</g>
</svg>
