<?xml version="1.0" encoding="UTF-8" standalone="no"?>
<!DOCTYPE svg PUBLIC "-//W3C//DTD SVG 1.1//EN"
 "http://www.w3.org/Graphics/SVG/1.1/DTD/svg11.dtd">
<!-- Generated by graphviz version 2.47.1 (20210417.1919)
 -->
<!-- Title: internal::DoFHandlerImplementation::Policy::PolicyBase&lt; dim, spacedim &gt; Pages: 1 -->
<svg width="414pt" height="160pt"
 viewBox="0.00 0.00 414.00 159.50" xmlns="http://www.w3.org/2000/svg" xmlns:xlink="http://www.w3.org/1999/xlink">
<g id="graph0" class="graph" transform="scale(1 1) rotate(0) translate(4 155.5)">
<title>internal::DoFHandlerImplementation::Policy::PolicyBase&lt; dim, spacedim &gt;</title>
<polygon fill="white" stroke="transparent" points="-4,4 -4,-155.5 410,-155.5 410,4 -4,4"/>
<!-- Node1 -->
<g id="node1" class="node">
<title>Node1</title>
<g id="a_node1"><a xlink:title=" ">
<polygon fill="#bfbfbf" stroke="black" points="0,-55.5 0,-85.5 187,-85.5 187,-55.5 0,-55.5"/>
<text text-anchor="start" x="8" y="-73.5" font-family="Helvetica,sans-Serif" font-size="10.00">internal::DoFHandlerImplementation</text>
<text text-anchor="middle" x="93.5" y="-62.5" font-family="Helvetica,sans-Serif" font-size="10.00">::Policy::PolicyBase&lt; dim, spacedim &gt;</text>
</a>
</g>
</g>
<!-- Node2 -->
<g id="node2" class="node">
<title>Node2</title>
<g id="a_node2"><a xlink:href="classinternal_1_1DoFHandlerImplementation_1_1Policy_1_1ParallelDistributed.html" target="_top" xlink:title=" ">
<polygon fill="white" stroke="black" points="228,-110 228,-151 401,-151 401,-110 228,-110"/>
<text text-anchor="start" x="236" y="-139" font-family="Helvetica,sans-Serif" font-size="10.00">internal::DoFHandlerImplementation</text>
<text text-anchor="start" x="236" y="-128" font-family="Helvetica,sans-Serif" font-size="10.00">::Policy::ParallelDistributed</text>
<text text-anchor="middle" x="314.5" y="-117" font-family="Helvetica,sans-Serif" font-size="10.00">&lt; dim, spacedim &gt;</text>
</a>
</g>
</g>
<!-- Node1&#45;&gt;Node2 -->
<g id="edge1" class="edge">
<title>Node1&#45;&gt;Node2</title>
<path fill="none" stroke="midnightblue" d="M159.2,-88.23C184.13,-95.06 212.82,-102.92 238.63,-109.99"/>
<polygon fill="midnightblue" stroke="midnightblue" points="160.05,-84.83 149.48,-85.56 158.2,-91.58 160.05,-84.83"/>
</g>
<!-- Node3 -->
<g id="node3" class="node">
<title>Node3</title>
<g id="a_node3"><a xlink:href="classinternal_1_1DoFHandlerImplementation_1_1Policy_1_1ParallelShared.html" target="_top" xlink:title=" ">
<polygon fill="white" stroke="black" points="228,-50 228,-91 401,-91 401,-50 228,-50"/>
<text text-anchor="start" x="236" y="-79" font-family="Helvetica,sans-Serif" font-size="10.00">internal::DoFHandlerImplementation</text>
<text text-anchor="start" x="236" y="-68" font-family="Helvetica,sans-Serif" font-size="10.00">::Policy::ParallelShared&lt; dim,</text>
<text text-anchor="middle" x="314.5" y="-57" font-family="Helvetica,sans-Serif" font-size="10.00"> spacedim &gt;</text>
</a>
</g>
</g>
<!-- Node1&#45;&gt;Node3 -->
<g id="edge2" class="edge">
<title>Node1&#45;&gt;Node3</title>
<path fill="none" stroke="midnightblue" d="M197.27,-70.5C207.52,-70.5 217.84,-70.5 227.89,-70.5"/>
<polygon fill="midnightblue" stroke="midnightblue" points="197.06,-67 187.06,-70.5 197.06,-74 197.06,-67"/>
</g>
<!-- Node4 -->
<g id="node4" class="node">
<title>Node4</title>
<g id="a_node4"><a xlink:href="classinternal_1_1DoFHandlerImplementation_1_1Policy_1_1Sequential.html" target="_top" xlink:title=" ">
<polygon fill="white" stroke="black" points="223,-0.5 223,-30.5 406,-30.5 406,-0.5 223,-0.5"/>
<text text-anchor="start" x="231" y="-18.5" font-family="Helvetica,sans-Serif" font-size="10.00">internal::DoFHandlerImplementation</text>
<text text-anchor="middle" x="314.5" y="-7.5" font-family="Helvetica,sans-Serif" font-size="10.00">::Policy::Sequential&lt; dim, spacedim &gt;</text>
</a>
</g>
</g>
<!-- Node1&#45;&gt;Node4 -->
<g id="edge3" class="edge">
<title>Node1&#45;&gt;Node4</title>
<path fill="none" stroke="midnightblue" d="M164.33,-52.96C193.1,-45.74 226.1,-37.45 253.73,-30.51"/>
<polygon fill="midnightblue" stroke="midnightblue" points="163.19,-49.64 154.34,-55.47 164.89,-56.43 163.19,-49.64"/>
</g>
</g>
</svg>
