<?xml version="1.0" encoding="UTF-8" standalone="no"?>
<!DOCTYPE svg PUBLIC "-//W3C//DTD SVG 1.1//EN"
 "http://www.w3.org/Graphics/SVG/1.1/DTD/svg11.dtd">
<!-- Generated by graphviz version 2.47.1 (20210417.1919)
 -->
<!-- Title: Utilities::MPI::ConsensusAlgorithms::NBX&lt; T1, T2 &gt; Pages: 1 -->
<svg width="145pt" height="117pt"
 viewBox="0.00 0.00 145.00 117.00" xmlns="http://www.w3.org/2000/svg" xmlns:xlink="http://www.w3.org/1999/xlink">
<g id="graph0" class="graph" transform="scale(1 1) rotate(0) translate(4 113)">
<title>Utilities::MPI::ConsensusAlgorithms::NBX&lt; T1, T2 &gt;</title>
<polygon fill="white" stroke="transparent" points="-4,4 -4,-113 141,-113 141,4 -4,4"/>
<!-- Node1 -->
<g id="node1" class="node">
<title>Node1</title>
<g id="a_node1"><a xlink:title=" ">
<polygon fill="#bfbfbf" stroke="black" points="0,-0.5 0,-30.5 137,-30.5 137,-0.5 0,-0.5"/>
<text text-anchor="start" x="8" y="-18.5" font-family="Helvetica,sans-Serif" font-size="10.00">Utilities::MPI::Consensus</text>
<text text-anchor="middle" x="68.5" y="-7.5" font-family="Helvetica,sans-Serif" font-size="10.00">Algorithms::NBX&lt; T1, T2 &gt;</text>
</a>
</g>
</g>
<!-- Node2 -->
<g id="node2" class="node">
<title>Node2</title>
<g id="a_node2"><a xlink:href="classUtilities_1_1MPI_1_1ConsensusAlgorithms_1_1Interface.html" target="_top" xlink:title=" ">
<polygon fill="white" stroke="black" points="4,-67.5 4,-108.5 133,-108.5 133,-67.5 4,-67.5"/>
<text text-anchor="start" x="12" y="-96.5" font-family="Helvetica,sans-Serif" font-size="10.00">Utilities::MPI::Consensus</text>
<text text-anchor="start" x="12" y="-85.5" font-family="Helvetica,sans-Serif" font-size="10.00">Algorithms::Interface&lt;</text>
<text text-anchor="middle" x="68.5" y="-74.5" font-family="Helvetica,sans-Serif" font-size="10.00"> T1, T2 &gt;</text>
</a>
</g>
</g>
<!-- Node2&#45;&gt;Node1 -->
<g id="edge1" class="edge">
<title>Node2&#45;&gt;Node1</title>
<path fill="none" stroke="midnightblue" d="M68.5,-57.08C68.5,-48.01 68.5,-38.45 68.5,-30.89"/>
<polygon fill="midnightblue" stroke="midnightblue" points="65,-57.36 68.5,-67.36 72,-57.36 65,-57.36"/>
</g>
</g>
</svg>
