<?xml version="1.0" encoding="UTF-8" standalone="no"?>
<!DOCTYPE svg PUBLIC "-//W3C//DTD SVG 1.1//EN"
 "http://www.w3.org/Graphics/SVG/1.1/DTD/svg11.dtd">
<!-- Generated by graphviz version 2.47.1 (20210417.1919)
 -->
<!-- Title: FE_FaceQ&lt; 1, spacedim &gt; Pages: 1 -->
<svg width="298pt" height="288pt"
 viewBox="0.00 0.00 298.00 288.00" xmlns="http://www.w3.org/2000/svg" xmlns:xlink="http://www.w3.org/1999/xlink">
<g id="graph0" class="graph" transform="scale(1 1) rotate(0) translate(4 284)">
<title>FE_FaceQ&lt; 1, spacedim &gt;</title>
<polygon fill="white" stroke="transparent" points="-4,4 -4,-284 294,-284 294,4 -4,4"/>
<!-- Node1 -->
<g id="node1" class="node">
<title>Node1</title>
<g id="a_node1"><a xlink:title=" ">
<polygon fill="#bfbfbf" stroke="black" points="76.5,-57.5 76.5,-76.5 211.5,-76.5 211.5,-57.5 76.5,-57.5"/>
<text text-anchor="middle" x="144" y="-64.5" font-family="Helvetica,sans-Serif" font-size="10.00">FE_FaceQ&lt; 1, spacedim &gt;</text>
</a>
</g>
</g>
<!-- Node6 -->
<g id="node6" class="node">
<title>Node6</title>
<g id="a_node6"><a xlink:href="classFE__FaceP_3_011_00_01spacedim_01_4.html" target="_top" xlink:title=" ">
<polygon fill="white" stroke="black" points="0,-0.5 0,-19.5 134,-19.5 134,-0.5 0,-0.5"/>
<text text-anchor="middle" x="67" y="-7.5" font-family="Helvetica,sans-Serif" font-size="10.00">FE_FaceP&lt; 1, spacedim &gt;</text>
</a>
</g>
</g>
<!-- Node1&#45;&gt;Node6 -->
<g id="edge7" class="edge">
<title>Node1&#45;&gt;Node6</title>
<path fill="none" stroke="midnightblue" d="M123.75,-51.54C109.5,-41.35 90.89,-28.07 78.95,-19.53"/>
<polygon fill="midnightblue" stroke="midnightblue" points="121.8,-54.44 131.97,-57.41 125.87,-48.75 121.8,-54.44"/>
</g>
<!-- Node7 -->
<g id="node7" class="node">
<title>Node7</title>
<g id="a_node7"><a xlink:href="classFE__TraceQ_3_011_00_01spacedim_01_4.html" target="_top" xlink:title=" ">
<polygon fill="white" stroke="black" points="152,-0.5 152,-19.5 290,-19.5 290,-0.5 152,-0.5"/>
<text text-anchor="middle" x="221" y="-7.5" font-family="Helvetica,sans-Serif" font-size="10.00">FE_TraceQ&lt; 1, spacedim &gt;</text>
</a>
</g>
</g>
<!-- Node1&#45;&gt;Node7 -->
<g id="edge8" class="edge">
<title>Node1&#45;&gt;Node7</title>
<path fill="none" stroke="midnightblue" d="M164.25,-51.54C178.5,-41.35 197.11,-28.07 209.05,-19.53"/>
<polygon fill="midnightblue" stroke="midnightblue" points="162.13,-48.75 156.03,-57.41 166.2,-54.44 162.13,-48.75"/>
</g>
<!-- Node2 -->
<g id="node2" class="node">
<title>Node2</title>
<g id="a_node2"><a xlink:href="classFiniteElement.html" target="_top" xlink:title=" ">
<polygon fill="white" stroke="black" points="70,-114.5 70,-133.5 218,-133.5 218,-114.5 70,-114.5"/>
<text text-anchor="middle" x="144" y="-121.5" font-family="Helvetica,sans-Serif" font-size="10.00">FiniteElement&lt; 1, spacedim &gt;</text>
</a>
</g>
</g>
<!-- Node2&#45;&gt;Node1 -->
<g id="edge1" class="edge">
<title>Node2&#45;&gt;Node1</title>
<path fill="none" stroke="midnightblue" d="M144,-104.12C144,-94.82 144,-84.06 144,-76.71"/>
<polygon fill="midnightblue" stroke="midnightblue" points="140.5,-104.41 144,-114.41 147.5,-104.41 140.5,-104.41"/>
</g>
<!-- Node3 -->
<g id="node3" class="node">
<title>Node3</title>
<g id="a_node3"><a xlink:href="classSubscriptor.html" target="_top" xlink:title=" ">
<polygon fill="white" stroke="black" points="56,-255 56,-274 122,-274 122,-255 56,-255"/>
<text text-anchor="middle" x="89" y="-262" font-family="Helvetica,sans-Serif" font-size="10.00">Subscriptor</text>
</a>
</g>
</g>
<!-- Node3&#45;&gt;Node2 -->
<g id="edge2" class="edge">
<title>Node3&#45;&gt;Node2</title>
<path fill="none" stroke="midnightblue" d="M86.38,-244.48C84.81,-227.23 84.51,-201.44 93,-181 101.27,-161.08 119.87,-143.7 132.18,-133.78"/>
<polygon fill="midnightblue" stroke="midnightblue" points="82.95,-245.36 87.58,-254.89 89.91,-244.56 82.95,-245.36"/>
</g>
<!-- Node5 -->
<g id="node5" class="node">
<title>Node5</title>
<g id="a_node5"><a xlink:href="classFiniteElement.html" target="_top" xlink:title=" ">
<polygon fill="white" stroke="black" points="102,-181.5 102,-211.5 206,-211.5 206,-181.5 102,-181.5"/>
<text text-anchor="start" x="110" y="-199.5" font-family="Helvetica,sans-Serif" font-size="10.00">FiniteElement&lt; dim,</text>
<text text-anchor="middle" x="154" y="-188.5" font-family="Helvetica,sans-Serif" font-size="10.00"> spacedim &gt;</text>
</a>
</g>
</g>
<!-- Node3&#45;&gt;Node5 -->
<g id="edge5" class="edge">
<title>Node3&#45;&gt;Node5</title>
<path fill="none" stroke="midnightblue" d="M104.64,-247.62C115.42,-236.67 129.63,-222.24 140.03,-211.68"/>
<polygon fill="midnightblue" stroke="midnightblue" points="102.02,-245.29 97.5,-254.87 107.01,-250.2 102.02,-245.29"/>
</g>
<!-- Node4 -->
<g id="node4" class="node">
<title>Node4</title>
<g id="a_node4"><a xlink:href="classFiniteElementData.html" target="_top" xlink:title=" ">
<polygon fill="white" stroke="black" points="168,-249.5 168,-279.5 272,-279.5 272,-249.5 168,-249.5"/>
<text text-anchor="start" x="176" y="-267.5" font-family="Helvetica,sans-Serif" font-size="10.00">FiniteElementData&lt;</text>
<text text-anchor="middle" x="220" y="-256.5" font-family="Helvetica,sans-Serif" font-size="10.00"> dim &gt;</text>
</a>
</g>
</g>
<!-- Node4&#45;&gt;Node2 -->
<g id="edge3" class="edge">
<title>Node4&#45;&gt;Node2</title>
<path fill="none" stroke="midnightblue" d="M227.41,-239.42C233.33,-215.07 237.99,-177.48 220,-152 213.94,-143.42 204.91,-137.55 195.17,-133.54"/>
<polygon fill="midnightblue" stroke="midnightblue" points="223.97,-238.71 224.77,-249.28 230.74,-240.53 223.97,-238.71"/>
</g>
<!-- Node4&#45;&gt;Node5 -->
<g id="edge6" class="edge">
<title>Node4&#45;&gt;Node5</title>
<path fill="none" stroke="midnightblue" d="M198.49,-241.99C188.59,-232.09 177.11,-220.61 168.29,-211.79"/>
<polygon fill="midnightblue" stroke="midnightblue" points="196.13,-244.58 205.68,-249.18 201.08,-239.63 196.13,-244.58"/>
</g>
<!-- Node5&#45;&gt;Node2 -->
<g id="edge4" class="edge">
<title>Node5&#45;&gt;Node2</title>
<path fill="none" stroke="orange" stroke-dasharray="5,2" d="M146.65,-171.51C145.99,-168.66 145.42,-165.78 145,-163 143.5,-152.95 143.44,-141.24 143.63,-133.5"/>
<polygon fill="orange" stroke="orange" points="143.34,-172.66 149.3,-181.42 150.1,-170.86 143.34,-172.66"/>
<text text-anchor="middle" x="182.5" y="-155" font-family="Helvetica,sans-Serif" font-size="10.00"> &lt; 1, spacedim &gt;</text>
</g>
</g>
</svg>
