<?xml version="1.0" encoding="UTF-8" standalone="no"?>
<!DOCTYPE svg PUBLIC "-//W3C//DTD SVG 1.1//EN"
 "http://www.w3.org/Graphics/SVG/1.1/DTD/svg11.dtd">
<!-- Generated by graphviz version 2.47.1 (20210417.1919)
 -->
<!-- Title: include/deal.II/integrators Pages: 1 -->
<svg width="174pt" height="383pt"
 viewBox="0.00 0.00 174.00 383.00" xmlns="http://www.w3.org/2000/svg" xmlns:xlink="http://www.w3.org/1999/xlink">
<g id="graph0" class="graph" transform="scale(1 1) rotate(0) translate(4 379)">
<title>include/deal.II/integrators</title>
<polygon fill="white" stroke="transparent" points="-4,4 -4,-379 170,-379 170,4 -4,4"/>
<g id="clust1" class="cluster">
<title>clusterdir_ee90d91a514b839c31faec7a1d916f67</title>
<g id="a_clust1"><a xlink:href="dir_ee90d91a514b839c31faec7a1d916f67.html" target="_top" xlink:title="deal.II">
<polygon fill="#ddddee" stroke="black" points="8,-8 8,-367 158,-367 158,-8 8,-8"/>
<text text-anchor="middle" x="83" y="-355" font-family="Helvetica,sans-Serif" font-size="10.00">deal.II</text>
</a>
</g>
</g>
<!-- dir_33a86324b0d1f765939ced0f5e9d1f5c -->
<g id="node1" class="node">
<title>dir_33a86324b0d1f765939ced0f5e9d1f5c</title>
<g id="a_node1"><a xlink:href="dir_33a86324b0d1f765939ced0f5e9d1f5c.html" target="_top" xlink:title="meshworker">
<polygon fill="none" stroke="black" points="86,-268 16,-268 16,-232 86,-232 86,-268"/>
<text text-anchor="middle" x="51" y="-247.5" font-family="Helvetica,sans-Serif" font-size="10.00">meshworker</text>
</a>
</g>
</g>
<!-- dir_90a2ad6518b731f1dc196d14153b8b6b -->
<g id="node2" class="node">
<title>dir_90a2ad6518b731f1dc196d14153b8b6b</title>
<g id="a_node2"><a xlink:href="dir_90a2ad6518b731f1dc196d14153b8b6b.html" target="_top" xlink:title="base">
<polygon fill="white" stroke="red" points="130,-196 76,-196 76,-160 130,-160 130,-196"/>
<text text-anchor="middle" x="103" y="-175.5" font-family="Helvetica,sans-Serif" font-size="10.00">base</text>
</a>
</g>
</g>
<!-- dir_33a86324b0d1f765939ced0f5e9d1f5c&#45;&gt;dir_90a2ad6518b731f1dc196d14153b8b6b -->
<g id="edge1" class="edge">
<title>dir_33a86324b0d1f765939ced0f5e9d1f5c&#45;&gt;dir_90a2ad6518b731f1dc196d14153b8b6b</title>
<path fill="none" stroke="black" d="M63.85,-231.7C70.03,-223.39 77.54,-213.28 84.32,-204.14"/>
<polygon fill="black" stroke="black" points="87.14,-206.22 90.29,-196.1 81.52,-202.04 87.14,-206.22"/>
<g id="a_edge1&#45;headlabel"><a xlink:href="dir_000031_000006.html" target="_top" xlink:title="37">
<text text-anchor="middle" x="87.28" y="-208.3" font-family="Helvetica,sans-Serif" font-size="10.00">37</text>
</a>
</g>
</g>
<!-- dir_9706acb4d69a98d7c15ebe226493116f -->
<g id="node3" class="node">
<title>dir_9706acb4d69a98d7c15ebe226493116f</title>
<g id="a_node3"><a xlink:href="dir_9706acb4d69a98d7c15ebe226493116f.html" target="_top" xlink:title="fe">
<polygon fill="none" stroke="black" points="90,-124 36,-124 36,-88 90,-88 90,-124"/>
<text text-anchor="middle" x="63" y="-103.5" font-family="Helvetica,sans-Serif" font-size="10.00">fe</text>
</a>
</g>
</g>
<!-- dir_33a86324b0d1f765939ced0f5e9d1f5c&#45;&gt;dir_9706acb4d69a98d7c15ebe226493116f -->
<g id="edge2" class="edge">
<title>dir_33a86324b0d1f765939ced0f5e9d1f5c&#45;&gt;dir_9706acb4d69a98d7c15ebe226493116f</title>
<path fill="none" stroke="black" d="M50.21,-231.88C49.62,-213.92 49.3,-184.89 52,-160 52.93,-151.46 54.59,-142.26 56.35,-133.96"/>
<polygon fill="black" stroke="black" points="59.8,-134.58 58.59,-124.05 52.97,-133.04 59.8,-134.58"/>
<g id="a_edge2&#45;headlabel"><a xlink:href="dir_000031_000008.html" target="_top" xlink:title="5">
<text text-anchor="middle" x="61.78" y="-136.21" font-family="Helvetica,sans-Serif" font-size="10.00">5</text>
</a>
</g>
</g>
<!-- dir_b2430326e20a3ae038db3bac19f0573b -->
<g id="node4" class="node">
<title>dir_b2430326e20a3ae038db3bac19f0573b</title>
<g id="a_node4"><a xlink:href="dir_b2430326e20a3ae038db3bac19f0573b.html" target="_top" xlink:title="lac">
<polygon fill="none" stroke="black" points="136,-52 82,-52 82,-16 136,-16 136,-52"/>
<text text-anchor="middle" x="109" y="-31.5" font-family="Helvetica,sans-Serif" font-size="10.00">lac</text>
</a>
</g>
</g>
<!-- dir_33a86324b0d1f765939ced0f5e9d1f5c&#45;&gt;dir_b2430326e20a3ae038db3bac19f0573b -->
<g id="edge3" class="edge">
<title>dir_33a86324b0d1f765939ced0f5e9d1f5c&#45;&gt;dir_b2430326e20a3ae038db3bac19f0573b</title>
<path fill="none" stroke="black" d="M41.92,-231.82C26.98,-201 1.33,-135.16 27,-88 36.78,-70.04 55.55,-57.23 72.67,-48.72"/>
<polygon fill="black" stroke="black" points="74.35,-51.8 81.95,-44.42 71.4,-45.45 74.35,-51.8"/>
<g id="a_edge3&#45;headlabel"><a xlink:href="dir_000031_000007.html" target="_top" xlink:title="8">
<text text-anchor="middle" x="72.28" y="-53.39" font-family="Helvetica,sans-Serif" font-size="10.00">8</text>
</a>
</g>
</g>
<!-- dir_90a2ad6518b731f1dc196d14153b8b6b&#45;&gt;dir_9706acb4d69a98d7c15ebe226493116f -->
<g id="edge9" class="edge">
<title>dir_90a2ad6518b731f1dc196d14153b8b6b&#45;&gt;dir_9706acb4d69a98d7c15ebe226493116f</title>
<path fill="none" stroke="black" d="M87.2,-159.7C81.82,-151.73 76.1,-142.1 71.45,-133.26"/>
<polygon fill="black" stroke="black" points="74.47,-131.49 66.88,-124.1 68.21,-134.62 74.47,-131.49"/>
<g id="a_edge9&#45;headlabel"><a xlink:href="dir_000006_000008.html" target="_top" xlink:title="4">
<text text-anchor="middle" x="78.62" y="-130.94" font-family="Helvetica,sans-Serif" font-size="10.00">4</text>
</a>
</g>
</g>
<!-- dir_90a2ad6518b731f1dc196d14153b8b6b&#45;&gt;dir_b2430326e20a3ae038db3bac19f0573b -->
<g id="edge10" class="edge">
<title>dir_90a2ad6518b731f1dc196d14153b8b6b&#45;&gt;dir_b2430326e20a3ae038db3bac19f0573b</title>
<path fill="none" stroke="black" d="M99.14,-159.87C97.6,-135.67 99.19,-91.21 102.38,-62.39"/>
<polygon fill="black" stroke="black" points="105.89,-62.55 103.68,-52.19 98.95,-61.67 105.89,-62.55"/>
<g id="a_edge10&#45;headlabel"><a xlink:href="dir_000006_000007.html" target="_top" xlink:title="8">
<text text-anchor="middle" x="108.25" y="-63.98" font-family="Helvetica,sans-Serif" font-size="10.00">8</text>
</a>
</g>
</g>
<!-- dir_9706acb4d69a98d7c15ebe226493116f&#45;&gt;dir_90a2ad6518b731f1dc196d14153b8b6b -->
<g id="edge11" class="edge">
<title>dir_9706acb4d69a98d7c15ebe226493116f&#45;&gt;dir_90a2ad6518b731f1dc196d14153b8b6b</title>
<path fill="none" stroke="black" d="M78.67,-124.1C84.04,-132.04 89.76,-141.67 94.43,-150.51"/>
<polygon fill="black" stroke="black" points="91.42,-152.32 99.03,-159.7 97.68,-149.19 91.42,-152.32"/>
<g id="a_edge11&#45;headlabel"><a xlink:href="dir_000008_000006.html" target="_top" xlink:title="191">
<text text-anchor="middle" x="87.28" y="-147.87" font-family="Helvetica,sans-Serif" font-size="10.00">191</text>
</a>
</g>
</g>
<!-- dir_9706acb4d69a98d7c15ebe226493116f&#45;&gt;dir_b2430326e20a3ae038db3bac19f0573b -->
<g id="edge12" class="edge">
<title>dir_9706acb4d69a98d7c15ebe226493116f&#45;&gt;dir_b2430326e20a3ae038db3bac19f0573b</title>
<path fill="none" stroke="black" d="M74.37,-87.7C79.72,-79.56 86.2,-69.69 92.11,-60.7"/>
<polygon fill="black" stroke="black" points="95.19,-62.38 97.76,-52.1 89.34,-58.54 95.19,-62.38"/>
<g id="a_edge12&#45;headlabel"><a xlink:href="dir_000008_000007.html" target="_top" xlink:title="7">
<text text-anchor="middle" x="95.59" y="-64.45" font-family="Helvetica,sans-Serif" font-size="10.00">7</text>
</a>
</g>
</g>
<!-- dir_b2430326e20a3ae038db3bac19f0573b&#45;&gt;dir_90a2ad6518b731f1dc196d14153b8b6b -->
<g id="edge8" class="edge">
<title>dir_b2430326e20a3ae038db3bac19f0573b&#45;&gt;dir_90a2ad6518b731f1dc196d14153b8b6b</title>
<path fill="none" stroke="black" d="M112.86,-52.19C114.4,-76.42 112.8,-120.89 109.61,-149.68"/>
<polygon fill="black" stroke="black" points="106.1,-149.51 108.31,-159.87 113.05,-150.39 106.1,-149.51"/>
<g id="a_edge8&#45;headlabel"><a xlink:href="dir_000007_000006.html" target="_top" xlink:title="312">
<text text-anchor="middle" x="103.74" y="-143.08" font-family="Helvetica,sans-Serif" font-size="10.00">312</text>
</a>
</g>
</g>
<!-- dir_59948edc023d99ea6aa5f167e13e5943 -->
<g id="node5" class="node">
<title>dir_59948edc023d99ea6aa5f167e13e5943</title>
<g id="a_node5"><a xlink:href="dir_59948edc023d99ea6aa5f167e13e5943.html" target="_top" xlink:title="integrators">
<polygon fill="#eeeeff" stroke="black" points="143,-340 81,-340 81,-304 143,-304 143,-340"/>
<text text-anchor="middle" x="112" y="-319.5" font-family="Helvetica,sans-Serif" font-size="10.00">integrators</text>
</a>
</g>
</g>
<!-- dir_59948edc023d99ea6aa5f167e13e5943&#45;&gt;dir_33a86324b0d1f765939ced0f5e9d1f5c -->
<g id="edge4" class="edge">
<title>dir_59948edc023d99ea6aa5f167e13e5943&#45;&gt;dir_33a86324b0d1f765939ced0f5e9d1f5c</title>
<path fill="none" stroke="black" d="M96.92,-303.7C89.61,-295.3 80.69,-285.07 72.66,-275.86"/>
<polygon fill="black" stroke="black" points="75.11,-273.34 65.91,-268.1 69.84,-277.94 75.11,-273.34"/>
<g id="a_edge4&#45;headlabel"><a xlink:href="dir_000029_000031.html" target="_top" xlink:title="8">
<text text-anchor="middle" x="79.62" y="-271.69" font-family="Helvetica,sans-Serif" font-size="10.00">8</text>
</a>
</g>
</g>
<!-- dir_59948edc023d99ea6aa5f167e13e5943&#45;&gt;dir_90a2ad6518b731f1dc196d14153b8b6b -->
<g id="edge5" class="edge">
<title>dir_59948edc023d99ea6aa5f167e13e5943&#45;&gt;dir_90a2ad6518b731f1dc196d14153b8b6b</title>
<path fill="none" stroke="black" d="M112.17,-303.91C112.21,-285.97 111.92,-256.96 110,-232 109.35,-223.54 108.27,-214.37 107.15,-206.06"/>
<polygon fill="black" stroke="black" points="110.61,-205.55 105.74,-196.14 103.68,-206.53 110.61,-205.55"/>
<g id="a_edge5&#45;headlabel"><a xlink:href="dir_000029_000006.html" target="_top" xlink:title="25">
<text text-anchor="middle" x="113.93" y="-206.21" font-family="Helvetica,sans-Serif" font-size="10.00">25</text>
</a>
</g>
</g>
<!-- dir_59948edc023d99ea6aa5f167e13e5943&#45;&gt;dir_9706acb4d69a98d7c15ebe226493116f -->
<g id="edge6" class="edge">
<title>dir_59948edc023d99ea6aa5f167e13e5943&#45;&gt;dir_9706acb4d69a98d7c15ebe226493116f</title>
<path fill="none" stroke="black" d="M111.11,-303.89C109.62,-285.42 105.63,-255.5 95,-232 86.64,-213.53 74.01,-215.02 67,-196 59.75,-176.32 59.06,-152.51 60.01,-134.47"/>
<polygon fill="black" stroke="black" points="63.51,-134.56 60.75,-124.34 56.53,-134.06 63.51,-134.56"/>
<g id="a_edge6&#45;headlabel"><a xlink:href="dir_000029_000008.html" target="_top" xlink:title="16">
<text text-anchor="middle" x="66.08" y="-135.86" font-family="Helvetica,sans-Serif" font-size="10.00">16</text>
</a>
</g>
</g>
<!-- dir_59948edc023d99ea6aa5f167e13e5943&#45;&gt;dir_b2430326e20a3ae038db3bac19f0573b -->
<g id="edge7" class="edge">
<title>dir_59948edc023d99ea6aa5f167e13e5943&#45;&gt;dir_b2430326e20a3ae038db3bac19f0573b</title>
<path fill="none" stroke="black" d="M118.18,-303.69C127.95,-274.28 145.23,-212.63 139,-160 134.94,-125.67 124.81,-87.13 117.44,-62.04"/>
<polygon fill="black" stroke="black" points="120.71,-60.73 114.48,-52.16 114,-62.74 120.71,-60.73"/>
<g id="a_edge7&#45;headlabel"><a xlink:href="dir_000029_000007.html" target="_top" xlink:title="7">
<text text-anchor="middle" x="124.46" y="-60.86" font-family="Helvetica,sans-Serif" font-size="10.00">7</text>
</a>
</g>
</g>
</g>
</svg>
