<?xml version="1.0" encoding="UTF-8" standalone="no"?>
<!DOCTYPE svg PUBLIC "-//W3C//DTD SVG 1.1//EN"
 "http://www.w3.org/Graphics/SVG/1.1/DTD/svg11.dtd">
<!-- Generated by graphviz version 2.47.1 (20210417.1919)
 -->
<!-- Title: include/deal.II/distributed Pages: 1 -->
<svg width="182pt" height="383pt"
 viewBox="0.00 0.00 182.00 383.00" xmlns="http://www.w3.org/2000/svg" xmlns:xlink="http://www.w3.org/1999/xlink">
<g id="graph0" class="graph" transform="scale(1 1) rotate(0) translate(4 379)">
<title>include/deal.II/distributed</title>
<polygon fill="white" stroke="transparent" points="-4,4 -4,-379 178,-379 178,4 -4,4"/>
<g id="clust1" class="cluster">
<title>clusterdir_ee90d91a514b839c31faec7a1d916f67</title>
<g id="a_clust1"><a xlink:href="dir_ee90d91a514b839c31faec7a1d916f67.html" target="_top" xlink:title="deal.II">
<polygon fill="#ddddee" stroke="black" points="8,-8 8,-367 166,-367 166,-8 8,-8"/>
<text text-anchor="middle" x="87" y="-355" font-family="Helvetica,sans-Serif" font-size="10.00">deal.II</text>
</a>
</g>
</g>
<!-- dir_1a6d8571b8eba91bded1d6534762df79 -->
<g id="node1" class="node">
<title>dir_1a6d8571b8eba91bded1d6534762df79</title>
<g id="a_node1"><a xlink:href="dir_1a6d8571b8eba91bded1d6534762df79.html" target="_top" xlink:title="dofs">
<polygon fill="none" stroke="black" points="116,-340 62,-340 62,-304 116,-304 116,-340"/>
<text text-anchor="middle" x="89" y="-319.5" font-family="Helvetica,sans-Serif" font-size="10.00">dofs</text>
</a>
</g>
</g>
<!-- dir_90a2ad6518b731f1dc196d14153b8b6b -->
<g id="node3" class="node">
<title>dir_90a2ad6518b731f1dc196d14153b8b6b</title>
<g id="a_node3"><a xlink:href="dir_90a2ad6518b731f1dc196d14153b8b6b.html" target="_top" xlink:title="base">
<polygon fill="white" stroke="red" points="70,-268 16,-268 16,-232 70,-232 70,-268"/>
<text text-anchor="middle" x="43" y="-247.5" font-family="Helvetica,sans-Serif" font-size="10.00">base</text>
</a>
</g>
</g>
<!-- dir_1a6d8571b8eba91bded1d6534762df79&#45;&gt;dir_90a2ad6518b731f1dc196d14153b8b6b -->
<g id="edge14" class="edge">
<title>dir_1a6d8571b8eba91bded1d6534762df79&#45;&gt;dir_90a2ad6518b731f1dc196d14153b8b6b</title>
<path fill="none" stroke="black" d="M71.71,-303.7C65.59,-295.64 58.97,-285.89 53.53,-276.98"/>
<polygon fill="black" stroke="black" points="56.41,-274.98 48.34,-268.1 50.36,-278.51 56.41,-274.98"/>
<g id="a_edge14&#45;headlabel"><a xlink:href="dir_000027_000006.html" target="_top" xlink:title="31">
<text text-anchor="middle" x="60.67" y="-274.15" font-family="Helvetica,sans-Serif" font-size="10.00">31</text>
</a>
</g>
</g>
<!-- dir_a933ab6cde53f9fa4d29dc295cb0ac5f -->
<g id="node4" class="node">
<title>dir_a933ab6cde53f9fa4d29dc295cb0ac5f</title>
<g id="a_node4"><a xlink:href="dir_a933ab6cde53f9fa4d29dc295cb0ac5f.html" target="_top" xlink:title="grid">
<polygon fill="none" stroke="black" points="90,-124 36,-124 36,-88 90,-88 90,-124"/>
<text text-anchor="middle" x="63" y="-103.5" font-family="Helvetica,sans-Serif" font-size="10.00">grid</text>
</a>
</g>
</g>
<!-- dir_1a6d8571b8eba91bded1d6534762df79&#45;&gt;dir_a933ab6cde53f9fa4d29dc295cb0ac5f -->
<g id="edge15" class="edge">
<title>dir_1a6d8571b8eba91bded1d6534762df79&#45;&gt;dir_a933ab6cde53f9fa4d29dc295cb0ac5f</title>
<path fill="none" stroke="black" d="M81.42,-303.76C77.98,-285.71 75.42,-256.6 70,-232 66.37,-215.53 61.07,-212.58 58,-196 54.22,-175.6 53.3,-152.14 54.58,-134.43"/>
<polygon fill="black" stroke="black" points="58.09,-134.53 55.65,-124.22 51.13,-133.8 58.09,-134.53"/>
<g id="a_edge15&#45;headlabel"><a xlink:href="dir_000027_000009.html" target="_top" xlink:title="1">
<text text-anchor="middle" x="60.54" y="-135.91" font-family="Helvetica,sans-Serif" font-size="10.00">1</text>
</a>
</g>
</g>
<!-- dir_273e60b3573ce9ad58a4d725e6a36523 -->
<g id="node5" class="node">
<title>dir_273e60b3573ce9ad58a4d725e6a36523</title>
<g id="a_node5"><a xlink:href="dir_273e60b3573ce9ad58a4d725e6a36523.html" target="_top" xlink:title="distributed">
<polygon fill="#eeeeff" stroke="black" points="138,-196 76,-196 76,-160 138,-160 138,-196"/>
<text text-anchor="middle" x="107" y="-175.5" font-family="Helvetica,sans-Serif" font-size="10.00">distributed</text>
</a>
</g>
</g>
<!-- dir_1a6d8571b8eba91bded1d6534762df79&#45;&gt;dir_273e60b3573ce9ad58a4d725e6a36523 -->
<g id="edge13" class="edge">
<title>dir_1a6d8571b8eba91bded1d6534762df79&#45;&gt;dir_273e60b3573ce9ad58a4d725e6a36523</title>
<path fill="none" stroke="black" d="M86.59,-303.87C87.1,-279.56 92.49,-234.82 98.14,-206.01"/>
<polygon fill="black" stroke="black" points="101.58,-206.7 100.23,-196.19 94.73,-205.24 101.58,-206.7"/>
<g id="a_edge13&#45;headlabel"><a xlink:href="dir_000027_000025.html" target="_top" xlink:title="1">
<text text-anchor="middle" x="103.61" y="-208.3" font-family="Helvetica,sans-Serif" font-size="10.00">1</text>
</a>
</g>
</g>
<!-- dir_5c2eb6d9a7a6f1e9cd32e0e8abf42ca6 -->
<g id="node2" class="node">
<title>dir_5c2eb6d9a7a6f1e9cd32e0e8abf42ca6</title>
<g id="a_node2"><a xlink:href="dir_5c2eb6d9a7a6f1e9cd32e0e8abf42ca6.html" target="_top" xlink:title="numerics">
<polygon fill="none" stroke="black" points="91,-52 35,-52 35,-16 91,-16 91,-52"/>
<text text-anchor="middle" x="63" y="-31.5" font-family="Helvetica,sans-Serif" font-size="10.00">numerics</text>
</a>
</g>
</g>
<!-- dir_5c2eb6d9a7a6f1e9cd32e0e8abf42ca6&#45;&gt;dir_1a6d8571b8eba91bded1d6534762df79 -->
<g id="edge16" class="edge">
<title>dir_5c2eb6d9a7a6f1e9cd32e0e8abf42ca6&#45;&gt;dir_1a6d8571b8eba91bded1d6534762df79</title>
<path fill="none" stroke="black" d="M80.19,-52.09C101.28,-74.52 135.65,-116.21 147,-160 159.74,-209.16 129.61,-264.45 108.18,-295.77"/>
<polygon fill="black" stroke="black" points="105.32,-293.75 102.41,-303.94 111.03,-297.79 105.32,-293.75"/>
<g id="a_edge16&#45;headlabel"><a xlink:href="dir_000026_000027.html" target="_top" xlink:title="12">
<text text-anchor="middle" x="105.07" y="-286.68" font-family="Helvetica,sans-Serif" font-size="10.00">12</text>
</a>
</g>
</g>
<!-- dir_5c2eb6d9a7a6f1e9cd32e0e8abf42ca6&#45;&gt;dir_90a2ad6518b731f1dc196d14153b8b6b -->
<g id="edge17" class="edge">
<title>dir_5c2eb6d9a7a6f1e9cd32e0e8abf42ca6&#45;&gt;dir_90a2ad6518b731f1dc196d14153b8b6b</title>
<path fill="none" stroke="black" d="M55.37,-52.23C48.63,-61.97 40.05,-74.82 36,-88 22.05,-133.35 33.48,-188.94 40.28,-221.52"/>
<polygon fill="black" stroke="black" points="36.92,-222.55 42.36,-231.64 43.77,-221.14 36.92,-222.55"/>
<g id="a_edge17&#45;headlabel"><a xlink:href="dir_000026_000006.html" target="_top" xlink:title="74">
<text text-anchor="middle" x="33.41" y="-217.11" font-family="Helvetica,sans-Serif" font-size="10.00">74</text>
</a>
</g>
</g>
<!-- dir_5c2eb6d9a7a6f1e9cd32e0e8abf42ca6&#45;&gt;dir_a933ab6cde53f9fa4d29dc295cb0ac5f -->
<g id="edge18" class="edge">
<title>dir_5c2eb6d9a7a6f1e9cd32e0e8abf42ca6&#45;&gt;dir_a933ab6cde53f9fa4d29dc295cb0ac5f</title>
<path fill="none" stroke="black" d="M68.9,-52.1C69.7,-59.79 69.94,-69.05 69.6,-77.67"/>
<polygon fill="black" stroke="black" points="66.11,-77.48 68.92,-87.7 73.09,-77.96 66.11,-77.48"/>
<g id="a_edge18&#45;headlabel"><a xlink:href="dir_000026_000009.html" target="_top" xlink:title="7">
<text text-anchor="middle" x="63.52" y="-71.2" font-family="Helvetica,sans-Serif" font-size="10.00">7</text>
</a>
</g>
</g>
<!-- dir_90a2ad6518b731f1dc196d14153b8b6b&#45;&gt;dir_1a6d8571b8eba91bded1d6534762df79 -->
<g id="edge9" class="edge">
<title>dir_90a2ad6518b731f1dc196d14153b8b6b&#45;&gt;dir_1a6d8571b8eba91bded1d6534762df79</title>
<path fill="none" stroke="black" d="M60.14,-268.1C66.25,-276.13 72.87,-285.87 78.34,-294.8"/>
<polygon fill="black" stroke="black" points="75.47,-296.83 83.54,-303.7 81.52,-293.3 75.47,-296.83"/>
<g id="a_edge9&#45;headlabel"><a xlink:href="dir_000006_000027.html" target="_top" xlink:title="2">
<text text-anchor="middle" x="71.21" y="-292.66" font-family="Helvetica,sans-Serif" font-size="10.00">2</text>
</a>
</g>
</g>
<!-- dir_90a2ad6518b731f1dc196d14153b8b6b&#45;&gt;dir_5c2eb6d9a7a6f1e9cd32e0e8abf42ca6 -->
<g id="edge11" class="edge">
<title>dir_90a2ad6518b731f1dc196d14153b8b6b&#45;&gt;dir_5c2eb6d9a7a6f1e9cd32e0e8abf42ca6</title>
<path fill="none" stroke="black" d="M31.49,-231.64C18.38,-201.64 2.48,-138.47 18,-88 21.04,-78.11 26.62,-68.41 32.93,-60.07"/>
<polygon fill="black" stroke="black" points="35.74,-62.16 39.41,-52.23 30.35,-57.71 35.74,-62.16"/>
<g id="a_edge11&#45;headlabel"><a xlink:href="dir_000006_000026.html" target="_top" xlink:title="2">
<text text-anchor="middle" x="35.64" y="-64.24" font-family="Helvetica,sans-Serif" font-size="10.00">2</text>
</a>
</g>
</g>
<!-- dir_90a2ad6518b731f1dc196d14153b8b6b&#45;&gt;dir_a933ab6cde53f9fa4d29dc295cb0ac5f -->
<g id="edge12" class="edge">
<title>dir_90a2ad6518b731f1dc196d14153b8b6b&#45;&gt;dir_a933ab6cde53f9fa4d29dc295cb0ac5f</title>
<path fill="none" stroke="black" d="M37.48,-231.87C36.59,-213.9 39.17,-184.87 43,-160 44.32,-151.42 46.12,-142.12 48.31,-133.75"/>
<polygon fill="black" stroke="black" points="51.68,-134.69 51.16,-124.1 44.97,-132.7 51.68,-134.69"/>
<g id="a_edge12&#45;headlabel"><a xlink:href="dir_000006_000009.html" target="_top" xlink:title="8">
<text text-anchor="middle" x="53.38" y="-136.44" font-family="Helvetica,sans-Serif" font-size="10.00">8</text>
</a>
</g>
</g>
<!-- dir_90a2ad6518b731f1dc196d14153b8b6b&#45;&gt;dir_273e60b3573ce9ad58a4d725e6a36523 -->
<g id="edge10" class="edge">
<title>dir_90a2ad6518b731f1dc196d14153b8b6b&#45;&gt;dir_273e60b3573ce9ad58a4d725e6a36523</title>
<path fill="none" stroke="black" d="M52.9,-231.7C59.85,-223.14 69.25,-212.66 78.32,-203.3"/>
<polygon fill="black" stroke="black" points="80.9,-205.67 85.47,-196.1 75.94,-200.73 80.9,-205.67"/>
<g id="a_edge10&#45;headlabel"><a xlink:href="dir_000006_000025.html" target="_top" xlink:title="1">
<text text-anchor="middle" x="80.39" y="-207.72" font-family="Helvetica,sans-Serif" font-size="10.00">1</text>
</a>
</g>
</g>
<!-- dir_a933ab6cde53f9fa4d29dc295cb0ac5f&#45;&gt;dir_1a6d8571b8eba91bded1d6534762df79 -->
<g id="edge5" class="edge">
<title>dir_a933ab6cde53f9fa4d29dc295cb0ac5f&#45;&gt;dir_1a6d8571b8eba91bded1d6534762df79</title>
<path fill="none" stroke="black" d="M69.09,-124.22C71.04,-142.27 71.43,-171.36 76,-196 79.07,-212.58 84.37,-215.53 88,-232 92.49,-252.37 95.02,-275.83 95.11,-293.55"/>
<polygon fill="black" stroke="black" points="91.61,-293.68 94.86,-303.76 98.61,-293.86 91.61,-293.68"/>
<g id="a_edge5&#45;headlabel"><a xlink:href="dir_000009_000027.html" target="_top" xlink:title="2">
<text text-anchor="middle" x="88.86" y="-287.51" font-family="Helvetica,sans-Serif" font-size="10.00">2</text>
</a>
</g>
</g>
<!-- dir_a933ab6cde53f9fa4d29dc295cb0ac5f&#45;&gt;dir_5c2eb6d9a7a6f1e9cd32e0e8abf42ca6 -->
<g id="edge7" class="edge">
<title>dir_a933ab6cde53f9fa4d29dc295cb0ac5f&#45;&gt;dir_5c2eb6d9a7a6f1e9cd32e0e8abf42ca6</title>
<path fill="none" stroke="black" d="M57.08,-87.7C56.29,-79.98 56.06,-70.71 56.4,-62.11"/>
<polygon fill="black" stroke="black" points="59.9,-62.32 57.1,-52.1 52.92,-61.84 59.9,-62.32"/>
<g id="a_edge7&#45;headlabel"><a xlink:href="dir_000009_000026.html" target="_top" xlink:title="3">
<text text-anchor="middle" x="62.48" y="-63.61" font-family="Helvetica,sans-Serif" font-size="10.00">3</text>
</a>
</g>
</g>
<!-- dir_a933ab6cde53f9fa4d29dc295cb0ac5f&#45;&gt;dir_90a2ad6518b731f1dc196d14153b8b6b -->
<g id="edge8" class="edge">
<title>dir_a933ab6cde53f9fa4d29dc295cb0ac5f&#45;&gt;dir_90a2ad6518b731f1dc196d14153b8b6b</title>
<path fill="none" stroke="black" d="M66.8,-124.1C65.67,-134.45 62.86,-147.93 61,-160 57.83,-180.59 55.51,-204.04 52.73,-221.7"/>
<polygon fill="black" stroke="black" points="49.22,-221.41 50.92,-231.87 56.12,-222.64 49.22,-221.41"/>
<g id="a_edge8&#45;headlabel"><a xlink:href="dir_000009_000006.html" target="_top" xlink:title="89">
<text text-anchor="middle" x="47.06" y="-214.88" font-family="Helvetica,sans-Serif" font-size="10.00">89</text>
</a>
</g>
</g>
<!-- dir_a933ab6cde53f9fa4d29dc295cb0ac5f&#45;&gt;dir_273e60b3573ce9ad58a4d725e6a36523 -->
<g id="edge6" class="edge">
<title>dir_a933ab6cde53f9fa4d29dc295cb0ac5f&#45;&gt;dir_273e60b3573ce9ad58a4d725e6a36523</title>
<path fill="none" stroke="black" d="M79.65,-124.1C85.53,-132.13 91.88,-141.87 97.09,-150.8"/>
<polygon fill="black" stroke="black" points="94.12,-152.66 102.04,-159.7 100.23,-149.26 94.12,-152.66"/>
<g id="a_edge6&#45;headlabel"><a xlink:href="dir_000009_000025.html" target="_top" xlink:title="2">
<text text-anchor="middle" x="89.89" y="-148.4" font-family="Helvetica,sans-Serif" font-size="10.00">2</text>
</a>
</g>
</g>
<!-- dir_273e60b3573ce9ad58a4d725e6a36523&#45;&gt;dir_1a6d8571b8eba91bded1d6534762df79 -->
<g id="edge1" class="edge">
<title>dir_273e60b3573ce9ad58a4d725e6a36523&#45;&gt;dir_1a6d8571b8eba91bded1d6534762df79</title>
<path fill="none" stroke="black" d="M109.41,-196.19C108.89,-220.53 103.5,-265.28 97.84,-294.06"/>
<polygon fill="black" stroke="black" points="94.41,-293.36 95.76,-303.87 101.26,-294.82 94.41,-293.36"/>
<g id="a_edge1&#45;headlabel"><a xlink:href="dir_000025_000027.html" target="_top" xlink:title="2">
<text text-anchor="middle" x="92.38" y="-286.76" font-family="Helvetica,sans-Serif" font-size="10.00">2</text>
</a>
</g>
</g>
<!-- dir_273e60b3573ce9ad58a4d725e6a36523&#45;&gt;dir_5c2eb6d9a7a6f1e9cd32e0e8abf42ca6 -->
<g id="edge2" class="edge">
<title>dir_273e60b3573ce9ad58a4d725e6a36523&#45;&gt;dir_5c2eb6d9a7a6f1e9cd32e0e8abf42ca6</title>
<path fill="none" stroke="black" d="M107.97,-159.73C108.42,-141.38 107.51,-111.81 99,-88 95.56,-78.36 89.94,-68.8 84.15,-60.51"/>
<polygon fill="black" stroke="black" points="86.9,-58.34 78.14,-52.38 81.27,-62.5 86.9,-58.34"/>
<g id="a_edge2&#45;headlabel"><a xlink:href="dir_000025_000026.html" target="_top" xlink:title="2">
<text text-anchor="middle" x="91.32" y="-57.05" font-family="Helvetica,sans-Serif" font-size="10.00">2</text>
</a>
</g>
</g>
<!-- dir_273e60b3573ce9ad58a4d725e6a36523&#45;&gt;dir_90a2ad6518b731f1dc196d14153b8b6b -->
<g id="edge3" class="edge">
<title>dir_273e60b3573ce9ad58a4d725e6a36523&#45;&gt;dir_90a2ad6518b731f1dc196d14153b8b6b</title>
<path fill="none" stroke="black" d="M97.26,-196.1C90.35,-204.64 80.97,-215.11 71.89,-224.48"/>
<polygon fill="black" stroke="black" points="69.29,-222.13 64.74,-231.7 74.26,-227.06 69.29,-222.13"/>
<g id="a_edge3&#45;headlabel"><a xlink:href="dir_000025_000006.html" target="_top" xlink:title="26">
<text text-anchor="middle" x="69.81" y="-215.08" font-family="Helvetica,sans-Serif" font-size="10.00">26</text>
</a>
</g>
</g>
<!-- dir_273e60b3573ce9ad58a4d725e6a36523&#45;&gt;dir_a933ab6cde53f9fa4d29dc295cb0ac5f -->
<g id="edge4" class="edge">
<title>dir_273e60b3573ce9ad58a4d725e6a36523&#45;&gt;dir_a933ab6cde53f9fa4d29dc295cb0ac5f</title>
<path fill="none" stroke="black" d="M90.21,-159.7C84.32,-151.64 77.98,-141.89 72.79,-132.98"/>
<polygon fill="black" stroke="black" points="75.77,-131.15 67.86,-124.1 69.65,-134.55 75.77,-131.15"/>
<g id="a_edge4&#45;headlabel"><a xlink:href="dir_000025_000009.html" target="_top" xlink:title="4">
<text text-anchor="middle" x="80" y="-130.41" font-family="Helvetica,sans-Serif" font-size="10.00">4</text>
</a>
</g>
</g>
</g>
</svg>
