<?xml version="1.0" encoding="UTF-8" standalone="no"?>
<!DOCTYPE svg PUBLIC "-//W3C//DTD SVG 1.1//EN"
 "http://www.w3.org/Graphics/SVG/1.1/DTD/svg11.dtd">
<!-- Generated by graphviz version 2.47.1 (20210417.1919)
 -->
<!-- Title: include/deal.II/matrix_free Pages: 1 -->
<svg width="354pt" height="599pt"
 viewBox="0.00 0.00 354.00 599.00" xmlns="http://www.w3.org/2000/svg" xmlns:xlink="http://www.w3.org/1999/xlink">
<g id="graph0" class="graph" transform="scale(1 1) rotate(0) translate(4 595)">
<title>include/deal.II/matrix_free</title>
<polygon fill="white" stroke="transparent" points="-4,4 -4,-595 350,-595 350,4 -4,4"/>
<g id="clust1" class="cluster">
<title>clusterdir_ee90d91a514b839c31faec7a1d916f67</title>
<g id="a_clust1"><a xlink:href="dir_ee90d91a514b839c31faec7a1d916f67.html" target="_top" xlink:title="deal.II">
<polygon fill="#ddddee" stroke="black" points="8,-8 8,-583 338,-583 338,-8 8,-8"/>
<text text-anchor="middle" x="173" y="-571" font-family="Helvetica,sans-Serif" font-size="10.00">deal.II</text>
</a>
</g>
</g>
<!-- dir_1a6d8571b8eba91bded1d6534762df79 -->
<g id="node1" class="node">
<title>dir_1a6d8571b8eba91bded1d6534762df79</title>
<g id="a_node1"><a xlink:href="dir_1a6d8571b8eba91bded1d6534762df79.html" target="_top" xlink:title="dofs">
<polygon fill="none" stroke="black" points="172,-556 118,-556 118,-520 172,-520 172,-556"/>
<text text-anchor="middle" x="145" y="-535.5" font-family="Helvetica,sans-Serif" font-size="10.00">dofs</text>
</a>
</g>
</g>
<!-- dir_273e60b3573ce9ad58a4d725e6a36523 -->
<g id="node2" class="node">
<title>dir_273e60b3573ce9ad58a4d725e6a36523</title>
<g id="a_node2"><a xlink:href="dir_273e60b3573ce9ad58a4d725e6a36523.html" target="_top" xlink:title="distributed">
<polygon fill="none" stroke="black" points="176,-484 114,-484 114,-448 176,-448 176,-484"/>
<text text-anchor="middle" x="145" y="-463.5" font-family="Helvetica,sans-Serif" font-size="10.00">distributed</text>
</a>
</g>
</g>
<!-- dir_1a6d8571b8eba91bded1d6534762df79&#45;&gt;dir_273e60b3573ce9ad58a4d725e6a36523 -->
<g id="edge27" class="edge">
<title>dir_1a6d8571b8eba91bded1d6534762df79&#45;&gt;dir_273e60b3573ce9ad58a4d725e6a36523</title>
<path fill="none" stroke="black" d="M139.08,-519.7C138.29,-511.98 138.06,-502.71 138.4,-494.11"/>
<polygon fill="black" stroke="black" points="141.9,-494.32 139.1,-484.1 134.92,-493.84 141.9,-494.32"/>
<g id="a_edge27&#45;headlabel"><a xlink:href="dir_000027_000025.html" target="_top" xlink:title="1">
<text text-anchor="middle" x="144.48" y="-495.61" font-family="Helvetica,sans-Serif" font-size="10.00">1</text>
</a>
</g>
</g>
<!-- dir_4022f63979af12af4c32ec9a4562b2df -->
<g id="node3" class="node">
<title>dir_4022f63979af12af4c32ec9a4562b2df</title>
<g id="a_node3"><a xlink:href="dir_4022f63979af12af4c32ec9a4562b2df.html" target="_top" xlink:title="hp">
<polygon fill="none" stroke="black" points="132,-52 78,-52 78,-16 132,-16 132,-52"/>
<text text-anchor="middle" x="105" y="-31.5" font-family="Helvetica,sans-Serif" font-size="10.00">hp</text>
</a>
</g>
</g>
<!-- dir_1a6d8571b8eba91bded1d6534762df79&#45;&gt;dir_4022f63979af12af4c32ec9a4562b2df -->
<g id="edge28" class="edge">
<title>dir_1a6d8571b8eba91bded1d6534762df79&#45;&gt;dir_4022f63979af12af4c32ec9a4562b2df</title>
<path fill="none" stroke="black" d="M117.67,-530.69C93.43,-523.01 59.35,-508.01 39,-484 11.92,-452.04 8,-436.89 8,-395 8,-395 8,-395 8,-177 8,-129.81 43.55,-85.25 71.77,-59.03"/>
<polygon fill="black" stroke="black" points="74.36,-61.41 79.5,-52.14 69.7,-56.18 74.36,-61.41"/>
<g id="a_edge28&#45;headlabel"><a xlink:href="dir_000027_000028.html" target="_top" xlink:title="4">
<text text-anchor="middle" x="73.57" y="-63.42" font-family="Helvetica,sans-Serif" font-size="10.00">4</text>
</a>
</g>
</g>
<!-- dir_90a2ad6518b731f1dc196d14153b8b6b -->
<g id="node4" class="node">
<title>dir_90a2ad6518b731f1dc196d14153b8b6b</title>
<g id="a_node4"><a xlink:href="dir_90a2ad6518b731f1dc196d14153b8b6b.html" target="_top" xlink:title="base">
<polygon fill="white" stroke="red" points="190,-268 136,-268 136,-232 190,-232 190,-268"/>
<text text-anchor="middle" x="163" y="-247.5" font-family="Helvetica,sans-Serif" font-size="10.00">base</text>
</a>
</g>
</g>
<!-- dir_1a6d8571b8eba91bded1d6534762df79&#45;&gt;dir_90a2ad6518b731f1dc196d14153b8b6b -->
<g id="edge29" class="edge">
<title>dir_1a6d8571b8eba91bded1d6534762df79&#45;&gt;dir_90a2ad6518b731f1dc196d14153b8b6b</title>
<path fill="none" stroke="black" d="M154.71,-519.6C162.24,-510 171.53,-497.34 176,-484 199.91,-412.64 177.7,-322.56 167.01,-278.21"/>
<polygon fill="black" stroke="black" points="170.35,-277.13 164.63,-268.21 163.54,-278.75 170.35,-277.13"/>
<g id="a_edge29&#45;headlabel"><a xlink:href="dir_000027_000006.html" target="_top" xlink:title="31">
<text text-anchor="middle" x="173.94" y="-277.47" font-family="Helvetica,sans-Serif" font-size="10.00">31</text>
</a>
</g>
</g>
<!-- dir_9706acb4d69a98d7c15ebe226493116f -->
<g id="node5" class="node">
<title>dir_9706acb4d69a98d7c15ebe226493116f</title>
<g id="a_node5"><a xlink:href="dir_9706acb4d69a98d7c15ebe226493116f.html" target="_top" xlink:title="fe">
<polygon fill="none" stroke="black" points="150,-196 96,-196 96,-160 150,-160 150,-196"/>
<text text-anchor="middle" x="123" y="-175.5" font-family="Helvetica,sans-Serif" font-size="10.00">fe</text>
</a>
</g>
</g>
<!-- dir_1a6d8571b8eba91bded1d6534762df79&#45;&gt;dir_9706acb4d69a98d7c15ebe226493116f -->
<g id="edge30" class="edge">
<title>dir_1a6d8571b8eba91bded1d6534762df79&#45;&gt;dir_9706acb4d69a98d7c15ebe226493116f</title>
<path fill="none" stroke="black" d="M117.95,-522.77C83.19,-499.89 28,-451.68 28,-395 28,-395 28,-395 28,-321 28,-274.11 62.74,-229.46 90.37,-203.15"/>
<polygon fill="black" stroke="black" points="92.92,-205.56 97.94,-196.23 88.2,-200.39 92.92,-205.56"/>
<g id="a_edge30&#45;headlabel"><a xlink:href="dir_000027_000008.html" target="_top" xlink:title="1">
<text text-anchor="middle" x="92.18" y="-207.58" font-family="Helvetica,sans-Serif" font-size="10.00">1</text>
</a>
</g>
</g>
<!-- dir_a933ab6cde53f9fa4d29dc295cb0ac5f -->
<g id="node6" class="node">
<title>dir_a933ab6cde53f9fa4d29dc295cb0ac5f</title>
<g id="a_node6"><a xlink:href="dir_a933ab6cde53f9fa4d29dc295cb0ac5f.html" target="_top" xlink:title="grid">
<polygon fill="none" stroke="black" points="118,-412 64,-412 64,-376 118,-376 118,-412"/>
<text text-anchor="middle" x="91" y="-391.5" font-family="Helvetica,sans-Serif" font-size="10.00">grid</text>
</a>
</g>
</g>
<!-- dir_1a6d8571b8eba91bded1d6534762df79&#45;&gt;dir_a933ab6cde53f9fa4d29dc295cb0ac5f -->
<g id="edge31" class="edge">
<title>dir_1a6d8571b8eba91bded1d6534762df79&#45;&gt;dir_a933ab6cde53f9fa4d29dc295cb0ac5f</title>
<path fill="none" stroke="black" d="M120.54,-519.75C111.14,-510.01 101.58,-497.16 96,-484 87.66,-464.35 84.24,-440.36 84.22,-422.24"/>
<polygon fill="black" stroke="black" points="87.72,-422.2 84.61,-412.07 80.73,-421.93 87.72,-422.2"/>
<g id="a_edge31&#45;headlabel"><a xlink:href="dir_000027_000009.html" target="_top" xlink:title="1">
<text text-anchor="middle" x="90.42" y="-423.4" font-family="Helvetica,sans-Serif" font-size="10.00">1</text>
</a>
</g>
</g>
<!-- dir_b2430326e20a3ae038db3bac19f0573b -->
<g id="node8" class="node">
<title>dir_b2430326e20a3ae038db3bac19f0573b</title>
<g id="a_node8"><a xlink:href="dir_b2430326e20a3ae038db3bac19f0573b.html" target="_top" xlink:title="lac">
<polygon fill="none" stroke="black" points="270,-340 216,-340 216,-304 270,-304 270,-340"/>
<text text-anchor="middle" x="243" y="-319.5" font-family="Helvetica,sans-Serif" font-size="10.00">lac</text>
</a>
</g>
</g>
<!-- dir_1a6d8571b8eba91bded1d6534762df79&#45;&gt;dir_b2430326e20a3ae038db3bac19f0573b -->
<g id="edge32" class="edge">
<title>dir_1a6d8571b8eba91bded1d6534762df79&#45;&gt;dir_b2430326e20a3ae038db3bac19f0573b</title>
<path fill="none" stroke="black" d="M169.16,-519.83C180.68,-510.46 193.73,-497.94 202,-484 227.24,-441.47 237.06,-383.7 240.8,-350.17"/>
<polygon fill="black" stroke="black" points="244.28,-350.49 241.81,-340.19 237.32,-349.78 244.28,-350.49"/>
<g id="a_edge32&#45;headlabel"><a xlink:href="dir_000027_000007.html" target="_top" xlink:title="2">
<text text-anchor="middle" x="246.74" y="-351.85" font-family="Helvetica,sans-Serif" font-size="10.00">2</text>
</a>
</g>
</g>
<!-- dir_273e60b3573ce9ad58a4d725e6a36523&#45;&gt;dir_1a6d8571b8eba91bded1d6534762df79 -->
<g id="edge1" class="edge">
<title>dir_273e60b3573ce9ad58a4d725e6a36523&#45;&gt;dir_1a6d8571b8eba91bded1d6534762df79</title>
<path fill="none" stroke="black" d="M150.9,-484.1C151.7,-491.79 151.94,-501.05 151.6,-509.67"/>
<polygon fill="black" stroke="black" points="148.11,-509.48 150.92,-519.7 155.09,-509.96 148.11,-509.48"/>
<g id="a_edge1&#45;headlabel"><a xlink:href="dir_000025_000027.html" target="_top" xlink:title="2">
<text text-anchor="middle" x="145.52" y="-503.2" font-family="Helvetica,sans-Serif" font-size="10.00">2</text>
</a>
</g>
</g>
<!-- dir_273e60b3573ce9ad58a4d725e6a36523&#45;&gt;dir_90a2ad6518b731f1dc196d14153b8b6b -->
<g id="edge2" class="edge">
<title>dir_273e60b3573ce9ad58a4d725e6a36523&#45;&gt;dir_90a2ad6518b731f1dc196d14153b8b6b</title>
<path fill="none" stroke="black" d="M142.57,-447.85C142.14,-410.75 149.27,-322.81 156.05,-278.1"/>
<polygon fill="black" stroke="black" points="159.5,-278.67 157.67,-268.23 152.59,-277.53 159.5,-278.67"/>
<g id="a_edge2&#45;headlabel"><a xlink:href="dir_000025_000006.html" target="_top" xlink:title="26">
<text text-anchor="middle" x="161.72" y="-280.17" font-family="Helvetica,sans-Serif" font-size="10.00">26</text>
</a>
</g>
</g>
<!-- dir_273e60b3573ce9ad58a4d725e6a36523&#45;&gt;dir_a933ab6cde53f9fa4d29dc295cb0ac5f -->
<g id="edge3" class="edge">
<title>dir_273e60b3573ce9ad58a4d725e6a36523&#45;&gt;dir_a933ab6cde53f9fa4d29dc295cb0ac5f</title>
<path fill="none" stroke="black" d="M125.74,-447.7C118.54,-439.47 110.64,-429.48 104.09,-420.42"/>
<polygon fill="black" stroke="black" points="106.89,-418.31 98.3,-412.1 101.14,-422.31 106.89,-418.31"/>
<g id="a_edge3&#45;headlabel"><a xlink:href="dir_000025_000009.html" target="_top" xlink:title="4">
<text text-anchor="middle" x="111.27" y="-417.14" font-family="Helvetica,sans-Serif" font-size="10.00">4</text>
</a>
</g>
</g>
<!-- dir_4022f63979af12af4c32ec9a4562b2df&#45;&gt;dir_1a6d8571b8eba91bded1d6534762df79 -->
<g id="edge6" class="edge">
<title>dir_4022f63979af12af4c32ec9a4562b2df&#45;&gt;dir_1a6d8571b8eba91bded1d6534762df79</title>
<path fill="none" stroke="black" d="M91.44,-52.14C68.54,-76.89 26,-125.37 26,-177 26,-395 26,-395 26,-395 26,-436.89 29.92,-452.04 57,-484 70.71,-500.18 90.67,-512.27 108.19,-520.78"/>
<polygon fill="black" stroke="black" points="107.08,-524.13 117.62,-525.15 110.02,-517.77 107.08,-524.13"/>
<g id="a_edge6&#45;headlabel"><a xlink:href="dir_000028_000027.html" target="_top" xlink:title="2">
<text text-anchor="middle" x="102.62" y="-522.69" font-family="Helvetica,sans-Serif" font-size="10.00">2</text>
</a>
</g>
</g>
<!-- dir_4022f63979af12af4c32ec9a4562b2df&#45;&gt;dir_90a2ad6518b731f1dc196d14153b8b6b -->
<g id="edge7" class="edge">
<title>dir_4022f63979af12af4c32ec9a4562b2df&#45;&gt;dir_90a2ad6518b731f1dc196d14153b8b6b</title>
<path fill="none" stroke="black" d="M120.86,-52.11C136.64,-75.58 158.66,-119.46 168,-160 172.68,-180.32 173.54,-203.91 171.99,-221.7"/>
<polygon fill="black" stroke="black" points="168.51,-221.34 170.77,-231.69 175.46,-222.19 168.51,-221.34"/>
<g id="a_edge7&#45;headlabel"><a xlink:href="dir_000028_000006.html" target="_top" xlink:title="13">
<text text-anchor="middle" x="166.13" y="-214.93" font-family="Helvetica,sans-Serif" font-size="10.00">13</text>
</a>
</g>
</g>
<!-- dir_4022f63979af12af4c32ec9a4562b2df&#45;&gt;dir_9706acb4d69a98d7c15ebe226493116f -->
<g id="edge8" class="edge">
<title>dir_4022f63979af12af4c32ec9a4562b2df&#45;&gt;dir_9706acb4d69a98d7c15ebe226493116f</title>
<path fill="none" stroke="black" d="M111.77,-52.19C117.4,-76.42 123.32,-120.89 124.99,-149.68"/>
<polygon fill="black" stroke="black" points="121.5,-150.03 125.41,-159.87 128.5,-149.74 121.5,-150.03"/>
<g id="a_edge8&#45;headlabel"><a xlink:href="dir_000028_000008.html" target="_top" xlink:title="7">
<text text-anchor="middle" x="118.52" y="-144.05" font-family="Helvetica,sans-Serif" font-size="10.00">7</text>
</a>
</g>
</g>
<!-- dir_4022f63979af12af4c32ec9a4562b2df&#45;&gt;dir_a933ab6cde53f9fa4d29dc295cb0ac5f -->
<g id="edge9" class="edge">
<title>dir_4022f63979af12af4c32ec9a4562b2df&#45;&gt;dir_a933ab6cde53f9fa4d29dc295cb0ac5f</title>
<path fill="none" stroke="black" d="M100.87,-52.29C89.99,-78.42 66,-129.9 66,-177 66,-251 66,-251 66,-251 66,-290.65 61.17,-301.86 72,-340 74.57,-349.07 78.83,-358.35 82.86,-366.56"/>
<polygon fill="black" stroke="black" points="79.78,-368.24 87.37,-375.64 86.05,-365.12 79.78,-368.24"/>
<g id="a_edge9&#45;headlabel"><a xlink:href="dir_000028_000009.html" target="_top" xlink:title="2">
<text text-anchor="middle" x="75.64" y="-363.78" font-family="Helvetica,sans-Serif" font-size="10.00">2</text>
</a>
</g>
</g>
<!-- dir_90a2ad6518b731f1dc196d14153b8b6b&#45;&gt;dir_1a6d8571b8eba91bded1d6534762df79 -->
<g id="edge16" class="edge">
<title>dir_90a2ad6518b731f1dc196d14153b8b6b&#45;&gt;dir_1a6d8571b8eba91bded1d6534762df79</title>
<path fill="none" stroke="black" d="M173.98,-268.21C191.73,-307.58 219.88,-406.75 194,-484 190.61,-494.11 184.46,-503.82 177.55,-512.12"/>
<polygon fill="black" stroke="black" points="174.89,-509.84 170.76,-519.6 180.07,-514.55 174.89,-509.84"/>
<g id="a_edge16&#45;headlabel"><a xlink:href="dir_000006_000027.html" target="_top" xlink:title="2">
<text text-anchor="middle" x="175.2" y="-502.77" font-family="Helvetica,sans-Serif" font-size="10.00">2</text>
</a>
</g>
</g>
<!-- dir_90a2ad6518b731f1dc196d14153b8b6b&#45;&gt;dir_273e60b3573ce9ad58a4d725e6a36523 -->
<g id="edge17" class="edge">
<title>dir_90a2ad6518b731f1dc196d14153b8b6b&#45;&gt;dir_273e60b3573ce9ad58a4d725e6a36523</title>
<path fill="none" stroke="black" d="M165.44,-268.23C165.85,-305.32 158.74,-392.98 151.98,-437.71"/>
<polygon fill="black" stroke="black" points="148.48,-437.41 150.32,-447.85 155.39,-438.55 148.48,-437.41"/>
<g id="a_edge17&#45;headlabel"><a xlink:href="dir_000006_000025.html" target="_top" xlink:title="1">
<text text-anchor="middle" x="146.26" y="-430.91" font-family="Helvetica,sans-Serif" font-size="10.00">1</text>
</a>
</g>
</g>
<!-- dir_90a2ad6518b731f1dc196d14153b8b6b&#45;&gt;dir_4022f63979af12af4c32ec9a4562b2df -->
<g id="edge18" class="edge">
<title>dir_90a2ad6518b731f1dc196d14153b8b6b&#45;&gt;dir_4022f63979af12af4c32ec9a4562b2df</title>
<path fill="none" stroke="black" d="M157.33,-231.69C155.73,-213.57 155.62,-184.42 150,-160 141.79,-124.36 123.79,-86.16 112.81,-61.49"/>
<polygon fill="black" stroke="black" points="115.92,-59.88 108.71,-52.11 109.51,-62.68 115.92,-59.88"/>
<g id="a_edge18&#45;headlabel"><a xlink:href="dir_000006_000028.html" target="_top" xlink:title="1">
<text text-anchor="middle" x="119.96" y="-59.54" font-family="Helvetica,sans-Serif" font-size="10.00">1</text>
</a>
</g>
</g>
<!-- dir_90a2ad6518b731f1dc196d14153b8b6b&#45;&gt;dir_9706acb4d69a98d7c15ebe226493116f -->
<g id="edge19" class="edge">
<title>dir_90a2ad6518b731f1dc196d14153b8b6b&#45;&gt;dir_9706acb4d69a98d7c15ebe226493116f</title>
<path fill="none" stroke="black" d="M147.2,-231.7C141.82,-223.73 136.1,-214.1 131.45,-205.26"/>
<polygon fill="black" stroke="black" points="134.47,-203.49 126.88,-196.1 128.21,-206.62 134.47,-203.49"/>
<g id="a_edge19&#45;headlabel"><a xlink:href="dir_000006_000008.html" target="_top" xlink:title="4">
<text text-anchor="middle" x="138.62" y="-202.94" font-family="Helvetica,sans-Serif" font-size="10.00">4</text>
</a>
</g>
</g>
<!-- dir_90a2ad6518b731f1dc196d14153b8b6b&#45;&gt;dir_a933ab6cde53f9fa4d29dc295cb0ac5f -->
<g id="edge20" class="edge">
<title>dir_90a2ad6518b731f1dc196d14153b8b6b&#45;&gt;dir_a933ab6cde53f9fa4d29dc295cb0ac5f</title>
<path fill="none" stroke="black" d="M158.88,-268.19C148.97,-292.85 126.1,-338.46 109.44,-367.19"/>
<polygon fill="black" stroke="black" points="106.37,-365.49 104.27,-375.87 112.39,-369.07 106.37,-365.49"/>
<g id="a_edge20&#45;headlabel"><a xlink:href="dir_000006_000009.html" target="_top" xlink:title="8">
<text text-anchor="middle" x="105.77" y="-358.45" font-family="Helvetica,sans-Serif" font-size="10.00">8</text>
</a>
</g>
</g>
<!-- dir_90a2ad6518b731f1dc196d14153b8b6b&#45;&gt;dir_b2430326e20a3ae038db3bac19f0573b -->
<g id="edge21" class="edge">
<title>dir_90a2ad6518b731f1dc196d14153b8b6b&#45;&gt;dir_b2430326e20a3ae038db3bac19f0573b</title>
<path fill="none" stroke="black" d="M188.44,-268.1C199.19,-276.72 211.49,-287.32 221.75,-296.76"/>
<polygon fill="black" stroke="black" points="219.46,-299.4 229.14,-303.7 224.25,-294.3 219.46,-299.4"/>
<g id="a_edge21&#45;headlabel"><a xlink:href="dir_000006_000007.html" target="_top" xlink:title="8">
<text text-anchor="middle" x="214.89" y="-296.51" font-family="Helvetica,sans-Serif" font-size="10.00">8</text>
</a>
</g>
</g>
<!-- dir_9706acb4d69a98d7c15ebe226493116f&#45;&gt;dir_1a6d8571b8eba91bded1d6534762df79 -->
<g id="edge42" class="edge">
<title>dir_9706acb4d69a98d7c15ebe226493116f&#45;&gt;dir_1a6d8571b8eba91bded1d6534762df79</title>
<path fill="none" stroke="black" d="M109.89,-196.23C87.58,-221.09 46,-269.7 46,-321 46,-395 46,-395 46,-395 46,-444.69 88.41,-487.86 117.86,-513.18"/>
<polygon fill="black" stroke="black" points="115.87,-516.08 125.78,-519.83 120.38,-510.72 115.87,-516.08"/>
<g id="a_edge42&#45;headlabel"><a xlink:href="dir_000008_000027.html" target="_top" xlink:title="6">
<text text-anchor="middle" x="111.29" y="-513.44" font-family="Helvetica,sans-Serif" font-size="10.00">6</text>
</a>
</g>
</g>
<!-- dir_9706acb4d69a98d7c15ebe226493116f&#45;&gt;dir_273e60b3573ce9ad58a4d725e6a36523 -->
<g id="edge43" class="edge">
<title>dir_9706acb4d69a98d7c15ebe226493116f&#45;&gt;dir_273e60b3573ce9ad58a4d725e6a36523</title>
<path fill="none" stroke="black" d="M123.53,-196.08C124.15,-214 125.3,-243 127,-268 131.13,-328.66 138.16,-399.63 142.1,-437.64"/>
<polygon fill="black" stroke="black" points="138.65,-438.31 143.17,-447.89 145.61,-437.58 138.65,-438.31"/>
<g id="a_edge43&#45;headlabel"><a xlink:href="dir_000008_000025.html" target="_top" xlink:title="1">
<text text-anchor="middle" x="135.45" y="-432.53" font-family="Helvetica,sans-Serif" font-size="10.00">1</text>
</a>
</g>
</g>
<!-- dir_9706acb4d69a98d7c15ebe226493116f&#45;&gt;dir_4022f63979af12af4c32ec9a4562b2df -->
<g id="edge44" class="edge">
<title>dir_9706acb4d69a98d7c15ebe226493116f&#45;&gt;dir_4022f63979af12af4c32ec9a4562b2df</title>
<path fill="none" stroke="black" d="M116.24,-159.87C110.62,-135.67 104.69,-91.21 103.01,-62.39"/>
<polygon fill="black" stroke="black" points="106.5,-62.03 102.59,-52.19 99.51,-62.33 106.5,-62.03"/>
<g id="a_edge44&#45;headlabel"><a xlink:href="dir_000008_000028.html" target="_top" xlink:title="7">
<text text-anchor="middle" x="109.49" y="-63.01" font-family="Helvetica,sans-Serif" font-size="10.00">7</text>
</a>
</g>
</g>
<!-- dir_9706acb4d69a98d7c15ebe226493116f&#45;&gt;dir_90a2ad6518b731f1dc196d14153b8b6b -->
<g id="edge45" class="edge">
<title>dir_9706acb4d69a98d7c15ebe226493116f&#45;&gt;dir_90a2ad6518b731f1dc196d14153b8b6b</title>
<path fill="none" stroke="black" d="M138.67,-196.1C144.04,-204.04 149.76,-213.67 154.43,-222.51"/>
<polygon fill="black" stroke="black" points="151.42,-224.32 159.03,-231.7 157.68,-221.19 151.42,-224.32"/>
<g id="a_edge45&#45;headlabel"><a xlink:href="dir_000008_000006.html" target="_top" xlink:title="191">
<text text-anchor="middle" x="147.28" y="-219.87" font-family="Helvetica,sans-Serif" font-size="10.00">191</text>
</a>
</g>
</g>
<!-- dir_9706acb4d69a98d7c15ebe226493116f&#45;&gt;dir_a933ab6cde53f9fa4d29dc295cb0ac5f -->
<g id="edge46" class="edge">
<title>dir_9706acb4d69a98d7c15ebe226493116f&#45;&gt;dir_a933ab6cde53f9fa4d29dc295cb0ac5f</title>
<path fill="none" stroke="black" d="M126.93,-196.12C125.84,-206.47 123.03,-219.95 121,-232 113.12,-278.7 106.54,-333.45 100.4,-365.56"/>
<polygon fill="black" stroke="black" points="96.93,-365.04 98.33,-375.54 103.79,-366.46 96.93,-365.04"/>
<g id="a_edge46&#45;headlabel"><a xlink:href="dir_000008_000009.html" target="_top" xlink:title="9">
<text text-anchor="middle" x="94.88" y="-358.45" font-family="Helvetica,sans-Serif" font-size="10.00">9</text>
</a>
</g>
</g>
<!-- dir_9706acb4d69a98d7c15ebe226493116f&#45;&gt;dir_b2430326e20a3ae038db3bac19f0573b -->
<g id="edge47" class="edge">
<title>dir_9706acb4d69a98d7c15ebe226493116f&#45;&gt;dir_b2430326e20a3ae038db3bac19f0573b</title>
<path fill="none" stroke="black" d="M150.2,-193.36C165.98,-202.73 185.36,-216.15 199,-232 214.82,-250.39 226.54,-275.45 233.89,-294.29"/>
<polygon fill="black" stroke="black" points="230.65,-295.63 237.43,-303.78 237.21,-293.18 230.65,-295.63"/>
<g id="a_edge47&#45;headlabel"><a xlink:href="dir_000008_000007.html" target="_top" xlink:title="7">
<text text-anchor="middle" x="226.74" y="-290.75" font-family="Helvetica,sans-Serif" font-size="10.00">7</text>
</a>
</g>
</g>
<!-- dir_16ec7e00b3eaf1dbf09e67ec3cfcc7e2 -->
<g id="node9" class="node">
<title>dir_16ec7e00b3eaf1dbf09e67ec3cfcc7e2</title>
<g id="a_node9"><a xlink:href="dir_16ec7e00b3eaf1dbf09e67ec3cfcc7e2.html" target="_top" xlink:title="matrix_free">
<polygon fill="#eeeeff" stroke="black" points="229.5,-124 164.5,-124 164.5,-88 229.5,-88 229.5,-124"/>
<text text-anchor="middle" x="197" y="-103.5" font-family="Helvetica,sans-Serif" font-size="10.00">matrix_free</text>
</a>
</g>
</g>
<!-- dir_9706acb4d69a98d7c15ebe226493116f&#45;&gt;dir_16ec7e00b3eaf1dbf09e67ec3cfcc7e2 -->
<g id="edge41" class="edge">
<title>dir_9706acb4d69a98d7c15ebe226493116f&#45;&gt;dir_16ec7e00b3eaf1dbf09e67ec3cfcc7e2</title>
<path fill="none" stroke="black" d="M135.38,-159.7C143.71,-150.97 154.87,-140.24 165.46,-130.75"/>
<polygon fill="black" stroke="black" points="167.82,-133.34 173.02,-124.1 163.2,-128.08 167.82,-133.34"/>
<g id="a_edge41&#45;headlabel"><a xlink:href="dir_000008_000030.html" target="_top" xlink:title="9">
<text text-anchor="middle" x="167" y="-135.34" font-family="Helvetica,sans-Serif" font-size="10.00">9</text>
</a>
</g>
</g>
<!-- dir_a933ab6cde53f9fa4d29dc295cb0ac5f&#45;&gt;dir_1a6d8571b8eba91bded1d6534762df79 -->
<g id="edge10" class="edge">
<title>dir_a933ab6cde53f9fa4d29dc295cb0ac5f&#45;&gt;dir_1a6d8571b8eba91bded1d6534762df79</title>
<path fill="none" stroke="black" d="M97.88,-412.07C101.05,-430.5 103.98,-460.39 114,-484 118.14,-493.77 124.48,-503.36 130.47,-511.64"/>
<polygon fill="black" stroke="black" points="127.72,-513.81 136.49,-519.75 133.34,-509.64 127.72,-513.81"/>
<g id="a_edge10&#45;headlabel"><a xlink:href="dir_000009_000027.html" target="_top" xlink:title="2">
<text text-anchor="middle" x="123.3" y="-510.12" font-family="Helvetica,sans-Serif" font-size="10.00">2</text>
</a>
</g>
</g>
<!-- dir_a933ab6cde53f9fa4d29dc295cb0ac5f&#45;&gt;dir_273e60b3573ce9ad58a4d725e6a36523 -->
<g id="edge11" class="edge">
<title>dir_a933ab6cde53f9fa4d29dc295cb0ac5f&#45;&gt;dir_273e60b3573ce9ad58a4d725e6a36523</title>
<path fill="none" stroke="black" d="M110.09,-412.1C117.27,-420.3 125.18,-430.28 131.75,-439.36"/>
<polygon fill="black" stroke="black" points="128.98,-441.5 137.57,-447.7 134.72,-437.49 128.98,-441.5"/>
<g id="a_edge11&#45;headlabel"><a xlink:href="dir_000009_000025.html" target="_top" xlink:title="2">
<text text-anchor="middle" x="124.59" y="-437.67" font-family="Helvetica,sans-Serif" font-size="10.00">2</text>
</a>
</g>
</g>
<!-- dir_a933ab6cde53f9fa4d29dc295cb0ac5f&#45;&gt;dir_4022f63979af12af4c32ec9a4562b2df -->
<g id="edge12" class="edge">
<title>dir_a933ab6cde53f9fa4d29dc295cb0ac5f&#45;&gt;dir_4022f63979af12af4c32ec9a4562b2df</title>
<path fill="none" stroke="black" d="M71.52,-375.64C64.42,-365.65 57.58,-352.61 54,-340 43.17,-301.86 48,-290.65 48,-251 48,-251 48,-251 48,-177 48,-134.68 67.37,-88.83 83.81,-61.01"/>
<polygon fill="black" stroke="black" points="86.92,-62.63 89.24,-52.29 80.98,-58.93 86.92,-62.63"/>
<g id="a_edge12&#45;headlabel"><a xlink:href="dir_000009_000028.html" target="_top" xlink:title="1">
<text text-anchor="middle" x="87.43" y="-64.68" font-family="Helvetica,sans-Serif" font-size="10.00">1</text>
</a>
</g>
</g>
<!-- dir_a933ab6cde53f9fa4d29dc295cb0ac5f&#45;&gt;dir_90a2ad6518b731f1dc196d14153b8b6b -->
<g id="edge13" class="edge">
<title>dir_a933ab6cde53f9fa4d29dc295cb0ac5f&#45;&gt;dir_90a2ad6518b731f1dc196d14153b8b6b</title>
<path fill="none" stroke="black" d="M95.1,-375.87C104.98,-351.24 127.85,-305.64 144.52,-276.88"/>
<polygon fill="black" stroke="black" points="147.59,-278.57 149.69,-268.19 141.57,-275 147.59,-278.57"/>
<g id="a_edge13&#45;headlabel"><a xlink:href="dir_000009_000006.html" target="_top" xlink:title="89">
<text text-anchor="middle" x="148.19" y="-280.61" font-family="Helvetica,sans-Serif" font-size="10.00">89</text>
</a>
</g>
</g>
<!-- dir_a933ab6cde53f9fa4d29dc295cb0ac5f&#45;&gt;dir_9706acb4d69a98d7c15ebe226493116f -->
<g id="edge14" class="edge">
<title>dir_a933ab6cde53f9fa4d29dc295cb0ac5f&#45;&gt;dir_9706acb4d69a98d7c15ebe226493116f</title>
<path fill="none" stroke="black" d="M87.35,-375.54C87.07,-345.93 94.23,-283.98 103,-232 104.45,-223.44 106.28,-214.15 108.46,-205.77"/>
<polygon fill="black" stroke="black" points="111.83,-206.7 111.28,-196.12 105.12,-204.74 111.83,-206.7"/>
<g id="a_edge14&#45;headlabel"><a xlink:href="dir_000009_000008.html" target="_top" xlink:title="3">
<text text-anchor="middle" x="113.55" y="-208.45" font-family="Helvetica,sans-Serif" font-size="10.00">3</text>
</a>
</g>
</g>
<!-- dir_a933ab6cde53f9fa4d29dc295cb0ac5f&#45;&gt;dir_b2430326e20a3ae038db3bac19f0573b -->
<g id="edge15" class="edge">
<title>dir_a933ab6cde53f9fa4d29dc295cb0ac5f&#45;&gt;dir_b2430326e20a3ae038db3bac19f0573b</title>
<path fill="none" stroke="black" d="M118.17,-380.49C142.85,-369.12 179.43,-352.28 206.61,-339.76"/>
<polygon fill="black" stroke="black" points="208.19,-342.89 215.8,-335.52 205.26,-336.53 208.19,-342.89"/>
<g id="a_edge15&#45;headlabel"><a xlink:href="dir_000009_000007.html" target="_top" xlink:title="1">
<text text-anchor="middle" x="206.11" y="-344.47" font-family="Helvetica,sans-Serif" font-size="10.00">1</text>
</a>
</g>
</g>
<!-- dir_ada57aea8afb76a9bb917c427f1e04b0 -->
<g id="node7" class="node">
<title>dir_ada57aea8afb76a9bb917c427f1e04b0</title>
<g id="a_node7"><a xlink:href="dir_ada57aea8afb76a9bb917c427f1e04b0.html" target="_top" xlink:title="multigrid">
<polygon fill="none" stroke="black" points="286,-52 232,-52 232,-16 286,-16 286,-52"/>
<text text-anchor="middle" x="259" y="-31.5" font-family="Helvetica,sans-Serif" font-size="10.00">multigrid</text>
</a>
</g>
</g>
<!-- dir_ada57aea8afb76a9bb917c427f1e04b0&#45;&gt;dir_1a6d8571b8eba91bded1d6534762df79 -->
<g id="edge22" class="edge">
<title>dir_ada57aea8afb76a9bb917c427f1e04b0&#45;&gt;dir_1a6d8571b8eba91bded1d6534762df79</title>
<path fill="none" stroke="black" d="M273.85,-52.03C294.39,-77.42 329,-127.53 329,-177 329,-395 329,-395 329,-395 329,-440.81 311.68,-454.07 277,-484 249.69,-507.56 210.57,-521.49 182.01,-529.11"/>
<polygon fill="black" stroke="black" points="180.85,-525.79 172.01,-531.64 182.56,-532.58 180.85,-525.79"/>
<g id="a_edge22&#45;headlabel"><a xlink:href="dir_000032_000027.html" target="_top" xlink:title="9">
<text text-anchor="middle" x="183.64" y="-519.66" font-family="Helvetica,sans-Serif" font-size="10.00">9</text>
</a>
</g>
</g>
<!-- dir_ada57aea8afb76a9bb917c427f1e04b0&#45;&gt;dir_273e60b3573ce9ad58a4d725e6a36523 -->
<g id="edge23" class="edge">
<title>dir_ada57aea8afb76a9bb917c427f1e04b0&#45;&gt;dir_273e60b3573ce9ad58a4d725e6a36523</title>
<path fill="none" stroke="black" d="M265.37,-52.12C282.1,-100.03 323.11,-238.53 279,-340 259.64,-384.54 215.72,-420.41 183.42,-442.11"/>
<polygon fill="black" stroke="black" points="181.1,-439.44 174.65,-447.85 184.93,-445.3 181.1,-439.44"/>
<g id="a_edge23&#45;headlabel"><a xlink:href="dir_000032_000025.html" target="_top" xlink:title="2">
<text text-anchor="middle" x="182.55" y="-432.6" font-family="Helvetica,sans-Serif" font-size="10.00">2</text>
</a>
</g>
</g>
<!-- dir_ada57aea8afb76a9bb917c427f1e04b0&#45;&gt;dir_90a2ad6518b731f1dc196d14153b8b6b -->
<g id="edge24" class="edge">
<title>dir_ada57aea8afb76a9bb917c427f1e04b0&#45;&gt;dir_90a2ad6518b731f1dc196d14153b8b6b</title>
<path fill="none" stroke="black" d="M256.82,-52.23C254.13,-70.53 248.66,-100.06 239,-124 224.18,-160.71 199.24,-199.05 181.99,-223.43"/>
<polygon fill="black" stroke="black" points="179,-221.59 176.01,-231.76 184.69,-225.67 179,-221.59"/>
<g id="a_edge24&#45;headlabel"><a xlink:href="dir_000032_000006.html" target="_top" xlink:title="35">
<text text-anchor="middle" x="178.79" y="-214.51" font-family="Helvetica,sans-Serif" font-size="10.00">35</text>
</a>
</g>
</g>
<!-- dir_ada57aea8afb76a9bb917c427f1e04b0&#45;&gt;dir_9706acb4d69a98d7c15ebe226493116f -->
<g id="edge25" class="edge">
<title>dir_ada57aea8afb76a9bb917c427f1e04b0&#45;&gt;dir_9706acb4d69a98d7c15ebe226493116f</title>
<path fill="none" stroke="black" d="M231.85,-42.81C208.79,-50.73 176.28,-65.13 156,-88 140.6,-105.38 132.15,-130.59 127.67,-149.74"/>
<polygon fill="black" stroke="black" points="124.22,-149.17 125.57,-159.68 131.07,-150.62 124.22,-149.17"/>
<g id="a_edge25&#45;headlabel"><a xlink:href="dir_000032_000008.html" target="_top" xlink:title="1">
<text text-anchor="middle" x="122.18" y="-142.56" font-family="Helvetica,sans-Serif" font-size="10.00">1</text>
</a>
</g>
</g>
<!-- dir_ada57aea8afb76a9bb917c427f1e04b0&#45;&gt;dir_b2430326e20a3ae038db3bac19f0573b -->
<g id="edge26" class="edge">
<title>dir_ada57aea8afb76a9bb917c427f1e04b0&#45;&gt;dir_b2430326e20a3ae038db3bac19f0573b</title>
<path fill="none" stroke="black" d="M258.03,-52.31C255.35,-100.31 247.79,-235.44 244.53,-293.7"/>
<polygon fill="black" stroke="black" points="241.02,-293.79 243.95,-303.97 248.01,-294.18 241.02,-293.79"/>
<g id="a_edge26&#45;headlabel"><a xlink:href="dir_000032_000007.html" target="_top" xlink:title="41">
<text text-anchor="middle" x="238.38" y="-287.54" font-family="Helvetica,sans-Serif" font-size="10.00">41</text>
</a>
</g>
</g>
<!-- dir_b2430326e20a3ae038db3bac19f0573b&#45;&gt;dir_90a2ad6518b731f1dc196d14153b8b6b -->
<g id="edge5" class="edge">
<title>dir_b2430326e20a3ae038db3bac19f0573b&#45;&gt;dir_90a2ad6518b731f1dc196d14153b8b6b</title>
<path fill="none" stroke="black" d="M217.31,-303.7C206.54,-295.05 194.24,-284.45 184.01,-275.03"/>
<polygon fill="black" stroke="black" points="186.34,-272.41 176.65,-268.1 181.54,-277.5 186.34,-272.41"/>
<g id="a_edge5&#45;headlabel"><a xlink:href="dir_000007_000006.html" target="_top" xlink:title="312">
<text text-anchor="middle" x="190.9" y="-270.3" font-family="Helvetica,sans-Serif" font-size="10.00">312</text>
</a>
</g>
</g>
<!-- dir_b2430326e20a3ae038db3bac19f0573b&#45;&gt;dir_16ec7e00b3eaf1dbf09e67ec3cfcc7e2 -->
<g id="edge4" class="edge">
<title>dir_b2430326e20a3ae038db3bac19f0573b&#45;&gt;dir_16ec7e00b3eaf1dbf09e67ec3cfcc7e2</title>
<path fill="none" stroke="black" d="M235.41,-303.81C232.02,-285.8 229.65,-256.73 225,-232 218.86,-199.36 214.52,-191.82 205,-160 202.47,-151.54 199.58,-142.36 197.32,-134.06"/>
<polygon fill="black" stroke="black" points="200.66,-133 194.86,-124.13 193.86,-134.68 200.66,-133"/>
<g id="a_edge4&#45;headlabel"><a xlink:href="dir_000007_000030.html" target="_top" xlink:title="1">
<text text-anchor="middle" x="204.28" y="-133.31" font-family="Helvetica,sans-Serif" font-size="10.00">1</text>
</a>
</g>
</g>
<!-- dir_16ec7e00b3eaf1dbf09e67ec3cfcc7e2&#45;&gt;dir_1a6d8571b8eba91bded1d6534762df79 -->
<g id="edge33" class="edge">
<title>dir_16ec7e00b3eaf1dbf09e67ec3cfcc7e2&#45;&gt;dir_1a6d8571b8eba91bded1d6534762df79</title>
<path fill="none" stroke="black" d="M213.53,-124.26C244.68,-158.7 309,-239.65 309,-321 309,-395 309,-395 309,-395 309,-461.95 229.93,-504.39 181.6,-524.07"/>
<polygon fill="black" stroke="black" points="180.1,-520.9 172.08,-527.82 182.67,-527.41 180.1,-520.9"/>
<g id="a_edge33&#45;headlabel"><a xlink:href="dir_000030_000027.html" target="_top" xlink:title="5">
<text text-anchor="middle" x="182.41" y="-514.44" font-family="Helvetica,sans-Serif" font-size="10.00">5</text>
</a>
</g>
</g>
<!-- dir_16ec7e00b3eaf1dbf09e67ec3cfcc7e2&#45;&gt;dir_273e60b3573ce9ad58a4d725e6a36523 -->
<g id="edge34" class="edge">
<title>dir_16ec7e00b3eaf1dbf09e67ec3cfcc7e2&#45;&gt;dir_273e60b3573ce9ad58a4d725e6a36523</title>
<path fill="none" stroke="black" d="M197.37,-124.39C197.85,-148.54 198.69,-193.58 199,-232 199.13,-248 201.13,-252.14 199,-268 190.61,-330.32 167.93,-400.83 154.79,-438.28"/>
<polygon fill="black" stroke="black" points="151.41,-437.34 151.35,-447.93 158,-439.68 151.41,-437.34"/>
<g id="a_edge34&#45;headlabel"><a xlink:href="dir_000030_000025.html" target="_top" xlink:title="1">
<text text-anchor="middle" x="149.94" y="-430.5" font-family="Helvetica,sans-Serif" font-size="10.00">1</text>
</a>
</g>
</g>
<!-- dir_16ec7e00b3eaf1dbf09e67ec3cfcc7e2&#45;&gt;dir_4022f63979af12af4c32ec9a4562b2df -->
<g id="edge35" class="edge">
<title>dir_16ec7e00b3eaf1dbf09e67ec3cfcc7e2&#45;&gt;dir_4022f63979af12af4c32ec9a4562b2df</title>
<path fill="none" stroke="black" d="M174.26,-87.7C162.56,-78.8 148.14,-67.82 135.49,-58.2"/>
<polygon fill="black" stroke="black" points="137.56,-55.37 127.48,-52.1 133.32,-60.94 137.56,-55.37"/>
<g id="a_edge35&#45;headlabel"><a xlink:href="dir_000030_000028.html" target="_top" xlink:title="6">
<text text-anchor="middle" x="142.14" y="-52.79" font-family="Helvetica,sans-Serif" font-size="10.00">6</text>
</a>
</g>
</g>
<!-- dir_16ec7e00b3eaf1dbf09e67ec3cfcc7e2&#45;&gt;dir_90a2ad6518b731f1dc196d14153b8b6b -->
<g id="edge36" class="edge">
<title>dir_16ec7e00b3eaf1dbf09e67ec3cfcc7e2&#45;&gt;dir_90a2ad6518b731f1dc196d14153b8b6b</title>
<path fill="none" stroke="black" d="M192.88,-124.19C187.06,-148.53 176.34,-193.28 169.45,-222.06"/>
<polygon fill="black" stroke="black" points="166.03,-221.33 167.1,-231.87 172.83,-222.96 166.03,-221.33"/>
<g id="a_edge36&#45;headlabel"><a xlink:href="dir_000030_000006.html" target="_top" xlink:title="90">
<text text-anchor="middle" x="164.1" y="-214.67" font-family="Helvetica,sans-Serif" font-size="10.00">90</text>
</a>
</g>
</g>
<!-- dir_16ec7e00b3eaf1dbf09e67ec3cfcc7e2&#45;&gt;dir_9706acb4d69a98d7c15ebe226493116f -->
<g id="edge37" class="edge">
<title>dir_16ec7e00b3eaf1dbf09e67ec3cfcc7e2&#45;&gt;dir_9706acb4d69a98d7c15ebe226493116f</title>
<path fill="none" stroke="black" d="M184.81,-124.1C176.53,-132.8 165.38,-143.52 154.78,-153.03"/>
<polygon fill="black" stroke="black" points="152.4,-150.46 147.21,-159.7 157.03,-155.72 152.4,-150.46"/>
<g id="a_edge37&#45;headlabel"><a xlink:href="dir_000030_000008.html" target="_top" xlink:title="14">
<text text-anchor="middle" x="153.22" y="-143.46" font-family="Helvetica,sans-Serif" font-size="10.00">14</text>
</a>
</g>
</g>
<!-- dir_16ec7e00b3eaf1dbf09e67ec3cfcc7e2&#45;&gt;dir_a933ab6cde53f9fa4d29dc295cb0ac5f -->
<g id="edge38" class="edge">
<title>dir_16ec7e00b3eaf1dbf09e67ec3cfcc7e2&#45;&gt;dir_a933ab6cde53f9fa4d29dc295cb0ac5f</title>
<path fill="none" stroke="black" d="M164.48,-112.95C138.54,-119.6 103.86,-133.16 87,-160 46.48,-224.5 67.72,-320.14 81.8,-366.24"/>
<polygon fill="black" stroke="black" points="78.48,-367.34 84.84,-375.81 85.15,-365.22 78.48,-367.34"/>
<g id="a_edge38&#45;headlabel"><a xlink:href="dir_000030_000009.html" target="_top" xlink:title="7">
<text text-anchor="middle" x="74.68" y="-362.28" font-family="Helvetica,sans-Serif" font-size="10.00">7</text>
</a>
</g>
</g>
<!-- dir_16ec7e00b3eaf1dbf09e67ec3cfcc7e2&#45;&gt;dir_ada57aea8afb76a9bb917c427f1e04b0 -->
<g id="edge39" class="edge">
<title>dir_16ec7e00b3eaf1dbf09e67ec3cfcc7e2&#45;&gt;dir_ada57aea8afb76a9bb917c427f1e04b0</title>
<path fill="none" stroke="black" d="M212.33,-87.7C219.76,-79.3 228.82,-69.07 236.98,-59.86"/>
<polygon fill="black" stroke="black" points="239.84,-61.91 243.85,-52.1 234.6,-57.27 239.84,-61.91"/>
<g id="a_edge39&#45;headlabel"><a xlink:href="dir_000030_000032.html" target="_top" xlink:title="1">
<text text-anchor="middle" x="239.58" y="-63.98" font-family="Helvetica,sans-Serif" font-size="10.00">1</text>
</a>
</g>
</g>
<!-- dir_16ec7e00b3eaf1dbf09e67ec3cfcc7e2&#45;&gt;dir_b2430326e20a3ae038db3bac19f0573b -->
<g id="edge40" class="edge">
<title>dir_16ec7e00b3eaf1dbf09e67ec3cfcc7e2&#45;&gt;dir_b2430326e20a3ae038db3bac19f0573b</title>
<path fill="none" stroke="black" d="M210.51,-124.13C215.07,-134.49 219.4,-147.96 223,-160 232.52,-191.82 236.86,-199.36 243,-232 246.85,-252.48 249.14,-275.93 249.15,-293.62"/>
<polygon fill="black" stroke="black" points="245.64,-293.72 248.85,-303.81 252.64,-293.92 245.64,-293.72"/>
<g id="a_edge40&#45;headlabel"><a xlink:href="dir_000030_000007.html" target="_top" xlink:title="16">
<text text-anchor="middle" x="242.91" y="-287.54" font-family="Helvetica,sans-Serif" font-size="10.00">16</text>
</a>
</g>
</g>
</g>
</svg>
