<?xml version="1.0" encoding="UTF-8" standalone="no"?>
<!DOCTYPE svg PUBLIC "-//W3C//DTD SVG 1.1//EN"
 "http://www.w3.org/Graphics/SVG/1.1/DTD/svg11.dtd">
<!-- Generated by graphviz version 2.47.1 (20210417.1919)
 -->
<!-- Title: include/deal.II/boost_adaptors Pages: 1 -->
<svg width="124pt" height="167pt"
 viewBox="0.00 0.00 124.00 167.00" xmlns="http://www.w3.org/2000/svg" xmlns:xlink="http://www.w3.org/1999/xlink">
<g id="graph0" class="graph" transform="scale(1 1) rotate(0) translate(4 163)">
<title>include/deal.II/boost_adaptors</title>
<polygon fill="white" stroke="transparent" points="-4,4 -4,-163 120,-163 120,4 -4,4"/>
<g id="clust1" class="cluster">
<title>clusterdir_ee90d91a514b839c31faec7a1d916f67</title>
<g id="a_clust1"><a xlink:href="dir_ee90d91a514b839c31faec7a1d916f67.html" target="_top" xlink:title="deal.II">
<polygon fill="#ddddee" stroke="black" points="8,-8 8,-151 108,-151 108,-8 8,-8"/>
<text text-anchor="middle" x="58" y="-139" font-family="Helvetica,sans-Serif" font-size="10.00">deal.II</text>
</a>
</g>
</g>
<!-- dir_90a2ad6518b731f1dc196d14153b8b6b -->
<g id="node1" class="node">
<title>dir_90a2ad6518b731f1dc196d14153b8b6b</title>
<g id="a_node1"><a xlink:href="dir_90a2ad6518b731f1dc196d14153b8b6b.html" target="_top" xlink:title="base">
<polygon fill="white" stroke="red" points="85,-124 31,-124 31,-88 85,-88 85,-124"/>
<text text-anchor="middle" x="58" y="-103.5" font-family="Helvetica,sans-Serif" font-size="10.00">base</text>
</a>
</g>
</g>
<!-- dir_e52416a0736076e78cf51ec6b663e78d -->
<g id="node2" class="node">
<title>dir_e52416a0736076e78cf51ec6b663e78d</title>
<g id="a_node2"><a xlink:href="dir_e52416a0736076e78cf51ec6b663e78d.html" target="_top" xlink:title="boost_adaptors">
<polygon fill="#eeeeff" stroke="black" points="99.5,-52 16.5,-52 16.5,-16 99.5,-16 99.5,-52"/>
<text text-anchor="middle" x="58" y="-31.5" font-family="Helvetica,sans-Serif" font-size="10.00">boost_adaptors</text>
</a>
</g>
</g>
<!-- dir_90a2ad6518b731f1dc196d14153b8b6b&#45;&gt;dir_e52416a0736076e78cf51ec6b663e78d -->
<g id="edge2" class="edge">
<title>dir_90a2ad6518b731f1dc196d14153b8b6b&#45;&gt;dir_e52416a0736076e78cf51ec6b663e78d</title>
<path fill="none" stroke="black" d="M52.08,-87.7C51.29,-79.98 51.06,-70.71 51.4,-62.11"/>
<polygon fill="black" stroke="black" points="54.9,-62.32 52.1,-52.1 47.92,-61.84 54.9,-62.32"/>
<g id="a_edge2&#45;headlabel"><a xlink:href="dir_000006_000019.html" target="_top" xlink:title="3">
<text text-anchor="middle" x="57.48" y="-63.61" font-family="Helvetica,sans-Serif" font-size="10.00">3</text>
</a>
</g>
</g>
<!-- dir_e52416a0736076e78cf51ec6b663e78d&#45;&gt;dir_90a2ad6518b731f1dc196d14153b8b6b -->
<g id="edge1" class="edge">
<title>dir_e52416a0736076e78cf51ec6b663e78d&#45;&gt;dir_90a2ad6518b731f1dc196d14153b8b6b</title>
<path fill="none" stroke="black" d="M63.9,-52.1C64.7,-59.79 64.94,-69.05 64.6,-77.67"/>
<polygon fill="black" stroke="black" points="61.11,-77.48 63.92,-87.7 68.09,-77.96 61.11,-77.48"/>
<g id="a_edge1&#45;headlabel"><a xlink:href="dir_000019_000006.html" target="_top" xlink:title="6">
<text text-anchor="middle" x="58.52" y="-71.2" font-family="Helvetica,sans-Serif" font-size="10.00">6</text>
</a>
</g>
</g>
</g>
</svg>
