<?xml version="1.0" encoding="UTF-8" standalone="no"?>
<!DOCTYPE svg PUBLIC "-//W3C//DTD SVG 1.1//EN"
 "http://www.w3.org/Graphics/SVG/1.1/DTD/svg11.dtd">
<!-- Generated by graphviz version 2.47.1 (20210417.1919)
 -->
<!-- Title: include/deal.II/meshworker Pages: 1 -->
<svg width="376pt" height="671pt"
 viewBox="0.00 0.00 376.00 671.00" xmlns="http://www.w3.org/2000/svg" xmlns:xlink="http://www.w3.org/1999/xlink">
<g id="graph0" class="graph" transform="scale(1 1) rotate(0) translate(4 667)">
<title>include/deal.II/meshworker</title>
<polygon fill="white" stroke="transparent" points="-4,4 -4,-667 372,-667 372,4 -4,4"/>
<g id="clust1" class="cluster">
<title>clusterdir_ee90d91a514b839c31faec7a1d916f67</title>
<g id="a_clust1"><a xlink:href="dir_ee90d91a514b839c31faec7a1d916f67.html" target="_top" xlink:title="deal.II">
<polygon fill="#ddddee" stroke="black" points="8,-8 8,-655 360,-655 360,-8 8,-8"/>
<text text-anchor="middle" x="184" y="-643" font-family="Helvetica,sans-Serif" font-size="10.00">deal.II</text>
</a>
</g>
</g>
<!-- dir_1a6d8571b8eba91bded1d6534762df79 -->
<g id="node1" class="node">
<title>dir_1a6d8571b8eba91bded1d6534762df79</title>
<g id="a_node1"><a xlink:href="dir_1a6d8571b8eba91bded1d6534762df79.html" target="_top" xlink:title="dofs">
<polygon fill="none" stroke="black" points="144,-484 90,-484 90,-448 144,-448 144,-484"/>
<text text-anchor="middle" x="117" y="-463.5" font-family="Helvetica,sans-Serif" font-size="10.00">dofs</text>
</a>
</g>
</g>
<!-- dir_90a2ad6518b731f1dc196d14153b8b6b -->
<g id="node3" class="node">
<title>dir_90a2ad6518b731f1dc196d14153b8b6b</title>
<g id="a_node3"><a xlink:href="dir_90a2ad6518b731f1dc196d14153b8b6b.html" target="_top" xlink:title="base">
<polygon fill="white" stroke="red" points="210,-412 156,-412 156,-376 210,-376 210,-412"/>
<text text-anchor="middle" x="183" y="-391.5" font-family="Helvetica,sans-Serif" font-size="10.00">base</text>
</a>
</g>
</g>
<!-- dir_1a6d8571b8eba91bded1d6534762df79&#45;&gt;dir_90a2ad6518b731f1dc196d14153b8b6b -->
<g id="edge30" class="edge">
<title>dir_1a6d8571b8eba91bded1d6534762df79&#45;&gt;dir_90a2ad6518b731f1dc196d14153b8b6b</title>
<path fill="none" stroke="black" d="M127.4,-447.7C134.59,-439.14 144.29,-428.66 153.62,-419.3"/>
<polygon fill="black" stroke="black" points="156.28,-421.6 160.98,-412.1 151.38,-416.6 156.28,-421.6"/>
<g id="a_edge30&#45;headlabel"><a xlink:href="dir_000027_000006.html" target="_top" xlink:title="31">
<text text-anchor="middle" x="155.7" y="-423.64" font-family="Helvetica,sans-Serif" font-size="10.00">31</text>
</a>
</g>
</g>
<!-- dir_9706acb4d69a98d7c15ebe226493116f -->
<g id="node4" class="node">
<title>dir_9706acb4d69a98d7c15ebe226493116f</title>
<g id="a_node4"><a xlink:href="dir_9706acb4d69a98d7c15ebe226493116f.html" target="_top" xlink:title="fe">
<polygon fill="none" stroke="black" points="158,-268 104,-268 104,-232 158,-232 158,-268"/>
<text text-anchor="middle" x="131" y="-247.5" font-family="Helvetica,sans-Serif" font-size="10.00">fe</text>
</a>
</g>
</g>
<!-- dir_1a6d8571b8eba91bded1d6534762df79&#45;&gt;dir_9706acb4d69a98d7c15ebe226493116f -->
<g id="edge31" class="edge">
<title>dir_1a6d8571b8eba91bded1d6534762df79&#45;&gt;dir_9706acb4d69a98d7c15ebe226493116f</title>
<path fill="none" stroke="black" d="M114.24,-447.85C113.13,-410.83 118.59,-323.18 124.52,-278.39"/>
<polygon fill="black" stroke="black" points="128.02,-278.63 125.99,-268.23 121.09,-277.63 128.02,-278.63"/>
<g id="a_edge31&#45;headlabel"><a xlink:href="dir_000027_000008.html" target="_top" xlink:title="1">
<text text-anchor="middle" x="130.31" y="-280.1" font-family="Helvetica,sans-Serif" font-size="10.00">1</text>
</a>
</g>
</g>
<!-- dir_a933ab6cde53f9fa4d29dc295cb0ac5f -->
<g id="node5" class="node">
<title>dir_a933ab6cde53f9fa4d29dc295cb0ac5f</title>
<g id="a_node5"><a xlink:href="dir_a933ab6cde53f9fa4d29dc295cb0ac5f.html" target="_top" xlink:title="grid">
<polygon fill="none" stroke="black" points="158,-196 104,-196 104,-160 158,-160 158,-196"/>
<text text-anchor="middle" x="131" y="-175.5" font-family="Helvetica,sans-Serif" font-size="10.00">grid</text>
</a>
</g>
</g>
<!-- dir_1a6d8571b8eba91bded1d6534762df79&#45;&gt;dir_a933ab6cde53f9fa4d29dc295cb0ac5f -->
<g id="edge32" class="edge">
<title>dir_1a6d8571b8eba91bded1d6534762df79&#45;&gt;dir_a933ab6cde53f9fa4d29dc295cb0ac5f</title>
<path fill="none" stroke="black" d="M106.29,-447.87C89.11,-408.69 62.06,-309.87 86,-232 89.04,-222.11 94.62,-212.41 100.93,-204.07"/>
<polygon fill="black" stroke="black" points="103.74,-206.16 107.41,-196.23 98.35,-201.71 103.74,-206.16"/>
<g id="a_edge32&#45;headlabel"><a xlink:href="dir_000027_000009.html" target="_top" xlink:title="1">
<text text-anchor="middle" x="103.64" y="-208.24" font-family="Helvetica,sans-Serif" font-size="10.00">1</text>
</a>
</g>
</g>
<!-- dir_b2430326e20a3ae038db3bac19f0573b -->
<g id="node7" class="node">
<title>dir_b2430326e20a3ae038db3bac19f0573b</title>
<g id="a_node7"><a xlink:href="dir_b2430326e20a3ae038db3bac19f0573b.html" target="_top" xlink:title="lac">
<polygon fill="none" stroke="black" points="224,-124 170,-124 170,-88 224,-88 224,-124"/>
<text text-anchor="middle" x="197" y="-103.5" font-family="Helvetica,sans-Serif" font-size="10.00">lac</text>
</a>
</g>
</g>
<!-- dir_1a6d8571b8eba91bded1d6534762df79&#45;&gt;dir_b2430326e20a3ae038db3bac19f0573b -->
<g id="edge33" class="edge">
<title>dir_1a6d8571b8eba91bded1d6534762df79&#45;&gt;dir_b2430326e20a3ae038db3bac19f0573b</title>
<path fill="none" stroke="black" d="M104.28,-447.62C86.66,-421.81 57,-371.17 57,-323 57,-323 57,-323 57,-249 57,-205.99 65.76,-191.54 95,-160 112.77,-140.84 139.04,-127.41 160.48,-118.87"/>
<polygon fill="black" stroke="black" points="161.83,-122.1 169.94,-115.28 159.35,-115.55 161.83,-122.1"/>
<g id="a_edge33&#45;headlabel"><a xlink:href="dir_000027_000007.html" target="_top" xlink:title="2">
<text text-anchor="middle" x="159.47" y="-123.53" font-family="Helvetica,sans-Serif" font-size="10.00">2</text>
</a>
</g>
</g>
<!-- dir_5c5dfa38b75b645221b847816813e149 -->
<g id="node2" class="node">
<title>dir_5c5dfa38b75b645221b847816813e149</title>
<g id="a_node2"><a xlink:href="dir_5c5dfa38b75b645221b847816813e149.html" target="_top" xlink:title="algorithms">
<polygon fill="none" stroke="black" points="228,-52 166,-52 166,-16 228,-16 228,-52"/>
<text text-anchor="middle" x="197" y="-31.5" font-family="Helvetica,sans-Serif" font-size="10.00">algorithms</text>
</a>
</g>
</g>
<!-- dir_5c5dfa38b75b645221b847816813e149&#45;&gt;dir_90a2ad6518b731f1dc196d14153b8b6b -->
<g id="edge9" class="edge">
<title>dir_5c5dfa38b75b645221b847816813e149&#45;&gt;dir_90a2ad6518b731f1dc196d14153b8b6b</title>
<path fill="none" stroke="black" d="M224.02,-52.04C257.73,-75.63 311,-121.67 311,-177 311,-251 311,-251 311,-251 311,-290.8 324.46,-307.84 301,-340 281.93,-366.14 246.94,-379.65 220,-386.46"/>
<polygon fill="black" stroke="black" points="219.07,-383.08 210.12,-388.75 220.65,-389.9 219.07,-383.08"/>
<g id="a_edge9&#45;headlabel"><a xlink:href="dir_000017_000006.html" target="_top" xlink:title="16">
<text text-anchor="middle" x="221.93" y="-377" font-family="Helvetica,sans-Serif" font-size="10.00">16</text>
</a>
</g>
</g>
<!-- dir_5c5dfa38b75b645221b847816813e149&#45;&gt;dir_b2430326e20a3ae038db3bac19f0573b -->
<g id="edge10" class="edge">
<title>dir_5c5dfa38b75b645221b847816813e149&#45;&gt;dir_b2430326e20a3ae038db3bac19f0573b</title>
<path fill="none" stroke="black" d="M202.9,-52.1C203.7,-59.79 203.94,-69.05 203.6,-77.67"/>
<polygon fill="black" stroke="black" points="200.11,-77.48 202.92,-87.7 207.09,-77.96 200.11,-77.48"/>
<g id="a_edge10&#45;headlabel"><a xlink:href="dir_000017_000007.html" target="_top" xlink:title="2">
<text text-anchor="middle" x="197.52" y="-71.2" font-family="Helvetica,sans-Serif" font-size="10.00">2</text>
</a>
</g>
</g>
<!-- dir_90a2ad6518b731f1dc196d14153b8b6b&#45;&gt;dir_1a6d8571b8eba91bded1d6534762df79 -->
<g id="edge21" class="edge">
<title>dir_90a2ad6518b731f1dc196d14153b8b6b&#45;&gt;dir_1a6d8571b8eba91bded1d6534762df79</title>
<path fill="none" stroke="black" d="M172.77,-412.1C165.62,-420.64 155.94,-431.11 146.59,-440.48"/>
<polygon fill="black" stroke="black" points="143.92,-438.2 139.23,-447.7 148.82,-443.2 143.92,-438.2"/>
<g id="a_edge21&#45;headlabel"><a xlink:href="dir_000006_000027.html" target="_top" xlink:title="2">
<text text-anchor="middle" x="144.5" y="-431.15" font-family="Helvetica,sans-Serif" font-size="10.00">2</text>
</a>
</g>
</g>
<!-- dir_90a2ad6518b731f1dc196d14153b8b6b&#45;&gt;dir_9706acb4d69a98d7c15ebe226493116f -->
<g id="edge22" class="edge">
<title>dir_90a2ad6518b731f1dc196d14153b8b6b&#45;&gt;dir_9706acb4d69a98d7c15ebe226493116f</title>
<path fill="none" stroke="black" d="M172.14,-375.87C160.67,-351.56 144,-306.82 135.46,-278.01"/>
<polygon fill="black" stroke="black" points="138.77,-276.87 132.7,-268.19 132.03,-278.76 138.77,-276.87"/>
<g id="a_edge22&#45;headlabel"><a xlink:href="dir_000006_000008.html" target="_top" xlink:title="4">
<text text-anchor="middle" x="142.48" y="-277.07" font-family="Helvetica,sans-Serif" font-size="10.00">4</text>
</a>
</g>
</g>
<!-- dir_90a2ad6518b731f1dc196d14153b8b6b&#45;&gt;dir_a933ab6cde53f9fa4d29dc295cb0ac5f -->
<g id="edge23" class="edge">
<title>dir_90a2ad6518b731f1dc196d14153b8b6b&#45;&gt;dir_a933ab6cde53f9fa4d29dc295cb0ac5f</title>
<path fill="none" stroke="black" d="M178.63,-375.94C176.19,-345.88 176.1,-281.91 158,-232 154.55,-222.48 149,-213.02 143.68,-204.79"/>
<polygon fill="black" stroke="black" points="146.56,-202.8 138.12,-196.4 140.72,-206.67 146.56,-202.8"/>
<g id="a_edge23&#45;headlabel"><a xlink:href="dir_000006_000009.html" target="_top" xlink:title="8">
<text text-anchor="middle" x="150.91" y="-201.73" font-family="Helvetica,sans-Serif" font-size="10.00">8</text>
</a>
</g>
</g>
<!-- dir_90a2ad6518b731f1dc196d14153b8b6b&#45;&gt;dir_b2430326e20a3ae038db3bac19f0573b -->
<g id="edge24" class="edge">
<title>dir_90a2ad6518b731f1dc196d14153b8b6b&#45;&gt;dir_b2430326e20a3ae038db3bac19f0573b</title>
<path fill="none" stroke="black" d="M177.04,-375.83C176.93,-365.47 178.2,-351.99 179,-340 183.94,-265.71 186.42,-177.91 190.77,-134.35"/>
<polygon fill="black" stroke="black" points="194.27,-134.59 191.92,-124.26 187.31,-133.8 194.27,-134.59"/>
<g id="a_edge24&#45;headlabel"><a xlink:href="dir_000006_000007.html" target="_top" xlink:title="8">
<text text-anchor="middle" x="196.68" y="-135.99" font-family="Helvetica,sans-Serif" font-size="10.00">8</text>
</a>
</g>
</g>
<!-- dir_f3c5e5ce8027ac46c102eb7f94481274 -->
<g id="node8" class="node">
<title>dir_f3c5e5ce8027ac46c102eb7f94481274</title>
<g id="a_node8"><a xlink:href="dir_f3c5e5ce8027ac46c102eb7f94481274.html" target="_top" xlink:title="differentiation">
<polygon fill="white" stroke="red" points="291.5,-340 216.5,-340 216.5,-304 291.5,-304 291.5,-340"/>
<text text-anchor="middle" x="254" y="-319.5" font-family="Helvetica,sans-Serif" font-size="10.00">differentiation</text>
</a>
</g>
</g>
<!-- dir_90a2ad6518b731f1dc196d14153b8b6b&#45;&gt;dir_f3c5e5ce8027ac46c102eb7f94481274 -->
<g id="edge25" class="edge">
<title>dir_90a2ad6518b731f1dc196d14153b8b6b&#45;&gt;dir_f3c5e5ce8027ac46c102eb7f94481274</title>
<path fill="none" stroke="black" d="M194.63,-375.7C202.51,-367.05 213.09,-356.45 223.18,-347.03"/>
<polygon fill="black" stroke="black" points="225.74,-349.43 230.76,-340.1 221.01,-344.27 225.74,-349.43"/>
<g id="a_edge25&#45;headlabel"><a xlink:href="dir_000006_000022.html" target="_top" xlink:title="3">
<text text-anchor="middle" x="225" y="-351.46" font-family="Helvetica,sans-Serif" font-size="10.00">3</text>
</a>
</g>
</g>
<!-- dir_9706acb4d69a98d7c15ebe226493116f&#45;&gt;dir_1a6d8571b8eba91bded1d6534762df79 -->
<g id="edge34" class="edge">
<title>dir_9706acb4d69a98d7c15ebe226493116f&#45;&gt;dir_1a6d8571b8eba91bded1d6534762df79</title>
<path fill="none" stroke="black" d="M133.76,-268.23C134.86,-305.32 129.39,-392.98 123.47,-437.71"/>
<polygon fill="black" stroke="black" points="119.97,-437.45 122,-447.85 126.9,-438.46 119.97,-437.45"/>
<g id="a_edge34&#45;headlabel"><a xlink:href="dir_000008_000027.html" target="_top" xlink:title="6">
<text text-anchor="middle" x="117.68" y="-430.99" font-family="Helvetica,sans-Serif" font-size="10.00">6</text>
</a>
</g>
</g>
<!-- dir_9706acb4d69a98d7c15ebe226493116f&#45;&gt;dir_90a2ad6518b731f1dc196d14153b8b6b -->
<g id="edge35" class="edge">
<title>dir_9706acb4d69a98d7c15ebe226493116f&#45;&gt;dir_90a2ad6518b731f1dc196d14153b8b6b</title>
<path fill="none" stroke="black" d="M141.89,-268.19C153.37,-292.53 170.03,-337.28 178.56,-366.06"/>
<polygon fill="black" stroke="black" points="175.24,-367.19 181.31,-375.87 181.98,-365.3 175.24,-367.19"/>
<g id="a_edge35&#45;headlabel"><a xlink:href="dir_000008_000006.html" target="_top" xlink:title="191">
<text text-anchor="middle" x="171.54" y="-361.99" font-family="Helvetica,sans-Serif" font-size="10.00">191</text>
</a>
</g>
</g>
<!-- dir_9706acb4d69a98d7c15ebe226493116f&#45;&gt;dir_a933ab6cde53f9fa4d29dc295cb0ac5f -->
<g id="edge36" class="edge">
<title>dir_9706acb4d69a98d7c15ebe226493116f&#45;&gt;dir_a933ab6cde53f9fa4d29dc295cb0ac5f</title>
<path fill="none" stroke="black" d="M125.08,-231.7C124.29,-223.98 124.06,-214.71 124.4,-206.11"/>
<polygon fill="black" stroke="black" points="127.9,-206.32 125.1,-196.1 120.92,-205.84 127.9,-206.32"/>
<g id="a_edge36&#45;headlabel"><a xlink:href="dir_000008_000009.html" target="_top" xlink:title="9">
<text text-anchor="middle" x="130.48" y="-207.61" font-family="Helvetica,sans-Serif" font-size="10.00">9</text>
</a>
</g>
</g>
<!-- dir_9706acb4d69a98d7c15ebe226493116f&#45;&gt;dir_b2430326e20a3ae038db3bac19f0573b -->
<g id="edge37" class="edge">
<title>dir_9706acb4d69a98d7c15ebe226493116f&#45;&gt;dir_b2430326e20a3ae038db3bac19f0573b</title>
<path fill="none" stroke="black" d="M144.6,-231.59C151.95,-221.59 160.77,-208.55 167,-196 176.88,-176.1 184.74,-152.17 189.94,-134.14"/>
<polygon fill="black" stroke="black" points="193.37,-134.85 192.68,-124.28 186.63,-132.97 193.37,-134.85"/>
<g id="a_edge37&#45;headlabel"><a xlink:href="dir_000008_000007.html" target="_top" xlink:title="7">
<text text-anchor="middle" x="195.14" y="-136.57" font-family="Helvetica,sans-Serif" font-size="10.00">7</text>
</a>
</g>
</g>
<!-- dir_a933ab6cde53f9fa4d29dc295cb0ac5f&#45;&gt;dir_1a6d8571b8eba91bded1d6534762df79 -->
<g id="edge17" class="edge">
<title>dir_a933ab6cde53f9fa4d29dc295cb0ac5f&#45;&gt;dir_1a6d8571b8eba91bded1d6534762df79</title>
<path fill="none" stroke="black" d="M123.37,-196.23C116.63,-205.97 108.05,-218.82 104,-232 81.88,-303.94 103.29,-393.75 113.4,-437.92"/>
<polygon fill="black" stroke="black" points="110.04,-438.89 115.65,-447.87 116.86,-437.35 110.04,-438.89"/>
<g id="a_edge17&#45;headlabel"><a xlink:href="dir_000009_000027.html" target="_top" xlink:title="2">
<text text-anchor="middle" x="106.48" y="-433.5" font-family="Helvetica,sans-Serif" font-size="10.00">2</text>
</a>
</g>
</g>
<!-- dir_a933ab6cde53f9fa4d29dc295cb0ac5f&#45;&gt;dir_90a2ad6518b731f1dc196d14153b8b6b -->
<g id="edge18" class="edge">
<title>dir_a933ab6cde53f9fa4d29dc295cb0ac5f&#45;&gt;dir_90a2ad6518b731f1dc196d14153b8b6b</title>
<path fill="none" stroke="black" d="M154.07,-196.4C162.7,-206.19 171.3,-219.03 176,-232 192.26,-276.84 193.99,-333.03 190.68,-365.78"/>
<polygon fill="black" stroke="black" points="187.18,-365.58 189.38,-375.94 194.12,-366.47 187.18,-365.58"/>
<g id="a_edge18&#45;headlabel"><a xlink:href="dir_000009_000006.html" target="_top" xlink:title="89">
<text text-anchor="middle" x="184.82" y="-359.15" font-family="Helvetica,sans-Serif" font-size="10.00">89</text>
</a>
</g>
</g>
<!-- dir_a933ab6cde53f9fa4d29dc295cb0ac5f&#45;&gt;dir_9706acb4d69a98d7c15ebe226493116f -->
<g id="edge19" class="edge">
<title>dir_a933ab6cde53f9fa4d29dc295cb0ac5f&#45;&gt;dir_9706acb4d69a98d7c15ebe226493116f</title>
<path fill="none" stroke="black" d="M136.9,-196.1C137.7,-203.79 137.94,-213.05 137.6,-221.67"/>
<polygon fill="black" stroke="black" points="134.11,-221.48 136.92,-231.7 141.09,-221.96 134.11,-221.48"/>
<g id="a_edge19&#45;headlabel"><a xlink:href="dir_000009_000008.html" target="_top" xlink:title="3">
<text text-anchor="middle" x="131.52" y="-215.2" font-family="Helvetica,sans-Serif" font-size="10.00">3</text>
</a>
</g>
</g>
<!-- dir_a933ab6cde53f9fa4d29dc295cb0ac5f&#45;&gt;dir_b2430326e20a3ae038db3bac19f0573b -->
<g id="edge20" class="edge">
<title>dir_a933ab6cde53f9fa4d29dc295cb0ac5f&#45;&gt;dir_b2430326e20a3ae038db3bac19f0573b</title>
<path fill="none" stroke="black" d="M147.31,-159.7C155.31,-151.22 165.07,-140.86 173.82,-131.58"/>
<polygon fill="black" stroke="black" points="176.56,-133.78 180.87,-124.1 171.47,-128.98 176.56,-133.78"/>
<g id="a_edge20&#45;headlabel"><a xlink:href="dir_000009_000007.html" target="_top" xlink:title="1">
<text text-anchor="middle" x="176.16" y="-135.84" font-family="Helvetica,sans-Serif" font-size="10.00">1</text>
</a>
</g>
</g>
<!-- dir_ada57aea8afb76a9bb917c427f1e04b0 -->
<g id="node6" class="node">
<title>dir_ada57aea8afb76a9bb917c427f1e04b0</title>
<g id="a_node6"><a xlink:href="dir_ada57aea8afb76a9bb917c427f1e04b0.html" target="_top" xlink:title="multigrid">
<polygon fill="none" stroke="black" points="190,-556 136,-556 136,-520 190,-520 190,-556"/>
<text text-anchor="middle" x="163" y="-535.5" font-family="Helvetica,sans-Serif" font-size="10.00">multigrid</text>
</a>
</g>
</g>
<!-- dir_ada57aea8afb76a9bb917c427f1e04b0&#45;&gt;dir_1a6d8571b8eba91bded1d6534762df79 -->
<g id="edge26" class="edge">
<title>dir_ada57aea8afb76a9bb917c427f1e04b0&#45;&gt;dir_1a6d8571b8eba91bded1d6534762df79</title>
<path fill="none" stroke="black" d="M151.63,-519.7C146.28,-511.56 139.8,-501.69 133.89,-492.7"/>
<polygon fill="black" stroke="black" points="136.66,-490.54 128.24,-484.1 130.81,-494.38 136.66,-490.54"/>
<g id="a_edge26&#45;headlabel"><a xlink:href="dir_000032_000027.html" target="_top" xlink:title="9">
<text text-anchor="middle" x="141" y="-489.48" font-family="Helvetica,sans-Serif" font-size="10.00">9</text>
</a>
</g>
</g>
<!-- dir_ada57aea8afb76a9bb917c427f1e04b0&#45;&gt;dir_90a2ad6518b731f1dc196d14153b8b6b -->
<g id="edge27" class="edge">
<title>dir_ada57aea8afb76a9bb917c427f1e04b0&#45;&gt;dir_90a2ad6518b731f1dc196d14153b8b6b</title>
<path fill="none" stroke="black" d="M165.41,-519.87C168.82,-495.67 175.08,-451.21 179.14,-422.39"/>
<polygon fill="black" stroke="black" points="182.65,-422.58 180.58,-412.19 175.72,-421.6 182.65,-422.58"/>
<g id="a_edge27&#45;headlabel"><a xlink:href="dir_000032_000006.html" target="_top" xlink:title="35">
<text text-anchor="middle" x="184.96" y="-424.04" font-family="Helvetica,sans-Serif" font-size="10.00">35</text>
</a>
</g>
</g>
<!-- dir_ada57aea8afb76a9bb917c427f1e04b0&#45;&gt;dir_9706acb4d69a98d7c15ebe226493116f -->
<g id="edge28" class="edge">
<title>dir_ada57aea8afb76a9bb917c427f1e04b0&#45;&gt;dir_9706acb4d69a98d7c15ebe226493116f</title>
<path fill="none" stroke="black" d="M161.35,-519.9C159.56,-501.96 156.48,-472.95 153,-448 150.76,-431.93 149.14,-428.08 147,-412 140.78,-365.22 135.84,-310.5 133.17,-278.41"/>
<polygon fill="black" stroke="black" points="136.66,-278.12 132.35,-268.44 129.68,-278.69 136.66,-278.12"/>
<g id="a_edge28&#45;headlabel"><a xlink:href="dir_000032_000008.html" target="_top" xlink:title="1">
<text text-anchor="middle" x="139.78" y="-278.97" font-family="Helvetica,sans-Serif" font-size="10.00">1</text>
</a>
</g>
</g>
<!-- dir_ada57aea8afb76a9bb917c427f1e04b0&#45;&gt;dir_b2430326e20a3ae038db3bac19f0573b -->
<g id="edge29" class="edge">
<title>dir_ada57aea8afb76a9bb917c427f1e04b0&#45;&gt;dir_b2430326e20a3ae038db3bac19f0573b</title>
<path fill="none" stroke="black" d="M190.37,-519.81C237.97,-487.55 331,-412.98 331,-323 331,-323 331,-323 331,-249 331,-191.77 272.71,-148.26 233.02,-125.27"/>
<polygon fill="black" stroke="black" points="234.55,-122.11 224.12,-120.27 231.12,-128.22 234.55,-122.11"/>
<g id="a_edge29&#45;headlabel"><a xlink:href="dir_000032_000007.html" target="_top" xlink:title="41">
<text text-anchor="middle" x="239.07" y="-118.9" font-family="Helvetica,sans-Serif" font-size="10.00">41</text>
</a>
</g>
</g>
<!-- dir_b2430326e20a3ae038db3bac19f0573b&#45;&gt;dir_5c5dfa38b75b645221b847816813e149 -->
<g id="edge14" class="edge">
<title>dir_b2430326e20a3ae038db3bac19f0573b&#45;&gt;dir_5c5dfa38b75b645221b847816813e149</title>
<path fill="none" stroke="black" d="M191.08,-87.7C190.29,-79.98 190.06,-70.71 190.4,-62.11"/>
<polygon fill="black" stroke="black" points="193.9,-62.32 191.1,-52.1 186.92,-61.84 193.9,-62.32"/>
<g id="a_edge14&#45;headlabel"><a xlink:href="dir_000007_000017.html" target="_top" xlink:title="1">
<text text-anchor="middle" x="196.48" y="-63.61" font-family="Helvetica,sans-Serif" font-size="10.00">1</text>
</a>
</g>
</g>
<!-- dir_b2430326e20a3ae038db3bac19f0573b&#45;&gt;dir_90a2ad6518b731f1dc196d14153b8b6b -->
<g id="edge15" class="edge">
<title>dir_b2430326e20a3ae038db3bac19f0573b&#45;&gt;dir_90a2ad6518b731f1dc196d14153b8b6b</title>
<path fill="none" stroke="black" d="M201.4,-124.26C204.83,-162.93 202.35,-259.42 197,-340 196.44,-348.43 195.64,-357.6 194.44,-365.9"/>
<polygon fill="black" stroke="black" points="190.98,-365.38 192.68,-375.83 197.87,-366.59 190.98,-365.38"/>
<g id="a_edge15&#45;headlabel"><a xlink:href="dir_000007_000006.html" target="_top" xlink:title="312">
<text text-anchor="middle" x="188.81" y="-358.84" font-family="Helvetica,sans-Serif" font-size="10.00">312</text>
</a>
</g>
</g>
<!-- dir_b2430326e20a3ae038db3bac19f0573b&#45;&gt;dir_f3c5e5ce8027ac46c102eb7f94481274 -->
<g id="edge16" class="edge">
<title>dir_b2430326e20a3ae038db3bac19f0573b&#45;&gt;dir_f3c5e5ce8027ac46c102eb7f94481274</title>
<path fill="none" stroke="black" d="M205.48,-124.23C218.91,-161.4 242.6,-249.35 251.47,-294"/>
<polygon fill="black" stroke="black" points="248.04,-294.66 253.31,-303.85 254.92,-293.38 248.04,-294.66"/>
<g id="a_edge16&#45;headlabel"><a xlink:href="dir_000007_000022.html" target="_top" xlink:title="2">
<text text-anchor="middle" x="244.59" y="-289.15" font-family="Helvetica,sans-Serif" font-size="10.00">2</text>
</a>
</g>
</g>
<!-- dir_f3c5e5ce8027ac46c102eb7f94481274&#45;&gt;dir_90a2ad6518b731f1dc196d14153b8b6b -->
<g id="edge11" class="edge">
<title>dir_f3c5e5ce8027ac46c102eb7f94481274&#45;&gt;dir_90a2ad6518b731f1dc196d14153b8b6b</title>
<path fill="none" stroke="black" d="M242.55,-340.1C234.71,-348.72 224.15,-359.32 214.05,-368.76"/>
<polygon fill="black" stroke="black" points="211.48,-366.36 206.47,-375.7 216.21,-371.53 211.48,-366.36"/>
<g id="a_edge11&#45;headlabel"><a xlink:href="dir_000022_000006.html" target="_top" xlink:title="49">
<text text-anchor="middle" x="212.21" y="-359.34" font-family="Helvetica,sans-Serif" font-size="10.00">49</text>
</a>
</g>
</g>
<!-- dir_f3c5e5ce8027ac46c102eb7f94481274&#45;&gt;dir_9706acb4d69a98d7c15ebe226493116f -->
<g id="edge12" class="edge">
<title>dir_f3c5e5ce8027ac46c102eb7f94481274&#45;&gt;dir_9706acb4d69a98d7c15ebe226493116f</title>
<path fill="none" stroke="black" d="M223.91,-303.88C206.83,-294.16 185.33,-281.92 167.32,-271.67"/>
<polygon fill="black" stroke="black" points="168.68,-268.42 158.26,-266.51 165.22,-274.5 168.68,-268.42"/>
<g id="a_edge12&#45;headlabel"><a xlink:href="dir_000022_000008.html" target="_top" xlink:title="1">
<text text-anchor="middle" x="173.21" y="-265.23" font-family="Helvetica,sans-Serif" font-size="10.00">1</text>
</a>
</g>
</g>
<!-- dir_f3c5e5ce8027ac46c102eb7f94481274&#45;&gt;dir_b2430326e20a3ae038db3bac19f0573b -->
<g id="edge13" class="edge">
<title>dir_f3c5e5ce8027ac46c102eb7f94481274&#45;&gt;dir_b2430326e20a3ae038db3bac19f0573b</title>
<path fill="none" stroke="black" d="M245.55,-303.85C232.13,-266.75 208.44,-178.81 199.55,-134.1"/>
<polygon fill="black" stroke="black" points="202.98,-133.42 197.7,-124.23 196.1,-134.7 202.98,-133.42"/>
<g id="a_edge13&#45;headlabel"><a xlink:href="dir_000022_000007.html" target="_top" xlink:title="4">
<text text-anchor="middle" x="206.43" y="-133.93" font-family="Helvetica,sans-Serif" font-size="10.00">4</text>
</a>
</g>
</g>
<!-- dir_33a86324b0d1f765939ced0f5e9d1f5c -->
<g id="node9" class="node">
<title>dir_33a86324b0d1f765939ced0f5e9d1f5c</title>
<g id="a_node9"><a xlink:href="dir_33a86324b0d1f765939ced0f5e9d1f5c.html" target="_top" xlink:title="meshworker">
<polygon fill="#eeeeff" stroke="black" points="175,-628 105,-628 105,-592 175,-592 175,-628"/>
<text text-anchor="middle" x="140" y="-607.5" font-family="Helvetica,sans-Serif" font-size="10.00">meshworker</text>
</a>
</g>
</g>
<!-- dir_33a86324b0d1f765939ced0f5e9d1f5c&#45;&gt;dir_1a6d8571b8eba91bded1d6534762df79 -->
<g id="edge1" class="edge">
<title>dir_33a86324b0d1f765939ced0f5e9d1f5c&#45;&gt;dir_1a6d8571b8eba91bded1d6534762df79</title>
<path fill="none" stroke="black" d="M135.22,-591.93C132.48,-581.6 129.16,-568.13 127,-556 123.34,-535.46 120.77,-512.01 119.15,-494.34"/>
<polygon fill="black" stroke="black" points="122.62,-493.81 118.27,-484.16 115.65,-494.42 122.62,-493.81"/>
<g id="a_edge1&#45;headlabel"><a xlink:href="dir_000031_000027.html" target="_top" xlink:title="2">
<text text-anchor="middle" x="125.76" y="-494.65" font-family="Helvetica,sans-Serif" font-size="10.00">2</text>
</a>
</g>
</g>
<!-- dir_33a86324b0d1f765939ced0f5e9d1f5c&#45;&gt;dir_5c5dfa38b75b645221b847816813e149 -->
<g id="edge2" class="edge">
<title>dir_33a86324b0d1f765939ced0f5e9d1f5c&#45;&gt;dir_5c5dfa38b75b645221b847816813e149</title>
<path fill="none" stroke="black" d="M104.84,-596.27C85.37,-587.61 62.12,-574.36 47,-556 20.46,-523.78 17,-508.74 17,-467 17,-467 17,-467 17,-177 17,-106.55 103.03,-65.64 156.14,-47.1"/>
<polygon fill="black" stroke="black" points="157.29,-50.41 165.65,-43.9 155.05,-43.77 157.29,-50.41"/>
<g id="a_edge2&#45;headlabel"><a xlink:href="dir_000031_000017.html" target="_top" xlink:title="6">
<text text-anchor="middle" x="154.79" y="-51.74" font-family="Helvetica,sans-Serif" font-size="10.00">6</text>
</a>
</g>
</g>
<!-- dir_33a86324b0d1f765939ced0f5e9d1f5c&#45;&gt;dir_90a2ad6518b731f1dc196d14153b8b6b -->
<g id="edge3" class="edge">
<title>dir_33a86324b0d1f765939ced0f5e9d1f5c&#45;&gt;dir_90a2ad6518b731f1dc196d14153b8b6b</title>
<path fill="none" stroke="black" d="M167.8,-591.87C179.77,-582.84 192.5,-570.59 199,-556 218.59,-512.06 204.81,-454.85 193.53,-421.79"/>
<polygon fill="black" stroke="black" points="196.82,-420.58 190.16,-412.35 190.23,-422.94 196.82,-420.58"/>
<g id="a_edge3&#45;headlabel"><a xlink:href="dir_000031_000006.html" target="_top" xlink:title="37">
<text text-anchor="middle" x="200.7" y="-420.51" font-family="Helvetica,sans-Serif" font-size="10.00">37</text>
</a>
</g>
</g>
<!-- dir_33a86324b0d1f765939ced0f5e9d1f5c&#45;&gt;dir_9706acb4d69a98d7c15ebe226493116f -->
<g id="edge4" class="edge">
<title>dir_33a86324b0d1f765939ced0f5e9d1f5c&#45;&gt;dir_9706acb4d69a98d7c15ebe226493116f</title>
<path fill="none" stroke="black" d="M128.78,-591.68C114.38,-568.34 90.19,-524.98 81,-484 64.25,-409.28 97.86,-320.81 117.76,-277.53"/>
<polygon fill="black" stroke="black" points="121.03,-278.81 122.13,-268.27 114.7,-275.82 121.03,-278.81"/>
<g id="a_edge4&#45;headlabel"><a xlink:href="dir_000031_000008.html" target="_top" xlink:title="5">
<text text-anchor="middle" x="122.06" y="-280.77" font-family="Helvetica,sans-Serif" font-size="10.00">5</text>
</a>
</g>
</g>
<!-- dir_33a86324b0d1f765939ced0f5e9d1f5c&#45;&gt;dir_a933ab6cde53f9fa4d29dc295cb0ac5f -->
<g id="edge5" class="edge">
<title>dir_33a86324b0d1f765939ced0f5e9d1f5c&#45;&gt;dir_a933ab6cde53f9fa4d29dc295cb0ac5f</title>
<path fill="none" stroke="black" d="M116.37,-591.97C85.96,-567.89 37,-520.75 37,-467 37,-467 37,-467 37,-321 37,-273.17 74.54,-229.08 102.18,-203.11"/>
<polygon fill="black" stroke="black" points="104.64,-205.6 109.67,-196.27 99.92,-200.42 104.64,-205.6"/>
<g id="a_edge5&#45;headlabel"><a xlink:href="dir_000031_000009.html" target="_top" xlink:title="4">
<text text-anchor="middle" x="103.9" y="-207.62" font-family="Helvetica,sans-Serif" font-size="10.00">4</text>
</a>
</g>
</g>
<!-- dir_33a86324b0d1f765939ced0f5e9d1f5c&#45;&gt;dir_ada57aea8afb76a9bb917c427f1e04b0 -->
<g id="edge6" class="edge">
<title>dir_33a86324b0d1f765939ced0f5e9d1f5c&#45;&gt;dir_ada57aea8afb76a9bb917c427f1e04b0</title>
<path fill="none" stroke="black" d="M145.69,-591.7C148.25,-583.9 151.33,-574.51 154.18,-565.83"/>
<polygon fill="black" stroke="black" points="157.58,-566.7 157.38,-556.1 150.93,-564.51 157.58,-566.7"/>
<g id="a_edge6&#45;headlabel"><a xlink:href="dir_000031_000032.html" target="_top" xlink:title="3">
<text text-anchor="middle" x="159.16" y="-568.5" font-family="Helvetica,sans-Serif" font-size="10.00">3</text>
</a>
</g>
</g>
<!-- dir_33a86324b0d1f765939ced0f5e9d1f5c&#45;&gt;dir_b2430326e20a3ae038db3bac19f0573b -->
<g id="edge7" class="edge">
<title>dir_33a86324b0d1f765939ced0f5e9d1f5c&#45;&gt;dir_b2430326e20a3ae038db3bac19f0573b</title>
<path fill="none" stroke="black" d="M175.32,-602.17C235.38,-588.28 351,-550.67 351,-467 351,-467 351,-467 351,-249 351,-203.85 334.5,-191.35 302,-160 282.76,-141.43 255.73,-127.99 233.91,-119.29"/>
<polygon fill="black" stroke="black" points="234.89,-115.92 224.3,-115.63 232.4,-122.46 234.89,-115.92"/>
<g id="a_edge7&#45;headlabel"><a xlink:href="dir_000031_000007.html" target="_top" xlink:title="8">
<text text-anchor="middle" x="239.26" y="-112.05" font-family="Helvetica,sans-Serif" font-size="10.00">8</text>
</a>
</g>
</g>
<!-- dir_33a86324b0d1f765939ced0f5e9d1f5c&#45;&gt;dir_f3c5e5ce8027ac46c102eb7f94481274 -->
<g id="edge8" class="edge">
<title>dir_33a86324b0d1f765939ced0f5e9d1f5c&#45;&gt;dir_f3c5e5ce8027ac46c102eb7f94481274</title>
<path fill="none" stroke="black" d="M170.95,-591.82C184.34,-582.84 198.98,-570.66 208,-556 248.42,-490.34 254.34,-396.27 254.59,-350.34"/>
<polygon fill="black" stroke="black" points="258.09,-350.25 254.55,-340.26 251.09,-350.27 258.09,-350.25"/>
<g id="a_edge8&#45;headlabel"><a xlink:href="dir_000031_000022.html" target="_top" xlink:title="1">
<text text-anchor="middle" x="260.94" y="-351.33" font-family="Helvetica,sans-Serif" font-size="10.00">1</text>
</a>
</g>
</g>
</g>
</svg>
