<?xml version="1.0" encoding="UTF-8" standalone="no"?>
<!DOCTYPE svg PUBLIC "-//W3C//DTD SVG 1.1//EN"
 "http://www.w3.org/Graphics/SVG/1.1/DTD/svg11.dtd">
<!-- Generated by graphviz version 2.47.1 (20210417.1919)
 -->
<!-- Title: include/deal.II/differentiation Pages: 1 -->
<svg width="278pt" height="247pt"
 viewBox="0.00 0.00 278.00 247.00" xmlns="http://www.w3.org/2000/svg" xmlns:xlink="http://www.w3.org/1999/xlink">
<g id="graph0" class="graph" transform="scale(1 1) rotate(0) translate(4 243)">
<title>include/deal.II/differentiation</title>
<polygon fill="white" stroke="transparent" points="-4,4 -4,-243 274,-243 274,4 -4,4"/>
<g id="clust1" class="cluster">
<title>clusterdir_ee90d91a514b839c31faec7a1d916f67</title>
<g id="a_clust1"><a xlink:href="dir_ee90d91a514b839c31faec7a1d916f67.html" target="_top" xlink:title="deal.II">
<polygon fill="#ddddee" stroke="black" points="8,-8 8,-231 262,-231 262,-8 8,-8"/>
<text text-anchor="middle" x="135" y="-219" font-family="Helvetica,sans-Serif" font-size="10.00">deal.II</text>
</a>
</g>
</g>
<g id="clust2" class="cluster">
<title>clusterdir_f3c5e5ce8027ac46c102eb7f94481274</title>
<g id="a_clust2"><a xlink:href="dir_f3c5e5ce8027ac46c102eb7f94481274.html" target="_top">
<polygon fill="#eeeeff" stroke="black" points="100,-80 100,-204 242,-204 242,-80 100,-80"/>
</a>
</g>
</g>
<!-- dir_90a2ad6518b731f1dc196d14153b8b6b -->
<g id="node1" class="node">
<title>dir_90a2ad6518b731f1dc196d14153b8b6b</title>
<g id="a_node1"><a xlink:href="dir_90a2ad6518b731f1dc196d14153b8b6b.html" target="_top" xlink:title="base">
<polygon fill="white" stroke="red" points="92,-196 38,-196 38,-160 92,-160 92,-196"/>
<text text-anchor="middle" x="65" y="-175.5" font-family="Helvetica,sans-Serif" font-size="10.00">base</text>
</a>
</g>
</g>
<!-- dir_9706acb4d69a98d7c15ebe226493116f -->
<g id="node2" class="node">
<title>dir_9706acb4d69a98d7c15ebe226493116f</title>
<g id="a_node2"><a xlink:href="dir_9706acb4d69a98d7c15ebe226493116f.html" target="_top" xlink:title="fe">
<polygon fill="none" stroke="black" points="70,-124 16,-124 16,-88 70,-88 70,-124"/>
<text text-anchor="middle" x="43" y="-103.5" font-family="Helvetica,sans-Serif" font-size="10.00">fe</text>
</a>
</g>
</g>
<!-- dir_90a2ad6518b731f1dc196d14153b8b6b&#45;&gt;dir_9706acb4d69a98d7c15ebe226493116f -->
<g id="edge11" class="edge">
<title>dir_90a2ad6518b731f1dc196d14153b8b6b&#45;&gt;dir_9706acb4d69a98d7c15ebe226493116f</title>
<path fill="none" stroke="black" d="M53.65,-159.7C50.39,-151.9 47.22,-142.51 44.85,-133.83"/>
<polygon fill="black" stroke="black" points="48.25,-132.99 42.48,-124.1 41.45,-134.65 48.25,-132.99"/>
<g id="a_edge11&#45;headlabel"><a xlink:href="dir_000006_000008.html" target="_top" xlink:title="4">
<text text-anchor="middle" x="51.86" y="-133.31" font-family="Helvetica,sans-Serif" font-size="10.00">4</text>
</a>
</g>
</g>
<!-- dir_b2430326e20a3ae038db3bac19f0573b -->
<g id="node3" class="node">
<title>dir_b2430326e20a3ae038db3bac19f0573b</title>
<g id="a_node3"><a xlink:href="dir_b2430326e20a3ae038db3bac19f0573b.html" target="_top" xlink:title="lac">
<polygon fill="none" stroke="black" points="116,-52 62,-52 62,-16 116,-16 116,-52"/>
<text text-anchor="middle" x="89" y="-31.5" font-family="Helvetica,sans-Serif" font-size="10.00">lac</text>
</a>
</g>
</g>
<!-- dir_90a2ad6518b731f1dc196d14153b8b6b&#45;&gt;dir_b2430326e20a3ae038db3bac19f0573b -->
<g id="edge12" class="edge">
<title>dir_90a2ad6518b731f1dc196d14153b8b6b&#45;&gt;dir_b2430326e20a3ae038db3bac19f0573b</title>
<path fill="none" stroke="black" d="M62.36,-159.96C64.15,-149.64 67.72,-136.16 70,-124 73.84,-103.5 76.4,-80.04 79.26,-62.36"/>
<polygon fill="black" stroke="black" points="82.77,-62.63 81.1,-52.17 75.88,-61.39 82.77,-62.63"/>
<g id="a_edge12&#45;headlabel"><a xlink:href="dir_000006_000007.html" target="_top" xlink:title="8">
<text text-anchor="middle" x="84.93" y="-64.18" font-family="Helvetica,sans-Serif" font-size="10.00">8</text>
</a>
</g>
</g>
<!-- dir_f3c5e5ce8027ac46c102eb7f94481274 -->
<g id="node4" class="node">
<title>dir_f3c5e5ce8027ac46c102eb7f94481274</title>
<text text-anchor="middle" x="172" y="-175.5" font-family="Helvetica,sans-Serif" font-size="10.00">differentiation</text>
</g>
<!-- dir_90a2ad6518b731f1dc196d14153b8b6b&#45;&gt;dir_f3c5e5ce8027ac46c102eb7f94481274 -->
<g id="edge13" class="edge">
<title>dir_90a2ad6518b731f1dc196d14153b8b6b&#45;&gt;dir_f3c5e5ce8027ac46c102eb7f94481274</title>
<path fill="none" stroke="black" d="M92.17,-178C102.8,-178 113.44,-178 124.07,-178"/>
<polygon fill="black" stroke="black" points="124.27,-181.5 134.27,-178 124.27,-174.5 124.27,-181.5"/>
<g id="a_edge13&#45;headlabel"><a xlink:href="dir_000006_000022.html" target="_top" xlink:title="3">
<text text-anchor="middle" x="120.67" y="-181.84" font-family="Helvetica,sans-Serif" font-size="10.00">3</text>
</a>
</g>
</g>
<!-- dir_3b10fd41257b686e31e3422bb2254cec -->
<g id="node5" class="node">
<title>dir_3b10fd41257b686e31e3422bb2254cec</title>
<g id="a_node5"><a xlink:href="dir_3b10fd41257b686e31e3422bb2254cec.html" target="_top" xlink:title="ad">
<polygon fill="white" stroke="black" points="162,-124 108,-124 108,-88 162,-88 162,-124"/>
<text text-anchor="middle" x="135" y="-103.5" font-family="Helvetica,sans-Serif" font-size="10.00">ad</text>
</a>
</g>
</g>
<!-- dir_90a2ad6518b731f1dc196d14153b8b6b&#45;&gt;dir_3b10fd41257b686e31e3422bb2254cec -->
<g id="edge10" class="edge">
<title>dir_90a2ad6518b731f1dc196d14153b8b6b&#45;&gt;dir_3b10fd41257b686e31e3422bb2254cec</title>
<path fill="none" stroke="black" d="M88.22,-159.7C97.57,-151.22 108.11,-140.86 116.89,-131.58"/>
<polygon fill="black" stroke="black" points="119.58,-133.83 123.79,-124.1 114.44,-129.08 119.58,-133.83"/>
<g id="a_edge10&#45;headlabel"><a xlink:href="dir_000006_000023.html" target="_top" xlink:title="2">
<text text-anchor="middle" x="119.23" y="-135.9" font-family="Helvetica,sans-Serif" font-size="10.00">2</text>
</a>
</g>
</g>
<!-- dir_9706acb4d69a98d7c15ebe226493116f&#45;&gt;dir_90a2ad6518b731f1dc196d14153b8b6b -->
<g id="edge14" class="edge">
<title>dir_9706acb4d69a98d7c15ebe226493116f&#45;&gt;dir_90a2ad6518b731f1dc196d14153b8b6b</title>
<path fill="none" stroke="black" d="M54.27,-124.1C57.53,-131.88 60.71,-141.26 63.09,-149.95"/>
<polygon fill="black" stroke="black" points="59.7,-150.82 65.48,-159.7 66.5,-149.15 59.7,-150.82"/>
<g id="a_edge14&#45;headlabel"><a xlink:href="dir_000008_000006.html" target="_top" xlink:title="191">
<text text-anchor="middle" x="56.09" y="-145.5" font-family="Helvetica,sans-Serif" font-size="10.00">191</text>
</a>
</g>
</g>
<!-- dir_9706acb4d69a98d7c15ebe226493116f&#45;&gt;dir_b2430326e20a3ae038db3bac19f0573b -->
<g id="edge15" class="edge">
<title>dir_9706acb4d69a98d7c15ebe226493116f&#45;&gt;dir_b2430326e20a3ae038db3bac19f0573b</title>
<path fill="none" stroke="black" d="M54.37,-87.7C59.72,-79.56 66.2,-69.69 72.11,-60.7"/>
<polygon fill="black" stroke="black" points="75.19,-62.38 77.76,-52.1 69.34,-58.54 75.19,-62.38"/>
<g id="a_edge15&#45;headlabel"><a xlink:href="dir_000008_000007.html" target="_top" xlink:title="7">
<text text-anchor="middle" x="75.59" y="-64.45" font-family="Helvetica,sans-Serif" font-size="10.00">7</text>
</a>
</g>
</g>
<!-- dir_b2430326e20a3ae038db3bac19f0573b&#45;&gt;dir_90a2ad6518b731f1dc196d14153b8b6b -->
<g id="edge4" class="edge">
<title>dir_b2430326e20a3ae038db3bac19f0573b&#45;&gt;dir_90a2ad6518b731f1dc196d14153b8b6b</title>
<path fill="none" stroke="black" d="M94.54,-52.17C95.41,-70.18 92.64,-99.24 88,-124 86.38,-132.65 84.11,-141.96 81.44,-150.33"/>
<polygon fill="black" stroke="black" points="78.06,-149.36 78,-159.96 84.66,-151.71 78.06,-149.36"/>
<g id="a_edge4&#45;headlabel"><a xlink:href="dir_000007_000006.html" target="_top" xlink:title="312">
<text text-anchor="middle" x="76.6" y="-142.52" font-family="Helvetica,sans-Serif" font-size="10.00">312</text>
</a>
</g>
</g>
<!-- dir_b2430326e20a3ae038db3bac19f0573b&#45;&gt;dir_f3c5e5ce8027ac46c102eb7f94481274 -->
<g id="edge5" class="edge">
<title>dir_b2430326e20a3ae038db3bac19f0573b&#45;&gt;dir_f3c5e5ce8027ac46c102eb7f94481274</title>
<path fill="none" stroke="black" d="M116.02,-38.97C155.98,-45.45 227.75,-59.66 243,-80 254.73,-95.65 251.77,-106.52 243,-124 236.9,-136.16 226.54,-146.25 215.59,-154.24"/>
<polygon fill="black" stroke="black" points="213.49,-151.44 207.17,-159.94 217.41,-157.24 213.49,-151.44"/>
<g id="a_edge5&#45;headlabel"><a xlink:href="dir_000007_000022.html" target="_top" xlink:title="2">
<text text-anchor="middle" x="214.87" y="-144.57" font-family="Helvetica,sans-Serif" font-size="10.00">2</text>
</a>
</g>
</g>
<!-- dir_b2430326e20a3ae038db3bac19f0573b&#45;&gt;dir_3b10fd41257b686e31e3422bb2254cec -->
<g id="edge3" class="edge">
<title>dir_b2430326e20a3ae038db3bac19f0573b&#45;&gt;dir_3b10fd41257b686e31e3422bb2254cec</title>
<path fill="none" stroke="black" d="M106.14,-52.1C112.25,-60.13 118.87,-69.87 124.34,-78.8"/>
<polygon fill="black" stroke="black" points="121.47,-80.83 129.54,-87.7 127.52,-77.3 121.47,-80.83"/>
<g id="a_edge3&#45;headlabel"><a xlink:href="dir_000007_000023.html" target="_top" xlink:title="2">
<text text-anchor="middle" x="117.21" y="-76.66" font-family="Helvetica,sans-Serif" font-size="10.00">2</text>
</a>
</g>
</g>
<!-- dir_f3c5e5ce8027ac46c102eb7f94481274&#45;&gt;dir_3b10fd41257b686e31e3422bb2254cec -->
<g id="edge1" class="edge">
<title>dir_f3c5e5ce8027ac46c102eb7f94481274&#45;&gt;dir_3b10fd41257b686e31e3422bb2254cec</title>
<path fill="none" stroke="black" d="M162.85,-159.7C158.6,-151.64 153.44,-141.89 148.73,-132.98"/>
<polygon fill="black" stroke="black" points="151.81,-131.31 144.04,-124.1 145.62,-134.58 151.81,-131.31"/>
<g id="a_edge1&#45;headlabel"><a xlink:href="dir_000022_000023.html" target="_top" xlink:title="9">
<text text-anchor="middle" x="156" y="-130.66" font-family="Helvetica,sans-Serif" font-size="10.00">9</text>
</a>
</g>
</g>
<!-- dir_9f185de39f30f5bd381b96f20bd33dae -->
<g id="node6" class="node">
<title>dir_9f185de39f30f5bd381b96f20bd33dae</title>
<g id="a_node6"><a xlink:href="dir_9f185de39f30f5bd381b96f20bd33dae.html" target="_top" xlink:title="sd">
<polygon fill="white" stroke="black" points="234,-124 180,-124 180,-88 234,-88 234,-124"/>
<text text-anchor="middle" x="207" y="-103.5" font-family="Helvetica,sans-Serif" font-size="10.00">sd</text>
</a>
</g>
</g>
<!-- dir_f3c5e5ce8027ac46c102eb7f94481274&#45;&gt;dir_9f185de39f30f5bd381b96f20bd33dae -->
<g id="edge2" class="edge">
<title>dir_f3c5e5ce8027ac46c102eb7f94481274&#45;&gt;dir_9f185de39f30f5bd381b96f20bd33dae</title>
<path fill="none" stroke="black" d="M180.65,-159.7C184.64,-151.73 189.45,-142.1 193.87,-133.26"/>
<polygon fill="black" stroke="black" points="197.11,-134.61 198.45,-124.1 190.85,-131.48 197.11,-134.61"/>
<g id="a_edge2&#45;headlabel"><a xlink:href="dir_000022_000024.html" target="_top" xlink:title="9">
<text text-anchor="middle" x="198.04" y="-136.6" font-family="Helvetica,sans-Serif" font-size="10.00">9</text>
</a>
</g>
</g>
<!-- dir_3b10fd41257b686e31e3422bb2254cec&#45;&gt;dir_90a2ad6518b731f1dc196d14153b8b6b -->
<g id="edge6" class="edge">
<title>dir_3b10fd41257b686e31e3422bb2254cec&#45;&gt;dir_90a2ad6518b731f1dc196d14153b8b6b</title>
<path fill="none" stroke="black" d="M112,-124.1C102.67,-132.55 92.12,-142.9 83.31,-152.2"/>
<polygon fill="black" stroke="black" points="80.6,-149.98 76.39,-159.7 85.74,-154.73 80.6,-149.98"/>
<g id="a_edge6&#45;headlabel"><a xlink:href="dir_000023_000006.html" target="_top" xlink:title="24">
<text text-anchor="middle" x="80.95" y="-142.91" font-family="Helvetica,sans-Serif" font-size="10.00">24</text>
</a>
</g>
</g>
<!-- dir_3b10fd41257b686e31e3422bb2254cec&#45;&gt;dir_9706acb4d69a98d7c15ebe226493116f -->
<g id="edge7" class="edge">
<title>dir_3b10fd41257b686e31e3422bb2254cec&#45;&gt;dir_9706acb4d69a98d7c15ebe226493116f</title>
<path fill="none" stroke="black" d="M107.96,-106C98.75,-106 89.53,-106 80.31,-106"/>
<polygon fill="black" stroke="black" points="80.31,-102.5 70.31,-106 80.31,-109.5 80.31,-102.5"/>
<g id="a_edge7&#45;headlabel"><a xlink:href="dir_000023_000008.html" target="_top" xlink:title="1">
<text text-anchor="middle" x="83.91" y="-97.16" font-family="Helvetica,sans-Serif" font-size="10.00">1</text>
</a>
</g>
</g>
<!-- dir_3b10fd41257b686e31e3422bb2254cec&#45;&gt;dir_b2430326e20a3ae038db3bac19f0573b -->
<g id="edge8" class="edge">
<title>dir_3b10fd41257b686e31e3422bb2254cec&#45;&gt;dir_b2430326e20a3ae038db3bac19f0573b</title>
<path fill="none" stroke="black" d="M117.71,-87.7C111.59,-79.64 104.97,-69.89 99.53,-60.98"/>
<polygon fill="black" stroke="black" points="102.41,-58.98 94.34,-52.1 96.36,-62.51 102.41,-58.98"/>
<g id="a_edge8&#45;headlabel"><a xlink:href="dir_000023_000007.html" target="_top" xlink:title="4">
<text text-anchor="middle" x="106.67" y="-58.15" font-family="Helvetica,sans-Serif" font-size="10.00">4</text>
</a>
</g>
</g>
<!-- dir_9f185de39f30f5bd381b96f20bd33dae&#45;&gt;dir_90a2ad6518b731f1dc196d14153b8b6b -->
<g id="edge9" class="edge">
<title>dir_9f185de39f30f5bd381b96f20bd33dae&#45;&gt;dir_90a2ad6518b731f1dc196d14153b8b6b</title>
<path fill="none" stroke="black" d="M179.77,-119.9C154.87,-131.72 119.55,-148.51 101.18,-157.51"/>
<polygon fill="black" stroke="black" points="99.39,-154.48 92,-162.08 102.52,-160.75 99.39,-154.48"/>
<g id="a_edge9&#45;headlabel"><a xlink:href="dir_000024_000006.html" target="_top" xlink:title="23">
<text text-anchor="middle" x="101.35" y="-147.84" font-family="Helvetica,sans-Serif" font-size="10.00">23</text>
</a>
</g>
</g>
</g>
</svg>
