<?xml version="1.0" encoding="UTF-8" standalone="no"?>
<!DOCTYPE svg PUBLIC "-//W3C//DTD SVG 1.1//EN"
 "http://www.w3.org/Graphics/SVG/1.1/DTD/svg11.dtd">
<!-- Generated by graphviz version 2.47.1 (20210417.1919)
 -->
<!-- Title: include/deal.II/optimization Pages: 1 -->
<svg width="198pt" height="319pt"
 viewBox="0.00 0.00 198.00 319.00" xmlns="http://www.w3.org/2000/svg" xmlns:xlink="http://www.w3.org/1999/xlink">
<g id="graph0" class="graph" transform="scale(1 1) rotate(0) translate(4 315)">
<title>include/deal.II/optimization</title>
<polygon fill="white" stroke="transparent" points="-4,4 -4,-315 194,-315 194,4 -4,4"/>
<g id="clust1" class="cluster">
<title>clusterdir_ee90d91a514b839c31faec7a1d916f67</title>
<g id="a_clust1"><a xlink:href="dir_ee90d91a514b839c31faec7a1d916f67.html" target="_top" xlink:title="deal.II">
<polygon fill="#ddddee" stroke="black" points="8,-8 8,-303 182,-303 182,-8 8,-8"/>
<text text-anchor="middle" x="95" y="-291" font-family="Helvetica,sans-Serif" font-size="10.00">deal.II</text>
</a>
</g>
</g>
<g id="clust2" class="cluster">
<title>clusterdir_007d705f3a94fda20fe145aff1772f9d</title>
<g id="a_clust2"><a xlink:href="dir_007d705f3a94fda20fe145aff1772f9d.html" target="_top">
<polygon fill="#eeeeff" stroke="black" points="16,-224 16,-276 174,-276 174,-224 16,-224"/>
</a>
</g>
</g>
<!-- dir_5c2eb6d9a7a6f1e9cd32e0e8abf42ca6 -->
<g id="node1" class="node">
<title>dir_5c2eb6d9a7a6f1e9cd32e0e8abf42ca6</title>
<g id="a_node1"><a xlink:href="dir_5c2eb6d9a7a6f1e9cd32e0e8abf42ca6.html" target="_top" xlink:title="numerics">
<polygon fill="none" stroke="black" points="92,-196 36,-196 36,-160 92,-160 92,-196"/>
<text text-anchor="middle" x="64" y="-175.5" font-family="Helvetica,sans-Serif" font-size="10.00">numerics</text>
</a>
</g>
</g>
<!-- dir_90a2ad6518b731f1dc196d14153b8b6b -->
<g id="node2" class="node">
<title>dir_90a2ad6518b731f1dc196d14153b8b6b</title>
<g id="a_node2"><a xlink:href="dir_90a2ad6518b731f1dc196d14153b8b6b.html" target="_top" xlink:title="base">
<polygon fill="white" stroke="red" points="132,-124 78,-124 78,-88 132,-88 132,-124"/>
<text text-anchor="middle" x="105" y="-103.5" font-family="Helvetica,sans-Serif" font-size="10.00">base</text>
</a>
</g>
</g>
<!-- dir_5c2eb6d9a7a6f1e9cd32e0e8abf42ca6&#45;&gt;dir_90a2ad6518b731f1dc196d14153b8b6b -->
<g id="edge9" class="edge">
<title>dir_5c2eb6d9a7a6f1e9cd32e0e8abf42ca6&#45;&gt;dir_90a2ad6518b731f1dc196d14153b8b6b</title>
<path fill="none" stroke="black" d="M68.22,-159.7C72.15,-151.56 77.72,-141.69 83.41,-132.7"/>
<polygon fill="black" stroke="black" points="86.5,-134.38 89.09,-124.1 80.66,-130.52 86.5,-134.38"/>
<g id="a_edge9&#45;headlabel"><a xlink:href="dir_000026_000006.html" target="_top" xlink:title="74">
<text text-anchor="middle" x="86.89" y="-136.44" font-family="Helvetica,sans-Serif" font-size="10.00">74</text>
</a>
</g>
</g>
<!-- dir_b2430326e20a3ae038db3bac19f0573b -->
<g id="node3" class="node">
<title>dir_b2430326e20a3ae038db3bac19f0573b</title>
<g id="a_node3"><a xlink:href="dir_b2430326e20a3ae038db3bac19f0573b.html" target="_top" xlink:title="lac">
<polygon fill="none" stroke="black" points="132,-52 78,-52 78,-16 132,-16 132,-52"/>
<text text-anchor="middle" x="105" y="-31.5" font-family="Helvetica,sans-Serif" font-size="10.00">lac</text>
</a>
</g>
</g>
<!-- dir_5c2eb6d9a7a6f1e9cd32e0e8abf42ca6&#45;&gt;dir_b2430326e20a3ae038db3bac19f0573b -->
<g id="edge10" class="edge">
<title>dir_5c2eb6d9a7a6f1e9cd32e0e8abf42ca6&#45;&gt;dir_b2430326e20a3ae038db3bac19f0573b</title>
<path fill="none" stroke="black" d="M62.3,-159.76C61.1,-141.44 60.91,-111.89 69,-88 72.28,-78.3 77.86,-68.73 83.65,-60.44"/>
<polygon fill="black" stroke="black" points="86.53,-62.44 89.68,-52.32 80.91,-58.26 86.53,-62.44"/>
<g id="a_edge10&#45;headlabel"><a xlink:href="dir_000026_000007.html" target="_top" xlink:title="10">
<text text-anchor="middle" x="86.67" y="-64.51" font-family="Helvetica,sans-Serif" font-size="10.00">10</text>
</a>
</g>
</g>
<!-- dir_90a2ad6518b731f1dc196d14153b8b6b&#45;&gt;dir_5c2eb6d9a7a6f1e9cd32e0e8abf42ca6 -->
<g id="edge7" class="edge">
<title>dir_90a2ad6518b731f1dc196d14153b8b6b&#45;&gt;dir_5c2eb6d9a7a6f1e9cd32e0e8abf42ca6</title>
<path fill="none" stroke="black" d="M100.88,-124.1C96.98,-132.21 91.42,-142.08 85.73,-151.08"/>
<polygon fill="black" stroke="black" points="82.63,-149.42 80.05,-159.7 88.47,-153.27 82.63,-149.42"/>
<g id="a_edge7&#45;headlabel"><a xlink:href="dir_000006_000026.html" target="_top" xlink:title="2">
<text text-anchor="middle" x="82.23" y="-142.36" font-family="Helvetica,sans-Serif" font-size="10.00">2</text>
</a>
</g>
</g>
<!-- dir_90a2ad6518b731f1dc196d14153b8b6b&#45;&gt;dir_b2430326e20a3ae038db3bac19f0573b -->
<g id="edge8" class="edge">
<title>dir_90a2ad6518b731f1dc196d14153b8b6b&#45;&gt;dir_b2430326e20a3ae038db3bac19f0573b</title>
<path fill="none" stroke="black" d="M99.08,-87.7C98.29,-79.98 98.06,-70.71 98.4,-62.11"/>
<polygon fill="black" stroke="black" points="101.9,-62.32 99.1,-52.1 94.92,-61.84 101.9,-62.32"/>
<g id="a_edge8&#45;headlabel"><a xlink:href="dir_000006_000007.html" target="_top" xlink:title="8">
<text text-anchor="middle" x="104.48" y="-63.61" font-family="Helvetica,sans-Serif" font-size="10.00">8</text>
</a>
</g>
</g>
<!-- dir_b2430326e20a3ae038db3bac19f0573b&#45;&gt;dir_90a2ad6518b731f1dc196d14153b8b6b -->
<g id="edge1" class="edge">
<title>dir_b2430326e20a3ae038db3bac19f0573b&#45;&gt;dir_90a2ad6518b731f1dc196d14153b8b6b</title>
<path fill="none" stroke="black" d="M110.9,-52.1C111.7,-59.79 111.94,-69.05 111.6,-77.67"/>
<polygon fill="black" stroke="black" points="108.11,-77.48 110.92,-87.7 115.09,-77.96 108.11,-77.48"/>
<g id="a_edge1&#45;headlabel"><a xlink:href="dir_000007_000006.html" target="_top" xlink:title="312">
<text text-anchor="middle" x="105.52" y="-71.2" font-family="Helvetica,sans-Serif" font-size="10.00">312</text>
</a>
</g>
</g>
<!-- dir_007d705f3a94fda20fe145aff1772f9d -->
<g id="node4" class="node">
<title>dir_007d705f3a94fda20fe145aff1772f9d</title>
<text text-anchor="middle" x="59" y="-247.5" font-family="Helvetica,sans-Serif" font-size="10.00">optimization</text>
</g>
<!-- dir_007d705f3a94fda20fe145aff1772f9d&#45;&gt;dir_5c2eb6d9a7a6f1e9cd32e0e8abf42ca6 -->
<g id="edge2" class="edge">
<title>dir_007d705f3a94fda20fe145aff1772f9d&#45;&gt;dir_5c2eb6d9a7a6f1e9cd32e0e8abf42ca6</title>
<path fill="none" stroke="black" d="M60.24,-231.7C60.79,-223.98 61.45,-214.71 62.06,-206.11"/>
<polygon fill="black" stroke="black" points="65.56,-206.33 62.78,-196.1 58.57,-205.83 65.56,-206.33"/>
<g id="a_edge2&#45;headlabel"><a xlink:href="dir_000034_000026.html" target="_top" xlink:title="2">
<text text-anchor="middle" x="68.13" y="-207.62" font-family="Helvetica,sans-Serif" font-size="10.00">2</text>
</a>
</g>
</g>
<!-- dir_007d705f3a94fda20fe145aff1772f9d&#45;&gt;dir_90a2ad6518b731f1dc196d14153b8b6b -->
<g id="edge3" class="edge">
<title>dir_007d705f3a94fda20fe145aff1772f9d&#45;&gt;dir_90a2ad6518b731f1dc196d14153b8b6b</title>
<path fill="none" stroke="black" d="M77.36,-231.67C86.21,-222.08 95.99,-209.42 101,-196 108.39,-176.23 109.03,-152.25 108.03,-134.16"/>
<polygon fill="black" stroke="black" points="111.51,-133.72 107.26,-124.01 104.53,-134.25 111.51,-133.72"/>
<g id="a_edge3&#45;headlabel"><a xlink:href="dir_000034_000006.html" target="_top" xlink:title="9">
<text text-anchor="middle" x="114.61" y="-134.59" font-family="Helvetica,sans-Serif" font-size="10.00">9</text>
</a>
</g>
</g>
<!-- dir_007d705f3a94fda20fe145aff1772f9d&#45;&gt;dir_b2430326e20a3ae038db3bac19f0573b -->
<g id="edge4" class="edge">
<title>dir_007d705f3a94fda20fe145aff1772f9d&#45;&gt;dir_b2430326e20a3ae038db3bac19f0573b</title>
<path fill="none" stroke="black" d="M45.44,-231.97C38.44,-222.09 30.63,-209.05 27,-196 22.71,-180.59 23.77,-175.67 27,-160 34.03,-125.88 39.32,-117.41 58,-88 64.36,-77.99 72.6,-67.99 80.4,-59.43"/>
<polygon fill="black" stroke="black" points="83.08,-61.69 87.38,-52 77.98,-56.9 83.08,-61.69"/>
<g id="a_edge4&#45;headlabel"><a xlink:href="dir_000034_000007.html" target="_top" xlink:title="2">
<text text-anchor="middle" x="82.69" y="-63.75" font-family="Helvetica,sans-Serif" font-size="10.00">2</text>
</a>
</g>
</g>
<!-- dir_919e236f65f31c877eb38bcd0ceb585b -->
<g id="node5" class="node">
<title>dir_919e236f65f31c877eb38bcd0ceb585b</title>
<g id="a_node5"><a xlink:href="dir_919e236f65f31c877eb38bcd0ceb585b.html" target="_top" xlink:title="rol">
<polygon fill="white" stroke="black" points="166,-268 112,-268 112,-232 166,-232 166,-268"/>
<text text-anchor="middle" x="139" y="-247.5" font-family="Helvetica,sans-Serif" font-size="10.00">rol</text>
</a>
</g>
</g>
<!-- dir_919e236f65f31c877eb38bcd0ceb585b&#45;&gt;dir_90a2ad6518b731f1dc196d14153b8b6b -->
<g id="edge5" class="edge">
<title>dir_919e236f65f31c877eb38bcd0ceb585b&#45;&gt;dir_90a2ad6518b731f1dc196d14153b8b6b</title>
<path fill="none" stroke="black" d="M134.9,-231.87C129.08,-207.56 118.37,-162.82 111.47,-134.01"/>
<polygon fill="black" stroke="black" points="114.85,-133.1 109.12,-124.19 108.04,-134.73 114.85,-133.1"/>
<g id="a_edge5&#45;headlabel"><a xlink:href="dir_000035_000006.html" target="_top" xlink:title="2">
<text text-anchor="middle" x="118.45" y="-133.43" font-family="Helvetica,sans-Serif" font-size="10.00">2</text>
</a>
</g>
</g>
<!-- dir_919e236f65f31c877eb38bcd0ceb585b&#45;&gt;dir_b2430326e20a3ae038db3bac19f0573b -->
<g id="edge6" class="edge">
<title>dir_919e236f65f31c877eb38bcd0ceb585b&#45;&gt;dir_b2430326e20a3ae038db3bac19f0573b</title>
<path fill="none" stroke="black" d="M142.62,-231.59C148.13,-201.51 156.45,-138.23 141,-88 137.99,-78.22 132.49,-68.62 126.68,-60.33"/>
<polygon fill="black" stroke="black" points="129.41,-58.13 120.61,-52.23 123.81,-62.33 129.41,-58.13"/>
<g id="a_edge6&#45;headlabel"><a xlink:href="dir_000035_000007.html" target="_top" xlink:title="1">
<text text-anchor="middle" x="133.83" y="-56.8" font-family="Helvetica,sans-Serif" font-size="10.00">1</text>
</a>
</g>
</g>
</g>
</svg>
