<?xml version="1.0" encoding="UTF-8" standalone="no"?>
<!DOCTYPE svg PUBLIC "-//W3C//DTD SVG 1.1//EN"
 "http://www.w3.org/Graphics/SVG/1.1/DTD/svg11.dtd">
<!-- Generated by graphviz version 2.47.1 (20210417.1919)
 -->
<!-- Title: include/deal.II/particles Pages: 1 -->
<svg width="334pt" height="599pt"
 viewBox="0.00 0.00 334.00 599.00" xmlns="http://www.w3.org/2000/svg" xmlns:xlink="http://www.w3.org/1999/xlink">
<g id="graph0" class="graph" transform="scale(1 1) rotate(0) translate(4 595)">
<title>include/deal.II/particles</title>
<polygon fill="white" stroke="transparent" points="-4,4 -4,-595 330,-595 330,4 -4,4"/>
<g id="clust1" class="cluster">
<title>clusterdir_ee90d91a514b839c31faec7a1d916f67</title>
<g id="a_clust1"><a xlink:href="dir_ee90d91a514b839c31faec7a1d916f67.html" target="_top" xlink:title="deal.II">
<polygon fill="#ddddee" stroke="black" points="8,-8 8,-583 318,-583 318,-8 8,-8"/>
<text text-anchor="middle" x="163" y="-571" font-family="Helvetica,sans-Serif" font-size="10.00">deal.II</text>
</a>
</g>
</g>
<!-- dir_1a6d8571b8eba91bded1d6534762df79 -->
<g id="node1" class="node">
<title>dir_1a6d8571b8eba91bded1d6534762df79</title>
<g id="a_node1"><a xlink:href="dir_1a6d8571b8eba91bded1d6534762df79.html" target="_top" xlink:title="dofs">
<polygon fill="none" stroke="black" points="180,-484 126,-484 126,-448 180,-448 180,-484"/>
<text text-anchor="middle" x="153" y="-463.5" font-family="Helvetica,sans-Serif" font-size="10.00">dofs</text>
</a>
</g>
</g>
<!-- dir_273e60b3573ce9ad58a4d725e6a36523 -->
<g id="node2" class="node">
<title>dir_273e60b3573ce9ad58a4d725e6a36523</title>
<g id="a_node2"><a xlink:href="dir_273e60b3573ce9ad58a4d725e6a36523.html" target="_top" xlink:title="distributed">
<polygon fill="none" stroke="black" points="230,-412 168,-412 168,-376 230,-376 230,-412"/>
<text text-anchor="middle" x="199" y="-391.5" font-family="Helvetica,sans-Serif" font-size="10.00">distributed</text>
</a>
</g>
</g>
<!-- dir_1a6d8571b8eba91bded1d6534762df79&#45;&gt;dir_273e60b3573ce9ad58a4d725e6a36523 -->
<g id="edge18" class="edge">
<title>dir_1a6d8571b8eba91bded1d6534762df79&#45;&gt;dir_273e60b3573ce9ad58a4d725e6a36523</title>
<path fill="none" stroke="black" d="M158.46,-447.7C163.01,-439.47 169.37,-429.48 175.77,-420.42"/>
<polygon fill="black" stroke="black" points="178.78,-422.24 181.86,-412.1 173.13,-418.1 178.78,-422.24"/>
<g id="a_edge18&#45;headlabel"><a xlink:href="dir_000027_000025.html" target="_top" xlink:title="1">
<text text-anchor="middle" x="178.95" y="-424.32" font-family="Helvetica,sans-Serif" font-size="10.00">1</text>
</a>
</g>
</g>
<!-- dir_90a2ad6518b731f1dc196d14153b8b6b -->
<g id="node4" class="node">
<title>dir_90a2ad6518b731f1dc196d14153b8b6b</title>
<g id="a_node4"><a xlink:href="dir_90a2ad6518b731f1dc196d14153b8b6b.html" target="_top" xlink:title="base">
<polygon fill="white" stroke="red" points="156,-196 102,-196 102,-160 156,-160 156,-196"/>
<text text-anchor="middle" x="129" y="-175.5" font-family="Helvetica,sans-Serif" font-size="10.00">base</text>
</a>
</g>
</g>
<!-- dir_1a6d8571b8eba91bded1d6534762df79&#45;&gt;dir_90a2ad6518b731f1dc196d14153b8b6b -->
<g id="edge19" class="edge">
<title>dir_1a6d8571b8eba91bded1d6534762df79&#45;&gt;dir_90a2ad6518b731f1dc196d14153b8b6b</title>
<path fill="none" stroke="black" d="M149.44,-447.92C147.91,-412.36 153.25,-331.43 150,-304 145.94,-269.67 135.81,-231.13 130.44,-206.04"/>
<polygon fill="black" stroke="black" points="133.85,-205.27 128.46,-196.16 126.99,-206.65 133.85,-205.27"/>
<g id="a_edge19&#45;headlabel"><a xlink:href="dir_000027_000006.html" target="_top" xlink:title="31">
<text text-anchor="middle" x="137.34" y="-205.74" font-family="Helvetica,sans-Serif" font-size="10.00">31</text>
</a>
</g>
</g>
<!-- dir_9706acb4d69a98d7c15ebe226493116f -->
<g id="node5" class="node">
<title>dir_9706acb4d69a98d7c15ebe226493116f</title>
<g id="a_node5"><a xlink:href="dir_9706acb4d69a98d7c15ebe226493116f.html" target="_top" xlink:title="fe">
<polygon fill="none" stroke="black" points="202,-124 148,-124 148,-88 202,-88 202,-124"/>
<text text-anchor="middle" x="175" y="-103.5" font-family="Helvetica,sans-Serif" font-size="10.00">fe</text>
</a>
</g>
</g>
<!-- dir_1a6d8571b8eba91bded1d6534762df79&#45;&gt;dir_9706acb4d69a98d7c15ebe226493116f -->
<g id="edge20" class="edge">
<title>dir_1a6d8571b8eba91bded1d6534762df79&#45;&gt;dir_9706acb4d69a98d7c15ebe226493116f</title>
<path fill="none" stroke="black" d="M180.34,-452.11C197.48,-443.58 218.26,-430.51 230,-412 251.32,-378.39 240,-362.8 240,-323 240,-323 240,-323 240,-249 240,-204.1 210.54,-159.33 191.06,-132.4"/>
<polygon fill="black" stroke="black" points="193.86,-130.31 185.13,-124.31 188.22,-134.44 193.86,-130.31"/>
<g id="a_edge20&#45;headlabel"><a xlink:href="dir_000027_000008.html" target="_top" xlink:title="1">
<text text-anchor="middle" x="198.28" y="-129.03" font-family="Helvetica,sans-Serif" font-size="10.00">1</text>
</a>
</g>
</g>
<!-- dir_a933ab6cde53f9fa4d29dc295cb0ac5f -->
<g id="node6" class="node">
<title>dir_a933ab6cde53f9fa4d29dc295cb0ac5f</title>
<g id="a_node6"><a xlink:href="dir_a933ab6cde53f9fa4d29dc295cb0ac5f.html" target="_top" xlink:title="grid">
<polygon fill="none" stroke="black" points="150,-340 96,-340 96,-304 150,-304 150,-340"/>
<text text-anchor="middle" x="123" y="-319.5" font-family="Helvetica,sans-Serif" font-size="10.00">grid</text>
</a>
</g>
</g>
<!-- dir_1a6d8571b8eba91bded1d6534762df79&#45;&gt;dir_a933ab6cde53f9fa4d29dc295cb0ac5f -->
<g id="edge21" class="edge">
<title>dir_1a6d8571b8eba91bded1d6534762df79&#45;&gt;dir_a933ab6cde53f9fa4d29dc295cb0ac5f</title>
<path fill="none" stroke="black" d="M144.8,-447.87C137.13,-423.67 127.44,-379.21 123.33,-350.39"/>
<polygon fill="black" stroke="black" points="126.77,-349.67 122.04,-340.19 119.82,-350.55 126.77,-349.67"/>
<g id="a_edge21&#45;headlabel"><a xlink:href="dir_000027_000009.html" target="_top" xlink:title="1">
<text text-anchor="middle" x="130.03" y="-350.38" font-family="Helvetica,sans-Serif" font-size="10.00">1</text>
</a>
</g>
</g>
<!-- dir_b2430326e20a3ae038db3bac19f0573b -->
<g id="node7" class="node">
<title>dir_b2430326e20a3ae038db3bac19f0573b</title>
<g id="a_node7"><a xlink:href="dir_b2430326e20a3ae038db3bac19f0573b.html" target="_top" xlink:title="lac">
<polygon fill="none" stroke="black" points="90,-268 36,-268 36,-232 90,-232 90,-268"/>
<text text-anchor="middle" x="63" y="-247.5" font-family="Helvetica,sans-Serif" font-size="10.00">lac</text>
</a>
</g>
</g>
<!-- dir_1a6d8571b8eba91bded1d6534762df79&#45;&gt;dir_b2430326e20a3ae038db3bac19f0573b -->
<g id="edge22" class="edge">
<title>dir_1a6d8571b8eba91bded1d6534762df79&#45;&gt;dir_b2430326e20a3ae038db3bac19f0573b</title>
<path fill="none" stroke="black" d="M142.32,-447.78C128.07,-424.2 102.8,-380.2 87,-340 79.02,-319.71 72.74,-295.8 68.6,-277.88"/>
<polygon fill="black" stroke="black" points="72.01,-277.09 66.42,-268.09 65.18,-278.61 72.01,-277.09"/>
<g id="a_edge22&#45;headlabel"><a xlink:href="dir_000027_000007.html" target="_top" xlink:title="2">
<text text-anchor="middle" x="75.57" y="-277.48" font-family="Helvetica,sans-Serif" font-size="10.00">2</text>
</a>
</g>
</g>
<!-- dir_273e60b3573ce9ad58a4d725e6a36523&#45;&gt;dir_1a6d8571b8eba91bded1d6534762df79 -->
<g id="edge1" class="edge">
<title>dir_273e60b3573ce9ad58a4d725e6a36523&#45;&gt;dir_1a6d8571b8eba91bded1d6534762df79</title>
<path fill="none" stroke="black" d="M193.66,-412.1C189.13,-420.3 182.78,-430.28 176.38,-439.36"/>
<polygon fill="black" stroke="black" points="173.36,-437.56 170.29,-447.7 179.01,-441.69 173.36,-437.56"/>
<g id="a_edge1&#45;headlabel"><a xlink:href="dir_000025_000027.html" target="_top" xlink:title="2">
<text text-anchor="middle" x="173.19" y="-430.48" font-family="Helvetica,sans-Serif" font-size="10.00">2</text>
</a>
</g>
</g>
<!-- dir_5c2eb6d9a7a6f1e9cd32e0e8abf42ca6 -->
<g id="node3" class="node">
<title>dir_5c2eb6d9a7a6f1e9cd32e0e8abf42ca6</title>
<g id="a_node3"><a xlink:href="dir_5c2eb6d9a7a6f1e9cd32e0e8abf42ca6.html" target="_top" xlink:title="numerics">
<polygon fill="none" stroke="black" points="180,-52 124,-52 124,-16 180,-16 180,-52"/>
<text text-anchor="middle" x="152" y="-31.5" font-family="Helvetica,sans-Serif" font-size="10.00">numerics</text>
</a>
</g>
</g>
<!-- dir_273e60b3573ce9ad58a4d725e6a36523&#45;&gt;dir_5c2eb6d9a7a6f1e9cd32e0e8abf42ca6 -->
<g id="edge2" class="edge">
<title>dir_273e60b3573ce9ad58a4d725e6a36523&#45;&gt;dir_5c2eb6d9a7a6f1e9cd32e0e8abf42ca6</title>
<path fill="none" stroke="black" d="M205.07,-375.76C213.84,-349.28 229,-296.86 229,-251 229,-251 229,-251 229,-177 229,-136.64 231.03,-123.04 211,-88 204.65,-76.89 195.13,-66.85 185.58,-58.59"/>
<polygon fill="black" stroke="black" points="187.58,-55.7 177.62,-52.07 183.14,-61.11 187.58,-55.7"/>
<g id="a_edge2&#45;headlabel"><a xlink:href="dir_000025_000026.html" target="_top" xlink:title="2">
<text text-anchor="middle" x="192.16" y="-53.28" font-family="Helvetica,sans-Serif" font-size="10.00">2</text>
</a>
</g>
</g>
<!-- dir_273e60b3573ce9ad58a4d725e6a36523&#45;&gt;dir_90a2ad6518b731f1dc196d14153b8b6b -->
<g id="edge3" class="edge">
<title>dir_273e60b3573ce9ad58a4d725e6a36523&#45;&gt;dir_90a2ad6518b731f1dc196d14153b8b6b</title>
<path fill="none" stroke="black" d="M193.95,-375.68C190.27,-345.2 187.24,-280.62 165,-232 160.41,-221.96 153.35,-212.32 146.58,-204.09"/>
<polygon fill="black" stroke="black" points="149.16,-201.71 140.02,-196.35 143.82,-206.24 149.16,-201.71"/>
<g id="a_edge3&#45;headlabel"><a xlink:href="dir_000025_000006.html" target="_top" xlink:title="26">
<text text-anchor="middle" x="153.65" y="-200.12" font-family="Helvetica,sans-Serif" font-size="10.00">26</text>
</a>
</g>
</g>
<!-- dir_273e60b3573ce9ad58a4d725e6a36523&#45;&gt;dir_a933ab6cde53f9fa4d29dc295cb0ac5f -->
<g id="edge4" class="edge">
<title>dir_273e60b3573ce9ad58a4d725e6a36523&#45;&gt;dir_a933ab6cde53f9fa4d29dc295cb0ac5f</title>
<path fill="none" stroke="black" d="M174.3,-375.7C164.12,-367.14 152.56,-356.66 142.93,-347.3"/>
<polygon fill="black" stroke="black" points="145.24,-344.67 135.68,-340.1 140.3,-349.63 145.24,-344.67"/>
<g id="a_edge4&#45;headlabel"><a xlink:href="dir_000025_000009.html" target="_top" xlink:title="4">
<text text-anchor="middle" x="149.79" y="-342.69" font-family="Helvetica,sans-Serif" font-size="10.00">4</text>
</a>
</g>
</g>
<!-- dir_5c2eb6d9a7a6f1e9cd32e0e8abf42ca6&#45;&gt;dir_1a6d8571b8eba91bded1d6534762df79 -->
<g id="edge23" class="edge">
<title>dir_5c2eb6d9a7a6f1e9cd32e0e8abf42ca6&#45;&gt;dir_1a6d8571b8eba91bded1d6534762df79</title>
<path fill="none" stroke="black" d="M180.23,-49.5C195.16,-58.6 212.53,-71.69 223,-88 258.37,-143.09 247.07,-166.9 254,-232 255.87,-249.58 259.24,-397.36 250,-412 236.5,-433.39 211.18,-446.8 189.8,-454.78"/>
<polygon fill="black" stroke="black" points="188.61,-451.49 180.31,-458.08 190.9,-458.11 188.61,-451.49"/>
<g id="a_edge23&#45;headlabel"><a xlink:href="dir_000026_000027.html" target="_top" xlink:title="12">
<text text-anchor="middle" x="191.07" y="-445.13" font-family="Helvetica,sans-Serif" font-size="10.00">12</text>
</a>
</g>
</g>
<!-- dir_5c2eb6d9a7a6f1e9cd32e0e8abf42ca6&#45;&gt;dir_90a2ad6518b731f1dc196d14153b8b6b -->
<g id="edge24" class="edge">
<title>dir_5c2eb6d9a7a6f1e9cd32e0e8abf42ca6&#45;&gt;dir_90a2ad6518b731f1dc196d14153b8b6b</title>
<path fill="none" stroke="black" d="M155.04,-52.07C153.48,-62.4 150.16,-75.87 148,-88 144.34,-108.54 141.77,-131.99 138.86,-149.66"/>
<polygon fill="black" stroke="black" points="135.35,-149.38 136.99,-159.84 142.24,-150.64 135.35,-149.38"/>
<g id="a_edge24&#45;headlabel"><a xlink:href="dir_000026_000006.html" target="_top" xlink:title="74">
<text text-anchor="middle" x="133.21" y="-142.83" font-family="Helvetica,sans-Serif" font-size="10.00">74</text>
</a>
</g>
</g>
<!-- dir_5c2eb6d9a7a6f1e9cd32e0e8abf42ca6&#45;&gt;dir_9706acb4d69a98d7c15ebe226493116f -->
<g id="edge25" class="edge">
<title>dir_5c2eb6d9a7a6f1e9cd32e0e8abf42ca6&#45;&gt;dir_9706acb4d69a98d7c15ebe226493116f</title>
<path fill="none" stroke="black" d="M163.52,-52.1C166.88,-59.88 170.2,-69.26 172.7,-77.95"/>
<polygon fill="black" stroke="black" points="169.33,-78.89 175.23,-87.7 176.11,-77.14 169.33,-78.89"/>
<g id="a_edge25&#45;headlabel"><a xlink:href="dir_000026_000008.html" target="_top" xlink:title="15">
<text text-anchor="middle" x="165.68" y="-73.63" font-family="Helvetica,sans-Serif" font-size="10.00">15</text>
</a>
</g>
</g>
<!-- dir_5c2eb6d9a7a6f1e9cd32e0e8abf42ca6&#45;&gt;dir_a933ab6cde53f9fa4d29dc295cb0ac5f -->
<g id="edge26" class="edge">
<title>dir_5c2eb6d9a7a6f1e9cd32e0e8abf42ca6&#45;&gt;dir_a933ab6cde53f9fa4d29dc295cb0ac5f</title>
<path fill="none" stroke="black" d="M130.9,-52.17C118.19,-61.36 102.69,-73.74 92,-88 50.81,-142.94 48.66,-164.51 36,-232 33.05,-247.73 27.87,-254.22 36,-268 47.21,-286.99 67.92,-299.64 86.41,-307.81"/>
<polygon fill="black" stroke="black" points="85.24,-311.11 95.82,-311.68 87.9,-304.64 85.24,-311.11"/>
<g id="a_edge26&#45;headlabel"><a xlink:href="dir_000026_000009.html" target="_top" xlink:title="7">
<text text-anchor="middle" x="80.84" y="-309.87" font-family="Helvetica,sans-Serif" font-size="10.00">7</text>
</a>
</g>
</g>
<!-- dir_5c2eb6d9a7a6f1e9cd32e0e8abf42ca6&#45;&gt;dir_b2430326e20a3ae038db3bac19f0573b -->
<g id="edge27" class="edge">
<title>dir_5c2eb6d9a7a6f1e9cd32e0e8abf42ca6&#45;&gt;dir_b2430326e20a3ae038db3bac19f0573b</title>
<path fill="none" stroke="black" d="M136.91,-52.17C117.82,-75.01 85.68,-117.47 71,-160 64.14,-179.89 62.3,-203.68 62.09,-221.66"/>
<polygon fill="black" stroke="black" points="58.59,-221.78 62.13,-231.76 65.59,-221.75 58.59,-221.78"/>
<g id="a_edge27&#45;headlabel"><a xlink:href="dir_000026_000007.html" target="_top" xlink:title="10">
<text text-anchor="middle" x="55.74" y="-215.69" font-family="Helvetica,sans-Serif" font-size="10.00">10</text>
</a>
</g>
</g>
<!-- dir_90a2ad6518b731f1dc196d14153b8b6b&#45;&gt;dir_1a6d8571b8eba91bded1d6534762df79 -->
<g id="edge12" class="edge">
<title>dir_90a2ad6518b731f1dc196d14153b8b6b&#45;&gt;dir_1a6d8571b8eba91bded1d6534762df79</title>
<path fill="none" stroke="black" d="M140.51,-196.16C150.79,-220.03 163.36,-264.77 168,-304 170.97,-329.07 166.77,-398.85 160.87,-437.81"/>
<polygon fill="black" stroke="black" points="157.38,-437.48 159.17,-447.92 164.28,-438.64 157.38,-437.48"/>
<g id="a_edge12&#45;headlabel"><a xlink:href="dir_000006_000027.html" target="_top" xlink:title="2">
<text text-anchor="middle" x="155.18" y="-430.96" font-family="Helvetica,sans-Serif" font-size="10.00">2</text>
</a>
</g>
</g>
<!-- dir_90a2ad6518b731f1dc196d14153b8b6b&#45;&gt;dir_273e60b3573ce9ad58a4d725e6a36523 -->
<g id="edge13" class="edge">
<title>dir_90a2ad6518b731f1dc196d14153b8b6b&#45;&gt;dir_273e60b3573ce9ad58a4d725e6a36523</title>
<path fill="none" stroke="black" d="M155.82,-196.12C166.19,-205.74 176.82,-218.5 183,-232 202.98,-275.68 207.45,-332.25 205.57,-365.39"/>
<polygon fill="black" stroke="black" points="202.06,-365.42 204.71,-375.68 209.03,-366.01 202.06,-365.42"/>
<g id="a_edge13&#45;headlabel"><a xlink:href="dir_000006_000025.html" target="_top" xlink:title="1">
<text text-anchor="middle" x="199.53" y="-359.1" font-family="Helvetica,sans-Serif" font-size="10.00">1</text>
</a>
</g>
</g>
<!-- dir_90a2ad6518b731f1dc196d14153b8b6b&#45;&gt;dir_5c2eb6d9a7a6f1e9cd32e0e8abf42ca6 -->
<g id="edge14" class="edge">
<title>dir_90a2ad6518b731f1dc196d14153b8b6b&#45;&gt;dir_5c2eb6d9a7a6f1e9cd32e0e8abf42ca6</title>
<path fill="none" stroke="black" d="M123.55,-159.84C122.75,-141.85 125.58,-112.8 130,-88 131.53,-79.38 133.66,-70.08 136.16,-61.7"/>
<polygon fill="black" stroke="black" points="139.53,-62.66 139.4,-52.07 132.9,-60.43 139.53,-62.66"/>
<g id="a_edge14&#45;headlabel"><a xlink:href="dir_000006_000026.html" target="_top" xlink:title="2">
<text text-anchor="middle" x="141.08" y="-64.47" font-family="Helvetica,sans-Serif" font-size="10.00">2</text>
</a>
</g>
</g>
<!-- dir_90a2ad6518b731f1dc196d14153b8b6b&#45;&gt;dir_9706acb4d69a98d7c15ebe226493116f -->
<g id="edge15" class="edge">
<title>dir_90a2ad6518b731f1dc196d14153b8b6b&#45;&gt;dir_9706acb4d69a98d7c15ebe226493116f</title>
<path fill="none" stroke="black" d="M134.46,-159.7C139.01,-151.47 145.37,-141.48 151.77,-132.42"/>
<polygon fill="black" stroke="black" points="154.78,-134.24 157.86,-124.1 149.13,-130.1 154.78,-134.24"/>
<g id="a_edge15&#45;headlabel"><a xlink:href="dir_000006_000008.html" target="_top" xlink:title="4">
<text text-anchor="middle" x="154.95" y="-136.32" font-family="Helvetica,sans-Serif" font-size="10.00">4</text>
</a>
</g>
</g>
<!-- dir_90a2ad6518b731f1dc196d14153b8b6b&#45;&gt;dir_a933ab6cde53f9fa4d29dc295cb0ac5f -->
<g id="edge16" class="edge">
<title>dir_90a2ad6518b731f1dc196d14153b8b6b&#45;&gt;dir_a933ab6cde53f9fa4d29dc295cb0ac5f</title>
<path fill="none" stroke="black" d="M132.86,-196.19C134.4,-220.42 132.8,-264.89 129.61,-293.68"/>
<polygon fill="black" stroke="black" points="126.1,-293.51 128.31,-303.87 133.05,-294.39 126.1,-293.51"/>
<g id="a_edge16&#45;headlabel"><a xlink:href="dir_000006_000009.html" target="_top" xlink:title="8">
<text text-anchor="middle" x="123.74" y="-287.08" font-family="Helvetica,sans-Serif" font-size="10.00">8</text>
</a>
</g>
</g>
<!-- dir_90a2ad6518b731f1dc196d14153b8b6b&#45;&gt;dir_b2430326e20a3ae038db3bac19f0573b -->
<g id="edge17" class="edge">
<title>dir_90a2ad6518b731f1dc196d14153b8b6b&#45;&gt;dir_b2430326e20a3ae038db3bac19f0573b</title>
<path fill="none" stroke="black" d="M118.77,-196.1C111.62,-204.64 101.94,-215.11 92.59,-224.48"/>
<polygon fill="black" stroke="black" points="89.92,-222.2 85.23,-231.7 94.82,-227.2 89.92,-222.2"/>
<g id="a_edge17&#45;headlabel"><a xlink:href="dir_000006_000007.html" target="_top" xlink:title="8">
<text text-anchor="middle" x="90.5" y="-215.15" font-family="Helvetica,sans-Serif" font-size="10.00">8</text>
</a>
</g>
</g>
<!-- dir_9706acb4d69a98d7c15ebe226493116f&#45;&gt;dir_1a6d8571b8eba91bded1d6534762df79 -->
<g id="edge35" class="edge">
<title>dir_9706acb4d69a98d7c15ebe226493116f&#45;&gt;dir_1a6d8571b8eba91bded1d6534762df79</title>
<path fill="none" stroke="black" d="M196.98,-124.31C221.82,-149.64 258,-199.24 258,-249 258,-323 258,-323 258,-323 258,-362.8 269.32,-378.39 248,-412 234.94,-432.59 210.72,-446.44 189.85,-454.81"/>
<polygon fill="black" stroke="black" points="188.41,-451.61 180.25,-458.37 190.85,-458.17 188.41,-451.61"/>
<g id="a_edge35&#45;headlabel"><a xlink:href="dir_000008_000027.html" target="_top" xlink:title="6">
<text text-anchor="middle" x="190.79" y="-445.2" font-family="Helvetica,sans-Serif" font-size="10.00">6</text>
</a>
</g>
</g>
<!-- dir_9706acb4d69a98d7c15ebe226493116f&#45;&gt;dir_273e60b3573ce9ad58a4d725e6a36523 -->
<g id="edge36" class="edge">
<title>dir_9706acb4d69a98d7c15ebe226493116f&#45;&gt;dir_273e60b3573ce9ad58a4d725e6a36523</title>
<path fill="none" stroke="black" d="M178.02,-124.05C183.88,-158.11 196.6,-237.05 201,-304 202.05,-319.97 201.3,-324 201,-340 200.84,-348.32 200.55,-357.37 200.23,-365.6"/>
<polygon fill="black" stroke="black" points="196.72,-365.68 199.81,-375.82 203.72,-365.97 196.72,-365.68"/>
<g id="a_edge36&#45;headlabel"><a xlink:href="dir_000008_000025.html" target="_top" xlink:title="1">
<text text-anchor="middle" x="194.04" y="-359.48" font-family="Helvetica,sans-Serif" font-size="10.00">1</text>
</a>
</g>
</g>
<!-- dir_9706acb4d69a98d7c15ebe226493116f&#45;&gt;dir_5c2eb6d9a7a6f1e9cd32e0e8abf42ca6 -->
<g id="edge37" class="edge">
<title>dir_9706acb4d69a98d7c15ebe226493116f&#45;&gt;dir_5c2eb6d9a7a6f1e9cd32e0e8abf42ca6</title>
<path fill="none" stroke="black" d="M163.4,-87.7C160.03,-79.9 156.72,-70.51 154.23,-61.83"/>
<polygon fill="black" stroke="black" points="157.61,-60.91 151.72,-52.1 150.83,-62.66 157.61,-60.91"/>
<g id="a_edge37&#45;headlabel"><a xlink:href="dir_000008_000026.html" target="_top" xlink:title="1">
<text text-anchor="middle" x="161.26" y="-61.19" font-family="Helvetica,sans-Serif" font-size="10.00">1</text>
</a>
</g>
</g>
<!-- dir_9706acb4d69a98d7c15ebe226493116f&#45;&gt;dir_90a2ad6518b731f1dc196d14153b8b6b -->
<g id="edge38" class="edge">
<title>dir_9706acb4d69a98d7c15ebe226493116f&#45;&gt;dir_90a2ad6518b731f1dc196d14153b8b6b</title>
<path fill="none" stroke="black" d="M169.66,-124.1C165.13,-132.3 158.78,-142.28 152.38,-151.36"/>
<polygon fill="black" stroke="black" points="149.36,-149.56 146.29,-159.7 155.01,-153.69 149.36,-149.56"/>
<g id="a_edge38&#45;headlabel"><a xlink:href="dir_000008_000006.html" target="_top" xlink:title="191">
<text text-anchor="middle" x="149.19" y="-142.48" font-family="Helvetica,sans-Serif" font-size="10.00">191</text>
</a>
</g>
</g>
<!-- dir_9706acb4d69a98d7c15ebe226493116f&#45;&gt;dir_a933ab6cde53f9fa4d29dc295cb0ac5f -->
<g id="edge39" class="edge">
<title>dir_9706acb4d69a98d7c15ebe226493116f&#45;&gt;dir_a933ab6cde53f9fa4d29dc295cb0ac5f</title>
<path fill="none" stroke="black" d="M180.87,-124.24C182.01,-142.3 179.45,-171.41 174,-196 166.26,-230.93 152.32,-269.79 140.59,-294.77"/>
<polygon fill="black" stroke="black" points="137.35,-293.42 136.05,-303.94 143.62,-296.53 137.35,-293.42"/>
<g id="a_edge39&#45;headlabel"><a xlink:href="dir_000008_000009.html" target="_top" xlink:title="9">
<text text-anchor="middle" x="136.4" y="-286.44" font-family="Helvetica,sans-Serif" font-size="10.00">9</text>
</a>
</g>
</g>
<!-- dir_9706acb4d69a98d7c15ebe226493116f&#45;&gt;dir_b2430326e20a3ae038db3bac19f0573b -->
<g id="edge40" class="edge">
<title>dir_9706acb4d69a98d7c15ebe226493116f&#45;&gt;dir_b2430326e20a3ae038db3bac19f0573b</title>
<path fill="none" stroke="black" d="M147.95,-118.63C130.07,-127.58 107.36,-141.54 93,-160 79.04,-177.94 71.39,-202.74 67.32,-221.6"/>
<polygon fill="black" stroke="black" points="63.83,-221.17 65.35,-231.66 70.7,-222.51 63.83,-221.17"/>
<g id="a_edge40&#45;headlabel"><a xlink:href="dir_000008_000007.html" target="_top" xlink:title="7">
<text text-anchor="middle" x="61.73" y="-214.6" font-family="Helvetica,sans-Serif" font-size="10.00">7</text>
</a>
</g>
</g>
<!-- dir_a933ab6cde53f9fa4d29dc295cb0ac5f&#45;&gt;dir_1a6d8571b8eba91bded1d6534762df79 -->
<g id="edge6" class="edge">
<title>dir_a933ab6cde53f9fa4d29dc295cb0ac5f&#45;&gt;dir_1a6d8571b8eba91bded1d6534762df79</title>
<path fill="none" stroke="black" d="M131.22,-340.19C138.9,-364.42 148.58,-408.89 152.68,-437.68"/>
<polygon fill="black" stroke="black" points="149.24,-438.39 153.97,-447.87 156.19,-437.51 149.24,-438.39"/>
<g id="a_edge6&#45;headlabel"><a xlink:href="dir_000009_000027.html" target="_top" xlink:title="2">
<text text-anchor="middle" x="145.98" y="-432.68" font-family="Helvetica,sans-Serif" font-size="10.00">2</text>
</a>
</g>
</g>
<!-- dir_a933ab6cde53f9fa4d29dc295cb0ac5f&#45;&gt;dir_273e60b3573ce9ad58a4d725e6a36523 -->
<g id="edge7" class="edge">
<title>dir_a933ab6cde53f9fa4d29dc295cb0ac5f&#45;&gt;dir_273e60b3573ce9ad58a4d725e6a36523</title>
<path fill="none" stroke="black" d="M147.47,-340.1C157.62,-348.64 169.19,-359.11 178.85,-368.48"/>
<polygon fill="black" stroke="black" points="176.56,-371.14 186.13,-375.7 181.49,-366.17 176.56,-371.14"/>
<g id="a_edge7&#45;headlabel"><a xlink:href="dir_000009_000025.html" target="_top" xlink:title="2">
<text text-anchor="middle" x="172.01" y="-368.13" font-family="Helvetica,sans-Serif" font-size="10.00">2</text>
</a>
</g>
</g>
<!-- dir_a933ab6cde53f9fa4d29dc295cb0ac5f&#45;&gt;dir_5c2eb6d9a7a6f1e9cd32e0e8abf42ca6 -->
<g id="edge8" class="edge">
<title>dir_a933ab6cde53f9fa4d29dc295cb0ac5f&#45;&gt;dir_5c2eb6d9a7a6f1e9cd32e0e8abf42ca6</title>
<path fill="none" stroke="black" d="M95.62,-316.16C70.09,-309.59 34.16,-295.38 18,-268 9.87,-254.22 15.05,-247.73 18,-232 30.66,-164.51 32.81,-142.94 74,-88 84.73,-73.69 100.3,-61.28 114.82,-52.07"/>
<polygon fill="black" stroke="black" points="116.9,-54.9 123.68,-46.76 113.3,-48.9 116.9,-54.9"/>
<g id="a_edge8&#45;headlabel"><a xlink:href="dir_000009_000026.html" target="_top" xlink:title="3">
<text text-anchor="middle" x="115.28" y="-56.69" font-family="Helvetica,sans-Serif" font-size="10.00">3</text>
</a>
</g>
</g>
<!-- dir_a933ab6cde53f9fa4d29dc295cb0ac5f&#45;&gt;dir_90a2ad6518b731f1dc196d14153b8b6b -->
<g id="edge9" class="edge">
<title>dir_a933ab6cde53f9fa4d29dc295cb0ac5f&#45;&gt;dir_90a2ad6518b731f1dc196d14153b8b6b</title>
<path fill="none" stroke="black" d="M119.14,-303.87C117.6,-279.67 119.19,-235.21 122.38,-206.39"/>
<polygon fill="black" stroke="black" points="125.89,-206.55 123.68,-196.19 118.95,-205.67 125.89,-206.55"/>
<g id="a_edge9&#45;headlabel"><a xlink:href="dir_000009_000006.html" target="_top" xlink:title="89">
<text text-anchor="middle" x="128.25" y="-207.98" font-family="Helvetica,sans-Serif" font-size="10.00">89</text>
</a>
</g>
</g>
<!-- dir_a933ab6cde53f9fa4d29dc295cb0ac5f&#45;&gt;dir_9706acb4d69a98d7c15ebe226493116f -->
<g id="edge10" class="edge">
<title>dir_a933ab6cde53f9fa4d29dc295cb0ac5f&#45;&gt;dir_9706acb4d69a98d7c15ebe226493116f</title>
<path fill="none" stroke="black" d="M124,-303.94C130.51,-280.17 147.24,-235.56 156,-196 160.51,-175.63 163.04,-152.17 165.72,-134.45"/>
<polygon fill="black" stroke="black" points="169.23,-134.68 167.43,-124.24 162.33,-133.53 169.23,-134.68"/>
<g id="a_edge10&#45;headlabel"><a xlink:href="dir_000009_000008.html" target="_top" xlink:title="3">
<text text-anchor="middle" x="171.44" y="-136.19" font-family="Helvetica,sans-Serif" font-size="10.00">3</text>
</a>
</g>
</g>
<!-- dir_a933ab6cde53f9fa4d29dc295cb0ac5f&#45;&gt;dir_b2430326e20a3ae038db3bac19f0573b -->
<g id="edge11" class="edge">
<title>dir_a933ab6cde53f9fa4d29dc295cb0ac5f&#45;&gt;dir_b2430326e20a3ae038db3bac19f0573b</title>
<path fill="none" stroke="black" d="M108.17,-303.7C100.98,-295.3 92.2,-285.07 84.31,-275.86"/>
<polygon fill="black" stroke="black" points="86.83,-273.42 77.66,-268.1 81.51,-277.97 86.83,-273.42"/>
<g id="a_edge11&#45;headlabel"><a xlink:href="dir_000009_000007.html" target="_top" xlink:title="1">
<text text-anchor="middle" x="91.32" y="-271.8" font-family="Helvetica,sans-Serif" font-size="10.00">1</text>
</a>
</g>
</g>
<!-- dir_b2430326e20a3ae038db3bac19f0573b&#45;&gt;dir_90a2ad6518b731f1dc196d14153b8b6b -->
<g id="edge5" class="edge">
<title>dir_b2430326e20a3ae038db3bac19f0573b&#45;&gt;dir_90a2ad6518b731f1dc196d14153b8b6b</title>
<path fill="none" stroke="black" d="M73.4,-231.7C80.59,-223.14 90.29,-212.66 99.62,-203.3"/>
<polygon fill="black" stroke="black" points="102.28,-205.6 106.98,-196.1 97.38,-200.6 102.28,-205.6"/>
<g id="a_edge5&#45;headlabel"><a xlink:href="dir_000007_000006.html" target="_top" xlink:title="312">
<text text-anchor="middle" x="101.7" y="-207.64" font-family="Helvetica,sans-Serif" font-size="10.00">312</text>
</a>
</g>
</g>
<!-- dir_c137b9daa6c0557593465ecb9543c7ae -->
<g id="node8" class="node">
<title>dir_c137b9daa6c0557593465ecb9543c7ae</title>
<g id="a_node8"><a xlink:href="dir_c137b9daa6c0557593465ecb9543c7ae.html" target="_top" xlink:title="particles">
<polygon fill="#eeeeff" stroke="black" points="180,-556 126,-556 126,-520 180,-520 180,-556"/>
<text text-anchor="middle" x="153" y="-535.5" font-family="Helvetica,sans-Serif" font-size="10.00">particles</text>
</a>
</g>
</g>
<!-- dir_c137b9daa6c0557593465ecb9543c7ae&#45;&gt;dir_1a6d8571b8eba91bded1d6534762df79 -->
<g id="edge28" class="edge">
<title>dir_c137b9daa6c0557593465ecb9543c7ae&#45;&gt;dir_1a6d8571b8eba91bded1d6534762df79</title>
<path fill="none" stroke="black" d="M153,-519.7C153,-511.98 153,-502.71 153,-494.11"/>
<polygon fill="black" stroke="black" points="156.5,-494.1 153,-484.1 149.5,-494.1 156.5,-494.1"/>
<g id="a_edge28&#45;headlabel"><a xlink:href="dir_000013_000027.html" target="_top" xlink:title="2">
<text text-anchor="middle" x="159.34" y="-495.2" font-family="Helvetica,sans-Serif" font-size="10.00">2</text>
</a>
</g>
</g>
<!-- dir_c137b9daa6c0557593465ecb9543c7ae&#45;&gt;dir_273e60b3573ce9ad58a4d725e6a36523 -->
<g id="edge29" class="edge">
<title>dir_c137b9daa6c0557593465ecb9543c7ae&#45;&gt;dir_273e60b3573ce9ad58a4d725e6a36523</title>
<path fill="none" stroke="black" d="M168.03,-519.58C175.62,-509.78 184.22,-496.94 189,-484 196.32,-464.22 198.69,-440.42 199.3,-422.41"/>
<polygon fill="black" stroke="black" points="202.8,-422.35 199.48,-412.29 195.8,-422.23 202.8,-422.35"/>
<g id="a_edge29&#45;headlabel"><a xlink:href="dir_000013_000025.html" target="_top" xlink:title="2">
<text text-anchor="middle" x="205.57" y="-423.5" font-family="Helvetica,sans-Serif" font-size="10.00">2</text>
</a>
</g>
</g>
<!-- dir_c137b9daa6c0557593465ecb9543c7ae&#45;&gt;dir_5c2eb6d9a7a6f1e9cd32e0e8abf42ca6 -->
<g id="edge30" class="edge">
<title>dir_c137b9daa6c0557593465ecb9543c7ae&#45;&gt;dir_5c2eb6d9a7a6f1e9cd32e0e8abf42ca6</title>
<path fill="none" stroke="black" d="M180.36,-528.66C203.79,-520.39 237.24,-505.79 260,-484 292.61,-452.77 309,-440.15 309,-395 309,-395 309,-395 309,-177 309,-112.84 235.98,-70.15 189.54,-49.48"/>
<polygon fill="black" stroke="black" points="190.64,-46.15 180.07,-45.41 187.87,-52.58 190.64,-46.15"/>
<g id="a_edge30&#45;headlabel"><a xlink:href="dir_000013_000026.html" target="_top" xlink:title="1">
<text text-anchor="middle" x="195.06" y="-42.46" font-family="Helvetica,sans-Serif" font-size="10.00">1</text>
</a>
</g>
</g>
<!-- dir_c137b9daa6c0557593465ecb9543c7ae&#45;&gt;dir_90a2ad6518b731f1dc196d14153b8b6b -->
<g id="edge31" class="edge">
<title>dir_c137b9daa6c0557593465ecb9543c7ae&#45;&gt;dir_90a2ad6518b731f1dc196d14153b8b6b</title>
<path fill="none" stroke="black" d="M132.97,-519.86C123.2,-510.33 112.23,-497.65 106,-484 72.59,-410.82 74.02,-383.39 87,-304 87.1,-303.37 107.74,-242.09 120.04,-205.58"/>
<polygon fill="black" stroke="black" points="123.39,-206.6 123.27,-196.01 116.76,-204.36 123.39,-206.6"/>
<g id="a_edge31&#45;headlabel"><a xlink:href="dir_000013_000006.html" target="_top" xlink:title="27">
<text text-anchor="middle" x="124.93" y="-208.41" font-family="Helvetica,sans-Serif" font-size="10.00">27</text>
</a>
</g>
</g>
<!-- dir_c137b9daa6c0557593465ecb9543c7ae&#45;&gt;dir_9706acb4d69a98d7c15ebe226493116f -->
<g id="edge32" class="edge">
<title>dir_c137b9daa6c0557593465ecb9543c7ae&#45;&gt;dir_9706acb4d69a98d7c15ebe226493116f</title>
<path fill="none" stroke="black" d="M180.19,-524.01C219.88,-502.94 289,-457.3 289,-395 289,-395 289,-395 289,-321 289,-245.09 273.66,-223.45 232,-160 224.93,-149.23 215.22,-139.14 205.82,-130.71"/>
<polygon fill="black" stroke="black" points="207.93,-127.9 198.07,-124.03 203.37,-133.21 207.93,-127.9"/>
<g id="a_edge32&#45;headlabel"><a xlink:href="dir_000013_000008.html" target="_top" xlink:title="6">
<text text-anchor="middle" x="212.51" y="-125.59" font-family="Helvetica,sans-Serif" font-size="10.00">6</text>
</a>
</g>
</g>
<!-- dir_c137b9daa6c0557593465ecb9543c7ae&#45;&gt;dir_a933ab6cde53f9fa4d29dc295cb0ac5f -->
<g id="edge33" class="edge">
<title>dir_c137b9daa6c0557593465ecb9543c7ae&#45;&gt;dir_a933ab6cde53f9fa4d29dc295cb0ac5f</title>
<path fill="none" stroke="black" d="M137.39,-519.77C129.63,-510.03 121.05,-497.18 117,-484 103.11,-438.84 110.16,-383.19 116.57,-350.54"/>
<polygon fill="black" stroke="black" points="120.07,-350.91 118.68,-340.41 113.21,-349.48 120.07,-350.91"/>
<g id="a_edge33&#45;headlabel"><a xlink:href="dir_000013_000009.html" target="_top" xlink:title="3">
<text text-anchor="middle" x="122.11" y="-352.51" font-family="Helvetica,sans-Serif" font-size="10.00">3</text>
</a>
</g>
</g>
<!-- dir_c137b9daa6c0557593465ecb9543c7ae&#45;&gt;dir_b2430326e20a3ae038db3bac19f0573b -->
<g id="edge34" class="edge">
<title>dir_c137b9daa6c0557593465ecb9543c7ae&#45;&gt;dir_b2430326e20a3ae038db3bac19f0573b</title>
<path fill="none" stroke="black" d="M125.71,-527.01C107.06,-518.61 83.67,-504.62 72,-484 34.71,-418.12 47.1,-324.15 56.48,-278.29"/>
<polygon fill="black" stroke="black" points="59.97,-278.74 58.66,-268.23 53.13,-277.26 59.97,-278.74"/>
<g id="a_edge34&#45;headlabel"><a xlink:href="dir_000013_000007.html" target="_top" xlink:title="1">
<text text-anchor="middle" x="61.98" y="-280.35" font-family="Helvetica,sans-Serif" font-size="10.00">1</text>
</a>
</g>
</g>
</g>
</svg>
