<?xml version="1.0" encoding="UTF-8" standalone="no"?>
<!DOCTYPE svg PUBLIC "-//W3C//DTD SVG 1.1//EN"
 "http://www.w3.org/Graphics/SVG/1.1/DTD/svg11.dtd">
<!-- Generated by graphviz version 2.47.1 (20210417.1919)
 -->
<!-- Title: include/deal.II/fe Pages: 1 -->
<svg width="410pt" height="671pt"
 viewBox="0.00 0.00 410.00 671.00" xmlns="http://www.w3.org/2000/svg" xmlns:xlink="http://www.w3.org/1999/xlink">
<g id="graph0" class="graph" transform="scale(1 1) rotate(0) translate(4 667)">
<title>include/deal.II/fe</title>
<polygon fill="white" stroke="transparent" points="-4,4 -4,-667 406,-667 406,4 -4,4"/>
<g id="clust1" class="cluster">
<title>clusterdir_ee90d91a514b839c31faec7a1d916f67</title>
<g id="a_clust1"><a xlink:href="dir_ee90d91a514b839c31faec7a1d916f67.html" target="_top" xlink:title="deal.II">
<polygon fill="#ddddee" stroke="black" points="8,-8 8,-655 338,-655 338,-8 8,-8"/>
<text text-anchor="middle" x="173" y="-643" font-family="Helvetica,sans-Serif" font-size="10.00">deal.II</text>
</a>
</g>
</g>
<!-- dir_16ec7e00b3eaf1dbf09e67ec3cfcc7e2 -->
<g id="node1" class="node">
<title>dir_16ec7e00b3eaf1dbf09e67ec3cfcc7e2</title>
<g id="a_node1"><a xlink:href="dir_16ec7e00b3eaf1dbf09e67ec3cfcc7e2.html" target="_top" xlink:title="matrix_free">
<polygon fill="none" stroke="black" points="289.5,-628 224.5,-628 224.5,-592 289.5,-592 289.5,-628"/>
<text text-anchor="middle" x="257" y="-607.5" font-family="Helvetica,sans-Serif" font-size="10.00">matrix_free</text>
</a>
</g>
</g>
<!-- dir_1a6d8571b8eba91bded1d6534762df79 -->
<g id="node2" class="node">
<title>dir_1a6d8571b8eba91bded1d6534762df79</title>
<g id="a_node2"><a xlink:href="dir_1a6d8571b8eba91bded1d6534762df79.html" target="_top" xlink:title="dofs">
<polygon fill="none" stroke="black" points="144,-556 90,-556 90,-520 144,-520 144,-556"/>
<text text-anchor="middle" x="117" y="-535.5" font-family="Helvetica,sans-Serif" font-size="10.00">dofs</text>
</a>
</g>
</g>
<!-- dir_16ec7e00b3eaf1dbf09e67ec3cfcc7e2&#45;&gt;dir_1a6d8571b8eba91bded1d6534762df79 -->
<g id="edge37" class="edge">
<title>dir_16ec7e00b3eaf1dbf09e67ec3cfcc7e2&#45;&gt;dir_1a6d8571b8eba91bded1d6534762df79</title>
<path fill="none" stroke="black" d="M224.18,-592.59C202.96,-581.98 175.33,-568.16 153.43,-557.22"/>
<polygon fill="black" stroke="black" points="154.95,-554.06 144.44,-552.72 151.82,-560.32 154.95,-554.06"/>
<g id="a_edge37&#45;headlabel"><a xlink:href="dir_000030_000027.html" target="_top" xlink:title="5">
<text text-anchor="middle" x="159.43" y="-550.63" font-family="Helvetica,sans-Serif" font-size="10.00">5</text>
</a>
</g>
</g>
<!-- dir_273e60b3573ce9ad58a4d725e6a36523 -->
<g id="node3" class="node">
<title>dir_273e60b3573ce9ad58a4d725e6a36523</title>
<g id="a_node3"><a xlink:href="dir_273e60b3573ce9ad58a4d725e6a36523.html" target="_top" xlink:title="distributed">
<polygon fill="none" stroke="black" points="198,-484 136,-484 136,-448 198,-448 198,-484"/>
<text text-anchor="middle" x="167" y="-463.5" font-family="Helvetica,sans-Serif" font-size="10.00">distributed</text>
</a>
</g>
</g>
<!-- dir_16ec7e00b3eaf1dbf09e67ec3cfcc7e2&#45;&gt;dir_273e60b3573ce9ad58a4d725e6a36523 -->
<g id="edge38" class="edge">
<title>dir_16ec7e00b3eaf1dbf09e67ec3cfcc7e2&#45;&gt;dir_273e60b3573ce9ad58a4d725e6a36523</title>
<path fill="none" stroke="black" d="M240.48,-591.68C231.44,-581.71 220.41,-568.67 212,-556 198.69,-535.95 186.56,-511.43 178.26,-493.21"/>
<polygon fill="black" stroke="black" points="181.45,-491.76 174.17,-484.06 175.06,-494.61 181.45,-491.76"/>
<g id="a_edge38&#45;headlabel"><a xlink:href="dir_000030_000025.html" target="_top" xlink:title="1">
<text text-anchor="middle" x="185.51" y="-491.38" font-family="Helvetica,sans-Serif" font-size="10.00">1</text>
</a>
</g>
</g>
<!-- dir_4022f63979af12af4c32ec9a4562b2df -->
<g id="node4" class="node">
<title>dir_4022f63979af12af4c32ec9a4562b2df</title>
<g id="a_node4"><a xlink:href="dir_4022f63979af12af4c32ec9a4562b2df.html" target="_top" xlink:title="hp">
<polygon fill="none" stroke="black" points="232,-52 178,-52 178,-16 232,-16 232,-52"/>
<text text-anchor="middle" x="205" y="-31.5" font-family="Helvetica,sans-Serif" font-size="10.00">hp</text>
</a>
</g>
</g>
<!-- dir_16ec7e00b3eaf1dbf09e67ec3cfcc7e2&#45;&gt;dir_4022f63979af12af4c32ec9a4562b2df -->
<g id="edge39" class="edge">
<title>dir_16ec7e00b3eaf1dbf09e67ec3cfcc7e2&#45;&gt;dir_4022f63979af12af4c32ec9a4562b2df</title>
<path fill="none" stroke="black" d="M272.62,-591.62C293.8,-566.19 329,-516.48 329,-467 329,-467 329,-467 329,-177 329,-122.91 277.33,-79.48 240.7,-55.49"/>
<polygon fill="black" stroke="black" points="242.53,-52.51 232.21,-50.1 238.78,-58.42 242.53,-52.51"/>
<g id="a_edge39&#45;headlabel"><a xlink:href="dir_000030_000028.html" target="_top" xlink:title="6">
<text text-anchor="middle" x="247.09" y="-49.54" font-family="Helvetica,sans-Serif" font-size="10.00">6</text>
</a>
</g>
</g>
<!-- dir_90a2ad6518b731f1dc196d14153b8b6b -->
<g id="node6" class="node">
<title>dir_90a2ad6518b731f1dc196d14153b8b6b</title>
<g id="a_node6"><a xlink:href="dir_90a2ad6518b731f1dc196d14153b8b6b.html" target="_top" xlink:title="base">
<polygon fill="white" stroke="red" points="144,-196 90,-196 90,-160 144,-160 144,-196"/>
<text text-anchor="middle" x="117" y="-175.5" font-family="Helvetica,sans-Serif" font-size="10.00">base</text>
</a>
</g>
</g>
<!-- dir_16ec7e00b3eaf1dbf09e67ec3cfcc7e2&#45;&gt;dir_90a2ad6518b731f1dc196d14153b8b6b -->
<g id="edge40" class="edge">
<title>dir_16ec7e00b3eaf1dbf09e67ec3cfcc7e2&#45;&gt;dir_90a2ad6518b731f1dc196d14153b8b6b</title>
<path fill="none" stroke="black" d="M224.38,-608.17C185.04,-605.38 119.42,-594.75 81,-556 -20.38,-453.73 24.27,-364.78 80,-232 84.06,-222.32 90.09,-212.64 96.11,-204.26"/>
<polygon fill="black" stroke="black" points="99.08,-206.13 102.3,-196.03 93.49,-201.92 99.08,-206.13"/>
<g id="a_edge40&#45;headlabel"><a xlink:href="dir_000030_000006.html" target="_top" xlink:title="90">
<text text-anchor="middle" x="99.19" y="-208.21" font-family="Helvetica,sans-Serif" font-size="10.00">90</text>
</a>
</g>
</g>
<!-- dir_a933ab6cde53f9fa4d29dc295cb0ac5f -->
<g id="node7" class="node">
<title>dir_a933ab6cde53f9fa4d29dc295cb0ac5f</title>
<g id="a_node7"><a xlink:href="dir_a933ab6cde53f9fa4d29dc295cb0ac5f.html" target="_top" xlink:title="grid">
<polygon fill="none" stroke="black" points="194,-412 140,-412 140,-376 194,-376 194,-412"/>
<text text-anchor="middle" x="167" y="-391.5" font-family="Helvetica,sans-Serif" font-size="10.00">grid</text>
</a>
</g>
</g>
<!-- dir_16ec7e00b3eaf1dbf09e67ec3cfcc7e2&#45;&gt;dir_a933ab6cde53f9fa4d29dc295cb0ac5f -->
<g id="edge42" class="edge">
<title>dir_16ec7e00b3eaf1dbf09e67ec3cfcc7e2&#45;&gt;dir_a933ab6cde53f9fa4d29dc295cb0ac5f</title>
<path fill="none" stroke="black" d="M253.7,-591.8C247.46,-561.52 232.24,-497.22 207,-448 202.03,-438.31 195.28,-428.55 188.74,-420.09"/>
<polygon fill="black" stroke="black" points="191.33,-417.73 182.34,-412.12 185.87,-422.11 191.33,-417.73"/>
<g id="a_edge42&#45;headlabel"><a xlink:href="dir_000030_000009.html" target="_top" xlink:title="7">
<text text-anchor="middle" x="195.79" y="-416.26" font-family="Helvetica,sans-Serif" font-size="10.00">7</text>
</a>
</g>
</g>
<!-- dir_b2430326e20a3ae038db3bac19f0573b -->
<g id="node8" class="node">
<title>dir_b2430326e20a3ae038db3bac19f0573b</title>
<g id="a_node8"><a xlink:href="dir_b2430326e20a3ae038db3bac19f0573b.html" target="_top" xlink:title="lac">
<polygon fill="none" stroke="black" points="210,-268 156,-268 156,-232 210,-232 210,-268"/>
<text text-anchor="middle" x="183" y="-247.5" font-family="Helvetica,sans-Serif" font-size="10.00">lac</text>
</a>
</g>
</g>
<!-- dir_16ec7e00b3eaf1dbf09e67ec3cfcc7e2&#45;&gt;dir_b2430326e20a3ae038db3bac19f0573b -->
<g id="edge43" class="edge">
<title>dir_16ec7e00b3eaf1dbf09e67ec3cfcc7e2&#45;&gt;dir_b2430326e20a3ae038db3bac19f0573b</title>
<path fill="none" stroke="black" d="M248.45,-591.86C244.13,-573.89 240.53,-544.85 236,-520 219.74,-430.8 193.65,-326.52 184.77,-278.17"/>
<polygon fill="black" stroke="black" points="188.2,-277.46 183.07,-268.19 181.3,-278.64 188.2,-277.46"/>
<g id="a_edge43&#45;headlabel"><a xlink:href="dir_000030_000007.html" target="_top" xlink:title="16">
<text text-anchor="middle" x="191.61" y="-278.02" font-family="Helvetica,sans-Serif" font-size="10.00">16</text>
</a>
</g>
</g>
<!-- dir_9706acb4d69a98d7c15ebe226493116f -->
<g id="node9" class="node">
<title>dir_9706acb4d69a98d7c15ebe226493116f</title>
<g id="a_node9"><a xlink:href="dir_9706acb4d69a98d7c15ebe226493116f.html" target="_top" xlink:title="fe">
<polygon fill="#eeeeff" stroke="black" points="310,-340 256,-340 256,-304 310,-304 310,-340"/>
<text text-anchor="middle" x="283" y="-319.5" font-family="Helvetica,sans-Serif" font-size="10.00">fe</text>
</a>
</g>
</g>
<!-- dir_16ec7e00b3eaf1dbf09e67ec3cfcc7e2&#45;&gt;dir_9706acb4d69a98d7c15ebe226493116f -->
<g id="edge41" class="edge">
<title>dir_16ec7e00b3eaf1dbf09e67ec3cfcc7e2&#45;&gt;dir_9706acb4d69a98d7c15ebe226493116f</title>
<path fill="none" stroke="black" d="M250.82,-591.82C250.62,-581.44 251.9,-567.96 253,-556 259.86,-481.62 267.7,-393.85 274.91,-350.33"/>
<polygon fill="black" stroke="black" points="278.4,-350.71 276.73,-340.25 271.51,-349.47 278.4,-350.71"/>
<g id="a_edge41&#45;headlabel"><a xlink:href="dir_000030_000008.html" target="_top" xlink:title="14">
<text text-anchor="middle" x="280.55" y="-352.25" font-family="Helvetica,sans-Serif" font-size="10.00">14</text>
</a>
</g>
</g>
<!-- dir_1a6d8571b8eba91bded1d6534762df79&#45;&gt;dir_273e60b3573ce9ad58a4d725e6a36523 -->
<g id="edge25" class="edge">
<title>dir_1a6d8571b8eba91bded1d6534762df79&#45;&gt;dir_273e60b3573ce9ad58a4d725e6a36523</title>
<path fill="none" stroke="black" d="M123.44,-519.7C128.52,-511.39 135.55,-501.28 142.54,-492.14"/>
<polygon fill="black" stroke="black" points="145.43,-494.12 148.89,-484.1 139.94,-489.78 145.43,-494.12"/>
<g id="a_edge25&#45;headlabel"><a xlink:href="dir_000027_000025.html" target="_top" xlink:title="1">
<text text-anchor="middle" x="145.43" y="-496.2" font-family="Helvetica,sans-Serif" font-size="10.00">1</text>
</a>
</g>
</g>
<!-- dir_1a6d8571b8eba91bded1d6534762df79&#45;&gt;dir_4022f63979af12af4c32ec9a4562b2df -->
<g id="edge26" class="edge">
<title>dir_1a6d8571b8eba91bded1d6534762df79&#45;&gt;dir_4022f63979af12af4c32ec9a4562b2df</title>
<path fill="none" stroke="black" d="M89.76,-523.36C75.97,-513.72 60.47,-499.75 51,-484 12.83,-420.53 8,-397.06 8,-323 8,-323 8,-323 8,-177 8,-99.63 110.63,-59.07 167.86,-43.17"/>
<polygon fill="black" stroke="black" points="168.88,-46.52 177.65,-40.56 167.08,-39.75 168.88,-46.52"/>
<g id="a_edge26&#45;headlabel"><a xlink:href="dir_000027_000028.html" target="_top" xlink:title="4">
<text text-anchor="middle" x="166.14" y="-47.68" font-family="Helvetica,sans-Serif" font-size="10.00">4</text>
</a>
</g>
</g>
<!-- dir_1a6d8571b8eba91bded1d6534762df79&#45;&gt;dir_90a2ad6518b731f1dc196d14153b8b6b -->
<g id="edge27" class="edge">
<title>dir_1a6d8571b8eba91bded1d6534762df79&#45;&gt;dir_90a2ad6518b731f1dc196d14153b8b6b</title>
<path fill="none" stroke="black" d="M103.14,-519.95C88.22,-493.72 68,-441.61 68,-395 68,-395 68,-395 68,-321 68,-279.3 84.18,-233.21 98.27,-205.18"/>
<polygon fill="black" stroke="black" points="101.52,-206.52 103.14,-196.05 95.34,-203.23 101.52,-206.52"/>
<g id="a_edge27&#45;headlabel"><a xlink:href="dir_000027_000006.html" target="_top" xlink:title="31">
<text text-anchor="middle" x="102.33" y="-208.53" font-family="Helvetica,sans-Serif" font-size="10.00">31</text>
</a>
</g>
</g>
<!-- dir_1a6d8571b8eba91bded1d6534762df79&#45;&gt;dir_a933ab6cde53f9fa4d29dc295cb0ac5f -->
<g id="edge29" class="edge">
<title>dir_1a6d8571b8eba91bded1d6534762df79&#45;&gt;dir_a933ab6cde53f9fa4d29dc295cb0ac5f</title>
<path fill="none" stroke="black" d="M109.66,-519.96C107.11,-501.55 108.56,-471.69 118,-448 122.01,-437.94 128.47,-428.12 135.48,-419.73"/>
<polygon fill="black" stroke="black" points="138.21,-421.92 142.31,-412.15 133.01,-417.23 138.21,-421.92"/>
<g id="a_edge29&#45;headlabel"><a xlink:href="dir_000027_000009.html" target="_top" xlink:title="1">
<text text-anchor="middle" x="137.91" y="-423.99" font-family="Helvetica,sans-Serif" font-size="10.00">1</text>
</a>
</g>
</g>
<!-- dir_1a6d8571b8eba91bded1d6534762df79&#45;&gt;dir_b2430326e20a3ae038db3bac19f0573b -->
<g id="edge30" class="edge">
<title>dir_1a6d8571b8eba91bded1d6534762df79&#45;&gt;dir_b2430326e20a3ae038db3bac19f0573b</title>
<path fill="none" stroke="black" d="M114.91,-519.88C113.07,-501.91 111.1,-472.88 114,-448 121.45,-384.06 151.78,-314.01 169.65,-277.11"/>
<polygon fill="black" stroke="black" points="172.84,-278.56 174.12,-268.04 166.56,-275.46 172.84,-278.56"/>
<g id="a_edge30&#45;headlabel"><a xlink:href="dir_000027_000007.html" target="_top" xlink:title="2">
<text text-anchor="middle" x="173.8" y="-280.53" font-family="Helvetica,sans-Serif" font-size="10.00">2</text>
</a>
</g>
</g>
<!-- dir_1a6d8571b8eba91bded1d6534762df79&#45;&gt;dir_9706acb4d69a98d7c15ebe226493116f -->
<g id="edge28" class="edge">
<title>dir_1a6d8571b8eba91bded1d6534762df79&#45;&gt;dir_9706acb4d69a98d7c15ebe226493116f</title>
<path fill="none" stroke="black" d="M144.22,-520.78C160.93,-511.58 181.92,-498.92 198,-484 226.56,-457.5 231.21,-447.15 248,-412 257.5,-392.12 264.27,-368.05 269.9,-349.96"/>
<polygon fill="black" stroke="black" points="273.26,-350.92 273,-340.33 266.6,-348.77 273.26,-350.92"/>
<g id="a_edge28&#45;headlabel"><a xlink:href="dir_000027_000008.html" target="_top" xlink:title="1">
<text text-anchor="middle" x="274.86" y="-352.71" font-family="Helvetica,sans-Serif" font-size="10.00">1</text>
</a>
</g>
</g>
<!-- dir_273e60b3573ce9ad58a4d725e6a36523&#45;&gt;dir_1a6d8571b8eba91bded1d6534762df79 -->
<g id="edge1" class="edge">
<title>dir_273e60b3573ce9ad58a4d725e6a36523&#45;&gt;dir_1a6d8571b8eba91bded1d6534762df79</title>
<path fill="none" stroke="black" d="M160.68,-484.1C155.63,-492.38 148.62,-502.49 141.63,-511.64"/>
<polygon fill="black" stroke="black" points="138.72,-509.68 135.28,-519.7 144.22,-514.01 138.72,-509.68"/>
<g id="a_edge1&#45;headlabel"><a xlink:href="dir_000025_000027.html" target="_top" xlink:title="2">
<text text-anchor="middle" x="138.72" y="-502.6" font-family="Helvetica,sans-Serif" font-size="10.00">2</text>
</a>
</g>
</g>
<!-- dir_5c2eb6d9a7a6f1e9cd32e0e8abf42ca6 -->
<g id="node5" class="node">
<title>dir_5c2eb6d9a7a6f1e9cd32e0e8abf42ca6</title>
<g id="a_node5"><a xlink:href="dir_5c2eb6d9a7a6f1e9cd32e0e8abf42ca6.html" target="_top" xlink:title="numerics">
<polygon fill="none" stroke="black" points="205,-124 149,-124 149,-88 205,-88 205,-124"/>
<text text-anchor="middle" x="177" y="-103.5" font-family="Helvetica,sans-Serif" font-size="10.00">numerics</text>
</a>
</g>
</g>
<!-- dir_273e60b3573ce9ad58a4d725e6a36523&#45;&gt;dir_5c2eb6d9a7a6f1e9cd32e0e8abf42ca6 -->
<g id="edge2" class="edge">
<title>dir_273e60b3573ce9ad58a4d725e6a36523&#45;&gt;dir_5c2eb6d9a7a6f1e9cd32e0e8abf42ca6</title>
<path fill="none" stroke="black" d="M182.03,-447.58C189.63,-437.78 198.22,-424.94 203,-412 230.82,-336.66 231.96,-311.26 219,-232 213.29,-197.05 199.14,-158.7 188.84,-133.82"/>
<polygon fill="black" stroke="black" points="191.95,-132.19 184.84,-124.34 185.51,-134.92 191.95,-132.19"/>
<g id="a_edge2&#45;headlabel"><a xlink:href="dir_000025_000026.html" target="_top" xlink:title="2">
<text text-anchor="middle" x="195.97" y="-131.89" font-family="Helvetica,sans-Serif" font-size="10.00">2</text>
</a>
</g>
</g>
<!-- dir_273e60b3573ce9ad58a4d725e6a36523&#45;&gt;dir_90a2ad6518b731f1dc196d14153b8b6b -->
<g id="edge3" class="edge">
<title>dir_273e60b3573ce9ad58a4d725e6a36523&#45;&gt;dir_90a2ad6518b731f1dc196d14153b8b6b</title>
<path fill="none" stroke="black" d="M143.78,-447.66C135.1,-437.88 126.51,-425.04 122,-412 97.46,-341.06 101.1,-250.8 108.4,-206.31"/>
<polygon fill="black" stroke="black" points="111.88,-206.75 110.27,-196.28 105,-205.47 111.88,-206.75"/>
<g id="a_edge3&#45;headlabel"><a xlink:href="dir_000025_000006.html" target="_top" xlink:title="26">
<text text-anchor="middle" x="114.01" y="-208.3" font-family="Helvetica,sans-Serif" font-size="10.00">26</text>
</a>
</g>
</g>
<!-- dir_273e60b3573ce9ad58a4d725e6a36523&#45;&gt;dir_a933ab6cde53f9fa4d29dc295cb0ac5f -->
<g id="edge4" class="edge">
<title>dir_273e60b3573ce9ad58a4d725e6a36523&#45;&gt;dir_a933ab6cde53f9fa4d29dc295cb0ac5f</title>
<path fill="none" stroke="black" d="M161.08,-447.7C160.29,-439.98 160.06,-430.71 160.4,-422.11"/>
<polygon fill="black" stroke="black" points="163.9,-422.32 161.1,-412.1 156.92,-421.84 163.9,-422.32"/>
<g id="a_edge4&#45;headlabel"><a xlink:href="dir_000025_000009.html" target="_top" xlink:title="4">
<text text-anchor="middle" x="166.48" y="-423.61" font-family="Helvetica,sans-Serif" font-size="10.00">4</text>
</a>
</g>
</g>
<!-- dir_4022f63979af12af4c32ec9a4562b2df&#45;&gt;dir_1a6d8571b8eba91bded1d6534762df79 -->
<g id="edge7" class="edge">
<title>dir_4022f63979af12af4c32ec9a4562b2df&#45;&gt;dir_1a6d8571b8eba91bded1d6534762df79</title>
<path fill="none" stroke="black" d="M177.69,-43.46C127.39,-59.57 26,-100.1 26,-177 26,-323 26,-323 26,-323 26,-397.06 30.83,-420.53 69,-484 75.46,-494.75 84.73,-504.67 93.49,-512.95"/>
<polygon fill="black" stroke="black" points="91.23,-515.63 100.98,-519.78 95.95,-510.46 91.23,-515.63"/>
<g id="a_edge7&#45;headlabel"><a xlink:href="dir_000028_000027.html" target="_top" xlink:title="2">
<text text-anchor="middle" x="86.67" y="-512.8" font-family="Helvetica,sans-Serif" font-size="10.00">2</text>
</a>
</g>
</g>
<!-- dir_4022f63979af12af4c32ec9a4562b2df&#45;&gt;dir_90a2ad6518b731f1dc196d14153b8b6b -->
<g id="edge8" class="edge">
<title>dir_4022f63979af12af4c32ec9a4562b2df&#45;&gt;dir_90a2ad6518b731f1dc196d14153b8b6b</title>
<path fill="none" stroke="black" d="M184.59,-52.22C172.56,-61.35 158.19,-73.66 149,-88 137.07,-106.62 131.32,-131.16 127.12,-149.76"/>
<polygon fill="black" stroke="black" points="123.67,-149.13 124.86,-159.66 130.5,-150.69 123.67,-149.13"/>
<g id="a_edge8&#45;headlabel"><a xlink:href="dir_000028_000006.html" target="_top" xlink:title="13">
<text text-anchor="middle" x="121.7" y="-142.5" font-family="Helvetica,sans-Serif" font-size="10.00">13</text>
</a>
</g>
</g>
<!-- dir_4022f63979af12af4c32ec9a4562b2df&#45;&gt;dir_a933ab6cde53f9fa4d29dc295cb0ac5f -->
<g id="edge10" class="edge">
<title>dir_4022f63979af12af4c32ec9a4562b2df&#45;&gt;dir_a933ab6cde53f9fa4d29dc295cb0ac5f</title>
<path fill="none" stroke="black" d="M213.7,-52.16C226.4,-91.02 243.87,-188.52 228,-268 220.82,-303.97 203.07,-342.54 188.26,-367.17"/>
<polygon fill="black" stroke="black" points="185.14,-365.57 182.76,-375.89 191.06,-369.3 185.14,-365.57"/>
<g id="a_edge10&#45;headlabel"><a xlink:href="dir_000028_000009.html" target="_top" xlink:title="2">
<text text-anchor="middle" x="184.65" y="-358.51" font-family="Helvetica,sans-Serif" font-size="10.00">2</text>
</a>
</g>
</g>
<!-- dir_4022f63979af12af4c32ec9a4562b2df&#45;&gt;dir_9706acb4d69a98d7c15ebe226493116f -->
<g id="edge9" class="edge">
<title>dir_4022f63979af12af4c32ec9a4562b2df&#45;&gt;dir_9706acb4d69a98d7c15ebe226493116f</title>
<path fill="none" stroke="black" d="M223.32,-52.28C230.35,-62.46 237.6,-75.71 243,-88 270.22,-149.88 280.96,-165.3 292,-232 295.38,-252.45 295.22,-275.91 293,-293.61"/>
<polygon fill="black" stroke="black" points="289.5,-293.37 291.37,-303.8 296.41,-294.48 289.5,-293.37"/>
<g id="a_edge9&#45;headlabel"><a xlink:href="dir_000028_000008.html" target="_top" xlink:title="7">
<text text-anchor="middle" x="287.26" y="-286.88" font-family="Helvetica,sans-Serif" font-size="10.00">7</text>
</a>
</g>
</g>
<!-- dir_5c2eb6d9a7a6f1e9cd32e0e8abf42ca6&#45;&gt;dir_1a6d8571b8eba91bded1d6534762df79 -->
<g id="edge31" class="edge">
<title>dir_5c2eb6d9a7a6f1e9cd32e0e8abf42ca6&#45;&gt;dir_1a6d8571b8eba91bded1d6534762df79</title>
<path fill="none" stroke="black" d="M149,-115.66C127.36,-123.77 98.27,-137.98 81,-160 55.72,-192.24 57,-208.03 57,-249 57,-395 57,-395 57,-395 57,-435.86 62.93,-446.88 80,-484 84.39,-493.53 90.5,-503.17 96.51,-511.57"/>
<polygon fill="black" stroke="black" points="93.86,-513.88 102.64,-519.82 99.48,-509.7 93.86,-513.88"/>
<g id="a_edge31&#45;headlabel"><a xlink:href="dir_000026_000027.html" target="_top" xlink:title="12">
<text text-anchor="middle" x="89.44" y="-510.19" font-family="Helvetica,sans-Serif" font-size="10.00">12</text>
</a>
</g>
</g>
<!-- dir_5c2eb6d9a7a6f1e9cd32e0e8abf42ca6&#45;&gt;dir_4022f63979af12af4c32ec9a4562b2df -->
<g id="edge32" class="edge">
<title>dir_5c2eb6d9a7a6f1e9cd32e0e8abf42ca6&#45;&gt;dir_4022f63979af12af4c32ec9a4562b2df</title>
<path fill="none" stroke="black" d="M183.92,-87.7C187.07,-79.81 190.88,-70.3 194.38,-61.55"/>
<polygon fill="black" stroke="black" points="197.69,-62.69 198.16,-52.1 191.19,-60.09 197.69,-62.69"/>
<g id="a_edge32&#45;headlabel"><a xlink:href="dir_000026_000028.html" target="_top" xlink:title="5">
<text text-anchor="middle" x="199" y="-64.58" font-family="Helvetica,sans-Serif" font-size="10.00">5</text>
</a>
</g>
</g>
<!-- dir_5c2eb6d9a7a6f1e9cd32e0e8abf42ca6&#45;&gt;dir_90a2ad6518b731f1dc196d14153b8b6b -->
<g id="edge33" class="edge">
<title>dir_5c2eb6d9a7a6f1e9cd32e0e8abf42ca6&#45;&gt;dir_90a2ad6518b731f1dc196d14153b8b6b</title>
<path fill="none" stroke="black" d="M168.23,-124.1C161.88,-132.55 153.21,-142.9 144.75,-152.2"/>
<polygon fill="black" stroke="black" points="142.01,-150 137.75,-159.7 147.13,-154.78 142.01,-150"/>
<g id="a_edge33&#45;headlabel"><a xlink:href="dir_000026_000006.html" target="_top" xlink:title="74">
<text text-anchor="middle" x="142.39" y="-142.93" font-family="Helvetica,sans-Serif" font-size="10.00">74</text>
</a>
</g>
</g>
<!-- dir_5c2eb6d9a7a6f1e9cd32e0e8abf42ca6&#45;&gt;dir_a933ab6cde53f9fa4d29dc295cb0ac5f -->
<g id="edge35" class="edge">
<title>dir_5c2eb6d9a7a6f1e9cd32e0e8abf42ca6&#45;&gt;dir_a933ab6cde53f9fa4d29dc295cb0ac5f</title>
<path fill="none" stroke="black" d="M177.73,-124.36C173.49,-153.52 158.46,-211.17 156,-232 154.12,-247.89 154.73,-252.05 156,-268 157.46,-286.42 165.64,-334.58 168.52,-365.46"/>
<polygon fill="black" stroke="black" points="165.04,-365.88 169.3,-375.59 172.02,-365.35 165.04,-365.88"/>
<g id="a_edge35&#45;headlabel"><a xlink:href="dir_000026_000009.html" target="_top" xlink:title="7">
<text text-anchor="middle" x="161.93" y="-360.02" font-family="Helvetica,sans-Serif" font-size="10.00">7</text>
</a>
</g>
</g>
<!-- dir_5c2eb6d9a7a6f1e9cd32e0e8abf42ca6&#45;&gt;dir_b2430326e20a3ae038db3bac19f0573b -->
<g id="edge36" class="edge">
<title>dir_5c2eb6d9a7a6f1e9cd32e0e8abf42ca6&#45;&gt;dir_b2430326e20a3ae038db3bac19f0573b</title>
<path fill="none" stroke="black" d="M177.73,-124.19C178.75,-148.42 180.63,-192.89 181.85,-221.68"/>
<polygon fill="black" stroke="black" points="178.36,-222.03 182.28,-231.87 185.35,-221.73 178.36,-222.03"/>
<g id="a_edge36&#45;headlabel"><a xlink:href="dir_000026_000007.html" target="_top" xlink:title="10">
<text text-anchor="middle" x="175.37" y="-216.06" font-family="Helvetica,sans-Serif" font-size="10.00">10</text>
</a>
</g>
</g>
<!-- dir_5c2eb6d9a7a6f1e9cd32e0e8abf42ca6&#45;&gt;dir_9706acb4d69a98d7c15ebe226493116f -->
<g id="edge34" class="edge">
<title>dir_5c2eb6d9a7a6f1e9cd32e0e8abf42ca6&#45;&gt;dir_9706acb4d69a98d7c15ebe226493116f</title>
<path fill="none" stroke="black" d="M202.08,-124.37C227.7,-146.78 265.46,-188.13 283,-232 290.87,-251.68 292.9,-275.66 291.73,-293.77"/>
<polygon fill="black" stroke="black" points="288.23,-293.63 290.65,-303.94 295.19,-294.37 288.23,-293.63"/>
<g id="a_edge34&#45;headlabel"><a xlink:href="dir_000026_000008.html" target="_top" xlink:title="15">
<text text-anchor="middle" x="285.78" y="-287.25" font-family="Helvetica,sans-Serif" font-size="10.00">15</text>
</a>
</g>
</g>
<!-- dir_90a2ad6518b731f1dc196d14153b8b6b&#45;&gt;dir_1a6d8571b8eba91bded1d6534762df79 -->
<g id="edge18" class="edge">
<title>dir_90a2ad6518b731f1dc196d14153b8b6b&#45;&gt;dir_1a6d8571b8eba91bded1d6534762df79</title>
<path fill="none" stroke="black" d="M114.67,-196.05C106.22,-222.28 86,-274.39 86,-321 86,-395 86,-395 86,-395 86,-436.52 102.04,-482.39 111.52,-510.46"/>
<polygon fill="black" stroke="black" points="108.2,-511.56 114.67,-519.95 114.84,-509.36 108.2,-511.56"/>
<g id="a_edge18&#45;headlabel"><a xlink:href="dir_000006_000027.html" target="_top" xlink:title="2">
<text text-anchor="middle" x="104.37" y="-506.55" font-family="Helvetica,sans-Serif" font-size="10.00">2</text>
</a>
</g>
</g>
<!-- dir_90a2ad6518b731f1dc196d14153b8b6b&#45;&gt;dir_273e60b3573ce9ad58a4d725e6a36523 -->
<g id="edge19" class="edge">
<title>dir_90a2ad6518b731f1dc196d14153b8b6b&#45;&gt;dir_273e60b3573ce9ad58a4d725e6a36523</title>
<path fill="none" stroke="black" d="M119.62,-196.28C119.9,-235.78 113.44,-335.21 140,-412 143.31,-421.57 148.82,-431.04 154.14,-439.27"/>
<polygon fill="black" stroke="black" points="151.27,-441.27 159.73,-447.66 157.1,-437.39 151.27,-441.27"/>
<g id="a_edge19&#45;headlabel"><a xlink:href="dir_000006_000025.html" target="_top" xlink:title="1">
<text text-anchor="middle" x="146.92" y="-437.36" font-family="Helvetica,sans-Serif" font-size="10.00">1</text>
</a>
</g>
</g>
<!-- dir_90a2ad6518b731f1dc196d14153b8b6b&#45;&gt;dir_4022f63979af12af4c32ec9a4562b2df -->
<g id="edge20" class="edge">
<title>dir_90a2ad6518b731f1dc196d14153b8b6b&#45;&gt;dir_4022f63979af12af4c32ec9a4562b2df</title>
<path fill="none" stroke="black" d="M111.68,-159.66C111.35,-140.74 116.79,-110.17 131,-88 140.43,-73.28 155.32,-60.71 169.39,-51.51"/>
<polygon fill="black" stroke="black" points="171.3,-54.44 178,-46.23 167.64,-48.47 171.3,-54.44"/>
<g id="a_edge20&#45;headlabel"><a xlink:href="dir_000006_000028.html" target="_top" xlink:title="1">
<text text-anchor="middle" x="169.73" y="-56.24" font-family="Helvetica,sans-Serif" font-size="10.00">1</text>
</a>
</g>
</g>
<!-- dir_90a2ad6518b731f1dc196d14153b8b6b&#45;&gt;dir_5c2eb6d9a7a6f1e9cd32e0e8abf42ca6 -->
<g id="edge21" class="edge">
<title>dir_90a2ad6518b731f1dc196d14153b8b6b&#45;&gt;dir_5c2eb6d9a7a6f1e9cd32e0e8abf42ca6</title>
<path fill="none" stroke="black" d="M125.92,-159.7C132.31,-151.22 141,-140.86 149.45,-131.58"/>
<polygon fill="black" stroke="black" points="152.17,-133.8 156.44,-124.1 147.06,-129.02 152.17,-133.8"/>
<g id="a_edge21&#45;headlabel"><a xlink:href="dir_000006_000026.html" target="_top" xlink:title="2">
<text text-anchor="middle" x="151.79" y="-135.86" font-family="Helvetica,sans-Serif" font-size="10.00">2</text>
</a>
</g>
</g>
<!-- dir_90a2ad6518b731f1dc196d14153b8b6b&#45;&gt;dir_a933ab6cde53f9fa4d29dc295cb0ac5f -->
<g id="edge23" class="edge">
<title>dir_90a2ad6518b731f1dc196d14153b8b6b&#45;&gt;dir_a933ab6cde53f9fa4d29dc295cb0ac5f</title>
<path fill="none" stroke="black" d="M126.07,-196.16C130.94,-214.16 135.49,-243.22 141,-268 148.21,-300.42 152.03,-308.02 161,-340 163.36,-348.42 165.95,-357.58 167.89,-365.88"/>
<polygon fill="black" stroke="black" points="164.49,-366.73 169.94,-375.82 171.35,-365.32 164.49,-366.73"/>
<g id="a_edge23&#45;headlabel"><a xlink:href="dir_000006_000009.html" target="_top" xlink:title="8">
<text text-anchor="middle" x="160.98" y="-361.29" font-family="Helvetica,sans-Serif" font-size="10.00">8</text>
</a>
</g>
</g>
<!-- dir_90a2ad6518b731f1dc196d14153b8b6b&#45;&gt;dir_b2430326e20a3ae038db3bac19f0573b -->
<g id="edge24" class="edge">
<title>dir_90a2ad6518b731f1dc196d14153b8b6b&#45;&gt;dir_b2430326e20a3ae038db3bac19f0573b</title>
<path fill="none" stroke="black" d="M139.02,-196.1C147.78,-204.47 157.63,-214.69 165.86,-223.92"/>
<polygon fill="black" stroke="black" points="163.4,-226.44 172.6,-231.7 168.69,-221.85 163.4,-226.44"/>
<g id="a_edge24&#45;headlabel"><a xlink:href="dir_000006_000007.html" target="_top" xlink:title="8">
<text text-anchor="middle" x="158.9" y="-223.08" font-family="Helvetica,sans-Serif" font-size="10.00">8</text>
</a>
</g>
</g>
<!-- dir_90a2ad6518b731f1dc196d14153b8b6b&#45;&gt;dir_9706acb4d69a98d7c15ebe226493116f -->
<g id="edge22" class="edge">
<title>dir_90a2ad6518b731f1dc196d14153b8b6b&#45;&gt;dir_9706acb4d69a98d7c15ebe226493116f</title>
<path fill="none" stroke="black" d="M144.1,-186.32C168.35,-194.86 203.25,-210.59 228,-232 248.56,-249.79 266.1,-275.44 276.03,-294.64"/>
<polygon fill="black" stroke="black" points="272.92,-296.24 280.39,-303.75 279.23,-293.22 272.92,-296.24"/>
<g id="a_edge22&#45;headlabel"><a xlink:href="dir_000006_000008.html" target="_top" xlink:title="4">
<text text-anchor="middle" x="268.8" y="-291.72" font-family="Helvetica,sans-Serif" font-size="10.00">4</text>
</a>
</g>
</g>
<!-- dir_a933ab6cde53f9fa4d29dc295cb0ac5f&#45;&gt;dir_1a6d8571b8eba91bded1d6534762df79 -->
<g id="edge11" class="edge">
<title>dir_a933ab6cde53f9fa4d29dc295cb0ac5f&#45;&gt;dir_1a6d8571b8eba91bded1d6534762df79</title>
<path fill="none" stroke="black" d="M158.26,-412.15C150.84,-421.87 141.29,-434.72 136,-448 128.15,-467.71 125.82,-491.69 124,-509.8"/>
<polygon fill="black" stroke="black" points="120.5,-509.64 122.92,-519.96 127.46,-510.38 120.5,-509.64"/>
<g id="a_edge11&#45;headlabel"><a xlink:href="dir_000009_000027.html" target="_top" xlink:title="2">
<text text-anchor="middle" x="118.06" y="-503.27" font-family="Helvetica,sans-Serif" font-size="10.00">2</text>
</a>
</g>
</g>
<!-- dir_a933ab6cde53f9fa4d29dc295cb0ac5f&#45;&gt;dir_273e60b3573ce9ad58a4d725e6a36523 -->
<g id="edge12" class="edge">
<title>dir_a933ab6cde53f9fa4d29dc295cb0ac5f&#45;&gt;dir_273e60b3573ce9ad58a4d725e6a36523</title>
<path fill="none" stroke="black" d="M172.9,-412.1C173.7,-419.79 173.94,-429.05 173.6,-437.67"/>
<polygon fill="black" stroke="black" points="170.11,-437.48 172.92,-447.7 177.09,-437.96 170.11,-437.48"/>
<g id="a_edge12&#45;headlabel"><a xlink:href="dir_000009_000025.html" target="_top" xlink:title="2">
<text text-anchor="middle" x="167.52" y="-431.2" font-family="Helvetica,sans-Serif" font-size="10.00">2</text>
</a>
</g>
</g>
<!-- dir_a933ab6cde53f9fa4d29dc295cb0ac5f&#45;&gt;dir_4022f63979af12af4c32ec9a4562b2df -->
<g id="edge13" class="edge">
<title>dir_a933ab6cde53f9fa4d29dc295cb0ac5f&#45;&gt;dir_4022f63979af12af4c32ec9a4562b2df</title>
<path fill="none" stroke="black" d="M170.61,-375.89C180.36,-352.44 201.9,-308.57 210,-268 224.63,-194.73 210.93,-106.14 205.47,-62.3"/>
<polygon fill="black" stroke="black" points="208.92,-61.69 204.29,-52.16 201.97,-62.5 208.92,-61.69"/>
<g id="a_edge13&#45;headlabel"><a xlink:href="dir_000009_000028.html" target="_top" xlink:title="1">
<text text-anchor="middle" x="212.16" y="-62.43" font-family="Helvetica,sans-Serif" font-size="10.00">1</text>
</a>
</g>
</g>
<!-- dir_a933ab6cde53f9fa4d29dc295cb0ac5f&#45;&gt;dir_5c2eb6d9a7a6f1e9cd32e0e8abf42ca6 -->
<g id="edge14" class="edge">
<title>dir_a933ab6cde53f9fa4d29dc295cb0ac5f&#45;&gt;dir_5c2eb6d9a7a6f1e9cd32e0e8abf42ca6</title>
<path fill="none" stroke="black" d="M158.43,-375.59C149.66,-346.35 139.64,-288.59 138,-268 136.73,-252.05 136.12,-247.89 138,-232 140.21,-213.28 152.57,-164.85 163.3,-134.06"/>
<polygon fill="black" stroke="black" points="166.7,-134.96 166.86,-124.36 160.13,-132.54 166.7,-134.96"/>
<g id="a_edge14&#45;headlabel"><a xlink:href="dir_000009_000026.html" target="_top" xlink:title="3">
<text text-anchor="middle" x="168.12" y="-136.81" font-family="Helvetica,sans-Serif" font-size="10.00">3</text>
</a>
</g>
</g>
<!-- dir_a933ab6cde53f9fa4d29dc295cb0ac5f&#45;&gt;dir_90a2ad6518b731f1dc196d14153b8b6b -->
<g id="edge15" class="edge">
<title>dir_a933ab6cde53f9fa4d29dc295cb0ac5f&#45;&gt;dir_90a2ad6518b731f1dc196d14153b8b6b</title>
<path fill="none" stroke="black" d="M154.29,-375.82C150.17,-365.45 146.36,-351.97 143,-340 134.03,-308.02 130.21,-300.42 123,-268 118.43,-247.48 114.53,-224.03 113.15,-206.35"/>
<polygon fill="black" stroke="black" points="116.64,-205.97 112.63,-196.16 109.65,-206.33 116.64,-205.97"/>
<g id="a_edge15&#45;headlabel"><a xlink:href="dir_000009_000006.html" target="_top" xlink:title="89">
<text text-anchor="middle" x="119.66" y="-206.92" font-family="Helvetica,sans-Serif" font-size="10.00">89</text>
</a>
</g>
</g>
<!-- dir_a933ab6cde53f9fa4d29dc295cb0ac5f&#45;&gt;dir_b2430326e20a3ae038db3bac19f0573b -->
<g id="edge17" class="edge">
<title>dir_a933ab6cde53f9fa4d29dc295cb0ac5f&#45;&gt;dir_b2430326e20a3ae038db3bac19f0573b</title>
<path fill="none" stroke="black" d="M168.93,-375.87C171.66,-351.67 176.67,-307.21 179.91,-278.39"/>
<polygon fill="black" stroke="black" points="183.42,-278.52 181.06,-268.19 176.47,-277.73 183.42,-278.52"/>
<g id="a_edge17&#45;headlabel"><a xlink:href="dir_000009_000007.html" target="_top" xlink:title="1">
<text text-anchor="middle" x="185.84" y="-279.91" font-family="Helvetica,sans-Serif" font-size="10.00">1</text>
</a>
</g>
</g>
<!-- dir_a933ab6cde53f9fa4d29dc295cb0ac5f&#45;&gt;dir_9706acb4d69a98d7c15ebe226493116f -->
<g id="edge16" class="edge">
<title>dir_a933ab6cde53f9fa4d29dc295cb0ac5f&#45;&gt;dir_9706acb4d69a98d7c15ebe226493116f</title>
<path fill="none" stroke="black" d="M189.48,-375.88C205.79,-365.37 228.03,-351.93 246.79,-341.23"/>
<polygon fill="black" stroke="black" points="248.68,-344.18 255.67,-336.22 245.24,-338.08 248.68,-344.18"/>
<g id="a_edge16&#45;headlabel"><a xlink:href="dir_000009_000008.html" target="_top" xlink:title="3">
<text text-anchor="middle" x="246.94" y="-345.92" font-family="Helvetica,sans-Serif" font-size="10.00">3</text>
</a>
</g>
</g>
<!-- dir_b2430326e20a3ae038db3bac19f0573b&#45;&gt;dir_16ec7e00b3eaf1dbf09e67ec3cfcc7e2 -->
<g id="edge5" class="edge">
<title>dir_b2430326e20a3ae038db3bac19f0573b&#45;&gt;dir_16ec7e00b3eaf1dbf09e67ec3cfcc7e2</title>
<path fill="none" stroke="black" d="M192.03,-268.19C207.65,-310.66 236.51,-424.05 254,-520 257.75,-540.58 260.87,-564.03 261.69,-581.69"/>
<polygon fill="black" stroke="black" points="258.19,-581.93 261.89,-591.86 265.19,-581.8 258.19,-581.93"/>
<g id="a_edge5&#45;headlabel"><a xlink:href="dir_000007_000030.html" target="_top" xlink:title="1">
<text text-anchor="middle" x="255.28" y="-575.9" font-family="Helvetica,sans-Serif" font-size="10.00">1</text>
</a>
</g>
</g>
<!-- dir_b2430326e20a3ae038db3bac19f0573b&#45;&gt;dir_90a2ad6518b731f1dc196d14153b8b6b -->
<g id="edge6" class="edge">
<title>dir_b2430326e20a3ae038db3bac19f0573b&#45;&gt;dir_90a2ad6518b731f1dc196d14153b8b6b</title>
<path fill="none" stroke="black" d="M160.77,-231.7C151.99,-223.3 142.15,-213.07 133.95,-203.86"/>
<polygon fill="black" stroke="black" points="136.42,-201.37 127.23,-196.1 131.13,-205.96 136.42,-201.37"/>
<g id="a_edge6&#45;headlabel"><a xlink:href="dir_000007_000006.html" target="_top" xlink:title="312">
<text text-anchor="middle" x="140.92" y="-199.73" font-family="Helvetica,sans-Serif" font-size="10.00">312</text>
</a>
</g>
</g>
<!-- dir_9706acb4d69a98d7c15ebe226493116f&#45;&gt;dir_16ec7e00b3eaf1dbf09e67ec3cfcc7e2 -->
<g id="edge44" class="edge">
<title>dir_9706acb4d69a98d7c15ebe226493116f&#45;&gt;dir_16ec7e00b3eaf1dbf09e67ec3cfcc7e2</title>
<path fill="none" stroke="black" d="M286.21,-340.25C287.04,-378.88 278.44,-475.31 271,-556 270.22,-564.41 269.36,-573.57 268.17,-581.88"/>
<polygon fill="black" stroke="black" points="264.71,-581.37 266.46,-591.82 271.61,-582.55 264.71,-581.37"/>
<g id="a_edge44&#45;headlabel"><a xlink:href="dir_000008_000030.html" target="_top" xlink:title="9">
<text text-anchor="middle" x="262.52" y="-574.84" font-family="Helvetica,sans-Serif" font-size="10.00">9</text>
</a>
</g>
</g>
<!-- dir_9706acb4d69a98d7c15ebe226493116f&#45;&gt;dir_1a6d8571b8eba91bded1d6534762df79 -->
<g id="edge45" class="edge">
<title>dir_9706acb4d69a98d7c15ebe226493116f&#45;&gt;dir_1a6d8571b8eba91bded1d6534762df79</title>
<path fill="none" stroke="black" d="M286.35,-340.33C284.76,-358.72 277.31,-388.32 266,-412 249.21,-447.15 244.56,-457.5 216,-484 197.87,-500.82 173.51,-514.76 153.34,-524.12"/>
<polygon fill="black" stroke="black" points="151.84,-520.96 144.12,-528.21 154.68,-527.36 151.84,-520.96"/>
<g id="a_edge45&#45;headlabel"><a xlink:href="dir_000008_000027.html" target="_top" xlink:title="6">
<text text-anchor="middle" x="153.98" y="-514.4" font-family="Helvetica,sans-Serif" font-size="10.00">6</text>
</a>
</g>
</g>
<!-- dir_9706acb4d69a98d7c15ebe226493116f&#45;&gt;dir_273e60b3573ce9ad58a4d725e6a36523 -->
<g id="edge46" class="edge">
<title>dir_9706acb4d69a98d7c15ebe226493116f&#45;&gt;dir_273e60b3573ce9ad58a4d725e6a36523</title>
<path fill="none" stroke="black" d="M278.06,-340.21C271.93,-359.31 260.06,-390.29 242,-412 232.14,-423.85 219.03,-434.31 206.53,-442.74"/>
<polygon fill="black" stroke="black" points="204.52,-439.87 198.03,-448.24 208.32,-445.75 204.52,-439.87"/>
<g id="a_edge46&#45;headlabel"><a xlink:href="dir_000008_000025.html" target="_top" xlink:title="1">
<text text-anchor="middle" x="206" y="-433.04" font-family="Helvetica,sans-Serif" font-size="10.00">1</text>
</a>
</g>
</g>
<!-- dir_9706acb4d69a98d7c15ebe226493116f&#45;&gt;dir_4022f63979af12af4c32ec9a4562b2df -->
<g id="edge47" class="edge">
<title>dir_9706acb4d69a98d7c15ebe226493116f&#45;&gt;dir_4022f63979af12af4c32ec9a4562b2df</title>
<path fill="none" stroke="black" d="M277.93,-303.8C277,-285.78 278.09,-256.7 274,-232 262.96,-165.3 252.22,-149.88 225,-88 221.12,-79.17 216.28,-69.84 212.09,-61.51"/>
<polygon fill="black" stroke="black" points="215.11,-59.72 207.57,-52.28 208.83,-62.8 215.11,-59.72"/>
<g id="a_edge47&#45;headlabel"><a xlink:href="dir_000008_000028.html" target="_top" xlink:title="7">
<text text-anchor="middle" x="219.24" y="-59.2" font-family="Helvetica,sans-Serif" font-size="10.00">7</text>
</a>
</g>
</g>
<!-- dir_9706acb4d69a98d7c15ebe226493116f&#45;&gt;dir_5c2eb6d9a7a6f1e9cd32e0e8abf42ca6 -->
<g id="edge48" class="edge">
<title>dir_9706acb4d69a98d7c15ebe226493116f&#45;&gt;dir_5c2eb6d9a7a6f1e9cd32e0e8abf42ca6</title>
<path fill="none" stroke="black" d="M277.38,-303.94C275.49,-285.52 274.46,-255.65 265,-232 249.31,-192.76 217.44,-155.53 196.46,-132.08"/>
<polygon fill="black" stroke="black" points="198.83,-129.47 189.54,-124.37 193.62,-134.15 198.83,-129.47"/>
<g id="a_edge48&#45;headlabel"><a xlink:href="dir_000008_000026.html" target="_top" xlink:title="1">
<text text-anchor="middle" x="203.34" y="-127.75" font-family="Helvetica,sans-Serif" font-size="10.00">1</text>
</a>
</g>
</g>
<!-- dir_9706acb4d69a98d7c15ebe226493116f&#45;&gt;dir_90a2ad6518b731f1dc196d14153b8b6b -->
<g id="edge49" class="edge">
<title>dir_9706acb4d69a98d7c15ebe226493116f&#45;&gt;dir_90a2ad6518b731f1dc196d14153b8b6b</title>
<path fill="none" stroke="black" d="M267.39,-303.75C253.95,-284.33 234.03,-252.8 210,-232 193.17,-217.43 171.63,-205.5 153.44,-196.67"/>
<polygon fill="black" stroke="black" points="154.81,-193.44 144.27,-192.33 151.82,-199.77 154.81,-193.44"/>
<g id="a_edge49&#45;headlabel"><a xlink:href="dir_000008_000006.html" target="_top" xlink:title="191">
<text text-anchor="middle" x="159.27" y="-189.91" font-family="Helvetica,sans-Serif" font-size="10.00">191</text>
</a>
</g>
</g>
<!-- dir_9706acb4d69a98d7c15ebe226493116f&#45;&gt;dir_a933ab6cde53f9fa4d29dc295cb0ac5f -->
<g id="edge50" class="edge">
<title>dir_9706acb4d69a98d7c15ebe226493116f&#45;&gt;dir_a933ab6cde53f9fa4d29dc295cb0ac5f</title>
<path fill="none" stroke="black" d="M260.59,-340.08C244.25,-350.61 221.94,-364.09 203.14,-374.82"/>
<polygon fill="black" stroke="black" points="201.22,-371.88 194.23,-379.83 204.66,-377.97 201.22,-371.88"/>
<g id="a_edge50&#45;headlabel"><a xlink:href="dir_000008_000009.html" target="_top" xlink:title="9">
<text text-anchor="middle" x="202.96" y="-365.14" font-family="Helvetica,sans-Serif" font-size="10.00">9</text>
</a>
</g>
</g>
<!-- dir_9706acb4d69a98d7c15ebe226493116f&#45;&gt;dir_b2430326e20a3ae038db3bac19f0573b -->
<g id="edge51" class="edge">
<title>dir_9706acb4d69a98d7c15ebe226493116f&#45;&gt;dir_b2430326e20a3ae038db3bac19f0573b</title>
<path fill="none" stroke="black" d="M258.54,-303.88C245.7,-294.89 229.8,-283.76 215.91,-274.03"/>
<polygon fill="black" stroke="black" points="217.76,-271.06 207.56,-268.19 213.74,-276.79 217.76,-271.06"/>
<g id="a_edge51&#45;headlabel"><a xlink:href="dir_000008_000007.html" target="_top" xlink:title="7">
<text text-anchor="middle" x="222.33" y="-268.29" font-family="Helvetica,sans-Serif" font-size="10.00">7</text>
</a>
</g>
</g>
<!-- dir_e68e8157741866f444e17edd764ebbae -->
<g id="node10" class="node">
<title>dir_e68e8157741866f444e17edd764ebbae</title>
<g id="a_node10"><a xlink:href="dir_e68e8157741866f444e17edd764ebbae.html" target="_top" xlink:title="doc">
<polygon fill="white" stroke="red" points="402,-268 348,-268 348,-232 402,-232 402,-268"/>
<text text-anchor="middle" x="375" y="-247.5" font-family="Helvetica,sans-Serif" font-size="10.00">doc</text>
</a>
</g>
</g>
<!-- dir_9706acb4d69a98d7c15ebe226493116f&#45;&gt;dir_e68e8157741866f444e17edd764ebbae -->
<g id="edge52" class="edge">
<title>dir_9706acb4d69a98d7c15ebe226493116f&#45;&gt;dir_e68e8157741866f444e17edd764ebbae</title>
<path fill="none" stroke="black" d="M305.74,-303.7C317.44,-294.8 331.86,-283.82 344.51,-274.2"/>
<polygon fill="black" stroke="black" points="346.68,-276.94 352.52,-268.1 342.44,-271.37 346.68,-276.94"/>
<g id="a_edge52&#45;headlabel"><a xlink:href="dir_000008_000000.html" target="_top" xlink:title="1">
<text text-anchor="middle" x="345.54" y="-278.88" font-family="Helvetica,sans-Serif" font-size="10.00">1</text>
</a>
</g>
</g>
</g>
</svg>
