<?xml version="1.0" encoding="UTF-8" standalone="no"?>
<!DOCTYPE svg PUBLIC "-//W3C//DTD SVG 1.1//EN"
 "http://www.w3.org/Graphics/SVG/1.1/DTD/svg11.dtd">
<!-- Generated by graphviz version 2.47.1 (20210417.1919)
 -->
<!-- Title: source/differentiation Pages: 1 -->
<svg width="276pt" height="159pt"
 viewBox="0.00 0.00 276.00 159.00" xmlns="http://www.w3.org/2000/svg" xmlns:xlink="http://www.w3.org/1999/xlink">
<g id="graph0" class="graph" transform="scale(1 1) rotate(0) translate(4 155)">
<title>source/differentiation</title>
<polygon fill="white" stroke="transparent" points="-4,4 -4,-155 272,-155 272,4 -4,4"/>
<g id="clust1" class="cluster">
<title>clusterdir_b2f33c71d4aa5e7af42a1ca61ff5af1b</title>
<g id="a_clust1"><a xlink:href="dir_b2f33c71d4aa5e7af42a1ca61ff5af1b.html" target="_top" xlink:title="source">
<polygon fill="#ddddee" stroke="black" points="8,-56 8,-143 260,-143 260,-56 8,-56"/>
<text text-anchor="middle" x="134" y="-131" font-family="Helvetica,sans-Serif" font-size="10.00">source</text>
</a>
</g>
</g>
<g id="clust2" class="cluster">
<title>clusterdir_7619c04fbd8f49fec3baf3cd125d542b</title>
<g id="a_clust2"><a xlink:href="dir_7619c04fbd8f49fec3baf3cd125d542b.html" target="_top">
<polygon fill="#eeeeff" stroke="black" points="16,-64 16,-116 252,-116 252,-64 16,-64"/>
</a>
</g>
</g>
<!-- dir_7619c04fbd8f49fec3baf3cd125d542b -->
<g id="node1" class="node">
<title>dir_7619c04fbd8f49fec3baf3cd125d542b</title>
<text text-anchor="middle" x="206" y="-87.5" font-family="Helvetica,sans-Serif" font-size="10.00">differentiation</text>
</g>
<!-- dir_d938ba88bd90342f0aa4ea1da08d0836 -->
<g id="node2" class="node">
<title>dir_d938ba88bd90342f0aa4ea1da08d0836</title>
<g id="a_node2"><a xlink:href="dir_d938ba88bd90342f0aa4ea1da08d0836.html" target="_top" xlink:title="ad">
<polygon fill="white" stroke="black" points="150,-108 96,-108 96,-72 150,-72 150,-108"/>
<text text-anchor="middle" x="123" y="-87.5" font-family="Helvetica,sans-Serif" font-size="10.00">ad</text>
</a>
</g>
</g>
<!-- dir_d44c64559bbebec7f509842c48db8b23 -->
<g id="node4" class="node">
<title>dir_d44c64559bbebec7f509842c48db8b23</title>
<g id="a_node4"><a xlink:href="dir_d44c64559bbebec7f509842c48db8b23.html" target="_top" xlink:title="include">
<polygon fill="white" stroke="red" points="114,-36 60,-36 60,0 114,0 114,-36"/>
<text text-anchor="middle" x="87" y="-15.5" font-family="Helvetica,sans-Serif" font-size="10.00">include</text>
</a>
</g>
</g>
<!-- dir_d938ba88bd90342f0aa4ea1da08d0836&#45;&gt;dir_d44c64559bbebec7f509842c48db8b23 -->
<g id="edge1" class="edge">
<title>dir_d938ba88bd90342f0aa4ea1da08d0836&#45;&gt;dir_d44c64559bbebec7f509842c48db8b23</title>
<path fill="none" stroke="black" d="M114.1,-71.7C110,-63.73 105.05,-54.1 100.51,-45.26"/>
<polygon fill="black" stroke="black" points="103.48,-43.4 95.8,-36.1 97.26,-46.6 103.48,-43.4"/>
<g id="a_edge1&#45;headlabel"><a xlink:href="dir_000048_000004.html" target="_top" xlink:title="19">
<text text-anchor="middle" x="107.65" y="-42.79" font-family="Helvetica,sans-Serif" font-size="10.00">19</text>
</a>
</g>
</g>
<!-- dir_388e1c3cc548f701eb62ade32da8fbcb -->
<g id="node3" class="node">
<title>dir_388e1c3cc548f701eb62ade32da8fbcb</title>
<g id="a_node3"><a xlink:href="dir_388e1c3cc548f701eb62ade32da8fbcb.html" target="_top" xlink:title="sd">
<polygon fill="white" stroke="black" points="78,-108 24,-108 24,-72 78,-72 78,-108"/>
<text text-anchor="middle" x="51" y="-87.5" font-family="Helvetica,sans-Serif" font-size="10.00">sd</text>
</a>
</g>
</g>
<!-- dir_388e1c3cc548f701eb62ade32da8fbcb&#45;&gt;dir_d44c64559bbebec7f509842c48db8b23 -->
<g id="edge2" class="edge">
<title>dir_388e1c3cc548f701eb62ade32da8fbcb&#45;&gt;dir_d44c64559bbebec7f509842c48db8b23</title>
<path fill="none" stroke="black" d="M59.9,-71.7C64,-63.73 68.95,-54.1 73.49,-45.26"/>
<polygon fill="black" stroke="black" points="76.74,-46.6 78.2,-36.1 70.52,-43.4 76.74,-46.6"/>
<g id="a_edge2&#45;headlabel"><a xlink:href="dir_000049_000004.html" target="_top" xlink:title="32">
<text text-anchor="middle" x="77.62" y="-48.59" font-family="Helvetica,sans-Serif" font-size="10.00">32</text>
</a>
</g>
</g>
</g>
</svg>
