<?xml version="1.0" encoding="UTF-8" standalone="no"?>
<!DOCTYPE svg PUBLIC "-//W3C//DTD SVG 1.1//EN"
 "http://www.w3.org/Graphics/SVG/1.1/DTD/svg11.dtd">
<!-- Generated by graphviz version 2.47.1 (20210417.1919)
 -->
<!-- Title: include/deal.II/physics Pages: 1 -->
<svg width="184pt" height="247pt"
 viewBox="0.00 0.00 184.00 247.00" xmlns="http://www.w3.org/2000/svg" xmlns:xlink="http://www.w3.org/1999/xlink">
<g id="graph0" class="graph" transform="scale(1 1) rotate(0) translate(4 243)">
<title>include/deal.II/physics</title>
<polygon fill="white" stroke="transparent" points="-4,4 -4,-243 180,-243 180,4 -4,4"/>
<g id="clust1" class="cluster">
<title>clusterdir_ee90d91a514b839c31faec7a1d916f67</title>
<g id="a_clust1"><a xlink:href="dir_ee90d91a514b839c31faec7a1d916f67.html" target="_top" xlink:title="deal.II">
<polygon fill="#ddddee" stroke="black" points="8,-8 8,-231 168,-231 168,-8 8,-8"/>
<text text-anchor="middle" x="88" y="-219" font-family="Helvetica,sans-Serif" font-size="10.00">deal.II</text>
</a>
</g>
</g>
<g id="clust2" class="cluster">
<title>clusterdir_e38e4ce69cb2c59811012a5eb3791bbf</title>
<g id="a_clust2"><a xlink:href="dir_e38e4ce69cb2c59811012a5eb3791bbf.html" target="_top">
<polygon fill="#eeeeff" stroke="black" points="16,-152 16,-204 160,-204 160,-152 16,-152"/>
</a>
</g>
</g>
<!-- dir_90a2ad6518b731f1dc196d14153b8b6b -->
<g id="node1" class="node">
<title>dir_90a2ad6518b731f1dc196d14153b8b6b</title>
<g id="a_node1"><a xlink:href="dir_90a2ad6518b731f1dc196d14153b8b6b.html" target="_top" xlink:title="base">
<polygon fill="white" stroke="red" points="144,-124 90,-124 90,-88 144,-88 144,-124"/>
<text text-anchor="middle" x="117" y="-103.5" font-family="Helvetica,sans-Serif" font-size="10.00">base</text>
</a>
</g>
</g>
<!-- dir_b2430326e20a3ae038db3bac19f0573b -->
<g id="node2" class="node">
<title>dir_b2430326e20a3ae038db3bac19f0573b</title>
<g id="a_node2"><a xlink:href="dir_b2430326e20a3ae038db3bac19f0573b.html" target="_top" xlink:title="lac">
<polygon fill="none" stroke="black" points="144,-52 90,-52 90,-16 144,-16 144,-52"/>
<text text-anchor="middle" x="117" y="-31.5" font-family="Helvetica,sans-Serif" font-size="10.00">lac</text>
</a>
</g>
</g>
<!-- dir_90a2ad6518b731f1dc196d14153b8b6b&#45;&gt;dir_b2430326e20a3ae038db3bac19f0573b -->
<g id="edge2" class="edge">
<title>dir_90a2ad6518b731f1dc196d14153b8b6b&#45;&gt;dir_b2430326e20a3ae038db3bac19f0573b</title>
<path fill="none" stroke="black" d="M111.08,-87.7C110.29,-79.98 110.06,-70.71 110.4,-62.11"/>
<polygon fill="black" stroke="black" points="113.9,-62.32 111.1,-52.1 106.92,-61.84 113.9,-62.32"/>
<g id="a_edge2&#45;headlabel"><a xlink:href="dir_000006_000007.html" target="_top" xlink:title="8">
<text text-anchor="middle" x="116.48" y="-63.61" font-family="Helvetica,sans-Serif" font-size="10.00">8</text>
</a>
</g>
</g>
<!-- dir_b2430326e20a3ae038db3bac19f0573b&#45;&gt;dir_90a2ad6518b731f1dc196d14153b8b6b -->
<g id="edge1" class="edge">
<title>dir_b2430326e20a3ae038db3bac19f0573b&#45;&gt;dir_90a2ad6518b731f1dc196d14153b8b6b</title>
<path fill="none" stroke="black" d="M122.9,-52.1C123.7,-59.79 123.94,-69.05 123.6,-77.67"/>
<polygon fill="black" stroke="black" points="120.11,-77.48 122.92,-87.7 127.09,-77.96 120.11,-77.48"/>
<g id="a_edge1&#45;headlabel"><a xlink:href="dir_000007_000006.html" target="_top" xlink:title="312">
<text text-anchor="middle" x="117.52" y="-71.2" font-family="Helvetica,sans-Serif" font-size="10.00">312</text>
</a>
</g>
</g>
<!-- dir_e38e4ce69cb2c59811012a5eb3791bbf -->
<g id="node3" class="node">
<title>dir_e38e4ce69cb2c59811012a5eb3791bbf</title>
<text text-anchor="middle" x="51" y="-175.5" font-family="Helvetica,sans-Serif" font-size="10.00">physics</text>
</g>
<!-- dir_e38e4ce69cb2c59811012a5eb3791bbf&#45;&gt;dir_b2430326e20a3ae038db3bac19f0573b -->
<g id="edge3" class="edge">
<title>dir_e38e4ce69cb2c59811012a5eb3791bbf&#45;&gt;dir_b2430326e20a3ae038db3bac19f0573b</title>
<path fill="none" stroke="black" d="M55.32,-159.72C60.25,-141.38 69.18,-111.8 81,-88 85.63,-78.68 91.68,-69.1 97.49,-60.69"/>
<polygon fill="black" stroke="black" points="100.44,-62.58 103.4,-52.41 94.74,-58.52 100.44,-62.58"/>
<g id="a_edge3&#45;headlabel"><a xlink:href="dir_000036_000007.html" target="_top" xlink:title="2">
<text text-anchor="middle" x="100.67" y="-64.66" font-family="Helvetica,sans-Serif" font-size="10.00">2</text>
</a>
</g>
</g>
<!-- dir_961dc5d325c08665ca5a85ba1aa40833 -->
<g id="node4" class="node">
<title>dir_961dc5d325c08665ca5a85ba1aa40833</title>
<g id="a_node4"><a xlink:href="dir_961dc5d325c08665ca5a85ba1aa40833.html" target="_top" xlink:title="elasticity">
<polygon fill="white" stroke="black" points="152,-196 96,-196 96,-160 152,-160 152,-196"/>
<text text-anchor="middle" x="124" y="-175.5" font-family="Helvetica,sans-Serif" font-size="10.00">elasticity</text>
</a>
</g>
</g>
<!-- dir_961dc5d325c08665ca5a85ba1aa40833&#45;&gt;dir_90a2ad6518b731f1dc196d14153b8b6b -->
<g id="edge4" class="edge">
<title>dir_961dc5d325c08665ca5a85ba1aa40833&#45;&gt;dir_90a2ad6518b731f1dc196d14153b8b6b</title>
<path fill="none" stroke="black" d="M122.27,-159.7C121.5,-151.98 120.57,-142.71 119.71,-134.11"/>
<polygon fill="black" stroke="black" points="123.19,-133.71 118.71,-124.1 116.22,-134.4 123.19,-133.71"/>
<g id="a_edge4&#45;headlabel"><a xlink:href="dir_000037_000006.html" target="_top" xlink:title="8">
<text text-anchor="middle" x="126.37" y="-134.5" font-family="Helvetica,sans-Serif" font-size="10.00">8</text>
</a>
</g>
</g>
</g>
</svg>
