<?xml version="1.0" encoding="UTF-8" standalone="no"?>
<!DOCTYPE svg PUBLIC "-//W3C//DTD SVG 1.1//EN"
 "http://www.w3.org/Graphics/SVG/1.1/DTD/svg11.dtd">
<!-- Generated by graphviz version 2.47.1 (20210417.1919)
 -->
<!-- Title: include/deal.II/numerics Pages: 1 -->
<svg width="364pt" height="671pt"
 viewBox="0.00 0.00 364.00 671.00" xmlns="http://www.w3.org/2000/svg" xmlns:xlink="http://www.w3.org/1999/xlink">
<g id="graph0" class="graph" transform="scale(1 1) rotate(0) translate(4 667)">
<title>include/deal.II/numerics</title>
<polygon fill="white" stroke="transparent" points="-4,4 -4,-667 360,-667 360,4 -4,4"/>
<g id="clust1" class="cluster">
<title>clusterdir_ee90d91a514b839c31faec7a1d916f67</title>
<g id="a_clust1"><a xlink:href="dir_ee90d91a514b839c31faec7a1d916f67.html" target="_top" xlink:title="deal.II">
<polygon fill="#ddddee" stroke="black" points="8,-8 8,-655 348,-655 348,-8 8,-8"/>
<text text-anchor="middle" x="178" y="-643" font-family="Helvetica,sans-Serif" font-size="10.00">deal.II</text>
</a>
</g>
</g>
<!-- dir_1a6d8571b8eba91bded1d6534762df79 -->
<g id="node1" class="node">
<title>dir_1a6d8571b8eba91bded1d6534762df79</title>
<g id="a_node1"><a xlink:href="dir_1a6d8571b8eba91bded1d6534762df79.html" target="_top" xlink:title="dofs">
<polygon fill="none" stroke="black" points="150,-628 96,-628 96,-592 150,-592 150,-628"/>
<text text-anchor="middle" x="123" y="-607.5" font-family="Helvetica,sans-Serif" font-size="10.00">dofs</text>
</a>
</g>
</g>
<!-- dir_4022f63979af12af4c32ec9a4562b2df -->
<g id="node2" class="node">
<title>dir_4022f63979af12af4c32ec9a4562b2df</title>
<g id="a_node2"><a xlink:href="dir_4022f63979af12af4c32ec9a4562b2df.html" target="_top" xlink:title="hp">
<polygon fill="none" stroke="black" points="104,-556 50,-556 50,-520 104,-520 104,-556"/>
<text text-anchor="middle" x="77" y="-535.5" font-family="Helvetica,sans-Serif" font-size="10.00">hp</text>
</a>
</g>
</g>
<!-- dir_1a6d8571b8eba91bded1d6534762df79&#45;&gt;dir_4022f63979af12af4c32ec9a4562b2df -->
<g id="edge24" class="edge">
<title>dir_1a6d8571b8eba91bded1d6534762df79&#45;&gt;dir_4022f63979af12af4c32ec9a4562b2df</title>
<path fill="none" stroke="black" d="M105.71,-591.7C99.59,-583.64 92.97,-573.89 87.53,-564.98"/>
<polygon fill="black" stroke="black" points="90.41,-562.98 82.34,-556.1 84.36,-566.51 90.41,-562.98"/>
<g id="a_edge24&#45;headlabel"><a xlink:href="dir_000027_000028.html" target="_top" xlink:title="4">
<text text-anchor="middle" x="94.67" y="-562.15" font-family="Helvetica,sans-Serif" font-size="10.00">4</text>
</a>
</g>
</g>
<!-- dir_90a2ad6518b731f1dc196d14153b8b6b -->
<g id="node4" class="node">
<title>dir_90a2ad6518b731f1dc196d14153b8b6b</title>
<g id="a_node4"><a xlink:href="dir_90a2ad6518b731f1dc196d14153b8b6b.html" target="_top" xlink:title="base">
<polygon fill="white" stroke="red" points="205,-268 151,-268 151,-232 205,-232 205,-268"/>
<text text-anchor="middle" x="178" y="-247.5" font-family="Helvetica,sans-Serif" font-size="10.00">base</text>
</a>
</g>
</g>
<!-- dir_1a6d8571b8eba91bded1d6534762df79&#45;&gt;dir_90a2ad6518b731f1dc196d14153b8b6b -->
<g id="edge25" class="edge">
<title>dir_1a6d8571b8eba91bded1d6534762df79&#45;&gt;dir_90a2ad6518b731f1dc196d14153b8b6b</title>
<path fill="none" stroke="black" d="M150.21,-596.32C192.88,-576.34 270,-532.92 270,-467 270,-467 270,-467 270,-393 270,-344.54 230.45,-301.13 203.06,-275.42"/>
<polygon fill="black" stroke="black" points="205.08,-272.52 195.35,-268.34 200.34,-277.68 205.08,-272.52"/>
<g id="a_edge25&#45;headlabel"><a xlink:href="dir_000027_000006.html" target="_top" xlink:title="31">
<text text-anchor="middle" x="209.65" y="-270.37" font-family="Helvetica,sans-Serif" font-size="10.00">31</text>
</a>
</g>
</g>
<!-- dir_9706acb4d69a98d7c15ebe226493116f -->
<g id="node5" class="node">
<title>dir_9706acb4d69a98d7c15ebe226493116f</title>
<g id="a_node5"><a xlink:href="dir_9706acb4d69a98d7c15ebe226493116f.html" target="_top" xlink:title="fe">
<polygon fill="none" stroke="black" points="84,-196 30,-196 30,-160 84,-160 84,-196"/>
<text text-anchor="middle" x="57" y="-175.5" font-family="Helvetica,sans-Serif" font-size="10.00">fe</text>
</a>
</g>
</g>
<!-- dir_1a6d8571b8eba91bded1d6534762df79&#45;&gt;dir_9706acb4d69a98d7c15ebe226493116f -->
<g id="edge26" class="edge">
<title>dir_1a6d8571b8eba91bded1d6534762df79&#45;&gt;dir_9706acb4d69a98d7c15ebe226493116f</title>
<path fill="none" stroke="black" d="M95.81,-601C74.97,-592.56 47.68,-577.5 32,-556 7.86,-522.9 8,-507.97 8,-467 8,-467 8,-467 8,-321 8,-279.3 24.18,-233.21 38.27,-205.18"/>
<polygon fill="black" stroke="black" points="41.52,-206.52 43.14,-196.05 35.34,-203.23 41.52,-206.52"/>
<g id="a_edge26&#45;headlabel"><a xlink:href="dir_000027_000008.html" target="_top" xlink:title="1">
<text text-anchor="middle" x="42.33" y="-208.53" font-family="Helvetica,sans-Serif" font-size="10.00">1</text>
</a>
</g>
</g>
<!-- dir_a933ab6cde53f9fa4d29dc295cb0ac5f -->
<g id="node6" class="node">
<title>dir_a933ab6cde53f9fa4d29dc295cb0ac5f</title>
<g id="a_node6"><a xlink:href="dir_a933ab6cde53f9fa4d29dc295cb0ac5f.html" target="_top" xlink:title="grid">
<polygon fill="none" stroke="black" points="150,-484 96,-484 96,-448 150,-448 150,-484"/>
<text text-anchor="middle" x="123" y="-463.5" font-family="Helvetica,sans-Serif" font-size="10.00">grid</text>
</a>
</g>
</g>
<!-- dir_1a6d8571b8eba91bded1d6534762df79&#45;&gt;dir_a933ab6cde53f9fa4d29dc295cb0ac5f -->
<g id="edge27" class="edge">
<title>dir_1a6d8571b8eba91bded1d6534762df79&#45;&gt;dir_a933ab6cde53f9fa4d29dc295cb0ac5f</title>
<path fill="none" stroke="black" d="M118.42,-591.87C115.86,-567.67 115.57,-523.21 117.54,-494.39"/>
<polygon fill="black" stroke="black" points="121.05,-494.45 118.41,-484.19 114.07,-493.86 121.05,-494.45"/>
<g id="a_edge27&#45;headlabel"><a xlink:href="dir_000027_000009.html" target="_top" xlink:title="1">
<text text-anchor="middle" x="123.57" y="-495.77" font-family="Helvetica,sans-Serif" font-size="10.00">1</text>
</a>
</g>
</g>
<!-- dir_b2430326e20a3ae038db3bac19f0573b -->
<g id="node7" class="node">
<title>dir_b2430326e20a3ae038db3bac19f0573b</title>
<g id="a_node7"><a xlink:href="dir_b2430326e20a3ae038db3bac19f0573b.html" target="_top" xlink:title="lac">
<polygon fill="none" stroke="black" points="272,-124 218,-124 218,-88 272,-88 272,-124"/>
<text text-anchor="middle" x="245" y="-103.5" font-family="Helvetica,sans-Serif" font-size="10.00">lac</text>
</a>
</g>
</g>
<!-- dir_1a6d8571b8eba91bded1d6534762df79&#45;&gt;dir_b2430326e20a3ae038db3bac19f0573b -->
<g id="edge28" class="edge">
<title>dir_1a6d8571b8eba91bded1d6534762df79&#45;&gt;dir_b2430326e20a3ae038db3bac19f0573b</title>
<path fill="none" stroke="black" d="M150.36,-604.3C208.48,-592.57 339,-556.31 339,-467 339,-467 339,-467 339,-249 339,-201.17 301.46,-157.08 273.82,-131.11"/>
<polygon fill="black" stroke="black" points="276.08,-128.42 266.33,-124.27 271.36,-133.6 276.08,-128.42"/>
<g id="a_edge28&#45;headlabel"><a xlink:href="dir_000027_000007.html" target="_top" xlink:title="2">
<text text-anchor="middle" x="280.65" y="-126.25" font-family="Helvetica,sans-Serif" font-size="10.00">2</text>
</a>
</g>
</g>
<!-- dir_4022f63979af12af4c32ec9a4562b2df&#45;&gt;dir_1a6d8571b8eba91bded1d6534762df79 -->
<g id="edge6" class="edge">
<title>dir_4022f63979af12af4c32ec9a4562b2df&#45;&gt;dir_1a6d8571b8eba91bded1d6534762df79</title>
<path fill="none" stroke="black" d="M94.14,-556.1C100.25,-564.13 106.87,-573.87 112.34,-582.8"/>
<polygon fill="black" stroke="black" points="109.47,-584.83 117.54,-591.7 115.52,-581.3 109.47,-584.83"/>
<g id="a_edge6&#45;headlabel"><a xlink:href="dir_000028_000027.html" target="_top" xlink:title="2">
<text text-anchor="middle" x="105.21" y="-580.66" font-family="Helvetica,sans-Serif" font-size="10.00">2</text>
</a>
</g>
</g>
<!-- dir_4022f63979af12af4c32ec9a4562b2df&#45;&gt;dir_90a2ad6518b731f1dc196d14153b8b6b -->
<g id="edge7" class="edge">
<title>dir_4022f63979af12af4c32ec9a4562b2df&#45;&gt;dir_90a2ad6518b731f1dc196d14153b8b6b</title>
<path fill="none" stroke="black" d="M70.95,-519.78C63.87,-479.12 62.01,-375.23 104,-304 112.94,-288.83 127.93,-276.17 142.22,-267.03"/>
<polygon fill="black" stroke="black" points="144.17,-269.94 150.96,-261.8 140.58,-263.93 144.17,-269.94"/>
<g id="a_edge7&#45;headlabel"><a xlink:href="dir_000028_000006.html" target="_top" xlink:title="13">
<text text-anchor="middle" x="142.55" y="-271.72" font-family="Helvetica,sans-Serif" font-size="10.00">13</text>
</a>
</g>
</g>
<!-- dir_4022f63979af12af4c32ec9a4562b2df&#45;&gt;dir_9706acb4d69a98d7c15ebe226493116f -->
<g id="edge8" class="edge">
<title>dir_4022f63979af12af4c32ec9a4562b2df&#45;&gt;dir_9706acb4d69a98d7c15ebe226493116f</title>
<path fill="none" stroke="black" d="M63.14,-519.95C48.22,-493.72 28,-441.61 28,-395 28,-395 28,-395 28,-321 28,-280.64 36.02,-234.46 44.19,-206.01"/>
<polygon fill="black" stroke="black" points="47.55,-206.97 47.19,-196.38 40.87,-204.88 47.55,-206.97"/>
<g id="a_edge8&#45;headlabel"><a xlink:href="dir_000028_000008.html" target="_top" xlink:title="7">
<text text-anchor="middle" x="49.2" y="-208.74" font-family="Helvetica,sans-Serif" font-size="10.00">7</text>
</a>
</g>
</g>
<!-- dir_4022f63979af12af4c32ec9a4562b2df&#45;&gt;dir_a933ab6cde53f9fa4d29dc295cb0ac5f -->
<g id="edge9" class="edge">
<title>dir_4022f63979af12af4c32ec9a4562b2df&#45;&gt;dir_a933ab6cde53f9fa4d29dc295cb0ac5f</title>
<path fill="none" stroke="black" d="M82.46,-519.7C87.01,-511.47 93.37,-501.48 99.77,-492.42"/>
<polygon fill="black" stroke="black" points="102.78,-494.24 105.86,-484.1 97.13,-490.1 102.78,-494.24"/>
<g id="a_edge9&#45;headlabel"><a xlink:href="dir_000028_000009.html" target="_top" xlink:title="2">
<text text-anchor="middle" x="102.95" y="-496.32" font-family="Helvetica,sans-Serif" font-size="10.00">2</text>
</a>
</g>
</g>
<!-- dir_5c5dfa38b75b645221b847816813e149 -->
<g id="node3" class="node">
<title>dir_5c5dfa38b75b645221b847816813e149</title>
<g id="a_node3"><a xlink:href="dir_5c5dfa38b75b645221b847816813e149.html" target="_top" xlink:title="algorithms">
<polygon fill="none" stroke="black" points="276,-52 214,-52 214,-16 276,-16 276,-52"/>
<text text-anchor="middle" x="245" y="-31.5" font-family="Helvetica,sans-Serif" font-size="10.00">algorithms</text>
</a>
</g>
</g>
<!-- dir_5c5dfa38b75b645221b847816813e149&#45;&gt;dir_90a2ad6518b731f1dc196d14153b8b6b -->
<g id="edge2" class="edge">
<title>dir_5c5dfa38b75b645221b847816813e149&#45;&gt;dir_90a2ad6518b731f1dc196d14153b8b6b</title>
<path fill="none" stroke="black" d="M230.73,-52.11C223.18,-62.01 214.37,-75.06 209,-88 190.47,-132.64 182.88,-188.9 179.87,-221.72"/>
<polygon fill="black" stroke="black" points="176.37,-221.64 179.02,-231.9 183.34,-222.23 176.37,-221.64"/>
<g id="a_edge2&#45;headlabel"><a xlink:href="dir_000017_000006.html" target="_top" xlink:title="16">
<text text-anchor="middle" x="173.84" y="-215.32" font-family="Helvetica,sans-Serif" font-size="10.00">16</text>
</a>
</g>
</g>
<!-- dir_5c5dfa38b75b645221b847816813e149&#45;&gt;dir_b2430326e20a3ae038db3bac19f0573b -->
<g id="edge3" class="edge">
<title>dir_5c5dfa38b75b645221b847816813e149&#45;&gt;dir_b2430326e20a3ae038db3bac19f0573b</title>
<path fill="none" stroke="black" d="M250.9,-52.1C251.7,-59.79 251.94,-69.05 251.6,-77.67"/>
<polygon fill="black" stroke="black" points="248.11,-77.48 250.92,-87.7 255.09,-77.96 248.11,-77.48"/>
<g id="a_edge3&#45;headlabel"><a xlink:href="dir_000017_000007.html" target="_top" xlink:title="2">
<text text-anchor="middle" x="245.52" y="-71.2" font-family="Helvetica,sans-Serif" font-size="10.00">2</text>
</a>
</g>
</g>
<!-- dir_90a2ad6518b731f1dc196d14153b8b6b&#45;&gt;dir_1a6d8571b8eba91bded1d6534762df79 -->
<g id="edge17" class="edge">
<title>dir_90a2ad6518b731f1dc196d14153b8b6b&#45;&gt;dir_1a6d8571b8eba91bded1d6534762df79</title>
<path fill="none" stroke="black" d="M205.02,-266.52C237.79,-290.2 288,-338.39 288,-393 288,-467 288,-467 288,-467 288,-533.98 208.37,-577.74 159.61,-597.26"/>
<polygon fill="black" stroke="black" points="158.09,-594.1 150.01,-600.95 160.6,-600.63 158.09,-594.1"/>
<g id="a_edge17&#45;headlabel"><a xlink:href="dir_000006_000027.html" target="_top" xlink:title="2">
<text text-anchor="middle" x="160.43" y="-587.66" font-family="Helvetica,sans-Serif" font-size="10.00">2</text>
</a>
</g>
</g>
<!-- dir_90a2ad6518b731f1dc196d14153b8b6b&#45;&gt;dir_4022f63979af12af4c32ec9a4562b2df -->
<g id="edge18" class="edge">
<title>dir_90a2ad6518b731f1dc196d14153b8b6b&#45;&gt;dir_4022f63979af12af4c32ec9a4562b2df</title>
<path fill="none" stroke="black" d="M156.8,-268.16C144.73,-277.2 130.58,-289.45 122,-304 83.13,-369.94 81.84,-463.88 80.46,-509.72"/>
<polygon fill="black" stroke="black" points="76.96,-509.66 80.1,-519.78 83.95,-509.91 76.96,-509.66"/>
<g id="a_edge18&#45;headlabel"><a xlink:href="dir_000006_000028.html" target="_top" xlink:title="1">
<text text-anchor="middle" x="74.24" y="-503.47" font-family="Helvetica,sans-Serif" font-size="10.00">1</text>
</a>
</g>
</g>
<!-- dir_90a2ad6518b731f1dc196d14153b8b6b&#45;&gt;dir_9706acb4d69a98d7c15ebe226493116f -->
<g id="edge20" class="edge">
<title>dir_90a2ad6518b731f1dc196d14153b8b6b&#45;&gt;dir_9706acb4d69a98d7c15ebe226493116f</title>
<path fill="none" stroke="black" d="M150.75,-236.32C132.49,-226.6 108.51,-212.92 89.32,-201.37"/>
<polygon fill="black" stroke="black" points="90.96,-198.27 80.6,-196.06 87.32,-204.25 90.96,-198.27"/>
<g id="a_edge20&#45;headlabel"><a xlink:href="dir_000006_000008.html" target="_top" xlink:title="4">
<text text-anchor="middle" x="95.51" y="-195.21" font-family="Helvetica,sans-Serif" font-size="10.00">4</text>
</a>
</g>
</g>
<!-- dir_90a2ad6518b731f1dc196d14153b8b6b&#45;&gt;dir_a933ab6cde53f9fa4d29dc295cb0ac5f -->
<g id="edge21" class="edge">
<title>dir_90a2ad6518b731f1dc196d14153b8b6b&#45;&gt;dir_a933ab6cde53f9fa4d29dc295cb0ac5f</title>
<path fill="none" stroke="black" d="M163.66,-268.11C154.17,-277.46 142.82,-289.98 137,-304 118.79,-347.85 122.53,-404.37 124.5,-437.45"/>
<polygon fill="black" stroke="black" points="121.02,-437.93 125.06,-447.72 128.01,-437.54 121.02,-437.93"/>
<g id="a_edge21&#45;headlabel"><a xlink:href="dir_000006_000009.html" target="_top" xlink:title="8">
<text text-anchor="middle" x="117.99" y="-431.99" font-family="Helvetica,sans-Serif" font-size="10.00">8</text>
</a>
</g>
</g>
<!-- dir_90a2ad6518b731f1dc196d14153b8b6b&#45;&gt;dir_b2430326e20a3ae038db3bac19f0573b -->
<g id="edge22" class="edge">
<title>dir_90a2ad6518b731f1dc196d14153b8b6b&#45;&gt;dir_b2430326e20a3ae038db3bac19f0573b</title>
<path fill="none" stroke="black" d="M181.5,-231.87C190.47,-207.35 211.59,-162.03 227.23,-133.26"/>
<polygon fill="black" stroke="black" points="230.48,-134.63 232.3,-124.19 224.37,-131.21 230.48,-134.63"/>
<g id="a_edge22&#45;headlabel"><a xlink:href="dir_000006_000007.html" target="_top" xlink:title="8">
<text text-anchor="middle" x="231.2" y="-136.65" font-family="Helvetica,sans-Serif" font-size="10.00">8</text>
</a>
</g>
</g>
<!-- dir_e52416a0736076e78cf51ec6b663e78d -->
<g id="node8" class="node">
<title>dir_e52416a0736076e78cf51ec6b663e78d</title>
<g id="a_node8"><a xlink:href="dir_e52416a0736076e78cf51ec6b663e78d.html" target="_top" xlink:title="boost_adaptors">
<polygon fill="none" stroke="black" points="219.5,-340 136.5,-340 136.5,-304 219.5,-304 219.5,-340"/>
<text text-anchor="middle" x="178" y="-319.5" font-family="Helvetica,sans-Serif" font-size="10.00">boost_adaptors</text>
</a>
</g>
</g>
<!-- dir_90a2ad6518b731f1dc196d14153b8b6b&#45;&gt;dir_e52416a0736076e78cf51ec6b663e78d -->
<g id="edge23" class="edge">
<title>dir_90a2ad6518b731f1dc196d14153b8b6b&#45;&gt;dir_e52416a0736076e78cf51ec6b663e78d</title>
<path fill="none" stroke="black" d="M183.9,-268.1C184.7,-275.79 184.94,-285.05 184.6,-293.67"/>
<polygon fill="black" stroke="black" points="181.11,-293.48 183.92,-303.7 188.09,-293.96 181.11,-293.48"/>
<g id="a_edge23&#45;headlabel"><a xlink:href="dir_000006_000019.html" target="_top" xlink:title="3">
<text text-anchor="middle" x="178.52" y="-287.2" font-family="Helvetica,sans-Serif" font-size="10.00">3</text>
</a>
</g>
</g>
<!-- dir_5c2eb6d9a7a6f1e9cd32e0e8abf42ca6 -->
<g id="node9" class="node">
<title>dir_5c2eb6d9a7a6f1e9cd32e0e8abf42ca6</title>
<g id="a_node9"><a xlink:href="dir_5c2eb6d9a7a6f1e9cd32e0e8abf42ca6.html" target="_top" xlink:title="numerics">
<polygon fill="#eeeeff" stroke="black" points="212,-412 156,-412 156,-376 212,-376 212,-412"/>
<text text-anchor="middle" x="184" y="-391.5" font-family="Helvetica,sans-Serif" font-size="10.00">numerics</text>
</a>
</g>
</g>
<!-- dir_90a2ad6518b731f1dc196d14153b8b6b&#45;&gt;dir_5c2eb6d9a7a6f1e9cd32e0e8abf42ca6 -->
<g id="edge19" class="edge">
<title>dir_90a2ad6518b731f1dc196d14153b8b6b&#45;&gt;dir_5c2eb6d9a7a6f1e9cd32e0e8abf42ca6</title>
<path fill="none" stroke="black" d="M205.06,-264.82C217.93,-274.35 231.6,-288.13 238,-304 243.98,-318.84 243.52,-324.98 238,-340 234.14,-350.5 227.19,-360.34 219.45,-368.62"/>
<polygon fill="black" stroke="black" points="216.86,-366.26 212.19,-375.77 221.77,-371.24 216.86,-366.26"/>
<g id="a_edge19&#45;headlabel"><a xlink:href="dir_000006_000026.html" target="_top" xlink:title="2">
<text text-anchor="middle" x="217.43" y="-359.21" font-family="Helvetica,sans-Serif" font-size="10.00">2</text>
</a>
</g>
</g>
<!-- dir_9706acb4d69a98d7c15ebe226493116f&#45;&gt;dir_1a6d8571b8eba91bded1d6534762df79 -->
<g id="edge37" class="edge">
<title>dir_9706acb4d69a98d7c15ebe226493116f&#45;&gt;dir_1a6d8571b8eba91bded1d6534762df79</title>
<path fill="none" stroke="black" d="M54.67,-196.05C46.22,-222.28 26,-274.39 26,-321 26,-467 26,-467 26,-467 26,-507.97 25.86,-522.9 50,-556 59.75,-569.37 73.99,-580.25 87.37,-588.59"/>
<polygon fill="black" stroke="black" points="85.61,-591.61 95.99,-593.71 89.18,-585.6 85.61,-591.61"/>
<g id="a_edge37&#45;headlabel"><a xlink:href="dir_000008_000027.html" target="_top" xlink:title="6">
<text text-anchor="middle" x="81.07" y="-589.72" font-family="Helvetica,sans-Serif" font-size="10.00">6</text>
</a>
</g>
</g>
<!-- dir_9706acb4d69a98d7c15ebe226493116f&#45;&gt;dir_4022f63979af12af4c32ec9a4562b2df -->
<g id="edge38" class="edge">
<title>dir_9706acb4d69a98d7c15ebe226493116f&#45;&gt;dir_4022f63979af12af4c32ec9a4562b2df</title>
<path fill="none" stroke="black" d="M58.72,-196.38C56.11,-223.03 46,-275.69 46,-321 46,-395 46,-395 46,-395 46,-436.52 62.04,-482.39 71.52,-510.46"/>
<polygon fill="black" stroke="black" points="68.2,-511.56 74.67,-519.95 74.84,-509.36 68.2,-511.56"/>
<g id="a_edge38&#45;headlabel"><a xlink:href="dir_000008_000028.html" target="_top" xlink:title="7">
<text text-anchor="middle" x="64.37" y="-506.55" font-family="Helvetica,sans-Serif" font-size="10.00">7</text>
</a>
</g>
</g>
<!-- dir_9706acb4d69a98d7c15ebe226493116f&#45;&gt;dir_90a2ad6518b731f1dc196d14153b8b6b -->
<g id="edge40" class="edge">
<title>dir_9706acb4d69a98d7c15ebe226493116f&#45;&gt;dir_90a2ad6518b731f1dc196d14153b8b6b</title>
<path fill="none" stroke="black" d="M84.03,-191.56C102.27,-201.27 126.3,-214.97 145.55,-226.56"/>
<polygon fill="black" stroke="black" points="143.93,-229.67 154.3,-231.88 147.57,-223.69 143.93,-229.67"/>
<g id="a_edge40&#45;headlabel"><a xlink:href="dir_000008_000006.html" target="_top" xlink:title="191">
<text text-anchor="middle" x="139.39" y="-227.73" font-family="Helvetica,sans-Serif" font-size="10.00">191</text>
</a>
</g>
</g>
<!-- dir_9706acb4d69a98d7c15ebe226493116f&#45;&gt;dir_a933ab6cde53f9fa4d29dc295cb0ac5f -->
<g id="edge41" class="edge">
<title>dir_9706acb4d69a98d7c15ebe226493116f&#45;&gt;dir_a933ab6cde53f9fa4d29dc295cb0ac5f</title>
<path fill="none" stroke="black" d="M65.62,-196.17C70.03,-214.17 73.88,-243.23 79,-268 91.66,-329.24 112.07,-399.72 120.56,-437.56"/>
<polygon fill="black" stroke="black" points="117.23,-438.71 122.71,-447.77 124.08,-437.27 117.23,-438.71"/>
<g id="a_edge41&#45;headlabel"><a xlink:href="dir_000008_000009.html" target="_top" xlink:title="9">
<text text-anchor="middle" x="113.71" y="-433.27" font-family="Helvetica,sans-Serif" font-size="10.00">9</text>
</a>
</g>
</g>
<!-- dir_9706acb4d69a98d7c15ebe226493116f&#45;&gt;dir_b2430326e20a3ae038db3bac19f0573b -->
<g id="edge42" class="edge">
<title>dir_9706acb4d69a98d7c15ebe226493116f&#45;&gt;dir_b2430326e20a3ae038db3bac19f0573b</title>
<path fill="none" stroke="black" d="M84.34,-166.82C117.01,-154.66 171.82,-134.25 208.2,-120.7"/>
<polygon fill="black" stroke="black" points="209.79,-123.85 217.94,-117.08 207.34,-117.29 209.79,-123.85"/>
<g id="a_edge42&#45;headlabel"><a xlink:href="dir_000008_000007.html" target="_top" xlink:title="7">
<text text-anchor="middle" x="207.41" y="-125.26" font-family="Helvetica,sans-Serif" font-size="10.00">7</text>
</a>
</g>
</g>
<!-- dir_9706acb4d69a98d7c15ebe226493116f&#45;&gt;dir_5c2eb6d9a7a6f1e9cd32e0e8abf42ca6 -->
<g id="edge39" class="edge">
<title>dir_9706acb4d69a98d7c15ebe226493116f&#45;&gt;dir_5c2eb6d9a7a6f1e9cd32e0e8abf42ca6</title>
<path fill="none" stroke="black" d="M67.38,-196.13C80.64,-226.85 103.55,-292.56 137,-340 144.34,-350.41 153.96,-360.4 162.68,-368.85"/>
<polygon fill="black" stroke="black" points="160.39,-371.49 170.04,-375.84 165.21,-366.42 160.39,-371.49"/>
<g id="a_edge39&#45;headlabel"><a xlink:href="dir_000008_000026.html" target="_top" xlink:title="1">
<text text-anchor="middle" x="155.82" y="-368.57" font-family="Helvetica,sans-Serif" font-size="10.00">1</text>
</a>
</g>
</g>
<!-- dir_a933ab6cde53f9fa4d29dc295cb0ac5f&#45;&gt;dir_1a6d8571b8eba91bded1d6534762df79 -->
<g id="edge10" class="edge">
<title>dir_a933ab6cde53f9fa4d29dc295cb0ac5f&#45;&gt;dir_1a6d8571b8eba91bded1d6534762df79</title>
<path fill="none" stroke="black" d="M127.59,-484.19C130.15,-508.42 130.43,-552.89 128.45,-581.68"/>
<polygon fill="black" stroke="black" points="124.95,-581.61 127.58,-591.87 131.92,-582.21 124.95,-581.61"/>
<g id="a_edge10&#45;headlabel"><a xlink:href="dir_000009_000027.html" target="_top" xlink:title="2">
<text text-anchor="middle" x="122.42" y="-575.29" font-family="Helvetica,sans-Serif" font-size="10.00">2</text>
</a>
</g>
</g>
<!-- dir_a933ab6cde53f9fa4d29dc295cb0ac5f&#45;&gt;dir_4022f63979af12af4c32ec9a4562b2df -->
<g id="edge11" class="edge">
<title>dir_a933ab6cde53f9fa4d29dc295cb0ac5f&#45;&gt;dir_4022f63979af12af4c32ec9a4562b2df</title>
<path fill="none" stroke="black" d="M117.66,-484.1C113.13,-492.3 106.78,-502.28 100.38,-511.36"/>
<polygon fill="black" stroke="black" points="97.36,-509.56 94.29,-519.7 103.01,-513.69 97.36,-509.56"/>
<g id="a_edge11&#45;headlabel"><a xlink:href="dir_000009_000028.html" target="_top" xlink:title="1">
<text text-anchor="middle" x="97.19" y="-502.48" font-family="Helvetica,sans-Serif" font-size="10.00">1</text>
</a>
</g>
</g>
<!-- dir_a933ab6cde53f9fa4d29dc295cb0ac5f&#45;&gt;dir_90a2ad6518b731f1dc196d14153b8b6b -->
<g id="edge13" class="edge">
<title>dir_a933ab6cde53f9fa4d29dc295cb0ac5f&#45;&gt;dir_90a2ad6518b731f1dc196d14153b8b6b</title>
<path fill="none" stroke="black" d="M114.3,-447.72C105.66,-417.3 98.73,-352.81 119,-304 124.05,-291.83 133.27,-280.79 143.04,-271.98"/>
<polygon fill="black" stroke="black" points="145.48,-274.5 150.91,-265.4 140.99,-269.12 145.48,-274.5"/>
<g id="a_edge13&#45;headlabel"><a xlink:href="dir_000009_000006.html" target="_top" xlink:title="89">
<text text-anchor="middle" x="144.54" y="-276.48" font-family="Helvetica,sans-Serif" font-size="10.00">89</text>
</a>
</g>
</g>
<!-- dir_a933ab6cde53f9fa4d29dc295cb0ac5f&#45;&gt;dir_9706acb4d69a98d7c15ebe226493116f -->
<g id="edge14" class="edge">
<title>dir_a933ab6cde53f9fa4d29dc295cb0ac5f&#45;&gt;dir_9706acb4d69a98d7c15ebe226493116f</title>
<path fill="none" stroke="black" d="M112.54,-447.77C98.18,-413.72 74.91,-335.29 61,-268 56.76,-247.49 53.39,-224.03 52.44,-206.35"/>
<polygon fill="black" stroke="black" points="55.94,-206.07 52.18,-196.17 48.94,-206.25 55.94,-206.07"/>
<g id="a_edge14&#45;headlabel"><a xlink:href="dir_000009_000008.html" target="_top" xlink:title="3">
<text text-anchor="middle" x="58.87" y="-207.09" font-family="Helvetica,sans-Serif" font-size="10.00">3</text>
</a>
</g>
</g>
<!-- dir_a933ab6cde53f9fa4d29dc295cb0ac5f&#45;&gt;dir_b2430326e20a3ae038db3bac19f0573b -->
<g id="edge15" class="edge">
<title>dir_a933ab6cde53f9fa4d29dc295cb0ac5f&#45;&gt;dir_b2430326e20a3ae038db3bac19f0573b</title>
<path fill="none" stroke="black" d="M150.41,-454.19C171.28,-445.05 199.92,-430.5 221,-412 250.66,-385.96 260.86,-377.56 273,-340 296.32,-267.89 270.97,-177.56 255.36,-133.55"/>
<polygon fill="black" stroke="black" points="258.64,-132.33 251.92,-124.15 252.07,-134.74 258.64,-132.33"/>
<g id="a_edge15&#45;headlabel"><a xlink:href="dir_000009_000007.html" target="_top" xlink:title="1">
<text text-anchor="middle" x="262.54" y="-132.24" font-family="Helvetica,sans-Serif" font-size="10.00">1</text>
</a>
</g>
</g>
<!-- dir_a933ab6cde53f9fa4d29dc295cb0ac5f&#45;&gt;dir_e52416a0736076e78cf51ec6b663e78d -->
<g id="edge16" class="edge">
<title>dir_a933ab6cde53f9fa4d29dc295cb0ac5f&#45;&gt;dir_e52416a0736076e78cf51ec6b663e78d</title>
<path fill="none" stroke="black" d="M126.21,-447.82C129.95,-429.57 136.93,-400.06 147,-376 150.87,-366.76 156.08,-357.16 161.12,-348.71"/>
<polygon fill="black" stroke="black" points="164.18,-350.41 166.45,-340.06 158.22,-346.73 164.18,-350.41"/>
<g id="a_edge16&#45;headlabel"><a xlink:href="dir_000009_000019.html" target="_top" xlink:title="1">
<text text-anchor="middle" x="164.71" y="-352.46" font-family="Helvetica,sans-Serif" font-size="10.00">1</text>
</a>
</g>
</g>
<!-- dir_a933ab6cde53f9fa4d29dc295cb0ac5f&#45;&gt;dir_5c2eb6d9a7a6f1e9cd32e0e8abf42ca6 -->
<g id="edge12" class="edge">
<title>dir_a933ab6cde53f9fa4d29dc295cb0ac5f&#45;&gt;dir_5c2eb6d9a7a6f1e9cd32e0e8abf42ca6</title>
<path fill="none" stroke="black" d="M132.16,-447.7C138.68,-439.22 147.51,-428.86 156.1,-419.58"/>
<polygon fill="black" stroke="black" points="158.85,-421.77 163.2,-412.1 153.78,-416.95 158.85,-421.77"/>
<g id="a_edge12&#45;headlabel"><a xlink:href="dir_000009_000026.html" target="_top" xlink:title="3">
<text text-anchor="middle" x="158.44" y="-423.83" font-family="Helvetica,sans-Serif" font-size="10.00">3</text>
</a>
</g>
</g>
<!-- dir_b2430326e20a3ae038db3bac19f0573b&#45;&gt;dir_5c5dfa38b75b645221b847816813e149 -->
<g id="edge4" class="edge">
<title>dir_b2430326e20a3ae038db3bac19f0573b&#45;&gt;dir_5c5dfa38b75b645221b847816813e149</title>
<path fill="none" stroke="black" d="M239.08,-87.7C238.29,-79.98 238.06,-70.71 238.4,-62.11"/>
<polygon fill="black" stroke="black" points="241.9,-62.32 239.1,-52.1 234.92,-61.84 241.9,-62.32"/>
<g id="a_edge4&#45;headlabel"><a xlink:href="dir_000007_000017.html" target="_top" xlink:title="1">
<text text-anchor="middle" x="244.48" y="-63.61" font-family="Helvetica,sans-Serif" font-size="10.00">1</text>
</a>
</g>
</g>
<!-- dir_b2430326e20a3ae038db3bac19f0573b&#45;&gt;dir_90a2ad6518b731f1dc196d14153b8b6b -->
<g id="edge5" class="edge">
<title>dir_b2430326e20a3ae038db3bac19f0573b&#45;&gt;dir_90a2ad6518b731f1dc196d14153b8b6b</title>
<path fill="none" stroke="black" d="M241.48,-124.19C232.48,-148.74 211.36,-194.07 195.73,-222.81"/>
<polygon fill="black" stroke="black" points="192.49,-221.43 190.67,-231.87 198.6,-224.85 192.49,-221.43"/>
<g id="a_edge5&#45;headlabel"><a xlink:href="dir_000007_000006.html" target="_top" xlink:title="312">
<text text-anchor="middle" x="191.77" y="-214.41" font-family="Helvetica,sans-Serif" font-size="10.00">312</text>
</a>
</g>
</g>
<!-- dir_e52416a0736076e78cf51ec6b663e78d&#45;&gt;dir_90a2ad6518b731f1dc196d14153b8b6b -->
<g id="edge1" class="edge">
<title>dir_e52416a0736076e78cf51ec6b663e78d&#45;&gt;dir_90a2ad6518b731f1dc196d14153b8b6b</title>
<path fill="none" stroke="black" d="M172.08,-303.7C171.29,-295.98 171.06,-286.71 171.4,-278.11"/>
<polygon fill="black" stroke="black" points="174.9,-278.32 172.1,-268.1 167.92,-277.84 174.9,-278.32"/>
<g id="a_edge1&#45;headlabel"><a xlink:href="dir_000019_000006.html" target="_top" xlink:title="6">
<text text-anchor="middle" x="177.48" y="-279.61" font-family="Helvetica,sans-Serif" font-size="10.00">6</text>
</a>
</g>
</g>
<!-- dir_5c2eb6d9a7a6f1e9cd32e0e8abf42ca6&#45;&gt;dir_1a6d8571b8eba91bded1d6534762df79 -->
<g id="edge29" class="edge">
<title>dir_5c2eb6d9a7a6f1e9cd32e0e8abf42ca6&#45;&gt;dir_1a6d8571b8eba91bded1d6534762df79</title>
<path fill="none" stroke="black" d="M182.9,-412.3C181.46,-430.41 178.34,-459.55 172,-484 162.91,-519.06 146.8,-557.61 135.55,-582.49"/>
<polygon fill="black" stroke="black" points="132.34,-581.09 131.35,-591.64 138.7,-584.01 132.34,-581.09"/>
<g id="a_edge29&#45;headlabel"><a xlink:href="dir_000026_000027.html" target="_top" xlink:title="12">
<text text-anchor="middle" x="131.26" y="-574.14" font-family="Helvetica,sans-Serif" font-size="10.00">12</text>
</a>
</g>
</g>
<!-- dir_5c2eb6d9a7a6f1e9cd32e0e8abf42ca6&#45;&gt;dir_4022f63979af12af4c32ec9a4562b2df -->
<g id="edge30" class="edge">
<title>dir_5c2eb6d9a7a6f1e9cd32e0e8abf42ca6&#45;&gt;dir_4022f63979af12af4c32ec9a4562b2df</title>
<path fill="none" stroke="black" d="M182.77,-412.32C180.63,-431.5 174.81,-462.56 159,-484 147.39,-499.74 129.6,-512.05 113.55,-520.84"/>
<polygon fill="black" stroke="black" points="111.62,-517.89 104.36,-525.6 114.84,-524.11 111.62,-517.89"/>
<g id="a_edge30&#45;headlabel"><a xlink:href="dir_000026_000028.html" target="_top" xlink:title="5">
<text text-anchor="middle" x="113.51" y="-511.22" font-family="Helvetica,sans-Serif" font-size="10.00">5</text>
</a>
</g>
</g>
<!-- dir_5c2eb6d9a7a6f1e9cd32e0e8abf42ca6&#45;&gt;dir_5c5dfa38b75b645221b847816813e149 -->
<g id="edge31" class="edge">
<title>dir_5c2eb6d9a7a6f1e9cd32e0e8abf42ca6&#45;&gt;dir_5c5dfa38b75b645221b847816813e149</title>
<path fill="none" stroke="black" d="M211.55,-375.82C245.57,-352.23 299,-306.36 299,-251 299,-251 299,-251 299,-177 299,-136.64 296.65,-125.2 281,-88 276.97,-78.41 271.08,-68.76 265.22,-60.36"/>
<polygon fill="black" stroke="black" points="267.94,-58.14 259.22,-52.13 262.28,-62.27 267.94,-58.14"/>
<g id="a_edge31&#45;headlabel"><a xlink:href="dir_000026_000017.html" target="_top" xlink:title="2">
<text text-anchor="middle" x="272.35" y="-56.87" font-family="Helvetica,sans-Serif" font-size="10.00">2</text>
</a>
</g>
</g>
<!-- dir_5c2eb6d9a7a6f1e9cd32e0e8abf42ca6&#45;&gt;dir_90a2ad6518b731f1dc196d14153b8b6b -->
<g id="edge32" class="edge">
<title>dir_5c2eb6d9a7a6f1e9cd32e0e8abf42ca6&#45;&gt;dir_90a2ad6518b731f1dc196d14153b8b6b</title>
<path fill="none" stroke="black" d="M196.31,-375.53C204.81,-366.09 215.01,-353.6 220,-340 225.52,-324.98 225.98,-318.84 220,-304 215.78,-293.52 208.38,-283.95 200.88,-275.92"/>
<polygon fill="black" stroke="black" points="202.98,-273.06 193.45,-268.42 198,-277.99 202.98,-273.06"/>
<g id="a_edge32&#45;headlabel"><a xlink:href="dir_000026_000006.html" target="_top" xlink:title="74">
<text text-anchor="middle" x="207.52" y="-271.12" font-family="Helvetica,sans-Serif" font-size="10.00">74</text>
</a>
</g>
</g>
<!-- dir_5c2eb6d9a7a6f1e9cd32e0e8abf42ca6&#45;&gt;dir_9706acb4d69a98d7c15ebe226493116f -->
<g id="edge33" class="edge">
<title>dir_5c2eb6d9a7a6f1e9cd32e0e8abf42ca6&#45;&gt;dir_9706acb4d69a98d7c15ebe226493116f</title>
<path fill="none" stroke="black" d="M155.83,-377.23C143.09,-367.46 128.95,-354.11 119,-340 88.82,-297.2 67.22,-239.51 58.95,-206.08"/>
<polygon fill="black" stroke="black" points="62.32,-205.13 56.73,-196.13 55.49,-206.65 62.32,-205.13"/>
<g id="a_edge33&#45;headlabel"><a xlink:href="dir_000026_000008.html" target="_top" xlink:title="15">
<text text-anchor="middle" x="65.87" y="-205.52" font-family="Helvetica,sans-Serif" font-size="10.00">15</text>
</a>
</g>
</g>
<!-- dir_5c2eb6d9a7a6f1e9cd32e0e8abf42ca6&#45;&gt;dir_a933ab6cde53f9fa4d29dc295cb0ac5f -->
<g id="edge34" class="edge">
<title>dir_5c2eb6d9a7a6f1e9cd32e0e8abf42ca6&#45;&gt;dir_a933ab6cde53f9fa4d29dc295cb0ac5f</title>
<path fill="none" stroke="black" d="M174.99,-412.1C168.51,-420.55 159.69,-430.9 151.1,-440.2"/>
<polygon fill="black" stroke="black" points="148.33,-438.03 143.99,-447.7 153.41,-442.85 148.33,-438.03"/>
<g id="a_edge34&#45;headlabel"><a xlink:href="dir_000026_000009.html" target="_top" xlink:title="7">
<text text-anchor="middle" x="148.75" y="-430.97" font-family="Helvetica,sans-Serif" font-size="10.00">7</text>
</a>
</g>
</g>
<!-- dir_5c2eb6d9a7a6f1e9cd32e0e8abf42ca6&#45;&gt;dir_b2430326e20a3ae038db3bac19f0573b -->
<g id="edge35" class="edge">
<title>dir_5c2eb6d9a7a6f1e9cd32e0e8abf42ca6&#45;&gt;dir_b2430326e20a3ae038db3bac19f0573b</title>
<path fill="none" stroke="black" d="M207.52,-375.81C218.26,-366.53 229.92,-354.09 236,-340 265.85,-270.81 257.05,-179.04 250.02,-134.12"/>
<polygon fill="black" stroke="black" points="253.43,-133.29 248.34,-124 246.53,-134.44 253.43,-133.29"/>
<g id="a_edge35&#45;headlabel"><a xlink:href="dir_000026_000007.html" target="_top" xlink:title="10">
<text text-anchor="middle" x="256.82" y="-133.87" font-family="Helvetica,sans-Serif" font-size="10.00">10</text>
</a>
</g>
</g>
<!-- dir_5c2eb6d9a7a6f1e9cd32e0e8abf42ca6&#45;&gt;dir_e52416a0736076e78cf51ec6b663e78d -->
<g id="edge36" class="edge">
<title>dir_5c2eb6d9a7a6f1e9cd32e0e8abf42ca6&#45;&gt;dir_e52416a0736076e78cf51ec6b663e78d</title>
<path fill="none" stroke="black" d="M182.52,-375.7C181.86,-367.98 181.06,-358.71 180.32,-350.11"/>
<polygon fill="black" stroke="black" points="183.81,-349.77 179.47,-340.1 176.83,-350.37 183.81,-349.77"/>
<g id="a_edge36&#45;headlabel"><a xlink:href="dir_000026_000019.html" target="_top" xlink:title="3">
<text text-anchor="middle" x="186.94" y="-350.61" font-family="Helvetica,sans-Serif" font-size="10.00">3</text>
</a>
</g>
</g>
</g>
</svg>
