<?xml version="1.0" encoding="UTF-8" standalone="no"?>
<!DOCTYPE svg PUBLIC "-//W3C//DTD SVG 1.1//EN"
 "http://www.w3.org/Graphics/SVG/1.1/DTD/svg11.dtd">
<!-- Generated by graphviz version 2.47.1 (20210417.1919)
 -->
<!-- Title: include/deal.II/dofs Pages: 1 -->
<svg width="254pt" height="527pt"
 viewBox="0.00 0.00 254.00 527.00" xmlns="http://www.w3.org/2000/svg" xmlns:xlink="http://www.w3.org/1999/xlink">
<g id="graph0" class="graph" transform="scale(1 1) rotate(0) translate(4 523)">
<title>include/deal.II/dofs</title>
<polygon fill="white" stroke="transparent" points="-4,4 -4,-523 250,-523 250,4 -4,4"/>
<g id="clust1" class="cluster">
<title>clusterdir_ee90d91a514b839c31faec7a1d916f67</title>
<g id="a_clust1"><a xlink:href="dir_ee90d91a514b839c31faec7a1d916f67.html" target="_top" xlink:title="deal.II">
<polygon fill="#ddddee" stroke="black" points="8,-8 8,-511 238,-511 238,-8 8,-8"/>
<text text-anchor="middle" x="123" y="-499" font-family="Helvetica,sans-Serif" font-size="10.00">deal.II</text>
</a>
</g>
</g>
<!-- dir_273e60b3573ce9ad58a4d725e6a36523 -->
<g id="node1" class="node">
<title>dir_273e60b3573ce9ad58a4d725e6a36523</title>
<g id="a_node1"><a xlink:href="dir_273e60b3573ce9ad58a4d725e6a36523.html" target="_top" xlink:title="distributed">
<polygon fill="none" stroke="black" points="187,-484 125,-484 125,-448 187,-448 187,-484"/>
<text text-anchor="middle" x="156" y="-463.5" font-family="Helvetica,sans-Serif" font-size="10.00">distributed</text>
</a>
</g>
</g>
<!-- dir_90a2ad6518b731f1dc196d14153b8b6b -->
<g id="node3" class="node">
<title>dir_90a2ad6518b731f1dc196d14153b8b6b</title>
<g id="a_node3"><a xlink:href="dir_90a2ad6518b731f1dc196d14153b8b6b.html" target="_top" xlink:title="base">
<polygon fill="white" stroke="red" points="127,-412 73,-412 73,-376 127,-376 127,-412"/>
<text text-anchor="middle" x="100" y="-391.5" font-family="Helvetica,sans-Serif" font-size="10.00">base</text>
</a>
</g>
</g>
<!-- dir_273e60b3573ce9ad58a4d725e6a36523&#45;&gt;dir_90a2ad6518b731f1dc196d14153b8b6b -->
<g id="edge2" class="edge">
<title>dir_273e60b3573ce9ad58a4d725e6a36523&#45;&gt;dir_90a2ad6518b731f1dc196d14153b8b6b</title>
<path fill="none" stroke="black" d="M136.24,-447.7C128.82,-439.47 120.62,-429.48 113.82,-420.42"/>
<polygon fill="black" stroke="black" points="116.49,-418.15 107.79,-412.1 110.82,-422.26 116.49,-418.15"/>
<g id="a_edge2&#45;headlabel"><a xlink:href="dir_000025_000006.html" target="_top" xlink:title="26">
<text text-anchor="middle" x="120.9" y="-416.89" font-family="Helvetica,sans-Serif" font-size="10.00">26</text>
</a>
</g>
</g>
<!-- dir_a933ab6cde53f9fa4d29dc295cb0ac5f -->
<g id="node5" class="node">
<title>dir_a933ab6cde53f9fa4d29dc295cb0ac5f</title>
<g id="a_node5"><a xlink:href="dir_a933ab6cde53f9fa4d29dc295cb0ac5f.html" target="_top" xlink:title="grid">
<polygon fill="none" stroke="black" points="176,-196 122,-196 122,-160 176,-160 176,-196"/>
<text text-anchor="middle" x="149" y="-175.5" font-family="Helvetica,sans-Serif" font-size="10.00">grid</text>
</a>
</g>
</g>
<!-- dir_273e60b3573ce9ad58a4d725e6a36523&#45;&gt;dir_a933ab6cde53f9fa4d29dc295cb0ac5f -->
<g id="edge3" class="edge">
<title>dir_273e60b3573ce9ad58a4d725e6a36523&#45;&gt;dir_a933ab6cde53f9fa4d29dc295cb0ac5f</title>
<path fill="none" stroke="black" d="M158.87,-447.73C168.55,-418.38 191.83,-356.83 183,-304 177.17,-269.14 162.8,-230.99 154.22,-206.12"/>
<polygon fill="black" stroke="black" points="157.44,-204.69 150.95,-196.32 150.8,-206.91 157.44,-204.69"/>
<g id="a_edge3&#45;headlabel"><a xlink:href="dir_000025_000009.html" target="_top" xlink:title="4">
<text text-anchor="middle" x="161.27" y="-204.7" font-family="Helvetica,sans-Serif" font-size="10.00">4</text>
</a>
</g>
</g>
<!-- dir_1a6d8571b8eba91bded1d6534762df79 -->
<g id="node7" class="node">
<title>dir_1a6d8571b8eba91bded1d6534762df79</title>
<g id="a_node7"><a xlink:href="dir_1a6d8571b8eba91bded1d6534762df79.html" target="_top" xlink:title="dofs">
<polygon fill="#eeeeff" stroke="black" points="183,-340 129,-340 129,-304 183,-304 183,-340"/>
<text text-anchor="middle" x="156" y="-319.5" font-family="Helvetica,sans-Serif" font-size="10.00">dofs</text>
</a>
</g>
</g>
<!-- dir_273e60b3573ce9ad58a4d725e6a36523&#45;&gt;dir_1a6d8571b8eba91bded1d6534762df79 -->
<g id="edge1" class="edge">
<title>dir_273e60b3573ce9ad58a4d725e6a36523&#45;&gt;dir_1a6d8571b8eba91bded1d6534762df79</title>
<path fill="none" stroke="black" d="M151.42,-447.87C148.86,-423.67 148.57,-379.21 150.54,-350.39"/>
<polygon fill="black" stroke="black" points="154.05,-350.45 151.41,-340.19 147.07,-349.86 154.05,-350.45"/>
<g id="a_edge1&#45;headlabel"><a xlink:href="dir_000025_000027.html" target="_top" xlink:title="2">
<text text-anchor="middle" x="156.57" y="-351.77" font-family="Helvetica,sans-Serif" font-size="10.00">2</text>
</a>
</g>
</g>
<!-- dir_4022f63979af12af4c32ec9a4562b2df -->
<g id="node2" class="node">
<title>dir_4022f63979af12af4c32ec9a4562b2df</title>
<g id="a_node2"><a xlink:href="dir_4022f63979af12af4c32ec9a4562b2df.html" target="_top" xlink:title="hp">
<polygon fill="none" stroke="black" points="130,-268 76,-268 76,-232 130,-232 130,-268"/>
<text text-anchor="middle" x="103" y="-247.5" font-family="Helvetica,sans-Serif" font-size="10.00">hp</text>
</a>
</g>
</g>
<!-- dir_4022f63979af12af4c32ec9a4562b2df&#45;&gt;dir_90a2ad6518b731f1dc196d14153b8b6b -->
<g id="edge6" class="edge">
<title>dir_4022f63979af12af4c32ec9a4562b2df&#45;&gt;dir_90a2ad6518b731f1dc196d14153b8b6b</title>
<path fill="none" stroke="black" d="M107.23,-268.19C109.27,-292.42 108.62,-336.89 106.03,-365.68"/>
<polygon fill="black" stroke="black" points="102.52,-365.56 104.95,-375.87 109.49,-366.3 102.52,-365.56"/>
<g id="a_edge6&#45;headlabel"><a xlink:href="dir_000028_000006.html" target="_top" xlink:title="13">
<text text-anchor="middle" x="100.08" y="-359.18" font-family="Helvetica,sans-Serif" font-size="10.00">13</text>
</a>
</g>
</g>
<!-- dir_9706acb4d69a98d7c15ebe226493116f -->
<g id="node4" class="node">
<title>dir_9706acb4d69a98d7c15ebe226493116f</title>
<g id="a_node4"><a xlink:href="dir_9706acb4d69a98d7c15ebe226493116f.html" target="_top" xlink:title="fe">
<polygon fill="none" stroke="black" points="130,-124 76,-124 76,-88 130,-88 130,-124"/>
<text text-anchor="middle" x="103" y="-103.5" font-family="Helvetica,sans-Serif" font-size="10.00">fe</text>
</a>
</g>
</g>
<!-- dir_4022f63979af12af4c32ec9a4562b2df&#45;&gt;dir_9706acb4d69a98d7c15ebe226493116f -->
<g id="edge7" class="edge">
<title>dir_4022f63979af12af4c32ec9a4562b2df&#45;&gt;dir_9706acb4d69a98d7c15ebe226493116f</title>
<path fill="none" stroke="black" d="M98.42,-231.87C95.86,-207.67 95.57,-163.21 97.54,-134.39"/>
<polygon fill="black" stroke="black" points="101.05,-134.45 98.41,-124.19 94.07,-133.86 101.05,-134.45"/>
<g id="a_edge7&#45;headlabel"><a xlink:href="dir_000028_000008.html" target="_top" xlink:title="7">
<text text-anchor="middle" x="103.57" y="-135.77" font-family="Helvetica,sans-Serif" font-size="10.00">7</text>
</a>
</g>
</g>
<!-- dir_4022f63979af12af4c32ec9a4562b2df&#45;&gt;dir_a933ab6cde53f9fa4d29dc295cb0ac5f -->
<g id="edge8" class="edge">
<title>dir_4022f63979af12af4c32ec9a4562b2df&#45;&gt;dir_a933ab6cde53f9fa4d29dc295cb0ac5f</title>
<path fill="none" stroke="black" d="M108.46,-231.7C113.01,-223.47 119.37,-213.48 125.77,-204.42"/>
<polygon fill="black" stroke="black" points="128.78,-206.24 131.86,-196.1 123.13,-202.1 128.78,-206.24"/>
<g id="a_edge8&#45;headlabel"><a xlink:href="dir_000028_000009.html" target="_top" xlink:title="2">
<text text-anchor="middle" x="128.95" y="-208.32" font-family="Helvetica,sans-Serif" font-size="10.00">2</text>
</a>
</g>
</g>
<!-- dir_4022f63979af12af4c32ec9a4562b2df&#45;&gt;dir_1a6d8571b8eba91bded1d6534762df79 -->
<g id="edge5" class="edge">
<title>dir_4022f63979af12af4c32ec9a4562b2df&#45;&gt;dir_1a6d8571b8eba91bded1d6534762df79</title>
<path fill="none" stroke="black" d="M121.85,-268.1C128.91,-276.3 136.68,-286.28 143.12,-295.36"/>
<polygon fill="black" stroke="black" points="140.28,-297.42 148.81,-303.7 146.06,-293.47 140.28,-297.42"/>
<g id="a_edge5&#45;headlabel"><a xlink:href="dir_000028_000027.html" target="_top" xlink:title="2">
<text text-anchor="middle" x="135.91" y="-293.55" font-family="Helvetica,sans-Serif" font-size="10.00">2</text>
</a>
</g>
</g>
<!-- dir_90a2ad6518b731f1dc196d14153b8b6b&#45;&gt;dir_273e60b3573ce9ad58a4d725e6a36523 -->
<g id="edge16" class="edge">
<title>dir_90a2ad6518b731f1dc196d14153b8b6b&#45;&gt;dir_273e60b3573ce9ad58a4d725e6a36523</title>
<path fill="none" stroke="black" d="M119.58,-412.1C126.99,-420.3 135.19,-430.28 142.02,-439.36"/>
<polygon fill="black" stroke="black" points="139.36,-441.66 148.07,-447.7 145.03,-437.55 139.36,-441.66"/>
<g id="a_edge16&#45;headlabel"><a xlink:href="dir_000006_000025.html" target="_top" xlink:title="1">
<text text-anchor="middle" x="134.96" y="-437.92" font-family="Helvetica,sans-Serif" font-size="10.00">1</text>
</a>
</g>
</g>
<!-- dir_90a2ad6518b731f1dc196d14153b8b6b&#45;&gt;dir_4022f63979af12af4c32ec9a4562b2df -->
<g id="edge17" class="edge">
<title>dir_90a2ad6518b731f1dc196d14153b8b6b&#45;&gt;dir_4022f63979af12af4c32ec9a4562b2df</title>
<path fill="none" stroke="black" d="M95.78,-375.87C93.73,-351.67 94.38,-307.21 96.96,-278.39"/>
<polygon fill="black" stroke="black" points="100.47,-278.5 98.05,-268.19 93.51,-277.76 100.47,-278.5"/>
<g id="a_edge17&#45;headlabel"><a xlink:href="dir_000006_000028.html" target="_top" xlink:title="1">
<text text-anchor="middle" x="102.91" y="-279.88" font-family="Helvetica,sans-Serif" font-size="10.00">1</text>
</a>
</g>
</g>
<!-- dir_90a2ad6518b731f1dc196d14153b8b6b&#45;&gt;dir_9706acb4d69a98d7c15ebe226493116f -->
<g id="edge18" class="edge">
<title>dir_90a2ad6518b731f1dc196d14153b8b6b&#45;&gt;dir_9706acb4d69a98d7c15ebe226493116f</title>
<path fill="none" stroke="black" d="M86.98,-375.73C71.59,-346.39 50.54,-284.83 58,-232 62.93,-197.06 75.26,-158.2 86.16,-133.23"/>
<polygon fill="black" stroke="black" points="89.38,-134.6 90.4,-124.06 83.02,-131.66 89.38,-134.6"/>
<g id="a_edge18&#45;headlabel"><a xlink:href="dir_000006_000008.html" target="_top" xlink:title="4">
<text text-anchor="middle" x="90.44" y="-136.56" font-family="Helvetica,sans-Serif" font-size="10.00">4</text>
</a>
</g>
</g>
<!-- dir_90a2ad6518b731f1dc196d14153b8b6b&#45;&gt;dir_a933ab6cde53f9fa4d29dc295cb0ac5f -->
<g id="edge19" class="edge">
<title>dir_90a2ad6518b731f1dc196d14153b8b6b&#45;&gt;dir_a933ab6cde53f9fa4d29dc295cb0ac5f</title>
<path fill="none" stroke="black" d="M95.79,-375.89C96.4,-357.68 102.07,-328.22 111,-304 117.26,-287.03 124.68,-285.29 130,-268 136.21,-247.85 138.64,-224.07 140.9,-206.16"/>
<polygon fill="black" stroke="black" points="144.39,-206.5 142.28,-196.11 137.45,-205.55 144.39,-206.5"/>
<g id="a_edge19&#45;headlabel"><a xlink:href="dir_000006_000009.html" target="_top" xlink:title="8">
<text text-anchor="middle" x="146.71" y="-207.94" font-family="Helvetica,sans-Serif" font-size="10.00">8</text>
</a>
</g>
</g>
<!-- dir_b2430326e20a3ae038db3bac19f0573b -->
<g id="node6" class="node">
<title>dir_b2430326e20a3ae038db3bac19f0573b</title>
<g id="a_node6"><a xlink:href="dir_b2430326e20a3ae038db3bac19f0573b.html" target="_top" xlink:title="lac">
<polygon fill="none" stroke="black" points="130,-52 76,-52 76,-16 130,-16 130,-52"/>
<text text-anchor="middle" x="103" y="-31.5" font-family="Helvetica,sans-Serif" font-size="10.00">lac</text>
</a>
</g>
</g>
<!-- dir_90a2ad6518b731f1dc196d14153b8b6b&#45;&gt;dir_b2430326e20a3ae038db3bac19f0573b -->
<g id="edge20" class="edge">
<title>dir_90a2ad6518b731f1dc196d14153b8b6b&#45;&gt;dir_b2430326e20a3ae038db3bac19f0573b</title>
<path fill="none" stroke="black" d="M78.51,-375.91C70.36,-366.01 62.3,-352.96 58,-340 47.9,-309.52 53.33,-300.08 52,-268 49.54,-208.8 56.81,-91.61 58,-88 61.25,-78.18 66.88,-68.5 73.18,-60.15"/>
<polygon fill="black" stroke="black" points="75.99,-62.25 79.63,-52.3 70.58,-57.8 75.99,-62.25"/>
<g id="a_edge20&#45;headlabel"><a xlink:href="dir_000006_000007.html" target="_top" xlink:title="8">
<text text-anchor="middle" x="75.9" y="-64.33" font-family="Helvetica,sans-Serif" font-size="10.00">8</text>
</a>
</g>
</g>
<!-- dir_90a2ad6518b731f1dc196d14153b8b6b&#45;&gt;dir_1a6d8571b8eba91bded1d6534762df79 -->
<g id="edge15" class="edge">
<title>dir_90a2ad6518b731f1dc196d14153b8b6b&#45;&gt;dir_1a6d8571b8eba91bded1d6534762df79</title>
<path fill="none" stroke="black" d="M107.93,-375.7C113.77,-367.3 121.77,-357.07 129.62,-347.86"/>
<polygon fill="black" stroke="black" points="132.46,-349.93 136.42,-340.1 127.2,-345.32 132.46,-349.93"/>
<g id="a_edge15&#45;headlabel"><a xlink:href="dir_000006_000027.html" target="_top" xlink:title="2">
<text text-anchor="middle" x="132.22" y="-352.01" font-family="Helvetica,sans-Serif" font-size="10.00">2</text>
</a>
</g>
</g>
<!-- dir_9706acb4d69a98d7c15ebe226493116f&#45;&gt;dir_273e60b3573ce9ad58a4d725e6a36523 -->
<g id="edge28" class="edge">
<title>dir_9706acb4d69a98d7c15ebe226493116f&#45;&gt;dir_273e60b3573ce9ad58a4d725e6a36523</title>
<path fill="none" stroke="black" d="M89.64,-124.16C82.63,-134.09 74.56,-147.13 70,-160 32.57,-265.59 6.93,-315.59 64,-412 75.33,-431.13 96.4,-444 115.53,-452.26"/>
<polygon fill="black" stroke="black" points="114.41,-455.59 125,-456.06 117.02,-449.09 114.41,-455.59"/>
<g id="a_edge28&#45;headlabel"><a xlink:href="dir_000008_000025.html" target="_top" xlink:title="1">
<text text-anchor="middle" x="110.02" y="-454.38" font-family="Helvetica,sans-Serif" font-size="10.00">1</text>
</a>
</g>
</g>
<!-- dir_9706acb4d69a98d7c15ebe226493116f&#45;&gt;dir_4022f63979af12af4c32ec9a4562b2df -->
<g id="edge29" class="edge">
<title>dir_9706acb4d69a98d7c15ebe226493116f&#45;&gt;dir_4022f63979af12af4c32ec9a4562b2df</title>
<path fill="none" stroke="black" d="M107.59,-124.19C110.15,-148.42 110.43,-192.89 108.45,-221.68"/>
<polygon fill="black" stroke="black" points="104.95,-221.61 107.58,-231.87 111.92,-222.21 104.95,-221.61"/>
<g id="a_edge29&#45;headlabel"><a xlink:href="dir_000008_000028.html" target="_top" xlink:title="7">
<text text-anchor="middle" x="102.42" y="-215.29" font-family="Helvetica,sans-Serif" font-size="10.00">7</text>
</a>
</g>
</g>
<!-- dir_9706acb4d69a98d7c15ebe226493116f&#45;&gt;dir_90a2ad6518b731f1dc196d14153b8b6b -->
<g id="edge30" class="edge">
<title>dir_9706acb4d69a98d7c15ebe226493116f&#45;&gt;dir_90a2ad6518b731f1dc196d14153b8b6b</title>
<path fill="none" stroke="black" d="M102.45,-124.06C96.66,-147.82 81.59,-192.42 76,-232 69.3,-279.47 85.61,-333.97 95.07,-365.84"/>
<polygon fill="black" stroke="black" points="91.79,-367.12 97.97,-375.73 98.51,-365.15 91.79,-367.12"/>
<g id="a_edge30&#45;headlabel"><a xlink:href="dir_000008_000006.html" target="_top" xlink:title="191">
<text text-anchor="middle" x="88.06" y="-361.97" font-family="Helvetica,sans-Serif" font-size="10.00">191</text>
</a>
</g>
</g>
<!-- dir_9706acb4d69a98d7c15ebe226493116f&#45;&gt;dir_a933ab6cde53f9fa4d29dc295cb0ac5f -->
<g id="edge31" class="edge">
<title>dir_9706acb4d69a98d7c15ebe226493116f&#45;&gt;dir_a933ab6cde53f9fa4d29dc295cb0ac5f</title>
<path fill="none" stroke="black" d="M120.14,-124.1C126.25,-132.13 132.87,-141.87 138.34,-150.8"/>
<polygon fill="black" stroke="black" points="135.47,-152.83 143.54,-159.7 141.52,-149.3 135.47,-152.83"/>
<g id="a_edge31&#45;headlabel"><a xlink:href="dir_000008_000009.html" target="_top" xlink:title="9">
<text text-anchor="middle" x="131.21" y="-148.66" font-family="Helvetica,sans-Serif" font-size="10.00">9</text>
</a>
</g>
</g>
<!-- dir_9706acb4d69a98d7c15ebe226493116f&#45;&gt;dir_b2430326e20a3ae038db3bac19f0573b -->
<g id="edge32" class="edge">
<title>dir_9706acb4d69a98d7c15ebe226493116f&#45;&gt;dir_b2430326e20a3ae038db3bac19f0573b</title>
<path fill="none" stroke="black" d="M103,-87.7C103,-79.98 103,-70.71 103,-62.11"/>
<polygon fill="black" stroke="black" points="106.5,-62.1 103,-52.1 99.5,-62.1 106.5,-62.1"/>
<g id="a_edge32&#45;headlabel"><a xlink:href="dir_000008_000007.html" target="_top" xlink:title="7">
<text text-anchor="middle" x="109.34" y="-63.2" font-family="Helvetica,sans-Serif" font-size="10.00">7</text>
</a>
</g>
</g>
<!-- dir_9706acb4d69a98d7c15ebe226493116f&#45;&gt;dir_1a6d8571b8eba91bded1d6534762df79 -->
<g id="edge27" class="edge">
<title>dir_9706acb4d69a98d7c15ebe226493116f&#45;&gt;dir_1a6d8571b8eba91bded1d6534762df79</title>
<path fill="none" stroke="black" d="M130.28,-113.72C152.24,-121.43 181.03,-136.18 194,-160 217.58,-203.32 195.82,-261.96 176.58,-295.2"/>
<polygon fill="black" stroke="black" points="173.5,-293.51 171.25,-303.86 179.47,-297.17 173.5,-293.51"/>
<g id="a_edge27&#45;headlabel"><a xlink:href="dir_000008_000027.html" target="_top" xlink:title="6">
<text text-anchor="middle" x="172.97" y="-286.46" font-family="Helvetica,sans-Serif" font-size="10.00">6</text>
</a>
</g>
</g>
<!-- dir_a933ab6cde53f9fa4d29dc295cb0ac5f&#45;&gt;dir_273e60b3573ce9ad58a4d725e6a36523 -->
<g id="edge10" class="edge">
<title>dir_a933ab6cde53f9fa4d29dc295cb0ac5f&#45;&gt;dir_273e60b3573ce9ad58a4d725e6a36523</title>
<path fill="none" stroke="black" d="M163.1,-196.32C176.51,-220.02 194.34,-264.16 201,-304 209,-351.87 190.63,-406.92 174.69,-438.66"/>
<polygon fill="black" stroke="black" points="171.47,-437.26 169.85,-447.73 177.65,-440.55 171.47,-437.26"/>
<g id="a_edge10&#45;headlabel"><a xlink:href="dir_000009_000025.html" target="_top" xlink:title="2">
<text text-anchor="middle" x="170.66" y="-430.25" font-family="Helvetica,sans-Serif" font-size="10.00">2</text>
</a>
</g>
</g>
<!-- dir_a933ab6cde53f9fa4d29dc295cb0ac5f&#45;&gt;dir_4022f63979af12af4c32ec9a4562b2df -->
<g id="edge11" class="edge">
<title>dir_a933ab6cde53f9fa4d29dc295cb0ac5f&#45;&gt;dir_4022f63979af12af4c32ec9a4562b2df</title>
<path fill="none" stroke="black" d="M143.66,-196.1C139.13,-204.3 132.78,-214.28 126.38,-223.36"/>
<polygon fill="black" stroke="black" points="123.36,-221.56 120.29,-231.7 129.01,-225.69 123.36,-221.56"/>
<g id="a_edge11&#45;headlabel"><a xlink:href="dir_000009_000028.html" target="_top" xlink:title="1">
<text text-anchor="middle" x="123.19" y="-214.48" font-family="Helvetica,sans-Serif" font-size="10.00">1</text>
</a>
</g>
</g>
<!-- dir_a933ab6cde53f9fa4d29dc295cb0ac5f&#45;&gt;dir_90a2ad6518b731f1dc196d14153b8b6b -->
<g id="edge12" class="edge">
<title>dir_a933ab6cde53f9fa4d29dc295cb0ac5f&#45;&gt;dir_90a2ad6518b731f1dc196d14153b8b6b</title>
<path fill="none" stroke="black" d="M155.63,-196.11C157.47,-214.32 155.46,-243.78 148,-268 142.68,-285.29 135.26,-287.03 129,-304 121.53,-324.25 116.35,-348.15 111.78,-366.09"/>
<polygon fill="black" stroke="black" points="108.36,-365.32 109.14,-375.89 115.12,-367.14 108.36,-365.32"/>
<g id="a_edge12&#45;headlabel"><a xlink:href="dir_000009_000006.html" target="_top" xlink:title="89">
<text text-anchor="middle" x="106.55" y="-358.61" font-family="Helvetica,sans-Serif" font-size="10.00">89</text>
</a>
</g>
</g>
<!-- dir_a933ab6cde53f9fa4d29dc295cb0ac5f&#45;&gt;dir_9706acb4d69a98d7c15ebe226493116f -->
<g id="edge13" class="edge">
<title>dir_a933ab6cde53f9fa4d29dc295cb0ac5f&#45;&gt;dir_9706acb4d69a98d7c15ebe226493116f</title>
<path fill="none" stroke="black" d="M131.71,-159.7C125.59,-151.64 118.97,-141.89 113.53,-132.98"/>
<polygon fill="black" stroke="black" points="116.41,-130.98 108.34,-124.1 110.36,-134.51 116.41,-130.98"/>
<g id="a_edge13&#45;headlabel"><a xlink:href="dir_000009_000008.html" target="_top" xlink:title="3">
<text text-anchor="middle" x="120.67" y="-130.15" font-family="Helvetica,sans-Serif" font-size="10.00">3</text>
</a>
</g>
</g>
<!-- dir_a933ab6cde53f9fa4d29dc295cb0ac5f&#45;&gt;dir_b2430326e20a3ae038db3bac19f0573b -->
<g id="edge14" class="edge">
<title>dir_a933ab6cde53f9fa4d29dc295cb0ac5f&#45;&gt;dir_b2430326e20a3ae038db3bac19f0573b</title>
<path fill="none" stroke="black" d="M149.48,-159.71C149.44,-141.35 147.79,-111.77 139,-88 135.45,-78.4 129.8,-68.85 124.02,-60.56"/>
<polygon fill="black" stroke="black" points="126.77,-58.4 118.03,-52.42 121.14,-62.55 126.77,-58.4"/>
<g id="a_edge14&#45;headlabel"><a xlink:href="dir_000009_000007.html" target="_top" xlink:title="1">
<text text-anchor="middle" x="131.19" y="-57.11" font-family="Helvetica,sans-Serif" font-size="10.00">1</text>
</a>
</g>
</g>
<!-- dir_a933ab6cde53f9fa4d29dc295cb0ac5f&#45;&gt;dir_1a6d8571b8eba91bded1d6534762df79 -->
<g id="edge9" class="edge">
<title>dir_a933ab6cde53f9fa4d29dc295cb0ac5f&#45;&gt;dir_1a6d8571b8eba91bded1d6534762df79</title>
<path fill="none" stroke="black" d="M158.75,-196.16C161.02,-206.53 162.3,-220.01 163,-232 164.21,-252.7 164.7,-276.15 163.6,-293.77"/>
<polygon fill="black" stroke="black" points="160.09,-293.65 162.7,-303.92 167.07,-294.27 160.09,-293.65"/>
<g id="a_edge9&#45;headlabel"><a xlink:href="dir_000009_000027.html" target="_top" xlink:title="2">
<text text-anchor="middle" x="157.58" y="-287.32" font-family="Helvetica,sans-Serif" font-size="10.00">2</text>
</a>
</g>
</g>
<!-- dir_b2430326e20a3ae038db3bac19f0573b&#45;&gt;dir_90a2ad6518b731f1dc196d14153b8b6b -->
<g id="edge4" class="edge">
<title>dir_b2430326e20a3ae038db3bac19f0573b&#45;&gt;dir_90a2ad6518b731f1dc196d14153b8b6b</title>
<path fill="none" stroke="black" d="M95.59,-52.3C88.91,-62.06 80.33,-74.9 76,-88 74.81,-91.61 67.54,-208.8 70,-268 71.33,-300.08 65.9,-309.52 76,-340 79.12,-349.42 84.23,-358.88 89.1,-367.15"/>
<polygon fill="black" stroke="black" points="86.21,-369.14 94.36,-375.91 92.21,-365.53 86.21,-369.14"/>
<g id="a_edge4&#45;headlabel"><a xlink:href="dir_000007_000006.html" target="_top" xlink:title="312">
<text text-anchor="middle" x="81.93" y="-365.03" font-family="Helvetica,sans-Serif" font-size="10.00">312</text>
</a>
</g>
</g>
<!-- dir_1a6d8571b8eba91bded1d6534762df79&#45;&gt;dir_273e60b3573ce9ad58a4d725e6a36523 -->
<g id="edge21" class="edge">
<title>dir_1a6d8571b8eba91bded1d6534762df79&#45;&gt;dir_273e60b3573ce9ad58a4d725e6a36523</title>
<path fill="none" stroke="black" d="M160.59,-340.19C163.15,-364.42 163.43,-408.89 161.45,-437.68"/>
<polygon fill="black" stroke="black" points="157.95,-437.61 160.58,-447.87 164.92,-438.21 157.95,-437.61"/>
<g id="a_edge21&#45;headlabel"><a xlink:href="dir_000027_000025.html" target="_top" xlink:title="1">
<text text-anchor="middle" x="155.42" y="-431.29" font-family="Helvetica,sans-Serif" font-size="10.00">1</text>
</a>
</g>
</g>
<!-- dir_1a6d8571b8eba91bded1d6534762df79&#45;&gt;dir_4022f63979af12af4c32ec9a4562b2df -->
<g id="edge22" class="edge">
<title>dir_1a6d8571b8eba91bded1d6534762df79&#45;&gt;dir_4022f63979af12af4c32ec9a4562b2df</title>
<path fill="none" stroke="black" d="M136.98,-303.7C129.91,-295.47 122.14,-285.48 115.73,-276.42"/>
<polygon fill="black" stroke="black" points="118.58,-274.39 110.06,-268.1 112.8,-278.34 118.58,-274.39"/>
<g id="a_edge22&#45;headlabel"><a xlink:href="dir_000027_000028.html" target="_top" xlink:title="4">
<text text-anchor="middle" x="122.95" y="-273.26" font-family="Helvetica,sans-Serif" font-size="10.00">4</text>
</a>
</g>
</g>
<!-- dir_1a6d8571b8eba91bded1d6534762df79&#45;&gt;dir_90a2ad6518b731f1dc196d14153b8b6b -->
<g id="edge23" class="edge">
<title>dir_1a6d8571b8eba91bded1d6534762df79&#45;&gt;dir_90a2ad6518b731f1dc196d14153b8b6b</title>
<path fill="none" stroke="black" d="M148.21,-340.1C142.4,-348.47 134.42,-358.69 126.57,-367.92"/>
<polygon fill="black" stroke="black" points="123.71,-365.87 119.76,-375.7 128.98,-370.48 123.71,-365.87"/>
<g id="a_edge23&#45;headlabel"><a xlink:href="dir_000027_000006.html" target="_top" xlink:title="31">
<text text-anchor="middle" x="123.94" y="-358.79" font-family="Helvetica,sans-Serif" font-size="10.00">31</text>
</a>
</g>
</g>
<!-- dir_1a6d8571b8eba91bded1d6534762df79&#45;&gt;dir_9706acb4d69a98d7c15ebe226493116f -->
<g id="edge24" class="edge">
<title>dir_1a6d8571b8eba91bded1d6534762df79&#45;&gt;dir_9706acb4d69a98d7c15ebe226493116f</title>
<path fill="none" stroke="black" d="M160.61,-303.86C173.33,-273.12 201.8,-207.4 176,-160 167.82,-144.98 153.35,-133.56 139.37,-125.25"/>
<polygon fill="black" stroke="black" points="140.77,-122.02 130.33,-120.22 137.37,-128.14 140.77,-122.02"/>
<g id="a_edge24&#45;headlabel"><a xlink:href="dir_000027_000008.html" target="_top" xlink:title="1">
<text text-anchor="middle" x="145.29" y="-118.78" font-family="Helvetica,sans-Serif" font-size="10.00">1</text>
</a>
</g>
</g>
<!-- dir_1a6d8571b8eba91bded1d6534762df79&#45;&gt;dir_a933ab6cde53f9fa4d29dc295cb0ac5f -->
<g id="edge25" class="edge">
<title>dir_1a6d8571b8eba91bded1d6534762df79&#45;&gt;dir_a933ab6cde53f9fa4d29dc295cb0ac5f</title>
<path fill="none" stroke="black" d="M149.26,-303.92C146.87,-286 146.46,-257 145,-232 144.51,-223.66 143.75,-214.6 143.36,-206.37"/>
<polygon fill="black" stroke="black" points="146.85,-206.08 143.11,-196.16 139.85,-206.24 146.85,-206.08"/>
<g id="a_edge25&#45;headlabel"><a xlink:href="dir_000027_000009.html" target="_top" xlink:title="1">
<text text-anchor="middle" x="149.77" y="-207.1" font-family="Helvetica,sans-Serif" font-size="10.00">1</text>
</a>
</g>
</g>
<!-- dir_1a6d8571b8eba91bded1d6534762df79&#45;&gt;dir_b2430326e20a3ae038db3bac19f0573b -->
<g id="edge26" class="edge">
<title>dir_1a6d8571b8eba91bded1d6534762df79&#45;&gt;dir_b2430326e20a3ae038db3bac19f0573b</title>
<path fill="none" stroke="black" d="M171.39,-303.7C179.09,-293.94 187.67,-281.1 192,-268 207.07,-222.41 208.69,-206.02 195,-160 183.13,-120.09 152.06,-82.81 129.31,-59.54"/>
<polygon fill="black" stroke="black" points="131.5,-56.78 121.95,-52.19 126.56,-61.73 131.5,-56.78"/>
<g id="a_edge26&#45;headlabel"><a xlink:href="dir_000027_000007.html" target="_top" xlink:title="2">
<text text-anchor="middle" x="136.05" y="-54.81" font-family="Helvetica,sans-Serif" font-size="10.00">2</text>
</a>
</g>
</g>
</g>
</svg>
