<?xml version="1.0" encoding="UTF-8" standalone="no"?>
<!DOCTYPE svg PUBLIC "-//W3C//DTD SVG 1.1//EN"
 "http://www.w3.org/Graphics/SVG/1.1/DTD/svg11.dtd">
<!-- Generated by graphviz version 2.47.1 (20210417.1919)
 -->
<!-- Title: include/deal.II/differentiation/ad Pages: 1 -->
<svg width="186pt" height="188pt"
 viewBox="0.00 0.00 186.00 188.00" xmlns="http://www.w3.org/2000/svg" xmlns:xlink="http://www.w3.org/1999/xlink">
<g id="graph0" class="graph" transform="scale(1 1) rotate(0) translate(4 184)">
<title>include/deal.II/differentiation/ad</title>
<polygon fill="white" stroke="transparent" points="-4,4 -4,-184 182,-184 182,4 -4,4"/>
<g id="clust1" class="cluster">
<title>clusterdir_f3c5e5ce8027ac46c102eb7f94481274</title>
<g id="a_clust1"><a xlink:href="dir_f3c5e5ce8027ac46c102eb7f94481274.html" target="_top" xlink:title="differentiation">
<polygon fill="#ddddee" stroke="black" points="8,-64 8,-135 83,-135 83,-64 8,-64"/>
<text text-anchor="middle" x="45.5" y="-123" font-family="Helvetica,sans-Serif" font-size="10.00">differentiation</text>
</a>
</g>
</g>
<!-- dir_3b10fd41257b686e31e3422bb2254cec -->
<g id="node1" class="node">
<title>dir_3b10fd41257b686e31e3422bb2254cec</title>
<g id="a_node1"><a xlink:href="dir_3b10fd41257b686e31e3422bb2254cec.html" target="_top" xlink:title="ad">
<polygon fill="#eeeeff" stroke="black" points="74,-108 20,-108 20,-72 74,-72 74,-108"/>
<text text-anchor="middle" x="47" y="-87.5" font-family="Helvetica,sans-Serif" font-size="10.00">ad</text>
</a>
</g>
</g>
<!-- dir_90a2ad6518b731f1dc196d14153b8b6b -->
<g id="node2" class="node">
<title>dir_90a2ad6518b731f1dc196d14153b8b6b</title>
<g id="a_node2"><a xlink:href="dir_90a2ad6518b731f1dc196d14153b8b6b.html" target="_top" xlink:title="base">
<polygon fill="white" stroke="red" points="146,-180 92,-180 92,-144 146,-144 146,-180"/>
<text text-anchor="middle" x="119" y="-159.5" font-family="Helvetica,sans-Serif" font-size="10.00">base</text>
</a>
</g>
</g>
<!-- dir_3b10fd41257b686e31e3422bb2254cec&#45;&gt;dir_90a2ad6518b731f1dc196d14153b8b6b -->
<g id="edge3" class="edge">
<title>dir_3b10fd41257b686e31e3422bb2254cec&#45;&gt;dir_90a2ad6518b731f1dc196d14153b8b6b</title>
<path fill="none" stroke="black" d="M51.31,-108.19C56.93,-116.71 65.38,-126.88 74,-135 76.89,-137.72 80.06,-140.39 83.37,-142.93"/>
<polygon fill="black" stroke="black" points="81.6,-145.97 91.78,-148.91 85.66,-140.26 81.6,-145.97"/>
<g id="a_edge3&#45;headlabel"><a xlink:href="dir_000023_000006.html" target="_top" xlink:title="24">
<text text-anchor="middle" x="77.03" y="-143.7" font-family="Helvetica,sans-Serif" font-size="10.00">24</text>
</a>
</g>
</g>
<!-- dir_9706acb4d69a98d7c15ebe226493116f -->
<g id="node3" class="node">
<title>dir_9706acb4d69a98d7c15ebe226493116f</title>
<g id="a_node3"><a xlink:href="dir_9706acb4d69a98d7c15ebe226493116f.html" target="_top" xlink:title="fe">
<polygon fill="none" stroke="black" points="146,-108 92,-108 92,-72 146,-72 146,-108"/>
<text text-anchor="middle" x="119" y="-87.5" font-family="Helvetica,sans-Serif" font-size="10.00">fe</text>
</a>
</g>
</g>
<!-- dir_3b10fd41257b686e31e3422bb2254cec&#45;&gt;dir_9706acb4d69a98d7c15ebe226493116f -->
<g id="edge4" class="edge">
<title>dir_3b10fd41257b686e31e3422bb2254cec&#45;&gt;dir_9706acb4d69a98d7c15ebe226493116f</title>
<path fill="none" stroke="black" d="M74.28,-90C76.74,-90 79.19,-90 81.65,-90"/>
<polygon fill="black" stroke="black" points="81.75,-93.5 91.75,-90 81.75,-86.5 81.75,-93.5"/>
<g id="a_edge4&#45;headlabel"><a xlink:href="dir_000023_000008.html" target="_top" xlink:title="1">
<text text-anchor="middle" x="78.15" y="-93.84" font-family="Helvetica,sans-Serif" font-size="10.00">1</text>
</a>
</g>
</g>
<!-- dir_b2430326e20a3ae038db3bac19f0573b -->
<g id="node4" class="node">
<title>dir_b2430326e20a3ae038db3bac19f0573b</title>
<g id="a_node4"><a xlink:href="dir_b2430326e20a3ae038db3bac19f0573b.html" target="_top" xlink:title="lac">
<polygon fill="none" stroke="black" points="178,-36 124,-36 124,0 178,0 178,-36"/>
<text text-anchor="middle" x="151" y="-15.5" font-family="Helvetica,sans-Serif" font-size="10.00">lac</text>
</a>
</g>
</g>
<!-- dir_3b10fd41257b686e31e3422bb2254cec&#45;&gt;dir_b2430326e20a3ae038db3bac19f0573b -->
<g id="edge5" class="edge">
<title>dir_3b10fd41257b686e31e3422bb2254cec&#45;&gt;dir_b2430326e20a3ae038db3bac19f0573b</title>
<path fill="none" stroke="black" d="M62.46,-71.98C66.24,-69.3 70.22,-66.56 74,-64 87.14,-55.09 101.81,-45.36 114.91,-37.22"/>
<polygon fill="black" stroke="black" points="116.97,-40.07 123.69,-31.88 113.33,-34.09 116.97,-40.07"/>
<g id="a_edge5&#45;headlabel"><a xlink:href="dir_000023_000007.html" target="_top" xlink:title="4">
<text text-anchor="middle" x="115.37" y="-41.86" font-family="Helvetica,sans-Serif" font-size="10.00">4</text>
</a>
</g>
</g>
<!-- dir_90a2ad6518b731f1dc196d14153b8b6b&#45;&gt;dir_3b10fd41257b686e31e3422bb2254cec -->
<g id="edge6" class="edge">
<title>dir_90a2ad6518b731f1dc196d14153b8b6b&#45;&gt;dir_3b10fd41257b686e31e3422bb2254cec</title>
<path fill="none" stroke="black" d="M102.44,-143.9C98.88,-141.08 95.26,-138.07 92,-135 85.94,-129.29 79.96,-122.57 74.35,-116.11"/>
<polygon fill="black" stroke="black" points="76.66,-113.44 67.46,-108.19 71.38,-118.03 76.66,-113.44"/>
<g id="a_edge6&#45;headlabel"><a xlink:href="dir_000006_000023.html" target="_top" xlink:title="2">
<text text-anchor="middle" x="81.16" y="-111.79" font-family="Helvetica,sans-Serif" font-size="10.00">2</text>
</a>
</g>
</g>
<!-- dir_90a2ad6518b731f1dc196d14153b8b6b&#45;&gt;dir_9706acb4d69a98d7c15ebe226493116f -->
<g id="edge7" class="edge">
<title>dir_90a2ad6518b731f1dc196d14153b8b6b&#45;&gt;dir_9706acb4d69a98d7c15ebe226493116f</title>
<path fill="none" stroke="black" d="M113.08,-143.7C112.29,-135.98 112.06,-126.71 112.4,-118.11"/>
<polygon fill="black" stroke="black" points="115.9,-118.32 113.1,-108.1 108.92,-117.84 115.9,-118.32"/>
<g id="a_edge7&#45;headlabel"><a xlink:href="dir_000006_000008.html" target="_top" xlink:title="4">
<text text-anchor="middle" x="118.48" y="-119.61" font-family="Helvetica,sans-Serif" font-size="10.00">4</text>
</a>
</g>
</g>
<!-- dir_90a2ad6518b731f1dc196d14153b8b6b&#45;&gt;dir_b2430326e20a3ae038db3bac19f0573b -->
<g id="edge8" class="edge">
<title>dir_90a2ad6518b731f1dc196d14153b8b6b&#45;&gt;dir_b2430326e20a3ae038db3bac19f0573b</title>
<path fill="none" stroke="black" d="M139.4,-143.92C142,-141.27 144.32,-138.29 146,-135 160.14,-107.34 155.8,-70.92 152.07,-46.32"/>
<polygon fill="black" stroke="black" points="155.5,-45.6 150.52,-36.25 148.58,-46.67 155.5,-45.6"/>
<g id="a_edge8&#45;headlabel"><a xlink:href="dir_000006_000007.html" target="_top" xlink:title="8">
<text text-anchor="middle" x="158.86" y="-46.22" font-family="Helvetica,sans-Serif" font-size="10.00">8</text>
</a>
</g>
</g>
<!-- dir_9706acb4d69a98d7c15ebe226493116f&#45;&gt;dir_90a2ad6518b731f1dc196d14153b8b6b -->
<g id="edge9" class="edge">
<title>dir_9706acb4d69a98d7c15ebe226493116f&#45;&gt;dir_90a2ad6518b731f1dc196d14153b8b6b</title>
<path fill="none" stroke="black" d="M124.9,-108.1C125.7,-115.79 125.94,-125.05 125.6,-133.67"/>
<polygon fill="black" stroke="black" points="122.11,-133.48 124.92,-143.7 129.09,-133.96 122.11,-133.48"/>
<g id="a_edge9&#45;headlabel"><a xlink:href="dir_000008_000006.html" target="_top" xlink:title="191">
<text text-anchor="middle" x="119.52" y="-127.2" font-family="Helvetica,sans-Serif" font-size="10.00">191</text>
</a>
</g>
</g>
<!-- dir_9706acb4d69a98d7c15ebe226493116f&#45;&gt;dir_b2430326e20a3ae038db3bac19f0573b -->
<g id="edge10" class="edge">
<title>dir_9706acb4d69a98d7c15ebe226493116f&#45;&gt;dir_b2430326e20a3ae038db3bac19f0573b</title>
<path fill="none" stroke="black" d="M126.91,-71.7C130.55,-63.73 134.95,-54.1 138.99,-45.26"/>
<polygon fill="black" stroke="black" points="142.21,-46.65 143.18,-36.1 135.84,-43.74 142.21,-46.65"/>
<g id="a_edge10&#45;headlabel"><a xlink:href="dir_000008_000007.html" target="_top" xlink:title="7">
<text text-anchor="middle" x="143.29" y="-48.6" font-family="Helvetica,sans-Serif" font-size="10.00">7</text>
</a>
</g>
</g>
<!-- dir_b2430326e20a3ae038db3bac19f0573b&#45;&gt;dir_3b10fd41257b686e31e3422bb2254cec -->
<g id="edge1" class="edge">
<title>dir_b2430326e20a3ae038db3bac19f0573b&#45;&gt;dir_3b10fd41257b686e31e3422bb2254cec</title>
<path fill="none" stroke="black" d="M132.89,-36.17C121.09,-44.51 105.71,-54.71 92,-64 88.99,-66.04 85.85,-68.19 82.67,-70.34"/>
<polygon fill="black" stroke="black" points="80.63,-67.49 74.24,-75.94 84.5,-73.32 80.63,-67.49"/>
<g id="a_edge1&#45;headlabel"><a xlink:href="dir_000007_000023.html" target="_top" xlink:title="2">
<text text-anchor="middle" x="82.05" y="-60.64" font-family="Helvetica,sans-Serif" font-size="10.00">2</text>
</a>
</g>
</g>
<!-- dir_b2430326e20a3ae038db3bac19f0573b&#45;&gt;dir_90a2ad6518b731f1dc196d14153b8b6b -->
<g id="edge2" class="edge">
<title>dir_b2430326e20a3ae038db3bac19f0573b&#45;&gt;dir_90a2ad6518b731f1dc196d14153b8b6b</title>
<path fill="none" stroke="black" d="M162.57,-36.25C172.11,-59.95 180.24,-103.24 164,-135 161.79,-139.32 158.49,-143.09 154.64,-146.31"/>
<polygon fill="black" stroke="black" points="152.38,-143.62 146.12,-152.18 156.35,-149.39 152.38,-143.62"/>
<g id="a_edge2&#45;headlabel"><a xlink:href="dir_000007_000006.html" target="_top" xlink:title="312">
<text text-anchor="middle" x="153.73" y="-136.75" font-family="Helvetica,sans-Serif" font-size="10.00">312</text>
</a>
</g>
</g>
</g>
</svg>
