<?xml version="1.0" encoding="UTF-8" standalone="no"?>
<!DOCTYPE svg PUBLIC "-//W3C//DTD SVG 1.1//EN"
 "http://www.w3.org/Graphics/SVG/1.1/DTD/svg11.dtd">
<!-- Generated by graphviz version 2.47.1 (20210417.1919)
 -->
<!-- Title: source/physics Pages: 1 -->
<svg width="184pt" height="159pt"
 viewBox="0.00 0.00 184.00 159.00" xmlns="http://www.w3.org/2000/svg" xmlns:xlink="http://www.w3.org/1999/xlink">
<g id="graph0" class="graph" transform="scale(1 1) rotate(0) translate(4 155)">
<title>source/physics</title>
<polygon fill="white" stroke="transparent" points="-4,4 -4,-155 180,-155 180,4 -4,4"/>
<g id="clust1" class="cluster">
<title>clusterdir_b2f33c71d4aa5e7af42a1ca61ff5af1b</title>
<g id="a_clust1"><a xlink:href="dir_b2f33c71d4aa5e7af42a1ca61ff5af1b.html" target="_top" xlink:title="source">
<polygon fill="#ddddee" stroke="black" points="8,-56 8,-143 168,-143 168,-56 8,-56"/>
<text text-anchor="middle" x="88" y="-131" font-family="Helvetica,sans-Serif" font-size="10.00">source</text>
</a>
</g>
</g>
<g id="clust2" class="cluster">
<title>clusterdir_0bb6fb3955098fc73677280bd611af3b</title>
<g id="a_clust2"><a xlink:href="dir_0bb6fb3955098fc73677280bd611af3b.html" target="_top">
<polygon fill="#eeeeff" stroke="black" points="16,-64 16,-116 160,-116 160,-64 16,-64"/>
</a>
</g>
</g>
<!-- dir_0bb6fb3955098fc73677280bd611af3b -->
<g id="node1" class="node">
<title>dir_0bb6fb3955098fc73677280bd611af3b</title>
<text text-anchor="middle" x="125" y="-87.5" font-family="Helvetica,sans-Serif" font-size="10.00">physics</text>
</g>
<!-- dir_f215eb141b500f4fd01e0bf94bafbb14 -->
<g id="node2" class="node">
<title>dir_f215eb141b500f4fd01e0bf94bafbb14</title>
<g id="a_node2"><a xlink:href="dir_f215eb141b500f4fd01e0bf94bafbb14.html" target="_top" xlink:title="elasticity">
<polygon fill="white" stroke="black" points="80,-108 24,-108 24,-72 80,-72 80,-108"/>
<text text-anchor="middle" x="52" y="-87.5" font-family="Helvetica,sans-Serif" font-size="10.00">elasticity</text>
</a>
</g>
</g>
<!-- dir_d44c64559bbebec7f509842c48db8b23 -->
<g id="node3" class="node">
<title>dir_d44c64559bbebec7f509842c48db8b23</title>
<g id="a_node3"><a xlink:href="dir_d44c64559bbebec7f509842c48db8b23.html" target="_top" xlink:title="include">
<polygon fill="white" stroke="red" points="79,-36 25,-36 25,0 79,0 79,-36"/>
<text text-anchor="middle" x="52" y="-15.5" font-family="Helvetica,sans-Serif" font-size="10.00">include</text>
</a>
</g>
</g>
<!-- dir_f215eb141b500f4fd01e0bf94bafbb14&#45;&gt;dir_d44c64559bbebec7f509842c48db8b23 -->
<g id="edge1" class="edge">
<title>dir_f215eb141b500f4fd01e0bf94bafbb14&#45;&gt;dir_d44c64559bbebec7f509842c48db8b23</title>
<path fill="none" stroke="black" d="M52,-71.7C52,-63.98 52,-54.71 52,-46.11"/>
<polygon fill="black" stroke="black" points="55.5,-46.1 52,-36.1 48.5,-46.1 55.5,-46.1"/>
<g id="a_edge1&#45;headlabel"><a xlink:href="dir_000061_000004.html" target="_top" xlink:title="3">
<text text-anchor="middle" x="58.34" y="-47.2" font-family="Helvetica,sans-Serif" font-size="10.00">3</text>
</a>
</g>
</g>
</g>
</svg>
