<?xml version="1.0" encoding="UTF-8" standalone="no"?>
<!DOCTYPE svg PUBLIC "-//W3C//DTD SVG 1.1//EN"
 "http://www.w3.org/Graphics/SVG/1.1/DTD/svg11.dtd">
<!-- Generated by graphviz version 2.47.1 (20210417.1919)
 -->
<!-- Title: include/deal.II/base Pages: 1 -->
<svg width="516pt" height="599pt"
 viewBox="0.00 0.00 516.00 599.00" xmlns="http://www.w3.org/2000/svg" xmlns:xlink="http://www.w3.org/1999/xlink">
<g id="graph0" class="graph" transform="scale(1 1) rotate(0) translate(4 595)">
<title>include/deal.II/base</title>
<polygon fill="white" stroke="transparent" points="-4,4 -4,-595 512,-595 512,4 -4,4"/>
<g id="clust1" class="cluster">
<title>clusterdir_ee90d91a514b839c31faec7a1d916f67</title>
<g id="a_clust1"><a xlink:href="dir_ee90d91a514b839c31faec7a1d916f67.html" target="_top" xlink:title="deal.II">
<polygon fill="#ddddee" stroke="black" points="8,-8 8,-583 500,-583 500,-8 8,-8"/>
<text text-anchor="middle" x="254" y="-571" font-family="Helvetica,sans-Serif" font-size="10.00">deal.II</text>
</a>
</g>
</g>
<g id="clust2" class="cluster">
<title>clusterdir_90a2ad6518b731f1dc196d14153b8b6b</title>
<g id="a_clust2"><a xlink:href="dir_90a2ad6518b731f1dc196d14153b8b6b.html" target="_top">
<polygon fill="#eeeeff" stroke="black" points="240,-80 240,-204 398,-204 398,-80 240,-80"/>
</a>
</g>
</g>
<!-- dir_1a6d8571b8eba91bded1d6534762df79 -->
<g id="node1" class="node">
<title>dir_1a6d8571b8eba91bded1d6534762df79</title>
<g id="a_node1"><a xlink:href="dir_1a6d8571b8eba91bded1d6534762df79.html" target="_top" xlink:title="dofs">
<polygon fill="none" stroke="black" points="154,-556 100,-556 100,-520 154,-520 154,-556"/>
<text text-anchor="middle" x="127" y="-535.5" font-family="Helvetica,sans-Serif" font-size="10.00">dofs</text>
</a>
</g>
</g>
<!-- dir_273e60b3573ce9ad58a4d725e6a36523 -->
<g id="node2" class="node">
<title>dir_273e60b3573ce9ad58a4d725e6a36523</title>
<g id="a_node2"><a xlink:href="dir_273e60b3573ce9ad58a4d725e6a36523.html" target="_top" xlink:title="distributed">
<polygon fill="none" stroke="black" points="208,-484 146,-484 146,-448 208,-448 208,-484"/>
<text text-anchor="middle" x="177" y="-463.5" font-family="Helvetica,sans-Serif" font-size="10.00">distributed</text>
</a>
</g>
</g>
<!-- dir_1a6d8571b8eba91bded1d6534762df79&#45;&gt;dir_273e60b3573ce9ad58a4d725e6a36523 -->
<g id="edge34" class="edge">
<title>dir_1a6d8571b8eba91bded1d6534762df79&#45;&gt;dir_273e60b3573ce9ad58a4d725e6a36523</title>
<path fill="none" stroke="black" d="M133.44,-519.7C138.52,-511.39 145.55,-501.28 152.54,-492.14"/>
<polygon fill="black" stroke="black" points="155.43,-494.12 158.89,-484.1 149.94,-489.78 155.43,-494.12"/>
<g id="a_edge34&#45;headlabel"><a xlink:href="dir_000027_000025.html" target="_top" xlink:title="1">
<text text-anchor="middle" x="155.43" y="-496.2" font-family="Helvetica,sans-Serif" font-size="10.00">1</text>
</a>
</g>
</g>
<!-- dir_4022f63979af12af4c32ec9a4562b2df -->
<g id="node3" class="node">
<title>dir_4022f63979af12af4c32ec9a4562b2df</title>
<g id="a_node3"><a xlink:href="dir_4022f63979af12af4c32ec9a4562b2df.html" target="_top" xlink:title="hp">
<polygon fill="none" stroke="black" points="153,-52 99,-52 99,-16 153,-16 153,-52"/>
<text text-anchor="middle" x="126" y="-31.5" font-family="Helvetica,sans-Serif" font-size="10.00">hp</text>
</a>
</g>
</g>
<!-- dir_1a6d8571b8eba91bded1d6534762df79&#45;&gt;dir_4022f63979af12af4c32ec9a4562b2df -->
<g id="edge35" class="edge">
<title>dir_1a6d8571b8eba91bded1d6534762df79&#45;&gt;dir_4022f63979af12af4c32ec9a4562b2df</title>
<path fill="none" stroke="black" d="M99.73,-528.05C79.98,-519.22 54.54,-504.13 39,-484 13.4,-450.85 8,-436.89 8,-395 8,-395 8,-395 8,-177 8,-124.57 55.34,-79.58 90.2,-54.98"/>
<polygon fill="black" stroke="black" points="92.44,-57.69 98.75,-49.18 88.51,-51.9 92.44,-57.69"/>
<g id="a_edge35&#45;headlabel"><a xlink:href="dir_000027_000028.html" target="_top" xlink:title="4">
<text text-anchor="middle" x="91.06" y="-59.56" font-family="Helvetica,sans-Serif" font-size="10.00">4</text>
</a>
</g>
</g>
<!-- dir_9706acb4d69a98d7c15ebe226493116f -->
<g id="node5" class="node">
<title>dir_9706acb4d69a98d7c15ebe226493116f</title>
<g id="a_node5"><a xlink:href="dir_9706acb4d69a98d7c15ebe226493116f.html" target="_top" xlink:title="fe">
<polygon fill="none" stroke="black" points="158,-196 104,-196 104,-160 158,-160 158,-196"/>
<text text-anchor="middle" x="131" y="-175.5" font-family="Helvetica,sans-Serif" font-size="10.00">fe</text>
</a>
</g>
</g>
<!-- dir_1a6d8571b8eba91bded1d6534762df79&#45;&gt;dir_9706acb4d69a98d7c15ebe226493116f -->
<g id="edge37" class="edge">
<title>dir_1a6d8571b8eba91bded1d6534762df79&#45;&gt;dir_9706acb4d69a98d7c15ebe226493116f</title>
<path fill="none" stroke="black" d="M120.65,-519.73C110.57,-473.13 97.82,-340.97 110,-232 110.97,-223.33 112.8,-214.02 115.17,-205.65"/>
<polygon fill="black" stroke="black" points="118.54,-206.61 118.31,-196.02 111.88,-204.45 118.54,-206.61"/>
<g id="a_edge37&#45;headlabel"><a xlink:href="dir_000027_000008.html" target="_top" xlink:title="1">
<text text-anchor="middle" x="120.13" y="-208.41" font-family="Helvetica,sans-Serif" font-size="10.00">1</text>
</a>
</g>
</g>
<!-- dir_a933ab6cde53f9fa4d29dc295cb0ac5f -->
<g id="node6" class="node">
<title>dir_a933ab6cde53f9fa4d29dc295cb0ac5f</title>
<g id="a_node6"><a xlink:href="dir_a933ab6cde53f9fa4d29dc295cb0ac5f.html" target="_top" xlink:title="grid">
<polygon fill="none" stroke="black" points="204,-412 150,-412 150,-376 204,-376 204,-412"/>
<text text-anchor="middle" x="177" y="-391.5" font-family="Helvetica,sans-Serif" font-size="10.00">grid</text>
</a>
</g>
</g>
<!-- dir_1a6d8571b8eba91bded1d6534762df79&#45;&gt;dir_a933ab6cde53f9fa4d29dc295cb0ac5f -->
<g id="edge38" class="edge">
<title>dir_1a6d8571b8eba91bded1d6534762df79&#45;&gt;dir_a933ab6cde53f9fa4d29dc295cb0ac5f</title>
<path fill="none" stroke="black" d="M119.66,-519.96C117.11,-501.55 118.56,-471.69 128,-448 132.01,-437.94 138.47,-428.12 145.48,-419.73"/>
<polygon fill="black" stroke="black" points="148.21,-421.92 152.31,-412.15 143.01,-417.23 148.21,-421.92"/>
<g id="a_edge38&#45;headlabel"><a xlink:href="dir_000027_000009.html" target="_top" xlink:title="1">
<text text-anchor="middle" x="147.91" y="-423.99" font-family="Helvetica,sans-Serif" font-size="10.00">1</text>
</a>
</g>
</g>
<!-- dir_b2430326e20a3ae038db3bac19f0573b -->
<g id="node7" class="node">
<title>dir_b2430326e20a3ae038db3bac19f0573b</title>
<g id="a_node7"><a xlink:href="dir_b2430326e20a3ae038db3bac19f0573b.html" target="_top" xlink:title="lac">
<polygon fill="none" stroke="black" points="301,-340 247,-340 247,-304 301,-304 301,-340"/>
<text text-anchor="middle" x="274" y="-319.5" font-family="Helvetica,sans-Serif" font-size="10.00">lac</text>
</a>
</g>
</g>
<!-- dir_1a6d8571b8eba91bded1d6534762df79&#45;&gt;dir_b2430326e20a3ae038db3bac19f0573b -->
<g id="edge39" class="edge">
<title>dir_1a6d8571b8eba91bded1d6534762df79&#45;&gt;dir_b2430326e20a3ae038db3bac19f0573b</title>
<path fill="none" stroke="black" d="M154.07,-527.01C173.99,-518.4 200.39,-504.15 217,-484 249.59,-444.46 264.16,-384.95 270.18,-350.44"/>
<polygon fill="black" stroke="black" points="273.7,-350.6 271.85,-340.17 266.79,-349.48 273.7,-350.6"/>
<g id="a_edge39&#45;headlabel"><a xlink:href="dir_000027_000007.html" target="_top" xlink:title="2">
<text text-anchor="middle" x="275.92" y="-352.1" font-family="Helvetica,sans-Serif" font-size="10.00">2</text>
</a>
</g>
</g>
<!-- dir_90a2ad6518b731f1dc196d14153b8b6b -->
<g id="node10" class="node">
<title>dir_90a2ad6518b731f1dc196d14153b8b6b</title>
<text text-anchor="middle" x="363" y="-175.5" font-family="Helvetica,sans-Serif" font-size="10.00">base</text>
</g>
<!-- dir_1a6d8571b8eba91bded1d6534762df79&#45;&gt;dir_90a2ad6518b731f1dc196d14153b8b6b -->
<g id="edge36" class="edge">
<title>dir_1a6d8571b8eba91bded1d6534762df79&#45;&gt;dir_90a2ad6518b731f1dc196d14153b8b6b</title>
<path fill="none" stroke="black" d="M154.28,-531.87C235.64,-515.8 471,-463.41 471,-395 471,-395 471,-395 471,-321 471,-280.14 472.17,-264.94 448,-232 435.76,-215.32 416.54,-202.7 399.47,-193.96"/>
<polygon fill="black" stroke="black" points="400.79,-190.71 390.27,-189.51 397.74,-197.02 400.79,-190.71"/>
<g id="a_edge36&#45;headlabel"><a xlink:href="dir_000027_000006.html" target="_top" xlink:title="31">
<text text-anchor="middle" x="405.26" y="-187.22" font-family="Helvetica,sans-Serif" font-size="10.00">31</text>
</a>
</g>
</g>
<!-- dir_273e60b3573ce9ad58a4d725e6a36523&#45;&gt;dir_1a6d8571b8eba91bded1d6534762df79 -->
<g id="edge2" class="edge">
<title>dir_273e60b3573ce9ad58a4d725e6a36523&#45;&gt;dir_1a6d8571b8eba91bded1d6534762df79</title>
<path fill="none" stroke="black" d="M170.68,-484.1C165.63,-492.38 158.62,-502.49 151.63,-511.64"/>
<polygon fill="black" stroke="black" points="148.72,-509.68 145.28,-519.7 154.22,-514.01 148.72,-509.68"/>
<g id="a_edge2&#45;headlabel"><a xlink:href="dir_000025_000027.html" target="_top" xlink:title="2">
<text text-anchor="middle" x="148.72" y="-502.6" font-family="Helvetica,sans-Serif" font-size="10.00">2</text>
</a>
</g>
</g>
<!-- dir_5c2eb6d9a7a6f1e9cd32e0e8abf42ca6 -->
<g id="node4" class="node">
<title>dir_5c2eb6d9a7a6f1e9cd32e0e8abf42ca6</title>
<g id="a_node4"><a xlink:href="dir_5c2eb6d9a7a6f1e9cd32e0e8abf42ca6.html" target="_top" xlink:title="numerics">
<polygon fill="none" stroke="black" points="201,-124 145,-124 145,-88 201,-88 201,-124"/>
<text text-anchor="middle" x="173" y="-103.5" font-family="Helvetica,sans-Serif" font-size="10.00">numerics</text>
</a>
</g>
</g>
<!-- dir_273e60b3573ce9ad58a4d725e6a36523&#45;&gt;dir_5c2eb6d9a7a6f1e9cd32e0e8abf42ca6 -->
<g id="edge3" class="edge">
<title>dir_273e60b3573ce9ad58a4d725e6a36523&#45;&gt;dir_5c2eb6d9a7a6f1e9cd32e0e8abf42ca6</title>
<path fill="none" stroke="black" d="M156.26,-447.94C146.12,-438.44 134.67,-425.75 128,-412 87.14,-327.79 102.36,-297.31 95,-204 93.46,-184.5 85.85,-177.28 95,-160 103.77,-143.43 120.31,-131.08 135.9,-122.49"/>
<polygon fill="black" stroke="black" points="137.61,-125.54 144.91,-117.86 134.42,-119.32 137.61,-125.54"/>
<g id="a_edge3&#45;headlabel"><a xlink:href="dir_000025_000026.html" target="_top" xlink:title="2">
<text text-anchor="middle" x="135.71" y="-127.21" font-family="Helvetica,sans-Serif" font-size="10.00">2</text>
</a>
</g>
</g>
<!-- dir_273e60b3573ce9ad58a4d725e6a36523&#45;&gt;dir_a933ab6cde53f9fa4d29dc295cb0ac5f -->
<g id="edge5" class="edge">
<title>dir_273e60b3573ce9ad58a4d725e6a36523&#45;&gt;dir_a933ab6cde53f9fa4d29dc295cb0ac5f</title>
<path fill="none" stroke="black" d="M171.08,-447.7C170.29,-439.98 170.06,-430.71 170.4,-422.11"/>
<polygon fill="black" stroke="black" points="173.9,-422.32 171.1,-412.1 166.92,-421.84 173.9,-422.32"/>
<g id="a_edge5&#45;headlabel"><a xlink:href="dir_000025_000009.html" target="_top" xlink:title="4">
<text text-anchor="middle" x="176.48" y="-423.61" font-family="Helvetica,sans-Serif" font-size="10.00">4</text>
</a>
</g>
</g>
<!-- dir_273e60b3573ce9ad58a4d725e6a36523&#45;&gt;dir_90a2ad6518b731f1dc196d14153b8b6b -->
<g id="edge4" class="edge">
<title>dir_273e60b3573ce9ad58a4d725e6a36523&#45;&gt;dir_90a2ad6518b731f1dc196d14153b8b6b</title>
<path fill="none" stroke="black" d="M208.34,-462.03C266.14,-455.93 386.32,-440.15 416,-412 474.4,-356.6 472.55,-303.71 436,-232 428.05,-216.4 413.12,-204.32 398.82,-195.66"/>
<polygon fill="black" stroke="black" points="400.5,-192.58 390.07,-190.7 397.05,-198.67 400.5,-192.58"/>
<g id="a_edge4&#45;headlabel"><a xlink:href="dir_000025_000006.html" target="_top" xlink:title="26">
<text text-anchor="middle" x="405.03" y="-189.38" font-family="Helvetica,sans-Serif" font-size="10.00">26</text>
</a>
</g>
</g>
<!-- dir_4022f63979af12af4c32ec9a4562b2df&#45;&gt;dir_1a6d8571b8eba91bded1d6534762df79 -->
<g id="edge10" class="edge">
<title>dir_4022f63979af12af4c32ec9a4562b2df&#45;&gt;dir_1a6d8571b8eba91bded1d6534762df79</title>
<path fill="none" stroke="black" d="M106.54,-52.11C77.23,-75.96 26,-122.46 26,-177 26,-395 26,-395 26,-395 26,-436.89 31.4,-450.85 57,-484 66.26,-495.99 79.03,-506.2 91.19,-514.35"/>
<polygon fill="black" stroke="black" points="89.57,-517.47 99.87,-519.93 93.35,-511.58 89.57,-517.47"/>
<g id="a_edge10&#45;headlabel"><a xlink:href="dir_000028_000027.html" target="_top" xlink:title="2">
<text text-anchor="middle" x="85.01" y="-515.42" font-family="Helvetica,sans-Serif" font-size="10.00">2</text>
</a>
</g>
</g>
<!-- dir_4022f63979af12af4c32ec9a4562b2df&#45;&gt;dir_9706acb4d69a98d7c15ebe226493116f -->
<g id="edge12" class="edge">
<title>dir_4022f63979af12af4c32ec9a4562b2df&#45;&gt;dir_9706acb4d69a98d7c15ebe226493116f</title>
<path fill="none" stroke="black" d="M131.2,-52.19C134.6,-76.42 136.46,-120.89 135.49,-149.68"/>
<polygon fill="black" stroke="black" points="131.99,-149.71 134.98,-159.87 138.98,-150.06 131.99,-149.71"/>
<g id="a_edge12&#45;headlabel"><a xlink:href="dir_000028_000008.html" target="_top" xlink:title="7">
<text text-anchor="middle" x="129.33" y="-143.48" font-family="Helvetica,sans-Serif" font-size="10.00">7</text>
</a>
</g>
</g>
<!-- dir_4022f63979af12af4c32ec9a4562b2df&#45;&gt;dir_a933ab6cde53f9fa4d29dc295cb0ac5f -->
<g id="edge13" class="edge">
<title>dir_4022f63979af12af4c32ec9a4562b2df&#45;&gt;dir_a933ab6cde53f9fa4d29dc295cb0ac5f</title>
<path fill="none" stroke="black" d="M123.8,-52.32C114.99,-82.97 92.71,-148.76 104,-204 116.53,-265.34 150.26,-331.16 167.47,-366.65"/>
<polygon fill="black" stroke="black" points="164.38,-368.32 171.85,-375.83 170.7,-365.3 164.38,-368.32"/>
<g id="a_edge13&#45;headlabel"><a xlink:href="dir_000028_000009.html" target="_top" xlink:title="2">
<text text-anchor="middle" x="160.27" y="-363.8" font-family="Helvetica,sans-Serif" font-size="10.00">2</text>
</a>
</g>
</g>
<!-- dir_4022f63979af12af4c32ec9a4562b2df&#45;&gt;dir_90a2ad6518b731f1dc196d14153b8b6b -->
<g id="edge11" class="edge">
<title>dir_4022f63979af12af4c32ec9a4562b2df&#45;&gt;dir_90a2ad6518b731f1dc196d14153b8b6b</title>
<path fill="none" stroke="black" d="M153.25,-37.5C219.2,-43.84 383.15,-61.32 399,-80 416.55,-100.67 400.88,-130.7 385.07,-151.85"/>
<polygon fill="black" stroke="black" points="382.28,-149.74 378.84,-159.77 387.78,-154.07 382.28,-149.74"/>
<g id="a_edge11&#45;headlabel"><a xlink:href="dir_000028_000006.html" target="_top" xlink:title="13">
<text text-anchor="middle" x="382.27" y="-142.66" font-family="Helvetica,sans-Serif" font-size="10.00">13</text>
</a>
</g>
</g>
<!-- dir_5c2eb6d9a7a6f1e9cd32e0e8abf42ca6&#45;&gt;dir_1a6d8571b8eba91bded1d6534762df79 -->
<g id="edge40" class="edge">
<title>dir_5c2eb6d9a7a6f1e9cd32e0e8abf42ca6&#45;&gt;dir_1a6d8571b8eba91bded1d6534762df79</title>
<path fill="none" stroke="black" d="M144.94,-119.36C126.49,-128.55 102.75,-142.5 86,-160 54.78,-192.62 37,-203.85 37,-249 37,-395 37,-395 37,-395 37,-442.29 73.04,-486.59 99.51,-512.75"/>
<polygon fill="black" stroke="black" points="97.38,-515.56 107.03,-519.95 102.23,-510.51 97.38,-515.56"/>
<g id="a_edge40&#45;headlabel"><a xlink:href="dir_000026_000027.html" target="_top" xlink:title="12">
<text text-anchor="middle" x="92.83" y="-512.62" font-family="Helvetica,sans-Serif" font-size="10.00">12</text>
</a>
</g>
</g>
<!-- dir_5c2eb6d9a7a6f1e9cd32e0e8abf42ca6&#45;&gt;dir_4022f63979af12af4c32ec9a4562b2df -->
<g id="edge41" class="edge">
<title>dir_5c2eb6d9a7a6f1e9cd32e0e8abf42ca6&#45;&gt;dir_4022f63979af12af4c32ec9a4562b2df</title>
<path fill="none" stroke="black" d="M161.38,-87.7C155.86,-79.47 149.15,-69.48 143.07,-60.42"/>
<polygon fill="black" stroke="black" points="145.96,-58.46 137.48,-52.1 140.15,-62.36 145.96,-58.46"/>
<g id="a_edge41&#45;headlabel"><a xlink:href="dir_000026_000028.html" target="_top" xlink:title="5">
<text text-anchor="middle" x="150.33" y="-57.36" font-family="Helvetica,sans-Serif" font-size="10.00">5</text>
</a>
</g>
</g>
<!-- dir_5c2eb6d9a7a6f1e9cd32e0e8abf42ca6&#45;&gt;dir_9706acb4d69a98d7c15ebe226493116f -->
<g id="edge44" class="edge">
<title>dir_5c2eb6d9a7a6f1e9cd32e0e8abf42ca6&#45;&gt;dir_9706acb4d69a98d7c15ebe226493116f</title>
<path fill="none" stroke="black" d="M168.63,-124.1C164.57,-132.3 158.8,-142.28 152.92,-151.36"/>
<polygon fill="black" stroke="black" points="149.98,-149.45 147.3,-159.7 155.79,-153.36 149.98,-149.45"/>
<g id="a_edge44&#45;headlabel"><a xlink:href="dir_000026_000008.html" target="_top" xlink:title="15">
<text text-anchor="middle" x="149.64" y="-142.38" font-family="Helvetica,sans-Serif" font-size="10.00">15</text>
</a>
</g>
</g>
<!-- dir_5c2eb6d9a7a6f1e9cd32e0e8abf42ca6&#45;&gt;dir_a933ab6cde53f9fa4d29dc295cb0ac5f -->
<g id="edge45" class="edge">
<title>dir_5c2eb6d9a7a6f1e9cd32e0e8abf42ca6&#45;&gt;dir_a933ab6cde53f9fa4d29dc295cb0ac5f</title>
<path fill="none" stroke="black" d="M176.68,-124.31C181.51,-172.31 183.64,-307.44 180.79,-365.7"/>
<polygon fill="black" stroke="black" points="177.28,-365.77 180.17,-375.97 184.27,-366.19 177.28,-365.77"/>
<g id="a_edge45&#45;headlabel"><a xlink:href="dir_000026_000009.html" target="_top" xlink:title="7">
<text text-anchor="middle" x="174.66" y="-359.52" font-family="Helvetica,sans-Serif" font-size="10.00">7</text>
</a>
</g>
</g>
<!-- dir_5c2eb6d9a7a6f1e9cd32e0e8abf42ca6&#45;&gt;dir_b2430326e20a3ae038db3bac19f0573b -->
<g id="edge46" class="edge">
<title>dir_5c2eb6d9a7a6f1e9cd32e0e8abf42ca6&#45;&gt;dir_b2430326e20a3ae038db3bac19f0573b</title>
<path fill="none" stroke="black" d="M176.61,-124.37C183.45,-154.92 200.16,-219.61 228,-268 233.71,-277.92 241.42,-287.7 248.9,-296.11"/>
<polygon fill="black" stroke="black" points="246.57,-298.74 255.93,-303.7 251.71,-293.99 246.57,-298.74"/>
<g id="a_edge46&#45;headlabel"><a xlink:href="dir_000026_000007.html" target="_top" xlink:title="10">
<text text-anchor="middle" x="242.05" y="-295.53" font-family="Helvetica,sans-Serif" font-size="10.00">10</text>
</a>
</g>
</g>
<!-- dir_e52416a0736076e78cf51ec6b663e78d -->
<g id="node8" class="node">
<title>dir_e52416a0736076e78cf51ec6b663e78d</title>
<g id="a_node8"><a xlink:href="dir_e52416a0736076e78cf51ec6b663e78d.html" target="_top" xlink:title="boost_adaptors">
<polygon fill="none" stroke="black" points="377.5,-52 294.5,-52 294.5,-16 377.5,-16 377.5,-52"/>
<text text-anchor="middle" x="336" y="-31.5" font-family="Helvetica,sans-Serif" font-size="10.00">boost_adaptors</text>
</a>
</g>
</g>
<!-- dir_5c2eb6d9a7a6f1e9cd32e0e8abf42ca6&#45;&gt;dir_e52416a0736076e78cf51ec6b663e78d -->
<g id="edge47" class="edge">
<title>dir_5c2eb6d9a7a6f1e9cd32e0e8abf42ca6&#45;&gt;dir_e52416a0736076e78cf51ec6b663e78d</title>
<path fill="none" stroke="black" d="M200.17,-87.86C205.03,-85.08 210.1,-82.34 215,-80 237.36,-69.29 263,-59.44 284.89,-51.7"/>
<polygon fill="black" stroke="black" points="286.06,-55 294.35,-48.4 283.75,-48.39 286.06,-55"/>
<g id="a_edge47&#45;headlabel"><a xlink:href="dir_000026_000019.html" target="_top" xlink:title="3">
<text text-anchor="middle" x="283.6" y="-56.36" font-family="Helvetica,sans-Serif" font-size="10.00">3</text>
</a>
</g>
</g>
<!-- dir_5c2eb6d9a7a6f1e9cd32e0e8abf42ca6&#45;&gt;dir_90a2ad6518b731f1dc196d14153b8b6b -->
<g id="edge43" class="edge">
<title>dir_5c2eb6d9a7a6f1e9cd32e0e8abf42ca6&#45;&gt;dir_90a2ad6518b731f1dc196d14153b8b6b</title>
<path fill="none" stroke="black" d="M201.2,-113.77C232.02,-122.55 282.3,-138.78 326.32,-156.13"/>
<polygon fill="black" stroke="black" points="325.02,-159.38 335.61,-159.84 327.62,-152.88 325.02,-159.38"/>
<g id="a_edge43&#45;headlabel"><a xlink:href="dir_000026_000006.html" target="_top" xlink:title="74">
<text text-anchor="middle" x="320.63" y="-158.18" font-family="Helvetica,sans-Serif" font-size="10.00">74</text>
</a>
</g>
</g>
<!-- dir_89b103bfb09ac9e938409642066ed707 -->
<g id="node12" class="node">
<title>dir_89b103bfb09ac9e938409642066ed707</title>
<g id="a_node12"><a xlink:href="dir_89b103bfb09ac9e938409642066ed707.html" target="_top" xlink:title="std_cxx17">
<polygon fill="white" stroke="black" points="390,-124 328,-124 328,-88 390,-88 390,-124"/>
<text text-anchor="middle" x="359" y="-103.5" font-family="Helvetica,sans-Serif" font-size="10.00">std_cxx17</text>
</a>
</g>
</g>
<!-- dir_5c2eb6d9a7a6f1e9cd32e0e8abf42ca6&#45;&gt;dir_89b103bfb09ac9e938409642066ed707 -->
<g id="edge42" class="edge">
<title>dir_5c2eb6d9a7a6f1e9cd32e0e8abf42ca6&#45;&gt;dir_89b103bfb09ac9e938409642066ed707</title>
<path fill="none" stroke="black" d="M201.25,-123.94C214.08,-131.06 229.77,-138.4 245,-142 273.12,-148.64 282.55,-151 310,-142 317.76,-139.46 325.3,-135.16 332.05,-130.41"/>
<polygon fill="black" stroke="black" points="334.31,-133.09 340.13,-124.24 330.06,-127.53 334.31,-133.09"/>
<g id="a_edge42&#45;headlabel"><a xlink:href="dir_000026_000020.html" target="_top" xlink:title="1">
<text text-anchor="middle" x="333.17" y="-135.03" font-family="Helvetica,sans-Serif" font-size="10.00">1</text>
</a>
</g>
</g>
<!-- dir_f0f21723873b920ce94b91327ebe24ca -->
<g id="node13" class="node">
<title>dir_f0f21723873b920ce94b91327ebe24ca</title>
<g id="a_node13"><a xlink:href="dir_f0f21723873b920ce94b91327ebe24ca.html" target="_top" xlink:title="std_cxx20">
<polygon fill="white" stroke="black" points="310,-124 248,-124 248,-88 310,-88 310,-124"/>
<text text-anchor="middle" x="279" y="-103.5" font-family="Helvetica,sans-Serif" font-size="10.00">std_cxx20</text>
</a>
</g>
</g>
<!-- dir_5c2eb6d9a7a6f1e9cd32e0e8abf42ca6&#45;&gt;dir_f0f21723873b920ce94b91327ebe24ca -->
<g id="edge48" class="edge">
<title>dir_5c2eb6d9a7a6f1e9cd32e0e8abf42ca6&#45;&gt;dir_f0f21723873b920ce94b91327ebe24ca</title>
<path fill="none" stroke="black" d="M201.16,-106C213.35,-106 225.55,-106 237.74,-106"/>
<polygon fill="black" stroke="black" points="237.98,-109.5 247.98,-106 237.98,-102.5 237.98,-109.5"/>
<g id="a_edge48&#45;headlabel"><a xlink:href="dir_000026_000021.html" target="_top" xlink:title="1">
<text text-anchor="middle" x="234.39" y="-109.84" font-family="Helvetica,sans-Serif" font-size="10.00">1</text>
</a>
</g>
</g>
<!-- dir_9706acb4d69a98d7c15ebe226493116f&#45;&gt;dir_1a6d8571b8eba91bded1d6534762df79 -->
<g id="edge49" class="edge">
<title>dir_9706acb4d69a98d7c15ebe226493116f&#45;&gt;dir_1a6d8571b8eba91bded1d6534762df79</title>
<path fill="none" stroke="black" d="M133.95,-196.02C132.44,-206.33 129.36,-219.81 128,-232 116.6,-333.94 127.03,-456.19 128.88,-509.68"/>
<polygon fill="black" stroke="black" points="125.39,-509.82 129.14,-519.73 132.38,-509.65 125.39,-509.82"/>
<g id="a_edge49&#45;headlabel"><a xlink:href="dir_000008_000027.html" target="_top" xlink:title="6">
<text text-anchor="middle" x="122.46" y="-503.8" font-family="Helvetica,sans-Serif" font-size="10.00">6</text>
</a>
</g>
</g>
<!-- dir_9706acb4d69a98d7c15ebe226493116f&#45;&gt;dir_273e60b3573ce9ad58a4d725e6a36523 -->
<g id="edge50" class="edge">
<title>dir_9706acb4d69a98d7c15ebe226493116f&#45;&gt;dir_273e60b3573ce9ad58a4d725e6a36523</title>
<path fill="none" stroke="black" d="M128.61,-196.24C123.8,-235.66 115.48,-334.94 141,-412 144.22,-421.72 149.77,-431.3 155.57,-439.58"/>
<polygon fill="black" stroke="black" points="152.84,-441.77 161.61,-447.7 158.45,-437.59 152.84,-441.77"/>
<g id="a_edge50&#45;headlabel"><a xlink:href="dir_000008_000025.html" target="_top" xlink:title="1">
<text text-anchor="middle" x="148.41" y="-438.08" font-family="Helvetica,sans-Serif" font-size="10.00">1</text>
</a>
</g>
</g>
<!-- dir_9706acb4d69a98d7c15ebe226493116f&#45;&gt;dir_4022f63979af12af4c32ec9a4562b2df -->
<g id="edge51" class="edge">
<title>dir_9706acb4d69a98d7c15ebe226493116f&#45;&gt;dir_4022f63979af12af4c32ec9a4562b2df</title>
<path fill="none" stroke="black" d="M125.81,-159.87C122.4,-135.67 120.54,-91.21 121.51,-62.39"/>
<polygon fill="black" stroke="black" points="125.01,-62.35 122.01,-52.19 118.02,-62 125.01,-62.35"/>
<g id="a_edge51&#45;headlabel"><a xlink:href="dir_000008_000028.html" target="_top" xlink:title="7">
<text text-anchor="middle" x="127.67" y="-63.58" font-family="Helvetica,sans-Serif" font-size="10.00">7</text>
</a>
</g>
</g>
<!-- dir_9706acb4d69a98d7c15ebe226493116f&#45;&gt;dir_5c2eb6d9a7a6f1e9cd32e0e8abf42ca6 -->
<g id="edge52" class="edge">
<title>dir_9706acb4d69a98d7c15ebe226493116f&#45;&gt;dir_5c2eb6d9a7a6f1e9cd32e0e8abf42ca6</title>
<path fill="none" stroke="black" d="M135.47,-159.7C139.55,-151.47 145.34,-141.48 151.23,-132.42"/>
<polygon fill="black" stroke="black" points="154.15,-134.35 156.84,-124.1 148.35,-130.43 154.15,-134.35"/>
<g id="a_edge52&#45;headlabel"><a xlink:href="dir_000008_000026.html" target="_top" xlink:title="1">
<text text-anchor="middle" x="154.49" y="-136.42" font-family="Helvetica,sans-Serif" font-size="10.00">1</text>
</a>
</g>
</g>
<!-- dir_9706acb4d69a98d7c15ebe226493116f&#45;&gt;dir_a933ab6cde53f9fa4d29dc295cb0ac5f -->
<g id="edge54" class="edge">
<title>dir_9706acb4d69a98d7c15ebe226493116f&#45;&gt;dir_a933ab6cde53f9fa4d29dc295cb0ac5f</title>
<path fill="none" stroke="black" d="M138.59,-196.23C150.09,-233.32 169.2,-320.98 175.82,-365.71"/>
<polygon fill="black" stroke="black" points="172.38,-366.41 177.19,-375.85 179.32,-365.47 172.38,-366.41"/>
<g id="a_edge54&#45;headlabel"><a xlink:href="dir_000008_000009.html" target="_top" xlink:title="9">
<text text-anchor="middle" x="169.09" y="-360.73" font-family="Helvetica,sans-Serif" font-size="10.00">9</text>
</a>
</g>
</g>
<!-- dir_9706acb4d69a98d7c15ebe226493116f&#45;&gt;dir_b2430326e20a3ae038db3bac19f0573b -->
<g id="edge55" class="edge">
<title>dir_9706acb4d69a98d7c15ebe226493116f&#45;&gt;dir_b2430326e20a3ae038db3bac19f0573b</title>
<path fill="none" stroke="black" d="M140.05,-196.22C150.68,-215.33 169.72,-246.31 192,-268 205.61,-281.24 223.01,-293.04 238.27,-302.13"/>
<polygon fill="black" stroke="black" points="236.56,-305.18 246.97,-307.16 240.06,-299.12 236.56,-305.18"/>
<g id="a_edge55&#45;headlabel"><a xlink:href="dir_000008_000007.html" target="_top" xlink:title="7">
<text text-anchor="middle" x="232.03" y="-303.34" font-family="Helvetica,sans-Serif" font-size="10.00">7</text>
</a>
</g>
</g>
<!-- dir_9706acb4d69a98d7c15ebe226493116f&#45;&gt;dir_90a2ad6518b731f1dc196d14153b8b6b -->
<g id="edge53" class="edge">
<title>dir_9706acb4d69a98d7c15ebe226493116f&#45;&gt;dir_90a2ad6518b731f1dc196d14153b8b6b</title>
<path fill="none" stroke="black" d="M158.05,-193.2C195.09,-211.92 263.23,-238.82 318,-218 326.43,-214.8 334.28,-209.21 341,-203.21"/>
<polygon fill="black" stroke="black" points="343.59,-205.58 348.32,-196.1 338.71,-200.56 343.59,-205.58"/>
<g id="a_edge53&#45;headlabel"><a xlink:href="dir_000008_000006.html" target="_top" xlink:title="191">
<text text-anchor="middle" x="342.99" y="-207.62" font-family="Helvetica,sans-Serif" font-size="10.00">191</text>
</a>
</g>
</g>
<!-- dir_9706acb4d69a98d7c15ebe226493116f&#45;&gt;dir_f0f21723873b920ce94b91327ebe24ca -->
<g id="edge56" class="edge">
<title>dir_9706acb4d69a98d7c15ebe226493116f&#45;&gt;dir_f0f21723873b920ce94b91327ebe24ca</title>
<path fill="none" stroke="black" d="M158.45,-164.25C179.22,-154.58 208.67,-140.8 238.47,-126.63"/>
<polygon fill="black" stroke="black" points="240.19,-129.68 247.72,-122.22 237.18,-123.36 240.19,-129.68"/>
<g id="a_edge56&#45;headlabel"><a xlink:href="dir_000008_000021.html" target="_top" xlink:title="1">
<text text-anchor="middle" x="238.17" y="-131.29" font-family="Helvetica,sans-Serif" font-size="10.00">1</text>
</a>
</g>
</g>
<!-- dir_a933ab6cde53f9fa4d29dc295cb0ac5f&#45;&gt;dir_1a6d8571b8eba91bded1d6534762df79 -->
<g id="edge14" class="edge">
<title>dir_a933ab6cde53f9fa4d29dc295cb0ac5f&#45;&gt;dir_1a6d8571b8eba91bded1d6534762df79</title>
<path fill="none" stroke="black" d="M168.26,-412.15C160.84,-421.87 151.29,-434.72 146,-448 138.15,-467.71 135.82,-491.69 134,-509.8"/>
<polygon fill="black" stroke="black" points="130.5,-509.64 132.92,-519.96 137.46,-510.38 130.5,-509.64"/>
<g id="a_edge14&#45;headlabel"><a xlink:href="dir_000009_000027.html" target="_top" xlink:title="2">
<text text-anchor="middle" x="128.06" y="-503.27" font-family="Helvetica,sans-Serif" font-size="10.00">2</text>
</a>
</g>
</g>
<!-- dir_a933ab6cde53f9fa4d29dc295cb0ac5f&#45;&gt;dir_273e60b3573ce9ad58a4d725e6a36523 -->
<g id="edge15" class="edge">
<title>dir_a933ab6cde53f9fa4d29dc295cb0ac5f&#45;&gt;dir_273e60b3573ce9ad58a4d725e6a36523</title>
<path fill="none" stroke="black" d="M182.9,-412.1C183.7,-419.79 183.94,-429.05 183.6,-437.67"/>
<polygon fill="black" stroke="black" points="180.11,-437.48 182.92,-447.7 187.09,-437.96 180.11,-437.48"/>
<g id="a_edge15&#45;headlabel"><a xlink:href="dir_000009_000025.html" target="_top" xlink:title="2">
<text text-anchor="middle" x="177.52" y="-431.2" font-family="Helvetica,sans-Serif" font-size="10.00">2</text>
</a>
</g>
</g>
<!-- dir_a933ab6cde53f9fa4d29dc295cb0ac5f&#45;&gt;dir_4022f63979af12af4c32ec9a4562b2df -->
<g id="edge16" class="edge">
<title>dir_a933ab6cde53f9fa4d29dc295cb0ac5f&#45;&gt;dir_4022f63979af12af4c32ec9a4562b2df</title>
<path fill="none" stroke="black" d="M161.39,-375.83C138.79,-343.58 99.71,-271.11 86,-204 75.73,-153.73 93.26,-94.71 108.59,-61.4"/>
<polygon fill="black" stroke="black" points="111.79,-62.84 113.04,-52.32 105.5,-59.76 111.79,-62.84"/>
<g id="a_edge16&#45;headlabel"><a xlink:href="dir_000009_000028.html" target="_top" xlink:title="1">
<text text-anchor="middle" x="112.75" y="-64.82" font-family="Helvetica,sans-Serif" font-size="10.00">1</text>
</a>
</g>
</g>
<!-- dir_a933ab6cde53f9fa4d29dc295cb0ac5f&#45;&gt;dir_5c2eb6d9a7a6f1e9cd32e0e8abf42ca6 -->
<g id="edge17" class="edge">
<title>dir_a933ab6cde53f9fa4d29dc295cb0ac5f&#45;&gt;dir_5c2eb6d9a7a6f1e9cd32e0e8abf42ca6</title>
<path fill="none" stroke="black" d="M173.35,-375.97C168.51,-328.29 166.36,-193.18 169.19,-134.63"/>
<polygon fill="black" stroke="black" points="172.71,-134.5 169.81,-124.31 165.72,-134.08 172.71,-134.5"/>
<g id="a_edge17&#45;headlabel"><a xlink:href="dir_000009_000026.html" target="_top" xlink:title="3">
<text text-anchor="middle" x="175.33" y="-135.75" font-family="Helvetica,sans-Serif" font-size="10.00">3</text>
</a>
</g>
</g>
<!-- dir_a933ab6cde53f9fa4d29dc295cb0ac5f&#45;&gt;dir_9706acb4d69a98d7c15ebe226493116f -->
<g id="edge20" class="edge">
<title>dir_a933ab6cde53f9fa4d29dc295cb0ac5f&#45;&gt;dir_9706acb4d69a98d7c15ebe226493116f</title>
<path fill="none" stroke="black" d="M169.44,-375.85C157.94,-338.83 138.83,-251.18 132.19,-206.39"/>
<polygon fill="black" stroke="black" points="135.63,-205.67 130.82,-196.23 128.69,-206.61 135.63,-205.67"/>
<g id="a_edge20&#45;headlabel"><a xlink:href="dir_000009_000008.html" target="_top" xlink:title="3">
<text text-anchor="middle" x="138.93" y="-206.35" font-family="Helvetica,sans-Serif" font-size="10.00">3</text>
</a>
</g>
</g>
<!-- dir_a933ab6cde53f9fa4d29dc295cb0ac5f&#45;&gt;dir_b2430326e20a3ae038db3bac19f0573b -->
<g id="edge21" class="edge">
<title>dir_a933ab6cde53f9fa4d29dc295cb0ac5f&#45;&gt;dir_b2430326e20a3ae038db3bac19f0573b</title>
<path fill="none" stroke="black" d="M200.98,-375.7C213.31,-366.8 228.52,-355.82 241.85,-346.2"/>
<polygon fill="black" stroke="black" points="244.24,-348.79 250.3,-340.1 240.14,-343.12 244.24,-348.79"/>
<g id="a_edge21&#45;headlabel"><a xlink:href="dir_000009_000007.html" target="_top" xlink:title="1">
<text text-anchor="middle" x="242.98" y="-350.7" font-family="Helvetica,sans-Serif" font-size="10.00">1</text>
</a>
</g>
</g>
<!-- dir_a933ab6cde53f9fa4d29dc295cb0ac5f&#45;&gt;dir_e52416a0736076e78cf51ec6b663e78d -->
<g id="edge22" class="edge">
<title>dir_a933ab6cde53f9fa4d29dc295cb0ac5f&#45;&gt;dir_e52416a0736076e78cf51ec6b663e78d</title>
<path fill="none" stroke="black" d="M178.16,-375.9C182.45,-317.49 199.05,-126.92 236,-80 248.13,-64.6 266.67,-54.31 284.51,-47.51"/>
<polygon fill="black" stroke="black" points="286.02,-50.69 294.3,-44.08 283.7,-44.09 286.02,-50.69"/>
<g id="a_edge22&#45;headlabel"><a xlink:href="dir_000009_000019.html" target="_top" xlink:title="1">
<text text-anchor="middle" x="283.56" y="-52.06" font-family="Helvetica,sans-Serif" font-size="10.00">1</text>
</a>
</g>
</g>
<!-- dir_a933ab6cde53f9fa4d29dc295cb0ac5f&#45;&gt;dir_90a2ad6518b731f1dc196d14153b8b6b -->
<g id="edge19" class="edge">
<title>dir_a933ab6cde53f9fa4d29dc295cb0ac5f&#45;&gt;dir_90a2ad6518b731f1dc196d14153b8b6b</title>
<path fill="none" stroke="black" d="M204.36,-390.51C257.69,-385.04 372.41,-369.97 396,-340 425.68,-302.28 409.19,-278.15 396,-232 393.29,-222.51 388.33,-213.06 383.07,-204.83"/>
<polygon fill="black" stroke="black" points="385.86,-202.72 377.33,-196.43 380.08,-206.67 385.86,-202.72"/>
<g id="a_edge19&#45;headlabel"><a xlink:href="dir_000009_000006.html" target="_top" xlink:title="89">
<text text-anchor="middle" x="390.23" y="-201.58" font-family="Helvetica,sans-Serif" font-size="10.00">89</text>
</a>
</g>
</g>
<!-- dir_a933ab6cde53f9fa4d29dc295cb0ac5f&#45;&gt;dir_89b103bfb09ac9e938409642066ed707 -->
<g id="edge18" class="edge">
<title>dir_a933ab6cde53f9fa4d29dc295cb0ac5f&#45;&gt;dir_89b103bfb09ac9e938409642066ed707</title>
<path fill="none" stroke="black" d="M204.13,-390.11C234.86,-385.3 284.02,-372.69 310,-340 340.02,-302.23 348.42,-271.7 321,-232 301.01,-203.07 266.99,-232.93 247,-204 235.89,-187.91 236.54,-176.52 247,-160 249.16,-156.59 287.23,-138.99 318.4,-124.99"/>
<polygon fill="black" stroke="black" points="320.1,-128.06 327.8,-120.78 317.24,-121.67 320.1,-128.06"/>
<g id="a_edge18&#45;headlabel"><a xlink:href="dir_000009_000020.html" target="_top" xlink:title="1">
<text text-anchor="middle" x="317.98" y="-129.62" font-family="Helvetica,sans-Serif" font-size="10.00">1</text>
</a>
</g>
</g>
<!-- dir_f3c5e5ce8027ac46c102eb7f94481274 -->
<g id="node9" class="node">
<title>dir_f3c5e5ce8027ac46c102eb7f94481274</title>
<g id="a_node9"><a xlink:href="dir_f3c5e5ce8027ac46c102eb7f94481274.html" target="_top" xlink:title="differentiation">
<polygon fill="white" stroke="red" points="311.5,-268 236.5,-268 236.5,-232 311.5,-232 311.5,-268"/>
<text text-anchor="middle" x="274" y="-247.5" font-family="Helvetica,sans-Serif" font-size="10.00">differentiation</text>
</a>
</g>
</g>
<!-- dir_b2430326e20a3ae038db3bac19f0573b&#45;&gt;dir_f3c5e5ce8027ac46c102eb7f94481274 -->
<g id="edge9" class="edge">
<title>dir_b2430326e20a3ae038db3bac19f0573b&#45;&gt;dir_f3c5e5ce8027ac46c102eb7f94481274</title>
<path fill="none" stroke="black" d="M268.08,-303.7C267.29,-295.98 267.06,-286.71 267.4,-278.11"/>
<polygon fill="black" stroke="black" points="270.9,-278.32 268.1,-268.1 263.92,-277.84 270.9,-278.32"/>
<g id="a_edge9&#45;headlabel"><a xlink:href="dir_000007_000022.html" target="_top" xlink:title="2">
<text text-anchor="middle" x="273.48" y="-279.61" font-family="Helvetica,sans-Serif" font-size="10.00">2</text>
</a>
</g>
</g>
<!-- dir_b2430326e20a3ae038db3bac19f0573b&#45;&gt;dir_90a2ad6518b731f1dc196d14153b8b6b -->
<g id="edge8" class="edge">
<title>dir_b2430326e20a3ae038db3bac19f0573b&#45;&gt;dir_90a2ad6518b731f1dc196d14153b8b6b</title>
<path fill="none" stroke="black" d="M291.45,-303.89C300.95,-293.98 312.47,-280.93 321,-268 334.02,-248.27 345.24,-223.86 352.79,-205.6"/>
<polygon fill="black" stroke="black" points="356.11,-206.74 356.6,-196.16 349.62,-204.12 356.11,-206.74"/>
<g id="a_edge8&#45;headlabel"><a xlink:href="dir_000007_000006.html" target="_top" xlink:title="312">
<text text-anchor="middle" x="357.4" y="-208.64" font-family="Helvetica,sans-Serif" font-size="10.00">312</text>
</a>
</g>
</g>
<!-- dir_e52416a0736076e78cf51ec6b663e78d&#45;&gt;dir_90a2ad6518b731f1dc196d14153b8b6b -->
<g id="edge1" class="edge">
<title>dir_e52416a0736076e78cf51ec6b663e78d&#45;&gt;dir_90a2ad6518b731f1dc196d14153b8b6b</title>
<path fill="none" stroke="black" d="M377.74,-39.1C404.36,-44.12 436.96,-55.26 454,-80 465.09,-96.1 463.75,-107.05 454,-124 442.33,-144.3 419.57,-157.55 399.73,-165.73"/>
<polygon fill="black" stroke="black" points="398.38,-162.5 390.29,-169.34 400.88,-169.03 398.38,-162.5"/>
<g id="a_edge1&#45;headlabel"><a xlink:href="dir_000019_000006.html" target="_top" xlink:title="6">
<text text-anchor="middle" x="400.72" y="-156.06" font-family="Helvetica,sans-Serif" font-size="10.00">6</text>
</a>
</g>
</g>
<!-- dir_f3c5e5ce8027ac46c102eb7f94481274&#45;&gt;dir_9706acb4d69a98d7c15ebe226493116f -->
<g id="edge6" class="edge">
<title>dir_f3c5e5ce8027ac46c102eb7f94481274&#45;&gt;dir_9706acb4d69a98d7c15ebe226493116f</title>
<path fill="none" stroke="black" d="M239.02,-231.88C217.17,-221.18 189.1,-207.44 167.05,-196.65"/>
<polygon fill="black" stroke="black" points="168.53,-193.47 158.01,-192.22 165.45,-199.76 168.53,-193.47"/>
<g id="a_edge6&#45;headlabel"><a xlink:href="dir_000022_000008.html" target="_top" xlink:title="1">
<text text-anchor="middle" x="173" y="-190" font-family="Helvetica,sans-Serif" font-size="10.00">1</text>
</a>
</g>
</g>
<!-- dir_f3c5e5ce8027ac46c102eb7f94481274&#45;&gt;dir_b2430326e20a3ae038db3bac19f0573b -->
<g id="edge7" class="edge">
<title>dir_f3c5e5ce8027ac46c102eb7f94481274&#45;&gt;dir_b2430326e20a3ae038db3bac19f0573b</title>
<path fill="none" stroke="black" d="M279.9,-268.1C280.7,-275.79 280.94,-285.05 280.6,-293.67"/>
<polygon fill="black" stroke="black" points="277.11,-293.48 279.92,-303.7 284.09,-293.96 277.11,-293.48"/>
<g id="a_edge7&#45;headlabel"><a xlink:href="dir_000022_000007.html" target="_top" xlink:title="4">
<text text-anchor="middle" x="274.52" y="-287.2" font-family="Helvetica,sans-Serif" font-size="10.00">4</text>
</a>
</g>
</g>
<!-- dir_90a2ad6518b731f1dc196d14153b8b6b&#45;&gt;dir_1a6d8571b8eba91bded1d6534762df79 -->
<g id="edge23" class="edge">
<title>dir_90a2ad6518b731f1dc196d14153b8b6b&#45;&gt;dir_1a6d8571b8eba91bded1d6534762df79</title>
<path fill="none" stroke="black" d="M390.4,-184.24C416.62,-190.76 455.16,-204.56 476,-232 500.26,-263.94 491,-280.89 491,-321 491,-395 491,-395 491,-395 491,-435.11 504.59,-455.87 476,-484 432.47,-526.83 245.19,-535.1 164.37,-536.66"/>
<polygon fill="black" stroke="black" points="164.09,-533.16 154.15,-536.83 164.21,-540.16 164.09,-533.16"/>
<g id="a_edge23&#45;headlabel"><a xlink:href="dir_000006_000027.html" target="_top" xlink:title="2">
<text text-anchor="middle" x="167.63" y="-527.76" font-family="Helvetica,sans-Serif" font-size="10.00">2</text>
</a>
</g>
</g>
<!-- dir_90a2ad6518b731f1dc196d14153b8b6b&#45;&gt;dir_273e60b3573ce9ad58a4d725e6a36523 -->
<g id="edge24" class="edge">
<title>dir_90a2ad6518b731f1dc196d14153b8b6b&#45;&gt;dir_273e60b3573ce9ad58a4d725e6a36523</title>
<path fill="none" stroke="black" d="M381.81,-196.25C390.88,-205.81 400.89,-218.48 406,-232 415.35,-256.73 416,-328.27 409,-340 367.49,-409.52 272.49,-442.66 217.8,-456.5"/>
<polygon fill="black" stroke="black" points="216.97,-453.1 208.08,-458.86 218.62,-459.9 216.97,-453.1"/>
<g id="a_edge24&#45;headlabel"><a xlink:href="dir_000006_000025.html" target="_top" xlink:title="1">
<text text-anchor="middle" x="219.79" y="-446.99" font-family="Helvetica,sans-Serif" font-size="10.00">1</text>
</a>
</g>
</g>
<!-- dir_90a2ad6518b731f1dc196d14153b8b6b&#45;&gt;dir_4022f63979af12af4c32ec9a4562b2df -->
<g id="edge25" class="edge">
<title>dir_90a2ad6518b731f1dc196d14153b8b6b&#45;&gt;dir_4022f63979af12af4c32ec9a4562b2df</title>
<path fill="none" stroke="black" d="M381.12,-159.98C400.99,-139.26 427.52,-104.06 407,-80 399.13,-70.77 238.04,-49.23 163.38,-39.69"/>
<polygon fill="black" stroke="black" points="163.39,-36.16 153.03,-38.37 162.5,-43.11 163.39,-36.16"/>
<g id="a_edge25&#45;headlabel"><a xlink:href="dir_000006_000028.html" target="_top" xlink:title="1">
<text text-anchor="middle" x="167.31" y="-31.3" font-family="Helvetica,sans-Serif" font-size="10.00">1</text>
</a>
</g>
</g>
<!-- dir_90a2ad6518b731f1dc196d14153b8b6b&#45;&gt;dir_5c2eb6d9a7a6f1e9cd32e0e8abf42ca6 -->
<g id="edge26" class="edge">
<title>dir_90a2ad6518b731f1dc196d14153b8b6b&#45;&gt;dir_5c2eb6d9a7a6f1e9cd32e0e8abf42ca6</title>
<path fill="none" stroke="black" d="M335.88,-167.78C329.92,-165.14 323.76,-162.34 318,-160 282,-145.36 240.26,-131.16 210.71,-121.15"/>
<polygon fill="black" stroke="black" points="211.78,-117.81 201.19,-117.92 209.54,-124.44 211.78,-117.81"/>
<g id="a_edge26&#45;headlabel"><a xlink:href="dir_000006_000026.html" target="_top" xlink:title="2">
<text text-anchor="middle" x="216.1" y="-113.78" font-family="Helvetica,sans-Serif" font-size="10.00">2</text>
</a>
</g>
</g>
<!-- dir_90a2ad6518b731f1dc196d14153b8b6b&#45;&gt;dir_9706acb4d69a98d7c15ebe226493116f -->
<g id="edge28" class="edge">
<title>dir_90a2ad6518b731f1dc196d14153b8b6b&#45;&gt;dir_9706acb4d69a98d7c15ebe226493116f</title>
<path fill="none" stroke="black" d="M348.32,-196.1C340.34,-204.47 329.72,-213.54 318,-218 267.51,-237.2 205.66,-215.83 167.28,-197.71"/>
<polygon fill="black" stroke="black" points="168.58,-194.45 158.05,-193.2 165.5,-200.74 168.58,-194.45"/>
<g id="a_edge28&#45;headlabel"><a xlink:href="dir_000006_000008.html" target="_top" xlink:title="4">
<text text-anchor="middle" x="173.05" y="-190.98" font-family="Helvetica,sans-Serif" font-size="10.00">4</text>
</a>
</g>
</g>
<!-- dir_90a2ad6518b731f1dc196d14153b8b6b&#45;&gt;dir_a933ab6cde53f9fa4d29dc295cb0ac5f -->
<g id="edge29" class="edge">
<title>dir_90a2ad6518b731f1dc196d14153b8b6b&#45;&gt;dir_a933ab6cde53f9fa4d29dc295cb0ac5f</title>
<path fill="none" stroke="black" d="M371.18,-196.15C385.09,-228.09 408.81,-297.31 376,-340 356.43,-365.46 266.35,-381.28 214.34,-388.46"/>
<polygon fill="black" stroke="black" points="213.62,-385.03 204.17,-389.82 214.55,-391.96 213.62,-385.03"/>
<g id="a_edge29&#45;headlabel"><a xlink:href="dir_000006_000009.html" target="_top" xlink:title="8">
<text text-anchor="middle" x="216.81" y="-379.24" font-family="Helvetica,sans-Serif" font-size="10.00">8</text>
</a>
</g>
</g>
<!-- dir_90a2ad6518b731f1dc196d14153b8b6b&#45;&gt;dir_b2430326e20a3ae038db3bac19f0573b -->
<g id="edge30" class="edge">
<title>dir_90a2ad6518b731f1dc196d14153b8b6b&#45;&gt;dir_b2430326e20a3ae038db3bac19f0573b</title>
<path fill="none" stroke="black" d="M360.45,-196.27C357.05,-215.14 349.65,-245.65 335,-268 327.72,-279.11 317.48,-289.25 307.46,-297.62"/>
<polygon fill="black" stroke="black" points="305.18,-294.97 299.54,-303.94 309.54,-300.44 305.18,-294.97"/>
<g id="a_edge30&#45;headlabel"><a xlink:href="dir_000006_000007.html" target="_top" xlink:title="8">
<text text-anchor="middle" x="306.22" y="-288.01" font-family="Helvetica,sans-Serif" font-size="10.00">8</text>
</a>
</g>
</g>
<!-- dir_90a2ad6518b731f1dc196d14153b8b6b&#45;&gt;dir_e52416a0736076e78cf51ec6b663e78d -->
<g id="edge31" class="edge">
<title>dir_90a2ad6518b731f1dc196d14153b8b6b&#45;&gt;dir_e52416a0736076e78cf51ec6b663e78d</title>
<path fill="none" stroke="black" d="M390.07,-164.72C406.02,-155.88 424.83,-142.29 434,-124 442.77,-106.52 444.56,-96.46 434,-80 423.47,-63.58 405.27,-53.07 387.4,-46.38"/>
<polygon fill="black" stroke="black" points="388.15,-42.94 377.55,-43.04 385.9,-49.57 388.15,-42.94"/>
<g id="a_edge31&#45;headlabel"><a xlink:href="dir_000006_000019.html" target="_top" xlink:title="3">
<text text-anchor="middle" x="392.46" y="-38.9" font-family="Helvetica,sans-Serif" font-size="10.00">3</text>
</a>
</g>
</g>
<!-- dir_90a2ad6518b731f1dc196d14153b8b6b&#45;&gt;dir_f3c5e5ce8027ac46c102eb7f94481274 -->
<g id="edge33" class="edge">
<title>dir_90a2ad6518b731f1dc196d14153b8b6b&#45;&gt;dir_f3c5e5ce8027ac46c102eb7f94481274</title>
<path fill="none" stroke="black" d="M341.25,-196.1C330.08,-204.89 316.3,-215.73 304.12,-225.31"/>
<polygon fill="black" stroke="black" points="301.7,-222.76 296,-231.7 306.02,-228.27 301.7,-222.76"/>
<g id="a_edge33&#45;headlabel"><a xlink:href="dir_000006_000022.html" target="_top" xlink:title="3">
<text text-anchor="middle" x="302.77" y="-215.81" font-family="Helvetica,sans-Serif" font-size="10.00">3</text>
</a>
</g>
</g>
<!-- dir_90a2ad6518b731f1dc196d14153b8b6b&#45;&gt;dir_89b103bfb09ac9e938409642066ed707 -->
<g id="edge27" class="edge">
<title>dir_90a2ad6518b731f1dc196d14153b8b6b&#45;&gt;dir_89b103bfb09ac9e938409642066ed707</title>
<path fill="none" stroke="black" d="M362.01,-159.7C361.57,-151.98 361.04,-142.71 360.55,-134.11"/>
<polygon fill="black" stroke="black" points="364.04,-133.89 359.98,-124.1 357.05,-134.29 364.04,-133.89"/>
<g id="a_edge27&#45;headlabel"><a xlink:href="dir_000006_000020.html" target="_top" xlink:title="3">
<text text-anchor="middle" x="367.08" y="-134.82" font-family="Helvetica,sans-Serif" font-size="10.00">3</text>
</a>
</g>
</g>
<!-- dir_90a2ad6518b731f1dc196d14153b8b6b&#45;&gt;dir_f0f21723873b920ce94b91327ebe24ca -->
<g id="edge32" class="edge">
<title>dir_90a2ad6518b731f1dc196d14153b8b6b&#45;&gt;dir_f0f21723873b920ce94b91327ebe24ca</title>
<path fill="none" stroke="black" d="M342.24,-159.7C331.76,-150.97 318.89,-140.24 307.5,-130.75"/>
<polygon fill="black" stroke="black" points="309.45,-127.82 299.53,-124.1 304.97,-133.19 309.45,-127.82"/>
<g id="a_edge32&#45;headlabel"><a xlink:href="dir_000006_000021.html" target="_top" xlink:title="1">
<text text-anchor="middle" x="314.03" y="-125.44" font-family="Helvetica,sans-Serif" font-size="10.00">1</text>
</a>
</g>
</g>
<!-- dir_e31a25c1e7c1dd93c81093890a4d832d -->
<g id="node11" class="node">
<title>dir_e31a25c1e7c1dd93c81093890a4d832d</title>
<g id="a_node11"><a xlink:href="dir_e31a25c1e7c1dd93c81093890a4d832d.html" target="_top" xlink:title="std_cxx14">
<polygon fill="white" stroke="black" points="318,-196 256,-196 256,-160 318,-160 318,-196"/>
<text text-anchor="middle" x="287" y="-175.5" font-family="Helvetica,sans-Serif" font-size="10.00">std_cxx14</text>
</a>
</g>
</g>
</g>
</svg>
