<?xml version="1.0" encoding="UTF-8" standalone="no"?>
<!DOCTYPE svg PUBLIC "-//W3C//DTD SVG 1.1//EN"
 "http://www.w3.org/Graphics/SVG/1.1/DTD/svg11.dtd">
<!-- Generated by graphviz version 2.47.1 (20210417.1919)
 -->
<!-- Title: source/matrix_free Pages: 1 -->
<svg width="106pt" height="151pt"
 viewBox="0.00 0.00 106.00 151.00" xmlns="http://www.w3.org/2000/svg" xmlns:xlink="http://www.w3.org/1999/xlink">
<g id="graph0" class="graph" transform="scale(1 1) rotate(0) translate(4 147)">
<title>source/matrix_free</title>
<polygon fill="white" stroke="transparent" points="-4,4 -4,-147 102,-147 102,4 -4,4"/>
<g id="clust1" class="cluster">
<title>clusterdir_b2f33c71d4aa5e7af42a1ca61ff5af1b</title>
<g id="a_clust1"><a xlink:href="dir_b2f33c71d4aa5e7af42a1ca61ff5af1b.html" target="_top" xlink:title="source">
<polygon fill="#ddddee" stroke="black" points="8,-64 8,-135 90,-135 90,-64 8,-64"/>
<text text-anchor="middle" x="49" y="-123" font-family="Helvetica,sans-Serif" font-size="10.00">source</text>
</a>
</g>
</g>
<!-- dir_1de065469557ba32ffc8eb44e2c3b99b -->
<g id="node1" class="node">
<title>dir_1de065469557ba32ffc8eb44e2c3b99b</title>
<g id="a_node1"><a xlink:href="dir_1de065469557ba32ffc8eb44e2c3b99b.html" target="_top" xlink:title="matrix_free">
<polygon fill="#eeeeff" stroke="black" points="81.5,-108 16.5,-108 16.5,-72 81.5,-72 81.5,-108"/>
<text text-anchor="middle" x="49" y="-87.5" font-family="Helvetica,sans-Serif" font-size="10.00">matrix_free</text>
</a>
</g>
</g>
<!-- dir_d44c64559bbebec7f509842c48db8b23 -->
<g id="node2" class="node">
<title>dir_d44c64559bbebec7f509842c48db8b23</title>
<g id="a_node2"><a xlink:href="dir_d44c64559bbebec7f509842c48db8b23.html" target="_top" xlink:title="include">
<polygon fill="white" stroke="red" points="76,-36 22,-36 22,0 76,0 76,-36"/>
<text text-anchor="middle" x="49" y="-15.5" font-family="Helvetica,sans-Serif" font-size="10.00">include</text>
</a>
</g>
</g>
<!-- dir_1de065469557ba32ffc8eb44e2c3b99b&#45;&gt;dir_d44c64559bbebec7f509842c48db8b23 -->
<g id="edge1" class="edge">
<title>dir_1de065469557ba32ffc8eb44e2c3b99b&#45;&gt;dir_d44c64559bbebec7f509842c48db8b23</title>
<path fill="none" stroke="black" d="M49,-71.7C49,-63.98 49,-54.71 49,-46.11"/>
<polygon fill="black" stroke="black" points="52.5,-46.1 49,-36.1 45.5,-46.1 52.5,-46.1"/>
<g id="a_edge1&#45;headlabel"><a xlink:href="dir_000056_000004.html" target="_top" xlink:title="24">
<text text-anchor="middle" x="55.34" y="-47.2" font-family="Helvetica,sans-Serif" font-size="10.00">24</text>
</a>
</g>
</g>
</g>
</svg>
