<?xml version="1.0" encoding="UTF-8" standalone="no"?>
<!DOCTYPE svg PUBLIC "-//W3C//DTD SVG 1.1//EN"
 "http://www.w3.org/Graphics/SVG/1.1/DTD/svg11.dtd">
<!-- Generated by graphviz version 2.47.1 (20210417.1919)
 -->
<!-- Title: include/deal.II/grid Pages: 1 -->
<svg width="384pt" height="599pt"
 viewBox="0.00 0.00 384.00 599.00" xmlns="http://www.w3.org/2000/svg" xmlns:xlink="http://www.w3.org/1999/xlink">
<g id="graph0" class="graph" transform="scale(1 1) rotate(0) translate(4 595)">
<title>include/deal.II/grid</title>
<polygon fill="white" stroke="transparent" points="-4,4 -4,-595 380,-595 380,4 -4,4"/>
<g id="clust1" class="cluster">
<title>clusterdir_ee90d91a514b839c31faec7a1d916f67</title>
<g id="a_clust1"><a xlink:href="dir_ee90d91a514b839c31faec7a1d916f67.html" target="_top" xlink:title="deal.II">
<polygon fill="#ddddee" stroke="black" points="8,-8 8,-583 368,-583 368,-8 8,-8"/>
<text text-anchor="middle" x="188" y="-571" font-family="Helvetica,sans-Serif" font-size="10.00">deal.II</text>
</a>
</g>
</g>
<!-- dir_1a6d8571b8eba91bded1d6534762df79 -->
<g id="node1" class="node">
<title>dir_1a6d8571b8eba91bded1d6534762df79</title>
<g id="a_node1"><a xlink:href="dir_1a6d8571b8eba91bded1d6534762df79.html" target="_top" xlink:title="dofs">
<polygon fill="none" stroke="black" points="154,-556 100,-556 100,-520 154,-520 154,-556"/>
<text text-anchor="middle" x="127" y="-535.5" font-family="Helvetica,sans-Serif" font-size="10.00">dofs</text>
</a>
</g>
</g>
<!-- dir_273e60b3573ce9ad58a4d725e6a36523 -->
<g id="node2" class="node">
<title>dir_273e60b3573ce9ad58a4d725e6a36523</title>
<g id="a_node2"><a xlink:href="dir_273e60b3573ce9ad58a4d725e6a36523.html" target="_top" xlink:title="distributed">
<polygon fill="none" stroke="black" points="158,-484 96,-484 96,-448 158,-448 158,-484"/>
<text text-anchor="middle" x="127" y="-463.5" font-family="Helvetica,sans-Serif" font-size="10.00">distributed</text>
</a>
</g>
</g>
<!-- dir_1a6d8571b8eba91bded1d6534762df79&#45;&gt;dir_273e60b3573ce9ad58a4d725e6a36523 -->
<g id="edge27" class="edge">
<title>dir_1a6d8571b8eba91bded1d6534762df79&#45;&gt;dir_273e60b3573ce9ad58a4d725e6a36523</title>
<path fill="none" stroke="black" d="M121.08,-519.7C120.29,-511.98 120.06,-502.71 120.4,-494.11"/>
<polygon fill="black" stroke="black" points="123.9,-494.32 121.1,-484.1 116.92,-493.84 123.9,-494.32"/>
<g id="a_edge27&#45;headlabel"><a xlink:href="dir_000027_000025.html" target="_top" xlink:title="1">
<text text-anchor="middle" x="126.48" y="-495.61" font-family="Helvetica,sans-Serif" font-size="10.00">1</text>
</a>
</g>
</g>
<!-- dir_4022f63979af12af4c32ec9a4562b2df -->
<g id="node3" class="node">
<title>dir_4022f63979af12af4c32ec9a4562b2df</title>
<g id="a_node3"><a xlink:href="dir_4022f63979af12af4c32ec9a4562b2df.html" target="_top" xlink:title="hp">
<polygon fill="none" stroke="black" points="160,-52 106,-52 106,-16 160,-16 160,-52"/>
<text text-anchor="middle" x="133" y="-31.5" font-family="Helvetica,sans-Serif" font-size="10.00">hp</text>
</a>
</g>
</g>
<!-- dir_1a6d8571b8eba91bded1d6534762df79&#45;&gt;dir_4022f63979af12af4c32ec9a4562b2df -->
<g id="edge28" class="edge">
<title>dir_1a6d8571b8eba91bded1d6534762df79&#45;&gt;dir_4022f63979af12af4c32ec9a4562b2df</title>
<path fill="none" stroke="black" d="M99.8,-526.84C81.55,-517.62 58.66,-502.63 44,-484 17.61,-450.47 8,-437.67 8,-395 8,-395 8,-395 8,-177 8,-122.33 60.2,-77.11 97.28,-53.26"/>
<polygon fill="black" stroke="black" points="99.22,-56.18 105.88,-47.94 95.53,-50.23 99.22,-56.18"/>
<g id="a_edge28&#45;headlabel"><a xlink:href="dir_000027_000028.html" target="_top" xlink:title="4">
<text text-anchor="middle" x="97.65" y="-57.99" font-family="Helvetica,sans-Serif" font-size="10.00">4</text>
</a>
</g>
</g>
<!-- dir_90a2ad6518b731f1dc196d14153b8b6b -->
<g id="node5" class="node">
<title>dir_90a2ad6518b731f1dc196d14153b8b6b</title>
<g id="a_node5"><a xlink:href="dir_90a2ad6518b731f1dc196d14153b8b6b.html" target="_top" xlink:title="base">
<polygon fill="white" stroke="red" points="176,-268 122,-268 122,-232 176,-232 176,-268"/>
<text text-anchor="middle" x="149" y="-247.5" font-family="Helvetica,sans-Serif" font-size="10.00">base</text>
</a>
</g>
</g>
<!-- dir_1a6d8571b8eba91bded1d6534762df79&#45;&gt;dir_90a2ad6518b731f1dc196d14153b8b6b -->
<g id="edge29" class="edge">
<title>dir_1a6d8571b8eba91bded1d6534762df79&#45;&gt;dir_90a2ad6518b731f1dc196d14153b8b6b</title>
<path fill="none" stroke="black" d="M101.24,-519.6C91.76,-510 82.47,-497.34 78,-484 72.92,-468.83 75.64,-463.82 78,-448 87.41,-385.01 113.61,-314.59 131.78,-277.38"/>
<polygon fill="black" stroke="black" points="135.02,-278.72 136.44,-268.22 128.78,-275.55 135.02,-278.72"/>
<g id="a_edge29&#45;headlabel"><a xlink:href="dir_000027_000006.html" target="_top" xlink:title="31">
<text text-anchor="middle" x="135.92" y="-280.71" font-family="Helvetica,sans-Serif" font-size="10.00">31</text>
</a>
</g>
</g>
<!-- dir_9706acb4d69a98d7c15ebe226493116f -->
<g id="node6" class="node">
<title>dir_9706acb4d69a98d7c15ebe226493116f</title>
<g id="a_node6"><a xlink:href="dir_9706acb4d69a98d7c15ebe226493116f.html" target="_top" xlink:title="fe">
<polygon fill="none" stroke="black" points="306,-196 252,-196 252,-160 306,-160 306,-196"/>
<text text-anchor="middle" x="279" y="-175.5" font-family="Helvetica,sans-Serif" font-size="10.00">fe</text>
</a>
</g>
</g>
<!-- dir_1a6d8571b8eba91bded1d6534762df79&#45;&gt;dir_9706acb4d69a98d7c15ebe226493116f -->
<g id="edge30" class="edge">
<title>dir_1a6d8571b8eba91bded1d6534762df79&#45;&gt;dir_9706acb4d69a98d7c15ebe226493116f</title>
<path fill="none" stroke="black" d="M142.46,-519.84C175.01,-488.53 248.51,-418.11 278,-340 295.01,-294.94 294.45,-279.59 287,-232 285.66,-223.41 283.16,-214.31 280.87,-206.12"/>
<polygon fill="black" stroke="black" points="284.21,-205.06 278.19,-196.33 277.46,-206.9 284.21,-205.06"/>
<g id="a_edge30&#45;headlabel"><a xlink:href="dir_000027_000008.html" target="_top" xlink:title="1">
<text text-anchor="middle" x="287.9" y="-205.27" font-family="Helvetica,sans-Serif" font-size="10.00">1</text>
</a>
</g>
</g>
<!-- dir_b2430326e20a3ae038db3bac19f0573b -->
<g id="node7" class="node">
<title>dir_b2430326e20a3ae038db3bac19f0573b</title>
<g id="a_node7"><a xlink:href="dir_b2430326e20a3ae038db3bac19f0573b.html" target="_top" xlink:title="lac">
<polygon fill="none" stroke="black" points="272,-52 218,-52 218,-16 272,-16 272,-52"/>
<text text-anchor="middle" x="245" y="-31.5" font-family="Helvetica,sans-Serif" font-size="10.00">lac</text>
</a>
</g>
</g>
<!-- dir_1a6d8571b8eba91bded1d6534762df79&#45;&gt;dir_b2430326e20a3ae038db3bac19f0573b -->
<g id="edge32" class="edge">
<title>dir_1a6d8571b8eba91bded1d6534762df79&#45;&gt;dir_b2430326e20a3ae038db3bac19f0573b</title>
<path fill="none" stroke="black" d="M154.07,-533.37C215.27,-523.49 359,-490.16 359,-395 359,-395 359,-395 359,-177 359,-126 313.73,-82.88 280.24,-57.97"/>
<polygon fill="black" stroke="black" points="282.17,-55.05 272.02,-52.04 278.08,-60.73 282.17,-55.05"/>
<g id="a_edge32&#45;headlabel"><a xlink:href="dir_000027_000007.html" target="_top" xlink:title="2">
<text text-anchor="middle" x="286.75" y="-52.35" font-family="Helvetica,sans-Serif" font-size="10.00">2</text>
</a>
</g>
</g>
<!-- dir_a933ab6cde53f9fa4d29dc295cb0ac5f -->
<g id="node9" class="node">
<title>dir_a933ab6cde53f9fa4d29dc295cb0ac5f</title>
<g id="a_node9"><a xlink:href="dir_a933ab6cde53f9fa4d29dc295cb0ac5f.html" target="_top" xlink:title="grid">
<polygon fill="#eeeeff" stroke="black" points="204,-412 150,-412 150,-376 204,-376 204,-412"/>
<text text-anchor="middle" x="177" y="-391.5" font-family="Helvetica,sans-Serif" font-size="10.00">grid</text>
</a>
</g>
</g>
<!-- dir_1a6d8571b8eba91bded1d6534762df79&#45;&gt;dir_a933ab6cde53f9fa4d29dc295cb0ac5f -->
<g id="edge31" class="edge">
<title>dir_1a6d8571b8eba91bded1d6534762df79&#45;&gt;dir_a933ab6cde53f9fa4d29dc295cb0ac5f</title>
<path fill="none" stroke="black" d="M135.74,-519.85C143.16,-510.13 152.71,-497.28 158,-484 165.85,-464.29 168.18,-440.31 170,-422.2"/>
<polygon fill="black" stroke="black" points="173.5,-422.36 171.08,-412.04 166.54,-421.62 173.5,-422.36"/>
<g id="a_edge31&#45;headlabel"><a xlink:href="dir_000027_000009.html" target="_top" xlink:title="1">
<text text-anchor="middle" x="175.94" y="-423.73" font-family="Helvetica,sans-Serif" font-size="10.00">1</text>
</a>
</g>
</g>
<!-- dir_273e60b3573ce9ad58a4d725e6a36523&#45;&gt;dir_1a6d8571b8eba91bded1d6534762df79 -->
<g id="edge2" class="edge">
<title>dir_273e60b3573ce9ad58a4d725e6a36523&#45;&gt;dir_1a6d8571b8eba91bded1d6534762df79</title>
<path fill="none" stroke="black" d="M132.9,-484.1C133.7,-491.79 133.94,-501.05 133.6,-509.67"/>
<polygon fill="black" stroke="black" points="130.11,-509.48 132.92,-519.7 137.09,-509.96 130.11,-509.48"/>
<g id="a_edge2&#45;headlabel"><a xlink:href="dir_000025_000027.html" target="_top" xlink:title="2">
<text text-anchor="middle" x="127.52" y="-503.2" font-family="Helvetica,sans-Serif" font-size="10.00">2</text>
</a>
</g>
</g>
<!-- dir_5c2eb6d9a7a6f1e9cd32e0e8abf42ca6 -->
<g id="node4" class="node">
<title>dir_5c2eb6d9a7a6f1e9cd32e0e8abf42ca6</title>
<g id="a_node4"><a xlink:href="dir_5c2eb6d9a7a6f1e9cd32e0e8abf42ca6.html" target="_top" xlink:title="numerics">
<polygon fill="none" stroke="black" points="240,-124 184,-124 184,-88 240,-88 240,-124"/>
<text text-anchor="middle" x="212" y="-103.5" font-family="Helvetica,sans-Serif" font-size="10.00">numerics</text>
</a>
</g>
</g>
<!-- dir_273e60b3573ce9ad58a4d725e6a36523&#45;&gt;dir_5c2eb6d9a7a6f1e9cd32e0e8abf42ca6 -->
<g id="edge3" class="edge">
<title>dir_273e60b3573ce9ad58a4d725e6a36523&#45;&gt;dir_5c2eb6d9a7a6f1e9cd32e0e8abf42ca6</title>
<path fill="none" stroke="black" d="M121.55,-447.71C110.01,-408.2 86.29,-308.74 113,-232 127.12,-191.42 160.51,-154.1 184.61,-131"/>
<polygon fill="black" stroke="black" points="187.16,-133.41 192.07,-124.02 182.38,-128.3 187.16,-133.41"/>
<g id="a_edge3&#45;headlabel"><a xlink:href="dir_000025_000026.html" target="_top" xlink:title="2">
<text text-anchor="middle" x="186.48" y="-135.44" font-family="Helvetica,sans-Serif" font-size="10.00">2</text>
</a>
</g>
</g>
<!-- dir_273e60b3573ce9ad58a4d725e6a36523&#45;&gt;dir_90a2ad6518b731f1dc196d14153b8b6b -->
<g id="edge4" class="edge">
<title>dir_273e60b3573ce9ad58a4d725e6a36523&#45;&gt;dir_90a2ad6518b731f1dc196d14153b8b6b</title>
<path fill="none" stroke="black" d="M122.17,-447.54C119.92,-417.92 123.18,-355.97 130,-304 131.13,-295.42 132.74,-286.13 134.77,-277.75"/>
<polygon fill="black" stroke="black" points="138.15,-278.68 137.45,-268.11 131.4,-276.81 138.15,-278.68"/>
<g id="a_edge4&#45;headlabel"><a xlink:href="dir_000025_000006.html" target="_top" xlink:title="26">
<text text-anchor="middle" x="139.92" y="-280.4" font-family="Helvetica,sans-Serif" font-size="10.00">26</text>
</a>
</g>
</g>
<!-- dir_273e60b3573ce9ad58a4d725e6a36523&#45;&gt;dir_a933ab6cde53f9fa4d29dc295cb0ac5f -->
<g id="edge5" class="edge">
<title>dir_273e60b3573ce9ad58a4d725e6a36523&#45;&gt;dir_a933ab6cde53f9fa4d29dc295cb0ac5f</title>
<path fill="none" stroke="black" d="M133.44,-447.7C138.52,-439.39 145.55,-429.28 152.54,-420.14"/>
<polygon fill="black" stroke="black" points="155.43,-422.12 158.89,-412.1 149.94,-417.78 155.43,-422.12"/>
<g id="a_edge5&#45;headlabel"><a xlink:href="dir_000025_000009.html" target="_top" xlink:title="4">
<text text-anchor="middle" x="155.43" y="-424.2" font-family="Helvetica,sans-Serif" font-size="10.00">4</text>
</a>
</g>
</g>
<!-- dir_4022f63979af12af4c32ec9a4562b2df&#45;&gt;dir_1a6d8571b8eba91bded1d6534762df79 -->
<g id="edge7" class="edge">
<title>dir_4022f63979af12af4c32ec9a4562b2df&#45;&gt;dir_1a6d8571b8eba91bded1d6534762df79</title>
<path fill="none" stroke="black" d="M111.36,-52.12C79.9,-75.65 26,-121.45 26,-177 26,-395 26,-395 26,-395 26,-437.67 35.61,-450.47 62,-484 71.2,-495.69 83.64,-505.95 95.25,-514.25"/>
<polygon fill="black" stroke="black" points="93.28,-517.14 103.5,-519.94 97.25,-511.38 93.28,-517.14"/>
<g id="a_edge7&#45;headlabel"><a xlink:href="dir_000028_000027.html" target="_top" xlink:title="2">
<text text-anchor="middle" x="88.71" y="-514.94" font-family="Helvetica,sans-Serif" font-size="10.00">2</text>
</a>
</g>
</g>
<!-- dir_4022f63979af12af4c32ec9a4562b2df&#45;&gt;dir_90a2ad6518b731f1dc196d14153b8b6b -->
<g id="edge8" class="edge">
<title>dir_4022f63979af12af4c32ec9a4562b2df&#45;&gt;dir_90a2ad6518b731f1dc196d14153b8b6b</title>
<path fill="none" stroke="black" d="M138.17,-52.23C144.48,-89.32 151.3,-176.98 151.65,-221.71"/>
<polygon fill="black" stroke="black" points="148.14,-221.83 151.6,-231.85 155.14,-221.87 148.14,-221.83"/>
<g id="a_edge8&#45;headlabel"><a xlink:href="dir_000028_000006.html" target="_top" xlink:title="13">
<text text-anchor="middle" x="145.32" y="-215.72" font-family="Helvetica,sans-Serif" font-size="10.00">13</text>
</a>
</g>
</g>
<!-- dir_4022f63979af12af4c32ec9a4562b2df&#45;&gt;dir_9706acb4d69a98d7c15ebe226493116f -->
<g id="edge9" class="edge">
<title>dir_4022f63979af12af4c32ec9a4562b2df&#45;&gt;dir_9706acb4d69a98d7c15ebe226493116f</title>
<path fill="none" stroke="black" d="M160.31,-39.24C188.9,-45.51 232.5,-59.71 258,-88 262.32,-92.8 272.78,-125.72 277.99,-150.13"/>
<polygon fill="black" stroke="black" points="274.56,-150.81 279.88,-159.97 281.43,-149.49 274.56,-150.81"/>
<g id="a_edge9&#45;headlabel"><a xlink:href="dir_000028_000008.html" target="_top" xlink:title="7">
<text text-anchor="middle" x="271.1" y="-145.31" font-family="Helvetica,sans-Serif" font-size="10.00">7</text>
</a>
</g>
</g>
<!-- dir_4022f63979af12af4c32ec9a4562b2df&#45;&gt;dir_a933ab6cde53f9fa4d29dc295cb0ac5f -->
<g id="edge10" class="edge">
<title>dir_4022f63979af12af4c32ec9a4562b2df&#45;&gt;dir_a933ab6cde53f9fa4d29dc295cb0ac5f</title>
<path fill="none" stroke="black" d="M133.25,-52.09C128.08,-90.79 108,-188.02 122,-268 127.87,-301.51 132.16,-309.89 148,-340 152.88,-349.27 159.19,-358.77 164.85,-367.11"/>
<polygon fill="black" stroke="black" points="162.12,-369.32 170.62,-375.65 167.92,-365.4 162.12,-369.32"/>
<g id="a_edge10&#45;headlabel"><a xlink:href="dir_000028_000009.html" target="_top" xlink:title="2">
<text text-anchor="middle" x="157.75" y="-365.44" font-family="Helvetica,sans-Serif" font-size="10.00">2</text>
</a>
</g>
</g>
<!-- dir_5c2eb6d9a7a6f1e9cd32e0e8abf42ca6&#45;&gt;dir_1a6d8571b8eba91bded1d6534762df79 -->
<g id="edge33" class="edge">
<title>dir_5c2eb6d9a7a6f1e9cd32e0e8abf42ca6&#45;&gt;dir_1a6d8571b8eba91bded1d6534762df79</title>
<path fill="none" stroke="black" d="M183.76,-118.76C165.37,-127.68 142.09,-141.56 127,-160 105.35,-186.44 107.64,-198.69 100,-232 29.63,-538.68 63.65,-440.92 80,-484 83.97,-494.46 91.05,-504.17 98.53,-512.35"/>
<polygon fill="black" stroke="black" points="96.23,-515.01 105.73,-519.7 101.23,-510.11 96.23,-515.01"/>
<g id="a_edge33&#45;headlabel"><a xlink:href="dir_000026_000027.html" target="_top" xlink:title="12">
<text text-anchor="middle" x="91.69" y="-511.93" font-family="Helvetica,sans-Serif" font-size="10.00">12</text>
</a>
</g>
</g>
<!-- dir_5c2eb6d9a7a6f1e9cd32e0e8abf42ca6&#45;&gt;dir_4022f63979af12af4c32ec9a4562b2df -->
<g id="edge34" class="edge">
<title>dir_5c2eb6d9a7a6f1e9cd32e0e8abf42ca6&#45;&gt;dir_4022f63979af12af4c32ec9a4562b2df</title>
<path fill="none" stroke="black" d="M192.47,-87.7C182.62,-78.97 170.51,-68.24 159.8,-58.75"/>
<polygon fill="black" stroke="black" points="162.11,-56.12 152.3,-52.1 157.47,-61.36 162.11,-56.12"/>
<g id="a_edge34&#45;headlabel"><a xlink:href="dir_000026_000028.html" target="_top" xlink:title="5">
<text text-anchor="middle" x="166.68" y="-53.88" font-family="Helvetica,sans-Serif" font-size="10.00">5</text>
</a>
</g>
</g>
<!-- dir_5c2eb6d9a7a6f1e9cd32e0e8abf42ca6&#45;&gt;dir_90a2ad6518b731f1dc196d14153b8b6b -->
<g id="edge35" class="edge">
<title>dir_5c2eb6d9a7a6f1e9cd32e0e8abf42ca6&#45;&gt;dir_90a2ad6518b731f1dc196d14153b8b6b</title>
<path fill="none" stroke="black" d="M212.95,-124.01C209,-142.14 198.31,-171.52 187,-196 182.82,-205.05 177.75,-214.68 172.56,-223.21"/>
<polygon fill="black" stroke="black" points="169.61,-221.34 167.15,-231.64 175.5,-225.12 169.61,-221.34"/>
<g id="a_edge35&#45;headlabel"><a xlink:href="dir_000026_000006.html" target="_top" xlink:title="74">
<text text-anchor="middle" x="169.16" y="-214.28" font-family="Helvetica,sans-Serif" font-size="10.00">74</text>
</a>
</g>
</g>
<!-- dir_5c2eb6d9a7a6f1e9cd32e0e8abf42ca6&#45;&gt;dir_9706acb4d69a98d7c15ebe226493116f -->
<g id="edge36" class="edge">
<title>dir_5c2eb6d9a7a6f1e9cd32e0e8abf42ca6&#45;&gt;dir_9706acb4d69a98d7c15ebe226493116f</title>
<path fill="none" stroke="black" d="M234.27,-124.1C243.15,-132.47 253.14,-142.69 261.5,-151.92"/>
<polygon fill="black" stroke="black" points="259.12,-154.51 268.35,-159.7 264.37,-149.88 259.12,-154.51"/>
<g id="a_edge36&#45;headlabel"><a xlink:href="dir_000026_000008.html" target="_top" xlink:title="15">
<text text-anchor="middle" x="254.61" y="-151.19" font-family="Helvetica,sans-Serif" font-size="10.00">15</text>
</a>
</g>
</g>
<!-- dir_5c2eb6d9a7a6f1e9cd32e0e8abf42ca6&#45;&gt;dir_b2430326e20a3ae038db3bac19f0573b -->
<g id="edge38" class="edge">
<title>dir_5c2eb6d9a7a6f1e9cd32e0e8abf42ca6&#45;&gt;dir_b2430326e20a3ae038db3bac19f0573b</title>
<path fill="none" stroke="black" d="M220.16,-87.7C223.91,-79.73 228.45,-70.1 232.62,-61.26"/>
<polygon fill="black" stroke="black" points="235.84,-62.64 236.94,-52.1 229.51,-59.66 235.84,-62.64"/>
<g id="a_edge38&#45;headlabel"><a xlink:href="dir_000026_000007.html" target="_top" xlink:title="10">
<text text-anchor="middle" x="236.87" y="-64.6" font-family="Helvetica,sans-Serif" font-size="10.00">10</text>
</a>
</g>
</g>
<!-- dir_e52416a0736076e78cf51ec6b663e78d -->
<g id="node8" class="node">
<title>dir_e52416a0736076e78cf51ec6b663e78d</title>
<g id="a_node8"><a xlink:href="dir_e52416a0736076e78cf51ec6b663e78d.html" target="_top" xlink:title="boost_adaptors">
<polygon fill="none" stroke="black" points="239.5,-340 156.5,-340 156.5,-304 239.5,-304 239.5,-340"/>
<text text-anchor="middle" x="198" y="-319.5" font-family="Helvetica,sans-Serif" font-size="10.00">boost_adaptors</text>
</a>
</g>
</g>
<!-- dir_5c2eb6d9a7a6f1e9cd32e0e8abf42ca6&#45;&gt;dir_e52416a0736076e78cf51ec6b663e78d -->
<g id="edge39" class="edge">
<title>dir_5c2eb6d9a7a6f1e9cd32e0e8abf42ca6&#45;&gt;dir_e52416a0736076e78cf51ec6b663e78d</title>
<path fill="none" stroke="black" d="M210.87,-124.23C208.45,-161.32 202.71,-248.98 199.79,-293.71"/>
<polygon fill="black" stroke="black" points="196.28,-293.64 199.12,-303.85 203.27,-294.1 196.28,-293.64"/>
<g id="a_edge39&#45;headlabel"><a xlink:href="dir_000026_000019.html" target="_top" xlink:title="3">
<text text-anchor="middle" x="193.68" y="-287.37" font-family="Helvetica,sans-Serif" font-size="10.00">3</text>
</a>
</g>
</g>
<!-- dir_5c2eb6d9a7a6f1e9cd32e0e8abf42ca6&#45;&gt;dir_a933ab6cde53f9fa4d29dc295cb0ac5f -->
<g id="edge37" class="edge">
<title>dir_5c2eb6d9a7a6f1e9cd32e0e8abf42ca6&#45;&gt;dir_a933ab6cde53f9fa4d29dc295cb0ac5f</title>
<path fill="none" stroke="black" d="M221.48,-124.15C240.61,-171.3 277.27,-301.89 258,-340 248.9,-358 230.49,-371.38 213.39,-380.19"/>
<polygon fill="black" stroke="black" points="211.61,-377.16 204.09,-384.62 214.62,-383.48 211.61,-377.16"/>
<g id="a_edge37&#45;headlabel"><a xlink:href="dir_000026_000009.html" target="_top" xlink:title="7">
<text text-anchor="middle" x="213.64" y="-370.55" font-family="Helvetica,sans-Serif" font-size="10.00">7</text>
</a>
</g>
</g>
<!-- dir_90a2ad6518b731f1dc196d14153b8b6b&#45;&gt;dir_1a6d8571b8eba91bded1d6534762df79 -->
<g id="edge19" class="edge">
<title>dir_90a2ad6518b731f1dc196d14153b8b6b&#45;&gt;dir_1a6d8571b8eba91bded1d6534762df79</title>
<path fill="none" stroke="black" d="M146.66,-268.22C136.43,-301.94 106.25,-379.38 96,-448 93.64,-463.82 90.92,-468.83 96,-484 99.32,-493.9 105.29,-503.42 111.23,-511.6"/>
<polygon fill="black" stroke="black" points="108.46,-513.75 117.29,-519.6 114.04,-509.52 108.46,-513.75"/>
<g id="a_edge19&#45;headlabel"><a xlink:href="dir_000006_000027.html" target="_top" xlink:title="2">
<text text-anchor="middle" x="104.03" y="-510.1" font-family="Helvetica,sans-Serif" font-size="10.00">2</text>
</a>
</g>
</g>
<!-- dir_90a2ad6518b731f1dc196d14153b8b6b&#45;&gt;dir_273e60b3573ce9ad58a4d725e6a36523 -->
<g id="edge20" class="edge">
<title>dir_90a2ad6518b731f1dc196d14153b8b6b&#45;&gt;dir_273e60b3573ce9ad58a4d725e6a36523</title>
<path fill="none" stroke="black" d="M153.09,-268.11C152.14,-278.45 149.58,-291.93 148,-304 141.87,-350.69 138.62,-405.44 134.56,-437.56"/>
<polygon fill="black" stroke="black" points="131.09,-437.15 133.15,-447.54 138.02,-438.13 131.09,-437.15"/>
<g id="a_edge20&#45;headlabel"><a xlink:href="dir_000006_000025.html" target="_top" xlink:title="1">
<text text-anchor="middle" x="128.78" y="-430.69" font-family="Helvetica,sans-Serif" font-size="10.00">1</text>
</a>
</g>
</g>
<!-- dir_90a2ad6518b731f1dc196d14153b8b6b&#45;&gt;dir_4022f63979af12af4c32ec9a4562b2df -->
<g id="edge21" class="edge">
<title>dir_90a2ad6518b731f1dc196d14153b8b6b&#45;&gt;dir_4022f63979af12af4c32ec9a4562b2df</title>
<path fill="none" stroke="black" d="M143.84,-231.85C137.54,-194.83 130.71,-107.18 130.36,-62.39"/>
<polygon fill="black" stroke="black" points="133.86,-62.25 130.4,-52.23 126.86,-62.22 133.86,-62.25"/>
<g id="a_edge21&#45;headlabel"><a xlink:href="dir_000006_000028.html" target="_top" xlink:title="1">
<text text-anchor="middle" x="136.68" y="-63.36" font-family="Helvetica,sans-Serif" font-size="10.00">1</text>
</a>
</g>
</g>
<!-- dir_90a2ad6518b731f1dc196d14153b8b6b&#45;&gt;dir_5c2eb6d9a7a6f1e9cd32e0e8abf42ca6 -->
<g id="edge22" class="edge">
<title>dir_90a2ad6518b731f1dc196d14153b8b6b&#45;&gt;dir_5c2eb6d9a7a6f1e9cd32e0e8abf42ca6</title>
<path fill="none" stroke="black" d="M151.4,-231.64C156.12,-221.44 163.37,-208.19 169,-196 178.54,-175.35 187.64,-151.2 195.42,-133.27"/>
<polygon fill="black" stroke="black" points="198.68,-134.57 199.6,-124.01 192.3,-131.69 198.68,-134.57"/>
<g id="a_edge22&#45;headlabel"><a xlink:href="dir_000006_000026.html" target="_top" xlink:title="2">
<text text-anchor="middle" x="199.78" y="-136.51" font-family="Helvetica,sans-Serif" font-size="10.00">2</text>
</a>
</g>
</g>
<!-- dir_90a2ad6518b731f1dc196d14153b8b6b&#45;&gt;dir_9706acb4d69a98d7c15ebe226493116f -->
<g id="edge23" class="edge">
<title>dir_90a2ad6518b731f1dc196d14153b8b6b&#45;&gt;dir_9706acb4d69a98d7c15ebe226493116f</title>
<path fill="none" stroke="black" d="M174.9,-231.88C194.31,-220.81 220.95,-206.47 242.48,-195.52"/>
<polygon fill="black" stroke="black" points="244.31,-198.52 251.67,-190.9 241.16,-192.27 244.31,-198.52"/>
<g id="a_edge23&#45;headlabel"><a xlink:href="dir_000006_000008.html" target="_top" xlink:title="4">
<text text-anchor="middle" x="242.37" y="-200.17" font-family="Helvetica,sans-Serif" font-size="10.00">4</text>
</a>
</g>
</g>
<!-- dir_90a2ad6518b731f1dc196d14153b8b6b&#45;&gt;dir_b2430326e20a3ae038db3bac19f0573b -->
<g id="edge25" class="edge">
<title>dir_90a2ad6518b731f1dc196d14153b8b6b&#45;&gt;dir_b2430326e20a3ae038db3bac19f0573b</title>
<path fill="none" stroke="black" d="M145.35,-231.93C143.86,-195.62 151.52,-112.08 166,-88 175.85,-71.62 192.84,-58.57 208.68,-49.52"/>
<polygon fill="black" stroke="black" points="210.63,-52.45 217.81,-44.66 207.33,-46.27 210.63,-52.45"/>
<g id="a_edge25&#45;headlabel"><a xlink:href="dir_000006_000007.html" target="_top" xlink:title="8">
<text text-anchor="middle" x="208.79" y="-54.14" font-family="Helvetica,sans-Serif" font-size="10.00">8</text>
</a>
</g>
</g>
<!-- dir_90a2ad6518b731f1dc196d14153b8b6b&#45;&gt;dir_e52416a0736076e78cf51ec6b663e78d -->
<g id="edge26" class="edge">
<title>dir_90a2ad6518b731f1dc196d14153b8b6b&#45;&gt;dir_e52416a0736076e78cf51ec6b663e78d</title>
<path fill="none" stroke="black" d="M166.87,-268.1C173.39,-276.21 180.51,-286.08 186.4,-295.08"/>
<polygon fill="black" stroke="black" points="183.53,-297.08 191.8,-303.7 189.46,-293.37 183.53,-297.08"/>
<g id="a_edge26&#45;headlabel"><a xlink:href="dir_000006_000019.html" target="_top" xlink:title="3">
<text text-anchor="middle" x="179.21" y="-293.05" font-family="Helvetica,sans-Serif" font-size="10.00">3</text>
</a>
</g>
</g>
<!-- dir_90a2ad6518b731f1dc196d14153b8b6b&#45;&gt;dir_a933ab6cde53f9fa4d29dc295cb0ac5f -->
<g id="edge24" class="edge">
<title>dir_90a2ad6518b731f1dc196d14153b8b6b&#45;&gt;dir_a933ab6cde53f9fa4d29dc295cb0ac5f</title>
<path fill="none" stroke="black" d="M152.91,-268.04C152.87,-286.19 150.76,-315.6 157,-340 159.35,-349.2 163.67,-358.53 167.87,-366.74"/>
<polygon fill="black" stroke="black" points="164.87,-368.56 172.62,-375.78 171.07,-365.3 164.87,-368.56"/>
<g id="a_edge24&#45;headlabel"><a xlink:href="dir_000006_000009.html" target="_top" xlink:title="8">
<text text-anchor="middle" x="160.69" y="-364.19" font-family="Helvetica,sans-Serif" font-size="10.00">8</text>
</a>
</g>
</g>
<!-- dir_9706acb4d69a98d7c15ebe226493116f&#45;&gt;dir_1a6d8571b8eba91bded1d6534762df79 -->
<g id="edge40" class="edge">
<title>dir_9706acb4d69a98d7c15ebe226493116f&#45;&gt;dir_1a6d8571b8eba91bded1d6534762df79</title>
<path fill="none" stroke="black" d="M293.94,-196.33C298.84,-206.53 303.09,-219.78 305,-232 312.45,-279.59 313.01,-294.94 296,-340 268.36,-413.23 202.02,-479.7 161.01,-513.52"/>
<polygon fill="black" stroke="black" points="158.75,-510.84 153.16,-519.84 163.14,-516.29 158.75,-510.84"/>
<g id="a_edge40&#45;headlabel"><a xlink:href="dir_000008_000027.html" target="_top" xlink:title="6">
<text text-anchor="middle" x="159.77" y="-503.87" font-family="Helvetica,sans-Serif" font-size="10.00">6</text>
</a>
</g>
</g>
<!-- dir_9706acb4d69a98d7c15ebe226493116f&#45;&gt;dir_273e60b3573ce9ad58a4d725e6a36523 -->
<g id="edge41" class="edge">
<title>dir_9706acb4d69a98d7c15ebe226493116f&#45;&gt;dir_273e60b3573ce9ad58a4d725e6a36523</title>
<path fill="none" stroke="black" d="M283.46,-196.05C285.94,-206.37 288.75,-219.85 290,-232 294.94,-280.15 297.29,-296.53 276,-340 252.86,-387.24 202.7,-423.28 166.98,-444.25"/>
<polygon fill="black" stroke="black" points="165.17,-441.25 158.23,-449.26 168.65,-447.33 165.17,-441.25"/>
<g id="a_edge41&#45;headlabel"><a xlink:href="dir_000008_000025.html" target="_top" xlink:title="1">
<text text-anchor="middle" x="166.88" y="-434.5" font-family="Helvetica,sans-Serif" font-size="10.00">1</text>
</a>
</g>
</g>
<!-- dir_9706acb4d69a98d7c15ebe226493116f&#45;&gt;dir_4022f63979af12af4c32ec9a4562b2df -->
<g id="edge42" class="edge">
<title>dir_9706acb4d69a98d7c15ebe226493116f&#45;&gt;dir_4022f63979af12af4c32ec9a4562b2df</title>
<path fill="none" stroke="black" d="M268.24,-159.97C257.89,-135.7 244.94,-93.48 240,-88 221.27,-67.23 192.79,-54.05 169.81,-46.03"/>
<polygon fill="black" stroke="black" points="170.62,-42.61 160.02,-42.8 168.42,-49.26 170.62,-42.61"/>
<g id="a_edge42&#45;headlabel"><a xlink:href="dir_000008_000028.html" target="_top" xlink:title="7">
<text text-anchor="middle" x="174.92" y="-38.54" font-family="Helvetica,sans-Serif" font-size="10.00">7</text>
</a>
</g>
</g>
<!-- dir_9706acb4d69a98d7c15ebe226493116f&#45;&gt;dir_5c2eb6d9a7a6f1e9cd32e0e8abf42ca6 -->
<g id="edge43" class="edge">
<title>dir_9706acb4d69a98d7c15ebe226493116f&#45;&gt;dir_5c2eb6d9a7a6f1e9cd32e0e8abf42ca6</title>
<path fill="none" stroke="black" d="M256.52,-159.7C247.62,-151.3 237.64,-141.07 229.3,-131.86"/>
<polygon fill="black" stroke="black" points="231.71,-129.3 222.48,-124.1 226.46,-133.92 231.71,-129.3"/>
<g id="a_edge43&#45;headlabel"><a xlink:href="dir_000008_000026.html" target="_top" xlink:title="1">
<text text-anchor="middle" x="236.22" y="-127.62" font-family="Helvetica,sans-Serif" font-size="10.00">1</text>
</a>
</g>
</g>
<!-- dir_9706acb4d69a98d7c15ebe226493116f&#45;&gt;dir_90a2ad6518b731f1dc196d14153b8b6b -->
<g id="edge44" class="edge">
<title>dir_9706acb4d69a98d7c15ebe226493116f&#45;&gt;dir_90a2ad6518b731f1dc196d14153b8b6b</title>
<path fill="none" stroke="black" d="M252.98,-196.19C233.56,-207.27 206.95,-221.58 185.44,-232.52"/>
<polygon fill="black" stroke="black" points="183.63,-229.51 176.27,-237.13 186.78,-235.76 183.63,-229.51"/>
<g id="a_edge44&#45;headlabel"><a xlink:href="dir_000008_000006.html" target="_top" xlink:title="191">
<text text-anchor="middle" x="185.57" y="-222.86" font-family="Helvetica,sans-Serif" font-size="10.00">191</text>
</a>
</g>
</g>
<!-- dir_9706acb4d69a98d7c15ebe226493116f&#45;&gt;dir_b2430326e20a3ae038db3bac19f0573b -->
<g id="edge46" class="edge">
<title>dir_9706acb4d69a98d7c15ebe226493116f&#45;&gt;dir_b2430326e20a3ae038db3bac19f0573b</title>
<path fill="none" stroke="black" d="M277.01,-159.75C274.72,-141.68 270.42,-112.56 264,-88 261.75,-79.39 258.7,-70.21 255.7,-61.94"/>
<polygon fill="black" stroke="black" points="258.92,-60.55 252.13,-52.42 252.36,-63.01 258.92,-60.55"/>
<g id="a_edge46&#45;headlabel"><a xlink:href="dir_000008_000007.html" target="_top" xlink:title="7">
<text text-anchor="middle" x="262.84" y="-60.42" font-family="Helvetica,sans-Serif" font-size="10.00">7</text>
</a>
</g>
</g>
<!-- dir_9706acb4d69a98d7c15ebe226493116f&#45;&gt;dir_a933ab6cde53f9fa4d29dc295cb0ac5f -->
<g id="edge45" class="edge">
<title>dir_9706acb4d69a98d7c15ebe226493116f&#45;&gt;dir_a933ab6cde53f9fa4d29dc295cb0ac5f</title>
<path fill="none" stroke="black" d="M287.35,-196.07C295.77,-227.28 301.4,-294.52 273,-340 259.84,-361.07 234.92,-374.98 213.63,-383.24"/>
<polygon fill="black" stroke="black" points="212.38,-379.97 204.16,-386.64 214.75,-386.55 212.38,-379.97"/>
<g id="a_edge45&#45;headlabel"><a xlink:href="dir_000008_000009.html" target="_top" xlink:title="9">
<text text-anchor="middle" x="214.81" y="-373.58" font-family="Helvetica,sans-Serif" font-size="10.00">9</text>
</a>
</g>
</g>
<!-- dir_b2430326e20a3ae038db3bac19f0573b&#45;&gt;dir_90a2ad6518b731f1dc196d14153b8b6b -->
<g id="edge6" class="edge">
<title>dir_b2430326e20a3ae038db3bac19f0573b&#45;&gt;dir_90a2ad6518b731f1dc196d14153b8b6b</title>
<path fill="none" stroke="black" d="M220.75,-52.08C207.82,-60.97 192.96,-73.11 184,-88 170.73,-110.06 163.2,-182 156.72,-221.84"/>
<polygon fill="black" stroke="black" points="153.23,-221.47 154.96,-231.93 160.12,-222.68 153.23,-221.47"/>
<g id="a_edge6&#45;headlabel"><a xlink:href="dir_000007_000006.html" target="_top" xlink:title="312">
<text text-anchor="middle" x="151.05" y="-214.94" font-family="Helvetica,sans-Serif" font-size="10.00">312</text>
</a>
</g>
</g>
<!-- dir_e52416a0736076e78cf51ec6b663e78d&#45;&gt;dir_90a2ad6518b731f1dc196d14153b8b6b -->
<g id="edge1" class="edge">
<title>dir_e52416a0736076e78cf51ec6b663e78d&#45;&gt;dir_90a2ad6518b731f1dc196d14153b8b6b</title>
<path fill="none" stroke="black" d="M179.97,-303.7C173.44,-295.56 166.32,-285.69 160.46,-276.7"/>
<polygon fill="black" stroke="black" points="163.35,-274.73 155.08,-268.1 157.42,-278.44 163.35,-274.73"/>
<g id="a_edge1&#45;headlabel"><a xlink:href="dir_000019_000006.html" target="_top" xlink:title="6">
<text text-anchor="middle" x="167.66" y="-273.77" font-family="Helvetica,sans-Serif" font-size="10.00">6</text>
</a>
</g>
</g>
<!-- dir_a933ab6cde53f9fa4d29dc295cb0ac5f&#45;&gt;dir_1a6d8571b8eba91bded1d6534762df79 -->
<g id="edge11" class="edge">
<title>dir_a933ab6cde53f9fa4d29dc295cb0ac5f&#45;&gt;dir_1a6d8571b8eba91bded1d6534762df79</title>
<path fill="none" stroke="black" d="M184.34,-412.04C186.89,-430.45 185.44,-460.31 176,-484 171.99,-494.06 165.53,-503.88 158.52,-512.27"/>
<polygon fill="black" stroke="black" points="155.79,-510.08 151.69,-519.85 160.99,-514.77 155.79,-510.08"/>
<g id="a_edge11&#45;headlabel"><a xlink:href="dir_000009_000027.html" target="_top" xlink:title="2">
<text text-anchor="middle" x="156.09" y="-503.01" font-family="Helvetica,sans-Serif" font-size="10.00">2</text>
</a>
</g>
</g>
<!-- dir_a933ab6cde53f9fa4d29dc295cb0ac5f&#45;&gt;dir_273e60b3573ce9ad58a4d725e6a36523 -->
<g id="edge12" class="edge">
<title>dir_a933ab6cde53f9fa4d29dc295cb0ac5f&#45;&gt;dir_273e60b3573ce9ad58a4d725e6a36523</title>
<path fill="none" stroke="black" d="M170.68,-412.1C165.63,-420.38 158.62,-430.49 151.63,-439.64"/>
<polygon fill="black" stroke="black" points="148.72,-437.68 145.28,-447.7 154.22,-442.01 148.72,-437.68"/>
<g id="a_edge12&#45;headlabel"><a xlink:href="dir_000009_000025.html" target="_top" xlink:title="2">
<text text-anchor="middle" x="148.72" y="-430.6" font-family="Helvetica,sans-Serif" font-size="10.00">2</text>
</a>
</g>
</g>
<!-- dir_a933ab6cde53f9fa4d29dc295cb0ac5f&#45;&gt;dir_4022f63979af12af4c32ec9a4562b2df -->
<g id="edge13" class="edge">
<title>dir_a933ab6cde53f9fa4d29dc295cb0ac5f&#45;&gt;dir_4022f63979af12af4c32ec9a4562b2df</title>
<path fill="none" stroke="black" d="M154.77,-375.65C145.95,-365.66 136.64,-352.63 130,-340 114.16,-309.89 109.87,-301.51 104,-268 91.04,-193.95 107.29,-105.13 120.68,-61.64"/>
<polygon fill="black" stroke="black" points="124.02,-62.68 123.83,-52.09 117.38,-60.49 124.02,-62.68"/>
<g id="a_edge13&#45;headlabel"><a xlink:href="dir_000009_000028.html" target="_top" xlink:title="1">
<text text-anchor="middle" x="125.59" y="-64.48" font-family="Helvetica,sans-Serif" font-size="10.00">1</text>
</a>
</g>
</g>
<!-- dir_a933ab6cde53f9fa4d29dc295cb0ac5f&#45;&gt;dir_5c2eb6d9a7a6f1e9cd32e0e8abf42ca6 -->
<g id="edge14" class="edge">
<title>dir_a933ab6cde53f9fa4d29dc295cb0ac5f&#45;&gt;dir_5c2eb6d9a7a6f1e9cd32e0e8abf42ca6</title>
<path fill="none" stroke="black" d="M204.02,-376.28C217.39,-367.6 232.16,-355.51 240,-340 258.02,-304.35 227.1,-187.75 215.34,-134.26"/>
<polygon fill="black" stroke="black" points="218.69,-133.21 213.2,-124.15 211.84,-134.66 218.69,-133.21"/>
<g id="a_edge14&#45;headlabel"><a xlink:href="dir_000009_000026.html" target="_top" xlink:title="3">
<text text-anchor="middle" x="222.21" y="-133.64" font-family="Helvetica,sans-Serif" font-size="10.00">3</text>
</a>
</g>
</g>
<!-- dir_a933ab6cde53f9fa4d29dc295cb0ac5f&#45;&gt;dir_90a2ad6518b731f1dc196d14153b8b6b -->
<g id="edge15" class="edge">
<title>dir_a933ab6cde53f9fa4d29dc295cb0ac5f&#45;&gt;dir_90a2ad6518b731f1dc196d14153b8b6b</title>
<path fill="none" stroke="black" d="M156.77,-375.78C149.35,-365.84 142.27,-352.8 139,-340 133.81,-319.7 134.4,-295.93 137.44,-278.06"/>
<polygon fill="black" stroke="black" points="140.91,-278.55 139.55,-268.04 134.06,-277.1 140.91,-278.55"/>
<g id="a_edge15&#45;headlabel"><a xlink:href="dir_000009_000006.html" target="_top" xlink:title="89">
<text text-anchor="middle" x="142.95" y="-280.15" font-family="Helvetica,sans-Serif" font-size="10.00">89</text>
</a>
</g>
</g>
<!-- dir_a933ab6cde53f9fa4d29dc295cb0ac5f&#45;&gt;dir_9706acb4d69a98d7c15ebe226493116f -->
<g id="edge16" class="edge">
<title>dir_a933ab6cde53f9fa4d29dc295cb0ac5f&#45;&gt;dir_9706acb4d69a98d7c15ebe226493116f</title>
<path fill="none" stroke="black" d="M204.04,-380.7C221.6,-372.24 243.1,-359.05 255,-340 280.63,-298.96 278.55,-240.21 277.2,-206.19"/>
<polygon fill="black" stroke="black" points="280.69,-205.93 276.82,-196.07 273.7,-206.2 280.69,-205.93"/>
<g id="a_edge16&#45;headlabel"><a xlink:href="dir_000009_000008.html" target="_top" xlink:title="3">
<text text-anchor="middle" x="283.66" y="-206.92" font-family="Helvetica,sans-Serif" font-size="10.00">3</text>
</a>
</g>
</g>
<!-- dir_a933ab6cde53f9fa4d29dc295cb0ac5f&#45;&gt;dir_b2430326e20a3ae038db3bac19f0573b -->
<g id="edge17" class="edge">
<title>dir_a933ab6cde53f9fa4d29dc295cb0ac5f&#45;&gt;dir_b2430326e20a3ae038db3bac19f0573b</title>
<path fill="none" stroke="black" d="M204.05,-385.19C226.52,-377.34 257.68,-363.04 276,-340 317.27,-288.11 306.26,-261.73 315,-196 317.11,-180.14 319.04,-175.48 315,-160 305.27,-122.7 281.67,-84.76 264.56,-60.61"/>
<polygon fill="black" stroke="black" points="267.28,-58.41 258.58,-52.37 261.62,-62.52 267.28,-58.41"/>
<g id="a_edge17&#45;headlabel"><a xlink:href="dir_000009_000007.html" target="_top" xlink:title="1">
<text text-anchor="middle" x="271.69" y="-57.16" font-family="Helvetica,sans-Serif" font-size="10.00">1</text>
</a>
</g>
</g>
<!-- dir_a933ab6cde53f9fa4d29dc295cb0ac5f&#45;&gt;dir_e52416a0736076e78cf51ec6b663e78d -->
<g id="edge18" class="edge">
<title>dir_a933ab6cde53f9fa4d29dc295cb0ac5f&#45;&gt;dir_e52416a0736076e78cf51ec6b663e78d</title>
<path fill="none" stroke="black" d="M182.19,-375.7C184.53,-367.9 187.35,-358.51 189.95,-349.83"/>
<polygon fill="black" stroke="black" points="193.35,-350.69 192.87,-340.1 186.64,-348.68 193.35,-350.69"/>
<g id="a_edge18&#45;headlabel"><a xlink:href="dir_000009_000019.html" target="_top" xlink:title="1">
<text text-anchor="middle" x="195.03" y="-352.45" font-family="Helvetica,sans-Serif" font-size="10.00">1</text>
</a>
</g>
</g>
</g>
</svg>
