<?xml version="1.0" encoding="UTF-8" standalone="no"?>
<!DOCTYPE svg PUBLIC "-//W3C//DTD SVG 1.1//EN"
 "http://www.w3.org/Graphics/SVG/1.1/DTD/svg11.dtd">
<!-- Generated by graphviz version 2.47.1 (20210417.1919)
 -->
<!-- Title: include/deal.II/algorithms Pages: 1 -->
<svg width="114pt" height="239pt"
 viewBox="0.00 0.00 114.00 239.00" xmlns="http://www.w3.org/2000/svg" xmlns:xlink="http://www.w3.org/1999/xlink">
<g id="graph0" class="graph" transform="scale(1 1) rotate(0) translate(4 235)">
<title>include/deal.II/algorithms</title>
<polygon fill="white" stroke="transparent" points="-4,4 -4,-235 110,-235 110,4 -4,4"/>
<g id="clust1" class="cluster">
<title>clusterdir_ee90d91a514b839c31faec7a1d916f67</title>
<g id="a_clust1"><a xlink:href="dir_ee90d91a514b839c31faec7a1d916f67.html" target="_top" xlink:title="deal.II">
<polygon fill="#ddddee" stroke="black" points="8,-8 8,-223 98,-223 98,-8 8,-8"/>
<text text-anchor="middle" x="53" y="-211" font-family="Helvetica,sans-Serif" font-size="10.00">deal.II</text>
</a>
</g>
</g>
<!-- dir_90a2ad6518b731f1dc196d14153b8b6b -->
<g id="node1" class="node">
<title>dir_90a2ad6518b731f1dc196d14153b8b6b</title>
<g id="a_node1"><a xlink:href="dir_90a2ad6518b731f1dc196d14153b8b6b.html" target="_top" xlink:title="base">
<polygon fill="white" stroke="red" points="70,-196 16,-196 16,-160 70,-160 70,-196"/>
<text text-anchor="middle" x="43" y="-175.5" font-family="Helvetica,sans-Serif" font-size="10.00">base</text>
</a>
</g>
</g>
<!-- dir_b2430326e20a3ae038db3bac19f0573b -->
<g id="node2" class="node">
<title>dir_b2430326e20a3ae038db3bac19f0573b</title>
<g id="a_node2"><a xlink:href="dir_b2430326e20a3ae038db3bac19f0573b.html" target="_top" xlink:title="lac">
<polygon fill="none" stroke="black" points="70,-124 16,-124 16,-88 70,-88 70,-124"/>
<text text-anchor="middle" x="43" y="-103.5" font-family="Helvetica,sans-Serif" font-size="10.00">lac</text>
</a>
</g>
</g>
<!-- dir_90a2ad6518b731f1dc196d14153b8b6b&#45;&gt;dir_b2430326e20a3ae038db3bac19f0573b -->
<g id="edge5" class="edge">
<title>dir_90a2ad6518b731f1dc196d14153b8b6b&#45;&gt;dir_b2430326e20a3ae038db3bac19f0573b</title>
<path fill="none" stroke="black" d="M37.08,-159.7C36.29,-151.98 36.06,-142.71 36.4,-134.11"/>
<polygon fill="black" stroke="black" points="39.9,-134.32 37.1,-124.1 32.92,-133.84 39.9,-134.32"/>
<g id="a_edge5&#45;headlabel"><a xlink:href="dir_000006_000007.html" target="_top" xlink:title="8">
<text text-anchor="middle" x="42.48" y="-135.61" font-family="Helvetica,sans-Serif" font-size="10.00">8</text>
</a>
</g>
</g>
<!-- dir_b2430326e20a3ae038db3bac19f0573b&#45;&gt;dir_90a2ad6518b731f1dc196d14153b8b6b -->
<g id="edge4" class="edge">
<title>dir_b2430326e20a3ae038db3bac19f0573b&#45;&gt;dir_90a2ad6518b731f1dc196d14153b8b6b</title>
<path fill="none" stroke="black" d="M48.9,-124.1C49.7,-131.79 49.94,-141.05 49.6,-149.67"/>
<polygon fill="black" stroke="black" points="46.11,-149.48 48.92,-159.7 53.09,-149.96 46.11,-149.48"/>
<g id="a_edge4&#45;headlabel"><a xlink:href="dir_000007_000006.html" target="_top" xlink:title="312">
<text text-anchor="middle" x="43.52" y="-143.2" font-family="Helvetica,sans-Serif" font-size="10.00">312</text>
</a>
</g>
</g>
<!-- dir_5c5dfa38b75b645221b847816813e149 -->
<g id="node3" class="node">
<title>dir_5c5dfa38b75b645221b847816813e149</title>
<g id="a_node3"><a xlink:href="dir_5c5dfa38b75b645221b847816813e149.html" target="_top" xlink:title="algorithms">
<polygon fill="#eeeeff" stroke="black" points="78,-52 16,-52 16,-16 78,-16 78,-52"/>
<text text-anchor="middle" x="47" y="-31.5" font-family="Helvetica,sans-Serif" font-size="10.00">algorithms</text>
</a>
</g>
</g>
<!-- dir_b2430326e20a3ae038db3bac19f0573b&#45;&gt;dir_5c5dfa38b75b645221b847816813e149 -->
<g id="edge3" class="edge">
<title>dir_b2430326e20a3ae038db3bac19f0573b&#45;&gt;dir_5c5dfa38b75b645221b847816813e149</title>
<path fill="none" stroke="black" d="M38.07,-87.7C37.72,-79.98 38.02,-70.71 38.86,-62.11"/>
<polygon fill="black" stroke="black" points="42.34,-62.47 40.13,-52.1 35.39,-61.58 42.34,-62.47"/>
<g id="a_edge3&#45;headlabel"><a xlink:href="dir_000007_000017.html" target="_top" xlink:title="1">
<text text-anchor="middle" x="44.7" y="-63.89" font-family="Helvetica,sans-Serif" font-size="10.00">1</text>
</a>
</g>
</g>
<!-- dir_5c5dfa38b75b645221b847816813e149&#45;&gt;dir_90a2ad6518b731f1dc196d14153b8b6b -->
<g id="edge1" class="edge">
<title>dir_5c5dfa38b75b645221b847816813e149&#45;&gt;dir_90a2ad6518b731f1dc196d14153b8b6b</title>
<path fill="none" stroke="black" d="M60.56,-52.03C67.56,-61.91 75.37,-74.95 79,-88 83.29,-103.41 83.7,-108.71 79,-124 75.99,-133.78 70.49,-143.38 64.68,-151.67"/>
<polygon fill="black" stroke="black" points="61.81,-149.67 58.61,-159.77 67.41,-153.87 61.81,-149.67"/>
<g id="a_edge1&#45;headlabel"><a xlink:href="dir_000017_000006.html" target="_top" xlink:title="16">
<text text-anchor="middle" x="61.69" y="-142.59" font-family="Helvetica,sans-Serif" font-size="10.00">16</text>
</a>
</g>
</g>
<!-- dir_5c5dfa38b75b645221b847816813e149&#45;&gt;dir_b2430326e20a3ae038db3bac19f0573b -->
<g id="edge2" class="edge">
<title>dir_5c5dfa38b75b645221b847816813e149&#45;&gt;dir_b2430326e20a3ae038db3bac19f0573b</title>
<path fill="none" stroke="black" d="M51.92,-52.1C52.28,-59.79 51.99,-69.05 51.17,-77.67"/>
<polygon fill="black" stroke="black" points="47.68,-77.34 49.9,-87.7 54.62,-78.21 47.68,-77.34"/>
<g id="a_edge2&#45;headlabel"><a xlink:href="dir_000017_000007.html" target="_top" xlink:title="2">
<text text-anchor="middle" x="45.31" y="-70.92" font-family="Helvetica,sans-Serif" font-size="10.00">2</text>
</a>
</g>
</g>
</g>
</svg>
