<?xml version="1.0" encoding="UTF-8" standalone="no"?>
<!DOCTYPE svg PUBLIC "-//W3C//DTD SVG 1.1//EN"
 "http://www.w3.org/Graphics/SVG/1.1/DTD/svg11.dtd">
<!-- Generated by graphviz version 2.47.1 (20210417.1919)
 -->
<!-- Title: include/deal.II/non_matching Pages: 1 -->
<svg width="214pt" height="455pt"
 viewBox="0.00 0.00 214.00 455.00" xmlns="http://www.w3.org/2000/svg" xmlns:xlink="http://www.w3.org/1999/xlink">
<g id="graph0" class="graph" transform="scale(1 1) rotate(0) translate(4 451)">
<title>include/deal.II/non_matching</title>
<polygon fill="white" stroke="transparent" points="-4,4 -4,-451 210,-451 210,4 -4,4"/>
<g id="clust1" class="cluster">
<title>clusterdir_ee90d91a514b839c31faec7a1d916f67</title>
<g id="a_clust1"><a xlink:href="dir_ee90d91a514b839c31faec7a1d916f67.html" target="_top" xlink:title="deal.II">
<polygon fill="#ddddee" stroke="black" points="8,-8 8,-439 198,-439 198,-8 8,-8"/>
<text text-anchor="middle" x="103" y="-427" font-family="Helvetica,sans-Serif" font-size="10.00">deal.II</text>
</a>
</g>
</g>
<!-- dir_1a6d8571b8eba91bded1d6534762df79 -->
<g id="node1" class="node">
<title>dir_1a6d8571b8eba91bded1d6534762df79</title>
<g id="a_node1"><a xlink:href="dir_1a6d8571b8eba91bded1d6534762df79.html" target="_top" xlink:title="dofs">
<polygon fill="none" stroke="black" points="136,-340 82,-340 82,-304 136,-304 136,-340"/>
<text text-anchor="middle" x="109" y="-319.5" font-family="Helvetica,sans-Serif" font-size="10.00">dofs</text>
</a>
</g>
</g>
<!-- dir_90a2ad6518b731f1dc196d14153b8b6b -->
<g id="node2" class="node">
<title>dir_90a2ad6518b731f1dc196d14153b8b6b</title>
<g id="a_node2"><a xlink:href="dir_90a2ad6518b731f1dc196d14153b8b6b.html" target="_top" xlink:title="base">
<polygon fill="white" stroke="red" points="90,-268 36,-268 36,-232 90,-232 90,-268"/>
<text text-anchor="middle" x="63" y="-247.5" font-family="Helvetica,sans-Serif" font-size="10.00">base</text>
</a>
</g>
</g>
<!-- dir_1a6d8571b8eba91bded1d6534762df79&#45;&gt;dir_90a2ad6518b731f1dc196d14153b8b6b -->
<g id="edge15" class="edge">
<title>dir_1a6d8571b8eba91bded1d6534762df79&#45;&gt;dir_90a2ad6518b731f1dc196d14153b8b6b</title>
<path fill="none" stroke="black" d="M91.71,-303.7C85.59,-295.64 78.97,-285.89 73.53,-276.98"/>
<polygon fill="black" stroke="black" points="76.41,-274.98 68.34,-268.1 70.36,-278.51 76.41,-274.98"/>
<g id="a_edge15&#45;headlabel"><a xlink:href="dir_000027_000006.html" target="_top" xlink:title="31">
<text text-anchor="middle" x="80.67" y="-274.15" font-family="Helvetica,sans-Serif" font-size="10.00">31</text>
</a>
</g>
</g>
<!-- dir_9706acb4d69a98d7c15ebe226493116f -->
<g id="node3" class="node">
<title>dir_9706acb4d69a98d7c15ebe226493116f</title>
<g id="a_node3"><a xlink:href="dir_9706acb4d69a98d7c15ebe226493116f.html" target="_top" xlink:title="fe">
<polygon fill="none" stroke="black" points="150,-196 96,-196 96,-160 150,-160 150,-196"/>
<text text-anchor="middle" x="123" y="-175.5" font-family="Helvetica,sans-Serif" font-size="10.00">fe</text>
</a>
</g>
</g>
<!-- dir_1a6d8571b8eba91bded1d6534762df79&#45;&gt;dir_9706acb4d69a98d7c15ebe226493116f -->
<g id="edge16" class="edge">
<title>dir_1a6d8571b8eba91bded1d6534762df79&#45;&gt;dir_9706acb4d69a98d7c15ebe226493116f</title>
<path fill="none" stroke="black" d="M106.1,-303.87C105.93,-279.67 110.02,-235.21 114.84,-206.39"/>
<polygon fill="black" stroke="black" points="118.35,-206.66 116.71,-196.19 111.47,-205.39 118.35,-206.66"/>
<g id="a_edge16&#45;headlabel"><a xlink:href="dir_000027_000008.html" target="_top" xlink:title="1">
<text text-anchor="middle" x="120.49" y="-208.21" font-family="Helvetica,sans-Serif" font-size="10.00">1</text>
</a>
</g>
</g>
<!-- dir_a933ab6cde53f9fa4d29dc295cb0ac5f -->
<g id="node4" class="node">
<title>dir_a933ab6cde53f9fa4d29dc295cb0ac5f</title>
<g id="a_node4"><a xlink:href="dir_a933ab6cde53f9fa4d29dc295cb0ac5f.html" target="_top" xlink:title="grid">
<polygon fill="none" stroke="black" points="110,-124 56,-124 56,-88 110,-88 110,-124"/>
<text text-anchor="middle" x="83" y="-103.5" font-family="Helvetica,sans-Serif" font-size="10.00">grid</text>
</a>
</g>
</g>
<!-- dir_1a6d8571b8eba91bded1d6534762df79&#45;&gt;dir_a933ab6cde53f9fa4d29dc295cb0ac5f -->
<g id="edge17" class="edge">
<title>dir_1a6d8571b8eba91bded1d6534762df79&#45;&gt;dir_a933ab6cde53f9fa4d29dc295cb0ac5f</title>
<path fill="none" stroke="black" d="M101.42,-303.76C97.98,-285.71 95.42,-256.6 90,-232 86.37,-215.53 81.07,-212.58 78,-196 74.22,-175.6 73.3,-152.14 74.58,-134.43"/>
<polygon fill="black" stroke="black" points="78.09,-134.53 75.65,-124.22 71.13,-133.8 78.09,-134.53"/>
<g id="a_edge17&#45;headlabel"><a xlink:href="dir_000027_000009.html" target="_top" xlink:title="1">
<text text-anchor="middle" x="80.54" y="-135.91" font-family="Helvetica,sans-Serif" font-size="10.00">1</text>
</a>
</g>
</g>
<!-- dir_b2430326e20a3ae038db3bac19f0573b -->
<g id="node5" class="node">
<title>dir_b2430326e20a3ae038db3bac19f0573b</title>
<g id="a_node5"><a xlink:href="dir_b2430326e20a3ae038db3bac19f0573b.html" target="_top" xlink:title="lac">
<polygon fill="none" stroke="black" points="133,-52 79,-52 79,-16 133,-16 133,-52"/>
<text text-anchor="middle" x="106" y="-31.5" font-family="Helvetica,sans-Serif" font-size="10.00">lac</text>
</a>
</g>
</g>
<!-- dir_1a6d8571b8eba91bded1d6534762df79&#45;&gt;dir_b2430326e20a3ae038db3bac19f0573b -->
<g id="edge18" class="edge">
<title>dir_1a6d8571b8eba91bded1d6534762df79&#45;&gt;dir_b2430326e20a3ae038db3bac19f0573b</title>
<path fill="none" stroke="black" d="M120.31,-303.91C138.2,-274.82 169.9,-213.64 159,-160 151.71,-124.11 133.74,-85.74 120.75,-61.12"/>
<polygon fill="black" stroke="black" points="123.7,-59.22 115.87,-52.08 117.54,-62.54 123.7,-59.22"/>
<g id="a_edge18&#45;headlabel"><a xlink:href="dir_000027_000007.html" target="_top" xlink:title="2">
<text text-anchor="middle" x="127.9" y="-58.54" font-family="Helvetica,sans-Serif" font-size="10.00">2</text>
</a>
</g>
</g>
<!-- dir_90a2ad6518b731f1dc196d14153b8b6b&#45;&gt;dir_1a6d8571b8eba91bded1d6534762df79 -->
<g id="edge11" class="edge">
<title>dir_90a2ad6518b731f1dc196d14153b8b6b&#45;&gt;dir_1a6d8571b8eba91bded1d6534762df79</title>
<path fill="none" stroke="black" d="M80.14,-268.1C86.25,-276.13 92.87,-285.87 98.34,-294.8"/>
<polygon fill="black" stroke="black" points="95.47,-296.83 103.54,-303.7 101.52,-293.3 95.47,-296.83"/>
<g id="a_edge11&#45;headlabel"><a xlink:href="dir_000006_000027.html" target="_top" xlink:title="2">
<text text-anchor="middle" x="91.21" y="-292.66" font-family="Helvetica,sans-Serif" font-size="10.00">2</text>
</a>
</g>
</g>
<!-- dir_90a2ad6518b731f1dc196d14153b8b6b&#45;&gt;dir_9706acb4d69a98d7c15ebe226493116f -->
<g id="edge12" class="edge">
<title>dir_90a2ad6518b731f1dc196d14153b8b6b&#45;&gt;dir_9706acb4d69a98d7c15ebe226493116f</title>
<path fill="none" stroke="black" d="M71.92,-231.7C78.31,-223.22 87,-212.86 95.45,-203.58"/>
<polygon fill="black" stroke="black" points="98.17,-205.8 102.44,-196.1 93.06,-201.02 98.17,-205.8"/>
<g id="a_edge12&#45;headlabel"><a xlink:href="dir_000006_000008.html" target="_top" xlink:title="4">
<text text-anchor="middle" x="97.79" y="-207.86" font-family="Helvetica,sans-Serif" font-size="10.00">4</text>
</a>
</g>
</g>
<!-- dir_90a2ad6518b731f1dc196d14153b8b6b&#45;&gt;dir_a933ab6cde53f9fa4d29dc295cb0ac5f -->
<g id="edge13" class="edge">
<title>dir_90a2ad6518b731f1dc196d14153b8b6b&#45;&gt;dir_a933ab6cde53f9fa4d29dc295cb0ac5f</title>
<path fill="none" stroke="black" d="M57.48,-231.87C56.59,-213.9 59.17,-184.87 63,-160 64.32,-151.42 66.12,-142.12 68.31,-133.75"/>
<polygon fill="black" stroke="black" points="71.68,-134.69 71.16,-124.1 64.97,-132.7 71.68,-134.69"/>
<g id="a_edge13&#45;headlabel"><a xlink:href="dir_000006_000009.html" target="_top" xlink:title="8">
<text text-anchor="middle" x="73.38" y="-136.44" font-family="Helvetica,sans-Serif" font-size="10.00">8</text>
</a>
</g>
</g>
<!-- dir_90a2ad6518b731f1dc196d14153b8b6b&#45;&gt;dir_b2430326e20a3ae038db3bac19f0573b -->
<g id="edge14" class="edge">
<title>dir_90a2ad6518b731f1dc196d14153b8b6b&#45;&gt;dir_b2430326e20a3ae038db3bac19f0573b</title>
<path fill="none" stroke="black" d="M50.46,-231.65C35.4,-201.13 16.38,-136.49 38,-88 44.58,-73.25 57.52,-60.89 70.47,-51.82"/>
<polygon fill="black" stroke="black" points="72.43,-54.73 78.92,-46.35 68.62,-48.85 72.43,-54.73"/>
<g id="a_edge14&#45;headlabel"><a xlink:href="dir_000006_000007.html" target="_top" xlink:title="8">
<text text-anchor="middle" x="70.95" y="-56.56" font-family="Helvetica,sans-Serif" font-size="10.00">8</text>
</a>
</g>
</g>
<!-- dir_9706acb4d69a98d7c15ebe226493116f&#45;&gt;dir_1a6d8571b8eba91bded1d6534762df79 -->
<g id="edge19" class="edge">
<title>dir_9706acb4d69a98d7c15ebe226493116f&#45;&gt;dir_1a6d8571b8eba91bded1d6534762df79</title>
<path fill="none" stroke="black" d="M125.9,-196.19C126.06,-220.42 121.97,-264.89 117.15,-293.68"/>
<polygon fill="black" stroke="black" points="113.64,-293.4 115.27,-303.87 120.52,-294.67 113.64,-293.4"/>
<g id="a_edge19&#45;headlabel"><a xlink:href="dir_000008_000027.html" target="_top" xlink:title="6">
<text text-anchor="middle" x="111.5" y="-286.85" font-family="Helvetica,sans-Serif" font-size="10.00">6</text>
</a>
</g>
</g>
<!-- dir_9706acb4d69a98d7c15ebe226493116f&#45;&gt;dir_90a2ad6518b731f1dc196d14153b8b6b -->
<g id="edge20" class="edge">
<title>dir_9706acb4d69a98d7c15ebe226493116f&#45;&gt;dir_90a2ad6518b731f1dc196d14153b8b6b</title>
<path fill="none" stroke="black" d="M114.23,-196.1C107.88,-204.55 99.21,-214.9 90.75,-224.2"/>
<polygon fill="black" stroke="black" points="88.01,-222 83.75,-231.7 93.13,-226.78 88.01,-222"/>
<g id="a_edge20&#45;headlabel"><a xlink:href="dir_000008_000006.html" target="_top" xlink:title="191">
<text text-anchor="middle" x="88.39" y="-214.93" font-family="Helvetica,sans-Serif" font-size="10.00">191</text>
</a>
</g>
</g>
<!-- dir_9706acb4d69a98d7c15ebe226493116f&#45;&gt;dir_a933ab6cde53f9fa4d29dc295cb0ac5f -->
<g id="edge21" class="edge">
<title>dir_9706acb4d69a98d7c15ebe226493116f&#45;&gt;dir_a933ab6cde53f9fa4d29dc295cb0ac5f</title>
<path fill="none" stroke="black" d="M107.2,-159.7C101.82,-151.73 96.1,-142.1 91.45,-133.26"/>
<polygon fill="black" stroke="black" points="94.47,-131.49 86.88,-124.1 88.21,-134.62 94.47,-131.49"/>
<g id="a_edge21&#45;headlabel"><a xlink:href="dir_000008_000009.html" target="_top" xlink:title="9">
<text text-anchor="middle" x="98.62" y="-130.94" font-family="Helvetica,sans-Serif" font-size="10.00">9</text>
</a>
</g>
</g>
<!-- dir_9706acb4d69a98d7c15ebe226493116f&#45;&gt;dir_b2430326e20a3ae038db3bac19f0573b -->
<g id="edge22" class="edge">
<title>dir_9706acb4d69a98d7c15ebe226493116f&#45;&gt;dir_b2430326e20a3ae038db3bac19f0573b</title>
<path fill="none" stroke="black" d="M123.22,-159.85C123.22,-141.85 122.56,-112.8 119,-88 117.77,-79.43 115.76,-70.22 113.68,-61.92"/>
<polygon fill="black" stroke="black" points="117.01,-60.8 111.07,-52.02 110.24,-62.58 117.01,-60.8"/>
<g id="a_edge22&#45;headlabel"><a xlink:href="dir_000008_000007.html" target="_top" xlink:title="7">
<text text-anchor="middle" x="120.67" y="-61.05" font-family="Helvetica,sans-Serif" font-size="10.00">7</text>
</a>
</g>
</g>
<!-- dir_a933ab6cde53f9fa4d29dc295cb0ac5f&#45;&gt;dir_1a6d8571b8eba91bded1d6534762df79 -->
<g id="edge2" class="edge">
<title>dir_a933ab6cde53f9fa4d29dc295cb0ac5f&#45;&gt;dir_1a6d8571b8eba91bded1d6534762df79</title>
<path fill="none" stroke="black" d="M89.09,-124.22C91.04,-142.27 91.43,-171.36 96,-196 99.07,-212.58 104.37,-215.53 108,-232 112.49,-252.37 115.02,-275.83 115.11,-293.55"/>
<polygon fill="black" stroke="black" points="111.61,-293.68 114.86,-303.76 118.61,-293.86 111.61,-293.68"/>
<g id="a_edge2&#45;headlabel"><a xlink:href="dir_000009_000027.html" target="_top" xlink:title="2">
<text text-anchor="middle" x="108.86" y="-287.51" font-family="Helvetica,sans-Serif" font-size="10.00">2</text>
</a>
</g>
</g>
<!-- dir_a933ab6cde53f9fa4d29dc295cb0ac5f&#45;&gt;dir_90a2ad6518b731f1dc196d14153b8b6b -->
<g id="edge3" class="edge">
<title>dir_a933ab6cde53f9fa4d29dc295cb0ac5f&#45;&gt;dir_90a2ad6518b731f1dc196d14153b8b6b</title>
<path fill="none" stroke="black" d="M86.8,-124.1C85.67,-134.45 82.86,-147.93 81,-160 77.83,-180.59 75.51,-204.04 72.73,-221.7"/>
<polygon fill="black" stroke="black" points="69.22,-221.41 70.92,-231.87 76.12,-222.64 69.22,-221.41"/>
<g id="a_edge3&#45;headlabel"><a xlink:href="dir_000009_000006.html" target="_top" xlink:title="89">
<text text-anchor="middle" x="67.06" y="-214.88" font-family="Helvetica,sans-Serif" font-size="10.00">89</text>
</a>
</g>
</g>
<!-- dir_a933ab6cde53f9fa4d29dc295cb0ac5f&#45;&gt;dir_9706acb4d69a98d7c15ebe226493116f -->
<g id="edge4" class="edge">
<title>dir_a933ab6cde53f9fa4d29dc295cb0ac5f&#45;&gt;dir_9706acb4d69a98d7c15ebe226493116f</title>
<path fill="none" stroke="black" d="M98.67,-124.1C104.04,-132.04 109.76,-141.67 114.43,-150.51"/>
<polygon fill="black" stroke="black" points="111.42,-152.32 119.03,-159.7 117.68,-149.19 111.42,-152.32"/>
<g id="a_edge4&#45;headlabel"><a xlink:href="dir_000009_000008.html" target="_top" xlink:title="3">
<text text-anchor="middle" x="107.28" y="-147.87" font-family="Helvetica,sans-Serif" font-size="10.00">3</text>
</a>
</g>
</g>
<!-- dir_a933ab6cde53f9fa4d29dc295cb0ac5f&#45;&gt;dir_b2430326e20a3ae038db3bac19f0573b -->
<g id="edge5" class="edge">
<title>dir_a933ab6cde53f9fa4d29dc295cb0ac5f&#45;&gt;dir_b2430326e20a3ae038db3bac19f0573b</title>
<path fill="none" stroke="black" d="M88.69,-87.7C91.25,-79.9 94.33,-70.51 97.18,-61.83"/>
<polygon fill="black" stroke="black" points="100.58,-62.7 100.38,-52.1 93.93,-60.51 100.58,-62.7"/>
<g id="a_edge5&#45;headlabel"><a xlink:href="dir_000009_000007.html" target="_top" xlink:title="1">
<text text-anchor="middle" x="102.16" y="-64.5" font-family="Helvetica,sans-Serif" font-size="10.00">1</text>
</a>
</g>
</g>
<!-- dir_b2430326e20a3ae038db3bac19f0573b&#45;&gt;dir_90a2ad6518b731f1dc196d14153b8b6b -->
<g id="edge1" class="edge">
<title>dir_b2430326e20a3ae038db3bac19f0573b&#45;&gt;dir_90a2ad6518b731f1dc196d14153b8b6b</title>
<path fill="none" stroke="black" d="M86.36,-52.13C75.23,-61.16 62.5,-73.41 56,-88 36.49,-131.75 50.08,-188.66 58.66,-221.78"/>
<polygon fill="black" stroke="black" points="55.32,-222.85 61.22,-231.65 62.1,-221.09 55.32,-222.85"/>
<g id="a_edge1&#45;headlabel"><a xlink:href="dir_000007_000006.html" target="_top" xlink:title="312">
<text text-anchor="middle" x="51.67" y="-217.59" font-family="Helvetica,sans-Serif" font-size="10.00">312</text>
</a>
</g>
</g>
<!-- dir_1a13f2884faccc64ea82a419252cfc11 -->
<g id="node6" class="node">
<title>dir_1a13f2884faccc64ea82a419252cfc11</title>
<g id="a_node6"><a xlink:href="dir_1a13f2884faccc64ea82a419252cfc11.html" target="_top" xlink:title="non_matching">
<polygon fill="#eeeeff" stroke="black" points="147.5,-412 70.5,-412 70.5,-376 147.5,-376 147.5,-412"/>
<text text-anchor="middle" x="109" y="-391.5" font-family="Helvetica,sans-Serif" font-size="10.00">non_matching</text>
</a>
</g>
</g>
<!-- dir_1a13f2884faccc64ea82a419252cfc11&#45;&gt;dir_1a6d8571b8eba91bded1d6534762df79 -->
<g id="edge6" class="edge">
<title>dir_1a13f2884faccc64ea82a419252cfc11&#45;&gt;dir_1a6d8571b8eba91bded1d6534762df79</title>
<path fill="none" stroke="black" d="M109,-375.7C109,-367.98 109,-358.71 109,-350.11"/>
<polygon fill="black" stroke="black" points="112.5,-350.1 109,-340.1 105.5,-350.1 112.5,-350.1"/>
<g id="a_edge6&#45;headlabel"><a xlink:href="dir_000033_000027.html" target="_top" xlink:title="1">
<text text-anchor="middle" x="115.34" y="-351.2" font-family="Helvetica,sans-Serif" font-size="10.00">1</text>
</a>
</g>
</g>
<!-- dir_1a13f2884faccc64ea82a419252cfc11&#45;&gt;dir_90a2ad6518b731f1dc196d14153b8b6b -->
<g id="edge7" class="edge">
<title>dir_1a13f2884faccc64ea82a419252cfc11&#45;&gt;dir_90a2ad6518b731f1dc196d14153b8b6b</title>
<path fill="none" stroke="black" d="M93.97,-375.58C86.38,-365.78 77.78,-352.94 73,-340 65.68,-320.22 63.31,-296.42 62.7,-278.41"/>
<polygon fill="black" stroke="black" points="66.2,-278.23 62.52,-268.29 59.2,-278.35 66.2,-278.23"/>
<g id="a_edge7&#45;headlabel"><a xlink:href="dir_000033_000006.html" target="_top" xlink:title="8">
<text text-anchor="middle" x="69.1" y="-279.27" font-family="Helvetica,sans-Serif" font-size="10.00">8</text>
</a>
</g>
</g>
<!-- dir_1a13f2884faccc64ea82a419252cfc11&#45;&gt;dir_9706acb4d69a98d7c15ebe226493116f -->
<g id="edge8" class="edge">
<title>dir_1a13f2884faccc64ea82a419252cfc11&#45;&gt;dir_9706acb4d69a98d7c15ebe226493116f</title>
<path fill="none" stroke="black" d="M124.61,-375.77C132.37,-366.03 140.95,-353.18 145,-340 159.07,-294.26 144.83,-238.44 133.62,-205.99"/>
<polygon fill="black" stroke="black" points="136.82,-204.53 130.13,-196.31 130.24,-206.91 136.82,-204.53"/>
<g id="a_edge8&#45;headlabel"><a xlink:href="dir_000033_000008.html" target="_top" xlink:title="4">
<text text-anchor="middle" x="140.71" y="-204.45" font-family="Helvetica,sans-Serif" font-size="10.00">4</text>
</a>
</g>
</g>
<!-- dir_1a13f2884faccc64ea82a419252cfc11&#45;&gt;dir_a933ab6cde53f9fa4d29dc295cb0ac5f -->
<g id="edge9" class="edge">
<title>dir_1a13f2884faccc64ea82a419252cfc11&#45;&gt;dir_a933ab6cde53f9fa4d29dc295cb0ac5f</title>
<path fill="none" stroke="black" d="M90.23,-375.57C80.38,-365.77 68.62,-352.93 60,-340 40.47,-310.71 34.51,-302.39 27,-268 16.32,-219.05 44.25,-164.44 64.4,-133.05"/>
<polygon fill="black" stroke="black" points="67.49,-134.74 70.1,-124.47 61.65,-130.87 67.49,-134.74"/>
<g id="a_edge9&#45;headlabel"><a xlink:href="dir_000033_000009.html" target="_top" xlink:title="1">
<text text-anchor="middle" x="67.87" y="-136.8" font-family="Helvetica,sans-Serif" font-size="10.00">1</text>
</a>
</g>
</g>
<!-- dir_1a13f2884faccc64ea82a419252cfc11&#45;&gt;dir_b2430326e20a3ae038db3bac19f0573b -->
<g id="edge10" class="edge">
<title>dir_1a13f2884faccc64ea82a419252cfc11&#45;&gt;dir_b2430326e20a3ae038db3bac19f0573b</title>
<path fill="none" stroke="black" d="M126.36,-375.93C149.89,-350.89 189,-301.65 189,-251 189,-251 189,-251 189,-177 189,-130.74 155.76,-86.16 131.35,-59.66"/>
<polygon fill="black" stroke="black" points="133.84,-57.2 124.42,-52.36 128.76,-62.02 133.84,-57.2"/>
<g id="a_edge10&#45;headlabel"><a xlink:href="dir_000033_000007.html" target="_top" xlink:title="1">
<text text-anchor="middle" x="138.38" y="-55.36" font-family="Helvetica,sans-Serif" font-size="10.00">1</text>
</a>
</g>
</g>
</g>
</svg>
