<?xml version="1.0" encoding="UTF-8" standalone="no"?>
<!DOCTYPE svg PUBLIC "-//W3C//DTD SVG 1.1//EN"
 "http://www.w3.org/Graphics/SVG/1.1/DTD/svg11.dtd">
<!-- Generated by graphviz version 2.47.1 (20210417.1919)
 -->
<!-- Title: include/deal.II/lac Pages: 1 -->
<svg width="196pt" height="311pt"
 viewBox="0.00 0.00 196.00 311.00" xmlns="http://www.w3.org/2000/svg" xmlns:xlink="http://www.w3.org/1999/xlink">
<g id="graph0" class="graph" transform="scale(1 1) rotate(0) translate(4 307)">
<title>include/deal.II/lac</title>
<polygon fill="white" stroke="transparent" points="-4,4 -4,-307 192,-307 192,4 -4,4"/>
<g id="clust1" class="cluster">
<title>clusterdir_ee90d91a514b839c31faec7a1d916f67</title>
<g id="a_clust1"><a xlink:href="dir_ee90d91a514b839c31faec7a1d916f67.html" target="_top" xlink:title="deal.II">
<polygon fill="#ddddee" stroke="black" points="8,-8 8,-295 180,-295 180,-8 8,-8"/>
<text text-anchor="middle" x="94" y="-283" font-family="Helvetica,sans-Serif" font-size="10.00">deal.II</text>
</a>
</g>
</g>
<!-- dir_16ec7e00b3eaf1dbf09e67ec3cfcc7e2 -->
<g id="node1" class="node">
<title>dir_16ec7e00b3eaf1dbf09e67ec3cfcc7e2</title>
<g id="a_node1"><a xlink:href="dir_16ec7e00b3eaf1dbf09e67ec3cfcc7e2.html" target="_top" xlink:title="matrix_free">
<polygon fill="none" stroke="black" points="166.5,-268 101.5,-268 101.5,-232 166.5,-232 166.5,-268"/>
<text text-anchor="middle" x="134" y="-247.5" font-family="Helvetica,sans-Serif" font-size="10.00">matrix_free</text>
</a>
</g>
</g>
<!-- dir_90a2ad6518b731f1dc196d14153b8b6b -->
<g id="node3" class="node">
<title>dir_90a2ad6518b731f1dc196d14153b8b6b</title>
<g id="a_node3"><a xlink:href="dir_90a2ad6518b731f1dc196d14153b8b6b.html" target="_top" xlink:title="base">
<polygon fill="white" stroke="red" points="115,-196 61,-196 61,-160 115,-160 115,-196"/>
<text text-anchor="middle" x="88" y="-175.5" font-family="Helvetica,sans-Serif" font-size="10.00">base</text>
</a>
</g>
</g>
<!-- dir_16ec7e00b3eaf1dbf09e67ec3cfcc7e2&#45;&gt;dir_90a2ad6518b731f1dc196d14153b8b6b -->
<g id="edge10" class="edge">
<title>dir_16ec7e00b3eaf1dbf09e67ec3cfcc7e2&#45;&gt;dir_90a2ad6518b731f1dc196d14153b8b6b</title>
<path fill="none" stroke="black" d="M122.63,-231.7C117.28,-223.56 110.8,-213.69 104.89,-204.7"/>
<polygon fill="black" stroke="black" points="107.66,-202.54 99.24,-196.1 101.81,-206.38 107.66,-202.54"/>
<g id="a_edge10&#45;headlabel"><a xlink:href="dir_000030_000006.html" target="_top" xlink:title="90">
<text text-anchor="middle" x="112" y="-201.48" font-family="Helvetica,sans-Serif" font-size="10.00">90</text>
</a>
</g>
</g>
<!-- dir_b2430326e20a3ae038db3bac19f0573b -->
<g id="node5" class="node">
<title>dir_b2430326e20a3ae038db3bac19f0573b</title>
<g id="a_node5"><a xlink:href="dir_b2430326e20a3ae038db3bac19f0573b.html" target="_top" xlink:title="lac">
<polygon fill="#eeeeff" stroke="black" points="161,-124 107,-124 107,-88 161,-88 161,-124"/>
<text text-anchor="middle" x="134" y="-103.5" font-family="Helvetica,sans-Serif" font-size="10.00">lac</text>
</a>
</g>
</g>
<!-- dir_16ec7e00b3eaf1dbf09e67ec3cfcc7e2&#45;&gt;dir_b2430326e20a3ae038db3bac19f0573b -->
<g id="edge11" class="edge">
<title>dir_16ec7e00b3eaf1dbf09e67ec3cfcc7e2&#45;&gt;dir_b2430326e20a3ae038db3bac19f0573b</title>
<path fill="none" stroke="black" d="M129.42,-231.87C126.86,-207.67 126.57,-163.21 128.54,-134.39"/>
<polygon fill="black" stroke="black" points="132.05,-134.45 129.41,-124.19 125.07,-133.86 132.05,-134.45"/>
<g id="a_edge11&#45;headlabel"><a xlink:href="dir_000030_000007.html" target="_top" xlink:title="16">
<text text-anchor="middle" x="134.57" y="-135.77" font-family="Helvetica,sans-Serif" font-size="10.00">16</text>
</a>
</g>
</g>
<!-- dir_5c5dfa38b75b645221b847816813e149 -->
<g id="node2" class="node">
<title>dir_5c5dfa38b75b645221b847816813e149</title>
<g id="a_node2"><a xlink:href="dir_5c5dfa38b75b645221b847816813e149.html" target="_top" xlink:title="algorithms">
<polygon fill="none" stroke="black" points="172,-52 110,-52 110,-16 172,-16 172,-52"/>
<text text-anchor="middle" x="141" y="-31.5" font-family="Helvetica,sans-Serif" font-size="10.00">algorithms</text>
</a>
</g>
</g>
<!-- dir_5c5dfa38b75b645221b847816813e149&#45;&gt;dir_90a2ad6518b731f1dc196d14153b8b6b -->
<g id="edge1" class="edge">
<title>dir_5c5dfa38b75b645221b847816813e149&#45;&gt;dir_90a2ad6518b731f1dc196d14153b8b6b</title>
<path fill="none" stroke="black" d="M122.58,-52.4C113.61,-62.01 103.59,-74.67 98,-88 89.8,-107.57 87.5,-131.56 87.14,-149.7"/>
<polygon fill="black" stroke="black" points="83.64,-149.89 87.13,-159.89 90.64,-149.9 83.64,-149.89"/>
<g id="a_edge1&#45;headlabel"><a xlink:href="dir_000017_000006.html" target="_top" xlink:title="16">
<text text-anchor="middle" x="80.81" y="-143.79" font-family="Helvetica,sans-Serif" font-size="10.00">16</text>
</a>
</g>
</g>
<!-- dir_5c5dfa38b75b645221b847816813e149&#45;&gt;dir_b2430326e20a3ae038db3bac19f0573b -->
<g id="edge2" class="edge">
<title>dir_5c5dfa38b75b645221b847816813e149&#45;&gt;dir_b2430326e20a3ae038db3bac19f0573b</title>
<path fill="none" stroke="black" d="M145.18,-52.1C145.22,-59.79 144.53,-69.05 143.34,-77.67"/>
<polygon fill="black" stroke="black" points="139.86,-77.25 141.65,-87.7 146.76,-78.42 139.86,-77.25"/>
<g id="a_edge2&#45;headlabel"><a xlink:href="dir_000017_000007.html" target="_top" xlink:title="2">
<text text-anchor="middle" x="137.66" y="-70.74" font-family="Helvetica,sans-Serif" font-size="10.00">2</text>
</a>
</g>
</g>
<!-- dir_f3c5e5ce8027ac46c102eb7f94481274 -->
<g id="node4" class="node">
<title>dir_f3c5e5ce8027ac46c102eb7f94481274</title>
<g id="a_node4"><a xlink:href="dir_f3c5e5ce8027ac46c102eb7f94481274.html" target="_top" xlink:title="differentiation">
<polygon fill="white" stroke="red" points="91.5,-52 16.5,-52 16.5,-16 91.5,-16 91.5,-52"/>
<text text-anchor="middle" x="54" y="-31.5" font-family="Helvetica,sans-Serif" font-size="10.00">differentiation</text>
</a>
</g>
</g>
<!-- dir_90a2ad6518b731f1dc196d14153b8b6b&#45;&gt;dir_f3c5e5ce8027ac46c102eb7f94481274 -->
<g id="edge9" class="edge">
<title>dir_90a2ad6518b731f1dc196d14153b8b6b&#45;&gt;dir_f3c5e5ce8027ac46c102eb7f94481274</title>
<path fill="none" stroke="black" d="M79.31,-159.87C70.96,-135.67 60.02,-91.21 55.1,-62.39"/>
<polygon fill="black" stroke="black" points="58.51,-61.54 53.52,-52.19 51.59,-62.61 58.51,-61.54"/>
<g id="a_edge9&#45;headlabel"><a xlink:href="dir_000006_000022.html" target="_top" xlink:title="3">
<text text-anchor="middle" x="61.86" y="-62.16" font-family="Helvetica,sans-Serif" font-size="10.00">3</text>
</a>
</g>
</g>
<!-- dir_90a2ad6518b731f1dc196d14153b8b6b&#45;&gt;dir_b2430326e20a3ae038db3bac19f0573b -->
<g id="edge8" class="edge">
<title>dir_90a2ad6518b731f1dc196d14153b8b6b&#45;&gt;dir_b2430326e20a3ae038db3bac19f0573b</title>
<path fill="none" stroke="black" d="M93.46,-159.7C98.01,-151.47 104.37,-141.48 110.77,-132.42"/>
<polygon fill="black" stroke="black" points="113.78,-134.24 116.86,-124.1 108.13,-130.1 113.78,-134.24"/>
<g id="a_edge8&#45;headlabel"><a xlink:href="dir_000006_000007.html" target="_top" xlink:title="8">
<text text-anchor="middle" x="113.95" y="-136.32" font-family="Helvetica,sans-Serif" font-size="10.00">8</text>
</a>
</g>
</g>
<!-- dir_f3c5e5ce8027ac46c102eb7f94481274&#45;&gt;dir_90a2ad6518b731f1dc196d14153b8b6b -->
<g id="edge3" class="edge">
<title>dir_f3c5e5ce8027ac46c102eb7f94481274&#45;&gt;dir_90a2ad6518b731f1dc196d14153b8b6b</title>
<path fill="none" stroke="black" d="M62.71,-52.19C71.06,-76.42 82,-120.89 86.91,-149.68"/>
<polygon fill="black" stroke="black" points="83.5,-150.52 88.48,-159.87 90.42,-149.46 83.5,-150.52"/>
<g id="a_edge3&#45;headlabel"><a xlink:href="dir_000022_000006.html" target="_top" xlink:title="49">
<text text-anchor="middle" x="80.15" y="-144.9" font-family="Helvetica,sans-Serif" font-size="10.00">49</text>
</a>
</g>
</g>
<!-- dir_b2430326e20a3ae038db3bac19f0573b&#45;&gt;dir_16ec7e00b3eaf1dbf09e67ec3cfcc7e2 -->
<g id="edge4" class="edge">
<title>dir_b2430326e20a3ae038db3bac19f0573b&#45;&gt;dir_16ec7e00b3eaf1dbf09e67ec3cfcc7e2</title>
<path fill="none" stroke="black" d="M138.59,-124.19C141.15,-148.42 141.43,-192.89 139.45,-221.68"/>
<polygon fill="black" stroke="black" points="135.95,-221.61 138.58,-231.87 142.92,-222.21 135.95,-221.61"/>
<g id="a_edge4&#45;headlabel"><a xlink:href="dir_000007_000030.html" target="_top" xlink:title="1">
<text text-anchor="middle" x="133.42" y="-215.29" font-family="Helvetica,sans-Serif" font-size="10.00">1</text>
</a>
</g>
</g>
<!-- dir_b2430326e20a3ae038db3bac19f0573b&#45;&gt;dir_5c5dfa38b75b645221b847816813e149 -->
<g id="edge5" class="edge">
<title>dir_b2430326e20a3ae038db3bac19f0573b&#45;&gt;dir_5c5dfa38b75b645221b847816813e149</title>
<path fill="none" stroke="black" d="M129.81,-87.7C129.79,-79.98 130.49,-70.71 131.69,-62.11"/>
<polygon fill="black" stroke="black" points="135.17,-62.55 133.39,-52.1 128.27,-61.38 135.17,-62.55"/>
<g id="a_edge5&#45;headlabel"><a xlink:href="dir_000007_000017.html" target="_top" xlink:title="1">
<text text-anchor="middle" x="137.37" y="-64.07" font-family="Helvetica,sans-Serif" font-size="10.00">1</text>
</a>
</g>
</g>
<!-- dir_b2430326e20a3ae038db3bac19f0573b&#45;&gt;dir_90a2ad6518b731f1dc196d14153b8b6b -->
<g id="edge6" class="edge">
<title>dir_b2430326e20a3ae038db3bac19f0573b&#45;&gt;dir_90a2ad6518b731f1dc196d14153b8b6b</title>
<path fill="none" stroke="black" d="M128.66,-124.1C124.13,-132.3 117.78,-142.28 111.38,-151.36"/>
<polygon fill="black" stroke="black" points="108.36,-149.56 105.29,-159.7 114.01,-153.69 108.36,-149.56"/>
<g id="a_edge6&#45;headlabel"><a xlink:href="dir_000007_000006.html" target="_top" xlink:title="312">
<text text-anchor="middle" x="108.19" y="-142.48" font-family="Helvetica,sans-Serif" font-size="10.00">312</text>
</a>
</g>
</g>
<!-- dir_b2430326e20a3ae038db3bac19f0573b&#45;&gt;dir_f3c5e5ce8027ac46c102eb7f94481274 -->
<g id="edge7" class="edge">
<title>dir_b2430326e20a3ae038db3bac19f0573b&#45;&gt;dir_f3c5e5ce8027ac46c102eb7f94481274</title>
<path fill="none" stroke="black" d="M114.22,-87.7C104.25,-78.97 91.99,-68.24 81.14,-58.75"/>
<polygon fill="black" stroke="black" points="83.38,-56.06 73.55,-52.1 78.77,-61.32 83.38,-56.06"/>
<g id="a_edge7&#45;headlabel"><a xlink:href="dir_000007_000022.html" target="_top" xlink:title="2">
<text text-anchor="middle" x="87.95" y="-53.79" font-family="Helvetica,sans-Serif" font-size="10.00">2</text>
</a>
</g>
</g>
</g>
</svg>
