<?xml version="1.0" encoding="UTF-8" standalone="no"?>
<!DOCTYPE svg PUBLIC "-//W3C//DTD SVG 1.1//EN"
 "http://www.w3.org/Graphics/SVG/1.1/DTD/svg11.dtd">
<!-- Generated by graphviz version 2.47.1 (20210417.1919)
 -->
<!-- Title: include/deal.II/multigrid Pages: 1 -->
<svg width="222pt" height="455pt"
 viewBox="0.00 0.00 222.00 455.00" xmlns="http://www.w3.org/2000/svg" xmlns:xlink="http://www.w3.org/1999/xlink">
<g id="graph0" class="graph" transform="scale(1 1) rotate(0) translate(4 451)">
<title>include/deal.II/multigrid</title>
<polygon fill="white" stroke="transparent" points="-4,4 -4,-451 218,-451 218,4 -4,4"/>
<g id="clust1" class="cluster">
<title>clusterdir_ee90d91a514b839c31faec7a1d916f67</title>
<g id="a_clust1"><a xlink:href="dir_ee90d91a514b839c31faec7a1d916f67.html" target="_top" xlink:title="deal.II">
<polygon fill="#ddddee" stroke="black" points="8,-8 8,-439 206,-439 206,-8 8,-8"/>
<text text-anchor="middle" x="107" y="-427" font-family="Helvetica,sans-Serif" font-size="10.00">deal.II</text>
</a>
</g>
</g>
<!-- dir_1a6d8571b8eba91bded1d6534762df79 -->
<g id="node1" class="node">
<title>dir_1a6d8571b8eba91bded1d6534762df79</title>
<g id="a_node1"><a xlink:href="dir_1a6d8571b8eba91bded1d6534762df79.html" target="_top" xlink:title="dofs">
<polygon fill="none" stroke="black" points="144,-340 90,-340 90,-304 144,-304 144,-340"/>
<text text-anchor="middle" x="117" y="-319.5" font-family="Helvetica,sans-Serif" font-size="10.00">dofs</text>
</a>
</g>
</g>
<!-- dir_273e60b3573ce9ad58a4d725e6a36523 -->
<g id="node2" class="node">
<title>dir_273e60b3573ce9ad58a4d725e6a36523</title>
<g id="a_node2"><a xlink:href="dir_273e60b3573ce9ad58a4d725e6a36523.html" target="_top" xlink:title="distributed">
<polygon fill="none" stroke="black" points="98,-268 36,-268 36,-232 98,-232 98,-268"/>
<text text-anchor="middle" x="67" y="-247.5" font-family="Helvetica,sans-Serif" font-size="10.00">distributed</text>
</a>
</g>
</g>
<!-- dir_1a6d8571b8eba91bded1d6534762df79&#45;&gt;dir_273e60b3573ce9ad58a4d725e6a36523 -->
<g id="edge13" class="edge">
<title>dir_1a6d8571b8eba91bded1d6534762df79&#45;&gt;dir_273e60b3573ce9ad58a4d725e6a36523</title>
<path fill="none" stroke="black" d="M98.72,-303.7C92.07,-295.56 84.82,-285.69 78.82,-276.7"/>
<polygon fill="black" stroke="black" points="81.66,-274.64 73.32,-268.1 75.76,-278.41 81.66,-274.64"/>
<g id="a_edge13&#45;headlabel"><a xlink:href="dir_000027_000025.html" target="_top" xlink:title="1">
<text text-anchor="middle" x="85.99" y="-273.64" font-family="Helvetica,sans-Serif" font-size="10.00">1</text>
</a>
</g>
</g>
<!-- dir_90a2ad6518b731f1dc196d14153b8b6b -->
<g id="node3" class="node">
<title>dir_90a2ad6518b731f1dc196d14153b8b6b</title>
<g id="a_node3"><a xlink:href="dir_90a2ad6518b731f1dc196d14153b8b6b.html" target="_top" xlink:title="base">
<polygon fill="white" stroke="red" points="94,-196 40,-196 40,-160 94,-160 94,-196"/>
<text text-anchor="middle" x="67" y="-175.5" font-family="Helvetica,sans-Serif" font-size="10.00">base</text>
</a>
</g>
</g>
<!-- dir_1a6d8571b8eba91bded1d6534762df79&#45;&gt;dir_90a2ad6518b731f1dc196d14153b8b6b -->
<g id="edge14" class="edge">
<title>dir_1a6d8571b8eba91bded1d6534762df79&#45;&gt;dir_90a2ad6518b731f1dc196d14153b8b6b</title>
<path fill="none" stroke="black" d="M111.08,-303.96C108.89,-285.55 107.44,-255.69 98,-232 94.07,-222.14 87.8,-212.53 81.79,-204.25"/>
<polygon fill="black" stroke="black" points="84.53,-202.06 75.74,-196.15 78.92,-206.26 84.53,-202.06"/>
<g id="a_edge14&#45;headlabel"><a xlink:href="dir_000027_000006.html" target="_top" xlink:title="31">
<text text-anchor="middle" x="88.96" y="-200.74" font-family="Helvetica,sans-Serif" font-size="10.00">31</text>
</a>
</g>
</g>
<!-- dir_9706acb4d69a98d7c15ebe226493116f -->
<g id="node4" class="node">
<title>dir_9706acb4d69a98d7c15ebe226493116f</title>
<g id="a_node4"><a xlink:href="dir_9706acb4d69a98d7c15ebe226493116f.html" target="_top" xlink:title="fe">
<polygon fill="none" stroke="black" points="140,-124 86,-124 86,-88 140,-88 140,-124"/>
<text text-anchor="middle" x="113" y="-103.5" font-family="Helvetica,sans-Serif" font-size="10.00">fe</text>
</a>
</g>
</g>
<!-- dir_1a6d8571b8eba91bded1d6534762df79&#45;&gt;dir_9706acb4d69a98d7c15ebe226493116f -->
<g id="edge15" class="edge">
<title>dir_1a6d8571b8eba91bded1d6534762df79&#45;&gt;dir_9706acb4d69a98d7c15ebe226493116f</title>
<path fill="none" stroke="black" d="M110.15,-303.94C107.72,-286.02 107.44,-257.03 107,-232 106.41,-198.39 105.43,-159.69 106.75,-134.37"/>
<polygon fill="black" stroke="black" points="110.24,-134.61 107.46,-124.39 103.26,-134.11 110.24,-134.61"/>
<g id="a_edge15&#45;headlabel"><a xlink:href="dir_000027_000008.html" target="_top" xlink:title="1">
<text text-anchor="middle" x="112.82" y="-135.9" font-family="Helvetica,sans-Serif" font-size="10.00">1</text>
</a>
</g>
</g>
<!-- dir_b2430326e20a3ae038db3bac19f0573b -->
<g id="node5" class="node">
<title>dir_b2430326e20a3ae038db3bac19f0573b</title>
<g id="a_node5"><a xlink:href="dir_b2430326e20a3ae038db3bac19f0573b.html" target="_top" xlink:title="lac">
<polygon fill="none" stroke="black" points="140,-52 86,-52 86,-16 140,-16 140,-52"/>
<text text-anchor="middle" x="113" y="-31.5" font-family="Helvetica,sans-Serif" font-size="10.00">lac</text>
</a>
</g>
</g>
<!-- dir_1a6d8571b8eba91bded1d6534762df79&#45;&gt;dir_b2430326e20a3ae038db3bac19f0573b -->
<g id="edge16" class="edge">
<title>dir_1a6d8571b8eba91bded1d6534762df79&#45;&gt;dir_b2430326e20a3ae038db3bac19f0573b</title>
<path fill="none" stroke="black" d="M124.25,-303.93C139.8,-264.85 173.06,-166.25 149,-88 145.99,-78.22 140.49,-68.62 134.68,-60.33"/>
<polygon fill="black" stroke="black" points="137.41,-58.13 128.61,-52.23 131.81,-62.33 137.41,-58.13"/>
<g id="a_edge16&#45;headlabel"><a xlink:href="dir_000027_000007.html" target="_top" xlink:title="2">
<text text-anchor="middle" x="141.83" y="-56.8" font-family="Helvetica,sans-Serif" font-size="10.00">2</text>
</a>
</g>
</g>
<!-- dir_273e60b3573ce9ad58a4d725e6a36523&#45;&gt;dir_1a6d8571b8eba91bded1d6534762df79 -->
<g id="edge1" class="edge">
<title>dir_273e60b3573ce9ad58a4d725e6a36523&#45;&gt;dir_1a6d8571b8eba91bded1d6534762df79</title>
<path fill="none" stroke="black" d="M85.11,-268.1C91.75,-276.21 99.02,-286.08 105.03,-295.08"/>
<polygon fill="black" stroke="black" points="102.21,-297.17 110.56,-303.7 108.1,-293.39 102.21,-297.17"/>
<g id="a_edge1&#45;headlabel"><a xlink:href="dir_000025_000027.html" target="_top" xlink:title="2">
<text text-anchor="middle" x="97.88" y="-293.18" font-family="Helvetica,sans-Serif" font-size="10.00">2</text>
</a>
</g>
</g>
<!-- dir_273e60b3573ce9ad58a4d725e6a36523&#45;&gt;dir_90a2ad6518b731f1dc196d14153b8b6b -->
<g id="edge2" class="edge">
<title>dir_273e60b3573ce9ad58a4d725e6a36523&#45;&gt;dir_90a2ad6518b731f1dc196d14153b8b6b</title>
<path fill="none" stroke="black" d="M61.08,-231.7C60.29,-223.98 60.06,-214.71 60.4,-206.11"/>
<polygon fill="black" stroke="black" points="63.9,-206.32 61.1,-196.1 56.92,-205.84 63.9,-206.32"/>
<g id="a_edge2&#45;headlabel"><a xlink:href="dir_000025_000006.html" target="_top" xlink:title="26">
<text text-anchor="middle" x="66.48" y="-207.61" font-family="Helvetica,sans-Serif" font-size="10.00">26</text>
</a>
</g>
</g>
<!-- dir_90a2ad6518b731f1dc196d14153b8b6b&#45;&gt;dir_1a6d8571b8eba91bded1d6534762df79 -->
<g id="edge4" class="edge">
<title>dir_90a2ad6518b731f1dc196d14153b8b6b&#45;&gt;dir_1a6d8571b8eba91bded1d6534762df79</title>
<path fill="none" stroke="black" d="M91.69,-196.15C101.16,-205.87 110.71,-218.72 116,-232 123.85,-251.71 126.18,-275.69 125.27,-293.8"/>
<polygon fill="black" stroke="black" points="121.77,-293.68 124.34,-303.96 128.74,-294.31 121.77,-293.68"/>
<g id="a_edge4&#45;headlabel"><a xlink:href="dir_000006_000027.html" target="_top" xlink:title="2">
<text text-anchor="middle" x="119.26" y="-287.34" font-family="Helvetica,sans-Serif" font-size="10.00">2</text>
</a>
</g>
</g>
<!-- dir_90a2ad6518b731f1dc196d14153b8b6b&#45;&gt;dir_273e60b3573ce9ad58a4d725e6a36523 -->
<g id="edge5" class="edge">
<title>dir_90a2ad6518b731f1dc196d14153b8b6b&#45;&gt;dir_273e60b3573ce9ad58a4d725e6a36523</title>
<path fill="none" stroke="black" d="M72.9,-196.1C73.7,-203.79 73.94,-213.05 73.6,-221.67"/>
<polygon fill="black" stroke="black" points="70.11,-221.48 72.92,-231.7 77.09,-221.96 70.11,-221.48"/>
<g id="a_edge5&#45;headlabel"><a xlink:href="dir_000006_000025.html" target="_top" xlink:title="1">
<text text-anchor="middle" x="67.52" y="-215.2" font-family="Helvetica,sans-Serif" font-size="10.00">1</text>
</a>
</g>
</g>
<!-- dir_90a2ad6518b731f1dc196d14153b8b6b&#45;&gt;dir_9706acb4d69a98d7c15ebe226493116f -->
<g id="edge6" class="edge">
<title>dir_90a2ad6518b731f1dc196d14153b8b6b&#45;&gt;dir_9706acb4d69a98d7c15ebe226493116f</title>
<path fill="none" stroke="black" d="M72.46,-159.7C77.01,-151.47 83.37,-141.48 89.77,-132.42"/>
<polygon fill="black" stroke="black" points="92.78,-134.24 95.86,-124.1 87.13,-130.1 92.78,-134.24"/>
<g id="a_edge6&#45;headlabel"><a xlink:href="dir_000006_000008.html" target="_top" xlink:title="4">
<text text-anchor="middle" x="92.95" y="-136.32" font-family="Helvetica,sans-Serif" font-size="10.00">4</text>
</a>
</g>
</g>
<!-- dir_90a2ad6518b731f1dc196d14153b8b6b&#45;&gt;dir_b2430326e20a3ae038db3bac19f0573b -->
<g id="edge7" class="edge">
<title>dir_90a2ad6518b731f1dc196d14153b8b6b&#45;&gt;dir_b2430326e20a3ae038db3bac19f0573b</title>
<path fill="none" stroke="black" d="M59.84,-159.71C57.56,-141.35 59.21,-111.77 68,-88 71.59,-78.3 77.32,-68.65 83.6,-60.3"/>
<polygon fill="black" stroke="black" points="86.41,-62.39 90,-52.42 80.97,-57.98 86.41,-62.39"/>
<g id="a_edge7&#45;headlabel"><a xlink:href="dir_000006_000007.html" target="_top" xlink:title="8">
<text text-anchor="middle" x="86.34" y="-64.47" font-family="Helvetica,sans-Serif" font-size="10.00">8</text>
</a>
</g>
</g>
<!-- dir_9706acb4d69a98d7c15ebe226493116f&#45;&gt;dir_1a6d8571b8eba91bded1d6534762df79 -->
<g id="edge17" class="edge">
<title>dir_9706acb4d69a98d7c15ebe226493116f&#45;&gt;dir_1a6d8571b8eba91bded1d6534762df79</title>
<path fill="none" stroke="black" d="M119.51,-124.39C123.15,-148.53 124.32,-193.58 125,-232 125.37,-252.73 125.62,-276.17 124.49,-293.79"/>
<polygon fill="black" stroke="black" points="120.99,-293.67 123.59,-303.94 127.96,-294.28 120.99,-293.67"/>
<g id="a_edge17&#45;headlabel"><a xlink:href="dir_000008_000027.html" target="_top" xlink:title="6">
<text text-anchor="middle" x="118.47" y="-287.34" font-family="Helvetica,sans-Serif" font-size="10.00">6</text>
</a>
</g>
</g>
<!-- dir_9706acb4d69a98d7c15ebe226493116f&#45;&gt;dir_273e60b3573ce9ad58a4d725e6a36523 -->
<g id="edge18" class="edge">
<title>dir_9706acb4d69a98d7c15ebe226493116f&#45;&gt;dir_273e60b3573ce9ad58a4d725e6a36523</title>
<path fill="none" stroke="black" d="M113.48,-124.29C113.44,-142.65 111.79,-172.23 103,-196 99.45,-205.6 93.8,-215.15 88.02,-223.44"/>
<polygon fill="black" stroke="black" points="85.14,-221.45 82.03,-231.58 90.77,-225.6 85.14,-221.45"/>
<g id="a_edge18&#45;headlabel"><a xlink:href="dir_000008_000025.html" target="_top" xlink:title="1">
<text text-anchor="middle" x="84.98" y="-214.37" font-family="Helvetica,sans-Serif" font-size="10.00">1</text>
</a>
</g>
</g>
<!-- dir_9706acb4d69a98d7c15ebe226493116f&#45;&gt;dir_90a2ad6518b731f1dc196d14153b8b6b -->
<g id="edge19" class="edge">
<title>dir_9706acb4d69a98d7c15ebe226493116f&#45;&gt;dir_90a2ad6518b731f1dc196d14153b8b6b</title>
<path fill="none" stroke="black" d="M107.66,-124.1C103.13,-132.3 96.78,-142.28 90.38,-151.36"/>
<polygon fill="black" stroke="black" points="87.36,-149.56 84.29,-159.7 93.01,-153.69 87.36,-149.56"/>
<g id="a_edge19&#45;headlabel"><a xlink:href="dir_000008_000006.html" target="_top" xlink:title="191">
<text text-anchor="middle" x="87.19" y="-142.48" font-family="Helvetica,sans-Serif" font-size="10.00">191</text>
</a>
</g>
</g>
<!-- dir_9706acb4d69a98d7c15ebe226493116f&#45;&gt;dir_b2430326e20a3ae038db3bac19f0573b -->
<g id="edge20" class="edge">
<title>dir_9706acb4d69a98d7c15ebe226493116f&#45;&gt;dir_b2430326e20a3ae038db3bac19f0573b</title>
<path fill="none" stroke="black" d="M113,-87.7C113,-79.98 113,-70.71 113,-62.11"/>
<polygon fill="black" stroke="black" points="116.5,-62.1 113,-52.1 109.5,-62.1 116.5,-62.1"/>
<g id="a_edge20&#45;headlabel"><a xlink:href="dir_000008_000007.html" target="_top" xlink:title="7">
<text text-anchor="middle" x="119.34" y="-63.2" font-family="Helvetica,sans-Serif" font-size="10.00">7</text>
</a>
</g>
</g>
<!-- dir_b2430326e20a3ae038db3bac19f0573b&#45;&gt;dir_90a2ad6518b731f1dc196d14153b8b6b -->
<g id="edge3" class="edge">
<title>dir_b2430326e20a3ae038db3bac19f0573b&#45;&gt;dir_90a2ad6518b731f1dc196d14153b8b6b</title>
<path fill="none" stroke="black" d="M105.95,-52.42C99.38,-62.22 90.78,-75.06 86,-88 78.68,-107.78 76.31,-131.58 74.36,-149.59"/>
<polygon fill="black" stroke="black" points="70.86,-149.37 73.2,-159.71 77.82,-150.18 70.86,-149.37"/>
<g id="a_edge3&#45;headlabel"><a xlink:href="dir_000007_000006.html" target="_top" xlink:title="312">
<text text-anchor="middle" x="68.46" y="-142.98" font-family="Helvetica,sans-Serif" font-size="10.00">312</text>
</a>
</g>
</g>
<!-- dir_ada57aea8afb76a9bb917c427f1e04b0 -->
<g id="node6" class="node">
<title>dir_ada57aea8afb76a9bb917c427f1e04b0</title>
<g id="a_node6"><a xlink:href="dir_ada57aea8afb76a9bb917c427f1e04b0.html" target="_top" xlink:title="multigrid">
<polygon fill="#eeeeff" stroke="black" points="144,-412 90,-412 90,-376 144,-376 144,-412"/>
<text text-anchor="middle" x="117" y="-391.5" font-family="Helvetica,sans-Serif" font-size="10.00">multigrid</text>
</a>
</g>
</g>
<!-- dir_ada57aea8afb76a9bb917c427f1e04b0&#45;&gt;dir_1a6d8571b8eba91bded1d6534762df79 -->
<g id="edge8" class="edge">
<title>dir_ada57aea8afb76a9bb917c427f1e04b0&#45;&gt;dir_1a6d8571b8eba91bded1d6534762df79</title>
<path fill="none" stroke="black" d="M117,-375.7C117,-367.98 117,-358.71 117,-350.11"/>
<polygon fill="black" stroke="black" points="120.5,-350.1 117,-340.1 113.5,-350.1 120.5,-350.1"/>
<g id="a_edge8&#45;headlabel"><a xlink:href="dir_000032_000027.html" target="_top" xlink:title="9">
<text text-anchor="middle" x="123.34" y="-351.2" font-family="Helvetica,sans-Serif" font-size="10.00">9</text>
</a>
</g>
</g>
<!-- dir_ada57aea8afb76a9bb917c427f1e04b0&#45;&gt;dir_273e60b3573ce9ad58a4d725e6a36523 -->
<g id="edge9" class="edge">
<title>dir_ada57aea8afb76a9bb917c427f1e04b0&#45;&gt;dir_273e60b3573ce9ad58a4d725e6a36523</title>
<path fill="none" stroke="black" d="M102.56,-375.96C94.95,-366.08 86.15,-353.03 81,-340 73.2,-320.27 69.74,-296.47 68.2,-278.44"/>
<polygon fill="black" stroke="black" points="71.68,-278.04 67.49,-268.32 64.7,-278.54 71.68,-278.04"/>
<g id="a_edge9&#45;headlabel"><a xlink:href="dir_000032_000025.html" target="_top" xlink:title="2">
<text text-anchor="middle" x="74.77" y="-278.93" font-family="Helvetica,sans-Serif" font-size="10.00">2</text>
</a>
</g>
</g>
<!-- dir_ada57aea8afb76a9bb917c427f1e04b0&#45;&gt;dir_90a2ad6518b731f1dc196d14153b8b6b -->
<g id="edge10" class="edge">
<title>dir_ada57aea8afb76a9bb917c427f1e04b0&#45;&gt;dir_90a2ad6518b731f1dc196d14153b8b6b</title>
<path fill="none" stroke="black" d="M98.02,-375.84C75.2,-353.65 38.54,-312.52 27,-268 22.99,-252.51 21.92,-247.17 27,-232 30.35,-222 36.42,-212.38 42.83,-204.14"/>
<polygon fill="black" stroke="black" points="45.56,-206.33 49.27,-196.4 40.18,-201.85 45.56,-206.33"/>
<g id="a_edge10&#45;headlabel"><a xlink:href="dir_000032_000006.html" target="_top" xlink:title="35">
<text text-anchor="middle" x="45.44" y="-208.41" font-family="Helvetica,sans-Serif" font-size="10.00">35</text>
</a>
</g>
</g>
<!-- dir_ada57aea8afb76a9bb917c427f1e04b0&#45;&gt;dir_9706acb4d69a98d7c15ebe226493116f -->
<g id="edge11" class="edge">
<title>dir_ada57aea8afb76a9bb917c427f1e04b0&#45;&gt;dir_9706acb4d69a98d7c15ebe226493116f</title>
<path fill="none" stroke="black" d="M132.61,-375.77C140.37,-366.03 148.95,-353.18 153,-340 175.44,-267.03 144.15,-177.09 125.37,-133.36"/>
<polygon fill="black" stroke="black" points="128.48,-131.75 121.24,-124.01 122.08,-134.58 128.48,-131.75"/>
<g id="a_edge11&#45;headlabel"><a xlink:href="dir_000032_000008.html" target="_top" xlink:title="1">
<text text-anchor="middle" x="132.53" y="-131.39" font-family="Helvetica,sans-Serif" font-size="10.00">1</text>
</a>
</g>
</g>
<!-- dir_ada57aea8afb76a9bb917c427f1e04b0&#45;&gt;dir_b2430326e20a3ae038db3bac19f0573b -->
<g id="edge12" class="edge">
<title>dir_ada57aea8afb76a9bb917c427f1e04b0&#45;&gt;dir_b2430326e20a3ae038db3bac19f0573b</title>
<path fill="none" stroke="black" d="M134.36,-375.93C157.89,-350.89 197,-301.65 197,-251 197,-251 197,-251 197,-177 197,-130.6 163.36,-86.06 138.66,-59.6"/>
<polygon fill="black" stroke="black" points="141.1,-57.09 131.64,-52.31 136.05,-61.95 141.1,-57.09"/>
<g id="a_edge12&#45;headlabel"><a xlink:href="dir_000032_000007.html" target="_top" xlink:title="41">
<text text-anchor="middle" x="145.64" y="-55.22" font-family="Helvetica,sans-Serif" font-size="10.00">41</text>
</a>
</g>
</g>
</g>
</svg>
