<?xml version="1.0" encoding="UTF-8" standalone="no"?>
<!DOCTYPE svg PUBLIC "-//W3C//DTD SVG 1.1//EN"
 "http://www.w3.org/Graphics/SVG/1.1/DTD/svg11.dtd">
<!-- Generated by graphviz version 2.47.1 (20210417.1919)
 -->
<!-- Title: source Pages: 1 -->
<svg width="1646pt" height="132pt"
 viewBox="0.00 0.00 1646.00 132.00" xmlns="http://www.w3.org/2000/svg" xmlns:xlink="http://www.w3.org/1999/xlink">
<g id="graph0" class="graph" transform="scale(1 1) rotate(0) translate(4 128)">
<title>source</title>
<polygon fill="white" stroke="transparent" points="-4,4 -4,-128 1642,-128 1642,4 -4,4"/>
<g id="clust1" class="cluster">
<title>clusterdir_b2f33c71d4aa5e7af42a1ca61ff5af1b</title>
<g id="a_clust1"><a xlink:href="dir_b2f33c71d4aa5e7af42a1ca61ff5af1b.html" target="_top">
<polygon fill="#eeeeff" stroke="black" points="8,-64 8,-116 1630,-116 1630,-64 8,-64"/>
</a>
</g>
</g>
<!-- dir_b2f33c71d4aa5e7af42a1ca61ff5af1b -->
<g id="node1" class="node">
<title>dir_b2f33c71d4aa5e7af42a1ca61ff5af1b</title>
<text text-anchor="middle" x="1595" y="-87.5" font-family="Helvetica,sans-Serif" font-size="10.00">source</text>
</g>
<!-- dir_1f1e02da0ed68619c8cd86756bb8077c -->
<g id="node2" class="node">
<title>dir_1f1e02da0ed68619c8cd86756bb8077c</title>
<g id="a_node2"><a xlink:href="dir_1f1e02da0ed68619c8cd86756bb8077c.html" target="_top" xlink:title="algorithms">
<polygon fill="white" stroke="black" points="1550,-108 1488,-108 1488,-72 1550,-72 1550,-108"/>
<text text-anchor="middle" x="1519" y="-87.5" font-family="Helvetica,sans-Serif" font-size="10.00">algorithms</text>
</a>
</g>
</g>
<!-- dir_d44c64559bbebec7f509842c48db8b23 -->
<g id="node22" class="node">
<title>dir_d44c64559bbebec7f509842c48db8b23</title>
<g id="a_node22"><a xlink:href="dir_d44c64559bbebec7f509842c48db8b23.html" target="_top" xlink:title="include">
<polygon fill="white" stroke="red" points="828,-36 774,-36 774,0 828,0 828,-36"/>
<text text-anchor="middle" x="801" y="-15.5" font-family="Helvetica,sans-Serif" font-size="10.00">include</text>
</a>
</g>
</g>
<!-- dir_1f1e02da0ed68619c8cd86756bb8077c&#45;&gt;dir_d44c64559bbebec7f509842c48db8b23 -->
<g id="edge13" class="edge">
<title>dir_1f1e02da0ed68619c8cd86756bb8077c&#45;&gt;dir_d44c64559bbebec7f509842c48db8b23</title>
<path fill="none" stroke="black" d="M1495.84,-71.88C1490.54,-68.74 1484.77,-65.86 1479,-64 1358.33,-25.02 962.19,-19.77 838.34,-19.09"/>
<polygon fill="black" stroke="black" points="838.24,-15.59 828.22,-19.05 838.21,-22.59 838.24,-15.59"/>
<g id="a_edge13&#45;headlabel"><a xlink:href="dir_000040_000004.html" target="_top" xlink:title="15">
<text text-anchor="middle" x="841.85" y="-10.27" font-family="Helvetica,sans-Serif" font-size="10.00">15</text>
</a>
</g>
</g>
<!-- dir_4714466d58058f3b5fe734c64356281b -->
<g id="node3" class="node">
<title>dir_4714466d58058f3b5fe734c64356281b</title>
<g id="a_node3"><a xlink:href="dir_4714466d58058f3b5fe734c64356281b.html" target="_top" xlink:title="arborx">
<polygon fill="white" stroke="black" points="1470,-108 1416,-108 1416,-72 1470,-72 1470,-108"/>
<text text-anchor="middle" x="1443" y="-87.5" font-family="Helvetica,sans-Serif" font-size="10.00">arborx</text>
</a>
</g>
</g>
<!-- dir_4714466d58058f3b5fe734c64356281b&#45;&gt;dir_d44c64559bbebec7f509842c48db8b23 -->
<g id="edge10" class="edge">
<title>dir_4714466d58058f3b5fe734c64356281b&#45;&gt;dir_d44c64559bbebec7f509842c48db8b23</title>
<path fill="none" stroke="black" d="M1422.33,-71.91C1417.55,-68.76 1412.31,-65.88 1407,-64 1301.29,-26.54 953.17,-20.26 838.21,-19.21"/>
<polygon fill="black" stroke="black" points="838.17,-15.71 828.14,-19.13 838.11,-22.71 838.17,-15.71"/>
<g id="a_edge10&#45;headlabel"><a xlink:href="dir_000041_000004.html" target="_top" xlink:title="1">
<text text-anchor="middle" x="841.79" y="-10.4" font-family="Helvetica,sans-Serif" font-size="10.00">1</text>
</a>
</g>
</g>
<!-- dir_03ac4680c0d790f1da23c9de4fcee0bb -->
<g id="node4" class="node">
<title>dir_03ac4680c0d790f1da23c9de4fcee0bb</title>
<g id="a_node4"><a xlink:href="dir_03ac4680c0d790f1da23c9de4fcee0bb.html" target="_top" xlink:title="base">
<polygon fill="white" stroke="black" points="1398,-108 1344,-108 1344,-72 1398,-72 1398,-108"/>
<text text-anchor="middle" x="1371" y="-87.5" font-family="Helvetica,sans-Serif" font-size="10.00">base</text>
</a>
</g>
</g>
<!-- dir_03ac4680c0d790f1da23c9de4fcee0bb&#45;&gt;dir_d44c64559bbebec7f509842c48db8b23 -->
<g id="edge19" class="edge">
<title>dir_03ac4680c0d790f1da23c9de4fcee0bb&#45;&gt;dir_d44c64559bbebec7f509842c48db8b23</title>
<path fill="none" stroke="black" d="M1350.32,-71.95C1345.54,-68.8 1340.3,-65.91 1335,-64 1243.28,-30.98 943.91,-21.87 838.3,-19.65"/>
<polygon fill="black" stroke="black" points="838.19,-16.14 828.12,-19.44 838.05,-23.14 838.19,-16.14"/>
<g id="a_edge19&#45;headlabel"><a xlink:href="dir_000042_000004.html" target="_top" xlink:title="241">
<text text-anchor="middle" x="841.84" y="-10.88" font-family="Helvetica,sans-Serif" font-size="10.00">241</text>
</a>
</g>
</g>
<!-- dir_7619c04fbd8f49fec3baf3cd125d542b -->
<g id="node5" class="node">
<title>dir_7619c04fbd8f49fec3baf3cd125d542b</title>
<g id="a_node5"><a xlink:href="dir_7619c04fbd8f49fec3baf3cd125d542b.html" target="_top" xlink:title="differentiation">
<polygon fill="white" stroke="red" points="1325.5,-108 1250.5,-108 1250.5,-72 1325.5,-72 1325.5,-108"/>
<text text-anchor="middle" x="1288" y="-87.5" font-family="Helvetica,sans-Serif" font-size="10.00">differentiation</text>
</a>
</g>
</g>
<!-- dir_7619c04fbd8f49fec3baf3cd125d542b&#45;&gt;dir_d44c64559bbebec7f509842c48db8b23 -->
<g id="edge5" class="edge">
<title>dir_7619c04fbd8f49fec3baf3cd125d542b&#45;&gt;dir_d44c64559bbebec7f509842c48db8b23</title>
<path fill="none" stroke="black" d="M1260.18,-71.95C1254.05,-68.84 1247.45,-65.96 1241,-64 1165.92,-41.15 930.22,-26.1 838.26,-20.96"/>
<polygon fill="black" stroke="black" points="838.21,-17.45 828.03,-20.4 837.83,-24.44 838.21,-17.45"/>
<g id="a_edge5&#45;headlabel"><a xlink:href="dir_000047_000004.html" target="_top" xlink:title="51">
<text text-anchor="middle" x="841.96" y="-12.32" font-family="Helvetica,sans-Serif" font-size="10.00">51</text>
</a>
</g>
</g>
<!-- dir_781e317eeaccd0b64e124389abb34d67 -->
<g id="node6" class="node">
<title>dir_781e317eeaccd0b64e124389abb34d67</title>
<g id="a_node6"><a xlink:href="dir_781e317eeaccd0b64e124389abb34d67.html" target="_top" xlink:title="distributed">
<polygon fill="white" stroke="black" points="1232,-108 1170,-108 1170,-72 1232,-72 1232,-108"/>
<text text-anchor="middle" x="1201" y="-87.5" font-family="Helvetica,sans-Serif" font-size="10.00">distributed</text>
</a>
</g>
</g>
<!-- dir_781e317eeaccd0b64e124389abb34d67&#45;&gt;dir_d44c64559bbebec7f509842c48db8b23 -->
<g id="edge17" class="edge">
<title>dir_781e317eeaccd0b64e124389abb34d67&#45;&gt;dir_d44c64559bbebec7f509842c48db8b23</title>
<path fill="none" stroke="black" d="M1177.32,-71.88C1172.15,-68.82 1166.56,-65.97 1161,-64 1048.33,-23.96 904.79,-18.56 838.13,-18.44"/>
<polygon fill="black" stroke="black" points="838.1,-14.94 828.1,-18.46 838.11,-21.94 838.1,-14.94"/>
<g id="a_edge17&#45;headlabel"><a xlink:href="dir_000050_000004.html" target="_top" xlink:title="67">
<text text-anchor="middle" x="841.68" y="-9.59" font-family="Helvetica,sans-Serif" font-size="10.00">67</text>
</a>
</g>
</g>
<!-- dir_1f2adf7ce65531a349305fdfc0ca81fd -->
<g id="node7" class="node">
<title>dir_1f2adf7ce65531a349305fdfc0ca81fd</title>
<g id="a_node7"><a xlink:href="dir_1f2adf7ce65531a349305fdfc0ca81fd.html" target="_top" xlink:title="dofs">
<polygon fill="white" stroke="black" points="1152,-108 1098,-108 1098,-72 1152,-72 1152,-108"/>
<text text-anchor="middle" x="1125" y="-87.5" font-family="Helvetica,sans-Serif" font-size="10.00">dofs</text>
</a>
</g>
</g>
<!-- dir_1f2adf7ce65531a349305fdfc0ca81fd&#45;&gt;dir_d44c64559bbebec7f509842c48db8b23 -->
<g id="edge1" class="edge">
<title>dir_1f2adf7ce65531a349305fdfc0ca81fd&#45;&gt;dir_d44c64559bbebec7f509842c48db8b23</title>
<path fill="none" stroke="black" d="M1103.82,-71.98C1099.16,-68.91 1094.09,-66.04 1089,-64 1003.82,-29.88 894.83,-21.52 838.49,-19.54"/>
<polygon fill="black" stroke="black" points="838.37,-16.04 828.27,-19.24 838.16,-23.04 838.37,-16.04"/>
<g id="a_edge1&#45;headlabel"><a xlink:href="dir_000053_000004.html" target="_top" xlink:title="181">
<text text-anchor="middle" x="842.05" y="-10.81" font-family="Helvetica,sans-Serif" font-size="10.00">181</text>
</a>
</g>
</g>
<!-- dir_1074114311876455202a056748837c38 -->
<g id="node8" class="node">
<title>dir_1074114311876455202a056748837c38</title>
<g id="a_node8"><a xlink:href="dir_1074114311876455202a056748837c38.html" target="_top" xlink:title="fe">
<polygon fill="white" stroke="black" points="1080,-108 1026,-108 1026,-72 1080,-72 1080,-108"/>
<text text-anchor="middle" x="1053" y="-87.5" font-family="Helvetica,sans-Serif" font-size="10.00">fe</text>
</a>
</g>
</g>
<!-- dir_1074114311876455202a056748837c38&#45;&gt;dir_d44c64559bbebec7f509842c48db8b23 -->
<g id="edge2" class="edge">
<title>dir_1074114311876455202a056748837c38&#45;&gt;dir_d44c64559bbebec7f509842c48db8b23</title>
<path fill="none" stroke="black" d="M1031.35,-71.92C1026.8,-68.93 1021.89,-66.1 1017,-64 957.55,-38.43 882.49,-27.01 838.31,-22.2"/>
<polygon fill="black" stroke="black" points="838.62,-18.71 828.31,-21.17 837.9,-25.68 838.62,-18.71"/>
<g id="a_edge2&#45;headlabel"><a xlink:href="dir_000055_000004.html" target="_top" xlink:title="482">
<text text-anchor="middle" x="842.48" y="-13.76" font-family="Helvetica,sans-Serif" font-size="10.00">482</text>
</a>
</g>
</g>
<!-- dir_adab93233f18c8156d9221e9de752c84 -->
<g id="node9" class="node">
<title>dir_adab93233f18c8156d9221e9de752c84</title>
<g id="a_node9"><a xlink:href="dir_adab93233f18c8156d9221e9de752c84.html" target="_top" xlink:title="gmsh">
<polygon fill="white" stroke="black" points="1008,-108 954,-108 954,-72 1008,-72 1008,-108"/>
<text text-anchor="middle" x="981" y="-87.5" font-family="Helvetica,sans-Serif" font-size="10.00">gmsh</text>
</a>
</g>
</g>
<!-- dir_adab93233f18c8156d9221e9de752c84&#45;&gt;dir_d44c64559bbebec7f509842c48db8b23 -->
<g id="edge14" class="edge">
<title>dir_adab93233f18c8156d9221e9de752c84&#45;&gt;dir_d44c64559bbebec7f509842c48db8b23</title>
<path fill="none" stroke="black" d="M958.4,-71.77C954.09,-68.94 949.51,-66.21 945,-64 910.38,-47.06 867.98,-34.73 838.18,-27.3"/>
<polygon fill="black" stroke="black" points="838.75,-23.84 828.2,-24.88 837.1,-30.64 838.75,-23.84"/>
<g id="a_edge14&#45;headlabel"><a xlink:href="dir_000044_000004.html" target="_top" xlink:title="4">
<text text-anchor="middle" x="842.91" y="-19.43" font-family="Helvetica,sans-Serif" font-size="10.00">4</text>
</a>
</g>
</g>
<!-- dir_24dd05df1c0190a9af599d79f1bf0571 -->
<g id="node10" class="node">
<title>dir_24dd05df1c0190a9af599d79f1bf0571</title>
<g id="a_node10"><a xlink:href="dir_24dd05df1c0190a9af599d79f1bf0571.html" target="_top" xlink:title="grid">
<polygon fill="white" stroke="black" points="936,-108 882,-108 882,-72 936,-72 936,-108"/>
<text text-anchor="middle" x="909" y="-87.5" font-family="Helvetica,sans-Serif" font-size="10.00">grid</text>
</a>
</g>
</g>
<!-- dir_24dd05df1c0190a9af599d79f1bf0571&#45;&gt;dir_d44c64559bbebec7f509842c48db8b23 -->
<g id="edge8" class="edge">
<title>dir_24dd05df1c0190a9af599d79f1bf0571&#45;&gt;dir_d44c64559bbebec7f509842c48db8b23</title>
<path fill="none" stroke="black" d="M884.71,-71.89C880.81,-69.22 876.81,-66.51 873,-64 861.33,-56.31 848.43,-48.14 836.8,-40.9"/>
<polygon fill="black" stroke="black" points="838.55,-37.87 828.21,-35.57 834.86,-43.82 838.55,-37.87"/>
<g id="a_edge8&#45;headlabel"><a xlink:href="dir_000052_000004.html" target="_top" xlink:title="197">
<text text-anchor="middle" x="843.1" y="-34.85" font-family="Helvetica,sans-Serif" font-size="10.00">197</text>
</a>
</g>
</g>
<!-- dir_8a85bdb9c590c2e5c3bf7eb8c5a1f6d5 -->
<g id="node11" class="node">
<title>dir_8a85bdb9c590c2e5c3bf7eb8c5a1f6d5</title>
<g id="a_node11"><a xlink:href="dir_8a85bdb9c590c2e5c3bf7eb8c5a1f6d5.html" target="_top" xlink:title="hp">
<polygon fill="white" stroke="black" points="864,-108 810,-108 810,-72 864,-72 864,-108"/>
<text text-anchor="middle" x="837" y="-87.5" font-family="Helvetica,sans-Serif" font-size="10.00">hp</text>
</a>
</g>
</g>
<!-- dir_8a85bdb9c590c2e5c3bf7eb8c5a1f6d5&#45;&gt;dir_d44c64559bbebec7f509842c48db8b23 -->
<g id="edge4" class="edge">
<title>dir_8a85bdb9c590c2e5c3bf7eb8c5a1f6d5&#45;&gt;dir_d44c64559bbebec7f509842c48db8b23</title>
<path fill="none" stroke="black" d="M828.1,-71.7C824,-63.73 819.05,-54.1 814.51,-45.26"/>
<polygon fill="black" stroke="black" points="817.48,-43.4 809.8,-36.1 811.26,-46.6 817.48,-43.4"/>
<g id="a_edge4&#45;headlabel"><a xlink:href="dir_000054_000004.html" target="_top" xlink:title="19">
<text text-anchor="middle" x="821.65" y="-42.79" font-family="Helvetica,sans-Serif" font-size="10.00">19</text>
</a>
</g>
</g>
<!-- dir_d5c75a340e4829ceb672546587d22d54 -->
<g id="node12" class="node">
<title>dir_d5c75a340e4829ceb672546587d22d54</title>
<g id="a_node12"><a xlink:href="dir_d5c75a340e4829ceb672546587d22d54.html" target="_top" xlink:title="lac">
<polygon fill="white" stroke="black" points="792,-108 738,-108 738,-72 792,-72 792,-108"/>
<text text-anchor="middle" x="765" y="-87.5" font-family="Helvetica,sans-Serif" font-size="10.00">lac</text>
</a>
</g>
</g>
<!-- dir_d5c75a340e4829ceb672546587d22d54&#45;&gt;dir_d44c64559bbebec7f509842c48db8b23 -->
<g id="edge11" class="edge">
<title>dir_d5c75a340e4829ceb672546587d22d54&#45;&gt;dir_d44c64559bbebec7f509842c48db8b23</title>
<path fill="none" stroke="black" d="M773.9,-71.7C778,-63.73 782.95,-54.1 787.49,-45.26"/>
<polygon fill="black" stroke="black" points="790.74,-46.6 792.2,-36.1 784.52,-43.4 790.74,-46.6"/>
<g id="a_edge11&#45;headlabel"><a xlink:href="dir_000043_000004.html" target="_top" xlink:title="213">
<text text-anchor="middle" x="791.62" y="-48.59" font-family="Helvetica,sans-Serif" font-size="10.00">213</text>
</a>
</g>
</g>
<!-- dir_1de065469557ba32ffc8eb44e2c3b99b -->
<g id="node13" class="node">
<title>dir_1de065469557ba32ffc8eb44e2c3b99b</title>
<g id="a_node13"><a xlink:href="dir_1de065469557ba32ffc8eb44e2c3b99b.html" target="_top" xlink:title="matrix_free">
<polygon fill="white" stroke="black" points="719.5,-108 654.5,-108 654.5,-72 719.5,-72 719.5,-108"/>
<text text-anchor="middle" x="687" y="-87.5" font-family="Helvetica,sans-Serif" font-size="10.00">matrix_free</text>
</a>
</g>
</g>
<!-- dir_1de065469557ba32ffc8eb44e2c3b99b&#45;&gt;dir_d44c64559bbebec7f509842c48db8b23 -->
<g id="edge7" class="edge">
<title>dir_1de065469557ba32ffc8eb44e2c3b99b&#45;&gt;dir_d44c64559bbebec7f509842c48db8b23</title>
<path fill="none" stroke="black" d="M714.89,-71.88C730.02,-62.59 748.88,-51 765.1,-41.04"/>
<polygon fill="black" stroke="black" points="767.1,-43.92 773.79,-35.71 763.44,-37.96 767.1,-43.92"/>
<g id="a_edge7&#45;headlabel"><a xlink:href="dir_000056_000004.html" target="_top" xlink:title="24">
<text text-anchor="middle" x="765.53" y="-45.72" font-family="Helvetica,sans-Serif" font-size="10.00">24</text>
</a>
</g>
</g>
<!-- dir_732aa14689db254b7ac793f9c13dde1e -->
<g id="node14" class="node">
<title>dir_732aa14689db254b7ac793f9c13dde1e</title>
<g id="a_node14"><a xlink:href="dir_732aa14689db254b7ac793f9c13dde1e.html" target="_top" xlink:title="meshworker">
<polygon fill="white" stroke="black" points="636,-108 566,-108 566,-72 636,-72 636,-108"/>
<text text-anchor="middle" x="601" y="-87.5" font-family="Helvetica,sans-Serif" font-size="10.00">meshworker</text>
</a>
</g>
</g>
<!-- dir_732aa14689db254b7ac793f9c13dde1e&#45;&gt;dir_d44c64559bbebec7f509842c48db8b23 -->
<g id="edge20" class="edge">
<title>dir_732aa14689db254b7ac793f9c13dde1e&#45;&gt;dir_d44c64559bbebec7f509842c48db8b23</title>
<path fill="none" stroke="black" d="M629.57,-71.88C634.93,-69.03 640.56,-66.27 646,-64 685.09,-47.71 732.05,-34.97 763.97,-27.27"/>
<polygon fill="black" stroke="black" points="764.84,-30.65 773.77,-24.94 763.23,-23.84 764.84,-30.65"/>
<g id="a_edge20&#45;headlabel"><a xlink:href="dir_000057_000004.html" target="_top" xlink:title="17">
<text text-anchor="middle" x="762" y="-31.75" font-family="Helvetica,sans-Serif" font-size="10.00">17</text>
</a>
</g>
</g>
<!-- dir_891077b7e3914bef3ac228768af55d18 -->
<g id="node15" class="node">
<title>dir_891077b7e3914bef3ac228768af55d18</title>
<g id="a_node15"><a xlink:href="dir_891077b7e3914bef3ac228768af55d18.html" target="_top" xlink:title="multigrid">
<polygon fill="white" stroke="black" points="548,-108 494,-108 494,-72 548,-72 548,-108"/>
<text text-anchor="middle" x="521" y="-87.5" font-family="Helvetica,sans-Serif" font-size="10.00">multigrid</text>
</a>
</g>
</g>
<!-- dir_891077b7e3914bef3ac228768af55d18&#45;&gt;dir_d44c64559bbebec7f509842c48db8b23 -->
<g id="edge3" class="edge">
<title>dir_891077b7e3914bef3ac228768af55d18&#45;&gt;dir_d44c64559bbebec7f509842c48db8b23</title>
<path fill="none" stroke="black" d="M542.61,-71.83C547.16,-68.85 552.08,-66.05 557,-64 626.46,-35.07 714.74,-24.67 763.81,-20.98"/>
<polygon fill="black" stroke="black" points="764.22,-24.46 773.95,-20.27 763.73,-17.48 764.22,-24.46"/>
<g id="a_edge3&#45;headlabel"><a xlink:href="dir_000058_000004.html" target="_top" xlink:title="125">
<text text-anchor="middle" x="760.83" y="-25.04" font-family="Helvetica,sans-Serif" font-size="10.00">125</text>
</a>
</g>
</g>
<!-- dir_a1cdf5ae9e5daa65fa087ad632a1c541 -->
<g id="node16" class="node">
<title>dir_a1cdf5ae9e5daa65fa087ad632a1c541</title>
<g id="a_node16"><a xlink:href="dir_a1cdf5ae9e5daa65fa087ad632a1c541.html" target="_top" xlink:title="non_matching">
<polygon fill="white" stroke="black" points="475.5,-108 398.5,-108 398.5,-72 475.5,-72 475.5,-108"/>
<text text-anchor="middle" x="437" y="-87.5" font-family="Helvetica,sans-Serif" font-size="10.00">non_matching</text>
</a>
</g>
</g>
<!-- dir_a1cdf5ae9e5daa65fa087ad632a1c541&#45;&gt;dir_d44c64559bbebec7f509842c48db8b23 -->
<g id="edge15" class="edge">
<title>dir_a1cdf5ae9e5daa65fa087ad632a1c541&#45;&gt;dir_d44c64559bbebec7f509842c48db8b23</title>
<path fill="none" stroke="black" d="M466.02,-71.9C472.13,-68.87 478.65,-66.04 485,-64 582.3,-32.74 703.41,-23.17 763.53,-20.26"/>
<polygon fill="black" stroke="black" points="763.84,-23.75 773.68,-19.8 763.53,-16.75 763.84,-23.75"/>
<g id="a_edge15&#45;headlabel"><a xlink:href="dir_000059_000004.html" target="_top" xlink:title="19">
<text text-anchor="middle" x="760.38" y="-24.24" font-family="Helvetica,sans-Serif" font-size="10.00">19</text>
</a>
</g>
</g>
<!-- dir_c371c8e3c4a27917e93effe7d4bd6cc8 -->
<g id="node17" class="node">
<title>dir_c371c8e3c4a27917e93effe7d4bd6cc8</title>
<g id="a_node17"><a xlink:href="dir_c371c8e3c4a27917e93effe7d4bd6cc8.html" target="_top" xlink:title="numerics">
<polygon fill="white" stroke="black" points="380,-108 324,-108 324,-72 380,-72 380,-108"/>
<text text-anchor="middle" x="352" y="-87.5" font-family="Helvetica,sans-Serif" font-size="10.00">numerics</text>
</a>
</g>
</g>
<!-- dir_c371c8e3c4a27917e93effe7d4bd6cc8&#45;&gt;dir_d44c64559bbebec7f509842c48db8b23 -->
<g id="edge18" class="edge">
<title>dir_c371c8e3c4a27917e93effe7d4bd6cc8&#45;&gt;dir_d44c64559bbebec7f509842c48db8b23</title>
<path fill="none" stroke="black" d="M374.38,-71.8C379.3,-68.75 384.65,-65.93 390,-64 458.47,-39.36 676.3,-25.52 763.95,-20.83"/>
<polygon fill="black" stroke="black" points="764.17,-24.33 773.97,-20.31 763.8,-17.33 764.17,-24.33"/>
<g id="a_edge18&#45;headlabel"><a xlink:href="dir_000051_000004.html" target="_top" xlink:title="274">
<text text-anchor="middle" x="760.73" y="-24.85" font-family="Helvetica,sans-Serif" font-size="10.00">274</text>
</a>
</g>
</g>
<!-- dir_943739da40d8170036cf76c9e5858a48 -->
<g id="node18" class="node">
<title>dir_943739da40d8170036cf76c9e5858a48</title>
<g id="a_node18"><a xlink:href="dir_943739da40d8170036cf76c9e5858a48.html" target="_top" xlink:title="opencascade">
<polygon fill="white" stroke="black" points="306,-108 232,-108 232,-72 306,-72 306,-108"/>
<text text-anchor="middle" x="269" y="-87.5" font-family="Helvetica,sans-Serif" font-size="10.00">opencascade</text>
</a>
</g>
</g>
<!-- dir_943739da40d8170036cf76c9e5858a48&#45;&gt;dir_d44c64559bbebec7f509842c48db8b23 -->
<g id="edge6" class="edge">
<title>dir_943739da40d8170036cf76c9e5858a48&#45;&gt;dir_d44c64559bbebec7f509842c48db8b23</title>
<path fill="none" stroke="black" d="M296.43,-71.77C302.36,-68.71 308.74,-65.9 315,-64 398.99,-38.47 665.4,-24.79 763.91,-20.5"/>
<polygon fill="black" stroke="black" points="764.15,-23.99 773.99,-20.07 763.85,-17 764.15,-23.99"/>
<g id="a_edge6&#45;headlabel"><a xlink:href="dir_000045_000004.html" target="_top" xlink:title="5">
<text text-anchor="middle" x="760.68" y="-24.48" font-family="Helvetica,sans-Serif" font-size="10.00">5</text>
</a>
</g>
</g>
<!-- dir_ca918688fe6ad16dbc1c00f976b7b03f -->
<g id="node19" class="node">
<title>dir_ca918688fe6ad16dbc1c00f976b7b03f</title>
<g id="a_node19"><a xlink:href="dir_ca918688fe6ad16dbc1c00f976b7b03f.html" target="_top" xlink:title="particles">
<polygon fill="white" stroke="black" points="214,-108 160,-108 160,-72 214,-72 214,-108"/>
<text text-anchor="middle" x="187" y="-87.5" font-family="Helvetica,sans-Serif" font-size="10.00">particles</text>
</a>
</g>
</g>
<!-- dir_ca918688fe6ad16dbc1c00f976b7b03f&#45;&gt;dir_d44c64559bbebec7f509842c48db8b23 -->
<g id="edge9" class="edge">
<title>dir_ca918688fe6ad16dbc1c00f976b7b03f&#45;&gt;dir_d44c64559bbebec7f509842c48db8b23</title>
<path fill="none" stroke="black" d="M207.67,-71.93C212.45,-68.78 217.7,-65.89 223,-64 323.23,-28.28 652.16,-20.87 763.65,-19.37"/>
<polygon fill="black" stroke="black" points="763.8,-22.87 773.75,-19.24 763.71,-15.87 763.8,-22.87"/>
<g id="a_edge9&#45;headlabel"><a xlink:href="dir_000046_000004.html" target="_top" xlink:title="24">
<text text-anchor="middle" x="760.24" y="-23.25" font-family="Helvetica,sans-Serif" font-size="10.00">24</text>
</a>
</g>
</g>
<!-- dir_0bb6fb3955098fc73677280bd611af3b -->
<g id="node20" class="node">
<title>dir_0bb6fb3955098fc73677280bd611af3b</title>
<g id="a_node20"><a xlink:href="dir_0bb6fb3955098fc73677280bd611af3b.html" target="_top" xlink:title="physics">
<polygon fill="white" stroke="red" points="142,-108 88,-108 88,-72 142,-72 142,-108"/>
<text text-anchor="middle" x="115" y="-87.5" font-family="Helvetica,sans-Serif" font-size="10.00">physics</text>
</a>
</g>
</g>
<!-- dir_0bb6fb3955098fc73677280bd611af3b&#45;&gt;dir_d44c64559bbebec7f509842c48db8b23 -->
<g id="edge12" class="edge">
<title>dir_0bb6fb3955098fc73677280bd611af3b&#45;&gt;dir_d44c64559bbebec7f509842c48db8b23</title>
<path fill="none" stroke="black" d="M135.66,-71.89C140.44,-68.74 145.69,-65.87 151,-64 265.21,-23.85 642.82,-19.38 763.54,-18.99"/>
<polygon fill="black" stroke="black" points="763.76,-22.49 773.76,-18.97 763.75,-15.49 763.76,-22.49"/>
<g id="a_edge12&#45;headlabel"><a xlink:href="dir_000060_000004.html" target="_top" xlink:title="4">
<text text-anchor="middle" x="760.18" y="-22.84" font-family="Helvetica,sans-Serif" font-size="10.00">4</text>
</a>
</g>
</g>
<!-- dir_0772c5cbe71b3a551a18bc202d7caf73 -->
<g id="node21" class="node">
<title>dir_0772c5cbe71b3a551a18bc202d7caf73</title>
<g id="a_node21"><a xlink:href="dir_0772c5cbe71b3a551a18bc202d7caf73.html" target="_top" xlink:title="sundials">
<polygon fill="white" stroke="black" points="70,-108 16,-108 16,-72 70,-72 70,-108"/>
<text text-anchor="middle" x="43" y="-87.5" font-family="Helvetica,sans-Serif" font-size="10.00">sundials</text>
</a>
</g>
</g>
<!-- dir_0772c5cbe71b3a551a18bc202d7caf73&#45;&gt;dir_d44c64559bbebec7f509842c48db8b23 -->
<g id="edge16" class="edge">
<title>dir_0772c5cbe71b3a551a18bc202d7caf73&#45;&gt;dir_d44c64559bbebec7f509842c48db8b23</title>
<path fill="none" stroke="black" d="M63.65,-71.86C68.43,-68.72 73.68,-65.85 79,-64 207.36,-19.37 634.68,-18.04 763.76,-18.69"/>
<polygon fill="black" stroke="black" points="763.9,-22.19 773.92,-18.75 763.95,-15.19 763.9,-22.19"/>
<g id="a_edge16&#45;headlabel"><a xlink:href="dir_000062_000004.html" target="_top" xlink:title="28">
<text text-anchor="middle" x="760.29" y="-22.51" font-family="Helvetica,sans-Serif" font-size="10.00">28</text>
</a>
</g>
</g>
</g>
</svg>
