<?xml version="1.0" encoding="UTF-8" standalone="no"?>
<!DOCTYPE svg PUBLIC "-//W3C//DTD SVG 1.1//EN"
 "http://www.w3.org/Graphics/SVG/1.1/DTD/svg11.dtd">
<!-- Generated by graphviz version 2.47.1 (20210417.1919)
 -->
<!-- Title: StepsDescription Pages: 1 -->
<svg width="784pt" height="121pt"
 viewBox="0.00 0.00 783.50 121.00" xmlns="http://www.w3.org/2000/svg" xmlns:xlink="http://www.w3.org/1999/xlink">
<g id="graph0" class="graph" transform="scale(1 1) rotate(0) translate(4 117)">
<title>StepsDescription</title>
<polygon fill="white" stroke="transparent" points="-4,4 -4,-117 779.5,-117 779.5,4 -4,4"/>
<!-- solids -->
<g id="node1" class="node">
<title>solids</title>
<polygon fill="lightblue" stroke="black" points="393,-93 375,-93 375,-75 393,-75 393,-93"/>
</g>
<!-- fake_solids -->
<g id="node2" class="node">
<title>fake_solids</title>
<polygon fill="white" stroke="transparent" points="428.5,-19 339.5,-19 339.5,0 428.5,0 428.5,-19"/>
<text text-anchor="middle" x="384" y="-7" font-family="FreeSans" font-size="10.00">Solid mechanics</text>
</g>
<!-- solids&#45;&#45;fake_solids -->
<g id="edge1" class="edge">
<title>solids&#45;&#45;fake_solids</title>
<path fill="none" stroke="black" stroke-dasharray="1,5" d="M384,-74.96C384,-61.25 384,-33.43 384,-19.25"/>
</g>
<!-- time_dependent -->
<g id="node11" class="node">
<title>time_dependent</title>
<polygon fill="#1e90ff" stroke="black" points="520,-93 502,-93 502,-75 520,-75 520,-93"/>
</g>
<!-- solids&#45;&#45;time_dependent -->
<!-- basic -->
<g id="node3" class="node">
<title>basic</title>
<polygon fill="green" stroke="black" points="105,-71.99 105,-96.01 88.01,-113 63.99,-113 47,-96.01 47,-71.99 63.99,-55 88.01,-55 105,-71.99"/>
</g>
<!-- fake_basic -->
<g id="node4" class="node">
<title>fake_basic</title>
<polygon fill="white" stroke="transparent" points="92,-19 0,-19 0,0 92,0 92,-19"/>
<text text-anchor="middle" x="46" y="-7" font-family="FreeSans" font-size="10.00">Basic techniques</text>
</g>
<!-- basic&#45;&#45;fake_basic -->
<g id="edge2" class="edge">
<title>basic&#45;&#45;fake_basic</title>
<path fill="none" stroke="black" stroke-dasharray="1,5" d="M64.32,-54.76C59.05,-42.04 53.21,-27.93 49.57,-19.14"/>
</g>
<!-- techniques -->
<g id="node13" class="node">
<title>techniques</title>
<polygon fill="orange" stroke="black" points="177.5,-96.5 152.5,-96.5 152.5,-71.5 177.5,-71.5 177.5,-96.5"/>
</g>
<!-- basic&#45;&#45;techniques -->
<!-- fluids -->
<g id="node5" class="node">
<title>fluids</title>
<polygon fill="#eeee00" stroke="black" points="289,-93 271,-93 271,-75 289,-75 289,-93"/>
</g>
<!-- fluids&#45;&#45;solids -->
<!-- fake_fluids -->
<g id="node6" class="node">
<title>fake_fluids</title>
<polygon fill="white" stroke="transparent" points="321.5,-19 238.5,-19 238.5,0 321.5,0 321.5,-19"/>
<text text-anchor="middle" x="280" y="-7" font-family="FreeSans" font-size="10.00">Fluid dynamics</text>
</g>
<!-- fluids&#45;&#45;fake_fluids -->
<g id="edge3" class="edge">
<title>fluids&#45;&#45;fake_fluids</title>
<path fill="none" stroke="black" stroke-dasharray="1,5" d="M280,-74.96C280,-61.25 280,-33.43 280,-19.25"/>
</g>
<!-- code_gallery -->
<g id="node7" class="node">
<title>code_gallery</title>
<ellipse fill="white" stroke="black" cx="706" cy="-84" rx="4.5" ry="4.5"/>
</g>
<!-- fake_code_gallery -->
<g id="node8" class="node">
<title>fake_code_gallery</title>
<polygon fill="white" stroke="transparent" points="775.5,-19 704.5,-19 704.5,0 775.5,0 775.5,-19"/>
<text text-anchor="middle" x="740" y="-7" font-family="FreeSans" font-size="10.00">Code gallery</text>
</g>
<!-- code_gallery&#45;&#45;fake_code_gallery -->
<g id="edge4" class="edge">
<title>code_gallery&#45;&#45;fake_code_gallery</title>
<path fill="none" stroke="black" stroke-dasharray="1,5" d="M707.64,-79.5C712.73,-68.64 728.39,-35.26 735.9,-19.25"/>
</g>
<!-- unfinished -->
<g id="node9" class="node">
<title>unfinished</title>
<polygon fill="none" stroke="black" stroke-dasharray="5,2" points="649,-93 631,-93 631,-75 649,-75 649,-93"/>
</g>
<!-- unfinished&#45;&#45;code_gallery -->
<!-- fake_unfinished -->
<g id="node10" class="node">
<title>fake_unfinished</title>
<polygon fill="white" stroke="transparent" points="686,-19 594,-19 594,0 686,0 686,-19"/>
<text text-anchor="middle" x="640" y="-7" font-family="FreeSans" font-size="10.00">Unfinished codes</text>
</g>
<!-- unfinished&#45;&#45;fake_unfinished -->
<g id="edge5" class="edge">
<title>unfinished&#45;&#45;fake_unfinished</title>
<path fill="none" stroke="black" stroke-dasharray="1,5" d="M640,-74.96C640,-61.25 640,-33.43 640,-19.25"/>
</g>
<!-- time_dependent&#45;&#45;unfinished -->
<!-- fake_time_dependent -->
<g id="node12" class="node">
<title>fake_time_dependent</title>
<polygon fill="white" stroke="transparent" points="575.5,-19 446.5,-19 446.5,0 575.5,0 575.5,-19"/>
<text text-anchor="middle" x="511" y="-7" font-family="FreeSans" font-size="10.00">Time dependent problems</text>
</g>
<!-- time_dependent&#45;&#45;fake_time_dependent -->
<g id="edge6" class="edge">
<title>time_dependent&#45;&#45;fake_time_dependent</title>
<path fill="none" stroke="black" stroke-dasharray="1,5" d="M511,-74.96C511,-61.25 511,-33.43 511,-19.25"/>
</g>
<!-- techniques&#45;&#45;fluids -->
<!-- fake_techniques -->
<g id="node14" class="node">
<title>fake_techniques</title>
<polygon fill="white" stroke="transparent" points="220,-19 110,-19 110,0 220,0 220,-19"/>
<text text-anchor="middle" x="165" y="-7" font-family="FreeSans" font-size="10.00">Advanced techniques</text>
</g>
<!-- techniques&#45;&#45;fake_techniques -->
<g id="edge7" class="edge">
<title>techniques&#45;&#45;fake_techniques</title>
<path fill="none" stroke="black" stroke-dasharray="1,5" d="M165,-71.35C165,-56.78 165,-32.17 165,-19.16"/>
</g>
</g>
</svg>
