<?xml version="1.0" encoding="UTF-8" standalone="no"?>
<!DOCTYPE svg PUBLIC "-//W3C//DTD SVG 1.1//EN"
 "http://www.w3.org/Graphics/SVG/1.1/DTD/svg11.dtd">
<!-- Generated by graphviz version 2.47.1 (20210417.1919)
 -->
<!-- Title: G Pages: 1 -->
<svg width="450pt" height="338pt"
 viewBox="0.00 0.00 449.50 338.00" xmlns="http://www.w3.org/2000/svg" xmlns:xlink="http://www.w3.org/1999/xlink">
<g id="graph0" class="graph" transform="scale(1 1) rotate(0) translate(4 334)">
<title>G</title>
<!-- tria -->
<g id="node1" class="node">
<title>tria</title>
<g id="a_node1"><a xlink:href="group__grid.html" target="_top" xlink:title="Triangulation">
<polygon fill="white" stroke="black" points="441.5,-269 340.5,-269 340.5,-244 441.5,-244 441.5,-269"/>
<text text-anchor="middle" x="391" y="-253" font-family="FreeSans" font-size="15.00">Triangulation</text>
</a>
</g>
</g>
<!-- dh -->
<g id="node5" class="node">
<title>dh</title>
<g id="a_node5"><a xlink:href="group__dofs.html" target="_top" xlink:title="DoFHandler">
<polygon fill="white" stroke="black" points="311,-208 215,-208 215,-183 311,-183 311,-208"/>
<text text-anchor="middle" x="263" y="-192" font-family="FreeSans" font-size="15.00">DoFHandler</text>
</a>
</g>
</g>
<!-- tria&#45;&gt;dh -->
<g id="edge1" class="edge">
<title>tria&#45;&gt;dh</title>
<path fill="none" stroke="black" d="M366.02,-243.98C346.5,-234.99 319.15,-222.38 297.53,-212.42"/>
<polygon fill="black" stroke="black" points="298.9,-209.2 288.36,-208.19 295.97,-215.55 298.9,-209.2"/>
</g>
<!-- fe -->
<g id="node2" class="node">
<title>fe</title>
<g id="a_node2"><a xlink:href="group__feall.html" target="_top" xlink:title="Finite elements">
<polygon fill="white" stroke="black" points="322,-269 204,-269 204,-244 322,-244 322,-269"/>
<text text-anchor="middle" x="263" y="-253" font-family="FreeSans" font-size="15.00">Finite elements</text>
</a>
</g>
</g>
<!-- fe&#45;&gt;tria -->
<g id="edge14" class="edge">
<title>fe&#45;&gt;tria</title>
<path fill="none" stroke="transparent" d="M322.5,-256.5C328.48,-256.5 334.45,-256.5 340.43,-256.5"/>
</g>
<!-- fe&#45;&gt;dh -->
<g id="edge2" class="edge">
<title>fe&#45;&gt;dh</title>
<path fill="none" stroke="black" d="M263,-243.84C263,-236.57 263,-226.98 263,-218.33"/>
<polygon fill="black" stroke="black" points="266.5,-218.13 263,-208.13 259.5,-218.13 266.5,-218.13"/>
</g>
<!-- fevalues -->
<g id="node6" class="node">
<title>fevalues</title>
<g id="a_node6"><a xlink:href="group__feaccess.html" target="_top" xlink:title="FEValues">
<polygon fill="deepskyblue" stroke="black" points="188,-208 108,-208 108,-183 188,-183 188,-208"/>
<text text-anchor="middle" x="148" y="-192" font-family="FreeSans" font-size="15.00">FEValues</text>
</a>
</g>
</g>
<!-- fe&#45;&gt;fevalues -->
<g id="edge3" class="edge">
<title>fe&#45;&gt;fevalues</title>
<path fill="none" stroke="black" d="M240.55,-243.98C223.25,-235.11 199.1,-222.72 179.81,-212.82"/>
<polygon fill="black" stroke="black" points="181.28,-209.64 170.78,-208.19 178.08,-215.87 181.28,-209.64"/>
</g>
<!-- mapping -->
<g id="node3" class="node">
<title>mapping</title>
<g id="a_node3"><a xlink:href="group__mapping.html" target="_top" xlink:title="Mapping">
<polygon fill="white" stroke="black" points="74,-269 0,-269 0,-244 74,-244 74,-269"/>
<text text-anchor="middle" x="37" y="-253" font-family="FreeSans" font-size="15.00">Mapping</text>
</a>
</g>
</g>
<!-- quadrature -->
<g id="node4" class="node">
<title>quadrature</title>
<g id="a_node4"><a xlink:href="group__Quadrature.html" target="_top" xlink:title="Quadrature">
<polygon fill="white" stroke="black" points="185.5,-269 92.5,-269 92.5,-244 185.5,-244 185.5,-269"/>
<text text-anchor="middle" x="139" y="-253" font-family="FreeSans" font-size="15.00">Quadrature</text>
</a>
</g>
</g>
<!-- mapping&#45;&gt;quadrature -->
<g id="edge12" class="edge">
<title>mapping&#45;&gt;quadrature</title>
<path fill="none" stroke="transparent" d="M74.05,-256.5C80.14,-256.5 86.23,-256.5 92.32,-256.5"/>
</g>
<!-- mapping&#45;&gt;fevalues -->
<g id="edge4" class="edge">
<title>mapping&#45;&gt;fevalues</title>
<path fill="none" stroke="black" d="M58.67,-243.98C75.29,-235.15 98.46,-222.83 117.04,-212.96"/>
<polygon fill="black" stroke="black" points="118.82,-215.97 126.01,-208.19 115.54,-209.79 118.82,-215.97"/>
</g>
<!-- quadrature&#45;&gt;fe -->
<g id="edge13" class="edge">
<title>quadrature&#45;&gt;fe</title>
<path fill="none" stroke="transparent" d="M185.98,-256.5C191.9,-256.5 197.82,-256.5 203.73,-256.5"/>
</g>
<!-- quadrature&#45;&gt;fevalues -->
<g id="edge5" class="edge">
<title>quadrature&#45;&gt;fevalues</title>
<path fill="none" stroke="black" d="M140.78,-243.84C141.9,-236.49 143.38,-226.77 144.71,-218.05"/>
<polygon fill="black" stroke="black" points="148.18,-218.55 146.23,-208.13 141.26,-217.49 148.18,-218.55"/>
</g>
<!-- systems -->
<g id="node7" class="node">
<title>systems</title>
<g id="a_node7"><a xlink:href="group__LAC.html" target="_top" xlink:title="Linear systems">
<polygon fill="white" stroke="black" points="260,-147 142,-147 142,-122 260,-122 260,-147"/>
<text text-anchor="middle" x="201" y="-131" font-family="FreeSans" font-size="15.00">Linear systems</text>
</a>
</g>
</g>
<!-- dh&#45;&gt;systems -->
<g id="edge6" class="edge">
<title>dh&#45;&gt;systems</title>
<path fill="none" stroke="black" d="M250.75,-182.84C242.17,-174.68 230.53,-163.6 220.66,-154.21"/>
<polygon fill="black" stroke="black" points="222.88,-151.49 213.22,-147.13 218.06,-156.56 222.88,-151.49"/>
</g>
<!-- fevalues&#45;&gt;systems -->
<g id="edge7" class="edge">
<title>fevalues&#45;&gt;systems</title>
<path fill="none" stroke="black" d="M158.47,-182.84C165.66,-174.84 175.36,-164.04 183.69,-154.77"/>
<polygon fill="black" stroke="black" points="186.47,-156.91 190.55,-147.13 181.26,-152.23 186.47,-156.91"/>
</g>
<!-- solvers -->
<g id="node8" class="node">
<title>solvers</title>
<g id="a_node8"><a xlink:href="group__Solvers.html" target="_top" xlink:title="Linear solvers">
<polygon fill="white" stroke="black" points="256,-86 146,-86 146,-61 256,-61 256,-86"/>
<text text-anchor="middle" x="201" y="-70" font-family="FreeSans" font-size="15.00">Linear solvers</text>
</a>
</g>
</g>
<!-- systems&#45;&gt;solvers -->
<g id="edge8" class="edge">
<title>systems&#45;&gt;solvers</title>
<path fill="none" stroke="black" d="M201,-121.84C201,-114.57 201,-104.98 201,-96.33"/>
<polygon fill="black" stroke="black" points="204.5,-96.13 201,-86.13 197.5,-96.13 204.5,-96.13"/>
</g>
<!-- output -->
<g id="node9" class="node">
<title>output</title>
<g id="a_node9"><a xlink:href="group__output.html" target="_top" xlink:title="Graphical output">
<polygon fill="white" stroke="black" points="264.5,-25 137.5,-25 137.5,0 264.5,0 264.5,-25"/>
<text text-anchor="middle" x="201" y="-9" font-family="FreeSans" font-size="15.00">Graphical output</text>
</a>
</g>
</g>
<!-- solvers&#45;&gt;output -->
<g id="edge9" class="edge">
<title>solvers&#45;&gt;output</title>
<path fill="none" stroke="black" d="M201,-60.84C201,-53.57 201,-43.98 201,-35.33"/>
<polygon fill="black" stroke="black" points="204.5,-35.13 201,-25.13 197.5,-35.13 204.5,-35.13"/>
</g>
<!-- manifold -->
<g id="node10" class="node">
<title>manifold</title>
<g id="a_node10"><a xlink:href="group__manifold.html" target="_top" xlink:title="Manifold">
<polygon fill="white" stroke="black" points="250.5,-330 177.5,-330 177.5,-305 250.5,-305 250.5,-330"/>
<text text-anchor="middle" x="214" y="-314" font-family="FreeSans" font-size="15.00">Manifold</text>
</a>
</g>
</g>
<!-- manifold&#45;&gt;tria -->
<g id="edge10" class="edge">
<title>manifold&#45;&gt;tria</title>
<path fill="none" stroke="black" d="M248.55,-304.98C276.6,-295.63 316.34,-282.39 346.73,-272.26"/>
<polygon fill="black" stroke="black" points="347.86,-275.57 356.24,-269.09 345.64,-268.93 347.86,-275.57"/>
</g>
<!-- manifold&#45;&gt;mapping -->
<g id="edge11" class="edge">
<title>manifold&#45;&gt;mapping</title>
<path fill="none" stroke="black" d="M179.45,-304.98C151.4,-295.63 111.66,-282.39 81.27,-272.26"/>
<polygon fill="black" stroke="black" points="82.36,-268.93 71.76,-269.09 80.14,-275.57 82.36,-268.93"/>
</g>
</g>
</svg>
