<?xml version="1.0" encoding="UTF-8" standalone="no"?>
<!DOCTYPE svg PUBLIC "-//W3C//DTD SVG 1.1//EN"
 "http://www.w3.org/Graphics/SVG/1.1/DTD/svg11.dtd">
<!-- Generated by graphviz version 2.47.1 (20210417.1919)
 -->
<!-- Title: G Pages: 1 -->
<svg width="475pt" height="527pt"
 viewBox="0.00 0.00 474.50 527.40" xmlns="http://www.w3.org/2000/svg" xmlns:xlink="http://www.w3.org/1999/xlink">
<g id="graph0" class="graph" transform="scale(1 1) rotate(0) translate(4 523.4)">
<title>G</title>
<!-- tria -->
<g id="node1" class="node">
<title>tria</title>
<g id="a_node1"><a xlink:href="group__grid.html" target="_top" xlink:title="Triangulation">
<polygon fill="white" stroke="black" points="429.5,-395.7 328.5,-395.7 328.5,-370.7 429.5,-370.7 429.5,-395.7"/>
<text text-anchor="middle" x="379" y="-379.7" font-family="FreeSans" font-size="15.00">Triangulation</text>
</a>
</g>
</g>
<!-- dh -->
<g id="node5" class="node">
<title>dh</title>
<g id="a_node5"><a xlink:href="group__dofs.html" target="_top" xlink:title="DoFHandler">
<polygon fill="white" stroke="black" points="321,-334.7 225,-334.7 225,-309.7 321,-309.7 321,-334.7"/>
<text text-anchor="middle" x="273" y="-318.7" font-family="FreeSans" font-size="15.00">DoFHandler</text>
</a>
</g>
</g>
<!-- tria&#45;&gt;dh -->
<g id="edge5" class="edge">
<title>tria&#45;&gt;dh</title>
<path fill="none" stroke="black" d="M358.31,-370.68C342.51,-361.89 320.51,-349.64 302.81,-339.79"/>
<polygon fill="black" stroke="black" points="304.44,-336.69 294,-334.89 301.04,-342.81 304.44,-336.69"/>
</g>
<!-- fe -->
<g id="node2" class="node">
<title>fe</title>
<g id="a_node2"><a xlink:href="group__feall.html" target="_top" xlink:title="FiniteElement">
<polygon fill="white" stroke="black" points="310.5,-395.7 203.5,-395.7 203.5,-370.7 310.5,-370.7 310.5,-395.7"/>
<text text-anchor="middle" x="257" y="-379.7" font-family="FreeSans" font-size="15.00">FiniteElement</text>
</a>
</g>
</g>
<!-- fe&#45;&gt;dh -->
<g id="edge6" class="edge">
<title>fe&#45;&gt;dh</title>
<path fill="none" stroke="black" d="M260.16,-370.54C262.16,-363.19 264.79,-353.47 267.16,-344.74"/>
<polygon fill="black" stroke="black" points="270.61,-345.4 269.85,-334.83 263.85,-343.57 270.61,-345.4"/>
</g>
<!-- fevalues -->
<g id="node7" class="node">
<title>fevalues</title>
<polygon fill="deepskyblue" stroke="black" points="191,-273.7 87,-273.7 87,-248.7 191,-248.7 191,-273.7"/>
<text text-anchor="middle" x="139" y="-257.7" font-family="FreeSans" font-size="15.00">FEEvaluation</text>
</g>
<!-- fe&#45;&gt;fevalues -->
<g id="edge7" class="edge">
<title>fe&#45;&gt;fevalues</title>
<path fill="none" stroke="black" d="M245.69,-370.69C225.3,-349.96 182.22,-306.15 157.49,-281"/>
<polygon fill="black" stroke="black" points="159.96,-278.52 150.45,-273.85 154.97,-283.43 159.96,-278.52"/>
</g>
<!-- mapping -->
<g id="node3" class="node">
<title>mapping</title>
<g id="a_node3"><a xlink:href="group__mapping.html" target="_top" xlink:title="Mapping">
<polygon fill="white" stroke="black" points="74,-395.7 0,-395.7 0,-370.7 74,-370.7 74,-395.7"/>
<text text-anchor="middle" x="37" y="-379.7" font-family="FreeSans" font-size="15.00">Mapping</text>
</a>
</g>
</g>
<!-- mapping&#45;&gt;fevalues -->
<g id="edge8" class="edge">
<title>mapping&#45;&gt;fevalues</title>
<path fill="none" stroke="black" d="M46.78,-370.69C64.25,-350.14 101,-306.9 122.46,-281.66"/>
<polygon fill="black" stroke="black" points="125.29,-283.73 129.1,-273.85 119.96,-279.2 125.29,-283.73"/>
</g>
<!-- quadrature -->
<g id="node4" class="node">
<title>quadrature</title>
<g id="a_node4"><a xlink:href="group__Quadrature.html" target="_top" xlink:title="Quadrature">
<polygon fill="white" stroke="black" points="185.5,-395.7 92.5,-395.7 92.5,-370.7 185.5,-370.7 185.5,-395.7"/>
<text text-anchor="middle" x="139" y="-379.7" font-family="FreeSans" font-size="15.00">Quadrature</text>
</a>
</g>
</g>
<!-- quadrature&#45;&gt;fevalues -->
<g id="edge9" class="edge">
<title>quadrature&#45;&gt;fevalues</title>
<path fill="none" stroke="black" d="M139,-370.69C139,-350.76 139,-309.51 139,-284.01"/>
<polygon fill="black" stroke="black" points="142.5,-283.85 139,-273.85 135.5,-283.85 142.5,-283.85"/>
</g>
<!-- mf -->
<g id="node8" class="node">
<title>mf</title>
<polygon fill="deepskyblue" stroke="black" points="337,-273.7 209,-273.7 209,-248.7 337,-248.7 337,-273.7"/>
<text text-anchor="middle" x="273" y="-257.7" font-family="FreeSans" font-size="15.00">MatrixFree loops</text>
</g>
<!-- dh&#45;&gt;mf -->
<g id="edge10" class="edge">
<title>dh&#45;&gt;mf</title>
<path fill="none" stroke="black" d="M273,-309.54C273,-302.27 273,-292.68 273,-284.03"/>
<polygon fill="black" stroke="black" points="276.5,-283.83 273,-273.83 269.5,-283.83 276.5,-283.83"/>
</g>
<!-- simd -->
<g id="node6" class="node">
<title>simd</title>
<polygon fill="white" stroke="gray" points="68.5,-271.7 21.5,-271.7 21.5,-250.7 68.5,-250.7 68.5,-271.7"/>
<text text-anchor="middle" x="45" y="-258.1" font-family="FreeSans" font-size="12.00" fill="gray">SIMD</text>
</g>
<!-- simd&#45;&gt;fevalues -->
<g id="edge1" class="edge">
<title>simd&#45;&gt;fevalues</title>
<path fill="none" stroke="transparent" d="M68.87,-261.2C74.89,-261.2 80.92,-261.2 86.95,-261.2"/>
</g>
<!-- fevalues&#45;&gt;mf -->
<g id="edge2" class="edge">
<title>fevalues&#45;&gt;mf</title>
<path fill="none" stroke="transparent" d="M191.08,-261.2C196.95,-261.2 202.82,-261.2 208.68,-261.2"/>
</g>
<!-- systems -->
<g id="node15" class="node">
<title>systems</title>
<polygon fill="deepskyblue" stroke="black" points="248,-212.7 164,-212.7 164,-187.7 248,-187.7 248,-212.7"/>
<text text-anchor="middle" x="206" y="-196.7" font-family="FreeSans" font-size="15.00">Operators</text>
</g>
<!-- fevalues&#45;&gt;systems -->
<g id="edge12" class="edge">
<title>fevalues&#45;&gt;systems</title>
<path fill="none" stroke="black" d="M152.24,-248.54C161.6,-240.3 174.34,-229.08 185.07,-219.63"/>
<polygon fill="black" stroke="black" points="187.6,-222.07 192.79,-212.83 182.97,-216.81 187.6,-222.07"/>
</g>
<!-- cuda -->
<g id="node9" class="node">
<title>cuda</title>
<g id="a_node9"><a xlink:href="group__CUDAWrappers.html" target="_top" xlink:title="CUDA">
<polygon fill="white" stroke="gray" points="407,-271.7 355,-271.7 355,-250.7 407,-250.7 407,-271.7"/>
<text text-anchor="middle" x="381" y="-258.1" font-family="FreeSans" font-size="12.00" fill="gray">CUDA</text>
</a>
</g>
</g>
<!-- mf&#45;&gt;cuda -->
<g id="edge3" class="edge">
<title>mf&#45;&gt;cuda</title>
<path fill="none" stroke="transparent" d="M337.12,-261.2C343.07,-261.2 349.01,-261.2 354.95,-261.2"/>
</g>
<!-- mf&#45;&gt;systems -->
<g id="edge11" class="edge">
<title>mf&#45;&gt;systems</title>
<path fill="none" stroke="black" d="M259.76,-248.54C250.4,-240.3 237.66,-229.08 226.93,-219.63"/>
<polygon fill="black" stroke="black" points="229.03,-216.81 219.21,-212.83 224.4,-222.07 229.03,-216.81"/>
</g>
<!-- tbb -->
<g id="node10" class="node">
<title>tbb</title>
<polygon fill="white" stroke="gray" points="466.5,-271.7 425.5,-271.7 425.5,-250.7 466.5,-250.7 466.5,-271.7"/>
<text text-anchor="middle" x="446" y="-258.1" font-family="FreeSans" font-size="12.00" fill="gray">TBB</text>
</g>
<!-- cuda&#45;&gt;tbb -->
<g id="edge4" class="edge">
<title>cuda&#45;&gt;tbb</title>
<path fill="none" stroke="transparent" d="M407.15,-261.2C413.22,-261.2 419.29,-261.2 425.36,-261.2"/>
</g>
<!-- solvers -->
<g id="node11" class="node">
<title>solvers</title>
<g id="a_node11"><a xlink:href="group__Solvers.html" target="_top" xlink:title="Solvers">
<polygon fill="deepskyblue" stroke="black" points="239,-151.7 173,-151.7 173,-126.7 239,-126.7 239,-151.7"/>
<text text-anchor="middle" x="206" y="-135.7" font-family="FreeSans" font-size="15.00">Solvers</text>
</a>
</g>
</g>
<!-- output -->
<g id="node13" class="node">
<title>output</title>
<g id="a_node13"><a xlink:href="group__output.html" target="_top" xlink:title="Graphical output">
<polygon fill="white" stroke="black" points="269.5,-90.7 142.5,-90.7 142.5,-65.7 269.5,-65.7 269.5,-90.7"/>
<text text-anchor="middle" x="206" y="-74.7" font-family="FreeSans" font-size="15.00">Graphical output</text>
</a>
</g>
</g>
<!-- solvers&#45;&gt;output -->
<g id="edge14" class="edge">
<title>solvers&#45;&gt;output</title>
<path fill="none" stroke="black" d="M206,-126.54C206,-119.27 206,-109.68 206,-101.03"/>
<polygon fill="black" stroke="black" points="209.5,-100.83 206,-90.83 202.5,-100.83 209.5,-100.83"/>
</g>
<!-- gmg -->
<g id="node12" class="node">
<title>gmg</title>
<polygon fill="none" stroke="black" stroke-dasharray="5,2" points="377,-149.7 257,-149.7 257,-128.7 377,-128.7 377,-149.7"/>
<text text-anchor="middle" x="317" y="-136.1" font-family="FreeSans" font-size="12.00">Geometric Multigrid</text>
</g>
<!-- visit -->
<g id="node18" class="node">
<title>visit</title>
<ellipse fill="white" stroke="gray" cx="159" cy="-14.85" rx="27.65" ry="14.7"/>
<text text-anchor="middle" x="159" y="-11.75" font-family="FreeSans" font-size="12.00" fill="gray">VisIt</text>
</g>
<!-- output&#45;&gt;visit -->
<g id="edge19" class="edge">
<title>output&#45;&gt;visit</title>
<path fill="none" stroke="gray" d="M197.16,-65.66C189.18,-55.25 177.45,-39.94 169.11,-29.04"/>
</g>
<!-- paraview -->
<g id="node19" class="node">
<title>paraview</title>
<ellipse fill="white" stroke="gray" cx="253" cy="-14.85" rx="48.17" ry="14.7"/>
<text text-anchor="middle" x="253" y="-11.75" font-family="FreeSans" font-size="12.00" fill="gray">ParaView</text>
</g>
<!-- output&#45;&gt;paraview -->
<g id="edge20" class="edge">
<title>output&#45;&gt;paraview</title>
<path fill="none" stroke="gray" d="M214.84,-65.66C222.71,-55.39 234.24,-40.34 242.56,-29.48"/>
</g>
<!-- manifold -->
<g id="node14" class="node">
<title>manifold</title>
<g id="a_node14"><a xlink:href="group__manifold.html" target="_top" xlink:title="Manifold">
<polygon fill="white" stroke="black" points="201.5,-459.05 128.5,-459.05 128.5,-434.05 201.5,-434.05 201.5,-459.05"/>
<text text-anchor="middle" x="165" y="-443.05" font-family="FreeSans" font-size="15.00">Manifold</text>
</a>
</g>
</g>
<!-- manifold&#45;&gt;tria -->
<g id="edge15" class="edge">
<title>manifold&#45;&gt;tria</title>
<path fill="none" stroke="black" d="M201.79,-435C236.78,-424.97 289.72,-409.79 328.62,-398.64"/>
<polygon fill="black" stroke="black" points="330.04,-401.87 338.69,-395.75 328.11,-395.15 330.04,-401.87"/>
</g>
<!-- manifold&#45;&gt;mapping -->
<g id="edge16" class="edge">
<title>manifold&#45;&gt;mapping</title>
<path fill="none" stroke="black" d="M140.92,-434.01C121.03,-424.47 92.56,-410.83 70.45,-400.23"/>
<polygon fill="black" stroke="black" points="71.93,-397.06 61.4,-395.89 68.91,-403.37 71.93,-397.06"/>
</g>
<!-- systems&#45;&gt;solvers -->
<g id="edge13" class="edge">
<title>systems&#45;&gt;solvers</title>
<path fill="none" stroke="black" d="M206,-187.54C206,-180.27 206,-170.68 206,-162.03"/>
<polygon fill="black" stroke="black" points="209.5,-161.83 206,-151.83 202.5,-161.83 209.5,-161.83"/>
</g>
<!-- opencascade -->
<g id="node16" class="node">
<title>opencascade</title>
<polygon fill="white" stroke="gray" points="112,-497.9 112,-518.9 218,-518.9 218,-497.9 112,-497.9"/>
<text text-anchor="middle" x="165" y="-505.3" font-family="FreeSans" font-size="12.00" fill="gray">OpenCASCADE</text>
</g>
<!-- opencascade&#45;&gt;manifold -->
<g id="edge17" class="edge">
<title>opencascade&#45;&gt;manifold</title>
<path fill="none" stroke="gray" d="M165,-497.78C165,-487.34 165,-470.65 165,-459.41"/>
</g>
<!-- gmsh -->
<g id="node17" class="node">
<title>gmsh</title>
<g id="a_node17"><a xlink:href="namespaceGmsh.html" target="_top" xlink:title="gmsh">
<ellipse fill="white" stroke="gray" cx="379" cy="-446.55" rx="32.55" ry="14.7"/>
<text text-anchor="middle" x="379" y="-443.45" font-family="FreeSans" font-size="12.00" fill="gray">gmsh</text>
</a>
</g>
</g>
<!-- gmsh&#45;&gt;tria -->
<g id="edge18" class="edge">
<title>gmsh&#45;&gt;tria</title>
<path fill="none" stroke="gray" d="M379,-431.63C379,-420.88 379,-406.17 379,-396"/>
</g>
</g>
</svg>
