<?xml version="1.0" encoding="UTF-8" standalone="no"?>
<!DOCTYPE svg PUBLIC "-//W3C//DTD SVG 1.1//EN"
 "http://www.w3.org/Graphics/SVG/1.1/DTD/svg11.dtd">
<!-- Generated by graphviz version 2.47.1 (20210417.1919)
 -->
<!-- Title: G Pages: 1 -->
<svg width="500pt" height="471pt"
 viewBox="0.00 0.00 499.50 471.40" xmlns="http://www.w3.org/2000/svg" xmlns:xlink="http://www.w3.org/1999/xlink">
<g id="graph0" class="graph" transform="scale(1 1) rotate(0) translate(4 467.4)">
<title>G</title>
<!-- tria -->
<g id="node1" class="node">
<title>tria</title>
<g id="a_node1"><a xlink:href="group__grid.html" target="_top" xlink:title="Triangulation">
<polygon fill="white" stroke="black" points="340.5,-314.2 340.5,-339.2 441.5,-339.2 441.5,-314.2 340.5,-314.2"/>
<text text-anchor="middle" x="391" y="-323.2" font-family="FreeSans" font-size="15.00">Triangulation</text>
</a>
</g>
</g>
<!-- dh -->
<g id="node5" class="node">
<title>dh</title>
<g id="a_node5"><a xlink:href="group__dofs.html" target="_top" xlink:title="DoFHandler">
<polygon fill="white" stroke="black" points="215,-252.2 215,-277.2 311,-277.2 311,-252.2 215,-252.2"/>
<text text-anchor="middle" x="263" y="-261.2" font-family="FreeSans" font-size="15.00">DoFHandler</text>
</a>
</g>
</g>
<!-- tria&#45;&gt;dh -->
<g id="edge1" class="edge">
<title>tria&#45;&gt;dh</title>
<path fill="none" stroke="black" d="M366.32,-314.13C346.58,-304.87 318.68,-291.8 296.85,-281.57"/>
<polygon fill="black" stroke="black" points="298.14,-278.31 287.6,-277.23 295.17,-284.65 298.14,-278.31"/>
</g>
<!-- fe -->
<g id="node2" class="node">
<title>fe</title>
<g id="a_node2"><a xlink:href="group__feall.html" target="_top" xlink:title="Finite elements">
<polygon fill="white" stroke="black" points="204,-314.2 204,-339.2 322,-339.2 322,-314.2 204,-314.2"/>
<text text-anchor="middle" x="263" y="-323.2" font-family="FreeSans" font-size="15.00">Finite elements</text>
</a>
</g>
</g>
<!-- fe&#45;&gt;dh -->
<g id="edge2" class="edge">
<title>fe&#45;&gt;dh</title>
<path fill="none" stroke="black" d="M263,-314.13C263,-306.58 263,-296.48 263,-287.46"/>
<polygon fill="black" stroke="black" points="266.5,-287.23 263,-277.23 259.5,-287.23 266.5,-287.23"/>
</g>
<!-- fevalues -->
<g id="node6" class="node">
<title>fevalues</title>
<g id="a_node6"><a xlink:href="group__feaccess.html" target="_top" xlink:title="FEValues">
<polygon fill="white" stroke="black" points="117,-252.2 117,-277.2 197,-277.2 197,-252.2 117,-252.2"/>
<text text-anchor="middle" x="157" y="-261.2" font-family="FreeSans" font-size="15.00">FEValues</text>
</a>
</g>
</g>
<!-- fe&#45;&gt;fevalues -->
<g id="edge3" class="edge">
<title>fe&#45;&gt;fevalues</title>
<path fill="none" stroke="black" d="M242.56,-314.13C226.58,-305.08 204.14,-292.38 186.26,-282.26"/>
<polygon fill="black" stroke="black" points="187.8,-279.11 177.38,-277.23 184.35,-285.2 187.8,-279.11"/>
</g>
<!-- mapping -->
<g id="node3" class="node">
<title>mapping</title>
<g id="a_node3"><a xlink:href="group__mapping.html" target="_top" xlink:title="Mapping">
<polygon fill="white" stroke="black" points="0,-314.2 0,-339.2 74,-339.2 74,-314.2 0,-314.2"/>
<text text-anchor="middle" x="37" y="-323.2" font-family="FreeSans" font-size="15.00">Mapping</text>
</a>
</g>
</g>
<!-- mapping&#45;&gt;fevalues -->
<g id="edge4" class="edge">
<title>mapping&#45;&gt;fevalues</title>
<path fill="none" stroke="black" d="M60.14,-314.13C78.56,-304.92 104.57,-291.92 124.99,-281.7"/>
<polygon fill="black" stroke="black" points="126.55,-284.83 133.93,-277.23 123.42,-278.57 126.55,-284.83"/>
</g>
<!-- quadrature -->
<g id="node4" class="node">
<title>quadrature</title>
<g id="a_node4"><a xlink:href="group__Quadrature.html" target="_top" xlink:title="Quadrature">
<polygon fill="white" stroke="black" points="92.5,-314.2 92.5,-339.2 185.5,-339.2 185.5,-314.2 92.5,-314.2"/>
<text text-anchor="middle" x="139" y="-323.2" font-family="FreeSans" font-size="15.00">Quadrature</text>
</a>
</g>
</g>
<!-- quadrature&#45;&gt;fevalues -->
<g id="edge5" class="edge">
<title>quadrature&#45;&gt;fevalues</title>
<path fill="none" stroke="black" d="M142.47,-314.13C144.79,-306.41 147.9,-296.03 150.65,-286.86"/>
<polygon fill="black" stroke="black" points="154.02,-287.82 153.54,-277.23 147.31,-285.8 154.02,-287.82"/>
</g>
<!-- systems -->
<g id="node7" class="node">
<title>systems</title>
<g id="a_node7"><a xlink:href="group__LAC.html" target="_top" xlink:title="Linear systems">
<polygon fill="white" stroke="black" points="204,-190.2 204,-215.2 322,-215.2 322,-190.2 204,-190.2"/>
<text text-anchor="middle" x="263" y="-199.2" font-family="FreeSans" font-size="15.00">Linear systems</text>
</a>
</g>
</g>
<!-- dh&#45;&gt;systems -->
<g id="edge6" class="edge">
<title>dh&#45;&gt;systems</title>
<path fill="none" stroke="black" d="M263,-252.13C263,-244.58 263,-234.48 263,-225.46"/>
<polygon fill="black" stroke="black" points="266.5,-225.23 263,-215.23 259.5,-225.23 266.5,-225.23"/>
</g>
<!-- fevalues&#45;&gt;systems -->
<g id="edge7" class="edge">
<title>fevalues&#45;&gt;systems</title>
<path fill="none" stroke="black" d="M177.44,-252.13C193.42,-243.08 215.86,-230.38 233.74,-220.26"/>
<polygon fill="black" stroke="black" points="235.65,-223.2 242.62,-215.23 232.2,-217.11 235.65,-223.2"/>
</g>
<!-- solvers -->
<g id="node8" class="node">
<title>solvers</title>
<g id="a_node8"><a xlink:href="group__Solvers.html" target="_top" xlink:title="Linear solvers">
<polygon fill="white" stroke="black" points="208,-128.2 208,-153.2 318,-153.2 318,-128.2 208,-128.2"/>
<text text-anchor="middle" x="263" y="-137.2" font-family="FreeSans" font-size="15.00">Linear solvers</text>
</a>
</g>
</g>
<!-- systems&#45;&gt;solvers -->
<g id="edge8" class="edge">
<title>systems&#45;&gt;solvers</title>
<path fill="none" stroke="black" d="M263,-190.13C263,-182.58 263,-172.48 263,-163.46"/>
<polygon fill="black" stroke="black" points="266.5,-163.23 263,-153.23 259.5,-163.23 266.5,-163.23"/>
</g>
<!-- output -->
<g id="node9" class="node">
<title>output</title>
<g id="a_node9"><a xlink:href="group__output.html" target="_top" xlink:title="Graphical output">
<polygon fill="white" stroke="black" points="199.5,-66.2 199.5,-91.2 326.5,-91.2 326.5,-66.2 199.5,-66.2"/>
<text text-anchor="middle" x="263" y="-75.2" font-family="FreeSans" font-size="15.00">Graphical output</text>
</a>
</g>
</g>
<!-- solvers&#45;&gt;output -->
<g id="edge9" class="edge">
<title>solvers&#45;&gt;output</title>
<path fill="none" stroke="black" d="M263,-128.13C263,-120.58 263,-110.48 263,-101.46"/>
<polygon fill="black" stroke="black" points="266.5,-101.23 263,-91.23 259.5,-101.23 266.5,-101.23"/>
</g>
<!-- visit -->
<g id="node17" class="node">
<title>visit</title>
<ellipse fill="white" stroke="#8c8c8c" cx="216" cy="-14.85" rx="27.65" ry="14.7"/>
<text text-anchor="middle" x="216" y="-11.75" font-family="FreeSans" font-size="12.00" fill="#8c8c8c">VisIt</text>
</g>
<!-- output&#45;&gt;visit -->
<g id="edge21" class="edge">
<title>output&#45;&gt;visit</title>
<path fill="none" stroke="#8c8c8c" d="M254.16,-66.07C246.18,-55.57 234.45,-40.13 226.11,-29.15"/>
</g>
<!-- paraview -->
<g id="node18" class="node">
<title>paraview</title>
<ellipse fill="white" stroke="#8c8c8c" cx="310" cy="-14.85" rx="48.17" ry="14.7"/>
<text text-anchor="middle" x="310" y="-11.75" font-family="FreeSans" font-size="12.00" fill="#8c8c8c">ParaView</text>
</g>
<!-- output&#45;&gt;paraview -->
<g id="edge22" class="edge">
<title>output&#45;&gt;paraview</title>
<path fill="none" stroke="#8c8c8c" d="M271.84,-66.07C279.71,-55.71 291.24,-40.54 299.56,-29.59"/>
</g>
<!-- manifold -->
<g id="node10" class="node">
<title>manifold</title>
<g id="a_node10"><a xlink:href="group__manifold.html" target="_top" xlink:title="Manifold">
<polygon fill="white" stroke="black" points="134.5,-378.05 134.5,-403.05 207.5,-403.05 207.5,-378.05 134.5,-378.05"/>
<text text-anchor="middle" x="171" y="-387.05" font-family="FreeSans" font-size="15.00">Manifold</text>
</a>
</g>
</g>
<!-- manifold&#45;&gt;tria -->
<g id="edge10" class="edge">
<title>manifold&#45;&gt;tria</title>
<path fill="none" stroke="black" d="M207.82,-379.2C244.1,-369 299.8,-353.34 340.26,-341.96"/>
<polygon fill="black" stroke="black" points="341.26,-345.32 349.94,-339.24 339.36,-338.58 341.26,-345.32"/>
</g>
<!-- manifold&#45;&gt;mapping -->
<g id="edge11" class="edge">
<title>manifold&#45;&gt;mapping</title>
<path fill="none" stroke="black" d="M145.8,-377.91C124.74,-368.2 94.51,-354.24 71.26,-343.51"/>
<polygon fill="black" stroke="black" points="72.64,-340.29 62.09,-339.28 69.7,-346.65 72.64,-340.29"/>
</g>
<!-- opencascade -->
<g id="node11" class="node">
<title>opencascade</title>
<polygon fill="white" stroke="#8c8c8c" points="118,-441.9 118,-462.9 224,-462.9 224,-441.9 118,-441.9"/>
<text text-anchor="middle" x="171" y="-449.3" font-family="FreeSans" font-size="12.00" fill="#8c8c8c">OpenCASCADE</text>
</g>
<!-- opencascade&#45;&gt;manifold -->
<g id="edge19" class="edge">
<title>opencascade&#45;&gt;manifold</title>
<path fill="none" stroke="#8c8c8c" d="M171,-441.78C171,-431.34 171,-414.65 171,-403.41"/>
</g>
<!-- petsc -->
<g id="node12" class="node">
<title>petsc</title>
<g id="a_node12"><a xlink:href="group__PETScWrappers.html" target="_top" xlink:title="PETSc">
<polygon fill="white" stroke="#8c8c8c" points="43.5,-254.2 43.5,-275.2 98.5,-275.2 98.5,-254.2 43.5,-254.2"/>
<text text-anchor="middle" x="71" y="-261.6" font-family="FreeSans" font-size="12.00" fill="#8c8c8c">PETSc</text>
</a>
</g>
</g>
<!-- petsc&#45;&gt;systems -->
<g id="edge12" class="edge">
<title>petsc&#45;&gt;systems</title>
<path fill="none" stroke="#8c8c8c" d="M98.87,-254.62C101.95,-253.63 105.04,-252.64 108,-251.7 147.88,-239.06 193.65,-224.93 225.05,-215.3"/>
</g>
<!-- petsc&#45;&gt;solvers -->
<g id="edge13" class="edge">
<title>petsc&#45;&gt;solvers</title>
<path fill="none" stroke="#8c8c8c" d="M86.07,-254.13C120.9,-231.99 206.9,-177.35 244.69,-153.33"/>
</g>
<!-- trilinos -->
<g id="node13" class="node">
<title>trilinos</title>
<g id="a_node13"><a xlink:href="group__TrilinosWrappers.html" target="_top" xlink:title="Trilinos">
<polygon fill="white" stroke="#8c8c8c" points="329,-254.2 329,-275.2 385,-275.2 385,-254.2 329,-254.2"/>
<text text-anchor="middle" x="357" y="-261.6" font-family="FreeSans" font-size="12.00" fill="#8c8c8c">Trilinos</text>
</a>
</g>
</g>
<!-- trilinos&#45;&gt;systems -->
<g id="edge14" class="edge">
<title>trilinos&#45;&gt;systems</title>
<path fill="none" stroke="#8c8c8c" d="M341.9,-254.06C325.39,-243.52 298.96,-226.65 281.29,-215.37"/>
</g>
<!-- trilinos&#45;&gt;solvers -->
<g id="edge15" class="edge">
<title>trilinos&#45;&gt;solvers</title>
<path fill="none" stroke="#8c8c8c" d="M355.57,-254.17C352.93,-239.17 346.1,-209.69 331,-189.7 319.24,-174.13 300.97,-161.64 286.33,-153.3"/>
</g>
<!-- cuda -->
<g id="node14" class="node">
<title>cuda</title>
<g id="a_node14"><a xlink:href="group__CUDAWrappers.html" target="_top" xlink:title="CUDA">
<polygon fill="white" stroke="#8c8c8c" points="403,-254.2 403,-275.2 455,-275.2 455,-254.2 403,-254.2"/>
<text text-anchor="middle" x="429" y="-261.6" font-family="FreeSans" font-size="12.00" fill="#8c8c8c">CUDA</text>
</a>
</g>
</g>
<!-- cuda&#45;&gt;systems -->
<g id="edge16" class="edge">
<title>cuda&#45;&gt;systems</title>
<path fill="none" stroke="#8c8c8c" d="M402.7,-254.19C373.44,-243.62 326.19,-226.54 294.86,-215.21"/>
</g>
<!-- cuda&#45;&gt;solvers -->
<g id="edge17" class="edge">
<title>cuda&#45;&gt;solvers</title>
<path fill="none" stroke="#8c8c8c" d="M420.33,-253.98C406.61,-238.98 378.62,-209.8 351,-189.7 331.16,-175.26 306.48,-162.16 288.31,-153.31"/>
</g>
<!-- umfpack -->
<g id="node15" class="node">
<title>umfpack</title>
<polygon fill="white" stroke="#8c8c8c" points="416.5,-192.2 416.5,-213.2 491.5,-213.2 491.5,-192.2 416.5,-192.2"/>
<text text-anchor="middle" x="454" y="-199.6" font-family="FreeSans" font-size="12.00" fill="#8c8c8c">UMFPACK</text>
</g>
<!-- umfpack&#45;&gt;solvers -->
<g id="edge18" class="edge">
<title>umfpack&#45;&gt;solvers</title>
<path fill="none" stroke="#8c8c8c" d="M423.74,-192.19C390.07,-181.62 335.7,-164.54 299.66,-153.21"/>
</g>
<!-- gmsh -->
<g id="node16" class="node">
<title>gmsh</title>
<g id="a_node16"><a xlink:href="namespaceGmsh.html" target="_top" xlink:title="gmsh">
<ellipse fill="white" stroke="#8c8c8c" cx="391" cy="-390.55" rx="32.55" ry="14.7"/>
<text text-anchor="middle" x="391" y="-387.45" font-family="FreeSans" font-size="12.00" fill="#8c8c8c">gmsh</text>
</a>
</g>
</g>
<!-- gmsh&#45;&gt;tria -->
<g id="edge20" class="edge">
<title>gmsh&#45;&gt;tria</title>
<path fill="none" stroke="#8c8c8c" d="M391,-375.51C391,-364.68 391,-349.85 391,-339.6"/>
</g>
</g>
</svg>
