<?xml version="1.0" encoding="UTF-8" standalone="no"?>
<!DOCTYPE svg PUBLIC "-//W3C//DTD SVG 1.1//EN"
 "http://www.w3.org/Graphics/SVG/1.1/DTD/svg11.dtd">
<!-- Generated by graphviz version 2.47.1 (20210417.1919)
 -->
<!-- Title: Input/Output Pages: 1 -->
<svg width="203pt" height="101pt"
 viewBox="0.00 0.00 203.00 101.00" xmlns="http://www.w3.org/2000/svg" xmlns:xlink="http://www.w3.org/1999/xlink">
<g id="graph0" class="graph" transform="scale(1 1) rotate(0) translate(4 97)">
<title>Input/Output</title>
<polygon fill="white" stroke="transparent" points="-4,4 -4,-97 199,-97 199,4 -4,4"/>
<!-- Node1 -->
<g id="node1" class="node">
<title>Node1</title>
<g id="a_node1"><a xlink:title=" ">
<polygon fill="#bfbfbf" stroke="black" points="71,-56 0,-56 0,-37 71,-37 71,-56"/>
<text text-anchor="middle" x="35.5" y="-44" font-family="Helvetica,sans-Serif" font-size="10.00">Input/Output</text>
</a>
</g>
</g>
<!-- Node3 -->
<g id="node2" class="node">
<title>Node3</title>
<g id="a_node2"><a xlink:href="group__output.html" target="_top" xlink:title=" ">
<polygon fill="white" stroke="black" points="195,-93 107,-93 107,-74 195,-74 195,-93"/>
<text text-anchor="middle" x="151" y="-81" font-family="Helvetica,sans-Serif" font-size="10.00">Graphical output</text>
</a>
</g>
</g>
<!-- Node1&#45;&gt;Node3 -->
<g id="edge2" class="edge">
<title>Node1&#45;&gt;Node3</title>
<path fill="none" stroke="black" d="M75.58,-59.24C90.3,-64.04 106.77,-69.41 120.48,-73.88"/>
<polygon fill="black" stroke="black" points="76.32,-55.8 65.73,-56.03 74.15,-62.46 76.32,-55.8"/>
</g>
<!-- Node2 -->
<g id="node3" class="node">
<title>Node2</title>
<g id="a_node3"><a xlink:href="group__input.html" target="_top" xlink:title=" ">
<polygon fill="white" stroke="black" points="170,-56 132,-56 132,-37 170,-37 170,-56"/>
<text text-anchor="middle" x="151" y="-44" font-family="Helvetica,sans-Serif" font-size="10.00">Input</text>
</a>
</g>
</g>
<!-- Node1&#45;&gt;Node2 -->
<g id="edge1" class="edge">
<title>Node1&#45;&gt;Node2</title>
<path fill="none" stroke="black" d="M81.35,-46.5C99.05,-46.5 118.37,-46.5 131.99,-46.5"/>
<polygon fill="black" stroke="black" points="81.17,-43 71.17,-46.5 81.17,-50 81.17,-43"/>
</g>
<!-- Node4 -->
<g id="node4" class="node">
<title>Node4</title>
<g id="a_node4"><a xlink:href="group__textoutput.html" target="_top" xlink:title=" ">
<polygon fill="white" stroke="black" points="190,-19 112,-19 112,0 190,0 190,-19"/>
<text text-anchor="middle" x="151" y="-7" font-family="Helvetica,sans-Serif" font-size="10.00">Textual output</text>
</a>
</g>
</g>
<!-- Node1&#45;&gt;Node4 -->
<g id="edge3" class="edge">
<title>Node1&#45;&gt;Node4</title>
<path fill="none" stroke="black" d="M75.58,-33.76C90.3,-28.96 106.77,-23.59 120.48,-19.12"/>
<polygon fill="black" stroke="black" points="74.15,-30.54 65.73,-36.97 76.32,-37.2 74.15,-30.54"/>
</g>
</g>
</svg>
