<?xml version="1.0" encoding="UTF-8" standalone="no"?>
<!DOCTYPE svg PUBLIC "-//W3C//DTD SVG 1.1//EN"
 "http://www.w3.org/Graphics/SVG/1.1/DTD/svg11.dtd">
<!-- Generated by graphviz version 2.47.1 (20210417.1919)
 -->
<!-- Title: The interplay of UpdateFlags, Mapping, and FiniteElement in FEValues Pages: 1 -->
<svg width="273pt" height="49pt"
 viewBox="0.00 0.00 273.00 49.00" xmlns="http://www.w3.org/2000/svg" xmlns:xlink="http://www.w3.org/1999/xlink">
<g id="graph0" class="graph" transform="scale(1 1) rotate(0) translate(4 45)">
<title>The interplay of UpdateFlags, Mapping, and FiniteElement in FEValues</title>
<polygon fill="white" stroke="transparent" points="-4,4 -4,-45 269,-45 269,4 -4,4"/>
<!-- Node2 -->
<g id="node1" class="node">
<title>Node2</title>
<g id="a_node1"><a xlink:href="group__feall.html" target="_top" xlink:title=" ">
<polygon fill="white" stroke="black" points="83,-30 0,-30 0,-11 83,-11 83,-30"/>
<text text-anchor="middle" x="41.5" y="-18" font-family="Helvetica,sans-Serif" font-size="10.00">Finite elements</text>
</a>
</g>
</g>
<!-- Node1 -->
<g id="node2" class="node">
<title>Node1</title>
<g id="a_node2"><a xlink:title=" ">
<polygon fill="#bfbfbf" stroke="black" points="265,-41 119,-41 119,0 265,0 265,-41"/>
<text text-anchor="start" x="127" y="-29" font-family="Helvetica,sans-Serif" font-size="10.00">The interplay of UpdateFlags,</text>
<text text-anchor="start" x="127" y="-18" font-family="Helvetica,sans-Serif" font-size="10.00"> Mapping, and FiniteElement</text>
<text text-anchor="middle" x="192" y="-7" font-family="Helvetica,sans-Serif" font-size="10.00"> in FEValues</text>
</a>
</g>
</g>
<!-- Node2&#45;&gt;Node1 -->
<g id="edge1" class="edge">
<title>Node2&#45;&gt;Node1</title>
<path fill="none" stroke="black" d="M93.24,-20.5C101.48,-20.5 110.15,-20.5 118.78,-20.5"/>
<polygon fill="black" stroke="black" points="93.08,-17 83.08,-20.5 93.08,-24 93.08,-17"/>
</g>
</g>
</svg>
