<?xml version="1.0" encoding="UTF-8" standalone="no"?>
<!DOCTYPE svg PUBLIC "-//W3C//DTD SVG 1.1//EN"
 "http://www.w3.org/Graphics/SVG/1.1/DTD/svg11.dtd">
<!-- Generated by graphviz version 2.47.1 (20210417.1919)
 -->
<!-- Title: Iterators on mesh&#45;like containers Pages: 1 -->
<svg width="353pt" height="108pt"
 viewBox="0.00 0.00 353.00 107.50" xmlns="http://www.w3.org/2000/svg" xmlns:xlink="http://www.w3.org/1999/xlink">
<g id="graph0" class="graph" transform="scale(1 1) rotate(0) translate(4 103.5)">
<title>Iterators on mesh&#45;like containers</title>
<polygon fill="white" stroke="transparent" points="-4,4 -4,-103.5 349,-103.5 349,4 -4,4"/>
<!-- Node3 -->
<g id="node1" class="node">
<title>Node3</title>
<g id="a_node1"><a xlink:href="group__Accessors.html" target="_top" xlink:title=" ">
<polygon fill="white" stroke="black" points="337,-99.5 231,-99.5 231,-69.5 337,-69.5 337,-99.5"/>
<text text-anchor="start" x="239" y="-87.5" font-family="Helvetica,sans-Serif" font-size="10.00">Accessor classes of</text>
<text text-anchor="middle" x="284" y="-76.5" font-family="Helvetica,sans-Serif" font-size="10.00"> the mesh iterators</text>
</a>
</g>
</g>
<!-- Node1 -->
<g id="node2" class="node">
<title>Node1</title>
<g id="a_node2"><a xlink:title=" ">
<polygon fill="#bfbfbf" stroke="black" points="111,-40.5 0,-40.5 0,-10.5 111,-10.5 111,-40.5"/>
<text text-anchor="start" x="8" y="-28.5" font-family="Helvetica,sans-Serif" font-size="10.00">Iterators on mesh&#45;like</text>
<text text-anchor="middle" x="55.5" y="-17.5" font-family="Helvetica,sans-Serif" font-size="10.00"> containers</text>
</a>
</g>
</g>
<!-- Node1&#45;&gt;Node3 -->
<g id="edge2" class="edge">
<title>Node1&#45;&gt;Node3</title>
<path fill="none" stroke="black" d="M84.98,-46.28C97.81,-54.59 113.53,-63.38 129,-68.5 161.79,-79.35 200.47,-83.34 230.85,-84.62"/>
<polygon fill="black" stroke="black" points="86.85,-43.32 76.59,-40.65 82.95,-49.13 86.85,-43.32"/>
</g>
<!-- Node2 -->
<g id="node3" class="node">
<title>Node2</title>
<g id="a_node3"><a xlink:href="group__grid.html" target="_top" xlink:title=" ">
<polygon fill="white" stroke="black" points="345,-19 223,-19 223,0 345,0 345,-19"/>
<text text-anchor="middle" x="284" y="-7" font-family="Helvetica,sans-Serif" font-size="10.00">Grids and Triangulations</text>
</a>
</g>
</g>
<!-- Node1&#45;&gt;Node2 -->
<g id="edge3" class="edge">
<title>Node1&#45;&gt;Node2</title>
<path fill="none" stroke="orange" stroke-dasharray="5,2" d="M111.04,-21.65C144.81,-19.26 188.21,-16.2 222.96,-13.74"/>
<text text-anchor="middle" x="167" y="-56.5" font-family="Helvetica,sans-Serif" font-size="10.00">FilteredIterator</text>
<text text-anchor="middle" x="167" y="-45.5" font-family="Helvetica,sans-Serif" font-size="10.00">TriaRawIterator</text>
<text text-anchor="middle" x="167" y="-34.5" font-family="Helvetica,sans-Serif" font-size="10.00">TriaIterator</text>
<text text-anchor="middle" x="167" y="-23.5" font-family="Helvetica,sans-Serif" font-size="10.00">TriaActiveIterator</text>
</g>
<!-- Node2&#45;&gt;Node1 -->
<g id="edge1" class="edge">
<title>Node2&#45;&gt;Node1</title>
<path fill="none" stroke="black" d="M212.54,-3.78C186.23,-2.78 156.16,-3 129,-6.5 121.9,-7.41 114.51,-8.81 107.27,-10.45"/>
<polygon fill="black" stroke="black" points="212.66,-7.29 222.81,-4.23 212.97,-0.29 212.66,-7.29"/>
</g>
</g>
</svg>
