<?xml version="1.0" encoding="UTF-8" standalone="no"?>
<!DOCTYPE svg PUBLIC "-//W3C//DTD SVG 1.1//EN"
 "http://www.w3.org/Graphics/SVG/1.1/DTD/svg11.dtd">
<!-- Generated by graphviz version 2.47.1 (20210417.1919)
 -->
<!-- Title: Parallel computing Pages: 1 -->
<svg width="275pt" height="108pt"
 viewBox="0.00 0.00 275.00 108.00" xmlns="http://www.w3.org/2000/svg" xmlns:xlink="http://www.w3.org/1999/xlink">
<g id="graph0" class="graph" transform="scale(1 1) rotate(0) translate(4 104)">
<title>Parallel computing</title>
<polygon fill="white" stroke="transparent" points="-4,4 -4,-104 271,-104 271,4 -4,4"/>
<!-- Node1 -->
<g id="node1" class="node">
<title>Node1</title>
<g id="a_node1"><a xlink:title="A module discussing the use of multiple processors.">
<polygon fill="#bfbfbf" stroke="black" points="97,-59 0,-59 0,-40 97,-40 97,-59"/>
<text text-anchor="middle" x="48.5" y="-47" font-family="Helvetica,sans-Serif" font-size="10.00">Parallel computing</text>
</a>
</g>
</g>
<!-- Node2 -->
<g id="node2" class="node">
<title>Node2</title>
<g id="a_node2"><a xlink:href="group__distributed.html" target="_top" xlink:title="A module discussing the use of parallelism on distributed memory clusters.">
<polygon fill="white" stroke="black" points="264.5,-100 135.5,-100 135.5,-59 264.5,-59 264.5,-100"/>
<text text-anchor="start" x="143.5" y="-88" font-family="Helvetica,sans-Serif" font-size="10.00">Parallel computing</text>
<text text-anchor="start" x="143.5" y="-77" font-family="Helvetica,sans-Serif" font-size="10.00"> with multiple processors</text>
<text text-anchor="middle" x="200" y="-66" font-family="Helvetica,sans-Serif" font-size="10.00"> using distributed memory</text>
</a>
</g>
</g>
<!-- Node1&#45;&gt;Node2 -->
<g id="edge1" class="edge">
<title>Node1&#45;&gt;Node2</title>
<path fill="none" stroke="black" d="M107.09,-61.06C116.35,-62.91 125.98,-64.85 135.37,-66.73"/>
<polygon fill="black" stroke="black" points="107.71,-57.61 97.21,-59.07 106.33,-64.47 107.71,-57.61"/>
</g>
<!-- Node3 -->
<g id="node3" class="node">
<title>Node3</title>
<g id="a_node3"><a xlink:href="group__threads.html" target="_top" xlink:title="A module discussing the use of parallelism on shared memory machines. See the detailed documentation ...">
<polygon fill="white" stroke="black" points="267,-41 133,-41 133,0 267,0 267,-41"/>
<text text-anchor="start" x="141" y="-29" font-family="Helvetica,sans-Serif" font-size="10.00">Parallel computing</text>
<text text-anchor="start" x="141" y="-18" font-family="Helvetica,sans-Serif" font-size="10.00"> with multiple processors</text>
<text text-anchor="middle" x="200" y="-7" font-family="Helvetica,sans-Serif" font-size="10.00"> accessing shared memory</text>
</a>
</g>
</g>
<!-- Node1&#45;&gt;Node3 -->
<g id="edge2" class="edge">
<title>Node1&#45;&gt;Node3</title>
<path fill="none" stroke="black" d="M107.28,-38.29C115.68,-36.66 124.38,-34.97 132.93,-33.32"/>
<polygon fill="black" stroke="black" points="106.36,-34.9 97.21,-40.24 107.7,-41.78 106.36,-34.9"/>
</g>
</g>
</svg>
