<?xml version="1.0" encoding="UTF-8" standalone="no"?>
<!DOCTYPE svg PUBLIC "-//W3C//DTD SVG 1.1//EN"
 "http://www.w3.org/Graphics/SVG/1.1/DTD/svg11.dtd">
<!-- Generated by graphviz version 2.47.1 (20210417.1919)
 -->
<!-- Title: Base classes Pages: 1 -->
<svg width="417pt" height="86pt"
 viewBox="0.00 0.00 417.00 86.00" xmlns="http://www.w3.org/2000/svg" xmlns:xlink="http://www.w3.org/1999/xlink">
<g id="graph0" class="graph" transform="scale(1 1) rotate(0) translate(4 82)">
<title>Base classes</title>
<polygon fill="white" stroke="transparent" points="-4,4 -4,-82 413,-82 413,4 -4,4"/>
<!-- Node1 -->
<g id="node1" class="node">
<title>Node1</title>
<g id="a_node1"><a xlink:title=" ">
<polygon fill="#bfbfbf" stroke="black" points="196,-48.5 120,-48.5 120,-29.5 196,-29.5 196,-48.5"/>
<text text-anchor="middle" x="158" y="-36.5" font-family="Helvetica,sans-Serif" font-size="10.00">Base classes</text>
</a>
</g>
</g>
<!-- Node4 -->
<g id="node3" class="node">
<title>Node4</title>
<g id="a_node3"><a xlink:href="group__vector__valued.html" target="_top" xlink:title=" ">
<polygon fill="white" stroke="black" points="409,-78 293,-78 293,-48 409,-48 409,-78"/>
<text text-anchor="start" x="301" y="-66" font-family="Helvetica,sans-Serif" font-size="10.00">Handling vector valued</text>
<text text-anchor="middle" x="351" y="-55" font-family="Helvetica,sans-Serif" font-size="10.00"> problems</text>
</a>
</g>
</g>
<!-- Node1&#45;&gt;Node4 -->
<g id="edge3" class="edge">
<title>Node1&#45;&gt;Node4</title>
<path fill="none" stroke="orange" stroke-dasharray="5,2" d="M196.28,-43.68C223.75,-47.14 261.6,-51.89 292.87,-55.82"/>
<text text-anchor="middle" x="244.5" y="-56" font-family="Helvetica,sans-Serif" font-size="10.00">FESystem</text>
</g>
<!-- Node3 -->
<g id="node4" class="node">
<title>Node3</title>
<g id="a_node4"><a xlink:href="group__fe.html" target="_top" xlink:title=" ">
<polygon fill="white" stroke="black" points="404.5,-30 297.5,-30 297.5,0 404.5,0 404.5,-30"/>
<text text-anchor="start" x="305.5" y="-18" font-family="Helvetica,sans-Serif" font-size="10.00">Finite element space</text>
<text text-anchor="middle" x="351" y="-7" font-family="Helvetica,sans-Serif" font-size="10.00"> descriptions</text>
</a>
</g>
</g>
<!-- Node1&#45;&gt;Node3 -->
<g id="edge2" class="edge">
<title>Node1&#45;&gt;Node3</title>
<path fill="none" stroke="orange" stroke-dasharray="5,2" d="M180.23,-29.48C190.26,-25.46 202.52,-21.2 214,-19 241.14,-13.81 271.88,-12.52 297.26,-12.66"/>
<text text-anchor="middle" x="244.5" y="-33" font-family="Helvetica,sans-Serif" font-size="10.00">FiniteElement</text>
<text text-anchor="middle" x="244.5" y="-22" font-family="Helvetica,sans-Serif" font-size="10.00">FESystem</text>
</g>
<!-- Node2 -->
<g id="node2" class="node">
<title>Node2</title>
<g id="a_node2"><a xlink:href="group__feall.html" target="_top" xlink:title=" ">
<polygon fill="white" stroke="black" points="83,-48.5 0,-48.5 0,-29.5 83,-29.5 83,-48.5"/>
<text text-anchor="middle" x="41.5" y="-36.5" font-family="Helvetica,sans-Serif" font-size="10.00">Finite elements</text>
</a>
</g>
</g>
<!-- Node2&#45;&gt;Node1 -->
<g id="edge1" class="edge">
<title>Node2&#45;&gt;Node1</title>
<path fill="none" stroke="black" d="M93.48,-39C102.36,-39 111.45,-39 119.88,-39"/>
<polygon fill="black" stroke="black" points="93.19,-35.5 83.19,-39 93.19,-42.5 93.19,-35.5"/>
</g>
</g>
</svg>
