<?xml version="1.0" encoding="UTF-8" standalone="no"?>
<!DOCTYPE svg PUBLIC "-//W3C//DTD SVG 1.1//EN"
 "http://www.w3.org/Graphics/SVG/1.1/DTD/svg11.dtd">
<!-- Generated by graphviz version 2.47.1 (20210417.1919)
 -->
<!-- Title: Exceptions and assertions Pages: 1 -->
<svg width="667pt" height="159pt"
 viewBox="0.00 0.00 667.00 159.00" xmlns="http://www.w3.org/2000/svg" xmlns:xlink="http://www.w3.org/1999/xlink">
<g id="graph0" class="graph" transform="scale(1 1) rotate(0) translate(4 155)">
<title>Exceptions and assertions</title>
<polygon fill="white" stroke="transparent" points="-4,4 -4,-155 663,-155 663,4 -4,4"/>
<!-- Node4 -->
<g id="node1" class="node">
<title>Node4</title>
<g id="a_node1"><a xlink:href="group__Vectors.html" target="_top" xlink:title=" ">
<polygon fill="white" stroke="black" points="97,-151 15,-151 15,-132 97,-132 97,-151"/>
<text text-anchor="middle" x="56" y="-139" font-family="Helvetica,sans-Serif" font-size="10.00">Vector classes</text>
</a>
</g>
</g>
<!-- Node1 -->
<g id="node2" class="node">
<title>Node1</title>
<g id="a_node2"><a xlink:title=" ">
<polygon fill="#bfbfbf" stroke="black" points="407,-90 275,-90 275,-71 407,-71 407,-90"/>
<text text-anchor="middle" x="341" y="-78" font-family="Helvetica,sans-Serif" font-size="10.00">Exceptions and assertions</text>
</a>
</g>
</g>
<!-- Node4&#45;&gt;Node1 -->
<g id="edge3" class="edge">
<title>Node4&#45;&gt;Node1</title>
<path fill="none" stroke="black" d="M107.26,-147.91C148.5,-151.37 207.89,-152.19 257,-136.5 286.47,-127.08 315.09,-103.69 329.79,-90.31"/>
<polygon fill="black" stroke="black" points="107.46,-144.41 97.18,-146.98 106.82,-151.38 107.46,-144.41"/>
</g>
<!-- Node1&#45;&gt;Node4 -->
<g id="edge6" class="edge">
<title>Node1&#45;&gt;Node4</title>
<path fill="none" stroke="orange" stroke-dasharray="5,2" d="M274.88,-89.39C215.85,-97.51 137.03,-108.54 130,-110.5 110.9,-115.82 90.19,-124.97 75.72,-131.95"/>
<text text-anchor="start" x="130" y="-124.5" font-family="Helvetica,sans-Serif" font-size="10.00">internal::LinearOperator</text>
<text text-anchor="middle" x="193.5" y="-113.5" font-family="Helvetica,sans-Serif" font-size="10.00">Implementation::ReinitHelper</text>
</g>
<!-- Node7 -->
<g id="node3" class="node">
<title>Node7</title>
<g id="a_node3"><a xlink:href="group__PETScWrappers.html" target="_top" xlink:title=" ">
<polygon fill="white" stroke="black" points="659,-123 570,-123 570,-104 659,-104 659,-123"/>
<text text-anchor="middle" x="614.5" y="-111" font-family="Helvetica,sans-Serif" font-size="10.00">PETScWrappers</text>
</a>
</g>
</g>
<!-- Node1&#45;&gt;Node7 -->
<g id="edge7" class="edge">
<title>Node1&#45;&gt;Node7</title>
<path fill="none" stroke="orange" stroke-dasharray="5,2" d="M407.03,-88.4C457.39,-94.53 525.76,-102.84 569.76,-108.18"/>
<text text-anchor="start" x="425" y="-119.5" font-family="Helvetica,sans-Serif" font-size="10.00">internal::LinearOperator</text>
<text text-anchor="middle" x="488.5" y="-108.5" font-family="Helvetica,sans-Serif" font-size="10.00">Implementation::ReinitHelper</text>
</g>
<!-- Node6 -->
<g id="node7" class="node">
<title>Node6</title>
<g id="a_node7"><a xlink:href="group__TrilinosWrappers.html" target="_top" xlink:title=" ">
<polygon fill="white" stroke="black" points="659,-70 570,-70 570,-51 659,-51 659,-70"/>
<text text-anchor="middle" x="614.5" y="-58" font-family="Helvetica,sans-Serif" font-size="10.00">TrilinosWrappers</text>
</a>
</g>
</g>
<!-- Node1&#45;&gt;Node6 -->
<g id="edge5" class="edge">
<title>Node1&#45;&gt;Node6</title>
<path fill="none" stroke="black" d="M417.52,-76.03C457.51,-73.52 507.44,-70.16 552,-66.5 557.77,-66.03 563.85,-65.49 569.84,-64.93"/>
<polygon fill="black" stroke="black" points="417.07,-72.55 407.31,-76.66 417.51,-79.53 417.07,-72.55"/>
</g>
<!-- Node1&#45;&gt;Node6 -->
<g id="edge8" class="edge">
<title>Node1&#45;&gt;Node6</title>
<path fill="none" stroke="orange" stroke-dasharray="5,2" d="M356.54,-70.98C372.56,-61.11 399.43,-46.34 425,-40.5 480.03,-27.93 496.25,-31.66 552,-40.5 564.86,-42.54 578.7,-46.84 589.98,-50.93"/>
<text text-anchor="start" x="425" y="-54.5" font-family="Helvetica,sans-Serif" font-size="10.00">internal::LinearOperator</text>
<text text-anchor="middle" x="488.5" y="-43.5" font-family="Helvetica,sans-Serif" font-size="10.00">Implementation::ReinitHelper</text>
</g>
<!-- Node5 -->
<g id="node4" class="node">
<title>Node5</title>
<g id="a_node4"><a xlink:href="group__Preconditioners.html" target="_top" xlink:title=" ">
<polygon fill="white" stroke="black" points="112,-104.5 0,-104.5 0,-74.5 112,-74.5 112,-104.5"/>
<text text-anchor="start" x="8" y="-92.5" font-family="Helvetica,sans-Serif" font-size="10.00">Preconditioners and</text>
<text text-anchor="middle" x="56" y="-81.5" font-family="Helvetica,sans-Serif" font-size="10.00"> Relaxation Operators</text>
</a>
</g>
</g>
<!-- Node5&#45;&gt;Node1 -->
<g id="edge4" class="edge">
<title>Node5&#45;&gt;Node1</title>
<path fill="none" stroke="black" d="M122.36,-87.42C168.2,-85.96 229.22,-84.02 274.98,-82.57"/>
<polygon fill="black" stroke="black" points="122.12,-83.93 112.24,-87.74 122.34,-90.92 122.12,-83.93"/>
</g>
<!-- Node3 -->
<g id="node5" class="node">
<title>Node3</title>
<g id="a_node5"><a xlink:href="group__Sparsity.html" target="_top" xlink:title=" ">
<polygon fill="white" stroke="black" points="101.5,-56 10.5,-56 10.5,-37 101.5,-37 101.5,-56"/>
<text text-anchor="middle" x="56" y="-44" font-family="Helvetica,sans-Serif" font-size="10.00">Sparsity patterns</text>
</a>
</g>
</g>
<!-- Node3&#45;&gt;Node1 -->
<g id="edge2" class="edge">
<title>Node3&#45;&gt;Node1</title>
<path fill="none" stroke="black" d="M111.75,-53.08C158.41,-58.68 225.56,-66.75 274.96,-72.69"/>
<polygon fill="black" stroke="black" points="111.88,-49.57 101.53,-51.85 111.04,-56.52 111.88,-49.57"/>
</g>
<!-- Node2 -->
<g id="node6" class="node">
<title>Node2</title>
<g id="a_node6"><a xlink:href="group__Matrix1.html" target="_top" xlink:title=" ">
<polygon fill="white" stroke="black" points="97,-19 15,-19 15,0 97,0 97,-19"/>
<text text-anchor="middle" x="56" y="-7" font-family="Helvetica,sans-Serif" font-size="10.00">Basic matrices</text>
</a>
</g>
</g>
<!-- Node2&#45;&gt;Node1 -->
<g id="edge1" class="edge">
<title>Node2&#45;&gt;Node1</title>
<path fill="none" stroke="black" d="M107.16,-18.17C147.87,-25.66 206.59,-37.46 257,-51.5 276.85,-57.03 298.85,-64.79 315.21,-70.89"/>
<polygon fill="black" stroke="black" points="107.68,-14.71 97.21,-16.37 106.42,-21.6 107.68,-14.71"/>
</g>
</g>
</svg>
