<?xml version="1.0" encoding="UTF-8" standalone="no"?>
<!DOCTYPE svg PUBLIC "-//W3C//DTD SVG 1.1//EN"
 "http://www.w3.org/Graphics/SVG/1.1/DTD/svg11.dtd">
<!-- Generated by graphviz version 2.47.1 (20210417.1919)
 -->
<!-- Title: Basic matrices Pages: 1 -->
<svg width="512pt" height="200pt"
 viewBox="0.00 0.00 512.00 199.99" xmlns="http://www.w3.org/2000/svg" xmlns:xlink="http://www.w3.org/1999/xlink">
<g id="graph0" class="graph" transform="scale(1 1) rotate(0) translate(4 195.99)">
<title>Basic matrices</title>
<polygon fill="white" stroke="transparent" points="-4,4 -4,-195.99 508,-195.99 508,4 -4,4"/>
<!-- Node3 -->
<g id="node1" class="node">
<title>Node3</title>
<g id="a_node1"><a xlink:href="group__Exceptions.html" target="_top" xlink:title=" ">
<polygon fill="white" stroke="black" points="504,-189 372,-189 372,-170 504,-170 504,-189"/>
<text text-anchor="middle" x="438" y="-177" font-family="Helvetica,sans-Serif" font-size="10.00">Exceptions and assertions</text>
</a>
</g>
</g>
<!-- Node4 -->
<g id="node2" class="node">
<title>Node4</title>
<g id="a_node2"><a xlink:href="group__PETScWrappers.html" target="_top" xlink:title=" ">
<polygon fill="white" stroke="black" points="482.5,-86 393.5,-86 393.5,-67 482.5,-67 482.5,-86"/>
<text text-anchor="middle" x="438" y="-74" font-family="Helvetica,sans-Serif" font-size="10.00">PETScWrappers</text>
</a>
</g>
</g>
<!-- Node1 -->
<g id="node3" class="node">
<title>Node1</title>
<g id="a_node3"><a xlink:title=" ">
<polygon fill="#bfbfbf" stroke="black" points="199,-86 117,-86 117,-67 199,-67 199,-86"/>
<text text-anchor="middle" x="158" y="-74" font-family="Helvetica,sans-Serif" font-size="10.00">Basic matrices</text>
</a>
</g>
</g>
<!-- Node1&#45;&gt;Node3 -->
<g id="edge2" class="edge">
<title>Node1&#45;&gt;Node3</title>
<path fill="none" stroke="black" d="M165.54,-95.73C173.86,-116.9 190.43,-149.99 217,-165.5 267.07,-194.73 334.93,-194.27 381.98,-189.02"/>
<polygon fill="black" stroke="black" points="168.76,-94.34 162.02,-86.16 162.19,-96.76 168.76,-94.34"/>
</g>
<!-- Node1&#45;&gt;Node4 -->
<g id="edge3" class="edge">
<title>Node1&#45;&gt;Node4</title>
<path fill="none" stroke="orange" stroke-dasharray="5,2" d="M199.13,-76.5C250.7,-76.5 339.93,-76.5 393.22,-76.5"/>
<text text-anchor="start" x="217" y="-156.5" font-family="Helvetica,sans-Serif" font-size="10.00">PETScWrappers::MPI</text>
<text text-anchor="middle" x="285.5" y="-145.5" font-family="Helvetica,sans-Serif" font-size="10.00">::BlockSparseMatrix</text>
<text text-anchor="middle" x="285.5" y="-134.5" font-family="Helvetica,sans-Serif" font-size="10.00">PETScWrappers::FullMatrix</text>
<text text-anchor="middle" x="285.5" y="-123.5" font-family="Helvetica,sans-Serif" font-size="10.00">PETScWrappers::MatrixBase</text>
<text text-anchor="middle" x="285.5" y="-112.5" font-family="Helvetica,sans-Serif" font-size="10.00">PETScWrappers::MatrixFree</text>
<text text-anchor="middle" x="285.5" y="-101.5" font-family="Helvetica,sans-Serif" font-size="10.00">PETScWrappers::SparseMatrix</text>
<text text-anchor="start" x="217" y="-90.5" font-family="Helvetica,sans-Serif" font-size="10.00">PETScWrappers::MPI</text>
<text text-anchor="middle" x="285.5" y="-79.5" font-family="Helvetica,sans-Serif" font-size="10.00">::SparseMatrix</text>
</g>
<!-- Node5 -->
<g id="node5" class="node">
<title>Node5</title>
<g id="a_node5"><a xlink:href="group__TrilinosWrappers.html" target="_top" xlink:title=" ">
<polygon fill="white" stroke="black" points="482.5,-19 393.5,-19 393.5,0 482.5,0 482.5,-19"/>
<text text-anchor="middle" x="438" y="-7" font-family="Helvetica,sans-Serif" font-size="10.00">TrilinosWrappers</text>
</a>
</g>
</g>
<!-- Node1&#45;&gt;Node5 -->
<g id="edge4" class="edge">
<title>Node1&#45;&gt;Node5</title>
<path fill="none" stroke="orange" stroke-dasharray="5,2" d="M167.28,-66.74C177.61,-55.33 196.44,-36.92 217,-28.5 274.65,-4.89 347.75,-3.6 393.47,-5.8"/>
<text text-anchor="start" x="218" y="-64.5" font-family="Helvetica,sans-Serif" font-size="10.00">TrilinosWrappers::BlockSparse</text>
<text text-anchor="middle" x="285.5" y="-53.5" font-family="Helvetica,sans-Serif" font-size="10.00">Matrix</text>
<text text-anchor="start" x="218" y="-42.5" font-family="Helvetica,sans-Serif" font-size="10.00">TrilinosWrappers::Sparse</text>
<text text-anchor="middle" x="285.5" y="-31.5" font-family="Helvetica,sans-Serif" font-size="10.00">Matrix</text>
</g>
<!-- Node2 -->
<g id="node4" class="node">
<title>Node2</title>
<g id="a_node4"><a xlink:href="group__Matrices.html" target="_top" xlink:title=" ">
<polygon fill="white" stroke="black" points="80,-86 0,-86 0,-67 80,-67 80,-86"/>
<text text-anchor="middle" x="40" y="-74" font-family="Helvetica,sans-Serif" font-size="10.00">Matrix classes</text>
</a>
</g>
</g>
<!-- Node2&#45;&gt;Node1 -->
<g id="edge1" class="edge">
<title>Node2&#45;&gt;Node1</title>
<path fill="none" stroke="black" d="M90.48,-76.5C99.32,-76.5 108.44,-76.5 116.98,-76.5"/>
<polygon fill="black" stroke="black" points="90.27,-73 80.27,-76.5 90.27,-80 90.27,-73"/>
</g>
</g>
</svg>
