<?xml version="1.0" encoding="UTF-8" standalone="no"?>
<!DOCTYPE svg PUBLIC "-//W3C//DTD SVG 1.1//EN"
 "http://www.w3.org/Graphics/SVG/1.1/DTD/svg11.dtd">
<!-- Generated by graphviz version 2.47.1 (20210417.1919)
 -->
<!-- Title: Handling vector valued problems Pages: 1 -->
<svg width="516pt" height="330pt"
 viewBox="0.00 0.00 516.00 330.00" xmlns="http://www.w3.org/2000/svg" xmlns:xlink="http://www.w3.org/1999/xlink">
<g id="graph0" class="graph" transform="scale(1 1) rotate(0) translate(4 326)">
<title>Handling vector valued problems</title>
<polygon fill="white" stroke="transparent" points="-4,4 -4,-326 512,-326 512,4 -4,4"/>
<!-- Node5 -->
<g id="node1" class="node">
<title>Node5</title>
<g id="a_node1"><a xlink:href="group__febase.html" target="_top" xlink:title=" ">
<polygon fill="white" stroke="black" points="489.5,-316.5 413.5,-316.5 413.5,-297.5 489.5,-297.5 489.5,-316.5"/>
<text text-anchor="middle" x="451.5" y="-304.5" font-family="Helvetica,sans-Serif" font-size="10.00">Base classes</text>
</a>
</g>
</g>
<!-- Node2 -->
<g id="node2" class="node">
<title>Node2</title>
<g id="a_node2"><a xlink:href="group__feall.html" target="_top" xlink:title=" ">
<polygon fill="white" stroke="black" points="83,-106.5 0,-106.5 0,-87.5 83,-87.5 83,-106.5"/>
<text text-anchor="middle" x="41.5" y="-94.5" font-family="Helvetica,sans-Serif" font-size="10.00">Finite elements</text>
</a>
</g>
</g>
<!-- Node1 -->
<g id="node3" class="node">
<title>Node1</title>
<g id="a_node3"><a xlink:title=" ">
<polygon fill="#bfbfbf" stroke="black" points="236,-112 120,-112 120,-82 236,-82 236,-112"/>
<text text-anchor="start" x="128" y="-100" font-family="Helvetica,sans-Serif" font-size="10.00">Handling vector valued</text>
<text text-anchor="middle" x="178" y="-89" font-family="Helvetica,sans-Serif" font-size="10.00"> problems</text>
</a>
</g>
</g>
<!-- Node2&#45;&gt;Node1 -->
<g id="edge1" class="edge">
<title>Node2&#45;&gt;Node1</title>
<path fill="none" stroke="black" d="M93.41,-97C101.95,-97 110.86,-97 119.55,-97"/>
<polygon fill="black" stroke="black" points="93.22,-93.5 83.22,-97 93.22,-100.5 93.22,-93.5"/>
</g>
<!-- Node1&#45;&gt;Node5 -->
<g id="edge4" class="edge">
<title>Node1&#45;&gt;Node5</title>
<path fill="none" stroke="orange" stroke-dasharray="5,2" d="M180.49,-112.19C184.79,-147.26 200.58,-234.09 254,-276 299.78,-311.92 370.43,-313.99 413.37,-311.2"/>
<text text-anchor="middle" x="315.5" y="-314" font-family="Helvetica,sans-Serif" font-size="10.00">FESystem</text>
</g>
<!-- Node3 -->
<g id="node4" class="node">
<title>Node3</title>
<g id="a_node4"><a xlink:href="group__feaccess.html" target="_top" xlink:title=" ">
<polygon fill="white" stroke="black" points="508,-137 395,-137 395,-107 508,-107 508,-137"/>
<text text-anchor="start" x="403" y="-125" font-family="Helvetica,sans-Serif" font-size="10.00">Finite element access</text>
<text text-anchor="middle" x="451.5" y="-114" font-family="Helvetica,sans-Serif" font-size="10.00">/FEValues classes</text>
</a>
</g>
</g>
<!-- Node1&#45;&gt;Node3 -->
<g id="edge5" class="edge">
<title>Node1&#45;&gt;Node3</title>
<path fill="none" stroke="orange" stroke-dasharray="5,2" d="M236.27,-105.85C242.25,-106.64 248.24,-107.37 254,-108 301.43,-113.16 355.52,-116.85 394.92,-119.15"/>
<text text-anchor="middle" x="315.5" y="-264" font-family="Helvetica,sans-Serif" font-size="10.00">FEValuesViews::Scalar</text>
<text text-anchor="middle" x="315.5" y="-253" font-family="Helvetica,sans-Serif" font-size="10.00">FEValuesViews::Vector</text>
<text text-anchor="start" x="254" y="-242" font-family="Helvetica,sans-Serif" font-size="10.00">FEValuesViews::Symmetric</text>
<text text-anchor="middle" x="315.5" y="-231" font-family="Helvetica,sans-Serif" font-size="10.00">Tensor&lt; 2, dim, spacedim &gt;</text>
<text text-anchor="start" x="254" y="-220" font-family="Helvetica,sans-Serif" font-size="10.00">FEValuesViews::Tensor</text>
<text text-anchor="middle" x="315.5" y="-209" font-family="Helvetica,sans-Serif" font-size="10.00">&lt; 2, dim, spacedim &gt;</text>
<text text-anchor="start" x="254" y="-198" font-family="Helvetica,sans-Serif" font-size="10.00">FEValuesExtractors</text>
<text text-anchor="middle" x="315.5" y="-187" font-family="Helvetica,sans-Serif" font-size="10.00">::Scalar</text>
<text text-anchor="start" x="254" y="-176" font-family="Helvetica,sans-Serif" font-size="10.00">FEValuesExtractors</text>
<text text-anchor="middle" x="315.5" y="-165" font-family="Helvetica,sans-Serif" font-size="10.00">::Vector</text>
<text text-anchor="start" x="254" y="-154" font-family="Helvetica,sans-Serif" font-size="10.00">FEValuesExtractors</text>
<text text-anchor="middle" x="315.5" y="-143" font-family="Helvetica,sans-Serif" font-size="10.00">::SymmetricTensor</text>
<text text-anchor="start" x="254" y="-132" font-family="Helvetica,sans-Serif" font-size="10.00">FEValuesExtractors</text>
<text text-anchor="middle" x="315.5" y="-121" font-family="Helvetica,sans-Serif" font-size="10.00">::Tensor</text>
</g>
<!-- Node6 -->
<g id="node5" class="node">
<title>Node6</title>
<g id="a_node5"><a xlink:href="group__Matrix2.html" target="_top" xlink:title=" ">
<polygon fill="white" stroke="black" points="497,-80.5 406,-80.5 406,-61.5 497,-61.5 497,-80.5"/>
<text text-anchor="middle" x="451.5" y="-68.5" font-family="Helvetica,sans-Serif" font-size="10.00">Derived matrices</text>
</a>
</g>
</g>
<!-- Node1&#45;&gt;Node6 -->
<g id="edge6" class="edge">
<title>Node1&#45;&gt;Node6</title>
<path fill="none" stroke="orange" stroke-dasharray="5,2" d="M236.27,-88.18C242.25,-87.39 248.25,-86.64 254,-86 306.03,-80.21 366.05,-75.98 405.93,-73.52"/>
<text text-anchor="middle" x="315.5" y="-89" font-family="Helvetica,sans-Serif" font-size="10.00">MatrixBlock</text>
</g>
<!-- Node4 -->
<g id="node6" class="node">
<title>Node4</title>
<g id="a_node6"><a xlink:href="group__fe.html" target="_top" xlink:title=" ">
<polygon fill="white" stroke="black" points="505,-30 398,-30 398,0 505,0 505,-30"/>
<text text-anchor="start" x="406" y="-18" font-family="Helvetica,sans-Serif" font-size="10.00">Finite element space</text>
<text text-anchor="middle" x="451.5" y="-7" font-family="Helvetica,sans-Serif" font-size="10.00"> descriptions</text>
</a>
</g>
</g>
<!-- Node1&#45;&gt;Node4 -->
<g id="edge3" class="edge">
<title>Node1&#45;&gt;Node4</title>
<path fill="none" stroke="orange" stroke-dasharray="5,2" d="M193.52,-81.83C207.59,-68.16 230.25,-48.76 254,-39 300.09,-20.06 357.01,-14.87 397.71,-13.94"/>
<text text-anchor="middle" x="315.5" y="-64" font-family="Helvetica,sans-Serif" font-size="10.00">BlockMask</text>
<text text-anchor="middle" x="315.5" y="-53" font-family="Helvetica,sans-Serif" font-size="10.00">ComponentMask</text>
<text text-anchor="middle" x="315.5" y="-42" font-family="Helvetica,sans-Serif" font-size="10.00">FESystem</text>
</g>
<!-- Node3&#45;&gt;Node1 -->
<g id="edge2" class="edge">
<title>Node3&#45;&gt;Node1</title>
<path fill="none" stroke="black" d="M384.69,-111.9C382.1,-111.58 379.52,-111.28 377,-111 329.73,-105.8 275.89,-102.14 236.29,-99.87"/>
<polygon fill="black" stroke="black" points="384.41,-115.39 394.78,-113.19 385.31,-108.45 384.41,-115.39"/>
</g>
</g>
</svg>
