<?xml version="1.0" encoding="UTF-8" standalone="no"?>
<!DOCTYPE svg PUBLIC "-//W3C//DTD SVG 1.1//EN"
 "http://www.w3.org/Graphics/SVG/1.1/DTD/svg11.dtd">
<!-- Generated by graphviz version 2.47.1 (20210417.1919)
 -->
<!-- Title: Matrix classes Pages: 1 -->
<svg width="386pt" height="113pt"
 viewBox="0.00 0.00 386.00 112.50" xmlns="http://www.w3.org/2000/svg" xmlns:xlink="http://www.w3.org/1999/xlink">
<g id="graph0" class="graph" transform="scale(1 1) rotate(0) translate(4 108.5)">
<title>Matrix classes</title>
<polygon fill="white" stroke="transparent" points="-4,4 -4,-108.5 382,-108.5 382,4 -4,4"/>
<!-- Node2 -->
<g id="node1" class="node">
<title>Node2</title>
<g id="a_node1"><a xlink:href="group__LAC.html" target="_top" xlink:title=" ">
<polygon fill="white" stroke="black" points="114,-56 0,-56 0,-37 114,-37 114,-56"/>
<text text-anchor="middle" x="57" y="-44" font-family="Helvetica,sans-Serif" font-size="10.00">Linear algebra classes</text>
</a>
</g>
</g>
<!-- Node1 -->
<g id="node5" class="node">
<title>Node1</title>
<g id="a_node5"><a xlink:title=" ">
<polygon fill="#bfbfbf" stroke="black" points="230,-56 150,-56 150,-37 230,-37 230,-56"/>
<text text-anchor="middle" x="190" y="-44" font-family="Helvetica,sans-Serif" font-size="10.00">Matrix classes</text>
</a>
</g>
</g>
<!-- Node2&#45;&gt;Node1 -->
<g id="edge1" class="edge">
<title>Node2&#45;&gt;Node1</title>
<path fill="none" stroke="black" d="M124.44,-46.5C133.09,-46.5 141.72,-46.5 149.72,-46.5"/>
<polygon fill="black" stroke="black" points="124.32,-43 114.32,-46.5 124.32,-50 124.32,-43"/>
</g>
<!-- Node5 -->
<g id="node2" class="node">
<title>Node5</title>
<g id="a_node2"><a xlink:href="group__Preconditioners.html" target="_top" xlink:title=" ">
<polygon fill="white" stroke="black" points="378,-104.5 266,-104.5 266,-74.5 378,-74.5 378,-104.5"/>
<text text-anchor="start" x="274" y="-92.5" font-family="Helvetica,sans-Serif" font-size="10.00">Preconditioners and</text>
<text text-anchor="middle" x="322" y="-81.5" font-family="Helvetica,sans-Serif" font-size="10.00"> Relaxation Operators</text>
</a>
</g>
</g>
<!-- Node3 -->
<g id="node3" class="node">
<title>Node3</title>
<g id="a_node3"><a xlink:href="group__Matrix1.html" target="_top" xlink:title=" ">
<polygon fill="white" stroke="black" points="363,-56 281,-56 281,-37 363,-37 363,-56"/>
<text text-anchor="middle" x="322" y="-44" font-family="Helvetica,sans-Serif" font-size="10.00">Basic matrices</text>
</a>
</g>
</g>
<!-- Node4 -->
<g id="node4" class="node">
<title>Node4</title>
<g id="a_node4"><a xlink:href="group__Matrix2.html" target="_top" xlink:title=" ">
<polygon fill="white" stroke="black" points="367.5,-19 276.5,-19 276.5,0 367.5,0 367.5,-19"/>
<text text-anchor="middle" x="322" y="-7" font-family="Helvetica,sans-Serif" font-size="10.00">Derived matrices</text>
</a>
</g>
</g>
<!-- Node1&#45;&gt;Node5 -->
<g id="edge4" class="edge">
<title>Node1&#45;&gt;Node5</title>
<path fill="none" stroke="black" d="M229.49,-59.23C243.98,-64.02 260.58,-69.51 275.63,-74.49"/>
<polygon fill="black" stroke="black" points="230.44,-55.86 219.85,-56.04 228.25,-62.51 230.44,-55.86"/>
</g>
<!-- Node1&#45;&gt;Node3 -->
<g id="edge2" class="edge">
<title>Node1&#45;&gt;Node3</title>
<path fill="none" stroke="black" d="M240.03,-46.5C253.44,-46.5 267.81,-46.5 280.67,-46.5"/>
<polygon fill="black" stroke="black" points="240,-43 230,-46.5 240,-50 240,-43"/>
</g>
<!-- Node1&#45;&gt;Node4 -->
<g id="edge3" class="edge">
<title>Node1&#45;&gt;Node4</title>
<path fill="none" stroke="black" d="M234.31,-34.17C251.53,-29.27 271.04,-23.72 287.18,-19.12"/>
<polygon fill="black" stroke="black" points="233.14,-30.87 224.48,-36.97 235.05,-37.6 233.14,-30.87"/>
</g>
</g>
</svg>
