<?xml version="1.0" encoding="UTF-8" standalone="no"?>
<!DOCTYPE svg PUBLIC "-//W3C//DTD SVG 1.1//EN"
 "http://www.w3.org/Graphics/SVG/1.1/DTD/svg11.dtd">
<!-- Generated by graphviz version 2.47.1 (20210417.1919)
 -->
<!-- Title: Constraints on degrees of freedom Pages: 1 -->
<svg width="344pt" height="38pt"
 viewBox="0.00 0.00 344.00 38.00" xmlns="http://www.w3.org/2000/svg" xmlns:xlink="http://www.w3.org/1999/xlink">
<g id="graph0" class="graph" transform="scale(1 1) rotate(0) translate(4 34)">
<title>Constraints on degrees of freedom</title>
<polygon fill="white" stroke="transparent" points="-4,4 -4,-34 340,-34 340,4 -4,4"/>
<!-- Node1 -->
<g id="node1" class="node">
<title>Node1</title>
<g id="a_node1"><a xlink:title=" ">
<polygon fill="#bfbfbf" stroke="black" points="118,-30 0,-30 0,0 118,0 118,-30"/>
<text text-anchor="start" x="8" y="-18" font-family="Helvetica,sans-Serif" font-size="10.00">Constraints on degrees</text>
<text text-anchor="middle" x="59" y="-7" font-family="Helvetica,sans-Serif" font-size="10.00"> of freedom</text>
</a>
</g>
</g>
<!-- Node2 -->
<g id="node2" class="node">
<title>Node2</title>
<g id="a_node2"><a xlink:href="group__dofs.html" target="_top" xlink:title=" ">
<polygon fill="white" stroke="black" points="336,-24.5 230,-24.5 230,-5.5 336,-5.5 336,-24.5"/>
<text text-anchor="middle" x="283" y="-12.5" font-family="Helvetica,sans-Serif" font-size="10.00">Degrees of Freedom</text>
</a>
</g>
</g>
<!-- Node1&#45;&gt;Node2 -->
<g id="edge2" class="edge">
<title>Node1&#45;&gt;Node2</title>
<path fill="none" stroke="orange" stroke-dasharray="5,2" d="M118.04,-15C152.72,-15 196.42,-15 229.98,-15"/>
<text text-anchor="middle" x="174" y="-18" font-family="Helvetica,sans-Serif" font-size="10.00">AffineConstraints</text>
</g>
<!-- Node2&#45;&gt;Node1 -->
<g id="edge1" class="edge">
<title>Node2&#45;&gt;Node1</title>
<path fill="none" stroke="black" d="M219.63,-13.13C217.05,-13.08 214.5,-13.04 212,-13 178.23,-12.52 169.77,-12.56 136,-13 130.19,-13.08 124.14,-13.19 118.09,-13.31"/>
<polygon fill="black" stroke="black" points="219.56,-16.63 229.64,-13.34 219.71,-9.63 219.56,-16.63"/>
</g>
</g>
</svg>
