<?xml version="1.0" encoding="UTF-8" standalone="no"?>
<!DOCTYPE svg PUBLIC "-//W3C//DTD SVG 1.1//EN"
 "http://www.w3.org/Graphics/SVG/1.1/DTD/svg11.dtd">
<!-- Generated by graphviz version 2.47.1 (20210417.1919)
 -->
<!-- Title: Linear algebra classes Pages: 1 -->
<svg width="301pt" height="372pt"
 viewBox="0.00 0.00 301.00 372.00" xmlns="http://www.w3.org/2000/svg" xmlns:xlink="http://www.w3.org/1999/xlink">
<g id="graph0" class="graph" transform="scale(1 1) rotate(0) translate(4 368)">
<title>Linear algebra classes</title>
<polygon fill="white" stroke="transparent" points="-4,4 -4,-368 297,-368 297,4 -4,4"/>
<!-- Node11 -->
<g id="node1" class="node">
<title>Node11</title>
<g id="a_node1"><a xlink:href="group__Vectors.html" target="_top" xlink:title=" ">
<polygon fill="white" stroke="black" points="262.5,-364 180.5,-364 180.5,-345 262.5,-345 262.5,-364"/>
<text text-anchor="middle" x="221.5" y="-352" font-family="Helvetica,sans-Serif" font-size="10.00">Vector classes</text>
</a>
</g>
</g>
<!-- Node6 -->
<g id="node2" class="node">
<title>Node6</title>
<g id="a_node2"><a xlink:href="group__SLEPcWrappers.html" target="_top" xlink:title=" ">
<polygon fill="white" stroke="black" points="266,-327 177,-327 177,-308 266,-308 266,-327"/>
<text text-anchor="middle" x="221.5" y="-315" font-family="Helvetica,sans-Serif" font-size="10.00">SLEPcWrappers</text>
</a>
</g>
</g>
<!-- Node10 -->
<g id="node3" class="node">
<title>Node10</title>
<g id="a_node3"><a xlink:href="group__VMemory.html" target="_top" xlink:title=" ">
<polygon fill="white" stroke="black" points="293,-290 150,-290 150,-271 293,-271 293,-290"/>
<text text-anchor="middle" x="221.5" y="-278" font-family="Helvetica,sans-Serif" font-size="10.00">Vector memory management</text>
</a>
</g>
</g>
<!-- Node2 -->
<g id="node4" class="node">
<title>Node2</title>
<g id="a_node4"><a xlink:href="group__LAOperators.html" target="_top" xlink:title=" ">
<polygon fill="white" stroke="black" points="266,-253 177,-253 177,-234 266,-234 266,-253"/>
<text text-anchor="middle" x="221.5" y="-241" font-family="Helvetica,sans-Serif" font-size="10.00">Linear Operators</text>
</a>
</g>
</g>
<!-- Node1 -->
<g id="node5" class="node">
<title>Node1</title>
<g id="a_node5"><a xlink:title=" ">
<polygon fill="#bfbfbf" stroke="black" points="114,-194 0,-194 0,-175 114,-175 114,-194"/>
<text text-anchor="middle" x="57" y="-182" font-family="Helvetica,sans-Serif" font-size="10.00">Linear algebra classes</text>
</a>
</g>
</g>
<!-- Node1&#45;&gt;Node11 -->
<g id="edge10" class="edge">
<title>Node1&#45;&gt;Node11</title>
<path fill="none" stroke="black" d="M64.21,-203.78C75.71,-236.33 103.48,-301.99 150,-336.5 158.83,-343.05 169.8,-347.22 180.43,-349.88"/>
<polygon fill="black" stroke="black" points="67.45,-202.45 60.93,-194.11 60.82,-204.7 67.45,-202.45"/>
</g>
<!-- Node1&#45;&gt;Node6 -->
<g id="edge5" class="edge">
<title>Node1&#45;&gt;Node6</title>
<path fill="none" stroke="black" d="M67.9,-203.39C82.4,-229.15 111.88,-274.9 150,-299.5 158.07,-304.71 167.56,-308.41 176.92,-311.04"/>
<polygon fill="black" stroke="black" points="70.8,-201.39 62.94,-194.29 64.65,-204.74 70.8,-201.39"/>
</g>
<!-- Node1&#45;&gt;Node10 -->
<g id="edge9" class="edge">
<title>Node1&#45;&gt;Node10</title>
<path fill="none" stroke="black" d="M73.31,-201.41C90.35,-219.2 119.5,-246.75 150,-262.5 156.51,-265.86 163.69,-268.62 170.9,-270.89"/>
<polygon fill="black" stroke="black" points="75.77,-198.91 66.38,-194 70.66,-203.69 75.77,-198.91"/>
</g>
<!-- Node1&#45;&gt;Node2 -->
<g id="edge1" class="edge">
<title>Node1&#45;&gt;Node2</title>
<path fill="none" stroke="black" d="M86.31,-198.61C104.25,-207.18 128.12,-217.89 150,-225.5 159.07,-228.65 168.97,-231.52 178.4,-233.99"/>
<polygon fill="black" stroke="black" points="87.53,-195.31 77,-194.11 84.48,-201.61 87.53,-195.31"/>
</g>
<!-- Node4 -->
<g id="node6" class="node">
<title>Node4</title>
<g id="a_node6"><a xlink:href="group__PETScWrappers.html" target="_top" xlink:title=" ">
<polygon fill="white" stroke="black" points="266,-216 177,-216 177,-197 266,-197 266,-216"/>
<text text-anchor="middle" x="221.5" y="-204" font-family="Helvetica,sans-Serif" font-size="10.00">PETScWrappers</text>
</a>
</g>
</g>
<!-- Node1&#45;&gt;Node4 -->
<g id="edge3" class="edge">
<title>Node1&#45;&gt;Node4</title>
<path fill="none" stroke="black" d="M124.6,-193.52C142.19,-195.9 160.73,-198.41 176.78,-200.58"/>
<polygon fill="black" stroke="black" points="124.76,-190.01 114.38,-192.13 123.82,-196.94 124.76,-190.01"/>
</g>
<!-- Node5 -->
<g id="node7" class="node">
<title>Node5</title>
<g id="a_node7"><a xlink:href="group__Preconditioners.html" target="_top" xlink:title=" ">
<polygon fill="white" stroke="black" points="277.5,-178.5 165.5,-178.5 165.5,-148.5 277.5,-148.5 277.5,-178.5"/>
<text text-anchor="start" x="173.5" y="-166.5" font-family="Helvetica,sans-Serif" font-size="10.00">Preconditioners and</text>
<text text-anchor="middle" x="221.5" y="-155.5" font-family="Helvetica,sans-Serif" font-size="10.00"> Relaxation Operators</text>
</a>
</g>
</g>
<!-- Node1&#45;&gt;Node5 -->
<g id="edge4" class="edge">
<title>Node1&#45;&gt;Node5</title>
<path fill="none" stroke="black" d="M124.59,-175.89C138.13,-174.14 152.23,-172.32 165.32,-170.63"/>
<polygon fill="black" stroke="black" points="123.85,-172.46 114.38,-177.21 124.74,-179.4 123.85,-172.46"/>
</g>
<!-- Node8 -->
<g id="node8" class="node">
<title>Node8</title>
<g id="a_node8"><a xlink:href="group__Sparsity.html" target="_top" xlink:title=" ">
<polygon fill="white" stroke="black" points="267,-130 176,-130 176,-111 267,-111 267,-130"/>
<text text-anchor="middle" x="221.5" y="-118" font-family="Helvetica,sans-Serif" font-size="10.00">Sparsity patterns</text>
</a>
</g>
</g>
<!-- Node1&#45;&gt;Node8 -->
<g id="edge7" class="edge">
<title>Node1&#45;&gt;Node8</title>
<path fill="none" stroke="black" d="M84.5,-169.85C102.56,-160.29 127.25,-148.04 150,-139.5 159.49,-135.94 169.94,-132.74 179.81,-130.04"/>
<polygon fill="black" stroke="black" points="82.35,-167.03 75.2,-174.85 85.66,-173.2 82.35,-167.03"/>
</g>
<!-- Node3 -->
<g id="node9" class="node">
<title>Node3</title>
<g id="a_node9"><a xlink:href="group__Matrices.html" target="_top" xlink:title=" ">
<polygon fill="white" stroke="black" points="261.5,-93 181.5,-93 181.5,-74 261.5,-74 261.5,-93"/>
<text text-anchor="middle" x="221.5" y="-81" font-family="Helvetica,sans-Serif" font-size="10.00">Matrix classes</text>
</a>
</g>
</g>
<!-- Node1&#45;&gt;Node3 -->
<g id="edge2" class="edge">
<title>Node1&#45;&gt;Node3</title>
<path fill="none" stroke="black" d="M72.68,-167.32C89.52,-148.68 118.85,-119.34 150,-102.5 159.59,-97.32 170.69,-93.47 181.21,-90.65"/>
<polygon fill="black" stroke="black" points="70.06,-165 66.06,-174.81 75.3,-169.64 70.06,-165"/>
</g>
<!-- Node7 -->
<g id="node10" class="node">
<title>Node7</title>
<g id="a_node10"><a xlink:href="group__Solvers.html" target="_top" xlink:title=" ">
<polygon fill="white" stroke="black" points="276,-56 167,-56 167,-37 276,-37 276,-56"/>
<text text-anchor="middle" x="221.5" y="-44" font-family="Helvetica,sans-Serif" font-size="10.00">Linear solver classes</text>
</a>
</g>
</g>
<!-- Node1&#45;&gt;Node7 -->
<g id="edge6" class="edge">
<title>Node1&#45;&gt;Node7</title>
<path fill="none" stroke="black" d="M67.38,-165.77C81.58,-139.34 111.08,-91.44 150,-65.5 155.8,-61.63 162.36,-58.55 169.09,-56.09"/>
<polygon fill="black" stroke="black" points="64.21,-164.27 62.69,-174.75 70.42,-167.5 64.21,-164.27"/>
</g>
<!-- Node9 -->
<g id="node11" class="node">
<title>Node9</title>
<g id="a_node11"><a xlink:href="group__TrilinosWrappers.html" target="_top" xlink:title=" ">
<polygon fill="white" stroke="black" points="266,-19 177,-19 177,0 266,0 266,-19"/>
<text text-anchor="middle" x="221.5" y="-7" font-family="Helvetica,sans-Serif" font-size="10.00">TrilinosWrappers</text>
</a>
</g>
</g>
<!-- Node1&#45;&gt;Node9 -->
<g id="edge8" class="edge">
<title>Node1&#45;&gt;Node9</title>
<path fill="none" stroke="black" d="M64.11,-164.78C75.46,-131.49 103.02,-64.26 150,-28.5 157.77,-22.59 167.24,-18.51 176.69,-15.71"/>
<polygon fill="black" stroke="black" points="60.66,-164.09 60.88,-174.68 67.31,-166.26 60.66,-164.09"/>
</g>
</g>
</svg>
