<?xml version="1.0" encoding="UTF-8" standalone="no"?>
<!DOCTYPE svg PUBLIC "-//W3C//DTD SVG 1.1//EN"
 "http://www.w3.org/Graphics/SVG/1.1/DTD/svg11.dtd">
<!-- Generated by graphviz version 2.47.1 (20210417.1919)
 -->
<!-- Title: Accessor classes of the mesh iterators Pages: 1 -->
<svg width="585pt" height="101pt"
 viewBox="0.00 0.00 585.00 101.02" xmlns="http://www.w3.org/2000/svg" xmlns:xlink="http://www.w3.org/1999/xlink">
<g id="graph0" class="graph" transform="scale(1 1) rotate(0) translate(4 97.02)">
<title>Accessor classes of the mesh iterators</title>
<polygon fill="white" stroke="transparent" points="-4,4 -4,-97.02 581,-97.02 581,4 -4,4"/>
<!-- Node1 -->
<g id="node1" class="node">
<title>Node1</title>
<g id="a_node1"><a xlink:title=" ">
<polygon fill="#bfbfbf" stroke="black" points="254,-58.02 148,-58.02 148,-28.02 254,-28.02 254,-58.02"/>
<text text-anchor="start" x="156" y="-46.02" font-family="Helvetica,sans-Serif" font-size="10.00">Accessor classes of</text>
<text text-anchor="middle" x="201" y="-35.02" font-family="Helvetica,sans-Serif" font-size="10.00"> the mesh iterators</text>
</a>
</g>
</g>
<!-- Node4 -->
<g id="node3" class="node">
<title>Node4</title>
<g id="a_node3"><a xlink:href="group__grid.html" target="_top" xlink:title=" ">
<polygon fill="white" stroke="black" points="577,-86.52 455,-86.52 455,-67.52 577,-67.52 577,-86.52"/>
<text text-anchor="middle" x="516" y="-74.52" font-family="Helvetica,sans-Serif" font-size="10.00">Grids and Triangulations</text>
</a>
</g>
</g>
<!-- Node1&#45;&gt;Node4 -->
<g id="edge3" class="edge">
<title>Node1&#45;&gt;Node4</title>
<path fill="none" stroke="orange" stroke-dasharray="5,2" d="M254.3,-52.45C260.26,-53.38 266.25,-54.26 272,-55.02 334.16,-63.14 405.67,-69.23 454.94,-72.91"/>
<text text-anchor="middle" x="354.5" y="-85.02" font-family="Helvetica,sans-Serif" font-size="10.00">TriaAccessorBase</text>
<text text-anchor="middle" x="354.5" y="-74.02" font-family="Helvetica,sans-Serif" font-size="10.00">CellAccessor</text>
</g>
<!-- Node3 -->
<g id="node4" class="node">
<title>Node3</title>
<g id="a_node4"><a xlink:href="group__dofs.html" target="_top" xlink:title=" ">
<polygon fill="white" stroke="black" points="569,-19.52 463,-19.52 463,-0.52 569,-0.52 569,-19.52"/>
<text text-anchor="middle" x="516" y="-7.52" font-family="Helvetica,sans-Serif" font-size="10.00">Degrees of Freedom</text>
</a>
</g>
</g>
<!-- Node1&#45;&gt;Node3 -->
<g id="edge2" class="edge">
<title>Node1&#45;&gt;Node3</title>
<path fill="none" stroke="orange" stroke-dasharray="5,2" d="M228,-27.93C240.8,-21.35 256.73,-14.37 272,-11.02 336.48,3.16 412.94,0.38 462.63,-3.93"/>
<text text-anchor="start" x="272" y="-47.02" font-family="Helvetica,sans-Serif" font-size="10.00">internal::DoFAccessorImplementation</text>
<text text-anchor="middle" x="354.5" y="-36.02" font-family="Helvetica,sans-Serif" font-size="10.00">::Inheritance</text>
<text text-anchor="middle" x="354.5" y="-25.02" font-family="Helvetica,sans-Serif" font-size="10.00">DoFAccessor</text>
<text text-anchor="middle" x="354.5" y="-14.02" font-family="Helvetica,sans-Serif" font-size="10.00">DoFCellAccessor</text>
</g>
<!-- Node2 -->
<g id="node2" class="node">
<title>Node2</title>
<g id="a_node2"><a xlink:href="group__Iterators.html" target="_top" xlink:title=" ">
<polygon fill="white" stroke="black" points="111,-58.02 0,-58.02 0,-28.02 111,-28.02 111,-58.02"/>
<text text-anchor="start" x="8" y="-46.02" font-family="Helvetica,sans-Serif" font-size="10.00">Iterators on mesh&#45;like</text>
<text text-anchor="middle" x="55.5" y="-35.02" font-family="Helvetica,sans-Serif" font-size="10.00"> containers</text>
</a>
</g>
</g>
<!-- Node2&#45;&gt;Node1 -->
<g id="edge1" class="edge">
<title>Node2&#45;&gt;Node1</title>
<path fill="none" stroke="black" d="M121.45,-43.02C130.29,-43.02 139.28,-43.02 147.86,-43.02"/>
<polygon fill="black" stroke="black" points="121.16,-39.52 111.16,-43.02 121.16,-46.52 121.16,-39.52"/>
</g>
</g>
</svg>
