<?xml version="1.0" encoding="UTF-8" standalone="no"?>
<!DOCTYPE svg PUBLIC "-//W3C//DTD SVG 1.1//EN"
 "http://www.w3.org/Graphics/SVG/1.1/DTD/svg11.dtd">
<!-- Generated by graphviz version 2.47.1 (20210417.1919)
 -->
<!-- Title: Finite elements Pages: 1 -->
<svg width="273pt" height="327pt"
 viewBox="0.00 0.00 273.00 327.00" xmlns="http://www.w3.org/2000/svg" xmlns:xlink="http://www.w3.org/1999/xlink">
<g id="graph0" class="graph" transform="scale(1 1) rotate(0) translate(4 323)">
<title>Finite elements</title>
<polygon fill="white" stroke="transparent" points="-4,4 -4,-323 269,-323 269,4 -4,4"/>
<!-- Node2 -->
<g id="node1" class="node">
<title>Node2</title>
<g id="a_node1"><a xlink:href="group__febase.html" target="_top" xlink:title=" ">
<polygon fill="white" stroke="black" points="230,-319 154,-319 154,-300 230,-300 230,-319"/>
<text text-anchor="middle" x="192" y="-307" font-family="Helvetica,sans-Serif" font-size="10.00">Base classes</text>
</a>
</g>
</g>
<!-- Node1 -->
<g id="node2" class="node">
<title>Node1</title>
<g id="a_node2"><a xlink:title=" ">
<polygon fill="#bfbfbf" stroke="black" points="83,-180 0,-180 0,-161 83,-161 83,-180"/>
<text text-anchor="middle" x="41.5" y="-168" font-family="Helvetica,sans-Serif" font-size="10.00">Finite elements</text>
</a>
</g>
</g>
<!-- Node1&#45;&gt;Node2 -->
<g id="edge1" class="edge">
<title>Node1&#45;&gt;Node2</title>
<path fill="none" stroke="black" d="M49.53,-189.76C60.29,-216.51 83.42,-264.52 119,-290.5 129.13,-297.89 141.92,-302.41 153.9,-305.17"/>
<polygon fill="black" stroke="black" points="52.76,-188.41 45.9,-180.34 46.22,-190.93 52.76,-188.41"/>
</g>
<!-- Node8 -->
<g id="node3" class="node">
<title>Node8</title>
<g id="a_node3"><a xlink:href="group__vector__valued.html" target="_top" xlink:title=" ">
<polygon fill="white" stroke="black" points="250,-281.5 134,-281.5 134,-251.5 250,-251.5 250,-281.5"/>
<text text-anchor="start" x="142" y="-269.5" font-family="Helvetica,sans-Serif" font-size="10.00">Handling vector valued</text>
<text text-anchor="middle" x="192" y="-258.5" font-family="Helvetica,sans-Serif" font-size="10.00"> problems</text>
</a>
</g>
</g>
<!-- Node1&#45;&gt;Node8 -->
<g id="edge7" class="edge">
<title>Node1&#45;&gt;Node8</title>
<path fill="none" stroke="black" d="M57.03,-187.98C71.31,-204.16 94.47,-227.85 119,-242.5 124.66,-245.88 130.85,-248.85 137.15,-251.45"/>
<polygon fill="black" stroke="black" points="59.59,-185.59 50.41,-180.3 54.29,-190.16 59.59,-185.59"/>
</g>
<!-- Node3 -->
<g id="node4" class="node">
<title>Node3</title>
<g id="a_node4"><a xlink:href="group__feaccess.html" target="_top" xlink:title=" ">
<polygon fill="white" stroke="black" points="248.5,-233.5 135.5,-233.5 135.5,-203.5 248.5,-203.5 248.5,-233.5"/>
<text text-anchor="start" x="143.5" y="-221.5" font-family="Helvetica,sans-Serif" font-size="10.00">Finite element access</text>
<text text-anchor="middle" x="192" y="-210.5" font-family="Helvetica,sans-Serif" font-size="10.00">/FEValues classes</text>
</a>
</g>
</g>
<!-- Node1&#45;&gt;Node3 -->
<g id="edge2" class="edge">
<title>Node1&#45;&gt;Node3</title>
<path fill="none" stroke="black" d="M81.84,-183.21C101.05,-189.42 124.3,-196.94 144.4,-203.44"/>
<polygon fill="black" stroke="black" points="82.79,-179.84 72.19,-180.1 80.63,-186.5 82.79,-179.84"/>
</g>
<!-- Node5 -->
<g id="node5" class="node">
<title>Node5</title>
<g id="a_node5"><a xlink:href="group__mapping.html" target="_top" xlink:title=" ">
<polygon fill="white" stroke="black" points="263,-185.5 121,-185.5 121,-155.5 263,-155.5 263,-185.5"/>
<text text-anchor="start" x="129" y="-173.5" font-family="Helvetica,sans-Serif" font-size="10.00">Mappings between reference</text>
<text text-anchor="middle" x="192" y="-162.5" font-family="Helvetica,sans-Serif" font-size="10.00"> and real cell</text>
</a>
</g>
</g>
<!-- Node1&#45;&gt;Node5 -->
<g id="edge4" class="edge">
<title>Node1&#45;&gt;Node5</title>
<path fill="none" stroke="black" d="M93.23,-170.5C102.11,-170.5 111.48,-170.5 120.77,-170.5"/>
<polygon fill="black" stroke="black" points="93.08,-167 83.08,-170.5 93.08,-174 93.08,-167"/>
</g>
<!-- Node6 -->
<g id="node6" class="node">
<title>Node6</title>
<g id="a_node6"><a xlink:href="group__FE__vs__Mapping__vs__FEValues.html" target="_top" xlink:title=" ">
<polygon fill="white" stroke="black" points="265,-137.5 119,-137.5 119,-107.5 265,-107.5 265,-137.5"/>
<text text-anchor="start" x="127" y="-125.5" font-family="Helvetica,sans-Serif" font-size="10.00">How Mapping, FiniteElement,</text>
<text text-anchor="middle" x="192" y="-114.5" font-family="Helvetica,sans-Serif" font-size="10.00"> and FEValues work together</text>
</a>
</g>
</g>
<!-- Node1&#45;&gt;Node6 -->
<g id="edge5" class="edge">
<title>Node1&#45;&gt;Node6</title>
<path fill="none" stroke="black" d="M81.84,-157.79C101.05,-151.58 124.3,-144.06 144.4,-137.56"/>
<polygon fill="black" stroke="black" points="80.63,-154.5 72.19,-160.9 82.79,-161.16 80.63,-154.5"/>
</g>
<!-- Node4 -->
<g id="node7" class="node">
<title>Node4</title>
<g id="a_node7"><a xlink:href="group__fe.html" target="_top" xlink:title=" ">
<polygon fill="white" stroke="black" points="245.5,-89.5 138.5,-89.5 138.5,-59.5 245.5,-59.5 245.5,-89.5"/>
<text text-anchor="start" x="146.5" y="-77.5" font-family="Helvetica,sans-Serif" font-size="10.00">Finite element space</text>
<text text-anchor="middle" x="192" y="-66.5" font-family="Helvetica,sans-Serif" font-size="10.00"> descriptions</text>
</a>
</g>
</g>
<!-- Node1&#45;&gt;Node4 -->
<g id="edge3" class="edge">
<title>Node1&#45;&gt;Node4</title>
<path fill="none" stroke="black" d="M57.03,-153.02C71.31,-136.84 94.47,-113.15 119,-98.5 125,-94.92 131.59,-91.79 138.29,-89.08"/>
<polygon fill="black" stroke="black" points="54.29,-150.84 50.41,-160.7 59.59,-155.41 54.29,-150.84"/>
</g>
<!-- Node7 -->
<g id="node8" class="node">
<title>Node7</title>
<g id="a_node8"><a xlink:href="group__UpdateFlags.html" target="_top" xlink:title=" ">
<polygon fill="white" stroke="black" points="265,-41 119,-41 119,0 265,0 265,-41"/>
<text text-anchor="start" x="127" y="-29" font-family="Helvetica,sans-Serif" font-size="10.00">The interplay of UpdateFlags,</text>
<text text-anchor="start" x="127" y="-18" font-family="Helvetica,sans-Serif" font-size="10.00"> Mapping, and FiniteElement</text>
<text text-anchor="middle" x="192" y="-7" font-family="Helvetica,sans-Serif" font-size="10.00"> in FEValues</text>
</a>
</g>
</g>
<!-- Node1&#45;&gt;Node7 -->
<g id="edge6" class="edge">
<title>Node1&#45;&gt;Node7</title>
<path fill="none" stroke="black" d="M50.36,-151.16C61.86,-125.05 85.59,-78.59 119,-50.5 123.15,-47.01 127.75,-43.89 132.58,-41.09"/>
<polygon fill="black" stroke="black" points="47,-150.12 46.31,-160.69 53.44,-152.85 47,-150.12"/>
</g>
</g>
</svg>
