<?xml version="1.0" encoding="UTF-8" standalone="no"?>
<!DOCTYPE svg PUBLIC "-//W3C//DTD SVG 1.1//EN"
 "http://www.w3.org/Graphics/SVG/1.1/DTD/svg11.dtd">
<!-- Generated by graphviz version 2.47.1 (20210417.1919)
 -->
<!-- Title: Finite element access/FEValues classes Pages: 1 -->
<svg width="516pt" height="198pt"
 viewBox="0.00 0.00 516.00 198.47" xmlns="http://www.w3.org/2000/svg" xmlns:xlink="http://www.w3.org/1999/xlink">
<g id="graph0" class="graph" transform="scale(1 1) rotate(0) translate(4 194.47)">
<title>Finite element access/FEValues classes</title>
<polygon fill="white" stroke="transparent" points="-4,4 -4,-194.47 512,-194.47 512,4 -4,4"/>
<!-- Node2 -->
<g id="node1" class="node">
<title>Node2</title>
<g id="a_node1"><a xlink:href="group__feall.html" target="_top" xlink:title=" ">
<polygon fill="white" stroke="black" points="83,-113.69 0,-113.69 0,-94.69 83,-94.69 83,-113.69"/>
<text text-anchor="middle" x="41.5" y="-101.69" font-family="Helvetica,sans-Serif" font-size="10.00">Finite elements</text>
</a>
</g>
</g>
<!-- Node1 -->
<g id="node3" class="node">
<title>Node1</title>
<g id="a_node3"><a xlink:title=" ">
<polygon fill="#bfbfbf" stroke="black" points="233,-119.19 120,-119.19 120,-89.19 233,-89.19 233,-119.19"/>
<text text-anchor="start" x="128" y="-107.19" font-family="Helvetica,sans-Serif" font-size="10.00">Finite element access</text>
<text text-anchor="middle" x="176.5" y="-96.19" font-family="Helvetica,sans-Serif" font-size="10.00">/FEValues classes</text>
</a>
</g>
</g>
<!-- Node2&#45;&gt;Node1 -->
<g id="edge1" class="edge">
<title>Node2&#45;&gt;Node1</title>
<path fill="none" stroke="black" d="M93.18,-104.19C101.93,-104.19 111.07,-104.19 119.94,-104.19"/>
<polygon fill="black" stroke="black" points="93.13,-100.69 83.13,-104.19 93.13,-107.69 93.13,-100.69"/>
</g>
<!-- Node3 -->
<g id="node2" class="node">
<title>Node3</title>
<g id="a_node2"><a xlink:href="group__vector__valued.html" target="_top" xlink:title=" ">
<polygon fill="white" stroke="black" points="508,-119.19 392,-119.19 392,-89.19 508,-89.19 508,-119.19"/>
<text text-anchor="start" x="400" y="-107.19" font-family="Helvetica,sans-Serif" font-size="10.00">Handling vector valued</text>
<text text-anchor="middle" x="450" y="-96.19" font-family="Helvetica,sans-Serif" font-size="10.00"> problems</text>
</a>
</g>
</g>
<!-- Node1&#45;&gt;Node3 -->
<g id="edge2" class="edge">
<title>Node1&#45;&gt;Node3</title>
<path fill="none" stroke="black" d="M193.82,-127.6C207.04,-144.37 227.33,-165.62 251,-175.19 301.68,-195.67 323.21,-195.41 374,-175.19 402.15,-163.98 425.82,-136.63 438.66,-119.33"/>
<polygon fill="black" stroke="black" points="196.38,-125.19 187.56,-119.32 190.8,-129.41 196.38,-125.19"/>
</g>
<!-- Node1&#45;&gt;Node3 -->
<g id="edge3" class="edge">
<title>Node1&#45;&gt;Node3</title>
<path fill="none" stroke="orange" stroke-dasharray="5,2" d="M184.92,-89.01C196.01,-68.28 219.08,-32.01 251,-17.19 300.58,5.83 324.3,5.58 374,-17.19 406.27,-31.97 429.92,-68.26 441.34,-89"/>
<text text-anchor="middle" x="312.5" y="-163.19" font-family="Helvetica,sans-Serif" font-size="10.00">FEValuesViews::Scalar</text>
<text text-anchor="middle" x="312.5" y="-152.19" font-family="Helvetica,sans-Serif" font-size="10.00">FEValuesViews::Vector</text>
<text text-anchor="start" x="251" y="-141.19" font-family="Helvetica,sans-Serif" font-size="10.00">FEValuesViews::Symmetric</text>
<text text-anchor="middle" x="312.5" y="-130.19" font-family="Helvetica,sans-Serif" font-size="10.00">Tensor&lt; 2, dim, spacedim &gt;</text>
<text text-anchor="start" x="251" y="-119.19" font-family="Helvetica,sans-Serif" font-size="10.00">FEValuesViews::Tensor</text>
<text text-anchor="middle" x="312.5" y="-108.19" font-family="Helvetica,sans-Serif" font-size="10.00">&lt; 2, dim, spacedim &gt;</text>
<text text-anchor="start" x="251" y="-97.19" font-family="Helvetica,sans-Serif" font-size="10.00">FEValuesExtractors</text>
<text text-anchor="middle" x="312.5" y="-86.19" font-family="Helvetica,sans-Serif" font-size="10.00">::Scalar</text>
<text text-anchor="start" x="251" y="-75.19" font-family="Helvetica,sans-Serif" font-size="10.00">FEValuesExtractors</text>
<text text-anchor="middle" x="312.5" y="-64.19" font-family="Helvetica,sans-Serif" font-size="10.00">::Vector</text>
<text text-anchor="start" x="251" y="-53.19" font-family="Helvetica,sans-Serif" font-size="10.00">FEValuesExtractors</text>
<text text-anchor="middle" x="312.5" y="-42.19" font-family="Helvetica,sans-Serif" font-size="10.00">::SymmetricTensor</text>
<text text-anchor="start" x="251" y="-31.19" font-family="Helvetica,sans-Serif" font-size="10.00">FEValuesExtractors</text>
<text text-anchor="middle" x="312.5" y="-20.19" font-family="Helvetica,sans-Serif" font-size="10.00">::Tensor</text>
</g>
</g>
</svg>
