<?xml version="1.0" encoding="UTF-8" standalone="no"?>
<!DOCTYPE svg PUBLIC "-//W3C//DTD SVG 1.1//EN"
 "http://www.w3.org/Graphics/SVG/1.1/DTD/svg11.dtd">
<!-- Generated by graphviz version 2.47.1 (20210417.1919)
 -->
<!-- Title: TrilinosWrappers Pages: 1 -->
<svg width="578pt" height="566pt"
 viewBox="0.00 0.00 578.00 566.08" xmlns="http://www.w3.org/2000/svg" xmlns:xlink="http://www.w3.org/1999/xlink">
<g id="graph0" class="graph" transform="scale(1 1) rotate(0) translate(4 562.08)">
<title>TrilinosWrappers</title>
<polygon fill="white" stroke="transparent" points="-4,4 -4,-562.08 574,-562.08 574,4 -4,4"/>
<!-- Node5 -->
<g id="node1" class="node">
<title>Node5</title>
<g id="a_node1"><a xlink:href="group__Vectors.html" target="_top" xlink:title=" ">
<polygon fill="white" stroke="black" points="545,-380.58 463,-380.58 463,-361.58 545,-361.58 545,-380.58"/>
<text text-anchor="middle" x="504" y="-368.58" font-family="Helvetica,sans-Serif" font-size="10.00">Vector classes</text>
</a>
</g>
</g>
<!-- Node3 -->
<g id="node2" class="node">
<title>Node3</title>
<g id="a_node2"><a xlink:href="group__Exceptions.html" target="_top" xlink:title=" ">
<polygon fill="white" stroke="black" points="570,-521.58 438,-521.58 438,-502.58 570,-502.58 570,-521.58"/>
<text text-anchor="middle" x="504" y="-509.58" font-family="Helvetica,sans-Serif" font-size="10.00">Exceptions and assertions</text>
</a>
</g>
</g>
<!-- Node1 -->
<g id="node8" class="node">
<title>Node1</title>
<g id="a_node8"><a xlink:title=" ">
<polygon fill="#bfbfbf" stroke="black" points="240,-335.58 151,-335.58 151,-316.58 240,-316.58 240,-335.58"/>
<text text-anchor="middle" x="195.5" y="-323.58" font-family="Helvetica,sans-Serif" font-size="10.00">TrilinosWrappers</text>
</a>
</g>
</g>
<!-- Node3&#45;&gt;Node1 -->
<g id="edge2" class="edge">
<title>Node3&#45;&gt;Node1</title>
<path fill="none" stroke="black" d="M427.62,-506.72C360.64,-501.34 271.32,-492.38 258,-482.08 209.65,-444.66 199.24,-363.66 197.06,-335.75"/>
<polygon fill="black" stroke="black" points="427.5,-510.23 437.74,-507.52 428.05,-503.25 427.5,-510.23"/>
</g>
<!-- Node2 -->
<g id="node3" class="node">
<title>Node2</title>
<g id="a_node3"><a xlink:href="group__LAC.html" target="_top" xlink:title=" ">
<polygon fill="white" stroke="black" points="114,-335.58 0,-335.58 0,-316.58 114,-316.58 114,-335.58"/>
<text text-anchor="middle" x="57" y="-323.58" font-family="Helvetica,sans-Serif" font-size="10.00">Linear algebra classes</text>
</a>
</g>
</g>
<!-- Node2&#45;&gt;Node1 -->
<g id="edge1" class="edge">
<title>Node2&#45;&gt;Node1</title>
<path fill="none" stroke="black" d="M124.39,-326.08C133.37,-326.08 142.39,-326.08 150.83,-326.08"/>
<polygon fill="black" stroke="black" points="124.31,-322.58 114.31,-326.08 124.31,-329.58 124.31,-322.58"/>
</g>
<!-- Node6 -->
<g id="node4" class="node">
<title>Node6</title>
<g id="a_node4"><a xlink:href="group__PETScWrappers.html" target="_top" xlink:title=" ">
<polygon fill="white" stroke="black" points="548.5,-335.58 459.5,-335.58 459.5,-316.58 548.5,-316.58 548.5,-335.58"/>
<text text-anchor="middle" x="504" y="-323.58" font-family="Helvetica,sans-Serif" font-size="10.00">PETScWrappers</text>
</a>
</g>
</g>
<!-- Node7 -->
<g id="node5" class="node">
<title>Node7</title>
<g id="a_node5"><a xlink:href="group__Preconditioners.html" target="_top" xlink:title=" ">
<polygon fill="white" stroke="black" points="560,-153.08 448,-153.08 448,-123.08 560,-123.08 560,-153.08"/>
<text text-anchor="start" x="456" y="-141.08" font-family="Helvetica,sans-Serif" font-size="10.00">Preconditioners and</text>
<text text-anchor="middle" x="504" y="-130.08" font-family="Helvetica,sans-Serif" font-size="10.00"> Relaxation Operators</text>
</a>
</g>
</g>
<!-- Node8 -->
<g id="node6" class="node">
<title>Node8</title>
<g id="a_node6"><a xlink:href="group__Sparsity.html" target="_top" xlink:title=" ">
<polygon fill="white" stroke="black" points="549.5,-102.58 458.5,-102.58 458.5,-83.58 549.5,-83.58 549.5,-102.58"/>
<text text-anchor="middle" x="504" y="-90.58" font-family="Helvetica,sans-Serif" font-size="10.00">Sparsity patterns</text>
</a>
</g>
</g>
<!-- Node4 -->
<g id="node7" class="node">
<title>Node4</title>
<g id="a_node7"><a xlink:href="group__Matrix1.html" target="_top" xlink:title=" ">
<polygon fill="white" stroke="black" points="545,-35.58 463,-35.58 463,-16.58 545,-16.58 545,-35.58"/>
<text text-anchor="middle" x="504" y="-23.58" font-family="Helvetica,sans-Serif" font-size="10.00">Basic matrices</text>
</a>
</g>
</g>
<!-- Node1&#45;&gt;Node5 -->
<g id="edge4" class="edge">
<title>Node1&#45;&gt;Node5</title>
<path fill="none" stroke="orange" stroke-dasharray="5,2" d="M217.7,-335.61C229.36,-340.45 244.22,-345.94 258,-349.08 328.79,-365.18 413.6,-369.6 462.6,-370.75"/>
<text text-anchor="start" x="271" y="-470.08" font-family="Helvetica,sans-Serif" font-size="10.00">LinearAlgebra::EpetraWrappers</text>
<text text-anchor="middle" x="339" y="-459.08" font-family="Helvetica,sans-Serif" font-size="10.00">::Vector</text>
<text text-anchor="start" x="271" y="-448.08" font-family="Helvetica,sans-Serif" font-size="10.00">TrilinosWrappers::MPI</text>
<text text-anchor="middle" x="339" y="-437.08" font-family="Helvetica,sans-Serif" font-size="10.00">::BlockVector</text>
<text text-anchor="start" x="271" y="-426.08" font-family="Helvetica,sans-Serif" font-size="10.00">internal::LinearOperator</text>
<text text-anchor="middle" x="339" y="-415.08" font-family="Helvetica,sans-Serif" font-size="10.00">Implementation::ReinitHelper</text>
<text text-anchor="start" x="271" y="-404.08" font-family="Helvetica,sans-Serif" font-size="10.00">LinearAlgebra::TpetraWrappers</text>
<text text-anchor="middle" x="339" y="-393.08" font-family="Helvetica,sans-Serif" font-size="10.00">::Vector</text>
<text text-anchor="start" x="271" y="-382.08" font-family="Helvetica,sans-Serif" font-size="10.00">TrilinosWrappers::MPI</text>
<text text-anchor="middle" x="339" y="-371.08" font-family="Helvetica,sans-Serif" font-size="10.00">::Vector</text>
</g>
<!-- Node1&#45;&gt;Node3 -->
<g id="edge5" class="edge">
<title>Node1&#45;&gt;Node3</title>
<path fill="none" stroke="orange" stroke-dasharray="5,2" d="M196.3,-335.71C196.22,-366.83 200.69,-465.13 258,-507.08 321.85,-553.81 422.25,-535.28 472.39,-521.64"/>
<text text-anchor="start" x="275.5" y="-550.08" font-family="Helvetica,sans-Serif" font-size="10.00">internal::LinearOperator</text>
<text text-anchor="middle" x="339" y="-539.08" font-family="Helvetica,sans-Serif" font-size="10.00">Implementation::ReinitHelper</text>
</g>
<!-- Node1&#45;&gt;Node6 -->
<g id="edge6" class="edge">
<title>Node1&#45;&gt;Node6</title>
<path fill="none" stroke="orange" stroke-dasharray="5,2" d="M240.09,-326.08C298.26,-326.08 400.72,-326.08 459.07,-326.08"/>
<text text-anchor="start" x="275.5" y="-340.08" font-family="Helvetica,sans-Serif" font-size="10.00">internal::LinearOperator</text>
<text text-anchor="middle" x="339" y="-329.08" font-family="Helvetica,sans-Serif" font-size="10.00">Implementation::ReinitHelper</text>
</g>
<!-- Node1&#45;&gt;Node7 -->
<g id="edge7" class="edge">
<title>Node1&#45;&gt;Node7</title>
<path fill="none" stroke="orange" stroke-dasharray="5,2" d="M196.65,-316.36C197.7,-286.74 205.29,-197.11 258,-157.08 312.19,-115.92 393.96,-118.67 447.91,-126.6"/>
<text text-anchor="middle" x="339" y="-314.08" font-family="Helvetica,sans-Serif" font-size="10.00">TrilinosWrappers::PreconditionBase</text>
<text text-anchor="start" x="258" y="-303.08" font-family="Helvetica,sans-Serif" font-size="10.00">TrilinosWrappers::Precondition</text>
<text text-anchor="middle" x="339" y="-292.08" font-family="Helvetica,sans-Serif" font-size="10.00">Jacobi</text>
<text text-anchor="middle" x="339" y="-281.08" font-family="Helvetica,sans-Serif" font-size="10.00">TrilinosWrappers::PreconditionSSOR</text>
<text text-anchor="middle" x="339" y="-270.08" font-family="Helvetica,sans-Serif" font-size="10.00">TrilinosWrappers::PreconditionSOR</text>
<text text-anchor="start" x="258" y="-259.08" font-family="Helvetica,sans-Serif" font-size="10.00">TrilinosWrappers::Precondition</text>
<text text-anchor="middle" x="339" y="-248.08" font-family="Helvetica,sans-Serif" font-size="10.00">BlockJacobi</text>
<text text-anchor="start" x="258" y="-237.08" font-family="Helvetica,sans-Serif" font-size="10.00">TrilinosWrappers::Precondition</text>
<text text-anchor="middle" x="339" y="-226.08" font-family="Helvetica,sans-Serif" font-size="10.00">BlockSSOR</text>
<text text-anchor="start" x="258" y="-215.08" font-family="Helvetica,sans-Serif" font-size="10.00">TrilinosWrappers::Precondition</text>
<text text-anchor="middle" x="339" y="-204.08" font-family="Helvetica,sans-Serif" font-size="10.00">BlockSOR</text>
<text text-anchor="middle" x="339" y="-193.08" font-family="Helvetica,sans-Serif" font-size="10.00">TrilinosWrappers::PreconditionIC</text>
<text text-anchor="middle" x="339" y="-182.08" font-family="Helvetica,sans-Serif" font-size="10.00">TrilinosWrappers::PreconditionILU</text>
<text text-anchor="middle" x="339" y="-171.08" font-family="Helvetica,sans-Serif" font-size="10.00">TrilinosWrappers::PreconditionILUT</text>
<text text-anchor="middle" x="339" y="-160.08" font-family="Helvetica,sans-Serif" font-size="10.00">...</text>
</g>
<!-- Node1&#45;&gt;Node8 -->
<g id="edge8" class="edge">
<title>Node1&#45;&gt;Node8</title>
<path fill="none" stroke="orange" stroke-dasharray="5,2" d="M197.55,-316.47C202.13,-276.52 221.78,-124.24 258,-96.08 288.1,-72.68 396.16,-80.57 458.26,-87.41"/>
<text text-anchor="start" x="281.5" y="-110.08" font-family="Helvetica,sans-Serif" font-size="10.00">TrilinosWrappers::Sparsity</text>
<text text-anchor="middle" x="339" y="-99.08" font-family="Helvetica,sans-Serif" font-size="10.00">Pattern</text>
</g>
<!-- Node1&#45;&gt;Node4 -->
<g id="edge3" class="edge">
<title>Node1&#45;&gt;Node4</title>
<path fill="none" stroke="orange" stroke-dasharray="5,2" d="M196.98,-316.5C199.51,-270.26 212.94,-70.74 258,-33.08 319.54,18.36 423.29,-2.15 473.72,-16.55"/>
<text text-anchor="start" x="271.5" y="-69.08" font-family="Helvetica,sans-Serif" font-size="10.00">TrilinosWrappers::BlockSparse</text>
<text text-anchor="middle" x="339" y="-58.08" font-family="Helvetica,sans-Serif" font-size="10.00">Matrix</text>
<text text-anchor="start" x="271.5" y="-47.08" font-family="Helvetica,sans-Serif" font-size="10.00">TrilinosWrappers::Sparse</text>
<text text-anchor="middle" x="339" y="-36.08" font-family="Helvetica,sans-Serif" font-size="10.00">Matrix</text>
</g>
</g>
</svg>
