<?xml version="1.0" encoding="UTF-8" standalone="no"?>
<!DOCTYPE svg PUBLIC "-//W3C//DTD SVG 1.1//EN"
 "http://www.w3.org/Graphics/SVG/1.1/DTD/svg11.dtd">
<!-- Generated by graphviz version 2.47.1 (20210417.1919)
 -->
<!-- Title: PETScWrappers Pages: 1 -->
<svg width="553pt" height="323pt"
 viewBox="0.00 0.00 553.00 322.82" xmlns="http://www.w3.org/2000/svg" xmlns:xlink="http://www.w3.org/1999/xlink">
<g id="graph0" class="graph" transform="scale(1 1) rotate(0) translate(4 318.82)">
<title>PETScWrappers</title>
<polygon fill="white" stroke="transparent" points="-4,4 -4,-318.82 549,-318.82 549,4 -4,4"/>
<!-- Node5 -->
<g id="node1" class="node">
<title>Node5</title>
<g id="a_node1"><a xlink:href="group__Vectors.html" target="_top" xlink:title=" ">
<polygon fill="white" stroke="black" points="520,-257.32 438,-257.32 438,-238.32 520,-238.32 520,-257.32"/>
<text text-anchor="middle" x="479" y="-245.32" font-family="Helvetica,sans-Serif" font-size="10.00">Vector classes</text>
</a>
</g>
</g>
<!-- Node6 -->
<g id="node2" class="node">
<title>Node6</title>
<g id="a_node2"><a xlink:href="group__Exceptions.html" target="_top" xlink:title=" ">
<polygon fill="white" stroke="black" points="545,-213.32 413,-213.32 413,-194.32 545,-194.32 545,-213.32"/>
<text text-anchor="middle" x="479" y="-201.32" font-family="Helvetica,sans-Serif" font-size="10.00">Exceptions and assertions</text>
</a>
</g>
</g>
<!-- Node3 -->
<g id="node3" class="node">
<title>Node3</title>
<g id="a_node3"><a xlink:href="group__SLEPcWrappers.html" target="_top" xlink:title=" ">
<polygon fill="white" stroke="black" points="523.5,-176.32 434.5,-176.32 434.5,-157.32 523.5,-157.32 523.5,-176.32"/>
<text text-anchor="middle" x="479" y="-164.32" font-family="Helvetica,sans-Serif" font-size="10.00">SLEPcWrappers</text>
</a>
</g>
</g>
<!-- Node2 -->
<g id="node4" class="node">
<title>Node2</title>
<g id="a_node4"><a xlink:href="group__LAC.html" target="_top" xlink:title=" ">
<polygon fill="white" stroke="black" points="114,-178.32 0,-178.32 0,-159.32 114,-159.32 114,-178.32"/>
<text text-anchor="middle" x="57" y="-166.32" font-family="Helvetica,sans-Serif" font-size="10.00">Linear algebra classes</text>
</a>
</g>
</g>
<!-- Node1 -->
<g id="node5" class="node">
<title>Node1</title>
<g id="a_node5"><a xlink:title=" ">
<polygon fill="#bfbfbf" stroke="black" points="240,-178.32 151,-178.32 151,-159.32 240,-159.32 240,-178.32"/>
<text text-anchor="middle" x="195.5" y="-166.32" font-family="Helvetica,sans-Serif" font-size="10.00">PETScWrappers</text>
</a>
</g>
</g>
<!-- Node2&#45;&gt;Node1 -->
<g id="edge1" class="edge">
<title>Node2&#45;&gt;Node1</title>
<path fill="none" stroke="black" d="M124.39,-168.82C133.37,-168.82 142.39,-168.82 150.83,-168.82"/>
<polygon fill="black" stroke="black" points="124.31,-165.32 114.31,-168.82 124.31,-172.32 124.31,-165.32"/>
</g>
<!-- Node1&#45;&gt;Node5 -->
<g id="edge4" class="edge">
<title>Node1&#45;&gt;Node5</title>
<path fill="none" stroke="orange" stroke-dasharray="5,2" d="M204.48,-178.61C215.21,-191.01 235.55,-211.94 258,-221.82 316.61,-247.61 392.05,-250.85 437.63,-249.96"/>
<text text-anchor="start" x="263" y="-306.82" font-family="Helvetica,sans-Serif" font-size="10.00">PETScWrappers::MPI</text>
<text text-anchor="middle" x="326.5" y="-295.82" font-family="Helvetica,sans-Serif" font-size="10.00">::BlockVector</text>
<text text-anchor="start" x="263" y="-284.82" font-family="Helvetica,sans-Serif" font-size="10.00">internal::LinearOperator</text>
<text text-anchor="middle" x="326.5" y="-273.82" font-family="Helvetica,sans-Serif" font-size="10.00">Implementation::ReinitHelper</text>
<text text-anchor="start" x="263" y="-262.82" font-family="Helvetica,sans-Serif" font-size="10.00">PETScWrappers::MPI</text>
<text text-anchor="middle" x="326.5" y="-251.82" font-family="Helvetica,sans-Serif" font-size="10.00">::Vector</text>
</g>
<!-- Node1&#45;&gt;Node6 -->
<g id="edge5" class="edge">
<title>Node1&#45;&gt;Node6</title>
<path fill="none" stroke="orange" stroke-dasharray="5,2" d="M240.09,-177.82C246.1,-178.91 252.19,-179.95 258,-180.82 309.84,-188.57 368.95,-194.6 412.83,-198.53"/>
<text text-anchor="start" x="263" y="-209.82" font-family="Helvetica,sans-Serif" font-size="10.00">internal::LinearOperator</text>
<text text-anchor="middle" x="326.5" y="-198.82" font-family="Helvetica,sans-Serif" font-size="10.00">Implementation::ReinitHelper</text>
</g>
<!-- Node1&#45;&gt;Node3 -->
<g id="edge2" class="edge">
<title>Node1&#45;&gt;Node3</title>
<path fill="none" stroke="black" d="M250.48,-168.44C303.9,-168.06 384.66,-167.48 434.22,-167.13"/>
<polygon fill="black" stroke="black" points="250.15,-164.94 240.18,-168.51 250.2,-171.94 250.15,-164.94"/>
</g>
<!-- Node4 -->
<g id="node6" class="node">
<title>Node4</title>
<g id="a_node6"><a xlink:href="group__Matrix1.html" target="_top" xlink:title=" ">
<polygon fill="white" stroke="black" points="520,-75.32 438,-75.32 438,-56.32 520,-56.32 520,-75.32"/>
<text text-anchor="middle" x="479" y="-63.32" font-family="Helvetica,sans-Serif" font-size="10.00">Basic matrices</text>
</a>
</g>
</g>
<!-- Node1&#45;&gt;Node4 -->
<g id="edge3" class="edge">
<title>Node1&#45;&gt;Node4</title>
<path fill="none" stroke="orange" stroke-dasharray="5,2" d="M199.51,-159.27C206.29,-139.56 224.83,-94.63 258,-75.82 313.87,-44.13 391.16,-49.72 437.69,-57.32"/>
<text text-anchor="start" x="258" y="-155.82" font-family="Helvetica,sans-Serif" font-size="10.00">PETScWrappers::MPI</text>
<text text-anchor="middle" x="326.5" y="-144.82" font-family="Helvetica,sans-Serif" font-size="10.00">::BlockSparseMatrix</text>
<text text-anchor="middle" x="326.5" y="-133.82" font-family="Helvetica,sans-Serif" font-size="10.00">PETScWrappers::FullMatrix</text>
<text text-anchor="middle" x="326.5" y="-122.82" font-family="Helvetica,sans-Serif" font-size="10.00">PETScWrappers::MatrixBase</text>
<text text-anchor="middle" x="326.5" y="-111.82" font-family="Helvetica,sans-Serif" font-size="10.00">PETScWrappers::MatrixFree</text>
<text text-anchor="middle" x="326.5" y="-100.82" font-family="Helvetica,sans-Serif" font-size="10.00">PETScWrappers::SparseMatrix</text>
<text text-anchor="start" x="258" y="-89.82" font-family="Helvetica,sans-Serif" font-size="10.00">PETScWrappers::MPI</text>
<text text-anchor="middle" x="326.5" y="-78.82" font-family="Helvetica,sans-Serif" font-size="10.00">::SparseMatrix</text>
</g>
<!-- Node7 -->
<g id="node7" class="node">
<title>Node7</title>
<g id="a_node7"><a xlink:href="group__TrilinosWrappers.html" target="_top" xlink:title=" ">
<polygon fill="white" stroke="black" points="523.5,-30.32 434.5,-30.32 434.5,-11.32 523.5,-11.32 523.5,-30.32"/>
<text text-anchor="middle" x="479" y="-18.32" font-family="Helvetica,sans-Serif" font-size="10.00">TrilinosWrappers</text>
</a>
</g>
</g>
<!-- Node1&#45;&gt;Node7 -->
<g id="edge6" class="edge">
<title>Node1&#45;&gt;Node7</title>
<path fill="none" stroke="orange" stroke-dasharray="5,2" d="M197.26,-158.94C199.93,-132.01 211.41,-57.26 258,-25.82 314.21,12.12 398.24,-0.15 444.48,-11.24"/>
<text text-anchor="start" x="263" y="-39.82" font-family="Helvetica,sans-Serif" font-size="10.00">internal::LinearOperator</text>
<text text-anchor="middle" x="326.5" y="-28.82" font-family="Helvetica,sans-Serif" font-size="10.00">Implementation::ReinitHelper</text>
</g>
</g>
</svg>
