<?xml version="1.0" encoding="UTF-8" standalone="no"?>
<!DOCTYPE svg PUBLIC "-//W3C//DTD SVG 1.1//EN"
 "http://www.w3.org/Graphics/SVG/1.1/DTD/svg11.dtd">
<!-- Generated by graphviz version 2.47.1 (20210417.1919)
 -->
<!-- Title: Parallel computing with multiple processors accessing shared memory Pages: 1 -->
<svg width="275pt" height="49pt"
 viewBox="0.00 0.00 275.00 49.00" xmlns="http://www.w3.org/2000/svg" xmlns:xlink="http://www.w3.org/1999/xlink">
<g id="graph0" class="graph" transform="scale(1 1) rotate(0) translate(4 45)">
<title>Parallel computing with multiple processors accessing shared memory</title>
<polygon fill="white" stroke="transparent" points="-4,4 -4,-45 271,-45 271,4 -4,4"/>
<!-- Node2 -->
<g id="node1" class="node">
<title>Node2</title>
<g id="a_node1"><a xlink:href="group__Parallel.html" target="_top" xlink:title="A module discussing the use of multiple processors.">
<polygon fill="white" stroke="black" points="97,-30 0,-30 0,-11 97,-11 97,-30"/>
<text text-anchor="middle" x="48.5" y="-18" font-family="Helvetica,sans-Serif" font-size="10.00">Parallel computing</text>
</a>
</g>
</g>
<!-- Node1 -->
<g id="node2" class="node">
<title>Node1</title>
<g id="a_node2"><a xlink:title="A module discussing the use of parallelism on shared memory machines. See the detailed documentation ...">
<polygon fill="#bfbfbf" stroke="black" points="267,-41 133,-41 133,0 267,0 267,-41"/>
<text text-anchor="start" x="141" y="-29" font-family="Helvetica,sans-Serif" font-size="10.00">Parallel computing</text>
<text text-anchor="start" x="141" y="-18" font-family="Helvetica,sans-Serif" font-size="10.00"> with multiple processors</text>
<text text-anchor="middle" x="200" y="-7" font-family="Helvetica,sans-Serif" font-size="10.00"> accessing shared memory</text>
</a>
</g>
</g>
<!-- Node2&#45;&gt;Node1 -->
<g id="edge1" class="edge">
<title>Node2&#45;&gt;Node1</title>
<path fill="none" stroke="black" d="M107.28,-20.5C115.68,-20.5 124.38,-20.5 132.93,-20.5"/>
<polygon fill="black" stroke="black" points="107.21,-17 97.21,-20.5 107.21,-24 107.21,-17"/>
</g>
</g>
</svg>
