<?xml version="1.0" encoding="UTF-8" standalone="no"?>
<!DOCTYPE svg PUBLIC "-//W3C//DTD SVG 1.1//EN"
 "http://www.w3.org/Graphics/SVG/1.1/DTD/svg11.dtd">
<!-- Generated by graphviz version 2.47.1 (20210417.1919)
 -->
<!-- Title: Vector classes Pages: 1 -->
<svg width="545pt" height="291pt"
 viewBox="0.00 0.00 545.00 291.18" xmlns="http://www.w3.org/2000/svg" xmlns:xlink="http://www.w3.org/1999/xlink">
<g id="graph0" class="graph" transform="scale(1 1) rotate(0) translate(4 287.18)">
<title>Vector classes</title>
<polygon fill="white" stroke="transparent" points="-4,4 -4,-287.18 541,-287.18 541,4 -4,4"/>
<!-- Node1 -->
<g id="node1" class="node">
<title>Node1</title>
<g id="a_node1"><a xlink:title=" ">
<polygon fill="#bfbfbf" stroke="black" points="233,-207.41 151,-207.41 151,-188.41 233,-188.41 233,-207.41"/>
<text text-anchor="middle" x="192" y="-195.41" font-family="Helvetica,sans-Serif" font-size="10.00">Vector classes</text>
</a>
</g>
</g>
<!-- Node3 -->
<g id="node2" class="node">
<title>Node3</title>
<g id="a_node2"><a xlink:href="group__Exceptions.html" target="_top" xlink:title=" ">
<polygon fill="white" stroke="black" points="537,-270.41 405,-270.41 405,-251.41 537,-251.41 537,-270.41"/>
<text text-anchor="middle" x="471" y="-258.41" font-family="Helvetica,sans-Serif" font-size="10.00">Exceptions and assertions</text>
</a>
</g>
</g>
<!-- Node1&#45;&gt;Node3 -->
<g id="edge2" class="edge">
<title>Node1&#45;&gt;Node3</title>
<path fill="none" stroke="black" d="M202.52,-216.19C212.22,-232.65 228.98,-255.75 251,-265.91 311.43,-293.8 391.58,-281.22 436.25,-270.47"/>
<polygon fill="black" stroke="black" points="205.55,-214.45 197.63,-207.42 199.44,-217.86 205.55,-214.45"/>
</g>
<!-- Node1&#45;&gt;Node3 -->
<g id="edge3" class="edge">
<title>Node1&#45;&gt;Node3</title>
<path fill="none" stroke="orange" stroke-dasharray="5,2" d="M213.54,-207.45C224.45,-212.16 238.22,-217.54 251,-220.91 310.01,-236.5 327.11,-228.19 387,-239.91 403.19,-243.08 420.95,-247.45 435.86,-251.38"/>
<text text-anchor="start" x="255.5" y="-253.91" font-family="Helvetica,sans-Serif" font-size="10.00">internal::LinearOperator</text>
<text text-anchor="middle" x="319" y="-242.91" font-family="Helvetica,sans-Serif" font-size="10.00">Implementation::ReinitHelper</text>
</g>
<!-- Node4 -->
<g id="node4" class="node">
<title>Node4</title>
<g id="a_node4"><a xlink:href="group__PETScWrappers.html" target="_top" xlink:title=" ">
<polygon fill="white" stroke="black" points="515.5,-163.41 426.5,-163.41 426.5,-144.41 515.5,-144.41 515.5,-163.41"/>
<text text-anchor="middle" x="471" y="-151.41" font-family="Helvetica,sans-Serif" font-size="10.00">PETScWrappers</text>
</a>
</g>
</g>
<!-- Node1&#45;&gt;Node4 -->
<g id="edge4" class="edge">
<title>Node1&#45;&gt;Node4</title>
<path fill="none" stroke="orange" stroke-dasharray="5,2" d="M202.14,-188.14C212.73,-177.61 231.26,-161.48 251,-154.91 309.26,-135.52 381.17,-140.2 426.32,-146.3"/>
<text text-anchor="start" x="255.5" y="-212.91" font-family="Helvetica,sans-Serif" font-size="10.00">internal::LinearOperator</text>
<text text-anchor="middle" x="319" y="-201.91" font-family="Helvetica,sans-Serif" font-size="10.00">Implementation::ReinitHelper</text>
<text text-anchor="start" x="255.5" y="-190.91" font-family="Helvetica,sans-Serif" font-size="10.00">PETScWrappers::MPI</text>
<text text-anchor="middle" x="319" y="-179.91" font-family="Helvetica,sans-Serif" font-size="10.00">::BlockVector</text>
<text text-anchor="start" x="255.5" y="-168.91" font-family="Helvetica,sans-Serif" font-size="10.00">PETScWrappers::MPI</text>
<text text-anchor="middle" x="319" y="-157.91" font-family="Helvetica,sans-Serif" font-size="10.00">::Vector</text>
</g>
<!-- Node5 -->
<g id="node5" class="node">
<title>Node5</title>
<g id="a_node5"><a xlink:href="group__TrilinosWrappers.html" target="_top" xlink:title=" ">
<polygon fill="white" stroke="black" points="515.5,-30.41 426.5,-30.41 426.5,-11.41 515.5,-11.41 515.5,-30.41"/>
<text text-anchor="middle" x="471" y="-18.41" font-family="Helvetica,sans-Serif" font-size="10.00">TrilinosWrappers</text>
</a>
</g>
</g>
<!-- Node1&#45;&gt;Node5 -->
<g id="edge5" class="edge">
<title>Node1&#45;&gt;Node5</title>
<path fill="none" stroke="orange" stroke-dasharray="5,2" d="M192.84,-188.06C192.96,-158.01 197.85,-67.23 251,-27.91 305.59,12.47 390.52,-0.06 436.95,-11.35"/>
<text text-anchor="start" x="251" y="-129.91" font-family="Helvetica,sans-Serif" font-size="10.00">internal::LinearOperator</text>
<text text-anchor="middle" x="319" y="-118.91" font-family="Helvetica,sans-Serif" font-size="10.00">Implementation::ReinitHelper</text>
<text text-anchor="start" x="251" y="-107.91" font-family="Helvetica,sans-Serif" font-size="10.00">LinearAlgebra::EpetraWrappers</text>
<text text-anchor="middle" x="319" y="-96.91" font-family="Helvetica,sans-Serif" font-size="10.00">::Vector</text>
<text text-anchor="start" x="251" y="-85.91" font-family="Helvetica,sans-Serif" font-size="10.00">TrilinosWrappers::MPI</text>
<text text-anchor="middle" x="319" y="-74.91" font-family="Helvetica,sans-Serif" font-size="10.00">::BlockVector</text>
<text text-anchor="start" x="251" y="-63.91" font-family="Helvetica,sans-Serif" font-size="10.00">LinearAlgebra::TpetraWrappers</text>
<text text-anchor="middle" x="319" y="-52.91" font-family="Helvetica,sans-Serif" font-size="10.00">::Vector</text>
<text text-anchor="start" x="251" y="-41.91" font-family="Helvetica,sans-Serif" font-size="10.00">TrilinosWrappers::MPI</text>
<text text-anchor="middle" x="319" y="-30.91" font-family="Helvetica,sans-Serif" font-size="10.00">::Vector</text>
</g>
<!-- Node2 -->
<g id="node3" class="node">
<title>Node2</title>
<g id="a_node3"><a xlink:href="group__LAC.html" target="_top" xlink:title=" ">
<polygon fill="white" stroke="black" points="114,-207.41 0,-207.41 0,-188.41 114,-188.41 114,-207.41"/>
<text text-anchor="middle" x="57" y="-195.41" font-family="Helvetica,sans-Serif" font-size="10.00">Linear algebra classes</text>
</a>
</g>
</g>
<!-- Node2&#45;&gt;Node1 -->
<g id="edge1" class="edge">
<title>Node2&#45;&gt;Node1</title>
<path fill="none" stroke="black" d="M124.23,-197.91C133.3,-197.91 142.38,-197.91 150.8,-197.91"/>
<polygon fill="black" stroke="black" points="124.02,-194.41 114.02,-197.91 124.02,-201.41 124.02,-194.41"/>
</g>
</g>
</svg>
