<?xml version="1.0" encoding="UTF-8" standalone="no"?>
<!DOCTYPE svg PUBLIC "-//W3C//DTD SVG 1.1//EN"
 "http://www.w3.org/Graphics/SVG/1.1/DTD/svg11.dtd">
<!-- Generated by graphviz version 2.47.1 (20210417.1919)
 -->
<!-- Title: Preconditioners and Relaxation Operators Pages: 1 -->
<svg width="601pt" height="294pt"
 viewBox="0.00 0.00 601.00 294.34" xmlns="http://www.w3.org/2000/svg" xmlns:xlink="http://www.w3.org/1999/xlink">
<g id="graph0" class="graph" transform="scale(1 1) rotate(0) translate(4 290.34)">
<title>Preconditioners and Relaxation Operators</title>
<polygon fill="white" stroke="transparent" points="-4,4 -4,-290.34 597,-290.34 597,4 -4,4"/>
<!-- Node4 -->
<g id="node1" class="node">
<title>Node4</title>
<g id="a_node1"><a xlink:href="group__Exceptions.html" target="_top" xlink:title=" ">
<polygon fill="white" stroke="black" points="593,-286.34 461,-286.34 461,-267.34 593,-267.34 593,-286.34"/>
<text text-anchor="middle" x="527" y="-274.34" font-family="Helvetica,sans-Serif" font-size="10.00">Exceptions and assertions</text>
</a>
</g>
</g>
<!-- Node2 -->
<g id="node2" class="node">
<title>Node2</title>
<g id="a_node2"><a xlink:href="group__LAC.html" target="_top" xlink:title=" ">
<polygon fill="white" stroke="black" points="114,-250.34 0,-250.34 0,-231.34 114,-231.34 114,-250.34"/>
<text text-anchor="middle" x="57" y="-238.34" font-family="Helvetica,sans-Serif" font-size="10.00">Linear algebra classes</text>
</a>
</g>
</g>
<!-- Node1 -->
<g id="node3" class="node">
<title>Node1</title>
<g id="a_node3"><a xlink:title=" ">
<polygon fill="#bfbfbf" stroke="black" points="263,-236.84 151,-236.84 151,-206.84 263,-206.84 263,-236.84"/>
<text text-anchor="start" x="159" y="-224.84" font-family="Helvetica,sans-Serif" font-size="10.00">Preconditioners and</text>
<text text-anchor="middle" x="207" y="-213.84" font-family="Helvetica,sans-Serif" font-size="10.00"> Relaxation Operators</text>
</a>
</g>
</g>
<!-- Node2&#45;&gt;Node1 -->
<g id="edge1" class="edge">
<title>Node2&#45;&gt;Node1</title>
<path fill="none" stroke="black" d="M124.56,-232.3C133.32,-231.17 142.22,-230.03 150.76,-228.93"/>
<polygon fill="black" stroke="black" points="123.85,-228.86 114.37,-233.61 124.74,-235.8 123.85,-228.86"/>
</g>
<!-- Node1&#45;&gt;Node4 -->
<g id="edge3" class="edge">
<title>Node1&#45;&gt;Node4</title>
<path fill="none" stroke="black" d="M238.94,-242.14C251.49,-249.34 266.43,-256.69 281,-260.84 340.23,-277.74 410.65,-280.66 460.76,-280"/>
<polygon fill="black" stroke="black" points="240.65,-239.08 230.27,-236.96 237.06,-245.09 240.65,-239.08"/>
</g>
<!-- Node5 -->
<g id="node4" class="node">
<title>Node5</title>
<g id="a_node4"><a xlink:href="group__CUDAWrappers.html" target="_top" xlink:title=" ">
<polygon fill="white" stroke="black" points="571.5,-249.34 482.5,-249.34 482.5,-230.34 571.5,-230.34 571.5,-249.34"/>
<text text-anchor="middle" x="527" y="-237.34" font-family="Helvetica,sans-Serif" font-size="10.00">CUDA Wrappers</text>
</a>
</g>
</g>
<!-- Node1&#45;&gt;Node5 -->
<g id="edge4" class="edge">
<title>Node1&#45;&gt;Node5</title>
<path fill="none" stroke="orange" stroke-dasharray="5,2" d="M263.03,-224.96C325.25,-228.48 425.29,-234.14 482.37,-237.37"/>
<text text-anchor="middle" x="362" y="-248.84" font-family="Helvetica,sans-Serif" font-size="10.00">CUDAWrappers::PreconditionIC</text>
<text text-anchor="middle" x="362" y="-237.84" font-family="Helvetica,sans-Serif" font-size="10.00">CUDAWrappers::PreconditionILU</text>
</g>
<!-- Node6 -->
<g id="node6" class="node">
<title>Node6</title>
<g id="a_node6"><a xlink:href="group__Solvers.html" target="_top" xlink:title=" ">
<polygon fill="white" stroke="black" points="581.5,-212.34 472.5,-212.34 472.5,-193.34 581.5,-193.34 581.5,-212.34"/>
<text text-anchor="middle" x="527" y="-200.34" font-family="Helvetica,sans-Serif" font-size="10.00">Linear solver classes</text>
</a>
</g>
</g>
<!-- Node1&#45;&gt;Node6 -->
<g id="edge5" class="edge">
<title>Node1&#45;&gt;Node6</title>
<path fill="none" stroke="orange" stroke-dasharray="5,2" d="M263.32,-212.81C269.28,-212.05 275.26,-211.37 281,-210.84 346.69,-204.84 422.65,-203.17 472.36,-202.79"/>
<text text-anchor="middle" x="362" y="-213.84" font-family="Helvetica,sans-Serif" font-size="10.00">SparseDirectUMFPACK</text>
</g>
<!-- Node7 -->
<g id="node7" class="node">
<title>Node7</title>
<g id="a_node7"><a xlink:href="group__TrilinosWrappers.html" target="_top" xlink:title=" ">
<polygon fill="white" stroke="black" points="571.5,-26.34 482.5,-26.34 482.5,-7.34 571.5,-7.34 571.5,-26.34"/>
<text text-anchor="middle" x="527" y="-14.34" font-family="Helvetica,sans-Serif" font-size="10.00">TrilinosWrappers</text>
</a>
</g>
</g>
<!-- Node1&#45;&gt;Node7 -->
<g id="edge6" class="edge">
<title>Node1&#45;&gt;Node7</title>
<path fill="none" stroke="orange" stroke-dasharray="5,2" d="M208.75,-206.79C211.47,-170.29 223.94,-76.97 281,-34.84 340.02,8.73 430.33,1.88 483.24,-7.31"/>
<text text-anchor="middle" x="362" y="-191.84" font-family="Helvetica,sans-Serif" font-size="10.00">TrilinosWrappers::PreconditionBase</text>
<text text-anchor="start" x="281" y="-180.84" font-family="Helvetica,sans-Serif" font-size="10.00">TrilinosWrappers::Precondition</text>
<text text-anchor="middle" x="362" y="-169.84" font-family="Helvetica,sans-Serif" font-size="10.00">Jacobi</text>
<text text-anchor="middle" x="362" y="-158.84" font-family="Helvetica,sans-Serif" font-size="10.00">TrilinosWrappers::PreconditionSSOR</text>
<text text-anchor="middle" x="362" y="-147.84" font-family="Helvetica,sans-Serif" font-size="10.00">TrilinosWrappers::PreconditionSOR</text>
<text text-anchor="start" x="281" y="-136.84" font-family="Helvetica,sans-Serif" font-size="10.00">TrilinosWrappers::Precondition</text>
<text text-anchor="middle" x="362" y="-125.84" font-family="Helvetica,sans-Serif" font-size="10.00">BlockJacobi</text>
<text text-anchor="start" x="281" y="-114.84" font-family="Helvetica,sans-Serif" font-size="10.00">TrilinosWrappers::Precondition</text>
<text text-anchor="middle" x="362" y="-103.84" font-family="Helvetica,sans-Serif" font-size="10.00">BlockSSOR</text>
<text text-anchor="start" x="281" y="-92.84" font-family="Helvetica,sans-Serif" font-size="10.00">TrilinosWrappers::Precondition</text>
<text text-anchor="middle" x="362" y="-81.84" font-family="Helvetica,sans-Serif" font-size="10.00">BlockSOR</text>
<text text-anchor="middle" x="362" y="-70.84" font-family="Helvetica,sans-Serif" font-size="10.00">TrilinosWrappers::PreconditionIC</text>
<text text-anchor="middle" x="362" y="-59.84" font-family="Helvetica,sans-Serif" font-size="10.00">TrilinosWrappers::PreconditionILU</text>
<text text-anchor="middle" x="362" y="-48.84" font-family="Helvetica,sans-Serif" font-size="10.00">TrilinosWrappers::PreconditionILUT</text>
<text text-anchor="middle" x="362" y="-37.84" font-family="Helvetica,sans-Serif" font-size="10.00">...</text>
</g>
<!-- Node3 -->
<g id="node5" class="node">
<title>Node3</title>
<g id="a_node5"><a xlink:href="group__Matrices.html" target="_top" xlink:title=" ">
<polygon fill="white" stroke="black" points="97,-213.34 17,-213.34 17,-194.34 97,-194.34 97,-213.34"/>
<text text-anchor="middle" x="57" y="-201.34" font-family="Helvetica,sans-Serif" font-size="10.00">Matrix classes</text>
</a>
</g>
</g>
<!-- Node3&#45;&gt;Node1 -->
<g id="edge2" class="edge">
<title>Node3&#45;&gt;Node1</title>
<path fill="none" stroke="black" d="M107.21,-209.83C121.23,-211.53 136.6,-213.4 150.94,-215.15"/>
<polygon fill="black" stroke="black" points="107.62,-206.35 97.27,-208.62 106.78,-213.3 107.62,-206.35"/>
</g>
</g>
</svg>
