<?xml version="1.0" encoding="UTF-8" standalone="no"?>
<!DOCTYPE svg PUBLIC "-//W3C//DTD SVG 1.1//EN"
 "http://www.w3.org/Graphics/SVG/1.1/DTD/svg11.dtd">
<!-- Generated by graphviz version 2.47.1 (20210417.1919)
 -->
<!-- Title: Sparsity patterns Pages: 1 -->
<svg width="533pt" height="64pt"
 viewBox="0.00 0.00 533.00 64.00" xmlns="http://www.w3.org/2000/svg" xmlns:xlink="http://www.w3.org/1999/xlink">
<g id="graph0" class="graph" transform="scale(1 1) rotate(0) translate(4 60)">
<title>Sparsity patterns</title>
<polygon fill="white" stroke="transparent" points="-4,4 -4,-60 529,-60 529,4 -4,4"/>
<!-- Node3 -->
<g id="node1" class="node">
<title>Node3</title>
<g id="a_node1"><a xlink:href="group__Exceptions.html" target="_top" xlink:title=" ">
<polygon fill="white" stroke="black" points="525,-56 393,-56 393,-37 525,-37 525,-56"/>
<text text-anchor="middle" x="459" y="-44" font-family="Helvetica,sans-Serif" font-size="10.00">Exceptions and assertions</text>
</a>
</g>
</g>
<!-- Node2 -->
<g id="node2" class="node">
<title>Node2</title>
<g id="a_node2"><a xlink:href="group__LAC.html" target="_top" xlink:title=" ">
<polygon fill="white" stroke="black" points="114,-37 0,-37 0,-18 114,-18 114,-37"/>
<text text-anchor="middle" x="57" y="-25" font-family="Helvetica,sans-Serif" font-size="10.00">Linear algebra classes</text>
</a>
</g>
</g>
<!-- Node1 -->
<g id="node3" class="node">
<title>Node1</title>
<g id="a_node3"><a xlink:title=" ">
<polygon fill="#bfbfbf" stroke="black" points="242,-37 151,-37 151,-18 242,-18 242,-37"/>
<text text-anchor="middle" x="196.5" y="-25" font-family="Helvetica,sans-Serif" font-size="10.00">Sparsity patterns</text>
</a>
</g>
</g>
<!-- Node2&#45;&gt;Node1 -->
<g id="edge1" class="edge">
<title>Node2&#45;&gt;Node1</title>
<path fill="none" stroke="black" d="M124.39,-27.5C133.35,-27.5 142.37,-27.5 150.83,-27.5"/>
<polygon fill="black" stroke="black" points="124.32,-24 114.32,-27.5 124.32,-31 124.32,-24"/>
</g>
<!-- Node1&#45;&gt;Node3 -->
<g id="edge2" class="edge">
<title>Node1&#45;&gt;Node3</title>
<path fill="none" stroke="black" d="M252.31,-31.91C254.91,-32.11 257.48,-32.31 260,-32.5 304.33,-35.84 354.26,-39.37 392.89,-42.05"/>
<polygon fill="black" stroke="black" points="252.46,-28.42 242.22,-31.13 251.92,-35.39 252.46,-28.42"/>
</g>
<!-- Node4 -->
<g id="node4" class="node">
<title>Node4</title>
<g id="a_node4"><a xlink:href="group__TrilinosWrappers.html" target="_top" xlink:title=" ">
<polygon fill="white" stroke="black" points="503.5,-19 414.5,-19 414.5,0 503.5,0 503.5,-19"/>
<text text-anchor="middle" x="459" y="-7" font-family="Helvetica,sans-Serif" font-size="10.00">TrilinosWrappers</text>
</a>
</g>
</g>
<!-- Node1&#45;&gt;Node4 -->
<g id="edge3" class="edge">
<title>Node1&#45;&gt;Node4</title>
<path fill="none" stroke="orange" stroke-dasharray="5,2" d="M226.43,-17.95C236.88,-14.94 248.86,-12.02 260,-10.5 312.62,-3.34 373.85,-4.45 414.12,-6.47"/>
<text text-anchor="start" x="260" y="-24.5" font-family="Helvetica,sans-Serif" font-size="10.00">TrilinosWrappers::Sparsity</text>
<text text-anchor="middle" x="317.5" y="-13.5" font-family="Helvetica,sans-Serif" font-size="10.00">Pattern</text>
</g>
</g>
</svg>
