<?xml version="1.0" encoding="UTF-8" standalone="no"?>
<!DOCTYPE svg PUBLIC "-//W3C//DTD SVG 1.1//EN"
 "http://www.w3.org/Graphics/SVG/1.1/DTD/svg11.dtd">
<!-- Generated by graphviz version 2.47.1 (20210417.1919)
 -->
<!-- Title: hp&#45;Collections Pages: 1 -->
<svg width="344pt" height="95pt"
 viewBox="0.00 0.00 344.00 94.50" xmlns="http://www.w3.org/2000/svg" xmlns:xlink="http://www.w3.org/1999/xlink">
<g id="graph0" class="graph" transform="scale(1 1) rotate(0) translate(4 90.5)">
<title>hp&#45;Collections</title>
<polygon fill="white" stroke="transparent" points="-4,4 -4,-90.5 340,-90.5 340,4 -4,4"/>
<!-- Node1 -->
<g id="node1" class="node">
<title>Node1</title>
<g id="a_node1"><a xlink:title=" ">
<polygon fill="#bfbfbf" stroke="black" points="79,-19 0,-19 0,0 79,0 79,-19"/>
<text text-anchor="middle" x="39.5" y="-7" font-family="Helvetica,sans-Serif" font-size="10.00">hp&#45;Collections</text>
</a>
</g>
</g>
<!-- Node2 -->
<g id="node2" class="node">
<title>Node2</title>
<g id="a_node2"><a xlink:href="group__hp.html" target="_top" xlink:title=" ">
<polygon fill="white" stroke="black" points="336,-19 212,-19 212,0 336,0 336,-19"/>
<text text-anchor="middle" x="274" y="-7" font-family="Helvetica,sans-Serif" font-size="10.00">hp&#45;finite element support</text>
</a>
</g>
</g>
<!-- Node1&#45;&gt;Node2 -->
<g id="edge2" class="edge">
<title>Node1&#45;&gt;Node2</title>
<path fill="none" stroke="orange" stroke-dasharray="5,2" d="M79.15,-9.5C115.31,-9.5 169.89,-9.5 211.94,-9.5"/>
<text text-anchor="middle" x="145.5" y="-78.5" font-family="Helvetica,sans-Serif" font-size="10.00">hp::Collection</text>
<text text-anchor="middle" x="145.5" y="-67.5" font-family="Helvetica,sans-Serif" font-size="10.00">hp::FECollection</text>
<text text-anchor="middle" x="145.5" y="-56.5" font-family="Helvetica,sans-Serif" font-size="10.00">hp::FEValues</text>
<text text-anchor="middle" x="145.5" y="-45.5" font-family="Helvetica,sans-Serif" font-size="10.00">hp::FEFaceValues</text>
<text text-anchor="middle" x="145.5" y="-34.5" font-family="Helvetica,sans-Serif" font-size="10.00">hp::FESubfaceValues</text>
<text text-anchor="middle" x="145.5" y="-23.5" font-family="Helvetica,sans-Serif" font-size="10.00">hp::MappingCollection</text>
<text text-anchor="middle" x="145.5" y="-12.5" font-family="Helvetica,sans-Serif" font-size="10.00">hp::QCollection</text>
</g>
<!-- Node2&#45;&gt;Node1 -->
<g id="edge1" class="edge">
<title>Node2&#45;&gt;Node1</title>
<path fill="none" stroke="black" d="M201.68,-7.61C199.09,-7.57 196.52,-7.53 194,-7.5 150.89,-6.95 140.1,-6.74 97,-7.5 91.21,-7.6 85.09,-7.76 79.09,-7.95"/>
<polygon fill="black" stroke="black" points="201.7,-11.11 211.76,-7.8 201.83,-4.11 201.7,-11.11"/>
</g>
</g>
</svg>
