<?xml version="1.0" encoding="UTF-8" standalone="no"?>
<!DOCTYPE svg PUBLIC "-//W3C//DTD SVG 1.1//EN"
 "http://www.w3.org/Graphics/SVG/1.1/DTD/svg11.dtd">
<!-- Generated by graphviz version 2.47.1 (20210417.1919)
 -->
<!-- Title: hp&#45;finite element support Pages: 1 -->
<svg width="371pt" height="139pt"
 viewBox="0.00 0.00 371.00 139.45" xmlns="http://www.w3.org/2000/svg" xmlns:xlink="http://www.w3.org/1999/xlink">
<g id="graph0" class="graph" transform="scale(1 1) rotate(0) translate(4 135.45)">
<title>hp&#45;finite element support</title>
<polygon fill="white" stroke="transparent" points="-4,4 -4,-135.45 367,-135.45 367,4 -4,4"/>
<!-- Node2 -->
<g id="node1" class="node">
<title>Node2</title>
<g id="a_node1"><a xlink:href="group__hpcollection.html" target="_top" xlink:title=" ">
<polygon fill="white" stroke="black" points="349.5,-100 270.5,-100 270.5,-81 349.5,-81 349.5,-100"/>
<text text-anchor="middle" x="310" y="-88" font-family="Helvetica,sans-Serif" font-size="10.00">hp&#45;Collections</text>
</a>
</g>
</g>
<!-- Node1 -->
<g id="node2" class="node">
<title>Node1</title>
<g id="a_node2"><a xlink:title=" ">
<polygon fill="#bfbfbf" stroke="black" points="124,-53 0,-53 0,-34 124,-34 124,-53"/>
<text text-anchor="middle" x="62" y="-41" font-family="Helvetica,sans-Serif" font-size="10.00">hp&#45;finite element support</text>
</a>
</g>
</g>
<!-- Node1&#45;&gt;Node2 -->
<g id="edge1" class="edge">
<title>Node1&#45;&gt;Node2</title>
<path fill="none" stroke="black" d="M74.7,-61.48C88.27,-80.51 112.58,-109.42 142,-121.5 181.88,-137.87 196.82,-130.42 239,-121.5 258.38,-117.4 278.91,-107.57 292.69,-100.07"/>
<polygon fill="black" stroke="black" points="77.46,-59.33 68.92,-53.05 71.69,-63.28 77.46,-59.33"/>
</g>
<!-- Node1&#45;&gt;Node2 -->
<g id="edge2" class="edge">
<title>Node1&#45;&gt;Node2</title>
<path fill="none" stroke="orange" stroke-dasharray="5,2" d="M115.11,-33.97C150.83,-29.51 198.84,-27.63 239,-40.5 263.75,-48.43 287.19,-68.68 299.67,-80.84"/>
<text text-anchor="middle" x="190.5" y="-109.5" font-family="Helvetica,sans-Serif" font-size="10.00">hp::Collection</text>
<text text-anchor="middle" x="190.5" y="-98.5" font-family="Helvetica,sans-Serif" font-size="10.00">hp::FECollection</text>
<text text-anchor="middle" x="190.5" y="-87.5" font-family="Helvetica,sans-Serif" font-size="10.00">hp::FEValues</text>
<text text-anchor="middle" x="190.5" y="-76.5" font-family="Helvetica,sans-Serif" font-size="10.00">hp::FEFaceValues</text>
<text text-anchor="middle" x="190.5" y="-65.5" font-family="Helvetica,sans-Serif" font-size="10.00">hp::FESubfaceValues</text>
<text text-anchor="middle" x="190.5" y="-54.5" font-family="Helvetica,sans-Serif" font-size="10.00">hp::MappingCollection</text>
<text text-anchor="middle" x="190.5" y="-43.5" font-family="Helvetica,sans-Serif" font-size="10.00">hp::QCollection</text>
</g>
<!-- Node3 -->
<g id="node3" class="node">
<title>Node3</title>
<g id="a_node3"><a xlink:href="group__dofs.html" target="_top" xlink:title=" ">
<polygon fill="white" stroke="black" points="363,-19 257,-19 257,0 363,0 363,-19"/>
<text text-anchor="middle" x="310" y="-7" font-family="Helvetica,sans-Serif" font-size="10.00">Degrees of Freedom</text>
</a>
</g>
</g>
<!-- Node1&#45;&gt;Node3 -->
<g id="edge3" class="edge">
<title>Node1&#45;&gt;Node3</title>
<path fill="none" stroke="orange" stroke-dasharray="5,2" d="M80.25,-33.98C95.85,-25.94 119.72,-15.04 142,-10.5 179.93,-2.78 223.71,-2.84 256.93,-4.66"/>
<text text-anchor="middle" x="190.5" y="-13.5" font-family="Helvetica,sans-Serif" font-size="10.00">hp::DoFHandler</text>
</g>
</g>
</svg>
