<?xml version="1.0" encoding="UTF-8" standalone="no"?>
<!DOCTYPE svg PUBLIC "-//W3C//DTD SVG 1.1//EN"
 "http://www.w3.org/Graphics/SVG/1.1/DTD/svg11.dtd">
<!-- Generated by graphviz version 2.47.1 (20210417.1919)
 -->
<!-- Title: Finite element space descriptions Pages: 1 -->
<svg width="462pt" height="92pt"
 viewBox="0.00 0.00 462.00 92.00" xmlns="http://www.w3.org/2000/svg" xmlns:xlink="http://www.w3.org/1999/xlink">
<g id="graph0" class="graph" transform="scale(1 1) rotate(0) translate(4 88)">
<title>Finite element space descriptions</title>
<polygon fill="white" stroke="transparent" points="-4,4 -4,-88 458,-88 458,4 -4,4"/>
<!-- Node4 -->
<g id="node1" class="node">
<title>Node4</title>
<g id="a_node1"><a xlink:href="group__febase.html" target="_top" xlink:title=" ">
<polygon fill="white" stroke="black" points="434,-80.5 358,-80.5 358,-61.5 434,-61.5 434,-80.5"/>
<text text-anchor="middle" x="396" y="-68.5" font-family="Helvetica,sans-Serif" font-size="10.00">Base classes</text>
</a>
</g>
</g>
<!-- Node2 -->
<g id="node2" class="node">
<title>Node2</title>
<g id="a_node2"><a xlink:href="group__feall.html" target="_top" xlink:title=" ">
<polygon fill="white" stroke="black" points="83,-52.5 0,-52.5 0,-33.5 83,-33.5 83,-52.5"/>
<text text-anchor="middle" x="41.5" y="-40.5" font-family="Helvetica,sans-Serif" font-size="10.00">Finite elements</text>
</a>
</g>
</g>
<!-- Node1 -->
<g id="node4" class="node">
<title>Node1</title>
<g id="a_node4"><a xlink:title=" ">
<polygon fill="#bfbfbf" stroke="black" points="227,-58 120,-58 120,-28 227,-28 227,-58"/>
<text text-anchor="start" x="128" y="-46" font-family="Helvetica,sans-Serif" font-size="10.00">Finite element space</text>
<text text-anchor="middle" x="173.5" y="-35" font-family="Helvetica,sans-Serif" font-size="10.00"> descriptions</text>
</a>
</g>
</g>
<!-- Node2&#45;&gt;Node1 -->
<g id="edge1" class="edge">
<title>Node2&#45;&gt;Node1</title>
<path fill="none" stroke="black" d="M93.32,-43C102.06,-43 111.15,-43 119.93,-43"/>
<polygon fill="black" stroke="black" points="93.28,-39.5 83.28,-43 93.28,-46.5 93.28,-39.5"/>
</g>
<!-- Node3 -->
<g id="node3" class="node">
<title>Node3</title>
<g id="a_node3"><a xlink:href="group__vector__valued.html" target="_top" xlink:title=" ">
<polygon fill="white" stroke="black" points="454,-30 338,-30 338,0 454,0 454,-30"/>
<text text-anchor="start" x="346" y="-18" font-family="Helvetica,sans-Serif" font-size="10.00">Handling vector valued</text>
<text text-anchor="middle" x="396" y="-7" font-family="Helvetica,sans-Serif" font-size="10.00"> problems</text>
</a>
</g>
</g>
<!-- Node1&#45;&gt;Node4 -->
<g id="edge3" class="edge">
<title>Node1&#45;&gt;Node4</title>
<path fill="none" stroke="orange" stroke-dasharray="5,2" d="M227.04,-49.67C267.29,-54.78 321.83,-61.71 357.7,-66.26"/>
<text text-anchor="middle" x="282.5" y="-76" font-family="Helvetica,sans-Serif" font-size="10.00">FiniteElement</text>
<text text-anchor="middle" x="282.5" y="-65" font-family="Helvetica,sans-Serif" font-size="10.00">FESystem</text>
</g>
<!-- Node1&#45;&gt;Node3 -->
<g id="edge2" class="edge">
<title>Node1&#45;&gt;Node3</title>
<path fill="none" stroke="orange" stroke-dasharray="5,2" d="M206.43,-27.99C218.27,-23.17 231.99,-18.45 245,-16 275.33,-10.29 309.72,-9.65 337.91,-10.61"/>
<text text-anchor="middle" x="282.5" y="-41" font-family="Helvetica,sans-Serif" font-size="10.00">BlockMask</text>
<text text-anchor="middle" x="282.5" y="-30" font-family="Helvetica,sans-Serif" font-size="10.00">ComponentMask</text>
<text text-anchor="middle" x="282.5" y="-19" font-family="Helvetica,sans-Serif" font-size="10.00">FESystem</text>
</g>
</g>
</svg>
