<?xml version="1.0" encoding="UTF-8" standalone="no"?>
<!DOCTYPE svg PUBLIC "-//W3C//DTD SVG 1.1//EN"
 "http://www.w3.org/Graphics/SVG/1.1/DTD/svg11.dtd">
<!-- Generated by graphviz version 2.47.1 (20210417.1919)
 -->
<!-- Title: Linear solver classes Pages: 1 -->
<svg width="522pt" height="38pt"
 viewBox="0.00 0.00 522.00 38.00" xmlns="http://www.w3.org/2000/svg" xmlns:xlink="http://www.w3.org/1999/xlink">
<g id="graph0" class="graph" transform="scale(1 1) rotate(0) translate(4 34)">
<title>Linear solver classes</title>
<polygon fill="white" stroke="transparent" points="-4,4 -4,-34 518,-34 518,4 -4,4"/>
<!-- Node2 -->
<g id="node1" class="node">
<title>Node2</title>
<g id="a_node1"><a xlink:href="group__LAC.html" target="_top" xlink:title=" ">
<polygon fill="white" stroke="black" points="114,-24.5 0,-24.5 0,-5.5 114,-5.5 114,-24.5"/>
<text text-anchor="middle" x="57" y="-12.5" font-family="Helvetica,sans-Serif" font-size="10.00">Linear algebra classes</text>
</a>
</g>
</g>
<!-- Node1 -->
<g id="node3" class="node">
<title>Node1</title>
<g id="a_node3"><a xlink:title=" ">
<polygon fill="#bfbfbf" stroke="black" points="260,-24.5 151,-24.5 151,-5.5 260,-5.5 260,-24.5"/>
<text text-anchor="middle" x="205.5" y="-12.5" font-family="Helvetica,sans-Serif" font-size="10.00">Linear solver classes</text>
</a>
</g>
</g>
<!-- Node2&#45;&gt;Node1 -->
<g id="edge1" class="edge">
<title>Node2&#45;&gt;Node1</title>
<path fill="none" stroke="black" d="M124.42,-15C133.18,-15 142.08,-15 150.6,-15"/>
<polygon fill="black" stroke="black" points="124.22,-11.5 114.22,-15 124.22,-18.5 124.22,-11.5"/>
</g>
<!-- Node3 -->
<g id="node2" class="node">
<title>Node3</title>
<g id="a_node2"><a xlink:href="group__Preconditioners.html" target="_top" xlink:title=" ">
<polygon fill="white" stroke="black" points="514,-30 402,-30 402,0 514,0 514,-30"/>
<text text-anchor="start" x="410" y="-18" font-family="Helvetica,sans-Serif" font-size="10.00">Preconditioners and</text>
<text text-anchor="middle" x="458" y="-7" font-family="Helvetica,sans-Serif" font-size="10.00"> Relaxation Operators</text>
</a>
</g>
</g>
<!-- Node1&#45;&gt;Node3 -->
<g id="edge2" class="edge">
<title>Node1&#45;&gt;Node3</title>
<path fill="none" stroke="orange" stroke-dasharray="5,2" d="M260.24,-15C301.93,-15 359.52,-15 401.62,-15"/>
<text text-anchor="middle" x="331" y="-18" font-family="Helvetica,sans-Serif" font-size="10.00">SparseDirectUMFPACK</text>
</g>
</g>
</svg>
