<?xml version="1.0" encoding="UTF-8" standalone="no"?>
<!DOCTYPE svg PUBLIC "-//W3C//DTD SVG 1.1//EN"
 "http://www.w3.org/Graphics/SVG/1.1/DTD/svg11.dtd">
<!-- Generated by graphviz version 2.47.1 (20210417.1919)
 -->
<!-- Title: Graphical output Pages: 1 -->
<svg width="431pt" height="64pt"
 viewBox="0.00 0.00 431.00 64.00" xmlns="http://www.w3.org/2000/svg" xmlns:xlink="http://www.w3.org/1999/xlink">
<g id="graph0" class="graph" transform="scale(1 1) rotate(0) translate(4 60)">
<title>Graphical output</title>
<polygon fill="white" stroke="transparent" points="-4,4 -4,-60 427,-60 427,4 -4,4"/>
<!-- Node2 -->
<g id="node1" class="node">
<title>Node2</title>
<g id="a_node1"><a xlink:href="group__IO.html" target="_top" xlink:title=" ">
<polygon fill="white" stroke="black" points="71,-37 0,-37 0,-18 71,-18 71,-37"/>
<text text-anchor="middle" x="35.5" y="-25" font-family="Helvetica,sans-Serif" font-size="10.00">Input/Output</text>
</a>
</g>
</g>
<!-- Node1 -->
<g id="node2" class="node">
<title>Node1</title>
<g id="a_node2"><a xlink:title=" ">
<polygon fill="#bfbfbf" stroke="black" points="196,-37 108,-37 108,-18 196,-18 196,-37"/>
<text text-anchor="middle" x="152" y="-25" font-family="Helvetica,sans-Serif" font-size="10.00">Graphical output</text>
</a>
</g>
</g>
<!-- Node2&#45;&gt;Node1 -->
<g id="edge1" class="edge">
<title>Node2&#45;&gt;Node1</title>
<path fill="none" stroke="black" d="M81.23,-27.5C90.02,-27.5 99.22,-27.5 107.95,-27.5"/>
<polygon fill="black" stroke="black" points="81.16,-24 71.16,-27.5 81.16,-31 81.16,-24"/>
</g>
<!-- Node4 -->
<g id="node3" class="node">
<title>Node4</title>
<g id="a_node3"><a xlink:href="group__grid.html" target="_top" xlink:title=" ">
<polygon fill="white" stroke="black" points="423,-56 301,-56 301,-37 423,-37 423,-56"/>
<text text-anchor="middle" x="362" y="-44" font-family="Helvetica,sans-Serif" font-size="10.00">Grids and Triangulations</text>
</a>
</g>
</g>
<!-- Node1&#45;&gt;Node4 -->
<g id="edge3" class="edge">
<title>Node1&#45;&gt;Node4</title>
<path fill="none" stroke="orange" stroke-dasharray="5,2" d="M196.1,-31.44C226.32,-34.2 267.14,-37.93 300.61,-40.98"/>
<text text-anchor="middle" x="248.5" y="-41.5" font-family="Helvetica,sans-Serif" font-size="10.00">GridOut</text>
</g>
<!-- Node3 -->
<g id="node4" class="node">
<title>Node3</title>
<g id="a_node4"><a xlink:href="group__input.html" target="_top" xlink:title=" ">
<polygon fill="white" stroke="black" points="381,-19 343,-19 343,0 381,0 381,-19"/>
<text text-anchor="middle" x="362" y="-7" font-family="Helvetica,sans-Serif" font-size="10.00">Input</text>
</a>
</g>
</g>
<!-- Node1&#45;&gt;Node3 -->
<g id="edge2" class="edge">
<title>Node1&#45;&gt;Node3</title>
<path fill="none" stroke="orange" stroke-dasharray="5,2" d="M189.24,-17.94C197.33,-16.15 205.92,-14.53 214,-13.5 260.09,-7.64 314.95,-8.09 342.81,-8.84"/>
<text text-anchor="middle" x="248.5" y="-16.5" font-family="Helvetica,sans-Serif" font-size="10.00">DataOutReader</text>
</g>
</g>
</svg>
