<?xml version="1.0" encoding="UTF-8" standalone="no"?>
<!DOCTYPE svg PUBLIC "-//W3C//DTD SVG 1.1//EN"
 "http://www.w3.org/Graphics/SVG/1.1/DTD/svg11.dtd">
<!-- Generated by graphviz version 2.47.1 (20210417.1919)
 -->
<!-- Title: Input Pages: 1 -->
<svg width="381pt" height="64pt"
 viewBox="0.00 0.00 381.00 64.00" xmlns="http://www.w3.org/2000/svg" xmlns:xlink="http://www.w3.org/1999/xlink">
<g id="graph0" class="graph" transform="scale(1 1) rotate(0) translate(4 60)">
<title>Input</title>
<polygon fill="white" stroke="transparent" points="-4,4 -4,-60 377,-60 377,4 -4,4"/>
<!-- Node2 -->
<g id="node1" class="node">
<title>Node2</title>
<g id="a_node1"><a xlink:href="group__IO.html" target="_top" xlink:title=" ">
<polygon fill="white" stroke="black" points="71,-37 0,-37 0,-18 71,-18 71,-37"/>
<text text-anchor="middle" x="35.5" y="-25" font-family="Helvetica,sans-Serif" font-size="10.00">Input/Output</text>
</a>
</g>
</g>
<!-- Node1 -->
<g id="node4" class="node">
<title>Node1</title>
<g id="a_node4"><a xlink:title=" ">
<polygon fill="#bfbfbf" stroke="black" points="146,-37 108,-37 108,-18 146,-18 146,-37"/>
<text text-anchor="middle" x="127" y="-25" font-family="Helvetica,sans-Serif" font-size="10.00">Input</text>
</a>
</g>
</g>
<!-- Node2&#45;&gt;Node1 -->
<g id="edge1" class="edge">
<title>Node2&#45;&gt;Node1</title>
<path fill="none" stroke="black" d="M81.3,-27.5C90.76,-27.5 100.23,-27.5 108,-27.5"/>
<polygon fill="black" stroke="black" points="81.1,-24 71.1,-27.5 81.1,-31 81.1,-24"/>
</g>
<!-- Node3 -->
<g id="node2" class="node">
<title>Node3</title>
<g id="a_node2"><a xlink:href="group__output.html" target="_top" xlink:title=" ">
<polygon fill="white" stroke="black" points="356,-56 268,-56 268,-37 356,-37 356,-56"/>
<text text-anchor="middle" x="312" y="-44" font-family="Helvetica,sans-Serif" font-size="10.00">Graphical output</text>
</a>
</g>
</g>
<!-- Node4 -->
<g id="node3" class="node">
<title>Node4</title>
<g id="a_node3"><a xlink:href="group__grid.html" target="_top" xlink:title=" ">
<polygon fill="white" stroke="black" points="373,-19 251,-19 251,0 373,0 373,-19"/>
<text text-anchor="middle" x="312" y="-7" font-family="Helvetica,sans-Serif" font-size="10.00">Grids and Triangulations</text>
</a>
</g>
</g>
<!-- Node1&#45;&gt;Node3 -->
<g id="edge2" class="edge">
<title>Node1&#45;&gt;Node3</title>
<path fill="none" stroke="orange" stroke-dasharray="5,2" d="M146.22,-29.39C174.33,-32.31 229.09,-38 267.75,-42.01"/>
<text text-anchor="middle" x="198.5" y="-40.5" font-family="Helvetica,sans-Serif" font-size="10.00">DataOutReader</text>
</g>
<!-- Node1&#45;&gt;Node4 -->
<g id="edge3" class="edge">
<title>Node1&#45;&gt;Node4</title>
<path fill="none" stroke="orange" stroke-dasharray="5,2" d="M146.32,-18.98C151.88,-16.78 158.08,-14.69 164,-13.5 192.15,-7.82 223.95,-6.36 250.75,-6.51"/>
<text text-anchor="middle" x="198.5" y="-16.5" font-family="Helvetica,sans-Serif" font-size="10.00">GridIn</text>
</g>
</g>
</svg>
