<?xml version="1.0" encoding="UTF-8" standalone="no"?>
<!DOCTYPE svg PUBLIC "-//W3C//DTD SVG 1.1//EN"
 "http://www.w3.org/Graphics/SVG/1.1/DTD/svg11.dtd">
<!-- Generated by graphviz version 2.47.1 (20210417.1919)
 -->
<!-- Title: Degrees of Freedom Pages: 1 -->
<svg width="439pt" height="156pt"
 viewBox="0.00 0.00 439.00 155.50" xmlns="http://www.w3.org/2000/svg" xmlns:xlink="http://www.w3.org/1999/xlink">
<g id="graph0" class="graph" transform="scale(1 1) rotate(0) translate(4 151.5)">
<title>Degrees of Freedom</title>
<polygon fill="white" stroke="transparent" points="-4,4 -4,-151.5 435,-151.5 435,4 -4,4"/>
<!-- Node2 -->
<g id="node1" class="node">
<title>Node2</title>
<g id="a_node1"><a xlink:href="group__constraints.html" target="_top" xlink:title=" ">
<polygon fill="white" stroke="black" points="428,-147.5 310,-147.5 310,-117.5 428,-117.5 428,-147.5"/>
<text text-anchor="start" x="318" y="-135.5" font-family="Helvetica,sans-Serif" font-size="10.00">Constraints on degrees</text>
<text text-anchor="middle" x="369" y="-124.5" font-family="Helvetica,sans-Serif" font-size="10.00"> of freedom</text>
</a>
</g>
</g>
<!-- Node3 -->
<g id="node2" class="node">
<title>Node3</title>
<g id="a_node2"><a xlink:href="group__Accessors.html" target="_top" xlink:title=" ">
<polygon fill="white" stroke="black" points="422,-67.5 316,-67.5 316,-37.5 422,-37.5 422,-67.5"/>
<text text-anchor="start" x="324" y="-55.5" font-family="Helvetica,sans-Serif" font-size="10.00">Accessor classes of</text>
<text text-anchor="middle" x="369" y="-44.5" font-family="Helvetica,sans-Serif" font-size="10.00"> the mesh iterators</text>
</a>
</g>
</g>
<!-- Node4 -->
<g id="node3" class="node">
<title>Node4</title>
<g id="a_node3"><a xlink:href="group__hp.html" target="_top" xlink:title=" ">
<polygon fill="white" stroke="black" points="431,-19 307,-19 307,0 431,0 431,-19"/>
<text text-anchor="middle" x="369" y="-7" font-family="Helvetica,sans-Serif" font-size="10.00">hp&#45;finite element support</text>
</a>
</g>
</g>
<!-- Node1 -->
<g id="node4" class="node">
<title>Node1</title>
<g id="a_node4"><a xlink:title=" ">
<polygon fill="#bfbfbf" stroke="black" points="106,-95 0,-95 0,-76 106,-76 106,-95"/>
<text text-anchor="middle" x="53" y="-83" font-family="Helvetica,sans-Serif" font-size="10.00">Degrees of Freedom</text>
</a>
</g>
</g>
<!-- Node1&#45;&gt;Node2 -->
<g id="edge1" class="edge">
<title>Node1&#45;&gt;Node2</title>
<path fill="none" stroke="black" d="M72.24,-101.78C85.55,-112.52 104.58,-125.65 124,-131.5 185.45,-150.02 259.62,-146.97 309.94,-141.39"/>
<polygon fill="black" stroke="black" points="74.28,-98.93 64.38,-95.17 69.78,-104.29 74.28,-98.93"/>
</g>
<!-- Node1&#45;&gt;Node2 -->
<g id="edge4" class="edge">
<title>Node1&#45;&gt;Node2</title>
<path fill="none" stroke="orange" stroke-dasharray="5,2" d="M106.33,-94.72C112.28,-95.7 118.27,-96.64 124,-97.5 197.11,-108.41 215.92,-107.38 289,-118.5 295.75,-119.53 302.81,-120.67 309.81,-121.86"/>
<text text-anchor="middle" x="206.5" y="-121.5" font-family="Helvetica,sans-Serif" font-size="10.00">AffineConstraints</text>
</g>
<!-- Node1&#45;&gt;Node3 -->
<g id="edge2" class="edge">
<title>Node1&#45;&gt;Node3</title>
<path fill="none" stroke="orange" stroke-dasharray="5,2" d="M69.72,-75.95C83.48,-68.19 104.29,-57.83 124,-53.5 188.96,-39.22 266.01,-42.08 315.89,-46.43"/>
<text text-anchor="start" x="124" y="-89.5" font-family="Helvetica,sans-Serif" font-size="10.00">internal::DoFAccessorImplementation</text>
<text text-anchor="middle" x="206.5" y="-78.5" font-family="Helvetica,sans-Serif" font-size="10.00">::Inheritance</text>
<text text-anchor="middle" x="206.5" y="-67.5" font-family="Helvetica,sans-Serif" font-size="10.00">DoFAccessor</text>
<text text-anchor="middle" x="206.5" y="-56.5" font-family="Helvetica,sans-Serif" font-size="10.00">DoFCellAccessor</text>
</g>
<!-- Node1&#45;&gt;Node4 -->
<g id="edge3" class="edge">
<title>Node1&#45;&gt;Node4</title>
<path fill="none" stroke="orange" stroke-dasharray="5,2" d="M62.28,-75.55C74.28,-61.93 97.94,-37.99 124,-27.5 182.81,-3.82 255.98,-1.63 306.78,-3.93"/>
<text text-anchor="middle" x="206.5" y="-30.5" font-family="Helvetica,sans-Serif" font-size="10.00">hp::DoFHandler</text>
</g>
</g>
</svg>
