<?xml version="1.0" encoding="UTF-8" standalone="no"?>
<!DOCTYPE svg PUBLIC "-//W3C//DTD SVG 1.1//EN"
 "http://www.w3.org/Graphics/SVG/1.1/DTD/svg11.dtd">
<!-- Generated by graphviz version 2.47.1 (20210417.1919)
 -->
<!-- Title: Grids and Triangulations Pages: 1 -->
<svg width="360pt" height="350pt"
 viewBox="0.00 0.00 360.00 349.50" xmlns="http://www.w3.org/2000/svg" xmlns:xlink="http://www.w3.org/1999/xlink">
<g id="graph0" class="graph" transform="scale(1 1) rotate(0) translate(4 345.5)">
<title>Grids and Triangulations</title>
<polygon fill="white" stroke="transparent" points="-4,4 -4,-345.5 356,-345.5 356,4 -4,4"/>
<!-- Node3 -->
<g id="node1" class="node">
<title>Node3</title>
<g id="a_node1"><a xlink:href="group__manifold.html" target="_top" xlink:title=" ">
<polygon fill="white" stroke="black" points="348.5,-341.5 244.5,-341.5 244.5,-311.5 348.5,-311.5 348.5,-341.5"/>
<text text-anchor="start" x="252.5" y="-329.5" font-family="Helvetica,sans-Serif" font-size="10.00">Manifold description</text>
<text text-anchor="middle" x="296.5" y="-318.5" font-family="Helvetica,sans-Serif" font-size="10.00"> for triangulations</text>
</a>
</g>
</g>
<!-- Node4 -->
<g id="node2" class="node">
<title>Node4</title>
<g id="a_node2"><a xlink:href="group__reordering.html" target="_top" xlink:title="A module describing how deal.II consistently orients Triangulation objects.">
<polygon fill="white" stroke="black" points="346,-293.5 247,-293.5 247,-263.5 346,-263.5 346,-293.5"/>
<text text-anchor="start" x="255" y="-281.5" font-family="Helvetica,sans-Serif" font-size="10.00">Grid reordering and</text>
<text text-anchor="middle" x="296.5" y="-270.5" font-family="Helvetica,sans-Serif" font-size="10.00"> cell orientation</text>
</a>
</g>
</g>
<!-- Node7 -->
<g id="node3" class="node">
<title>Node7</title>
<g id="a_node3"><a xlink:href="group__output.html" target="_top" xlink:title=" ">
<polygon fill="white" stroke="black" points="340.5,-245 252.5,-245 252.5,-226 340.5,-226 340.5,-245"/>
<text text-anchor="middle" x="296.5" y="-233" font-family="Helvetica,sans-Serif" font-size="10.00">Graphical output</text>
</a>
</g>
</g>
<!-- Node8 -->
<g id="node4" class="node">
<title>Node8</title>
<g id="a_node4"><a xlink:href="group__Accessors.html" target="_top" xlink:title=" ">
<polygon fill="white" stroke="black" points="349.5,-206.5 243.5,-206.5 243.5,-176.5 349.5,-176.5 349.5,-206.5"/>
<text text-anchor="start" x="251.5" y="-194.5" font-family="Helvetica,sans-Serif" font-size="10.00">Accessor classes of</text>
<text text-anchor="middle" x="296.5" y="-183.5" font-family="Helvetica,sans-Serif" font-size="10.00"> the mesh iterators</text>
</a>
</g>
</g>
<!-- Node5 -->
<g id="node5" class="node">
<title>Node5</title>
<g id="a_node5"><a xlink:href="group__geomprimitives.html" target="_top" xlink:title=" ">
<polygon fill="white" stroke="black" points="349,-150.5 244,-150.5 244,-120.5 349,-120.5 349,-150.5"/>
<text text-anchor="start" x="252" y="-138.5" font-family="Helvetica,sans-Serif" font-size="10.00">Geometric and other</text>
<text text-anchor="middle" x="296.5" y="-127.5" font-family="Helvetica,sans-Serif" font-size="10.00"> primitives</text>
</a>
</g>
</g>
<!-- Node2 -->
<g id="node6" class="node">
<title>Node2</title>
<g id="a_node6"><a xlink:href="group__Iterators.html" target="_top" xlink:title=" ">
<polygon fill="white" stroke="black" points="352,-85.5 241,-85.5 241,-55.5 352,-55.5 352,-85.5"/>
<text text-anchor="start" x="249" y="-73.5" font-family="Helvetica,sans-Serif" font-size="10.00">Iterators on mesh&#45;like</text>
<text text-anchor="middle" x="296.5" y="-62.5" font-family="Helvetica,sans-Serif" font-size="10.00"> containers</text>
</a>
</g>
</g>
<!-- Node1 -->
<g id="node7" class="node">
<title>Node1</title>
<g id="a_node7"><a xlink:title=" ">
<polygon fill="#bfbfbf" stroke="black" points="122,-173 0,-173 0,-154 122,-154 122,-173"/>
<text text-anchor="middle" x="61" y="-161" font-family="Helvetica,sans-Serif" font-size="10.00">Grids and Triangulations</text>
</a>
</g>
</g>
<!-- Node1&#45;&gt;Node3 -->
<g id="edge2" class="edge">
<title>Node1&#45;&gt;Node3</title>
<path fill="none" stroke="black" d="M71.49,-182.22C84.16,-205.48 108.69,-244.97 140,-268.5 170.87,-291.7 212.02,-306.5 244.24,-315.34"/>
<polygon fill="black" stroke="black" points="74.42,-180.28 66.66,-173.07 68.23,-183.55 74.42,-180.28"/>
</g>
<!-- Node1&#45;&gt;Node4 -->
<g id="edge3" class="edge">
<title>Node1&#45;&gt;Node4</title>
<path fill="none" stroke="black" d="M75.15,-181.56C89.19,-199.51 113.09,-226.47 140,-241.5 172.95,-259.91 214.77,-269.2 246.75,-273.87"/>
<polygon fill="black" stroke="black" points="77.57,-178.96 68.74,-173.1 71.99,-183.19 77.57,-178.96"/>
</g>
<!-- Node1&#45;&gt;Node7 -->
<g id="edge7" class="edge">
<title>Node1&#45;&gt;Node7</title>
<path fill="none" stroke="orange" stroke-dasharray="5,2" d="M75.69,-173.11C90.75,-183.23 116.01,-198.86 140,-207.5 176.64,-220.71 220.48,-227.88 252.26,-231.64"/>
<text text-anchor="middle" x="181.5" y="-229.5" font-family="Helvetica,sans-Serif" font-size="10.00">GridOut</text>
</g>
<!-- Node1&#45;&gt;Node8 -->
<g id="edge8" class="edge">
<title>Node1&#45;&gt;Node8</title>
<path fill="none" stroke="orange" stroke-dasharray="5,2" d="M122.13,-170.71C159.56,-175.2 207.24,-180.92 243.11,-185.22"/>
<text text-anchor="middle" x="181.5" y="-195.5" font-family="Helvetica,sans-Serif" font-size="10.00">TriaAccessorBase</text>
<text text-anchor="middle" x="181.5" y="-184.5" font-family="Helvetica,sans-Serif" font-size="10.00">CellAccessor</text>
</g>
<!-- Node1&#45;&gt;Node5 -->
<g id="edge4" class="edge">
<title>Node1&#45;&gt;Node5</title>
<path fill="none" stroke="orange" stroke-dasharray="5,2" d="M83.35,-153.98C98.75,-147.65 120.23,-139.89 140,-136.5 174.19,-130.64 213.24,-130.41 243.65,-131.63"/>
<text text-anchor="middle" x="181.5" y="-161.5" font-family="Helvetica,sans-Serif" font-size="10.00">GeometryInfo&lt; 0 &gt;</text>
<text text-anchor="middle" x="181.5" y="-150.5" font-family="Helvetica,sans-Serif" font-size="10.00">GeometryInfo</text>
<text text-anchor="middle" x="181.5" y="-139.5" font-family="Helvetica,sans-Serif" font-size="10.00">ReferenceCell</text>
</g>
<!-- Node1&#45;&gt;Node2 -->
<g id="edge1" class="edge">
<title>Node1&#45;&gt;Node2</title>
<path fill="none" stroke="black" d="M90.08,-149.37C104.79,-142.17 123.2,-133.49 140,-126.5 176.56,-111.29 218.89,-96.2 250.15,-85.53"/>
<polygon fill="black" stroke="black" points="88.42,-146.29 81,-153.85 91.52,-152.56 88.42,-146.29"/>
</g>
<!-- Node1&#45;&gt;Node2 -->
<g id="edge5" class="edge">
<title>Node1&#45;&gt;Node2</title>
<path fill="none" stroke="orange" stroke-dasharray="5,2" d="M64.94,-153.97C72.72,-130.62 96.3,-70.77 140,-47.5 179.38,-26.52 231.89,-41.72 264.69,-55.45"/>
<text text-anchor="middle" x="181.5" y="-83.5" font-family="Helvetica,sans-Serif" font-size="10.00">FilteredIterator</text>
<text text-anchor="middle" x="181.5" y="-72.5" font-family="Helvetica,sans-Serif" font-size="10.00">TriaRawIterator</text>
<text text-anchor="middle" x="181.5" y="-61.5" font-family="Helvetica,sans-Serif" font-size="10.00">TriaIterator</text>
<text text-anchor="middle" x="181.5" y="-50.5" font-family="Helvetica,sans-Serif" font-size="10.00">TriaActiveIterator</text>
</g>
<!-- Node6 -->
<g id="node8" class="node">
<title>Node6</title>
<g id="a_node8"><a xlink:href="group__input.html" target="_top" xlink:title=" ">
<polygon fill="white" stroke="black" points="315.5,-19 277.5,-19 277.5,0 315.5,0 315.5,-19"/>
<text text-anchor="middle" x="296.5" y="-7" font-family="Helvetica,sans-Serif" font-size="10.00">Input</text>
</a>
</g>
</g>
<!-- Node1&#45;&gt;Node6 -->
<g id="edge6" class="edge">
<title>Node1&#45;&gt;Node6</title>
<path fill="none" stroke="orange" stroke-dasharray="5,2" d="M64.05,-153.82C70.19,-127.44 91.15,-54.12 140,-22.5 182.76,5.17 246.58,-0.79 277.46,-5.91"/>
<text text-anchor="middle" x="181.5" y="-25.5" font-family="Helvetica,sans-Serif" font-size="10.00">GridIn</text>
</g>
</g>
</svg>
