<?xml version="1.0" encoding="UTF-8" standalone="no"?>
<!DOCTYPE svg PUBLIC "-//W3C//DTD SVG 1.1//EN"
 "http://www.w3.org/Graphics/SVG/1.1/DTD/svg11.dtd">
<!-- Generated by graphviz version 2.47.1 (20210417.1919)
 -->
<!-- Title: ExtractLevelVisitor&lt; Value, Options, Translator, Box, Allocators &gt; Pages: 1 -->
<svg width="337pt" height="72pt"
 viewBox="0.00 0.00 337.00 72.00" xmlns="http://www.w3.org/2000/svg" xmlns:xlink="http://www.w3.org/1999/xlink">
<g id="graph0" class="graph" transform="scale(1 1) rotate(0) translate(4 68)">
<title>ExtractLevelVisitor&lt; Value, Options, Translator, Box, Allocators &gt;</title>
<polygon fill="white" stroke="transparent" points="-4,4 -4,-68 333,-68 333,4 -4,4"/>
<!-- Node1 -->
<g id="node1" class="node">
<title>Node1</title>
<g id="a_node1"><a xlink:title=" ">
<polygon fill="#bfbfbf" stroke="black" points="188,-11.5 188,-52.5 329,-52.5 329,-11.5 188,-11.5"/>
<text text-anchor="start" x="196" y="-40.5" font-family="Helvetica,sans-Serif" font-size="10.00">ExtractLevelVisitor</text>
<text text-anchor="start" x="196" y="-29.5" font-family="Helvetica,sans-Serif" font-size="10.00">&lt; Value, Options, Translator,</text>
<text text-anchor="middle" x="258.5" y="-18.5" font-family="Helvetica,sans-Serif" font-size="10.00"> Box, Allocators &gt;</text>
</a>
</g>
</g>
<!-- Node2 -->
<g id="node2" class="node">
<title>Node2</title>
<g id="a_node2"><a xlink:title=" ">
<polygon fill="white" stroke="#bfbfbf" points="0,-0.5 0,-63.5 152,-63.5 152,-0.5 0,-0.5"/>
<text text-anchor="start" x="8" y="-51.5" font-family="Helvetica,sans-Serif" font-size="10.00">boost::geometry::index</text>
<text text-anchor="start" x="8" y="-40.5" font-family="Helvetica,sans-Serif" font-size="10.00">::detail::rtree::visitor</text>
<text text-anchor="start" x="8" y="-29.5" font-family="Helvetica,sans-Serif" font-size="10.00">&lt; Value, Options::parameters</text>
<text text-anchor="start" x="8" y="-18.5" font-family="Helvetica,sans-Serif" font-size="10.00">_type, Box, Allocators, Options</text>
<text text-anchor="middle" x="76" y="-7.5" font-family="Helvetica,sans-Serif" font-size="10.00">::node_tag, true &gt;::type</text>
</a>
</g>
</g>
<!-- Node2&#45;&gt;Node1 -->
<g id="edge1" class="edge">
<title>Node2&#45;&gt;Node1</title>
<path fill="none" stroke="midnightblue" d="M162.26,-32C170.84,-32 179.48,-32 187.86,-32"/>
<polygon fill="midnightblue" stroke="midnightblue" points="162.24,-28.5 152.24,-32 162.24,-35.5 162.24,-28.5"/>
</g>
</g>
</svg>
