<?xml version="1.0" encoding="UTF-8" standalone="no"?>
<!DOCTYPE svg PUBLIC "-//W3C//DTD SVG 1.1//EN"
 "http://www.w3.org/Graphics/SVG/1.1/DTD/svg11.dtd">
<!-- Generated by graphviz version 2.47.1 (20210417.1919)
 -->
<!-- Title: MemorySpace::MemorySpaceData&lt; Number, MemorySpace &gt; Pages: 1 -->
<svg width="202pt" height="139pt"
 viewBox="0.00 0.00 202.00 139.00" xmlns="http://www.w3.org/2000/svg" xmlns:xlink="http://www.w3.org/1999/xlink">
<g id="graph0" class="graph" transform="scale(1 1) rotate(0) translate(4 135)">
<title>MemorySpace::MemorySpaceData&lt; Number, MemorySpace &gt;</title>
<polygon fill="white" stroke="transparent" points="-4,4 -4,-135 198,-135 198,4 -4,4"/>
<!-- Node1 -->
<g id="node1" class="node">
<title>Node1</title>
<g id="a_node1"><a xlink:title=" ">
<polygon fill="#bfbfbf" stroke="black" points="0,-100.5 0,-130.5 158,-130.5 158,-100.5 0,-100.5"/>
<text text-anchor="start" x="8" y="-118.5" font-family="Helvetica,sans-Serif" font-size="10.00">MemorySpace::MemorySpace</text>
<text text-anchor="middle" x="79" y="-107.5" font-family="Helvetica,sans-Serif" font-size="10.00">Data&lt; Number, MemorySpace &gt;</text>
</a>
</g>
</g>
<!-- Node2 -->
<g id="node2" class="node">
<title>Node2</title>
<g id="a_node2"><a xlink:href="structMemorySpace_1_1MemorySpaceData.html" target="_top" xlink:title=" ">
<polygon fill="white" stroke="black" points="4.5,-0.5 4.5,-41.5 153.5,-41.5 153.5,-0.5 4.5,-0.5"/>
<text text-anchor="start" x="12.5" y="-29.5" font-family="Helvetica,sans-Serif" font-size="10.00">MemorySpace::MemorySpace</text>
<text text-anchor="start" x="12.5" y="-18.5" font-family="Helvetica,sans-Serif" font-size="10.00">Data&lt; Number, MemorySpace</text>
<text text-anchor="middle" x="79" y="-7.5" font-family="Helvetica,sans-Serif" font-size="10.00">::Host &gt;</text>
</a>
</g>
</g>
<!-- Node1&#45;&gt;Node2 -->
<g id="edge1" class="edge">
<title>Node1&#45;&gt;Node2</title>
<path fill="none" stroke="orange" stroke-dasharray="5,2" d="M79,-90.28C79,-75.14 79,-55.88 79,-41.68"/>
<polygon fill="orange" stroke="orange" points="75.5,-90.45 79,-100.45 82.5,-90.45 75.5,-90.45"/>
<text text-anchor="start" x="79" y="-74" font-family="Helvetica,sans-Serif" font-size="10.00"> &lt; Number, MemorySpace</text>
<text text-anchor="middle" x="136.5" y="-63" font-family="Helvetica,sans-Serif" font-size="10.00">::Host &gt;</text>
</g>
</g>
</svg>
