<?xml version="1.0" encoding="UTF-8" standalone="no"?>
<!DOCTYPE svg PUBLIC "-//W3C//DTD SVG 1.1//EN"
 "http://www.w3.org/Graphics/SVG/1.1/DTD/svg11.dtd">
<!-- Generated by graphviz version 2.47.1 (20210417.1919)
 -->
<!-- Title: parallel::ParallelForInteger Pages: 1 -->
<svg width="337pt" height="176pt"
 viewBox="0.00 0.00 337.00 175.50" xmlns="http://www.w3.org/2000/svg" xmlns:xlink="http://www.w3.org/1999/xlink">
<g id="graph0" class="graph" transform="scale(1 1) rotate(0) translate(4 171.5)">
<title>parallel::ParallelForInteger</title>
<polygon fill="white" stroke="transparent" points="-4,4 -4,-171.5 333,-171.5 333,4 -4,4"/>
<!-- Node1 -->
<g id="node1" class="node">
<title>Node1</title>
<g id="a_node1"><a xlink:title=" ">
<polygon fill="#bfbfbf" stroke="black" points="0,-74 0,-93 130,-93 130,-74 0,-74"/>
<text text-anchor="middle" x="65" y="-81" font-family="Helvetica,sans-Serif" font-size="10.00">parallel::ParallelForInteger</text>
</a>
</g>
</g>
<!-- Node2 -->
<g id="node2" class="node">
<title>Node2</title>
<g id="a_node2"><a xlink:href="classinternal_1_1AlignedVectorCopy.html" target="_top" xlink:title=" ">
<polygon fill="white" stroke="black" points="166.5,-148 166.5,-167 328.5,-167 328.5,-148 166.5,-148"/>
<text text-anchor="middle" x="247.5" y="-155" font-family="Helvetica,sans-Serif" font-size="10.00">internal::AlignedVectorCopy&lt; T &gt;</text>
</a>
</g>
</g>
<!-- Node1&#45;&gt;Node2 -->
<g id="edge1" class="edge">
<title>Node1&#45;&gt;Node2</title>
<path fill="none" stroke="#8b1a1a" d="M88.89,-98.44C108.61,-110.73 138.22,-127.81 166,-138.5 175.65,-142.21 186.24,-145.34 196.48,-147.92"/>
<polygon fill="#8b1a1a" stroke="#8b1a1a" points="90.62,-95.4 80.3,-93 86.88,-101.31 90.62,-95.4"/>
</g>
<!-- Node3 -->
<g id="node3" class="node">
<title>Node3</title>
<g id="a_node3"><a xlink:href="classinternal_1_1AlignedVectorDefaultInitialize.html" target="_top" xlink:title=" ">
<polygon fill="white" stroke="black" points="174.5,-88 174.5,-129 320.5,-129 320.5,-88 174.5,-88"/>
<text text-anchor="start" x="182.5" y="-117" font-family="Helvetica,sans-Serif" font-size="10.00">internal::AlignedVectorDefault</text>
<text text-anchor="start" x="182.5" y="-106" font-family="Helvetica,sans-Serif" font-size="10.00">Initialize&lt; T, initialize</text>
<text text-anchor="middle" x="247.5" y="-95" font-family="Helvetica,sans-Serif" font-size="10.00">_memory &gt;</text>
</a>
</g>
</g>
<!-- Node1&#45;&gt;Node3 -->
<g id="edge2" class="edge">
<title>Node1&#45;&gt;Node3</title>
<path fill="none" stroke="#8b1a1a" d="M140.33,-93.79C151.54,-95.35 163.09,-96.95 174.26,-98.49"/>
<polygon fill="#8b1a1a" stroke="#8b1a1a" points="140.53,-90.29 130.15,-92.38 139.57,-97.22 140.53,-90.29"/>
</g>
<!-- Node4 -->
<g id="node4" class="node">
<title>Node4</title>
<g id="a_node4"><a xlink:href="classinternal_1_1AlignedVectorMove.html" target="_top" xlink:title=" ">
<polygon fill="white" stroke="black" points="166,-50 166,-69 329,-69 329,-50 166,-50"/>
<text text-anchor="middle" x="247.5" y="-57" font-family="Helvetica,sans-Serif" font-size="10.00">internal::AlignedVectorMove&lt; T &gt;</text>
</a>
</g>
</g>
<!-- Node1&#45;&gt;Node4 -->
<g id="edge3" class="edge">
<title>Node1&#45;&gt;Node4</title>
<path fill="none" stroke="#8b1a1a" d="M140.13,-73.64C151.61,-72.12 163.46,-70.54 174.88,-69.02"/>
<polygon fill="#8b1a1a" stroke="#8b1a1a" points="139.6,-70.18 130.15,-74.97 140.52,-77.12 139.6,-70.18"/>
</g>
<!-- Node5 -->
<g id="node5" class="node">
<title>Node5</title>
<g id="a_node5"><a xlink:href="classinternal_1_1AlignedVectorSet.html" target="_top" xlink:title=" ">
<polygon fill="white" stroke="black" points="182.5,-0.5 182.5,-30.5 312.5,-30.5 312.5,-0.5 182.5,-0.5"/>
<text text-anchor="start" x="190.5" y="-18.5" font-family="Helvetica,sans-Serif" font-size="10.00">internal::AlignedVectorSet</text>
<text text-anchor="middle" x="247.5" y="-7.5" font-family="Helvetica,sans-Serif" font-size="10.00">&lt; T, initialize_memory &gt;</text>
</a>
</g>
</g>
<!-- Node1&#45;&gt;Node5 -->
<g id="edge4" class="edge">
<title>Node1&#45;&gt;Node5</title>
<path fill="none" stroke="#8b1a1a" d="M95.79,-69.72C115.5,-60.84 142.04,-49.35 166,-40.5 175.34,-37.05 185.39,-33.67 195.13,-30.57"/>
<polygon fill="#8b1a1a" stroke="#8b1a1a" points="94.09,-66.64 86.43,-73.97 96.98,-73.02 94.09,-66.64"/>
</g>
</g>
</svg>
