<?xml version="1.0" encoding="UTF-8" standalone="no"?>
<!DOCTYPE svg PUBLIC "-//W3C//DTD SVG 1.1//EN"
 "http://www.w3.org/Graphics/SVG/1.1/DTD/svg11.dtd">
<!-- Generated by graphviz version 2.47.1 (20210417.1919)
 -->
<!-- Title: DataOutBase::GnuplotFlags Pages: 1 -->
<svg width="157pt" height="174pt"
 viewBox="0.00 0.00 157.00 174.00" xmlns="http://www.w3.org/2000/svg" xmlns:xlink="http://www.w3.org/1999/xlink">
<g id="graph0" class="graph" transform="scale(1 1) rotate(0) translate(4 170)">
<title>DataOutBase::GnuplotFlags</title>
<polygon fill="white" stroke="transparent" points="-4,4 -4,-170 153,-170 153,4 -4,4"/>
<!-- Node1 -->
<g id="node1" class="node">
<title>Node1</title>
<g id="a_node1"><a xlink:title=" ">
<polygon fill="#bfbfbf" stroke="black" points="0,-0.5 0,-19.5 140,-19.5 140,-0.5 0,-0.5"/>
<text text-anchor="middle" x="70" y="-7.5" font-family="Helvetica,sans-Serif" font-size="10.00">DataOutBase::GnuplotFlags</text>
</a>
</g>
</g>
<!-- Node2 -->
<g id="node2" class="node">
<title>Node2</title>
<g id="a_node2"><a xlink:href="structDataOutBase_1_1OutputFlagsBase.html" target="_top" xlink:title=" ">
<polygon fill="white" stroke="black" points="2.5,-57.5 2.5,-87.5 137.5,-87.5 137.5,-57.5 2.5,-57.5"/>
<text text-anchor="start" x="10.5" y="-75.5" font-family="Helvetica,sans-Serif" font-size="10.00">DataOutBase::OutputFlags</text>
<text text-anchor="middle" x="70" y="-64.5" font-family="Helvetica,sans-Serif" font-size="10.00">Base&lt; GnuplotFlags &gt;</text>
</a>
</g>
</g>
<!-- Node2&#45;&gt;Node1 -->
<g id="edge1" class="edge">
<title>Node2&#45;&gt;Node1</title>
<path fill="none" stroke="midnightblue" d="M70,-47.35C70,-37.51 70,-26.78 70,-19.54"/>
<polygon fill="midnightblue" stroke="midnightblue" points="66.5,-47.47 70,-57.47 73.5,-47.47 66.5,-47.47"/>
</g>
<!-- Node3 -->
<g id="node3" class="node">
<title>Node3</title>
<g id="a_node3"><a xlink:href="structDataOutBase_1_1OutputFlagsBase.html" target="_top" xlink:title=" ">
<polygon fill="white" stroke="black" points="2.5,-135.5 2.5,-165.5 137.5,-165.5 137.5,-135.5 2.5,-135.5"/>
<text text-anchor="start" x="10.5" y="-153.5" font-family="Helvetica,sans-Serif" font-size="10.00">DataOutBase::OutputFlags</text>
<text text-anchor="middle" x="70" y="-142.5" font-family="Helvetica,sans-Serif" font-size="10.00">Base&lt; FlagsType &gt;</text>
</a>
</g>
</g>
<!-- Node3&#45;&gt;Node2 -->
<g id="edge2" class="edge">
<title>Node3&#45;&gt;Node2</title>
<path fill="none" stroke="orange" stroke-dasharray="5,2" d="M70,-125.09C70,-112.76 70,-98.22 70,-87.73"/>
<polygon fill="orange" stroke="orange" points="66.5,-125.2 70,-135.2 73.5,-125.21 66.5,-125.2"/>
<text text-anchor="middle" x="109.5" y="-109" font-family="Helvetica,sans-Serif" font-size="10.00"> &lt; GnuplotFlags &gt;</text>
</g>
</g>
</svg>
