<?xml version="1.0" encoding="UTF-8" standalone="no"?>
<!DOCTYPE svg PUBLIC "-//W3C//DTD SVG 1.1//EN"
 "http://www.w3.org/Graphics/SVG/1.1/DTD/svg11.dtd">
<!-- Generated by graphviz version 2.47.1 (20210417.1919)
 -->
<!-- Title: internal::MatrixFreeFunctions::FaceToCellTopology&lt; vectorization_width &gt; Pages: 1 -->
<svg width="184pt" height="128pt"
 viewBox="0.00 0.00 184.00 128.00" xmlns="http://www.w3.org/2000/svg" xmlns:xlink="http://www.w3.org/1999/xlink">
<g id="graph0" class="graph" transform="scale(1 1) rotate(0) translate(4 124)">
<title>internal::MatrixFreeFunctions::FaceToCellTopology&lt; vectorization_width &gt;</title>
<polygon fill="white" stroke="transparent" points="-4,4 -4,-124 180,-124 180,4 -4,4"/>
<!-- Node1 -->
<g id="node1" class="node">
<title>Node1</title>
<g id="a_node1"><a xlink:title=" ">
<polygon fill="#bfbfbf" stroke="black" points="0,-78.5 0,-119.5 176,-119.5 176,-78.5 0,-78.5"/>
<text text-anchor="start" x="8" y="-107.5" font-family="Helvetica,sans-Serif" font-size="10.00">internal::MatrixFreeFunctions</text>
<text text-anchor="start" x="8" y="-96.5" font-family="Helvetica,sans-Serif" font-size="10.00">::FaceToCellTopology&lt; vectorization</text>
<text text-anchor="middle" x="88" y="-85.5" font-family="Helvetica,sans-Serif" font-size="10.00">_width &gt;</text>
</a>
</g>
</g>
<!-- Node2 -->
<g id="node2" class="node">
<title>Node2</title>
<g id="a_node2"><a xlink:href="structinternal_1_1MatrixFreeFunctions_1_1FaceToCellTopology.html" target="_top" xlink:title=" ">
<polygon fill="white" stroke="black" points="16.5,-0.5 16.5,-30.5 159.5,-30.5 159.5,-0.5 16.5,-0.5"/>
<text text-anchor="start" x="24.5" y="-18.5" font-family="Helvetica,sans-Serif" font-size="10.00">internal::MatrixFreeFunctions</text>
<text text-anchor="middle" x="88" y="-7.5" font-family="Helvetica,sans-Serif" font-size="10.00">::FaceToCellTopology&lt; 1 &gt;</text>
</a>
</g>
</g>
<!-- Node1&#45;&gt;Node2 -->
<g id="edge1" class="edge">
<title>Node1&#45;&gt;Node2</title>
<path fill="none" stroke="orange" stroke-dasharray="5,2" d="M88,-68.03C88,-55.26 88,-40.97 88,-30.68"/>
<polygon fill="orange" stroke="orange" points="84.5,-68.27 88,-78.27 91.5,-68.27 84.5,-68.27"/>
<text text-anchor="middle" x="101.5" y="-52" font-family="Helvetica,sans-Serif" font-size="10.00"> &lt; 1 &gt;</text>
</g>
</g>
</svg>
