<?xml version="1.0" encoding="UTF-8" standalone="no"?>
<!DOCTYPE svg PUBLIC "-//W3C//DTD SVG 1.1//EN"
 "http://www.w3.org/Graphics/SVG/1.1/DTD/svg11.dtd">
<!-- Generated by graphviz version 2.47.1 (20210417.1919)
 -->
<!-- Title: DataOutBase::VtkFlags Pages: 1 -->
<svg width="216pt" height="231pt"
 viewBox="0.00 0.00 216.00 231.00" xmlns="http://www.w3.org/2000/svg" xmlns:xlink="http://www.w3.org/1999/xlink">
<g id="graph0" class="graph" transform="scale(1 1) rotate(0) translate(4 227)">
<title>DataOutBase::VtkFlags</title>
<polygon fill="white" stroke="transparent" points="-4,4 -4,-227 212,-227 212,4 -4,4"/>
<!-- Node1 -->
<g id="node1" class="node">
<title>Node1</title>
<g id="a_node1"><a xlink:title=" ">
<polygon fill="#bfbfbf" stroke="black" points="43,-57.5 43,-76.5 164,-76.5 164,-57.5 43,-57.5"/>
<text text-anchor="middle" x="103.5" y="-64.5" font-family="Helvetica,sans-Serif" font-size="10.00">DataOutBase::VtkFlags</text>
</a>
</g>
</g>
<!-- Node4 -->
<g id="node4" class="node">
<title>Node4</title>
<g id="a_node4"><a xlink:href="structGridOutFlags_1_1Vtk.html" target="_top" xlink:title=" ">
<polygon fill="white" stroke="black" points="0,-0.5 0,-19.5 95,-19.5 95,-0.5 0,-0.5"/>
<text text-anchor="middle" x="47.5" y="-7.5" font-family="Helvetica,sans-Serif" font-size="10.00">GridOutFlags::Vtk</text>
</a>
</g>
</g>
<!-- Node1&#45;&gt;Node4 -->
<g id="edge3" class="edge">
<title>Node1&#45;&gt;Node4</title>
<path fill="none" stroke="midnightblue" d="M87.33,-50.12C77.26,-40.22 64.67,-27.86 56.37,-19.71"/>
<polygon fill="midnightblue" stroke="midnightblue" points="85.16,-52.9 94.75,-57.41 90.07,-47.9 85.16,-52.9"/>
</g>
<!-- Node5 -->
<g id="node5" class="node">
<title>Node5</title>
<g id="a_node5"><a xlink:href="structGridOutFlags_1_1Vtu.html" target="_top" xlink:title=" ">
<polygon fill="white" stroke="black" points="113,-0.5 113,-19.5 208,-19.5 208,-0.5 113,-0.5"/>
<text text-anchor="middle" x="160.5" y="-7.5" font-family="Helvetica,sans-Serif" font-size="10.00">GridOutFlags::Vtu</text>
</a>
</g>
</g>
<!-- Node1&#45;&gt;Node5 -->
<g id="edge4" class="edge">
<title>Node1&#45;&gt;Node5</title>
<path fill="none" stroke="midnightblue" d="M119.65,-50.42C129.96,-40.47 142.94,-27.94 151.47,-19.71"/>
<polygon fill="midnightblue" stroke="midnightblue" points="117.17,-47.94 112.41,-57.41 122.03,-52.98 117.17,-47.94"/>
</g>
<!-- Node2 -->
<g id="node2" class="node">
<title>Node2</title>
<g id="a_node2"><a xlink:href="structDataOutBase_1_1OutputFlagsBase.html" target="_top" xlink:title=" ">
<polygon fill="white" stroke="black" points="36,-114.5 36,-144.5 171,-144.5 171,-114.5 36,-114.5"/>
<text text-anchor="start" x="44" y="-132.5" font-family="Helvetica,sans-Serif" font-size="10.00">DataOutBase::OutputFlags</text>
<text text-anchor="middle" x="103.5" y="-121.5" font-family="Helvetica,sans-Serif" font-size="10.00">Base&lt; VtkFlags &gt;</text>
</a>
</g>
</g>
<!-- Node2&#45;&gt;Node1 -->
<g id="edge1" class="edge">
<title>Node2&#45;&gt;Node1</title>
<path fill="none" stroke="midnightblue" d="M103.5,-104.35C103.5,-94.51 103.5,-83.78 103.5,-76.54"/>
<polygon fill="midnightblue" stroke="midnightblue" points="100,-104.47 103.5,-114.47 107,-104.47 100,-104.47"/>
</g>
<!-- Node3 -->
<g id="node3" class="node">
<title>Node3</title>
<g id="a_node3"><a xlink:href="structDataOutBase_1_1OutputFlagsBase.html" target="_top" xlink:title=" ">
<polygon fill="white" stroke="black" points="36,-192.5 36,-222.5 171,-222.5 171,-192.5 36,-192.5"/>
<text text-anchor="start" x="44" y="-210.5" font-family="Helvetica,sans-Serif" font-size="10.00">DataOutBase::OutputFlags</text>
<text text-anchor="middle" x="103.5" y="-199.5" font-family="Helvetica,sans-Serif" font-size="10.00">Base&lt; FlagsType &gt;</text>
</a>
</g>
</g>
<!-- Node3&#45;&gt;Node2 -->
<g id="edge2" class="edge">
<title>Node3&#45;&gt;Node2</title>
<path fill="none" stroke="orange" stroke-dasharray="5,2" d="M103.5,-182.09C103.5,-169.76 103.5,-155.22 103.5,-144.73"/>
<polygon fill="orange" stroke="orange" points="100,-182.2 103.5,-192.2 107,-182.21 100,-182.2"/>
<text text-anchor="middle" x="134" y="-166" font-family="Helvetica,sans-Serif" font-size="10.00"> &lt; VtkFlags &gt;</text>
</g>
</g>
</svg>
