<?xml version="1.0" encoding="UTF-8" standalone="no"?>
<!DOCTYPE svg PUBLIC "-//W3C//DTD SVG 1.1//EN"
 "http://www.w3.org/Graphics/SVG/1.1/DTD/svg11.dtd">
<!-- Generated by graphviz version 2.47.1 (20210417.1919)
 -->
<!-- Title: internal::DataOutImplementation::ParallelDataBase&lt; dim, spacedim &gt; Pages: 1 -->
<svg width="409pt" height="149pt"
 viewBox="0.00 0.00 409.00 148.50" xmlns="http://www.w3.org/2000/svg" xmlns:xlink="http://www.w3.org/1999/xlink">
<g id="graph0" class="graph" transform="scale(1 1) rotate(0) translate(4 144.5)">
<title>internal::DataOutImplementation::ParallelDataBase&lt; dim, spacedim &gt;</title>
<polygon fill="white" stroke="transparent" points="-4,4 -4,-144.5 405,-144.5 405,4 -4,4"/>
<!-- Node1 -->
<g id="node1" class="node">
<title>Node1</title>
<g id="a_node1"><a xlink:title=" ">
<polygon fill="#bfbfbf" stroke="black" points="0,-61 0,-91 180,-91 180,-61 0,-61"/>
<text text-anchor="start" x="8" y="-79" font-family="Helvetica,sans-Serif" font-size="10.00">internal::DataOutImplementation</text>
<text text-anchor="middle" x="90" y="-68" font-family="Helvetica,sans-Serif" font-size="10.00">::ParallelDataBase&lt; dim, spacedim &gt;</text>
</a>
</g>
</g>
<!-- Node2 -->
<g id="node2" class="node">
<title>Node2</title>
<g id="a_node2"><a xlink:href="structinternal_1_1DataOutFacesImplementation_1_1ParallelData.html" target="_top" xlink:title=" ">
<polygon fill="white" stroke="black" points="216,-110 216,-140 401,-140 401,-110 216,-110"/>
<text text-anchor="start" x="224" y="-128" font-family="Helvetica,sans-Serif" font-size="10.00">internal::DataOutFacesImplementation</text>
<text text-anchor="middle" x="308.5" y="-117" font-family="Helvetica,sans-Serif" font-size="10.00">::ParallelData&lt; dim, spacedim &gt;</text>
</a>
</g>
</g>
<!-- Node1&#45;&gt;Node2 -->
<g id="edge1" class="edge">
<title>Node1&#45;&gt;Node2</title>
<path fill="none" stroke="midnightblue" d="M167.25,-93.26C191.38,-98.72 217.83,-104.71 241.2,-109.99"/>
<polygon fill="midnightblue" stroke="midnightblue" points="167.95,-89.83 157.43,-91.03 166.41,-96.66 167.95,-89.83"/>
</g>
<!-- Node3 -->
<g id="node3" class="node">
<title>Node3</title>
<g id="a_node3"><a xlink:href="structinternal_1_1DataOutImplementation_1_1ParallelData.html" target="_top" xlink:title=" ">
<polygon fill="white" stroke="black" points="229.5,-61 229.5,-91 387.5,-91 387.5,-61 229.5,-61"/>
<text text-anchor="start" x="237.5" y="-79" font-family="Helvetica,sans-Serif" font-size="10.00">internal::DataOutImplementation</text>
<text text-anchor="middle" x="308.5" y="-68" font-family="Helvetica,sans-Serif" font-size="10.00">::ParallelData&lt; dim, spacedim &gt;</text>
</a>
</g>
</g>
<!-- Node1&#45;&gt;Node3 -->
<g id="edge2" class="edge">
<title>Node1&#45;&gt;Node3</title>
<path fill="none" stroke="midnightblue" d="M190.69,-76C203.7,-76 216.88,-76 229.46,-76"/>
<polygon fill="midnightblue" stroke="midnightblue" points="190.31,-72.5 180.31,-76 190.31,-79.5 190.31,-72.5"/>
</g>
<!-- Node4 -->
<g id="node4" class="node">
<title>Node4</title>
<g id="a_node4"><a xlink:href="structinternal_1_1DataOutRotationImplementation_1_1ParallelData.html" target="_top" xlink:title=" ">
<polygon fill="white" stroke="black" points="237,-0.5 237,-41.5 380,-41.5 380,-0.5 237,-0.5"/>
<text text-anchor="start" x="245" y="-29.5" font-family="Helvetica,sans-Serif" font-size="10.00">internal::DataOutRotation</text>
<text text-anchor="start" x="245" y="-18.5" font-family="Helvetica,sans-Serif" font-size="10.00">Implementation::ParallelData</text>
<text text-anchor="middle" x="308.5" y="-7.5" font-family="Helvetica,sans-Serif" font-size="10.00">&lt; dim, spacedim &gt;</text>
</a>
</g>
</g>
<!-- Node1&#45;&gt;Node4 -->
<g id="edge3" class="edge">
<title>Node1&#45;&gt;Node4</title>
<path fill="none" stroke="midnightblue" d="M160.1,-58.45C184.62,-52.22 212.23,-45.2 236.87,-38.94"/>
<polygon fill="midnightblue" stroke="midnightblue" points="158.99,-55.12 150.16,-60.97 160.71,-61.9 158.99,-55.12"/>
</g>
</g>
</svg>
