<?xml version="1.0" encoding="UTF-8" standalone="no"?>
<!DOCTYPE svg PUBLIC "-//W3C//DTD SVG 1.1//EN"
 "http://www.w3.org/Graphics/SVG/1.1/DTD/svg11.dtd">
<!-- Generated by graphviz version 2.47.1 (20210417.1919)
 -->
<!-- Title: Patterns::Tools::internal::is_map_compatible&lt; std::unordered_map&lt; Key, T, Hash, KeyEqual, Allocator &gt; &gt; Pages: 1 -->
<svg width="160pt" height="117pt"
 viewBox="0.00 0.00 160.00 117.00" xmlns="http://www.w3.org/2000/svg" xmlns:xlink="http://www.w3.org/1999/xlink">
<g id="graph0" class="graph" transform="scale(1 1) rotate(0) translate(4 113)">
<title>Patterns::Tools::internal::is_map_compatible&lt; std::unordered_map&lt; Key, T, Hash, KeyEqual, Allocator &gt; &gt;</title>
<polygon fill="white" stroke="transparent" points="-4,4 -4,-113 156,-113 156,4 -4,4"/>
<!-- Node1 -->
<g id="node1" class="node">
<title>Node1</title>
<g id="a_node1"><a xlink:title=" ">
<polygon fill="#bfbfbf" stroke="black" points="0,-0.5 0,-52.5 152,-52.5 152,-0.5 0,-0.5"/>
<text text-anchor="start" x="8" y="-40.5" font-family="Helvetica,sans-Serif" font-size="10.00">Patterns::Tools::internal</text>
<text text-anchor="start" x="8" y="-29.5" font-family="Helvetica,sans-Serif" font-size="10.00">::is_map_compatible&lt; std</text>
<text text-anchor="start" x="8" y="-18.5" font-family="Helvetica,sans-Serif" font-size="10.00">::unordered_map&lt; Key, T,</text>
<text text-anchor="middle" x="76" y="-7.5" font-family="Helvetica,sans-Serif" font-size="10.00"> Hash, KeyEqual, Allocator &gt; &gt;</text>
</a>
</g>
</g>
<!-- Node2 -->
<g id="node2" class="node">
<title>Node2</title>
<g id="a_node2"><a xlink:title=" ">
<polygon fill="white" stroke="#bfbfbf" points="37.5,-89.5 37.5,-108.5 114.5,-108.5 114.5,-89.5 37.5,-89.5"/>
<text text-anchor="middle" x="76" y="-96.5" font-family="Helvetica,sans-Serif" font-size="10.00">std::true_type</text>
</a>
</g>
</g>
<!-- Node2&#45;&gt;Node1 -->
<g id="edge1" class="edge">
<title>Node2&#45;&gt;Node1</title>
<path fill="none" stroke="midnightblue" d="M76,-79.1C76,-70.96 76,-61.33 76,-52.6"/>
<polygon fill="midnightblue" stroke="midnightblue" points="72.5,-79.36 76,-89.36 79.5,-79.36 72.5,-79.36"/>
</g>
</g>
</svg>
