<?xml version="1.0" encoding="UTF-8" standalone="no"?>
<!DOCTYPE svg PUBLIC "-//W3C//DTD SVG 1.1//EN"
 "http://www.w3.org/Graphics/SVG/1.1/DTD/svg11.dtd">
<!-- Generated by graphviz version 2.47.1 (20210417.1919)
 -->
<!-- Title: TrilinosWrappers::SolverBase::AdditionalData Pages: 1 -->
<svg width="292pt" height="235pt"
 viewBox="0.00 0.00 292.00 235.00" xmlns="http://www.w3.org/2000/svg" xmlns:xlink="http://www.w3.org/1999/xlink">
<g id="graph0" class="graph" transform="scale(1 1) rotate(0) translate(4 231)">
<title>TrilinosWrappers::SolverBase::AdditionalData</title>
<polygon fill="white" stroke="transparent" points="-4,4 -4,-231 288,-231 288,4 -4,4"/>
<!-- Node1 -->
<g id="node1" class="node">
<title>Node1</title>
<g id="a_node1"><a xlink:title=" ">
<polygon fill="#bfbfbf" stroke="black" points="0,-98.5 0,-128.5 123,-128.5 123,-98.5 0,-98.5"/>
<text text-anchor="start" x="8" y="-116.5" font-family="Helvetica,sans-Serif" font-size="10.00">TrilinosWrappers::Solver</text>
<text text-anchor="middle" x="61.5" y="-105.5" font-family="Helvetica,sans-Serif" font-size="10.00">Base::AdditionalData</text>
</a>
</g>
</g>
<!-- Node2 -->
<g id="node2" class="node">
<title>Node2</title>
<g id="a_node2"><a xlink:href="structTrilinosWrappers_1_1SolverBicgstab_1_1AdditionalData.html" target="_top" xlink:title=" ">
<polygon fill="white" stroke="black" points="159,-196.5 159,-226.5 284,-226.5 284,-196.5 159,-196.5"/>
<text text-anchor="start" x="167" y="-214.5" font-family="Helvetica,sans-Serif" font-size="10.00">TrilinosWrappers::Solver</text>
<text text-anchor="middle" x="221.5" y="-203.5" font-family="Helvetica,sans-Serif" font-size="10.00">Bicgstab::AdditionalData</text>
</a>
</g>
</g>
<!-- Node1&#45;&gt;Node2 -->
<g id="edge1" class="edge">
<title>Node1&#45;&gt;Node2</title>
<path fill="none" stroke="midnightblue" d="M86.99,-135.41C105.72,-151.37 132.72,-172.69 159,-187.5 164.79,-190.76 171.12,-193.78 177.43,-196.49"/>
<polygon fill="midnightblue" stroke="midnightblue" points="89.1,-132.61 79.24,-128.72 84.52,-137.9 89.1,-132.61"/>
</g>
<!-- Node3 -->
<g id="node3" class="node">
<title>Node3</title>
<g id="a_node3"><a xlink:href="structTrilinosWrappers_1_1SolverCG_1_1AdditionalData.html" target="_top" xlink:title=" ">
<polygon fill="white" stroke="black" points="160,-147.5 160,-177.5 283,-177.5 283,-147.5 160,-147.5"/>
<text text-anchor="start" x="168" y="-165.5" font-family="Helvetica,sans-Serif" font-size="10.00">TrilinosWrappers::Solver</text>
<text text-anchor="middle" x="221.5" y="-154.5" font-family="Helvetica,sans-Serif" font-size="10.00">CG::AdditionalData</text>
</a>
</g>
</g>
<!-- Node1&#45;&gt;Node3 -->
<g id="edge2" class="edge">
<title>Node1&#45;&gt;Node3</title>
<path fill="none" stroke="midnightblue" d="M120.9,-131.61C137.7,-136.82 155.83,-142.45 171.97,-147.45"/>
<polygon fill="midnightblue" stroke="midnightblue" points="121.78,-128.22 111.19,-128.6 119.71,-134.91 121.78,-128.22"/>
</g>
<!-- Node4 -->
<g id="node4" class="node">
<title>Node4</title>
<g id="a_node4"><a xlink:href="structTrilinosWrappers_1_1SolverCGS_1_1AdditionalData.html" target="_top" xlink:title=" ">
<polygon fill="white" stroke="black" points="160,-98.5 160,-128.5 283,-128.5 283,-98.5 160,-98.5"/>
<text text-anchor="start" x="168" y="-116.5" font-family="Helvetica,sans-Serif" font-size="10.00">TrilinosWrappers::Solver</text>
<text text-anchor="middle" x="221.5" y="-105.5" font-family="Helvetica,sans-Serif" font-size="10.00">CGS::AdditionalData</text>
</a>
</g>
</g>
<!-- Node1&#45;&gt;Node4 -->
<g id="edge3" class="edge">
<title>Node1&#45;&gt;Node4</title>
<path fill="none" stroke="midnightblue" d="M133.38,-113.5C142.19,-113.5 151.13,-113.5 159.77,-113.5"/>
<polygon fill="midnightblue" stroke="midnightblue" points="133.14,-110 123.14,-113.5 133.14,-117 133.14,-110"/>
</g>
<!-- Node5 -->
<g id="node5" class="node">
<title>Node5</title>
<g id="a_node5"><a xlink:href="structTrilinosWrappers_1_1SolverGMRES_1_1AdditionalData.html" target="_top" xlink:title=" ">
<polygon fill="white" stroke="black" points="160,-49.5 160,-79.5 283,-79.5 283,-49.5 160,-49.5"/>
<text text-anchor="start" x="168" y="-67.5" font-family="Helvetica,sans-Serif" font-size="10.00">TrilinosWrappers::Solver</text>
<text text-anchor="middle" x="221.5" y="-56.5" font-family="Helvetica,sans-Serif" font-size="10.00">GMRES::AdditionalData</text>
</a>
</g>
</g>
<!-- Node1&#45;&gt;Node5 -->
<g id="edge4" class="edge">
<title>Node1&#45;&gt;Node5</title>
<path fill="none" stroke="midnightblue" d="M120.9,-95.39C137.7,-90.18 155.83,-84.55 171.97,-79.55"/>
<polygon fill="midnightblue" stroke="midnightblue" points="119.71,-92.09 111.19,-98.4 121.78,-98.78 119.71,-92.09"/>
</g>
<!-- Node6 -->
<g id="node6" class="node">
<title>Node6</title>
<g id="a_node6"><a xlink:href="structTrilinosWrappers_1_1SolverTFQMR_1_1AdditionalData.html" target="_top" xlink:title=" ">
<polygon fill="white" stroke="black" points="160,-0.5 160,-30.5 283,-30.5 283,-0.5 160,-0.5"/>
<text text-anchor="start" x="168" y="-18.5" font-family="Helvetica,sans-Serif" font-size="10.00">TrilinosWrappers::Solver</text>
<text text-anchor="middle" x="221.5" y="-7.5" font-family="Helvetica,sans-Serif" font-size="10.00">TFQMR::AdditionalData</text>
</a>
</g>
</g>
<!-- Node1&#45;&gt;Node6 -->
<g id="edge5" class="edge">
<title>Node1&#45;&gt;Node6</title>
<path fill="none" stroke="midnightblue" d="M87.44,-91.73C106.22,-76.09 133.07,-55.24 159,-40.5 165.31,-36.91 172.24,-33.58 179.1,-30.58"/>
<polygon fill="midnightblue" stroke="midnightblue" points="85.05,-89.17 79.67,-98.3 89.57,-94.52 85.05,-89.17"/>
</g>
</g>
</svg>
