<?xml version="1.0" encoding="UTF-8" standalone="no"?>
<!DOCTYPE svg PUBLIC "-//W3C//DTD SVG 1.1//EN"
 "http://www.w3.org/Graphics/SVG/1.1/DTD/svg11.dtd">
<!-- Generated by graphviz version 2.47.1 (20210417.1919)
 -->
<!-- Title: internal::MatrixFreeFunctions::ShapeInfo&lt; Number &gt; Pages: 1 -->
<svg width="475pt" height="100pt"
 viewBox="0.00 0.00 475.00 99.50" xmlns="http://www.w3.org/2000/svg" xmlns:xlink="http://www.w3.org/1999/xlink">
<g id="graph0" class="graph" transform="scale(1 1) rotate(0) translate(4 95.5)">
<title>internal::MatrixFreeFunctions::ShapeInfo&lt; Number &gt;</title>
<polygon fill="white" stroke="transparent" points="-4,4 -4,-95.5 471,-95.5 471,4 -4,4"/>
<!-- Node1 -->
<g id="node1" class="node">
<title>Node1</title>
<g id="a_node1"><a xlink:title=" ">
<polygon fill="#bfbfbf" stroke="black" points="0,-27.5 0,-57.5 143,-57.5 143,-27.5 0,-27.5"/>
<text text-anchor="start" x="8" y="-45.5" font-family="Helvetica,sans-Serif" font-size="10.00">internal::MatrixFreeFunctions</text>
<text text-anchor="middle" x="71.5" y="-34.5" font-family="Helvetica,sans-Serif" font-size="10.00">::ShapeInfo&lt; Number &gt;</text>
</a>
</g>
</g>
<!-- Node2 -->
<g id="node2" class="node">
<title>Node2</title>
<g id="a_node2"><a xlink:href="structinternal_1_1MatrixFreeFunctions_1_1ShapeInfo.html" target="_top" xlink:title=" ">
<polygon fill="white" stroke="black" points="306,-50 306,-91 452,-91 452,-50 306,-50"/>
<text text-anchor="start" x="314" y="-79" font-family="Helvetica,sans-Serif" font-size="10.00">internal::MatrixFreeFunctions</text>
<text text-anchor="start" x="314" y="-68" font-family="Helvetica,sans-Serif" font-size="10.00">::ShapeInfo&lt; VectorizedArray</text>
<text text-anchor="middle" x="379" y="-57" font-family="Helvetica,sans-Serif" font-size="10.00">&lt; double &gt; &gt;</text>
</a>
</g>
</g>
<!-- Node1&#45;&gt;Node2 -->
<g id="edge1" class="edge">
<title>Node1&#45;&gt;Node2</title>
<path fill="none" stroke="orange" stroke-dasharray="5,2" d="M153.58,-49.93C200.95,-54.27 260.21,-59.7 305.94,-63.9"/>
<polygon fill="orange" stroke="orange" points="153.63,-46.42 143.36,-48.99 152.99,-53.39 153.63,-46.42"/>
<text text-anchor="start" x="173" y="-74.5" font-family="Helvetica,sans-Serif" font-size="10.00"> &lt; VectorizedArray&lt;</text>
<text text-anchor="middle" x="217" y="-63.5" font-family="Helvetica,sans-Serif" font-size="10.00"> double &gt; &gt;</text>
</g>
<!-- Node3 -->
<g id="node3" class="node">
<title>Node3</title>
<g id="a_node3"><a xlink:href="structinternal_1_1MatrixFreeFunctions_1_1ShapeInfo.html" target="_top" xlink:title=" ">
<polygon fill="white" stroke="black" points="291,-0.5 291,-30.5 467,-30.5 467,-0.5 291,-0.5"/>
<text text-anchor="start" x="299" y="-18.5" font-family="Helvetica,sans-Serif" font-size="10.00">internal::MatrixFreeFunctions</text>
<text text-anchor="middle" x="379" y="-7.5" font-family="Helvetica,sans-Serif" font-size="10.00">::ShapeInfo&lt; VectorizedArrayType &gt;</text>
</a>
</g>
</g>
<!-- Node1&#45;&gt;Node3 -->
<g id="edge2" class="edge">
<title>Node1&#45;&gt;Node3</title>
<path fill="none" stroke="orange" stroke-dasharray="5,2" d="M153.35,-35.35C195.71,-31.61 247.64,-27.02 290.89,-23.2"/>
<polygon fill="orange" stroke="orange" points="153.01,-31.87 143.36,-36.24 153.63,-38.84 153.01,-31.87"/>
<text text-anchor="middle" x="217" y="-38.5" font-family="Helvetica,sans-Serif" font-size="10.00"> &lt; VectorizedArrayType &gt;</text>
</g>
</g>
</svg>
