<?xml version="1.0" encoding="UTF-8" standalone="no"?>
<!DOCTYPE svg PUBLIC "-//W3C//DTD SVG 1.1//EN"
 "http://www.w3.org/Graphics/SVG/1.1/DTD/svg11.dtd">
<!-- Generated by graphviz version 2.47.1 (20210417.1919)
 -->
<!-- Title: internal::DataOutImplementation::ParallelData&lt; dim, spacedim &gt; Pages: 1 -->
<svg width="188pt" height="106pt"
 viewBox="0.00 0.00 188.00 106.00" xmlns="http://www.w3.org/2000/svg" xmlns:xlink="http://www.w3.org/1999/xlink">
<g id="graph0" class="graph" transform="scale(1 1) rotate(0) translate(4 102)">
<title>internal::DataOutImplementation::ParallelData&lt; dim, spacedim &gt;</title>
<polygon fill="white" stroke="transparent" points="-4,4 -4,-102 184,-102 184,4 -4,4"/>
<!-- Node1 -->
<g id="node1" class="node">
<title>Node1</title>
<g id="a_node1"><a xlink:title=" ">
<polygon fill="#bfbfbf" stroke="black" points="11,-0.5 11,-30.5 169,-30.5 169,-0.5 11,-0.5"/>
<text text-anchor="start" x="19" y="-18.5" font-family="Helvetica,sans-Serif" font-size="10.00">internal::DataOutImplementation</text>
<text text-anchor="middle" x="90" y="-7.5" font-family="Helvetica,sans-Serif" font-size="10.00">::ParallelData&lt; dim, spacedim &gt;</text>
</a>
</g>
</g>
<!-- Node2 -->
<g id="node2" class="node">
<title>Node2</title>
<g id="a_node2"><a xlink:href="structinternal_1_1DataOutImplementation_1_1ParallelDataBase.html" target="_top" xlink:title=" ">
<polygon fill="white" stroke="black" points="0,-67.5 0,-97.5 180,-97.5 180,-67.5 0,-67.5"/>
<text text-anchor="start" x="8" y="-85.5" font-family="Helvetica,sans-Serif" font-size="10.00">internal::DataOutImplementation</text>
<text text-anchor="middle" x="90" y="-74.5" font-family="Helvetica,sans-Serif" font-size="10.00">::ParallelDataBase&lt; dim, spacedim &gt;</text>
</a>
</g>
</g>
<!-- Node2&#45;&gt;Node1 -->
<g id="edge1" class="edge">
<title>Node2&#45;&gt;Node1</title>
<path fill="none" stroke="midnightblue" d="M90,-57.11C90,-48.15 90,-38.32 90,-30.58"/>
<polygon fill="midnightblue" stroke="midnightblue" points="86.5,-57.4 90,-67.4 93.5,-57.4 86.5,-57.4"/>
</g>
</g>
</svg>
