<?xml version="1.0" encoding="UTF-8" standalone="no"?>
<!DOCTYPE svg PUBLIC "-//W3C//DTD SVG 1.1//EN"
 "http://www.w3.org/Graphics/SVG/1.1/DTD/svg11.dtd">
<!-- Generated by graphviz version 2.47.1 (20210417.1919)
 -->
<!-- Title: internal::MatrixFreeFunctions::MappingInfo&lt; dim, Number, VectorizedArrayType &gt; Pages: 1 -->
<svg width="447pt" height="51pt"
 viewBox="0.00 0.00 447.00 51.00" xmlns="http://www.w3.org/2000/svg" xmlns:xlink="http://www.w3.org/1999/xlink">
<g id="graph0" class="graph" transform="scale(1 1) rotate(0) translate(4 47)">
<title>internal::MatrixFreeFunctions::MappingInfo&lt; dim, Number, VectorizedArrayType &gt;</title>
<polygon fill="white" stroke="transparent" points="-4,4 -4,-47 443,-47 443,4 -4,4"/>
<!-- Node1 -->
<g id="node1" class="node">
<title>Node1</title>
<g id="a_node1"><a xlink:title=" ">
<polygon fill="#bfbfbf" stroke="black" points="0,-0.5 0,-41.5 143,-41.5 143,-0.5 0,-0.5"/>
<text text-anchor="start" x="8" y="-29.5" font-family="Helvetica,sans-Serif" font-size="10.00">internal::MatrixFreeFunctions</text>
<text text-anchor="start" x="8" y="-18.5" font-family="Helvetica,sans-Serif" font-size="10.00">::MappingInfo&lt; dim, Number,</text>
<text text-anchor="middle" x="71.5" y="-7.5" font-family="Helvetica,sans-Serif" font-size="10.00"> VectorizedArrayType &gt;</text>
</a>
</g>
</g>
<!-- Node2 -->
<g id="node2" class="node">
<title>Node2</title>
<g id="a_node2"><a xlink:href="structinternal_1_1MatrixFreeFunctions_1_1MappingInfo.html" target="_top" xlink:title=" ">
<polygon fill="white" stroke="black" points="294,-0.5 294,-41.5 439,-41.5 439,-0.5 294,-0.5"/>
<text text-anchor="start" x="302" y="-29.5" font-family="Helvetica,sans-Serif" font-size="10.00">internal::MatrixFreeFunctions</text>
<text text-anchor="start" x="302" y="-18.5" font-family="Helvetica,sans-Serif" font-size="10.00">::MappingInfo&lt; dim, double,</text>
<text text-anchor="middle" x="366.5" y="-7.5" font-family="Helvetica,sans-Serif" font-size="10.00"> VectorizedArray&lt; double &gt; &gt;</text>
</a>
</g>
</g>
<!-- Node1&#45;&gt;Node2 -->
<g id="edge1" class="edge">
<title>Node1&#45;&gt;Node2</title>
<path fill="none" stroke="orange" stroke-dasharray="5,2" d="M153.15,-21C197.18,-21 251.23,-21 293.78,-21"/>
<polygon fill="orange" stroke="orange" points="153.05,-17.5 143.05,-21 153.05,-24.5 153.05,-17.5"/>
<text text-anchor="start" x="161" y="-35" font-family="Helvetica,sans-Serif" font-size="10.00"> &lt; dim, double, Vectorized</text>
<text text-anchor="middle" x="218.5" y="-24" font-family="Helvetica,sans-Serif" font-size="10.00">Array&lt; double &gt; &gt;</text>
</g>
</g>
</svg>
