<?xml version="1.0" encoding="UTF-8" standalone="no"?>
<!DOCTYPE svg PUBLIC "-//W3C//DTD SVG 1.1//EN"
 "http://www.w3.org/Graphics/SVG/1.1/DTD/svg11.dtd">
<!-- Generated by graphviz version 2.47.1 (20210417.1919)
 -->
<!-- Title: Differentiation::AD::TapelessDrivers&lt; ADNumberType, ScalarType, T &gt; Pages: 1 -->
<svg width="195pt" height="139pt"
 viewBox="0.00 0.00 195.00 139.00" xmlns="http://www.w3.org/2000/svg" xmlns:xlink="http://www.w3.org/1999/xlink">
<g id="graph0" class="graph" transform="scale(1 1) rotate(0) translate(4 135)">
<title>Differentiation::AD::TapelessDrivers&lt; ADNumberType, ScalarType, T &gt;</title>
<polygon fill="white" stroke="transparent" points="-4,4 -4,-135 191,-135 191,4 -4,4"/>
<!-- Node1 -->
<g id="node1" class="node">
<title>Node1</title>
<g id="a_node1"><a xlink:title=" ">
<polygon fill="#bfbfbf" stroke="black" points="0,-89.5 0,-130.5 150,-130.5 150,-89.5 0,-89.5"/>
<text text-anchor="start" x="8" y="-118.5" font-family="Helvetica,sans-Serif" font-size="10.00">Differentiation::AD</text>
<text text-anchor="start" x="8" y="-107.5" font-family="Helvetica,sans-Serif" font-size="10.00">::TapelessDrivers&lt; ADNumber</text>
<text text-anchor="middle" x="75" y="-96.5" font-family="Helvetica,sans-Serif" font-size="10.00">Type, ScalarType, T &gt;</text>
</a>
</g>
</g>
<!-- Node2 -->
<g id="node2" class="node">
<title>Node2</title>
<g id="a_node2"><a xlink:href="structDifferentiation_1_1AD_1_1TapelessDrivers.html" target="_top" xlink:title=" ">
<polygon fill="white" stroke="black" points="18.5,-0.5 18.5,-41.5 131.5,-41.5 131.5,-0.5 18.5,-0.5"/>
<text text-anchor="start" x="26.5" y="-29.5" font-family="Helvetica,sans-Serif" font-size="10.00">Differentiation::AD</text>
<text text-anchor="start" x="26.5" y="-18.5" font-family="Helvetica,sans-Serif" font-size="10.00">::TapelessDrivers&lt; ad</text>
<text text-anchor="middle" x="75" y="-7.5" font-family="Helvetica,sans-Serif" font-size="10.00">_type, scalar_type &gt;</text>
</a>
</g>
</g>
<!-- Node1&#45;&gt;Node2 -->
<g id="edge1" class="edge">
<title>Node1&#45;&gt;Node2</title>
<path fill="none" stroke="orange" stroke-dasharray="5,2" d="M75,-78.94C75,-66.6 75,-52.66 75,-41.66"/>
<polygon fill="orange" stroke="orange" points="71.5,-79.26 75,-89.26 78.5,-79.26 71.5,-79.26"/>
<text text-anchor="middle" x="131" y="-63" font-family="Helvetica,sans-Serif" font-size="10.00"> &lt; ad_type, scalar_type &gt;</text>
</g>
</g>
</svg>
