<?xml version="1.0" encoding="UTF-8" standalone="no"?>
<!DOCTYPE svg PUBLIC "-//W3C//DTD SVG 1.1//EN"
 "http://www.w3.org/Graphics/SVG/1.1/DTD/svg11.dtd">
<!-- Generated by graphviz version 2.47.1 (20210417.1919)
 -->
<!-- Title: GridOutFlags::EpsFlagsBase Pages: 1 -->
<svg width="407pt" height="84pt"
 viewBox="0.00 0.00 407.00 84.00" xmlns="http://www.w3.org/2000/svg" xmlns:xlink="http://www.w3.org/1999/xlink">
<g id="graph0" class="graph" transform="scale(1 1) rotate(0) translate(4 80)">
<title>GridOutFlags::EpsFlagsBase</title>
<polygon fill="white" stroke="transparent" points="-4,4 -4,-80 403,-80 403,4 -4,4"/>
<!-- Node1 -->
<g id="node1" class="node">
<title>Node1</title>
<g id="a_node1"><a xlink:title=" ">
<polygon fill="#bfbfbf" stroke="black" points="127.5,-56.5 127.5,-75.5 271.5,-75.5 271.5,-56.5 127.5,-56.5"/>
<text text-anchor="middle" x="199.5" y="-63.5" font-family="Helvetica,sans-Serif" font-size="10.00">GridOutFlags::EpsFlagsBase</text>
</a>
</g>
</g>
<!-- Node2 -->
<g id="node2" class="node">
<title>Node2</title>
<g id="a_node2"><a xlink:href="structGridOutFlags_1_1Eps_3_011_01_4.html" target="_top" xlink:title=" ">
<polygon fill="white" stroke="black" points="0,-0.5 0,-19.5 121,-19.5 121,-0.5 0,-0.5"/>
<text text-anchor="middle" x="60.5" y="-7.5" font-family="Helvetica,sans-Serif" font-size="10.00">GridOutFlags::Eps&lt; 1 &gt;</text>
</a>
</g>
</g>
<!-- Node1&#45;&gt;Node2 -->
<g id="edge1" class="edge">
<title>Node1&#45;&gt;Node2</title>
<path fill="none" stroke="midnightblue" d="M168.02,-52.77C141.91,-42.63 105.46,-28.47 82.42,-19.52"/>
<polygon fill="midnightblue" stroke="midnightblue" points="166.89,-56.08 177.48,-56.44 169.42,-49.56 166.89,-56.08"/>
</g>
<!-- Node3 -->
<g id="node3" class="node">
<title>Node3</title>
<g id="a_node3"><a xlink:href="structGridOutFlags_1_1Eps_3_012_01_4.html" target="_top" xlink:title=" ">
<polygon fill="white" stroke="black" points="139,-0.5 139,-19.5 260,-19.5 260,-0.5 139,-0.5"/>
<text text-anchor="middle" x="199.5" y="-7.5" font-family="Helvetica,sans-Serif" font-size="10.00">GridOutFlags::Eps&lt; 2 &gt;</text>
</a>
</g>
</g>
<!-- Node1&#45;&gt;Node3 -->
<g id="edge2" class="edge">
<title>Node1&#45;&gt;Node3</title>
<path fill="none" stroke="midnightblue" d="M199.5,-45.8C199.5,-36.91 199.5,-26.78 199.5,-19.75"/>
<polygon fill="midnightblue" stroke="midnightblue" points="196,-46.08 199.5,-56.08 203,-46.08 196,-46.08"/>
</g>
<!-- Node4 -->
<g id="node4" class="node">
<title>Node4</title>
<g id="a_node4"><a xlink:href="structGridOutFlags_1_1Eps_3_013_01_4.html" target="_top" xlink:title=" ">
<polygon fill="white" stroke="black" points="278,-0.5 278,-19.5 399,-19.5 399,-0.5 278,-0.5"/>
<text text-anchor="middle" x="338.5" y="-7.5" font-family="Helvetica,sans-Serif" font-size="10.00">GridOutFlags::Eps&lt; 3 &gt;</text>
</a>
</g>
</g>
<!-- Node1&#45;&gt;Node4 -->
<g id="edge3" class="edge">
<title>Node1&#45;&gt;Node4</title>
<path fill="none" stroke="midnightblue" d="M230.98,-52.77C257.09,-42.63 293.54,-28.47 316.58,-19.52"/>
<polygon fill="midnightblue" stroke="midnightblue" points="229.58,-49.56 221.52,-56.44 232.11,-56.08 229.58,-49.56"/>
</g>
</g>
</svg>
