<?xml version="1.0" encoding="UTF-8" standalone="no"?>
<!DOCTYPE svg PUBLIC "-//W3C//DTD SVG 1.1//EN"
 "http://www.w3.org/Graphics/SVG/1.1/DTD/svg11.dtd">
<!-- Generated by graphviz version 2.47.1 (20210417.1919)
 -->
<!-- Title: DataOutBase::EpsFlags Pages: 1 -->
<svg width="143pt" height="174pt"
 viewBox="0.00 0.00 143.00 174.00" xmlns="http://www.w3.org/2000/svg" xmlns:xlink="http://www.w3.org/1999/xlink">
<g id="graph0" class="graph" transform="scale(1 1) rotate(0) translate(4 170)">
<title>DataOutBase::EpsFlags</title>
<polygon fill="white" stroke="transparent" points="-4,4 -4,-170 139,-170 139,4 -4,4"/>
<!-- Node1 -->
<g id="node1" class="node">
<title>Node1</title>
<g id="a_node1"><a xlink:title=" ">
<polygon fill="#bfbfbf" stroke="black" points="6,-0.5 6,-19.5 129,-19.5 129,-0.5 6,-0.5"/>
<text text-anchor="middle" x="67.5" y="-7.5" font-family="Helvetica,sans-Serif" font-size="10.00">DataOutBase::EpsFlags</text>
</a>
</g>
</g>
<!-- Node2 -->
<g id="node2" class="node">
<title>Node2</title>
<g id="a_node2"><a xlink:href="structDataOutBase_1_1OutputFlagsBase.html" target="_top" xlink:title=" ">
<polygon fill="white" stroke="black" points="0,-57.5 0,-87.5 135,-87.5 135,-57.5 0,-57.5"/>
<text text-anchor="start" x="8" y="-75.5" font-family="Helvetica,sans-Serif" font-size="10.00">DataOutBase::OutputFlags</text>
<text text-anchor="middle" x="67.5" y="-64.5" font-family="Helvetica,sans-Serif" font-size="10.00">Base&lt; EpsFlags &gt;</text>
</a>
</g>
</g>
<!-- Node2&#45;&gt;Node1 -->
<g id="edge1" class="edge">
<title>Node2&#45;&gt;Node1</title>
<path fill="none" stroke="midnightblue" d="M67.5,-47.35C67.5,-37.51 67.5,-26.78 67.5,-19.54"/>
<polygon fill="midnightblue" stroke="midnightblue" points="64,-47.47 67.5,-57.47 71,-47.47 64,-47.47"/>
</g>
<!-- Node3 -->
<g id="node3" class="node">
<title>Node3</title>
<g id="a_node3"><a xlink:href="structDataOutBase_1_1OutputFlagsBase.html" target="_top" xlink:title=" ">
<polygon fill="white" stroke="black" points="0,-135.5 0,-165.5 135,-165.5 135,-135.5 0,-135.5"/>
<text text-anchor="start" x="8" y="-153.5" font-family="Helvetica,sans-Serif" font-size="10.00">DataOutBase::OutputFlags</text>
<text text-anchor="middle" x="67.5" y="-142.5" font-family="Helvetica,sans-Serif" font-size="10.00">Base&lt; FlagsType &gt;</text>
</a>
</g>
</g>
<!-- Node3&#45;&gt;Node2 -->
<g id="edge2" class="edge">
<title>Node3&#45;&gt;Node2</title>
<path fill="none" stroke="orange" stroke-dasharray="5,2" d="M67.5,-125.09C67.5,-112.76 67.5,-98.22 67.5,-87.73"/>
<polygon fill="orange" stroke="orange" points="64,-125.2 67.5,-135.2 71,-125.21 64,-125.2"/>
<text text-anchor="middle" x="99" y="-109" font-family="Helvetica,sans-Serif" font-size="10.00"> &lt; EpsFlags &gt;</text>
</g>
</g>
</svg>
