<?xml version="1.0" encoding="UTF-8" standalone="no"?>
<!DOCTYPE svg PUBLIC "-//W3C//DTD SVG 1.1//EN"
 "http://www.w3.org/Graphics/SVG/1.1/DTD/svg11.dtd">
<!-- Generated by graphviz version 2.47.1 (20210417.1919)
 -->
<!-- Title: GridOutFlags::Vtu Pages: 1 -->
<svg width="143pt" height="231pt"
 viewBox="0.00 0.00 143.00 231.00" xmlns="http://www.w3.org/2000/svg" xmlns:xlink="http://www.w3.org/1999/xlink">
<g id="graph0" class="graph" transform="scale(1 1) rotate(0) translate(4 227)">
<title>GridOutFlags::Vtu</title>
<polygon fill="white" stroke="transparent" points="-4,4 -4,-227 139,-227 139,4 -4,4"/>
<!-- Node1 -->
<g id="node1" class="node">
<title>Node1</title>
<g id="a_node1"><a xlink:title=" ">
<polygon fill="#bfbfbf" stroke="black" points="20,-0.5 20,-19.5 115,-19.5 115,-0.5 20,-0.5"/>
<text text-anchor="middle" x="67.5" y="-7.5" font-family="Helvetica,sans-Serif" font-size="10.00">GridOutFlags::Vtu</text>
</a>
</g>
</g>
<!-- Node2 -->
<g id="node2" class="node">
<title>Node2</title>
<g id="a_node2"><a xlink:href="structDataOutBase_1_1VtkFlags.html" target="_top" xlink:title=" ">
<polygon fill="white" stroke="black" points="7,-57.5 7,-76.5 128,-76.5 128,-57.5 7,-57.5"/>
<text text-anchor="middle" x="67.5" y="-64.5" font-family="Helvetica,sans-Serif" font-size="10.00">DataOutBase::VtkFlags</text>
</a>
</g>
</g>
<!-- Node2&#45;&gt;Node1 -->
<g id="edge1" class="edge">
<title>Node2&#45;&gt;Node1</title>
<path fill="none" stroke="midnightblue" d="M67.5,-47.12C67.5,-37.82 67.5,-27.06 67.5,-19.71"/>
<polygon fill="midnightblue" stroke="midnightblue" points="64,-47.41 67.5,-57.41 71,-47.41 64,-47.41"/>
</g>
<!-- Node3 -->
<g id="node3" class="node">
<title>Node3</title>
<g id="a_node3"><a xlink:href="structDataOutBase_1_1OutputFlagsBase.html" target="_top" xlink:title=" ">
<polygon fill="white" stroke="black" points="0,-114.5 0,-144.5 135,-144.5 135,-114.5 0,-114.5"/>
<text text-anchor="start" x="8" y="-132.5" font-family="Helvetica,sans-Serif" font-size="10.00">DataOutBase::OutputFlags</text>
<text text-anchor="middle" x="67.5" y="-121.5" font-family="Helvetica,sans-Serif" font-size="10.00">Base&lt; VtkFlags &gt;</text>
</a>
</g>
</g>
<!-- Node3&#45;&gt;Node2 -->
<g id="edge2" class="edge">
<title>Node3&#45;&gt;Node2</title>
<path fill="none" stroke="midnightblue" d="M67.5,-104.35C67.5,-94.51 67.5,-83.78 67.5,-76.54"/>
<polygon fill="midnightblue" stroke="midnightblue" points="64,-104.47 67.5,-114.47 71,-104.47 64,-104.47"/>
</g>
<!-- Node4 -->
<g id="node4" class="node">
<title>Node4</title>
<g id="a_node4"><a xlink:href="structDataOutBase_1_1OutputFlagsBase.html" target="_top" xlink:title=" ">
<polygon fill="white" stroke="black" points="0,-192.5 0,-222.5 135,-222.5 135,-192.5 0,-192.5"/>
<text text-anchor="start" x="8" y="-210.5" font-family="Helvetica,sans-Serif" font-size="10.00">DataOutBase::OutputFlags</text>
<text text-anchor="middle" x="67.5" y="-199.5" font-family="Helvetica,sans-Serif" font-size="10.00">Base&lt; FlagsType &gt;</text>
</a>
</g>
</g>
<!-- Node4&#45;&gt;Node3 -->
<g id="edge3" class="edge">
<title>Node4&#45;&gt;Node3</title>
<path fill="none" stroke="orange" stroke-dasharray="5,2" d="M67.5,-182.09C67.5,-169.76 67.5,-155.22 67.5,-144.73"/>
<polygon fill="orange" stroke="orange" points="64,-182.2 67.5,-192.2 71,-182.21 64,-182.2"/>
<text text-anchor="middle" x="98" y="-166" font-family="Helvetica,sans-Serif" font-size="10.00"> &lt; VtkFlags &gt;</text>
</g>
</g>
</svg>
