<?xml version="1.0" encoding="UTF-8" standalone="no"?>
<!DOCTYPE svg PUBLIC "-//W3C//DTD SVG 1.1//EN"
 "http://www.w3.org/Graphics/SVG/1.1/DTD/svg11.dtd">
<!-- Generated by graphviz version 2.47.1 (20210417.1919)
 -->
<!-- Title: Patterns::Tools::internal::RankInfo&lt; Point&lt; dim, Number &gt; &gt; Pages: 1 -->
<svg width="205pt" height="207pt"
 viewBox="0.00 0.00 205.00 207.00" xmlns="http://www.w3.org/2000/svg" xmlns:xlink="http://www.w3.org/1999/xlink">
<g id="graph0" class="graph" transform="scale(1 1) rotate(0) translate(4 203)">
<title>Patterns::Tools::internal::RankInfo&lt; Point&lt; dim, Number &gt; &gt;</title>
<polygon fill="white" stroke="transparent" points="-4,4 -4,-203 201,-203 201,4 -4,4"/>
<!-- Node1 -->
<g id="node1" class="node">
<title>Node1</title>
<g id="a_node1"><a xlink:title=" ">
<polygon fill="#bfbfbf" stroke="black" points="0,-0.5 0,-41.5 122,-41.5 122,-0.5 0,-0.5"/>
<text text-anchor="start" x="8" y="-29.5" font-family="Helvetica,sans-Serif" font-size="10.00">Patterns::Tools::internal</text>
<text text-anchor="start" x="8" y="-18.5" font-family="Helvetica,sans-Serif" font-size="10.00">::RankInfo&lt; Point&lt; dim,</text>
<text text-anchor="middle" x="61" y="-7.5" font-family="Helvetica,sans-Serif" font-size="10.00"> Number &gt; &gt;</text>
</a>
</g>
</g>
<!-- Node2 -->
<g id="node2" class="node">
<title>Node2</title>
<g id="a_node2"><a xlink:href="structPatterns_1_1Tools_1_1internal_1_1RankInfo.html" target="_top" xlink:title=" ">
<polygon fill="white" stroke="black" points="1,-79.5 1,-120.5 121,-120.5 121,-79.5 1,-79.5"/>
<text text-anchor="start" x="9" y="-108.5" font-family="Helvetica,sans-Serif" font-size="10.00">Patterns::Tools::internal</text>
<text text-anchor="start" x="9" y="-97.5" font-family="Helvetica,sans-Serif" font-size="10.00">::RankInfo&lt; Tensor&lt; 1,</text>
<text text-anchor="middle" x="61" y="-86.5" font-family="Helvetica,sans-Serif" font-size="10.00"> dim, Number &gt; &gt;</text>
</a>
</g>
</g>
<!-- Node2&#45;&gt;Node1 -->
<g id="edge1" class="edge">
<title>Node2&#45;&gt;Node1</title>
<path fill="none" stroke="midnightblue" d="M61,-68.91C61,-59.79 61,-50.02 61,-41.76"/>
<polygon fill="midnightblue" stroke="midnightblue" points="57.5,-69.17 61,-79.17 64.5,-69.17 57.5,-69.17"/>
</g>
<!-- Node3 -->
<g id="node3" class="node">
<title>Node3</title>
<g id="a_node3"><a xlink:href="structPatterns_1_1Tools_1_1internal_1_1RankInfo.html" target="_top" xlink:title=" ">
<polygon fill="white" stroke="black" points="0.5,-168.5 0.5,-198.5 121.5,-198.5 121.5,-168.5 0.5,-168.5"/>
<text text-anchor="start" x="8.5" y="-186.5" font-family="Helvetica,sans-Serif" font-size="10.00">Patterns::Tools::internal</text>
<text text-anchor="middle" x="61" y="-175.5" font-family="Helvetica,sans-Serif" font-size="10.00">::RankInfo&lt; T, Enable &gt;</text>
</a>
</g>
</g>
<!-- Node3&#45;&gt;Node2 -->
<g id="edge2" class="edge">
<title>Node3&#45;&gt;Node2</title>
<path fill="none" stroke="orange" stroke-dasharray="5,2" d="M61,-158.07C61,-146.06 61,-131.79 61,-120.53"/>
<polygon fill="orange" stroke="orange" points="57.5,-158.3 61,-168.3 64.5,-158.3 57.5,-158.3"/>
<text text-anchor="middle" x="129" y="-142" font-family="Helvetica,sans-Serif" font-size="10.00"> &lt; Tensor&lt; 1, dim, Number &gt; &gt;</text>
</g>
</g>
</svg>
