<?xml version="1.0" encoding="UTF-8" standalone="no"?>
<!DOCTYPE svg PUBLIC "-//W3C//DTD SVG 1.1//EN"
 "http://www.w3.org/Graphics/SVG/1.1/DTD/svg11.dtd">
<!-- Generated by graphviz version 2.47.1 (20210417.1919)
 -->
<!-- Title: DataOutBase::OutputFlagsBase&lt; FlagsType &gt; Pages: 1 -->
<svg width="796pt" height="481pt"
 viewBox="0.00 0.00 796.00 480.50" xmlns="http://www.w3.org/2000/svg" xmlns:xlink="http://www.w3.org/1999/xlink">
<g id="graph0" class="graph" transform="scale(1 1) rotate(0) translate(4 476.5)">
<title>DataOutBase::OutputFlagsBase&lt; FlagsType &gt;</title>
<polygon fill="white" stroke="transparent" points="-4,4 -4,-476.5 792,-476.5 792,4 -4,4"/>
<!-- Node1 -->
<g id="node1" class="node">
<title>Node1</title>
<g id="a_node1"><a xlink:title=" ">
<polygon fill="#bfbfbf" stroke="black" points="0,-217.5 0,-247.5 135,-247.5 135,-217.5 0,-217.5"/>
<text text-anchor="start" x="8" y="-235.5" font-family="Helvetica,sans-Serif" font-size="10.00">DataOutBase::OutputFlags</text>
<text text-anchor="middle" x="67.5" y="-224.5" font-family="Helvetica,sans-Serif" font-size="10.00">Base&lt; FlagsType &gt;</text>
</a>
</g>
</g>
<!-- Node2 -->
<g id="node2" class="node">
<title>Node2</title>
<g id="a_node2"><a xlink:href="structDataOutBase_1_1OutputFlagsBase.html" target="_top" xlink:title=" ">
<polygon fill="white" stroke="black" points="325.5,-441.5 325.5,-471.5 460.5,-471.5 460.5,-441.5 325.5,-441.5"/>
<text text-anchor="start" x="333.5" y="-459.5" font-family="Helvetica,sans-Serif" font-size="10.00">DataOutBase::OutputFlags</text>
<text text-anchor="middle" x="393" y="-448.5" font-family="Helvetica,sans-Serif" font-size="10.00">Base&lt; TecplotFlags &gt;</text>
</a>
</g>
</g>
<!-- Node1&#45;&gt;Node2 -->
<g id="edge1" class="edge">
<title>Node1&#45;&gt;Node2</title>
<path fill="none" stroke="orange" stroke-dasharray="5,2" d="M72.06,-257.73C79.32,-298.96 99.87,-380.2 153,-420.5 202.06,-457.71 273.41,-464.09 325.37,-462.76"/>
<polygon fill="orange" stroke="orange" points="75.49,-257 70.42,-247.69 68.58,-258.13 75.49,-257"/>
<text text-anchor="middle" x="221" y="-464.5" font-family="Helvetica,sans-Serif" font-size="10.00"> &lt; TecplotFlags &gt;</text>
</g>
<!-- Node4 -->
<g id="node4" class="node">
<title>Node4</title>
<g id="a_node4"><a xlink:href="structDataOutBase_1_1OutputFlagsBase.html" target="_top" xlink:title=" ">
<polygon fill="white" stroke="black" points="325.5,-392.5 325.5,-422.5 460.5,-422.5 460.5,-392.5 325.5,-392.5"/>
<text text-anchor="start" x="333.5" y="-410.5" font-family="Helvetica,sans-Serif" font-size="10.00">DataOutBase::OutputFlags</text>
<text text-anchor="middle" x="393" y="-399.5" font-family="Helvetica,sans-Serif" font-size="10.00">Base&lt; UcdFlags &gt;</text>
</a>
</g>
</g>
<!-- Node1&#45;&gt;Node4 -->
<g id="edge3" class="edge">
<title>Node1&#45;&gt;Node4</title>
<path fill="none" stroke="orange" stroke-dasharray="5,2" d="M77.22,-256.93C89.33,-287.08 114.21,-337.53 153,-363.5 204.01,-397.65 274.24,-407.2 325.37,-409.07"/>
<polygon fill="orange" stroke="orange" points="80.47,-255.62 73.61,-247.55 73.94,-258.14 80.47,-255.62"/>
<text text-anchor="middle" x="221" y="-408.5" font-family="Helvetica,sans-Serif" font-size="10.00"> &lt; UcdFlags &gt;</text>
</g>
<!-- Node6 -->
<g id="node6" class="node">
<title>Node6</title>
<g id="a_node6"><a xlink:href="structDataOutBase_1_1OutputFlagsBase.html" target="_top" xlink:title=" ">
<polygon fill="white" stroke="black" points="325.5,-343.5 325.5,-373.5 460.5,-373.5 460.5,-343.5 325.5,-343.5"/>
<text text-anchor="start" x="333.5" y="-361.5" font-family="Helvetica,sans-Serif" font-size="10.00">DataOutBase::OutputFlags</text>
<text text-anchor="middle" x="393" y="-350.5" font-family="Helvetica,sans-Serif" font-size="10.00">Base&lt; PovrayFlags &gt;</text>
</a>
</g>
</g>
<!-- Node1&#45;&gt;Node6 -->
<g id="edge5" class="edge">
<title>Node1&#45;&gt;Node6</title>
<path fill="none" stroke="orange" stroke-dasharray="5,2" d="M87.13,-255.14C102.86,-272.71 126.92,-296.23 153,-309.5 207.17,-337.06 275.71,-349.12 325.49,-354.4"/>
<polygon fill="orange" stroke="orange" points="89.73,-252.79 80.52,-247.55 84.45,-257.39 89.73,-252.79"/>
<text text-anchor="middle" x="221" y="-351.5" font-family="Helvetica,sans-Serif" font-size="10.00"> &lt; PovrayFlags &gt;</text>
</g>
<!-- Node8 -->
<g id="node8" class="node">
<title>Node8</title>
<g id="a_node8"><a xlink:href="structDataOutBase_1_1OutputFlagsBase.html" target="_top" xlink:title=" ">
<polygon fill="white" stroke="black" points="325.5,-294.5 325.5,-324.5 460.5,-324.5 460.5,-294.5 325.5,-294.5"/>
<text text-anchor="start" x="333.5" y="-312.5" font-family="Helvetica,sans-Serif" font-size="10.00">DataOutBase::OutputFlags</text>
<text text-anchor="middle" x="393" y="-301.5" font-family="Helvetica,sans-Serif" font-size="10.00">Base&lt; DXFlags &gt;</text>
</a>
</g>
</g>
<!-- Node1&#45;&gt;Node8 -->
<g id="edge7" class="edge">
<title>Node1&#45;&gt;Node8</title>
<path fill="none" stroke="orange" stroke-dasharray="5,2" d="M112.49,-251.5C125.37,-256.57 139.6,-261.69 153,-265.5 210.22,-281.78 276.91,-293.47 325.28,-300.7"/>
<polygon fill="orange" stroke="orange" points="113.52,-248.15 102.93,-247.66 110.91,-254.64 113.52,-248.15"/>
<text text-anchor="middle" x="221" y="-297.5" font-family="Helvetica,sans-Serif" font-size="10.00"> &lt; DXFlags &gt;</text>
</g>
<!-- Node10 -->
<g id="node10" class="node">
<title>Node10</title>
<g id="a_node10"><a xlink:href="structDataOutBase_1_1OutputFlagsBase.html" target="_top" xlink:title=" ">
<polygon fill="white" stroke="black" points="325.5,-245.5 325.5,-275.5 460.5,-275.5 460.5,-245.5 325.5,-245.5"/>
<text text-anchor="start" x="333.5" y="-263.5" font-family="Helvetica,sans-Serif" font-size="10.00">DataOutBase::OutputFlags</text>
<text text-anchor="middle" x="393" y="-252.5" font-family="Helvetica,sans-Serif" font-size="10.00">Base&lt; GnuplotFlags &gt;</text>
</a>
</g>
</g>
<!-- Node1&#45;&gt;Node10 -->
<g id="edge9" class="edge">
<title>Node1&#45;&gt;Node10</title>
<path fill="none" stroke="orange" stroke-dasharray="5,2" d="M145.15,-239.13C199.99,-243.88 273.06,-250.21 325.45,-254.74"/>
<polygon fill="orange" stroke="orange" points="145.4,-235.64 135.14,-238.27 144.8,-242.62 145.4,-235.64"/>
<text text-anchor="middle" x="221" y="-253.5" font-family="Helvetica,sans-Serif" font-size="10.00"> &lt; GnuplotFlags &gt;</text>
</g>
<!-- Node12 -->
<g id="node12" class="node">
<title>Node12</title>
<g id="a_node12"><a xlink:href="structDataOutBase_1_1OutputFlagsBase.html" target="_top" xlink:title=" ">
<polygon fill="white" stroke="black" points="325.5,-196.5 325.5,-226.5 460.5,-226.5 460.5,-196.5 325.5,-196.5"/>
<text text-anchor="start" x="333.5" y="-214.5" font-family="Helvetica,sans-Serif" font-size="10.00">DataOutBase::OutputFlags</text>
<text text-anchor="middle" x="393" y="-203.5" font-family="Helvetica,sans-Serif" font-size="10.00">Base&lt; SvgFlags &gt;</text>
</a>
</g>
</g>
<!-- Node1&#45;&gt;Node12 -->
<g id="edge11" class="edge">
<title>Node1&#45;&gt;Node12</title>
<path fill="none" stroke="orange" stroke-dasharray="5,2" d="M145.37,-224.13C147.94,-223.91 150.49,-223.7 153,-223.5 211.19,-218.94 277.5,-215.77 325.49,-213.84"/>
<polygon fill="orange" stroke="orange" points="144.99,-220.65 135.35,-225.03 145.62,-227.62 144.99,-220.65"/>
<text text-anchor="middle" x="221" y="-226.5" font-family="Helvetica,sans-Serif" font-size="10.00"> &lt; SvgFlags &gt;</text>
</g>
<!-- Node14 -->
<g id="node14" class="node">
<title>Node14</title>
<g id="a_node14"><a xlink:href="structDataOutBase_1_1OutputFlagsBase.html" target="_top" xlink:title=" ">
<polygon fill="white" stroke="black" points="325.5,-147.5 325.5,-177.5 460.5,-177.5 460.5,-147.5 325.5,-147.5"/>
<text text-anchor="start" x="333.5" y="-165.5" font-family="Helvetica,sans-Serif" font-size="10.00">DataOutBase::OutputFlags</text>
<text text-anchor="middle" x="393" y="-154.5" font-family="Helvetica,sans-Serif" font-size="10.00">Base&lt; EpsFlags &gt;</text>
</a>
</g>
</g>
<!-- Node1&#45;&gt;Node14 -->
<g id="edge13" class="edge">
<title>Node1&#45;&gt;Node14</title>
<path fill="none" stroke="orange" stroke-dasharray="5,2" d="M112.82,-213.77C125.62,-208.9 139.71,-204.03 153,-200.5 210.25,-185.28 276.94,-175.3 325.3,-169.4"/>
<polygon fill="orange" stroke="orange" points="111.37,-210.58 103.33,-217.47 113.92,-217.1 111.37,-210.58"/>
<text text-anchor="middle" x="221" y="-203.5" font-family="Helvetica,sans-Serif" font-size="10.00"> &lt; EpsFlags &gt;</text>
</g>
<!-- Node16 -->
<g id="node16" class="node">
<title>Node16</title>
<g id="a_node16"><a xlink:href="structDataOutBase_1_1OutputFlagsBase.html" target="_top" xlink:title=" ">
<polygon fill="white" stroke="black" points="325.5,-98.5 325.5,-128.5 460.5,-128.5 460.5,-98.5 325.5,-98.5"/>
<text text-anchor="start" x="333.5" y="-116.5" font-family="Helvetica,sans-Serif" font-size="10.00">DataOutBase::OutputFlags</text>
<text text-anchor="middle" x="393" y="-105.5" font-family="Helvetica,sans-Serif" font-size="10.00">Base&lt; VtkFlags &gt;</text>
</a>
</g>
</g>
<!-- Node1&#45;&gt;Node16 -->
<g id="edge15" class="edge">
<title>Node1&#45;&gt;Node16</title>
<path fill="none" stroke="orange" stroke-dasharray="5,2" d="M88.25,-209.58C104.05,-192.77 127.68,-170.81 153,-158.5 207.39,-132.05 275.75,-121.11 325.41,-116.6"/>
<polygon fill="orange" stroke="orange" points="85.31,-207.61 81.15,-217.36 90.47,-212.33 85.31,-207.61"/>
<text text-anchor="middle" x="221" y="-161.5" font-family="Helvetica,sans-Serif" font-size="10.00"> &lt; VtkFlags &gt;</text>
</g>
<!-- Node20 -->
<g id="node20" class="node">
<title>Node20</title>
<g id="a_node20"><a xlink:href="structDataOutBase_1_1OutputFlagsBase.html" target="_top" xlink:title=" ">
<polygon fill="white" stroke="black" points="307,-49.5 307,-79.5 479,-79.5 479,-49.5 307,-49.5"/>
<text text-anchor="start" x="315" y="-67.5" font-family="Helvetica,sans-Serif" font-size="10.00">DataOutBase::OutputFlags</text>
<text text-anchor="middle" x="393" y="-56.5" font-family="Helvetica,sans-Serif" font-size="10.00">Base&lt; Deal_II_IntermediateFlags &gt;</text>
</a>
</g>
</g>
<!-- Node1&#45;&gt;Node20 -->
<g id="edge19" class="edge">
<title>Node1&#45;&gt;Node20</title>
<path fill="none" stroke="orange" stroke-dasharray="5,2" d="M77.74,-207.89C90.13,-178.48 115.07,-130.18 153,-105.5 198.35,-76 258.39,-65.78 306.94,-62.93"/>
<polygon fill="orange" stroke="orange" points="74.38,-206.85 73.88,-217.43 80.87,-209.47 74.38,-206.85"/>
<text text-anchor="middle" x="221" y="-108.5" font-family="Helvetica,sans-Serif" font-size="10.00"> &lt; Deal_II_IntermediateFlags &gt;</text>
</g>
<!-- Node22 -->
<g id="node22" class="node">
<title>Node22</title>
<g id="a_node22"><a xlink:href="structDataOutBase_1_1OutputFlagsBase.html" target="_top" xlink:title=" ">
<polygon fill="white" stroke="black" points="325.5,-0.5 325.5,-30.5 460.5,-30.5 460.5,-0.5 325.5,-0.5"/>
<text text-anchor="start" x="333.5" y="-18.5" font-family="Helvetica,sans-Serif" font-size="10.00">DataOutBase::OutputFlags</text>
<text text-anchor="middle" x="393" y="-7.5" font-family="Helvetica,sans-Serif" font-size="10.00">Base&lt; GmvFlags &gt;</text>
</a>
</g>
</g>
<!-- Node1&#45;&gt;Node22 -->
<g id="edge21" class="edge">
<title>Node1&#45;&gt;Node22</title>
<path fill="none" stroke="orange" stroke-dasharray="5,2" d="M72.24,-207.42C79.71,-166.85 100.54,-87.46 153,-48.5 202.27,-11.92 273.41,-6.4 325.27,-8.37"/>
<polygon fill="orange" stroke="orange" points="68.78,-206.86 70.54,-217.31 75.68,-208.05 68.78,-206.86"/>
<text text-anchor="middle" x="221" y="-51.5" font-family="Helvetica,sans-Serif" font-size="10.00"> &lt; GmvFlags &gt;</text>
</g>
<!-- Node3 -->
<g id="node3" class="node">
<title>Node3</title>
<g id="a_node3"><a xlink:href="structDataOutBase_1_1TecplotFlags.html" target="_top" xlink:title=" ">
<polygon fill="white" stroke="black" points="517.5,-447 517.5,-466 654.5,-466 654.5,-447 517.5,-447"/>
<text text-anchor="middle" x="586" y="-454" font-family="Helvetica,sans-Serif" font-size="10.00">DataOutBase::TecplotFlags</text>
</a>
</g>
</g>
<!-- Node2&#45;&gt;Node3 -->
<g id="edge2" class="edge">
<title>Node2&#45;&gt;Node3</title>
<path fill="none" stroke="midnightblue" d="M470.59,-456.5C486.08,-456.5 502.26,-456.5 517.41,-456.5"/>
<polygon fill="midnightblue" stroke="midnightblue" points="470.53,-453 460.53,-456.5 470.53,-460 470.53,-453"/>
</g>
<!-- Node5 -->
<g id="node5" class="node">
<title>Node5</title>
<g id="a_node5"><a xlink:href="structDataOutBase_1_1UcdFlags.html" target="_top" xlink:title=" ">
<polygon fill="white" stroke="black" points="524,-398 524,-417 648,-417 648,-398 524,-398"/>
<text text-anchor="middle" x="586" y="-405" font-family="Helvetica,sans-Serif" font-size="10.00">DataOutBase::UcdFlags</text>
</a>
</g>
</g>
<!-- Node4&#45;&gt;Node5 -->
<g id="edge4" class="edge">
<title>Node4&#45;&gt;Node5</title>
<path fill="none" stroke="midnightblue" d="M470.8,-407.5C488.43,-407.5 506.95,-407.5 523.82,-407.5"/>
<polygon fill="midnightblue" stroke="midnightblue" points="470.53,-404 460.53,-407.5 470.53,-411 470.53,-404"/>
</g>
<!-- Node7 -->
<g id="node7" class="node">
<title>Node7</title>
<g id="a_node7"><a xlink:href="structDataOutBase_1_1PovrayFlags.html" target="_top" xlink:title=" ">
<polygon fill="white" stroke="black" points="517.5,-349 517.5,-368 654.5,-368 654.5,-349 517.5,-349"/>
<text text-anchor="middle" x="586" y="-356" font-family="Helvetica,sans-Serif" font-size="10.00">DataOutBase::PovrayFlags</text>
</a>
</g>
</g>
<!-- Node6&#45;&gt;Node7 -->
<g id="edge6" class="edge">
<title>Node6&#45;&gt;Node7</title>
<path fill="none" stroke="midnightblue" d="M470.59,-358.5C486.08,-358.5 502.26,-358.5 517.41,-358.5"/>
<polygon fill="midnightblue" stroke="midnightblue" points="470.53,-355 460.53,-358.5 470.53,-362 470.53,-355"/>
</g>
<!-- Node9 -->
<g id="node9" class="node">
<title>Node9</title>
<g id="a_node9"><a xlink:href="structDataOutBase_1_1DXFlags.html" target="_top" xlink:title=" ">
<polygon fill="white" stroke="black" points="526,-300 526,-319 646,-319 646,-300 526,-300"/>
<text text-anchor="middle" x="586" y="-307" font-family="Helvetica,sans-Serif" font-size="10.00">DataOutBase::DXFlags</text>
</a>
</g>
</g>
<!-- Node8&#45;&gt;Node9 -->
<g id="edge8" class="edge">
<title>Node8&#45;&gt;Node9</title>
<path fill="none" stroke="midnightblue" d="M470.61,-309.5C488.96,-309.5 508.29,-309.5 525.72,-309.5"/>
<polygon fill="midnightblue" stroke="midnightblue" points="470.53,-306 460.53,-309.5 470.53,-313 470.53,-306"/>
</g>
<!-- Node11 -->
<g id="node11" class="node">
<title>Node11</title>
<g id="a_node11"><a xlink:href="structDataOutBase_1_1GnuplotFlags.html" target="_top" xlink:title=" ">
<polygon fill="white" stroke="black" points="516,-251 516,-270 656,-270 656,-251 516,-251"/>
<text text-anchor="middle" x="586" y="-258" font-family="Helvetica,sans-Serif" font-size="10.00">DataOutBase::GnuplotFlags</text>
</a>
</g>
</g>
<!-- Node10&#45;&gt;Node11 -->
<g id="edge10" class="edge">
<title>Node10&#45;&gt;Node11</title>
<path fill="none" stroke="midnightblue" d="M470.73,-260.5C485.62,-260.5 501.15,-260.5 515.79,-260.5"/>
<polygon fill="midnightblue" stroke="midnightblue" points="470.53,-257 460.53,-260.5 470.53,-264 470.53,-257"/>
</g>
<!-- Node13 -->
<g id="node13" class="node">
<title>Node13</title>
<g id="a_node13"><a xlink:href="structDataOutBase_1_1SvgFlags.html" target="_top" xlink:title=" ">
<polygon fill="white" stroke="black" points="524.5,-202 524.5,-221 647.5,-221 647.5,-202 524.5,-202"/>
<text text-anchor="middle" x="586" y="-209" font-family="Helvetica,sans-Serif" font-size="10.00">DataOutBase::SvgFlags</text>
</a>
</g>
</g>
<!-- Node12&#45;&gt;Node13 -->
<g id="edge12" class="edge">
<title>Node12&#45;&gt;Node13</title>
<path fill="none" stroke="midnightblue" d="M470.9,-211.5C488.73,-211.5 507.45,-211.5 524.46,-211.5"/>
<polygon fill="midnightblue" stroke="midnightblue" points="470.53,-208 460.53,-211.5 470.53,-215 470.53,-208"/>
</g>
<!-- Node15 -->
<g id="node15" class="node">
<title>Node15</title>
<g id="a_node15"><a xlink:href="structDataOutBase_1_1EpsFlags.html" target="_top" xlink:title=" ">
<polygon fill="white" stroke="black" points="524.5,-153 524.5,-172 647.5,-172 647.5,-153 524.5,-153"/>
<text text-anchor="middle" x="586" y="-160" font-family="Helvetica,sans-Serif" font-size="10.00">DataOutBase::EpsFlags</text>
</a>
</g>
</g>
<!-- Node14&#45;&gt;Node15 -->
<g id="edge14" class="edge">
<title>Node14&#45;&gt;Node15</title>
<path fill="none" stroke="midnightblue" d="M470.9,-162.5C488.73,-162.5 507.45,-162.5 524.46,-162.5"/>
<polygon fill="midnightblue" stroke="midnightblue" points="470.53,-159 460.53,-162.5 470.53,-166 470.53,-159"/>
</g>
<!-- Node17 -->
<g id="node17" class="node">
<title>Node17</title>
<g id="a_node17"><a xlink:href="structDataOutBase_1_1VtkFlags.html" target="_top" xlink:title=" ">
<polygon fill="white" stroke="black" points="525.5,-104 525.5,-123 646.5,-123 646.5,-104 525.5,-104"/>
<text text-anchor="middle" x="586" y="-111" font-family="Helvetica,sans-Serif" font-size="10.00">DataOutBase::VtkFlags</text>
</a>
</g>
</g>
<!-- Node16&#45;&gt;Node17 -->
<g id="edge16" class="edge">
<title>Node16&#45;&gt;Node17</title>
<path fill="none" stroke="midnightblue" d="M470.56,-113.5C488.82,-113.5 508.04,-113.5 525.4,-113.5"/>
<polygon fill="midnightblue" stroke="midnightblue" points="470.53,-110 460.53,-113.5 470.53,-117 470.53,-110"/>
</g>
<!-- Node18 -->
<g id="node18" class="node">
<title>Node18</title>
<g id="a_node18"><a xlink:href="structGridOutFlags_1_1Vtk.html" target="_top" xlink:title=" ">
<polygon fill="white" stroke="black" points="693,-123 693,-142 788,-142 788,-123 693,-123"/>
<text text-anchor="middle" x="740.5" y="-130" font-family="Helvetica,sans-Serif" font-size="10.00">GridOutFlags::Vtk</text>
</a>
</g>
</g>
<!-- Node17&#45;&gt;Node18 -->
<g id="edge17" class="edge">
<title>Node17&#45;&gt;Node18</title>
<path fill="none" stroke="midnightblue" d="M656.9,-122.21C668.99,-123.71 681.28,-125.25 692.56,-126.65"/>
<polygon fill="midnightblue" stroke="midnightblue" points="657.19,-118.72 646.83,-120.95 656.32,-125.66 657.19,-118.72"/>
</g>
<!-- Node19 -->
<g id="node19" class="node">
<title>Node19</title>
<g id="a_node19"><a xlink:href="structGridOutFlags_1_1Vtu.html" target="_top" xlink:title=" ">
<polygon fill="white" stroke="black" points="693,-85 693,-104 788,-104 788,-85 693,-85"/>
<text text-anchor="middle" x="740.5" y="-92" font-family="Helvetica,sans-Serif" font-size="10.00">GridOutFlags::Vtu</text>
</a>
</g>
</g>
<!-- Node17&#45;&gt;Node19 -->
<g id="edge18" class="edge">
<title>Node17&#45;&gt;Node19</title>
<path fill="none" stroke="midnightblue" d="M656.9,-104.79C668.99,-103.29 681.28,-101.75 692.56,-100.35"/>
<polygon fill="midnightblue" stroke="midnightblue" points="656.32,-101.34 646.83,-106.05 657.19,-108.28 656.32,-101.34"/>
</g>
<!-- Node21 -->
<g id="node21" class="node">
<title>Node21</title>
<g id="a_node21"><a xlink:href="structDataOutBase_1_1Deal__II__IntermediateFlags.html" target="_top" xlink:title=" ">
<polygon fill="white" stroke="black" points="529.5,-49.5 529.5,-79.5 642.5,-79.5 642.5,-49.5 529.5,-49.5"/>
<text text-anchor="start" x="537.5" y="-67.5" font-family="Helvetica,sans-Serif" font-size="10.00">DataOutBase::Deal_II</text>
<text text-anchor="middle" x="586" y="-56.5" font-family="Helvetica,sans-Serif" font-size="10.00">_IntermediateFlags</text>
</a>
</g>
</g>
<!-- Node20&#45;&gt;Node21 -->
<g id="edge20" class="edge">
<title>Node20&#45;&gt;Node21</title>
<path fill="none" stroke="midnightblue" d="M489.17,-64.5C502.93,-64.5 516.7,-64.5 529.33,-64.5"/>
<polygon fill="midnightblue" stroke="midnightblue" points="489.17,-61 479.17,-64.5 489.17,-68 489.17,-61"/>
</g>
<!-- Node23 -->
<g id="node23" class="node">
<title>Node23</title>
<g id="a_node23"><a xlink:href="structDataOutBase_1_1GmvFlags.html" target="_top" xlink:title=" ">
<polygon fill="white" stroke="black" points="522.5,-6 522.5,-25 649.5,-25 649.5,-6 522.5,-6"/>
<text text-anchor="middle" x="586" y="-13" font-family="Helvetica,sans-Serif" font-size="10.00">DataOutBase::GmvFlags</text>
</a>
</g>
</g>
<!-- Node22&#45;&gt;Node23 -->
<g id="edge22" class="edge">
<title>Node22&#45;&gt;Node23</title>
<path fill="none" stroke="midnightblue" d="M471.01,-15.5C488.03,-15.5 505.86,-15.5 522.23,-15.5"/>
<polygon fill="midnightblue" stroke="midnightblue" points="470.53,-12 460.53,-15.5 470.53,-19 470.53,-12"/>
</g>
</g>
</svg>
