<?xml version="1.0" encoding="UTF-8" standalone="no"?>
<!DOCTYPE svg PUBLIC "-//W3C//DTD SVG 1.1//EN"
 "http://www.w3.org/Graphics/SVG/1.1/DTD/svg11.dtd">
<!-- Generated by graphviz version 2.47.1 (20210417.1919)
 -->
<!-- Title: TimeStepping::TimeStepping&lt; VectorType &gt;::Status Pages: 1 -->
<svg width="348pt" height="209pt"
 viewBox="0.00 0.00 348.00 209.00" xmlns="http://www.w3.org/2000/svg" xmlns:xlink="http://www.w3.org/1999/xlink">
<g id="graph0" class="graph" transform="scale(1 1) rotate(0) translate(4 205)">
<title>TimeStepping::TimeStepping&lt; VectorType &gt;::Status</title>
<polygon fill="white" stroke="transparent" points="-4,4 -4,-205 344,-205 344,4 -4,4"/>
<!-- Node1 -->
<g id="node1" class="node">
<title>Node1</title>
<g id="a_node1"><a xlink:title=" ">
<polygon fill="#bfbfbf" stroke="black" points="0,-85 0,-115 143,-115 143,-85 0,-85"/>
<text text-anchor="start" x="8" y="-103" font-family="Helvetica,sans-Serif" font-size="10.00">TimeStepping::TimeStepping</text>
<text text-anchor="middle" x="71.5" y="-92" font-family="Helvetica,sans-Serif" font-size="10.00">&lt; VectorType &gt;::Status</text>
</a>
</g>
</g>
<!-- Node2 -->
<g id="node2" class="node">
<title>Node2</title>
<g id="a_node2"><a xlink:href="structTimeStepping_1_1EmbeddedExplicitRungeKutta_1_1Status.html" target="_top" xlink:title=" ">
<polygon fill="white" stroke="black" points="179,-159.5 179,-200.5 340,-200.5 340,-159.5 179,-159.5"/>
<text text-anchor="start" x="187" y="-188.5" font-family="Helvetica,sans-Serif" font-size="10.00">TimeStepping::EmbeddedExplicit</text>
<text text-anchor="start" x="187" y="-177.5" font-family="Helvetica,sans-Serif" font-size="10.00">RungeKutta&lt; VectorType &gt;</text>
<text text-anchor="middle" x="259.5" y="-166.5" font-family="Helvetica,sans-Serif" font-size="10.00">::Status</text>
</a>
</g>
</g>
<!-- Node1&#45;&gt;Node2 -->
<g id="edge1" class="edge">
<title>Node1&#45;&gt;Node2</title>
<path fill="none" stroke="midnightblue" d="M112.05,-119.47C131.97,-129.04 156.59,-140.53 179,-150 186.47,-153.16 194.41,-156.34 202.25,-159.4"/>
<polygon fill="midnightblue" stroke="midnightblue" points="113.5,-116.28 102.97,-115.08 110.45,-122.58 113.5,-116.28"/>
</g>
<!-- Node3 -->
<g id="node3" class="node">
<title>Node3</title>
<g id="a_node3"><a xlink:href="structTimeStepping_1_1ExplicitRungeKutta_1_1Status.html" target="_top" xlink:title=" ">
<polygon fill="white" stroke="black" points="188,-110 188,-140 331,-140 331,-110 188,-110"/>
<text text-anchor="start" x="196" y="-128" font-family="Helvetica,sans-Serif" font-size="10.00">TimeStepping::ExplicitRunge</text>
<text text-anchor="middle" x="259.5" y="-117" font-family="Helvetica,sans-Serif" font-size="10.00">Kutta&lt; VectorType &gt;::Status</text>
</a>
</g>
</g>
<!-- Node1&#45;&gt;Node3 -->
<g id="edge2" class="edge">
<title>Node1&#45;&gt;Node3</title>
<path fill="none" stroke="midnightblue" d="M153.18,-110.84C164.76,-112.4 176.6,-113.99 187.96,-115.52"/>
<polygon fill="midnightblue" stroke="midnightblue" points="153.46,-107.35 143.08,-109.49 152.53,-114.29 153.46,-107.35"/>
</g>
<!-- Node4 -->
<g id="node4" class="node">
<title>Node4</title>
<g id="a_node4"><a xlink:href="structTimeStepping_1_1ImplicitRungeKutta_1_1Status.html" target="_top" xlink:title=" ">
<polygon fill="white" stroke="black" points="188,-61 188,-91 331,-91 331,-61 188,-61"/>
<text text-anchor="start" x="196" y="-79" font-family="Helvetica,sans-Serif" font-size="10.00">TimeStepping::ImplicitRunge</text>
<text text-anchor="middle" x="259.5" y="-68" font-family="Helvetica,sans-Serif" font-size="10.00">Kutta&lt; VectorType &gt;::Status</text>
</a>
</g>
</g>
<!-- Node1&#45;&gt;Node4 -->
<g id="edge3" class="edge">
<title>Node1&#45;&gt;Node4</title>
<path fill="none" stroke="midnightblue" d="M153.18,-89.59C164.76,-88.1 176.6,-86.57 187.96,-85.1"/>
<polygon fill="midnightblue" stroke="midnightblue" points="152.55,-86.14 143.08,-90.89 153.45,-93.08 152.55,-86.14"/>
</g>
<!-- Node5 -->
<g id="node5" class="node">
<title>Node5</title>
<g id="a_node5"><a xlink:href="structTimeStepping_1_1LowStorageRungeKutta_1_1Status.html" target="_top" xlink:title=" ">
<polygon fill="white" stroke="black" points="192.5,-0.5 192.5,-41.5 326.5,-41.5 326.5,-0.5 192.5,-0.5"/>
<text text-anchor="start" x="200.5" y="-29.5" font-family="Helvetica,sans-Serif" font-size="10.00">TimeStepping::LowStorage</text>
<text text-anchor="start" x="200.5" y="-18.5" font-family="Helvetica,sans-Serif" font-size="10.00">RungeKutta&lt; VectorType</text>
<text text-anchor="middle" x="259.5" y="-7.5" font-family="Helvetica,sans-Serif" font-size="10.00"> &gt;::Status</text>
</a>
</g>
</g>
<!-- Node1&#45;&gt;Node5 -->
<g id="edge4" class="edge">
<title>Node1&#45;&gt;Node5</title>
<path fill="none" stroke="midnightblue" d="M114.18,-80.61C133.76,-71.66 157.47,-61.04 179,-52 187.2,-48.56 195.92,-45.03 204.47,-41.64"/>
<polygon fill="midnightblue" stroke="midnightblue" points="112.57,-77.5 104.94,-84.86 115.49,-83.87 112.57,-77.5"/>
</g>
</g>
</svg>
