<?xml version="1.0" encoding="UTF-8" standalone="no"?>
<!DOCTYPE svg PUBLIC "-//W3C//DTD SVG 1.1//EN"
 "http://www.w3.org/Graphics/SVG/1.1/DTD/svg11.dtd">
<!-- Generated by graphviz version 2.47.1 (20210417.1919)
 -->
<!-- Title: internal::TriangulationImplementation::CellTypeBase Pages: 1 -->
<svg width="396pt" height="333pt"
 viewBox="0.00 0.00 396.00 333.00" xmlns="http://www.w3.org/2000/svg" xmlns:xlink="http://www.w3.org/1999/xlink">
<g id="graph0" class="graph" transform="scale(1 1) rotate(0) translate(4 329)">
<title>internal::TriangulationImplementation::CellTypeBase</title>
<polygon fill="white" stroke="transparent" points="-4,4 -4,-329 392,-329 392,4 -4,4"/>
<!-- Node1 -->
<g id="node1" class="node">
<title>Node1</title>
<g id="a_node1"><a xlink:title=" ">
<polygon fill="#bfbfbf" stroke="black" points="0,-147.5 0,-177.5 176,-177.5 176,-147.5 0,-147.5"/>
<text text-anchor="start" x="8" y="-165.5" font-family="Helvetica,sans-Serif" font-size="10.00">internal::TriangulationImplementation</text>
<text text-anchor="middle" x="88" y="-154.5" font-family="Helvetica,sans-Serif" font-size="10.00">::CellTypeBase</text>
</a>
</g>
</g>
<!-- Node2 -->
<g id="node2" class="node">
<title>Node2</title>
<g id="a_node2"><a xlink:href="structinternal_1_1TriangulationImplementation_1_1CellTypeHex.html" target="_top" xlink:title=" ">
<polygon fill="white" stroke="black" points="212,-294.5 212,-324.5 388,-324.5 388,-294.5 212,-294.5"/>
<text text-anchor="start" x="220" y="-312.5" font-family="Helvetica,sans-Serif" font-size="10.00">internal::TriangulationImplementation</text>
<text text-anchor="middle" x="300" y="-301.5" font-family="Helvetica,sans-Serif" font-size="10.00">::CellTypeHex</text>
</a>
</g>
</g>
<!-- Node1&#45;&gt;Node2 -->
<g id="edge1" class="edge">
<title>Node1&#45;&gt;Node2</title>
<path fill="none" stroke="midnightblue" d="M106.15,-185.89C127.78,-213.7 167.54,-259.61 212,-285.5 217.82,-288.89 224.14,-291.82 230.63,-294.34"/>
<polygon fill="midnightblue" stroke="midnightblue" points="108.89,-183.7 100.04,-177.88 103.33,-187.95 108.89,-183.7"/>
</g>
<!-- Node3 -->
<g id="node3" class="node">
<title>Node3</title>
<g id="a_node3"><a xlink:href="structinternal_1_1TriangulationImplementation_1_1CellTypeLine.html" target="_top" xlink:title=" ">
<polygon fill="white" stroke="black" points="212,-245.5 212,-275.5 388,-275.5 388,-245.5 212,-245.5"/>
<text text-anchor="start" x="220" y="-263.5" font-family="Helvetica,sans-Serif" font-size="10.00">internal::TriangulationImplementation</text>
<text text-anchor="middle" x="300" y="-252.5" font-family="Helvetica,sans-Serif" font-size="10.00">::CellTypeLine</text>
</a>
</g>
</g>
<!-- Node1&#45;&gt;Node3 -->
<g id="edge2" class="edge">
<title>Node1&#45;&gt;Node3</title>
<path fill="none" stroke="midnightblue" d="M118.62,-183.48C142.8,-199.81 178.35,-222.06 212,-236.5 219.78,-239.84 228.14,-242.83 236.5,-245.49"/>
<polygon fill="midnightblue" stroke="midnightblue" points="120.48,-180.51 110.25,-177.76 116.53,-186.29 120.48,-180.51"/>
</g>
<!-- Node4 -->
<g id="node4" class="node">
<title>Node4</title>
<g id="a_node4"><a xlink:href="structinternal_1_1TriangulationImplementation_1_1CellTypePyramid.html" target="_top" xlink:title=" ">
<polygon fill="white" stroke="black" points="212,-196.5 212,-226.5 388,-226.5 388,-196.5 212,-196.5"/>
<text text-anchor="start" x="220" y="-214.5" font-family="Helvetica,sans-Serif" font-size="10.00">internal::TriangulationImplementation</text>
<text text-anchor="middle" x="300" y="-203.5" font-family="Helvetica,sans-Serif" font-size="10.00">::CellTypePyramid</text>
</a>
</g>
</g>
<!-- Node1&#45;&gt;Node4 -->
<g id="edge3" class="edge">
<title>Node1&#45;&gt;Node4</title>
<path fill="none" stroke="midnightblue" d="M163.28,-179.83C186.59,-185.27 212.12,-191.23 234.69,-196.49"/>
<polygon fill="midnightblue" stroke="midnightblue" points="163.97,-176.4 153.43,-177.53 162.38,-183.22 163.97,-176.4"/>
</g>
<!-- Node5 -->
<g id="node5" class="node">
<title>Node5</title>
<g id="a_node5"><a xlink:href="structinternal_1_1TriangulationImplementation_1_1CellTypeQuad.html" target="_top" xlink:title=" ">
<polygon fill="white" stroke="black" points="212,-147.5 212,-177.5 388,-177.5 388,-147.5 212,-147.5"/>
<text text-anchor="start" x="220" y="-165.5" font-family="Helvetica,sans-Serif" font-size="10.00">internal::TriangulationImplementation</text>
<text text-anchor="middle" x="300" y="-154.5" font-family="Helvetica,sans-Serif" font-size="10.00">::CellTypeQuad</text>
</a>
</g>
</g>
<!-- Node1&#45;&gt;Node5 -->
<g id="edge4" class="edge">
<title>Node1&#45;&gt;Node5</title>
<path fill="none" stroke="midnightblue" d="M186.46,-162.5C194.88,-162.5 203.37,-162.5 211.7,-162.5"/>
<polygon fill="midnightblue" stroke="midnightblue" points="186.23,-159 176.23,-162.5 186.23,-166 186.23,-159"/>
</g>
<!-- Node6 -->
<g id="node6" class="node">
<title>Node6</title>
<g id="a_node6"><a xlink:href="structinternal_1_1TriangulationImplementation_1_1CellTypeTet.html" target="_top" xlink:title=" ">
<polygon fill="white" stroke="black" points="212,-98.5 212,-128.5 388,-128.5 388,-98.5 212,-98.5"/>
<text text-anchor="start" x="220" y="-116.5" font-family="Helvetica,sans-Serif" font-size="10.00">internal::TriangulationImplementation</text>
<text text-anchor="middle" x="300" y="-105.5" font-family="Helvetica,sans-Serif" font-size="10.00">::CellTypeTet</text>
</a>
</g>
</g>
<!-- Node1&#45;&gt;Node6 -->
<g id="edge5" class="edge">
<title>Node1&#45;&gt;Node6</title>
<path fill="none" stroke="midnightblue" d="M163.28,-145.17C186.59,-139.73 212.12,-133.77 234.69,-128.51"/>
<polygon fill="midnightblue" stroke="midnightblue" points="162.38,-141.78 153.43,-147.47 163.97,-148.6 162.38,-141.78"/>
</g>
<!-- Node7 -->
<g id="node7" class="node">
<title>Node7</title>
<g id="a_node7"><a xlink:href="structinternal_1_1TriangulationImplementation_1_1CellTypeTri.html" target="_top" xlink:title=" ">
<polygon fill="white" stroke="black" points="212,-49.5 212,-79.5 388,-79.5 388,-49.5 212,-49.5"/>
<text text-anchor="start" x="220" y="-67.5" font-family="Helvetica,sans-Serif" font-size="10.00">internal::TriangulationImplementation</text>
<text text-anchor="middle" x="300" y="-56.5" font-family="Helvetica,sans-Serif" font-size="10.00">::CellTypeTri</text>
</a>
</g>
</g>
<!-- Node1&#45;&gt;Node7 -->
<g id="edge6" class="edge">
<title>Node1&#45;&gt;Node7</title>
<path fill="none" stroke="midnightblue" d="M119.15,-141.63C143.36,-125.62 178.7,-103.88 212,-89.5 220.51,-85.82 229.72,-82.51 238.86,-79.6"/>
<polygon fill="midnightblue" stroke="midnightblue" points="117.12,-138.78 110.75,-147.25 121.01,-144.6 117.12,-138.78"/>
</g>
<!-- Node8 -->
<g id="node8" class="node">
<title>Node8</title>
<g id="a_node8"><a xlink:href="structinternal_1_1TriangulationImplementation_1_1CellTypeWedge.html" target="_top" xlink:title=" ">
<polygon fill="white" stroke="black" points="212,-0.5 212,-30.5 388,-30.5 388,-0.5 212,-0.5"/>
<text text-anchor="start" x="220" y="-18.5" font-family="Helvetica,sans-Serif" font-size="10.00">internal::TriangulationImplementation</text>
<text text-anchor="middle" x="300" y="-7.5" font-family="Helvetica,sans-Serif" font-size="10.00">::CellTypeWedge</text>
</a>
</g>
</g>
<!-- Node1&#45;&gt;Node8 -->
<g id="edge7" class="edge">
<title>Node1&#45;&gt;Node8</title>
<path fill="none" stroke="midnightblue" d="M106.24,-139.39C127.95,-111.88 167.8,-66.43 212,-40.5 218.51,-36.68 225.63,-33.42 232.91,-30.63"/>
<polygon fill="midnightblue" stroke="midnightblue" points="103.46,-137.26 100.1,-147.31 109,-141.55 103.46,-137.26"/>
</g>
</g>
</svg>
