<?xml version="1.0" encoding="UTF-8" standalone="no"?>
<!DOCTYPE svg PUBLIC "-//W3C//DTD SVG 1.1//EN"
 "http://www.w3.org/Graphics/SVG/1.1/DTD/svg11.dtd">
<!-- Generated by graphviz version 2.47.1 (20210417.1919)
 -->
<!-- Title: internal::MatrixFreeFunctions::MappingInfoStorage&lt; structdim, spacedim, Number, VectorizedArrayType &gt; Pages: 1 -->
<svg width="556pt" height="182pt"
 viewBox="0.00 0.00 556.00 181.50" xmlns="http://www.w3.org/2000/svg" xmlns:xlink="http://www.w3.org/1999/xlink">
<g id="graph0" class="graph" transform="scale(1 1) rotate(0) translate(4 177.5)">
<title>internal::MatrixFreeFunctions::MappingInfoStorage&lt; structdim, spacedim, Number, VectorizedArrayType &gt;</title>
<polygon fill="white" stroke="transparent" points="-4,4 -4,-177.5 552,-177.5 552,4 -4,4"/>
<!-- Node1 -->
<g id="node1" class="node">
<title>Node1</title>
<g id="a_node1"><a xlink:title=" ">
<polygon fill="#bfbfbf" stroke="black" points="0,-60.5 0,-101.5 207,-101.5 207,-60.5 0,-60.5"/>
<text text-anchor="start" x="8" y="-89.5" font-family="Helvetica,sans-Serif" font-size="10.00">internal::MatrixFreeFunctions</text>
<text text-anchor="start" x="8" y="-78.5" font-family="Helvetica,sans-Serif" font-size="10.00">::MappingInfoStorage&lt; structdim,</text>
<text text-anchor="middle" x="103.5" y="-67.5" font-family="Helvetica,sans-Serif" font-size="10.00"> spacedim, Number, VectorizedArrayType &gt;</text>
</a>
</g>
</g>
<!-- Node2 -->
<g id="node2" class="node">
<title>Node2</title>
<g id="a_node2"><a xlink:href="structinternal_1_1MatrixFreeFunctions_1_1MappingInfoStorage.html" target="_top" xlink:title=" ">
<polygon fill="white" stroke="black" points="369.5,-121 369.5,-173 528.5,-173 528.5,-121 369.5,-121"/>
<text text-anchor="start" x="377.5" y="-161" font-family="Helvetica,sans-Serif" font-size="10.00">internal::MatrixFreeFunctions</text>
<text text-anchor="start" x="377.5" y="-150" font-family="Helvetica,sans-Serif" font-size="10.00">::MappingInfoStorage&lt;(is</text>
<text text-anchor="start" x="377.5" y="-139" font-family="Helvetica,sans-Serif" font-size="10.00">_face ? dim &#45; 1 :dim), dim,</text>
<text text-anchor="middle" x="449" y="-128" font-family="Helvetica,sans-Serif" font-size="10.00"> Number, VectorizedArrayType &gt;</text>
</a>
</g>
</g>
<!-- Node1&#45;&gt;Node2 -->
<g id="edge1" class="edge">
<title>Node1&#45;&gt;Node2</title>
<path fill="none" stroke="orange" stroke-dasharray="5,2" d="M208.35,-103.65C213.97,-104.8 219.55,-105.92 225,-107 272.85,-116.45 326.66,-126.13 369.44,-133.6"/>
<polygon fill="orange" stroke="orange" points="208.68,-100.14 198.17,-101.55 207.26,-107 208.68,-100.14"/>
<text text-anchor="start" x="227" y="-151" font-family="Helvetica,sans-Serif" font-size="10.00"> &lt;(is_face ? dim &#45; 1</text>
<text text-anchor="start" x="227" y="-140" font-family="Helvetica,sans-Serif" font-size="10.00"> :dim), dim, Number,</text>
<text text-anchor="middle" x="278.5" y="-129" font-family="Helvetica,sans-Serif" font-size="10.00"> VectorizedArrayType &gt;</text>
</g>
<!-- Node3 -->
<g id="node3" class="node">
<title>Node3</title>
<g id="a_node3"><a xlink:href="structinternal_1_1MatrixFreeFunctions_1_1MappingInfoStorage.html" target="_top" xlink:title=" ">
<polygon fill="white" stroke="black" points="358.5,-60.5 358.5,-101.5 539.5,-101.5 539.5,-60.5 358.5,-60.5"/>
<text text-anchor="start" x="366.5" y="-89.5" font-family="Helvetica,sans-Serif" font-size="10.00">internal::MatrixFreeFunctions</text>
<text text-anchor="start" x="366.5" y="-78.5" font-family="Helvetica,sans-Serif" font-size="10.00">::MappingInfoStorage&lt; dim,</text>
<text text-anchor="middle" x="449" y="-67.5" font-family="Helvetica,sans-Serif" font-size="10.00"> dim, Number, VectorizedArrayType &gt;</text>
</a>
</g>
</g>
<!-- Node1&#45;&gt;Node3 -->
<g id="edge2" class="edge">
<title>Node1&#45;&gt;Node3</title>
<path fill="none" stroke="orange" stroke-dasharray="5,2" d="M217.37,-81C263.18,-81 315.33,-81 358.45,-81"/>
<polygon fill="orange" stroke="orange" points="217.1,-77.5 207.1,-81 217.1,-84.5 217.1,-77.5"/>
<text text-anchor="start" x="227" y="-95" font-family="Helvetica,sans-Serif" font-size="10.00"> &lt; dim, dim, Number,</text>
<text text-anchor="middle" x="278.5" y="-84" font-family="Helvetica,sans-Serif" font-size="10.00"> VectorizedArrayType &gt;</text>
</g>
<!-- Node4 -->
<g id="node4" class="node">
<title>Node4</title>
<g id="a_node4"><a xlink:href="structinternal_1_1MatrixFreeFunctions_1_1MappingInfoStorage.html" target="_top" xlink:title=" ">
<polygon fill="white" stroke="black" points="350,-0.5 350,-41.5 548,-41.5 548,-0.5 350,-0.5"/>
<text text-anchor="start" x="358" y="-29.5" font-family="Helvetica,sans-Serif" font-size="10.00">internal::MatrixFreeFunctions</text>
<text text-anchor="start" x="358" y="-18.5" font-family="Helvetica,sans-Serif" font-size="10.00">::MappingInfoStorage&lt; dim</text>
<text text-anchor="middle" x="449" y="-7.5" font-family="Helvetica,sans-Serif" font-size="10.00"> &#45; 1, dim, Number, VectorizedArrayType &gt;</text>
</a>
</g>
</g>
<!-- Node1&#45;&gt;Node4 -->
<g id="edge3" class="edge">
<title>Node1&#45;&gt;Node4</title>
<path fill="none" stroke="orange" stroke-dasharray="5,2" d="M207.05,-58.43C213.12,-57.23 219.13,-56.08 225,-55 265.73,-47.51 310.86,-40.4 349.81,-34.65"/>
<polygon fill="orange" stroke="orange" points="205.94,-55.08 196.82,-60.48 207.31,-61.95 205.94,-55.08"/>
<text text-anchor="start" x="225" y="-69" font-family="Helvetica,sans-Serif" font-size="10.00"> &lt; dim &#45; 1, dim, Number,</text>
<text text-anchor="middle" x="278.5" y="-58" font-family="Helvetica,sans-Serif" font-size="10.00"> VectorizedArrayType &gt;</text>
</g>
</g>
</svg>
